<?xml version="1.0" encoding="utf-8"?>
<!-- Generator: Adobe Illustrator 16.0.3, SVG Export Plug-In . SVG Version: 6.00 Build 0)  -->
<!DOCTYPE svg PUBLIC "-//W3C//DTD SVG 1.1//EN" "http://www.w3.org/Graphics/SVG/1.1/DTD/svg11.dtd">
<svg version="1.1"
	 id="svg14761" xmlns:dc="http://purl.org/dc/elements/1.1/" xmlns:cc="http://creativecommons.org/ns#" xmlns:rdf="http://www.w3.org/1999/02/22-rdf-syntax-ns#" xmlns:svg="http://www.w3.org/2000/svg" xmlns:sodipodi="http://sodipodi.sourceforge.net/DTD/sodipodi-0.dtd" xmlns:inkscape="http://www.inkscape.org/namespaces/inkscape" inkscape:version="0.91 r13725" sodipodi:docname="pharmacy.svg" inkscape:export-filename="C:\Users\Fabienne\Desktop\Symbole\png\pharmacy.png" inkscape:export-xdpi="90" inkscape:export-ydpi="90"
	 xmlns="http://www.w3.org/2000/svg" xmlns:xlink="http://www.w3.org/1999/xlink" x="0px" y="0px" width="32px" height="32px"
	 viewBox="0 0 32 32" enable-background="new 0 0 32 32" xml:space="preserve">
<sodipodi:namedview  gridtolerance="10" guidetolerance="10" objecttolerance="10" pagecolor="#ffffff" bordercolor="#666666" borderopacity="1" inkscape:zoom="10.429825" inkscape:cx="-21.761242" inkscape:cy="11.608844" id="namedview14765" showgrid="false" inkscape:pageopacity="0" inkscape:pageshadow="2" inkscape:current-layer="svg14761" inkscape:window-maximized="1" inkscape:window-width="1920" inkscape:window-height="1003" inkscape:window-x="-9" inkscape:window-y="-9">
	</sodipodi:namedview>
<path id="path4153" inkscape:connector-curvature="0" fill="none" d="M5.183,31.771c-2.588-0.338-4.654-2.445-4.951-5.053
	c-0.03-0.264-0.04-3.854-0.03-10.981L0.216,5.15l0.093-0.384C0.503,3.96,0.755,3.372,1.176,2.742
	c0.859-1.286,2.253-2.188,3.816-2.468c0.402-0.072,1.024-0.076,11.027-0.076c11.842,0,10.881-0.024,11.844,0.298
	c0.867,0.291,1.545,0.702,2.193,1.333c0.687,0.665,1.178,1.445,1.463,2.322c0.304,0.928,0.28,0.088,0.279,11.844
	c0,11.396,0.012,10.876-0.212,11.671c-0.229,0.834-0.772,1.764-1.399,2.398c-0.818,0.832-1.778,1.359-2.992,1.65
	c-0.303,0.072-0.901,0.076-11.027,0.084C10.278,31.807,5.335,31.793,5.183,31.771L5.183,31.771z M26.951,31.285
	c2.152-0.375,3.805-1.967,4.303-4.143l0.098-0.431l0.019-10.376c0.014-10.56,0.01-10.917-0.146-11.577
	c-0.229-1.001-0.769-1.931-1.529-2.652c-0.735-0.7-1.563-1.127-2.629-1.362C26.719,0.67,26.271,0.667,16.02,0.667
	c-10.093,0-10.707,0.004-11.061,0.076C3.042,1.134,1.521,2.471,0.92,4.29C0.644,5.125,0.661,4.386,0.661,16.019
	c0,11.637-0.017,10.893,0.259,11.717c0.609,1.82,2.203,3.205,4.075,3.543C5.514,31.375,26.415,31.379,26.951,31.285z"/>
<path id="path4745" inkscape:connector-curvature="0" fill="none" d="M8.972,31.111c-3.917-0.027-3.982-0.029-4.314-0.123
	c-0.875-0.246-1.639-0.695-2.283-1.342c-0.636-0.643-0.992-1.217-1.279-2.074l-0.154-0.459l-0.041-1.539
	C0.844,23.406,0.883,5.543,0.947,5.077c0.092-0.668,0.455-1.514,0.916-2.133C2.558,2.01,3.458,1.392,4.627,1.046l0.367-0.109
	l2.594-0.031c3.373-0.041,13.688-0.041,16.926,0l2.527,0.032l0.391,0.118c1.782,0.542,3.098,1.896,3.553,3.658
	c0.103,0.385,0.108,0.527,0.148,2.079c0.026,1.035,0.032,5.134,0.016,10.818l-0.024,9.152l-0.104,0.414
	c-0.465,1.863-1.812,3.275-3.608,3.783L27,31.078l-4.042,0.031C18.41,31.152,14.788,31.15,8.972,31.111L8.972,31.111L8.972,31.111z"
	/>
<path fill="none" d="M29.007,29.568c3.062,0.449,5.724,1.313,7.593,2.412c2.021,1.188,3.063,2.586,3.063,3.965
	c0,0.822-0.356,1.619-1.091,2.412c-0.732,0.793-1.831,1.562-3.229,2.203c-2.798,1.278-6.752,2.096-11.116,2.096
	c-4.365,0-8.317-0.814-11.118-2.096c-1.399-0.645-2.498-1.41-3.23-2.203s-1.091-1.59-1.091-2.412c0-1.211,0.793-2.43,2.37-3.523
	c1.417-0.98,3.444-1.804,5.83-2.369c-0.01,0.08-0.012,0.17-0.021,0.252c-1.527,0.493-2.835,1.133-3.796,1.93
	c-1.028,0.854-1.699,1.914-1.699,3.104c0,0.953,0.438,1.843,1.133,2.58s1.659,1.37,2.811,1.89c2.305,1.037,5.393,1.637,8.811,1.637
	s6.506-0.6,8.812-1.637c1.149-0.52,2.114-1.147,2.812-1.89c0.695-0.741,1.133-1.627,1.133-2.58c0-1.497-1.049-2.772-2.58-3.731
	c-1.396-0.877-3.246-1.547-5.391-1.951C29.008,29.626,29.006,29.598,29.007,29.568z"/>
<g>
	<path fill-rule="evenodd" clip-rule="evenodd" fill="#287099" d="M26.686,9.285c0,0.583,0,1.152,0,1.744
		c-0.084,0.005-0.168,0.017-0.252,0.017c-1.422,0.001-2.843,0.001-4.266,0.001c-0.244,0-0.244,0.001-0.244,0.247
		c0,4.665,0,9.331,0,13.995c0,0.087,0,0.174,0,0.271c-4.056,0-8.091,0-12.156,0c0-4.826,0-9.654,0-14.511c-1.603,0-3.177,0-4.764,0
		c0-0.6,0-1.173,0-1.761c2.171,0,4.341,0,6.539,0c0,2.521,0,5.045,0,7.589c0.299-0.09,0.449-0.294,0.583-0.514
		c0.049-0.079,0.083-0.169,0.129-0.249c0.083-0.146,0.152-0.141,0.238,0.007c0.087,0.152,0.161,0.313,0.267,0.45
		c0.394,0.511,1.14,0.517,1.543,0.013c0.108-0.134,0.179-0.3,0.272-0.446c0.032-0.049,0.081-0.119,0.125-0.12
		c0.04-0.001,0.094,0.067,0.124,0.116c0.083,0.132,0.147,0.277,0.237,0.402c0.391,0.542,1.13,0.558,1.539,0.03
		c0.102-0.132,0.17-0.291,0.261-0.433c0.032-0.049,0.085-0.117,0.126-0.115c0.045,0.001,0.094,0.071,0.124,0.12
		c0.09,0.141,0.156,0.303,0.259,0.432c0.413,0.523,1.166,0.516,1.569-0.012c0.095-0.124,0.158-0.271,0.241-0.401
		c0.035-0.055,0.086-0.099,0.129-0.147c0.047,0.047,0.098,0.088,0.136,0.14c0.139,0.191,0.264,0.391,0.411,0.575
		c0.057,0.069,0.159,0.104,0.278,0.179c0-2.566,0-5.084,0-7.62C22.326,9.285,24.495,9.285,26.686,9.285z"/>
	<path fill-rule="evenodd" clip-rule="evenodd" fill="#287099" d="M15.257,8.362c-0.577,0-1.138,0-1.678,0
		c0.826-0.822,1.656-1.646,2.47-2.456c0.792,0.791,1.615,1.616,2.453,2.453c-0.403,0-0.806,0-1.209,0c-0.51,0-0.51,0-0.51,0.505
		c0,1.608,0,3.217,0,4.826c0,0.081,0,0.161,0,0.264c-0.082,0.003-0.147,0.01-0.213,0.01c-0.356,0.001-0.713-0.009-1.07,0.004
		c-0.178,0.006-0.238-0.042-0.234-0.227c0.011-0.632,0.004-1.265,0.004-1.896c0-1.071,0-2.141,0-3.211
		C15.269,8.547,15.262,8.461,15.257,8.362z"/>
</g>
</svg>
