<?xml version="1.0" encoding="utf-8"?>
<!-- Generator: Adobe Illustrator 16.0.3, SVG Export Plug-In . SVG Version: 6.00 Build 0)  -->
<!DOCTYPE svg PUBLIC "-//W3C//DTD SVG 1.1//EN" "http://www.w3.org/Graphics/SVG/1.1/DTD/svg11.dtd">
<svg version="1.1"
	 id="svg14761" xmlns:dc="http://purl.org/dc/elements/1.1/" xmlns:cc="http://creativecommons.org/ns#" xmlns:rdf="http://www.w3.org/1999/02/22-rdf-syntax-ns#" xmlns:svg="http://www.w3.org/2000/svg" xmlns:sodipodi="http://sodipodi.sourceforge.net/DTD/sodipodi-0.dtd" xmlns:inkscape="http://www.inkscape.org/namespaces/inkscape" inkscape:export-ydpi="90" inkscape:export-xdpi="90" inkscape:export-filename="C:\Users\Fabienne\Desktop\Symbole\png\pharmacy.png" sodipodi:docname="pharmacy.svg" inkscape:version="0.91 r13725"
	 xmlns="http://www.w3.org/2000/svg" xmlns:xlink="http://www.w3.org/1999/xlink" x="0px" y="0px" width="32px" height="32px"
	 viewBox="0 0 32 32" enable-background="new 0 0 32 32" xml:space="preserve">
<sodipodi:namedview  showgrid="false" id="namedview14765" inkscape:cy="11.608844" inkscape:cx="-21.761242" inkscape:zoom="10.429825" borderopacity="1" bordercolor="#666666" pagecolor="#ffffff" inkscape:window-maximized="1" inkscape:window-y="-9" inkscape:window-x="-9" inkscape:window-height="1003" inkscape:window-width="1920" inkscape:current-layer="svg14761" inkscape:pageshadow="2" inkscape:pageopacity="0" objecttolerance="10" guidetolerance="10" gridtolerance="10">
	</sodipodi:namedview>
<path id="path4153" inkscape:connector-curvature="0" fill="none" d="M5.183,31.771c-2.588-0.338-4.654-2.445-4.951-5.053
	c-0.03-0.263-0.04-3.853-0.03-10.98L0.216,5.15l0.093-0.384C0.503,3.96,0.755,3.372,1.176,2.742
	c0.859-1.286,2.253-2.188,3.816-2.468c0.402-0.072,1.024-0.076,11.027-0.076c11.842,0,10.881-0.024,11.844,0.298
	c0.867,0.291,1.545,0.702,2.193,1.333c0.687,0.665,1.178,1.445,1.463,2.322c0.304,0.928,0.281,0.088,0.28,11.844
	c0,11.396,0.011,10.876-0.212,11.671c-0.23,0.834-0.773,1.764-1.4,2.398c-0.818,0.832-1.778,1.36-2.992,1.651
	c-0.303,0.072-0.901,0.076-11.027,0.084C10.278,31.807,5.335,31.793,5.183,31.771L5.183,31.771z M26.951,31.285
	c2.152-0.375,3.805-1.967,4.303-4.143l0.098-0.43l0.018-10.376c0.014-10.56,0.01-10.917-0.146-11.577
	c-0.229-1.001-0.768-1.931-1.529-2.652c-0.735-0.7-1.563-1.127-2.629-1.362C26.719,0.67,26.271,0.667,16.02,0.667
	c-10.093,0-10.707,0.004-11.061,0.076C3.042,1.134,1.521,2.471,0.92,4.29C0.644,5.125,0.661,4.386,0.661,16.019
	c0,11.637-0.017,10.893,0.259,11.717c0.609,1.82,2.203,3.205,4.075,3.543C5.514,31.375,26.415,31.379,26.951,31.285z"/>
<path id="path4745" inkscape:connector-curvature="0" fill="none" d="M8.972,31.111c-3.917-0.027-3.982-0.029-4.314-0.123
	c-0.875-0.246-1.639-0.695-2.283-1.342c-0.636-0.642-0.992-1.217-1.279-2.074l-0.154-0.459l-0.041-1.539
	C0.844,23.406,0.883,5.543,0.947,5.077c0.092-0.668,0.455-1.514,0.916-2.133C2.558,2.01,3.458,1.392,4.627,1.046l0.367-0.109
	l2.594-0.031c3.373-0.041,13.688-0.041,16.926,0l2.527,0.032l0.391,0.118c1.782,0.542,3.098,1.896,3.553,3.658
	c0.102,0.385,0.108,0.527,0.148,2.079c0.026,1.035,0.032,5.134,0.016,10.818l-0.025,9.152l-0.104,0.414
	c-0.465,1.864-1.812,3.276-3.609,3.784L27,31.078l-4.042,0.031C18.41,31.152,14.788,31.15,8.972,31.111L8.972,31.111L8.972,31.111z"
	/>
<path fill="none" d="M29.007,29.568c3.062,0.449,5.724,1.313,7.593,2.412c2.021,1.188,3.063,2.586,3.063,3.965
	c0,0.822-0.356,1.619-1.091,2.412c-0.732,0.793-1.831,1.562-3.229,2.203c-2.798,1.279-6.752,2.096-11.116,2.096
	c-4.365,0-8.318-0.814-11.118-2.096c-1.399-0.644-2.498-1.41-3.23-2.203s-1.091-1.59-1.091-2.412c0-1.211,0.793-2.43,2.37-3.523
	c1.417-0.98,3.444-1.804,5.83-2.369c-0.01,0.08-0.012,0.17-0.021,0.252c-1.527,0.493-2.835,1.133-3.796,1.93
	c-1.028,0.853-1.699,1.914-1.699,3.104c0,0.953,0.438,1.843,1.133,2.58s1.659,1.37,2.811,1.89c2.305,1.037,5.393,1.637,8.811,1.637
	s6.506-0.6,8.811-1.637c1.15-0.52,2.115-1.148,2.811-1.89c0.696-0.741,1.133-1.627,1.133-2.58c0-1.497-1.049-2.772-2.58-3.731
	c-1.396-0.877-3.246-1.547-5.391-1.951C29.008,29.626,29.006,29.598,29.007,29.568z"/>
<g>
	<path fill-rule="evenodd" clip-rule="evenodd" fill="#287099" d="M5.704,19.035C5.7,18.891,5.686,18.742,5.686,18.59
		c-0.003-2.369,0.007-4.734-0.009-7.101c-0.003-0.395,0.086-0.539,0.511-0.535c2.057,0.021,4.114,0.017,6.171,0
		c0.392-0.001,0.542,0.089,0.54,0.514c-0.021,2.366-0.021,4.735,0,7.102c0.002,0.453-0.175,0.559-0.579,0.529
		c-0.5-0.041-0.818-0.324-1.064-0.721c-0.098-0.156-0.17-0.332-0.268-0.488c-0.148-0.244-0.304-0.236-0.444,0.012
		c-0.081,0.15-0.158,0.305-0.237,0.453c-0.528,1.006-1.939,1.012-2.494,0.025c-0.444-0.781-0.47-0.766-0.965,0.012
		C6.517,18.912,6.206,19.094,5.704,19.035z"/>
	<path fill-rule="evenodd" clip-rule="evenodd" fill="#287099" d="M18.783,15.025c0-1.192,0.012-2.385-0.004-3.575
		c-0.006-0.34,0.061-0.497,0.453-0.496c2.104,0.02,4.209,0.017,6.311,0.002c0.35-0.002,0.451,0.119,0.451,0.458
		c-0.016,2.412-0.006,4.825-0.012,7.241c0,0.461-0.15,0.564-0.547,0.311c-0.25-0.164-0.441-0.42-0.641-0.65
		c-0.164-0.189-0.307-0.395-0.455-0.596c-0.141,0.193-0.295,0.377-0.414,0.578c-0.322,0.529-0.734,0.852-1.396,0.811
		c-0.502-0.029-0.828-0.287-1.098-0.674c-0.172-0.242-0.352-0.477-0.525-0.715c-0.176,0.242-0.355,0.484-0.523,0.73
		c-0.275,0.41-0.633,0.65-1.152,0.652c-0.346,0.004-0.457-0.119-0.451-0.461C18.795,17.438,18.783,16.231,18.783,15.025z"/>
	<path fill-rule="evenodd" clip-rule="evenodd" fill="#287099" d="M13.49,8.961c0.809-0.809,1.583-1.581,2.316-2.317
		c0.752,0.753,1.53,1.532,2.309,2.311c-0.457,0-0.959,0-1.534,0c0,0.239,0,0.432,0,0.627c0,4.086,0,8.173,0,12.257
		c0,0.613,0,0.619-0.597,0.613c-0.953-0.004-0.835,0.109-0.837-0.846c-0.001-4.006,0-8.015,0-12.024
		c-0.001-0.618-0.004-0.618-0.604-0.618C14.204,8.961,13.865,8.961,13.49,8.961z"/>
</g>
</svg>
