<?xml version="1.0" encoding="utf-8"?>
<!-- Generator: Adobe Illustrator 16.0.3, SVG Export Plug-In . SVG Version: 6.00 Build 0)  -->
<!DOCTYPE svg PUBLIC "-//W3C//DTD SVG 1.1//EN" "http://www.w3.org/Graphics/SVG/1.1/DTD/svg11.dtd">
<svg version="1.1"
	 id="svg14761" xmlns:dc="http://purl.org/dc/elements/1.1/" xmlns:cc="http://creativecommons.org/ns#" xmlns:rdf="http://www.w3.org/1999/02/22-rdf-syntax-ns#" xmlns:svg="http://www.w3.org/2000/svg" xmlns:sodipodi="http://sodipodi.sourceforge.net/DTD/sodipodi-0.dtd" xmlns:inkscape="http://www.inkscape.org/namespaces/inkscape" inkscape:export-ydpi="90" inkscape:export-xdpi="90" inkscape:export-filename="C:\Users\Fabienne\Desktop\Symbole\png\pharmacy.png" sodipodi:docname="pharmacy.svg" inkscape:version="0.91 r13725"
	 xmlns="http://www.w3.org/2000/svg" xmlns:xlink="http://www.w3.org/1999/xlink" x="0px" y="0px" width="32px" height="32px"
	 viewBox="0 0 32 32" enable-background="new 0 0 32 32" xml:space="preserve">
<sodipodi:namedview  showgrid="false" id="namedview14765" inkscape:cy="11.608844" inkscape:cx="-21.761242" inkscape:zoom="10.429825" borderopacity="1" bordercolor="#666666" pagecolor="#ffffff" guidetolerance="10" gridtolerance="10" objecttolerance="10" inkscape:window-height="1003" inkscape:window-y="-9" inkscape:window-x="-9" inkscape:window-width="1920" inkscape:window-maximized="1" inkscape:current-layer="svg14761" inkscape:pageshadow="2" inkscape:pageopacity="0">
	</sodipodi:namedview>
<path id="path4153" inkscape:connector-curvature="0" fill="none" d="M5.183,31.771c-2.588-0.338-4.654-2.445-4.951-5.053
	c-0.03-0.262-0.04-3.852-0.03-10.979L0.216,5.15l0.093-0.384C0.503,3.96,0.755,3.372,1.176,2.742
	c0.859-1.286,2.253-2.188,3.816-2.468c0.402-0.072,1.024-0.076,11.027-0.076c11.842,0,10.881-0.024,11.844,0.298
	c0.867,0.291,1.545,0.702,2.193,1.333c0.687,0.665,1.178,1.445,1.463,2.322c0.304,0.928,0.282,0.088,0.281,11.844
	c0,11.396,0.01,10.876-0.212,11.671c-0.231,0.834-0.774,1.764-1.401,2.398c-0.818,0.832-1.778,1.361-2.992,1.652
	c-0.303,0.072-0.901,0.076-11.027,0.084C10.278,31.807,5.335,31.793,5.183,31.771L5.183,31.771z M26.951,31.285
	c2.152-0.375,3.805-1.967,4.303-4.143l0.098-0.429l0.017-10.376C31.383,5.777,31.379,5.42,31.223,4.76
	c-0.229-1.001-0.768-1.931-1.529-2.652c-0.736-0.7-1.563-1.127-2.629-1.362C26.719,0.67,26.271,0.667,16.02,0.667
	c-10.093,0-10.707,0.004-11.061,0.076C3.042,1.134,1.521,2.471,0.92,4.29C0.644,5.125,0.661,4.386,0.661,16.019
	c0,11.637-0.017,10.893,0.259,11.717c0.609,1.82,2.203,3.205,4.075,3.543C5.514,31.375,26.415,31.379,26.951,31.285z"/>
<path id="path4745" inkscape:connector-curvature="0" fill="none" d="M8.972,31.111c-3.917-0.027-3.982-0.029-4.314-0.123
	c-0.875-0.246-1.639-0.695-2.283-1.342c-0.636-0.641-0.992-1.217-1.279-2.074l-0.154-0.459l-0.041-1.539
	C0.844,23.406,0.883,5.543,0.947,5.077c0.092-0.668,0.455-1.514,0.916-2.133C2.558,2.01,3.458,1.392,4.627,1.046l0.367-0.109
	l2.594-0.031c3.373-0.041,13.688-0.041,16.926,0l2.527,0.032l0.391,0.118c1.782,0.542,3.098,1.896,3.553,3.658
	c0.101,0.385,0.108,0.527,0.148,2.079c0.026,1.035,0.032,5.134,0.016,10.818l-0.026,9.152l-0.103,0.414
	c-0.465,1.865-1.812,3.277-3.61,3.785L27,31.078l-4.042,0.031C18.41,31.152,14.788,31.15,8.972,31.111L8.972,31.111L8.972,31.111z"
	/>
<path fill="none" d="M29.007,29.568c3.062,0.449,5.724,1.313,7.593,2.412c2.021,1.188,3.063,2.586,3.063,3.965
	c0,0.822-0.356,1.619-1.091,2.412c-0.732,0.793-1.831,1.562-3.229,2.203c-2.798,1.28-6.752,2.096-11.116,2.096
	c-4.365,0-8.319-0.814-11.118-2.096c-1.399-0.643-2.498-1.41-3.23-2.203s-1.091-1.59-1.091-2.412c0-1.211,0.793-2.43,2.37-3.523
	c1.417-0.98,3.444-1.804,5.83-2.369c-0.01,0.08-0.012,0.17-0.021,0.252c-1.527,0.493-2.835,1.133-3.796,1.93
	c-1.028,0.852-1.699,1.914-1.699,3.104c0,0.953,0.438,1.842,1.133,2.58s1.659,1.37,2.811,1.889c2.304,1.037,5.392,1.637,8.81,1.637
	s6.506-0.6,8.811-1.637c1.15-0.519,2.115-1.148,2.811-1.889s1.133-1.627,1.133-2.58c0-1.497-1.049-2.773-2.58-3.732
	c-1.396-0.877-3.246-1.547-5.391-1.951C29.008,29.626,29.006,29.598,29.007,29.568z"/>
<g>
	<path fill="#287099" d="M11.527,3.458c-0.242,0.024-0.421,0.26-0.397,0.526c0.022,0.266,0.237,0.46,0.479,0.436
		c1.924,0,2.799,0.128,4.08,0.676c-1.902,2.357-3.929,5.378-4.739,11.393c-1.785,0.425-3.313,1.086-4.437,1.939
		c-1.173,0.889-1.938,2.021-1.938,3.306c0,0.873,0.36,1.694,0.949,2.393c0.588,0.695,1.411,1.288,2.404,1.787
		c1.984,0.995,4.668,1.594,7.636,1.594c2.968,0,5.652-0.599,7.636-1.594c0.992-0.499,1.818-1.092,2.404-1.787
		c0.588-0.698,0.947-1.52,0.947-2.393c0-1.463-0.979-2.722-2.445-3.666c-1.377-0.884-3.232-1.517-5.355-1.849
		c0.141-2.061,0.402-3.904,0.74-5.472c0.576-2.672,1.385-4.578,2.047-5.441c1.57-0.735,2.416-0.886,4.574-0.886
		c0.242,0.003,0.441-0.208,0.445-0.474s-0.191-0.484-0.445-0.488c-2.176,0-3.266,0.2-4.875,0.947
		c-0.014,0.005-0.029,0.01-0.043,0.016c-0.07,0.013-0.135,0.042-0.191,0.09c-0.068,0.052-0.121,0.125-0.154,0.209
		c-0.838,1.092-1.633,3.056-2.225,5.802c-0.414,1.928-0.723,4.303-0.834,6.909c0.016,0.19-0.041,0.269-0.018,0.412
		c-0.035,1.109-0.039,2.26,0,3.473c0.01,0.266,0.211,0.473,0.453,0.467c0.244-0.009,0.436-0.23,0.428-0.498
		c-0.016-0.456-0.023-0.909-0.029-1.353c0.27,0.071,0.607,0.177,0.951,0.315c0.359,0.147,0.713,0.343,0.945,0.54
		c0.232,0.2,0.313,0.374,0.316,0.528c0,0.12-0.094,0.303-0.412,0.54c-0.316,0.238-0.813,0.483-1.375,0.676
		c-1.125,0.388-2.535,0.603-3.488,0.603c-0.242-0.004-0.441,0.208-0.446,0.476c-0.003,0.266,0.191,0.481,0.446,0.485
		c1.072,0,2.521-0.226,3.75-0.645c0.613-0.211,1.17-0.471,1.607-0.798c0.436-0.328,0.803-0.77,0.797-1.354
		c-0.008-0.539-0.313-0.964-0.662-1.263c-0.346-0.297-0.77-0.522-1.18-0.692c-0.51-0.208-0.93-0.317-1.236-0.388
		c0.002-0.248-0.008-0.495,0-0.737c1.271,0.272,2.357,0.694,3.117,1.217c0.861,0.591,1.277,1.246,1.277,1.863
		c0,0.393-0.162,0.786-0.508,1.188c-0.346,0.4-0.873,0.794-1.551,1.126c-1.355,0.669-3.281,1.097-5.413,1.097
		c-2.13,0-4.056-0.429-5.412-1.097c-0.678-0.334-1.207-0.726-1.553-1.126c-0.346-0.402-0.508-0.796-0.508-1.188
		c0-0.492,0.251-0.993,0.796-1.487c0.443-0.401,1.066-0.779,1.827-1.083c-0.017,0.232-0.027,0.467-0.041,0.707
		c-0.166,0.076-0.384,0.193-0.645,0.376c-0.219,0.147-0.443,0.331-0.632,0.571c-0.189,0.236-0.343,0.541-0.343,0.916
		c0,0.63,0.377,1.125,0.836,1.427c0.46,0.305,1.027,0.468,1.608,0.468c0.243,0.003,0.442-0.209,0.445-0.475
		c0.004-0.266-0.189-0.482-0.445-0.488c-0.425,0-0.861-0.137-1.154-0.33C10.049,21.707,9.93,21.504,9.93,21.3
		c0-0.069,0.036-0.155,0.137-0.286c0.103-0.127,0.255-0.272,0.426-0.389c0.043-0.031,0.081-0.051,0.123-0.075
		c-0.003,0.102-0.01,0.195-0.013,0.301c-0.008,0.265,0.182,0.486,0.424,0.496c0.244,0.011,0.446-0.198,0.455-0.467
		c0.05-1.706,0.166-3.434,0.443-5.116c0.214-1.296,0.492-2.616,0.905-3.855c0.328-0.982,0.751-1.99,1.23-2.898
		c0.221-0.417,0.52-0.772,0.76-1.175l0.749-1.04c1.181-1.505,1.228-1.64,1.083-2.068c-0.125-0.368-0.396-0.458-0.714-0.567
		C15.624,4.053,15.32,3.911,15,3.823c-0.659-0.178-1.321-0.279-1.998-0.328c-0.464-0.034-0.93-0.009-1.395-0.038
		c-0.013-0.001-0.026-0.001-0.041,0C11.554,3.457,11.541,3.457,11.527,3.458z"/>
	<path fill="#287099" d="M17.805,5.941c-0.092,0.013-0.178,0.071-0.234,0.16c-2.176,3.176-3.221,6.929-3.667,14.619
		c-0.014,0.23,0.131,0.425,0.325,0.439c0.193,0.014,0.362-0.159,0.376-0.388l0,0c0.443-7.624,1.433-11.133,3.507-14.161
		c0.123-0.178,0.104-0.439-0.047-0.583C17.99,5.959,17.896,5.927,17.805,5.941z"/>
</g>
</svg>
