<?xml version="1.0" encoding="utf-8"?>
<!-- Generator: Adobe Illustrator 16.0.3, SVG Export Plug-In . SVG Version: 6.00 Build 0)  -->
<!DOCTYPE svg PUBLIC "-//W3C//DTD SVG 1.1//EN" "http://www.w3.org/Graphics/SVG/1.1/DTD/svg11.dtd">
<svg version="1.1"
	 id="svg3338" xmlns:dc="http://purl.org/dc/elements/1.1/" xmlns:cc="http://creativecommons.org/ns#" xmlns:rdf="http://www.w3.org/1999/02/22-rdf-syntax-ns#" xmlns:svg="http://www.w3.org/2000/svg" xmlns:sodipodi="http://sodipodi.sourceforge.net/DTD/sodipodi-0.dtd" xmlns:inkscape="http://www.inkscape.org/namespaces/inkscape" inkscape:version="0.91 r13725" sodipodi:docname="kindergarten.svg" inkscape:export-filename="C:\Users\Fabienne\Desktop\Symbole\png\kindergarten.png" inkscape:export-xdpi="90" inkscape:export-ydpi="90"
	 xmlns="http://www.w3.org/2000/svg" xmlns:xlink="http://www.w3.org/1999/xlink" x="0px" y="0px" width="32px" height="32px"
	 viewBox="0 0 32 32" enable-background="new 0 0 32 32" xml:space="preserve">
<sodipodi:namedview  units="px" pagecolor="#ffffff" bordercolor="#666666" borderopacity="1.0" inkscape:zoom="18.101934" inkscape:cx="9.4743669" inkscape:cy="12.77881" id="namedview3342" showgrid="false" inkscape:pageopacity="0.0" inkscape:pageshadow="2" inkscape:current-layer="layer1" inkscape:window-maximized="1" inkscape:window-height="1003" inkscape:document-units="pt" inkscape:window-width="1920" inkscape:window-x="-9" inkscape:window-y="-9">
	</sodipodi:namedview>
<g id="layer1" transform="translate(0,-314.4)" inkscape:label="Layer 1" inkscape:groupmode="layer">
	<path id="path4153" inkscape:connector-curvature="0" fill="none" d="M5.183,346.172c-2.588-0.338-4.654-2.442-4.951-5.053
		c-0.03-0.261-0.04-3.852-0.03-10.978l0.014-10.59l0.093-0.384c0.194-0.806,0.446-1.394,0.867-2.024
		c0.859-1.286,2.253-2.188,3.816-2.468c0.402-0.072,1.024-0.076,11.027-0.076c11.842,0,10.881-0.021,11.844,0.298
		c0.867,0.291,1.545,0.702,2.193,1.333c0.687,0.665,1.178,1.445,1.463,2.322c0.304,0.928,0.28,0.088,0.279,11.844
		c0,11.395,0.012,10.876-0.212,11.671c-0.229,0.834-0.772,1.763-1.399,2.399c-0.818,0.832-1.778,1.361-2.992,1.652
		c-0.303,0.069-0.901,0.073-11.027,0.084C10.278,346.205,5.335,346.193,5.183,346.172L5.183,346.172z M26.951,345.685
		c2.152-0.375,3.805-1.967,4.303-4.143l0.098-0.431l0.019-10.376c0.015-10.561,0.01-10.918-0.146-11.578
		c-0.229-1.001-0.769-1.931-1.529-2.652c-0.735-0.7-1.563-1.128-2.629-1.362c-0.346-0.076-0.793-0.079-11.043-0.079
		c-10.093,0-10.707,0.003-11.061,0.076c-1.915,0.39-3.437,1.729-4.038,3.546c-0.276,0.835-0.259,0.095-0.259,11.729
		s-0.017,10.89,0.259,11.714c0.609,1.82,2.203,3.205,4.075,3.543C5.514,345.775,26.415,345.779,26.951,345.685L26.951,345.685z"/>
	<path id="path4745" inkscape:connector-curvature="0" fill="none" d="M8.972,345.511c-3.917-0.027-3.982-0.029-4.314-0.123
		c-0.875-0.246-1.639-0.695-2.283-1.342c-0.636-0.643-0.992-1.217-1.279-2.074l-0.154-0.459l-0.041-1.539
		c-0.058-2.168-0.019-20.031,0.045-20.5c0.092-0.668,0.455-1.514,0.916-2.133c0.695-0.933,1.595-1.551,2.764-1.897l0.367-0.109
		l2.594-0.031c3.373-0.041,13.687-0.041,16.925,0l2.528,0.032l0.39,0.118c1.783,0.542,3.098,1.896,3.553,3.658
		c0.104,0.385,0.109,0.527,0.149,2.08c0.026,1.035,0.032,5.134,0.017,10.815l-0.025,9.151l-0.104,0.414
		c-0.465,1.867-1.812,3.278-3.608,3.787L27,345.476l-4.042,0.033C18.41,345.552,14.788,345.55,8.972,345.511L8.972,345.511
		L8.972,345.511z"/>
</g>
<g>
	<g>
		<path fill="#C44216" d="M7.813,12.639c-2.024-0.017-3.628-1.542-3.605-3.427c0.023-1.877,1.678-3.4,3.672-3.379
			c2.016,0.022,3.61,1.552,3.592,3.446C11.455,11.178,9.846,12.656,7.813,12.639z"/>
		<path fill="#C44216" d="M21.424,22.626c1.436,0,2.87-0.022,4.305,0.013c0.699,0.018,1.525-0.039,1.756,0.866
			c0.127,0.502-0.617,0.899-1.709,0.903c-2.896,0.015-5.793,0.021-8.688-0.002c-0.677-0.008-1.465,0.004-1.675-0.866
			c-0.122-0.502,0.625-0.888,1.711-0.899c1.436-0.019,2.867-0.004,4.302-0.004C21.424,22.633,21.424,22.633,21.424,22.626z"/>
		<path fill="#C44216" d="M21.343,20.42c-1.05,0-2.096,0.002-3.146-0.003c-0.598-0.002-1.196-0.158-1.229-0.834
			c-0.034-0.751,0.622-0.929,1.22-0.935c2.154-0.027,4.308-0.014,6.461-0.014c0.082,0,0.166,0.014,0.25,0.029
			c0.513,0.105,1.015,0.281,0.979,0.911c-0.033,0.608-0.521,0.819-1.054,0.829c-1.159,0.025-2.319,0.01-3.48,0.01
			C21.343,20.415,21.343,20.417,21.343,20.42z"/>
		<path fill="#C44216" d="M21.275,22.48c-1.275,0-2.555,0.002-3.83-0.002c-0.723-0.002-1.453-0.16-1.491-0.836
			c-0.046-0.746,0.751-0.928,1.483-0.935c2.617-0.024,5.238-0.013,7.857-0.013c0.098,0,0.2,0.013,0.299,0.029
			c0.623,0.106,1.236,0.281,1.194,0.912c-0.04,0.607-0.634,0.819-1.286,0.827c-1.408,0.024-2.816,0.011-4.229,0.011
			C21.275,22.477,21.275,22.479,21.275,22.48z"/>
		<path fill="#C44216" d="M21.316,18.418c-0.881,0-1.76,0.004-2.646,0c-0.61-0.004-1.136-0.199-1.132-0.91
			c0.002-0.667,0.531-0.867,1.092-0.876c1.817-0.022,3.639-0.024,5.457,0c0.594,0.009,1.137,0.234,1.088,0.962
			c-0.042,0.663-0.553,0.824-1.128,0.824C23.137,18.42,22.229,18.418,21.316,18.418z"/>
		<path fill="#C44216" d="M21.37,16.443c-0.743,0-1.487-0.013-2.229,0.004c-0.629,0.015-1.051-0.268-1.041-0.893
			c0.01-0.623,0.453-0.891,1.072-0.888c1.455,0.006,2.911,0,4.371,0c0.641,0,1.109,0.273,1.081,0.954
			c-0.024,0.643-0.506,0.843-1.108,0.827C22.801,16.431,22.083,16.443,21.37,16.443z"/>
		<path fill="#C44216" d="M21.236,14.481c-0.439,0-0.883-0.017-1.32,0.005c-0.639,0.032-0.902-0.285-0.902-0.889
			c0.004-0.615,0.303-0.892,0.924-0.878c0.91,0.02,1.817,0.019,2.724,0c0.632-0.012,0.905,0.3,0.903,0.9
			c-0.002,0.611-0.301,0.901-0.926,0.87c-0.468-0.023-0.937-0.004-1.402-0.004C21.236,14.483,21.236,14.482,21.236,14.481z"/>
		<path fill="#C44216" d="M21.313,12.409c-0.68,0.014-1.279-0.56-1.297-1.229c-0.011-0.69,0.541-1.243,1.25-1.253
			c0.728-0.011,1.271,0.502,1.285,1.207C22.563,11.823,22.004,12.397,21.313,12.409z"/>
	</g>
	<path fill="#C44216" d="M13.874,21.822c-0.348-0.081-0.704-0.129-1.057-0.193c-0.618-0.109-1.237-0.22-1.854-0.335
		c-0.07-1.174-0.611-3.075-0.704-4.222c1.15-0.246,2.297-0.516,3.44-0.8c0.701-0.174,0.998-0.674,0.886-1.369
		c-0.115-0.706-0.605-1.008-1.429-1.035c-1.222,0.285-2.574,0.561-3.901,0.93c-1.321-0.654-2.184-1.523-3.594-0.867
		c-0.382,0.178-0.857,0.755-0.899,1.205c-0.176,1.889-0.205,3.803-0.286,5.667c0.011,0.002,0.019,0.002,0.029,0.002
		c0.016,0.656,0.422,1.781,0.742,2.1c0.593,0.595,1.192,0.648,1.931,0.587c1.866,0.345,4.659,0.845,6.132,1.094
		c0.986,0.044,1.626-0.438,1.734-1.213C15.147,22.633,14.693,22.022,13.874,21.822z"/>
</g>
</svg>
