<?xml version="1.0" encoding="utf-8"?>
<!-- Generator: Adobe Illustrator 16.0.3, SVG Export Plug-In . SVG Version: 6.00 Build 0)  -->
<!DOCTYPE svg PUBLIC "-//W3C//DTD SVG 1.1//EN" "http://www.w3.org/Graphics/SVG/1.1/DTD/svg11.dtd">
<svg version="1.1"
	 id="svg5475" xmlns:dc="http://purl.org/dc/elements/1.1/" xmlns:cc="http://creativecommons.org/ns#" xmlns:rdf="http://www.w3.org/1999/02/22-rdf-syntax-ns#" xmlns:svg="http://www.w3.org/2000/svg" xmlns:sodipodi="http://sodipodi.sourceforge.net/DTD/sodipodi-0.dtd" xmlns:inkscape="http://www.inkscape.org/namespaces/inkscape" inkscape:version="0.91 r13725" sodipodi:docname="school.svg" inkscape:export-filename="C:\Users\Fabienne\Desktop\Symbole\png\school.png" inkscape:export-xdpi="90" inkscape:export-ydpi="90"
	 xmlns="http://www.w3.org/2000/svg" xmlns:xlink="http://www.w3.org/1999/xlink" x="0px" y="0px" width="32px" height="32px"
	 viewBox="0 0 32 32" enable-background="new 0 0 32 32" xml:space="preserve">
<sodipodi:namedview  units="px" pagecolor="#ffffff" bordercolor="#666666" borderopacity="1.0" inkscape:zoom="12.800001" inkscape:cx="3.0664841" inkscape:cy="11.855243" id="namedview5479" showgrid="false" inkscape:document-units="pt" inkscape:pageopacity="0.0" inkscape:pageshadow="2" inkscape:current-layer="layer1" inkscape:window-maximized="1" inkscape:window-width="1920" inkscape:window-x="-9" inkscape:window-height="1003" inkscape:window-y="-9">
	</sodipodi:namedview>
<g id="layer1" transform="translate(0,-314.4)" inkscape:label="Layer 1" inkscape:groupmode="layer">
	<path id="path4153" inkscape:connector-curvature="0" fill="none" d="M5.183,346.172c-2.588-0.338-4.654-2.441-4.951-5.053
		c-0.03-0.261-0.04-3.852-0.03-10.978l0.014-10.59l0.093-0.384c0.194-0.806,0.446-1.394,0.867-2.024
		c0.859-1.286,2.253-2.188,3.816-2.468c0.402-0.072,1.024-0.076,11.027-0.076c11.842,0,10.881-0.021,11.844,0.298
		c0.867,0.291,1.545,0.702,2.193,1.333c0.687,0.665,1.178,1.445,1.463,2.322c0.304,0.928,0.279,0.088,0.278,11.844
		c0,11.395,0.013,10.876-0.212,11.671c-0.229,0.834-0.771,1.763-1.398,2.399c-0.818,0.832-1.778,1.361-2.992,1.652
		c-0.303,0.068-0.901,0.072-11.027,0.084C10.278,346.205,5.335,346.193,5.183,346.172L5.183,346.172z M26.951,345.685
		c2.152-0.375,3.805-1.967,4.303-4.143l0.098-0.432l0.02-10.376c0.016-10.561,0.01-10.918-0.146-11.578
		c-0.229-1.001-0.769-1.931-1.529-2.652c-0.734-0.7-1.563-1.128-2.629-1.362c-0.346-0.076-0.793-0.079-11.042-0.079
		c-10.093,0-10.707,0.003-11.061,0.076c-1.915,0.39-3.437,1.729-4.038,3.546c-0.276,0.835-0.259,0.095-0.259,11.729
		c0,11.633-0.017,10.889,0.259,11.713c0.609,1.82,2.203,3.205,4.075,3.543C5.514,345.775,26.415,345.779,26.951,345.685
		L26.951,345.685z"/>
	<path id="path4745" inkscape:connector-curvature="0" fill="none" d="M8.972,345.511c-3.917-0.027-3.982-0.029-4.314-0.123
		c-0.875-0.246-1.639-0.695-2.283-1.342c-0.636-0.644-0.992-1.217-1.279-2.074l-0.154-0.459l-0.041-1.539
		c-0.058-2.168-0.019-20.031,0.045-20.5c0.092-0.668,0.455-1.514,0.916-2.133c0.695-0.933,1.595-1.551,2.764-1.897l0.367-0.109
		l2.594-0.031c3.373-0.041,13.687-0.041,16.925,0l2.528,0.032l0.39,0.118c1.783,0.542,3.098,1.896,3.553,3.658
		c0.104,0.385,0.109,0.527,0.149,2.08c0.026,1.035,0.032,5.134,0.017,10.815l-0.024,9.15l-0.104,0.414
		c-0.465,1.867-1.812,3.277-3.607,3.787L27,345.476l-4.042,0.033C18.41,345.552,14.788,345.55,8.972,345.511L8.972,345.511
		L8.972,345.511z"/>
	<g>
		<path fill="none" d="M19.536,333.648c-0.013,0-0.985,0.965-2.164,2.145l-2.143,2.146v1.016c0,0.559,0.01,1.016,0.023,1.016
			s1.219-1.2,2.682-2.662c1.461-1.463,2.652-2.674,2.646-2.692C20.564,334.572,19.564,333.648,19.536,333.648z"/>
		<path fill="none" d="M24.343,337.466c-0.019,0.084-0.016,0.088,0.067,0.063c0.049-0.012,0.189-0.063,0.313-0.11
			c0.598-0.248,0.979-0.654,1.189-1.268c0.049-0.143,0.148-0.525,0.148-0.57c0-0.009-0.072,0.014-0.162,0.045
			C24.962,335.953,24.58,336.407,24.343,337.466z"/>
		<path fill="none" d="M9.039,334.763c-2.187-1.264-3.989-2.299-4.005-2.301c-0.04-0.01-0.127,0.287-0.192,0.646
			c-0.067,0.372-0.049,0.876,0.044,1.267l0.067,0.277l4.727,2.745c2.6,1.511,4.731,2.746,4.735,2.747
			c0.004,0.003,0.008-0.508,0.008-1.135v-1.139l-0.704-0.406C13.332,337.24,11.226,336.026,9.039,334.763z"/>
		<path fill="none" d="M9.184,320.241l-0.205,0.194c-0.113,0.107-0.518,0.498-0.899,0.87l-0.695,0.675l0.184,0.165
			c0.101,0.091,3.84,3.523,8.309,7.627c4.47,4.104,8.127,7.462,8.13,7.463c0.002,0.003,0.041-0.118,0.088-0.269
			c0.24-0.771,0.576-1.17,1.26-1.502c0.188-0.088,0.33-0.172,0.326-0.188c-0.004-0.019-3.718-3.397-8.252-7.531L9.184,320.241z"/>
		<path fill="none" d="M25.752,328.47c0-0.557-0.011-1.013-0.023-1.013c-0.012,0-0.887,0.863-1.938,1.918
			c-1.221,1.217-1.907,1.929-1.893,1.946c0.278,0.269,1.028,0.933,1.057,0.933c0.018,0.002,0.65-0.623,1.414-1.381l1.385-1.386
			L25.752,328.47L25.752,328.47z"/>
		<g>
			<path fill="none" d="M24.343,337.466c-0.019,0.084-0.016,0.088,0.067,0.063c0.049-0.012,0.189-0.063,0.313-0.11
				c0.598-0.248,0.979-0.654,1.189-1.268c0.049-0.143,0.148-0.525,0.148-0.57c0-0.009-0.072,0.014-0.162,0.045
				C24.962,335.953,24.58,336.407,24.343,337.466z"/>
			<path fill="none" d="M19.536,333.648c-0.013,0-0.985,0.965-2.164,2.145l-2.143,2.146v1.016c0,0.559,0.01,1.016,0.023,1.016
				s1.219-1.2,2.682-2.662c1.461-1.463,2.652-2.674,2.646-2.692C20.564,334.572,19.564,333.648,19.536,333.648z"/>
			<path fill="none" d="M9.039,334.763c-2.187-1.264-3.989-2.299-4.005-2.301c-0.04-0.01-0.127,0.287-0.192,0.646
				c-0.067,0.372-0.049,0.876,0.044,1.267l0.067,0.277l4.727,2.745c2.6,1.511,4.731,2.746,4.735,2.747
				c0.004,0.003,0.008-0.508,0.008-1.135v-1.139l-0.704-0.406C13.332,337.24,11.226,336.026,9.039,334.763z"/>
			<path fill="none" d="M9.184,320.241l-0.205,0.194c-0.113,0.107-0.518,0.498-0.899,0.87l-0.695,0.675l0.184,0.165
				c0.101,0.091,3.84,3.523,8.309,7.627c4.47,4.104,8.127,7.462,8.13,7.463c0.002,0.003,0.041-0.118,0.088-0.269
				c0.24-0.771,0.576-1.17,1.26-1.502c0.188-0.088,0.33-0.172,0.326-0.188c-0.004-0.019-3.718-3.397-8.252-7.531L9.184,320.241z"/>
			<path fill="none" d="M25.752,328.47c0-0.557-0.011-1.013-0.023-1.013c-0.012,0-0.887,0.863-1.938,1.918
				c-1.221,1.217-1.907,1.929-1.893,1.946c0.278,0.269,1.028,0.933,1.057,0.933c0.018,0.002,0.65-0.623,1.414-1.381l1.385-1.386
				L25.752,328.47L25.752,328.47z"/>
			<g>
				<path fill="#FFFFFF" d="M9.184,320.244l-0.205,0.194c-0.113,0.107-0.518,0.498-0.899,0.87l-0.695,0.675l0.184,0.165
					c0.101,0.091,3.84,3.523,8.309,7.627c4.47,4.107,8.127,7.462,8.13,7.463c0.002,0,0.041-0.121,0.088-0.271
					c0.24-0.771,0.576-1.17,1.26-1.502c0.185-0.088,0.33-0.172,0.326-0.186c-0.004-0.016-3.718-3.4-8.252-7.528L9.184,320.244z"/>
				<path fill="#FFFFFF" d="M19.536,333.642c-0.013,0-0.985,0.966-2.164,2.146l-2.143,2.145v1.015c0,0.562,0.008,1.019,0.023,1.019
					s1.222-1.201,2.682-2.662c1.461-1.463,2.652-2.674,2.646-2.698C20.564,334.567,19.564,333.642,19.536,333.642z"/>
				<path fill="#FFFFFF" d="M9.039,334.763c-2.187-1.264-3.989-2.299-4.005-2.301c-0.04-0.01-0.127,0.287-0.192,0.646
					c-0.067,0.372-0.049,0.876,0.044,1.267l0.067,0.277l4.727,2.745c2.6,1.511,4.731,2.746,4.735,2.747
					c0.004,0.003,0.008-0.508,0.008-1.135v-1.139l-0.704-0.406C13.332,337.24,11.226,336.026,9.039,334.763z"/>
				<path fill="#FFFFFF" d="M24.348,337.466c-0.02,0.084-0.017,0.088,0.066,0.066c0.047-0.009,0.189-0.063,0.313-0.113
					c0.594-0.248,0.979-0.654,1.188-1.265c0.046-0.14,0.146-0.528,0.146-0.573c0-0.006-0.072,0.014-0.156,0.045
					C24.966,335.953,24.584,336.407,24.348,337.466z"/>
				<path fill="#FFFFFF" d="M23.789,329.375c-1.219,1.217-1.91,1.929-1.891,1.946c0.279,0.269,1.029,0.933,1.055,0.933
					c0.016,0.002,0.652-0.623,1.41-1.385l1.386-1.386v-1.013c0-0.557-0.008-1.013-0.021-1.013
					C25.717,327.457,24.842,328.32,23.789,329.375z"/>
				<path fill="#C44216" d="M21.238,323.36c-2.854-1.64-5.222-3-5.263-3.021c-0.072-0.037-0.128,0.015-1.521,1.408
					c-0.796,0.795-1.461,1.441-1.479,1.435c-0.017-0.006-0.849-0.757-1.849-1.668l-1.818-1.656l-1.871-0.716
					c-1.028-0.394-1.865-0.7-1.858-0.681c0.006,0.02,0.309,0.833,0.673,1.809l0.66,1.773l1.81,1.663
					c0.994,0.914,1.846,1.693,1.89,1.73l0.082,0.068l-3.146,3.151l-3.146,3.151l-0.083,0.213c-0.243,0.627-0.36,1.386-0.301,1.955
					c0.063,0.604,0.313,1.445,0.439,1.479c0.099,0.025,10.224,5.912,10.322,6.002l0.088,0.084l3.18-3.179l3.182-3.179l0.114,0.111
					c0.066,0.063,0.743,0.686,1.509,1.387c1.594,1.461,1.371,1.328,1.885,1.13c0.871-0.337,1.361-0.884,1.602-1.794
					c0.036-0.135,0.073-0.317,0.084-0.403l0.021-0.155l-1.326-1.207c-0.73-0.666-1.375-1.252-1.438-1.307l-0.104-0.098l1.479-1.479
					l1.471-1.48v-1.753c0-1.569-0.004-1.755-0.049-1.772C26.451,326.351,24.089,325,21.238,323.36z M14.423,339.009
					c0,0.627-0.004,1.138-0.008,1.135c-0.004-0.001-2.135-1.236-4.735-2.747l-4.727-2.745l-0.067-0.277
					c-0.093-0.391-0.111-0.895-0.044-1.267c0.065-0.358,0.152-0.655,0.192-0.646c0.016,0.002,1.818,1.037,4.005,2.301
					c2.187,1.263,4.293,2.477,4.68,2.701l0.704,0.406V339.009z M17.934,337.304c-1.459,1.461-2.667,2.662-2.682,2.662
					s-0.023-0.457-0.023-1.019v-1.015l2.143-2.145c1.179-1.181,2.151-2.146,2.164-2.146c0.028,0,1.028,0.925,1.044,0.964
					C20.586,334.63,19.395,335.841,17.934,337.304z M26.061,335.582c0,0.045-0.1,0.434-0.146,0.573
					c-0.21,0.61-0.595,1.017-1.188,1.265c-0.123,0.051-0.266,0.104-0.313,0.113c-0.083,0.021-0.086,0.018-0.066-0.066
					c0.236-1.06,0.618-1.514,1.557-1.84C25.988,335.595,26.061,335.576,26.061,335.582z M25.682,335.279
					c0.004,0.014-0.142,0.098-0.326,0.186c-0.684,0.332-1.02,0.73-1.26,1.502c-0.047,0.15-0.086,0.271-0.088,0.271
					c-0.003-0.001-3.66-3.355-8.13-7.463c-4.469-4.104-8.208-7.536-8.309-7.627l-0.184-0.165l0.695-0.675
					c0.381-0.372,0.786-0.763,0.899-0.87l0.205-0.194l8.246,7.507C21.964,331.879,25.678,335.263,25.682,335.279z M25.749,329.483
					l-1.386,1.386c-0.758,0.762-1.395,1.387-1.41,1.385c-0.025,0-0.775-0.664-1.055-0.933c-0.02-0.017,0.672-0.729,1.891-1.946
					c1.053-1.055,1.928-1.918,1.939-1.918c0.013,0,0.021,0.456,0.021,1.013V329.483z"/>
			</g>
		</g>
	</g>
</g>
</svg>
