<?xml version="1.0" encoding="utf-8"?>
<!-- Generator: Adobe Illustrator 16.0.3, SVG Export Plug-In . SVG Version: 6.00 Build 0)  -->
<!DOCTYPE svg PUBLIC "-//W3C//DTD SVG 1.1//EN" "http://www.w3.org/Graphics/SVG/1.1/DTD/svg11.dtd">
<svg version="1.1"
	 id="svg5050" xmlns:dc="http://purl.org/dc/elements/1.1/" xmlns:cc="http://creativecommons.org/ns#" xmlns:rdf="http://www.w3.org/1999/02/22-rdf-syntax-ns#" xmlns:svg="http://www.w3.org/2000/svg" xmlns:sodipodi="http://sodipodi.sourceforge.net/DTD/sodipodi-0.dtd" xmlns:inkscape="http://www.inkscape.org/namespaces/inkscape" inkscape:export-ydpi="90" inkscape:export-xdpi="90" inkscape:export-filename="C:\Users\Fabienne\Desktop\Symbole\png\university.png" sodipodi:docname="university.svg" inkscape:version="0.91 r13725"
	 xmlns="http://www.w3.org/2000/svg" xmlns:xlink="http://www.w3.org/1999/xlink" x="0px" y="0px" width="32px" height="32px"
	 viewBox="0 0 32 32" enable-background="new 0 0 32 32" xml:space="preserve">
<sodipodi:namedview  units="px" showgrid="false" id="namedview5054" inkscape:cy="24.356457" inkscape:cx="6.3481626" inkscape:zoom="12.799999" borderopacity="1.0" bordercolor="#666666" pagecolor="#ffffff" inkscape:document-units="pt" inkscape:window-y="-9" inkscape:window-x="-9" inkscape:window-width="1920" inkscape:pageopacity="0.0" inkscape:window-height="1003" inkscape:window-maximized="1" inkscape:current-layer="layer1" inkscape:pageshadow="2">
	</sodipodi:namedview>
<g id="layer1" transform="translate(0,-314.4)" inkscape:label="Layer 1" inkscape:groupmode="layer">
	<path id="path4153" inkscape:connector-curvature="0" fill="none" d="M5.183,346.172c-2.588-0.338-4.654-2.442-4.951-5.053
		c-0.03-0.261-0.04-3.852-0.03-10.978l0.014-10.59l0.093-0.384c0.194-0.806,0.446-1.394,0.867-2.024
		c0.859-1.286,2.253-2.188,3.816-2.468c0.402-0.072,1.024-0.076,11.027-0.076c11.842,0,10.881-0.021,11.844,0.298
		c0.867,0.291,1.545,0.702,2.193,1.333c0.687,0.665,1.178,1.445,1.463,2.322c0.304,0.928,0.28,0.088,0.279,11.844
		c0,11.395,0.012,10.876-0.212,11.671c-0.229,0.834-0.772,1.763-1.399,2.399c-0.818,0.832-1.778,1.361-2.992,1.652
		c-0.303,0.069-0.901,0.073-11.027,0.084C10.278,346.205,5.335,346.193,5.183,346.172L5.183,346.172z M26.951,345.685
		c2.152-0.375,3.805-1.967,4.303-4.143l0.098-0.431l0.019-10.376c0.015-10.561,0.01-10.918-0.146-11.578
		c-0.229-1.001-0.769-1.931-1.529-2.652c-0.735-0.7-1.563-1.128-2.629-1.362c-0.346-0.076-0.793-0.079-11.043-0.079
		c-10.093,0-10.707,0.003-11.061,0.076c-1.915,0.39-3.437,1.729-4.038,3.546c-0.276,0.835-0.259,0.095-0.259,11.729
		s-0.017,10.89,0.259,11.714c0.609,1.82,2.203,3.205,4.075,3.543C5.514,345.775,26.415,345.779,26.951,345.685L26.951,345.685z"/>
	<path id="path4745" inkscape:connector-curvature="0" fill="none" d="M8.972,345.511c-3.917-0.027-3.982-0.029-4.314-0.123
		c-0.875-0.246-1.639-0.695-2.283-1.342c-0.636-0.643-0.992-1.217-1.279-2.074l-0.154-0.459l-0.041-1.539
		c-0.058-2.168-0.019-20.031,0.045-20.5c0.092-0.668,0.455-1.514,0.916-2.133c0.695-0.933,1.595-1.551,2.764-1.897l0.367-0.109
		l2.594-0.031c3.373-0.041,13.687-0.041,16.925,0l2.528,0.032l0.39,0.118c1.783,0.542,3.098,1.896,3.553,3.658
		c0.104,0.385,0.109,0.527,0.149,2.08c0.026,1.035,0.032,5.134,0.017,10.815l-0.025,9.151l-0.104,0.414
		c-0.465,1.867-1.812,3.278-3.608,3.787L27,345.476l-4.042,0.033C18.41,345.552,14.788,345.55,8.972,345.511L8.972,345.511
		L8.972,345.511z"/>
	<path id="path11700" inkscape:connector-curvature="0" fill="#C44216" d="M12.99,333.259c-1.488-0.926-2.707-1.713-2.707-1.748
		c0-0.057,1.937-1.521,4.425-3.345c0.619-0.454,0.634-0.46,0.968-0.415c0.506,0.07,0.999-0.074,1.327-0.386
		c0.231-0.221,0.274-0.307,0.274-0.548c0-0.56-0.563-0.945-1.384-0.947c-0.764-0.001-1.354,0.417-1.361,0.965
		c-0.002,0.189-0.084,0.266-0.784,0.738c-0.43,0.29-1.649,1.147-2.71,1.906l-1.929,1.378l-3.034-1.863
		c-1.668-1.024-3.05-1.883-3.069-1.908c-0.02-0.025-0.13-0.107-0.246-0.183c-0.116-0.076-0.219-0.178-0.229-0.226
		c-0.018-0.091-0.01-0.095,0.229-0.122c0.123-0.014,0.779-0.415,0.878-0.537c0.02-0.023,0.166-0.109,0.325-0.19
		c0.16-0.081,2.896-1.734,6.081-3.674s5.857-3.558,5.938-3.595c0.125-0.057,1.024,0.468,6.008,3.514
		c3.227,1.97,5.963,3.633,6.084,3.695s0.43,0.254,0.681,0.427c0.252,0.172,0.478,0.294,0.499,0.271s0.043-0.006,0.043,0.038
		c0,0.046,0.053,0.062,0.123,0.037c0.336-0.118-0.295,0.291-2.898,1.876c-1.549,0.941-4.578,2.797-6.734,4.124
		c-2.157,1.327-3.96,2.41-4.006,2.406C15.735,334.947,14.479,334.185,12.99,333.259z"/>
	<path id="path11702" inkscape:connector-curvature="0" fill="#C44216" d="M14.943,341.138c-1.201-0.1-2.67-0.395-3.603-0.721
		l-0.279-0.102l-0.086-0.771c-0.047-0.42-0.228-1.648-0.402-2.73c-0.31-1.938-0.567-3.92-0.522-4.033
		c0.021-0.053,5.363,3.166,5.605,3.381c0.13,0.109-0.103,0.243,5.477-3.156c2.563-1.563,4.676-2.833,4.688-2.817
		c0.017,0.014,0.027,1.354,0.035,2.976c0.012,3.254,0.006,3.281-0.445,4.146c-0.281,0.535-1.258,1.531-1.91,1.951
		c-1.471,0.941-3.301,1.563-5.309,1.805C17.275,341.173,15.78,341.209,14.943,341.138L14.943,341.138z"/>
	<path id="path11704" inkscape:connector-curvature="0" fill="#C44216" d="M8.467,340.295c-0.159-0.078-0.363-0.221-0.453-0.313
		l-0.164-0.18l0.332-1.809c0.421-2.297,1.054-5.5,1.081-5.473c0.053,0.053,0.245,1.807,0.484,4.42l0.263,2.865l-0.17,0.186
		c-0.201,0.217-0.661,0.443-0.908,0.445C8.835,340.437,8.626,340.375,8.467,340.295L8.467,340.295z"/>
	<path id="path11706" inkscape:connector-curvature="0" fill="#C44216" d="M7.182,337.602c-0.128-0.187-0.316-0.534-0.419-0.772
		l-0.186-0.434l-0.021-2.9l-0.021-2.902l1.005,0.611c0.553,0.336,1.032,0.633,1.064,0.66c0.032,0.029-0.056,0.553-0.195,1.166
		c-0.139,0.613-0.42,1.969-0.624,3.014l-0.37,1.896L7.182,337.602L7.182,337.602z"/>
	<path id="path11708" inkscape:connector-curvature="0" fill="none" stroke="#FFFFFF" stroke-width="0.2465" d="M3.916,325.593
		l-2.047,1.379c0,0-0.263-0.119-0.189-0.157"/>
</g>
</svg>
