<?xml version="1.0" encoding="utf-8"?>
<!-- Generator: Adobe Illustrator 16.0.3, SVG Export Plug-In . SVG Version: 6.00 Build 0)  -->
<!DOCTYPE svg PUBLIC "-//W3C//DTD SVG 1.1//EN" "http://www.w3.org/Graphics/SVG/1.1/DTD/svg11.dtd">
<svg version="1.1"
	 id="svg9705" xmlns:dc="http://purl.org/dc/elements/1.1/" xmlns:cc="http://creativecommons.org/ns#" xmlns:rdf="http://www.w3.org/1999/02/22-rdf-syntax-ns#" xmlns:svg="http://www.w3.org/2000/svg" xmlns:sodipodi="http://sodipodi.sourceforge.net/DTD/sodipodi-0.dtd" xmlns:inkscape="http://www.inkscape.org/namespaces/inkscape" inkscape:export-ydpi="90" inkscape:export-xdpi="90" inkscape:export-filename="C:\Users\Fabienne\Desktop\Symbole\png\comm_tower.png" sodipodi:docname="comm_tower.svg" inkscape:version="0.91 r13725"
	 xmlns="http://www.w3.org/2000/svg" xmlns:xlink="http://www.w3.org/1999/xlink" x="0px" y="0px" width="32px" height="32px"
	 viewBox="0 0 32 32" enable-background="new 0 0 32 32" xml:space="preserve">
<sodipodi:namedview  units="px" showgrid="false" id="namedview9709" inkscape:cy="26.635779" inkscape:cx="12.013778" inkscape:zoom="12.8" borderopacity="1.0" bordercolor="#666666" pagecolor="#ffffff" inkscape:window-height="982" inkscape:window-y="2" inkscape:window-x="-1" inkscape:window-width="1250" inkscape:document-units="pt" inkscape:window-maximized="0" inkscape:pageshadow="2" inkscape:pageopacity="0.0" inkscape:current-layer="layer1">
	</sodipodi:namedview>
<g id="layer1" transform="translate(0,-314.4)" inkscape:label="Layer 1" inkscape:groupmode="layer">
	<path id="path4153" inkscape:connector-curvature="0" fill="none" d="M5.183,346.172c-2.588-0.338-4.654-2.444-4.951-5.053
		c-0.03-0.261-0.04-3.852-0.03-10.978l0.014-10.59l0.093-0.384c0.194-0.806,0.446-1.394,0.867-2.024
		c0.859-1.286,2.253-2.188,3.816-2.468c0.402-0.072,1.024-0.076,11.027-0.076c11.842,0,10.881-0.023,11.844,0.298
		c0.867,0.291,1.545,0.702,2.193,1.333c0.687,0.665,1.178,1.445,1.463,2.322c0.304,0.928,0.282,0.088,0.281,11.844
		c0,11.395,0.01,10.876-0.212,11.671c-0.231,0.834-0.774,1.763-1.401,2.399c-0.818,0.832-1.778,1.361-2.992,1.652
		c-0.303,0.071-0.901,0.075-11.027,0.084C10.278,346.205,5.335,346.193,5.183,346.172L5.183,346.172z M26.951,345.685
		c2.152-0.375,3.805-1.967,4.303-4.143l0.098-0.429l0.017-10.376c0.015-10.561,0.01-10.918-0.146-11.578
		c-0.229-1.001-0.768-1.931-1.529-2.652c-0.736-0.7-1.563-1.128-2.629-1.362c-0.346-0.076-0.793-0.079-11.044-0.079
		c-10.093,0-10.707,0.003-11.061,0.076c-1.915,0.39-3.437,1.729-4.038,3.546c-0.276,0.835-0.259,0.095-0.259,11.729
		c0,11.636-0.017,10.892,0.259,11.716c0.609,1.82,2.203,3.205,4.075,3.543C5.514,345.775,26.415,345.779,26.951,345.685
		L26.951,345.685z"/>
	<path id="path4745" inkscape:connector-curvature="0" fill="none" d="M8.972,345.511c-3.917-0.027-3.982-0.029-4.314-0.123
		c-0.875-0.246-1.639-0.695-2.283-1.342c-0.636-0.641-0.992-1.217-1.279-2.074l-0.154-0.459l-0.041-1.539
		c-0.058-2.168-0.019-20.031,0.045-20.5c0.092-0.668,0.455-1.514,0.916-2.133c0.695-0.933,1.595-1.551,2.764-1.897l0.367-0.109
		l2.594-0.031c3.373-0.041,13.687-0.041,16.925,0l2.528,0.032l0.39,0.118c1.783,0.542,3.098,1.896,3.553,3.658
		c0.102,0.385,0.109,0.527,0.149,2.08c0.026,1.035,0.032,5.134,0.017,10.816l-0.027,9.152l-0.104,0.414
		c-0.465,1.867-1.811,3.279-3.609,3.787l-0.409,0.115l-4.042,0.033C18.41,345.552,14.788,345.55,8.972,345.511L8.972,345.511
		L8.972,345.511z"/>
	<path id="path19915" inkscape:connector-curvature="0" fill="#3D3E3C" d="M14.96,337.795v-5.189h0.303h0.303v-2.195v-2.195
		l-0.262-0.108c-0.144-0.06-0.436-0.302-0.648-0.538c-0.849-0.944-0.849-2.216,0-3.16c0.542-0.603,1.1-0.832,1.901-0.78
		c0.659,0.043,0.998,0.181,1.479,0.602c0.771,0.675,1.004,1.897,0.537,2.804c-0.236,0.458-0.662,0.888-1.104,1.117l-0.259,0.134
		v2.16v2.16h0.349h0.346v5.188v5.19h-1.47H14.96V337.795L14.96,337.795z"/>
	<path id="path19917" inkscape:connector-curvature="0" fill="#3D3E3C" d="M20.047,329.425l-0.4-0.411l0.22-0.303
		c0.683-0.948,0.997-2.25,0.812-3.348c-0.119-0.707-0.549-1.667-0.941-2.115l-0.268-0.304l0.422-0.414l0.42-0.414l0.27,0.292
		c1.375,1.494,1.763,4.006,0.914,5.923c-0.211,0.478-0.885,1.504-0.988,1.504C20.473,329.836,20.268,329.651,20.047,329.425
		L20.047,329.425z"/>
	<path id="path19919" inkscape:connector-curvature="0" fill="#3D3E3C" d="M21.977,331.359l-0.373-0.381l0.455-0.593
		c0.565-0.737,1.063-1.763,1.295-2.668c0.197-0.78,0.239-2.265,0.086-3.071c-0.215-1.125-0.756-2.292-1.48-3.188l-0.443-0.55
		l0.396-0.398l0.396-0.398l0.271,0.256c0.775,0.734,1.677,2.417,1.993,3.721c0.245,1.016,0.265,2.63,0.04,3.628
		c-0.188,0.844-0.571,1.795-1.034,2.572c-0.343,0.575-1.047,1.449-1.168,1.449C22.377,331.738,22.182,331.568,21.977,331.359z"/>
	<path id="path19921" inkscape:connector-curvature="0" fill="#3D3E3C" d="M23.88,333.263l-0.372-0.379l0.442-0.549
		c2.979-3.701,2.838-9.17-0.329-12.638l-0.436-0.475l0.416-0.408l0.414-0.408l0.479,0.521c1.294,1.397,2.278,3.417,2.622,5.371
		c0.166,0.949,0.165,2.778-0.002,3.735c-0.328,1.869-1.086,3.521-2.325,5.067c-0.238,0.297-0.457,0.539-0.485,0.539
		C24.275,333.64,24.084,333.47,23.88,333.263L23.88,333.263z"/>
	<path id="path19923" inkscape:connector-curvature="0" fill="#3D3E3C" d="M11.854,329.467c-1.586-2.102-1.481-5.053,0.252-7.07
		l0.334-0.389l0.395,0.385l0.395,0.385l-0.251,0.264c-0.732,0.769-1.142,1.838-1.147,2.999c-0.006,1.115,0.286,1.968,0.976,2.852
		l0.242,0.31l-0.367,0.36c-0.202,0.198-0.394,0.36-0.426,0.36C12.225,329.923,12.043,329.717,11.854,329.467L11.854,329.467z"/>
	<path id="path19925" inkscape:connector-curvature="0" fill="#3D3E3C" d="M10.221,331.443c-0.756-0.861-1.417-2.097-1.767-3.303
		c-0.172-0.592-0.198-0.878-0.198-2.153s0.026-1.562,0.198-2.153c0.358-1.238,1.04-2.496,1.818-3.357l0.304-0.337l0.368,0.361
		l0.368,0.361l-0.466,0.565c-0.74,0.897-1.293,2.076-1.511,3.219c-0.153,0.802-0.111,2.291,0.085,3.071
		c0.223,0.885,0.824,2.101,1.373,2.78l0.43,0.531l-0.368,0.36l-0.367,0.361L10.221,331.443z"/>
	<path id="path19929" inkscape:connector-curvature="0" fill="#3D3E3C" d="M8.024,333.149c-1.268-1.569-2.04-3.243-2.369-5.133
		c-0.215-1.235-0.135-3.383,0.167-4.511c0.458-1.709,1.339-3.361,2.406-4.509l0.577-0.622l0.366,0.361l0.366,0.36L9.085,319.6
		c-3.313,3.694-3.403,9.182-0.214,12.968l0.371,0.441l-0.371,0.363L8.5,333.738L8.024,333.149L8.024,333.149z"/>
</g>
</svg>
