<?xml version="1.0" encoding="utf-8"?>
<!-- Generator: Adobe Illustrator 16.0.3, SVG Export Plug-In . SVG Version: 6.00 Build 0)  -->
<!DOCTYPE svg PUBLIC "-//W3C//DTD SVG 1.1//EN" "http://www.w3.org/Graphics/SVG/1.1/DTD/svg11.dtd">
<svg version="1.1"
	 id="svg5929" xmlns:dc="http://purl.org/dc/elements/1.1/" xmlns:cc="http://creativecommons.org/ns#" xmlns:rdf="http://www.w3.org/1999/02/22-rdf-syntax-ns#" xmlns:svg="http://www.w3.org/2000/svg" xmlns:sodipodi="http://sodipodi.sourceforge.net/DTD/sodipodi-0.dtd" xmlns:inkscape="http://www.inkscape.org/namespaces/inkscape" inkscape:export-ydpi="90" inkscape:export-xdpi="90" inkscape:export-filename="C:\Users\Fabienne\Desktop\Symbole\png\fountain.png" sodipodi:docname="fountain.svg" inkscape:version="0.91 r13725"
	 xmlns="http://www.w3.org/2000/svg" xmlns:xlink="http://www.w3.org/1999/xlink" x="0px" y="0px" width="32px" height="32px"
	 viewBox="0 0 32 32" enable-background="new 0 0 32 32" xml:space="preserve">
<sodipodi:namedview  units="px" showgrid="false" id="namedview5933" inkscape:cy="3.2819983" inkscape:cx="4.7532823" inkscape:zoom="12.8" borderopacity="1.0" bordercolor="#666666" pagecolor="#ffffff" inkscape:window-height="1003" inkscape:window-y="-9" inkscape:window-x="-9" inkscape:window-width="1920" inkscape:window-maximized="1" inkscape:current-layer="layer1" inkscape:pageshadow="2" inkscape:pageopacity="0.0" inkscape:document-units="pt">
	</sodipodi:namedview>
<g id="layer1" transform="translate(0,-314.4)" inkscape:label="Layer 1" inkscape:groupmode="layer">
	<path id="path4153" inkscape:connector-curvature="0" fill="none" d="M5.183,346.172c-2.588-0.339-4.654-2.446-4.951-5.054
		c-0.03-0.26-0.04-3.85-0.03-10.977l0.014-10.59l0.093-0.384c0.194-0.806,0.446-1.394,0.867-2.024
		c0.859-1.286,2.253-2.188,3.816-2.468c0.402-0.072,1.024-0.076,11.027-0.076c11.843,0,10.882-0.024,11.845,0.298
		c0.866,0.291,1.544,0.702,2.193,1.333c0.686,0.665,1.177,1.445,1.463,2.322c0.303,0.928,0.283,0.088,0.282,11.844
		c0,11.394,0.009,10.876-0.212,11.671c-0.232,0.834-0.775,1.763-1.403,2.4c-0.818,0.832-1.778,1.361-2.991,1.652
		c-0.303,0.072-0.902,0.076-11.028,0.083C10.278,346.205,5.335,346.193,5.183,346.172L5.183,346.172z M26.951,345.685
		c2.152-0.375,3.805-1.967,4.303-4.143l0.098-0.427l0.015-10.376c0.015-10.561,0.01-10.918-0.144-11.578
		c-0.231-1.001-0.768-1.931-1.529-2.652c-0.738-0.7-1.564-1.128-2.629-1.362c-0.346-0.076-0.794-0.079-11.046-0.079
		c-10.093,0-10.707,0.003-11.061,0.076c-1.915,0.39-3.437,1.727-4.038,3.546c-0.276,0.835-0.259,0.095-0.259,11.729
		c0,11.637-0.017,10.893,0.259,11.717c0.609,1.82,2.203,3.205,4.075,3.544C5.514,345.775,26.415,345.779,26.951,345.685
		L26.951,345.685z"/>
	<path id="path4745" inkscape:connector-curvature="0" fill="none" d="M8.972,345.511c-3.917-0.027-3.982-0.029-4.314-0.123
		c-0.875-0.246-1.639-0.695-2.283-1.342c-0.636-0.639-0.992-1.216-1.279-2.074l-0.154-0.459l-0.041-1.539
		c-0.058-2.168-0.019-20.031,0.045-20.498c0.092-0.668,0.455-1.514,0.916-2.133c0.695-0.933,1.595-1.551,2.764-1.897l0.367-0.109
		l2.594-0.031c3.373-0.041,13.687-0.041,16.925,0l2.528,0.032l0.39,0.118c1.783,0.542,3.098,1.896,3.553,3.658
		c0.1,0.385,0.109,0.527,0.149,2.08c0.026,1.035,0.032,5.134,0.016,10.818l-0.028,9.152l-0.102,0.414
		c-0.465,1.867-1.811,3.279-3.611,3.787l-0.409,0.115l-4.042,0.033C18.41,345.552,14.788,345.55,8.972,345.511L8.972,345.511
		L8.972,345.511z"/>
	<path id="path6607" inkscape:connector-curvature="0" fill="#3D3E3C" d="M12.59,341.708c-0.234-0.102-0.406-0.444-0.346-0.688
		c0.021-0.087,0.11-0.232,0.197-0.324c0.149-0.158,0.188-0.167,0.703-0.167c1.052,0,1.607-0.296,1.947-1.04
		c0.136-0.297,0.18-0.492,0.198-0.881l0.023-0.5h-0.294c-0.785,0-1.977-0.279-2.653-0.619c-0.6-0.302-0.866-0.512-1.815-1.436
		c-1.094-1.065-1.413-1.336-2.101-1.783c-0.933-0.605-2.236-1.141-3.795-1.557c-0.381-0.102-0.753-0.225-0.827-0.272
		c-0.159-0.104-0.326-0.433-0.326-0.641c0-0.216,0.24-0.537,0.516-0.694l0.24-0.135l11.843-0.002h11.842l0.213,0.186
		c0.381,0.335,0.344,0.896-0.078,1.176c-0.121,0.08-0.721,0.311-1.33,0.511c-2.277,0.749-3.342,1.39-5.274,3.172
		c-1.026,0.946-1.816,1.438-2.819,1.753c-0.462,0.145-1.572,0.342-1.924,0.342c-0.15,0-0.158,0.017-0.158,0.32
		c0,0.701,0.313,1.431,0.746,1.744c0.346,0.252,0.762,0.356,1.405,0.356c0.466,0,0.581,0.021,0.71,0.122
		c0.232,0.182,0.313,0.482,0.202,0.746c-0.172,0.412-0.093,0.402-3.65,0.4C13.352,341.795,12.754,341.781,12.59,341.708
		L12.59,341.708z M17.117,336.531c1.473-0.182,2.146-0.545,3.75-2.021c0.777-0.716,1.559-1.319,2.232-1.724l0.51-0.307h-7.589H8.432
		l0.511,0.305c0.814,0.484,1.359,0.926,2.399,1.941c0.536,0.523,1.143,1.062,1.35,1.195c0.445,0.287,0.999,0.482,1.667,0.586
		C14.97,336.603,16.441,336.615,17.117,336.531L17.117,336.531z"/>
	<path id="path6609" inkscape:connector-curvature="0" fill="#3D3E3C" d="M15.287,328.714c-0.02-1.503-0.029-1.608-0.165-1.95
		c-0.314-0.791-1.02-1.233-1.856-1.166c-0.962,0.077-1.604,0.77-1.712,1.847c-0.056,0.549-0.124,0.704-0.367,0.83
		c-0.302,0.156-0.584,0.095-0.802-0.173c-0.135-0.167-0.143-0.841-0.015-1.342c0.228-0.892,0.877-1.743,1.602-2.099
		c1.003-0.493,2.207-0.45,3.095,0.11l0.249,0.157l-0.03-0.898c-0.025-0.751-0.055-0.977-0.188-1.382
		c-0.402-1.233-1.248-2.076-2.433-2.426c-0.482-0.142-1.387-0.142-1.873,0c-1.646,0.483-2.684,1.974-2.691,3.868
		c-0.001,0.252-0.03,0.322-0.207,0.5c-0.29,0.29-0.573,0.287-0.869-0.009l-0.214-0.215l0.038-0.617
		c0.127-2.083,1.173-3.697,2.908-4.49c0.674-0.309,1.18-0.415,1.974-0.414c0.811,0.001,1.313,0.105,1.976,0.413
		c0.857,0.396,1.529,0.976,2.014,1.737l0.219,0.344l0.161-0.284c0.431-0.762,1.19-1.463,2.014-1.859
		c1.273-0.612,2.876-0.612,4.168,0.001c1.646,0.781,2.742,2.555,2.779,4.499l0.012,0.624l-0.198,0.177
		c-0.33,0.296-0.827,0.208-0.972-0.173c-0.034-0.09-0.08-0.389-0.102-0.664c-0.086-1.105-0.439-1.934-1.119-2.622
		c-0.706-0.715-1.463-1.023-2.509-1.022c-0.994,0.001-1.741,0.307-2.428,0.993c-0.753,0.752-1.077,1.639-1.138,3.111l-0.033,0.807
		l0.194-0.13c0.337-0.225,0.703-0.37,1.179-0.467c1.615-0.33,3.257,0.808,3.617,2.506c0.209,0.988,0.027,1.481-0.547,1.481
		c-0.393,0-0.635-0.276-0.635-0.723c0-0.127-0.043-0.394-0.094-0.592c-0.237-0.91-0.904-1.437-1.822-1.439
		c-0.75-0.001-1.309,0.37-1.639,1.094c-0.184,0.401-0.252,1.091-0.256,2.571l-0.002,1.074h-0.631h-0.631L15.287,328.714
		L15.287,328.714z"/>
</g>
</svg>
