<?xml version="1.0" encoding="utf-8"?>
<!-- Generator: Adobe Illustrator 16.0.3, SVG Export Plug-In . SVG Version: 6.00 Build 0)  -->
<!DOCTYPE svg PUBLIC "-//W3C//DTD SVG 1.1//EN" "http://www.w3.org/Graphics/SVG/1.1/DTD/svg11.dtd">
<svg version="1.1"
	 id="svg10817" xmlns:dc="http://purl.org/dc/elements/1.1/" xmlns:cc="http://creativecommons.org/ns#" xmlns:rdf="http://www.w3.org/1999/02/22-rdf-syntax-ns#" xmlns:svg="http://www.w3.org/2000/svg" xmlns:sodipodi="http://sodipodi.sourceforge.net/DTD/sodipodi-0.dtd" xmlns:inkscape="http://www.inkscape.org/namespaces/inkscape" inkscape:export-ydpi="90" inkscape:export-xdpi="90" inkscape:export-filename="C:\Users\Fabienne\Desktop\fehlende_symbole\einfach\png\cave_entrance.png" sodipodi:docname="cave_entrance.svg" inkscape:version="0.91 r13725"
	 xmlns="http://www.w3.org/2000/svg" xmlns:xlink="http://www.w3.org/1999/xlink" x="0px" y="0px" width="32px" height="32px"
	 viewBox="0 0 32 32" enable-background="new 0 0 32 32" xml:space="preserve">
<sodipodi:namedview  units="px" showguides="false" showgrid="false" id="namedview10821" inkscape:cy="9.813298" inkscape:cx="-14.014945" inkscape:zoom="9.0509668" borderopacity="1.0" bordercolor="#666666" pagecolor="#ffffff" inkscape:window-y="2" inkscape:window-x="2" inkscape:window-width="1399" inkscape:document-units="pt" inkscape:pageopacity="0.0" inkscape:window-height="980" inkscape:window-maximized="0" inkscape:current-layer="layer1" inkscape:pageshadow="2">
	</sodipodi:namedview>
<g id="layer1" transform="translate(0,-314.4)" inkscape:label="Layer 1" inkscape:groupmode="layer">
	<path id="path4153" inkscape:connector-curvature="0" fill="none" d="M5.183,346.172c-2.588-0.338-4.654-2.444-4.951-5.053
		c-0.03-0.261-0.04-3.852-0.03-10.978l0.014-10.59l0.093-0.384c0.194-0.806,0.446-1.394,0.867-2.024
		c0.859-1.286,2.253-2.188,3.816-2.468c0.402-0.072,1.024-0.076,11.027-0.076c11.842,0,10.881-0.023,11.844,0.298
		c0.867,0.291,1.545,0.702,2.193,1.333c0.687,0.665,1.178,1.445,1.463,2.322c0.304,0.928,0.282,0.088,0.281,11.844
		c0,11.395,0.01,10.876-0.212,11.671c-0.231,0.834-0.774,1.763-1.401,2.399c-0.818,0.832-1.778,1.361-2.992,1.652
		c-0.303,0.071-0.901,0.075-11.027,0.084C10.278,346.205,5.335,346.193,5.183,346.172L5.183,346.172z M26.951,345.685
		c2.152-0.375,3.805-1.967,4.303-4.143l0.098-0.429l0.017-10.376c0.015-10.561,0.01-10.918-0.146-11.578
		c-0.229-1.001-0.768-1.931-1.529-2.652c-0.736-0.7-1.563-1.128-2.629-1.362c-0.346-0.076-0.793-0.079-11.044-0.079
		c-10.093,0-10.707,0.003-11.061,0.076c-1.915,0.39-3.437,1.729-4.038,3.546c-0.276,0.835-0.259,0.095-0.259,11.729
		c0,11.636-0.017,10.892,0.259,11.716c0.609,1.82,2.203,3.205,4.075,3.543C5.514,345.775,26.415,345.779,26.951,345.685
		L26.951,345.685z"/>
</g>
<g>
	<path fill-rule="evenodd" clip-rule="evenodd" fill="#575756" d="M23.793,17.179c0,0.605,0,1.167,0,1.798c-0.605,0-1.195,0-1.859,0
		c0.65,3.155,1.284,6.231,1.932,9.376c-0.899,0-1.745,0.016-2.588-0.02c-0.104-0.004-0.251-0.263-0.285-0.423
		c-0.593-2.804-1.18-5.607-1.743-8.417c-0.076-0.38-0.199-0.523-0.604-0.518c-1.55,0.023-3.1,0.023-4.65,0
		c-0.404-0.006-0.53,0.133-0.604,0.517c-0.539,2.78-1.104,5.555-1.661,8.331c-0.033,0.162-0.071,0.323-0.111,0.506
		c-0.928,0-1.837,0-2.781,0c0.621-3.112,1.235-6.193,1.861-9.333c-0.65,0-1.228,0-1.84,0c0-0.622,0-1.198,0-1.817
		C13.816,17.179,18.786,17.179,23.793,17.179z"/>
	<path fill-rule="evenodd" clip-rule="evenodd" fill="#575756" d="M21.928,15.218c-3.752,0-7.443,0-11.177,0c0-2.77,0-5.54,0-8.36
		c0.137,0.027,0.275,0.049,0.41,0.082c3.44,0.858,6.878,1.724,10.322,2.567c0.339,0.083,0.458,0.204,0.453,0.561
		C21.917,11.765,21.928,13.464,21.928,15.218z"/>
	<path fill-rule="evenodd" clip-rule="evenodd" fill="#575756" d="M23.791,8.199c-5.018-1.254-9.984-2.496-14.948-3.736
		c0-0.792,0-1.537,0-2.326c4.996,1.249,9.964,2.49,14.948,3.736C23.791,6.634,23.791,7.378,23.791,8.199z"/>
</g>
</svg>
