<?xml version="1.0" encoding="utf-8"?>
<!-- Generator: Adobe Illustrator 16.0.3, SVG Export Plug-In . SVG Version: 6.00 Build 0)  -->
<!DOCTYPE svg PUBLIC "-//W3C//DTD SVG 1.1//EN" "http://www.w3.org/Graphics/SVG/1.1/DTD/svg11.dtd">
<svg version="1.1"
	 id="svg9056" xmlns:dc="http://purl.org/dc/elements/1.1/" xmlns:cc="http://creativecommons.org/ns#" xmlns:rdf="http://www.w3.org/1999/02/22-rdf-syntax-ns#" xmlns:svg="http://www.w3.org/2000/svg" xmlns:sodipodi="http://sodipodi.sourceforge.net/DTD/sodipodi-0.dtd" xmlns:inkscape="http://www.inkscape.org/namespaces/inkscape" inkscape:version="0.91 r13725" sodipodi:docname="lighthouse.svg" inkscape:export-filename="C:\Users\Fabienne\Desktop\Symbole\png\lighthouse.png" inkscape:export-xdpi="89.999817" inkscape:export-ydpi="89.999817"
	 xmlns="http://www.w3.org/2000/svg" xmlns:xlink="http://www.w3.org/1999/xlink" x="0px" y="0px" width="32px" height="32px"
	 viewBox="0 0 32 32" enable-background="new 0 0 32 32" xml:space="preserve">
<sodipodi:namedview  units="px" pagecolor="#ffffff" bordercolor="#666666" borderopacity="1.0" inkscape:zoom="11.313708" inkscape:cx="-9.8532973" inkscape:cy="11.541158" id="namedview9060" showgrid="false" inkscape:document-units="pt" inkscape:pageopacity="0.0" inkscape:pageshadow="2" inkscape:current-layer="layer1" inkscape:window-maximized="1" inkscape:window-width="1920" inkscape:window-x="-9" inkscape:window-y="-9" inkscape:window-height="1003" showguides="false">
	</sodipodi:namedview>
<g id="layer1" transform="translate(0,-314.4)" inkscape:label="Layer 1" inkscape:groupmode="layer">
	<path id="path4153" inkscape:connector-curvature="0" fill="none" d="M5.183,346.172c-2.588-0.338-4.654-2.445-4.951-5.053
		c-0.03-0.261-0.04-3.851-0.03-10.978l0.014-10.59l0.093-0.384c0.194-0.806,0.446-1.394,0.867-2.024
		c0.859-1.286,2.253-2.188,3.816-2.468c0.402-0.072,1.024-0.076,11.027-0.076c11.842,0,10.881-0.024,11.844,0.298
		c0.867,0.291,1.545,0.702,2.193,1.333c0.687,0.665,1.178,1.445,1.463,2.322c0.304,0.928,0.283,0.088,0.282,11.844
		c0,11.395,0.009,10.876-0.212,11.671c-0.232,0.834-0.775,1.763-1.402,2.399c-0.818,0.832-1.778,1.361-2.992,1.652
		c-0.303,0.072-0.901,0.076-11.027,0.084C10.278,346.205,5.335,346.193,5.183,346.172L5.183,346.172z M26.951,345.685
		c2.152-0.375,3.805-1.967,4.303-4.143l0.098-0.428l0.016-10.376c0.015-10.561,0.01-10.918-0.145-11.578
		c-0.23-1.001-0.768-1.931-1.529-2.652c-0.737-0.7-1.563-1.128-2.629-1.362c-0.346-0.076-0.793-0.079-11.045-0.079
		c-10.093,0-10.707,0.003-11.061,0.076c-1.915,0.39-3.437,1.728-4.038,3.546c-0.276,0.835-0.259,0.095-0.259,11.729
		c0,11.637-0.017,10.893,0.259,11.717c0.609,1.82,2.203,3.205,4.075,3.543C5.514,345.775,26.415,345.779,26.951,345.685
		L26.951,345.685z"/>
	<path id="path4745" inkscape:connector-curvature="0" fill="none" d="M8.972,345.511c-3.917-0.027-3.982-0.029-4.314-0.123
		c-0.875-0.246-1.639-0.695-2.283-1.342c-0.636-0.64-0.992-1.217-1.279-2.074l-0.154-0.459l-0.041-1.539
		c-0.058-2.168-0.019-20.031,0.045-20.499c0.092-0.668,0.455-1.514,0.916-2.133c0.695-0.933,1.595-1.551,2.764-1.897l0.367-0.109
		l2.594-0.031c3.373-0.041,13.687-0.041,16.925,0l2.528,0.032l0.39,0.118c1.783,0.542,3.098,1.896,3.553,3.658
		c0.101,0.385,0.109,0.527,0.149,2.08c0.026,1.035,0.032,5.134,0.017,10.817l-0.028,9.152l-0.103,0.414
		c-0.465,1.867-1.811,3.279-3.61,3.787l-0.409,0.115l-4.042,0.033C18.41,345.552,14.788,345.55,8.972,345.511L8.972,345.511
		L8.972,345.511z"/>
	<path id="path9888" inkscape:connector-curvature="0" fill="#3D3E3C" d="M5.799,342.365v-0.55H7.44h1.641l0.021-0.103
		c0.012-0.056,0.787-3.763,1.723-8.235l1.701-8.135h3.492h3.492l0.014,0.066c0.008,0.036,0.781,3.731,1.719,8.211
		c0.938,4.479,1.703,8.151,1.703,8.161c0,0.011,0.713,0.013,1.582,0.003l1.584-0.016v0.548v0.549l-6.877,0.015
		c-3.781,0.008-8.352,0.02-10.154,0.024l-3.279,0.013v-0.551H5.799z M21.859,341.781c0.004-0.004-0.435-2.13-0.486-2.357
		l-0.014-0.055h-5.333h-5.333l-0.014,0.066c-0.008,0.037-0.122,0.583-0.254,1.215c-0.132,0.631-0.24,1.15-0.24,1.152
		C10.188,341.81,21.852,341.787,21.859,341.781L21.859,341.781z M20.506,335.287c-0.122-0.582-0.246-1.177-0.273-1.318l-0.053-0.258
		l-4.151,0.006l-4.151,0.006l-0.256,1.225c-0.141,0.674-0.264,1.264-0.272,1.313l-0.016,0.09h4.698h4.696L20.506,335.287
		L20.506,335.287z M19.539,330.686c0-0.025-0.441-2.147-0.471-2.269l-0.014-0.054h-3.032c-1.667,0-3.031,0.006-3.031,0.015
		c0,0.008-0.108,0.53-0.24,1.159c-0.132,0.629-0.24,1.152-0.24,1.16c0,0.009,1.581,0.016,3.513,0.016
		C18.637,330.714,19.539,330.707,19.539,330.686L19.539,330.686z"/>
	<path id="path9906" inkscape:connector-curvature="0" fill="#3D3E3C" d="M15.409,324.714c-1.271-0.332-1.949-1.773-1.389-2.956
		c0.69-1.459,2.723-1.664,3.705-0.373c0.324,0.424,0.441,0.814,0.416,1.379c-0.017,0.396-0.039,0.485-0.197,0.805
		c-0.373,0.754-1.158,1.241-1.989,1.231C15.829,324.797,15.584,324.759,15.409,324.714L15.409,324.714z M16.775,324.187
		c0.611-0.301,0.953-0.853,0.957-1.545c0.002-0.307-0.021-0.41-0.144-0.671c-0.587-1.25-2.345-1.391-3.078-0.248
		c-0.622,0.969-0.155,2.216,0.966,2.582c0.125,0.041,0.352,0.06,0.593,0.051C16.396,324.343,16.516,324.315,16.775,324.187
		L16.775,324.187z"/>
	<path id="path9908" inkscape:connector-curvature="0" fill="#3D3E3C" d="M12.927,319.761c0-0.152,0.023-0.173,0.313-0.286
		c0.172-0.067,0.346-0.107,0.386-0.089c0.047,0.021,0.061,0.01,0.039-0.032c-0.023-0.043-0.001-0.054,0.07-0.033
		c0.066,0.021,0.092,0.01,0.072-0.028c-0.02-0.039,0.005-0.048,0.072-0.028c0.066,0.021,0.092,0.01,0.072-0.028
		c-0.021-0.038,0.005-0.048,0.072-0.028c0.066,0.02,0.092,0.01,0.072-0.028s0.006-0.048,0.072-0.028
		c0.057,0.017,0.094,0.014,0.083-0.009c-0.031-0.059,0.925-0.414,1.009-0.375c0.046,0.021,0.06,0.009,0.038-0.032
		c-0.023-0.044,0-0.054,0.07-0.033c0.057,0.018,0.093,0.013,0.081-0.011c-0.013-0.023,0.105-0.088,0.261-0.143
		c0.246-0.087,0.313-0.091,0.501-0.029c0.12,0.039,0.207,0.091,0.194,0.115c-0.013,0.024,0.023,0.029,0.08,0.012
		c0.066-0.021,0.092-0.01,0.073,0.028c-0.021,0.039,0.006,0.049,0.071,0.028c0.069-0.021,0.093-0.011,0.069,0.033
		c-0.022,0.042-0.008,0.053,0.039,0.032c0.039-0.018,0.568,0.161,1.177,0.397c1.104,0.431,1.104,0.431,1.104,0.595v0.163h-3.044
		h-3.045v-0.163H12.927z"/>
	<path id="path9914" inkscape:connector-curvature="0" fill="#3D3E3C" d="M24.27,325.221c-2.533-0.417-4.643-0.759-4.688-0.761
		c-0.077-0.002-0.084-0.137-0.096-1.676l-0.014-1.674l4.627-0.747c2.543-0.411,4.719-0.765,4.83-0.787l0.207-0.04v3.228v3.228
		l-0.134-0.006C28.932,325.983,26.801,325.638,24.27,325.221L24.27,325.221z"/>
	<path id="path9916" inkscape:connector-curvature="0" fill="#3D3E3C" d="M2.621,322.739c0-2.725,0.008-3.039,0.077-3.039
		c0.095,0,9.39,1.38,9.613,1.427l0.16,0.034l-0.013,1.571l-0.013,1.571l-4.704,0.704c-2.587,0.388-4.797,0.719-4.912,0.737
		l-0.208,0.033V322.739z"/>
</g>
</svg>
