<?xml version="1.0" encoding="utf-8"?>
<!-- Generator: Adobe Illustrator 16.0.3, SVG Export Plug-In . SVG Version: 6.00 Build 0)  -->
<!DOCTYPE svg PUBLIC "-//W3C//DTD SVG 1.1//EN" "http://www.w3.org/Graphics/SVG/1.1/DTD/svg11.dtd">
<svg version="1.1"
	 id="svg7214" xmlns:dc="http://purl.org/dc/elements/1.1/" xmlns:cc="http://creativecommons.org/ns#" xmlns:rdf="http://www.w3.org/1999/02/22-rdf-syntax-ns#" xmlns:svg="http://www.w3.org/2000/svg" xmlns:sodipodi="http://sodipodi.sourceforge.net/DTD/sodipodi-0.dtd" xmlns:inkscape="http://www.inkscape.org/namespaces/inkscape" inkscape:version="0.91 r13725" sodipodi:docname="observation_tower.svg" inkscape:export-filename="C:\Users\Fabienne\Desktop\Symbole\png\observation_tower.png" inkscape:export-xdpi="90" inkscape:export-ydpi="90"
	 xmlns="http://www.w3.org/2000/svg" xmlns:xlink="http://www.w3.org/1999/xlink" x="0px" y="0px" width="32px" height="32px"
	 viewBox="0 0 32 32" enable-background="new 0 0 32 32" xml:space="preserve">
<sodipodi:namedview  units="px" pagecolor="#ffffff" bordercolor="#666666" borderopacity="1.0" inkscape:zoom="18.101934" inkscape:cx="6.0215068" inkscape:cy="14.129515" id="namedview7218" showgrid="false" inkscape:document-units="pt" inkscape:pageopacity="0.0" inkscape:pageshadow="2" inkscape:current-layer="layer1" inkscape:window-maximized="1" inkscape:window-width="1920" inkscape:window-x="-9" inkscape:window-y="-9" inkscape:window-height="1003">
	</sodipodi:namedview>
<g id="layer1" transform="translate(0,-314.4)" inkscape:label="Layer 1" inkscape:groupmode="layer">
	<path id="path4153" inkscape:connector-curvature="0" fill="none" d="M5.183,346.172c-2.588-0.338-4.654-2.445-4.951-5.053
		c-0.03-0.261-0.04-3.851-0.03-10.978l0.014-10.59l0.093-0.384c0.194-0.806,0.446-1.394,0.867-2.024
		c0.859-1.286,2.253-2.188,3.816-2.468c0.402-0.072,1.024-0.076,11.027-0.076c11.842,0,10.881-0.024,11.844,0.298
		c0.867,0.291,1.545,0.702,2.193,1.333c0.687,0.665,1.178,1.445,1.463,2.322c0.304,0.928,0.283,0.088,0.282,11.844
		c0,11.395,0.009,10.876-0.212,11.671c-0.232,0.834-0.775,1.763-1.402,2.399c-0.818,0.832-1.778,1.361-2.992,1.652
		c-0.303,0.072-0.901,0.076-11.027,0.084C10.278,346.205,5.335,346.193,5.183,346.172L5.183,346.172z M26.951,345.685
		c2.152-0.375,3.805-1.967,4.303-4.143l0.098-0.428l0.016-10.376c0.015-10.561,0.01-10.918-0.145-11.578
		c-0.23-1.001-0.768-1.931-1.529-2.652c-0.737-0.7-1.563-1.128-2.629-1.362c-0.346-0.076-0.793-0.079-11.045-0.079
		c-10.093,0-10.707,0.003-11.061,0.076c-1.915,0.39-3.437,1.728-4.038,3.546c-0.276,0.835-0.259,0.095-0.259,11.729
		c0,11.637-0.017,10.893,0.259,11.717c0.609,1.82,2.203,3.205,4.075,3.543C5.514,345.775,26.415,345.779,26.951,345.685
		L26.951,345.685z"/>
	<path id="path4745" inkscape:connector-curvature="0" fill="none" d="M8.972,345.511c-3.917-0.027-3.982-0.029-4.314-0.123
		c-0.875-0.246-1.639-0.695-2.283-1.342c-0.636-0.64-0.992-1.217-1.279-2.074l-0.154-0.459l-0.041-1.539
		c-0.058-2.168-0.019-20.031,0.045-20.499c0.092-0.668,0.455-1.514,0.916-2.133c0.695-0.933,1.595-1.551,2.764-1.897l0.367-0.109
		l2.594-0.031c3.373-0.041,13.687-0.041,16.925,0l2.528,0.032l0.39,0.118c1.783,0.542,3.098,1.896,3.553,3.658
		c0.101,0.385,0.109,0.527,0.149,2.08c0.026,1.035,0.032,5.134,0.017,10.817l-0.028,9.152l-0.103,0.414
		c-0.465,1.867-1.811,3.279-3.61,3.787l-0.409,0.115l-4.042,0.033C18.41,345.552,14.788,345.55,8.972,345.511L8.972,345.511
		L8.972,345.511z"/>
	<path id="path7871" inkscape:connector-curvature="0" fill="#3D3E3C" d="M12.968,342.586c0.025-0.07,3.211-15.292,3.211-15.34
		c0-0.013-0.464-0.023-1.031-0.023h-1.031v-3.05c0-2.973,0.003-3.052,0.116-3.108c0.063-0.032,1.399-0.766,2.969-1.632
		c2.761-1.524,2.856-1.572,3.036-1.504c0.101,0.039,0.185,0.092,0.185,0.119s0.025,0.033,0.06,0.013
		c0.031-0.02,0.059-0.01,0.059,0.022c0,0.032,0.094,0.092,0.207,0.133c0.113,0.042,0.205,0.098,0.205,0.125s0.027,0.034,0.061,0.014
		c0.032-0.02,0.06-0.01,0.06,0.022c0,0.032,0.092,0.092,0.204,0.133c0.113,0.041,0.207,0.097,0.207,0.125
		c0,0.028,0.027,0.034,0.06,0.014c0.033-0.02,0.06-0.009,0.06,0.025s0.065,0.078,0.146,0.098c0.081,0.021,0.146,0.062,0.146,0.093
		c0,0.031,0.026,0.04,0.06,0.02c0.032-0.02,0.06-0.012,0.06,0.021c0,0.032,0.094,0.088,0.207,0.126
		c0.112,0.038,0.205,0.094,0.205,0.126c0,0.032,0.026,0.042,0.061,0.021c0.031-0.02,0.059-0.008,0.059,0.025
		c0,0.034,0.066,0.078,0.146,0.098c0.082,0.021,0.147,0.062,0.147,0.093c0,0.03,0.025,0.04,0.06,0.021
		c0.031-0.021,0.059-0.01,0.059,0.021c0,0.032,0.093,0.092,0.206,0.133c0.114,0.041,0.206,0.097,0.206,0.125
		s0.027,0.034,0.059,0.014c0.033-0.02,0.061-0.01,0.061,0.022c0,0.032,0.093,0.092,0.205,0.133c0.113,0.041,0.207,0.097,0.207,0.125
		s0.025,0.034,0.06,0.014c0.032-0.02,0.06-0.007,0.06,0.025c0,0.033,0.065,0.078,0.146,0.098c0.081,0.02,0.146,0.062,0.146,0.093
		c0,0.031,0.026,0.04,0.06,0.02s0.06-0.01,0.06,0.022s0.094,0.092,0.207,0.133c0.112,0.041,0.205,0.097,0.205,0.125
		c0,0.028,0.026,0.034,0.059,0.014c0.033-0.02,0.061-0.008,0.061,0.025c0,0.033,0.066,0.078,0.146,0.098
		c0.082,0.02,0.146,0.062,0.146,0.093c0,0.031,0.026,0.04,0.061,0.02c0.031-0.02,0.059-0.01,0.059,0.022
		c0,0.032,0.094,0.092,0.206,0.133s0.206,0.096,0.206,0.121c0,0.026,0.033,0.041,0.074,0.033c0.058-0.011,0.076,0.639,0.088,3.064
		l0.016,3.079h-0.885c-0.486,0-0.885,0.021-0.885,0.045c0,0.025,0.717,3.465,1.592,7.645c0.875,4.18,1.592,7.633,1.592,7.674
		c0,0.057-0.199,0.074-0.826,0.074c-0.453,0-0.824-0.014-0.824-0.029c0-0.017-0.065-0.334-0.146-0.707l-0.146-0.674l-2.516-3.229
		c-1.383-1.775-2.57-3.287-2.64-3.359l-0.125-0.133l-2.585,3.227l-2.585,3.226l-0.167,0.797c-0.092,0.438-0.168,0.813-0.168,0.839
		c0,0.023-0.385,0.044-0.854,0.044C13.138,342.658,12.948,342.64,12.968,342.586L12.968,342.586z M23.951,334.144
		c-0.387-1.848-0.709-3.377-0.717-3.4c-0.008-0.023-0.459,0.515-1.002,1.195l-0.989,1.234l1.696,2.176
		c0.932,1.195,1.699,2.168,1.705,2.162C24.65,337.507,24.338,335.991,23.951,334.144z M17.441,335.238
		c0.896-1.115,1.621-2.063,1.611-2.105c-0.023-0.104-1.898-2.503-1.916-2.45c-0.027,0.093-1.371,6.545-1.371,6.588
		C15.767,337.33,15.592,337.541,17.441,335.238L17.441,335.238z M21.51,330.162l1.277-1.595l-0.141-0.659l-0.14-0.659l-2.327-0.015
		l-2.33-0.016l-0.113,0.575c-0.063,0.316-0.112,0.616-0.11,0.666c0.004,0.102,2.483,3.296,2.56,3.296
		C20.211,331.757,20.807,331.041,21.51,330.162L21.51,330.162z M23.957,323.597v-1.385h-3.889h-3.889v1.385v1.385h3.889h3.889
		V323.597z"/>
	<path id="path39732" inkscape:connector-curvature="0" fill="#3D3E3C" d="M6.474,342.558c-0.105-0.053-0.231-0.15-0.279-0.219
		c-0.199-0.279-0.199-0.26-0.171-6.267l0.026-5.708H5.917H5.785v1.75c0,1.051-0.019,1.816-0.046,1.917
		c-0.057,0.205-0.297,0.423-0.513,0.462c-0.225,0.043-0.538-0.1-0.659-0.298c-0.089-0.146-0.091-0.222-0.091-2.635
		c0-2.799-0.013-2.697,0.343-2.902l0.176-0.102l2.827,0.011l2.827,0.011l0.166,0.127c0.314,0.239,0.302,0.122,0.302,2.834
		c0,2.717,0.006,2.657-0.299,2.846c-0.308,0.191-0.663,0.111-0.896-0.2c-0.09-0.12-0.094-0.187-0.106-1.974l-0.013-1.85H9.691H9.58
		v5.829c0,6.353,0.017,5.938-0.256,6.194c-0.353,0.334-0.905,0.263-1.182-0.155l-0.121-0.185l-0.013-3.131l-0.012-3.133H7.794H7.592
		v3.143c0,3.416,0.012,3.254-0.256,3.507C7.087,342.672,6.79,342.714,6.474,342.558L6.474,342.558z"/>
	<path id="path39734" inkscape:connector-curvature="0" fill="#3D3E3C" d="M7.583,328.151c-0.525-0.091-1.002-0.452-1.241-0.938
		c-0.112-0.229-0.127-0.31-0.127-0.689c0-0.396,0.012-0.455,0.148-0.732c0.178-0.362,0.505-0.668,0.868-0.813
		c0.375-0.149,0.929-0.141,1.275,0.02c0.342,0.159,0.667,0.47,0.826,0.791c0.181,0.366,0.21,0.914,0.068,1.289
		C9.118,327.827,8.345,328.283,7.583,328.151L7.583,328.151z"/>
</g>
</svg>
