<?xml version="1.0" encoding="utf-8"?>
<!-- Generator: Adobe Illustrator 16.0.3, SVG Export Plug-In . SVG Version: 6.00 Build 0)  -->
<!DOCTYPE svg PUBLIC "-//W3C//DTD SVG 1.1//EN" "http://www.w3.org/Graphics/SVG/1.1/DTD/svg11.dtd">
<svg version="1.1"
	 id="svg7214" xmlns:dc="http://purl.org/dc/elements/1.1/" xmlns:cc="http://creativecommons.org/ns#" xmlns:rdf="http://www.w3.org/1999/02/22-rdf-syntax-ns#" xmlns:svg="http://www.w3.org/2000/svg" xmlns:sodipodi="http://sodipodi.sourceforge.net/DTD/sodipodi-0.dtd" xmlns:inkscape="http://www.inkscape.org/namespaces/inkscape" inkscape:version="0.91 r13725" sodipodi:docname="tower.svg" inkscape:export-filename="C:\Users\Fabienne\Desktop\Symbole\png\tower.png" inkscape:export-xdpi="89.999817" inkscape:export-ydpi="89.999817"
	 xmlns="http://www.w3.org/2000/svg" xmlns:xlink="http://www.w3.org/1999/xlink" x="0px" y="0px" width="32px" height="32px"
	 viewBox="0 0 32 32" enable-background="new 0 0 32 32" xml:space="preserve">
<sodipodi:namedview  units="px" pagecolor="#ffffff" bordercolor="#666666" borderopacity="1.0" inkscape:zoom="9.0509668" inkscape:cx="2.2113462" inkscape:cy="24.986326" id="namedview7218" showgrid="false" inkscape:document-units="pt" inkscape:pageopacity="0.0" inkscape:pageshadow="2" inkscape:current-layer="layer1" inkscape:window-maximized="1" inkscape:window-width="1920" inkscape:window-x="-9" inkscape:window-y="-9" inkscape:window-height="1003">
	</sodipodi:namedview>
<g id="layer1" transform="translate(0,-314.4)" inkscape:label="Layer 1" inkscape:groupmode="layer">
	<path id="path4153" inkscape:connector-curvature="0" fill="none" d="M5.183,346.172c-2.588-0.338-4.654-2.445-4.951-5.053
		c-0.03-0.261-0.04-3.851-0.03-10.978l0.014-10.59l0.093-0.384c0.194-0.806,0.446-1.394,0.867-2.024
		c0.859-1.286,2.253-2.188,3.816-2.468c0.402-0.072,1.025-0.076,11.027-0.076c11.842,0,10.881-0.024,11.844,0.298
		c0.867,0.291,1.545,0.702,2.193,1.333c0.687,0.665,1.178,1.445,1.463,2.322c0.304,0.928,0.283,0.088,0.282,11.844
		c0,11.395,0.009,10.876-0.212,11.671c-0.232,0.834-0.775,1.763-1.402,2.399c-0.818,0.832-1.777,1.361-2.992,1.652
		c-0.303,0.072-0.901,0.076-11.027,0.084C10.278,346.205,5.335,346.193,5.183,346.172L5.183,346.172z M26.951,345.685
		c2.152-0.375,3.805-1.967,4.303-4.143l0.098-0.428l0.016-10.376c0.015-10.561,0.01-10.918-0.145-11.578
		c-0.23-1.001-0.768-1.931-1.529-2.652c-0.737-0.7-1.563-1.128-2.629-1.362c-0.346-0.076-0.793-0.079-11.045-0.079
		c-10.093,0-10.707,0.003-11.061,0.076c-1.915,0.39-3.437,1.728-4.038,3.546c-0.276,0.835-0.259,0.095-0.259,11.729
		c0,11.637-0.017,10.893,0.259,11.717c0.609,1.82,2.203,3.205,4.075,3.543C5.514,345.775,26.415,345.779,26.951,345.685
		L26.951,345.685z"/>
	<path id="path4745" inkscape:connector-curvature="0" fill="none" d="M8.972,345.511c-3.917-0.027-3.982-0.029-4.314-0.123
		c-0.875-0.246-1.639-0.695-2.283-1.342c-0.636-0.64-0.992-1.217-1.279-2.074l-0.154-0.459l-0.041-1.539
		c-0.058-2.168-0.019-20.031,0.045-20.499c0.092-0.668,0.455-1.514,0.916-2.133c0.695-0.933,1.595-1.551,2.764-1.897l0.367-0.109
		l2.594-0.031c3.373-0.041,13.687-0.041,16.925,0l2.528,0.032l0.39,0.118c1.783,0.542,3.098,1.896,3.553,3.658
		c0.101,0.385,0.109,0.527,0.149,2.08c0.026,1.035,0.032,5.134,0.017,10.817l-0.028,9.152l-0.103,0.414
		c-0.465,1.867-1.811,3.279-3.61,3.787l-0.409,0.115l-4.042,0.033C18.41,345.552,14.788,345.55,8.972,345.511L8.972,345.511
		L8.972,345.511z"/>
	<path id="path7871" inkscape:connector-curvature="0" fill="#3D3E3C" d="M7.423,344.199c0.028-0.08,3.634-17.308,3.634-17.363
		c0-0.015-0.525-0.027-1.167-0.027H8.723v-3.452c0-3.365,0.003-3.454,0.131-3.518c0.072-0.037,1.584-0.868,3.359-1.847
		c3.126-1.725,3.235-1.779,3.437-1.703c0.115,0.043,0.209,0.104,0.209,0.135c0,0.031,0.03,0.038,0.066,0.015
		c0.037-0.023,0.067-0.011,0.067,0.025c0,0.037,0.105,0.104,0.233,0.15c0.128,0.047,0.233,0.11,0.233,0.142
		c0,0.031,0.03,0.039,0.065,0.016c0.037-0.022,0.067-0.011,0.067,0.025s0.104,0.104,0.233,0.151c0.129,0.046,0.232,0.11,0.232,0.142
		c0,0.031,0.03,0.039,0.067,0.016c0.036-0.022,0.065-0.01,0.065,0.028s0.074,0.088,0.166,0.111c0.093,0.022,0.168,0.07,0.168,0.104
		c0,0.035,0.029,0.045,0.066,0.022c0.036-0.023,0.066-0.011,0.066,0.024c0,0.036,0.105,0.1,0.232,0.143
		c0.129,0.043,0.233,0.106,0.233,0.143c0,0.037,0.028,0.047,0.065,0.024c0.037-0.023,0.066-0.01,0.066,0.028
		s0.076,0.088,0.167,0.111c0.093,0.023,0.167,0.07,0.167,0.105c0,0.035,0.029,0.045,0.066,0.022
		c0.037-0.022,0.066-0.011,0.066,0.025c0,0.036,0.104,0.104,0.233,0.15c0.128,0.046,0.231,0.11,0.231,0.142
		c0,0.032,0.031,0.039,0.067,0.016c0.036-0.023,0.067-0.011,0.067,0.025c0,0.037,0.104,0.104,0.231,0.151
		c0.13,0.046,0.234,0.11,0.234,0.142c0,0.031,0.028,0.039,0.065,0.016c0.037-0.023,0.066-0.01,0.066,0.028
		c0,0.039,0.074,0.088,0.166,0.111s0.168,0.07,0.168,0.105s0.029,0.045,0.066,0.022c0.035-0.023,0.065-0.011,0.065,0.025
		c0,0.037,0.104,0.104,0.233,0.151c0.128,0.047,0.232,0.11,0.232,0.142c0,0.031,0.03,0.039,0.066,0.016
		c0.037-0.022,0.066-0.01,0.066,0.028c0,0.039,0.076,0.088,0.168,0.111s0.166,0.07,0.166,0.105s0.029,0.045,0.065,0.022
		c0.037-0.023,0.065-0.011,0.065,0.025c0,0.037,0.105,0.104,0.234,0.151c0.129,0.046,0.233,0.108,0.233,0.138
		s0.037,0.046,0.083,0.037c0.066-0.013,0.087,0.723,0.102,3.468l0.018,3.485h-1.001c-0.552,0-1.001,0.023-1.001,0.051
		s0.81,3.921,1.801,8.651c0.99,4.731,1.8,8.642,1.8,8.687c0,0.063-0.225,0.085-0.934,0.085c-0.515,0-0.935-0.016-0.935-0.033
		c0-0.02-0.074-0.379-0.164-0.8l-0.166-0.765l-2.846-3.653c-1.564-2.008-2.91-3.72-2.988-3.803l-0.142-0.149l-2.926,3.651
		l-2.926,3.651l-0.189,0.899c-0.104,0.495-0.19,0.923-0.19,0.95s-0.435,0.05-0.966,0.05C7.615,344.282,7.4,344.263,7.423,344.199
		L7.423,344.199z M19.855,334.644c-0.438-2.09-0.805-3.822-0.813-3.848s-0.521,0.583-1.135,1.352l-1.119,1.398l1.92,2.461
		c1.056,1.354,1.924,2.457,1.931,2.449C20.646,338.451,20.293,336.736,19.855,334.644L19.855,334.644z M12.486,335.882
		c1.014-1.262,1.835-2.334,1.825-2.383c-0.027-0.119-2.15-2.834-2.168-2.773c-0.032,0.106-1.552,7.41-1.552,7.458
		C10.59,338.252,10.394,338.49,12.486,335.882z M17.091,330.138l1.445-1.806l-0.157-0.745l-0.158-0.746l-2.635-0.017l-2.636-0.018
		l-0.129,0.651c-0.071,0.358-0.127,0.697-0.125,0.754c0.004,0.115,2.812,3.732,2.896,3.732
		C15.621,331.944,16.296,331.13,17.091,330.138L17.091,330.138z M19.861,322.707v-1.567h-4.402h-4.402v1.567v1.567h4.402h4.402
		V322.707z"/>
</g>
</svg>
