<?xml version="1.0" encoding="utf-8"?>
<!-- Generator: Adobe Illustrator 16.0.3, SVG Export Plug-In . SVG Version: 6.00 Build 0)  -->
<!DOCTYPE svg PUBLIC "-//W3C//DTD SVG 1.1//EN" "http://www.w3.org/Graphics/SVG/1.1/DTD/svg11.dtd">
<svg version="1.1"
	 id="svg10416" xmlns:dc="http://purl.org/dc/elements/1.1/" xmlns:cc="http://creativecommons.org/ns#" xmlns:rdf="http://www.w3.org/1999/02/22-rdf-syntax-ns#" xmlns:svg="http://www.w3.org/2000/svg" xmlns:sodipodi="http://sodipodi.sourceforge.net/DTD/sodipodi-0.dtd" xmlns:inkscape="http://www.inkscape.org/namespaces/inkscape" inkscape:export-ydpi="90" inkscape:export-xdpi="90" inkscape:export-filename="C:\Users\Fabienne\Desktop\Symbole\png\water_well.png" sodipodi:docname="water_well.svg" inkscape:version="0.91 r13725"
	 xmlns="http://www.w3.org/2000/svg" xmlns:xlink="http://www.w3.org/1999/xlink" x="0px" y="0px" width="32px" height="32px"
	 viewBox="0 0 32 32" enable-background="new 0 0 32 32" xml:space="preserve">
<sodipodi:namedview  units="px" showgrid="false" id="namedview10420" inkscape:cy="6.471881" inkscape:cx="-3.7590252" inkscape:zoom="9.0509668" borderopacity="1.0" bordercolor="#666666" pagecolor="#ffffff" inkscape:window-height="983" inkscape:window-y="2" inkscape:window-x="0" inkscape:window-width="1326" inkscape:document-units="pt" inkscape:window-maximized="0" inkscape:pageshadow="2" inkscape:pageopacity="0.0" inkscape:current-layer="layer1">
	</sodipodi:namedview>
<g id="layer1" transform="translate(0,-314.4)" inkscape:label="Layer 1" inkscape:groupmode="layer">
	<path id="path4153" inkscape:connector-curvature="0" fill="none" d="M5.183,346.172c-2.588-0.338-4.654-2.444-4.951-5.053
		c-0.03-0.261-0.04-3.852-0.03-10.978l0.014-10.59l0.093-0.384c0.194-0.806,0.446-1.394,0.867-2.024
		c0.859-1.286,2.253-2.188,3.816-2.468c0.402-0.072,1.024-0.076,11.027-0.076c11.842,0,10.881-0.023,11.844,0.298
		c0.867,0.291,1.545,0.702,2.193,1.333c0.687,0.665,1.178,1.445,1.463,2.322c0.304,0.928,0.282,0.088,0.281,11.844
		c0,11.395,0.01,10.876-0.212,11.671c-0.231,0.834-0.774,1.763-1.401,2.399c-0.818,0.832-1.778,1.361-2.992,1.652
		c-0.303,0.071-0.901,0.075-11.027,0.084C10.278,346.205,5.335,346.193,5.183,346.172L5.183,346.172z M26.951,345.685
		c2.152-0.375,3.805-1.967,4.303-4.143l0.098-0.429l0.017-10.376c0.015-10.561,0.01-10.918-0.146-11.578
		c-0.229-1.001-0.768-1.931-1.529-2.652c-0.736-0.7-1.563-1.128-2.629-1.362c-0.346-0.076-0.793-0.079-11.044-0.079
		c-10.093,0-10.707,0.003-11.061,0.076c-1.915,0.39-3.437,1.729-4.038,3.546c-0.276,0.835-0.259,0.095-0.259,11.729
		c0,11.636-0.017,10.892,0.259,11.716c0.609,1.82,2.203,3.205,4.075,3.543C5.514,345.775,26.415,345.779,26.951,345.685
		L26.951,345.685z"/>
	<path id="path4745" inkscape:connector-curvature="0" fill="none" d="M8.972,345.511c-3.917-0.027-3.982-0.029-4.314-0.123
		c-0.875-0.246-1.639-0.695-2.283-1.342c-0.636-0.641-0.992-1.217-1.279-2.074l-0.154-0.459l-0.041-1.539
		c-0.058-2.168-0.019-20.031,0.045-20.5c0.092-0.668,0.455-1.514,0.916-2.133c0.695-0.933,1.595-1.551,2.764-1.897l0.367-0.109
		l2.594-0.031c3.373-0.041,13.687-0.041,16.925,0l2.528,0.032l0.39,0.118c1.783,0.542,3.098,1.896,3.553,3.658
		c0.102,0.385,0.109,0.527,0.149,2.08c0.026,1.035,0.032,5.134,0.017,10.816l-0.027,9.152l-0.104,0.414
		c-0.465,1.867-1.811,3.279-3.609,3.787l-0.409,0.115l-4.042,0.033C18.41,345.552,14.788,345.55,8.972,345.511L8.972,345.511
		L8.972,345.511z"/>
	<path id="path50584" inkscape:connector-curvature="0" fill="#3D3E3C" d="M6.104,332.111c0-8.316-0.009-8.777-0.169-8.729
		c-1.314,0.39-2.366,0.615-2.399,0.515c-0.183-0.561-0.355-1.344-0.306-1.394c0.056-0.056,10.008-2.745,10.16-2.745
		c0.061,0,0.254,0.581,0.419,1.26c0.058,0.238,0.035,0.249-1.23,0.582l-1.289,0.339l-0.026,1.963l-0.026,1.963h1.844h1.844v0.339
		c0,0.306,0.027,0.339,0.267,0.34c0.63,0.001,1.653,0.736,2.429,1.744c0.503,0.652,0.95,1.868,1.271,3.453l0.174,0.86l4.475,0.025
		l4.475,0.022v4.118v4.119H17.059H6.104V332.111L6.104,332.111z M18.738,331.92c-0.363-1.928-0.848-3.085-1.691-4.042
		c-0.551-0.626-1.098-0.985-1.709-1.122c-0.411-0.092-0.412-0.092-0.412,0.188v0.281h-1.842h-1.842v2.714v2.713h3.817h3.817
		L18.738,331.92L18.738,331.92z"/>
</g>
</svg>
