<?xml version="1.0" encoding="utf-8"?>
<!-- Generator: Adobe Illustrator 16.0.3, SVG Export Plug-In . SVG Version: 6.00 Build 0)  -->
<!DOCTYPE svg PUBLIC "-//W3C//DTD SVG 1.1//EN" "http://www.w3.org/Graphics/SVG/1.1/DTD/svg11.dtd">
<svg version="1.1"
	 id="svg7214" xmlns:dc="http://purl.org/dc/elements/1.1/" xmlns:cc="http://creativecommons.org/ns#" xmlns:rdf="http://www.w3.org/1999/02/22-rdf-syntax-ns#" xmlns:svg="http://www.w3.org/2000/svg" xmlns:sodipodi="http://sodipodi.sourceforge.net/DTD/sodipodi-0.dtd" xmlns:inkscape="http://www.inkscape.org/namespaces/inkscape" inkscape:export-ydpi="90" inkscape:export-xdpi="90" inkscape:export-filename="C:\Users\Fabienne\Desktop\Symbole\png\water_tower.png" sodipodi:docname="water_tower.svg" inkscape:version="0.91 r13725"
	 xmlns="http://www.w3.org/2000/svg" xmlns:xlink="http://www.w3.org/1999/xlink" x="0px" y="0px" width="32px" height="32px"
	 viewBox="0 0 32 32" enable-background="new 0 0 32 32" xml:space="preserve">
<sodipodi:namedview  units="px" showgrid="false" id="namedview7218" inkscape:cy="11.677282" inkscape:cx="-1.8064652" inkscape:zoom="9.0509669" borderopacity="1.0" bordercolor="#666666" pagecolor="#ffffff" inkscape:window-height="1003" inkscape:window-y="-9" inkscape:window-x="-9" inkscape:window-width="1920" inkscape:document-units="pt" inkscape:window-maximized="1" inkscape:pageshadow="2" inkscape:pageopacity="0.0" inkscape:current-layer="layer1">
	</sodipodi:namedview>
<g id="layer1" transform="translate(0,-314.4)" inkscape:label="Layer 1" inkscape:groupmode="layer">
	<path id="path4153" inkscape:connector-curvature="0" fill="none" d="M5.183,346.172c-2.588-0.338-4.654-2.444-4.951-5.053
		c-0.03-0.261-0.04-3.852-0.03-10.978l0.014-10.59l0.093-0.384c0.194-0.806,0.446-1.394,0.867-2.024
		c0.859-1.286,2.253-2.188,3.816-2.468c0.402-0.072,1.024-0.076,11.027-0.076c11.842,0,10.881-0.023,11.844,0.298
		c0.867,0.291,1.545,0.702,2.193,1.333c0.687,0.665,1.178,1.445,1.463,2.322c0.304,0.928,0.282,0.088,0.281,11.844
		c0,11.395,0.01,10.876-0.212,11.671c-0.231,0.834-0.774,1.763-1.401,2.399c-0.818,0.832-1.778,1.361-2.992,1.652
		c-0.303,0.071-0.901,0.075-11.027,0.084C10.278,346.205,5.335,346.193,5.183,346.172L5.183,346.172z M26.951,345.685
		c2.152-0.375,3.805-1.967,4.303-4.143l0.098-0.429l0.017-10.376c0.015-10.561,0.01-10.918-0.146-11.578
		c-0.229-1.001-0.768-1.931-1.529-2.652c-0.736-0.7-1.563-1.128-2.629-1.362c-0.346-0.076-0.793-0.079-11.044-0.079
		c-10.093,0-10.707,0.003-11.061,0.076c-1.915,0.39-3.437,1.729-4.038,3.546c-0.276,0.835-0.259,0.095-0.259,11.729
		c0,11.636-0.017,10.892,0.259,11.716c0.609,1.82,2.203,3.205,4.075,3.543C5.514,345.775,26.415,345.779,26.951,345.685
		L26.951,345.685z"/>
	<path id="path4745" inkscape:connector-curvature="0" fill="none" d="M8.972,345.511c-3.917-0.027-3.982-0.029-4.314-0.123
		c-0.875-0.246-1.639-0.695-2.283-1.342c-0.636-0.641-0.992-1.217-1.279-2.074l-0.154-0.459l-0.041-1.539
		c-0.058-2.168-0.019-20.031,0.045-20.5c0.092-0.668,0.455-1.514,0.916-2.133c0.695-0.933,1.595-1.551,2.764-1.897l0.367-0.109
		l2.594-0.031c3.373-0.041,13.687-0.041,16.925,0l2.528,0.032l0.39,0.118c1.783,0.542,3.098,1.896,3.553,3.658
		c0.102,0.385,0.109,0.527,0.149,2.08c0.026,1.035,0.032,5.134,0.017,10.816l-0.027,9.152l-0.104,0.414
		c-0.465,1.867-1.811,3.279-3.609,3.787l-0.409,0.115l-4.042,0.033C18.41,345.552,14.788,345.55,8.972,345.511L8.972,345.511
		L8.972,345.511z"/>
	<path id="path50022" inkscape:connector-curvature="0" fill="#3D3E3C" d="M5.099,337.446c-0.622-0.29-1.318-1.001-1.571-1.603
		c-0.093-0.223-0.17-0.701-0.172-1.065c-0.004-0.671,0.322-1.935,0.5-1.935c0.053,0,0.066-0.049,0.028-0.109
		c-0.037-0.061-0.01-0.109,0.061-0.109c0.071,0,0.103-0.066,0.071-0.152c-0.032-0.08,0.326-0.938,0.795-1.903
		c0.469-0.965,1.02-2.172,1.224-2.681l0.372-0.925l0.465,1.266c0.256,0.696,0.813,2.008,1.238,2.914
		c0.983,2.101,1.181,2.694,1.185,3.581c0.007,1.291-0.755,2.392-1.964,2.838C6.718,337.785,5.715,337.734,5.099,337.446
		L5.099,337.446z"/>
	<path id="path50024" inkscape:connector-curvature="0" fill="#3D3E3C" d="M10.943,344.367c0.034-0.107,0.264-1.167,0.512-2.352
		c2.216-10.588,2.98-14.302,2.98-14.483c0-0.195-0.089-0.212-1.106-0.212h-1.106l0.029-3.383l0.029-3.382l3.094-1.703
		c1.702-0.937,3.2-1.73,3.331-1.765c0.244-0.063,0.353-0.011,2.746,1.339c0.668,0.377,1.463,0.822,1.769,0.989
		c1.481,0.815,1.934,1.078,1.975,1.146c0.022,0.041,0.08,1.578,0.123,3.416l0.08,3.342h-1.006c-0.554,0-1.006,0.046-1.006,0.102
		c0,0.088,3.323,16.209,3.48,16.885c0.056,0.24,0.033,0.248-0.816,0.248h-0.874L25,343.777c-0.172-0.764-0.225-0.84-2.824-4.17
		c-1.457-1.866-2.791-3.563-2.967-3.771l-0.318-0.381l-2.896,3.619l-2.898,3.617l-0.194,0.904l-0.194,0.904l-0.912,0.031
		C10.96,344.562,10.887,344.548,10.943,344.367L10.943,344.367z M23.938,338.771c0-0.043-1.23-5.943-1.438-6.895
		c-0.068-0.318-0.16-0.578-0.2-0.576c-0.136,0.006-2.173,2.646-2.14,2.773c0.018,0.07,0.838,1.16,1.82,2.426
		C23.529,338.487,23.938,338.961,23.938,338.771z M15.624,336.683c0.84-1.047,1.663-2.086,1.828-2.305l0.301-0.399l-0.79-1.036
		c-1.117-1.466-1.416-1.794-1.478-1.623c-0.063,0.178-1.492,7.049-1.492,7.178c0,0.051,0.023,0.092,0.052,0.092
		C14.074,338.589,14.784,337.732,15.624,336.683z M20.396,330.737c0.92-1.134,1.438-1.863,1.43-2.017
		c-0.006-0.132-0.068-0.489-0.139-0.793l-0.129-0.552l-2.609-0.03c-2.959-0.033-2.71-0.119-2.813,0.959l-0.059,0.617l1.403,1.796
		c0.771,0.988,1.418,1.794,1.438,1.794S19.605,331.714,20.396,330.737z M23.163,323.287v-1.602h-4.364h-4.364v1.602v1.603h4.364
		h4.364V323.287z"/>
</g>
</svg>
