<?xml version="1.0" encoding="utf-8"?>
<!-- Generator: Adobe Illustrator 16.0.3, SVG Export Plug-In . SVG Version: 6.00 Build 0)  -->
<!DOCTYPE svg PUBLIC "-//W3C//DTD SVG 1.1//EN" "http://www.w3.org/Graphics/SVG/1.1/DTD/svg11.dtd">
<svg version="1.1"
	 id="svg9933" xmlns:dc="http://purl.org/dc/elements/1.1/" xmlns:cc="http://creativecommons.org/ns#" xmlns:rdf="http://www.w3.org/1999/02/22-rdf-syntax-ns#" xmlns:svg="http://www.w3.org/2000/svg" xmlns:sodipodi="http://sodipodi.sourceforge.net/DTD/sodipodi-0.dtd" xmlns:inkscape="http://www.inkscape.org/namespaces/inkscape" inkscape:version="0.91 r13725" sodipodi:docname="windmill.svg" inkscape:export-filename="C:\Users\Fabienne\Desktop\Symbole\png\windmill.png" inkscape:export-xdpi="90" inkscape:export-ydpi="90"
	 xmlns="http://www.w3.org/2000/svg" xmlns:xlink="http://www.w3.org/1999/xlink" x="0px" y="0px" width="32px" height="32px"
	 viewBox="0 0 32 32" enable-background="new 0 0 32 32" xml:space="preserve">
<sodipodi:namedview  units="px" pagecolor="#ffffff" bordercolor="#666666" borderopacity="1.0" inkscape:zoom="9.0509668" inkscape:cx="-4.7965733" inkscape:cy="26.733986" id="namedview9937" showgrid="false" inkscape:document-units="pt" inkscape:pageopacity="0.0" inkscape:pageshadow="2" inkscape:current-layer="layer1" inkscape:window-maximized="1" inkscape:window-width="1920" inkscape:window-x="-9" inkscape:window-y="-9" inkscape:window-height="1003">
	</sodipodi:namedview>
<g id="layer1" transform="translate(0,-314.4)" inkscape:label="Layer 1" inkscape:groupmode="layer">
	<path id="path4153" inkscape:connector-curvature="0" fill="none" d="M5.183,346.172c-2.588-0.338-4.654-2.445-4.951-5.053
		c-0.03-0.261-0.04-3.851-0.03-10.978l0.014-10.59l0.093-0.384c0.194-0.806,0.446-1.394,0.867-2.024
		c0.859-1.286,2.253-2.188,3.816-2.468c0.402-0.072,1.024-0.076,11.027-0.076c11.842,0,10.881-0.024,11.844,0.298
		c0.867,0.291,1.545,0.702,2.193,1.333c0.687,0.665,1.178,1.445,1.463,2.322c0.304,0.928,0.283,0.088,0.282,11.844
		c0,11.395,0.009,10.876-0.212,11.671c-0.232,0.834-0.775,1.763-1.402,2.399c-0.818,0.832-1.778,1.361-2.992,1.652
		c-0.303,0.072-0.901,0.076-11.027,0.084C10.278,346.205,5.335,346.193,5.183,346.172L5.183,346.172z M26.951,345.685
		c2.152-0.375,3.805-1.967,4.303-4.143l0.098-0.428l0.016-10.376c0.015-10.561,0.01-10.918-0.145-11.578
		c-0.23-1.001-0.768-1.931-1.529-2.652c-0.737-0.7-1.563-1.128-2.629-1.362c-0.346-0.076-0.793-0.079-11.045-0.079
		c-10.093,0-10.707,0.003-11.061,0.076c-1.915,0.39-3.437,1.728-4.038,3.546c-0.276,0.835-0.259,0.095-0.259,11.729
		c0,11.637-0.017,10.893,0.259,11.717c0.609,1.82,2.203,3.205,4.075,3.543C5.514,345.775,26.415,345.779,26.951,345.685
		L26.951,345.685z"/>
	<path id="path4745" inkscape:connector-curvature="0" fill="none" d="M8.972,345.511c-3.917-0.027-3.982-0.029-4.314-0.123
		c-0.875-0.246-1.639-0.695-2.283-1.342c-0.636-0.64-0.992-1.217-1.279-2.074l-0.154-0.459l-0.041-1.539
		c-0.058-2.168-0.019-20.031,0.045-20.499c0.092-0.668,0.455-1.514,0.916-2.133c0.695-0.933,1.595-1.551,2.764-1.897l0.367-0.109
		l2.594-0.031c3.373-0.041,13.687-0.041,16.925,0l2.528,0.032l0.39,0.118c1.783,0.542,3.098,1.896,3.553,3.658
		c0.101,0.385,0.109,0.527,0.149,2.08c0.026,1.035,0.032,5.134,0.017,10.817l-0.028,9.152l-0.103,0.414
		c-0.465,1.867-1.811,3.279-3.61,3.787l-0.409,0.115l-4.042,0.033C18.41,345.552,14.788,345.55,8.972,345.511L8.972,345.511
		L8.972,345.511z"/>
	<path id="path12862" inkscape:connector-curvature="0" fill="#3D3E3C" d="M9.689,342.755c0.033-0.158,0.696-3.107,1.473-6.556
		c0.777-3.448,1.398-6.284,1.38-6.302c-0.019-0.018-1.22,1.23-2.669,2.773l-2.636,2.807l-0.436-0.301
		c-0.738-0.508-1.303-1.133-1.817-2.012c-0.271-0.463-0.481-0.854-0.465-0.865c0.016-0.012,1.975-1.188,4.354-2.61
		c3.862-2.311,4.333-2.619,4.402-2.876c0.042-0.158,0.064-0.365,0.048-0.458c-0.023-0.137-2.376-1.958-8.033-6.217
		c-0.048-0.037,1.068-1.431,1.402-1.751c0.357-0.343,1.773-1.227,1.836-1.146c0.015,0.02,1.218,1.619,2.672,3.554
		c1.455,1.935,2.678,3.555,2.719,3.601s0.511-0.268,1.045-0.697c0.534-0.429,1.029-0.803,1.1-0.831
		c0.121-0.046,0.766,0.438,1.857,1.391l0.444,0.389l2.787-3.652l2.789-3.652l0.521,0.288c0.934,0.514,1.413,0.93,2.044,1.769
		c0.341,0.453,0.617,0.846,0.615,0.872s-1.845,1.416-4.097,3.089c-2.25,1.673-4.125,3.085-4.166,3.137
		c-0.041,0.052-0.026,0.278,0.031,0.502l0.105,0.406l4.252,2.549l4.254,2.548l-0.498,0.838c-0.49,0.822-1.406,1.793-2.035,2.158
		l-0.275,0.16l-2.559-2.728c-1.406-1.5-2.584-2.738-2.615-2.752c-0.031-0.013,0.467,2.81,1.107,6.274s1.168,6.373,1.17,6.461
		c0.003,0.147-0.426,0.158-6.083,0.143l-6.086-0.018L9.689,342.755L9.689,342.755z"/>
</g>
</svg>
