<?xml version="1.0" encoding="utf-8"?>
<!-- Generator: Adobe Illustrator 16.0.3, SVG Export Plug-In . SVG Version: 6.00 Build 0)  -->
<!DOCTYPE svg PUBLIC "-//W3C//DTD SVG 1.1//EN" "http://www.w3.org/Graphics/SVG/1.1/DTD/svg11.dtd">
<svg version="1.1"
	 id="svg4182" xmlns:dc="http://purl.org/dc/elements/1.1/" xmlns:cc="http://creativecommons.org/ns#" xmlns:rdf="http://www.w3.org/1999/02/22-rdf-syntax-ns#" xmlns:svg="http://www.w3.org/2000/svg" xmlns:sodipodi="http://sodipodi.sourceforge.net/DTD/sodipodi-0.dtd" xmlns:inkscape="http://www.inkscape.org/namespaces/inkscape" inkscape:export-ydpi="90" inkscape:export-xdpi="90" inkscape:export-filename="C:\Users\fkoenig\Documents\Osmaxx_Icons\fertige_symbole\2\bank.png" sodipodi:docname="bank.svg" inkscape:version="0.91 r13725"
	 xmlns="http://www.w3.org/2000/svg" xmlns:xlink="http://www.w3.org/1999/xlink" x="0px" y="0px" width="32px" height="32px"
	 viewBox="0 0 32 32" enable-background="new 0 0 32 32" xml:space="preserve">
<sodipodi:namedview  guidetolerance="10" objecttolerance="10" gridtolerance="10" showgrid="false" id="namedview4186" inkscape:cy="13.015455" inkscape:cx="-16.35401" inkscape:zoom="20.85965" borderopacity="1" bordercolor="#666666" pagecolor="#ffffff" inkscape:window-height="1003" inkscape:window-y="-9" inkscape:window-x="-9" inkscape:pageopacity="0" inkscape:window-width="1920" inkscape:window-maximized="1" inkscape:current-layer="svg4182" inkscape:pageshadow="2">
	</sodipodi:namedview>
<path id="path4153" inkscape:connector-curvature="0" inkscape:export-ydpi="90" inkscape:export-xdpi="90" inkscape:export-filename="C:\Users\Fabienne\Desktop\Symbole\png\bank.png" fill="none" d="
	M5.183,31.771c-2.588-0.338-4.654-2.445-4.951-5.053c-0.03-0.264-0.04-3.854-0.03-10.981L0.216,5.15l0.093-0.384
	C0.503,3.96,0.755,3.372,1.176,2.742c0.859-1.286,2.253-2.188,3.816-2.468c0.402-0.072,1.024-0.076,11.027-0.076
	c11.842,0,10.881-0.024,11.844,0.298c0.867,0.291,1.545,0.702,2.193,1.333c0.687,0.665,1.178,1.445,1.463,2.322
	c0.304,0.928,0.28,0.088,0.279,11.844c0,11.396,0.012,10.876-0.212,11.671c-0.229,0.834-0.772,1.764-1.399,2.398
	c-0.818,0.832-1.778,1.359-2.992,1.65c-0.303,0.072-0.901,0.076-11.027,0.084C10.278,31.807,5.335,31.793,5.183,31.771z
	 M26.951,31.285c2.152-0.375,3.805-1.967,4.303-4.143l0.098-0.431l0.019-10.376c0.014-10.56,0.01-10.917-0.146-11.577
	c-0.229-1.001-0.769-1.931-1.529-2.652c-0.735-0.7-1.563-1.127-2.629-1.362C26.719,0.67,26.271,0.667,16.02,0.667
	c-10.093,0-10.707,0.004-11.061,0.076C3.042,1.134,1.521,2.471,0.92,4.29C0.644,5.125,0.661,4.386,0.661,16.019
	c0,11.637-0.017,10.893,0.259,11.717c0.609,1.82,2.203,3.205,4.075,3.543C5.514,31.375,26.415,31.379,26.951,31.285z"/>
<path id="path4745" inkscape:connector-curvature="0" inkscape:export-ydpi="90" inkscape:export-xdpi="90" inkscape:export-filename="C:\Users\Fabienne\Desktop\Symbole\png\bank.png" fill="none" d="
	M8.962,31.111c-3.913-0.025-3.978-0.027-4.309-0.121c-0.874-0.245-1.637-0.693-2.28-1.34c-0.635-0.637-0.991-1.213-1.277-2.068
	l-0.154-0.459l-0.041-1.535C0.843,23.424,0.882,5.598,0.946,5.133C1.038,4.466,1.4,3.622,1.861,3.004
	c0.694-0.931,1.593-1.548,2.761-1.893l0.367-0.108L7.58,0.971c3.369-0.041,13.672-0.041,16.906,0l2.525,0.032L27.4,1.121
	c1.781,0.541,3.095,1.892,3.549,3.65c0.1,0.384,0.109,0.525,0.15,2.075c0.021,1.033,0.027,5.124,0.014,10.794l-0.026,9.135
	l-0.103,0.412c-0.463,1.865-1.813,3.271-3.607,3.776l-0.408,0.115l-4.037,0.03C18.391,31.152,14.771,31.152,8.962,31.111
	L8.962,31.111z"/>
<g>
	<path fill-rule="evenodd" clip-rule="evenodd" d="M19.084,4.217c-1.516,3.443-2.971,6.748-4.426,10.052
		c0.039,0.037,0.077,0.074,0.115,0.11c1.944-1.071,3.887-2.141,6.047-3.332c-1.188,4.331-2.318,8.454-3.492,12.737
		c0.553-0.262,0.965-0.456,1.375-0.65c0.041,0.034,0.082,0.066,0.123,0.101c-1.029,1.519-2.059,3.037-3.086,4.556
		c-0.066-0.003-0.131-0.008-0.197-0.011c-0.307-1.813-0.613-3.627-0.92-5.439c0.048-0.024,0.097-0.049,0.146-0.073
		c0.325,0.385,0.649,0.77,1.076,1.275c0.434-3.002,0.848-5.877,1.282-8.879c-2,1.128-3.877,2.186-5.947,3.353
		c0.329-1.18,0.596-2.17,0.881-3.154c0.972-3.343,1.963-6.681,2.909-10.031c0.139-0.491,0.354-0.632,0.826-0.621
		C16.836,4.234,17.875,4.217,19.084,4.217z"/>
</g>
</svg>
