<?xml version="1.0" encoding="utf-8"?>
<!-- Generator: Adobe Illustrator 16.0.3, SVG Export Plug-In . SVG Version: 6.00 Build 0)  -->
<!DOCTYPE svg PUBLIC "-//W3C//DTD SVG 1.1//EN" "http://www.w3.org/Graphics/SVG/1.1/DTD/svg11.dtd">
<svg version="1.1"
	 id="svg4182" xmlns:dc="http://purl.org/dc/elements/1.1/" xmlns:cc="http://creativecommons.org/ns#" xmlns:rdf="http://www.w3.org/1999/02/22-rdf-syntax-ns#" xmlns:svg="http://www.w3.org/2000/svg" xmlns:sodipodi="http://sodipodi.sourceforge.net/DTD/sodipodi-0.dtd" xmlns:inkscape="http://www.inkscape.org/namespaces/inkscape" inkscape:version="0.91 r13725" sodipodi:docname="bank.svg" inkscape:export-filename="C:\Users\fkoenig\Documents\Osmaxx_Icons\fertige_symbole\2\bank.png" inkscape:export-xdpi="90" inkscape:export-ydpi="90"
	 xmlns="http://www.w3.org/2000/svg" xmlns:xlink="http://www.w3.org/1999/xlink" x="0px" y="0px" width="32px" height="32px"
	 viewBox="0 0 32 32" enable-background="new 0 0 32 32" xml:space="preserve">
<sodipodi:namedview  pagecolor="#ffffff" bordercolor="#666666" borderopacity="1" inkscape:zoom="20.85965" inkscape:cx="-16.35401" inkscape:cy="13.015455" id="namedview4186" showgrid="false" inkscape:pageopacity="0" inkscape:pageshadow="2" inkscape:current-layer="svg4182" inkscape:window-maximized="1" inkscape:window-width="1920" inkscape:window-x="-9" inkscape:window-y="-9" inkscape:window-height="1003" gridtolerance="10" objecttolerance="10" guidetolerance="10">
	</sodipodi:namedview>
<path id="path4153" inkscape:connector-curvature="0" inkscape:export-filename="C:\Users\Fabienne\Desktop\Symbole\png\bank.png" inkscape:export-xdpi="90" inkscape:export-ydpi="90" fill="none" d="
	M5.183,31.771c-2.588-0.338-4.654-2.445-4.951-5.053c-0.03-0.263-0.04-3.853-0.03-10.98L0.216,5.15l0.093-0.384
	C0.503,3.96,0.755,3.372,1.176,2.742c0.859-1.286,2.253-2.188,3.816-2.468c0.402-0.072,1.024-0.076,11.027-0.076
	c11.842,0,10.881-0.024,11.844,0.298c0.867,0.291,1.545,0.702,2.193,1.333c0.687,0.665,1.178,1.445,1.463,2.322
	c0.304,0.928,0.281,0.088,0.28,11.844c0,11.396,0.011,10.876-0.212,11.671c-0.23,0.834-0.773,1.764-1.4,2.398
	c-0.818,0.832-1.778,1.36-2.992,1.651c-0.303,0.072-0.901,0.076-11.027,0.084C10.278,31.807,5.335,31.793,5.183,31.771z
	 M26.951,31.285c2.152-0.375,3.805-1.967,4.303-4.143l0.098-0.43l0.018-10.376c0.014-10.56,0.01-10.917-0.146-11.577
	c-0.229-1.001-0.768-1.931-1.529-2.652c-0.735-0.7-1.563-1.127-2.629-1.362C26.719,0.67,26.271,0.667,16.02,0.667
	c-10.093,0-10.707,0.004-11.061,0.076C3.042,1.134,1.521,2.471,0.92,4.29C0.644,5.125,0.661,4.386,0.661,16.019
	c0,11.637-0.017,10.893,0.259,11.717c0.609,1.82,2.203,3.205,4.075,3.543C5.514,31.375,26.415,31.379,26.951,31.285z"/>
<path id="path4745" inkscape:connector-curvature="0" inkscape:export-filename="C:\Users\Fabienne\Desktop\Symbole\png\bank.png" inkscape:export-xdpi="90" inkscape:export-ydpi="90" fill="none" d="
	M8.962,31.111c-3.913-0.025-3.978-0.027-4.309-0.121c-0.874-0.245-1.637-0.693-2.28-1.34c-0.635-0.637-0.991-1.213-1.277-2.068
	l-0.154-0.459l-0.041-1.535C0.843,23.424,0.882,5.598,0.946,5.133C1.038,4.466,1.4,3.622,1.861,3.004
	c0.694-0.931,1.593-1.548,2.761-1.893l0.367-0.108L7.58,0.971c3.369-0.041,13.672-0.041,16.906,0l2.525,0.032L27.4,1.121
	c1.781,0.541,3.095,1.892,3.549,3.65c0.1,0.384,0.109,0.525,0.15,2.075c0.022,1.033,0.028,5.124,0.014,10.794l-0.026,9.135
	l-0.103,0.412c-0.463,1.865-1.812,3.271-3.607,3.777l-0.408,0.115l-4.037,0.031C18.391,31.152,14.771,31.152,8.962,31.111
	L8.962,31.111z"/>
<g>
	
		<path id="rect3947" inkscape:connector-curvature="0" sodipodi:nodetypes="ccccccc" stroke="#000000" stroke-miterlimit="10" enable-background="new    " d="
		M12.637,11.333l-0.804,16.879c4.925,0.056,8.757,0.043,13.757,0.043v-5.242H14.882l-0.347-11.68H12.637z"/>
	
		<path id="path3051" sodipodi:arg2="2.3561945" sodipodi:arg1="1.3089969" sodipodi:r2="52.029507" sodipodi:r1="346.8634" sodipodi:cy="214.94217" sodipodi:cx="77.084686" sodipodi:sides="3" sodipodi:type="star" inkscape:transform-center-y="-17.315684" inkscape:transform-center-x="-26.81099" inkscape:randomized="0" inkscape:rounded="0.07" inkscape:flatsided="false" stroke="#000000" stroke-miterlimit="10" d="
		M5.793,17.559c-0.595-0.373,5.957-6.266,6.105-6.824c0.149-0.559-2.913-7.788-2.169-7.974c0.744-0.186,4.53,6.861,5.125,7.233
		c0.595,0.373,10.789,2.071,10.64,2.629c-0.148,0.559-10.487-0.596-11.23-0.409S6.388,17.93,5.793,17.559z"/>
</g>
</svg>
