<?xml version="1.0" encoding="utf-8"?>
<!-- Generator: Adobe Illustrator 16.0.3, SVG Export Plug-In . SVG Version: 6.00 Build 0)  -->
<!DOCTYPE svg PUBLIC "-//W3C//DTD SVG 1.1//EN" "http://www.w3.org/Graphics/SVG/1.1/DTD/svg11.dtd">
<svg version="1.1"
	 id="svg5832" xmlns:dc="http://purl.org/dc/elements/1.1/" xmlns:cc="http://creativecommons.org/ns#" xmlns:rdf="http://www.w3.org/1999/02/22-rdf-syntax-ns#" xmlns:svg="http://www.w3.org/2000/svg" xmlns:sodipodi="http://sodipodi.sourceforge.net/DTD/sodipodi-0.dtd" xmlns:inkscape="http://www.inkscape.org/namespaces/inkscape" inkscape:version="0.91 r13725" sodipodi:docname="guest_house.svg" inkscape:export-filename="C:\Users\Fabienne\Desktop\Symbole\png\guest_house.png" inkscape:export-xdpi="90" inkscape:export-ydpi="90"
	 xmlns="http://www.w3.org/2000/svg" xmlns:xlink="http://www.w3.org/1999/xlink" x="0px" y="0px" width="32px" height="32px"
	 viewBox="0 0 32 32" enable-background="new 0 0 32 32" xml:space="preserve">
<sodipodi:namedview  units="px" pagecolor="#ffffff" bordercolor="#666666" borderopacity="1.0" inkscape:zoom="18.101934" inkscape:cx="15.286036" inkscape:cy="19.148384" id="namedview5836" showgrid="false" inkscape:pageopacity="0.0" inkscape:pageshadow="2" inkscape:current-layer="layer1" inkscape:window-maximized="1" inkscape:window-height="1003" inkscape:document-units="pt" inkscape:window-width="1920" inkscape:window-x="-9" inkscape:window-y="-9">
	</sodipodi:namedview>
<g id="layer1" transform="translate(0,-314.4)" inkscape:label="Layer 1" inkscape:groupmode="layer">
	<path id="path4153" inkscape:connector-curvature="0" fill="none" d="M5.183,346.172c-2.588-0.338-4.654-2.443-4.951-5.053
		c-0.03-0.261-0.04-3.852-0.03-10.978l0.014-10.59l0.093-0.384c0.194-0.806,0.446-1.394,0.867-2.024
		c0.859-1.286,2.253-2.188,3.816-2.468c0.402-0.072,1.024-0.076,11.027-0.076c11.842,0,10.881-0.022,11.844,0.298
		c0.867,0.291,1.545,0.702,2.193,1.333c0.687,0.665,1.178,1.445,1.463,2.322c0.304,0.928,0.281,0.088,0.28,11.844
		c0,11.395,0.011,10.876-0.212,11.671c-0.23,0.834-0.773,1.763-1.4,2.399c-0.818,0.832-1.778,1.361-2.992,1.652
		c-0.303,0.07-0.901,0.074-11.027,0.084C10.278,346.205,5.335,346.193,5.183,346.172L5.183,346.172z M26.951,345.685
		c2.152-0.375,3.805-1.967,4.303-4.143l0.098-0.43l0.018-10.376c0.015-10.561,0.01-10.918-0.146-11.578
		c-0.229-1.001-0.768-1.931-1.529-2.652c-0.735-0.7-1.563-1.128-2.629-1.362c-0.346-0.076-0.793-0.079-11.043-0.079
		c-10.093,0-10.707,0.003-11.061,0.076c-1.915,0.39-3.437,1.729-4.038,3.546c-0.276,0.835-0.259,0.095-0.259,11.729
		c0,11.635-0.017,10.891,0.259,11.715c0.609,1.82,2.203,3.205,4.075,3.543C5.514,345.775,26.415,345.779,26.951,345.685
		L26.951,345.685z"/>
	<path id="path4745" inkscape:connector-curvature="0" fill="none" d="M8.972,345.511c-3.917-0.027-3.982-0.029-4.314-0.123
		c-0.875-0.246-1.639-0.695-2.283-1.342c-0.636-0.642-0.992-1.217-1.279-2.074l-0.154-0.459l-0.041-1.539
		c-0.058-2.168-0.019-20.031,0.045-20.5c0.092-0.668,0.455-1.514,0.916-2.133c0.695-0.933,1.595-1.551,2.764-1.897l0.367-0.109
		l2.594-0.031c3.373-0.041,13.687-0.041,16.925,0l2.528,0.032l0.39,0.118c1.783,0.542,3.098,1.896,3.553,3.658
		c0.103,0.385,0.109,0.527,0.149,2.08c0.026,1.035,0.032,5.134,0.017,10.815l-0.026,9.152l-0.104,0.414
		c-0.465,1.867-1.811,3.279-3.608,3.787L27,345.476l-4.042,0.033C18.41,345.552,14.788,345.55,8.972,345.511L8.972,345.511
		L8.972,345.511z"/>
	<path id="path13628" inkscape:connector-curvature="0" opacity="0.97" fill="#014354" enable-background="new    " d="
		M14.894,334.838v-0.992l2.426,0.021c2.383,0.021,2.434,0.021,2.714,0.178c0.159,0.086,0.405,0.265,0.55,0.396
		c0.283,0.26,0.67,0.969,0.67,1.229v0.158h-3.18h-3.181L14.894,334.838L14.894,334.838z"/>
	<path id="path13630" inkscape:connector-curvature="0" opacity="0.97" fill="#014354" enable-background="new    " d="
		M12.839,335.78c-0.739-0.229-1.102-0.741-1.059-1.502c0.03-0.563,0.243-0.929,0.698-1.198c0.923-0.553,2.169,0.186,2.169,1.279
		C14.646,335.25,13.652,336.032,12.839,335.78z"/>
	<path id="path13632" inkscape:connector-curvature="0" opacity="0.97" fill="#014354" enable-background="new    " d="
		M9.372,335.888c0-3.221,0.015-3.778,0.101-3.951c0.176-0.344,0.694-0.369,0.931-0.043c0.136,0.184,0.142,0.279,0.162,2.469
		l0.021,2.277h5.695h5.696v-1.741c0-1.397,0.02-1.776,0.098-1.933c0.122-0.242,0.436-0.363,0.691-0.273
		c0.387,0.141,0.383,0.077,0.402,3.656l0.02,3.287h-0.604h-0.606v-0.883v-0.89h-5.701H10.58v0.89v0.883H9.975H9.372V335.888
		L9.372,335.888z"/>
	<path id="path9947" inkscape:connector-curvature="0" fill="#014354" d="M6.413,342.509c-0.22-0.11-0.447-0.354-0.556-0.598
		c-0.067-0.15-0.074-0.637-0.074-4.971v-4.803l0.133-0.244c0.462-0.854,1.612-0.807,2.014,0.076c0.096,0.213,0.097,0.254,0.11,4.281
		l0.013,4.067h8.245h8.245v-3.978c0-4.533-0.018-4.317,0.359-4.701c0.517-0.526,1.322-0.436,1.734,0.201l0.129,0.192l0.012,4.829
		c0.011,3.203-0.002,4.887-0.032,4.994c-0.065,0.23-0.329,0.527-0.574,0.646l-0.206,0.101h-9.679h-9.68L6.413,342.509L6.413,342.509
		z"/>
	<path id="path9949" inkscape:connector-curvature="0" fill="#014354" d="M3.767,331.039c-0.489-0.199-0.794-0.617-0.836-1.144
		c-0.033-0.416,0.074-0.711,0.372-1.027c0.37-0.396,12.105-10.679,12.296-10.775c0.126-0.064,0.273-0.087,0.563-0.087
		c0.329,0,0.424,0.018,0.604,0.116c0.115,0.064,2.76,2.354,5.868,5.089c5.367,4.719,5.661,4.986,5.786,5.245
		c0.318,0.663,0.064,1.42-0.602,1.778c-0.321,0.171-0.818,0.176-1.131,0.009c-0.117-0.064-2.525-2.147-5.353-4.63
		c-3.114-2.737-5.162-4.504-5.2-4.49c-0.035,0.015-2.561,2.218-5.61,4.898c-3.052,2.68-5.635,4.918-5.741,4.975
		C4.509,331.138,4.064,331.156,3.767,331.039L3.767,331.039L3.767,331.039z"/>
</g>
</svg>
