<?xml version="1.0" encoding="utf-8"?>
<!-- Generator: Adobe Illustrator 16.0.3, SVG Export Plug-In . SVG Version: 6.00 Build 0)  -->
<!DOCTYPE svg PUBLIC "-//W3C//DTD SVG 1.1//EN" "http://www.w3.org/Graphics/SVG/1.1/DTD/svg11.dtd">
<svg version="1.1"
	 id="svg2" xmlns:sodipodi="http://sodipodi.sourceforge.net/DTD/sodipodi-0.dtd" xmlns:inkscape="http://www.inkscape.org/namespaces/inkscape" xmlns:rdf="http://www.w3.org/1999/02/22-rdf-syntax-ns#" xmlns:dc="http://purl.org/dc/elements/1.1/" xmlns:svg="http://www.w3.org/2000/svg" xmlns:cc="http://creativecommons.org/ns#" inkscape:export-ydpi="90" inkscape:export-xdpi="90" inkscape:export-filename="C:\Users\Fabienne\Desktop\Symbole\png\hotel.png" sodipodi:docname="hotel.svg" inkscape:version="0.91 r13725"
	 xmlns="http://www.w3.org/2000/svg" xmlns:xlink="http://www.w3.org/1999/xlink" x="0px" y="0px" width="32px" height="32px"
	 viewBox="0 0 32 32" enable-background="new 0 0 32 32" xml:space="preserve">
<sodipodi:namedview  showgrid="false" id="namedview13086" inkscape:cy="19.860415" inkscape:cx="-18.341333" inkscape:zoom="10.429825" bordercolor="#666666" gridtolerance="10" borderopacity="1" pagecolor="#ffffff" objecttolerance="10" guidetolerance="10" inkscape:window-y="-9" inkscape:window-height="1003" inkscape:window-x="-9" inkscape:window-width="1920" inkscape:window-maximized="1" inkscape:current-layer="svg2" inkscape:pageshadow="2" inkscape:pageopacity="0">
	</sodipodi:namedview>
<path id="path4153" inkscape:connector-curvature="0" fill="none" d="M5.183,31.771c-2.588-0.338-4.654-2.445-4.951-5.053
	c-0.03-0.264-0.04-3.854-0.03-10.981L0.216,5.15l0.093-0.384C0.503,3.96,0.755,3.372,1.176,2.742
	c0.859-1.286,2.253-2.188,3.816-2.468c0.402-0.072,1.024-0.076,11.027-0.076c11.842,0,10.881-0.024,11.844,0.298
	c0.867,0.291,1.545,0.702,2.193,1.333c0.687,0.665,1.178,1.445,1.463,2.322c0.304,0.928,0.28,0.088,0.279,11.844
	c0,11.396,0.012,10.876-0.212,11.671c-0.229,0.834-0.772,1.764-1.399,2.398c-0.818,0.832-1.778,1.359-2.992,1.65
	c-0.303,0.072-0.901,0.076-11.027,0.084C10.278,31.807,5.335,31.793,5.183,31.771L5.183,31.771z M26.951,31.285
	c2.152-0.375,3.805-1.967,4.303-4.143l0.098-0.431l0.019-10.376c0.014-10.56,0.01-10.917-0.146-11.577
	c-0.229-1.001-0.769-1.931-1.529-2.652c-0.735-0.7-1.563-1.127-2.629-1.362C26.719,0.67,26.271,0.667,16.02,0.667
	c-10.093,0-10.707,0.004-11.061,0.076C3.042,1.134,1.521,2.471,0.92,4.29C0.644,5.125,0.661,4.386,0.661,16.019
	c0,11.637-0.017,10.893,0.259,11.717c0.609,1.82,2.203,3.205,4.075,3.543C5.514,31.375,26.415,31.379,26.951,31.285z"/>
<path id="path4745" inkscape:connector-curvature="0" fill="none" d="M8.972,31.111c-3.917-0.027-3.982-0.029-4.314-0.123
	c-0.875-0.246-1.639-0.695-2.283-1.342c-0.636-0.643-0.992-1.217-1.279-2.074l-0.154-0.459l-0.041-1.539
	C0.844,23.406,0.883,5.543,0.947,5.077c0.092-0.668,0.455-1.514,0.916-2.133C2.558,2.01,3.458,1.392,4.627,1.046l0.367-0.109
	l2.594-0.031c3.373-0.041,13.688-0.041,16.926,0l2.527,0.032l0.391,0.118c1.782,0.542,3.098,1.896,3.553,3.658
	c0.103,0.385,0.108,0.527,0.148,2.079c0.026,1.035,0.032,5.134,0.016,10.818l-0.024,9.152l-0.104,0.414
	c-0.465,1.863-1.812,3.275-3.608,3.783L27,31.078l-4.042,0.031C18.41,31.152,14.788,31.15,8.972,31.111L8.972,31.111z"/>
<rect id="canvas" y="16" display="none" fill="none" width="16" height="16"/>
<path id="path13628" inkscape:connector-curvature="0" fill="#014354" d="M14.249,15.479v-1.454l2.865,0.03
	c2.814,0.029,2.871,0.034,3.203,0.258c0.188,0.126,0.48,0.389,0.65,0.583c0.334,0.381,0.789,1.423,0.789,1.803v0.234H18h-3.752
	L14.249,15.479L14.249,15.479z"/>
<path id="path13630" inkscape:connector-curvature="0" fill="#014354" d="M11.178,17.172c-1.06-0.322-1.58-1.047-1.519-2.119
	c0.045-0.795,0.348-1.307,1.001-1.689c1.323-0.775,3.11,0.261,3.11,1.805C13.771,16.423,12.344,17.525,11.178,17.172z"/>
<path id="path13632" inkscape:connector-curvature="0" fill="#014354" d="M7.695,17.22c0-4.671,0.017-5.48,0.122-5.729
	c0.208-0.5,0.826-0.535,1.109-0.063c0.161,0.267,0.169,0.407,0.193,3.581l0.024,3.302h6.789h6.791v-2.525
	c0-2.027,0.023-2.579,0.117-2.806c0.146-0.35,0.518-0.526,0.824-0.395c0.463,0.2,0.457,0.111,0.479,5.303l0.025,4.77h-0.723h-0.723
	v-1.286v-1.284h-6.794H9.133v1.284v1.286H8.414H7.695V17.22L7.695,17.22z"/>
</svg>
