<?xml version="1.0" encoding="UTF-8" standalone="no"?>
<!-- Created with Inkscape (http://www.inkscape.org/) -->

<svg
   xmlns:dc="http://purl.org/dc/elements/1.1/"
   xmlns:cc="http://creativecommons.org/ns#"
   xmlns:rdf="http://www.w3.org/1999/02/22-rdf-syntax-ns#"
   xmlns:svg="http://www.w3.org/2000/svg"
   xmlns="http://www.w3.org/2000/svg"
   xmlns:sodipodi="http://sodipodi.sourceforge.net/DTD/sodipodi-0.dtd"
   xmlns:inkscape="http://www.inkscape.org/namespaces/inkscape"
   width="352.78mm"
   height="352.78mm"
   viewBox="0 0 1250.0079 1250.0079"
   id="svg18841"
   version="1.1"
   inkscape:version="0.91 r13725"
   sodipodi:docname="accomodation_guest_house.svg">
  <defs
     id="defs18843" />
  <sodipodi:namedview
     id="base"
     pagecolor="#ffffff"
     bordercolor="#666666"
     borderopacity="1.0"
     inkscape:pageopacity="0.0"
     inkscape:pageshadow="2"
     inkscape:zoom="0.5"
     inkscape:cx="80"
     inkscape:cy="520"
     inkscape:document-units="px"
     inkscape:current-layer="layer1"
     showgrid="false"
     inkscape:window-width="1920"
     inkscape:window-height="1018"
     inkscape:window-x="-8"
     inkscape:window-y="-8"
     inkscape:window-maximized="1" />
  <metadata
     id="metadata18846">
    <rdf:RDF>
      <cc:Work
         rdf:about="">
        <dc:format>image/svg+xml</dc:format>
        <dc:type
           rdf:resource="http://purl.org/dc/dcmitype/StillImage" />
        <dc:title></dc:title>
      </cc:Work>
    </rdf:RDF>
  </metadata>
  <g
     inkscape:label="Layer 1"
     inkscape:groupmode="layer"
     id="layer1"
     transform="translate(0,197.64569)">
    <path
       inkscape:connector-curvature="0"
       d="m 637.1894,71.673319 c -8.3889,0 -12.6398,0.5787 -16.2858,2.6034 -5.523,2.8922 -344.9822,300.236501 -355.6852,311.691101 -8.619,9.1401 -11.685,17.615 -10.73,29.6473 1.157,15.2431 10.037,27.3626 24.181,33.1191 8.59,3.3835 21.462,2.8921 29.387,-1.1574 3.066,-1.7361 77.7493,-66.3814 166.0272,-143.8997 88.191,-77.5182 161.2837,-141.2391 162.2955,-141.6723 1.1573,-0.2899 60.3363,50.705 150.4082,129.8708 81.7982,71.8199 151.4485,132.0991 154.8327,133.9493 9.0534,4.8308 23.4288,4.6573 32.7136,-0.2888 19.2638,-10.3554 26.6107,-32.2505 17.4126,-51.428 -3.6155,-7.4912 -12.1194,-15.2433 -167.3572,-151.7379 C 734.4918,143.26162 657.9574,77.053619 654.631,75.202419 c -5.2069,-2.8922 -7.9256,-3.3847 -17.4416,-3.3847 z M 370.5917,455.61752 c -11.425,-0.5786 -23.082,5.3803 -29.764,17.7314 l -3.8473,7.057 0,138.9245 c 0,125.359 0,139.5031 2.0253,143.8414 3.153,7.0581 9.691,14.0871 16.054,17.2681 l 5.581,2.6034 279.9905,0 279.9896,0 5.9874,-2.9504 c 7.0865,-3.4417 14.6647,-12.0321 16.5448,-18.685 0.8677,-3.0948 1.1569,-51.746 0.8677,-144.391 l -0.2892,-139.7057 -3.7313,-5.5538 c -11.9169,-18.4242 -35.2012,-21.0277 -50.1551,-5.8135 -10.9041,11.1066 -10.3837,4.8587 -10.3837,135.9741 l 0,115.0908 -238.4541,0 -238.5406,0 -0.29,-117.6942 c -0.288,-116.4786 -0.288,-117.6651 -3.181,-123.8255 -5.814,-12.7563 -17.008,-19.4954 -28.461,-19.9297 z m 85.9349,11.1356 c -5.235,0 -10.298,2.9224 -12.843,7.8964 -2.603,5.0044 -2.921,21.1151 -2.921,114.2817 l 0,108.4087 17.442,0 17.527,0 0,-25.5405 0,-25.742 164.7843,0 164.8982,0 0,25.742 0,25.5405 17.5859,0 17.4416,0 -0.5787,-95.075 c -0.5775,-103.5209 -0.5775,-101.6696 -11.656,-105.7482 -7.376,-2.6035 -16.4577,0.8685 -19.9868,7.8964 -2.3135,4.542 -2.8922,15.475 -2.8922,55.8827 l 0,50.386 -164.784,0 -164.6663,0 -0.579,-65.861 c -0.579,-63.3448 -0.867,-66.0926 -4.686,-71.4148 -3.442,-4.7143 -8.879,-6.9125 -14.115,-6.6529 z m 95.19,35.5199 c -7.144,0 -14.404,1.4461 -21.086,5.4374 -13.16,7.7812 -19.35,18.3964 -20.218,34.6805 -1.156,22.0115 9.314,36.8216 30.689,43.4455 23.516,7.2887 52.209,-15.3597 52.238,-41.1307 0,-23.7184 -20.218,-41.6804 -41.623,-42.4327 z m 48.797,27.5653 0,28.6924 0,28.6644 92.037,0 91.9802,0 0,-4.599 c 0,-7.5204 -11.1937,-27.9984 -19.3789,-35.5188 -4.1951,-3.7899 -11.3393,-8.9956 -15.9384,-11.4837 -8.0979,-4.5409 -9.5451,-4.5118 -78.4718,-5.1195 l -70.1711,-0.5787 z"
       id="path13628"
       style="fill:#004150;fill-opacity:1" />
  </g>
</svg>
