<?xml version="1.0" encoding="UTF-8" standalone="no"?>
<!-- Created with Inkscape (http://www.inkscape.org/) -->

<svg
   xmlns:dc="http://purl.org/dc/elements/1.1/"
   xmlns:cc="http://creativecommons.org/ns#"
   xmlns:rdf="http://www.w3.org/1999/02/22-rdf-syntax-ns#"
   xmlns:svg="http://www.w3.org/2000/svg"
   xmlns="http://www.w3.org/2000/svg"
   xmlns:sodipodi="http://sodipodi.sourceforge.net/DTD/sodipodi-0.dtd"
   xmlns:inkscape="http://www.inkscape.org/namespaces/inkscape"
   width="352.78mm"
   height="352.78mm"
   viewBox="0 0 1250.0079 1250.0079"
   id="svg21896"
   version="1.1"
   inkscape:version="0.91 r13725"
   sodipodi:docname="catering_cafe.svg">
  <defs
     id="defs21898" />
  <sodipodi:namedview
     id="base"
     pagecolor="#ffffff"
     bordercolor="#666666"
     borderopacity="1.0"
     inkscape:pageopacity="0.0"
     inkscape:pageshadow="2"
     inkscape:zoom="0.5"
     inkscape:cx="80"
     inkscape:cy="520"
     inkscape:document-units="px"
     inkscape:current-layer="layer1"
     showgrid="false"
     inkscape:window-width="1920"
     inkscape:window-height="1018"
     inkscape:window-x="-8"
     inkscape:window-y="-8"
     inkscape:window-maximized="1" />
  <metadata
     id="metadata21901">
    <rdf:RDF>
      <cc:Work
         rdf:about="">
        <dc:format>image/svg+xml</dc:format>
        <dc:type
           rdf:resource="http://purl.org/dc/dcmitype/StillImage" />
        <dc:title></dc:title>
      </cc:Work>
    </rdf:RDF>
  </metadata>
  <g
     inkscape:label="Layer 1"
     inkscape:groupmode="layer"
     id="layer1"
     transform="translate(0,197.64569)">
    <path
       inkscape:connector-curvature="0"
       d="m 290.15614,105.8007 1.46,180.14493 1.46,180.01512 9.317,18.10842 c 25.249,49.13357 81.1362,84.15006 156.6857,98.13727 17.2,3.24516 27.6724,3.56948 70.6722,2.92085 57.9605,-0.97361 87.022,-4.3816 115.6129,-13.50075 49.0359,-15.57716 81.9073,-37.61234 103.0015,-69.28611 11.9102,-17.84938 17.2519,-31.05744 22.1199,-56.04577 l 3.6119,-18.62787 53.3717,-1.62291 c 29.3048,-0.6493 60.4205,-2.27155 69.1503,-3.47258 22.23,-2.92084 36.4216,-10.83894 57.743,-32.2578 18.9524,-18.98515 28.8894,-35.66578 32.2645,-54.32595 2.5962,-13.56534 2.5638,-67.50171 0,-84.83099 -4.5433,-31.9988 -28.6428,-61.7576 -65.5416,-81.2945 l -16.1645,-8.5674 -65.5383,-0.9736 -65.6031,-0.9736 -0.5841,-26.7411 -0.5841,-26.74106 -241.3054,0 -241.2405,0 z m 482.5457,114.46056 51.9729,0.9736 c 29.9539,0.6493 55.9647,2.2716 61.5466,3.5701 34.0754,8.6644 50.4055,67.79315 29.5384,106.93152 -3.3101,6.26355 -9.9078,15.05773 -14.5161,19.56918 l -8.4312,8.24243 -58.5674,1.29859 c -32.1931,0.64863 -59.2781,0.64863 -60.0245,0 -0.8437,-0.97361 -1.5252,-32.8425 -1.5252,-71.10415 l 0,-69.61117 z m 76.757,428.18126 -274.8354,0 c -151.1651,0 -283.4913,0.97362 -294.0383,1.62225 l -19.139,1.29794 0.324,7.04271 c 0.455,15.80459 22.827,49.78221 44.115,66.94998 6.394,5.16009 17.606,12.65632 24.973,16.51847 l 13.4998,7.04207 210.1189,0 210.1215,0 18.6343,-9.37887 c 10.1253,-5.12779 23.379,-13.82506 29.2205,-19.27716 17.3946,-15.86919 37.1421,-50.98324 37.1421,-66.10623 l 0,-5.93858 z"
       id="path7559-6"
       style="fill:#6e5028;fill-opacity:1" />
  </g>
</svg>
