<?xml version="1.0" encoding="UTF-8" standalone="no"?>
<!-- Created with Inkscape (http://www.inkscape.org/) -->

<svg
   xmlns:dc="http://purl.org/dc/elements/1.1/"
   xmlns:cc="http://creativecommons.org/ns#"
   xmlns:rdf="http://www.w3.org/1999/02/22-rdf-syntax-ns#"
   xmlns:svg="http://www.w3.org/2000/svg"
   xmlns="http://www.w3.org/2000/svg"
   xmlns:sodipodi="http://sodipodi.sourceforge.net/DTD/sodipodi-0.dtd"
   xmlns:inkscape="http://www.inkscape.org/namespaces/inkscape"
   width="352.78mm"
   height="352.78mm"
   viewBox="0 0 1250.0079 1250.0079"
   id="svg9518"
   version="1.1"
   inkscape:version="0.91 r13725"
   sodipodi:docname="destination_zoo.svg">
  <defs
     id="defs9520" />
  <sodipodi:namedview
     id="base"
     pagecolor="#ffffff"
     bordercolor="#666666"
     borderopacity="1.0"
     inkscape:pageopacity="0.0"
     inkscape:pageshadow="2"
     inkscape:zoom="0.5"
     inkscape:cx="80"
     inkscape:cy="520"
     inkscape:document-units="px"
     inkscape:current-layer="layer1"
     showgrid="false"
     inkscape:window-width="1920"
     inkscape:window-height="1018"
     inkscape:window-x="-8"
     inkscape:window-y="-8"
     inkscape:window-maximized="1" />
  <metadata
     id="metadata9523">
    <rdf:RDF>
      <cc:Work
         rdf:about="">
        <dc:format>image/svg+xml</dc:format>
        <dc:type
           rdf:resource="http://purl.org/dc/dcmitype/StillImage" />
        <dc:title></dc:title>
      </cc:Work>
    </rdf:RDF>
  </metadata>
  <g
     inkscape:label="Layer 1"
     inkscape:groupmode="layer"
     id="layer1"
     transform="translate(0,197.64569)">
    <path
       style="stroke:none;stroke-opacity:1;fill:#0a8228;fill-opacity:1"
       d="m 776.27331,120.42732 c -38.736,-0.06 -71.43,23.387 -88.13,63.41 -22.091,52.616 -2.046,117.377 44.445,143.157 40.201,22.359 89.551,11.035 117.559,-27.028 4.451,-6.095 4.805,-6.192 12.962,-6.317 9.373,-0.09 9.356,-0.786 0.691,12.026 -24.884,36.664 -67.676,54.25 -108.706,44.703 -35.722,-8.303 -66.26,-37.321 -80.084,-76.286 -11.834,-33.212 -10.319,-73.48 3.782,-105.075 l 4.966,-11.115 -4.75,-0.852 c -10.562,-1.834 -76.59,-11.321 -99.04,-14.151 -71.997,-9.081 -125.696,-10.769 -150.607,-4.799 -29.723,7.153 -59.257,20.763 -76.952,35.41 -23.17001,19.187 -39.15601,46.345 -47.03601,79.93 -14.156,60.36 -10.799,123.639 19.172,361.69 5.778,45.993 11.291,91.456 12.204,101.127 l 1.686,17.493 24.03301,0 c 13.215,0 30.278,-0.292 37.853,-0.852 l 13.824,-0.911 0.277,-38.993 c 0.276,-41.36 2.461,-73.606 7.18,-99.852 4.949,-27.273 10.98,-39.922 21.762,-45.675 25.769,-13.621 107.601,-21.622 168.593,-16.459 46.035,3.825 71.43,11.479 81.218,24.416 14.433,19.125 19.766,58.021 18.577,135.019 l -0.608,43.852 39.745,-0.852 c 21.925,-0.529 40.165,-1.293 40.607,-1.822 0.415,-0.529 8.629,-73.627 18.306,-162.472 9.65,-88.783 17.659,-161.439 17.715,-161.439 0,0 10.368,0.198 22.948,0.483 33.731,0.779 48.609,-3.63 62.101,-18.463 3.291,-3.639 6.81,-6.621 7.778,-6.621 3.981,0 11.117,8.175 14.795,17.006 10.174,24.474 14.728,59.947 19.981,155.852 3.069,55.695 -1.465,77.747 -17.874,86.672 -14.461,7.836 -42.621,-1.262 -53.57,-17.432 -3.069,-4.478 -3.575,-6.908 -4.21,-20.529 -0.581,-12.346 -1.272,-16.129 -3.296,-18.585 -3.843,-4.728 -11.026,-6.485 -24.353,-5.831 -11.17,0.404 -12.362,0.849 -16.094,4.859 -5.226,5.722 -6.166,10.931 -3.456,21.379 9.234,35.949 41.033,70.211 72.469,78.047 10.783,2.706 34.224,1.217 44.011,-2.733 15.124,-6.033 26.383,-19.075 35.479,-40.937 7.327,-17.508 7.991,-24.705 9.235,-91.409 0.636,-33.648 1.99,-88.058 2.861,-120.928 2.516,-88.69 2.295,-158.102 -0.58,-181.3 -8.046,-64.901 -23.695,-95.435 -58.864,-115.462 -14.433,-8.209 -25.603,-10.597 -49.519,-10.629 -23.971,-0.03 -31.809,1.562 -50.113,10.022 l -9.774,4.495 -10.205,-5.345 c -13.713,-7.184 -24.842,-9.9 -40.878,-9.9 z m 158.656,90.984 c 9.234,0 13.926,12.824 7.346,20.226 -6.857,7.712 -17.955,2.413 -18.038,-8.564 0,-5.847 5.355,-11.662 10.692,-11.662 z m -640.40001,13.241 c -13.741,-0.308 -27.247,13.589 -32.777,33.709 -5.806,21.022 -9.113,78.097 -9.666,166.663 -0.332,52.896 -0.276,55.071 2.267,57.093 3.346,2.736 4.225,2.688 7.183,-0.606 2.323,-2.581 2.516,-7.28 3.238,-75.011 1.051,-98.454 3.788,-133.625 11.612,-151.6 5.088,-11.692 10.275,-16.156 18.846,-16.156 6.276,0 6.265,-0.01 7.343,-5.952 1.217,-6.872 0.277,-7.983 -8.046,-8.139 z m 655.35701,193.265 c 0,-0.169 0.332,0.08 0.553,0.668 0.388,1.09 0.332,2.388 0,2.855 -0.414,0.498 -0.746,-0.36 -0.691,-1.944 0.03,-0.872 0,-1.424 0.277,-1.579 z"
       id="path4722"
       inkscape:connector-curvature="0"
       inkscape:transform-center-x="3580.2939"
       inkscape:transform-center-y="4093.8022" />
  </g>
</svg>
