<?xml version="1.0" encoding="UTF-8" standalone="no"?>
<!-- Created with Inkscape (http://www.inkscape.org/) -->

<svg
   xmlns:dc="http://purl.org/dc/elements/1.1/"
   xmlns:cc="http://creativecommons.org/ns#"
   xmlns:rdf="http://www.w3.org/1999/02/22-rdf-syntax-ns#"
   xmlns:svg="http://www.w3.org/2000/svg"
   xmlns="http://www.w3.org/2000/svg"
   xmlns:sodipodi="http://sodipodi.sourceforge.net/DTD/sodipodi-0.dtd"
   xmlns:inkscape="http://www.inkscape.org/namespaces/inkscape"
   width="352.78mm"
   height="352.78mm"
   viewBox="0 0 1250.0079 1250.0079"
   id="svg28138"
   version="1.1"
   inkscape:version="0.91 r13725"
   sodipodi:docname="destination_view_point.svg">
  <defs
     id="defs28140" />
  <sodipodi:namedview
     id="base"
     pagecolor="#ffffff"
     bordercolor="#666666"
     borderopacity="1.0"
     inkscape:pageopacity="0.0"
     inkscape:pageshadow="2"
     inkscape:zoom="0.5"
     inkscape:cx="80"
     inkscape:cy="520"
     inkscape:document-units="px"
     inkscape:current-layer="layer1"
     showgrid="false"
     inkscape:window-width="1920"
     inkscape:window-height="1018"
     inkscape:window-x="-8"
     inkscape:window-y="-8"
     inkscape:window-maximized="1" />
  <metadata
     id="metadata28143">
    <rdf:RDF>
      <cc:Work
         rdf:about="">
        <dc:format>image/svg+xml</dc:format>
        <dc:type
           rdf:resource="http://purl.org/dc/dcmitype/StillImage" />
        <dc:title></dc:title>
      </cc:Work>
    </rdf:RDF>
  </metadata>
  <g
     inkscape:label="Layer 1"
     inkscape:groupmode="layer"
     id="layer1"
     transform="translate(0,197.64569)">
    <path
       inkscape:connector-curvature="0"
       d="m 757.57992,76.430653 c -35.9455,20.017 -55.2718,51.112997 -64.2724,90.891997 -12.5213,55.196 -28.0705,109.699 -40.6486,164.867 -3.322,14.395 -0.4997,30.167 -0.4997,51.462 17.1494,-7.865 30.0909,-10.383 38.0977,-18.078 50.8233,-48.637 102.6465,-96.468 150.0061,-148.342 41.9933,-45.997 29.1511,-99.887 -25.6758,-130.096997 -5.6502,-3.095 -10.7996,-7.126 -16.1375,-10.704 -13.657,0 -27.2417,0 -40.8703,0 z m -284.0966,6.156 c -10.5489,0.795 -21.5614,3.608 -32.6631,8.484 -45.4573,19.959997 -65.3747,57.355997 -43.1997,98.156997 43.4981,80.012 111.2865,138.189 186.3292,188.104 3.4356,2.3 8.3953,2.385 18.1341,4.989 0,-17.547 1.2862,-32.703 -0.389,-47.525 -1.7887,-15.616 -5.6945,-31.17 -9.9818,-46.36 -15.0483,-53.18 -27.947,-107.257 -46.9703,-159.046 -12.2661,-33.389997 -39.6134,-49.190997 -71.26,-46.802997 z M 320.81531,345.94265 c -37.9328,-0.283 -57.4087,18.601 -81.1311,64.384 l 0,40.869 c 34.0717,58.007 55.3088,68.808 121.89051,52.738 59.1427,-14.282 117.4477,-32.437 175.6819,-50.296 13.004,-4.003 24.1826,-13.759 41.7579,-24.123 -17.4333,-12.35 -27.8976,-24.085 -40.7596,-28.117 -57.0984,-17.803 -114.2868,-35.846 -172.5209,-49.134 -17.58241,-4.009 -32.27471,-6.244 -44.91871,-6.321 z m 595.47711,3.993 c -9.6394,0.567 -19.2362,1.845 -28.393,4.102 -56.0478,13.799 -111.6942,29.143 -166.9754,45.696 -15.1051,4.515 -28.3414,15.361 -49.4658,27.286 20.4714,12.351 32.7184,23.1 46.9149,27.615 52.7827,16.865 105.8223,33.444 159.6555,46.306 24.5316,5.877 51.9626,7.198 76.7497,2.939 42.0501,-7.155 58.67278,-37.116 55.06688,-87.286 -2.6689,-37.138 -26.89528,-63.345 -64.77158,-66.326 -9.4407,-0.739 -19.1417,-0.909 -28.7812,-0.341 z m -264.4101,119.895 c 0,26.547 -2.8251,43.362 0.5537,58.836 11.6412,53.01 25.313,105.656 38.4305,158.325 9.2846,37.394 26.8136,69.475 59.8915,91.281 l 47.6914,0 c 92.3058,-45.372 73.8304,-113.976 22.1267,-161.931 -40.7156,-37.82 -79.5396,-77.638 -120.2269,-115.458 -11.0164,-10.278 -25.5829,-16.63 -48.4677,-31.053 z m -54.7897,11.811 c -15.4458,6.531 -33.8252,9.654 -45.7503,20.131 -39.0972,34.441 -76.5232,70.92 -113.4057,107.803 -72.7713,72.743 -64.4096,123.779 26.6185,168.697 9.0857,0 18.1425,0.03 27.2283,0 37.564,-19.62 58.9689,-50.952 68.7645,-91.781 12.6633,-52.839 27.7023,-105.091 39.4286,-158.101 3.2368,-14.622 -1.6922,-31.104 -2.8839,-46.749 z"
       id="path3"
       style="fill:#c84614;fill-opacity:1" />
  </g>
</svg>
