<?xml version="1.0" encoding="UTF-8" standalone="no"?>
<!-- Created with Inkscape (http://www.inkscape.org/) -->

<svg
   xmlns:dc="http://purl.org/dc/elements/1.1/"
   xmlns:cc="http://creativecommons.org/ns#"
   xmlns:rdf="http://www.w3.org/1999/02/22-rdf-syntax-ns#"
   xmlns:svg="http://www.w3.org/2000/svg"
   xmlns="http://www.w3.org/2000/svg"
   xmlns:sodipodi="http://sodipodi.sourceforge.net/DTD/sodipodi-0.dtd"
   xmlns:inkscape="http://www.inkscape.org/namespaces/inkscape"
   width="352.78mm"
   height="352.78mm"
   viewBox="0 0 1250.0079 1250.0079"
   id="svg23159"
   version="1.1"
   inkscape:version="0.91 r13725"
   sodipodi:docname="leisure_theatre.svg">
  <defs
     id="defs23161" />
  <sodipodi:namedview
     id="base"
     pagecolor="#ffffff"
     bordercolor="#666666"
     borderopacity="1.0"
     inkscape:pageopacity="0.0"
     inkscape:pageshadow="2"
     inkscape:zoom="0.5"
     inkscape:cx="80"
     inkscape:cy="520"
     inkscape:document-units="px"
     inkscape:current-layer="layer1"
     showgrid="false"
     inkscape:window-width="1920"
     inkscape:window-height="1018"
     inkscape:window-x="-8"
     inkscape:window-y="-8"
     inkscape:window-maximized="1" />
  <metadata
     id="metadata23164">
    <rdf:RDF>
      <cc:Work
         rdf:about="">
        <dc:format>image/svg+xml</dc:format>
        <dc:type
           rdf:resource="http://purl.org/dc/dcmitype/StillImage" />
        <dc:title></dc:title>
      </cc:Work>
    </rdf:RDF>
  </metadata>
  <g
     inkscape:label="Layer 1"
     inkscape:groupmode="layer"
     id="layer1"
     transform="translate(0,197.64569)">
    <path
       inkscape:connector-curvature="0"
       d="m 667.3152,90.243503 c -0.5758,0 -1.1508,0 -1.7266,0.5758 C 639.7167,101.956 595.196,117.5827 569.2089,124.5764 c -27.7135,7.4536 -37.8148,8.5179 -87.3716,8.6043 -46.5063,0 -60.7801,-1.1507 -84.0332,-6.9642 -23.3106,-5.8709 -84.32171,-26.217197 -106.27941,-35.454797 -5.4392,-2.3022 -5.7847,7.1945 -5.7847,172.728857 0,147.2888 0.8636,179.2326 5.2953,200.5288 17.3533,84.0052 67.25561,136.2953 144.09421,150.973 25.2962,4.8347 71.1411,3.8271 91.8042,-2.0152 l 12.0867,-3.4241 -0.5757,-23.0516 c -0.5758,-18.5336 -1.4386,-22.6493 -5.3241,-21.1812 -2.5901,0.8636 -15.742,3.5393 -29.1241,5.612 -66.3345,10.3027 -128.7554,-18.6488 -153.6774,-71.3139 -17.75631,-37.5269 -18.44721,-44.6062 -18.44721,-198.7737 0,-78.4787 0.8637,-142.71236 1.7265,-142.71236 0.8636,0 10.9072,3.712 22.27511,8.1733 47.8009,18.84936 70.1336,23.08026 122.7979,23.08026 53.1258,0 81.7317,-5.3529 123.8918,-23.08026 10.5906,-4.4613 20.0585,-8.1157 21.0085,-8.1157 0.8636,0 1.7265,12.4322 1.7265,27.59836 l 0,27.5408 14.0443,5.2377 c 7.7126,2.878 17.9866,6.1878 22.994,7.3672 l 9.0368,2.3031 0,-69.93206 c 0,-57.1831 0,-67.715997 -3.9143,-67.888797 z M 406.0054,233.96336 c -46.5063,0 -63.91711,58.7952 -25.0947,84.7528 30.4188,20.3184 70.8244,-1.7265 70.8244,-38.8223 0,-26.303 -19.5123,-45.9305 -45.7297,-45.9305 z m 172.9881,0.8636 0,181.7659 c 0,201.5933 0,203.8667 21.6417,248.3873 23.3395,48.49179 67.342,83.19909 120.0064,94.53819 11.8285,2.5901 33.2687,4.7483 47.7728,4.9499 94.6525,0.5749 161.6779,-49.6433 187.0028,-140.41109 6.8499,-24.7204 7.1953,-32.8649 8.3172,-208.2416 1.1515,-149.6774 0.5758,-182.2265 -3.0795,-180.7295 -39.4261,16.6624 -67.7441,27.0227 -94.1055,34.3042 -29.4983,8.1726 -37.2686,8.8923 -93.1851,8.9786 -55.8014,0 -63.6868,-0.5757 -94.1351,-8.7202 -18.2738,-4.8347 -48.2903,-14.6193 -66.7375,-21.7849 l -33.5558,-13.0368 z m 270.6625,141.7344 c 5.2665,0.5758 10.6769,2.3022 16.001,5.065 34.074,17.0654 35.5126,66.3345 2.5901,86.4513 -23.541,14.389 -56.7514,4.8347 -69.1836,-19.8289 -18.8214,-37.2967 13.6701,-76.7524 50.6501,-71.6874 z m -156.3826,0 c 50.9092,-4.3165 73.6441,61.9028 31.081,90.3936 -31.2825,20.9221 -76.0622,-2.878 -76.091,-40.3185 0,-27.628 18.0161,-47.8305 45.01,-50.0751 z m -213.1914,26.7644 c -16.4041,0 -33.0952,2.878 -45.4131,8.2588 -28.7211,12.7498 -50.1607,44.6935 -50.1607,74.9107 l 0,10.9649 77.4721,0 77.4432,0 0,-39.2254 0,-39.2245 -15.6269,-7.5976 c -11.1951,-5.4392 -27.3113,-8.1156 -43.7146,-8.0869 z m 190.3125,166.6565 99.7175,0 99.776,0 -2.3031,13.4973 c -5.1512,32.6059 -36.1746,69.7017 -66.8813,80.1484 -18.907,6.446 -44.232,6.3309 -62.8808,0 -28.9513,-10.3603 -60.3777,-48.578 -65.3276,-79.659 l -2.3022,-13.7564 z"
       id="path18690"
       style="fill:#821432;fill-opacity:1" />
  </g>
</svg>
