<?xml version="1.0" encoding="UTF-8" standalone="no"?>
<!-- Created with Inkscape (http://www.inkscape.org/) -->

<svg
   xmlns:dc="http://purl.org/dc/elements/1.1/"
   xmlns:cc="http://creativecommons.org/ns#"
   xmlns:rdf="http://www.w3.org/1999/02/22-rdf-syntax-ns#"
   xmlns:svg="http://www.w3.org/2000/svg"
   xmlns="http://www.w3.org/2000/svg"
   xmlns:sodipodi="http://sodipodi.sourceforge.net/DTD/sodipodi-0.dtd"
   xmlns:inkscape="http://www.inkscape.org/namespaces/inkscape"
   width="352.78mm"
   height="352.78mm"
   viewBox="0 0 1250.0079 1250.0079"
   id="svg7294"
   version="1.1"
   inkscape:version="0.91 r13725"
   sodipodi:docname="misc_tower.svg">
  <defs
     id="defs7296" />
  <sodipodi:namedview
     id="base"
     pagecolor="#ffffff"
     bordercolor="#666666"
     borderopacity="1.0"
     inkscape:pageopacity="0.0"
     inkscape:pageshadow="2"
     inkscape:zoom="0.5"
     inkscape:cx="80"
     inkscape:cy="520"
     inkscape:document-units="px"
     inkscape:current-layer="layer1"
     showgrid="false"
     inkscape:window-width="1920"
     inkscape:window-height="1018"
     inkscape:window-x="-8"
     inkscape:window-y="-8"
     inkscape:window-maximized="1" />
  <metadata
     id="metadata7299">
    <rdf:RDF>
      <cc:Work
         rdf:about="">
        <dc:format>image/svg+xml</dc:format>
        <dc:type
           rdf:resource="http://purl.org/dc/dcmitype/StillImage" />
        <dc:title></dc:title>
      </cc:Work>
    </rdf:RDF>
  </metadata>
  <g
     inkscape:label="Layer 1"
     inkscape:groupmode="layer"
     id="layer1"
     transform="translate(0,197.64569)">
    <path
       inkscape:connector-curvature="0"
       d="m 622.5391,69.310009 c -6.7035,1.6374 -23.2561,10.6738 -83.2519,43.771801 -45.4108,25.0469 -84.0941,46.3252 -85.9359,47.2718 -3.275,1.6374 -3.3518,3.9016 -3.3518,89.9921 l 0,88.2958 29.8818,0 c 16.425,0 29.831,0.3071 29.831,0.6909 0,1.4071 -92.2308,442.1778 -92.9464,444.2244 -0.5122,1.6374 4.9116,2.1491 23.2561,2.098 13.5854,0 24.7141,-0.6141 24.7141,-1.3049 0,-0.6907 2.3023,-11.6202 4.8607,-24.2844 l 4.8358,-23.036 74.859,-93.3921 74.8582,-93.3922 3.6337,3.7966 c 2.0462,2.1235 36.406,45.9184 76.4198,97.2913 l 72.8378,93.4408 4.2468,19.5871 c 2.3023,10.771 4.1959,19.9761 4.1959,20.4879 0,0.4349 10.72,0.8441 23.8959,0.8441 18.1392,0 23.8949,-0.5883 23.8949,-2.2001 0,-1.1514 -20.6975,-101.2235 -46.0256,-222.262 -25.3531,-121.0128 -46.0766,-220.5962 -46.0766,-221.3126 0,-0.7164 11.4616,-1.3049 25.5842,-1.3049 l 25.6341,0 -0.5103,-89.1453 c -0.2562,-70.2283 -1.0246,-89.0761 -2.6352,-88.7435 -1.2797,0.2558 -2.0472,-0.2559 -2.0472,-0.9465 0,-0.7677 -2.661,-2.3795 -5.9609,-3.5486 -3.301,-1.2025 -5.987,-2.9013 -5.987,-3.8479 0,-0.921 -0.7674,-1.228 -1.791,-0.6396 -1.0226,0.5886 -1.5348,0.3582 -1.5348,-0.5373 0,-0.8954 -1.791,-2.0979 -4.2477,-2.6966 -2.3014,-0.5883 -4.2977,-1.842 -4.2977,-2.85 0,-0.9722 -0.7674,-1.2536 -1.7909,-0.6907 -1.0236,0.5883 -1.5349,0.3838 -1.5349,-0.4094 0,-0.8187 -2.6611,-2.4561 -5.9361,-3.6483 -3.2999,-1.2025 -5.9859,-2.9013 -5.9859,-3.8478 0,-0.9211 -0.7674,-1.2281 -1.791,-0.6396 -1.0236,0.5884 -1.791,0.3581 -1.791,-0.5373 0,-0.8954 -2.0462,-2.0979 -4.2986,-2.6966 -2.3023,-0.5884 -4.2468,-1.842 -4.2468,-2.85 0,-0.9722 -0.7674,-1.2793 -1.791,-0.6908 -1.0226,0.5884 -1.79,0.3837 -1.79,-0.4094 0,-0.8187 -2.6352,-2.4816 -5.9619,-3.6483 -3.2482,-1.2024 -5.9352,-2.9012 -5.9352,-3.8478 0,-0.921 -0.7674,-1.2281 -1.791,-0.6396 -1.0235,0.5884 -1.7909,0.4093 -1.7909,-0.4094 0,-0.8187 -2.6611,-2.4816 -5.9352,-3.6482 -3.2999,-1.1769 -5.961,-2.9269 -5.961,-3.8479 0,-0.9211 -0.7674,-1.2025 -1.791,-0.6395 -1.0236,0.5883 -1.791,0.3581 -1.791,-0.5373 0,-0.8955 -1.791,-2.0979 -4.2468,-2.6967 -2.3023,-0.5883 -4.2985,-1.8675 -4.2985,-2.85 0,-0.9722 -0.7675,-1.2792 -1.791,-0.6909 -1.0226,0.5886 -1.791,0.3583 -1.791,-0.6139 0,-0.9466 -2.6601,-2.5584 -5.961,-3.6457 -3.2492,-1.1002 -5.9352,-2.778401 -5.9352,-3.699501 0,-0.8954 -0.7674,-1.1769 -1.791,-0.5884 -1.0235,0.5884 -1.7909,0.3583 -1.7909,-0.5629 0,-0.8699 -1.791,-2.0722 -4.2977,-2.6479 -2.3032,-0.5884 -4.2477,-1.8676 -4.2477,-2.8476 0,-0.9721 -0.7665,-1.3047 -1.7909,-0.7419 -1.0227,0.5885 -1.7911,0.3837 -1.7911,-0.4093 0,-0.8187 -2.6351,-2.4305 -5.9341,-3.5997 -3.3009,-1.2024 -5.9611,-2.9755 -5.9611,-3.8965 0,-0.921 -0.7683,-1.2024 -1.7909,-0.6396 -0.7684,0.5885 -1.791,0.3838 -1.791,-0.4093 0,-0.8187 -2.687,-2.405 -5.9611,-3.5997 -3.276,-1.1769 -5.936,-2.8987 -5.936,-3.8453 0,-0.921 -0.7675,-1.228 -1.7911,-0.6396 -1.0225,0.5883 -1.7909,0.3838 -1.7909,-0.4093 0,-0.7932 -2.3023,-2.3538 -5.3461,-3.4462 -1.2806,-0.4861 -2.5594,-0.7419 -4.7083,-0.2559 z m -112.8268,124.320901 112.6464,0 112.6215,0 0,40.075 0,40.0774 -112.6215,0 -112.6464,0 0,-40.0774 0,-40.075 z m 48.4307,144.962 67.4399,0.435 67.414,0.4605 4.0424,19.0883 4.0166,19.0396 -36.9431,46.2203 c -20.3389,25.3794 -37.6339,46.1973 -38.3765,46.1716 -2.046,0 -73.9889,-92.5479 -74.0906,-95.49 0,-1.4583 1.2788,-10.1288 3.1973,-19.2878 l 3.3,-16.64 z m -20.6467,100.2872 c 0.5122,-1.5607 54.7763,67.9104 55.4669,70.9549 0.2561,1.2538 -20.7235,28.6747 -46.6655,60.9619 -53.5216,66.7232 -48.5074,60.6036 -48.4815,58.8639 0,-1.2281 38.8627,-188.0688 39.6801,-190.7807 z m 176.557,1.7909 c 0,0.6652 9.5679,44.9665 20.7733,98.4374 11.2065,53.522 20.2123,97.4114 20.0329,97.5394 0,0.2558 -22.386,-28.0197 -49.4024,-62.6606 l -49.1223,-62.96 28.6291,-35.7767 c 15.7083,-19.6741 28.8841,-35.2446 29.0894,-34.5795 z"
       id="path7871-2"
       style="fill:#4c4c4c;fill-opacity:1" />
  </g>
</svg>
