<?xml version="1.0" encoding="UTF-8" standalone="no"?>
<!-- Created with Inkscape (http://www.inkscape.org/) -->

<svg
   xmlns:dc="http://purl.org/dc/elements/1.1/"
   xmlns:cc="http://creativecommons.org/ns#"
   xmlns:rdf="http://www.w3.org/1999/02/22-rdf-syntax-ns#"
   xmlns:svg="http://www.w3.org/2000/svg"
   xmlns="http://www.w3.org/2000/svg"
   xmlns:sodipodi="http://sodipodi.sourceforge.net/DTD/sodipodi-0.dtd"
   xmlns:inkscape="http://www.inkscape.org/namespaces/inkscape"
   width="352.78mm"
   height="352.78mm"
   viewBox="0 0 1250.0079 1250.0079"
   id="svg4081"
   version="1.1"
   inkscape:version="0.91 r13725"
   sodipodi:docname="misc_water_tower.svg">
  <defs
     id="defs4083" />
  <sodipodi:namedview
     id="base"
     pagecolor="#ffffff"
     bordercolor="#666666"
     borderopacity="1.0"
     inkscape:pageopacity="0.0"
     inkscape:pageshadow="2"
     inkscape:zoom="0.5"
     inkscape:cx="80"
     inkscape:cy="520"
     inkscape:document-units="px"
     inkscape:current-layer="layer1"
     showgrid="false"
     units="mm"
     inkscape:window-width="1920"
     inkscape:window-height="1018"
     inkscape:window-x="-8"
     inkscape:window-y="-8"
     inkscape:window-maximized="1" />
  <metadata
     id="metadata4086">
    <rdf:RDF>
      <cc:Work
         rdf:about="">
        <dc:format>image/svg+xml</dc:format>
        <dc:type
           rdf:resource="http://purl.org/dc/dcmitype/StillImage" />
        <dc:title></dc:title>
      </cc:Work>
    </rdf:RDF>
  </metadata>
  <g
     inkscape:label="Layer 1"
     inkscape:groupmode="layer"
     id="layer1"
     transform="translate(0,197.64569)">
    <path
       inkscape:connector-curvature="0"
       d="m 719.01111,85.944667 c -2.039,-0.423 -3.389,-0.249 -4.905,0.249 -3.257,0.87 -40.471,20.551003 -82.782,43.844003 l -76.911,42.339 -0.721,84.095 -0.721,84.095 27.482,0 c 25.283,0 27.53,0.447 27.53,5.292 0,4.5 -19.005,96.813 -74.094,360.026 -6.165,29.459 -11.875,55.8 -12.721,58.46 -1.392,4.499 0.423,4.872 21.218,4.077 l 22.675,-0.771 4.807,-22.48 4.855,-22.481 72.006,-89.922 72.006,-89.969 7.913,9.466 c 4.375,5.171 37.533,47.37 73.753,93.758 64.61,82.783 65.935,84.669 70.211,103.662 l 4.417,19.326 21.703,0 c 21.105,0 21.69,-0.249 20.297,-6.168 -3.905,-16.805 -86.523,-417.558 -86.523,-419.746 0,-1.392 11.231,-2.525 25.003,-2.525 l 25.007,0 -1.989,-83.123 c -1.069,-45.692 -2.511,-83.904 -3.058,-84.923 -1.019,-1.691 -12.27,-8.191 -49.087,-28.452 -7.607,-4.151 -27.386,-15.244 -43.992,-24.616 -44.615,-25.170003 -57.251,-32.178003 -63.362,-33.453003 z m -111.043,114.488003 108.47,0 108.469,0 0,39.815 0,39.863 -108.469,0 -108.47,0 0,-39.863 0,-39.815 z m -199.605,131.241 -9.225,22.968 c -5.071,12.653 -18.784,42.674 -30.443,66.663 -11.659,23.99 -20.556,45.304 -19.761,47.293 0.796,2.138 0.02,3.786 -1.74,3.786 -1.765,0 -2.436,1.193 -1.517,2.72 0.945,1.491 0.597,2.717 -0.72,2.717 -4.425,0 -12.53,31.437 -12.43,48.118 0,9.049 1.964,20.917 4.273,26.461 6.29,14.965 23.624,32.655 39.087,39.864 15.313,7.16 40.208,8.383 55.447,2.864 30.055,-11.087 49.02,-38.455 48.846,-70.549 0,-22.05 -5.036,-36.769 -29.473,-88.999 -10.566,-22.523 -24.417,-55.139 -30.781,-72.441 l -11.558,-31.465 z m 270.204,9.081 c 9.802,0 23.219,0.249 41.61,0.398 l 64.868,0.721 3.205,13.74 c 1.764,7.557 3.296,16.432 3.445,19.714 0.249,3.828 -12.668,21.965 -35.539,50.156 -19.664,24.288 -36.26,44.086 -36.757,44.086 -0.498,0 -16.569,-20.059 -35.736,-44.62 l -34.91,-44.621 1.516,-15.343 c 1.914,-20.099 -1.094,-23.92 28.308,-24.228 z m -43.651,98.223 c 2.834,-0.796 11.584,9.432 35.882,41.321 l 19.664,25.733 -7.527,9.953 c -4.102,5.445 -24.564,31.266 -45.446,57.294 -20.882,26.078 -38.51,47.363 -39.231,47.388 -0.721,0 -1.318,-1.02 -1.318,-2.288 0,-3.206 35.527,-174.009 37.093,-178.434 0.249,-0.522 0.473,-0.845 0.87,-0.969 z m 168.577,0.497 c 0.995,0 3.264,6.419 4.955,14.322 5.171,23.666 35.736,170.327 35.736,171.396 0,4.724 -10.146,-7.047 -48.653,-56.468 -24.412,-31.472 -44.804,-58.564 -45.252,-60.304 -0.82,-3.158 49.834,-68.797 53.214,-68.946 z"
       id="path50022"
       style="fill:#4c4c4c;fill-opacity:1" />
  </g>
</svg>
