<?xml version="1.0" encoding="UTF-8" standalone="no"?>
<!-- Created with Inkscape (http://www.inkscape.org/) -->

<svg
   xmlns:dc="http://purl.org/dc/elements/1.1/"
   xmlns:cc="http://creativecommons.org/ns#"
   xmlns:rdf="http://www.w3.org/1999/02/22-rdf-syntax-ns#"
   xmlns:svg="http://www.w3.org/2000/svg"
   xmlns="http://www.w3.org/2000/svg"
   xmlns:sodipodi="http://sodipodi.sourceforge.net/DTD/sodipodi-0.dtd"
   xmlns:inkscape="http://www.inkscape.org/namespaces/inkscape"
   width="352.78mm"
   height="352.78mm"
   viewBox="0 0 1250.0079 1250.0079"
   id="svg5467"
   version="1.1"
   inkscape:version="0.91 r13725"
   sodipodi:docname="misc_comm_tower.svg">
  <defs
     id="defs5469" />
  <sodipodi:namedview
     id="base"
     pagecolor="#ffffff"
     bordercolor="#666666"
     borderopacity="1.0"
     inkscape:pageopacity="0.0"
     inkscape:pageshadow="2"
     inkscape:zoom="0.5"
     inkscape:cx="128"
     inkscape:cy="520"
     inkscape:document-units="px"
     inkscape:current-layer="layer1"
     showgrid="false"
     inkscape:window-width="1920"
     inkscape:window-height="1018"
     inkscape:window-x="-8"
     inkscape:window-y="-8"
     inkscape:window-maximized="1" />
  <metadata
     id="metadata5472">
    <rdf:RDF>
      <cc:Work
         rdf:about="">
        <dc:format>image/svg+xml</dc:format>
        <dc:type
           rdf:resource="http://purl.org/dc/dcmitype/StillImage" />
        <dc:title></dc:title>
      </cc:Work>
    </rdf:RDF>
  </metadata>
  <g
     inkscape:label="Layer 1"
     inkscape:groupmode="layer"
     id="layer1"
     transform="translate(0,197.64569)">
    <path
       inkscape:connector-curvature="0"
       style="fill:#4c4c4c;fill-opacity:1"
       d="m 409.73718,45.008309 -16.36,19.296 c -30.2968,35.67 -55.3168,87.026001 -68.3219,140.128001 -8.575,35.049 -10.875,101.753 -4.77,140.127 9.342,58.726 31.2641,110.734 67.2679,159.485 l 13.533,18.327 10.537,-11.348 10.537,-11.288 -10.537,-13.715 c -90.5489,-117.638 -87.9709,-288.182 6.099,-402.961001 l 12.811,-15.657 -10.369,-11.167 -10.427,-11.227 z m 431.89904,0.964 -11.7552,12.683 -11.8118,12.684 12.3655,14.746 c 89.9238,107.757001 93.9018,277.711001 9.3161,392.707001 l -12.5331,17.053 10.5938,11.773 c 5.7924,6.432 11.2099,11.683 12.0334,11.652 0.795,0 6.9962,-7.52 13.7541,-16.748 35.1802,-48.037 56.68,-99.349 65.9933,-157.422 4.7417,-29.736 4.7673,-86.548 0,-116.035 -9.7676,-60.714 -37.6817,-123.482 -74.4236,-166.890001 l -13.5893,-16.203 z m -48.4686,53.039 -11.2583,12.320001 -11.2014,12.382 12.5871,17.111 c 20.5572,27.841 35.8786,64.086 41.9834,99.042 4.3443,25.044 3.1517,71.164 -2.4419,95.4 -6.5874,28.12 -20.7248,59.999 -36.7674,82.899 l -12.9222,18.451 10.5938,11.832 c 5.8208,6.494 11.3463,11.773 12.3117,11.773 3.4357,0 23.4223,-27.163 33.1614,-45.029 13.1464,-24.143 24.0554,-53.702 29.3935,-79.926 6.3886,-31.01 5.7923,-81.126 -1.1642,-112.695 -8.9725,-40.517 -34.5612,-92.802 -56.5665,-115.609 l -7.709,-7.951001 z m -333.13044,0.839 -8.651,10.437001 c -22.091,26.753 -41.467,65.854 -51.632,104.321 -4.884,18.363 -5.599,27.321 -5.599,66.937 0,39.617 0.71,48.485 5.599,66.879 9.938,37.473 28.723,75.868 50.189,102.621 l 7.599,9.53 10.426,-11.229 10.426,-11.167 -12.201,-16.506 c -15.588,-21.098 -32.656,-58.921 -38.988,-86.42 -5.565,-24.236 -6.729,-70.48 -2.385,-95.4 6.19,-35.515 21.858,-72.139 42.87,-100.01 l 13.2539,-17.54 -10.4799,-11.227 -10.427,-11.226001 z m 52.907,58.017001 -9.4836,12.075 c -49.2064,62.672 -52.1884,154.374 -7.1553,219.687 5.3665,7.768 10.5711,14.203 11.4797,14.203 0.9086,0 6.3546,-5.074 12.0902,-11.227 l 10.4262,-11.167 -6.8769,-9.651 c -19.592,-27.467 -27.9,-53.956 -27.7297,-88.601 0,-36.074 11.7693,-69.262 32.5538,-93.156 l 7.1552,-8.194 -11.2042,-12.015 -11.2554,-11.954 z m 223.54614,3.396 -11.9227,12.867 -11.9794,12.867 7.5983,9.406 c 11.1304,13.92 23.3512,43.755 26.7301,65.723 5.2528,34.116 -3.677,74.563 -23.0701,104.019 l -6.2666,9.405 11.369,12.805 c 6.275,7.022 12.0929,12.777 13.0868,12.745 2.9245,0 22.0706,-31.876 28.0618,-46.728 24.1065,-59.565 13.0868,-137.642 -25.955,-184.064 l -7.6522,-9.045 z m -106.64234,47.034 c -22.7436,-1.616 -38.5704,5.478 -53.96,24.214 -24.1065,29.332 -24.1065,68.861 0,98.193 6.0196,7.333 14.322,14.825 18.4108,16.689 l 7.4307,3.396 0,68.215 0,68.15 -8.5949,0 -8.5977,0 0,161.24702 0,161.307 41.8727,0 41.7022,0 0,-161.307 0,-161.18502 -9.8158,0 -9.8726,0 0,-67.121 0,-67.119 7.3228,-4.129 c 12.5502,-7.115 24.6319,-20.479 31.3328,-34.71 13.26,-28.182 6.6414,-66.174 -15.2504,-87.147 -13.6575,-13.082 -23.2689,-17.357 -41.9806,-18.693 z"
       id="path19915" />
  </g>
</svg>
