<?xml version="1.0" encoding="UTF-8" standalone="no"?>
<!-- Created with Inkscape (http://www.inkscape.org/) -->

<svg
   xmlns:dc="http://purl.org/dc/elements/1.1/"
   xmlns:cc="http://creativecommons.org/ns#"
   xmlns:rdf="http://www.w3.org/1999/02/22-rdf-syntax-ns#"
   xmlns:svg="http://www.w3.org/2000/svg"
   xmlns="http://www.w3.org/2000/svg"
   xmlns:sodipodi="http://sodipodi.sourceforge.net/DTD/sodipodi-0.dtd"
   xmlns:inkscape="http://www.inkscape.org/namespaces/inkscape"
   width="352.78mm"
   height="352.78mm"
   viewBox="0 0 1250.0079 1250.0079"
   id="svg13257"
   version="1.1"
   inkscape:version="0.91 r13725"
   sodipodi:docname="public_prison.svg">
  <defs
     id="defs13259" />
  <sodipodi:namedview
     id="base"
     pagecolor="#ffffff"
     bordercolor="#666666"
     borderopacity="1.0"
     inkscape:pageopacity="0.0"
     inkscape:pageshadow="2"
     inkscape:zoom="0.5"
     inkscape:cx="80"
     inkscape:cy="520"
     inkscape:document-units="px"
     inkscape:current-layer="layer1"
     showgrid="false"
     inkscape:window-width="1920"
     inkscape:window-height="1018"
     inkscape:window-x="-8"
     inkscape:window-y="-8"
     inkscape:window-maximized="1" />
  <metadata
     id="metadata13262">
    <rdf:RDF>
      <cc:Work
         rdf:about="">
        <dc:format>image/svg+xml</dc:format>
        <dc:type
           rdf:resource="http://purl.org/dc/dcmitype/StillImage" />
        <dc:title></dc:title>
      </cc:Work>
    </rdf:RDF>
  </metadata>
  <g
     inkscape:label="Layer 1"
     inkscape:groupmode="layer"
     id="layer1"
     transform="translate(0,197.64569)">
    <path
       d="m 299.17975,72.491119 0,708.003901 84.8301,0 0,-708.003901 -84.8301,0 z m 378.4043,0.1015 c -0.2413,1.3213 -0.5295,2.2288 -0.5371,3.1211 -0.038,39.101901 -0.1011,78.206801 0.1406,117.308601 0,2.0451 2.2441,4.8082 4.1973,5.9609 8.2953,4.8906 17.2043,8.7911 25.2812,13.9805 23.8518,15.319 42.1792,35.8274 55.9356,62.9727 l 0,-203.343801 -85.0176,0 z m 188.4961,0 0,708.043001 84.748,0 0,-708.043001 -84.748,0 z m -376.8711,0.09 0,201.816401 c 0.8693,-0.9153 1.2695,-1.1833 1.4648,-1.5625 17.7701,-34.1308 44.7509,-58.3515 79.8047,-73.7013 3.9408,-1.7233 4.2713,-4.1364 4.2637,-7.6445 -0.065,-33.6789 -0.038,-67.3602 0,-101.039101 l 0,-17.8691 -85.5195,0 -0.014,0 z m 135.2656,164.101501 -0.014,0.016 c -1.6449,0 -3.2941,0.051 -4.9512,0.1346 -50.6026,2.5468 -94.0714,45.1154 -98.2343,97.1426 -1.4055,17.5672 -0.7029,35.3038 -1.1817,52.9513 -0.057,2.2442 -0.9842,6.0732 -2.2519,6.4179 -11.1331,3.0102 -12.5817,11.2587 -12.5664,20.8828 0.084,60.3072 0.037,120.6224 0.072,180.9258 0,13.9633 5.7642,19.6881 19.7773,19.711 33.4491,0.054 66.8987,0 100.3516,0 l 100.3593,0 c 14.8709,0 20.5335,-5.6191 20.5411,-20.3828 0,-36.0418 0.037,-72.0929 0.037,-108.1309 0,-24.9776 -0.077,-49.946 0,-74.9199 0.038,-7.3991 -1.8159,-14.3331 -9.2227,-16.6348 -5.6757,-1.7655 -5.5653,-4.8251 -5.707,-9.2676 -0.6511,-20.6845 0.5687,-41.7167 -2.836,-61.957 -8.6035,-51.1916 -53.1864,-87.12 -104.1738,-86.8887 z m 2.627,45.2246 c 0.9264,0.017 1.8569,0.052 2.791,0.096 28.1105,1.6507 53.5111,25.0966 56.6094,54.088 1.7732,16.5522 0.9574,33.3883 1.2714,50.0937 0.038,2.0719 -0.1801,4.1484 -0.2988,6.6875 l -122.0371,0 c 0,-13.7182 -0.1216,-26.8662 0.047,-40.0176 0.1034,-8.0999 -0.6577,-16.5039 1.2266,-24.2285 6.7641,-27.714 30.1032,-45.9829 57.6269,-46.7129 l 0,0 c 0.9174,-0.025 1.8392,-0.025 2.7656,-0.01 z m 0.053,144.6485 c 13.57,0.3178 25.6554,8.8386 31.4609,21.789 6.3344,14.1585 3.7163,31.3211 -7.0683,41.9179 -3.4161,3.3664 -4.4118,6.1911 -3.6114,10.9668 4.1438,24.5947 7.8159,49.2683 11.6074,73.9238 0.2834,1.8459 0.2833,3.7336 0.4786,6.4336 -22.9824,0 -45.2778,4e-4 -68.6661,0 1.8766,-12.439 3.6445,-24.4266 5.4981,-36.3984 2.4089,-15.5793 5.0682,-31.1324 7.1133,-46.7578 0.3026,-2.317 -1.6998,-5.4618 -3.4844,-7.4571 -10.9225,-12.2514 -13.9055,-26.169 -7.9004,-41.2812 5.5953,-14.0743 16.475,-22.2031 31.8438,-23.084 0.9165,-0.054 1.8239,-0.066 2.7285,-0.047 l 0,-0.01 z m 135.5547,228.1913 0,0 c -14.0781,10.3366 -29.5782,10.2506 -45.127,10.0744 -11.0642,-0.1187 -22.1387,0.2609 -33.1875,-0.172 -5.8557,-0.2335 -7.5791,1.5772 -7.5332,7.4941 0.2758,33.6597 0.1414,67.3209 0.1797,100.9805 0,2.4702 0.227,4.9368 0.3457,7.3457 l 85.3242,0 0,-125.7246 z m -273.418,1.9005 0,125.4765 84.959,0 0,-115.4903 c -28.773,-1.4438 -57.8903,3.5979 -84.959,-9.9862 z"
       id="path3-5"
       inkscape:connector-curvature="0"
       style="fill:#c84614;fill-opacity:1" />
  </g>
</svg>
