<?xml version="1.0" encoding="UTF-8" standalone="no"?>
<!-- Created with Inkscape (http://www.inkscape.org/) -->

<svg
   xmlns:dc="http://purl.org/dc/elements/1.1/"
   xmlns:cc="http://creativecommons.org/ns#"
   xmlns:rdf="http://www.w3.org/1999/02/22-rdf-syntax-ns#"
   xmlns:svg="http://www.w3.org/2000/svg"
   xmlns="http://www.w3.org/2000/svg"
   xmlns:sodipodi="http://sodipodi.sourceforge.net/DTD/sodipodi-0.dtd"
   xmlns:inkscape="http://www.inkscape.org/namespaces/inkscape"
   width="352.78mm"
   height="352.78mm"
   viewBox="0 0 1250.0079 1250.0079"
   id="svg34125"
   version="1.1"
   inkscape:version="0.48.4 r9939"
   sodipodi:docname="public_post_office.svg">
  <defs
     id="defs34127" />
  <sodipodi:namedview
     id="base"
     pagecolor="#ffffff"
     bordercolor="#666666"
     borderopacity="1.0"
     inkscape:pageopacity="0.0"
     inkscape:pageshadow="2"
     inkscape:zoom="1"
     inkscape:cx="872.80984"
     inkscape:cy="641.88903"
     inkscape:document-units="px"
     inkscape:current-layer="layer1"
     showgrid="false"
     inkscape:window-width="1920"
     inkscape:window-height="1134"
     inkscape:window-x="0"
     inkscape:window-y="27"
     inkscape:window-maximized="1" />
  <metadata
     id="metadata34130">
    <rdf:RDF>
      <cc:Work
         rdf:about="">
        <dc:format>image/svg+xml</dc:format>
        <dc:type
           rdf:resource="http://purl.org/dc/dcmitype/StillImage" />
        <dc:title />
      </cc:Work>
    </rdf:RDF>
  </metadata>
  <g
     inkscape:label="Layer 1"
     inkscape:groupmode="layer"
     id="layer1"
     transform="translate(0,197.64569)">
    <path
       style="fill:#ffffff;fill-opacity:1;stroke:none;stroke-opacity:1"
       d="m 269.15145,183.14477 0,488.4271 711.705,0 0,-488.4271 -711.705,0 z"
       id="rect5468"
       inkscape:connector-curvature="0" />
    <path
       style="fill:#c84614;fill-opacity:1"
       d="m 266.78125,169.03125 -0.59375,0.0937 -0.0937,0.0312 -0.0937,0 0.0312,0.46875 -0.25,0 -0.9375,253.78125 c -0.1587,69.81265 -0.18124,133.75708 -0.0625,180.53125 0.0594,23.38709 0.16749,42.47803 0.28125,55.875 0.0569,6.69848 0.11885,11.98225 0.1875,15.65625 0.0343,1.837 0.0566,3.26318 0.0937,4.28125 0.0186,0.50904 0.0428,0.91803 0.0625,1.21875 0.0197,0.30072 0.009,0.42685 0.0625,0.625 l 0.0312,0.0312 0,0.0312 c 0.10868,0.29157 0.3242,0.4328 0.5625,0.5625 0.2383,0.1297 0.51354,0.24189 0.875,0.34375 0.72292,0.20373 1.73317,0.38961 3.09375,0.5625 2.72115,0.34579 6.8442,0.64072 12.625,0.90625 11.56161,0.53106 29.81136,0.90501 56.9375,1.15625 54.25228,0.50247 143.98682,0.5029 286.59375,0.125 l 358.625,-0.78125 0.5,0 0,-0.5 0,-257.21875 0,-257.15625 0,-0.5 -0.5,0 -359.375,0 -358.65625,0 0,-0.125 z m 65.46875,33.625 294.53125,0 294.625,0 L 830.375,301 c -93.90659,101.45932 -131.83325,139.35352 -159.90625,159.71875 -13.45486,9.73592 -19.08822,11.70029 -36.78125,12.53125 -18.42335,0.99735 -22.89095,-0.26786 -38.03125,-9.09375 -28.8254,-16.97261 -55.96612,-42.89022 -162.25,-154.90625 z m -34.78125,12.4375 99.625,104.71875 c 27.58364,29.03624 52.65723,55.64677 70.84375,75.09375 9.09326,9.72349 16.46835,17.65235 21.5625,23.21875 2.54708,2.7832 4.50511,4.97887 5.84375,6.5 0.66932,0.76057 1.19422,1.33807 1.53125,1.75 0.14385,0.17582 0.2354,0.30228 0.3125,0.40625 -0.0737,0.0993 -0.17317,0.23853 -0.3125,0.40625 -0.32642,0.39294 -0.81815,0.93647 -1.46875,1.65625 -1.3012,1.43956 -3.21015,3.50673 -5.6875,6.125 -4.95469,5.23654 -12.12296,12.69767 -20.96875,21.8125 -17.69158,18.22966 -42.09775,43.12651 -68.9375,70.28125 -26.83971,27.15475 -51.56365,51.97335 -69.75,70.0625 -9.09318,9.04457 -16.53269,16.40016 -21.8125,21.53125 -2.63991,2.56555 -4.74118,4.5587 -6.21875,5.9375 -0.73879,0.6894 -1.33253,1.23088 -1.75,1.59375 -0.0869,0.0756 -0.14672,0.0957 -0.21875,0.15625 -0.0146,-0.084 -0.0166,-0.11616 -0.0312,-0.21875 -0.0927,-0.64929 -0.18863,-1.65616 -0.28125,-3 -0.18523,-2.68769 -0.36074,-6.68517 -0.53125,-11.875 -0.34101,-10.37967 -0.64912,-25.48752 -0.90625,-44.15625 C 297.7983,529.75628 297.4688,478.0983 297.4688,421.125 l 0,-206.03125 z m 655.3125,6 c 0.0101,0.15234 0.0214,0.25639 0.0312,0.46875 0.0343,0.73538 0.0954,1.83775 0.125,3.25 0.0593,2.8245 0.0854,6.95149 0.125,12.25 0.0792,10.59702 0.125,25.8424 0.125,44.625 0,37.5652 -0.152,89.22951 -0.46875,145.9375 l -0.625,205 -94.75,-102.4375 c -26.26877,-28.40248 -50.14264,-54.61663 -67.4375,-73.96875 -8.64743,-9.67606 -15.65961,-17.62229 -20.5,-23.28125 -2.42019,-2.82948 -4.29356,-5.08699 -5.5625,-6.6875 -0.63447,-0.80026 -1.12144,-1.4504 -1.4375,-1.90625 -0.15803,-0.22792 -0.27464,-0.40666 -0.34375,-0.53125 C 761.99339,423.68791 762,423.57887 762,423.75 c 0,0.20685 -0.0147,0.0673 0.0625,-0.0625 0.0772,-0.12976 0.20078,-0.32459 0.375,-0.5625 0.34844,-0.47582 0.90171,-1.16397 1.59375,-2 1.38408,-1.67206 3.40469,-4.00807 6,-6.9375 5.19062,-5.85885 12.61972,-14.02666 21.53125,-23.71875 17.82306,-19.38418 41.5989,-44.88365 65.4375,-70.1875 23.8386,-25.30385 47.74061,-50.40886 65.78125,-69.09375 9.02032,-9.34245 16.58416,-17.0719 21.9375,-22.40625 2.67667,-2.66718 4.80419,-4.75904 6.28125,-6.125 0.73853,-0.68298 1.29639,-1.18857 1.6875,-1.5 0.041,-0.0326 0.0569,-0.0343 0.0937,-0.0625 z M 736.2188,448.5625 l 48,51.28125 c 26.52446,28.47161 69.36094,74.30161 95.125,101.90625 l 46.125,49.3125 -301.46875,0 -301.40625,0 L 333,640.46875 C 401.08247,571.58943 448.02178,524.25109 478.125,494.125 c 15.05161,-15.06304 25.89216,-25.82278 33.0625,-32.8125 3.58517,-3.49486 6.24988,-6.04385 8.0625,-7.71875 0.90631,-0.83745 1.613,-1.47331 2.09375,-1.875 0.24037,-0.20084 0.43781,-0.35012 0.5625,-0.4375 0.0312,-0.0218 0.0406,-0.0174 0.0625,-0.0312 0.0323,0.009 -0.0182,0.007 0.0312,0.0312 0.12864,0.0629 0.30056,0.17288 0.53125,0.3125 0.46138,0.27925 1.11653,0.70594 1.90625,1.25 1.57943,1.08813 3.75878,2.67545 6.375,4.625 5.23244,3.89909 12.19029,9.27971 19.625,15.1875 30.71556,24.59432 56.7055,36.65075 82.46875,35.96875 25.76325,-0.682 51.20672,-14.10347 80.84375,-40.28125 L 736.2187,448.5625 z"
       id="path5458"
       inkscape:connector-curvature="0"
       sodipodi:nodetypes="cccccccssccscccscssscccccccccccccccccccccccsssscsssssssscccsssscccccsscccsssscscssssssssccccccccccssssccccsscsccc" />
  </g>
</svg>
