<?xml version="1.0" encoding="UTF-8" standalone="no"?>
<!-- Created with Inkscape (http://www.inkscape.org/) -->

<svg
   xmlns:dc="http://purl.org/dc/elements/1.1/"
   xmlns:cc="http://creativecommons.org/ns#"
   xmlns:rdf="http://www.w3.org/1999/02/22-rdf-syntax-ns#"
   xmlns:svg="http://www.w3.org/2000/svg"
   xmlns="http://www.w3.org/2000/svg"
   xmlns:sodipodi="http://sodipodi.sourceforge.net/DTD/sodipodi-0.dtd"
   xmlns:inkscape="http://www.inkscape.org/namespaces/inkscape"
   width="352.78mm"
   height="352.78mm"
   viewBox="0 0 1250.0079 1250.0079"
   id="svg7266"
   version="1.1"
   inkscape:version="0.91 r13725"
   sodipodi:docname="public_market_stand.svg">
  <defs
     id="defs7268" />
  <sodipodi:namedview
     id="base"
     pagecolor="#ffffff"
     bordercolor="#666666"
     borderopacity="1.0"
     inkscape:pageopacity="0.0"
     inkscape:pageshadow="2"
     inkscape:zoom="0.5"
     inkscape:cx="80"
     inkscape:cy="520"
     inkscape:document-units="px"
     inkscape:current-layer="layer1"
     showgrid="false"
     inkscape:window-width="1920"
     inkscape:window-height="1018"
     inkscape:window-x="-8"
     inkscape:window-y="-8"
     inkscape:window-maximized="1" />
  <metadata
     id="metadata7271">
    <rdf:RDF>
      <cc:Work
         rdf:about="">
        <dc:format>image/svg+xml</dc:format>
        <dc:type
           rdf:resource="http://purl.org/dc/dcmitype/StillImage" />
        <dc:title></dc:title>
      </cc:Work>
    </rdf:RDF>
  </metadata>
  <g
     inkscape:label="Layer 1"
     inkscape:groupmode="layer"
     id="layer1"
     transform="translate(0,197.64569)">
    <path
       d="m 615.01595,75.111819 -0.01,0.01 0.01,0 0,-0.01 z m 0,0.01 -0.355,6.098 -0.353,6.168 -169.264,99.415001 c -93.097,54.677 -171.063,100.258 -173.188,101.202 l -3.859,1.681 0,22.013 0,22.075 67.372,0 67.371,0 0,-8.932 c 0,-8.764 0,-8.99 2.995,-8.99 2.922,0 2.951,0.294 2.951,8.99 l 0,8.932 103.107,0 103.103,0 0,112.614 0,112.612 7.146,0 7.146,0 0,-112.612 0,-112.614 107.887,0 107.774,0 0,-8.355 c 0,-8.115 0.295,-8.358 3.054,-8.358 2.921,0 3.053,0.296 3.053,8.358 l 0,8.355 65.529,0 65.526,0 0,-21.956 0,-21.901 -173.126,-99.878 c -95.25,-54.914 -174.612,-100.884001 -176.412,-102.124001 -2.744,-1.888 -3.285,-3.123 -3.285,-7.549 l 0,-5.244 -7.088,0 -7.084,0 z m -112.15,297.372001 c -8.114,0 -11.194,0.56 -15.562,2.714 -8.822,4.367 -14.913,10.462 -19.192,19.078 -3.364,6.875 -3.889,9.152 -3.859,16.942 0,7.141 0.62,10.364 3.11,15.735 5.134,11.095 15.171,19.468 26.857,22.418 16.819,4.22 36.372,-5.625 44.722,-22.533 3.748,-7.613 3.748,-23.241 0,-31.296 -3.629,-7.908 -11.399,-15.843 -19.248,-19.709 -5.754,-2.833 -8.24,-3.343 -16.886,-3.343 l 0.06,-0.01 z m -38.557,87.6 c -5.872,0 -20.201,8.556 -28.817,17.231 -19.239,19.299 -26.551,44.682 -33.426,115.383 l -0.799,8.182 15.62,0 15.675,0 0,-5.07 c 0,-7.495 3.307,-35.339 6.051,-51.007 3.63,-20.715 11.319,-41.505 16.542,-44.721 0.856,-0.532 1.21,8.742 1.21,29.102 l 0,29.856 5.418,0 5.358,0 0,-49.448 0,-49.508 -2.832,0 z m 9.971,0 0,20.864 0,20.863 28.586,0 28.585,0 0,-20.863 0,-20.864 -28.585,0 -28.586,0 z m 67.142,0 c -1.299,0 -1.623,8.876 -1.623,49.508 l 0,49.448 5.358,0 5.416,0 0,-29.277 c 0,-18.974 0.384,-29.059 1.152,-28.528 3.334,2.006 9.537,36.149 9.567,52.733 l 0,5.072 15.503,0 15.504,0 -0.68,-8.07 c -1.623,-17.586 -4.314,-38.216 -5.937,-45.297 -3.334,-14.312 -13.386,-30.093 -23.802,-37.233 -5.105,-3.512 -16.947,-8.356 -20.458,-8.356 z m -49.479,107.545 c -19.076,0.04 -32.763,0.214 -36.451,0.524 l -13.371,0.796 0,19.538 0,19.536 -71.579,0 -71.523,0 0,85.817 0,85.755 221.191,0 402.876,0 -1.714,-92.672 0,-77.242 -204.173,-2.009 -24.09,-0.295 -0.355,-19.365 -0.353,-19.363 -19.942,0 c -10.947,0 -61.262,-0.295 -111.75,-0.62 l 0.02,-0.171 c -25.243,-0.192 -49.708,-0.273 -68.784,-0.229 z"
       id="path8207"
       inkscape:connector-curvature="0"
       style="fill:#c84614;fill-opacity:1" />
  </g>
</svg>
