<?xml version="1.0" encoding="UTF-8" standalone="no"?>
<!-- Created with Inkscape (http://www.inkscape.org/) -->

<svg
   xmlns:dc="http://purl.org/dc/elements/1.1/"
   xmlns:cc="http://creativecommons.org/ns#"
   xmlns:rdf="http://www.w3.org/1999/02/22-rdf-syntax-ns#"
   xmlns:svg="http://www.w3.org/2000/svg"
   xmlns="http://www.w3.org/2000/svg"
   xmlns:sodipodi="http://sodipodi.sourceforge.net/DTD/sodipodi-0.dtd"
   xmlns:inkscape="http://www.inkscape.org/namespaces/inkscape"
   width="352.78mm"
   height="352.78mm"
   viewBox="0 0 1250.0079 1250.0079"
   id="svg16552"
   version="1.1"
   inkscape:version="0.91 r13725"
   sodipodi:docname="special_rider.svg">
  <defs
     id="defs16554" />
  <sodipodi:namedview
     id="base"
     pagecolor="#ffffff"
     bordercolor="#666666"
     borderopacity="1.0"
     inkscape:pageopacity="0.0"
     inkscape:pageshadow="2"
     inkscape:zoom="0.5"
     inkscape:cx="80"
     inkscape:cy="520"
     inkscape:document-units="px"
     inkscape:current-layer="layer1"
     showgrid="false"
     inkscape:window-width="1920"
     inkscape:window-height="1018"
     inkscape:window-x="-8"
     inkscape:window-y="-8"
     inkscape:window-maximized="1" />
  <metadata
     id="metadata16557">
    <rdf:RDF>
      <cc:Work
         rdf:about="">
        <dc:format>image/svg+xml</dc:format>
        <dc:type
           rdf:resource="http://purl.org/dc/dcmitype/StillImage" />
        <dc:title></dc:title>
      </cc:Work>
    </rdf:RDF>
  </metadata>
  <g
     inkscape:label="Layer 1"
     inkscape:groupmode="layer"
     id="layer1"
     transform="translate(0,197.64569)">
    <path
       inkscape:connector-curvature="0"
       d="m 552.33444,66.15397 c -25.1877,-0.295 -46.21681,22.1938 -46.65921,49.77021 -0.2946,27.4879 20.23221,50.4575 45.56771,50.6934 26.0135,0.2949 46.09801,-21.2854 46.30471,-49.4812 0,-4.7189 -0.5902,-9.26091 -1.7697,-13.53751 l 17.6666,0 -29.67071,-23.2143 c -8.0813,-8.7006 -19.0818,-14.1126 -31.4983,-14.2306 z m 301.57085,65.95921 c -4.1585,4.1881 -7.0786,6.9575 -9.792,9.9659 -56.3324,63.88281 -112.6359,127.82471 -169.0273,191.64862 -3.3625,3.7457 -7.4321,9.1548 -11.3549,9.3318 -21.7662,0.8848 -43.59134,0.4129 -65.71114,0.4129 l 0,-43.1461 c 18.7282,4.6601 36.0404,9.3554 53.44134,13.3075 16.4872,3.7162 27.7542,-2.9788 30.8212,-17.1652 2.9491,-13.8324 -5.1022,-25.40861 -21.176,-30.12761 -21.08814,-6.1641 -42.26504,-12.0658 -64.41374,-18.3774 0,-7.6093 0.2946,-14.502 0,-21.2559 -1.47511,-26.3672 -20.97021,-46.02171 -45.39091,-46.13961 -24.4796,-0.295 -44.47621,19.19431 -45.80341,45.62051 -0.8848,19.0823 -0.2946,38.3209 -0.2946,57.43271 0,19.4951 0,38.9372 0,59.9661 l -16.0747,0 c -40.76,0 -81.54911,-0.2949 -122.30912,0 -45.5967,0.4424 -73.321,31.46361 -73.4978,81.39611 0,25.98381 0,51.98231 0,77.99561 l 0,37.84601 48.2222,0 c 0,-33.20961 1.7697,-65.24251 -0.5902,-96.94811 -1.7697,-26.04271 11.7385,-42.30841 25.0109,-64.51701 0.2946,8.7006 0.8848,13.3429 0.8848,17.9733 0,35.8052 -0.2956,71.68411 0,107.54811 0,13.8914 -2.6545,25.59441 -9.792,37.03801 -6.2238,9.8802 -14.6586,21.0612 -14.9242,31.8558 -1.4741,60.37321 -1.1795,120.79351 -0.2947,181.16672 0.2947,23.8308 18.7582,38.06431 38.69581,32.37211 13.9206,-3.9817 22.0608,-17.96451 22.1197,-39.22931 0,-41.2319 2.3599,-82.70851 -0.5902,-123.67501 -2.3589,-33.18021 14.1573,-54.54531 30.85021,-78.16961 0,12.9772 0,26.0487 0,39.1143 0,5.2793 0,11.0069 2.0652,15.7259 21.206,55.59531 42.6176,111.08722 64.2071,166.53502 4.5419,11.59091 12.77101,18.86411 24.50951,20.16171 23.5948,2.625 39.7864,-20.46551 30.8502,-45.62351 -13.2725,-37.4862 -25.3645,-75.79231 -42.7365,-110.88961 -16.07371,-32.41331 -14.06831,-58.85131 6.0461,-86.69311 5.0433,-7.0489 9.1728,-10.2284 17.2242,-10.1399 43.4145,0.3835 86.79911,0.295 130.24355,0.295 3.9228,0 7.9036,0.3539 13.5961,0.6783 l 0,17.9144 c 0,62.85061 0,125.71891 0,188.59902 0,6.3116 0,12.753 0.8848,19.0646 2.0643,16.2214 13.7738,27.15471 28.5203,27.47901 19.2594,0.5015 31.0568,-13.84411 31.1158,-38.82521 0,-65.29851 0,-130.64431 0,-195.97242 0,-6.695 0.5901,-14.0034 3.0379,-19.8727 20.6747,-47.33701 41.9985,-94.22882 62.733,-141.47732 2.9781,-6.8425 6.3705,-8.851 13.3304,-8.4086 11.0603,0.7079 22.5921,1.1207 33.239,-1.5631 31.5292,-7.9633 50.5521,-31.30451 60.6976,-64.63211 3.5693,0.354 6.5483,0.7964 9.5564,0.9733 21.9429,1.3862 39.1671,-18.0677 33.5925,-41.1316 -2.3589,-10.11631 -10.7947,-20.26801 -18.846,-26.72701 -23.447,-18.8168 -47.632,-36.7755 -72.583,-52.9379 -13.538,-8.7006 -17.7255,-18.19751 -13.7448,-34.38941 2.3599,-9.3199 2.0653,-19.4509 3.038,-31.3958 z m -1.475,172.46612 c 14.0095,2.448 27.9301,5.6008 42.9132,8.6977 -10.9126,39.1083 -41.7627,59.59741 -76.7424,50.86741 8.7594,-19.05281 17.1063,-37.73111 26.1024,-56.16451 0.8848,-2.094 5.308,-3.843 7.7268,-3.4006 z"
       id="path3-23"
       style="fill:#732800;fill-opacity:1" />
  </g>
</svg>
