<?xml version="1.0" encoding="UTF-8" standalone="no"?>
<!-- Created with Inkscape (http://www.inkscape.org/) -->

<svg
   xmlns:dc="http://purl.org/dc/elements/1.1/"
   xmlns:cc="http://creativecommons.org/ns#"
   xmlns:rdf="http://www.w3.org/1999/02/22-rdf-syntax-ns#"
   xmlns:svg="http://www.w3.org/2000/svg"
   xmlns="http://www.w3.org/2000/svg"
   xmlns:sodipodi="http://sodipodi.sourceforge.net/DTD/sodipodi-0.dtd"
   xmlns:inkscape="http://www.inkscape.org/namespaces/inkscape"
   width="352.78mm"
   height="352.78mm"
   viewBox="0 0 1250.0079 1250.0079"
   id="svg21182"
   version="1.1"
   inkscape:version="0.91 r13725"
   sodipodi:docname="transport_taxi_stand.svg">
  <defs
     id="defs21184" />
  <sodipodi:namedview
     id="base"
     pagecolor="#ffffff"
     bordercolor="#666666"
     borderopacity="1.0"
     inkscape:pageopacity="0.0"
     inkscape:pageshadow="2"
     inkscape:zoom="0.5"
     inkscape:cx="80"
     inkscape:cy="520"
     inkscape:document-units="px"
     inkscape:current-layer="layer1"
     showgrid="false"
     inkscape:window-width="1920"
     inkscape:window-height="1018"
     inkscape:window-x="-8"
     inkscape:window-y="-8"
     inkscape:window-maximized="1" />
  <metadata
     id="metadata21187">
    <rdf:RDF>
      <cc:Work
         rdf:about="">
        <dc:format>image/svg+xml</dc:format>
        <dc:type
           rdf:resource="http://purl.org/dc/dcmitype/StillImage" />
        <dc:title></dc:title>
      </cc:Work>
    </rdf:RDF>
  </metadata>
  <g
     inkscape:label="Layer 1"
     inkscape:groupmode="layer"
     id="layer1"
     transform="translate(0,197.64569)">
    <path
       inkscape:connector-curvature="0"
       d="m 576.15718,84.134895 c -22.1217,0.2618 -37.4371,11.3149 -45.1603,31.447305 -3.3247,8.6917 -3.7961,18.6977 -4.3459,28.1748 -0.7852,12.4355 0,24.9783 0,38.04216 -30.2377,0 -57.7268,0.3927 -85.1895,-0.2619 -9.4773,-0.2618 -13.509,2.7777 -16.3101,11.9669 -17.4095,57.177 -35.6308,114.0399 -53.0667,171.19073 -2.8798,9.45099 -6.5191,14.26808 -17.2788,15.28912 -20.23709,1.88496 -37.09689,11.57678 -50.57989,27.10148 -17.7237,20.36801 -22.279,44.74677 -22.279,70.66493 0,60.60659 0,121.24725 0,181.88004 0,4.13641 0.5236,8.33044 0.7853,13.85444 l 96.89209,0 c 0,10.07926 -0.2617,18.71866 0,27.35802 0.262,10.8909 0,21.97024 2.0945,32.52077 4.8695,24.583 22.3315,37.63631 47.8045,37.4269 24.6354,-0.26181 42.2284,-13.41725 46.3909,-37.52898 2.356,-14.05862 1.5709,-28.65659 2.0945,-43.00323 0,-5.4716 0,-10.94062 0,-17.64266 l 294.0533,0 c 0,16.28393 -0.262,31.92646 0,47.50354 1.0472,31.07562 19.7656,50.35715 48.3281,50.67133 30.2116,0.26177 49.1659,-19.00142 50.1084,-51.43838 0.5237,-15.0797 0,-30.21696 0,-46.63176 l 96.4733,0 c 0.5236,-2.59184 1.0472,-3.85896 1.0472,-5.11557 0,-68.0941 0.2616,-136.07818 -0.5236,-204.11992 0,-22.25294 -8.2993,-42.56859 -24.7141,-58.90488 -16.3102,-16.25776 -36.4161,-23.5646 -58.7476,-25.0045 -10.2104,-0.65451 -15.2368,-3.7123 -17.4361,-14.41991 -4.7647,-23.06453 -11.0739,-45.76517 -16.8073,-68.62021 -9.5294,-38.0134 -19.0855,-76.011 -28.9027,-115.2024 l -98.0702,0 c 0,-17.04306 0.5236,-32.71706 0,-48.32026 -1.5709,-30.3949 -20.0015,-48.438105 -50.1084,-48.830805 -32.28,-0.4189 -64.5861,-0.2618 -96.8396,0 z m 0.5236,49.702605 96.9448,0 0,46.93796 -96.9448,0 0,-46.93796 z m 186.5848,121.89906 c 3.5602,0 9.5557,3.5866 10.2887,6.545 9.6603,37.9348 18.5354,76.06582 27.8029,115.10014 l -356.9372,0 c 10.7596,-39.1652 20.9436,-76.96644 31.7824,-114.58704 0.7852,-3.1416 6.4925,-7.0058 9.9219,-7.0058 92.3894,-0.3927 184.8045,-0.4188 277.1413,0 z m -334.1351,221.14995 c 26.9656,0.26177 49.2711,22.74249 48.721,49.44605 -0.5236,27.01774 -22.8287,48.45651 -50.1084,48.01146 -26.4155,-0.4189 -48.2756,-22.49385 -48.2235,-48.77851 0,-26.78208 22.515,-48.83608 49.6109,-48.679 z m 392.6472,0 c 26.9916,0.26177 49.3232,22.69013 48.7735,49.39369 -0.5236,27.01774 -22.7766,48.48267 -50.0563,48.06382 -26.3893,-0.3927 -48.2759,-22.47029 -48.2759,-48.72876 0,-26.80828 22.5149,-48.88583 49.5587,-48.72875 z"
       id="path7-8"
       style="fill:#003cff;fill-opacity:1" />
  </g>
</svg>
