<?xml version="1.0" encoding="UTF-8" standalone="no"?>
<!-- Created with Inkscape (http://www.inkscape.org/) -->

<svg
   xmlns:dc="http://purl.org/dc/elements/1.1/"
   xmlns:cc="http://creativecommons.org/ns#"
   xmlns:rdf="http://www.w3.org/1999/02/22-rdf-syntax-ns#"
   xmlns:svg="http://www.w3.org/2000/svg"
   xmlns="http://www.w3.org/2000/svg"
   xmlns:sodipodi="http://sodipodi.sourceforge.net/DTD/sodipodi-0.dtd"
   xmlns:inkscape="http://www.inkscape.org/namespaces/inkscape"
   width="352.78mm"
   height="352.78mm"
   viewBox="0 0 1250.0079 1250.0079"
   id="svg11367"
   version="1.1"
   inkscape:version="0.91 r13725"
   sodipodi:docname="transport_ferry_station.svg">
  <defs
     id="defs11369" />
  <sodipodi:namedview
     id="base"
     pagecolor="#ffffff"
     bordercolor="#666666"
     borderopacity="1.0"
     inkscape:pageopacity="0.0"
     inkscape:pageshadow="2"
     inkscape:zoom="0.5"
     inkscape:cx="80"
     inkscape:cy="520"
     inkscape:document-units="px"
     inkscape:current-layer="layer1"
     showgrid="false"
     inkscape:window-width="1920"
     inkscape:window-height="1018"
     inkscape:window-x="-8"
     inkscape:window-y="-8"
     inkscape:window-maximized="1" />
  <metadata
     id="metadata11372">
    <rdf:RDF>
      <cc:Work
         rdf:about="">
        <dc:format>image/svg+xml</dc:format>
        <dc:type
           rdf:resource="http://purl.org/dc/dcmitype/StillImage" />
        <dc:title></dc:title>
      </cc:Work>
    </rdf:RDF>
  </metadata>
  <g
     inkscape:label="Layer 1"
     inkscape:groupmode="layer"
     id="layer1"
     transform="translate(0,197.64569)">
    <path
       inkscape:connector-curvature="0"
       style="color:#000000;display:inline;overflow:visible;visibility:visible;fill:#003cff;fill-opacity:1;fill-rule:nonzero;stroke:none;stroke-width:2;marker:none;enable-background:accumulate"
       d="m 575.44095,80.415969 c -49.563,0 -49.563,49.563201 -49.563,49.563201 l -74.345,0 -24.782,198.2528 198.253,-99.1264 198.253,99.1264 -24.782,-198.2528 -74.344,0 c 0,0 0,-49.563201 -49.564,-49.563201 l -99.126,0 z m 49.563,198.252701 -297.379,148.6897 99.126,99.1264 0,49.563 c 22.101,0 74.092,49.5633 99.127,49.5633 24.99,0 75.603,-49.5633 99.126,-49.5633 23.568,0 74.137,49.5633 99.127,49.5633 23.522,0 75.42,-49.5633 99.126,-49.5633 l 0,-49.563 99.126,-99.1264 -297.379,-148.6897 z m -198.253,371.7239 c -26.461,0 -73.963,49.5633 -99.126,49.5633 l 0,74.3448 c 26.625,0 75.604,-49.5633 99.126,-49.5633 24.99,0 72.665,49.5633 99.127,49.5633 23.567,0 73.963,-49.5633 99.126,-49.5633 24.99,0 75.421,49.5633 99.127,49.5633 24.989,0 75.603,-49.5633 99.126,-49.5633 23.523,0 74.137,49.5633 99.126,49.5633 l 0,-74.3448 c -20.583,0 -72.664,-51.0302 -99.126,-49.5633 -23.706,0 -72.625,49.5633 -99.126,49.5633 -22.051,0 -74.137,-49.5633 -99.127,-49.5633 -24.989,0 -77.026,49.5633 -99.126,49.5633 -23.567,0 -72.665,-49.5633 -99.127,-49.5633 z"
       id="ferry" />
  </g>
</svg>
