<?xml version="1.0" encoding="UTF-8" standalone="no"?>
<!-- Created with Inkscape (http://www.inkscape.org/) -->

<svg
   xmlns:dc="http://purl.org/dc/elements/1.1/"
   xmlns:cc="http://creativecommons.org/ns#"
   xmlns:rdf="http://www.w3.org/1999/02/22-rdf-syntax-ns#"
   xmlns:svg="http://www.w3.org/2000/svg"
   xmlns="http://www.w3.org/2000/svg"
   xmlns:sodipodi="http://sodipodi.sourceforge.net/DTD/sodipodi-0.dtd"
   xmlns:inkscape="http://www.inkscape.org/namespaces/inkscape"
   width="352.78mm"
   height="352.78mm"
   viewBox="0 0 1250.0079 1250.0079"
   id="svg31807"
   version="1.1"
   inkscape:version="0.91 r13725"
   sodipodi:docname="transport_railway_halt.svg">
  <defs
     id="defs31809" />
  <sodipodi:namedview
     id="base"
     pagecolor="#ffffff"
     bordercolor="#666666"
     borderopacity="1.0"
     inkscape:pageopacity="0.0"
     inkscape:pageshadow="2"
     inkscape:zoom="0.5"
     inkscape:cx="80"
     inkscape:cy="520"
     inkscape:document-units="px"
     inkscape:current-layer="layer1"
     showgrid="false"
     inkscape:window-width="1920"
     inkscape:window-height="1018"
     inkscape:window-x="-8"
     inkscape:window-y="-8"
     inkscape:window-maximized="1" />
  <metadata
     id="metadata31812">
    <rdf:RDF>
      <cc:Work
         rdf:about="">
        <dc:format>image/svg+xml</dc:format>
        <dc:type
           rdf:resource="http://purl.org/dc/dcmitype/StillImage" />
        <dc:title></dc:title>
      </cc:Work>
    </rdf:RDF>
  </metadata>
  <g
     inkscape:label="Layer 1"
     inkscape:groupmode="layer"
     id="layer1"
     transform="translate(0,197.64569)">
    <path
       style="fill:#b40a0a;fill-opacity:1"
       d="m 625.11345,73.225469 c -111.622,0 -126.498,0.6938 -142.512,6.8848 -22.047,8.496 -45.546,34.142701 -51.674,56.347701 -3.316,11.654 -3.948,72.9623 -3.316,222.2343 l 0.947,206.125 11.436,18.6035 c 7.769,12.571 17.751,22.2352 31.047,29.9102 10.771,6.222 19.711,12.2872 19.711,13.8672 0.09,1.358 -17.436,32.816 -38.946,69.834 -21.478,37.081 -41.125,71.2561 -43.652,75.9941 l 0.158,-0.2207 -4.609,8.6856 29.025,-0.9473 29.027,-0.9473 27.1,-47.2207 27.102,-47.1875 109.314,0 109.316,0 27.764,48.1348 27.764,48.1367 28.111,0 28.078,0 -5.369,-10.3594 c -2.969,-5.749 -23.247,-41.2824 -45.041,-78.9004 -39.386,-68.035 -39.543,-68.5407 -30.826,-72.5527 16.961,-7.706 39.008,-31.3323 45.83,-48.9883 6.223,-16.298 6.854,-34.0798 6.854,-223.5918 0,-203.408 -0.126,-206.029 -8.149,-221 -10.296,-19.267 -25.457,-34.395601 -44.693,-44.724601 -14.655,-7.801 -19.489,-8.1172 -139.797,-8.1172 z m -1.42,13.2325 c 40.05,0 44.85,0.7278 48.324,7.2968 6.538,12.192001 4.708,33.512401 -3.599,41.818401 l 0.126,0 c -6.57,6.475 -12.476,7.4238 -46.273,7.4238 -21.288,-0.032 -41.692,-1.7362 -45.324,-3.9472 -8.023,-4.612 -9.571,-40.682101 -2.211,-48.041101 3,-2.97 19.424,-4.5507 48.957,-4.5507 z m 7.012,68.003901 98.672,0 11.054,11.0547 c 11.087,10.8969 11.086,11.5289 11.086,54.0429 0,38.438 -0.82,43.9346 -7.926,51.5156 -4.391,4.674 -12.098,10.1382 -17.246,12.0332 l -0.127,0 c -5.117,1.958 -50.441,3.5372 -100.693,3.5372 -84.649,0 -92.261,-0.5689 -103.727,-7.5489 -6.791,-4.137 -14.15,-11.9071 -16.045,-17.2441 -5.053,-13.645 -4.484,-74.8274 0.948,-86.7344 8.813,-19.394 16.836,-20.6562 124.004,-20.6562 z m 100.775,317.5859 c 7.27,-0.2824 14.324,1.9625 22.248,6.7949 22.457,13.676 26.343,46.6499 7.582,64.3379 l 0,-0.1582 c -10.139,9.538 -33.576,13.456 -46.59,7.959 -10.328,-4.453 -23.625,-25.2986 -23.625,-37.1426 0,-13.488 10.299,-30.2282 22.522,-36.5762 6.425,-3.2475 12.209,-4.9952 17.863,-5.2148 z m -216.65,1.2617 c 35.067,0.6018 55.19,46.1664 24.752,71.7656 -17.371,14.624 -38.123,13.4556 -54.705,-3.1894 -9.507,-9.507 -12.825,-16.1083 -12.825,-25.4883 0,-19.014 12.129,-36.0402 29.248,-41.1562 4.692,-1.4027 9.223,-2.0056 13.53,-1.9317 z"
       id="path7172"
       inkscape:connector-curvature="0" />
  </g>
</svg>
