<?xml version="1.0" encoding="UTF-8" standalone="no"?>
<!-- Created with Inkscape (http://www.inkscape.org/) -->

<svg
   xmlns:dc="http://purl.org/dc/elements/1.1/"
   xmlns:cc="http://creativecommons.org/ns#"
   xmlns:rdf="http://www.w3.org/1999/02/22-rdf-syntax-ns#"
   xmlns:svg="http://www.w3.org/2000/svg"
   xmlns="http://www.w3.org/2000/svg"
   xmlns:sodipodi="http://sodipodi.sourceforge.net/DTD/sodipodi-0.dtd"
   xmlns:inkscape="http://www.inkscape.org/namespaces/inkscape"
   width="352.78mm"
   height="352.78mm"
   viewBox="0 0 1250.0079 1250.0079"
   id="svg25612"
   version="1.1"
   inkscape:version="0.91 r13725"
   sodipodi:docname="utility_hydro.svg">
  <defs
     id="defs25614" />
  <sodipodi:namedview
     id="base"
     pagecolor="#ffffff"
     bordercolor="#666666"
     borderopacity="1.0"
     inkscape:pageopacity="0.0"
     inkscape:pageshadow="2"
     inkscape:zoom="0.5"
     inkscape:cx="80"
     inkscape:cy="520"
     inkscape:document-units="px"
     inkscape:current-layer="layer1"
     showgrid="false"
     inkscape:window-width="1920"
     inkscape:window-height="1018"
     inkscape:window-x="-8"
     inkscape:window-y="-8"
     inkscape:window-maximized="1" />
  <metadata
     id="metadata25617">
    <rdf:RDF>
      <cc:Work
         rdf:about="">
        <dc:format>image/svg+xml</dc:format>
        <dc:type
           rdf:resource="http://purl.org/dc/dcmitype/StillImage" />
        <dc:title></dc:title>
      </cc:Work>
    </rdf:RDF>
  </metadata>
  <g
     inkscape:label="Layer 1"
     inkscape:groupmode="layer"
     id="layer1"
     transform="translate(0,197.64569)">
    <path
       d="m 586.4362,64.117319 -37.5237,0.243 0,726.119001 177.7547,0 L 612.4257,89.081319 c -4.2625,-14.593 -14.3732,-24.963 -25.9895,-24.963 z m -301.8587,60.299001 0,65.968 233.4142,0 0,-65.968 -233.4142,0 z m 0,100.097 0,65.968 233.4142,0 0,-65.968 -233.4142,0 z m 0,100.093 0,65.728 233.4142,0 0,-65.728 -233.4142,0 z m 0,99.857 0,65.97 233.4142,0 0,-65.97 -233.4142,0 z m 0,100.216 0,65.968 233.4142,0 0,-65.968 -233.4142,0 z m 525.8282,92.262 c -9.4433,0 -18.2194,3.013 -26.2411,8.439 -7.689,4.945 -16.381,7.96 -25.4892,7.96 -9.026,0 -17.6344,-3.015 -25.4891,-7.96 l 9.3592,59.819 c 5.1808,2.049 10.6139,3.014 16.1299,3.014 9.193,0 17.8002,-2.775 25.4892,-7.719 7.9395,-5.426 16.7978,-8.441 26.2411,-8.441 9.3599,0 18.1343,3.013 26.1573,8.441 7.689,4.944 16.4632,7.719 25.4892,7.719 9.026,0 17.6346,-2.775 25.4906,-7.719 7.856,-5.426 16.8807,-8.441 26.1559,-8.441 9.2764,0 18.2196,3.013 26.2426,8.441 7.689,4.944 16.3796,7.719 25.4891,7.719 l 0,-54.873 c -9.193,0 -17.8001,-3.015 -25.4891,-7.96 -7.9395,-5.425 -16.8815,-8.439 -26.2426,-8.439 -9.3599,0 -18.3012,3.013 -26.1559,8.439 -7.856,4.945 -16.4646,7.96 -25.4906,7.96 -9.026,0 -17.8002,-3.015 -25.4892,-7.96 -8.0242,-5.425 -16.8808,-8.439 -26.1573,-8.439 z m -525.8282,7.836 0,65.968 233.4142,0 0,-65.968 -233.4142,0 z m 525.8282,93.345 c -9.4433,0 -18.2194,3.012 -26.2411,8.441 -7.689,4.944 -16.381,7.961 -25.4892,7.961 -3.4264,0 -6.8525,-0.482 -10.279,-1.448 l 8.7751,56.319 1.5039,0 c 9.193,0 17.8002,-2.775 25.4892,-7.72 7.9395,-5.424 16.7978,-8.44 26.2411,-8.44 9.3599,0 18.1343,3.014 26.1573,8.44 7.6891,4.945 16.4632,7.72 25.4892,7.72 9.026,0 17.6346,-2.775 25.4906,-7.72 7.856,-5.424 16.8807,-8.44 26.1559,-8.44 9.2764,0 18.2196,3.014 26.2426,8.44 7.689,4.945 16.3796,7.72 25.4891,7.72 l 0,-54.871 c -9.193,0 -17.8001,-3.017 -25.4891,-7.961 -7.9395,-5.426 -16.8815,-8.441 -26.2426,-8.441 -9.3599,0 -18.3012,3.012 -26.1559,8.441 -7.8559,4.944 -16.4646,7.961 -25.4906,7.961 -9.026,0 -17.8002,-3.017 -25.4892,-7.961 -8.0242,-5.426 -16.8808,-8.441 -26.1573,-8.441 z m -525.8282,6.51 0,65.967 233.4142,0 0,-65.967 -233.4142,0 z"
       id="rect2311"
       inkscape:connector-curvature="0"
       style="fill:#000000;fill-opacity:1" />
  </g>
</svg>
