<?xml version="1.0" encoding="UTF-8" standalone="no"?>
<!-- Created with Inkscape (http://www.inkscape.org/) -->

<svg
   xmlns:dc="http://purl.org/dc/elements/1.1/"
   xmlns:cc="http://creativecommons.org/ns#"
   xmlns:rdf="http://www.w3.org/1999/02/22-rdf-syntax-ns#"
   xmlns:svg="http://www.w3.org/2000/svg"
   xmlns="http://www.w3.org/2000/svg"
   xmlns:sodipodi="http://sodipodi.sourceforge.net/DTD/sodipodi-0.dtd"
   xmlns:inkscape="http://www.inkscape.org/namespaces/inkscape"
   width="352.78mm"
   height="352.78mm"
   viewBox="0 0 1250.0079 1250.0079"
   id="svg8360"
   version="1.1"
   inkscape:version="0.91 r13725"
   sodipodi:docname="worship_sikh.svg">
  <defs
     id="defs8362" />
  <sodipodi:namedview
     id="base"
     pagecolor="#ffffff"
     bordercolor="#666666"
     borderopacity="1.0"
     inkscape:pageopacity="0.0"
     inkscape:pageshadow="2"
     inkscape:zoom="0.5"
     inkscape:cx="80"
     inkscape:cy="520"
     inkscape:document-units="px"
     inkscape:current-layer="layer1"
     showgrid="false"
     inkscape:window-width="1920"
     inkscape:window-height="1018"
     inkscape:window-x="-8"
     inkscape:window-y="-8"
     inkscape:window-maximized="1" />
  <metadata
     id="metadata8365">
    <rdf:RDF>
      <cc:Work
         rdf:about="">
        <dc:format>image/svg+xml</dc:format>
        <dc:type
           rdf:resource="http://purl.org/dc/dcmitype/StillImage" />
        <dc:title></dc:title>
      </cc:Work>
    </rdf:RDF>
  </metadata>
  <g
     inkscape:label="Layer 1"
     inkscape:groupmode="layer"
     id="layer1"
     transform="translate(0,197.64569)">
    <path
       style="fill:#000000"
       d="m 623.41654,43.607553 0,4.8342 -2.392,3.6383 c -17.433,27.1774 -48.2,43.0949 -65.114,70.777997 0.101,14.9864 -0.02,31.6103 -8.142,44.4564 -15.402,10.8856 -33.038,19.5036 -45.301,34.2437 -27.856,26.1528 -52.734,59.2461 -55.321,98.6022 -4.367,35.7592 -0.8,73.4799 18.316,104.5637 19.563,31.5826 43.793,62.1196 77.692,78.9738 12.769,9.3539 16.406,26.9251 11.468,41.6481 -2.093,7.1371 1.035,15.1692 9.386,15.8204 18.613,7.7474 35.355,21.3381 45.974,38.7268 5.762,10.5479 9.247,26.5755 -0.572,35.7461 -8.608,6.2601 -17.713,-3.8098 -25.494,-6.7202 -24.074,-15.6311 -46.004,-33.9144 -68.437,-51.7627 -46.126,-38.1376 -97.542,-88.4726 -115.36,-146.9021 -17.899,-50.8456 -22.91,-116.372 2.571,-166.2119 11.494,-23.958 30.77,-42.252 48.55,-61.6392 3.182,-4.7213 -3.179,-8.0321 -7.09,-5.331 -21.983,6.6587 -39.8,22.3172 -56.338,37.5368 -40.807,40.6182 -63.431,105.8785 -59.705,163.1835 1.992,80.4453 46.298,159.2844 94.559,222.196 18.898,26.6731 39.723,53.7911 48.044,85.7626 -1.833,6.1175 5.181,8.7481 8.948,4.1886 26.66,-13.8009 43.147,-41.8111 70.445,-54.3568 12.036,-3.3616 22.64,4.1562 32.316,9.948 4.686,1.827 16.221,6.1719 10.186,12.6611 -12.022,7.4155 -26.222,11.0587 -37.534,19.8423 -21.502,14.3187 -41.128,37.183 -41.142,64.2156 1.087,14.3091 17.173,25.6415 30.653,18.9915 15.811,-5.6061 24.399,-24.8032 18.563,-40.4106 0.378,-15.9179 17.365,-23.4629 29.892,-29.1299 6.36,-4.3533 18.868,-6.6875 21.038,3.3794 4.714,16.1501 -0.453,33.1167 -2.05,49.1687 -2.294,11.7428 -10.106,21.4032 -14.133,32.081 -0.104,13.8738 11.489,24.5241 21.654,32.2237 2.658,2.1504 4.365,2.7988 5.456,2.4781 1.09,0.3207 2.8,-0.3277 5.459,-2.4781 10.164,-7.6996 21.757,-18.3499 21.654,-32.2237 -4.028,-10.6778 -11.839,-20.3382 -14.134,-32.081 -1.597,-16.052 -6.763,-33.0186 -2.05,-49.1687 2.17,-10.0669 14.678,-7.7327 21.039,-3.3794 12.526,5.667 29.513,13.212 29.891,29.1299 -5.836,15.6074 2.752,34.8045 18.563,40.4106 13.481,6.65 29.567,-4.6824 30.653,-18.9915 -0.01,-27.0326 -19.643,-49.8969 -41.145,-64.2156 -11.312,-8.7836 -25.509,-12.4268 -37.531,-19.8423 -6.035,-6.4892 5.5,-10.8341 10.186,-12.6611 9.677,-5.7918 20.28,-13.3096 32.316,-9.948 27.298,12.5457 43.786,40.5559 70.445,54.3568 3.767,4.5595 10.781,1.9289 8.948,-4.1886 8.321,-31.9715 29.146,-59.0895 48.044,-85.7626 48.261,-62.9116 92.567,-141.7507 94.56,-222.196 3.725,-57.305 -18.898,-122.5653 -59.706,-163.1835 -16.538,-15.2196 -34.355,-30.8781 -56.338,-37.5368 -3.911,-2.7011 -10.272,0.6097 -7.089,5.331 17.779,19.3872 37.055,37.6812 48.55,61.6392 25.481,49.8399 20.47,115.3663 2.57,166.2119 -17.818,58.4295 -69.234,108.7645 -115.36,146.9021 -22.432,17.8483 -44.363,36.1316 -68.437,51.7627 -7.781,2.9104 -16.885,12.9803 -25.494,6.7202 -9.819,-9.1706 -6.334,-25.1982 -0.571,-35.7461 10.618,-17.3887 27.361,-30.9794 45.973,-38.7268 8.351,-0.6512 11.479,-8.6833 9.386,-15.8204 -4.938,-14.723 -1.301,-32.2942 11.468,-41.6481 33.899,-16.8542 58.126,-47.3912 77.689,-78.9738 19.116,-31.0838 22.686,-68.8045 18.319,-104.5637 -2.587,-39.3561 -27.465,-72.4494 -55.32,-98.6022 -12.264,-14.7401 -29.899,-23.3581 -45.302,-34.2437 -8.119,-12.8461 -8.242,-29.47 -8.142,-44.4564 -16.913,-27.683097 -47.681,-43.600597 -65.114,-70.777997 l -2.392,-3.6383 0,-4.8342 -1.588,2.4156 -1.586,-2.4156 z m -58.703,167.259097 c 13.326,1.0816 16.667,17.4009 18.929,28.0857 12.617,49.2066 26.015,94.3984 14.238,145.1408 -5.099,19.239 -8.71,33.0328 -17.079,51.1024 -2.82,7.4481 -10.252,12.3927 -18.182,9.2817 -19.079,-8.1511 -27.581,-20.9497 -41.485,-35.8205 -27.601,-30.6582 -42.163,-71.8871 -30.727,-112.6375 7.519,-34.3619 26.165,-55.5657 54.865,-74.1813 6.493,-3.2763 11.97,-10.3325 19.441,-10.9713 z m 120.58,0 c 7.471,0.6388 12.945,7.695 19.438,10.9713 28.701,18.6156 47.347,39.8194 54.866,74.1813 11.435,40.7504 -3.126,81.9793 -30.728,112.6375 -13.904,14.8708 -22.403,27.6694 -41.481,35.8205 -7.931,3.111 -15.363,-1.8336 -18.183,-9.2817 -8.369,-18.0696 -11.983,-31.8634 -17.082,-51.1024 -11.777,-50.7424 1.621,-95.9342 14.238,-145.1408 2.263,-10.6848 5.606,-27.0041 18.932,-28.0857 z"
       id="path7034"
       inkscape:connector-curvature="0" />
  </g>
</svg>
