<?xml version="1.0" encoding="UTF-8" standalone="no"?>
<!-- Created with Inkscape (http://www.inkscape.org/) -->

<svg
   xmlns:dc="http://purl.org/dc/elements/1.1/"
   xmlns:cc="http://creativecommons.org/ns#"
   xmlns:rdf="http://www.w3.org/1999/02/22-rdf-syntax-ns#"
   xmlns:svg="http://www.w3.org/2000/svg"
   xmlns="http://www.w3.org/2000/svg"
   xmlns:sodipodi="http://sodipodi.sourceforge.net/DTD/sodipodi-0.dtd"
   xmlns:inkscape="http://www.inkscape.org/namespaces/inkscape"
   width="352.78mm"
   height="352.78mm"
   viewBox="0 0 1250.0079 1250.0079"
   id="svg7202"
   version="1.1"
   inkscape:version="0.91 r13725"
   sodipodi:docname="worship_hindu.svg">
  <defs
     id="defs7204" />
  <sodipodi:namedview
     id="base"
     pagecolor="#ffffff"
     bordercolor="#666666"
     borderopacity="1.0"
     inkscape:pageopacity="0.0"
     inkscape:pageshadow="2"
     inkscape:zoom="0.5"
     inkscape:cx="80"
     inkscape:cy="520"
     inkscape:document-units="px"
     inkscape:current-layer="layer1"
     showgrid="false"
     inkscape:window-width="1920"
     inkscape:window-height="1018"
     inkscape:window-x="-8"
     inkscape:window-y="-8"
     inkscape:window-maximized="1" />
  <metadata
     id="metadata7207">
    <rdf:RDF>
      <cc:Work
         rdf:about="">
        <dc:format>image/svg+xml</dc:format>
        <dc:type
           rdf:resource="http://purl.org/dc/dcmitype/StillImage" />
        <dc:title></dc:title>
      </cc:Work>
    </rdf:RDF>
  </metadata>
  <g
     inkscape:label="Layer 1"
     inkscape:groupmode="layer"
     id="layer1"
     transform="translate(0,197.64569)">
    <path
       inkscape:connector-curvature="0"
       d="m 792.52576,87.035883 -25.3828,16.057997 c -13.969,8.812 -25.4418,16.869 -25.4418,17.9 0,1.032 6.7988,12.841 15.08,26.191 8.3401,13.379 16.3708,23.591 17.8443,22.677 1.503,-0.913 13.4768,-8.523 26.5911,-16.922 l 23.8887,-15.369 -16.2912,-25.267 -16.2883,-25.267997 z m -178.4342,27.683997 c -0.8546,1.385 -0.9725,5.49 0.2947,11.34 5.2458,24.313 19.0763,46.242 46.2773,73.502 37.0738,37.104 69.5265,54.188 115.1761,60.612 19.8335,2.8 61.3602,0.678 84.6712,-4.317 32.4174,-6.896 67.1512,-21.086 82.7705,-33.729 l 6.6191,-5.355 -20.6647,-21.525 -20.6646,-21.528 -13.409,8.576 c -56.7599,36.16 -158.8069,30.227 -227.5907,-13.182 -18.1832,-11.494 -46.3215,-39.488 -49.3864,-49.154 -1.6504,-5.216 -3.2418,-6.613 -4.0876,-5.24 z m -91.6351,91.176 c -39.9469,2.416 -89.8226,22.279 -123.0586,50.076 l -7.368,6.1 21.699,24.407 c 11.965,13.409 21.814,25.271 21.814,26.42 0,4.539 5.57,1.091 34.4207,-21.357 38.5475,-30.001 54.6855,-38.176 71.6605,-36.26 25.0498,2.8 38.0786,20.016 37.9902,50.076 0,39.078 -21.8965,62.191 -93.3037,99.118 -14.293,7.397 -26.016,14.334 -26.016,15.424 0,1.592 45.6349,88.638 48.4641,92.44 0.4421,0.56 9.4512,-1.739 20.031,-5.181 13.9984,-4.479 23.6706,-5.861 35.2819,-5.007 33.0363,2.358 80.2949,33.163 93.8219,61.072 7.6033,15.678 7.5473,41.346 0,57.673 -6.6015,13.851 -28.4714,35.674 -46.5073,46.107 -33.2425,19.361 -89.799,29.623 -133.7096,24.23 -32.7707,-3.979 -72.0847,-14.47 -87.1437,-23.311 -46.00299,-26.995 -84.07939,-84.477 -99.52239,-150.402 -4.155,-17.653 -8.46,-31.474 -9.669,-30.738 -4.538,2.8 -2.269,62.286 3.28,85.361 9.225,38.459 30.838,78.919 58.4814,109.48 30.767,33.95 101.41399,71.262 155.69779,82.137 l 0,0.294 c 24.372,4.833 51.4052,4.836 81.9069,0 99.0793,-16.061 151.3804,-69.249 151.3804,-153.741 0,-44.706 -13.6624,-78.512 -44.7242,-110.458 -10.5504,-10.992 -18.749,-20.39 -18.1301,-20.95 0.6777,-0.56 8.5935,-3.162 17.6704,-5.756 22.2501,-6.365 47.6123,-19.185 58.251,-29.47 5.1279,-4.921 12.4277,-17.432 17.4966,-30.045 10.1378,-25.079 26.8917,-45.499 43.5719,-53.014 15.6488,-7.073 28.3771,-2.8 49.2715,16.521 35.2466,32.653 59.3386,103.747 52.2067,154.142 -2.7701,19.509 -1.945,30.681 -10.8774,42.882 -3.2713,4.479 -5.9796,8.7 -16.1174,13.297 -3.3007,0.295 -48.0573,0.766 -65.5038,-15.369 -16.9454,-15.649 -28.1294,-33.369 -33.7877,-53.645 l -3.51,-12.374 -1.8861,8.231 c -6.2771,26.582 -0.6189,53.998 16.6361,80.698 30.2071,46.74 74.3301,71.884 111.4922,63.544 39.2545,-8.752 66.939,-61.932 66.939,-128.299 0,-92.095 -49.2008,-189.076 -108.554,-213.949 -21.0124,-8.752 -74.2595,-4.093 -96.0675,8.461 -13.8511,8.016 -37.4097,32.889 -54.7972,57.733 -7.3676,10.58 -13.7184,19.645 -14.1605,20.205 -2.0335,2.888 -131.2698,22.933 -140.7298,21.814 -6.5424,-0.767 -5.9796,-1.533 7.1937,-9.958 19.6863,-12.614 45.3431,-40.79 54.5674,-59.976 10.1967,-21.218 12.6073,-61.03 5.1218,-83.692 -13.0848,-39.609 -41.6445,-61.455 -84.6122,-64.697 -5.2252,-0.412 -10.6978,-0.412 -16.4062,0 z"
       id="path44341"
       style="fill:#000000;fill-opacity:1" />
  </g>
</svg>
