<?xml version="1.0" encoding="UTF-8" standalone="no"?>
<!-- Created with Inkscape (http://www.inkscape.org/) -->

<svg
   xmlns:dc="http://purl.org/dc/elements/1.1/"
   xmlns:cc="http://creativecommons.org/ns#"
   xmlns:rdf="http://www.w3.org/1999/02/22-rdf-syntax-ns#"
   xmlns:svg="http://www.w3.org/2000/svg"
   xmlns="http://www.w3.org/2000/svg"
   version="1.1"
   width="1000"
   height="1000"
   viewBox="0 0 1000 1000"
   id="svg5694">
  <defs
     id="defs5498" />
  <metadata
     id="metadata5594">
    <rdf:RDF>
      <cc:Work
         rdf:about="">
        <dc:format>image/svg+xml</dc:format>
        <dc:type
           rdf:resource="http://purl.org/dc/dcmitype/StillImage" />
        <dc:title></dc:title>
      </cc:Work>
    </rdf:RDF>
  </metadata>
  <g
     id="layer1">
    <path
       d="m 499.99694,151.47847 c -144.34921,0 -261.3914,117.04421 -261.3914,261.39139 0,58.79694 19.40154,112.99851 52.16449,156.6926 L 500,848.52153 709.23099,569.56246 c 32.766,-43.69409 52.16346,-97.89668 52.16346,-156.6926 0,-144.34718 -117.04624,-261.39139 -261.3975,-261.39139 l 0,0 z"
       id="background"
       style="fill:#ffffff;stroke:none" />
    <path
       d="m 595.10651,143.58998 c -114.77984,0 -207.84782,93.09486 -207.84782,207.87265 0,8.82156 0.54829,17.49837 1.61431,26.02754 l 0.0497,0.3477 0.34769,0 411.6723,0 0.34769,0 0.0497,-0.3477 c 1.06602,-8.52918 1.61431,-17.20698 1.61431,-26.02754 -0.002,-114.77778 -93.06897,-207.87265 -207.84782,-207.87265 z m -199.18025,267.45288 0.17385,0.52154 c 7.09566,23.52029 18.23237,45.2911 32.63377,64.49765 l 166.04977,221.40797 0.32286,0.4222 0.32286,-0.4222 166.04977,-221.40797 c 14.40343,-19.20657 25.53811,-40.97738 32.63377,-64.49765 l 0.17385,-0.52154 -0.54638,0 -397.26774,0 z"
       id="foreground"
       style="fill:#000000;stroke:none"
       transform="matrix(1.2582824,0,0,1.2582824,-248.81204,-29.23924)" />
  </g>
</svg>
