<?xml version="1.0" encoding="UTF-8" standalone="no"?>
<!-- Created with Inkscape (http://www.inkscape.org/) -->

<svg
   xmlns:dc="http://purl.org/dc/elements/1.1/"
   xmlns:cc="http://creativecommons.org/ns#"
   xmlns:rdf="http://www.w3.org/1999/02/22-rdf-syntax-ns#"
   xmlns:svg="http://www.w3.org/2000/svg"
   xmlns="http://www.w3.org/2000/svg"
   xmlns:sodipodi="http://sodipodi.sourceforge.net/DTD/sodipodi-0.dtd"
   xmlns:inkscape="http://www.inkscape.org/namespaces/inkscape"
   width="352.78mm"
   height="352.78mm"
   viewBox="0 0 1250.0079 1250.0079"
   id="svg27431"
   version="1.1"
   inkscape:version="0.48.4 r9939"
   sodipodi:docname="destination_ruin.svg">
  <defs
     id="defs27433" />
  <sodipodi:namedview
     id="base"
     pagecolor="#ffffff"
     bordercolor="#666666"
     borderopacity="1.0"
     inkscape:pageopacity="0.0"
     inkscape:pageshadow="2"
     inkscape:zoom="0.70710678"
     inkscape:cx="575.06854"
     inkscape:cy="520.72495"
     inkscape:document-units="px"
     inkscape:current-layer="layer1"
     showgrid="false"
     inkscape:window-width="1920"
     inkscape:window-height="1161"
     inkscape:window-x="1920"
     inkscape:window-y="0"
     inkscape:window-maximized="1" />
  <metadata
     id="metadata27436">
    <rdf:RDF>
      <cc:Work
         rdf:about="">
        <dc:format>image/svg+xml</dc:format>
        <dc:type
           rdf:resource="http://purl.org/dc/dcmitype/StillImage" />
        <dc:title />
      </cc:Work>
    </rdf:RDF>
  </metadata>
  <g
     inkscape:label="Layer 1"
     inkscape:groupmode="layer"
     id="layer1"
     transform="translate(0,197.64569)">
    <path
       style="font-size:medium;font-style:normal;font-variant:normal;font-weight:normal;font-stretch:normal;text-indent:0;text-align:start;text-decoration:none;line-height:normal;letter-spacing:normal;word-spacing:normal;text-transform:none;direction:ltr;block-progression:tb;writing-mode:lr-tb;text-anchor:start;baseline-shift:baseline;color:#000000;fill:#c84614;fill-opacity:1;fill-rule:nonzero;stroke:none;stroke-width:6.07283926;marker:none;visibility:visible;display:inline;overflow:visible;enable-background:accumulate;font-family:Sans;-inkscape-font-specification:Sans"
       d="m 321.28125,110.0625 c -3.7821,0 -7.4163,0.46675 -10.84375,1.40625 -0.01,0.003 -0.0215,-0.003 -0.0312,0 -6.82443,1.8549 -12.74617,5.63477 -17.40625,10.9375 -2.34628,2.67489 -4.39961,5.71037 -6.09375,9.15625 -2.43701,4.98217 -4.18498,9.87399 -5.25,14.71875 -3.21143,14.53092 0.12728,28.35651 9.84375,40.84375 l -0.0312,0 c 3.49925,4.52243 6.95455,7.85767 11.25,10.3125 l 1.25,0.71875 c -5e-5,-4e-5 0.10364,0.0667 0.15625,0.0937 l 0.0937,0.0625 c 0.0296,0.0146 0.0641,0.0167 0.0937,0.0312 0.004,0.002 0.0312,0.0312 0.0312,0.0312 0.008,0.004 0.0229,-0.004 0.0312,0 0.002,8.9e-4 0.0257,0.0293 0.0312,0.0312 0.0542,0.0285 0.0416,0.005 0.0937,0.0312 0.0227,0.0117 0.0422,-0.0104 0.0625,0 0.0254,0.009 0.033,0.0208 0.0625,0.0312 0.16841,0.0784 0.17127,0.0711 0.3125,0.125 0.0313,0.006 0.0513,0.0228 0.0937,0.0312 0.53068,0.18977 1.29339,0.51935 1.25,0.5 l 0.0625,0 0.0312,0.0312 c 4.73435,1.95756 10.30488,3.23922 18.1875,4.28125 0.0116,0.002 0.0196,-0.002 0.0312,0 l 8.8125,1.15625 0,202 0,201.65625 -4.9375,0 -7.96875,0 -3.03125,0 0,3.03125 0,29.09375 0,29.09375 0,3.03125 3.03125,0 279.09375,0 279.125,0 3.03125,0 0,-3.03125 0,-29.09375 0,-29.09375 0,-3.03125 -3.03125,0 -42.84375,0 -39.84375,0 0,-4.5625 c -0.0121,-5.04027 -1.88395,-11.90484 -4.4375,-16.8125 -0.47842,-0.91125 -1.31969,-2.20544 -2.78125,-4.46875 -1.46156,-2.26331 -3.44288,-5.32397 -5.9375,-9.09375 -4.98925,-7.53957 -11.92614,-17.93081 -20.3125,-30.40625 C 745.78943,517.95496 723.20961,484.63279 698.9059,448.9371 L 611,319.8125 607.78125,275.84375 c -0.90504,-12.30658 -1.67135,-23.54443 -2.15625,-31.75 -0.24245,-4.10279 -0.40537,-7.43744 -0.5,-9.75 -0.009,-0.21786 -0.0238,-0.30057 -0.0312,-0.5 0.35352,0.0257 0.52434,0.0301 0.9375,0.0625 2.61612,0.20526 6.41516,0.55753 11.0625,1 9.29468,0.88495 22.06067,2.1821 36.03125,3.6875 27.80632,3.00497 43.01404,4.45423 53.1875,3.6875 10.17486,-0.75437 15.45976,-4.31001 21.21875,-9.96875 3.79434,-3.72704 6.9437,-8.85789 9.4375,-14.375 l 0.1875,0 0.78125,-1.875 -0.0312,0 c 0.0322,-0.0763 0.0349,-0.0909 0.0625,-0.15625 0.0276,-0.0654 0.0469,-0.11929 0.0625,-0.15625 0.0175,-0.043 0.0451,-0.0819 0.0625,-0.125 0,-1e-5 -5.2e-4,-0.0552 0,-0.0625 0.88109,-2.19297 1.54435,-4.43399 2.15625,-6.6875 l 0.1875,0 0.4375,-2 c 0.005,-0.0222 0.0262,-0.0403 0.0312,-0.0625 l 0,-0.0625 c 0.0195,-0.0857 0.0748,-0.16432 0.0937,-0.25 l -0.0312,0 c 0.0141,-0.0684 0.0217,-0.10676 0.0312,-0.15625 0.002,-0.0102 -0.002,-0.0211 0,-0.0312 0.009,-0.0426 0.0219,-0.0824 0.0312,-0.125 0,-3e-5 -5.1e-4,-0.0487 0,-0.0625 0.6785,-3.10839 1.0625,-6.14583 1.0625,-9.0625 0,-4.88229 -0.82451,-9.74403 -2.34375,-14.4375 l 0.0312,0 c -0.78141,-2.47115 -2.02167,-4.24287 -2.75,-5.8125 -0.98703,-2.14019 -1.84832,-4.72115 -3.5,-7.25 l 0,-0.0312 c -2.64537,-4.03432 -5.76432,-7.63262 -9.3125,-10.59375 -3.53826,-2.96442 -7.48576,-5.23703 -11.65625,-6.5625 -1.48581,-0.46849 -3.65113,-0.84669 -6.90625,-1.375 -3.25512,-0.52831 -7.43862,-1.13497 -12.28125,-1.78125 -9.68526,-1.29256 -22.01768,-2.75008 -34.65625,-4.0625 -25.20174,-2.62002 -108.83594,-11.56091 -185.875,-19.84375 -38.52721,-4.14374 -74.81924,-7.92239 -102.25,-10.65625 -13.71538,-1.36693 -25.22097,-2.48275 -33.6875,-3.25 -6.03293,-0.54672 -8.40904,-0.67154 -11.15625,-0.84375 l 0.21875,-0.5 -4.6875,0 z M 305.5,192.65625 c -3e-5,0 0.14586,0.025 0.25,0.0312 -0.16002,0.0151 -0.26819,0.0123 -0.46875,0.0312 0.0646,-0.0195 0.21877,-0.0625 0.21875,-0.0625 z m -0.96875,0.28125 c -0.17483,0.0833 -0.22325,0.13011 -0.34375,0.1875 0.0155,-0.0146 0.0938,-0.0937 0.0937,-0.0937 -1e-5,1e-5 0.16459,-0.068 0.25,-0.0937 z M 303.25,194 c -0.0441,0.1008 -0.32358,0.74805 -0.40625,0.9375 0.10897,-0.28056 0.34378,-0.87505 0.34375,-0.875 0,0 0.0554,-0.0558 0.0625,-0.0625 z m -0.46875,1.09375 c -0.002,0.0181 -0.0184,0.1439 -0.0312,0.25 -10e-4,-0.0486 0,-0.18753 0,-0.1875 0,1e-5 0.0285,-0.0553 0.0312,-0.0625 z m 5.96875,0.59375 0.0312,0 c 0,0.0831 -0.0137,0.1989 -0.0312,0.34375 -0.002,-0.0892 0.004,-0.17516 0,-0.34375 z m -0.5,1.6875 c -0.003,0.007 -0.0313,0.0625 -0.0312,0.0625 8e-5,-1.1e-4 -0.68759,0.71882 -0.6875,0.71875 2e-5,-1e-5 -0.14546,0.0589 -0.21875,0.0937 0.14968,-0.14133 0.8345,-0.77771 0.9375,-0.875 z m -1.28125,1.0625 c -0.21272,0.1013 -0.43754,0.18751 -0.4375,0.1875 3e-5,-1e-5 -0.17844,0.0186 -0.3125,0.0312 0.22203,-0.0669 0.49957,-0.14323 0.75,-0.21875 z m -1.6875,0.21875 c 0.11701,0.007 0.27419,0.0196 0.46875,0.0312 -0.0752,0.007 -0.21877,0.0312 -0.21875,0.0312 4e-5,0 -0.13871,-0.0403 -0.25,-0.0625 z m 432.75,4.15625 c -2.2e-4,0 0.18771,0.036 0.34375,0.0625 -0.17163,-0.0149 -0.1988,-0.0187 -0.34375,-0.0312 l 0,-0.0312 z m 0.9375,0.15625 c 0.007,0.001 0.0625,1e-5 0.0625,0 -1.8e-4,-6e-5 0.28121,0.21283 0.5625,0.40625 -0.31233,-0.19174 -0.54203,-0.35533 -0.625,-0.40625 z m 1.28125,0.84375 c 0.0122,0.008 0.0938,0.0625 0.0937,0.0625 -5e-5,-6e-5 0.0997,0.22044 0.15625,0.34375 -0.11888,-0.19824 -0.22548,-0.36537 -0.25,-0.40625 z m 0.71875,1.40625 c 0.009,0.0201 0.0625,0.12503 0.0625,0.125 -10e-6,-5e-5 7.4e-4,0.1188 0,0.15625 -0.0188,-0.10066 -0.0366,-0.14248 -0.0625,-0.28125 z m -5.875,1.21875 c 0.0713,0.15558 0.26765,0.59863 0.4375,0.96875 -0.18665,-0.31124 -0.37502,-0.62507 -0.375,-0.625 2e-5,5e-5 -0.0311,-0.17553 -0.0625,-0.34375 z m 0.6875,1.40625 c 0.11582,0.0797 0.56957,0.39355 0.90625,0.625 -0.39621,-0.24324 -0.87504,-0.56255 -0.875,-0.5625 0,0 -0.0276,-0.0564 -0.0312,-0.0625 z m 1.28125,0.84375 c 0.026,0.004 0.21793,0.0565 0.4375,0.0937 -0.13903,-0.0121 -0.34378,-0.0313 -0.34375,-0.0312 10e-6,0 -0.0812,-0.0548 -0.0937,-0.0625 z m -1.9375,3.1875 c 0.0739,0 0.1874,0.0184 0.3125,0.0312 -0.0697,10e-4 -0.15575,-0.003 -0.3125,0 z m 1.59375,0.5 c 0.11228,0.0933 0.68756,0.53132 0.6875,0.53125 -10e-6,-1e-5 0.0659,0.13801 0.0937,0.1875 -0.18536,-0.16727 -0.57967,-0.53687 -0.78125,-0.71875 z m -321.4375,1.15625 11.96875,1.0625 c 4.0847,0.36356 7.97884,0.91678 10.90625,1.5 1.45141,0.28916 2.65976,0.62024 3.46875,0.875 0.0426,0.64675 0.0824,1.37735 0.125,2.46875 0.1046,2.68027 0.22279,6.61814 0.3125,11.65625 0.17943,10.07622 0.33068,24.57909 0.4375,42.46875 0.21364,35.77933 0.26533,85.13028 0.125,140 l -0.5,193.625 -13.5625,0.5625 -13.28125,0.59375 0,-197.5 z m 322.5,0.0312 c 0.11635,0.20639 0.25001,0.43753 0.25,0.4375 -10e-6,-3e-5 0.0133,0.21406 0.0312,0.375 -0.084,-0.2367 -0.1754,-0.51437 -0.28125,-0.8125 z M 732.25,214.0312 c -0.0297,0.12484 -0.029,0.17133 -0.0625,0.3125 0.003,-0.0405 0,-0.15627 0,-0.15625 -10e-6,4e-5 0.0439,-0.11228 0.0625,-0.15625 z m -0.125,0.875 c 0.0186,0.1663 0.0366,0.26789 0.0625,0.5 -0.0211,-0.0596 -0.0937,-0.21876 -0.0937,-0.21875 0,2e-5 0.0231,-0.16735 0.0312,-0.28125 z m 6,0.0625 c 0.007,0.066 0.0312,0.21877 0.0312,0.21875 0,-2e-5 -0.016,0.12352 -0.0312,0.1875 0.0109,-0.15208 -0.0131,-0.22361 0,-0.40625 z m -5.625,1.34375 c 0.11191,0.19853 0.15108,0.28622 0.21875,0.40625 -0.0269,-0.0243 -0.125,-0.12501 -0.125,-0.125 10e-6,10e-6 -0.0624,-0.19286 -0.0937,-0.28125 z m -213.4062,6.7188 c -0.36593,1.33952 -0.57012,3.0234 -0.78125,5.53125 -0.42225,5.0157 -0.73297,13.2875 -0.9375,26.90625 l 0.0312,0 c 0.61181,10.80982 5.19611,-42.68038 1.68755,-32.4375 z m 4.87495,17.12495 c 0.01,0.145 0.0212,0.19703 0.0312,0.34375 0.71126,10.38829 1.71524,25.06441 2.9375,42.625 2.44453,35.12118 5.71114,81.74488 9,128.5 3.28886,46.75512 6.59179,93.63872 9.125,129.28125 1.26661,17.82126 2.34722,32.84583 3.125,43.625 0.77778,10.77917 1.21736,17.01267 1.34375,18.28125 l 0.5625,5.40625 -13.4375,0 -13.71875,0 0,-191.34375 c 0,-85.607 0.0221,-134.19236 0.53125,-161.3125 0.11846,-7.888 0.31758,-10.77434 0.5,-15.40625 z m 99.5,250.8125 c 1.93954,2.67858 3.90998,5.42148 6.6875,9.34375 7.34115,10.3668 17.17719,24.43875 27.3125,39.09375 19.87703,28.72964 40.63425,59.22943 46.21875,68.15625 -0.2265,0.0332 -0.26196,0.0631 -0.53125,0.0937 -4.47152,0.51385 -14.66636,0.5625 -34.21875,0.5625 l -37.8125,0 -4.25,-61.40625 c -1.22409,-17.66133 -2.25575,-33.84438 -2.90625,-45.65625 -0.23563,-4.27856 -0.36867,-7.19483 -0.5,-10.1875 z m -333.875,191.71875 0,3.0625 0,27.90625 0,27.9375 0,3.03125 3.03125,0 336.9375,0 336.9375,0 3.03125,0 0,-3.03125 0,-27.9375 0,-27.90625 0,-3.0625 -3.03125,0 -336.9375,0 -336.9375,0 z"
       id="path5763"
       inkscape:connector-curvature="0"
       sodipodi:nodetypes="cccccccccccccccccccccccccccccccccccccccccccccccccssscccscccsccccccccccccccccccccccscccccccssccsscccccccccccccccccccccccccccccccccccccccscccccccccccccccccccccccccccccccccccccccccccccscssscccccccsccccccccccccsccccccccscccccssssccccsccccscccsccsccccccccccccccccccc" />
  </g>
</svg>
