<?xml version="1.0" encoding="UTF-8" standalone="no"?>
<!-- Created with Inkscape (http://www.inkscape.org/) -->

<svg
   xmlns:dc="http://purl.org/dc/elements/1.1/"
   xmlns:cc="http://creativecommons.org/ns#"
   xmlns:rdf="http://www.w3.org/1999/02/22-rdf-syntax-ns#"
   xmlns:svg="http://www.w3.org/2000/svg"
   xmlns="http://www.w3.org/2000/svg"
   xmlns:sodipodi="http://sodipodi.sourceforge.net/DTD/sodipodi-0.dtd"
   xmlns:inkscape="http://www.inkscape.org/namespaces/inkscape"
   width="352.78mm"
   height="352.78mm"
   viewBox="0 0 1250.0079 1250.0079"
   id="svg5014"
   version="1.1"
   inkscape:version="0.91 r13725"
   sodipodi:docname="education_university.svg">
  <defs
     id="defs5016" />
  <sodipodi:namedview
     id="base"
     pagecolor="#ffffff"
     bordercolor="#666666"
     borderopacity="1.0"
     inkscape:pageopacity="0.0"
     inkscape:pageshadow="2"
     inkscape:zoom="0.5"
     inkscape:cx="80"
     inkscape:cy="520"
     inkscape:document-units="px"
     inkscape:current-layer="layer1"
     showgrid="false"
     inkscape:window-width="1920"
     inkscape:window-height="1018"
     inkscape:window-x="-8"
     inkscape:window-y="-8"
     inkscape:window-maximized="1" />
  <metadata
     id="metadata5019">
    <rdf:RDF>
      <cc:Work
         rdf:about="">
        <dc:format>image/svg+xml</dc:format>
        <dc:type
           rdf:resource="http://purl.org/dc/dcmitype/StillImage" />
        <dc:title></dc:title>
      </cc:Work>
    </rdf:RDF>
  </metadata>
  <g
     inkscape:label="Layer 1"
     inkscape:groupmode="layer"
     id="layer1"
     transform="translate(0,197.64569)">
    <path
       inkscape:connector-curvature="0"
       style="fill:#c84614;fill-opacity:1"
       d="m 624.11121,80.585741 c -2.29,1.135 -77.814,50.780999 -167.855,110.279999 -90.04,59.5 -167.41501,110.192 -171.93901,112.676 -4.495,2.485 -8.599,5.106 -9.165,5.811 -2.799,3.742 -21.369,16.044 -24.847,16.473 -6.756,0.828 -6.968,0.985 -6.459,3.774 0.283,1.472 3.18,4.618 6.459,6.949 3.28,2.331 6.392,4.804 6.958,5.571 0.537,0.766 39.587,27.118 86.741,58.524 l 85.80601,57.147 54.496,-42.291 c 29.995,-23.278 64.485,-49.51 76.641,-58.405 19.789,-14.476 22.084,-16.846 22.141,-22.643 0.283,-16.807 16.886,-29.622 38.484,-29.592 23.21,0.06 39.149,11.878 39.149,29.053 0,7.391 -1.216,9.994 -7.732,16.773 -9.273,9.569 -23.241,14.007 -37.546,11.86 -9.442,-1.38 -9.889,-1.224 -27.388,12.7 -70.336,55.942 -125.062,100.864 -125.062,102.612 0,1.074 34.462,25.213 76.528,53.613 42.094,28.4 77.576,51.756 78.905,51.756 1.3,0.122 52.266,-33.101 113.244,-73.8 60.951,-40.699 146.592,-97.594 190.383,-126.454 73.587,-48.612 91.43699,-61.185 81.93799,-57.566 -1.979,0.767 -3.477,0.276 -3.477,-1.138 0,-1.349 -0.62199,-1.843 -1.21599,-1.138 -0.593,0.706 -6.954,-3.051 -14.078,-8.326 -7.096,-5.306 -15.851,-11.217 -19.272,-13.119 -3.421,-1.901 -80.768,-52.855 -171.996,-113.275 -140.898,-93.420999 -166.307,-109.572999 -169.841,-107.823999 z m 278.119,356.717999 c -0.339,-0.49 -60.06,38.442 -132.516,86.38 -157.748,104.247 -151.147,100.145 -154.822,96.802 -6.841,-6.594 -157.875,-105.317 -158.469,-103.691 -1.272,3.465 5.98,64.259 14.743,123.698 4.919,33.185 10.045,70.862 11.373,83.743 l 2.432,23.602 7.895,3.175 c 26.377,9.998 67.92,19.037 101.872,22.104 23.662,2.177 65.898,1.095 91.822,-2.156 56.766,-7.423 108.546,-26.55 150.131,-55.41 18.432,-12.881 46.001,-43.434 53.945,-59.842 12.75,-26.53 12.928,-27.313 12.589,-127.113 -0.283,-49.747 -0.509,-90.862 -0.989,-91.291 z m -545.193,12.4 0.622,89.015 0.565,88.955 5.301,13.298 c 2.912,7.3 8.198,17.926 11.817,23.662 l 6.57,10.423 10.491,-58.166 c 5.767,-32.05 13.682,-73.628 17.612,-92.429 3.93,-18.8 6.426,-34.872 5.521,-35.762 -0.904,-0.828 -14.457,-9.941 -30.091,-20.246 l -28.38,-18.75 z m 77.135,59.064 c -0.763,-0.828 -18.687,97.457 -30.588,167.906 l -9.389,55.469 4.639,5.511 c 2.545,2.822 8.314,7.193 12.809,9.585 4.495,2.453 10.401,4.344 13.143,4.313 6.983,-0.06 19.993,-6.943 25.675,-13.598 l 4.803,-5.751 -7.455,-87.876 c -6.756,-80.141 -12.139,-133.934 -13.637,-135.559 z"
       id="path11700" />
  </g>
</svg>
