<?xml version="1.0" encoding="UTF-8" standalone="no"?>
<!-- Created with Inkscape (http://www.inkscape.org/) -->

<svg
   xmlns:dc="http://purl.org/dc/elements/1.1/"
   xmlns:cc="http://creativecommons.org/ns#"
   xmlns:rdf="http://www.w3.org/1999/02/22-rdf-syntax-ns#"
   xmlns:svg="http://www.w3.org/2000/svg"
   xmlns="http://www.w3.org/2000/svg"
   xmlns:sodipodi="http://sodipodi.sourceforge.net/DTD/sodipodi-0.dtd"
   xmlns:inkscape="http://www.inkscape.org/namespaces/inkscape"
   width="352.78mm"
   height="352.78mm"
   viewBox="0 0 1250.0079 1250.0079"
   id="svg30259"
   version="1.1"
   inkscape:version="0.91 r13725"
   sodipodi:docname="education_kindergarten.svg">
  <defs
     id="defs30261" />
  <sodipodi:namedview
     id="base"
     pagecolor="#ffffff"
     bordercolor="#666666"
     borderopacity="1.0"
     inkscape:pageopacity="0.0"
     inkscape:pageshadow="2"
     inkscape:zoom="0.5"
     inkscape:cx="80"
     inkscape:cy="520"
     inkscape:document-units="px"
     inkscape:current-layer="layer1"
     showgrid="false"
     inkscape:window-width="1920"
     inkscape:window-height="1018"
     inkscape:window-x="-8"
     inkscape:window-y="-8"
     inkscape:window-maximized="1" />
  <metadata
     id="metadata30264">
    <rdf:RDF>
      <cc:Work
         rdf:about="">
        <dc:format>image/svg+xml</dc:format>
        <dc:type
           rdf:resource="http://purl.org/dc/dcmitype/StillImage" />
        <dc:title></dc:title>
      </cc:Work>
    </rdf:RDF>
  </metadata>
  <g
     inkscape:label="Layer 1"
     inkscape:groupmode="layer"
     id="layer1"
     transform="translate(0,197.64569)">
    <path
       inkscape:connector-curvature="0"
       d="m 256.91076,124.21502 0,80.168 0,0 0,15.333 c 0.2528,0.74 0.6526,1.455 0.7424,2.215 2.2919,19.381 10.4875,35.949 24.1282,49.764 26.8662,27.209 69.59258,34.901 105.38798,19.146 38.0961,-16.77 58.9961,-56.046 50.09,-96.536 -7.8777,-35.816 -31.2021,-57.456 -66.0854,-67.132 -4.9817,-1.377 -10.1807,-1.999 -15.2756,-2.969 -5.1124,0 -10.2224,0.01 -15.3319,0 l -83.65568,0 z m 562.31688,103.161 c -23.09,-0.144 -40.8773,16.941 -40.8773,39.246 0,21.76 18.5675,40.135 40.5624,40.146 22.5293,0 40.3484,-17.644 40.3599,-39.999 0.01,-22.858 -16.6558,-39.254 -40.045,-39.393 z m -0.2137,86.558 c -16.0256,0.01 -32.0596,-0.1 -48.0764,0.06 -13.2022,0.109 -22.0743,6.609 -24.0495,18.672 -1.0631,6.493 -0.7673,13.43 0.1912,19.97799 1.4843,10.14 8.2474,15.773 18.234,17.368 2.9542,0.472 6.0258,0.328 9.0439,0.328 26.0121,-0.06 52.0247,-0.08 78.0427,-0.127 6.1377,0 12.3022,0.329 18.4139,-0.07 10.2364,-0.665 17.2108,-6.818 19.7525,-16.726 1.7282,-6.75999 1.7549,-13.59499 0.4273,-20.38299 -1.6644,-8.45 -6.1564,-14.808 -14.6906,-17.379 -3.5003,-1.06 -7.2849,-1.579 -10.9449,-1.62 -15.4417,-0.172 -30.9025,-0.07 -46.3442,-0.07 l 0,0 z m -477.705,8.605 c -2.267,0 -4.5509,0.144 -6.8729,0.392 -21.66948,2.355 -39.47518,11.333 -51.69848,30.01099 -4.6214,7.061 -8.7425,14.382 -9.55,22.891 -1.403,14.785 -2.6575,29.594 -3.4533,44.42 -1.5628,29.089 -2.8305,58.195 -4.1058,87.301 -0.5459,12.403 -1.0549,24.817 -1.1361,37.233 -0.1077,16.022 -2.9396,32.028 -0.5287,48.065 1.2723,8.464 2.297,17.019 4.342,25.309 3.9824,16.139 9.4546,31.778 18.4477,45.962 3.6048,5.681 8.5985,9.637 14.8031,12.193 7.9591,3.277 16.3437,4.376 24.82558,4.702 17.9544,0.691 35.6715,-1.737 53.3296,-4.499 18.8578,-2.949 37.8495,-4.453 56.8729,-4.163 13.2951,0.202 26.6759,1.32 39.82,3.33 25.161,3.855 48.7545,11.955 69.2912,27.818 9.1617,7.076 18.8135,13.634 28.774,19.528 10.6227,6.291 22.3976,9.199 34.7806,6.434 20.1446,-4.506 31.8603,-17.655 37.3678,-37.154 2.7479,-9.728 -0.012,-17.639 -6.8504,-24.398 -3.4508,-3.408 -7.1471,-6.677 -11.1586,-9.393 -18.8142,-12.72 -39.6244,-21.393 -61.1923,-27.897 -25.3993,-7.66 -51.2126,-13.982 -76.7716,-21.124 -11.6016,-3.242 -23.0245,-7.069 -34.5332,-10.63 -2.8641,-0.887 -4.4,-2.502 -4.252,-5.804 0.1077,-2.385 -0.5183,-4.826 -0.9336,-7.222 -2.8089,-16.212 -8.5926,-31.491 -14.5444,-46.727 -7.9243,-20.29 -16.1028,-40.494 -23.4983,-60.978 -3.0355,-8.413 -4.3148,-17.456 -6.4905,-26.626 2.4139,-0.576 3.6275,-0.999 4.8707,-1.158 23.8336,-2.801 47.6678,-5.579 71.5073,-8.336 20.4989,-2.364 41.0232,-4.526 61.496,-7.109 14.0794,-1.78 26.9961,-6.615 37.7728,-16.276 8.8014,-7.893 16.2235,-16.607 18.1551,-28.831 1.9811,-12.531 -6.7344,-25.082 -19.19,-27.266 -9.0803,-1.595 -17.7443,0.798 -26.3105,3.375 -9.9808,3.003 -19.7386,6.967 -29.8762,9.212 -14.7272,3.259 -29.7663,2.937 -44.6794,0.787 -17.6494,-2.544 -34.8055,-6.91 -50.5174,-15.703 -14.6807,-8.217 -29.1314,-16.85699 -43.937,-24.83699 -13.9359,-7.51 -28.5065,-12.943 -44.3757,-12.834 z m 548.7061,66.25399 c -47.6178,-0.08 -95.228,-0.08 -142.8458,0 -4.0144,0 -8.1316,0.553 -12.0472,1.496 -18.881,4.549 -24.0329,20.832 -19.5276,37.886 1.6528,6.254 5.8328,10.688 11.5523,13.7 5.9287,3.129 12.3739,3.886 18.8864,3.915 22.8751,0.104 45.7526,0.06 68.6276,0.06 0,-0.121 3e-4,-0.242 -0.012,-0.369 17.4228,0 34.8328,0 52.2497,0 9.975,0 19.9638,0.311 29.9213,-0.09 14.2188,-0.57 23.742,-8.211 26.063,-20.675 0.691,-3.709 0.6332,-7.646 0.3484,-11.44 -0.6798,-8.973 -4.9822,-15.774 -13.0371,-20.056 -6.3208,-3.358 -13.1911,-4.415 -20.18,-4.432 z m -135.613,75.073 c -9.9807,0 -19.9633,0.196 -29.9324,0.742 -7.2736,0.398 -14.2544,2.426 -19.91,7.335 -9.0134,7.822 -9.6411,18.121 -7.4916,28.785 2.0886,10.335 9.2453,16.567 19.1564,18.402 9.057,1.67 18.4119,2.103 27.649,2.205 25.0943,0.276 50.1925,0.09 75.2868,0.09 l 0,-0.144 c 28.9285,0 57.8489,0.06 86.7716,-0.06 4.3834,0 8.8218,-0.467 13.1384,-1.249 13.8209,-2.512 21.8526,-11.636 22.3059,-24.949 0.5546,-16.144 -5.869,-25.674 -20.5961,-28.954 -6.9425,-1.545 -14.2408,-2.063 -21.3836,-2.092 -48.3267,-0.19 -96.662,-0.167 -144.9944,-0.109 z m 65.2531,75.332 c -34.7827,0.06 -69.57,0.109 -104.3531,0.201 -8.4645,0 -16.8881,0.926 -24.7919,4.534 -10.2452,4.679 -14.9712,12.89 -14.9044,23.835 0.067,11.152 4.55,20.126 15.4893,24.039 6.3295,2.271 13.2599,3.954 19.9438,4.026 34.8339,0.392 69.6708,0.179 104.5106,0.179 0,0 0.011,0 0.011,0 15.5608,0 31.1379,0.07 46.6929,0 23.1016,-0.144 46.2067,-0.253 69.3026,-0.742 4.6475,-0.1 9.4608,-1.256 13.847,-2.88 11.0526,-4.084 16.1769,-12.644 16.5691,-24.184 0.3139,-9.182 -2.9944,-16.639 -11.1248,-21.35 -8.2641,-4.796 -17.4045,-7.592 -26.8392,-7.616 -34.7875,-0.07 -69.5704,-0.07 -104.3531,-0.06 z m 120.6524,74.724 c -68.1894,0.138 -136.3775,0.236 -204.5668,0.357 -15.221,0.06 -30.4542,-0.06 -45.6693,0.236 -10.1173,0.19 -20.1611,1.305 -29.5725,5.467 -6.713,2.963 -12.1397,7.296 -14.5332,14.579 -4.636,14.097 2.2497,27.112 17.1541,32.451 9.7658,3.498 19.9552,4.25 30.1799,4.252 65.642,0 131.2817,-0.06 196.9178,-0.144 20.56,-0.06 41.1277,-0.07 61.676,-0.575 6.7681,-0.173 13.6665,-1.169 20.2138,-2.903 9.5217,-2.512 16.9711,-7.995 19.8874,-18.11 0.314,-1.071 0.7333,-2.106 1.1024,-3.16 0,-2.557 0,-5.107 0,-7.672 -2.7856,-11.442 -11.2872,-16.725 -21.631,-19.854 -10.1464,-3.064 -20.4982,-4.95 -31.1586,-4.927 z"
       id="path3-97"
       style="fill:#c84614;fill-opacity:1" />
  </g>
</svg>
