<?xml version="1.0" encoding="UTF-8" standalone="no"?>
<!-- Created with Inkscape (http://www.inkscape.org/) -->

<svg
   xmlns:dc="http://purl.org/dc/elements/1.1/"
   xmlns:cc="http://creativecommons.org/ns#"
   xmlns:rdf="http://www.w3.org/1999/02/22-rdf-syntax-ns#"
   xmlns:svg="http://www.w3.org/2000/svg"
   xmlns="http://www.w3.org/2000/svg"
   xmlns:sodipodi="http://sodipodi.sourceforge.net/DTD/sodipodi-0.dtd"
   xmlns:inkscape="http://www.inkscape.org/namespaces/inkscape"
   width="352.78mm"
   height="352.78mm"
   viewBox="0 0 1250.0079 1250.0079"
   id="svg29264"
   version="1.1"
   inkscape:version="0.48.4 r9939"
   sodipodi:docname="health_hospital.svg">
  <defs
     id="defs29266" />
  <sodipodi:namedview
     id="base"
     pagecolor="#ffffff"
     bordercolor="#666666"
     borderopacity="1.0"
     inkscape:pageopacity="0.0"
     inkscape:pageshadow="2"
     inkscape:zoom="0.70710678"
     inkscape:cx="1022.2051"
     inkscape:cy="692.59989"
     inkscape:document-units="px"
     inkscape:current-layer="layer1"
     showgrid="false"
     inkscape:window-width="1920"
     inkscape:window-height="1161"
     inkscape:window-x="1920"
     inkscape:window-y="0"
     inkscape:window-maximized="1" />
  <metadata
     id="metadata29269">
    <rdf:RDF>
      <cc:Work
         rdf:about="">
        <dc:format>image/svg+xml</dc:format>
        <dc:type
           rdf:resource="http://purl.org/dc/dcmitype/StillImage" />
        <dc:title />
      </cc:Work>
    </rdf:RDF>
  </metadata>
  <g
     inkscape:label="Layer 1"
     inkscape:groupmode="layer"
     id="layer1"
     transform="translate(0,197.64569)">
    <path
       style="opacity:1;fill:#4682be;fill-opacity:1"
       d="m 627.3166,20.441631 c -91.564,0 -183.582,0.275 -228.932,0.826 l -69.752,0.834 -9.869,2.931 c -31.434,9.304 -55.635,25.922 -74.324,51.038 -12.396,16.645 -22.157,39.391999 -24.631,57.354999 -1.721,12.531 -2.769,492.868 -1.236,551.166 l 1.101,41.383 4.141,12.344 c 7.717,23.044 17.29,38.479 34.392,55.769 17.318,17.398 37.862,29.471 61.391,36.086 8.928,2.528 10.676,2.583 116.004,3.309 156.393,1.048 253.788,1.101 376.084,-0.06 l 108.689,-0.834 11.106,-3.172 c 48.294,-13.66 84.516,-51.629 97.019,-101.725 l 2.797,-11.133 0.645,-246.097 c 0.43,-152.843 0.269,-263.066 -0.43,-290.897 -1.075,-41.733 -1.211,-45.553 -3.98,-55.906 -12.235,-47.379999 -47.621,-83.788999 -95.539,-98.362999 l -10.514,-3.172 -67.951,-0.861 c -43.535,-0.552 -134.647,-0.827 -226.211,-0.827 z"
       id="path4745-1"
       inkscape:connector-curvature="0" />
    <path
       style="font-size:medium;font-style:normal;font-variant:normal;font-weight:normal;font-stretch:normal;text-indent:0;text-align:start;text-decoration:none;line-height:normal;letter-spacing:normal;word-spacing:normal;text-transform:none;direction:ltr;block-progression:tb;writing-mode:lr-tb;text-anchor:start;baseline-shift:baseline;color:#000000;fill:#ffffff;fill-opacity:1;fill-rule:nonzero;stroke:none;stroke-width:28.7285881;marker:none;visibility:visible;display:inline;overflow:visible;enable-background:accumulate;font-family:Sans;-inkscape-font-specification:Sans"
       d="m 521.65625,108.84375 -170.3125,0.46865 0.4375,636.375 169.6875,0 0.1875,-254.6875 205.375,-0.25 0,254.40625 171.65625,0.71875 0,-637 -171.5,0 0,234.84375 -205.53125,0 0,-234.875 z"
       id="polygon4770"
       inkscape:connector-curvature="0"
       sodipodi:nodetypes="cccccccccccccc" />
  </g>
</svg>
