<?xml version="1.0" encoding="UTF-8" standalone="no"?>
<!-- Created with Inkscape (http://www.inkscape.org/) -->

<svg
   xmlns:dc="http://purl.org/dc/elements/1.1/"
   xmlns:cc="http://creativecommons.org/ns#"
   xmlns:rdf="http://www.w3.org/1999/02/22-rdf-syntax-ns#"
   xmlns:svg="http://www.w3.org/2000/svg"
   xmlns="http://www.w3.org/2000/svg"
   xmlns:sodipodi="http://sodipodi.sourceforge.net/DTD/sodipodi-0.dtd"
   xmlns:inkscape="http://www.inkscape.org/namespaces/inkscape"
   width="352.78mm"
   height="352.78mm"
   viewBox="0 0 1250.0079 1250.0079"
   id="svg4123"
   version="1.1"
   inkscape:version="0.91 r13725"
   sodipodi:docname="health_pharmacy.svg">
  <defs
     id="defs4125" />
  <sodipodi:namedview
     id="base"
     pagecolor="#ffffff"
     bordercolor="#666666"
     borderopacity="1.0"
     inkscape:pageopacity="0.0"
     inkscape:pageshadow="2"
     inkscape:zoom="0.5"
     inkscape:cx="80"
     inkscape:cy="520"
     inkscape:document-units="px"
     inkscape:current-layer="layer1"
     showgrid="false"
     inkscape:window-width="1920"
     inkscape:window-height="1018"
     inkscape:window-x="-8"
     inkscape:window-y="-8"
     inkscape:window-maximized="1" />
  <metadata
     id="metadata4128">
    <rdf:RDF>
      <cc:Work
         rdf:about="">
        <dc:format>image/svg+xml</dc:format>
        <dc:type
           rdf:resource="http://purl.org/dc/dcmitype/StillImage" />
        <dc:title></dc:title>
      </cc:Work>
    </rdf:RDF>
  </metadata>
  <g
     inkscape:label="Layer 1"
     inkscape:groupmode="layer"
     id="layer1"
     transform="translate(0,197.64569)">
    <path
       inkscape:connector-curvature="0"
       style="fill:#4682be;fill-opacity:1"
       d="m 600.54376,50.996379 c -7.7399,0.724 -10.8921,8.885 -8.3442,14.663 0.6917,7.946 1.3313,15.898 1.9292,23.858 9.8272,-1.573 19.7587,-2.475 29.6462,-2.653 13.9808,-0.311 28.2634,0.09 42.3767,1.591 0.091,-1.081 0.1814,-2.156 0.3018,-3.237 0.6099,-6.221 5.8717,-14.988 -1.5906,-19.616 -11.6167,-6.516 -25.5888,4.289 -37.4262,-0.731 -9.1564,-4.278 -15.5594,-13.996 -26.8864,-13.875 z m 30.4254,54.534001 c -71.3617,-0.06 -139.17,36.958 -140.4291,94.701 4.5734,115.755 209.0375,103.118 212.9649,153.371 5.1503,65.904 -205.6591,46.197 -202.1723,151.261 2.6386,80.935 198.915,88.489 199.0538,130.992 0.1509,49.27 -141.1955,63.193 -218.8671,100.899 8.2327,13.278 276.4718,-17.576 277.3233,-103.175 0.7784,-78.033 -198.7617,-88.156 -198.3838,-136.003 0.362,-45.535 208.5906,-49.097 207.1533,-145.576 -1.4396,-96.477 -205.6951,-90.137 -211.9569,-152.735 -0.2713,-32.019 45.6228,-41.77 79.8664,-37.514 17.7935,2.214 33.1691,19.584 50.8719,34.437 9.2534,7.763 25.3681,11.911 34.9386,14.156 9.5672,2.246 13.7666,1.154 21.407,-0.836 5.099,-1.325 -5.6543,-17.881 -1.4308,-20.828 3.6104,-2.514 22.4005,8.822 24.487,5.06 2.3874,-4.308 3.3744,-9.513 2.1948,-15.638 2.8889,-27.553 -47.9741,-70.148 -106.4182,-70.211 -10.1555,-1.57 -20.4112,-2.352 -30.6028,-2.361 z m 82.5259,24.366 c 11.8254,0 21.4103,9.582 21.4103,21.407 0,11.829 -9.5849,21.41 -21.4103,21.41 -11.8286,0 -21.4167,-9.581 -21.4167,-21.41 0,-11.825 9.5913,-21.407 21.4167,-21.407 z m -97.8622,49.64 c -5.5491,0.121 -11.0678,0.863 -16.3867,2.21 0.4711,12.366 0.8571,24.717 1.1981,37.072 7.5265,3.88 15.6083,7.083 23.4302,10.099 10.9017,4.109 22.0899,7.904 33.3047,11.692 0.5408,-14.002 1.117,-27.995 1.7638,-41.993 -6.8532,-6.403 -13.8027,-12.679 -22.7665,-16.722 -6.5779,-1.714 -13.5732,-2.512 -20.5436,-2.358 z m -25.462,143.086 c -7.1453,0.151 -14.1462,2.898 -16.7518,8.987 -2.584,9.891 5.4793,18.691 7.4839,28.092 4.4193,12.51 8.7672,25.096 12.595,37.782 19.6713,-6.222 39.7262,-11.617 58.7274,-19.137 0.3234,-7.125 0.6733,-14.241 1.1323,-21.353 1.3522,-5.205 3.8126,-10.289 5.944,-15.43 -4.0814,-1.5 -8.211,-2.878 -12.1664,-4.299 -14.72,-4.867 -29.8749,-9.313 -44.9006,-14.074 0,0.597 0.032,1.192 0.032,1.793 -3.4724,-1.615 -7.813,-2.452 -12.0999,-2.361 z m 59.2956,146.832 c -15.5361,5.187 -31.0562,10.361 -46.0995,16.553 0,8.658 0.032,17.308 0.064,25.966 14.9743,7.224 30.7512,13.108 46.6636,18.763 4.0429,-16.97 10.3609,-33.496 15.6894,-50.121 -0.064,-7.006 -9.7959,-9.91 -16.4196,-8.395 0.032,-0.921 0.056,-1.842 0.091,-2.766 z m -46.0634,135.931 c 0,5.872 -0.064,11.741 -0.091,17.613 -6.5868,-0.272 -12.7547,6.029 -9.0384,11.574 5.2073,13.287 10.4275,26.863 9.6033,41.019 14.1462,-4.293 28.1424,-8.909 41.6129,-14.603 0.2415,-13.661 0.516,-27.306 0.6941,-40.964 -7.2328,-2.726 -14.6566,-5.15 -21.9985,-7.541 -6.8596,-2.391 -13.8027,-4.743 -20.7739,-7.098 z m 42.0116,130.603 c -13.6366,3.939 -27.4875,7.336 -41.4804,10.219 0.1509,19.173 0.305,38.343 0.5016,57.514 16.1026,-8.807 35.27,-16.375 44.07,-32.155 2.2887,-5.796 -3.6922,-10.793 -2.3938,-16.668 -0.3017,-6.303 -0.5312,-12.604 -0.6974,-18.91 z"
       id="path3964" />
  </g>
</svg>
