<?xml version="1.0" encoding="UTF-8" standalone="no"?>
<!-- Created with Inkscape (http://www.inkscape.org/) -->

<svg
   xmlns:dc="http://purl.org/dc/elements/1.1/"
   xmlns:cc="http://creativecommons.org/ns#"
   xmlns:rdf="http://www.w3.org/1999/02/22-rdf-syntax-ns#"
   xmlns:svg="http://www.w3.org/2000/svg"
   xmlns="http://www.w3.org/2000/svg"
   xmlns:sodipodi="http://sodipodi.sourceforge.net/DTD/sodipodi-0.dtd"
   xmlns:inkscape="http://www.inkscape.org/namespaces/inkscape"
   width="352.78mm"
   height="352.78mm"
   viewBox="0 0 1250.0079 1250.0079"
   id="svg8392"
   version="1.1"
   inkscape:version="0.91 r13725"
   sodipodi:docname="leisure_stadium.svg">
  <defs
     id="defs8394" />
  <sodipodi:namedview
     id="base"
     pagecolor="#ffffff"
     bordercolor="#666666"
     borderopacity="1.0"
     inkscape:pageopacity="0.0"
     inkscape:pageshadow="2"
     inkscape:zoom="0.5"
     inkscape:cx="80"
     inkscape:cy="520"
     inkscape:document-units="px"
     inkscape:current-layer="layer1"
     showgrid="false"
     inkscape:window-width="1920"
     inkscape:window-height="1018"
     inkscape:window-x="-8"
     inkscape:window-y="-8"
     inkscape:window-maximized="1" />
  <metadata
     id="metadata8397">
    <rdf:RDF>
      <cc:Work
         rdf:about="">
        <dc:format>image/svg+xml</dc:format>
        <dc:type
           rdf:resource="http://purl.org/dc/dcmitype/StillImage" />
        <dc:title></dc:title>
      </cc:Work>
    </rdf:RDF>
  </metadata>
  <g
     inkscape:label="Layer 1"
     inkscape:groupmode="layer"
     id="layer1"
     transform="translate(0,197.64569)">
    <path
       inkscape:connector-curvature="0"
       style="color:#000000;font-style:normal;font-variant:normal;font-weight:normal;font-stretch:normal;font-size:medium;line-height:normal;font-family:Sans;-inkscape-font-specification:Sans;text-indent:0;text-align:start;text-decoration:none;text-decoration-line:none;letter-spacing:normal;word-spacing:normal;text-transform:none;direction:ltr;block-progression:tb;writing-mode:lr-tb;baseline-shift:baseline;text-anchor:start;display:inline;overflow:visible;visibility:visible;fill:#821432;fill-opacity:1;stroke:none;stroke-width:20;marker:none;enable-background:accumulate"
       d="m 624.96146,211.86882 c -101.8007,0 -193.9006,9.697 -262.6819,26.089 -34.3912,8.196 -62.9292,17.864 -84.8832,30.234 -21.954,12.37 -39.902,29.389 -39.902,51.498 0,10.026 3.698,19.003 9.78,26.976 -0.852,0.279 -1.335,0.844 -1.335,1.734 0,19.827 48.022,232.841 67.139,243.934 19.116,11.094 43.9652,19.767 73.9102,27.118 59.8898,14.7 140.1275,23.396 228.7679,23.396 88.6404,0 168.8075,-8.696 228.6971,-23.396 29.94478,-7.351 54.86488,-16.024 73.98108,-27.118 18.445,-10.704 68.8928,-202.263 72.4136,-233.517 12.83266,-10.647 21.66526,-23.633 21.66526,-39.127 0,-22.109 -17.94796,-39.128 -39.90236,-51.498 -21.9543,-12.37 -50.5741,-22.038 -84.9649,-30.234 -68.78108,-16.392 -160.88428,-26.089 -262.68478,-26.089 z m 0,43.483 c 25.5205,0 50.3941,0.67 74.3539,1.903 l -6.402,86.123 c -21.0824,-0.724 -42.1757,-1.025 -63.223,-0.96 -21.1757,0.225 -42.3923,0.814 -63.5814,1.85 l -1.3356,0.653 -0.1442,-0.587 c -33.6032,1.678 -67.1334,4.519 -100.3253,8.949 l 0.64,1.172 -0.8925,1.261 -1.7758,-2.155 c -21.4573,2.907 -42.7702,6.485 -63.866,10.85 -7.5018,-1.504 -14.754,-3.065 -21.627,-4.704 -30.988,-7.386 -55.3632,-16.227 -69.9722,-24.46 -14.609,-8.23 -16.878,-13.89 -16.878,-15.557 0,-1.668 2.269,-7.261 16.878,-15.491 14.609,-8.232 38.9842,-17.072 69.9722,-24.456 6.646,-1.585 13.6582,-3.097 20.8931,-4.557 l 64.5999,78.375 c 0.6763,-0.09 1.3517,-0.188 2.0283,-0.278 l -44.7926,-82.154 c 36.3141,-6.217 78.3552,-10.893 123.9925,-13.48 l 21.1254,86.685 c 0.493,-0.02 0.9864,-0.04 1.4793,-0.06 l 1.2475,-0.61 -6.4547,-86.884 c 20.7726,-0.916 42.1642,-1.422 64.0598,-1.422 z m 91.6397,2.901 c 45.6719,2.932 87.4871,7.971 123.2352,14.53 l -42.644,78.211 c -33.5831,-3.913 -67.4527,-6.293 -101.3614,-7.523 l 20.7702,-85.218 z m 144.48378,18.737 c 4.1492,0.896 8.2013,1.813 12.1403,2.753 30.9879,7.384 55.2802,16.224 69.8893,24.456 14.609,8.23 16.9601,13.823 16.9601,15.491 0,1.667 -2.3511,7.327 -16.9601,15.557 -14.6091,8.233 -38.9014,17.074 -69.8893,24.46 -2.3685,0.564 -4.849,1.105 -7.2942,1.655 -21.85858,-4.099 -43.91648,-7.414 -66.10258,-10.053 l 61.25648,-74.319 z m -578.99458,96.744 c 21.274,11.171 48.196,20.13 80.1892,27.754 68.7813,16.392 160.8813,26.089 262.6819,26.089 101.8005,0 193.9037,-9.697 262.68478,-26.089 30.0079,-7.151 55.6177,-15.475 76.2443,-25.698 -47.587,125.377 -117.15658,188.948 -208.32638,216.583 l 0,-78.371 c 0.9397,-82.548 -223.8846,-95.916 -246.5788,0 l 0,88.194 c 0,0.09 0.015,0.185 0.015,0.278 -109.5069,-18.711 -190.829,-76.65 -226.91,-228.74 z"
       id="path8348" />
  </g>
</svg>
