<?xml version="1.0" encoding="UTF-8" standalone="no"?>
<!-- Created with Inkscape (http://www.inkscape.org/) -->

<svg
   xmlns:dc="http://purl.org/dc/elements/1.1/"
   xmlns:cc="http://creativecommons.org/ns#"
   xmlns:rdf="http://www.w3.org/1999/02/22-rdf-syntax-ns#"
   xmlns:svg="http://www.w3.org/2000/svg"
   xmlns="http://www.w3.org/2000/svg"
   xmlns:sodipodi="http://sodipodi.sourceforge.net/DTD/sodipodi-0.dtd"
   xmlns:inkscape="http://www.inkscape.org/namespaces/inkscape"
   width="352.78mm"
   height="352.78mm"
   viewBox="0 0 1250.0079 1250.0079"
   id="svg9175"
   version="1.1"
   inkscape:version="0.91 r13725"
   sodipodi:docname="money_money_exchange.svg">
  <defs
     id="defs9177" />
  <sodipodi:namedview
     id="base"
     pagecolor="#ffffff"
     bordercolor="#666666"
     borderopacity="1.0"
     inkscape:pageopacity="0.0"
     inkscape:pageshadow="2"
     inkscape:zoom="0.5"
     inkscape:cx="80"
     inkscape:cy="520"
     inkscape:document-units="px"
     inkscape:current-layer="layer1"
     showgrid="false"
     inkscape:window-width="1920"
     inkscape:window-height="1018"
     inkscape:window-x="-8"
     inkscape:window-y="-8"
     inkscape:window-maximized="1" />
  <metadata
     id="metadata9180">
    <rdf:RDF>
      <cc:Work
         rdf:about="">
        <dc:format>image/svg+xml</dc:format>
        <dc:type
           rdf:resource="http://purl.org/dc/dcmitype/StillImage" />
        <dc:title></dc:title>
      </cc:Work>
    </rdf:RDF>
  </metadata>
  <g
     inkscape:label="Layer 1"
     inkscape:groupmode="layer"
     id="layer1"
     transform="translate(0,197.64569)">
    <path
       inkscape:connector-curvature="0"
       d="m 517.02752,99.869047 c -16.354,0 -32.713,0.01 -49.078,0 -9.858,2.213503 -19.827,4.016403 -29.552,6.706903 -98.379,27.2049 -156.822,91.2583 -176.166,191.3016 -0.688,3.5504 -1.847,7.0093 -2.79,10.5097 l 0,49.0609 c 0.899,3.0788 2.086,6.1133 2.652,9.2532 16.454,92.066 68.716,154.3082 156.294,186.5557 23.71,8.7317 48.558,12.5223 75.357,11.9398 -8.31,-52.9895 -1.281,-102.736 19.028,-151.5483 -12.01,4.2993 -21.934,7.843 -32.464,11.6153 -0.443,5.6196 -0.932,11.5882 -1.453,18.0399 l -23.987,0 c 0,-4.5601 0.898,-8.5054 -0.278,-11.723 -1.237,-3.4671 -3.9,-8.3106 -6.79,-9.0041 -36.585,-8.7761 -49.944,-33.8274 -45.456,-75.3892 l 53.417,0 c 0,12.0547 -0.694,23.1048 0.388,33.9889 0.388,3.6003 5.298,6.7369 8.138,10.0876 3.418,-2.9624 8.71,-5.299 9.914,-8.9825 5.608,-17.1251 -1.975,-36.569 -17.192,-46.904 -11.15,-7.5779 -22.928,-14.3857 -33.363,-22.8401 -20.37,-16.5148 -26.056,-38.8734 -21.962,-63.9369 3.323,-20.3482 16.404,-32.7174 35.681,-37.7601 11.256,-2.9402 21.436,-5.0465 17.802,-20.1634 l 22.967,0 c 2.607,14.8672 2.613,14.8667 17.336,19.9038 25.496,8.7206 38.438,32.9887 31.476,59.722 l -51.17,0 c -0.721,-7.9551 -0.577,-15.4231 -2.374,-22.3741 -0.86,-3.3119 -5.564,-8.0112 -8.255,-7.8447 -3.206,0.2052 -8.088,4.5334 -8.809,7.823 -2.352,10.7843 -1.431,21.2097 9.347,28.1163 14.44,9.2643 28.736,18.7416 43.104,28.1169 16.776,10.9507 24.27,27.0551 25.513,46.4602 0.444,6.6347 0.06,13.3278 0.06,19.9903 23.171,-28.797 48.246,-53.6031 78.413,-73.1358 30.484,-19.7379 63.885,-32.1504 100.071,-39.1791 -1.57,-4.6044 -2.557,-8.1021 -3.933,-11.4417 -25.224,-61.2497 -68.195,-105.2118 -129.717,-129.7262 -19.871,-7.9162 -41.423,-11.6297 -62.204,-17.260403 z m 197.979,15.049803 c -4.1,23.5879 -3.406,24.8793 16.653,33.5667 20.715,8.9703 32.12,25.8263 41.701,47.5114 l -32.342,0 c 16.487,26.9774 31.848,52.1136 48.291,79.0189 17.175,-26.8831 33.068,-51.7758 50.155,-78.5313 -5.06,-0.2718 -7.162,-0.7777 -9.109,-0.4216 -19.161,3.4783 -29.291,-3.7789 -37.046,-22.6126 -13.991,-33.9839 -41.035,-53.7984 -78.303,-58.5304 z m 46.221,174.2043 c -12.975,-0.2108 -26.112,0.6523 -39.298,2.6544 -105.358,15.9879 -186.168,101.768 -196.653,208.7568 -10.24,104.4646 53.045,204.0719 153.288,239.8309 18.318,6.5294 37.829,9.7486 56.79,14.4973 14.717,0 29.44,0.01 44.163,0 5.942,-1.3203 11.855,-2.8964 17.852,-3.9226 147.291,-25.0858 233.40498,-183.184 174.457,-320.3455 -36.857,-85.7707 -119.77,-139.9952 -210.599,-141.4824 z m 3.878,106.2254 c 9.398,0.089 18.862,1.2465 28.204,3.5431 8.115,1.9916 11.45,5.2446 10.934,14.0097 -0.805,13.8132 -0.222,27.7152 -0.222,43.4478 -39.493,-17.6964 -73.222,-12.783 -102.629,23.8692 l 101.924,0 0,23.5013 -112.414,0 c 0,11.4944 0,20.6494 0,30.9012 l 112.142,0 0,23.685 -100.276,0 c 13.397,32.7967 52.501,42.9735 101.131,26.4809 0,17.0141 0.499,33.5018 -0.5,49.8835 -0.166,2.6406 -6.734,6.0817 -10.845,7.108 -56.512,14.0351 -116.242,-13.8221 -140.656,-67.3498 -6.069,-13.325 -12.993,-17.8396 -26.279,-15.9923 -3.939,0.5548 -8.016,0.1 -12.959,0.1 l 0,-23.7072 26.157,0 0,-30.3808 -26.184,0 0,-23.0026 c 11.272,-0.9098 24.381,1.6781 32.23,-3.5865 8.05,-5.4032 10.119,-19.0417 16.243,-28.0952 23.705,-35.0129 63.269,-54.793 103.994,-54.413 z m -302.61,198.6259 c -17.003,26.6057 -32.896,51.4967 -50.52,79.0844 8.737,0 14.739,0.5852 20.597,-0.1165 11.362,-1.3536 17.286,2.843 21.58,13.9657 8.515,22.0513 21.419,41.7204 42.799,53.5033 10.934,6.0246 23.155,9.7103 34.794,14.4534 2.446,0 4.909,0.01 7.367,0 -0.5,-9.3253 -0.954,-18.6495 -1.42,-27.7807 -36.203,-14.8728 -50.205,-27.7063 -57.361,-53.5354 l 30.866,0 c -16.809,-27.46 -32.248,-52.6883 -48.702,-79.5714 z"
       id="path3-94"
       style="fill:#3c3c3c;fill-opacity:1" />
  </g>
</svg>
