<?xml version="1.0" encoding="UTF-8" standalone="no"?>
<!-- Created with Inkscape (http://www.inkscape.org/) -->

<svg
   xmlns:dc="http://purl.org/dc/elements/1.1/"
   xmlns:cc="http://creativecommons.org/ns#"
   xmlns:rdf="http://www.w3.org/1999/02/22-rdf-syntax-ns#"
   xmlns:svg="http://www.w3.org/2000/svg"
   xmlns="http://www.w3.org/2000/svg"
   xmlns:sodipodi="http://sodipodi.sourceforge.net/DTD/sodipodi-0.dtd"
   xmlns:inkscape="http://www.inkscape.org/namespaces/inkscape"
   width="352.78mm"
   height="352.78mm"
   viewBox="0 0 1250.0079 1250.0079"
   id="svg18546"
   version="1.1"
   inkscape:version="0.91 r13725"
   sodipodi:docname="shop_supermarket.svg">
  <defs
     id="defs18548" />
  <sodipodi:namedview
     id="base"
     pagecolor="#ffffff"
     bordercolor="#666666"
     borderopacity="1.0"
     inkscape:pageopacity="0.0"
     inkscape:pageshadow="2"
     inkscape:zoom="0.5"
     inkscape:cx="80"
     inkscape:cy="520"
     inkscape:document-units="px"
     inkscape:current-layer="layer1"
     showgrid="false"
     inkscape:window-width="1920"
     inkscape:window-height="1018"
     inkscape:window-x="-8"
     inkscape:window-y="-8"
     inkscape:window-maximized="1" />
  <metadata
     id="metadata18551">
    <rdf:RDF>
      <cc:Work
         rdf:about="">
        <dc:format>image/svg+xml</dc:format>
        <dc:type
           rdf:resource="http://purl.org/dc/dcmitype/StillImage" />
        <dc:title></dc:title>
      </cc:Work>
    </rdf:RDF>
  </metadata>
  <g
     inkscape:label="Layer 1"
     inkscape:groupmode="layer"
     id="layer1"
     transform="translate(0,197.64569)">
    <path
       inkscape:connector-curvature="0"
       d="m 960.20551,120.0621 c -7.509,0 -69.653,21.2445 -82.9891,28.3931 -3.2143,1.682 -6.5181,11.3146 -10.1522,29.216 -3.0039,14.6877 -6.007,28.345 -6.758,30.3874 0,0.4506 0,0.7509 0.2999,1.1114 -57.068,-0.3004 -158.4093,-0.3605 -273.6577,-0.3605 l -322.617,0 25.6509,154.1119 25.6804,154.0518 10.333,1.4717 c 5.6767,0.8109 110.9529,11.5939 234.0102,23.7585 l 223.738,22.1756 0,29.4503 0,29.3902 -223.738,0 c -241.069,0 -234.311,-0.4505 -241.76,15.0751 -4.565,9.6716 0,26.2394 8.1096,30.6247 3.004,1.652 19.5239,3.0036 36.9443,3.0036 l 31.6283,0 0,12.9636 c 0,17.9015 8.7407,33.6704 23.5779,42.531 34.0012,20.3944 76.2015,-4.3883 76.5023,-44.8768 l 0,-10.6178 105.4265,0 105.4265,0 1.2013,16.601 c 1.502,20.1241 9.2204,32.3878 25.9811,40.9481 32.91911,16.6699 73.22811,-8.9958 73.4375,-46.9914 l 0,-10.6177 12.9163,0 13.0049,0 0,-52.2116 0,-52.1516 38.5967,-178.6332 c 21.1753,-98.2779 38.5358,-179.0628 38.5958,-179.4532 l -0.2999,0 3.12391,-9.149 c 3.003,-8.9507 5.1656,-10.3954 26.161,-17.4239 40.0682,-13.426 47.09657,-19.0218 47.09657,-37.1936 -10e-6,-12.0445 -13.51598,-25.6357 -25.41008,-25.6357 z m -202.142,137.1565 0,27.2217 0,27.2186 -40.1282,0 c -30.8773,0 -40.4889,-0.871 -41.5997,-3.8116 -0.9013,-2.0725 -1.2012,-13.9637 -0.6006,-26.3986 l 0.90051,-22.6442 40.7592,-0.811 40.7288,-0.7509 z m -434.5911,0.3003 61.4834,0 61.4235,0 0,27.1045 0,27.2187 -57.2478,0 c -43.3121,0 -57.5191,-0.8711 -58.3301,-3.5773 -2.4033,-7.8093 -7.329,-37.8393 -7.329,-44.1168 l 0,-6.6291 z m 145.7946,0 40.0082,0 40.0682,0 0,27.1045 0,27.1616 -40.0682,0 -40.0082,0 0,-27.1616 0,-27.1045 z m 102.8737,0 40.0682,0 40.0378,0 0,27.1045 0,27.1616 -40.0378,0 -40.0682,0 0,-27.1616 0,-27.1045 z m 208.7505,0 34.3011,0 c 18.89201,0 34.2707,0.9011 34.2107,2.1026 0,1.1714 -2.4024,13.0927 -5.1057,26.4587 l -4.98649,24.3472 -29.22501,0.7509 -29.1946,0.811 0,-27.2787 0,-27.2216 z m 0,77.1446 25.6804,0 c 22.587,0 25.7413,0.6608 25.6509,5.046 0,2.7333 -3.6046,21.0674 -7.9897,40.7108 l -7.6289,35.785 -17.842,0.811 -17.8707,0.871 0,-41.6509 0,-41.5939 z m -311.7441,0 40.0082,0 40.0682,0 0,41.4167 0,41.4767 -40.0682,0 -40.0082,0 0,-41.4767 0,-41.4167 z m 102.8737,0 40.0673,0 40.0387,0 0,41.4167 0,41.4767 -40.0387,0 -40.0673,0 0,-41.4767 0,-41.4167 z m -179.8559,0.6308 52.6829,0.7509 0,40.0079 0,40.008 -46.5255,0.811 c -37.2746,0.6308 -46.8262,0 -48.0274,-3.1689 -3.6645,-9.5213 -14.4782,-75.0419 -12.7355,-77.0243 0.9005,-1.2315 25.6205,-1.8322 54.6055,-1.4117 z m 284.2907,0.7509 40.0082,0 40.0082,0 0,40.0079 0,0 0,40.008 -39.4076,0.811 c -30.667,0.6308 -39.6779,-0.018 -40.7888,-3.0036 -0.9013,-2.0725 -1.2012,-20.4665 -0.6006,-40.831 l 0.9005,-37.0164 z m 81.488,104.1859 0,35.845 c 0,26.9123 -0.9014,35.7338 -3.3942,35.4335 -49.439,-4.7157 -74.79,-8.1908 -76.9222,-10.3835 -1.5019,-1.4718 -2.4033,-15.4145 -1.8027,-31.0332 l 0.6015,-28.2759 40.7584,-0.811 40.7288,-0.7509 z m -288.7965,0 40.0082,0 40.0682,0 0,25.7529 c 0,18.8926 -0.9014,25.6417 -3.635,25.4616 -1.8018,-0.3004 -18.9824,-2.1326 -37.8448,-4.106 -18.8928,-2.1025 -35.3224,-3.8687 -36.4941,-3.9888 -1.2012,0 -2.1025,-9.7827 -2.1025,-21.647 l 0,-21.4727 z m 102.8737,0 40.0673,0 40.0387,0 0,30.0961 0,30.036 -10.6329,-0.4205 c -5.9175,-0.3004 -23.9386,-1.652 -40.0682,-3.2258 l -29.345,-2.8234 0,-26.8672 0,-26.8102 z m -217.7615,0 46.0153,0 45.9848,0 0,20.004 0,20.0069 -12.134,-0.4805 c -6.698,-0.3003 -25.9516,-1.7121 -42.8314,-3.2859 -33.4606,-3.0637 -31.6283,-1.8322 -35.0825,-24.11 l -1.8018,-12.1435 z m 426.5111,0 15.2883,0 15.3187,0 -7.6289,36.3736 c -7.389,35.2022 -7.8993,36.4937 -15.2883,37.545 l -7.6898,0.7509 0,-37.3107 0,-37.3708 z"
       id="path6-6"
       style="fill:#a01914;fill-opacity:1" />
  </g>
</svg>
