<?xml version="1.0" encoding="UTF-8" standalone="no"?>
<!-- Created with Inkscape (http://www.inkscape.org/) -->

<svg
   xmlns:dc="http://purl.org/dc/elements/1.1/"
   xmlns:cc="http://creativecommons.org/ns#"
   xmlns:rdf="http://www.w3.org/1999/02/22-rdf-syntax-ns#"
   xmlns:svg="http://www.w3.org/2000/svg"
   xmlns="http://www.w3.org/2000/svg"
   xmlns:sodipodi="http://sodipodi.sourceforge.net/DTD/sodipodi-0.dtd"
   xmlns:inkscape="http://www.inkscape.org/namespaces/inkscape"
   width="352.78mm"
   height="352.78mm"
   viewBox="0 0 1250.0079 1250.0079"
   id="svg15893"
   version="1.1"
   inkscape:version="0.91 r13725"
   sodipodi:docname="shop_car_repair.svg">
  <defs
     id="defs15895" />
  <sodipodi:namedview
     id="base"
     pagecolor="#ffffff"
     bordercolor="#666666"
     borderopacity="1.0"
     inkscape:pageopacity="0.0"
     inkscape:pageshadow="2"
     inkscape:zoom="0.5"
     inkscape:cx="80"
     inkscape:cy="520"
     inkscape:document-units="px"
     inkscape:current-layer="layer1"
     showgrid="false"
     inkscape:window-width="1920"
     inkscape:window-height="1018"
     inkscape:window-x="-8"
     inkscape:window-y="-8"
     inkscape:window-maximized="1" />
  <metadata
     id="metadata15898">
    <rdf:RDF>
      <cc:Work
         rdf:about="">
        <dc:format>image/svg+xml</dc:format>
        <dc:type
           rdf:resource="http://purl.org/dc/dcmitype/StillImage" />
        <dc:title></dc:title>
      </cc:Work>
    </rdf:RDF>
  </metadata>
  <g
     inkscape:label="Layer 1"
     inkscape:groupmode="layer"
     id="layer1"
     transform="translate(0,197.64569)">
    <path
       inkscape:connector-curvature="0"
       d="m 823.31683,57.139073 c -44.3575,0 -65.376,9.126 -96.3571,41.98463 l -21.5304,22.791297 -168.7268,0 -168.7955,0 -17.6064,10.1297 c -9.6559,5.5618 -20.4723,14.7917 -23.9874,20.5922 -21.9392,36.0657 -2.0467,82.9647 38.8635,91.6996 8.8719,1.9107 89.2262,4.4364 178.9299,5.6648 l 162.8584,2.2655 21.6668,20.6588 c 24.4642,23.4413 35.7237,31.0089 54.7978,37.2531 l 0,0.3412 c 8.189,2.6614 25.0447,4.0454 43.5718,3.4653 26.2393,-0.8189 33.1659,-2.3202 51.5907,-11.3957 11.6692,-5.7663 28.6613,-18.0768 37.7033,-27.3235 l 16.4467,-16.7936 -31.4937,-0.3412 c -49.7142,-0.3071 -51.2155,-0.9417 -94.2418,-37.5861 -21.1886,-18.0157 -38.5218,-34.019 -38.5218,-35.5203 0,-1.5354 17.7764,-17.8622 39.7164,-36.2533 l 39.6485,-33.3876 41.7975,0 c 23.2024,0 41.7638,-1.3921 41.7638,-3.0675 0,-5.9028 -38.4196,-37.243027 -56.5042,-46.182727 -16.2072,-7.9843 -22.1101,-8.9966 -51.59,-8.9966 z M 390.76773,155.5694 c 4.2994,-0.4982 8.8375,1.1498 15.6611,4.6649 16.9922,8.8032 20.6432,33.4267 6.79,45.9832 -12.5899,11.3963 -36.3386,9.1085 -43.4696,-4.1986 -7.0631,-13.2388 -4.2993,-29.0726 6.6878,-38.3193 5.9372,-4.9987 10.0314,-7.6311 14.3307,-8.1302 z m 68.3098,207.9902 -21.3258,64.2429 c -28.7636,86.7008 -34.2911,98.6591 -46.2677,101.6959 -14.6038,3.6168 -29.1046,15.4038 -34.2568,27.7896 -3.4121,7.609 -5.323,37.5244 -6.9952,97.031 l -2.3884,85.8348 28.4569,0.9998 28.3203,0.9997 4.2651,16.9935 c 13.1704,51.7953 83.6642,51.0365 98.3703,-1.0645 l 4.4694,-15.9276 100.6222,-0.8667 100.5543,0.8667 4.4695,15.9276 c 14.8082,52.102 85.2334,52.8612 98.4382,1.0645 l 4.265,-16.9935 28.3203,-0.9997 28.5249,-0.9998 -2.3885,-85.8348 c -1.7057,-59.5066 -3.7867,-89.422 -6.9944,-97.031 -5.1866,-12.3175 -19.6195,-24.1046 -34.2911,-27.7896 -11.9423,-3.0368 -17.5042,-14.9951 -46.2677,-101.6959 l -21.3259,-64.2429 -153.2703,0.7983 -153.2702,-0.7983 z m 145.0133,47.8489 0,0.067 c 2.7295,-0.035 5.4254,0.035 8.1891,0 2.7294,0 5.4932,-0.035 8.257,0 l 0,-0.067 c 49.0657,-0.1024 91.1706,1.4638 93.4911,4.3981 3.0704,3.7193 35.0074,104.4956 35.0074,110.1597 0,0.9894 -54.2515,1.6411 -120.7534,1.3341 l -7.0624,0 0,-0.1365 c -2.7302,0 -6.0059,0 -8.9397,0.068 -3.0712,-0.068 -6.0394,-0.068 -8.8718,-0.068 l 0,0.1365 -7.0631,0 c -66.5012,0.3411 -120.8214,-0.3447 -120.8214,-1.3341 0,-5.6641 32.1422,-106.4404 35.1104,-110.1597 2.3884,-2.9343 44.4254,-4.5005 93.4568,-4.3981 z m -146.4801,181.6664 c 25.8975,0 41.9682,16.3715 41.9682,42.9175 0,34.4278 -34.6671,53.9684 -64.1127,35.9868 -25.2156,-15.3202 -28.2868,-47.6438 -6.3811,-67.7751 10.1678,-9.2808 14.809,-11.1292 28.5256,-11.1292 z m 309.4064,0 c 13.7166,0 18.3913,1.8153 28.5934,11.1292 21.8371,20.1313 18.7666,52.4549 -6.4147,67.7751 -29.4463,17.9816 -64.0791,-1.5252 -64.0791,-35.9868 0,-26.5119 16.0371,-42.9175 41.9004,-42.9175 z"
       id="path3-6"
       style="fill:#a01914;fill-opacity:1" />
  </g>
</svg>
