<?xml version="1.0" encoding="UTF-8" standalone="no"?>
<!-- Created with Inkscape (http://www.inkscape.org/) -->

<svg
   xmlns:dc="http://purl.org/dc/elements/1.1/"
   xmlns:cc="http://creativecommons.org/ns#"
   xmlns:rdf="http://www.w3.org/1999/02/22-rdf-syntax-ns#"
   xmlns:svg="http://www.w3.org/2000/svg"
   xmlns="http://www.w3.org/2000/svg"
   xmlns:sodipodi="http://sodipodi.sourceforge.net/DTD/sodipodi-0.dtd"
   xmlns:inkscape="http://www.inkscape.org/namespaces/inkscape"
   width="352.78mm"
   height="352.78mm"
   viewBox="0 0 1250.0079 1250.0079"
   id="svg20523"
   version="1.1"
   inkscape:version="0.91 r13725"
   sodipodi:docname="special_bicycle.svg">
  <defs
     id="defs20525" />
  <sodipodi:namedview
     id="base"
     pagecolor="#ffffff"
     bordercolor="#666666"
     borderopacity="1.0"
     inkscape:pageopacity="0.0"
     inkscape:pageshadow="2"
     inkscape:zoom="0.5"
     inkscape:cx="80"
     inkscape:cy="520"
     inkscape:document-units="px"
     inkscape:current-layer="layer1"
     showgrid="false"
     inkscape:window-width="1920"
     inkscape:window-height="1018"
     inkscape:window-x="-8"
     inkscape:window-y="-8"
     inkscape:window-maximized="1" />
  <metadata
     id="metadata20528">
    <rdf:RDF>
      <cc:Work
         rdf:about="">
        <dc:format>image/svg+xml</dc:format>
        <dc:type
           rdf:resource="http://purl.org/dc/dcmitype/StillImage" />
        <dc:title></dc:title>
      </cc:Work>
    </rdf:RDF>
  </metadata>
  <g
     inkscape:label="Layer 1"
     inkscape:groupmode="layer"
     id="layer1"
     transform="translate(0,197.64569)">
    <path
       inkscape:connector-curvature="0"
       d="m 607.36999,208.6108 c -21.4018,0 -42.7764,0 -64.0713,0.055 -6.0875,3.0574 -10.0816,7.8509 -13.1927,13.9389 -22.6082,44.1713 -45.4921,88.1823 -68.288,132.2731 -0.5902,1.18 -1.2313,2.3643 -1.687,3.2225 -10.2449,-2.4673 -19.9827,-5.4422 -29.9868,-7.1587 -41.7571,-7.2411 -80.50961,0.9107 -115.13331,25.4771 -35.911,25.5051 -56.9119,60.315 -62.2758,104.3522 -0.1606,1.475 -0.6954,2.8668 -1.0708,4.3687 l 0,24.5471 c 0.3765,1.475 0.9152,2.8889 1.1029,4.4444 3.7283,32.4513 16.6779,60.8303 39.3404,84.163 37.4662,38.432 83.20031,53.8561 136.43651,45.5689 40.1216,-6.3024 72.5933,-26.0984 96.9987,-58.4155 23.6546,-31.3786 32.9882,-66.8832 28.3751,-106.0392 -3.6204,-30.5203 -15.5762,-57.4011 -36.3877,-79.9024 -9.4405,-10.1377 -20.3615,-18.8785 -31.0355,-28.7211 6.0881,-11.8274 12.7176,-24.5941 19.5836,-37.8696 39.9876,56.4813 79.6225,112.2405 118.8854,168.1854 5.257,7.5899 11.5023,10.8113 20.46,10.5434 15.126,-0.3217 30.3345,-0.01 45.4606,-0.1407 3.1913,0 4.8046,0.5977 5.2337,4.3255 3.5136,30.1181 15.3901,56.7929 35.88,78.9724 40.0679,43.3131 89.8487,59.1991 147.5635,47.6668 78.8756,-15.6892 131.57591,-93.9487 116.0745,-172.7704 -16.5744,-84.1588 -98.1343,-134.8 -180.3618,-118.1721 -64.2053,12.9805 -112.2382,65.9529 -119.3184,127.3421 -0.1606,1.341 -1.7977,3.4558 -2.7899,3.5361 -11.747,0.2414 -23.5179,0.1079 -36.0959,0.1079 3.808,-13.4364 7.4301,-26.0102 10.9431,-38.5616 11.3982,-40.0411 22.7671,-80.1103 34.085,-120.205 0.9922,-3.6743 2.7362,-5.3409 6.8128,-5.1798 7.1871,0.268 14.3958,-0.1307 21.5297,-0.2381 10.9425,-0.2142 18.19,-7.2636 18.1346,-17.6695 0,-10.3791 -7.3554,-17.4143 -18.4048,-17.2803 -12.2564,0.1611 -24.4563,1.1821 -36.7127,0.9408 -16.1182,-0.3217 -31.2669,4.484 -46.6609,8.0778 -9.7085,2.3065 -14.7562,12.1948 -12.1545,21.2597 2.6548,9.199 11.7719,14.2945 21.4001,12.1222 5.1224,-1.1264 10.251,-2.0044 16.2316,-3.1576 -13.3022,46.6923 -26.3116,92.1439 -39.373,138.0584 -1.0459,-0.885 -1.6078,-1.1717 -1.9029,-1.6545 -36.0722,-50.8492 -72.1393,-101.8146 -107.9966,-152.8515 -0.9662,-1.3678 -0.8638,-4.3441 -0.055,-5.98 9.9504,-19.6585 20.1931,-39.1572 30.1164,-58.8157 1.5015,-2.9233 3.2256,-3.6935 6.3366,-3.6659 14.563,0.1351 29.152,0.1556 43.7415,0.022 9.6282,-0.1074 16.3585,-8.2335 14.6416,-17.5398 -1.0996,-5.9271 -5.7149,-8.8458 -10.4349,-11.5814 z m 244.2487,174.7277 c 30.875,0.6769 58.1156,13.2738 80.8866,37.091 22.3674,23.44 32.7363,52.0832 30.4298,84.3468 -3.6475,50.9028 -39.7413,91.1814 -87.7204,102.6868 -43.6889,10.3791 -82.0886,-0.6438 -113.9767,-32.3978 -16.1448,-16.0379 -25.7287,-36.0428 -30.1269,-58.3831 -0.2713,-1.4751 -0.055,-3.0265 -0.055,-4.877 2.1991,-0.1611 4.1026,-0.3571 5.9801,-0.3571 25.8803,0 51.7612,0.08 77.5884,-0.108 4.1032,0 6.7032,1.2153 9.2783,4.4336 10.7006,13.1146 30.716,14.1259 42.865,2.379 12.1495,-11.6931 12.0399,-31.7217 -0.2713,-42.4762 -13.0875,-11.4786 -32.8504,-9.7883 -43.4707,3.4604 -1.2607,1.5823 -3.6271,3.1576 -5.5045,3.1576 -27.9721,0.2414 -55.9414,0.1883 -83.914,0.108 -0.7242,0 -1.5281,-0.1871 -3.2982,-0.5623 1.6627,-6.678 2.765,-13.3507 5.0173,-19.5728 16.199,-44.359 47.8452,-70.5607 94.3499,-77.4801 7.5027,-1.1214 14.816,-1.6053 21.9405,-1.4491 z m -451.6551,0.1406 c 14.4488,-0.4014 29.0821,1.8139 43.1357,6.8559 -0.6168,1.3678 -1.1029,2.7683 -1.7734,4.1092 -11.747,22.8232 -23.6186,45.612 -35.2854,68.5156 -1.7429,3.3792 -3.7621,5.2546 -7.7318,5.8178 -15.394,2.2528 -24.9148,14.6482 -24.2443,30.9812 0.5094,12.9 12.3123,24.8131 25.2392,26.2881 16.6547,1.8773 29.798,-8.2935 32.5602,-22.3736 1.1533,-5.7125 -1.0431,-12.0898 -1.6327,-18.1778 -0.1882,-1.931 -0.7563,-4.2462 0,-5.8285 12.8732,-25.3174 25.9401,-50.5217 39.1887,-76.1609 49.6689,32.7999 65.1703,98.6397 35.6962,149.5425 -31.1911,53.7457 -100.0682,73.7534 -155.77151,45.2446 -54.1215,-27.7043 -77.5087,-91.3684 -53.4521,-145.7578 19.0482,-43.0449 60.70181,-67.8519 104.04961,-69.0563 z"
       id="path3-7"
       style="fill:#000000;fill-opacity:1" />
  </g>
</svg>
