<?xml version="1.0" encoding="UTF-8" standalone="no"?>
<!-- Created with Inkscape (http://www.inkscape.org/) -->

<svg
   xmlns:dc="http://purl.org/dc/elements/1.1/"
   xmlns:cc="http://creativecommons.org/ns#"
   xmlns:rdf="http://www.w3.org/1999/02/22-rdf-syntax-ns#"
   xmlns:svg="http://www.w3.org/2000/svg"
   xmlns="http://www.w3.org/2000/svg"
   xmlns:sodipodi="http://sodipodi.sourceforge.net/DTD/sodipodi-0.dtd"
   xmlns:inkscape="http://www.inkscape.org/namespaces/inkscape"
   width="352.78mm"
   height="352.78mm"
   viewBox="0 0 1250.0079 1250.0079"
   id="svg29264"
   version="1.1"
   inkscape:version="0.91 r13725"
   sodipodi:docname="transport_bus_station.svg">
  <defs
     id="defs29266" />
  <sodipodi:namedview
     id="base"
     pagecolor="#ffffff"
     bordercolor="#666666"
     borderopacity="1.0"
     inkscape:pageopacity="0.0"
     inkscape:pageshadow="2"
     inkscape:zoom="0.5"
     inkscape:cx="80"
     inkscape:cy="520"
     inkscape:document-units="px"
     inkscape:current-layer="layer1"
     showgrid="false"
     inkscape:window-width="1920"
     inkscape:window-height="1018"
     inkscape:window-x="-8"
     inkscape:window-y="-8"
     inkscape:window-maximized="1" />
  <metadata
     id="metadata29269">
    <rdf:RDF>
      <cc:Work
         rdf:about="">
        <dc:format>image/svg+xml</dc:format>
        <dc:type
           rdf:resource="http://purl.org/dc/dcmitype/StillImage" />
        <dc:title></dc:title>
      </cc:Work>
    </rdf:RDF>
  </metadata>
  <g
     inkscape:label="Layer 1"
     inkscape:groupmode="layer"
     id="layer1"
     transform="translate(0,197.64569)">
    <path
       style="opacity:1;fill:#003cff;fill-opacity:1"
       d="m 627.3166,20.441631 c -91.564,0 -183.582,0.275 -228.932,0.826 l -69.752,0.834 -9.869,2.931 c -31.434,9.304 -55.635,25.922 -74.324,51.038 -12.396,16.645 -22.157,39.391999 -24.631,57.354999 -1.721,12.531 -2.769,492.868 -1.236,551.166 l 1.101,41.383 4.141,12.344 c 7.717,23.044 17.29,38.479 34.392,55.769 17.318,17.398 37.862,29.471 61.391,36.086 8.928,2.528 10.676,2.583 116.004,3.309 156.393,1.048 253.788,1.101 376.084,-0.06 l 108.689,-0.834 11.106,-3.172 c 48.294,-13.66 84.516,-51.629 97.019,-101.725 l 2.797,-11.133 0.645,-246.097 c 0.43,-152.843 0.269,-263.066 -0.43,-290.897 -1.075,-41.733 -1.211,-45.553 -3.98,-55.906 -12.235,-47.379999 -47.621,-83.788999 -95.539,-98.362999 l -10.514,-3.172 -67.951,-0.861 c -43.535,-0.552 -134.647,-0.827 -226.211,-0.827 z"
       id="path4745-1"
       inkscape:connector-curvature="0" />
    <path
       style="fill:#ffffff;fill-opacity:1"
       d="m 618.20795,94.445113 c -31.364,0 -61.661,1.2018 -79.013,3.6269 -60.098,8.374697 -99.41,26.448097 -118.478,54.463597 -3.615,5.3016 -8.736,15.4836 -11.748,23.1055 -12.863,33.0459 -36.963,109.1698 -55.52,175.3525 l -8.224,29.3411 0,150.1989 0,150.1711 39.222,0 39.253,0 0.301,24.6703 c 0.482,28.8281 1.475,32.0226 12.982,42.5963 8.676,7.8324 16.298,10.5434 28.438,9.9404 15.002,-0.7529 27.051,-8.7664 34.1,-22.5337 3.223,-6.2356 3.525,-7.8913 3.826,-26.6587 0.302,-10.9358 0.903,-21.9315 1.205,-24.0404 l 0.603,-4.0946 123.389,0 123.418,0 0.904,23.4053 c 0.813,25.9369 2.169,32.4133 8.224,40.1253 4.94,6.2356 14.431,13.0742 20.124,14.8815 l -0.483,0.061 c 6.597,1.8073 17.472,1.5058 24.883,-0.3015 8.224,-2.4702 18.947,-12.1099 23.345,-21.1171 3.103,-6.2962 3.405,-8.0732 4.007,-31.8112 l 0.904,-25.1226 34.523,0 34.582,0 0.904,-54.5251 c 0.602,-30.0039 0.904,-97.2419 0.904,-149.3263 l 0,-94.771 -11.931,-43.0477 c -13.616,-49.3735 -36.42,-125.7088 -44.915,-150.4415 -6.597,-19.4302 -11.415,-28.5552 -20.995,-40.0629 -21.81,-26.3286 -64.768,-43.8614 -123.33,-50.458197 -21.614,-2.4104 -54.041,-3.6225 -85.404,-3.6268 z m -117.783,38.750397 127.547,0.3006 c 100.886,0.3016 128.298,0.9054 130.407,2.1106 4.489,2.5308 6.899,8.5844 6.297,15.3927 -0.753,7.5612 -3.646,12.1402 -9.49,14.5497 l 0.06,0.03 c -4.037,1.8073 -16.81,1.8065 -109.623,2.108 -57.657,0 -113.687,-0.3007 -124.442,-0.6022 -19.49,-0.7529 -19.613,-0.7832 -23.379,-4.3979 -7.621,-7.2597 -8.101,-17.2901 -1.202,-25.1225 l 3.824,-4.3693 z m 302.447,71.1845 2.711,2.711 c 1.597,1.4755 3.614,4.8493 4.819,7.8619 6.176,16.2669 38.559,145.0185 37.656,149.1452 -0.422,1.5969 -2.831,5.1517 -5.241,7.8636 l 0.15,0.1196 -4.458,4.9706 -207.497,-0.3015 c -114.11,0 -210.507,-0.603 -214.181,-0.9037 -5.483,-0.6324 -7.38,-1.5959 -10.453,-5.0304 -3.705,-3.9759 -3.706,-4.6093 -3.103,-12.4417 0.903,-11.5077 36.45,-142.5475 40.185,-148.2407 0.934,-1.5361 3.434,-3.0428 5.242,-3.6459 1.927,-0.6021 82.419,-1.2051 178.847,-1.5058 l 175.323,-0.6021 z m -338.964,311.4878 c 5.222,-0.022 10.603,1.135 15.823,3.6719 17.532,8.4354 25.453,29.7925 17.531,46.7222 -3.013,6.5371 -11.569,15.332 -17.835,18.465 -4.849,2.4103 -12.289,3.3158 -19.821,2.1106 -19.128,-2.7717 -30.967,-16.1162 -30.967,-34.9442 0,-20.852 16.62,-35.9493 35.269,-36.0255 z m 331.006,0.4211 c 4.408,0.051 8.885,0.9678 13.23,2.8886 27.443,12.1099 29.311,49.4029 3.315,64.6457 -4.76,2.9519 -7.531,3.5558 -16.388,3.8564 -12.291,0.3916 -17.202,-1.3551 -25.486,-9.4283 -7.531,-7.2302 -11.357,-15.6032 -11.357,-25.243 -0.196,-20.9273 17.586,-36.9429 36.686,-36.7194 z"
       id="path4747"
       inkscape:connector-curvature="0" />
  </g>
</svg>
