<?xml version="1.0" encoding="UTF-8" standalone="no"?>
<!-- Created with Inkscape (http://www.inkscape.org/) -->

<svg
   xmlns:dc="http://purl.org/dc/elements/1.1/"
   xmlns:cc="http://creativecommons.org/ns#"
   xmlns:rdf="http://www.w3.org/1999/02/22-rdf-syntax-ns#"
   xmlns:svg="http://www.w3.org/2000/svg"
   xmlns="http://www.w3.org/2000/svg"
   xmlns:sodipodi="http://sodipodi.sourceforge.net/DTD/sodipodi-0.dtd"
   xmlns:inkscape="http://www.inkscape.org/namespaces/inkscape"
   width="352.78mm"
   height="352.78mm"
   viewBox="0 0 1250.0079 1250.0079"
   id="svg21841"
   version="1.1"
   inkscape:version="0.91 r13725"
   sodipodi:docname="transport_tram_halt.svg">
  <defs
     id="defs21843" />
  <sodipodi:namedview
     id="base"
     pagecolor="#ffffff"
     bordercolor="#666666"
     borderopacity="1.0"
     inkscape:pageopacity="0.0"
     inkscape:pageshadow="2"
     inkscape:zoom="0.5"
     inkscape:cx="80"
     inkscape:cy="520"
     inkscape:document-units="px"
     inkscape:current-layer="layer1"
     showgrid="false"
     inkscape:window-width="1920"
     inkscape:window-height="1018"
     inkscape:window-x="-8"
     inkscape:window-y="-8"
     inkscape:window-maximized="1" />
  <metadata
     id="metadata21846">
    <rdf:RDF>
      <cc:Work
         rdf:about="">
        <dc:format>image/svg+xml</dc:format>
        <dc:type
           rdf:resource="http://purl.org/dc/dcmitype/StillImage" />
        <dc:title></dc:title>
      </cc:Work>
    </rdf:RDF>
  </metadata>
  <g
     inkscape:label="Layer 1"
     inkscape:groupmode="layer"
     id="layer1"
     transform="translate(0,197.64569)">
    <path
       inkscape:connector-curvature="0"
       d="m 610.41295,69.262894 c -0.3226,0.066 -0.6417,0.1842 -0.9642,0.1885 -14.0104,0.3114 -27.99,1.1773 -41.9148,3.0147 -11.9854,1.5785 -23.8521,3.8456 -35.41,7.8446 -9.0086,3.1134 -17.6815,7.0568 -25.3298,13.472 -8.3712,7.024596 -13.3542,16.248396 -14.2171,28.048296 -0.8587,11.7341 6.1732,22.6132 16.3049,25.5818 10.4155,3.0563 21.2813,-2.5359 25.5874,-13.4719 0.9792,-2.4818 2.5389,-3.1655 4.4859,-3.6741 0.4159,-0.1096 0.8636,-0.083 1.2678,-0.2237 0.9716,-0.3332 1.4314,0 1.7305,1.1392 1.0067,3.8062 2.1309,7.5764 3.1881,11.365 2.4834,8.9101 5.0068,17.8053 7.4085,26.7464 1.8849,7.01586 8.1504,11.25296 14.5358,9.63496 6.253,-1.5874 10.4057,-8.48186 9.3058,-15.66436 -0.2797,-1.8328 -0.9786,-3.5768 -1.4799,-5.3614 -2.8758,-10.2344 -5.7509,-20.4773 -8.6231,-30.7117 -0.3108,-1.1007 -0.6167,-2.2071 -1.0093,-3.597 39.9129,-5.6872 79.5641,-5.7088 119.2244,0 0,0.4473 0.038,0.5591 0,0.6511 -3.451,12.1113 -6.7964,24.2672 -10.3991,36.3213 -2.2268,7.4457 1.018,15.48506 7.6287,18.00206 6.5716,2.5038 13.6736,-1.6772 15.6518,-9.22376 0.2565,-0.9779 0.4488,-1.9771 0.7209,-2.9462 2.5145,-8.9541 5.0492,-17.9121 7.5753,-26.866 0.9055,-3.2055 1.8153,-6.407 2.7481,-9.6782 1.1696,0.2105 2.2466,0.2413 3.2183,0.6171 1.3951,0.548 2.817,0.7778 3.5827,2.8519 3.5677,9.66 12.4891,15.7033 21.5872,14.9448 9.3701,-0.7805 17.2399,-7.8622 19.7659,-17.9081 2.1142,-8.3972 0.2721,-16.2318 -3.1728,-23.6292 -3.5522,-7.616696 -9.321,-12.841896 -15.8112,-17.060096 -10.0111,-6.503 -20.9416,-10.2042 -32.1459,-12.9492 -18.7868,-4.6086 -37.8796,-6.1631 -57.0277,-7.0401 -2.9419,-0.1359 -5.8781,-0.2674 -8.82,-0.4034 -9.7276,0 -19.4582,0 -29.1857,0 z m 17.3063,135.573356 c -3.298,-0.043 -6.6033,-0.01 -9.9056,0.1005 -37.134,1.1972 -72.5391,10.3683 -105.7364,29.5218 -19.4045,11.1948 -37.0035,25.2407 -52.2379,42.8989 -10.571,12.2559 -19.6488,25.7255 -25.7697,41.51137 -3.3773,8.7217 -5.1241,17.75998 -5.1164,27.37185 0.086,91.24198 0,182.4832 0.081,273.72527 0,20.35926 5.7266,38.52879 17.4206,54.15238 6.2608,8.37083 13.8238,14.89432 22.5059,19.78354 0.3769,0.21484 0.7582,0.43411 1.2828,0.73658 -2.9769,2.78897 -5.8531,5.49534 -8.7369,8.18766 -11.931,11.14218 -23.8812,22.26724 -35.8046,33.41827 -4.8618,4.54272 -7.7886,10.35535 -8.7213,17.41957 -0.038,0.31133 -0.1672,0.60511 -0.2565,0.90766 l 0,6.13247 c 0.5091,2.22746 0.8406,4.53122 1.5634,6.67992 5.8917,17.76343 25.5233,23.79711 38.4764,11.69023 23.8195,-22.25795 47.5252,-44.65803 71.2979,-66.9818 2.9032,-2.72307 5.8277,-5.39486 7.8563,-9.07812 0.1788,-0.32453 0.6704,-0.4899 1.0474,-0.59063 0.3575,-0.10491 0.7578,-0.0443 1.1387,-0.0443 57.9183,0 115.844,0 173.7623,-0.0434 1.337,0 2.1539,0.36829 2.8845,1.6869 2.0404,3.66138 5.1585,6.1455 8.046,8.86422 23.357,21.96417 46.6836,43.96129 70.0834,65.86849 7.3567,6.88881 15.7891,8.50452 24.6693,4.65904 8.8337,-3.8281 13.9423,-11.40351 15.4619,-21.99312 0.05,-0.36403 0.1827,-0.71129 0.2719,-1.0709 l 0,-5.16409 c -0.2369,-1.31112 -0.4223,-2.63714 -0.6981,-3.93949 -1.302,-6.11263 -4.1578,-11.13426 -8.4484,-15.14212 -14.5854,-13.60211 -29.1627,-27.21529 -43.7444,-40.826 -0.1826,-0.17116 -0.3498,-0.3597 -0.6299,-0.65084 1.3564,-0.81995 2.6575,-1.55713 3.9166,-2.36396 20.1042,-12.91364 32.0707,-32.34286 36.1085,-57.9466 0.8201,-5.20054 1.1233,-10.57267 1.1233,-15.86951 0.066,-90.43532 0,-180.86664 0.1126,-271.30178 0,-10.97119 -2.0935,-21.18109 -6.1936,-30.98589 -5.7324,-13.70737 -13.6408,-25.71547 -22.8554,-36.63837 -22.6885,-26.893 -50.0791,-45.5443 -80.824,-58.1774 -17.4342,-7.1649 -35.4108,-11.8069 -53.8245,-14.3282 -9.8461,-1.3484 -19.7169,-2.0979 -29.6106,-2.2097 z m -23.0904,27.6375 c 14.7293,0.206 29.4667,-0.2281 44.1922,0.1271 14.6398,0.3553 28.3606,4.8608 40.8746,13.6 1.7295,1.2014 3.2791,2.7849 4.7596,4.3678 3.7231,3.9903 4.5467,8.9484 3.7266,14.4997 -2.0675,13.9617 -11.1588,22.704 -23.7505,22.704 -16.4938,0 -32.9968,0 -49.4904,0 -16.4471,0 -32.8911,0 -49.3459,0 -14.364,0 -24.4693,-11.6995 -24.0923,-27.9282 0.086,-3.7097 1.7357,-6.6458 3.947,-9.2154 4.069,-4.7226 9.1132,-7.7534 14.4296,-10.2003 11.1267,-5.1216 22.6202,-8.1359 34.7495,-7.9648 z m 22.2856,83.03117 c 5.7918,-0.066 11.5845,-0.071 17.375,0.044 17.5742,0.3376 35.1576,0.8134 52.7162,1.7386 15.2266,0.8024 30.402,2.5393 45.3762,6.0122 7.0538,1.6399 14.0636,3.536 20.4565,7.41663 2.3551,1.42522 4.5304,3.35235 6.5203,5.38702 1.9003,1.94254 2.6034,4.64533 2.6034,7.59644 0,36.74584 0.038,73.49482 -0.038,110.24066 0,9.01553 -2.7317,16.77334 -9.4045,22.2502 -4.516,3.714 -9.7083,5.05271 -15.2268,5.05271 -40.7718,0 -81.5385,0 -122.3062,0 -40.7214,0 -81.4409,0 -122.1622,0 -4.6558,0 -9.1115,-0.91549 -13.2,-3.50265 -6.8982,-4.36739 -10.3948,-11.27331 -11.3781,-19.93792 -0.2291,-2.01714 -0.2564,-4.07574 -0.2564,-6.11484 0,-35.78113 0,-71.55569 -0.038,-107.33707 0,-3.05184 1.0006,-5.38907 2.9982,-7.3053 3.3733,-3.22734 7.3841,-5.07561 11.492,-6.67166 9.4011,-3.66142 19.1302,-5.71582 28.9276,-7.39962 18.4329,-3.1703 36.9927,-4.9068 55.6084,-5.8582 10.8506,-0.5569 21.7048,-1.0174 32.5634,-1.2761 5.7906,-0.1359 11.5828,-0.2675 17.3746,-0.3333 z m -87.7084,246.05399 c 22.1095,0 39.0609,19.27151 39.0531,44.41474 0,24.67854 -17.1583,43.72593 -39.3493,43.70404 -21.7675,0 -38.6662,-19.3048 -38.6662,-44.1236 0,-24.75748 17.0278,-43.9819 38.9624,-43.99518 z m 171.5307,0 c 21.958,0 39.0501,19.33946 39.023,44.14957 -0.038,24.75305 -17.0616,43.95644 -39.0001,43.96044 -22.0318,0 -39.0911,-19.20219 -39.099,-44.00344 0,-24.7838 17.1298,-44.11968 39.0761,-44.10657 z"
       id="path3-59"
       style="fill:#003cff;fill-opacity:1" />
  </g>
</svg>
