<?xml version="1.0" encoding="UTF-8" standalone="no"?>
<!-- Created with Inkscape (http://www.inkscape.org/) -->

<svg
   xmlns:dc="http://purl.org/dc/elements/1.1/"
   xmlns:cc="http://creativecommons.org/ns#"
   xmlns:rdf="http://www.w3.org/1999/02/22-rdf-syntax-ns#"
   xmlns:svg="http://www.w3.org/2000/svg"
   xmlns="http://www.w3.org/2000/svg"
   xmlns:sodipodi="http://sodipodi.sourceforge.net/DTD/sodipodi-0.dtd"
   xmlns:inkscape="http://www.inkscape.org/namespaces/inkscape"
   width="352.78mm"
   height="352.78mm"
   viewBox="0 0 1250.0079 1250.0079"
   id="svg13882"
   version="1.1"
   inkscape:version="0.48.4 r9939"
   sodipodi:docname="utility_wind.svg">
  <defs
     id="defs13884" />
  <sodipodi:namedview
     id="base"
     pagecolor="#ffffff"
     bordercolor="#666666"
     borderopacity="1.0"
     inkscape:pageopacity="0.0"
     inkscape:pageshadow="2"
     inkscape:zoom="0.25"
     inkscape:cx="-223.26445"
     inkscape:cy="568.13928"
     inkscape:document-units="px"
     inkscape:current-layer="layer1"
     showgrid="false"
     inkscape:window-width="1920"
     inkscape:window-height="1161"
     inkscape:window-x="1920"
     inkscape:window-y="0"
     inkscape:window-maximized="1" />
  <metadata
     id="metadata13887">
    <rdf:RDF>
      <cc:Work
         rdf:about="">
        <dc:format>image/svg+xml</dc:format>
        <dc:type
           rdf:resource="http://purl.org/dc/dcmitype/StillImage" />
        <dc:title />
      </cc:Work>
    </rdf:RDF>
  </metadata>
  <g
     inkscape:label="Layer 1"
     inkscape:groupmode="layer"
     id="layer1"
     transform="translate(0,197.64569)">
    <path
       style="font-size:medium;font-style:normal;font-variant:normal;font-weight:normal;font-stretch:normal;text-indent:0;text-align:start;text-decoration:none;line-height:normal;letter-spacing:normal;word-spacing:normal;text-transform:none;direction:ltr;block-progression:tb;writing-mode:lr-tb;text-anchor:start;baseline-shift:baseline;color:#000000;fill:#000000;fill-opacity:1;fill-rule:nonzero;stroke:none;stroke-width:11.98105621;marker:none;visibility:visible;display:inline;overflow:visible;enable-background:accumulate;font-family:Sans;-inkscape-font-specification:Sans"
       d="m 455.09375,56.46875 c -0.90535,-0.04734 -1.90584,0.04104 -2.90625,0.34375 -3.9029,1.166871 -5.67319,4.755808 -6.34375,7.5 -0.67056,2.744192 -0.75185,5.570343 -0.59375,8.90625 0.3162,6.671814 1.73759,15.219775 3.875,25.3125 4.27483,20.18545 11.50417,46.42645 19.15625,72.96875 7.65208,26.5423 15.73503,53.35772 21.65625,74.4375 2.96061,10.53989 5.39104,19.64697 6.9375,26.46875 0.77323,3.41089 1.30312,6.25107 1.59375,8.3125 0.29063,2.06143 0.1115,3.63662 0.28125,2.875 0.16976,-0.76168 -0.35968,0.84158 -1.53125,2.6875 -1.17157,1.84592 -2.93335,4.31989 -5.125,7.25 -4.3833,5.86023 -10.55918,13.55976 -17.84375,22.40625 -14.56913,17.69298 -33.58082,40.02077 -52.09375,62.21875 -18.51293,22.19798 -36.4999,44.24553 -49.125,61.59375 -6.31255,8.67411 -11.26824,16.13834 -14.40625,22.1875 -1.56901,3.02458 -2.72296,5.63656 -3.28125,8.40625 -0.27914,1.38485 -0.45543,2.83803 -0.125,4.5625 0.33043,1.72447 1.40382,3.80858 3.125,5.09375 2.55907,1.91088 5.29094,1.85767 7.40625,1.53125 2.11531,-0.32642 4.0547,-1.02814 6.1875,-1.96875 4.2656,-1.88123 9.21806,-4.8096 14.96875,-8.625 11.50137,-7.6308 26.09419,-18.81047 42.09375,-31.625 28.439,-22.77765 60.32485,-49.91384 86.53125,-71.71875 l -18.46875,423.0625 c -0.13842,3.19402 2.70951,6.20771 5.90625,6.25 138.20418,1.70131 245.75472,1.3125 386,1.3125 3.13246,0.005 5.9883,-2.83631 6,-5.96875 l 0,-160.375 c 0.005,-3.14286 -2.85714,-6.00466 -6,-6 l -294.5625,0 -7.96875,-293.40625 c 31.9834,2.01731 87.11531,7.62097 136.53125,11.53125 26.23406,2.0759 50.65287,3.63866 68.90625,3.84375 9.12669,0.10254 16.66094,-0.12778 22.4375,-0.875 2.88828,-0.37361 5.33023,-0.83907 7.59375,-1.71875 2.26352,-0.87968 5.29635,-2.37644 6.1875,-6.375 0.52147,-2.33972 -0.23936,-4.62699 -1.15625,-6.0625 -0.91689,-1.43551 -1.97578,-2.38474 -3.09375,-3.25 -2.23595,-1.73051 -4.91916,-3.11929 -8.25,-4.625 -6.66168,-3.01143 -15.85282,-6.22349 -27,-9.65625 -22.29436,-6.86552 -52.22816,-14.57393 -82.6875,-22.125 -30.45934,-7.55107 -61.43466,-14.9372 -85.59375,-21.0625 -12.07955,-3.06265 -22.46543,-5.81784 -30.15625,-8.09375 -3.84541,-1.13795 -7.0058,-2.15272 -9.3125,-3 -2.3067,-0.84728 -3.96092,-1.78208 -3.625,-1.53125 0.33069,0.24693 -0.82314,-0.87433 -2.0625,-2.625 -1.23936,-1.75067 -2.82452,-4.20332 -4.625,-7.21875 -3.60095,-6.03086 -8.13139,-14.25549 -13.25,-23.875 -10.23723,-19.23901 -22.8376,-44.06249 -35.65625,-68.625 -12.81865,-24.56251 -25.82128,-48.85131 -36.9375,-67.25 -5.55811,-9.199347 -10.61886,-16.935446 -15.125,-22.625 -2.25307,-2.844777 -4.37154,-5.174514 -6.53125,-7.03125 -1.87922,-1.615592 -3.81848,-3.043583 -6.65625,-3.53125 -0.0312,-0.01067 -0.0624,-0.02109 -0.0937,-0.03125 -0.35774,-0.09613 -0.72442,-0.158993 -1.09375,-0.1875 -0.0331,-0.002 -0.0604,0.0017 -0.0937,0 z"
       id="rect3947"
       inkscape:connector-curvature="0"
       sodipodi:nodetypes="ccsssssssssssssssscsssscccccccccsssssssssssssssssssssccccc" />
  </g>
</svg>
