<?xml version="1.0" encoding="utf-8"?>
<!-- Generator: Adobe Illustrator 16.0.3, SVG Export Plug-In . SVG Version: 6.00 Build 0)  -->
<!DOCTYPE svg PUBLIC "-//W3C//DTD SVG 1.1//EN" "http://www.w3.org/Graphics/SVG/1.1/DTD/svg11.dtd">
<svg version="1.1"
	 id="svg5305" xmlns:dc="http://purl.org/dc/elements/1.1/" xmlns:cc="http://creativecommons.org/ns#" xmlns:rdf="http://www.w3.org/1999/02/22-rdf-syntax-ns#" xmlns:svg="http://www.w3.org/2000/svg" xmlns:sodipodi="http://sodipodi.sourceforge.net/DTD/sodipodi-0.dtd" xmlns:inkscape="http://www.inkscape.org/namespaces/inkscape" inkscape:version="0.91 r13725" sodipodi:docname="caravan_site.svg" inkscape:export-filename="C:\Users\Fabienne\Desktop\Symbole\png\caravan_site.png" inkscape:export-xdpi="90" inkscape:export-ydpi="90"
	 xmlns="http://www.w3.org/2000/svg" xmlns:xlink="http://www.w3.org/1999/xlink" x="0px" y="0px" width="32px" height="32px"
	 viewBox="0 0 32 32" enable-background="new 0 0 32 32" xml:space="preserve">
<sodipodi:namedview  units="px" pagecolor="#ffffff" bordercolor="#666666" borderopacity="1.0" inkscape:zoom="12.8" inkscape:cx="5.9396171" inkscape:cy="21.933003" id="namedview5309" showgrid="false" inkscape:pageopacity="0.0" inkscape:pageshadow="2" inkscape:current-layer="layer1" inkscape:window-maximized="1" inkscape:window-height="1003" inkscape:document-units="pt" inkscape:window-width="1920" inkscape:window-x="-9" inkscape:window-y="-9">
	</sodipodi:namedview>
<g id="layer1" transform="translate(0,-314.4)" inkscape:label="Layer 1" inkscape:groupmode="layer">
	<path id="path4153" inkscape:connector-curvature="0" fill="none" d="M5.183,346.172c-2.588-0.338-4.654-2.443-4.951-5.053
		c-0.03-0.261-0.04-3.852-0.03-10.978l0.014-10.59l0.093-0.384c0.194-0.806,0.446-1.394,0.867-2.024
		c0.859-1.286,2.253-2.188,3.816-2.468c0.402-0.072,1.024-0.076,11.027-0.076c11.842,0,10.881-0.022,11.844,0.298
		c0.867,0.291,1.545,0.702,2.193,1.333c0.687,0.665,1.178,1.445,1.463,2.322c0.304,0.928,0.281,0.088,0.28,11.844
		c0,11.395,0.011,10.876-0.212,11.671c-0.23,0.834-0.773,1.763-1.4,2.399c-0.818,0.832-1.778,1.361-2.992,1.652
		c-0.303,0.07-0.901,0.074-11.027,0.084C10.278,346.205,5.335,346.193,5.183,346.172L5.183,346.172z M26.951,345.685
		c2.152-0.375,3.805-1.967,4.303-4.143l0.098-0.43l0.018-10.376c0.015-10.561,0.01-10.918-0.146-11.578
		c-0.229-1.001-0.768-1.931-1.529-2.652c-0.735-0.7-1.563-1.128-2.629-1.362c-0.346-0.076-0.793-0.079-11.043-0.079
		c-10.093,0-10.707,0.003-11.061,0.076c-1.915,0.39-3.437,1.729-4.038,3.546c-0.276,0.835-0.259,0.095-0.259,11.729
		c0,11.635-0.017,10.891,0.259,11.715c0.609,1.82,2.203,3.205,4.075,3.543C5.514,345.775,26.415,345.779,26.951,345.685
		L26.951,345.685z"/>
	<path id="path4745" inkscape:connector-curvature="0" fill="none" d="M8.972,345.511c-3.917-0.027-3.982-0.029-4.314-0.123
		c-0.875-0.246-1.639-0.695-2.283-1.342c-0.636-0.642-0.992-1.217-1.279-2.074l-0.154-0.459l-0.041-1.539
		c-0.058-2.168-0.019-20.031,0.045-20.5c0.092-0.668,0.455-1.514,0.916-2.133c0.695-0.933,1.595-1.551,2.764-1.897l0.367-0.109
		l2.594-0.031c3.373-0.041,13.687-0.041,16.925,0l2.528,0.032l0.39,0.118c1.783,0.542,3.098,1.896,3.553,3.658
		c0.103,0.385,0.109,0.527,0.149,2.08c0.026,1.035,0.032,5.134,0.017,10.815l-0.026,9.152l-0.104,0.414
		c-0.465,1.867-1.811,3.279-3.608,3.787L27,345.476l-4.042,0.033C18.41,345.552,14.788,345.55,8.972,345.511L8.972,345.511
		L8.972,345.511z"/>
</g>
<path fill-rule="evenodd" clip-rule="evenodd" fill="#4D4D4D" d="M6.065,28.154c0-7.172,0-14.343,0-21.515
	c0.006-0.017,0.017-0.033,0.019-0.049C6.104,6.283,6.211,6.01,6.39,5.758c0.229-0.322,0.533-0.533,0.911-0.625
	c0.206-0.05,0.425-0.064,0.638-0.064c2.395-0.005,4.788-0.003,7.183-0.003c1.096,0,2.193,0.002,3.291,0
	c0.35-0.002,0.684,0.057,0.994,0.24c0.236,0.141,0.432,0.326,0.576,0.553c0.205,0.315,0.293,0.677,0.295,1.052
	c0.002,1.112,0,2.224,0,3.334c0,0.042,0,0.086,0,0.126c0.119,0.019,0.227,0.041,0.334,0.049c0.338,0.022,0.658,0.097,0.977,0.217
	c0.336,0.126,0.637,0.302,0.924,0.518c0.219,0.166,0.406,0.361,0.58,0.569c0.213,0.254,0.373,0.545,0.48,0.851
	c0.104,0.297,0.166,0.61,0.221,0.922c0.035,0.188,0.025,0.384,0.027,0.577c0.002,2.271,0,4.541,0.002,6.813
	c0,0.324-0.014,0.65,0.061,0.973c0.066,0.285,0.129,0.563,0.346,0.779c0.279,0.281,0.781,0.242,1.027-0.064
	c0.176-0.217,0.248-0.482,0.287-0.748c0.041-0.301,0.049-0.611,0.049-0.914c0.006-3.434,0.004-6.866,0.004-10.298
	c0-0.044,0.002-0.089-0.006-0.133c-0.004-0.032-0.014-0.073-0.037-0.097c-0.07-0.08-0.146-0.153-0.223-0.229
	c-0.158-0.151-0.318-0.301-0.475-0.455c-0.184-0.187-0.355-0.383-0.547-0.562C24.141,8.98,24.021,8.79,23.953,8.58
	c-0.08-0.246-0.168-0.505-0.064-0.772c0.055-0.138,0.088-0.294,0.176-0.409c0.166-0.221,0.363-0.417,0.549-0.622
	c0.041-0.044,0.045-0.076-0.002-0.118c-0.162-0.147-0.324-0.296-0.484-0.444c-0.35-0.325-0.699-0.653-1.049-0.979
	c-0.225-0.21-0.455-0.416-0.684-0.622c-0.051-0.045-0.051-0.079-0.008-0.129c0.133-0.146,0.266-0.292,0.396-0.442
	c0.186-0.217,0.367-0.44,0.555-0.658c0.055-0.064,0.121-0.091,0.189-0.012c0.016,0.02,0.037,0.034,0.055,0.051
	c0.201,0.185,0.404,0.369,0.605,0.555c0.162,0.15,0.32,0.305,0.482,0.454c0.178,0.167,0.359,0.332,0.541,0.497
	c0.158,0.143,0.316,0.281,0.473,0.426c0.195,0.182,0.385,0.365,0.58,0.546c0.244,0.228,0.488,0.455,0.678,0.739
	c0.191,0.281,0.275,0.6,0.35,0.92c0.043,0.187,0.035,0.383,0.055,0.575c0.006,0.064,0.025,0.125,0.039,0.189
	c0,4.322,0,8.644,0,12.966c-0.014,0.066-0.039,0.135-0.039,0.201c-0.004,0.336-0.059,0.662-0.129,0.988
	c-0.066,0.32-0.191,0.619-0.336,0.91c-0.037,0.07-0.07,0.15-0.123,0.211c-0.154,0.17-0.313,0.336-0.479,0.492
	c-0.176,0.168-0.393,0.279-0.621,0.355c-0.242,0.078-0.492,0.137-0.752,0.137c-0.303-0.004-0.605,0.008-0.904-0.076
	c-0.225-0.063-0.447-0.131-0.641-0.26c-0.156-0.104-0.313-0.215-0.443-0.348c-0.283-0.287-0.477-0.643-0.602-1.021
	c-0.104-0.307-0.174-0.631-0.217-0.953c-0.041-0.318-0.045-0.646-0.045-0.971c-0.004-2.277-0.002-4.556-0.004-6.833
	c0-0.183-0.027-0.365-0.043-0.549c-0.02-0.247-0.104-0.473-0.248-0.678c-0.146-0.21-0.326-0.379-0.559-0.488
	c-0.109-0.052-0.229-0.081-0.336-0.136c-0.184-0.093-0.381-0.082-0.588-0.104c0,5.336,0,10.658,0,15.986
	C15.532,28.154,10.798,28.154,6.065,28.154z M18.48,8.614c-3.553,0-7.097,0-10.638,0c0,1.78,0,3.553,0,5.322
	c3.551,0,7.092,0,10.638,0C18.48,12.161,18.48,10.392,18.48,8.614z"/>
</svg>
