<?xml version="1.0" encoding="utf-8"?>
<!-- Generator: Adobe Illustrator 16.0.3, SVG Export Plug-In . SVG Version: 6.00 Build 0)  -->
<!DOCTYPE svg PUBLIC "-//W3C//DTD SVG 1.1//EN" "http://www.w3.org/Graphics/SVG/1.1/DTD/svg11.dtd">
<svg version="1.1"
	 id="svg4180" xmlns:sodipodi="http://sodipodi.sourceforge.net/DTD/sodipodi-0.dtd" xmlns:inkscape="http://www.inkscape.org/namespaces/inkscape" xmlns:rdf="http://www.w3.org/1999/02/22-rdf-syntax-ns#" xmlns:dc="http://purl.org/dc/elements/1.1/" xmlns:svg="http://www.w3.org/2000/svg" xmlns:cc="http://creativecommons.org/ns#" inkscape:export-ydpi="90" inkscape:export-xdpi="90" inkscape:export-filename="C:\Users\Fabienne\Desktop\fehlende_symbole\einfach\png\sinkhole.png" sodipodi:docname="parking.svg" inkscape:version="0.91 r13725"
	 xmlns="http://www.w3.org/2000/svg" xmlns:xlink="http://www.w3.org/1999/xlink" x="0px" y="0px" width="32px" height="32px"
	 viewBox="0 0 32 32" enable-background="new 0 0 32 32" xml:space="preserve">
<sodipodi:namedview  units="px" showgrid="false" bordercolor="#666666" inkscape:cx="-5.5351792" id="namedview4184" borderopacity="1.0" pagecolor="#ffffff" inkscape:zoom="16" inkscape:cy="24.151077" inkscape:window-y="-8" inkscape:window-x="-8" inkscape:window-width="1920" inkscape:document-units="pt" inkscape:window-height="1138" inkscape:window-maximized="1" inkscape:current-layer="layer1" inkscape:pageshadow="2" inkscape:pageopacity="0.0">
	</sodipodi:namedview>
<g id="layer1" transform="translate(0,-314.4)" inkscape:label="Layer 1" inkscape:groupmode="layer">
	<path id="path4745" inkscape:connector-curvature="0" fill="none" d="M8.557,346.367c-4.139-0.027-4.208-0.029-4.559-0.129
		c-0.924-0.26-1.731-0.734-2.412-1.418c-0.672-0.676-1.048-1.286-1.351-2.193l-0.163-0.486l-0.043-1.625
		c-0.062-2.293-0.02-21.178,0.048-21.671c0.097-0.707,0.481-1.601,0.968-2.255c0.734-0.987,1.686-1.641,2.92-2.006l0.388-0.115
		l2.741-0.034c3.563-0.043,14.462-0.043,17.882,0l2.672,0.034l0.412,0.125c1.883,0.573,3.271,2.005,3.754,3.867
		c0.104,0.407,0.115,0.558,0.158,2.199c0.026,1.094,0.032,5.428,0.016,11.438l-0.028,9.677l-0.108,0.438
		c-0.49,1.975-1.912,3.467-3.813,4.004l-0.435,0.121l-4.271,0.037C18.529,346.412,14.702,346.41,8.557,346.367L8.557,346.367
		L8.557,346.367z"/>
</g>
<text transform="matrix(1.0111 0 0 1 9.2837 26.5723)" fill="#0000FF" font-family="'Arial-BoldMT'" font-size="22.777">P</text>
<path id="path9949" inkscape:connector-curvature="0" fill="#0000FF" d="M5.797,10.611C5.38,10.496,5.121,10.254,5.084,9.95
	C5.056,9.709,5.147,9.538,5.402,9.355C5.717,9.126,15.718,3.177,15.88,3.122c0.108-0.038,0.233-0.051,0.48-0.051
	c0.28,0,0.36,0.011,0.515,0.068c0.098,0.036,2.351,1.361,5.001,2.944c4.573,2.73,4.822,2.884,4.929,3.035
	c0.271,0.383,0.056,0.822-0.512,1.029c-0.273,0.099-0.696,0.101-0.964,0.004c-0.101-0.037-2.151-1.242-4.562-2.678
	c-2.653-1.583-4.398-2.606-4.431-2.598c-0.03,0.009-2.182,1.284-4.781,2.834c-2.601,1.55-4.802,2.846-4.892,2.878
	C6.429,10.669,6.05,10.679,5.797,10.611L5.797,10.611L5.797,10.611z"/>
</svg>
