<?xml version="1.0" encoding="utf-8"?>
<!-- Generator: Adobe Illustrator 16.0.3, SVG Export Plug-In . SVG Version: 6.00 Build 0)  -->
<!DOCTYPE svg PUBLIC "-//W3C//DTD SVG 1.1//EN" "http://www.w3.org/Graphics/SVG/1.1/DTD/svg11.dtd">
<svg version="1.1"
	 id="svg4180" xmlns:dc="http://purl.org/dc/elements/1.1/" xmlns:cc="http://creativecommons.org/ns#" xmlns:rdf="http://www.w3.org/1999/02/22-rdf-syntax-ns#" xmlns:svg="http://www.w3.org/2000/svg" xmlns:sodipodi="http://sodipodi.sourceforge.net/DTD/sodipodi-0.dtd" xmlns:inkscape="http://www.inkscape.org/namespaces/inkscape" inkscape:version="0.91 r13725" sodipodi:docname="parking.svg" inkscape:export-filename="C:\Users\Fabienne\Desktop\fehlende_symbole\einfach\png\sinkhole.png" inkscape:export-xdpi="90" inkscape:export-ydpi="90"
	 xmlns="http://www.w3.org/2000/svg" xmlns:xlink="http://www.w3.org/1999/xlink" x="0px" y="0px" width="32px" height="32px"
	 viewBox="0 0 32 32" enable-background="new 0 0 32 32" xml:space="preserve">
<sodipodi:namedview  units="px" pagecolor="#ffffff" bordercolor="#666666" borderopacity="1.0" inkscape:zoom="16" inkscape:cx="-5.5351792" inkscape:cy="24.151077" id="namedview4184" showgrid="false" inkscape:pageopacity="0.0" inkscape:pageshadow="2" inkscape:current-layer="layer1" inkscape:window-maximized="1" inkscape:window-height="1138" inkscape:document-units="pt" inkscape:window-width="1920" inkscape:window-x="-8" inkscape:window-y="-8">
	</sodipodi:namedview>
<g id="layer1" transform="translate(0,-314.4)" inkscape:label="Layer 1" inkscape:groupmode="layer">
	<path id="path4745" inkscape:connector-curvature="0" fill="none" d="M8.557,346.367c-4.139-0.027-4.208-0.029-4.559-0.129
		c-0.924-0.26-1.731-0.734-2.412-1.418c-0.672-0.676-1.048-1.286-1.351-2.193l-0.163-0.486l-0.043-1.625
		c-0.062-2.293-0.02-21.178,0.048-21.671c0.097-0.707,0.481-1.601,0.968-2.255c0.734-0.987,1.686-1.641,2.92-2.006l0.388-0.115
		l2.741-0.034c3.563-0.043,14.462-0.043,17.882,0l2.672,0.034l0.412,0.125c1.883,0.573,3.271,2.005,3.754,3.867
		c0.104,0.407,0.115,0.558,0.158,2.199c0.026,1.094,0.032,5.428,0.016,11.438l-0.028,9.677l-0.108,0.438
		c-0.49,1.975-1.912,3.467-3.813,4.004l-0.435,0.121l-4.271,0.037C18.529,346.412,14.702,346.41,8.557,346.367L8.557,346.367
		L8.557,346.367z"/>
</g>
<text transform="matrix(1 0 0 1 8.7847 25.4034)" fill="#0000FF" font-family="'Arial-BoldMT'" font-size="28">P</text>
</svg>
