<?xml version="1.0" encoding="utf-8"?>
<!-- Generator: Adobe Illustrator 16.0.3, SVG Export Plug-In . SVG Version: 6.00 Build 0)  -->
<!DOCTYPE svg PUBLIC "-//W3C//DTD SVG 1.1//EN" "http://www.w3.org/Graphics/SVG/1.1/DTD/svg11.dtd">
<svg version="1.1"
	 id="svg4142" xmlns:dc="http://purl.org/dc/elements/1.1/" xmlns:cc="http://creativecommons.org/ns#" xmlns:rdf="http://www.w3.org/1999/02/22-rdf-syntax-ns#" xmlns:svg="http://www.w3.org/2000/svg" xmlns:sodipodi="http://sodipodi.sourceforge.net/DTD/sodipodi-0.dtd" xmlns:inkscape="http://www.inkscape.org/namespaces/inkscape" inkscape:version="0.91 r13725" sodipodi:docname="memorial.svg" inkscape:export-filename="C:\Users\Fabienne\Desktop\Symbole\png\memorial.png" inkscape:export-xdpi="90" inkscape:export-ydpi="90"
	 xmlns="http://www.w3.org/2000/svg" xmlns:xlink="http://www.w3.org/1999/xlink" x="0px" y="0px" width="32px" height="32px"
	 viewBox="0 0 32 32" enable-background="new 0 0 32 32" xml:space="preserve">
<sodipodi:namedview  units="px" pagecolor="#ffffff" bordercolor="#666666" borderopacity="1.0" inkscape:zoom="12.8" inkscape:cx="6.133596" inkscape:cy="19.463978" id="namedview4146" showgrid="false" inkscape:document-units="pt" inkscape:pageopacity="0.0" inkscape:pageshadow="2" inkscape:current-layer="layer1" inkscape:window-maximized="1" inkscape:window-width="1920" inkscape:window-x="-9" inkscape:window-y="-9" inkscape:window-height="1003">
	</sodipodi:namedview>
<path id="path4745" inkscape:connector-curvature="0" fill="none" d="M8.972,31.111c-3.917-0.027-3.982-0.029-4.314-0.123
	c-0.875-0.246-1.639-0.695-2.283-1.342c-0.636-0.642-0.992-1.217-1.279-2.074l-0.154-0.459l-0.041-1.539
	C0.844,23.406,0.883,5.543,0.947,5.077c0.092-0.668,0.455-1.514,0.916-2.133C2.558,2.01,3.458,1.392,4.627,1.046l0.367-0.109
	l2.594-0.031c3.373-0.041,13.688-0.041,16.926,0l2.527,0.032l0.391,0.118c1.782,0.542,3.098,1.896,3.553,3.658
	c0.102,0.385,0.108,0.527,0.148,2.08c0.026,1.035,0.032,5.134,0.016,10.817l-0.025,9.152l-0.104,0.414
	c-0.465,1.865-1.812,3.277-3.609,3.785L27,31.079l-4.042,0.032C18.41,31.152,14.788,31.15,8.972,31.111L8.972,31.111L8.972,31.111z"
	/>
<path id="path4153" inkscape:connector-curvature="0" fill="none" d="M5.183,31.771c-2.588-0.338-4.654-2.445-4.951-5.053
	c-0.03-0.263-0.04-3.853-0.03-10.98L0.216,5.15l0.093-0.384C0.503,3.96,0.755,3.372,1.176,2.742
	c0.859-1.286,2.253-2.188,3.816-2.468c0.402-0.072,1.024-0.076,11.027-0.076c11.842,0,10.881-0.024,11.844,0.298
	c0.867,0.291,1.545,0.702,2.193,1.333c0.687,0.665,1.178,1.445,1.463,2.322c0.304,0.928,0.281,0.088,0.28,11.844
	c0,11.396,0.011,10.876-0.212,11.671c-0.23,0.834-0.773,1.764-1.4,2.398c-0.818,0.832-1.778,1.36-2.992,1.651
	c-0.303,0.072-0.901,0.076-11.027,0.084C10.278,31.805,5.335,31.793,5.183,31.771L5.183,31.771z M26.951,31.285
	c2.152-0.375,3.805-1.967,4.303-4.143l0.098-0.43l0.018-10.376C31.383,5.777,31.378,5.42,31.223,4.76
	c-0.229-1.001-0.768-1.931-1.529-2.652c-0.735-0.7-1.563-1.128-2.629-1.362C26.719,0.67,26.271,0.667,16.02,0.667
	C5.927,0.667,5.313,0.67,4.959,0.743C3.042,1.134,1.521,2.471,0.92,4.29C0.644,5.125,0.661,4.385,0.661,16.019
	c0,11.637-0.017,10.893,0.259,11.717c0.609,1.82,2.203,3.205,4.075,3.543C5.514,31.375,26.415,31.379,26.951,31.285L26.951,31.285z"
	/>
<path id="path4740" inkscape:connector-curvature="0" fill="#C44216" stroke="#C44216" d="M4.524,27.577V26.63h1.472
	c1.45,0,1.474-0.003,1.572-0.157c0.095-0.15,4.841-9.029,5.158-9.65l0.15-0.295l-0.299-0.149c-1.547-0.787-2.798-2.361-3.255-4.097
	c-0.2-0.758-0.185-2.34,0.03-3.088c0.674-2.348,2.517-4.073,4.961-4.641c0.86-0.2,2.244-0.171,3.142,0.066
	c2.052,0.542,3.732,2.016,4.475,3.923c0.332,0.857,0.444,1.578,0.396,2.545c-0.051,1.028-0.164,1.475-0.61,2.398
	c-0.567,1.172-1.409,2.092-2.5,2.729c-0.245,0.144-0.446,0.289-0.446,0.322c0,0.088,5.196,9.822,5.321,9.975
	c0.095,0.109,0.263,0.122,1.603,0.122h1.498v0.947v0.944H15.858H4.524V27.577z M21.93,26.602c0-0.016-1.135-2.148-2.521-4.746
	l-2.521-4.721l-1.079,0.008l-1.077,0.006l-2.508,4.688c-1.379,2.578-2.508,4.711-2.509,4.74c0,0.028,2.746,0.053,6.104,0.053
	C19.18,26.63,21.93,26.615,21.93,26.602L21.93,26.602z M16.721,15.154c0.322-0.064,0.807-0.237,1.201-0.43
	c2.327-1.137,3.209-3.945,1.921-6.122c-0.54-0.913-1.362-1.587-2.433-1.998c-0.549-0.21-0.609-0.218-1.657-0.218
	c-1.046,0-1.109,0.009-1.652,0.216c-1.61,0.617-2.623,1.783-2.949,3.395c-0.383,1.892,0.62,3.841,2.432,4.727
	C14.632,15.237,15.619,15.372,16.721,15.154z"/>
</svg>
