<?xml version="1.0" encoding="utf-8"?>
<!-- Generator: Adobe Illustrator 16.0.3, SVG Export Plug-In . SVG Version: 6.00 Build 0)  -->
<!DOCTYPE svg PUBLIC "-//W3C//DTD SVG 1.1//EN" "http://www.w3.org/Graphics/SVG/1.1/DTD/svg11.dtd">
<svg version="1.1"
	 id="svg6414" xmlns:dc="http://purl.org/dc/elements/1.1/" xmlns:cc="http://creativecommons.org/ns#" xmlns:rdf="http://www.w3.org/1999/02/22-rdf-syntax-ns#" xmlns:svg="http://www.w3.org/2000/svg" xmlns:sodipodi="http://sodipodi.sourceforge.net/DTD/sodipodi-0.dtd" xmlns:inkscape="http://www.inkscape.org/namespaces/inkscape" inkscape:version="0.91 r13725" sodipodi:docname="monument.svg" inkscape:export-filename="C:\Users\Fabienne\Desktop\Symbole\png\monument.png" inkscape:export-xdpi="90" inkscape:export-ydpi="90"
	 xmlns="http://www.w3.org/2000/svg" xmlns:xlink="http://www.w3.org/1999/xlink" x="0px" y="0px" width="32px" height="32px"
	 viewBox="0 0 32 32" enable-background="new 0 0 32 32" xml:space="preserve">
<sodipodi:namedview  units="px" pagecolor="#ffffff" bordercolor="#666666" borderopacity="1.0" inkscape:zoom="12.8" inkscape:cx="14.020015" inkscape:cy="26.784514" id="namedview6418" showgrid="false" inkscape:document-units="pt" inkscape:pageopacity="0.0" inkscape:pageshadow="2" inkscape:current-layer="layer1" inkscape:window-maximized="1" inkscape:window-width="1920" inkscape:window-x="-9" inkscape:window-y="-9" inkscape:window-height="1003">
	</sodipodi:namedview>
<g id="layer1" transform="translate(0,-314.4)" inkscape:label="Layer 1" inkscape:groupmode="layer">
	<path id="path4153" inkscape:connector-curvature="0" fill="none" d="M5.183,346.172c-2.588-0.338-4.654-2.443-4.951-5.053
		c-0.03-0.261-0.04-3.852-0.03-10.978l0.014-10.59l0.093-0.384c0.194-0.806,0.446-1.394,0.867-2.024
		c0.859-1.286,2.253-2.188,3.816-2.468c0.402-0.072,1.024-0.076,11.027-0.076c11.842,0,10.881-0.022,11.844,0.298
		c0.867,0.291,1.545,0.702,2.193,1.333c0.687,0.665,1.178,1.445,1.463,2.322c0.304,0.928,0.281,0.088,0.28,11.844
		c0,11.395,0.011,10.876-0.212,11.671c-0.23,0.834-0.773,1.763-1.4,2.399c-0.818,0.832-1.778,1.361-2.992,1.652
		c-0.303,0.07-0.901,0.074-11.027,0.084C10.278,346.205,5.335,346.193,5.183,346.172L5.183,346.172z M26.951,345.685
		c2.152-0.375,3.805-1.967,4.303-4.143l0.098-0.43l0.018-10.376c0.015-10.561,0.01-10.918-0.146-11.578
		c-0.229-1.001-0.768-1.931-1.529-2.652c-0.735-0.7-1.563-1.128-2.629-1.362c-0.346-0.076-0.793-0.079-11.043-0.079
		c-10.093,0-10.707,0.003-11.061,0.076c-1.915,0.39-3.437,1.729-4.038,3.546c-0.276,0.835-0.259,0.095-0.259,11.729
		c0,11.635-0.017,10.891,0.259,11.715c0.609,1.82,2.203,3.205,4.075,3.543C5.514,345.775,26.415,345.779,26.951,345.685
		L26.951,345.685z"/>
	<path id="path4745" inkscape:connector-curvature="0" fill="none" d="M8.972,345.504c-3.917-0.025-3.982-0.029-4.314-0.123
		c-0.875-0.246-1.639-0.693-2.283-1.342c-0.636-0.641-0.992-1.217-1.279-2.074l-0.154-0.459l-0.041-1.539
		c-0.058-2.168-0.019-20.032,0.045-20.499c0.092-0.668,0.455-1.514,0.916-2.133c0.695-0.933,1.595-1.551,2.764-1.897l0.367-0.109
		l2.594-0.031c3.373-0.041,13.687-0.041,16.925,0l2.528,0.032l0.39,0.118c1.783,0.542,3.098,1.896,3.553,3.658
		c0.103,0.385,0.109,0.527,0.149,2.08c0.026,1.035,0.032,5.134,0.017,10.817l-0.026,9.151l-0.104,0.414
		c-0.465,1.867-1.811,3.278-3.608,3.787L27,345.47l-4.042,0.033C18.41,345.545,14.788,345.543,8.972,345.504L8.972,345.504
		L8.972,345.504z"/>
	<path id="path6986" inkscape:connector-curvature="0" fill="#C44216" d="M15.707,336.157l-4.166-0.026l0.05-0.56
		c0.028-0.308,0.249-4.024,0.49-8.26c0.242-4.235,0.471-7.729,0.508-7.765c0.038-0.035,0.814-0.465,1.726-0.956
		c1.153-0.621,1.705-0.868,1.813-0.814c0.086,0.042,0.819,0.472,1.629,0.953l1.474,0.876l0.054,0.489
		c0.026,0.269,0.229,3.779,0.438,7.8c0.213,4.021,0.414,7.542,0.44,7.824c0.045,0.447,0.028,0.509-0.12,0.488
		C19.949,336.193,17.998,336.172,15.707,336.157L15.707,336.157z"/>
	<path id="path6988" inkscape:connector-curvature="0" fill="#C44216" d="M9.685,338.228v-1.413h6.239h6.24v1.413v1.414h-6.24H9.685
		V338.228z"/>
	<path id="path6990" inkscape:connector-curvature="0" fill="#C44216" d="M7.248,341.396v-1.072h8.481h8.482v1.072v1.072h-8.482
		H7.248V341.396z"/>
</g>
</svg>
