<?xml version="1.0" encoding="utf-8"?>
<!-- Generator: Adobe Illustrator 16.0.3, SVG Export Plug-In . SVG Version: 6.00 Build 0)  -->
<!DOCTYPE svg PUBLIC "-//W3C//DTD SVG 1.1//EN" "http://www.w3.org/Graphics/SVG/1.1/DTD/svg11.dtd">
<svg version="1.1"
	 id="svg4142" xmlns:dc="http://purl.org/dc/elements/1.1/" xmlns:cc="http://creativecommons.org/ns#" xmlns:rdf="http://www.w3.org/1999/02/22-rdf-syntax-ns#" xmlns:svg="http://www.w3.org/2000/svg" xmlns:sodipodi="http://sodipodi.sourceforge.net/DTD/sodipodi-0.dtd" xmlns:inkscape="http://www.inkscape.org/namespaces/inkscape" inkscape:export-ydpi="90" inkscape:export-xdpi="90" inkscape:export-filename="C:\Users\Fabienne\Desktop\Symbole\png\memorial.png" sodipodi:docname="memorial.svg" inkscape:version="0.91 r13725"
	 xmlns="http://www.w3.org/2000/svg" xmlns:xlink="http://www.w3.org/1999/xlink" x="0px" y="0px" width="32px" height="32px"
	 viewBox="0 0 32 32" enable-background="new 0 0 32 32" xml:space="preserve">
<sodipodi:namedview  units="px" showgrid="false" id="namedview4146" inkscape:cy="19.463978" inkscape:cx="6.133596" inkscape:zoom="12.8" borderopacity="1.0" bordercolor="#666666" pagecolor="#ffffff" inkscape:window-y="-9" inkscape:window-x="-9" inkscape:window-width="1920" inkscape:document-units="pt" inkscape:pageopacity="0.0" inkscape:window-height="1003" inkscape:window-maximized="1" inkscape:current-layer="layer1" inkscape:pageshadow="2">
	</sodipodi:namedview>
<path id="path4745" inkscape:connector-curvature="0" fill="none" d="M8.972,31.111c-3.917-0.027-3.982-0.029-4.314-0.123
	c-0.875-0.246-1.639-0.695-2.283-1.342c-0.636-0.643-0.992-1.217-1.279-2.074l-0.154-0.459l-0.041-1.539
	C0.844,23.406,0.883,5.543,0.947,5.077c0.092-0.668,0.455-1.514,0.916-2.133C2.558,2.01,3.458,1.392,4.627,1.046l0.367-0.109
	l2.594-0.031c3.373-0.041,13.688-0.041,16.926,0l2.527,0.032l0.391,0.118c1.782,0.542,3.098,1.896,3.553,3.658
	c0.103,0.385,0.108,0.527,0.148,2.08c0.026,1.035,0.032,5.134,0.016,10.817l-0.024,9.152l-0.104,0.414
	c-0.465,1.864-1.812,3.276-3.608,3.784L27,31.079l-4.042,0.032C18.41,31.152,14.788,31.15,8.972,31.111L8.972,31.111L8.972,31.111z"
	/>
<path id="path4153" inkscape:connector-curvature="0" fill="none" d="M5.183,31.771c-2.588-0.338-4.654-2.445-4.951-5.053
	c-0.03-0.264-0.04-3.854-0.03-10.981L0.216,5.15l0.093-0.384C0.503,3.96,0.755,3.372,1.176,2.742
	c0.859-1.286,2.253-2.188,3.816-2.468c0.402-0.072,1.024-0.076,11.027-0.076c11.842,0,10.881-0.024,11.844,0.298
	c0.867,0.291,1.545,0.702,2.193,1.333c0.687,0.665,1.178,1.445,1.463,2.322c0.304,0.928,0.28,0.088,0.279,11.844
	c0,11.396,0.012,10.876-0.212,11.671c-0.229,0.834-0.772,1.764-1.399,2.398c-0.818,0.832-1.778,1.359-2.992,1.65
	c-0.303,0.072-0.901,0.076-11.027,0.084C10.278,31.805,5.335,31.793,5.183,31.771L5.183,31.771z M26.951,31.285
	c2.152-0.375,3.805-1.967,4.303-4.143l0.098-0.431l0.019-10.376C31.383,5.777,31.378,5.42,31.223,4.76
	c-0.229-1.001-0.768-1.931-1.529-2.652c-0.734-0.7-1.563-1.128-2.629-1.362C26.719,0.67,26.271,0.667,16.02,0.667
	C5.927,0.667,5.313,0.67,4.959,0.743C3.042,1.134,1.521,2.471,0.92,4.29C0.644,5.125,0.661,4.385,0.661,16.019
	c0,11.637-0.017,10.893,0.259,11.717c0.609,1.82,2.203,3.205,4.075,3.543C5.514,31.375,26.415,31.379,26.951,31.285L26.951,31.285z"
	/>
<g>
	<path fill-rule="evenodd" clip-rule="evenodd" fill="#C44216" stroke="#C44216" d="M6.462,26.129
		c0.553-2.219,1.087-4.363,1.639-6.576c-1.128,0-2.189,0.008-3.249-0.006c-0.347-0.004-0.704-0.023-1.036-0.111
		c-0.667-0.178-1.076-0.693-1.08-1.277c-0.004-0.598,0.429-1.131,1.113-1.303c0.318-0.08,0.658-0.102,0.988-0.105
		c1.314-0.012,2.628-0.004,3.964-0.004c0.414-1.649,0.811-3.264,1.226-4.875c0.226-0.878,0.009-0.729,0.969-0.741
		c0.647-0.009,1.295-0.002,2.02-0.002c-0.469,1.888-0.924,3.721-1.389,5.588c2.811,0,5.586,0,8.416,0
		c-0.461-1.85-0.916-3.685-1.389-5.587c0.896,0,1.74-0.016,2.584,0.019c0.113,0.004,0.275,0.244,0.316,0.4
		c0.404,1.548,0.787,3.101,1.176,4.651c0.041,0.162,0.084,0.322,0.145,0.546c0.201,0,0.412,0,0.623,0
		c1.184,0,2.367-0.033,3.549,0.016c0.447,0.02,0.938,0.137,1.318,0.359c0.816,0.479,0.816,1.582,0.004,2.059
		c-0.381,0.223-0.871,0.336-1.318,0.355c-1.129,0.049-2.262,0.018-3.475,0.018c0.547,2.209,1.082,4.363,1.631,6.574
		c-0.904,0-1.734,0.016-2.564-0.018c-0.119-0.004-0.291-0.232-0.33-0.385c-0.492-1.902-0.977-3.809-1.432-5.721
		c-0.09-0.373-0.248-0.461-0.607-0.459c-2.965,0.014-5.932,0.014-8.898,0c-0.344-0.002-0.489,0.086-0.573,0.436
		c-0.45,1.879-0.94,3.748-1.391,5.627c-0.093,0.387-0.225,0.559-0.658,0.533C8.025,26.098,7.292,26.129,6.462,26.129z"/>
	<path fill-rule="evenodd" clip-rule="evenodd" fill="#C44216" stroke="#C44216" d="M15.82,10.175c-2.414,0-4.828,0.019-7.241-0.015
		c-0.496-0.007-1.044-0.105-1.471-0.339C6.25,9.35,6.271,8.169,7.132,7.706c0.392-0.21,0.884-0.327,1.331-0.329
		c4.911-0.022,9.823-0.021,14.733-0.002c0.418,0.001,0.857,0.114,1.252,0.266c0.482,0.187,0.764,0.597,0.768,1.128
		c0.006,0.557-0.299,0.979-0.795,1.163c-0.424,0.157-0.902,0.23-1.359,0.234C20.648,10.187,18.234,10.175,15.82,10.175z"/>
</g>
</svg>
