<?xml version="1.0" encoding="utf-8"?>
<!-- Generator: Adobe Illustrator 16.0.3, SVG Export Plug-In . SVG Version: 6.00 Build 0)  -->
<!DOCTYPE svg PUBLIC "-//W3C//DTD SVG 1.1//EN" "http://www.w3.org/Graphics/SVG/1.1/DTD/svg11.dtd">
<svg version="1.1"
	 id="svg18704" xmlns:dc="http://purl.org/dc/elements/1.1/" xmlns:cc="http://creativecommons.org/ns#" xmlns:rdf="http://www.w3.org/1999/02/22-rdf-syntax-ns#" xmlns:svg="http://www.w3.org/2000/svg" xmlns:sodipodi="http://sodipodi.sourceforge.net/DTD/sodipodi-0.dtd" xmlns:inkscape="http://www.inkscape.org/namespaces/inkscape" inkscape:version="0.91 r13725" sodipodi:docname="toilets.svg" inkscape:export-filename="C:\Users\Fabienne\Desktop\Symbole\png\toilets.png" inkscape:export-xdpi="90" inkscape:export-ydpi="90"
	 xmlns="http://www.w3.org/2000/svg" xmlns:xlink="http://www.w3.org/1999/xlink" x="0px" y="0px" width="32px" height="32px"
	 viewBox="0 0 32 32" enable-background="new 0 0 32 32" xml:space="preserve">
<sodipodi:namedview  objecttolerance="10" gridtolerance="10" guidetolerance="10" pagecolor="#ffffff" bordercolor="#666666" borderopacity="1" inkscape:zoom="10.429825" inkscape:cx="-20.346907" inkscape:cy="8.9988456" id="namedview18708" showgrid="false" inkscape:pageopacity="0" inkscape:pageshadow="2" inkscape:current-layer="svg18704" inkscape:window-maximized="1" inkscape:window-width="1920" inkscape:window-x="-9" inkscape:window-y="-9" inkscape:window-height="1003">
	</sodipodi:namedview>
<path id="path4153" inkscape:connector-curvature="0" fill="none" d="M5.183,31.771c-2.588-0.338-4.654-2.445-4.951-5.053
	c-0.03-0.263-0.04-3.853-0.03-10.98L0.216,5.15l0.093-0.384C0.503,3.96,0.755,3.372,1.176,2.742
	c0.859-1.286,2.253-2.188,3.816-2.468c0.402-0.072,1.024-0.076,11.027-0.076c11.842,0,10.881-0.024,11.844,0.298
	c0.867,0.291,1.545,0.702,2.193,1.333c0.687,0.665,1.178,1.445,1.463,2.322c0.304,0.928,0.281,0.088,0.28,11.844
	c0,11.396,0.011,10.876-0.212,11.671c-0.23,0.834-0.773,1.764-1.4,2.398c-0.818,0.832-1.778,1.36-2.992,1.651
	c-0.303,0.072-0.901,0.076-11.027,0.084C10.278,31.807,5.335,31.793,5.183,31.771L5.183,31.771z M26.951,31.285
	c2.152-0.375,3.805-1.967,4.303-4.143l0.098-0.43l0.018-10.376c0.014-10.56,0.01-10.917-0.146-11.577
	c-0.229-1.001-0.768-1.931-1.529-2.652c-0.735-0.7-1.563-1.127-2.629-1.362C26.719,0.67,26.271,0.667,16.02,0.667
	c-10.093,0-10.707,0.004-11.061,0.076C3.042,1.134,1.521,2.471,0.92,4.29C0.644,5.125,0.661,4.386,0.661,16.019
	c0,11.637-0.017,10.893,0.259,11.717c0.609,1.82,2.203,3.205,4.075,3.543C5.514,31.375,26.415,31.379,26.951,31.285z"/>
<path id="path4745" inkscape:connector-curvature="0" fill="none" d="M8.972,31.111c-3.917-0.027-3.982-0.029-4.314-0.123
	c-0.875-0.246-1.639-0.695-2.283-1.342c-0.636-0.642-0.992-1.217-1.279-2.074l-0.154-0.459l-0.041-1.539
	C0.844,23.406,0.883,5.543,0.947,5.077c0.092-0.668,0.455-1.514,0.916-2.133C2.558,2.01,3.458,1.392,4.627,1.046l0.367-0.109
	l2.594-0.031c3.373-0.041,13.688-0.041,16.926,0l2.527,0.032l0.391,0.118c1.782,0.542,3.098,1.896,3.553,3.658
	c0.102,0.385,0.108,0.527,0.148,2.079c0.026,1.035,0.032,5.134,0.016,10.818l-0.025,9.152l-0.104,0.414
	c-0.465,1.864-1.812,3.276-3.609,3.784L27,31.078l-4.042,0.031C18.41,31.152,14.788,31.15,8.972,31.111L8.972,31.111L8.972,31.111z"
	/>
<path id="path19254" inkscape:connector-curvature="0" opacity="0.97" fill="#C44216" enable-background="new    " d="M7.297,10.435
	c-1.865-0.966-1.981-3.46-0.209-4.501C8.275,5.237,9.814,5.626,10.5,6.798c0.774,1.321,0.319,2.902-1.032,3.592
	C8.914,10.673,7.802,10.696,7.297,10.435z"/>
<path id="path19256" inkscape:connector-curvature="0" opacity="0.97" fill="#C44216" enable-background="new    " d="M7.121,25.496
	v-2.598H5.585c-1.768,0-1.692,0.066-1.353-1.244c0.244-0.944,0.797-1.746,1.879-2.725c0.495-0.447,0.928-0.93,0.963-1.066
	c0.088-0.346-0.204-0.867-1.107-1.978c-0.422-0.519-0.843-1.124-0.936-1.346c-0.155-0.372-0.147-0.445,0.104-0.945
	c0.488-0.971,0.632-1.021,3.051-1.064c2.402-0.042,2.74,0.041,3.25,0.79c0.453,0.666,0.391,1.161-0.248,1.982
	c-0.294,0.379-0.746,0.959-1.002,1.29c-0.257,0.329-0.501,0.77-0.542,0.977c-0.071,0.354-0.014,0.437,0.986,1.377
	c1.156,1.093,1.685,1.918,1.908,2.984c0.217,1.039,0.318,0.969-1.404,0.969H9.6v2.601V28.1H8.36H7.121V25.496z"/>
<path id="path19258" inkscape:connector-curvature="0" opacity="0.97" fill="#C44216" enable-background="new    " d="
	M14.913,15.933V3.772h1.24h1.24v12.161v12.161h-1.24h-1.24V15.933z"/>
<path id="path19260" inkscape:connector-curvature="0" opacity="0.97" fill="#C44216" enable-background="new    " d="
	M22.822,25.516c0-3.172-0.051-3.396-1.508-6.809c-1.641-3.827-1.817-4.586-1.273-5.387c0.535-0.786,0.75-0.827,4.131-0.788
	c2.818,0.033,3.021,0.05,3.328,0.278c1.195,0.893,1.113,1.494-0.813,6.019c-1.435,3.364-1.388,3.146-1.388,6.45v2.814h-1.237h-1.24
	V25.516z"/>
<path id="path19262" inkscape:connector-curvature="0" opacity="0.97" fill="#C44216" enable-background="new    " d="
	M22.813,10.345C22.012,9.922,21.6,9.25,21.545,8.273c-0.054-0.951,0.195-1.557,0.867-2.111c1.066-0.878,2.383-0.804,3.379,0.192
	c1.02,1.018,1.043,2.456,0.059,3.54C25.158,10.654,23.785,10.858,22.813,10.345z"/>
</svg>
