<?xml version="1.0" encoding="utf-8"?>
<!-- Generator: Adobe Illustrator 16.0.3, SVG Export Plug-In . SVG Version: 6.00 Build 0)  -->
<!DOCTYPE svg PUBLIC "-//W3C//DTD SVG 1.1//EN" "http://www.w3.org/Graphics/SVG/1.1/DTD/svg11.dtd">
<svg version="1.1"
	 id="svg4142" xmlns:dc="http://purl.org/dc/elements/1.1/" xmlns:cc="http://creativecommons.org/ns#" xmlns:rdf="http://www.w3.org/1999/02/22-rdf-syntax-ns#" xmlns:svg="http://www.w3.org/2000/svg" xmlns:sodipodi="http://sodipodi.sourceforge.net/DTD/sodipodi-0.dtd" xmlns:inkscape="http://www.inkscape.org/namespaces/inkscape" inkscape:export-ydpi="90" inkscape:export-xdpi="90" inkscape:export-filename="C:\Users\Fabienne\Desktop\Symbole\png\memorial.png" sodipodi:docname="memorial.svg" inkscape:version="0.91 r13725"
	 xmlns="http://www.w3.org/2000/svg" xmlns:xlink="http://www.w3.org/1999/xlink" x="0px" y="0px" width="32px" height="32px"
	 viewBox="0 0 32 32" enable-background="new 0 0 32 32" xml:space="preserve">
<sodipodi:namedview  units="px" showgrid="false" id="namedview4146" inkscape:cy="19.463978" inkscape:cx="6.133596" inkscape:zoom="12.8" borderopacity="1.0" bordercolor="#666666" pagecolor="#ffffff" inkscape:window-y="-9" inkscape:window-x="-9" inkscape:window-width="1920" inkscape:document-units="pt" inkscape:pageopacity="0.0" inkscape:window-height="1003" inkscape:window-maximized="1" inkscape:current-layer="layer1" inkscape:pageshadow="2">
	</sodipodi:namedview>
<path id="path4745" inkscape:connector-curvature="0" fill="none" d="M8.972,31.111c-3.917-0.027-3.982-0.029-4.314-0.123
	c-0.875-0.246-1.639-0.695-2.283-1.342c-0.636-0.643-0.992-1.217-1.279-2.074l-0.154-0.459l-0.041-1.539
	C0.844,23.406,0.883,5.543,0.947,5.077c0.092-0.668,0.455-1.514,0.916-2.133C2.558,2.01,3.458,1.392,4.627,1.046l0.367-0.109
	l2.594-0.031c3.373-0.041,13.688-0.041,16.926,0l2.527,0.032l0.391,0.118c1.782,0.542,3.098,1.896,3.553,3.658
	c0.103,0.385,0.108,0.527,0.148,2.08c0.026,1.035,0.032,5.134,0.016,10.817l-0.024,9.152l-0.104,0.414
	c-0.465,1.864-1.812,3.276-3.608,3.784L27,31.079l-4.042,0.032C18.41,31.152,14.788,31.15,8.972,31.111L8.972,31.111L8.972,31.111z"
	/>
<path id="path4153" inkscape:connector-curvature="0" fill="none" d="M5.183,31.771c-2.588-0.338-4.654-2.445-4.951-5.053
	c-0.03-0.264-0.04-3.854-0.03-10.981L0.216,5.15l0.093-0.384C0.503,3.96,0.755,3.372,1.176,2.742
	c0.859-1.286,2.253-2.188,3.816-2.468c0.402-0.072,1.024-0.076,11.027-0.076c11.842,0,10.881-0.024,11.844,0.298
	c0.867,0.291,1.545,0.702,2.193,1.333c0.687,0.665,1.178,1.445,1.463,2.322c0.304,0.928,0.28,0.088,0.279,11.844
	c0,11.396,0.012,10.876-0.212,11.671c-0.229,0.834-0.772,1.764-1.399,2.398c-0.818,0.832-1.778,1.359-2.992,1.65
	c-0.303,0.072-0.901,0.076-11.027,0.084C10.278,31.805,5.335,31.793,5.183,31.771L5.183,31.771z M26.951,31.285
	c2.152-0.375,3.805-1.967,4.303-4.143l0.098-0.431l0.019-10.376C31.383,5.777,31.378,5.42,31.223,4.76
	c-0.229-1.001-0.768-1.931-1.529-2.652c-0.734-0.7-1.563-1.128-2.629-1.362C26.719,0.67,26.271,0.667,16.02,0.667
	C5.927,0.667,5.313,0.67,4.959,0.743C3.042,1.134,1.521,2.471,0.92,4.29C0.644,5.125,0.661,4.385,0.661,16.019
	c0,11.637-0.017,10.893,0.259,11.717c0.609,1.82,2.203,3.205,4.075,3.543C5.514,31.375,26.415,31.379,26.951,31.285L26.951,31.285z"
	/>
<g>
	<path fill-rule="evenodd" clip-rule="evenodd" fill="#C44216" stroke="#C44216" d="M5.491,13.979
		c1.533,0.038,2.977,0.646,4.47,1.032c0.982,0.254,1.947,0.574,2.919,0.865c0.095,0.028,0.209,0.041,0.279,0.102
		c0.139,0.122,0.252,0.272,0.377,0.411c-0.131,0.114-0.243,0.282-0.395,0.334c-1.055,0.358-2.11,0.724-3.181,1.028
		c-1.279,0.363-2.566,0.708-3.867,0.984c-0.841,0.179-1.699,0.131-2.426-0.439c-0.745-0.585-1.005-1.832-0.621-2.884
		c0.354-0.97,1.08-1.452,2.153-1.434C5.283,13.979,5.367,13.979,5.491,13.979z"/>
	<path fill-rule="evenodd" clip-rule="evenodd" fill="#C44216" stroke="#C44216" d="M26.154,18.799
		c-0.457-0.106-1.338-0.273-2.196-0.52c-1.678-0.48-3.345-0.997-5.009-1.522c-0.189-0.06-0.33-0.271-0.494-0.413
		c0.154-0.138,0.286-0.35,0.464-0.4c2.253-0.645,4.505-1.29,6.773-1.873c0.514-0.132,1.104-0.115,1.632-0.017
		c1.337,0.251,2.024,1.466,1.74,2.938C28.832,18.193,27.994,18.808,26.154,18.799z"/>
	<path fill-rule="evenodd" clip-rule="evenodd" fill="#C44216" stroke="#C44216" d="M10.961,28.237
		C9.715,28.122,8.9,27.64,8.34,26.796c-0.427-0.644-0.314-1.363,0.036-1.999c0.302-0.548,0.649-1.1,1.089-1.536
		c1.523-1.511,3.094-2.971,4.649-4.448c0.096-0.091,0.205-0.17,0.319-0.235c0.307-0.176,0.429-0.027,0.446,0.273
		c0.004,0.064-0.011,0.133-0.026,0.197c-0.569,2.273-1.094,4.561-1.738,6.813c-0.192,0.67-0.658,1.298-1.122,1.839
		C11.722,28.015,11.206,28.117,10.961,28.237z"/>
	<path fill-rule="evenodd" clip-rule="evenodd" fill="#C44216" stroke="#C44216" d="M10.589,4.589
		c1.149,0.043,1.792,0.607,2.162,1.438c0.33,0.738,0.566,1.525,0.772,2.31c0.456,1.737,0.873,3.485,1.284,5.234
		c0.046,0.195-0.051,0.425-0.081,0.638c-0.188-0.073-0.412-0.105-0.56-0.229c-1.833-1.521-3.591-3.121-5.126-4.95
		C8.829,8.776,8.643,8.495,8.485,8.204c-0.766-1.414-0.411-2.556,1.033-3.26C9.899,4.758,10.33,4.673,10.589,4.589z"/>
	<path fill-rule="evenodd" clip-rule="evenodd" fill="#C44216" stroke="#C44216" d="M23.951,6.83
		c-0.048,0.808-0.384,1.493-0.912,2.03c-1.705,1.731-3.449,3.423-5.191,5.117c-0.122,0.119-0.35,0.131-0.527,0.192
		c-0.041-0.183-0.152-0.383-0.112-0.546c0.585-2.39,1.186-4.776,1.797-7.159c0.061-0.236,0.201-0.457,0.328-0.67
		c0.457-0.769,1.054-1.376,2.022-1.303c1.046,0.079,1.854,0.611,2.366,1.535C23.854,6.263,23.878,6.56,23.951,6.83z"/>
	<path fill-rule="evenodd" clip-rule="evenodd" fill="#C44216" stroke="#C44216" d="M23.908,25.71
		c-0.001,1.104-0.694,1.968-1.737,2.382c-1.104,0.438-2.051,0.173-2.68-0.843c-0.329-0.53-0.607-1.121-0.766-1.723
		c-0.528-2.01-0.991-4.036-1.479-6.057c-0.016-0.064-0.045-0.134-0.034-0.195c0.036-0.214,0.088-0.425,0.134-0.638
		c0.188,0.082,0.412,0.123,0.555,0.253c0.739,0.672,1.466,1.356,2.18,2.055c0.976,0.953,1.954,1.905,2.896,2.891
		C23.527,24.41,23.895,25.101,23.908,25.71z"/>
</g>
</svg>
