<?xml version="1.0" encoding="utf-8"?>
<!-- Generator: Adobe Illustrator 16.0.3, SVG Export Plug-In . SVG Version: 6.00 Build 0)  -->
<!DOCTYPE svg PUBLIC "-//W3C//DTD SVG 1.1//EN" "http://www.w3.org/Graphics/SVG/1.1/DTD/svg11.dtd">
<svg version="1.1"
	 id="svg8872" xmlns:dc="http://purl.org/dc/elements/1.1/" xmlns:cc="http://creativecommons.org/ns#" xmlns:rdf="http://www.w3.org/1999/02/22-rdf-syntax-ns#" xmlns:svg="http://www.w3.org/2000/svg" xmlns:sodipodi="http://sodipodi.sourceforge.net/DTD/sodipodi-0.dtd" xmlns:inkscape="http://www.inkscape.org/namespaces/inkscape" inkscape:export-ydpi="90" inkscape:export-xdpi="90" inkscape:export-filename="C:\Users\Fabienne\Desktop\Symbole\png\zoo.png" sodipodi:docname="zoo.svg" inkscape:version="0.91 r13725"
	 xmlns="http://www.w3.org/2000/svg" xmlns:xlink="http://www.w3.org/1999/xlink" x="0px" y="0px" width="32px" height="32px"
	 viewBox="0 0 32 32" enable-background="new 0 0 32 32" xml:space="preserve">
<sodipodi:namedview  units="px" showgrid="false" id="namedview8876" inkscape:cy="25.649372" inkscape:cx="-10.406323" inkscape:zoom="12.799999" borderopacity="1.0" bordercolor="#666666" pagecolor="#ffffff" inkscape:window-height="1003" inkscape:window-y="-9" inkscape:window-x="-9" inkscape:window-width="1920" inkscape:document-units="pt" inkscape:window-maximized="1" inkscape:pageshadow="2" inkscape:pageopacity="0.0" inkscape:current-layer="layer1">
	</sodipodi:namedview>
<g id="layer1" transform="translate(0,-314.4)" inkscape:label="Layer 1" inkscape:groupmode="layer">
	<path id="path4153" inkscape:connector-curvature="0" fill="none" d="M5.183,346.172c-2.588-0.338-4.654-2.444-4.951-5.053
		c-0.03-0.261-0.04-3.852-0.03-10.978l0.014-10.59l0.093-0.384c0.194-0.806,0.446-1.394,0.867-2.024
		c0.859-1.286,2.253-2.188,3.816-2.468c0.402-0.072,1.024-0.076,11.027-0.076c11.842,0,10.881-0.023,11.844,0.298
		c0.867,0.291,1.545,0.702,2.193,1.333c0.687,0.665,1.178,1.445,1.463,2.322c0.304,0.928,0.282,0.088,0.281,11.844
		c0,11.395,0.01,10.876-0.212,11.671c-0.231,0.834-0.774,1.763-1.401,2.399c-0.818,0.832-1.778,1.361-2.992,1.652
		c-0.303,0.071-0.901,0.075-11.027,0.084C10.278,346.205,5.335,346.193,5.183,346.172L5.183,346.172z M26.951,345.685
		c2.152-0.375,3.805-1.967,4.303-4.143l0.098-0.429l0.017-10.376c0.015-10.561,0.01-10.918-0.146-11.578
		c-0.229-1.001-0.768-1.931-1.529-2.652c-0.736-0.7-1.563-1.128-2.629-1.362c-0.346-0.076-0.793-0.079-11.044-0.079
		c-10.093,0-10.707,0.003-11.061,0.076c-1.915,0.39-3.437,1.729-4.038,3.546c-0.276,0.835-0.259,0.095-0.259,11.729
		c0,11.636-0.017,10.892,0.259,11.716c0.609,1.82,2.203,3.205,4.075,3.543C5.514,345.775,26.415,345.779,26.951,345.685
		L26.951,345.685z"/>
	<path id="path4745" inkscape:connector-curvature="0" fill="none" d="M8.972,345.511c-3.917-0.027-3.982-0.029-4.314-0.123
		c-0.875-0.246-1.639-0.695-2.283-1.342c-0.636-0.641-0.992-1.217-1.279-2.074l-0.154-0.459l-0.041-1.539
		c-0.058-2.168-0.019-20.031,0.045-20.5c0.092-0.668,0.455-1.514,0.916-2.133c0.695-0.933,1.595-1.551,2.764-1.897l0.367-0.109
		l2.594-0.031c3.373-0.041,13.687-0.041,16.925,0l2.528,0.032l0.39,0.118c1.783,0.542,3.098,1.896,3.553,3.658
		c0.102,0.385,0.109,0.527,0.149,2.08c0.026,1.035,0.032,5.134,0.017,10.816l-0.027,9.152l-0.104,0.414
		c-0.465,1.867-1.811,3.279-3.609,3.787l-0.409,0.115l-4.042,0.033C18.41,345.552,14.788,345.55,8.972,345.511L8.972,345.511
		L8.972,345.511z"/>
	<path id="path4722" inkscape:connector-curvature="0" fill="#08782E" stroke="#08782E" stroke-miterlimit="10" d="M5.341,340.287
		c-0.033-0.311-0.231-1.773-0.44-3.252c-1.084-7.655-1.206-9.691-0.694-11.632c0.285-1.08,0.863-1.953,1.701-2.57
		c0.64-0.471,1.709-0.908,2.784-1.138c0.901-0.192,2.843-0.137,5.447,0.155c0.812,0.091,3.2,0.396,3.582,0.455l0.172,0.027
		l-0.181,0.358c-0.51,1.016-0.563,2.309-0.135,3.377c0.5,1.253,1.604,2.188,2.896,2.455c1.484,0.307,3.032-0.26,3.932-1.439
		c0.313-0.412,0.313-0.39-0.026-0.387c-0.295,0.004-0.308,0.008-0.469,0.204c-1.013,1.224-2.798,1.589-4.252,0.87
		c-1.681-0.829-2.406-2.912-1.607-4.604c0.604-1.287,1.787-2.041,3.188-2.039c0.58,0,0.982,0.087,1.478,0.318l0.369,0.172
		l0.353-0.145c0.662-0.272,0.946-0.323,1.813-0.322c0.865,0.001,1.269,0.078,1.791,0.342c1.272,0.644,1.838,1.625,2.129,3.712
		c0.104,0.746,0.112,2.979,0.021,5.831c-0.032,1.057-0.08,2.807-0.103,3.889c-0.045,2.145-0.069,2.375-0.334,2.938
		c-0.329,0.703-0.737,1.123-1.284,1.317c-0.354,0.127-1.201,0.175-1.591,0.088c-1.137-0.252-2.287-1.354-2.621-2.51
		c-0.098-0.336-0.065-0.504,0.124-0.688c0.135-0.129,0.178-0.142,0.582-0.155c0.482-0.021,0.742,0.036,0.881,0.188
		c0.073,0.079,0.098,0.2,0.119,0.597c0.023,0.438,0.042,0.516,0.153,0.66c0.396,0.52,1.414,0.813,1.937,0.561
		c0.594-0.287,0.758-0.996,0.647-2.787c-0.19-3.084-0.354-4.226-0.722-5.013c-0.133-0.284-0.391-0.547-0.535-0.547
		c-0.035,0-0.163,0.096-0.282,0.213c-0.488,0.477-1.026,0.62-2.246,0.595c-0.455-0.01-0.829-0.017-0.831-0.017
		s-0.29,2.338-0.639,5.193c-0.35,2.857-0.647,5.207-0.662,5.224c-0.016,0.017-0.676,0.041-1.469,0.058l-1.438,0.028l0.022-1.411
		c0.043-2.476-0.15-3.726-0.672-4.341c-0.354-0.416-1.273-0.663-2.938-0.786c-2.206-0.166-5.165,0.092-6.097,0.53
		c-0.39,0.185-0.608,0.591-0.787,1.468c-0.171,0.844-0.255,1.881-0.261,3.211l-0.005,1.254l-0.5,0.029
		c-0.274,0.018-0.891,0.029-1.369,0.029h-0.87L5.341,340.287L5.341,340.287z M27.537,330.714c-0.016-0.038-0.027-0.027-0.029,0.029
		c-0.002,0.051,0.01,0.079,0.025,0.063C27.549,330.791,27.551,330.749,27.537,330.714L27.537,330.714L27.537,330.714z
		 M27.242,324.703c0.238-0.238,0.068-0.65-0.266-0.65c-0.193,0-0.387,0.187-0.387,0.375
		C26.592,324.781,26.994,324.951,27.242,324.703z"/>
	
		<path id="path4724" inkscape:connector-curvature="0" fill="#08782E" stroke="#08782E" stroke-width="0.2688" stroke-linecap="round" stroke-linejoin="round" d="
		M2.361,332.757c-0.09-0.065-0.093-0.135-0.081-1.836c0.02-2.848,0.139-4.682,0.349-5.358c0.2-0.647,0.688-1.094,1.185-1.084
		c0.297,0.005,0.336,0.04,0.292,0.261c-0.039,0.191-0.04,0.192-0.267,0.192c-0.31,0-0.497,0.142-0.681,0.518
		c-0.283,0.578-0.381,1.71-0.419,4.876c-0.026,2.178-0.034,2.328-0.118,2.411C2.514,332.843,2.482,332.845,2.361,332.757
		L2.361,332.757z"/>
</g>
</svg>
