<?xml version="1.0" encoding="utf-8"?>
<!-- Generator: Adobe Illustrator 16.0.3, SVG Export Plug-In . SVG Version: 6.00 Build 0)  -->
<!DOCTYPE svg PUBLIC "-//W3C//DTD SVG 1.1//EN" "http://www.w3.org/Graphics/SVG/1.1/DTD/svg11.dtd">
<svg version="1.1"
	 id="svg7122" xmlns:dc="http://purl.org/dc/elements/1.1/" xmlns:cc="http://creativecommons.org/ns#" xmlns:rdf="http://www.w3.org/1999/02/22-rdf-syntax-ns#" xmlns:svg="http://www.w3.org/2000/svg" xmlns:sodipodi="http://sodipodi.sourceforge.net/DTD/sodipodi-0.dtd" xmlns:inkscape="http://www.inkscape.org/namespaces/inkscape" inkscape:export-ydpi="90" inkscape:export-xdpi="90" inkscape:export-filename="C:\Users\Fabienne\Desktop\Symbole\svg_bunt\buddhist.png" sodipodi:docname="buddhist.svg" inkscape:version="0.91 r13725"
	 xmlns="http://www.w3.org/2000/svg" xmlns:xlink="http://www.w3.org/1999/xlink" x="0px" y="0px" width="32px" height="32px"
	 viewBox="0 0 32 32" enable-background="new 0 0 32 32" xml:space="preserve">
<sodipodi:namedview  units="px" showgrid="false" id="namedview7126" inkscape:cy="12.629709" inkscape:cx="-7.7305945" inkscape:zoom="18.101934" borderopacity="1.0" bordercolor="#666666" pagecolor="#ffffff" inkscape:window-height="1003" inkscape:window-y="-9" inkscape:window-x="-9" inkscape:window-width="1920" inkscape:window-maximized="1" inkscape:current-layer="layer1" inkscape:pageshadow="2" inkscape:pageopacity="0.0" inkscape:document-units="pt">
	</sodipodi:namedview>
<g id="layer1" transform="translate(0,-314.4)" inkscape:label="Layer 1" inkscape:groupmode="layer">
	
		<path id="path4153" inkscape:connector-curvature="0" inkscape:export-ydpi="90" inkscape:export-xdpi="90" inkscape:export-filename="C:\Users\Fabienne\Desktop\Symbole\png\buddhist.png" fill="none" d="
		M5.183,346.172c-2.588-0.338-4.654-2.445-4.951-5.053c-0.03-0.261-0.04-3.851-0.03-10.978l0.014-10.59l0.093-0.384
		c0.194-0.806,0.446-1.394,0.867-2.024c0.859-1.286,2.253-2.188,3.816-2.468c0.402-0.072,1.024-0.076,11.027-0.076
		c11.842,0,10.881-0.024,11.844,0.298c0.867,0.291,1.545,0.702,2.193,1.333c0.687,0.665,1.178,1.445,1.463,2.322
		c0.304,0.928,0.283,0.088,0.282,11.844c0,11.395,0.009,10.876-0.212,11.671c-0.232,0.834-0.775,1.763-1.402,2.399
		c-0.818,0.832-1.778,1.361-2.992,1.652c-0.303,0.072-0.901,0.076-11.027,0.084C10.278,346.205,5.335,346.193,5.183,346.172
		L5.183,346.172z M26.951,345.685c2.152-0.375,3.805-1.967,4.303-4.143l0.098-0.428l0.016-10.376
		c0.015-10.561,0.01-10.918-0.145-11.578c-0.23-1.001-0.768-1.931-1.529-2.652c-0.737-0.7-1.563-1.127-2.629-1.362
		c-0.346-0.076-0.793-0.079-11.045-0.079c-10.093,0-10.707,0.003-11.061,0.076c-1.915,0.39-3.437,1.728-4.038,3.546
		c-0.276,0.835-0.259,0.096-0.259,11.729c0,11.637-0.017,10.893,0.259,11.717c0.609,1.82,2.203,3.205,4.075,3.543
		C5.514,345.775,26.415,345.779,26.951,345.685L26.951,345.685z"/>
	
		<path id="path4745" inkscape:connector-curvature="0" inkscape:export-ydpi="90" inkscape:export-xdpi="90" inkscape:export-filename="C:\Users\Fabienne\Desktop\Symbole\png\buddhist.png" fill="none" d="
		M8.972,345.511c-3.917-0.027-3.982-0.029-4.314-0.123c-0.875-0.246-1.639-0.695-2.283-1.342c-0.636-0.64-0.992-1.217-1.279-2.074
		l-0.154-0.459l-0.041-1.539c-0.058-2.168-0.019-20.031,0.045-20.498c0.092-0.668,0.455-1.514,0.916-2.133
		c0.695-0.933,1.595-1.551,2.764-1.897l0.367-0.109l2.594-0.031c3.373-0.041,13.687-0.041,16.925,0l2.528,0.032l0.39,0.119
		c1.783,0.542,3.098,1.896,3.553,3.658c0.101,0.385,0.109,0.527,0.149,2.079c0.026,1.035,0.032,5.134,0.017,10.817l-0.028,9.152
		l-0.103,0.414c-0.465,1.867-1.811,3.279-3.61,3.787l-0.409,0.115l-4.042,0.033C18.41,345.552,14.788,345.55,8.972,345.511
		L8.972,345.511L8.972,345.511z"/>
	
		<path id="path6455" inkscape:connector-curvature="0" inkscape:export-ydpi="90" inkscape:export-xdpi="90" inkscape:export-filename="C:\Users\Fabienne\Desktop\Symbole\png\buddhist.png" fill="#1D1D1B" stroke="#1D1D1B" stroke-width="0.0221" d="
		M15.348,343.015c-0.906-0.479-1.089-1.66-0.369-2.373c0.24-0.238,0.183-0.289-0.394-0.354c-1.373-0.156-3.417-1.056-4.596-2.021
		c-0.156-0.13-0.299-0.231-0.318-0.231s-0.035,0.17-0.035,0.379c0,0.498-0.238,0.967-0.635,1.244
		c-0.267,0.188-0.348,0.209-0.831,0.209c-0.466,0-0.571-0.023-0.82-0.189c-1.251-0.828-0.617-2.75,0.908-2.75
		c0.294,0,0.31-0.057,0.09-0.322c-0.9-1.092-1.71-2.932-1.961-4.455c-0.065-0.396-0.125-0.73-0.135-0.744
		c-0.009-0.014-0.143,0.082-0.296,0.215c-1.005,0.859-2.49,0.211-2.49-1.087c0-1.307,1.551-1.969,2.5-1.067
		c0.246,0.234,0.267,0.242,0.291,0.106c0.014-0.081,0.074-0.46,0.134-0.844c0.186-1.194,0.701-2.584,1.317-3.554l0.242-0.38
		l-0.503-0.035c-0.774-0.053-1.237-0.421-1.434-1.14c-0.269-0.984,0.788-2.041,1.772-1.772c0.601,0.165,1.039,0.619,1.114,1.157
		c0.066,0.475,0.073,0.476,0.483,0.101c1.477-1.35,3.187-2.2,5.068-2.521c0.358-0.061,0.666-0.126,0.684-0.144
		c0.018-0.018-0.077-0.154-0.21-0.302c-0.681-0.753-0.477-1.847,0.432-2.315c0.32-0.165,0.438-0.189,0.746-0.16
		c0.496,0.048,0.931,0.313,1.162,0.708c0.354,0.603,0.289,1.243-0.178,1.772l-0.273,0.311l0.584,0.082
		c1.646,0.23,3.317,0.926,4.597,1.913c0.269,0.207,0.497,0.376,0.51,0.376c0.015,0,0.042-0.172,0.063-0.383
		c0.054-0.516,0.313-0.946,0.716-1.181c1.021-0.599,2.237,0.083,2.237,1.253c0,0.836-0.649,1.487-1.483,1.487
		c-0.173,0-0.313,0.021-0.313,0.045c0,0.024,0.184,0.313,0.405,0.639c0.834,1.219,1.435,2.69,1.642,4.024
		c0.063,0.395,0.127,0.793,0.143,0.884l0.031,0.166l0.221-0.209c0.331-0.314,0.619-0.433,1.05-0.433c0.435,0,0.794,0.152,1.086,0.46
		c0.749,0.789,0.376,2.107-0.683,2.417c-0.563,0.161-1.042,0.034-1.471-0.396c-0.119-0.119-0.226-0.205-0.234-0.19
		c-0.01,0.014-0.07,0.348-0.137,0.743c-0.198,1.211-0.736,2.608-1.404,3.656c-0.129,0.2-0.232,0.377-0.232,0.394
		c0,0.016,0.103,0.014,0.228-0.009c0.768-0.123,1.637,0.666,1.639,1.49c0.002,0.516-0.385,1.112-0.858,1.329
		c-0.304,0.138-0.893,0.171-1.168,0.066c-0.473-0.181-0.945-0.824-0.945-1.289v-0.25l-0.352,0.301
		c-0.781,0.668-1.455,1.119-2.312,1.543c-0.979,0.486-1.738,0.729-2.832,0.908l-0.709,0.115l0.252,0.25
		c0.705,0.706,0.492,1.893-0.424,2.363C16.314,343.197,15.685,343.193,15.348,343.015L15.348,343.015z M17.962,338.515
		c0.78-0.178,1.562-0.489,2.222-0.887c0.533-0.32,1.354-0.934,1.521-1.135c0.064-0.078-0.33-0.441-2.042-1.888
		c-1.167-0.983-2.192-1.847-2.278-1.915c-0.146-0.113-0.174-0.116-0.367-0.016l-0.211,0.107v2.973v2.974l0.295-0.043
		C17.262,338.664,17.65,338.588,17.962,338.515z M15.147,335.651c0-1.653-0.023-3.007-0.052-3.007c-0.029,0-0.998,0.945-2.153,2.102
		l-2.101,2.102l0.437,0.322c0.537,0.396,1.155,0.744,1.736,0.98c0.536,0.219,1.602,0.5,1.909,0.506l0.225,0.003L15.147,335.651
		L15.147,335.651z M11.898,333.507l2.108-2.108h-3.024c-3.47,0-3.101-0.097-2.92,0.763c0.132,0.629,0.408,1.436,0.673,1.969
		c0.277,0.557,0.892,1.486,0.982,1.486C9.757,335.617,10.739,334.668,11.898,333.507L11.898,333.507z M23.383,334.211
		c0.377-0.729,0.934-2.654,0.807-2.781c-0.018-0.018-1.313-0.022-2.883-0.014l-2.852,0.018l2.197,1.854l2.197,1.852l0.162-0.262
		C23.102,334.732,23.27,334.433,23.383,334.211L23.383,334.211z M16.902,331.834c0.707-0.496,0.813-1.505,0.225-2.153
		c-0.43-0.473-1.274-0.566-1.825-0.202c-0.312,0.206-0.639,0.781-0.638,1.122c0.001,0.574,0.347,1.121,0.863,1.365
		C15.931,332.156,16.527,332.097,16.902,331.834z M13.729,329.608c-0.463-0.449-4.436-3.735-4.493-3.717
		c-0.038,0.012-0.216,0.3-0.395,0.639c-0.448,0.847-0.759,1.858-0.909,2.95l-0.036,0.259h2.984
		C13.82,329.739,13.863,329.737,13.729,329.608L13.729,329.608z M24.223,329.411c-0.065-0.626-0.421-1.874-0.705-2.482
		c-0.279-0.595-0.944-1.684-1.031-1.684c-0.084,0-4.364,4.322-4.364,4.407c0,0.068,0.651,0.087,3.067,0.087h3.068L24.223,329.411
		L24.223,329.411z M15.147,325.388v-3.245l-0.259,0.039c-1.536,0.234-3.479,1.184-4.396,2.151l-0.197,0.207l0.611,0.519
		c2.617,2.221,4.209,3.567,4.224,3.57C15.14,328.632,15.147,327.173,15.147,325.388z M19.12,326.286
		c2.526-2.528,2.36-2.214,1.483-2.803c-0.979-0.656-2.295-1.16-3.435-1.313l-0.362-0.049v3.187c0,1.752,0.022,3.188,0.053,3.188
		C16.889,328.495,17.904,327.501,19.12,326.286L19.12,326.286z"/>
</g>
</svg>
