<?xml version="1.0" encoding="utf-8"?>
<!-- Generator: Adobe Illustrator 16.0.3, SVG Export Plug-In . SVG Version: 6.00 Build 0)  -->
<!DOCTYPE svg PUBLIC "-//W3C//DTD SVG 1.1//EN" "http://www.w3.org/Graphics/SVG/1.1/DTD/svg11.dtd">
<svg version="1.1"
	 id="svg2" xmlns:dc="http://purl.org/dc/elements/1.1/" xmlns:cc="http://creativecommons.org/ns#" xmlns:rdf="http://www.w3.org/1999/02/22-rdf-syntax-ns#" xmlns:svg="http://www.w3.org/2000/svg" xmlns:sodipodi="http://sodipodi.sourceforge.net/DTD/sodipodi-0.dtd" xmlns:inkscape="http://www.inkscape.org/namespaces/inkscape" inkscape:export-ydpi="90" inkscape:export-xdpi="90" inkscape:export-filename="C:\Users\Fabienne\Desktop\Symbole\png\christian.png" sodipodi:docname="christian.svg" inkscape:version="0.91 r13725"
	 xmlns="http://www.w3.org/2000/svg" xmlns:xlink="http://www.w3.org/1999/xlink" x="0px" y="0px" width="32px" height="32px"
	 viewBox="0 0 32 32" enable-background="new 0 0 32 32" xml:space="preserve">
<sodipodi:namedview  units="px" showgrid="false" id="namedview5" inkscape:cy="14.588856" inkscape:cx="-13.338648" inkscape:zoom="11.800012" borderopacity="1" bordercolor="#666666" pagecolor="#ffffff" inkscape:window-maximized="1" inkscape:window-y="-9" inkscape:window-x="-9" inkscape:window-height="1003" inkscape:window-width="1920" inkscape:current-layer="svg2" inkscape:pageshadow="2" inkscape:pageopacity="0" objecttolerance="10" guidetolerance="10" gridtolerance="10">
	</sodipodi:namedview>
<path id="path4153" inkscape:connector-curvature="0" fill="none" d="M5.183,31.771c-2.588-0.338-4.654-2.445-4.951-5.053
	c-0.03-0.261-0.04-3.851-0.03-10.978l0.014-10.59l0.093-0.384c0.194-0.806,0.446-1.394,0.867-2.024
	c0.859-1.286,2.253-2.188,3.816-2.468c0.402-0.072,1.024-0.076,11.027-0.076c11.842,0,10.881-0.024,11.844,0.298
	c0.867,0.291,1.545,0.702,2.193,1.333c0.687,0.665,1.178,1.445,1.463,2.322c0.304,0.928,0.283,0.088,0.282,11.844
	c0,11.395,0.009,10.876-0.212,11.671c-0.232,0.834-0.775,1.763-1.402,2.399c-0.818,0.832-1.778,1.361-2.992,1.652
	c-0.303,0.072-0.901,0.076-11.027,0.084C10.278,31.805,5.335,31.793,5.183,31.771z M26.951,31.285
	c2.152-0.375,3.805-1.967,4.303-4.143l0.098-0.428l0.016-10.376c0.015-10.561,0.011-10.918-0.145-11.578
	c-0.23-1.001-0.768-1.931-1.529-2.652c-0.737-0.7-1.563-1.127-2.629-1.362c-0.346-0.076-0.793-0.079-11.045-0.079
	c-10.093,0-10.707,0.004-11.061,0.076C3.042,1.134,1.521,2.471,0.92,4.29C0.644,5.125,0.661,4.386,0.661,16.019
	c0,11.637-0.017,10.893,0.259,11.717c0.609,1.82,2.203,3.205,4.075,3.543C5.514,31.375,26.415,31.379,26.951,31.285L26.951,31.285z"
	/>
<path id="path4745" inkscape:connector-curvature="0" fill="none" d="M8.972,31.111c-3.917-0.027-3.982-0.029-4.314-0.123
	c-0.875-0.246-1.639-0.695-2.283-1.342c-0.636-0.64-0.992-1.217-1.279-2.074l-0.154-0.459l-0.041-1.538
	C0.844,23.406,0.883,5.543,0.947,5.077c0.092-0.668,0.455-1.514,0.916-2.133C2.558,2.01,3.458,1.392,4.627,1.046l0.367-0.109
	l2.594-0.031c3.373-0.041,13.688-0.041,16.926,0l2.527,0.032l0.391,0.118c1.782,0.542,3.098,1.896,3.553,3.658
	c0.1,0.385,0.108,0.527,0.148,2.079c0.026,1.035,0.032,5.134,0.016,10.818l-0.027,9.152l-0.102,0.414
	c-0.465,1.866-1.812,3.278-3.611,3.786l-0.409,0.115l-4.042,0.032C18.41,31.152,14.788,31.15,8.972,31.111L8.972,31.111
	L8.972,31.111z"/>
<path id="path15412" inkscape:export-ydpi="6" inkscape:export-xdpi="6" inkscape:export-filename="C:\Users\Fabienne\Desktop\Symbole\png\christian.png" inkscape:connector-curvature="0" d="
	M13.036,28.953c-0.044-0.018-0.055-1.539-0.055-7.402v-7.38h-2.702c-1.486,0-2.733-0.012-2.772-0.027
	c-0.063-0.024-0.07-0.269-0.07-2.306V9.559h2.771h2.772v-3.21c0-2.887,0.007-3.213,0.07-3.237c0.039-0.015,1.306-0.027,2.816-0.027
	h2.745v3.237v3.237h2.771h2.771v2.306v2.306h-2.771h-2.771v7.405v7.406l-2.76-0.004C14.334,28.977,13.067,28.966,13.036,28.953
	L13.036,28.953z"/>
</svg>
