<?xml version="1.0" encoding="utf-8"?>
<!-- Generator: Adobe Illustrator 16.0.3, SVG Export Plug-In . SVG Version: 6.00 Build 0)  -->
<!DOCTYPE svg PUBLIC "-//W3C//DTD SVG 1.1//EN" "http://www.w3.org/Graphics/SVG/1.1/DTD/svg11.dtd">
<svg version="1.1"
	 id="svg7797" xmlns:dc="http://purl.org/dc/elements/1.1/" xmlns:cc="http://creativecommons.org/ns#" xmlns:rdf="http://www.w3.org/1999/02/22-rdf-syntax-ns#" xmlns:svg="http://www.w3.org/2000/svg" xmlns:sodipodi="http://sodipodi.sourceforge.net/DTD/sodipodi-0.dtd" xmlns:inkscape="http://www.inkscape.org/namespaces/inkscape" inkscape:export-ydpi="90" inkscape:export-xdpi="90" inkscape:export-filename="C:\Users\Fabienne\Desktop\Symbole\png\hindu.png" sodipodi:docname="hindu.svg" inkscape:version="0.91 r13725"
	 xmlns="http://www.w3.org/2000/svg" xmlns:xlink="http://www.w3.org/1999/xlink" x="0px" y="0px" width="32px" height="32px"
	 viewBox="0 0 32 32" enable-background="new 0 0 32 32" xml:space="preserve">
<sodipodi:namedview  units="px" inkscape:cy="12.938367" inkscape:cx="6.6142414" inkscape:zoom="12.8" showgrid="false" borderopacity="1.0" pagecolor="#ffffff" bordercolor="#666666" id="namedview7801" inkscape:pageopacity="0.0" inkscape:document-units="pt" inkscape:current-layer="layer1" inkscape:window-maximized="1" inkscape:window-y="-9" inkscape:window-x="-9" inkscape:window-height="1003" inkscape:window-width="1920" inkscape:pageshadow="2">
	</sodipodi:namedview>
<g id="layer1" transform="translate(0,-314.4)" inkscape:label="Layer 1" inkscape:groupmode="layer">
	<path id="path4153" inkscape:connector-curvature="0" fill="none" d="M5.183,346.172c-2.588-0.339-4.654-2.446-4.951-5.054
		c-0.03-0.26-0.04-3.85-0.03-10.977l0.014-10.59l0.093-0.384c0.194-0.806,0.446-1.394,0.867-2.024
		c0.859-1.286,2.253-2.188,3.816-2.468c0.402-0.072,1.024-0.076,11.027-0.076c11.843,0,10.882-0.024,11.845,0.298
		c0.866,0.291,1.544,0.702,2.193,1.333c0.686,0.665,1.177,1.445,1.463,2.322c0.303,0.928,0.283,0.088,0.282,11.844
		c0,11.394,0.009,10.876-0.212,11.671c-0.232,0.834-0.775,1.763-1.403,2.4c-0.818,0.832-1.778,1.361-2.991,1.652
		c-0.303,0.072-0.902,0.076-11.028,0.083C10.278,346.205,5.335,346.193,5.183,346.172L5.183,346.172z M26.951,345.685
		c2.152-0.375,3.805-1.967,4.303-4.143l0.098-0.427l0.015-10.376c0.015-10.561,0.01-10.918-0.144-11.578
		c-0.231-1.001-0.768-1.931-1.529-2.652c-0.738-0.7-1.564-1.128-2.629-1.362c-0.346-0.076-0.794-0.079-11.046-0.079
		c-10.093,0-10.707,0.003-11.061,0.076c-1.915,0.39-3.437,1.727-4.038,3.546c-0.276,0.835-0.259,0.095-0.259,11.729
		c0,11.637-0.017,10.893,0.259,11.717c0.609,1.82,2.203,3.205,4.075,3.544C5.514,345.775,26.415,345.779,26.951,345.685
		L26.951,345.685z"/>
	<path id="path4745" inkscape:connector-curvature="0" fill="none" d="M8.972,345.511c-3.917-0.027-3.982-0.029-4.314-0.123
		c-0.875-0.246-1.639-0.695-2.283-1.342c-0.636-0.639-0.992-1.216-1.279-2.074l-0.154-0.459l-0.041-1.539
		c-0.058-2.168-0.019-20.031,0.045-20.498c0.092-0.668,0.455-1.514,0.916-2.133c0.695-0.933,1.595-1.551,2.764-1.897l0.367-0.109
		l2.594-0.031c3.373-0.041,13.687-0.041,16.925,0l2.528,0.032l0.39,0.118c1.783,0.542,3.098,1.896,3.553,3.658
		c0.1,0.385,0.109,0.527,0.149,2.08c0.026,1.035,0.032,5.134,0.016,10.818l-0.028,9.152l-0.102,0.414
		c-0.465,1.867-1.811,3.279-3.611,3.787l-0.409,0.115l-4.042,0.033C18.41,345.552,14.788,345.55,8.972,345.511L8.972,345.511
		L8.972,345.511z"/>
	<path id="path44341" inkscape:connector-curvature="0" d="M11.122,341.472c-1.842-0.369-4.24-1.635-5.284-2.787
		c-0.938-1.037-1.672-2.41-1.985-3.714c-0.188-0.784-0.265-2.802-0.111-2.897c0.041-0.025,0.188,0.444,0.329,1.043
		c0.524,2.237,1.815,4.188,3.376,5.103c0.511,0.3,1.846,0.657,2.958,0.792c1.49,0.182,3.409-0.167,4.537-0.824
		c0.612-0.355,1.354-1.094,1.577-1.565c0.26-0.554,0.262-1.425,0.004-1.958c-0.459-0.947-2.063-1.991-3.183-2.072
		c-0.394-0.029-0.722,0.018-1.197,0.171c-0.359,0.116-0.666,0.194-0.681,0.175c-0.096-0.129-1.644-3.083-1.643-3.137
		c0-0.037,0.398-0.272,0.883-0.523c2.423-1.253,3.162-2.038,3.166-3.364c0.003-1.02-0.44-1.604-1.29-1.699
		c-0.576-0.065-1.123,0.212-2.431,1.23c-0.979,0.762-1.167,0.879-1.169,0.725c0-0.039-0.333-0.442-0.739-0.897l-0.737-0.827
		l0.249-0.208c1.289-1.078,3.316-1.805,4.734-1.697c1.458,0.11,2.427,0.851,2.871,2.195c0.254,0.769,0.171,2.12-0.175,2.84
		c-0.313,0.651-1.183,1.607-1.851,2.035c-0.447,0.286-0.466,0.312-0.244,0.338c0.321,0.038,4.706-0.641,4.776-0.739
		c0.014-0.019,0.23-0.328,0.48-0.687c0.589-0.843,1.391-1.686,1.861-1.958c0.74-0.426,2.545-0.584,3.258-0.287
		c2.014,0.844,3.684,4.135,3.684,7.259c0,2.252-0.94,4.057-2.271,4.354c-1.26,0.283-2.758-0.572-3.783-2.158
		c-0.586-0.906-0.778-1.836-0.565-2.738l0.065-0.279l0.119,0.419c0.193,0.688,0.571,1.289,1.145,1.82
		c0.592,0.548,2.112,0.532,2.223,0.524c0.344-0.156,0.436-0.301,0.547-0.453c0.303-0.414,0.275-0.792,0.369-1.454
		c0.242-1.71-0.575-4.123-1.772-5.231c-0.708-0.656-1.14-0.8-1.671-0.56c-0.566,0.255-1.135,0.947-1.479,1.798
		c-0.172,0.428-0.42,0.854-0.594,1.021c-0.361,0.349-1.22,0.784-1.975,1c-0.308,0.088-0.576,0.176-0.598,0.195
		s0.256,0.339,0.615,0.711c1.053,1.085,1.517,2.232,1.517,3.749c0,2.866-1.776,4.671-5.137,5.216
		c-1.035,0.168-1.952,0.168-2.779,0.004l0,0V341.472z"/>
	<path id="path44343" inkscape:connector-curvature="0" d="M20.525,324.384c-1.549-0.218-2.65-0.797-3.908-2.056
		c-0.923-0.925-1.392-1.669-1.57-2.494c-0.085-0.397,0.016-0.562,0.128-0.208c0.104,0.328,1.059,1.278,1.677,1.668
		c2.333,1.473,5.797,1.674,7.722,0.447l0.456-0.291l0.701,0.731l0.701,0.731l-0.225,0.182c-0.53,0.429-1.709,0.909-2.808,1.143
		C22.608,324.407,21.198,324.479,20.525,324.384z"/>
	<path id="path44345" inkscape:connector-curvature="0" d="M19.879,320.55c-0.281-0.453-0.512-0.853-0.512-0.888
		s0.389-0.309,0.863-0.608l0.863-0.544l0.551,0.857l0.553,0.858l-0.81,0.519c-0.445,0.285-0.851,0.543-0.902,0.574
		C20.434,321.35,20.162,321.004,19.879,320.55L19.879,320.55z"/>
</g>
</svg>
