<?xml version="1.0" encoding="utf-8"?>
<!-- Generator: Adobe Illustrator 16.0.3, SVG Export Plug-In . SVG Version: 6.00 Build 0)  -->
<!DOCTYPE svg PUBLIC "-//W3C//DTD SVG 1.1//EN" "http://www.w3.org/Graphics/SVG/1.1/DTD/svg11.dtd">
<svg version="1.1"
	 id="svg4180" xmlns:dc="http://purl.org/dc/elements/1.1/" xmlns:cc="http://creativecommons.org/ns#" xmlns:rdf="http://www.w3.org/1999/02/22-rdf-syntax-ns#" xmlns:svg="http://www.w3.org/2000/svg" xmlns:sodipodi="http://sodipodi.sourceforge.net/DTD/sodipodi-0.dtd" xmlns:inkscape="http://www.inkscape.org/namespaces/inkscape" inkscape:export-ydpi="90" inkscape:export-xdpi="90" inkscape:export-filename="C:\Users\Fabienne\Desktop\Symbole\png\islamic.png" sodipodi:docname="islamic.svg" inkscape:version="0.91 r13725"
	 xmlns="http://www.w3.org/2000/svg" xmlns:xlink="http://www.w3.org/1999/xlink" x="0px" y="0px" width="32px" height="32px"
	 viewBox="0 0 32 32" enable-background="new 0 0 32 32" xml:space="preserve">
<sodipodi:namedview  units="px" showgrid="false" id="namedview4184" inkscape:cy="32.795371" inkscape:cx="-6.6381367" inkscape:zoom="9.0509668" borderopacity="1.0" bordercolor="#666666" pagecolor="#ffffff" inkscape:current-layer="layer1" inkscape:pageshadow="2" inkscape:pageopacity="0.0" inkscape:document-units="pt" inkscape:window-height="1003" inkscape:window-y="-9" inkscape:window-x="-9" inkscape:window-width="1920" inkscape:window-maximized="1">
	</sodipodi:namedview>
<g id="layer1" transform="translate(0,-314.4)" inkscape:label="Layer 1" inkscape:groupmode="layer">
	<path id="path4153" inkscape:connector-curvature="0" fill="none" d="M5.183,346.172c-2.588-0.338-4.654-2.444-4.951-5.053
		c-0.03-0.261-0.04-3.852-0.03-10.978l0.014-10.59l0.093-0.384c0.194-0.806,0.446-1.394,0.867-2.024
		c0.859-1.286,2.253-2.188,3.816-2.468c0.402-0.072,1.024-0.076,11.027-0.076c11.842,0,10.881-0.023,11.844,0.298
		c0.867,0.291,1.545,0.702,2.193,1.333c0.687,0.665,1.178,1.445,1.463,2.322c0.304,0.928,0.282,0.088,0.281,11.844
		c0,11.395,0.01,10.876-0.212,11.671c-0.231,0.834-0.774,1.763-1.401,2.399c-0.818,0.832-1.778,1.361-2.992,1.652
		c-0.303,0.071-0.901,0.075-11.027,0.084C10.278,346.205,5.335,346.193,5.183,346.172L5.183,346.172z M26.951,345.685
		c2.152-0.375,3.805-1.967,4.303-4.143l0.098-0.429l0.017-10.376c0.015-10.561,0.01-10.918-0.146-11.578
		c-0.229-1.001-0.768-1.931-1.529-2.652c-0.736-0.7-1.563-1.128-2.629-1.362c-0.346-0.076-0.793-0.079-11.044-0.079
		c-10.093,0-10.707,0.003-11.061,0.076c-1.915,0.39-3.437,1.729-4.038,3.546c-0.276,0.835-0.259,0.095-0.259,11.729
		c0,11.636-0.017,10.892,0.259,11.716c0.609,1.82,2.203,3.205,4.075,3.543C5.514,345.775,26.415,345.779,26.951,345.685
		L26.951,345.685z"/>
	<path id="path4745" inkscape:connector-curvature="0" fill="none" d="M8.972,345.511c-3.917-0.027-3.982-0.029-4.314-0.123
		c-0.875-0.246-1.639-0.695-2.283-1.342c-0.636-0.641-0.992-1.217-1.279-2.074l-0.154-0.459l-0.041-1.539
		c-0.058-2.168-0.019-20.031,0.045-20.5c0.092-0.668,0.455-1.514,0.916-2.133c0.695-0.933,1.595-1.551,2.764-1.897l0.367-0.109
		l2.594-0.031c3.373-0.041,13.687-0.041,16.925,0l2.528,0.032l0.39,0.118c1.783,0.542,3.098,1.896,3.553,3.658
		c0.102,0.385,0.109,0.527,0.149,2.08c0.026,1.035,0.032,5.134,0.017,10.816l-0.027,9.152l-0.104,0.414
		c-0.465,1.867-1.811,3.279-3.609,3.787l-0.409,0.115l-4.042,0.033C18.41,345.552,14.788,345.55,8.972,345.511L8.972,345.511
		L8.972,345.511z"/>
	<g>
		<path stroke="#000000" stroke-width="0.3619" d="M9.25,330.517c0-5.248,4.698-9.502,10.494-9.502c1.051,0,2.063,0.144,3.021,0.404
			c-1.944-1.428-4.348-2.284-6.96-2.284c-6.44,0-11.66,5.136-11.66,11.472s5.22,11.473,11.66,11.473
			c2.802,0,5.372-0.974,7.382-2.595c-1.08,0.34-2.235,0.534-3.443,0.534C13.948,340.019,9.25,335.765,9.25,330.517z"/>
		<path fill="none" d="M22.766,321.419c2.848,2.091,4.699,5.423,4.699,9.188c0,3.579-1.667,6.773-4.277,8.878
			c4.102-1.292,7.051-4.813,7.051-8.968C30.238,326.221,27.087,322.594,22.766,321.419z"/>
	</g>
	
		<path id="path4748" inkscape:rounded="0" inkscape:transform-center-y="-0.35219615" inkscape:flatsided="false" inkscape:transform-center-x="0.015899809" inkscape:randomized="0" sodipodi:r1="56.035706" sodipodi:r2="19.869083" sodipodi:cy="154.73804" sodipodi:cx="246.07317" sodipodi:arg2="2.0215187" sodipodi:sides="5" sodipodi:arg1="1.3932002" sodipodi:type="star" d="
		M26.868,334.668l-2.854-2.146l-2.798,2.224l1.159-3.38l-2.979-1.973l3.571,0.059l0.956-3.442l1.049,3.416l3.568-0.154l-2.924,2.053
		L26.868,334.668z"/>
</g>
</svg>
