<?xml version="1.0" encoding="utf-8"?>
<!-- Generator: Adobe Illustrator 16.0.3, SVG Export Plug-In . SVG Version: 6.00 Build 0)  -->
<!DOCTYPE svg PUBLIC "-//W3C//DTD SVG 1.1//EN" "http://www.w3.org/Graphics/SVG/1.1/DTD/svg11.dtd">
<svg version="1.1"
	 id="svg4750" xmlns:dc="http://purl.org/dc/elements/1.1/" xmlns:cc="http://creativecommons.org/ns#" xmlns:rdf="http://www.w3.org/1999/02/22-rdf-syntax-ns#" xmlns:svg="http://www.w3.org/2000/svg" xmlns:sodipodi="http://sodipodi.sourceforge.net/DTD/sodipodi-0.dtd" xmlns:inkscape="http://www.inkscape.org/namespaces/inkscape" inkscape:export-ydpi="90" inkscape:export-xdpi="90" inkscape:export-filename="C:\Users\Fabienne\Desktop\Symbole\png\jewish.png" sodipodi:docname="jewish.svg" inkscape:version="0.91 r13725"
	 xmlns="http://www.w3.org/2000/svg" xmlns:xlink="http://www.w3.org/1999/xlink" x="0px" y="0px" width="32px" height="32px"
	 viewBox="0 0 32 32" enable-background="new 0 0 32 32" xml:space="preserve">
<sodipodi:namedview  units="px" showgrid="false" id="namedview4754" inkscape:cy="24.0531" inkscape:cx="-5.2508088" inkscape:zoom="9.0509668" borderopacity="1.0" bordercolor="#666666" pagecolor="#ffffff" inkscape:window-maximized="1" inkscape:window-y="-9" inkscape:window-x="-9" inkscape:window-height="1003" inkscape:window-width="1920" inkscape:current-layer="layer1" inkscape:pageshadow="2" inkscape:pageopacity="0.0" inkscape:document-units="pt">
	</sodipodi:namedview>
<g id="layer1" transform="translate(0,-314.4)" inkscape:label="Layer 1" inkscape:groupmode="layer">
	<path id="path4153" inkscape:connector-curvature="0" fill="none" d="M4.539,346.181c-2.588-0.34-4.654-2.447-4.951-5.055
		c-0.03-0.261-0.04-3.851-0.03-10.978l0.014-10.59l0.093-0.384c0.194-0.806,0.446-1.394,0.867-2.024
		c0.859-1.286,2.253-2.188,3.816-2.468c0.402-0.072,1.024-0.076,11.027-0.076c11.843,0,10.882-0.024,11.846,0.298
		c0.865,0.291,1.543,0.702,2.192,1.333c0.687,0.665,1.177,1.445,1.463,2.322c0.304,0.928,0.283,0.088,0.282,11.844
		c0,11.395,0.009,10.876-0.213,11.672c-0.231,0.834-0.774,1.764-1.402,2.399c-0.818,0.831-1.777,1.36-2.991,1.651
		c-0.303,0.072-0.901,0.076-11.028,0.084C9.635,346.213,4.691,346.201,4.539,346.181L4.539,346.181z M26.309,345.693
		c2.151-0.375,3.805-1.967,4.303-4.143l0.098-0.426l0.016-10.377c0.014-10.561,0.01-10.918-0.145-11.578
		c-0.23-1.001-0.768-1.931-1.529-2.652c-0.738-0.7-1.564-1.128-2.629-1.362c-0.346-0.076-0.794-0.079-11.046-0.079
		c-10.093,0-10.707,0.003-11.061,0.076c-1.915,0.39-3.437,1.727-4.038,3.546c-0.276,0.835-0.259,0.095-0.259,11.729
		c0,11.637-0.017,10.893,0.259,11.717c0.609,1.82,2.203,3.205,4.075,3.545C4.87,345.783,25.771,345.787,26.309,345.693
		L26.309,345.693z"/>
	<path id="path4745" inkscape:connector-curvature="0" fill="none" d="M8.329,345.519c-3.917-0.027-3.982-0.029-4.314-0.123
		c-0.875-0.246-1.639-0.695-2.283-1.342c-0.636-0.639-0.992-1.215-1.279-2.074l-0.154-0.459l-0.041-1.539
		c-0.058-2.168-0.019-20.031,0.045-20.497c0.092-0.668,0.455-1.514,0.916-2.133c0.695-0.933,1.595-1.551,2.764-1.897l0.367-0.109
		l2.594-0.031c3.373-0.041,13.687-0.041,16.925,0l2.527,0.032l0.391,0.118c1.783,0.542,3.098,1.896,3.553,3.658
		c0.1,0.385,0.109,0.527,0.148,2.08c0.027,1.035,0.033,5.134,0.017,10.818l-0.028,9.152l-0.102,0.414
		c-0.465,1.867-1.811,3.278-3.611,3.787l-0.408,0.114l-4.043,0.033C17.768,345.56,14.144,345.558,8.329,345.519L8.329,345.519
		L8.329,345.519z"/>
</g>
<g>
	<polygon fill="none" stroke="#000000" stroke-width="2" stroke-linejoin="round" points="27.385,22.416 4.886,22.416 16.056,3.257 
			"/>
	<polygon fill="none" stroke="#000000" stroke-width="2" stroke-linejoin="round" points="4.886,8.815 27.383,8.815 16.215,28.365 	
		"/>
</g>
</svg>
