<?xml version="1.0" encoding="utf-8"?>
<!-- Generator: Adobe Illustrator 16.0.3, SVG Export Plug-In . SVG Version: 6.00 Build 0)  -->
<!DOCTYPE svg PUBLIC "-//W3C//DTD SVG 1.1//EN" "http://www.w3.org/Graphics/SVG/1.1/DTD/svg11.dtd">
<svg version="1.1"
	 id="svg6437" xmlns:dc="http://purl.org/dc/elements/1.1/" xmlns:cc="http://creativecommons.org/ns#" xmlns:rdf="http://www.w3.org/1999/02/22-rdf-syntax-ns#" xmlns:svg="http://www.w3.org/2000/svg" xmlns:sodipodi="http://sodipodi.sourceforge.net/DTD/sodipodi-0.dtd" xmlns:inkscape="http://www.inkscape.org/namespaces/inkscape" inkscape:export-ydpi="90" inkscape:export-xdpi="90" inkscape:export-filename="C:\Users\Fabienne\Desktop\Symbole\png\sikh.png" sodipodi:docname="sikh.svg" inkscape:version="0.91 r13725"
	 xmlns="http://www.w3.org/2000/svg" xmlns:xlink="http://www.w3.org/1999/xlink" x="0px" y="0px" width="32px" height="32px"
	 viewBox="0 0 32 32" enable-background="new 0 0 32 32" xml:space="preserve">
<sodipodi:namedview  units="px" showgrid="false" id="namedview6441" inkscape:cy="9.0828731" inkscape:cx="23.189314" inkscape:zoom="12.8" borderopacity="1.0" bordercolor="#666666" pagecolor="#ffffff" inkscape:window-height="1003" inkscape:window-y="-9" inkscape:window-x="-9" inkscape:window-width="1920" inkscape:window-maximized="1" inkscape:current-layer="layer1" inkscape:pageshadow="2" inkscape:pageopacity="0.0" inkscape:document-units="pt">
	</sodipodi:namedview>
<g id="layer1" transform="translate(0,-314.4)" inkscape:label="Layer 1" inkscape:groupmode="layer">
	<path id="path4153" inkscape:connector-curvature="0" fill="none" d="M5.183,346.172c-2.588-0.339-4.654-2.446-4.951-5.054
		c-0.03-0.26-0.04-3.85-0.03-10.977l0.014-10.59l0.093-0.384c0.194-0.806,0.446-1.394,0.867-2.024
		c0.859-1.286,2.253-2.188,3.816-2.468c0.402-0.072,1.024-0.076,11.027-0.076c11.843,0,10.882-0.024,11.845,0.298
		c0.866,0.291,1.544,0.702,2.193,1.333c0.686,0.665,1.177,1.445,1.463,2.322c0.303,0.928,0.283,0.088,0.282,11.844
		c0,11.394,0.009,10.876-0.212,11.671c-0.232,0.834-0.775,1.763-1.403,2.4c-0.818,0.832-1.778,1.361-2.991,1.652
		c-0.303,0.072-0.902,0.076-11.028,0.083C10.278,346.205,5.335,346.193,5.183,346.172L5.183,346.172z M26.951,345.685
		c2.152-0.375,3.805-1.967,4.303-4.143l0.098-0.427l0.015-10.376c0.015-10.561,0.01-10.918-0.144-11.578
		c-0.231-1.001-0.768-1.931-1.529-2.652c-0.738-0.7-1.564-1.128-2.629-1.362c-0.346-0.076-0.794-0.079-11.046-0.079
		c-10.093,0-10.707,0.003-11.061,0.076c-1.915,0.39-3.437,1.727-4.038,3.546c-0.276,0.835-0.259,0.095-0.259,11.729
		c0,11.637-0.017,10.893,0.259,11.717c0.609,1.82,2.203,3.205,4.075,3.544C5.514,345.775,26.415,345.779,26.951,345.685
		L26.951,345.685z"/>
	<path id="path4745" inkscape:connector-curvature="0" fill="none" d="M8.972,345.511c-3.917-0.027-3.982-0.029-4.314-0.123
		c-0.875-0.246-1.639-0.695-2.283-1.342c-0.636-0.639-0.992-1.216-1.279-2.074l-0.154-0.459l-0.041-1.539
		c-0.058-2.168-0.019-20.031,0.045-20.498c0.092-0.668,0.455-1.514,0.916-2.133c0.695-0.933,1.595-1.551,2.764-1.897l0.367-0.109
		l2.594-0.031c3.373-0.041,13.687-0.041,16.925,0l2.528,0.032l0.39,0.118c1.783,0.542,3.098,1.896,3.553,3.658
		c0.1,0.385,0.109,0.527,0.149,2.08c0.026,1.035,0.032,5.134,0.016,10.818l-0.028,9.152l-0.102,0.414
		c-0.465,1.867-1.811,3.279-3.611,3.787l-0.409,0.115l-4.042,0.033C18.41,345.552,14.788,345.55,8.972,345.511L8.972,345.511
		L8.972,345.511z"/>
</g>
<path fill="#1D1D1B" d="M23.786,8.814c-0.549-0.505-1.142-1.025-1.869-1.246c-0.132-0.09-0.344,0.021-0.237,0.177
	c0.591,0.644,1.23,1.25,1.611,2.046c0.846,1.654,0.679,3.828,0.086,5.517c-0.592,1.939-2.297,3.609-3.83,4.875
	c-0.744,0.593-1.472,1.199-2.271,1.719c-0.258,0.096-0.561,0.431-0.847,0.224c-0.326-0.305-0.209-0.837-0.019-1.188
	c0.353-0.576,0.909-1.027,1.525-1.286c0.276-0.02,0.383-0.287,0.312-0.524c-0.163-0.488-0.044-1.071,0.382-1.383
	c1.125-0.559,1.929-1.573,2.578-2.621c0.634-1.031,0.751-2.284,0.606-3.471c-0.084-1.307-0.91-2.405-1.834-3.272
	c-0.408-0.489-0.994-0.776-1.504-1.136c-0.271-0.427-0.274-0.978-0.272-1.476c-0.561-0.92-1.58-1.447-2.16-2.35
	c-0.026-0.04-0.052-0.081-0.079-0.121c0-0.053,0-0.107,0-0.161c-0.018,0.026-0.035,0.053-0.053,0.08
	c-0.018-0.026-0.035-0.053-0.052-0.08c0,0.053,0,0.107,0,0.161c-0.027,0.04-0.054,0.081-0.08,0.121
	c-0.579,0.903-1.6,1.43-2.161,2.35c0.003,0.498-0.001,1.048-0.271,1.476c-0.511,0.36-1.096,0.647-1.503,1.136
	c-0.925,0.867-1.751,1.966-1.836,3.272c-0.146,1.187-0.026,2.439,0.608,3.471c0.648,1.048,1.454,2.062,2.578,2.621
	c0.424,0.312,0.545,0.895,0.381,1.383c-0.069,0.237,0.035,0.505,0.312,0.524c0.617,0.259,1.173,0.71,1.525,1.286
	c0.192,0.351,0.308,0.883-0.019,1.188c-0.286,0.207-0.588-0.128-0.846-0.224c-0.799-0.52-1.528-1.128-2.271-1.719
	c-1.531-1.266-3.237-2.936-3.829-4.875c-0.595-1.689-0.76-3.863,0.085-5.517c0.381-0.796,1.021-1.402,1.611-2.046
	C10.25,7.588,10.04,7.478,9.91,7.567c-0.73,0.221-1.321,0.741-1.87,1.246c-1.355,1.349-2.105,3.514-1.981,5.417
	c0.064,2.669,1.537,5.286,3.138,7.375c0.627,0.886,1.318,1.786,1.594,2.846c-0.061,0.204,0.171,0.291,0.297,0.14
	c0.885-0.458,1.432-1.387,2.338-1.804c0.4-0.112,0.752,0.138,1.074,0.33c0.154,0.061,0.538,0.205,0.337,0.42
	c-0.399,0.247-0.87,0.368-1.245,0.659c-0.714,0.475-1.366,1.233-1.367,2.131c0.036,0.475,0.57,0.852,1.018,0.632
	c0.524-0.188,0.811-0.825,0.616-1.343c0.013-0.528,0.576-0.779,0.992-0.967c0.211-0.145,0.626-0.222,0.699,0.112
	c0.155,0.536-0.016,1.099-0.069,1.633c-0.076,0.39-0.335,0.71-0.469,1.063c-0.003,0.461,0.381,0.814,0.719,1.07
	c0.087,0.071,0.144,0.092,0.18,0.082c0.036,0.01,0.093-0.011,0.181-0.082c0.338-0.256,0.723-0.609,0.718-1.07
	c-0.133-0.354-0.392-0.674-0.468-1.063c-0.054-0.534-0.225-1.097-0.068-1.633c0.072-0.334,0.486-0.257,0.699-0.112
	c0.416,0.188,0.979,0.438,0.991,0.967c-0.191,0.518,0.092,1.155,0.616,1.343c0.449,0.22,0.982-0.157,1.018-0.632
	c0-0.897-0.652-1.656-1.366-2.131c-0.375-0.291-0.845-0.412-1.247-0.659c-0.197-0.215,0.186-0.359,0.34-0.42
	c0.319-0.192,0.673-0.442,1.073-0.33c0.904,0.417,1.452,1.346,2.338,1.804c0.125,0.151,0.358,0.064,0.297-0.14
	c0.276-1.06,0.967-1.96,1.594-2.846c1.603-2.089,3.073-4.705,3.141-7.375C25.89,12.327,25.139,10.162,23.786,8.814z M17.285,9.621
	c0.075-0.353,0.186-0.896,0.629-0.931c0.246,0.021,0.429,0.254,0.646,0.364c0.952,0.618,1.569,1.322,1.819,2.462
	c0.381,1.352-0.104,2.721-1.018,3.739c-0.462,0.492-0.745,0.917-1.378,1.188c-0.263,0.104-0.511-0.06-0.605-0.308
	c-0.275-0.6-0.396-1.057-0.566-1.695C16.422,12.754,16.867,11.254,17.285,9.621z M15.012,14.439
	c-0.169,0.639-0.29,1.096-0.567,1.695c-0.094,0.248-0.34,0.411-0.603,0.308c-0.634-0.27-0.917-0.695-1.377-1.188
	c-0.917-1.018-1.4-2.387-1.021-3.739c0.25-1.14,0.868-1.844,1.821-2.462c0.215-0.11,0.398-0.343,0.646-0.364
	c0.442,0.036,0.553,0.578,0.628,0.931C14.958,11.254,15.403,12.754,15.012,14.439z"/>
</svg>
