<?xml version="1.0" encoding="utf-8"?>
<!-- Generator: Adobe Illustrator 16.0.3, SVG Export Plug-In . SVG Version: 6.00 Build 0)  -->
<!DOCTYPE svg PUBLIC "-//W3C//DTD SVG 1.1//EN" "http://www.w3.org/Graphics/SVG/1.1/DTD/svg11.dtd">
<svg version="1.1"
	 id="svg4136" xmlns:dc="http://purl.org/dc/elements/1.1/" xmlns:cc="http://creativecommons.org/ns#" xmlns:rdf="http://www.w3.org/1999/02/22-rdf-syntax-ns#" xmlns:svg="http://www.w3.org/2000/svg" xmlns:sodipodi="http://sodipodi.sourceforge.net/DTD/sodipodi-0.dtd" xmlns:inkscape="http://www.inkscape.org/namespaces/inkscape" inkscape:version="0.91 r13725" sodipodi:docname="atm.svg" inkscape:export-filename="C:\Users\Fabienne\Desktop\Symbole\png\atm.png" inkscape:export-xdpi="90" inkscape:export-ydpi="90"
	 xmlns="http://www.w3.org/2000/svg" xmlns:xlink="http://www.w3.org/1999/xlink" x="0px" y="0px" width="32px" height="32px"
	 viewBox="0 0 32 32" enable-background="new 0 0 32 32" xml:space="preserve">
<sodipodi:namedview  objecttolerance="10" gridtolerance="10" guidetolerance="10" pagecolor="#ffffff" bordercolor="#666666" borderopacity="1" inkscape:zoom="32.750001" inkscape:cx="0.78459564" inkscape:cy="22.329523" id="namedview4140" showgrid="false" inkscape:pageopacity="0" inkscape:pageshadow="2" inkscape:current-layer="svg4136" inkscape:window-maximized="1" inkscape:window-width="1920" inkscape:window-x="-9" inkscape:window-y="-9" inkscape:window-height="1003">
	</sodipodi:namedview>
<path id="path4153" inkscape:connector-curvature="0" fill="none" d="M5.183,31.771c-2.588-0.338-4.654-2.445-4.951-5.053
	c-0.03-0.262-0.04-3.852-0.03-10.979L0.216,5.15l0.093-0.384C0.503,3.96,0.755,3.372,1.176,2.742
	c0.859-1.286,2.253-2.188,3.816-2.468c0.402-0.072,1.024-0.076,11.027-0.076c11.842,0,10.881-0.024,11.844,0.298
	c0.867,0.291,1.545,0.702,2.193,1.333c0.687,0.665,1.178,1.445,1.463,2.322c0.304,0.928,0.282,0.088,0.281,11.844
	c0,11.396,0.01,10.876-0.212,11.671c-0.231,0.834-0.774,1.764-1.401,2.398c-0.818,0.832-1.778,1.361-2.992,1.652
	c-0.303,0.072-0.901,0.076-11.027,0.084C10.278,31.807,5.335,31.793,5.183,31.771z M26.951,31.285
	c2.152-0.375,3.805-1.967,4.303-4.143l0.098-0.429l0.017-10.376C31.383,5.777,31.379,5.42,31.223,4.76
	c-0.229-1.001-0.768-1.931-1.529-2.652c-0.736-0.7-1.563-1.127-2.629-1.362C26.719,0.67,26.271,0.667,16.02,0.667
	c-10.093,0-10.707,0.004-11.061,0.076C3.042,1.134,1.521,2.471,0.92,4.29C0.644,5.125,0.661,4.386,0.661,16.019
	c0,11.637-0.017,10.893,0.259,11.717c0.609,1.82,2.203,3.205,4.075,3.543C5.514,31.375,26.415,31.379,26.951,31.285z"/>
<path id="path4745" inkscape:connector-curvature="0" fill="none" d="M8.964,31.068c-3.913-0.025-3.978-0.027-4.309-0.121
	c-0.874-0.244-1.637-0.693-2.28-1.34c-0.635-0.637-0.991-1.213-1.277-2.068L0.944,27.08l-0.041-1.535
	C0.845,23.381,0.884,5.557,0.948,5.092C1.04,4.425,1.402,3.581,1.863,2.962c0.694-0.931,1.593-1.548,2.761-1.893l0.367-0.108
	L7.582,0.93c3.369-0.041,13.671-0.041,16.906,0l2.525,0.032l0.389,0.118c1.781,0.541,3.096,1.892,3.549,3.65
	c0.1,0.384,0.109,0.525,0.15,2.075c0.024,1.032,0.03,5.124,0.014,10.793l-0.025,9.135l-0.104,0.412
	c-0.463,1.865-1.81,3.273-3.607,3.779l-0.408,0.115l-4.037,0.031C18.393,31.109,14.773,31.109,8.964,31.068L8.964,31.068z"/>
<path id="path4137" inkscape:connector-curvature="0" fill="#1E1E1C" d="M14.179,17.9c-1.811-0.488-3.247-1.578-3.638-2.754
	c-0.281-0.845,0.013-1.753,0.828-2.558c0.886-0.875,2.19-1.454,3.714-1.649c2.955-0.379,6.222,1.485,6.222,3.55
	c0,1.387-1.586,2.845-3.664,3.369C16.816,18.064,14.875,18.09,14.179,17.9z"/>
<path id="path4139" inkscape:connector-curvature="0" fill="#1E1E1C" d="M9.386,25.38c-0.963-0.032-1.667-0.093-1.771-0.153
	c-0.27-0.156-0.628-0.564-0.729-0.834c-0.063-0.164-0.092-2.668-0.092-7.793V9.048h0.821h0.82v5.472v5.472l0.58,0.145
	c0.871,0.215,1.304,0.459,1.946,1.098c0.637,0.634,0.953,1.201,1.112,2l0.099,0.496h3.698h3.698l0.055-0.321
	c0.275-1.642,1.548-2.966,3.17-3.302l0.497-0.103v-5.478V9.048h0.867h0.866l-0.06,7.578c-0.063,8.142-0.04,7.776-0.521,8.258
	c-0.543,0.544-0.156,0.515-7.112,0.532C13.84,25.426,10.264,25.408,9.386,25.38z"/>
<path id="path4141" inkscape:connector-curvature="0" fill="#1E1E1C" d="M4.204,10.626c-0.299-0.112-0.641-0.421-0.874-0.789
	L3.081,9.446V7.282c0-1.243,0.039-2.302,0.091-2.49c0.118-0.426,0.515-0.87,0.976-1.093c0.367-0.178,0.419-0.178,11.72-0.176
	c1.1,0,2.199,0.007,3.299,0.006c1.929-0.002,3.857-0.017,5.785,0.014c0.862,0.014,1.985-0.052,2.765,0.257
	c0.786,0.313,0.924,0.918,0.919,1.713c-0.003,0.54,0.009,1.082,0.009,1.621v2.298L28.37,9.835c-0.304,0.445-0.86,0.853-1.165,0.853
	h-0.196l-0.022-1.792l-0.022-1.792l-11.08-0.021L4.808,7.061v1.814v1.814l-0.237-0.007C4.44,10.678,4.275,10.653,4.204,10.626z"/>
<path id="path4143" inkscape:connector-curvature="0" fill="#1E1E1C" d="M7.788,28.922c-0.59-0.365-0.874-0.883-0.965-1.757
	l-0.056-0.536l0.366,0.29c0.654,0.519,0.644,0.517,4.758,0.515c2.066-0.002,5.603-0.033,7.859-0.067
	c4.438-0.072,4.4-0.067,4.99-0.565l0.283-0.236l-0.053,0.377c-0.134,0.969-0.486,1.656-1.021,1.979
	c-0.262,0.16-0.543,0.166-8.086,0.166C8.389,29.084,8.036,29.076,7.788,28.922z"/>
</svg>
