<?xml version="1.0" encoding="utf-8"?>
<!-- Generator: Adobe Illustrator 16.0.3, SVG Export Plug-In . SVG Version: 6.00 Build 0)  -->
<!DOCTYPE svg PUBLIC "-//W3C//DTD SVG 1.1//EN" "http://www.w3.org/Graphics/SVG/1.1/DTD/svg11.dtd">
<svg version="1.1"
	 id="svg4182" xmlns:sodipodi="http://sodipodi.sourceforge.net/DTD/sodipodi-0.dtd" xmlns:inkscape="http://www.inkscape.org/namespaces/inkscape" xmlns:rdf="http://www.w3.org/1999/02/22-rdf-syntax-ns#" xmlns:dc="http://purl.org/dc/elements/1.1/" xmlns:svg="http://www.w3.org/2000/svg" xmlns:cc="http://creativecommons.org/ns#" inkscape:export-ydpi="90" inkscape:export-xdpi="90" inkscape:export-filename="C:\Users\fkoenig\Documents\Osmaxx_Icons\fertige_symbole\2\bank.png" sodipodi:docname="bank.svg" inkscape:version="0.91 r13725"
	 xmlns="http://www.w3.org/2000/svg" xmlns:xlink="http://www.w3.org/1999/xlink" x="0px" y="0px" width="32px" height="32px"
	 viewBox="0 0 32 32" enable-background="new 0 0 32 32" xml:space="preserve">
<sodipodi:namedview  showgrid="false" id="namedview4186" inkscape:cy="13.015455" inkscape:cx="-16.35401" inkscape:zoom="20.85965" bordercolor="#666666" gridtolerance="10" borderopacity="1" pagecolor="#ffffff" objecttolerance="10" guidetolerance="10" inkscape:window-y="-9" inkscape:window-height="1003" inkscape:window-x="-9" inkscape:window-width="1920" inkscape:window-maximized="1" inkscape:current-layer="svg4182" inkscape:pageshadow="2" inkscape:pageopacity="0">
	</sodipodi:namedview>
<path id="path4153" inkscape:connector-curvature="0" inkscape:export-ydpi="90" inkscape:export-xdpi="90" inkscape:export-filename="C:\Users\Fabienne\Desktop\Symbole\png\bank.png" fill="none" d="
	M5.183,31.771c-2.588-0.338-4.654-2.445-4.951-5.053c-0.03-0.263-0.04-3.853-0.03-10.98L0.216,5.15l0.093-0.384
	C0.503,3.96,0.755,3.372,1.176,2.742c0.859-1.286,2.253-2.188,3.816-2.468c0.402-0.072,1.024-0.076,11.027-0.076
	c11.842,0,10.881-0.024,11.844,0.298c0.867,0.291,1.545,0.702,2.193,1.333c0.687,0.665,1.178,1.445,1.463,2.322
	c0.304,0.928,0.281,0.088,0.28,11.844c0,11.396,0.011,10.876-0.212,11.671c-0.23,0.834-0.773,1.764-1.4,2.398
	c-0.818,0.832-1.778,1.36-2.992,1.651c-0.303,0.072-0.901,0.076-11.027,0.084C10.278,31.807,5.335,31.793,5.183,31.771z
	 M26.951,31.285c2.152-0.375,3.805-1.967,4.303-4.143l0.098-0.43l0.018-10.376c0.014-10.56,0.01-10.917-0.146-11.577
	c-0.229-1.001-0.768-1.931-1.529-2.652c-0.735-0.7-1.563-1.127-2.629-1.362C26.719,0.67,26.271,0.667,16.02,0.667
	c-10.093,0-10.707,0.004-11.061,0.076C3.042,1.134,1.521,2.471,0.92,4.29C0.644,5.125,0.661,4.386,0.661,16.019
	c0,11.637-0.017,10.893,0.259,11.717c0.609,1.82,2.203,3.205,4.075,3.543C5.514,31.375,26.415,31.379,26.951,31.285z"/>
<path id="path4745" inkscape:connector-curvature="0" inkscape:export-ydpi="90" inkscape:export-xdpi="90" inkscape:export-filename="C:\Users\Fabienne\Desktop\Symbole\png\bank.png" fill="none" d="
	M8.962,31.111c-3.913-0.025-3.978-0.027-4.309-0.121c-0.874-0.245-1.637-0.693-2.28-1.34c-0.635-0.637-0.991-1.213-1.277-2.068
	l-0.154-0.459l-0.041-1.535C0.843,23.424,0.882,5.598,0.946,5.133C1.038,4.466,1.4,3.622,1.861,3.004
	c0.694-0.931,1.593-1.548,2.761-1.893l0.367-0.108L7.58,0.971c3.369-0.041,13.672-0.041,16.906,0l2.525,0.032L27.4,1.121
	c1.781,0.541,3.095,1.892,3.549,3.65c0.1,0.384,0.109,0.525,0.15,2.075c0.022,1.033,0.028,5.124,0.014,10.794l-0.026,9.135
	l-0.103,0.412c-0.463,1.865-1.812,3.271-3.607,3.777l-0.408,0.115l-4.037,0.031C18.391,31.152,14.771,31.152,8.962,31.111
	L8.962,31.111z"/>
<rect x="3.912" y="7.462" fill="#FFFFFF" width="24.289" height="13.078"/>
<path id="path4705" inkscape:connector-curvature="0" fill="#1E1E1C" d="M15.129,17.756c-1.647-0.232-3.045-0.877-3.86-1.778
	c-1.535-1.697-0.905-3.849,1.477-5.043c2.252-1.129,5.496-0.964,7.496,0.382c0.72,0.485,1.32,1.241,1.535,1.931
	c0.104,0.336,0.125,0.976,0.043,1.337c-0.271,1.187-1.467,2.276-3.09,2.815c-0.859,0.285-1.297,0.351-2.427,0.363
	C15.736,17.771,15.208,17.768,15.129,17.756L15.129,17.756z"/>
<path id="path4707" inkscape:connector-curvature="0" fill="#1E1E1C" d="M4.348,21.619C3.753,21.55,3.256,21.234,3,20.762
	c-0.276-0.508-0.269-0.289-0.27-7.662L2.729,6.329h13.423h13.423l-0.001,6.675c0,4.146-0.02,6.803-0.049,7.012
	c-0.127,0.896-0.73,1.487-1.633,1.604C27.463,21.676,4.826,21.675,4.348,21.619z M23.846,19.523
	c0.116-0.904,0.482-1.656,1.143-2.346c0.656-0.691,1.507-1.121,2.441-1.241l0.229-0.029v-1.932v-1.932l-0.349-0.028
	c-1.172-0.094-2.504-1.086-3.104-2.311c-0.199-0.409-0.313-0.788-0.359-1.235l-0.031-0.275h-7.665c-6.942,0-7.665,0.007-7.691,0.076
	C8.447,8.316,8.434,8.43,8.434,8.528c0,0.497-0.391,1.402-0.854,1.977c-0.678,0.843-1.711,1.448-2.586,1.516l-0.348,0.027v1.932
	v1.932l0.228,0.029c0.951,0.122,1.695,0.498,2.41,1.218c0.614,0.618,1.068,1.493,1.13,2.179c0.015,0.162,0.035,0.321,0.045,0.354
	c0.015,0.051,1.594,0.063,7.687,0.063h7.668L23.846,19.523z"/>
<path id="path4709" inkscape:connector-curvature="0" fill="#1E1E1C" d="M4.376,25.454c-0.969-0.128-1.502-0.929-1.621-2.435
	l-0.028-0.354l0.324,0.271c0.179,0.146,0.485,0.352,0.682,0.446l0.357,0.179h12.062h12.062l0.356-0.179
	c0.197-0.099,0.486-0.284,0.646-0.415l0.288-0.24l0.016,0.228c0.023,0.334-0.078,0.896-0.24,1.315
	c-0.188,0.487-0.53,0.871-0.961,1.068l-0.301,0.141l-11.671,0.006C9.924,25.49,4.538,25.477,4.376,25.454L4.376,25.454z"/>
</svg>
