<?xml version="1.0" encoding="utf-8"?>
<!-- Generator: Adobe Illustrator 16.0.3, SVG Export Plug-In . SVG Version: 6.00 Build 0)  -->
<!DOCTYPE svg PUBLIC "-//W3C//DTD SVG 1.1//EN" "http://www.w3.org/Graphics/SVG/1.1/DTD/svg11.dtd">
<svg version="1.1"
	 id="svg6736" xmlns:dc="http://purl.org/dc/elements/1.1/" xmlns:cc="http://creativecommons.org/ns#" xmlns:rdf="http://www.w3.org/1999/02/22-rdf-syntax-ns#" xmlns:svg="http://www.w3.org/2000/svg" xmlns:sodipodi="http://sodipodi.sourceforge.net/DTD/sodipodi-0.dtd" xmlns:inkscape="http://www.inkscape.org/namespaces/inkscape" inkscape:version="0.91 r13725" sodipodi:docname="money_changer.svg" inkscape:export-filename="C:\Users\Fabienne\Desktop\Symbole\png\money_changer.png" inkscape:export-xdpi="90" inkscape:export-ydpi="90"
	 xmlns="http://www.w3.org/2000/svg" xmlns:xlink="http://www.w3.org/1999/xlink" x="0px" y="0px" width="32px" height="32px"
	 viewBox="0 0 32 32" enable-background="new 0 0 32 32" xml:space="preserve">
<g id="flowRoot7339-9" transform="matrix(1.34203,0,0,1.34203,-22.369865,-5.114913)">
</g>
<g id="flowRoot7383" transform="scale(0.8,0.8)">
</g>
<g id="flowRoot7339-7" transform="matrix(1.34203,0,0,1.34203,-184.29732,57.817591)">
</g>
<g id="flowRoot9530">
</g>
<g id="flowRoot9550">
</g>
<path id="path4153" inkscape:connector-curvature="0" fill="none" d="M5.183,31.771c-2.588-0.338-4.654-2.443-4.951-5.053
	c-0.03-0.261-0.04-3.852-0.03-10.978l0.014-10.59l0.093-0.384c0.194-0.806,0.446-1.394,0.867-2.024
	c0.859-1.286,2.253-2.188,3.816-2.468c0.402-0.072,1.024-0.076,11.027-0.076c11.842,0,10.881-0.022,11.844,0.298
	c0.867,0.291,1.545,0.702,2.193,1.333c0.687,0.665,1.178,1.445,1.463,2.322c0.304,0.928,0.281,0.088,0.28,11.844
	c0,11.395,0.011,10.876-0.212,11.671c-0.23,0.834-0.773,1.763-1.4,2.399c-0.818,0.832-1.778,1.361-2.992,1.652
	c-0.303,0.07-0.901,0.074-11.027,0.084C10.278,31.805,5.335,31.793,5.183,31.771L5.183,31.771z M26.951,31.285
	c2.152-0.375,3.805-1.967,4.303-4.143l0.098-0.43l0.018-10.376c0.015-10.561,0.01-10.918-0.146-11.578
	c-0.229-1.001-0.768-1.931-1.529-2.652c-0.735-0.7-1.563-1.128-2.629-1.362c-0.346-0.076-0.793-0.079-11.043-0.079
	C5.928,0.666,5.314,0.669,4.96,0.742c-1.915,0.39-3.437,1.729-4.038,3.546C0.646,5.123,0.663,4.383,0.663,16.017
	c0,11.635-0.017,10.891,0.259,11.715c0.609,1.82,2.203,3.205,4.075,3.543C5.514,31.375,26.415,31.379,26.951,31.285L26.951,31.285z"
	/>
<path id="path4745" inkscape:connector-curvature="0" fill="none" d="M8.972,31.111c-3.917-0.027-3.982-0.029-4.314-0.123
	c-0.875-0.246-1.639-0.695-2.283-1.342c-0.636-0.642-0.992-1.217-1.279-2.074l-0.154-0.459l-0.041-1.539
	c-0.058-2.168-0.019-20.031,0.045-20.5C1.038,4.406,1.401,3.56,1.862,2.941C2.557,2.008,3.457,1.39,4.626,1.044l0.367-0.109
	l2.594-0.031c3.373-0.041,13.687-0.041,16.925,0l2.528,0.032l0.39,0.118c1.783,0.542,3.098,1.896,3.553,3.658
	c0.103,0.385,0.109,0.527,0.149,2.08c0.026,1.035,0.032,5.134,0.017,10.815l-0.026,9.152l-0.104,0.414
	c-0.465,1.867-1.811,3.279-3.608,3.787L27,31.076l-4.042,0.033C18.41,31.152,14.788,31.15,8.972,31.111L8.972,31.111L8.972,31.111z"
	/>
<g>
	<rect x="4.127" y="8.302" opacity="0.7" fill="#1E1E1C" enable-background="new    " width="23.499" height="9.928"/>
	<rect x="4.031" y="8.157" fill="none" stroke="#1E1E1C" stroke-miterlimit="10" width="23.595" height="10.073"/>
	<ellipse fill="#FFFFFF" cx="19.906" cy="17.338" rx="5.107" ry="5.762"/>
	<path id="path36905" inkscape:connector-curvature="0" fill="#1E1E1C" d="M19.226,23.586c-0.965-0.113-1.822-0.408-2.674-0.928
		c-0.63-0.387-1.586-1.326-1.977-1.947c-1.58-2.518-1.203-5.718,0.918-7.764c0.82-0.793,1.893-1.382,3.004-1.645
		c0.803-0.191,2.104-0.191,2.9,0c1.082,0.255,2.018,0.761,2.863,1.53c2.049,1.875,2.611,4.791,1.393,7.25
		c-0.496,1.002-1.115,1.727-1.992,2.361C22.397,23.34,20.759,23.764,19.226,23.586L19.226,23.586z M22.001,21.902
		c0.328-0.035,0.629-0.082,0.664-0.107c0.039-0.033,0.189-0.084,0.34-0.125l0.268-0.072v-0.902c0-0.494-0.012-0.9-0.029-0.9
		c-0.014,0-0.209,0.109-0.428,0.236c-0.217,0.127-0.52,0.262-0.67,0.277c-0.146,0.023-0.285,0.066-0.303,0.094
		c-0.041,0.064-1.166,0.074-1.166,0.008c0-0.029-0.143-0.086-0.314-0.123c-0.174-0.039-0.316-0.104-0.316-0.131
		c0-0.031-0.035-0.053-0.08-0.055c-0.041,0-0.207-0.121-0.363-0.266c-0.379-0.354-0.432-0.42-0.479-0.6
		c-0.023-0.086-0.066-0.17-0.098-0.193c-0.033-0.018-0.057-0.086-0.057-0.15c0-0.113,0.057-0.119,1.52-0.119
		c1.736,0,1.582,0.057,1.674-0.586l0.045-0.316h-1.684h-1.682V17.48V17.09h1.764c1.336,0,1.781-0.02,1.83-0.076
		c0.035-0.039,0.084-0.207,0.109-0.371c0.021-0.167,0.055-0.354,0.07-0.409c0.029-0.103-0.086-0.106-1.807-0.106
		c-1.594,0-1.84-0.016-1.84-0.09c0-0.049,0.023-0.09,0.055-0.09s0.072-0.082,0.092-0.183c0.035-0.168,0.088-0.24,0.441-0.595
		c0.445-0.449,0.898-0.606,1.732-0.61c0.66,0,1.088,0.086,1.355,0.28c0.199,0.138,0.219,0.143,0.295,0.042
		c0.043-0.054,0.08-0.175,0.08-0.263c0-0.088,0.023-0.182,0.057-0.214c0.057-0.055,0.197-0.748,0.197-0.973
		c0-0.095-0.053-0.133-0.205-0.17c-0.115-0.024-0.238-0.064-0.275-0.096c-0.039-0.03-0.379-0.086-0.754-0.122
		c-0.523-0.055-0.846-0.051-1.416,0.006c-0.404,0.038-0.764,0.102-0.799,0.13c-0.033,0.035-0.105,0.054-0.16,0.054
		c-0.1,0-0.973,0.387-1.102,0.488c-0.039,0.032-0.174,0.132-0.297,0.222c-0.348,0.255-0.947,0.944-0.947,1.09
		c0,0.037-0.027,0.061-0.063,0.061c-0.033,0-0.064,0.041-0.064,0.075c-0.002,0.042-0.057,0.188-0.125,0.315
		c-0.068,0.132-0.123,0.285-0.125,0.347c-0.006,0.252-0.07,0.286-0.484,0.286c-0.347,0-0.404,0.015-0.404,0.113
		c0,0.055-0.029,0.13-0.064,0.167c-0.033,0.035-0.068,0.198-0.078,0.362l-0.016,0.295l0.395,0.021l0.394,0.016v0.387v0.391H16.39
		c-0.271,0-0.31,0.016-0.376,0.166c-0.042,0.09-0.092,0.289-0.117,0.447l-0.043,0.281h0.505h0.506l0.045,0.227
		c0.025,0.119,0.1,0.34,0.166,0.48c0.066,0.135,0.121,0.277,0.121,0.314c0,0.033,0.029,0.061,0.063,0.061
		c0.035,0,0.063,0.037,0.063,0.08s0.057,0.141,0.129,0.221c0.07,0.074,0.127,0.158,0.127,0.182c0,0.076,0.764,0.773,0.891,0.811
		c0.068,0.021,0.123,0.059,0.123,0.09c0,0.066,0.695,0.402,0.951,0.453c0.121,0.023,0.252,0.066,0.289,0.096
		C20.013,21.932,21.142,21.99,22.001,21.902L22.001,21.902z"/>
</g>
</svg>
