<?xml version="1.0" encoding="utf-8"?>
<!-- Generator: Adobe Illustrator 16.0.3, SVG Export Plug-In . SVG Version: 6.00 Build 0)  -->
<!DOCTYPE svg PUBLIC "-//W3C//DTD SVG 1.1//EN" "http://www.w3.org/Graphics/SVG/1.1/DTD/svg11.dtd">
<svg version="1.1"
	 id="svg2" xmlns:dc="http://purl.org/dc/elements/1.1/" xmlns:cc="http://creativecommons.org/ns#" xmlns:rdf="http://www.w3.org/1999/02/22-rdf-syntax-ns#" xmlns:svg="http://www.w3.org/2000/svg" xmlns:sodipodi="http://sodipodi.sourceforge.net/DTD/sodipodi-0.dtd" xmlns:inkscape="http://www.inkscape.org/namespaces/inkscape" inkscape:version="0.91 r13725" sodipodi:docname="courthouse.svg" inkscape:export-filename="C:\Users\Fabienne\Desktop\Symbole\png\courthouse.png" inkscape:export-xdpi="90" inkscape:export-ydpi="90"
	 xmlns="http://www.w3.org/2000/svg" xmlns:xlink="http://www.w3.org/1999/xlink" x="0px" y="0px" width="32px" height="32px"
	 viewBox="0 0 32 32" enable-background="new 0 0 32 32" xml:space="preserve">
<sodipodi:namedview  objecttolerance="10" gridtolerance="10" guidetolerance="10" pagecolor="#ffffff" bordercolor="#666666" borderopacity="1" inkscape:zoom="10.429825" inkscape:cx="-22.525392" inkscape:cy="8.0487246" id="namedview9172" showgrid="false" inkscape:pageopacity="0" inkscape:pageshadow="2" inkscape:current-layer="svg2" inkscape:window-maximized="1" inkscape:window-width="1920" inkscape:window-x="-9" inkscape:window-y="-9" inkscape:window-height="1003">
	</sodipodi:namedview>
<path id="path4153" inkscape:connector-curvature="0" fill="none" d="M5.183,31.771c-2.588-0.338-4.654-2.445-4.951-5.053
	c-0.03-0.262-0.04-3.852-0.03-10.979L0.216,5.15l0.093-0.384C0.503,3.96,0.755,3.372,1.176,2.742
	c0.859-1.286,2.253-2.188,3.816-2.468c0.402-0.072,1.024-0.076,11.027-0.076c11.842,0,10.881-0.024,11.844,0.298
	c0.867,0.291,1.545,0.702,2.193,1.333c0.687,0.665,1.178,1.445,1.463,2.322c0.304,0.928,0.282,0.088,0.281,11.844
	c0,11.396,0.01,10.876-0.212,11.671c-0.231,0.834-0.774,1.764-1.401,2.398c-0.818,0.832-1.778,1.361-2.992,1.652
	c-0.303,0.072-0.901,0.076-11.027,0.084C10.278,31.807,5.335,31.793,5.183,31.771L5.183,31.771z M26.951,31.285
	c2.152-0.375,3.805-1.967,4.303-4.143l0.098-0.429l0.017-10.376C31.383,5.777,31.379,5.42,31.223,4.76
	c-0.229-1.001-0.768-1.931-1.529-2.652c-0.736-0.7-1.563-1.127-2.629-1.362C26.719,0.67,26.271,0.667,16.02,0.667
	c-10.093,0-10.707,0.004-11.061,0.076C3.042,1.134,1.521,2.471,0.92,4.29C0.644,5.125,0.661,4.386,0.661,16.019
	c0,11.637-0.017,10.893,0.259,11.717c0.609,1.82,2.203,3.205,4.075,3.543C5.514,31.375,26.415,31.379,26.951,31.285z"/>
<path id="path4745" inkscape:connector-curvature="0" fill="none" d="M8.972,31.111c-3.917-0.027-3.982-0.029-4.314-0.123
	c-0.875-0.246-1.639-0.695-2.283-1.342c-0.636-0.641-0.992-1.217-1.279-2.074l-0.154-0.459l-0.041-1.539
	C0.844,23.406,0.883,5.543,0.947,5.077c0.092-0.668,0.455-1.514,0.916-2.133C2.558,2.01,3.458,1.392,4.627,1.046l0.367-0.109
	l2.594-0.031c3.373-0.041,13.688-0.041,16.926,0l2.527,0.032l0.391,0.118c1.782,0.542,3.098,1.896,3.553,3.658
	c0.101,0.385,0.108,0.527,0.148,2.079c0.026,1.035,0.032,5.134,0.016,10.818l-0.026,9.152l-0.103,0.414
	c-0.465,1.865-1.812,3.277-3.61,3.785L27,31.078l-4.042,0.031C18.41,31.152,14.788,31.15,8.972,31.111L8.972,31.111L8.972,31.111z"
	/>
<rect id="canvas" y="16" display="none" fill="none" width="16" height="16"/>
<path id="path9714" inkscape:connector-curvature="0" opacity="0.97" fill="#C44216" enable-background="new    " d="M5.791,27.33
	l0.853-0.859l3.634-0.033l3.634-0.031v-9.043V8.321l-2.983-0.033C9.288,8.27,7.945,8.287,7.945,8.325
	c0,0.038,0.914,2.099,2.03,4.579c1.117,2.48,2.03,4.571,2.03,4.646c0,0.481-0.434,1.451-0.876,1.953
	c-1.054,1.197-2.983,1.701-4.931,1.289c-1.652-0.351-2.898-1.508-3.12-2.896c-0.067-0.424,0.134-0.935,1.931-4.901
	c1.98-4.371,2.007-4.442,2.071-5.461l0.065-1.033l3.383-0.903c1.861-0.497,3.39-0.904,3.398-0.905
	c0.008-0.001,0.049-0.215,0.091-0.474c0.147-0.919,1.088-1.484,2.09-1.256c0.614,0.14,1.034,0.544,1.211,1.167
	c0.08,0.275,0.158,0.519,0.176,0.543s1.518,0.44,3.33,0.924l3.299,0.88l0.068,0.982c0.066,0.949,0.141,1.137,2.109,5.478
	c1.896,4.172,2.034,4.53,1.949,4.983c-0.223,1.184-1.082,2.166-2.336,2.664c-0.994,0.396-3.199,0.391-4.227-0.012
	c-1.277-0.5-2.305-1.816-2.305-2.957c0-0.174,0.862-2.226,1.917-4.561c1.054-2.334,1.966-4.368,2.026-4.521l0.109-0.277h-3.012
	h-3.012v9.104v9.104h3.663h3.663l0.854,0.861l0.854,0.86h-10.75H4.938L5.791,27.33z M10.013,15.671
	c-0.409-0.93-1.117-2.549-1.574-3.598c-0.457-1.049-0.878-1.899-0.937-1.889c-0.059,0.01-0.756,1.504-1.551,3.321
	c-0.795,1.817-1.5,3.429-1.568,3.58L4.26,17.363h3.248h3.249L10.013,15.671z M27.014,17.285c0-0.166-3.111-7.18-3.184-7.178
	c-0.055,0.001-2.803,6.152-3.193,7.151c-0.021,0.059,1.403,0.105,3.168,0.105C25.57,17.363,27.014,17.328,27.014,17.285z"/>
</svg>
