<?xml version="1.0" encoding="utf-8"?>
<!-- Generator: Adobe Illustrator 16.0.3, SVG Export Plug-In . SVG Version: 6.00 Build 0)  -->
<!DOCTYPE svg PUBLIC "-//W3C//DTD SVG 1.1//EN" "http://www.w3.org/Graphics/SVG/1.1/DTD/svg11.dtd">
<svg version="1.1"
	 id="svg10838" xmlns:dc="http://purl.org/dc/elements/1.1/" xmlns:cc="http://creativecommons.org/ns#" xmlns:rdf="http://www.w3.org/1999/02/22-rdf-syntax-ns#" xmlns:svg="http://www.w3.org/2000/svg" xmlns:sodipodi="http://sodipodi.sourceforge.net/DTD/sodipodi-0.dtd" xmlns:inkscape="http://www.inkscape.org/namespaces/inkscape" inkscape:version="0.91 r13725" sodipodi:docname="embassy.svg" inkscape:export-filename="C:\Users\Fabienne\Desktop\Symbole\png\embassy.png" inkscape:export-xdpi="90" inkscape:export-ydpi="90"
	 xmlns="http://www.w3.org/2000/svg" xmlns:xlink="http://www.w3.org/1999/xlink" x="0px" y="0px" width="32px" height="32px"
	 viewBox="0 0 32 32" enable-background="new 0 0 32 32" xml:space="preserve">
<sodipodi:namedview  pagecolor="#ffffff" bordercolor="#666666" borderopacity="1" inkscape:zoom="10.429825" inkscape:cx="2.5400632" inkscape:cy="15.972745" id="namedview10842" showgrid="false" inkscape:pageopacity="0" inkscape:pageshadow="2" inkscape:current-layer="svg10838" inkscape:window-maximized="1" inkscape:window-height="1003" inkscape:window-width="1920" inkscape:window-x="-9" inkscape:window-y="-9" guidetolerance="10" objecttolerance="10" gridtolerance="10">
	</sodipodi:namedview>
<path id="path4153" inkscape:connector-curvature="0" fill="none" d="M5.183,31.771c-2.588-0.338-4.654-2.445-4.951-5.053
	c-0.03-0.265-0.04-3.855-0.03-10.982L0.216,5.15l0.093-0.384C0.503,3.96,0.755,3.372,1.176,2.742
	c0.859-1.286,2.253-2.188,3.816-2.468c0.402-0.072,1.024-0.076,11.027-0.076c11.842,0,10.881-0.024,11.844,0.298
	c0.867,0.291,1.545,0.702,2.193,1.333c0.687,0.665,1.178,1.445,1.463,2.322c0.304,0.928,0.279,0.088,0.278,11.844
	c0,11.396,0.013,10.876-0.212,11.671c-0.229,0.834-0.771,1.764-1.398,2.398c-0.818,0.832-1.778,1.358-2.992,1.649
	c-0.303,0.072-0.901,0.076-11.027,0.084C10.278,31.807,5.335,31.793,5.183,31.771L5.183,31.771z M26.951,31.285
	c2.152-0.375,3.805-1.967,4.303-4.143l0.098-0.432l0.02-10.376c0.014-10.56,0.01-10.917-0.146-11.577
	c-0.229-1.001-0.769-1.931-1.529-2.652c-0.734-0.7-1.563-1.127-2.629-1.362C26.719,0.67,26.271,0.667,16.02,0.667
	c-10.093,0-10.707,0.004-11.061,0.076C3.042,1.134,1.521,2.471,0.92,4.29C0.644,5.125,0.661,4.386,0.661,16.019
	c0,11.637-0.017,10.893,0.259,11.717c0.609,1.82,2.203,3.205,4.075,3.543C5.514,31.375,26.415,31.379,26.951,31.285z"/>
<path id="path4745" inkscape:connector-curvature="0" opacity="0.3" fill="none" enable-background="new    " d="M8.972,31.111
	c-3.917-0.027-3.982-0.029-4.314-0.123c-0.875-0.246-1.639-0.695-2.283-1.342c-0.636-0.644-0.992-1.217-1.279-2.074l-0.154-0.459
	l-0.041-1.539C0.844,23.406,0.883,5.543,0.947,5.077c0.092-0.668,0.455-1.514,0.916-2.133C2.558,2.01,3.458,1.392,4.627,1.046
	l0.367-0.109l2.594-0.031c3.373-0.041,13.688-0.041,16.926,0l2.527,0.032l0.391,0.118c1.782,0.542,3.098,1.896,3.553,3.658
	c0.104,0.385,0.108,0.527,0.148,2.079c0.026,1.035,0.032,5.134,0.016,10.818l-0.023,9.152l-0.104,0.414
	c-0.465,1.862-1.813,3.274-3.608,3.782L27,31.078l-4.042,0.031C18.41,31.152,14.788,31.15,8.972,31.111L8.972,31.111z"/>
<path id="path11388" inkscape:connector-curvature="0" inkscape:export-filename="C:\Users\fkoenig\Documents\Osmaxx_Icons\fertige_symbole\all_symbols\embassy.png" inkscape:export-xdpi="90" inkscape:export-ydpi="90" fill="#C44216" d="
	M12.108,19.457c-0.915-0.139-1.707-0.438-2.479-0.938l-0.705-0.455V12.13V6.2l0.61,0.388c1.201,0.764,1.841,0.937,3.459,0.937
	c1.346,0,1.524-0.027,2.403-0.362c0.522-0.199,1.516-0.704,2.209-1.122c2.139-1.29,3.953-1.71,5.65-1.31
	c0.918,0.216,1.913,0.662,2.408,1.079l0.352,0.291v5.912v5.915l-0.58-0.394c-1.209-0.813-2.824-1.195-4.23-0.998
	c-1.383,0.19-2.324,0.58-4.252,1.741C15.37,19.241,13.565,19.68,12.108,19.457z"/>
<path id="path11390" inkscape:connector-curvature="0" inkscape:export-filename="C:\Users\fkoenig\Documents\Osmaxx_Icons\fertige_symbole\all_symbols\embassy.png" inkscape:export-xdpi="90" inkscape:export-ydpi="90" fill="#C44216" d="
	M5.792,27.52c-0.24-0.305-0.241-0.354-0.241-11.104c0-11.633-0.014-11.359,0.585-11.549C6.49,4.75,6.916,5.087,7.055,5.59
	c0.131,0.473,0.178,20.553,0.049,21.33C6.963,27.781,6.253,28.105,5.792,27.52z"/>
</svg>
