<?xml version="1.0" encoding="utf-8"?>
<!-- Generator: Adobe Illustrator 16.0.3, SVG Export Plug-In . SVG Version: 6.00 Build 0)  -->
<!DOCTYPE svg PUBLIC "-//W3C//DTD SVG 1.1//EN" "http://www.w3.org/Graphics/SVG/1.1/DTD/svg11.dtd">
<svg version="1.1"
	 id="svg11960" xmlns:dc="http://purl.org/dc/elements/1.1/" xmlns:cc="http://creativecommons.org/ns#" xmlns:rdf="http://www.w3.org/1999/02/22-rdf-syntax-ns#" xmlns:svg="http://www.w3.org/2000/svg" xmlns:sodipodi="http://sodipodi.sourceforge.net/DTD/sodipodi-0.dtd" xmlns:inkscape="http://www.inkscape.org/namespaces/inkscape" inkscape:export-ydpi="90" inkscape:export-xdpi="90" inkscape:export-filename="C:\Users\Fabienne\Desktop\Symbole\png\fire_station.png" sodipodi:docname="fire_station.svg" inkscape:version="0.91 r13725"
	 xmlns="http://www.w3.org/2000/svg" xmlns:xlink="http://www.w3.org/1999/xlink" x="0px" y="0px" width="32px" height="32px"
	 viewBox="0 0 32 32" enable-background="new 0 0 32 32" xml:space="preserve">
<sodipodi:namedview  showgrid="false" id="namedview11964" inkscape:cy="19.430372" inkscape:cx="-20.613518" inkscape:zoom="10.429825" borderopacity="1" bordercolor="#666666" pagecolor="#ffffff" guidetolerance="10" gridtolerance="10" objecttolerance="10" inkscape:window-height="1003" inkscape:window-y="-9" inkscape:window-x="-9" inkscape:window-width="1920" inkscape:window-maximized="1" inkscape:current-layer="svg11960" inkscape:pageshadow="2" inkscape:pageopacity="0">
	</sodipodi:namedview>
<path id="path4153" inkscape:connector-curvature="0" fill="none" d="M5.183,31.771c-2.588-0.338-4.654-2.445-4.951-5.053
	c-0.03-0.263-0.04-3.853-0.03-10.98L0.216,5.15l0.093-0.384C0.503,3.96,0.755,3.372,1.176,2.742
	c0.859-1.286,2.253-2.188,3.816-2.468c0.402-0.072,1.024-0.076,11.027-0.076c11.842,0,10.881-0.024,11.844,0.298
	c0.867,0.291,1.545,0.702,2.193,1.333c0.687,0.665,1.178,1.445,1.463,2.322c0.304,0.928,0.281,0.088,0.28,11.844
	c0,11.396,0.011,10.876-0.212,11.671c-0.23,0.834-0.773,1.764-1.4,2.398c-0.818,0.832-1.778,1.36-2.992,1.651
	c-0.303,0.072-0.901,0.076-11.027,0.084C10.278,31.807,5.335,31.793,5.183,31.771L5.183,31.771z M26.951,31.285
	c2.152-0.375,3.805-1.967,4.303-4.143l0.098-0.43l0.018-10.376c0.014-10.56,0.01-10.917-0.146-11.577
	c-0.229-1.001-0.768-1.931-1.529-2.652c-0.735-0.7-1.563-1.127-2.629-1.362C26.719,0.67,26.271,0.667,16.02,0.667
	c-10.093,0-10.707,0.004-11.061,0.076C3.042,1.134,1.521,2.471,0.92,4.29C0.644,5.125,0.661,4.386,0.661,16.019
	c0,11.637-0.017,10.893,0.259,11.717c0.609,1.82,2.203,3.205,4.075,3.543C5.514,31.375,26.415,31.379,26.951,31.285z"/>
<path id="path4745" inkscape:connector-curvature="0" fill="none" d="M8.972,31.111c-3.917-0.027-3.982-0.029-4.314-0.123
	c-0.875-0.246-1.639-0.695-2.283-1.342c-0.636-0.642-0.992-1.217-1.279-2.074l-0.154-0.459l-0.041-1.539
	C0.844,23.406,0.883,5.543,0.947,5.077c0.092-0.668,0.455-1.514,0.916-2.133C2.558,2.01,3.458,1.392,4.627,1.046l0.367-0.109
	l2.594-0.031c3.373-0.041,13.688-0.041,16.926,0l2.527,0.032l0.391,0.118c1.782,0.542,3.098,1.896,3.553,3.658
	c0.102,0.385,0.108,0.527,0.148,2.079c0.026,1.035,0.032,5.134,0.016,10.818l-0.025,9.152l-0.104,0.414
	c-0.465,1.864-1.812,3.276-3.609,3.784L27,31.078l-4.042,0.031C18.41,31.152,14.788,31.15,8.972,31.111L8.972,31.111L8.972,31.111z"
	/>
<path id="path12510" inkscape:connector-curvature="0" fill="#C44216" stroke="#C44216" stroke-miterlimit="10" enable-background="new    " d="
	M12.607,29.002c-2.798-1.427-4.917-4.119-5.817-7.393c-0.396-1.438-0.429-5.521-0.059-7.208c1.154-5.261,3.966-9.149,7.947-10.988
	c0.521-0.241,0.973-0.438,1.002-0.438c0.029,0-0.05,0.307-0.176,0.682c-0.737,2.188-0.539,4.755,0.528,6.846
	c0.279,0.546,1.497,1.951,1.69,1.951c0.053,0,0.135-0.297,0.182-0.66c0.261-1.95,1.52-3.842,3.177-4.77l0.537-0.3v0.663
	c0,0.813,0.315,2.391,0.675,3.367c0.146,0.399,0.675,1.574,1.173,2.609c1.493,3.107,1.923,4.616,1.912,6.733
	c-0.012,2.881-0.933,5.295-2.772,7.262c-0.709,0.761-2.52,2.181-2.633,2.063c-0.021-0.022,0.24-0.651,0.59-1.396
	c0.951-2.033,1.121-2.617,1.117-3.885c-0.002-0.963-0.054-1.211-0.402-1.947c-0.221-0.465-0.654-1.158-0.967-1.547l-0.563-0.701
	l-0.158,0.623c-0.22,0.859-0.855,2.117-1.381,2.725l-0.438,0.504l-0.342-0.445c-0.537-0.707-1.11-2.039-1.473-3.438
	c-0.384-1.479-0.482-3.976-0.197-4.97c0.089-0.311,0.135-0.592,0.103-0.625c-0.033-0.033-0.517,0.309-1.075,0.76
	c-4.034,3.257-4.615,7.601-1.746,13.049c0.361,0.687,0.656,1.269,0.656,1.293C13.696,29.525,13.453,29.434,12.607,29.002z"/>
</svg>
