<?xml version="1.0" encoding="utf-8"?>
<!-- Generator: Adobe Illustrator 16.0.3, SVG Export Plug-In . SVG Version: 6.00 Build 0)  -->
<!DOCTYPE svg PUBLIC "-//W3C//DTD SVG 1.1//EN" "http://www.w3.org/Graphics/SVG/1.1/DTD/svg11.dtd">
<svg version="1.1"
	 id="svg9493" xmlns:dc="http://purl.org/dc/elements/1.1/" xmlns:cc="http://creativecommons.org/ns#" xmlns:rdf="http://www.w3.org/1999/02/22-rdf-syntax-ns#" xmlns:svg="http://www.w3.org/2000/svg" xmlns:sodipodi="http://sodipodi.sourceforge.net/DTD/sodipodi-0.dtd" xmlns:inkscape="http://www.inkscape.org/namespaces/inkscape" inkscape:version="0.91 r13725" sodipodi:docname="marketplace.svg" inkscape:export-filename="C:\Users\Fabienne\Desktop\Symbole\png\marketplace.png" inkscape:export-xdpi="90" inkscape:export-ydpi="90"
	 xmlns="http://www.w3.org/2000/svg" xmlns:xlink="http://www.w3.org/1999/xlink" x="0px" y="0px" width="32px" height="32px"
	 viewBox="0 0 32 32" enable-background="new 0 0 32 32" xml:space="preserve">
<sodipodi:namedview  units="px" pagecolor="#ffffff" bordercolor="#666666" borderopacity="1.0" inkscape:zoom="12.800001" inkscape:cx="5.7600177" inkscape:cy="21.512291" id="namedview9497" showgrid="false" inkscape:document-units="pt" inkscape:pageopacity="0.0" inkscape:pageshadow="2" inkscape:current-layer="layer1" inkscape:window-maximized="1" inkscape:window-width="1920" inkscape:window-x="-9" inkscape:window-y="-9" inkscape:window-height="1003">
	</sodipodi:namedview>
<g id="layer1" transform="translate(0,-314.4)" inkscape:label="Layer 1" inkscape:groupmode="layer">
	<path id="path4745" inkscape:connector-curvature="0" fill="none" d="M8.972,345.511c-3.917-0.027-3.982-0.029-4.314-0.123
		c-0.875-0.246-1.639-0.695-2.283-1.342c-0.636-0.64-0.992-1.217-1.279-2.074l-0.154-0.459l-0.041-1.539
		c-0.058-2.168-0.019-20.031,0.045-20.499c0.092-0.668,0.455-1.514,0.916-2.133c0.695-0.933,1.595-1.551,2.764-1.897l0.367-0.109
		l2.594-0.031c3.373-0.041,13.687-0.041,16.925,0l2.528,0.032l0.39,0.118c1.783,0.542,3.098,1.896,3.553,3.658
		c0.101,0.385,0.109,0.527,0.149,2.08c0.026,1.035,0.032,5.134,0.017,10.817l-0.028,9.152l-0.103,0.414
		c-0.465,1.867-1.811,3.279-3.61,3.787l-0.409,0.115l-4.042,0.033C18.41,345.552,14.788,345.55,8.972,345.511L8.972,345.511
		L8.972,345.511z"/>
	<path id="path8207" inkscape:connector-curvature="0" fill="#C44216" d="M15.61,330.611v-3.817h-3.495H8.622v-0.303
		c0-0.296-0.002-0.303-0.101-0.303s-0.101,0.006-0.101,0.303v0.303H6.137H3.854v-0.747V325.3l0.131-0.057
		c0.072-0.032,2.713-1.575,5.868-3.428l5.736-3.371l0.012-0.208l0.013-0.208h0.24h0.24v0.179c0,0.15,0.018,0.192,0.111,0.256
		c0.061,0.042,2.751,1.6,5.979,3.461l5.867,3.384v0.743v0.743H25.83h-2.221v-0.283c0-0.275-0.004-0.283-0.103-0.283
		c-0.098,0-0.103,0.008-0.103,0.283v0.283H19.75h-3.656v3.817v3.816h-0.243H15.61V330.611L15.61,330.611z"/>
	<path id="path8209" inkscape:connector-curvature="0" fill="#C44216" d="M4.905,338.994v-2.908h2.424h2.424v-0.662v-0.662
		l0.455-0.028c0.25-0.017,1.854-0.019,3.565-0.006c1.711,0.012,3.417,0.022,3.788,0.022l0.676,0.002l0.011,0.656l0.011,0.656
		l0.818,0.01l0.818,0.01v2.908v2.908H12.4H4.905v-2.908V338.994z"/>
	<path id="path8211" inkscape:connector-curvature="0" fill="#C44216" d="M13.065,332.754c0-1.377,0.01-1.678,0.054-1.678
		c0.119,0,0.52,0.164,0.693,0.283c0.353,0.242,0.694,0.777,0.807,1.262c0.055,0.24,0.146,0.939,0.201,1.535l0.024,0.273h-0.526
		h-0.526v-0.172c-0.001-0.562-0.21-1.719-0.323-1.787c-0.026-0.018-0.04,0.324-0.04,0.967v0.992h-0.182h-0.182V332.754
		L13.065,332.754z"/>
	<path id="path8213" inkscape:connector-curvature="0" fill="#C44216" d="M10.843,331.783v-0.707h0.97h0.969v0.707v0.707h-0.969
		h-0.97V331.783z"/>
	<path id="path8215" inkscape:connector-curvature="0" fill="#C44216" d="M11.52,330.712c-0.396-0.1-0.737-0.384-0.911-0.76
		c-0.084-0.182-0.106-0.291-0.106-0.533c-0.001-0.264,0.017-0.341,0.131-0.574c0.145-0.292,0.352-0.498,0.651-0.646
		c0.148-0.073,0.253-0.091,0.528-0.091c0.293,0,0.376,0.016,0.571,0.112c0.266,0.131,0.531,0.401,0.654,0.669
		c0.125,0.273,0.124,0.802-0.003,1.06C12.752,330.522,12.09,330.855,11.52,330.712L11.52,330.712z"/>
	<path id="path8217" inkscape:connector-curvature="0" fill="#C44216" d="M8.396,335.57c0.233-2.396,0.482-3.256,1.134-3.91
		c0.292-0.294,0.776-0.584,0.975-0.584h0.096v1.678v1.676h-0.182h-0.182v-1.012c0-0.69-0.013-1.004-0.042-0.986
		c-0.177,0.109-0.438,0.813-0.561,1.515c-0.093,0.531-0.205,1.474-0.205,1.728v0.172h-0.53H8.37L8.396,335.57L8.396,335.57z"/>
	<path id="path8219" inkscape:connector-curvature="0" fill="#C44216" d="M22.102,338.216V334.4h2.211h2.211v3.816v3.817h-2.211
		h-2.211V338.216z M26.127,338.214l0.004-3.422h-1.818h-1.817v3.418c0,1.879,0.004,3.42,0.007,3.424
		c0.004,0.002,0.821,0.006,1.814,0.004l1.81-0.002L26.127,338.214L26.127,338.214z"/>
	<path id="path8221" inkscape:connector-curvature="0" fill="#C44216" d="M22.787,340.025v-0.143h1.49h1.488v0.143v0.141h-1.488
		h-1.49V340.025z"/>
	<path id="path8223" inkscape:connector-curvature="0" fill="#C44216" d="M22.828,339.359v-0.143h1.484h1.483v0.143v0.141h-1.483
		h-1.484V339.359z"/>
	<path id="path8225" inkscape:connector-curvature="0" fill="#C44216" d="M22.828,338.722v-0.143h1.484h1.483v0.143v0.141h-1.483
		h-1.484V338.722z"/>
	<path id="path8227" inkscape:connector-curvature="0" fill="#C44216" d="M22.828,338.047v-0.143h1.504h1.506v0.143v0.142h-1.506
		h-1.504V338.047z"/>
	<path id="path8229" inkscape:connector-curvature="0" fill="#C44216" d="M22.828,337.379v-0.141h1.484h1.483v0.141v0.143h-1.483
		h-1.484V337.379z"/>
	<path id="path8231" inkscape:connector-curvature="0" fill="#C44216" d="M22.828,336.742v-0.141h1.484h1.483v0.141v0.143h-1.483
		h-1.484V336.742z"/>
	<path id="path8233" inkscape:connector-curvature="0" fill="#C44216" d="M22.828,336.107v-0.143h1.504h1.506v0.143v0.141h-1.506
		h-1.504V336.107z"/>
	<path id="path8235" inkscape:connector-curvature="0" fill="#C44216" d="M22.838,335.429v-0.141h1.489h1.489v0.141v0.142h-1.489
		h-1.489V335.429z"/>
	<path id="path4153" inkscape:connector-curvature="0" fill="none" d="M5.183,346.172c-2.588-0.338-4.654-2.445-4.951-5.053
		c-0.03-0.261-0.04-3.851-0.03-10.978l0.014-10.59l0.093-0.384c0.194-0.806,0.446-1.394,0.867-2.024
		c0.859-1.286,2.253-2.188,3.816-2.468c0.402-0.072,1.024-0.076,11.027-0.076c11.842,0,10.881-0.024,11.844,0.298
		c0.867,0.291,1.545,0.702,2.193,1.333c0.687,0.665,1.178,1.445,1.463,2.322c0.304,0.928,0.283,0.088,0.282,11.844
		c0,11.395,0.009,10.876-0.212,11.671c-0.232,0.834-0.775,1.763-1.402,2.399c-0.818,0.832-1.778,1.361-2.992,1.652
		c-0.303,0.072-0.901,0.076-11.027,0.084C10.278,346.205,5.335,346.193,5.183,346.172L5.183,346.172z M26.951,345.685
		c2.152-0.375,3.805-1.967,4.303-4.143l0.098-0.428l0.016-10.376c0.015-10.561,0.01-10.918-0.145-11.578
		c-0.23-1.001-0.768-1.931-1.529-2.652c-0.737-0.7-1.563-1.128-2.629-1.362c-0.346-0.076-0.793-0.079-11.045-0.079
		c-10.093,0-10.707,0.003-11.061,0.076c-1.915,0.39-3.437,1.728-4.038,3.546c-0.276,0.835-0.259,0.095-0.259,11.729
		c0,11.637-0.017,10.893,0.259,11.717c0.609,1.82,2.203,3.205,4.075,3.543C5.514,345.775,26.415,345.779,26.951,345.685
		L26.951,345.685z"/>
</g>
</svg>
