<?xml version="1.0" encoding="utf-8"?>
<!-- Generator: Adobe Illustrator 16.0.3, SVG Export Plug-In . SVG Version: 6.00 Build 0)  -->
<!DOCTYPE svg PUBLIC "-//W3C//DTD SVG 1.1//EN" "http://www.w3.org/Graphics/SVG/1.1/DTD/svg11.dtd">
<svg version="1.1"
	 id="svg4854" xmlns:dc="http://purl.org/dc/elements/1.1/" xmlns:cc="http://creativecommons.org/ns#" xmlns:rdf="http://www.w3.org/1999/02/22-rdf-syntax-ns#" xmlns:svg="http://www.w3.org/2000/svg" xmlns:sodipodi="http://sodipodi.sourceforge.net/DTD/sodipodi-0.dtd" xmlns:inkscape="http://www.inkscape.org/namespaces/inkscape" inkscape:export-ydpi="90" inkscape:export-xdpi="90" inkscape:export-filename="C:\Users\Fabienne\Desktop\Symbole\png\post_office.png" sodipodi:docname="post_office.svg" inkscape:version="0.91 r13725"
	 xmlns="http://www.w3.org/2000/svg" xmlns:xlink="http://www.w3.org/1999/xlink" x="0px" y="0px" width="32px" height="32px"
	 viewBox="0 0 32 32" enable-background="new 0 0 32 32" xml:space="preserve">
<sodipodi:namedview  units="px" showgrid="false" id="namedview4858" inkscape:cy="1.6133345" inkscape:cx="-2.7417757" inkscape:zoom="9.0509669" borderopacity="1.0" bordercolor="#666666" pagecolor="#ffffff" inkscape:window-width="1920" inkscape:window-maximized="1" inkscape:current-layer="layer1" inkscape:pageshadow="2" inkscape:pageopacity="0.0" inkscape:document-units="pt" inkscape:window-height="1003" inkscape:window-y="-9" inkscape:window-x="-9">
	</sodipodi:namedview>
<g id="layer1" transform="translate(0,-314.4)" inkscape:label="Layer 1" inkscape:groupmode="layer">
	<path id="path4153" inkscape:connector-curvature="0" fill="none" d="M5.183,346.172c-2.588-0.338-4.654-2.442-4.951-5.053
		c-0.03-0.261-0.04-3.852-0.03-10.978l0.014-10.59l0.093-0.384c0.194-0.806,0.446-1.394,0.867-2.024
		c0.859-1.286,2.253-2.188,3.816-2.468c0.402-0.072,1.024-0.076,11.027-0.076c11.842,0,10.881-0.021,11.844,0.298
		c0.867,0.291,1.545,0.702,2.193,1.333c0.687,0.665,1.178,1.445,1.463,2.322c0.304,0.928,0.28,0.088,0.279,11.844
		c0,11.395,0.012,10.876-0.212,11.671c-0.229,0.834-0.772,1.763-1.399,2.399c-0.818,0.832-1.778,1.361-2.992,1.652
		c-0.303,0.069-0.901,0.073-11.027,0.084C10.278,346.205,5.335,346.193,5.183,346.172L5.183,346.172z M26.951,345.685
		c2.152-0.375,3.805-1.967,4.303-4.143l0.098-0.431l0.019-10.376c0.015-10.561,0.01-10.918-0.146-11.578
		c-0.229-1.001-0.769-1.931-1.529-2.652c-0.735-0.7-1.563-1.128-2.629-1.362c-0.346-0.076-0.793-0.079-11.043-0.079
		c-10.093,0-10.707,0.003-11.061,0.076c-1.915,0.39-3.437,1.729-4.038,3.546c-0.276,0.835-0.259,0.095-0.259,11.729
		s-0.017,10.89,0.259,11.714c0.609,1.82,2.203,3.205,4.075,3.543C5.514,345.775,26.415,345.779,26.951,345.685L26.951,345.685z"/>
	<path id="path4745" inkscape:connector-curvature="0" fill="none" d="M8.972,345.511c-3.917-0.027-3.982-0.029-4.314-0.123
		c-0.875-0.246-1.639-0.695-2.283-1.342c-0.636-0.643-0.992-1.217-1.279-2.074l-0.154-0.459l-0.041-1.539
		c-0.058-2.168-0.019-20.031,0.045-20.5c0.092-0.668,0.455-1.514,0.916-2.133c0.695-0.933,1.595-1.551,2.764-1.897l0.367-0.109
		l2.594-0.031c3.373-0.041,13.687-0.041,16.925,0l2.528,0.032l0.39,0.118c1.783,0.542,3.098,1.896,3.553,3.658
		c0.104,0.385,0.109,0.527,0.149,2.08c0.026,1.035,0.032,5.134,0.017,10.815l-0.025,9.151l-0.104,0.414
		c-0.465,1.867-1.812,3.278-3.608,3.787L27,345.476l-4.042,0.033C18.41,345.552,14.788,345.55,8.972,345.511L8.972,345.511
		L8.972,345.511z"/>
	<rect x="5.2" y="323.509" opacity="0.4" fill="#C44216" stroke="#C44216" width="21.917" height="14.164"/>
	<path id="path5458" inkscape:connector-curvature="0" fill="#C44216" stroke="#C44216" d="M4.731,338.345
		c-0.027-0.07-0.037-3.557-0.022-7.75l0.026-7.62h11.353h11.354v7.722v7.725l-11.331,0.023C7.1,338.468,4.77,338.447,4.731,338.345
		L4.731,338.345z M24.115,335.941c-0.814-0.829-2.168-2.206-3.006-3.061l-1.525-1.551l-0.723,0.605
		c-1.87,1.57-3.2,1.604-5.138,0.129c-0.47-0.355-0.881-0.648-0.913-0.648c-0.047,0-1.675,1.551-5.977,5.688l-0.356,0.344h9.56h9.561
		L24.115,335.941L24.115,335.941z M26.438,324.498c-0.055-0.056-6.054,5.996-6.054,6.108c0,0.058,1.357,1.501,3.017,3.207
		l3.021,3.103l0.023-6.193C26.459,327.317,26.456,324.516,26.438,324.498L26.438,324.498L26.438,324.498z M8.964,333.718
		c1.696-1.631,3.084-2.989,3.084-3.021c0-0.029-1.427-1.479-3.17-3.223l-3.171-3.169v6.221c0,3.422,0.039,6.206,0.087,6.188
		C5.841,336.699,7.268,335.349,8.964,333.718L8.964,333.718z M17.514,331.728c0.889-0.613,2.088-1.752,5.055-4.799l2.899-2.979
		h-9.343H6.782l3.221,3.227c3.358,3.364,4.216,4.144,5.129,4.655c0.479,0.27,0.629,0.305,1.212,0.275
		C16.904,332.082,17.088,332.021,17.514,331.728z"/>
</g>
</svg>
