<?xml version="1.0" encoding="utf-8"?>
<!-- Generator: Adobe Illustrator 16.0.3, SVG Export Plug-In . SVG Version: 6.00 Build 0)  -->
<!DOCTYPE svg PUBLIC "-//W3C//DTD SVG 1.1//EN" "http://www.w3.org/Graphics/SVG/1.1/DTD/svg11.dtd">
<svg version="1.1"
	 id="svg15885" xmlns:dc="http://purl.org/dc/elements/1.1/" xmlns:cc="http://creativecommons.org/ns#" xmlns:rdf="http://www.w3.org/1999/02/22-rdf-syntax-ns#" xmlns:svg="http://www.w3.org/2000/svg" xmlns:sodipodi="http://sodipodi.sourceforge.net/DTD/sodipodi-0.dtd" xmlns:inkscape="http://www.inkscape.org/namespaces/inkscape" inkscape:version="0.91 r13725" sodipodi:docname="prison.svg" inkscape:export-filename="C:\Users\Fabienne\Desktop\Symbole\png\prison.png" inkscape:export-xdpi="90" inkscape:export-ydpi="90"
	 xmlns="http://www.w3.org/2000/svg" xmlns:xlink="http://www.w3.org/1999/xlink" x="0px" y="0px" width="32px" height="32px"
	 viewBox="0 0 32 32" enable-background="new 0 0 32 32" xml:space="preserve">
<sodipodi:namedview  objecttolerance="10" gridtolerance="10" guidetolerance="10" pagecolor="#ffffff" bordercolor="#666666" borderopacity="1" inkscape:zoom="10.429825" inkscape:cx="-23.16336" inkscape:cy="6.8365104" id="namedview15889" showgrid="false" inkscape:pageopacity="0" inkscape:pageshadow="2" inkscape:current-layer="svg15885" inkscape:window-maximized="1" inkscape:window-width="1920" inkscape:window-x="-9" inkscape:window-y="-9" inkscape:window-height="1003">
	</sodipodi:namedview>
<path id="path4153" inkscape:connector-curvature="0" fill="none" d="M5.183,31.771c-2.588-0.338-4.654-2.445-4.951-5.053
	c-0.03-0.261-0.04-3.851-0.03-10.978l0.014-10.59l0.093-0.384c0.194-0.806,0.446-1.394,0.867-2.024
	c0.859-1.286,2.253-2.188,3.816-2.468c0.402-0.072,1.024-0.076,11.027-0.076c11.842,0,10.881-0.024,11.844,0.298
	c0.867,0.291,1.545,0.702,2.193,1.333c0.687,0.665,1.178,1.445,1.463,2.322c0.304,0.928,0.283,0.088,0.282,11.844
	c0,11.395,0.009,10.876-0.212,11.671c-0.232,0.834-0.775,1.763-1.402,2.399c-0.818,0.832-1.778,1.361-2.992,1.652
	c-0.303,0.072-0.901,0.076-11.027,0.084C10.278,31.807,5.335,31.793,5.183,31.771L5.183,31.771z M26.951,31.285
	c2.152-0.375,3.805-1.967,4.303-4.143l0.098-0.428l0.016-10.376c0.015-10.561,0.011-10.918-0.145-11.578
	c-0.23-1.001-0.768-1.931-1.529-2.652c-0.737-0.7-1.563-1.127-2.629-1.362c-0.346-0.076-0.793-0.079-11.045-0.079
	c-10.093,0-10.707,0.004-11.061,0.076C3.042,1.134,1.521,2.471,0.92,4.29C0.644,5.125,0.661,4.386,0.661,16.019
	c0,11.637-0.017,10.893,0.259,11.717c0.609,1.82,2.203,3.205,4.075,3.543C5.514,31.375,26.415,31.379,26.951,31.285z"/>
<path id="path4745" inkscape:connector-curvature="0" fill="none" d="M8.972,31.111c-3.917-0.027-3.982-0.029-4.314-0.123
	c-0.875-0.246-1.639-0.695-2.283-1.342c-0.636-0.64-0.992-1.217-1.279-2.074l-0.154-0.459l-0.041-1.539
	C0.844,23.406,0.883,5.543,0.947,5.077c0.092-0.668,0.455-1.514,0.916-2.133C2.558,2.01,3.458,1.392,4.627,1.046l0.367-0.109
	l2.594-0.031c3.373-0.041,13.688-0.041,16.926,0l2.527,0.032l0.391,0.118c1.782,0.542,3.098,1.896,3.553,3.658
	c0.1,0.385,0.108,0.527,0.148,2.079c0.026,1.035,0.032,5.134,0.016,10.818l-0.027,9.152l-0.102,0.414
	c-0.465,1.866-1.812,3.278-3.611,3.786l-0.409,0.115l-4.042,0.032C18.41,31.152,14.788,31.15,8.972,31.111L8.972,31.111
	L8.972,31.111z"/>
<g>
	<path id="rect3389" sodipodi:nodetypes="cccccccccczzzz" fill="#C44216" d="M10.474,13.024c0.073,0.572,0.547,0.997,1.043,0.934
		l0.478-0.062c0.496-0.063,0.849-0.594,0.776-1.165l-0.251-1.954c-0.073-0.571-0.548-0.995-1.043-0.932l-0.478,0.062
		c-0.496,0.063-0.848,0.592-0.774,1.165L10.474,13.024z M11.399,12.883c-0.255-0.227-0.433-1.623-0.243-1.908
		c0.188-0.285,0.183-0.285,0.438-0.056c0.254,0.228,0.432,1.624,0.243,1.908C11.649,13.113,11.654,13.111,11.399,12.883z"/>
	<path id="path3395" sodipodi:nodetypes="cccccccccczzzz" fill="#C44216" d="M15.982,7.561c0.493,0.353,1.148,0.316,1.439-0.08
		L17.703,7.1c0.293-0.396,0.129-1.02-0.365-1.372l-1.68-1.203c-0.493-0.351-1.147-0.316-1.44,0.08l-0.281,0.381
		c-0.292,0.396-0.126,1.02,0.366,1.373L15.982,7.561z M16.512,6.805c-0.351,0.021-1.551-0.84-1.641-1.174
		c-0.089-0.335-0.093-0.33,0.258-0.35c0.351-0.02,1.553,0.84,1.643,1.175C16.859,6.79,16.863,6.785,16.512,6.805z"/>
	<path id="path3397" sodipodi:nodetypes="cccccccccczzzz" fill="#C44216" d="M14.187,6.113c0.574-0.05,1.017-0.506,0.973-1.005
		l-0.023,0.456c-0.042-0.498-0.558-0.872-1.131-0.824l-1.96,0.17c-0.576,0.049-1.019,0.506-0.975,1.004l0.022-0.455
		c0.043,0.498,0.558,0.872,1.132,0.822L14.187,6.113z M14.083,5.181c-0.238,0.247-1.641,0.366-1.917,0.165
		c-0.276-0.2-0.258,0.741-0.02,0.494c0.238-0.245,1.642-0.365,1.918-0.165C14.339,5.876,14.321,4.937,14.083,5.181z"/>
	<path id="path3534" sodipodi:nodetypes="cccccccccczzzz" fill="#C44216" d="M12.334,6.547c0.363-0.484,0.339-1.14-0.05-1.441
		L11.91,4.818c-0.39-0.301-1.017-0.148-1.38,0.336L9.294,6.808C8.931,7.294,8.955,7.949,9.344,8.25l0.374,0.29
		c0.39,0.302,1.017,0.148,1.38-0.336L12.334,6.547z M11.59,6.003c0.012,0.351-0.872,1.534-1.208,1.616
		c-0.338,0.083-0.333,0.086-0.345-0.264c-0.013-0.352,0.872-1.535,1.208-1.618C11.582,5.655,11.579,5.652,11.59,6.003z"/>
	<path id="path3536" sodipodi:nodetypes="cccccccccczzzz" fill="#C44216" d="M11.021,11.149c0.019,0.008,0.039,0.013,0.065,0.013
		c0.455-0.001,0.723-0.511,0.714-0.914c-0.004-0.126-0.026-0.266-0.07-0.387l-0.651-1.857c-0.191-0.544-0.744-0.86-1.216-0.694
		l0.448-0.092C9.837,7.384,9.603,7.975,9.795,8.519l0.652,1.859c0.156,0.217,0.306,0.44,0.471,0.649
		C10.956,11.077,10.977,11.126,11.021,11.149z M11.323,10.046c-0.296-0.168-0.763-1.497-0.638-1.814
		c0.126-0.318-0.779-0.066-0.483,0.104c0.296,0.169,0.762,1.498,0.638,1.815C10.713,10.468,11.619,10.215,11.323,10.046z"/>
	<g id="g3540" transform="matrix(1.041287,0,0,1.041287,-1.536076,-18.650451)">
		<g id="g3490" transform="matrix(1.0907181,-0.2914957,0.2914957,1.0907181,-98.8285,72.452649)">
			<g id="g3500" transform="matrix(0.9826633,-0.1853992,0.1853992,0.9826633,-60.17152,31.061258)">
				<path id="path3313" sodipodi:nodetypes="cccsszzzssc" fill="#C44216" d="M166.357-10.183c-0.35,0.029-0.523,0.638-0.6,0.965
					c-0.036,0.542,0.449,1.471,0.711,1.414c1.878,0,3.046,1.276,3.046,3.155c-0.001,1.881-1.252,3.242-3.13,3.243
					c-0.747-0.001-1.129-0.664-1.872-0.547c-0.724,0.117-1.092,0.451-1.304,0.835c-0.224,0.405-0.458,1.055,0.282,1.618
					c0.761,0.578,1.443,0.633,2.447,0.634c3.119,0,5.865-2.661,5.866-5.783C171.804-7.767,169.476-10.184,166.357-10.183z"/>
				<path id="path3325" sodipodi:nodetypes="csccssccc" fill="#C44216" enable-background="new    " d="M166.133-10.045
					c-2.971-0.001-5.402,2.427-5.402,5.396c0.001,2.186,1.092,4.241,2.971,5.089l1.227-2.133c-1.389-0.269-2.117-1.177-2.117-2.845
					c0.001-2.03,1.409-3.598,3.434-3.596c0.566-0.001,0.772,0.226,1.342,0.434l0.522-1.968
					C167.498-9.91,166.831-10.045,166.133-10.045z"/>
				<path id="path3374" sodipodi:nodetypes="ccsccscc" fill="#C44216" d="M167.226-7.07l0.702,0.494
					c1.403,1.07,2.278,1.01,3.12-0.172c0.843-1.18-0.896-3.808-0.896-3.808l-0.026-0.019c0,0-3.051-0.789-3.892,0.392
					c-0.843,1.179-0.617,2.027,0.853,3.006l0.694,0.503"/>
			</g>
		</g>
		
			<path id="path3538" sodipodi:ry="35.163559" sodipodi:cx="151.95682" sodipodi:rx="35.163559" sodipodi:cy="514.0683" sodipodi:type="arc" fill="#C44216" d="
			M13.26,42.919c0,0.894-0.725,1.62-1.622,1.62c-0.895,0-1.622-0.726-1.622-1.62c0-0.899,0.727-1.625,1.622-1.625
			C12.534,41.294,13.26,42.02,13.26,42.919L13.26,42.919z"/>
	</g>
	<g id="g3548" transform="matrix(-0.7603739,0.7114142,0.7114142,0.7603739,248.51272,-206.4392)">
		<g id="g3550" transform="matrix(1.0907181,-0.2914957,0.2914957,1.0907181,-98.8285,72.452649)">
			<g id="g3552" transform="matrix(0.9826633,-0.1853992,0.1853992,0.9826633,-60.17152,31.061258)">
				<path id="path3554" sodipodi:nodetypes="cccsszzzssc" fill="#C44216" d="M410.449,74.691c-0.35,0.028-0.522,0.637-0.599,0.965
					c-0.037,0.541,0.45,1.469,0.712,1.412c1.878,0.001,3.044,1.28,3.044,3.158c0,1.879-1.251,3.241-3.13,3.241
					c-0.745,0-1.128-0.663-1.871-0.545c-0.724,0.116-1.092,0.45-1.304,0.834c-0.224,0.406-0.459,1.055,0.284,1.617
					c0.761,0.581,1.441,0.635,2.446,0.636c3.117,0,5.866-2.663,5.864-5.782C415.897,77.107,413.568,74.692,410.449,74.691z"/>
				<path id="path3556" sodipodi:nodetypes="csccssccc" fill="#C44216" enable-background="new    " d="M410.226,74.829
					c-2.971,0-5.402,2.427-5.402,5.398c0.001,2.185,1.092,4.24,2.971,5.087l1.227-2.135c-1.39-0.266-2.118-1.174-2.118-2.843
					c0.002-2.028,1.407-3.596,3.434-3.596c0.566,0,0.773,0.226,1.342,0.434l0.522-1.967
					C411.59,74.963,410.922,74.829,410.226,74.829z"/>
				<path id="path3558" sodipodi:nodetypes="ccsccscc" fill="#C44216" d="M411.317,77.805l0.703,0.492
					c1.402,1.07,2.276,1.009,3.119-0.171c0.843-1.181-0.896-3.808-0.896-3.808l-0.025-0.019c0,0-3.051-0.79-3.892,0.391
					c-0.843,1.18-0.618,2.028,0.851,3.006l0.695,0.504"/>
			</g>
		</g>
		
			<path id="path3560" sodipodi:ry="35.163559" sodipodi:cx="151.95682" sodipodi:rx="35.163559" sodipodi:cy="514.0683" sodipodi:type="arc" fill="#C44216" d="
			M303.163,10.022c-0.001,0.894-0.725,1.621-1.621,1.623c-0.897-0.001-1.623-0.727-1.624-1.623c0.001-0.896,0.727-1.622,1.624-1.622
			C302.436,8.399,303.164,9.125,303.163,10.022L303.163,10.022z"/>
	</g>
</g>
</svg>
