<?xml version="1.0" encoding="utf-8"?>
<!-- Generator: Adobe Illustrator 16.0.3, SVG Export Plug-In . SVG Version: 6.00 Build 0)  -->
<!DOCTYPE svg PUBLIC "-//W3C//DTD SVG 1.1//EN" "http://www.w3.org/Graphics/SVG/1.1/DTD/svg11.dtd">
<svg version="1.1"
	 id="svg4136" xmlns:dc="http://purl.org/dc/elements/1.1/" xmlns:cc="http://creativecommons.org/ns#" xmlns:rdf="http://www.w3.org/1999/02/22-rdf-syntax-ns#" xmlns:svg="http://www.w3.org/2000/svg" xmlns:sodipodi="http://sodipodi.sourceforge.net/DTD/sodipodi-0.dtd" xmlns:inkscape="http://www.inkscape.org/namespaces/inkscape" inkscape:version="0.91 r13725" sodipodi:docname="public_building.svg" inkscape:export-filename="C:\Users\Fabienne\Desktop\Symbole\png\public_building.png" inkscape:export-xdpi="90" inkscape:export-ydpi="90"
	 xmlns="http://www.w3.org/2000/svg" xmlns:xlink="http://www.w3.org/1999/xlink" x="0px" y="0px" width="32px" height="32px"
	 viewBox="0 0 32 32" enable-background="new 0 0 32 32" xml:space="preserve">
<sodipodi:namedview  units="px" pagecolor="#ffffff" bordercolor="#666666" borderopacity="1.0" inkscape:zoom="18.101934" inkscape:cx="8.1546237" inkscape:cy="11.540147" id="namedview4140" showgrid="false" inkscape:pageopacity="0.0" inkscape:pageshadow="2" inkscape:current-layer="layer1" inkscape:window-maximized="1" inkscape:window-height="1003" inkscape:document-units="pt" inkscape:window-width="1920" inkscape:window-x="-9" inkscape:window-y="-9">
	</sodipodi:namedview>
<g id="layer1" transform="translate(0,-314.4)" inkscape:label="Layer 1" inkscape:groupmode="layer">
	<path id="path4153" inkscape:connector-curvature="0" fill="none" d="M5.183,346.172c-2.588-0.338-4.654-2.442-4.951-5.053
		c-0.03-0.261-0.04-3.852-0.03-10.978l0.014-10.59l0.093-0.384c0.194-0.806,0.446-1.394,0.867-2.024
		c0.859-1.286,2.253-2.188,3.816-2.468c0.402-0.072,1.024-0.076,11.027-0.076c11.842,0,10.881-0.021,11.844,0.298
		c0.867,0.291,1.545,0.702,2.193,1.333c0.687,0.665,1.178,1.445,1.463,2.322c0.304,0.928,0.28,0.088,0.279,11.844
		c0,11.395,0.012,10.876-0.212,11.671c-0.229,0.834-0.772,1.763-1.399,2.399c-0.818,0.832-1.778,1.361-2.992,1.652
		c-0.303,0.069-0.901,0.073-11.027,0.084C10.278,346.205,5.335,346.193,5.183,346.172L5.183,346.172z M26.951,345.685
		c2.152-0.375,3.805-1.967,4.303-4.143l0.098-0.431l0.019-10.376c0.015-10.561,0.01-10.918-0.146-11.578
		c-0.229-1.001-0.769-1.931-1.529-2.652c-0.735-0.7-1.563-1.128-2.629-1.362c-0.346-0.076-0.793-0.079-11.043-0.079
		c-10.093,0-10.707,0.003-11.061,0.076c-1.915,0.39-3.437,1.729-4.038,3.546c-0.276,0.835-0.259,0.095-0.259,11.729
		s-0.017,10.89,0.259,11.714c0.609,1.82,2.203,3.205,4.075,3.543C5.514,345.775,26.415,345.779,26.951,345.685L26.951,345.685z"/>
	<path id="path4745" inkscape:connector-curvature="0" fill="none" d="M8.972,344.636c-3.917-0.027-3.982-0.029-4.314-0.123
		c-0.875-0.246-1.639-0.695-2.283-1.342c-0.636-0.643-0.992-1.217-1.279-2.074l-0.154-0.459l-0.041-1.539
		c-0.058-2.168-0.019-20.031,0.045-20.5c0.092-0.668,0.455-1.514,0.916-2.133c0.695-0.933,1.595-1.551,2.764-1.897l0.367-0.109
		l2.594-0.031c3.373-0.041,13.687-0.041,16.925,0l2.528,0.032l0.39,0.118c1.783,0.542,3.098,1.896,3.553,3.658
		c0.104,0.385,0.109,0.527,0.149,2.08c0.026,1.035,0.032,5.134,0.017,10.815l-0.025,9.151l-0.104,0.414
		c-0.465,1.867-1.812,3.278-3.608,3.787L27,344.601l-4.042,0.033C18.41,344.677,14.788,344.675,8.972,344.636L8.972,344.636
		L8.972,344.636z"/>
</g>
<g>
	<path fill="#C44216" d="M21.447,11.73V8.262H10.934v3.468l-6.188-0.125L4.667,24.872l6.75-0.048l0.005-2.448h10.042l-0.006,2.496
		l6.179-0.063V11.73H21.447z M10.733,17.645h-3.22v-3.071h3.22V17.645z M15.362,17.645h-3.22v-3.071h3.22V17.645z M20.191,17.645
		h-3.221v-3.072h3.221V17.645z M24.921,17.645H21.7v-3.072h3.221V17.645z"/>
</g>
</svg>
