<?xml version="1.0" encoding="utf-8"?>
<!-- Generator: Adobe Illustrator 16.0.3, SVG Export Plug-In . SVG Version: 6.00 Build 0)  -->
<!DOCTYPE svg PUBLIC "-//W3C//DTD SVG 1.1//EN" "http://www.w3.org/Graphics/SVG/1.1/DTD/svg11.dtd">
<svg version="1.1"
	 id="svg19270" xmlns:dc="http://purl.org/dc/elements/1.1/" xmlns:cc="http://creativecommons.org/ns#" xmlns:rdf="http://www.w3.org/1999/02/22-rdf-syntax-ns#" xmlns:svg="http://www.w3.org/2000/svg" xmlns:sodipodi="http://sodipodi.sourceforge.net/DTD/sodipodi-0.dtd" xmlns:inkscape="http://www.inkscape.org/namespaces/inkscape" inkscape:version="0.91 r13725" sodipodi:docname="townhall.svg" inkscape:export-filename="C:\Users\Fabienne\Desktop\Symbole\png\townhall.png" inkscape:export-xdpi="90" inkscape:export-ydpi="90"
	 xmlns="http://www.w3.org/2000/svg" xmlns:xlink="http://www.w3.org/1999/xlink" x="0px" y="0px" width="32px" height="32px"
	 viewBox="0 0 32 32" enable-background="new 0 0 32 32" xml:space="preserve">
<sodipodi:namedview  pagecolor="#ffffff" bordercolor="#666666" borderopacity="1" inkscape:zoom="10.429825" inkscape:cx="-20.727158" inkscape:cy="13.168508" id="namedview19274" showgrid="false" inkscape:pageopacity="0" inkscape:pageshadow="2" inkscape:current-layer="svg19270" inkscape:window-maximized="1" inkscape:window-height="1003" inkscape:window-width="1920" inkscape:window-x="-9" inkscape:window-y="-9" guidetolerance="10" objecttolerance="10" gridtolerance="10">
	</sodipodi:namedview>
<path id="path4153" inkscape:connector-curvature="0" fill="none" d="M5.183,31.771c-2.588-0.338-4.654-2.445-4.951-5.053
	c-0.03-0.263-0.04-3.853-0.03-10.98L0.216,5.15l0.093-0.384C0.503,3.96,0.755,3.372,1.176,2.742
	c0.859-1.286,2.253-2.188,3.816-2.468c0.402-0.072,1.024-0.076,11.027-0.076c11.842,0,10.881-0.024,11.844,0.298
	c0.867,0.291,1.545,0.702,2.193,1.333c0.687,0.665,1.178,1.445,1.463,2.322c0.304,0.928,0.281,0.088,0.28,11.844
	c0,11.396,0.011,10.876-0.212,11.671c-0.23,0.834-0.773,1.764-1.4,2.398c-0.818,0.832-1.778,1.36-2.992,1.651
	c-0.303,0.072-0.901,0.076-11.027,0.084C10.278,31.807,5.335,31.793,5.183,31.771L5.183,31.771z M26.951,31.285
	c2.152-0.375,3.805-1.967,4.303-4.143l0.098-0.43l0.018-10.376c0.014-10.56,0.01-10.917-0.146-11.577
	c-0.229-1.001-0.768-1.931-1.529-2.652c-0.735-0.7-1.563-1.127-2.629-1.362C26.719,0.67,26.271,0.667,16.02,0.667
	c-10.093,0-10.707,0.004-11.061,0.076C3.042,1.134,1.521,2.471,0.92,4.29C0.644,5.125,0.661,4.386,0.661,16.019
	c0,11.637-0.017,10.893,0.259,11.717c0.609,1.82,2.203,3.205,4.075,3.543C5.514,31.375,26.415,31.379,26.951,31.285z"/>
<path id="path4745" inkscape:connector-curvature="0" fill="none" d="M8.972,31.111c-3.917-0.027-3.982-0.029-4.314-0.123
	c-0.875-0.246-1.639-0.695-2.283-1.342c-0.636-0.642-0.992-1.217-1.279-2.074l-0.154-0.459l-0.041-1.539
	C0.844,23.406,0.883,5.543,0.947,5.077c0.092-0.668,0.455-1.514,0.916-2.133C2.558,2.01,3.458,1.392,4.627,1.046l0.367-0.109
	l2.594-0.031c3.373-0.041,13.688-0.041,16.926,0l2.527,0.032l0.391,0.118c1.782,0.542,3.098,1.896,3.553,3.658
	c0.102,0.385,0.108,0.527,0.148,2.079c0.026,1.035,0.032,5.134,0.016,10.818l-0.025,9.152l-0.104,0.414
	c-0.465,1.864-1.812,3.276-3.609,3.784L27,31.078l-4.042,0.031C18.41,31.152,14.788,31.15,8.972,31.111L8.972,31.111L8.972,31.111z"
	/>
<path id="path19820" inkscape:connector-curvature="0" opacity="0.97" fill="#C44216" stroke="#C44216" enable-background="new    " d="
	M4.663,27.98v-0.879l0.917-0.037l0.917-0.037v-3.73v-3.73L5.58,19.529l-0.917-0.037v-0.879v-0.881H15.79h11.126v0.887v0.885h-0.947
	H25.02v3.793v3.793h0.949h0.947v0.885v0.887H15.79H4.663V27.98z M19.582,25.1c0-1.096-0.063-2.22-0.141-2.498
	c-0.197-0.711-1.017-1.479-1.944-1.826c-0.642-0.237-0.948-0.274-1.977-0.233c-1.048,0.041-1.32,0.103-1.955,0.424
	c-0.49,0.251-0.866,0.563-1.121,0.927l-0.384,0.545l-0.04,2.33l-0.04,2.326h3.801h3.801V25.1L19.582,25.1z"/>
<path id="path19822" inkscape:connector-curvature="0" opacity="0.97" fill="#C44216" stroke="#C44216" enable-background="new    " d="
	M5.042,15.722c0.104-0.059,2.366-1.146,5.026-2.416l4.836-2.308v-3.82c0-3.667,0.01-3.829,0.254-4.05
	c0.32-0.29,0.955-0.297,1.237-0.015c0.19,0.19,0.223,0.662,0.278,4.078l0.063,3.863l4.554,2.17c2.505,1.193,4.752,2.266,4.994,2.383
	c0.417,0.202-0.146,0.213-10.496,0.217C9.72,15.827,4.937,15.781,5.042,15.722L5.042,15.722z"/>
<path id="path19824" inkscape:connector-curvature="0" opacity="0.97" fill="#C44216" enable-background="new    " d="M17.688,5.595
	V2.813l3.638,0.004c2.883,0.003,3.594,0.036,3.437,0.158c-0.107,0.084-0.921,0.693-1.803,1.351
	c-0.882,0.659-1.604,1.235-1.604,1.282s0.809,0.688,1.793,1.426l1.791,1.342h-3.625h-3.625V5.595H17.688z"/>
</svg>
