<?xml version="1.0" encoding="utf-8"?>
<!-- Generator: Adobe Illustrator 16.0.3, SVG Export Plug-In . SVG Version: 6.00 Build 0)  -->
<!DOCTYPE svg PUBLIC "-//W3C//DTD SVG 1.1//EN" "http://www.w3.org/Graphics/SVG/1.1/DTD/svg11.dtd">
<svg version="1.1"
	 id="svg4143" xmlns:dc="http://purl.org/dc/elements/1.1/" xmlns:cc="http://creativecommons.org/ns#" xmlns:rdf="http://www.w3.org/1999/02/22-rdf-syntax-ns#" xmlns:svg="http://www.w3.org/2000/svg" xmlns:sodipodi="http://sodipodi.sourceforge.net/DTD/sodipodi-0.dtd" xmlns:inkscape="http://www.inkscape.org/namespaces/inkscape" inkscape:version="0.91 r13725" sodipodi:docname="cafe.svg" inkscape:export-filename="C:\Users\Fabienne\Desktop\Symbole\png\cafe.png" inkscape:export-xdpi="90" inkscape:export-ydpi="90"
	 xmlns="http://www.w3.org/2000/svg" xmlns:xlink="http://www.w3.org/1999/xlink" x="0px" y="0px" width="32px" height="32px"
	 viewBox="0 0 32 32" enable-background="new 0 0 32 32" xml:space="preserve">
<sodipodi:namedview  pagecolor="#ffffff" bordercolor="#666666" borderopacity="1" inkscape:zoom="14.75" inkscape:cx="-25.926865" inkscape:cy="7.8882554" id="namedview4147" showgrid="false" inkscape:pageopacity="0" inkscape:pageshadow="2" inkscape:current-layer="svg4143" inkscape:window-maximized="1" inkscape:window-height="1003" inkscape:window-width="1920" inkscape:window-x="-9" inkscape:window-y="-9" guidetolerance="10" objecttolerance="10" gridtolerance="10">
	</sodipodi:namedview>
<path id="path4153" inkscape:connector-curvature="0" fill="none" d="M5.183,31.771c-2.588-0.338-4.654-2.445-4.951-5.053
	c-0.03-0.264-0.04-3.854-0.03-10.981L0.216,5.15l0.093-0.384C0.503,3.96,0.755,3.372,1.176,2.742
	c0.859-1.286,2.253-2.188,3.816-2.468c0.402-0.072,1.024-0.076,11.027-0.076c11.842,0,10.881-0.024,11.844,0.298
	c0.867,0.291,1.545,0.702,2.193,1.333c0.687,0.665,1.178,1.445,1.463,2.322c0.304,0.928,0.28,0.088,0.279,11.844
	c0,11.396,0.012,10.876-0.212,11.671c-0.229,0.834-0.772,1.764-1.399,2.398c-0.818,0.832-1.778,1.359-2.992,1.65
	c-0.303,0.072-0.901,0.076-11.027,0.084C10.278,31.807,5.335,31.793,5.183,31.771z M26.951,31.285
	c2.152-0.375,3.805-1.967,4.303-4.143l0.098-0.431l0.019-10.376c0.014-10.56,0.01-10.917-0.146-11.577
	c-0.229-1.001-0.769-1.931-1.529-2.652c-0.735-0.7-1.563-1.127-2.629-1.362C26.719,0.67,26.271,0.667,16.02,0.667
	c-10.093,0-10.707,0.004-11.061,0.076C3.042,1.134,1.521,2.471,0.92,4.29C0.644,5.125,0.661,4.386,0.661,16.019
	c0,11.637-0.017,10.893,0.259,11.717c0.609,1.82,2.203,3.205,4.075,3.543C5.514,31.375,26.415,31.379,26.951,31.285z"/>
<path id="path4745" inkscape:connector-curvature="0" fill="none" d="M8.962,31.111c-3.913-0.025-3.978-0.027-4.309-0.121
	c-0.874-0.245-1.637-0.693-2.28-1.34c-0.635-0.637-0.991-1.213-1.277-2.068l-0.154-0.459l-0.041-1.535
	C0.843,23.424,0.882,5.598,0.946,5.133C1.038,4.466,1.4,3.622,1.861,3.004c0.694-0.931,1.593-1.548,2.761-1.893l0.367-0.108
	L7.58,0.971c3.369-0.041,13.672-0.041,16.906,0l2.525,0.032L27.4,1.121c1.781,0.541,3.095,1.892,3.549,3.65
	c0.1,0.384,0.109,0.525,0.15,2.075c0.021,1.033,0.027,5.124,0.014,10.794l-0.026,9.135l-0.103,0.412
	c-0.463,1.865-1.813,3.271-3.607,3.776l-0.408,0.115l-4.037,0.03C18.391,31.152,14.771,31.152,8.962,31.111L8.962,31.111z"/>
<path id="path7559" inkscape:connector-curvature="0" fill="#704C24" d="M12.197,20.762c-2.328-0.431-4.05-1.509-4.828-3.023
	L7.082,17.18l-0.045-5.547l-0.045-5.55h7.434h7.436l0.017,0.824l0.017,0.823l2.021,0.031l2.02,0.032l0.498,0.263
	c1.137,0.602,1.881,1.521,2.021,2.507c0.077,0.534,0.077,2.195-0.003,2.613c-0.104,0.575-0.41,1.089-0.994,1.674
	c-0.657,0.66-1.095,0.905-1.78,0.993c-0.269,0.035-1.227,0.084-2.13,0.108l-1.644,0.045l-0.113,0.574
	c-0.15,0.77-0.313,1.176-0.68,1.726c-0.65,0.976-1.663,1.656-3.174,2.136c-0.881,0.281-1.777,0.387-3.563,0.416
	C13.05,20.872,12.727,20.859,12.197,20.762L12.197,20.762z M25.823,13.653c0.142-0.139,0.344-0.411,0.446-0.604
	c0.643-1.206,0.14-3.029-0.91-3.296c-0.172-0.043-0.973-0.089-1.896-0.109l-1.601-0.035v2.144c0,1.179,0.021,2.166,0.047,2.192
	c0.023,0.026,0.857,0.029,1.849,0.005l1.804-0.043L25.823,13.653L25.823,13.653z"/>
<path id="path7561" inkscape:connector-curvature="0" fill="#704C24" d="M8.243,25.688c-0.227-0.119-0.574-0.351-0.771-0.51
	c-0.656-0.529-1.344-1.576-1.358-2.063l-0.006-0.217l0.59-0.041c0.325-0.021,4.402-0.041,9.06-0.047l8.469-0.008v0.184
	c0,0.466-0.609,1.548-1.145,2.037c-0.18,0.168-0.588,0.437-0.9,0.595l-0.574,0.288l-6.475-0.002H8.658L8.243,25.688L8.243,25.688z"
	/>
</svg>
