<?xml version="1.0" encoding="utf-8"?>
<!-- Generator: Adobe Illustrator 16.0.3, SVG Export Plug-In . SVG Version: 6.00 Build 0)  -->
<!DOCTYPE svg PUBLIC "-//W3C//DTD SVG 1.1//EN" "http://www.w3.org/Graphics/SVG/1.1/DTD/svg11.dtd">
<svg version="1.1"
	 id="svg11398" xmlns:dc="http://purl.org/dc/elements/1.1/" xmlns:cc="http://creativecommons.org/ns#" xmlns:rdf="http://www.w3.org/1999/02/22-rdf-syntax-ns#" xmlns:svg="http://www.w3.org/2000/svg" xmlns:sodipodi="http://sodipodi.sourceforge.net/DTD/sodipodi-0.dtd" xmlns:inkscape="http://www.inkscape.org/namespaces/inkscape" inkscape:version="0.91 r13725" sodipodi:docname="fast_food.svg" inkscape:export-filename="C:\Users\Fabienne\Desktop\Symbole\png\fast_food.png" inkscape:export-xdpi="90" inkscape:export-ydpi="90"
	 xmlns="http://www.w3.org/2000/svg" xmlns:xlink="http://www.w3.org/1999/xlink" x="0px" y="0px" width="32px" height="32px"
	 viewBox="0 0 32 32" enable-background="new 0 0 32 32" xml:space="preserve">
<sodipodi:namedview  pagecolor="#ffffff" bordercolor="#666666" borderopacity="1" inkscape:zoom="10.429825" inkscape:cx="-20.916778" inkscape:cy="13.592222" id="namedview11402" showgrid="false" inkscape:pageopacity="0" inkscape:pageshadow="2" inkscape:current-layer="svg11398" inkscape:window-maximized="1" inkscape:window-height="1003" inkscape:window-width="1920" inkscape:window-x="-9" inkscape:window-y="-9" guidetolerance="10" objecttolerance="10" gridtolerance="10">
	</sodipodi:namedview>
<path id="path4153" inkscape:connector-curvature="0" fill="none" d="M5.183,31.771c-2.588-0.338-4.654-2.445-4.951-5.053
	c-0.03-0.263-0.04-3.853-0.03-10.98L0.216,5.15l0.093-0.384C0.503,3.96,0.755,3.372,1.176,2.742
	c0.859-1.286,2.253-2.188,3.816-2.468c0.402-0.072,1.024-0.076,11.027-0.076c11.842,0,10.881-0.024,11.844,0.298
	c0.867,0.291,1.545,0.702,2.193,1.333c0.687,0.665,1.178,1.445,1.463,2.322c0.304,0.928,0.281,0.088,0.28,11.844
	c0,11.396,0.011,10.876-0.212,11.671c-0.23,0.834-0.773,1.764-1.4,2.398c-0.818,0.832-1.778,1.36-2.992,1.651
	c-0.303,0.072-0.901,0.076-11.027,0.084C10.278,31.807,5.335,31.793,5.183,31.771L5.183,31.771z M26.951,31.285
	c2.152-0.375,3.805-1.967,4.303-4.143l0.098-0.43l0.018-10.376c0.014-10.56,0.01-10.917-0.146-11.577
	c-0.229-1.001-0.768-1.931-1.529-2.652c-0.735-0.7-1.563-1.127-2.629-1.362C26.719,0.67,26.271,0.667,16.02,0.667
	c-10.093,0-10.707,0.004-11.061,0.076C3.042,1.134,1.521,2.471,0.92,4.29C0.644,5.125,0.661,4.386,0.661,16.019
	c0,11.637-0.017,10.893,0.259,11.717c0.609,1.82,2.203,3.205,4.075,3.543C5.514,31.375,26.415,31.379,26.951,31.285z"/>
<path id="path4745" inkscape:connector-curvature="0" fill="none" d="M8.972,31.111c-3.917-0.027-3.982-0.029-4.314-0.123
	c-0.875-0.246-1.639-0.695-2.283-1.342c-0.636-0.642-0.992-1.217-1.279-2.074l-0.154-0.459l-0.041-1.539
	C0.844,23.406,0.883,5.543,0.947,5.077c0.092-0.668,0.455-1.514,0.916-2.133C2.558,2.01,3.458,1.392,4.627,1.046l0.367-0.109
	l2.594-0.031c3.373-0.041,13.688-0.041,16.926,0l2.527,0.032l0.391,0.118c1.782,0.542,3.098,1.896,3.553,3.658
	c0.102,0.385,0.108,0.527,0.148,2.079c0.026,1.035,0.032,5.134,0.016,10.818l-0.025,9.152l-0.104,0.414
	c-0.465,1.864-1.812,3.276-3.609,3.784L27,31.078l-4.042,0.031C18.41,31.152,14.788,31.15,8.972,31.111L8.972,31.111z"/>
<path id="path11948" inkscape:connector-curvature="0" fill="#704C24" d="M5.558,24.334c-0.6-0.262-1.345-0.953-1.597-1.484
	c-0.126-0.268-0.218-0.807-0.218-1.285V20.74h11.916h11.916l-0.054,0.928c-0.065,1.178-0.489,1.871-1.498,2.449l-0.711,0.406
	l-9.668-0.004C7.865,24.518,5.893,24.48,5.558,24.334L5.558,24.334z"/>
<path id="path11950" inkscape:connector-curvature="0" fill="#704C24" d="M2.611,18.296c-0.682-0.536-0.304-1.362,0.7-1.528
	c0.904-0.146,24.259-0.096,24.809,0.061c0.585,0.16,0.976,0.654,0.846,1.066c-0.222,0.697,0.097,0.685-13.433,0.685
	C3.025,18.576,2.966,18.574,2.611,18.296z"/>
<path id="path11952" inkscape:connector-curvature="0" fill="#704C24" d="M3.768,13.065c0.047-1.407,0.098-1.68,0.438-2.384
	c0.551-1.14,1.804-2.36,3.053-2.972c1.712-0.839,2.229-0.894,8.396-0.896c5.025-0.002,5.578,0.02,6.533,0.264
	c2.246,0.575,3.994,1.924,4.848,3.743c0.374,0.8,0.433,1.086,0.482,2.372l0.063,1.462H15.646H3.714L3.768,13.065z"/>
</svg>
