<?xml version="1.0" encoding="utf-8"?>
<!-- Generator: Adobe Illustrator 16.0.3, SVG Export Plug-In . SVG Version: 6.00 Build 0)  -->
<!DOCTYPE svg PUBLIC "-//W3C//DTD SVG 1.1//EN" "http://www.w3.org/Graphics/SVG/1.1/DTD/svg11.dtd">
<svg version="1.1"
	 id="svg17003" xmlns:dc="http://purl.org/dc/elements/1.1/" xmlns:cc="http://creativecommons.org/ns#" xmlns:rdf="http://www.w3.org/1999/02/22-rdf-syntax-ns#" xmlns:svg="http://www.w3.org/2000/svg" xmlns:sodipodi="http://sodipodi.sourceforge.net/DTD/sodipodi-0.dtd" xmlns:inkscape="http://www.inkscape.org/namespaces/inkscape" inkscape:version="0.91 r13725" sodipodi:docname="restaurant.svg" inkscape:export-filename="C:\Users\Fabienne\Desktop\Symbole\png\restaurant.png" inkscape:export-xdpi="90" inkscape:export-ydpi="90"
	 xmlns="http://www.w3.org/2000/svg" xmlns:xlink="http://www.w3.org/1999/xlink" x="0px" y="0px" width="32px" height="32px"
	 viewBox="0 0 32 32" enable-background="new 0 0 32 32" xml:space="preserve">
<sodipodi:namedview  pagecolor="#ffffff" bordercolor="#666666" borderopacity="1" inkscape:zoom="10.429825" inkscape:cx="-16.898332" inkscape:cy="19.342133" id="namedview17007" showgrid="false" inkscape:pageopacity="0" inkscape:pageshadow="2" inkscape:current-layer="svg17003" inkscape:window-maximized="1" inkscape:window-height="1003" inkscape:window-width="1920" inkscape:window-x="-9" inkscape:window-y="-9" guidetolerance="10" objecttolerance="10" gridtolerance="10">
	</sodipodi:namedview>
<path id="path4153" inkscape:connector-curvature="0" fill="none" d="M5.183,31.771c-2.588-0.338-4.654-2.445-4.951-5.053
	c-0.03-0.265-0.04-3.855-0.03-10.982L0.216,5.15l0.093-0.384C0.503,3.96,0.755,3.372,1.176,2.742
	c0.859-1.286,2.253-2.188,3.816-2.468c0.402-0.072,1.024-0.076,11.027-0.076c11.842,0,10.881-0.024,11.844,0.298
	c0.867,0.291,1.545,0.702,2.193,1.333c0.687,0.665,1.178,1.445,1.463,2.322c0.304,0.928,0.279,0.088,0.278,11.844
	c0,11.396,0.013,10.876-0.212,11.671c-0.229,0.834-0.771,1.764-1.398,2.398c-0.818,0.832-1.778,1.358-2.992,1.649
	c-0.303,0.072-0.901,0.076-11.027,0.084C10.278,31.807,5.335,31.793,5.183,31.771L5.183,31.771z M26.951,31.285
	c2.152-0.375,3.805-1.967,4.303-4.143l0.098-0.432l0.02-10.376c0.014-10.56,0.01-10.917-0.146-11.577
	c-0.229-1.001-0.769-1.931-1.529-2.652c-0.734-0.7-1.563-1.127-2.629-1.362C26.719,0.67,26.271,0.667,16.02,0.667
	c-10.093,0-10.707,0.004-11.061,0.076C3.042,1.134,1.521,2.471,0.92,4.29C0.644,5.125,0.661,4.386,0.661,16.019
	c0,11.637-0.017,10.893,0.259,11.717c0.609,1.82,2.203,3.205,4.075,3.543C5.514,31.375,26.415,31.379,26.951,31.285z"/>
<path id="path4745" inkscape:connector-curvature="0" fill="none" d="M8.972,31.111c-3.917-0.027-3.982-0.029-4.314-0.123
	c-0.875-0.246-1.639-0.695-2.283-1.342c-0.636-0.644-0.992-1.217-1.279-2.074l-0.154-0.459l-0.041-1.539
	C0.844,23.406,0.883,5.543,0.947,5.077c0.092-0.668,0.455-1.514,0.916-2.133C2.558,2.01,3.458,1.392,4.627,1.046l0.367-0.109
	l2.594-0.031c3.373-0.041,13.688-0.041,16.926,0l2.527,0.032l0.391,0.118c1.782,0.542,3.098,1.896,3.553,3.658
	c0.104,0.385,0.108,0.527,0.148,2.079c0.026,1.035,0.032,5.134,0.016,10.818l-0.023,9.152l-0.104,0.414
	c-0.465,1.862-1.813,3.274-3.608,3.782L27,31.078l-4.042,0.031C18.41,31.152,14.788,31.15,8.972,31.111L8.972,31.111z"/>
<path id="path17553" inkscape:connector-curvature="0" fill="#704C24" d="M19.545,27.898c0-0.174,0.189-2.196,0.423-4.498
	c0.521-5.159,0.652-4.637-1.532-6.006c-1.233-0.775-1.164-0.342-1.164-7.042c0-3.416,0.047-5.954,0.11-6.13
	c0.175-0.455,0.646-0.724,0.97-0.552c0.563,0.303,0.598,0.612,0.6,5.832c0.002,2.687,0.043,4.943,0.09,5.015
	c0.294,0.442,1.264,0.494,1.604,0.086c0.127-0.154,0.174-1.267,0.223-5.355c0.033-2.838,0.105-5.231,0.16-5.318
	c0.291-0.45,1.021-0.347,1.263,0.178c0.09,0.199,0.133,1.875,0.133,5.261v4.969l0.294,0.294c0.37,0.372,1.038,0.399,1.383,0.055
	c0.23-0.232,0.236-0.4,0.236-5.202c0-2.862,0.049-5.088,0.113-5.261C24.62,3.77,25.092,3.5,25.415,3.673
	c0.575,0.308,0.595,0.545,0.593,6.73c0,6.547,0.047,6.226-0.98,6.875c-1.586,0.998-1.793,1.158-1.965,1.521
	c-0.174,0.361-0.148,0.702,0.242,4.646c0.236,2.345,0.432,4.375,0.432,4.519c0,0.252-0.034,0.257-2.096,0.257h-2.1V27.9h0.004
	V27.898z"/>
<path id="path17555" inkscape:connector-curvature="0" fill="#704C24" d="M7.995,27.947c0-0.15,0.188-2.127,0.417-4.396
	c0.338-3.349,0.388-4.145,0.261-4.214c-1.164-0.651-2.465-2.063-3.031-3.286C3.803,12.075,5.481,6.032,9,3.971
	c1.034-0.606,1.914-0.405,3.168,0.723c1.192,1.073,2.172,2.717,2.725,4.569c0.413,1.386,0.523,3.717,0.24,5.064
	c-0.361,1.714-1.484,3.491-2.832,4.483c-0.392,0.289-0.764,0.543-0.827,0.563c-0.069,0.021,0.051,1.669,0.298,4.109
	c0.227,2.238,0.412,4.221,0.412,4.4v0.328h-2.096C7.997,28.217,7.995,28.217,7.995,27.947z"/>
</svg>
