<?xml version="1.0" encoding="utf-8"?>
<!-- Generator: Adobe Illustrator 16.0.3, SVG Export Plug-In . SVG Version: 6.00 Build 0)  -->
<!DOCTYPE svg PUBLIC "-//W3C//DTD SVG 1.1//EN" "http://www.w3.org/Graphics/SVG/1.1/DTD/svg11.dtd">
<svg version="1.1"
	 id="svg6932" xmlns:dc="http://purl.org/dc/elements/1.1/" xmlns:cc="http://creativecommons.org/ns#" xmlns:rdf="http://www.w3.org/1999/02/22-rdf-syntax-ns#" xmlns:svg="http://www.w3.org/2000/svg" xmlns:sodipodi="http://sodipodi.sourceforge.net/DTD/sodipodi-0.dtd" xmlns:inkscape="http://www.inkscape.org/namespaces/inkscape" inkscape:version="0.91 r13725" sodipodi:docname="car_rental.svg" inkscape:export-filename="C:\Users\Fabienne\Desktop\Symbole\png\car_rental.png" inkscape:export-xdpi="90" inkscape:export-ydpi="90"
	 xmlns="http://www.w3.org/2000/svg" xmlns:xlink="http://www.w3.org/1999/xlink" x="0px" y="0px" width="32px" height="32px"
	 viewBox="0 0 32 32" enable-background="new 0 0 32 32" xml:space="preserve">
<sodipodi:namedview  objecttolerance="10" gridtolerance="10" guidetolerance="10" pagecolor="#ffffff" bordercolor="#666666" borderopacity="1" inkscape:zoom="10.429825" inkscape:cx="-17.316626" inkscape:cy="8.3746228" id="namedview6936" showgrid="false" inkscape:pageopacity="0" inkscape:pageshadow="2" inkscape:current-layer="svg6932" inkscape:window-maximized="1" inkscape:window-width="1920" inkscape:window-x="-9" inkscape:window-height="1003" inkscape:window-y="-9">
	</sodipodi:namedview>
<path id="path4153" inkscape:connector-curvature="0" fill="none" d="M5.182,31.771c-2.588-0.338-4.653-2.44-4.951-5.041
	c-0.03-0.262-0.04-3.842-0.031-10.958L0.215,5.208l0.092-0.384c0.194-0.804,0.446-1.391,0.867-2.02
	C2.033,1.521,3.427,0.621,4.99,0.342C5.392,0.27,6.014,0.265,16.017,0.265c11.842,0,10.881-0.024,11.844,0.298
	c0.867,0.29,1.545,0.7,2.193,1.329c0.687,0.664,1.178,1.443,1.463,2.318C31.82,5.136,31.8,4.297,31.8,16.028
	c0,11.371,0.011,10.855-0.213,11.648c-0.231,0.831-0.774,1.758-1.401,2.395c-0.816,0.83-1.776,1.359-2.992,1.648
	c-0.303,0.072-0.9,0.076-11.026,0.084C10.278,31.807,5.335,31.793,5.182,31.771z M26.951,31.287
	c2.152-0.375,3.805-1.963,4.303-4.135l0.098-0.426l0.018-10.354C31.384,5.833,31.38,5.477,31.225,4.818
	c-0.229-1-0.77-1.927-1.531-2.647c-0.735-0.698-1.563-1.125-2.629-1.359c-0.346-0.076-0.793-0.079-11.043-0.079
	c-10.096,0-10.71,0.005-11.063,0.077C3.042,1.199,1.521,2.533,0.92,4.348C0.644,5.182,0.66,4.443,0.66,16.053
	c0,11.613-0.016,10.87,0.26,11.692c0.609,1.815,2.202,3.198,4.075,3.536C5.514,31.375,26.415,31.38,26.951,31.287L26.951,31.287z"/>
<path id="path4745" inkscape:connector-curvature="0" fill="none" d="M8.972,31.111c-3.917-0.025-3.982-0.027-4.314-0.121
	c-0.875-0.245-1.638-0.693-2.282-1.34c-0.637-0.637-0.992-1.213-1.279-2.068l-0.154-0.459l-0.041-1.535
	C0.844,23.424,0.883,5.598,0.947,5.133c0.091-0.667,0.455-1.511,0.916-2.129C2.558,2.072,3.458,1.456,4.627,1.11l0.367-0.108
	l2.594-0.031c3.373-0.041,13.688-0.041,16.926,0l2.528,0.032l0.39,0.118c1.782,0.541,3.098,1.893,3.553,3.65
	c0.102,0.384,0.108,0.526,0.148,2.075c0.026,1.033,0.032,5.124,0.016,10.794l-0.024,9.133l-0.104,0.414
	c-0.465,1.861-1.812,3.271-3.609,3.777L27,31.081l-4.042,0.032C18.41,31.152,14.788,31.152,8.972,31.111L8.972,31.111z"/>
<path id="path7484" inkscape:connector-curvature="0" fill="#9E1A34" d="M7.047,11.296c-0.878-0.304-1.76-0.977-2.386-1.822
	C2.978,7.2,3.772,3.773,6.294,2.432C7.802,1.63,9.339,1.6,10.862,2.342c0.636,0.31,1.923,1.529,1.923,1.821
	c0,0.068,2.517,0.12,5.861,0.12h5.858l1.399,1.162c0.771,0.639,1.396,1.199,1.393,1.244C27.291,6.734,26.65,7.3,25.875,7.947
	c-1.843,1.536-1.896,1.538-3.309,0.138l-1.045-1.039l-1.01,1.002L19.507,9.05l-0.979-0.972L17.55,7.106l-1,1.01l-1.002,1.009
	L14.2,9.13l-1.348,0.005l-0.426,0.58C11.29,11.26,8.941,11.951,7.047,11.296L7.047,11.296z M7.439,7.356
	C7.801,6.929,7.744,6.241,7.32,5.907c-0.724-0.57-1.663-0.126-1.663,0.786C5.658,7.677,6.806,8.104,7.439,7.356z"/>
<path fill="#9E1A34" d="M23.746,23.336c-0.055-1.899-0.123-2.855-0.225-3.098c-0.166-0.394-0.627-0.768-1.096-0.886
	c-0.381-0.098-0.557-0.48-1.477-3.247l-0.68-2.053l-4.895,0.026l-4.894-0.026l-0.681,2.053c-0.918,2.767-1.095,3.149-1.477,3.247
	c-0.466,0.115-0.929,0.49-1.094,0.886c-0.104,0.242-0.17,1.198-0.223,3.098l-0.077,2.74l0.909,0.032l0.905,0.031l0.136,0.543
	c0.421,1.653,2.671,1.63,3.141-0.034l0.143-0.509l3.211-0.027l3.211,0.027l0.143,0.509c0.473,1.664,2.721,1.688,3.143,0.034
	l0.137-0.543l0.904-0.031l0.91-0.032L23.746,23.336z M9.729,23.899c-0.805-0.489-0.904-1.521-0.205-2.163
	c0.324-0.297,0.473-0.355,0.912-0.355c0.826,0,1.338,0.523,1.338,1.37C11.774,23.851,10.669,24.475,9.729,23.899z M15.883,19.281
	c-0.078,0-0.148,0-0.226,0v-0.005c-0.09,0-0.19,0-0.285,0.002c-0.091-0.002-0.193-0.002-0.283-0.002v0.005c-0.077,0-0.147,0-0.226,0
	c-2.123,0.011-3.856-0.011-3.856-0.043c0-0.181,1.025-3.397,1.12-3.516c0.075-0.094,1.418-0.144,2.984-0.141v0.002
	c0.089-0.001,0.174,0,0.261-0.001c0.09,0,0.175,0,0.264,0.001v-0.002c1.567-0.003,2.911,0.047,2.983,0.141
	c0.096,0.119,1.119,3.335,1.119,3.516C19.74,19.271,18.008,19.292,15.883,19.281z M21.021,23.899
	c-0.939,0.575-2.047-0.049-2.047-1.148c0-0.847,0.514-1.37,1.34-1.37c0.438,0,0.586,0.058,0.912,0.355
	C21.924,22.379,21.826,23.41,21.021,23.899z"/>
</svg>
