<?xml version="1.0" encoding="utf-8"?>
<!-- Generator: Adobe Illustrator 16.0.3, SVG Export Plug-In . SVG Version: 6.00 Build 0)  -->
<!DOCTYPE svg PUBLIC "-//W3C//DTD SVG 1.1//EN" "http://www.w3.org/Graphics/SVG/1.1/DTD/svg11.dtd">
<svg version="1.1"
	 id="svg6351" xmlns:dc="http://purl.org/dc/elements/1.1/" xmlns:cc="http://creativecommons.org/ns#" xmlns:rdf="http://www.w3.org/1999/02/22-rdf-syntax-ns#" xmlns:svg="http://www.w3.org/2000/svg" xmlns:sodipodi="http://sodipodi.sourceforge.net/DTD/sodipodi-0.dtd" xmlns:inkscape="http://www.inkscape.org/namespaces/inkscape" inkscape:version="0.91 r13725" sodipodi:docname="car.svg" inkscape:export-filename="C:\Users\Fabienne\Desktop\Symbole\png\car.png" inkscape:export-xdpi="90" inkscape:export-ydpi="90"
	 xmlns="http://www.w3.org/2000/svg" xmlns:xlink="http://www.w3.org/1999/xlink" x="0px" y="0px" width="32px" height="32px"
	 viewBox="0 0 32 32" enable-background="new 0 0 32 32" xml:space="preserve">
<pattern  x="-281.5" y="436.5" width="6" height="6" patternUnits="userSpaceOnUse" id="path4745_1_" viewBox="0 -6 6 6" overflow="visible">
	<g>
		<polygon fill="none" points="0,0 6,0 6,-6 0,-6 		"/>
		<g>
			<polygon fill="none" points="0,-6 6,-6 6,0 0,0 			"/>
			<g>
				<polygon fill="none" points="0,0 6,0 6,-6 0,-6 				"/>
			</g>
		</g>
	</g>
</pattern>
<sodipodi:namedview  pagecolor="#ffffff" bordercolor="#666666" borderopacity="1" inkscape:zoom="9.8333333" inkscape:cx="-49.242201" inkscape:cy="10.843679" id="namedview6360" showgrid="false" inkscape:pageopacity="0" inkscape:pageshadow="2" inkscape:current-layer="svg6351" inkscape:window-maximized="1" inkscape:window-height="1003" inkscape:window-width="1920" inkscape:window-x="-9" inkscape:window-y="-9" guidetolerance="10" objecttolerance="10" gridtolerance="10">
	</sodipodi:namedview>
<path id="path4153" inkscape:connector-curvature="0" inkscape:export-filename="C:\Users\Fabienne\Desktop\Symbole\png\car.png" inkscape:export-xdpi="90" inkscape:export-ydpi="90" fill="none" d="
	M5.183,31.771c-2.588-0.338-4.654-2.445-4.951-5.053c-0.03-0.262-0.04-3.852-0.03-10.979L0.216,5.15l0.093-0.384
	C0.503,3.96,0.755,3.372,1.176,2.742c0.859-1.286,2.253-2.188,3.816-2.468c0.402-0.072,1.024-0.076,11.027-0.076
	c11.842,0,10.881-0.024,11.844,0.298c0.867,0.291,1.545,0.702,2.193,1.333c0.687,0.665,1.178,1.445,1.463,2.322
	c0.304,0.928,0.282,0.088,0.281,11.844c0,11.396,0.01,10.876-0.212,11.671c-0.231,0.834-0.774,1.764-1.401,2.398
	c-0.818,0.832-1.778,1.361-2.992,1.652c-0.303,0.072-0.901,0.076-11.027,0.084C10.278,31.807,5.335,31.793,5.183,31.771z
	 M26.951,31.285c2.152-0.375,3.805-1.967,4.303-4.143l0.098-0.429l0.017-10.376C31.383,5.777,31.379,5.42,31.223,4.76
	c-0.229-1.001-0.768-1.931-1.529-2.652c-0.736-0.7-1.563-1.127-2.629-1.362C26.719,0.67,26.271,0.667,16.02,0.667
	c-10.093,0-10.707,0.004-11.061,0.076C3.042,1.134,1.521,2.471,0.92,4.29C0.644,5.125,0.661,4.386,0.661,16.019
	c0,11.637-0.017,10.893,0.259,11.717c0.609,1.82,2.203,3.205,4.075,3.543C5.514,31.375,26.415,31.379,26.951,31.285z"/>
<pattern  id="path4745_2_" xlink:href="#path4745_1_" patternTransform="matrix(1 0 0 1 -552 18045)">
</pattern>
<path id="path4745" inkscape:connector-curvature="0" fill="none" stroke="url(#path4745_2_)" d="M8.962,31.111
	c-3.913-0.025-3.978-0.027-4.309-0.121c-0.874-0.245-1.637-0.693-2.28-1.34c-0.635-0.637-0.991-1.213-1.277-2.068l-0.154-0.459
	l-0.041-1.535C0.843,23.424,0.882,5.598,0.946,5.133C1.038,4.466,1.4,3.622,1.861,3.004c0.694-0.931,1.593-1.548,2.761-1.893
	l0.367-0.108L7.58,0.971c3.369-0.041,13.672-0.041,16.906,0l2.525,0.032L27.4,1.121c1.781,0.541,3.095,1.892,3.549,3.65
	c0.1,0.384,0.109,0.525,0.15,2.075c0.023,1.033,0.029,5.124,0.014,10.794l-0.026,9.135l-0.103,0.412
	c-0.463,1.865-1.811,3.272-3.607,3.778l-0.408,0.115l-4.037,0.032C18.391,31.152,14.771,31.152,8.962,31.111L8.962,31.111z"/>
<path fill="#9E1A34" d="M26.859,19.288c-0.07-2.468-0.158-3.709-0.291-4.023c-0.215-0.512-0.814-0.998-1.424-1.151
	c-0.494-0.126-0.723-0.623-1.916-4.218l-0.885-2.666l-6.356,0.033L9.632,7.229L8.748,9.896c-1.194,3.595-1.422,4.092-1.918,4.218
	c-0.606,0.15-1.208,0.637-1.42,1.151c-0.136,0.314-0.221,1.556-0.29,4.023l-0.1,3.559l1.18,0.041l1.175,0.043l0.176,0.706
	c0.547,2.146,3.471,2.116,4.08-0.046l0.186-0.66l4.171-0.036l4.168,0.036l0.186,0.66c0.613,2.162,3.535,2.192,4.082,0.046
	l0.178-0.706l1.174-0.043l1.184-0.041L26.859,19.288z M8.654,20.02c-1.045-0.635-1.175-1.975-0.266-2.809
	c0.421-0.386,0.615-0.462,1.184-0.462c1.074,0,1.739,0.68,1.739,1.779C11.312,19.958,9.875,20.768,8.654,20.02z M16.648,14.021
	c-0.104,0-0.195,0-0.292,0v-0.005c-0.117,0-0.248,0-0.371,0.003c-0.118-0.003-0.251-0.003-0.367-0.003v0.005
	c-0.099,0-0.19,0-0.293,0c-2.758,0.014-5.01-0.014-5.01-0.055c0-0.235,1.332-4.413,1.455-4.567c0.098-0.121,1.842-0.187,3.876-0.183
	v0.003c0.115-0.001,0.227,0,0.339-0.001c0.117,0,0.227,0,0.344,0.001V9.216c2.033-0.004,3.779,0.062,3.875,0.183
	c0.123,0.155,1.453,4.332,1.453,4.567C21.658,14.007,19.406,14.035,16.648,14.021z M23.32,20.02
	c-1.221,0.748-2.656-0.062-2.656-1.491c0-1.1,0.666-1.779,1.738-1.779c0.568,0,0.762,0.073,1.184,0.462
	C24.494,18.045,24.367,19.385,23.32,20.02z"/>
</svg>
