<?xml version="1.0" encoding="utf-8"?>
<!-- Generator: Adobe Illustrator 16.0.3, SVG Export Plug-In . SVG Version: 6.00 Build 0)  -->
<!DOCTYPE svg PUBLIC "-//W3C//DTD SVG 1.1//EN" "http://www.w3.org/Graphics/SVG/1.1/DTD/svg11.dtd">
<svg version="1.1"
	 id="svg4146" xmlns:dc="http://purl.org/dc/elements/1.1/" xmlns:cc="http://creativecommons.org/ns#" xmlns:rdf="http://www.w3.org/1999/02/22-rdf-syntax-ns#" xmlns:svg="http://www.w3.org/2000/svg" xmlns:sodipodi="http://sodipodi.sourceforge.net/DTD/sodipodi-0.dtd" xmlns:inkscape="http://www.inkscape.org/namespaces/inkscape" inkscape:version="0.91 r13725" sodipodi:docname="car_repair_frame_color.svg"
	 xmlns="http://www.w3.org/2000/svg" xmlns:xlink="http://www.w3.org/1999/xlink" x="0px" y="0px" width="32px" height="32px"
	 viewBox="0 0 32 32" enable-background="new 0 0 32 32" xml:space="preserve">
<sodipodi:namedview  units="px" pagecolor="#ffffff" bordercolor="#666666" borderopacity="1.0" inkscape:zoom="7.9195959" inkscape:cx="-55.945297" inkscape:cy="33.818391" id="base" showgrid="false" inkscape:pageopacity="0.0" inkscape:pageshadow="2" inkscape:current-layer="layer1" inkscape:window-maximized="1" inkscape:window-height="1138" inkscape:document-units="px" inkscape:window-width="1920" inkscape:window-x="-8" inkscape:window-y="-8">
	</sodipodi:namedview>
<g>
	<path fill="none" d="M28.777,0H3.223C1.424,0,0,1.424,0,3.223v25.555c0,1.726,1.424,3.224,3.223,3.224h25.554
		c1.725,0,3.224-1.498,3.224-3.224V3.223C32.001,1.424,30.502,0,28.777,0z M30.051,27.129c0,1.574-1.273,2.771-2.848,2.771H4.871
		c-1.574,0-2.848-1.197-2.848-2.771V4.796c0-1.574,1.274-2.848,2.848-2.848h22.332c1.574,0,2.848,1.275,2.848,2.848V27.129z"/>
	<path fill="none" d="M10.01,21.395c-0.091,0.139-0.161,0.441-0.161,0.699c0,0.396,0.047,0.5,0.378,0.831
		c0.313,0.312,0.446,0.378,0.765,0.378c0.242,0,0.511-0.082,0.717-0.223c0.565-0.381,0.721-0.951,0.428-1.568
		C11.758,20.713,10.502,20.645,10.01,21.395z"/>
	<path fill="none" d="M20.492,20.867c-0.736,0-1.192,0.465-1.192,1.22c0,0.979,0.985,1.536,1.822,1.024
		c0.718-0.438,0.806-1.355,0.183-1.928C21.016,20.918,20.883,20.867,20.492,20.867z"/>
	<path fill="none" d="M9.078,7.962C8.679,7.756,8.548,7.771,8.2,8.064C7.878,8.335,7.797,8.8,8.004,9.188
		c0.209,0.39,0.904,0.457,1.273,0.123C9.683,8.943,9.576,8.22,9.078,7.962z"/>
	<path fill="none" d="M27.203,1.948H4.871c-1.574,0-2.848,1.274-2.848,2.848v22.333c0,1.574,1.274,2.771,2.848,2.771h22.332
		c1.574,0,2.848-1.197,2.848-2.771V4.796C30.051,3.223,28.777,1.948,27.203,1.948z M22.807,25.078L22,25.105l-0.122,0.483
		c-0.374,1.474-2.379,1.452-2.798-0.03l-0.127-0.453l-3.149-0.025l-0.012,2.108l0.012-2.108h-0.031l-3.18-0.023l-0.067,0.316
		c-0.106,0.504-0.423,0.941-0.832,1.15c-0.434,0.221-0.798,0.237-1.212,0.053c-0.404-0.178-0.655-0.482-0.836-1.016l-0.154-0.455
		l-0.747-0.027L7.998,25.05v-2.526c0.016-0.387,0.213-2.767,0.362-2.933c0.391-0.435,1.012-0.664,1.26-0.681
		c0.54-0.036,0.672-2.151,0.72-2.295l0.742-2.225l4.685-0.026l0.099,0l0.008-1.341l-0.008,1.341l4.585-0.024l0.606,1.828
		c0.818,2.464,0.976,2.808,1.316,2.894c0.415,0.104,0.828,0.438,0.975,0.787c0.092,0.217,0.151,1.068,0.198,2.76l0.068,2.442
		L22.807,25.078z M24.021,11.333c-0.266,0.271-0.764,0.631-1.105,0.8c-0.54,0.266-0.743,0.311-1.512,0.335
		c-0.543,0.017-1.037-0.023-1.277-0.101v-0.01h-0.001c-0.56-0.183-0.888-0.406-1.604-1.093l-0.635-0.605l-4.773-0.066
		c-2.629-0.036-4.985-0.111-5.245-0.167c-1.2-0.256-1.781-1.629-1.138-2.686c0.103-0.17,0.42-0.442,0.703-0.605L7.95,6.841h4.946
		h4.946l0.631-0.668c0.908-0.963,1.524-1.231,2.824-1.231c0.862,0,1.037,0.03,1.512,0.264c0.53,0.261,1.655,1.179,1.655,1.353
		c0,0.049-0.544,0.09-1.224,0.09h-1.225l-1.162,0.979c-0.642,0.539-1.164,1.017-1.164,1.062c0,0.044,0.508,0.514,1.129,1.042
		c1.261,1.074,1.306,1.092,2.765,1.101l0.923,0.01L24.021,11.333z"/>
	<path fill="#9E1A34" d="M20.818,9.731c-0.621-0.528-1.129-0.998-1.129-1.042c0-0.045,0.522-0.523,1.164-1.062l1.162-0.979h1.225
		c0.68,0,1.224-0.041,1.224-0.09c0-0.173-1.125-1.091-1.655-1.353c-0.475-0.234-0.649-0.264-1.512-0.264
		c-1.3,0-1.916,0.268-2.824,1.231l-0.631,0.668h-4.946H7.95L7.434,7.136c-0.283,0.163-0.6,0.435-0.703,0.605
		c-0.643,1.057-0.062,2.43,1.138,2.686c0.26,0.056,2.616,0.131,5.245,0.167l4.773,0.066l0.635,0.605
		c0.717,0.687,1.045,0.91,1.604,1.093h0.001v0.01c0.24,0.078,0.734,0.118,1.277,0.101c0.769-0.024,0.972-0.069,1.512-0.335
		c0.342-0.169,0.84-0.529,1.105-0.8l0.484-0.492l-0.923-0.01C22.124,10.823,22.079,10.805,20.818,9.731z M9.277,9.311
		C8.908,9.645,8.213,9.578,8.004,9.188C7.797,8.8,7.878,8.335,8.2,8.064c0.348-0.293,0.479-0.308,0.878-0.102
		C9.576,8.22,9.683,8.943,9.277,9.311z"/>
</g>
<path fill="#9E1A34" d="M22.797,22.443c-0.049-1.744-0.111-2.621-0.205-2.844c-0.152-0.361-0.576-0.705-1.006-0.813
	c-0.35-0.088-0.512-0.441-1.355-2.981l-0.625-1.884l-4.493,0.024l-4.492-0.024l-0.625,1.884c-0.843,2.54-1.005,2.893-1.356,2.981
	c-0.428,0.107-0.853,0.451-1.004,0.813c-0.095,0.223-0.156,1.1-0.205,2.844l-0.07,2.516l0.834,0.029l0.831,0.029l0.125,0.498
	c0.386,1.518,2.452,1.496,2.883-0.031l0.131-0.467l2.948-0.025l2.947,0.025l0.131,0.467c0.434,1.527,2.498,1.549,2.885,0.031
	l0.125-0.498l0.83-0.029l0.836-0.029L22.797,22.443z M9.93,22.961c-0.739-0.449-0.83-1.396-0.188-1.986
	c0.298-0.273,0.435-0.326,0.837-0.326c0.759,0,1.229,0.48,1.229,1.258C11.808,22.916,10.793,23.488,9.93,22.961z M15.58,18.721
	c-0.072,0-0.136,0-0.207,0v-0.004c-0.083,0-0.175,0-0.261,0.002c-0.085-0.002-0.178-0.002-0.261-0.002v0.004
	c-0.07,0-0.134,0-0.206,0c-1.949,0.01-3.541-0.01-3.541-0.039c0-0.166,0.941-3.119,1.028-3.228c0.069-0.086,1.302-0.132,2.739-0.129
	v0.002c0.082-0.001,0.16,0,0.241-0.001c0.081,0,0.16,0,0.241,0.001v-0.002c1.438-0.003,2.672,0.043,2.74,0.129
	c0.086,0.109,1.027,3.062,1.027,3.228C19.121,18.711,17.529,18.73,15.58,18.721z M20.297,22.961
	c-0.863,0.527-1.879-0.045-1.879-1.055c0-0.777,0.471-1.258,1.229-1.258c0.402,0,0.539,0.053,0.838,0.326
	C21.125,21.564,21.035,22.512,20.297,22.961z"/>
</svg>
