<?xml version="1.0" encoding="utf-8"?>
<!-- Generator: Adobe Illustrator 16.0.3, SVG Export Plug-In . SVG Version: 6.00 Build 0)  -->
<!DOCTYPE svg PUBLIC "-//W3C//DTD SVG 1.1//EN" "http://www.w3.org/Graphics/SVG/1.1/DTD/svg11.dtd">
<svg version="1.1"
	 id="svg8138" xmlns:dc="http://purl.org/dc/elements/1.1/" xmlns:cc="http://creativecommons.org/ns#" xmlns:rdf="http://www.w3.org/1999/02/22-rdf-syntax-ns#" xmlns:svg="http://www.w3.org/2000/svg" xmlns:sodipodi="http://sodipodi.sourceforge.net/DTD/sodipodi-0.dtd" xmlns:inkscape="http://www.inkscape.org/namespaces/inkscape" inkscape:version="0.91 r13725" sodipodi:docname="kiosk.svg" inkscape:export-filename="C:\Users\Fabienne\Desktop\Symbole\png\kiosk.png" inkscape:export-xdpi="90" inkscape:export-ydpi="90"
	 xmlns="http://www.w3.org/2000/svg" xmlns:xlink="http://www.w3.org/1999/xlink" x="0px" y="0px" width="32px" height="32px"
	 viewBox="0 0 32 32" enable-background="new 0 0 32 32" xml:space="preserve">
<sodipodi:namedview  units="px" pagecolor="#ffffff" bordercolor="#666666" borderopacity="1.0" inkscape:zoom="12.799999" inkscape:cx="6.0401979" inkscape:cy="8.8676938" id="namedview8142" showgrid="false" inkscape:pageopacity="0.0" inkscape:pageshadow="2" inkscape:current-layer="layer1" inkscape:window-maximized="1" inkscape:window-height="1003" inkscape:document-units="pt" inkscape:window-width="1920" inkscape:window-x="-9" inkscape:window-y="-9">
	</sodipodi:namedview>
<g id="layer1" transform="translate(0,-314.4)" inkscape:label="Layer 1" inkscape:groupmode="layer">
	<path id="path4153" inkscape:connector-curvature="0" fill="none" d="M5.183,346.172c-2.588-0.338-4.654-2.443-4.951-5.053
		c-0.03-0.261-0.04-3.852-0.03-10.978l0.014-10.59l0.093-0.384c0.194-0.806,0.446-1.394,0.867-2.024
		c0.859-1.286,2.253-2.188,3.816-2.468c0.402-0.072,1.024-0.076,11.027-0.076c11.842,0,10.881-0.022,11.844,0.298
		c0.867,0.291,1.545,0.702,2.193,1.333c0.687,0.665,1.178,1.445,1.463,2.322c0.304,0.928,0.281,0.088,0.28,11.844
		c0,11.395,0.011,10.876-0.212,11.671c-0.23,0.834-0.773,1.763-1.4,2.399c-0.818,0.832-1.778,1.361-2.992,1.652
		c-0.303,0.07-0.901,0.074-11.027,0.084C10.278,346.205,5.335,346.193,5.183,346.172L5.183,346.172z M26.951,345.685
		c2.152-0.375,3.805-1.967,4.303-4.143l0.098-0.43l0.018-10.376c0.015-10.561,0.01-10.918-0.146-11.578
		c-0.229-1.001-0.768-1.931-1.529-2.652c-0.735-0.7-1.563-1.128-2.629-1.362c-0.346-0.076-0.793-0.079-11.043-0.079
		c-10.093,0-10.707,0.003-11.061,0.076c-1.916,0.39-3.437,1.729-4.038,3.546c-0.276,0.835-0.259,0.095-0.259,11.729
		c0,11.635-0.017,10.891,0.259,11.715c0.609,1.82,2.203,3.205,4.075,3.543C5.514,345.775,26.415,345.779,26.951,345.685
		L26.951,345.685z"/>
	<path id="path4745" inkscape:connector-curvature="0" fill="none" d="M8.972,345.511c-3.917-0.027-3.982-0.029-4.314-0.123
		c-0.875-0.246-1.639-0.695-2.283-1.342c-0.636-0.642-0.992-1.217-1.279-2.074l-0.154-0.459l-0.041-1.539
		c-0.058-2.168-0.019-20.031,0.045-20.5c0.092-0.668,0.455-1.514,0.916-2.133c0.695-0.933,1.595-1.551,2.764-1.897l0.367-0.109
		l2.594-0.031c3.373-0.041,13.687-0.041,16.925,0l2.528,0.032l0.39,0.118c1.783,0.542,3.098,1.896,3.553,3.658
		c0.103,0.385,0.109,0.527,0.149,2.08c0.026,1.035,0.032,5.134,0.017,10.815l-0.026,9.152l-0.104,0.414
		c-0.465,1.867-1.811,3.279-3.608,3.787L27,345.476l-4.042,0.033C18.41,345.552,14.788,345.55,8.972,345.511L8.972,345.511
		L8.972,345.511z"/>
	<path id="path5311" inkscape:connector-curvature="0" fill="#9E1A34" d="M20.295,327.832c-0.581-0.192-1.077-0.534-1.244-0.856
		c-0.082-0.16-0.084-0.331-0.018-1.405c0.088-1.4,0.083-1.436-0.51-3.936c-0.17-0.714-0.404-1.717-0.521-2.227
		c-0.117-0.51-0.229-0.991-0.245-1.067l-0.032-0.14h1.039h1.041l0.205,0.418c0.367,0.748,1.612,3.05,2.316,4.284l0.688,1.206
		l0.023,1.382l0.023,1.382l-0.332,0.307c-0.185,0.169-0.508,0.395-0.728,0.501c-0.334,0.165-0.479,0.198-0.928,0.213
		C20.75,327.907,20.445,327.882,20.295,327.832L20.295,327.832z"/>
	<path id="path5313" inkscape:connector-curvature="0" fill="#9E1A34" d="M25.244,327.89c-0.502-0.124-0.873-0.318-1.209-0.632
		l-0.314-0.295l0.014-1.465l0.017-1.464l-0.481-0.89c-0.474-0.867-1.693-2.938-2.523-4.276l-0.412-0.666h1.229h1.229l0.394,0.511
		c0.715,0.927,2.603,3.277,3.479,4.337l0.864,1.042l-0.036,1.424c-0.043,1.634,0,1.514-0.701,1.971
		c-0.326,0.212-1.041,0.504-1.188,0.484C25.57,327.969,25.414,327.932,25.244,327.89L25.244,327.89z"/>
	<path id="path5315" inkscape:connector-curvature="0" fill="#9E1A34" d="M15.578,327.765c-0.496-0.12-1.092-0.441-1.35-0.727
		l-0.233-0.258l0.038-1.431l0.038-1.431l0.562-2.41c0.309-1.326,0.606-2.612,0.662-2.858l0.101-0.449h0.88h0.881l0.043,0.294
		c0.022,0.162,0.231,1.199,0.467,2.305c0.653,3.099,0.64,2.985,0.625,4.608l-0.015,1.422l-0.166,0.177
		C17.467,327.688,16.479,327.983,15.578,327.765L15.578,327.765z"/>
	<path id="path5317" inkscape:connector-curvature="0" fill="#9E1A34" d="M10.675,327.635c-0.449-0.126-0.823-0.352-1.161-0.701
		l-0.277-0.287l0.038-0.773c0.021-0.425,0.038-1.039,0.038-1.363v-0.59l0.41-0.555c0.838-1.135,2.008-2.995,2.868-4.561l0.332-0.604
		h0.948c0.521,0,0.948,0.019,0.948,0.042c0,0.021-0.109,0.433-0.243,0.912c-0.318,1.14-0.698,2.654-0.975,3.895
		c-0.206,0.919-0.226,1.102-0.26,2.331c-0.042,1.5-0.048,1.52-0.524,1.848C12.185,327.664,11.346,327.822,10.675,327.635
		L10.675,327.635z"/>
	<path id="path5319" inkscape:connector-curvature="0" fill="#9E1A34" d="M6.151,327.702c-0.417-0.115-0.897-0.396-1.141-0.665
		l-0.213-0.236v-1.487v-1.487l0.789-0.817c0.434-0.449,1.413-1.499,2.176-2.333c0.763-0.833,1.591-1.731,1.841-1.995l0.454-0.479
		h1.113c0.943,0,1.113,0.014,1.113,0.092c0,0.108-1.05,1.773-2.525,4.003c-0.744,1.126-1.061,1.659-1.086,1.825
		c-0.019,0.129-0.053,0.775-0.076,1.435l-0.041,1.2L8.335,327c-0.271,0.3-0.646,0.524-1.134,0.675
		C6.775,327.808,6.556,327.814,6.151,327.702L6.151,327.702z"/>
	<path id="path5321" inkscape:connector-curvature="0" fill="#9E1A34" d="M7.377,343.23c-0.341-0.121-0.69-0.381-0.878-0.65
		c-0.35-0.507-0.341-0.316-0.341-6.793c0-6.608-0.021-6.262,0.397-6.518c0.185-0.112,0.509-0.116,9.858-0.116h9.667
		c0,0,0.252,0.131,0.311,0.185c0.061,0.053,0.152,0.239,0.152,0.239l0.031,6.145c0.017,3.38,0.01,6.229-0.016,6.332
		c-0.123,0.51-0.677,1.054-1.223,1.205c-0.139,0.037-3.427,0.06-8.973,0.059C9.159,343.314,7.57,343.298,7.377,343.23L7.377,343.23z
		 M24.902,335.308v-4.485h-8.505H7.891v4.485v4.484h8.506h8.505V335.308z"/>
</g>
</svg>
