<?xml version="1.0" encoding="utf-8"?>
<!-- Generator: Adobe Illustrator 16.0.3, SVG Export Plug-In . SVG Version: 6.00 Build 0)  -->
<!DOCTYPE svg PUBLIC "-//W3C//DTD SVG 1.1//EN" "http://www.w3.org/Graphics/SVG/1.1/DTD/svg11.dtd">
<svg version="1.1"
	 id="svg5942" xmlns:dc="http://purl.org/dc/elements/1.1/" xmlns:cc="http://creativecommons.org/ns#" xmlns:rdf="http://www.w3.org/1999/02/22-rdf-syntax-ns#" xmlns:svg="http://www.w3.org/2000/svg" xmlns:sodipodi="http://sodipodi.sourceforge.net/DTD/sodipodi-0.dtd" xmlns:inkscape="http://www.inkscape.org/namespaces/inkscape" inkscape:version="0.91 r13725" sodipodi:docname="laundry.svg" inkscape:export-filename="C:\Users\Fabienne\Desktop\Symbole\png\laundry.png" inkscape:export-xdpi="90" inkscape:export-ydpi="90"
	 xmlns="http://www.w3.org/2000/svg" xmlns:xlink="http://www.w3.org/1999/xlink" x="0px" y="0px" width="32px" height="32px"
	 viewBox="0 0 32 32" enable-background="new 0 0 32 32" xml:space="preserve">
<sodipodi:namedview  units="px" pagecolor="#ffffff" bordercolor="#666666" borderopacity="1.0" inkscape:zoom="9.0509662" inkscape:cx="-1.7731624" inkscape:cy="12.829285" id="namedview5946" showgrid="false" inkscape:pageopacity="0.0" inkscape:pageshadow="2" inkscape:current-layer="layer1" inkscape:window-maximized="1" inkscape:window-height="1003" inkscape:document-units="pt" inkscape:window-width="1920" inkscape:window-x="-9" inkscape:window-y="-9">
	</sodipodi:namedview>
<g id="layer1" transform="translate(0,-314.4)" inkscape:label="Layer 1" inkscape:groupmode="layer">
	<path id="path4153" inkscape:connector-curvature="0" fill="none" d="M5.383,346.369c-2.588-0.338-4.654-2.441-4.951-5.053
		c-0.03-0.262-0.04-3.852-0.03-10.978l0.014-10.59l0.093-0.384c0.194-0.806,0.446-1.394,0.867-2.024
		c0.859-1.286,2.253-2.188,3.816-2.468c0.402-0.072,1.024-0.076,11.027-0.076c11.841,0,10.88-0.021,11.843,0.298
		c0.867,0.291,1.545,0.702,2.193,1.333c0.688,0.665,1.178,1.445,1.463,2.322c0.305,0.928,0.28,0.088,0.279,11.844
		c0,11.395,0.012,10.875-0.212,11.67c-0.229,0.834-0.772,1.764-1.399,2.4c-0.818,0.832-1.777,1.36-2.992,1.651
		c-0.303,0.069-0.9,0.073-11.026,0.084C10.478,346.402,5.535,346.39,5.383,346.369L5.383,346.369z M27.15,345.882
		c2.152-0.375,3.806-1.967,4.304-4.144l0.098-0.431l0.019-10.377c0.016-10.56,0.011-10.917-0.146-11.577
		c-0.229-1.001-0.769-1.931-1.528-2.652c-0.735-0.7-1.563-1.128-2.629-1.362c-0.347-0.076-0.793-0.079-11.043-0.079
		c-10.093,0-10.707,0.003-11.061,0.076c-1.915,0.39-3.437,1.729-4.038,3.546c-0.276,0.835-0.259,0.095-0.259,11.729
		c0,11.634-0.017,10.89,0.259,11.714c0.609,1.82,2.203,3.205,4.075,3.543C5.714,345.972,26.615,345.976,27.15,345.882L27.15,345.882
		z"/>
	<path id="path4745" inkscape:connector-curvature="0" fill="none" d="M9.172,345.709c-3.917-0.027-3.982-0.029-4.314-0.123
		c-0.875-0.246-1.639-0.695-2.283-1.342c-0.636-0.643-0.992-1.217-1.279-2.074l-0.154-0.459l-0.041-1.539
		c-0.058-2.168-0.019-20.031,0.045-20.5c0.092-0.668,0.455-1.514,0.916-2.133c0.695-0.933,1.595-1.551,2.764-1.897l0.367-0.109
		l2.594-0.031c3.373-0.041,13.688-0.041,16.925,0l2.528,0.032l0.39,0.118c1.783,0.542,3.099,1.896,3.554,3.658
		c0.104,0.385,0.108,0.527,0.148,2.08c0.025,1.035,0.031,5.134,0.018,10.815l-0.025,9.151l-0.104,0.414
		c-0.466,1.866-1.813,3.278-3.609,3.786l-0.41,0.117l-4.042,0.033C18.609,345.75,14.988,345.748,9.172,345.709L9.172,345.709
		L9.172,345.709z"/>
	
		<path id="path5958" inkscape:connector-curvature="0" fill="#9E1A34" stroke="#9E1A34" stroke-width="0.5" stroke-miterlimit="10" d="
		M7.667,332.047v-10.051h8.44h8.441v10.051v10.051h-8.441h-8.44V332.047z M24.035,333.831l-0.012-7.802l-7.926-0.01l-7.927-0.01
		v7.81v7.811h7.938h7.937L24.035,333.831L24.035,333.831z"/>
</g>
<circle fill="#9E1A34" cx="15.905" cy="19.455" r="3.693"/>
</svg>
