<?xml version="1.0" encoding="UTF-8" standalone="no"?>
<!-- Created with Inkscape (http://www.inkscape.org/) -->

<svg
   xmlns:dc="http://purl.org/dc/elements/1.1/"
   xmlns:cc="http://creativecommons.org/ns#"
   xmlns:rdf="http://www.w3.org/1999/02/22-rdf-syntax-ns#"
   xmlns:svg="http://www.w3.org/2000/svg"
   xmlns="http://www.w3.org/2000/svg"
   xmlns:sodipodi="http://sodipodi.sourceforge.net/DTD/sodipodi-0.dtd"
   xmlns:inkscape="http://www.inkscape.org/namespaces/inkscape"
   width="32"
   height="32"
   viewBox="0 0 32 32.000001"
   id="svg4137"
   version="1.1"
   inkscape:version="0.91 r13725"
   sodipodi:docname="buddhist_frame_color.svg">
  <defs
     id="defs4139">
    <pattern
       y="0"
       x="0"
       height="6"
       width="6"
       patternUnits="userSpaceOnUse"
       id="EMFhbasepattern" />
  </defs>
  <sodipodi:namedview
     id="base"
     pagecolor="#ffffff"
     bordercolor="#666666"
     borderopacity="1.0"
     inkscape:pageopacity="0.0"
     inkscape:pageshadow="2"
     inkscape:zoom="15.839192"
     inkscape:cx="17.290349"
     inkscape:cy="17.620771"
     inkscape:document-units="px"
     inkscape:current-layer="layer1"
     showgrid="false"
     units="px"
     inkscape:window-width="1920"
     inkscape:window-height="1138"
     inkscape:window-x="-8"
     inkscape:window-y="-8"
     inkscape:window-maximized="1" />
  <metadata
     id="metadata4142">
    <rdf:RDF>
      <cc:Work
         rdf:about="">
        <dc:format>image/svg+xml</dc:format>
        <dc:type
           rdf:resource="http://purl.org/dc/dcmitype/StillImage" />
        <dc:title></dc:title>
      </cc:Work>
    </rdf:RDF>
  </metadata>
  <g
     inkscape:label="Ebene 1"
     inkscape:groupmode="layer"
     id="layer1"
     transform="translate(0,-1020.3622)">
    <rect
       style="opacity:1;fill:#000000;fill-opacity:1;stroke:none;stroke-width:2.09500003;stroke-linecap:butt;stroke-linejoin:round;stroke-miterlimit:4;stroke-dasharray:none;stroke-dashoffset:0;stroke-opacity:1"
       id="rect4154"
       width="32"
       height="31.99999"
       x="0"
       y="1020.3622"
       ry="3.2261746" />
    <rect
       style="opacity:1;fill:#ffffff;fill-opacity:1;stroke:none;stroke-width:2.09500003;stroke-linecap:butt;stroke-linejoin:round;stroke-miterlimit:4;stroke-dasharray:none;stroke-dashoffset:0;stroke-opacity:1"
       id="rect4154-7"
       width="28"
       height="28"
       x="-30.045902"
       y="1022.3163"
       ry="2.8229036"
       transform="scale(-1,1)" />
    <path
       style="fill:#000000;fill-opacity:1;stroke:#000000;stroke-width:0.02546714;stroke-miterlimit:4;stroke-dasharray:none;stroke-opacity:1"
       d="m 15.374542,1048.004 c -0.833915,-0.4406 -1.003262,-1.529 -0.340059,-2.1854 0.221048,-0.2187 0.168714,-0.2658 -0.362101,-0.3258 -1.264022,-0.143 -3.146125,-0.97 -4.232312,-1.8595 -0.143675,-0.1176 -0.275673,-0.2139 -0.293326,-0.2139 -0.01766,0 -0.0321,0.1572 -0.0321,0.3492 0,0.4597 -0.219241,0.8898 -0.5842477,1.1464 -0.2461574,0.173 -0.3203664,0.1916 -0.7651856,0.1916 -0.4298064,0 -0.5260381,-0.023 -0.7550098,-0.1737 -1.1523013,-0.7625 -0.5679159,-2.5322 0.8361996,-2.5322 0.27045,0 0.2850666,-0.053 0.082872,-0.2975 -0.8291974,-1.005 -1.5751202,-2.6993 -1.8061285,-4.1027 -0.059879,-0.3638 -0.1159417,-0.6719 -0.1245924,-0.6849 -0.00865,-0.013 -0.1314837,0.075 -0.2729629,0.1968 -0.9256857,0.7923 -2.2927719,0.1955 -2.2927719,-1.001 0,-1.2037 1.4282909,-1.8131 2.3018147,-0.9822 0.2265485,0.2155 0.2458374,0.2226 0.2677209,0.098 0.012968,-0.073 0.068537,-0.4237 0.123488,-0.7774 0.1707958,-1.0991 0.6455266,-2.3799 1.2129829,-3.2724 l 0.2226401,-0.3502 -0.4632118,-0.031 c -0.7133331,-0.049 -1.1387657,-0.3875 -1.3199461,-1.0503 -0.2477351,-0.9061 0.7252033,-1.8789 1.6313029,-1.6312 0.553773,0.1513 0.9569287,0.5697 1.026322,1.0649 0.061242,0.4371 0.067135,0.4383 0.4447291,0.093 1.3598475,-1.2428 2.9343555,-2.026 4.6671195,-2.3215 0.329676,-0.056 0.613037,-0.1158 0.62969,-0.1326 0.01665,-0.017 -0.07054,-0.1418 -0.193805,-0.2782 -0.626843,-0.6939 -0.438957,-1.7012 0.397623,-2.132 0.294572,-0.1517 0.403008,-0.1749 0.687037,-0.1475 0.455947,0.044 0.857172,0.2883 1.069985,0.6514 0.325068,0.5547 0.266173,1.1442 -0.163035,1.6317 l -0.251869,0.2862 0.536587,0.075 c 1.517536,0.2123 3.055457,0.8526 4.232485,1.7619 0.246468,0.1905 0.458011,0.3463 0.470092,0.3463 0.01208,0 0.03837,-0.1589 0.05842,-0.3531 0.04903,-0.475 0.288817,-0.8712 0.658297,-1.0878 0.940095,-0.5509 2.060785,0.076 2.060785,1.1544 0,0.7698 -0.598207,1.3688 -1.366814,1.3688 -0.158702,0 -0.288549,0.02 -0.288549,0.042 0,0.024 0.16827,0.2881 0.373939,0.5889 0.767191,1.1222 1.319801,2.4772 1.511194,3.7057 0.05667,0.3638 0.115681,0.7299 0.131134,0.8137 l 0.02809,0.1523 0.203422,-0.1929 c 0.304837,-0.2892 0.569596,-0.3983 0.966815,-0.3983 0.400444,0 0.730434,0.1399 1.000016,0.4239 0.689406,0.7264 0.34618,1.941 -0.628584,2.2243 -0.517537,0.1505 -0.959429,0.032 -1.353759,-0.362 -0.110341,-0.1102 -0.207781,-0.19 -0.216534,-0.1769 -0.0087,0.013 -0.0649,0.3213 -0.124781,0.685 -0.183506,1.1147 -0.678945,2.4033 -1.2946,3.3668 -0.117894,0.1846 -0.214353,0.3475 -0.214353,0.3622 0,0.015 0.09415,0.012 0.20922,-0.01 0.706746,-0.1147 1.507682,0.6131 1.509457,1.3716 0.0011,0.4755 -0.35444,1.0255 -0.790991,1.2238 -0.279003,0.1268 -0.821936,0.1576 -1.075639,0.061 -0.434791,-0.1653 -0.870734,-0.7588 -0.870734,-1.1854 l 0,-0.2314 -0.323281,0.2765 c -0.719384,0.6154 -1.341303,1.0306 -2.12793,1.4209 -0.903404,0.4484 -1.601658,0.6724 -2.607778,0.8363 l -0.653206,0.1065 0.231327,0.2312 c 0.649598,0.6498 0.453839,1.742 -0.389953,2.1761 -0.313355,0.1612 -0.892542,0.1585 -1.202653,-0.01 l 0,0 z m 2.407092,-4.1431 c 0.717942,-0.1642 1.436596,-0.4512 2.045917,-0.8174 0.490227,-0.2946 1.246408,-0.8586 1.400873,-1.0447 0.05882,-0.071 -0.30414,-0.4061 -1.880698,-1.7371 -1.07447,-0.9071 -2.01875,-1.7006 -2.098404,-1.7635 -0.133842,-0.1055 -0.159478,-0.1066 -0.338117,-0.014 l -0.193293,0.1 0,2.7367 0,2.7369 0.270588,-0.039 c 0.148824,-0.022 0.505734,-0.092 0.793134,-0.1581 z m -2.59175,-2.638 c 0,-1.5233 -0.02164,-2.7696 -0.04815,-2.7696 -0.02647,0 -0.918703,0.8709 -1.982724,1.9354 l -1.934581,1.9353 0.402557,0.2963 c 0.494344,0.364 1.063783,0.6859 1.598438,0.9038 0.493337,0.201 1.475248,0.461 1.757533,0.4652 l 0.206919,0 0,-2.7697 z m -2.992391,-1.9737 1.941088,-1.9419 -2.785077,0 c -3.1956233,0 -2.8555993,-0.089 -2.6890044,0.7031 0.1218315,0.5791 0.3755592,1.3206 0.6199389,1.8118 0.2549292,0.5123 0.8210655,1.3688 0.9047475,1.3688 0.03699,0 0.940709,-0.8739 2.008307,-1.9418 z m 10.575643,0.6476 c 0.346561,-0.673 0.859923,-2.4444 0.742438,-2.5619 -0.016,-0.016 -1.210535,-0.023 -2.654539,-0.013 l -2.625463,0.017 2.023796,1.7052 2.023797,1.7051 0.149433,-0.2408 c 0.08218,-0.1323 0.235429,-0.4077 0.340538,-0.6118 z m -5.966338,-2.1891 c 0.650561,-0.4573 0.74721,-1.3869 0.206089,-1.9824 -0.395489,-0.4352 -1.174039,-0.5217 -1.68042,-0.1866 -0.287221,0.1901 -0.588477,0.7195 -0.587904,1.033 9.79e-4,0.5301 0.31953,1.034 0.794948,1.2575 0.371577,0.1747 0.920811,0.1221 1.267287,-0.1215 z m -2.923875,-2.0501 c -0.426107,-0.4129 -4.084484,-3.4397 -4.1366413,-3.4226 -0.035029,0.011 -0.1987203,0.2766 -0.3637848,0.5888 -0.4122941,0.7801 -0.6991543,1.7112 -0.8369997,2.7167 l -0.03274,0.2388 2.7478618,0 c 2.706569,0 2.745977,0 2.622298,-0.1217 z m 9.663503,-0.1807 c -0.06096,-0.5766 -0.387531,-1.7257 -0.649737,-2.286 -0.25609,-0.5474 -0.870463,-1.5501 -0.949751,-1.5501 -0.07752,0 -4.019337,3.9803 -4.019337,4.0586 0,0.063 0.600383,0.08 2.825397,0.08 l 2.825399,0 -0.03196,-0.3024 z m -8.356542,-3.7047 0,-2.9884 -0.238754,0.036 c -1.4146,0.2151 -3.203435,1.0903 -4.048705,1.9807 l -0.180881,0.1906 0.562887,0.4777 c 2.409903,2.0453 3.876074,3.2846 3.889534,3.2877 0.0087,0 0.01592,-1.341 0.01592,-2.9846 z m 3.657921,0.8266 c 2.327031,-2.3279 2.174038,-2.0388 1.366238,-2.5808 -0.900716,-0.6043 -2.113622,-1.0682 -3.161875,-1.2091 l -0.334256,-0.045 0,2.9348 c 0,1.614 0.02164,2.9346 0.04813,2.9346 0.02647,0 0.963263,-0.9154 2.081769,-2.0343 z"
       id="path6455"
       inkscape:connector-curvature="0"
       inkscape:export-filename="C:\Users\Fabienne\Desktop\Symbole\png\buddhist.png"
       inkscape:export-xdpi="90"
       inkscape:export-ydpi="90" />
  </g>
</svg>
