<?xml version="1.0" encoding="UTF-8" standalone="no"?>
<!-- Created with Inkscape (http://www.inkscape.org/) -->

<svg
   xmlns:dc="http://purl.org/dc/elements/1.1/"
   xmlns:cc="http://creativecommons.org/ns#"
   xmlns:rdf="http://www.w3.org/1999/02/22-rdf-syntax-ns#"
   xmlns:svg="http://www.w3.org/2000/svg"
   xmlns="http://www.w3.org/2000/svg"
   xmlns:sodipodi="http://sodipodi.sourceforge.net/DTD/sodipodi-0.dtd"
   xmlns:inkscape="http://www.inkscape.org/namespaces/inkscape"
   width="32"
   height="32"
   viewBox="0 0 32 32.000001"
   id="svg4137"
   version="1.1"
   inkscape:version="0.91 r13725"
   sodipodi:docname="bus_stop.svg">
  <defs
     id="defs4139" />
  <sodipodi:namedview
     id="base"
     pagecolor="#ffffff"
     bordercolor="#666666"
     borderopacity="1.0"
     inkscape:pageopacity="0.0"
     inkscape:pageshadow="2"
     inkscape:zoom="22.627417"
     inkscape:cx="18.127413"
     inkscape:cy="13.674881"
     inkscape:document-units="px"
     inkscape:current-layer="layer1"
     showgrid="false"
     units="px"
     inkscape:window-width="1920"
     inkscape:window-height="1138"
     inkscape:window-x="-8"
     inkscape:window-y="-8"
     inkscape:window-maximized="1" />
  <metadata
     id="metadata4142">
    <rdf:RDF>
      <cc:Work
         rdf:about="">
        <dc:format>image/svg+xml</dc:format>
        <dc:type
           rdf:resource="http://purl.org/dc/dcmitype/StillImage" />
        <dc:title></dc:title>
      </cc:Work>
    </rdf:RDF>
  </metadata>
  <g
     inkscape:label="Ebene 1"
     inkscape:groupmode="layer"
     id="layer1"
     transform="translate(0,-1020.3622)">
    <path
       style="opacity:1;fill:#000000;fill-opacity:1;stroke:none;stroke-width:1;stroke-linecap:butt;stroke-linejoin:round;stroke-miterlimit:4;stroke-dasharray:none;stroke-dashoffset:0;stroke-opacity:1"
       d=""
       id="path4711"
       inkscape:connector-curvature="0"
       transform="translate(0,1020.3622)" />
    <path
       style="opacity:1;fill:#000000;fill-opacity:1;stroke:none;stroke-width:1;stroke-linecap:butt;stroke-linejoin:round;stroke-miterlimit:4;stroke-dasharray:none;stroke-dashoffset:0;stroke-opacity:1"
       d=""
       id="path4713"
       inkscape:connector-curvature="0"
       transform="translate(0,1020.3622)" />
    <path
       style="opacity:1;fill:#000000;fill-opacity:1;stroke:none;stroke-width:1;stroke-linecap:butt;stroke-linejoin:round;stroke-miterlimit:4;stroke-dasharray:none;stroke-dashoffset:0;stroke-opacity:1"
       d=""
       id="path4715"
       inkscape:connector-curvature="0"
       transform="translate(0,1020.3622)" />
    <path
       style="opacity:1;fill:#000000;fill-opacity:1;stroke:none;stroke-width:0.6448819;stroke-linecap:butt;stroke-linejoin:round;stroke-miterlimit:4;stroke-dasharray:none;stroke-dashoffset:0;stroke-opacity:1"
       d="m 21.442439,1047.9689 c -0.201335,-0.058 -0.535605,-0.3052 -0.71052,-0.526 -0.215835,-0.2725 -0.263052,-0.5015 -0.293141,-1.4216 l -0.0271,-0.8286 -4.366305,0 -4.366305,0 -0.02237,0.1436 c -0.01231,0.079 -0.02986,0.4619 -0.03901,0.8508 -0.01562,0.6638 -0.02392,0.7214 -0.135822,0.9406 -0.249087,0.4881 -0.6752,0.7698 -1.206626,0.7977 -0.430212,0.023 -0.6998503,-0.072 -1.0060483,-0.3514 -0.4071512,-0.3721 -0.4420864,-0.4868 -0.4596972,-1.5085 l -0.015045,-0.8728 -1.3881201,0 -1.3881201,0 -6.24e-5,-5.3143 -6.25e-5,-5.3144 0.2909445,-1.0386 c 0.6560637,-2.3419 1.508787,-5.0359 1.964051,-6.2051 0.1051438,-0.27 0.2879665,-0.6294 0.4157312,-0.8173 0.674339,-0.9914 2.0651569,-1.6307 4.1924619,-1.9271 1.228022,-0.1711 4.289233,-0.1707 5.816908,7e-4 2.0747,0.2328 3.592955,0.8539 4.365075,1.7856 0.337954,0.4079 0.506851,0.7301 0.743136,1.418 0.300691,0.8754 1.107347,3.5759 1.590001,5.3231 l 0.420806,1.5232 0,3.3534 c 0,1.8444 -0.01318,4.2218 -0.0293,5.2831 l -0.0293,1.9297 -1.223384,0 -1.223384,0 -0.0262,0.8889 c -0.02478,0.8406 -0.03245,0.9016 -0.141391,1.1243 -0.155873,0.3186 -0.535005,0.6607 -0.828909,0.748 -0.253372,0.075 -0.639761,0.082 -0.872898,0.015 z m -10.67935,-6.1669 c 0.221967,-0.1121 0.524281,-0.425 0.630977,-0.6531 0.280084,-0.5988 -0.0037,-1.3565 -0.619805,-1.6547 -0.844814,-0.409 -1.8075664,0.2017 -1.8075664,1.1465 0,0.6656 0.4184379,1.1381 1.0952814,1.237 0.266963,0.039 0.530201,0.011 0.701113,-0.076 z m 11.749969,-0.025 c 0.920732,-0.5396 0.852849,-1.8597 -0.117672,-2.2884 -0.820058,-0.3622 -1.775516,0.2848 -1.766922,1.1965 0.0032,0.3412 0.136213,0.6372 0.401477,0.8937 0.293537,0.2838 0.467283,0.3477 0.901255,0.3314 0.315939,-0.012 0.412413,-0.034 0.581862,-0.1332 z m 1.110266,-7.4989 c 0.08729,-0.097 0.170234,-0.2217 0.184332,-0.2778 0.03656,-0.1457 -1.114058,-4.7018 -1.33282,-5.2776 -0.03858,-0.1015 -0.115102,-0.2268 -0.170057,-0.2784 l -0.09992,-0.094 -6.204025,0.017 c -3.412213,0.01 -6.2599275,0.033 -6.3282531,0.052 -0.068326,0.019 -0.1520046,0.077 -0.1859532,0.1288 -0.1320157,0.2015 -1.3895536,4.8387 -1.422689,5.2463 -0.022525,0.277 -0.0171,0.2989 0.1091758,0.4402 0.1090655,0.122 0.1753828,0.1538 0.3700537,0.1773 0.1304464,0.016 3.5411378,0.032 7.5793138,0.035 l 7.342139,0.01 0.158701,-0.1757 z m -3.101814,-7.304 c 0.206535,-0.089 0.309849,-0.2478 0.335493,-0.5147 0.02313,-0.2408 -0.06399,-0.4546 -0.222028,-0.5449 -0.07824,-0.045 -1.044654,-0.059 -4.612374,-0.069 l -4.513394,-0.012 -0.135863,0.1548 c -0.243777,0.2776 -0.227681,0.6325 0.04035,0.8896 0.133635,0.1281 0.137928,0.1289 0.827619,0.1562 0.381308,0.015 2.363827,0.024 4.405598,0.019 3.281061,-0.01 3.731164,-0.017 3.874602,-0.079 z"
       id="path4747"
       inkscape:connector-curvature="0" />
  </g>
</svg>
