<?xml version="1.0" encoding="UTF-8" standalone="no"?>
<!-- Created with Inkscape (http://www.inkscape.org/) -->

<svg
   xmlns:dc="http://purl.org/dc/elements/1.1/"
   xmlns:cc="http://creativecommons.org/ns#"
   xmlns:rdf="http://www.w3.org/1999/02/22-rdf-syntax-ns#"
   xmlns:svg="http://www.w3.org/2000/svg"
   xmlns="http://www.w3.org/2000/svg"
   xmlns:sodipodi="http://sodipodi.sourceforge.net/DTD/sodipodi-0.dtd"
   xmlns:inkscape="http://www.inkscape.org/namespaces/inkscape"
   width="32"
   height="32"
   viewBox="0 0 32 32.000001"
   id="svg4137"
   version="1.1"
   inkscape:version="0.91 r13725"
   sodipodi:docname="bus_stop_frame.svg">
  <defs
     id="defs4139" />
  <sodipodi:namedview
     id="base"
     pagecolor="#ffffff"
     bordercolor="#666666"
     borderopacity="1.0"
     inkscape:pageopacity="0.0"
     inkscape:pageshadow="2"
     inkscape:zoom="22.627417"
     inkscape:cx="8.470986"
     inkscape:cy="13.674881"
     inkscape:document-units="px"
     inkscape:current-layer="layer1"
     showgrid="false"
     units="px"
     inkscape:window-width="1920"
     inkscape:window-height="1138"
     inkscape:window-x="-8"
     inkscape:window-y="-8"
     inkscape:window-maximized="1" />
  <metadata
     id="metadata4142">
    <rdf:RDF>
      <cc:Work
         rdf:about="">
        <dc:format>image/svg+xml</dc:format>
        <dc:type
           rdf:resource="http://purl.org/dc/dcmitype/StillImage" />
        <dc:title></dc:title>
      </cc:Work>
    </rdf:RDF>
  </metadata>
  <g
     inkscape:label="Ebene 1"
     inkscape:groupmode="layer"
     id="layer1"
     transform="translate(0,-1020.3622)">
    <path
       inkscape:connector-curvature="0"
       id="path4140"
       d="m 3.2224824,1020.3622 25.5550136,0 c 1.723663,0 3.222504,1.424 3.222504,3.2226 l 0,25.5548 c 0,1.7239 -1.498841,3.2226 -3.222504,3.2226 l -25.5550136,0 C 1.4238863,1052.3622 0,1050.8635 0,1049.1396 l 0,-25.5548 c 0,-1.7986 1.4238863,-3.2226 3.2224824,-3.2226 z"
       style="fill:#000000;fill-opacity:1;fill-rule:nonzero;stroke:none" />
    <path
       inkscape:connector-curvature="0"
       id="path4142"
       d="m 27.203716,1022.3106 -22.33253,0 c -1.5737615,0 -2.8477645,1.2742 -2.8477645,2.848 l 0,22.3325 c 0,1.5738 1.274003,2.7726 2.8477645,2.7726 l 22.33253,0 c 1.57378,0 2.847792,-1.1988 2.847792,-2.7726 l 0,-22.3325 c 0,-1.5738 -1.274012,-2.848 -2.847792,-2.848 z"
       style="fill:#ffffff;fill-opacity:1;fill-rule:nonzero;stroke:none" />
    <path
       style="opacity:1;fill:#000000;fill-opacity:1;stroke:none;stroke-width:1;stroke-linecap:butt;stroke-linejoin:round;stroke-miterlimit:4;stroke-dasharray:none;stroke-dashoffset:0;stroke-opacity:1"
       d=""
       id="path4711"
       inkscape:connector-curvature="0"
       transform="translate(0,1020.3622)" />
    <path
       style="opacity:1;fill:#000000;fill-opacity:1;stroke:none;stroke-width:1;stroke-linecap:butt;stroke-linejoin:round;stroke-miterlimit:4;stroke-dasharray:none;stroke-dashoffset:0;stroke-opacity:1"
       d=""
       id="path4713"
       inkscape:connector-curvature="0"
       transform="translate(0,1020.3622)" />
    <path
       style="opacity:1;fill:#000000;fill-opacity:1;stroke:none;stroke-width:1;stroke-linecap:butt;stroke-linejoin:round;stroke-miterlimit:4;stroke-dasharray:none;stroke-dashoffset:0;stroke-opacity:1"
       d=""
       id="path4715"
       inkscape:connector-curvature="0"
       transform="translate(0,1020.3622)" />
    <path
       style="opacity:1;fill:#000000;fill-opacity:1;stroke:none;stroke-width:0.6448819;stroke-linecap:butt;stroke-linejoin:round;stroke-miterlimit:4;stroke-dasharray:none;stroke-dashoffset:0;stroke-opacity:1"
       d="m 21.19504,1047.0436 c -0.188876,-0.054 -0.50246,-0.2863 -0.666551,-0.4934 -0.202479,-0.2556 -0.246774,-0.4705 -0.275001,-1.3336 l -0.02542,-0.7774 -4.096104,0 -4.096105,0 -0.02099,0.1348 c -0.01155,0.074 -0.02801,0.4333 -0.0366,0.7981 -0.01465,0.6227 -0.02244,0.6768 -0.127417,0.8824 -0.233672,0.4579 -0.633416,0.7222 -1.131956,0.7483 -0.403589,0.022 -0.656541,-0.068 -0.943791,-0.3296 -0.3819554,-0.3491 -0.4147287,-0.4567 -0.4312497,-1.4152 l -0.014114,-0.8188 -1.3022189,0 -1.302219,0 -5.86e-5,-4.9854 -5.86e-5,-4.9855 0.27294,-0.9743 c 0.6154644,-2.197 1.4154186,-4.7243 1.8425095,-5.8212 0.098637,-0.2532 0.2701462,-0.5904 0.3900045,-0.7667 0.6326088,-0.93 1.9373588,-1.5298 3.9330198,-1.8078 1.152028,-0.1605 4.023802,-0.1602 5.45694,6e-4 1.946311,0.2184 3.370612,0.8011 4.094951,1.6751 0.31704,0.3827 0.475485,0.685 0.697148,1.3303 0.282083,0.8212 1.038821,3.3546 1.491607,4.9937 l 0.394765,1.4289 0,3.1459 c 0,1.7303 -0.01236,3.9605 -0.02749,4.9562 l -0.02749,1.8102 -1.147678,0 -1.147677,0 -0.02458,0.8339 c -0.02325,0.7886 -0.03044,0.8458 -0.132641,1.0548 -0.146227,0.2988 -0.501897,0.6198 -0.777613,0.7017 -0.237693,0.07 -0.600171,0.077 -0.818881,0.014 z m -10.018479,-5.7852 c 0.208231,-0.1052 0.491836,-0.3987 0.59193,-0.6127 0.262751,-0.5618 -0.0035,-1.2726 -0.58145,-1.5523 -0.792534,-0.3837 -1.6957086,0.1892 -1.6957086,1.0755 0,0.6244 0.3925437,1.0677 1.0275016,1.1605 0.250443,0.037 0.497391,0.01 0.657727,-0.071 z m 11.022845,-0.024 c 0.863754,-0.5062 0.800072,-1.7446 -0.11039,-2.1468 -0.769311,-0.3398 -1.665642,0.2672 -1.65758,1.1225 0.003,0.3201 0.127784,0.5978 0.376632,0.8384 0.275372,0.2662 0.438367,0.3262 0.845483,0.3109 0.296388,-0.011 0.386892,-0.032 0.545855,-0.125 z m 1.041559,-7.0348 c 0.08189,-0.091 0.159699,-0.208 0.172925,-0.2606 0.0343,-0.1367 -1.045117,-4.4109 -1.250341,-4.951 -0.03619,-0.095 -0.107979,-0.2128 -0.159533,-0.2612 l -0.09374,-0.088 -5.820101,0.016 c -3.201055,0.01 -5.872544,0.031 -5.936642,0.049 -0.0641,0.018 -0.142598,0.072 -0.1744456,0.1209 -0.1238461,0.189 -1.3035637,4.5392 -1.3346486,4.9216 -0.021131,0.2599 -0.016042,0.2804 0.1024196,0.413 0.1023162,0.1144 0.1645296,0.1442 0.3471537,0.1663 0.122374,0.015 3.3220019,0.03 7.1102829,0.033 l 6.887785,0.01 0.14888,-0.1648 z m -2.909864,-6.852 c 0.193754,-0.083 0.290674,-0.2325 0.314731,-0.4829 0.0217,-0.2259 -0.06003,-0.4265 -0.208288,-0.5112 -0.0734,-0.042 -0.980007,-0.055 -4.326946,-0.065 l -4.234091,-0.011 -0.127456,0.1453 c -0.228691,0.2604 -0.213591,0.5933 0.03785,0.8345 0.125365,0.1202 0.129393,0.1209 0.776404,0.1466 0.357711,0.014 2.217546,0.023 4.132966,0.018 3.078019,-0.01 3.500268,-0.016 3.634829,-0.074 z"
       id="path4747"
       inkscape:connector-curvature="0" />
  </g>
</svg>
