<?xml version="1.0" encoding="UTF-8" standalone="no"?>
<!-- Created with Inkscape (http://www.inkscape.org/) -->

<svg
   xmlns:dc="http://purl.org/dc/elements/1.1/"
   xmlns:cc="http://creativecommons.org/ns#"
   xmlns:rdf="http://www.w3.org/1999/02/22-rdf-syntax-ns#"
   xmlns:svg="http://www.w3.org/2000/svg"
   xmlns="http://www.w3.org/2000/svg"
   xmlns:sodipodi="http://sodipodi.sourceforge.net/DTD/sodipodi-0.dtd"
   xmlns:inkscape="http://www.inkscape.org/namespaces/inkscape"
   width="32"
   height="32"
   viewBox="0 0 32 32.000001"
   id="svg4141"
   version="1.1"
   inkscape:version="0.91 r13725"
   sodipodi:docname="cafe_frame_color.svg">
  <defs
     id="defs4143" />
  <sodipodi:namedview
     id="base"
     pagecolor="#ffffff"
     bordercolor="#666666"
     borderopacity="1.0"
     inkscape:pageopacity="0.0"
     inkscape:pageshadow="2"
     inkscape:zoom="11.2"
     inkscape:cx="-20.401921"
     inkscape:cy="6.0795777"
     inkscape:document-units="px"
     inkscape:current-layer="layer1"
     showgrid="false"
     units="px"
     inkscape:window-width="1920"
     inkscape:window-height="1138"
     inkscape:window-x="-8"
     inkscape:window-y="-8"
     inkscape:window-maximized="1" />
  <metadata
     id="metadata4146">
    <rdf:RDF>
      <cc:Work
         rdf:about="">
        <dc:format>image/svg+xml</dc:format>
        <dc:type
           rdf:resource="http://purl.org/dc/dcmitype/StillImage" />
        <dc:title></dc:title>
      </cc:Work>
    </rdf:RDF>
  </metadata>
  <g
     inkscape:label="Ebene 1"
     inkscape:groupmode="layer"
     id="layer1"
     transform="translate(0,-1020.3622)">
    <path
       inkscape:connector-curvature="0"
       id="path4140"
       d="m 3.2224824,1020.3622 25.5550136,0 c 1.723663,0 3.222504,1.424 3.222504,3.2226 l 0,25.5548 c 0,1.7239 -1.498841,3.2226 -3.222504,3.2226 l -25.5550136,0 C 1.4238863,1052.3622 0,1050.8635 0,1049.1396 l 0,-25.5548 c 0,-1.7986 1.4238863,-3.2226 3.2224824,-3.2226 z"
       style="fill:#2ca089;fill-opacity:1;fill-rule:nonzero;stroke:none" />
    <path
       inkscape:connector-curvature="0"
       id="path4142"
       d="m 27.203716,1022.3106 -22.33253,0 c -1.5737615,0 -2.8477645,1.2742 -2.8477645,2.848 l 0,22.3325 c 0,1.5738 1.274003,2.7726 2.8477645,2.7726 l 22.33253,0 c 1.57378,0 2.847792,-1.1988 2.847792,-2.7726 l 0,-22.3325 c 0,-1.5738 -1.274012,-2.848 -2.847792,-2.848 z"
       style="fill:#ffffff;fill-opacity:1;fill-rule:nonzero;stroke:none" />
    <path
       style="opacity:1;fill:#2ca089;fill-opacity:1;stroke:none;stroke-width:25;stroke-linecap:butt;stroke-linejoin:round;stroke-miterlimit:4;stroke-dasharray:none;stroke-dashoffset:0;stroke-opacity:1"
       d="m 11.852027,1041.4379 c -1.483337,-0.2933 -2.779038,-0.9004 -3.638953,-1.7048 -0.400283,-0.3743 -0.9132031,-1.1275 -1.0605006,-1.5571 -0.060166,-0.1754 -0.1049722,-1.8721 -0.1413262,-5.3518 l -0.05323,-5.095 6.9680998,0 6.9681,0 0,0.6861 c 0,0.4607 0.03227,0.7129 0.09825,0.7676 0.06096,0.05 0.80225,0.091 1.953319,0.1061 l 1.855072,0.024 0.540263,0.3212 c 0.671918,0.3994 1.29377,1.0476 1.563909,1.6301 0.199497,0.4302 0.206123,0.4895 0.204703,1.8356 -0.0015,1.3589 -0.0063,1.4005 -0.210068,1.7938 -0.275298,0.5314 -1.032808,1.3326 -1.498316,1.5851 -0.496308,0.269 -0.645706,0.291 -2.692824,0.3954 l -1.760791,0.09 -0.181823,0.6855 c -0.233926,0.8821 -0.393018,1.2311 -0.787069,1.7268 -0.709058,0.892 -2.031175,1.6121 -3.528433,1.9218 -0.537839,0.1112 -4.182035,0.2216 -4.598379,0.1392 z m 12.907149,-6.6574 c 0.49429,-0.5572 0.64811,-0.9642 0.64945,-1.7187 0.0017,-0.9337 -0.316134,-1.5984 -0.912547,-1.9085 -0.239067,-0.1244 -1.647703,-0.2476 -2.886989,-0.2527 l -0.714873,0 0,1.9759 c 0,1.2669 0.02994,2.0317 0.08346,2.1318 0.08049,0.1503 0.143942,0.155 1.786463,0.13 l 1.703006,-0.026 0.292032,-0.3294 z"
       id="path4707"
       inkscape:connector-curvature="0" />
    <path
       style="opacity:1;fill:#2ca089;fill-opacity:1;stroke:none;stroke-width:25;stroke-linecap:butt;stroke-linejoin:round;stroke-miterlimit:4;stroke-dasharray:none;stroke-dashoffset:0;stroke-opacity:1"
       d="m 7.241914,1045.9674 c -0.8462125,-0.5529 -1.8005849,-1.7424 -1.8036775,-2.2481 -0.00122,-0.1978 1.0677868,-0.2235 9.3312485,-0.2239 l 7.593122,-3e-4 0,0.1954 c 0,0.1075 -0.101357,0.3962 -0.225236,0.6416 -0.375177,0.7432 -0.774079,1.1761 -1.454412,1.578 l -0.621185,0.3672 -6.172856,0 -6.1728573,0 -0.4741467,-0.3099 z"
       id="path4709"
       inkscape:connector-curvature="0" />
  </g>
</svg>
