<?xml version="1.0" encoding="UTF-8" standalone="no"?>
<!-- Created with Inkscape (http://www.inkscape.org/) -->

<svg
   xmlns:dc="http://purl.org/dc/elements/1.1/"
   xmlns:cc="http://creativecommons.org/ns#"
   xmlns:rdf="http://www.w3.org/1999/02/22-rdf-syntax-ns#"
   xmlns:svg="http://www.w3.org/2000/svg"
   xmlns="http://www.w3.org/2000/svg"
   xmlns:sodipodi="http://sodipodi.sourceforge.net/DTD/sodipodi-0.dtd"
   xmlns:inkscape="http://www.inkscape.org/namespaces/inkscape"
   width="32"
   height="32"
   viewBox="0 0 32 32.000001"
   id="svg4137"
   version="1.1"
   inkscape:version="0.91 r13725"
   sodipodi:docname="car_frame.svg">
  <defs
     id="defs4139" />
  <sodipodi:namedview
     id="base"
     pagecolor="#ffffff"
     bordercolor="#666666"
     borderopacity="1.0"
     inkscape:pageopacity="0.0"
     inkscape:pageshadow="2"
     inkscape:zoom="11.2"
     inkscape:cx="-3.3338936"
     inkscape:cy="16.841734"
     inkscape:document-units="px"
     inkscape:current-layer="layer1"
     showgrid="false"
     units="px"
     inkscape:window-width="1920"
     inkscape:window-height="1138"
     inkscape:window-x="-8"
     inkscape:window-y="-8"
     inkscape:window-maximized="1" />
  <metadata
     id="metadata4142">
    <rdf:RDF>
      <cc:Work
         rdf:about="">
        <dc:format>image/svg+xml</dc:format>
        <dc:type
           rdf:resource="http://purl.org/dc/dcmitype/StillImage" />
        <dc:title></dc:title>
      </cc:Work>
    </rdf:RDF>
  </metadata>
  <g
     inkscape:label="Ebene 1"
     inkscape:groupmode="layer"
     id="layer1"
     transform="translate(0,-1020.3622)">
    <path
       inkscape:connector-curvature="0"
       id="path4140"
       d="m 3.2224824,1020.3622 25.5550136,0 c 1.723663,0 3.222504,1.424 3.222504,3.2226 l 0,25.5548 c 0,1.7239 -1.498841,3.2226 -3.222504,3.2226 l -25.5550136,0 C 1.4238863,1052.3622 0,1050.8635 0,1049.1396 l 0,-25.5548 c 0,-1.7986 1.4238863,-3.2226 3.2224824,-3.2226 z"
       style="fill:#000000;fill-opacity:1;fill-rule:nonzero;stroke:none" />
    <path
       inkscape:connector-curvature="0"
       id="path4142"
       d="m 27.203716,1022.3106 -22.33253,0 c -1.5737615,0 -2.8477645,1.2742 -2.8477645,2.848 l 0,22.3325 c 0,1.5738 1.274003,2.7726 2.8477645,2.7726 l 22.33253,0 c 1.57378,0 2.847792,-1.1988 2.847792,-2.7726 l 0,-22.3325 c 0,-1.5738 -1.274012,-2.848 -2.847792,-2.848 z"
       style="fill:#ffffff;fill-opacity:1;fill-rule:nonzero;stroke:none" />
    <path
       style="opacity:1;fill:#000000;fill-opacity:1;stroke:none;stroke-width:25;stroke-linecap:butt;stroke-linejoin:round;stroke-miterlimit:4;stroke-dasharray:none;stroke-dashoffset:0;stroke-opacity:1"
       d="m 6.441562,1043.7443 -0.00531,-1.6154 -0.4698048,-0.3425 c -0.5959396,-0.4344 -0.9370946,-0.9329 -1.0015139,-1.4633 -0.026623,-0.2192 -0.037609,-1.6472 -0.024413,-3.1733 l 0.023994,-2.7748 0.2061449,-0.3505 c 0.2380353,-0.405 0.6115927,-0.7537 1.0692761,-0.9982 l 0.3209644,-0.1716 9.3882663,0 9.388265,0 0.354891,0.1749 c 0.409491,0.2017 0.893518,0.6969 1.125329,1.1512 0.156806,0.3074 0.16016,0.3882 0.138433,3.3334 l -0.02226,3.0184 -0.204168,0.3869 c -0.226791,0.4299 -0.595675,0.7876 -1.052247,1.0204 l -0.301961,0.1542 0,1.6328 0,1.6329 -1.520367,0 -1.520366,0 0,-1.5965 0,-1.5963 -6.385541,0 -6.3855416,0 0,1.5963 0,1.5965 -1.558376,0 -1.5583761,0 -0.00531,-1.6155 z m 2.877444,-5.7244 c 0.5385408,-0.2249 0.929144,-0.7254 0.928359,-1.1894 -0.0012,-0.6867 -0.3099363,-1.163 -0.925519,-1.4278 -1.1283131,-0.4853 -1.9882061,0.078 -1.980571,1.2976 0.00601,0.96 0.4206284,1.4377 1.247794,1.4377 0.2460203,0 0.5744921,-0.053 0.729937,-0.1181 z m 14.568862,-0.1192 c 0.608213,-0.4328 0.779354,-0.9333 0.573081,-1.6759 -0.170629,-0.6144 -0.952674,-1.034 -1.838529,-0.9866 -0.258073,0.013 -0.733113,0.423 -0.869175,0.7487 -0.286994,0.6868 -0.02099,1.751 0.505443,2.0221 0.408202,0.2101 1.261339,0.1534 1.62918,-0.1083 z"
       id="path4703"
       inkscape:connector-curvature="0" />
    <path
       style="opacity:1;fill:#000000;fill-opacity:1;stroke:none;stroke-width:25;stroke-linecap:butt;stroke-linejoin:round;stroke-miterlimit:4;stroke-dasharray:none;stroke-dashoffset:0;stroke-opacity:1"
       d="m 8.072508,1030.307 c 0.049612,-2.1308 0.063773,-2.3003 0.2143361,-2.5656 0.2577855,-0.4542 0.6733393,-0.8504 1.14158,-1.0888 l 0.4349377,-0.2214 2.6438052,0.01 c 1.454093,0.01 4.268698,0.03 6.254677,0.057 l 3.610871,0.048 0.347963,0.2417 c 0.408015,0.2834 0.702799,0.6488 0.920596,1.1412 0.142428,0.322 0.160228,0.5493 0.196374,2.5074 l 0.03975,2.1532 -1.139476,0 -1.139477,0 -0.047,-1.3555 c -0.02586,-0.7456 -0.08483,-1.4554 -0.131057,-1.5774 -0.110457,-0.2915 -0.344482,-0.5363 -0.728868,-0.7625 l -0.312859,-0.184 -4.286251,-0.018 c -4.693291,-0.02 -4.71031,-0.018 -5.210791,0.4214 -0.438495,0.385 -0.496289,0.6123 -0.54035,2.1264 l -0.03927,1.3493 -1.1413096,0 -1.1413098,0 0.053121,-2.2816 z"
       id="path4705"
       inkscape:connector-curvature="0" />
  </g>
</svg>
