<?xml version="1.0" encoding="UTF-8" standalone="no"?>
<!-- Created with Inkscape (http://www.inkscape.org/) -->

<svg
   xmlns:dc="http://purl.org/dc/elements/1.1/"
   xmlns:cc="http://creativecommons.org/ns#"
   xmlns:rdf="http://www.w3.org/1999/02/22-rdf-syntax-ns#"
   xmlns:svg="http://www.w3.org/2000/svg"
   xmlns="http://www.w3.org/2000/svg"
   xmlns:sodipodi="http://sodipodi.sourceforge.net/DTD/sodipodi-0.dtd"
   xmlns:inkscape="http://www.inkscape.org/namespaces/inkscape"
   width="32"
   height="32"
   viewBox="0 0 32 32.000001"
   id="svg4137"
   version="1.1"
   inkscape:version="0.91 r13725"
   sodipodi:docname="caravan_site.svg">
  <defs
     id="defs4139" />
  <sodipodi:namedview
     id="base"
     pagecolor="#ffffff"
     bordercolor="#666666"
     borderopacity="1.0"
     inkscape:pageopacity="0.0"
     inkscape:pageshadow="2"
     inkscape:zoom="22.627417"
     inkscape:cx="8.470986"
     inkscape:cy="13.674881"
     inkscape:document-units="px"
     inkscape:current-layer="layer1"
     showgrid="false"
     units="px"
     inkscape:window-width="1920"
     inkscape:window-height="1138"
     inkscape:window-x="-8"
     inkscape:window-y="-8"
     inkscape:window-maximized="1" />
  <metadata
     id="metadata4142">
    <rdf:RDF>
      <cc:Work
         rdf:about="">
        <dc:format>image/svg+xml</dc:format>
        <dc:type
           rdf:resource="http://purl.org/dc/dcmitype/StillImage" />
        <dc:title></dc:title>
      </cc:Work>
    </rdf:RDF>
  </metadata>
  <g
     inkscape:label="Ebene 1"
     inkscape:groupmode="layer"
     id="layer1"
     transform="translate(0,-1020.3622)">
    <path
       style="opacity:1;fill:#000000;fill-opacity:1;stroke:none;stroke-width:1;stroke-linecap:butt;stroke-linejoin:round;stroke-miterlimit:4;stroke-dasharray:none;stroke-dashoffset:0;stroke-opacity:1"
       d=""
       id="path4711"
       inkscape:connector-curvature="0"
       transform="translate(0,1020.3622)" />
    <path
       style="opacity:1;fill:#000000;fill-opacity:1;stroke:none;stroke-width:1;stroke-linecap:butt;stroke-linejoin:round;stroke-miterlimit:4;stroke-dasharray:none;stroke-dashoffset:0;stroke-opacity:1"
       d=""
       id="path4713"
       inkscape:connector-curvature="0"
       transform="translate(0,1020.3622)" />
    <path
       style="opacity:1;fill:#000000;fill-opacity:1;stroke:none;stroke-width:1;stroke-linecap:butt;stroke-linejoin:round;stroke-miterlimit:4;stroke-dasharray:none;stroke-dashoffset:0;stroke-opacity:1"
       d=""
       id="path4715"
       inkscape:connector-curvature="0"
       transform="translate(0,1020.3622)" />
    <path
       style="opacity:1;fill:#000000;fill-opacity:1;stroke:none;stroke-width:32.14125061;stroke-linecap:butt;stroke-linejoin:round;stroke-miterlimit:4;stroke-dasharray:none;stroke-opacity:1"
       d="m 5.7310846,1042.2775 c -1.0077062,-0.2678 -1.8381378,-1.1185 -2.1001155,-2.1513 -0.1149948,-0.4533 -0.1311756,-1.0994 -0.1094261,-4.368 l 0.025519,-3.8361 0.2278579,-0.486 c 0.304725,-0.6501 0.841644,-1.2145 1.430158,-1.5035 l 0.4831846,-0.2373 8.8067608,-0.023 c 5.621227,-0.015 8.920611,0.01 9.121512,0.062 0.527922,0.1423 1.233324,0.6231 1.576433,1.0745 0.574916,0.7564 0.572969,0.7372 0.589754,5.8311 l 0.01507,4.5752 1.336415,0 c 0.79953,0 1.455652,0.046 1.633218,0.107 0.33159,0.1141 0.688149,0.5731 0.688149,0.8857 l 0,0.2014 -6.273716,-8e-4 -6.273715,-8e-4 -0.01615,-0.5619 c -0.0372,-1.2943 -0.952448,-2.4087 -2.250733,-2.7403 -1.318567,-0.3369 -2.783445,0.3164 -3.388941,1.5112 -0.221929,0.438 -0.382543,1.2391 -0.317074,1.5816 l 0.04034,0.211 -2.3867168,-0.01 c -1.8072053,0 -2.5010935,-0.036 -2.8577805,-0.1309 z m 8.4333904,-7.094 c 0.477979,-0.1997 0.55965,-0.47 0.55965,-1.8525 l 0,-1.2119 -0.291203,-0.2912 -0.291204,-0.2912 -3.699992,0 -3.6999954,0 -0.2912023,0.2912 -0.2912035,0.2912 0,1.2561 c 0,0.7239 0.038614,1.3282 0.091116,1.4264 0.050113,0.094 0.2139143,0.2451 0.3640038,0.3366 0.2584084,0.1575 0.458255,0.1664 3.7657974,0.1667 2.825553,3e-4 3.548567,-0.023 3.784235,-0.1215 z m 8.249404,-0.098 c 0.369214,-0.2586 0.446806,-0.5549 0.446806,-1.7063 0,-1.9271 -0.02933,-1.9481 -2.666913,-1.9118 l -1.8868,0.026 -0.249759,0.2798 -0.24976,0.2797 0,1.2919 0,1.2919 0.291202,0.2912 0.291204,0.2912 1.916588,0 c 1.598147,0 1.948297,-0.022 2.107432,-0.1336 z"
       id="path5904"
       inkscape:connector-curvature="0" />
    <path
       style="opacity:1;fill:#000000;fill-opacity:1;stroke:none;stroke-width:32.14125061;stroke-linecap:butt;stroke-linejoin:round;stroke-miterlimit:4;stroke-dasharray:none;stroke-opacity:1"
       d="m 13.050674,1044.0517 c -0.435755,-0.1979 -1.006101,-0.8388 -1.137857,-1.2785 -0.365293,-1.2193 0.330387,-2.4704 1.534247,-2.7592 1.717876,-0.4121 3.187623,1.3649 2.446045,2.9573 -0.217561,0.4672 -0.694754,0.9381 -1.138591,1.1236 -0.40432,0.1689 -1.28613,0.1466 -1.703844,-0.043 z m 1.375534,-1.0876 c 0.80863,-0.3837 0.66926,-1.5797 -0.21496,-1.8446 -0.866091,-0.2595 -1.601818,0.7985 -1.061409,1.5264 0.334672,0.4507 0.768946,0.559 1.276369,0.3182 z"
       id="path5906"
       inkscape:connector-curvature="0" />
  </g>
</svg>
