<?xml version="1.0" encoding="UTF-8" standalone="no"?>
<!-- Created with Inkscape (http://www.inkscape.org/) -->

<svg
   xmlns:dc="http://purl.org/dc/elements/1.1/"
   xmlns:cc="http://creativecommons.org/ns#"
   xmlns:rdf="http://www.w3.org/1999/02/22-rdf-syntax-ns#"
   xmlns:svg="http://www.w3.org/2000/svg"
   xmlns="http://www.w3.org/2000/svg"
   xmlns:sodipodi="http://sodipodi.sourceforge.net/DTD/sodipodi-0.dtd"
   xmlns:inkscape="http://www.inkscape.org/namespaces/inkscape"
   width="32"
   height="32"
   viewBox="0 0 25.6 25.6"
   id="svg10817"
   version="1.1"
   inkscape:version="0.91 r13725"
   sodipodi:docname="cave_entrance.svg"
   inkscape:export-filename="C:\Users\Fabienne\Desktop\fehlende_symbole\einfach\png\cave_entrance.png"
   inkscape:export-xdpi="90"
   inkscape:export-ydpi="90">
  <defs
     id="defs10819" />
  <sodipodi:namedview
     pagecolor="#ffffff"
     bordercolor="#666666"
     borderopacity="1.0"
     inkscape:pageopacity="0.0"
     inkscape:pageshadow="2"
     inkscape:zoom="9.0509668"
     inkscape:cx="-14.014945"
     inkscape:cy="9.813298"
     inkscape:document-units="pt"
     inkscape:current-layer="layer1"
     id="namedview10821"
     showgrid="false"
     showguides="false"
     inkscape:window-width="1399"
     inkscape:window-height="980"
     inkscape:window-x="2"
     inkscape:window-y="2"
     inkscape:window-maximized="0"
     units="px" />
  <metadata
     id="metadata10823">
    <rdf:RDF>
      <cc:Work
         rdf:about="">
        <dc:format>image/svg+xml</dc:format>
        <dc:type
           rdf:resource="http://purl.org/dc/dcmitype/StillImage" />
        <dc:title></dc:title>
      </cc:Work>
    </rdf:RDF>
  </metadata>
  <g
     inkscape:label="Layer 1"
     inkscape:groupmode="layer"
     id="layer1"
     transform="translate(0,-314.4)">
    <path
       style="fill:#ffffff;fill-opacity:1;stroke:#ffffff;stroke-width:0.31628457;stroke-miterlimit:4;stroke-dasharray:none;stroke-opacity:1"
       d="m 4.146005,339.81785 c -2.0706919,-0.27127 -3.72278843,-1.95742 -3.96083243,-4.04246 -0.023834,-0.20875 -0.031787,-3.08032 -0.024331,-8.7822 l 0.011084,-8.47203 0.073986,-0.30745 c 0.1551085,-0.64458 0.3567665,-1.11536 0.6938095,-1.61975 0.68750333,-1.02884 1.80273453,-1.75009 3.05279423,-1.97432 0.3219405,-0.0577 0.8197848,-0.0612 8.8219397,-0.0612 9.47455,0 8.705664,-0.0194 9.475611,0.23851 0.693406,0.23223 1.235641,0.56149 1.755059,1.06573 0.548167,0.53215 0.941482,1.15656 1.170437,1.85817 0.242202,0.74219 0.226171,0.0701 0.226018,9.47479 -1.38e-4,9.11542 0.0074,8.70171 -0.170012,9.33755 -0.185939,0.66645 -0.620474,1.40984 -1.1224,1.92018 -0.654558,0.66553 -1.422031,1.0892 -2.393247,1.32116 -0.242053,0.0578 -0.721295,0.0614 -8.822019,0.0668 -4.7113357,0.003 -8.6658875,-0.007 -8.7878944,-0.0234 z m 17.415043,-0.38961 c 1.721922,-0.30057 3.043796,-1.57322 3.442145,-3.31395 l 0.07818,-0.34162 0.01147,-8.30122 c 0.01167,-8.44877 0.0081,-8.73449 -0.114186,-9.26248 -0.18561,-0.80113 -0.614429,-1.54476 -1.223692,-2.12205 -0.590824,-0.55981 -1.251436,-0.90196 -2.103222,-1.0893 -0.276582,-0.0608 -0.635498,-0.0634 -8.837289,-0.0634 -8.0746896,0 -8.5656142,0.003 -8.8484665,0.061 -1.5321303,0.31231 -2.7495208,1.38148 -3.22989203,2.83663 -0.2207304,0.66864 -0.2076286,0.0765 -0.2076286,9.38336 0,9.31034 -0.013191,8.71447 0.2075181,9.37389 0.48726133,1.45582 1.76187543,2.56441 3.25976043,2.83517 0.4153613,0.0751 17.1362596,0.0788 17.5653046,0.004 z"
       id="path4153"
       inkscape:connector-curvature="0" />
    <path
       style="fill:#ffffff;fill-opacity:1;stroke:#ffffff;stroke-width:0.31999999;stroke-miterlimit:4;stroke-dasharray:none;stroke-opacity:1"
       d="m 7.1775859,339.28849 c -3.1337578,-0.0217 -3.1858053,-0.0231 -3.4511647,-0.0977 -0.6997148,-0.19671 -1.3106441,-0.55592 -1.8260677,-1.07367 -0.5090064,-0.5113 -0.7934672,-0.97262 -1.02284243,-1.65877 l -0.1230663,-0.36814 -0.032959,-1.23024 c -0.046476,-1.73478 -0.014851,-16.02573 0.036289,-16.39852 0.07334,-0.53463 0.36392083,-1.21138 0.73288543,-1.70686 0.5559462,-0.74658 1.2762637,-1.24103 2.2112183,-1.51785 l 0.2939653,-0.087 2.0750492,-0.0252 c 2.6980059,-0.0327 10.949881,-0.0327 13.539697,-8e-5 l 2.023172,0.0255 0.311257,0.0947 c 1.426442,0.4338 2.478511,1.51697 2.842259,2.92627 0.07951,0.30807 0.08768,0.42155 0.119662,1.66343 0.02132,0.8277 0.02602,4.10758 0.01242,8.65457 l -0.02191,7.32177 -0.08232,0.33147 c -0.371083,1.49424 -1.447883,2.62358 -2.888605,3.02954 l -0.327338,0.0922 -3.233618,0.027 c -3.637125,0.0304 -6.535441,0.0297 -11.1879739,-0.002 l 0,0 z"
       id="path4745"
       inkscape:connector-curvature="0" />
    <path
       style="fill:#000000;fill-opacity:1;stroke:none;stroke-width:5;stroke-linecap:round;stroke-linejoin:miter;stroke-miterlimit:4;stroke-dasharray:none;stroke-opacity:1"
       d="m 12.779033,332.43392 -9.469092,-0.008 0.00982,-0.30387 c 0.00538,-0.16714 0.015077,-0.55195 0.021467,-0.85515 0.013277,-0.62491 0.058972,-1.04627 0.1886439,-1.73866 0.6959855,-3.71629 3.1210018,-6.75364 6.3370361,-7.9372 0.919266,-0.3383 1.731362,-0.49252 2.742506,-0.52084 2.293892,-0.0643 4.494831,0.80118 6.266105,2.46383 2.012247,1.88887 3.209001,4.54742 3.385505,7.52083 0.03146,0.5298 0.03586,1.40252 0.0071,1.39238 -0.011,-0.005 -4.281063,-0.01 -9.489065,-0.0142 z m 8.161559,-1.56901 c -0.02749,-0.31636 -0.118742,-0.96237 -0.172742,-1.22272 -0.06958,-0.3354 -0.161271,-0.69779 -0.173334,-0.68497 -0.0053,0.006 -0.06427,0.29512 -0.13109,0.64335 -0.06681,0.34822 -0.126346,0.63831 -0.132293,0.64462 -0.02569,0.0272 -0.03868,-0.18744 -0.07749,-1.28162 l -0.04114,-1.15921 -0.07349,-0.17658 c -0.04042,-0.0972 -0.081,-0.17657 -0.09015,-0.17657 -0.0093,0 -0.0619,0.24172 -0.11721,0.53714 -0.0553,0.29542 -0.108044,0.53715 -0.1172,0.53715 -0.0092,0 -0.06305,-0.34032 -0.119774,-0.75626 -0.192075,-1.40853 -0.178398,-1.34038 -0.310352,-1.54697 -0.06435,-0.10078 -0.124872,-0.17398 -0.134492,-0.16269 -0.0096,0.0113 -0.06825,0.26857 -0.130282,0.57178 -0.06203,0.3032 -0.12146,0.56133 -0.13205,0.57364 -0.02161,0.0251 -0.05434,-0.73901 -0.05434,-1.26922 0,-0.32652 -0.0038,-0.35205 -0.06434,-0.42662 l -0.06434,-0.0793 -0.01526,0.0707 c -0.0084,0.0389 -0.08805,0.63682 -0.177041,1.32874 -0.161949,1.25921 -0.17533,1.34835 -0.19875,1.32348 -0.0069,-0.008 -0.07808,-0.79472 -0.158178,-1.74976 l -0.145621,-1.73643 -0.126806,-0.12026 c -0.150122,-0.14236 -0.117878,-0.19702 -0.288565,0.48923 -0.126288,0.50774 -0.136368,0.54118 -0.156435,0.51918 -0.0059,-0.007 -0.06808,-0.37144 -0.138141,-0.811 l -0.127393,-0.79925 -0.08153,-0.0551 -0.08152,-0.0552 -0.01911,0.1193 c -0.01052,0.0657 -0.057,0.58365 -0.103282,1.15119 -0.04629,0.56753 -0.08862,1.03719 -0.09405,1.04365 -0.0055,0.007 -0.01434,0.007 -0.01983,0 -0.0055,-0.007 -0.03625,-0.53973 -0.06843,-1.185 -0.03218,-0.64528 -0.06686,-1.22332 -0.07708,-1.28452 -0.01712,-0.10232 -0.03359,-0.11993 -0.204479,-0.21865 -0.102237,-0.0591 -0.193727,-0.1076 -0.203319,-0.10782 -0.0096,-2.4e-4 -0.105273,0.17203 -0.212619,0.38281 -0.14758,0.28976 -0.199793,0.37077 -0.214075,0.33216 -0.01037,-0.0282 -0.04395,-0.22916 -0.07465,-0.44684 -0.08327,-0.59103 -0.06869,-0.54801 -0.207081,-0.61098 -0.0669,-0.0305 -0.13065,-0.0453 -0.141657,-0.0332 -0.011,0.0122 -0.07667,0.32753 -0.145935,0.70071 -0.06926,0.37317 -0.134701,0.68903 -0.145422,0.70189 -0.01953,0.0235 -0.03208,-0.0714 -0.14156,-1.06774 l -0.05884,-0.53549 -0.132469,-0.0365 c -0.07285,-0.02 -0.144447,-0.0366 -0.159089,-0.0368 -0.01463,-1.6e-4 -0.06735,0.1427 -0.117117,0.31751 -0.11106,0.39009 -0.133791,0.45663 -0.15006,0.43936 -0.0071,-0.008 -0.03068,-0.16504 -0.05257,-0.35024 -0.06411,-0.54188 -0.05827,-0.52048 -0.142179,-0.52048 l -0.07344,0 -0.139848,1.18032 c -0.156947,1.32464 -0.163645,1.37334 -0.185678,1.34994 -0.0087,-0.009 -0.03421,-0.59819 -0.05672,-1.30884 -0.03965,-1.25124 -0.0426,-1.29209 -0.0933,-1.29209 -0.04576,0 -0.06053,0.0439 -0.1167,0.34632 -0.03538,0.19047 -0.07172,0.34626 -0.08076,0.34618 -0.009,-5e-5 -0.05175,-0.16051 -0.09493,-0.35655 -0.06656,-0.3022 -0.08784,-0.36092 -0.139901,-0.3861 -0.03378,-0.0163 -0.06649,-0.0243 -0.07273,-0.0176 -0.0062,0.007 -0.06899,0.83562 -0.139461,1.84221 -0.118567,1.69345 -0.167488,2.15937 -0.169175,1.61106 -3.73e-4,-0.1205 -0.01808,-0.85519 -0.0393,-1.63265 -0.02128,-0.77743 -0.03892,-1.50576 -0.03925,-1.61849 -4.83e-4,-0.18066 -0.0065,-0.20496 -0.05008,-0.20496 -0.04154,0 -0.07221,0.0864 -0.190859,0.53715 -0.07777,0.29543 -0.150621,0.53714 -0.161905,0.53714 -0.01129,0 -0.02889,-0.0605 -0.03916,-0.13428 -0.111579,-0.8039 -0.130819,-0.89761 -0.184316,-0.89761 -0.05067,0 -0.05788,0.0716 -0.183642,1.82347 -0.072,1.00291 -0.135021,1.82876 -0.140047,1.83524 -0.005,0.007 -0.01405,0.007 -0.02002,0 -0.006,-0.007 -0.0719,-0.75601 -0.146472,-1.66561 -0.07458,-0.90962 -0.142457,-1.71247 -0.150852,-1.7841 l -0.01526,-0.13024 -0.124499,0.0246 c -0.162764,0.0321 -0.293104,0.0782 -0.311787,0.11027 -0.0083,0.0142 -0.03131,0.22409 -0.05125,0.46659 -0.05029,0.61096 -0.05314,0.61061 -0.161444,-0.0193 l -0.07107,-0.41328 -0.14822,0.0468 c -0.08151,0.0257 -0.15797,0.0654 -0.169888,0.0882 -0.02229,0.0427 -0.369087,2.8384 -0.369087,2.97562 0,0.0421 -0.01197,0.0766 -0.0266,0.0766 -0.01463,0 -0.0266,-0.006 -0.0266,-0.0121 0,-0.0692 -0.271976,-2.77401 -0.279759,-2.78227 -0.0058,-0.007 -0.08808,0.0273 -0.1829056,0.0746 -0.1668727,0.0829 -0.1729023,0.0896 -0.1879262,0.20828 -0.016773,0.13241 -0.3076862,3.38639 -0.3083595,3.44899 -3.061e-4,0.0285 -0.00672,0.0275 -0.026223,-0.005 -0.015511,-0.0255 -0.02733,-0.5385 -0.029564,-1.28632 -0.00196,-0.68416 -0.011241,-1.42484 -0.020403,-1.64599 l -0.016627,-0.40207 -0.1694124,0.10519 -0.1694125,0.10517 0.018654,0.84814 c 0.01154,0.5246 0.0092,0.83733 -0.0062,0.81985 -0.013671,-0.0156 -0.1294039,-0.31134 -0.2572379,-0.6573 -0.127833,-0.34596 -0.2393974,-0.62902 -0.2479272,-0.62902 -0.00849,0 -0.057463,0.034 -0.1087331,0.0755 l -0.09322,0.0755 0.016141,1.02707 c 0.00889,0.56488 0.00651,1.02706 -0.00538,1.02706 -0.01183,0 -0.1209514,-0.36964 -0.2425192,-0.82143 -0.308951,-1.14817 -0.3007601,-1.16777 -0.3230885,0.77294 -0.00951,0.82743 -0.01851,1.77477 -0.019967,2.10519 -0.00144,0.33041 -0.012988,0.60075 -0.025593,0.60075 -0.012606,0 -0.1938927,-0.72514 -0.4028784,-1.61143 -0.2089848,-0.8863 -0.3841113,-1.61145 -0.3891668,-1.61145 -0.00506,0 -0.074287,0.0922 -0.1538448,0.20497 l -0.1446518,0.20496 -0.069996,1.07429 c -0.038477,0.59087 -0.077306,1.1888 -0.086241,1.32874 -0.00889,0.13994 -0.024961,0.27987 -0.035572,0.31097 -0.026317,0.0768 -0.046046,-0.002 -0.2265201,-0.90466 -0.080822,-0.40428 -0.1513206,-0.74777 -0.156647,-0.76331 -0.00538,-0.0156 -0.08592,0.1371 -0.1790819,0.33924 l -0.1693876,0.36753 -0.016286,1.1591 c -0.009,0.6375 -0.017931,1.16441 -0.019967,1.17088 -0.011779,0.0376 -0.038725,-0.0697 -0.1488243,-0.59176 -0.067172,-0.31851 -0.131691,-0.60359 -0.1433718,-0.63347 -0.045799,-0.11715 -0.299752,1.19756 -0.3395962,1.75796 l -0.018561,0.2612 8.1510528,0 8.151056,0 -0.01537,-0.17669 z m -0.569615,-0.94001 c 0,-0.0388 -0.01197,-0.0707 -0.0266,-0.0707 -0.01463,0 -0.0266,0.0318 -0.0266,0.0707 0,0.0388 0.01197,0.0707 0.0266,0.0707 0.01463,0 0.0266,-0.0318 0.0266,-0.0707 z m -0.09053,-1.95352 c -0.0094,-0.0262 -0.02321,-0.0413 -0.03054,-0.0336 -0.0074,0.008 -0.0056,0.0355 0.0039,0.0618 0.0094,0.0263 0.02321,0.0413 0.03054,0.0336 0.0074,-0.008 0.0056,-0.0355 -0.0038,-0.0618 z m -1.826564,-0.11026 c 0,-0.0233 -0.01197,-0.0424 -0.0266,-0.0424 -0.01463,0 -0.0266,0.0192 -0.0266,0.0424 0,0.0233 0.01197,0.0424 0.0266,0.0424 0.01463,0 0.0266,-0.0192 0.0266,-0.0424 z m 0.550718,-0.9241 c -0.0085,-0.0225 -0.01483,-0.0158 -0.01609,0.0171 -9.44e-4,0.0297 0.0052,0.0466 0.01401,0.0372 0.0088,-0.01 0.0098,-0.0338 0.002,-0.0542 l 5e-6,0 z m 0.572072,-0.39704 c -0.01978,-0.021 -0.02321,-0.01 -0.01164,0.0372 0.0094,0.0382 0.02146,0.0511 0.0281,0.0298 0.0064,-0.0204 -9.45e-4,-0.0505 -0.01648,-0.067 z m -7.749367,-1.02204 c -0.01652,-0.0797 -0.04827,-0.38636 -0.07055,-0.68179 -0.04183,-0.55521 -0.06187,-0.73466 -0.07981,-0.7156 -0.0057,0.007 0.02032,0.34769 0.0579,0.75913 0.03756,0.41143 0.0683,0.79257 0.06825,0.847 l -6.3e-5,0.0989 0.02719,-0.0814 c 0.0189,-0.0566 0.01803,-0.12554 -0.0029,-0.22617 l 0,0 z m 5.073816,0.17518 c -0.0085,-0.0225 -0.01483,-0.0159 -0.01609,0.017 -9.44e-4,0.0297 0.0052,0.0466 0.01396,0.0372 0.0089,-0.01 0.0098,-0.0337 0.002,-0.0542 l 0,0 z m -3.993297,-0.31243 c -0.0062,-0.0352 -0.01183,-0.013 -0.01212,0.0491 -3.06e-4,0.0621 0.0048,0.091 0.01158,0.0639 0.0066,-0.027 0.0069,-0.078 4.84e-4,-0.11308 l -4e-6,0 z m 5.279262,-0.63004 c -0.01851,-0.0237 -0.04062,-0.0356 -0.04908,-0.0266 -0.0085,0.009 0.0024,0.0282 0.02375,0.0427 0.05637,0.0378 0.06372,0.0331 0.02531,-0.016 z m -4.312924,-0.0575 c 0,-0.0224 -0.01197,-0.0407 -0.0266,-0.0407 -0.01463,0 -0.0266,0.0262 -0.0266,0.0581 0,0.0321 0.01197,0.0503 0.0266,0.0407 0.01463,-0.01 0.0266,-0.0358 0.0266,-0.0581 z m 1.331315,-0.52133 c 0,-0.0156 -0.01197,-0.0283 -0.0266,-0.0283 -0.01463,0 -0.0266,0.0127 -0.0266,0.0283 0,0.0155 0.01197,0.0283 0.0266,0.0283 0.01464,0 0.0266,-0.0127 0.0266,-0.0283 z m 1.589139,-0.17493 c -0.0085,-0.0225 -0.01482,-0.0157 -0.01609,0.0172 -9.44e-4,0.0297 0.0052,0.0466 0.01402,0.0372 0.0089,-0.01 0.0098,-0.0337 0.002,-0.0542 l 0,0 z m 0.554275,0.0336 c 0.0091,-0.0156 0.0039,-0.0283 -0.01172,-0.0283 -0.01551,0 -0.02822,0.0127 -0.02822,0.0283 0,0.0155 0.0053,0.0283 0.01172,0.0283 0.0064,0 0.01914,-0.0127 0.02821,-0.0283 z m -4.92529,-0.75799 c -0.0076,-0.008 -0.01405,0.004 -0.01429,0.0254 -3.74e-4,0.033 -0.0049,0.0327 -0.02623,-0.002 -0.02123,-0.0348 -0.02589,-0.032 -0.02623,0.0164 -4.85e-4,0.0866 0.03421,0.10858 0.05904,0.0373 0.01188,-0.0341 0.01531,-0.0685 0.0077,-0.0766 z m 2.036339,0.0246 c 0,-0.0147 -0.01197,-0.0344 -0.0266,-0.044 -0.01464,-0.01 -0.0266,0.002 -0.0266,0.0265 0,0.0243 0.01197,0.0441 0.0266,0.0441 0.01463,0 0.0266,-0.012 0.0266,-0.0265 z m 1.38457,-0.1824 c 0,-0.007 -0.01798,-0.0185 -0.03994,-0.0273 -0.02195,-0.009 -0.03994,-0.005 -0.03994,0.0111 0,0.015 0.01798,0.0273 0.03994,0.0273 0.02195,0 0.03994,-0.006 0.03994,-0.0111 z m -2.343114,-0.0825 c 0,-0.0204 -0.01865,-0.0617 -0.0414,-0.0919 -0.04076,-0.054 -0.041,-0.054 -0.01692,9.4e-4 0.01347,0.031 0.01914,0.0724 0.01256,0.092 -0.0065,0.0195 9.44e-4,0.0354 0.01692,0.0354 0.01585,0 0.02884,-0.0167 0.02884,-0.037 z m 1.535886,-0.10968 c -0.0085,-0.0225 -0.01478,-0.0158 -0.01609,0.0171 -9.44e-4,0.0297 0.0052,0.0466 0.01401,0.0372 0.0089,-0.01 0.0098,-0.0339 0.002,-0.0542 l 0,0 z m -3.48804,-0.33924 c -0.0085,-0.0225 -0.01482,-0.0159 -0.01609,0.0171 -9.44e-4,0.0297 0.0052,0.0466 0.01401,0.0371 0.0088,-0.01 0.0098,-0.0337 0.002,-0.0542 l 5e-6,0 z"
       id="path11404"
       inkscape:connector-curvature="0" />
    <path
       style="fill:#000000;fill-opacity:1;stroke:none;stroke-width:5;stroke-linecap:round;stroke-linejoin:miter;stroke-miterlimit:4;stroke-dasharray:none;stroke-opacity:1"
       d="m 12.769618,332.45808 9.469093,-0.008 -0.0098,-0.30387 c -0.0054,-0.16714 -0.01508,-0.55195 -0.02147,-0.85515 -0.01328,-0.62491 -0.05897,-1.04627 -0.188644,-1.73866 -0.695986,-3.71629 -3.121002,-6.75364 -6.337036,-7.9372 -0.919267,-0.3383 -1.731362,-0.49252 -2.742506,-0.52084 -2.293893,-0.0643 -4.4948317,0.80118 -6.2661057,2.46383 -2.012247,1.88887 -3.209001,4.54742 -3.385505,7.52083 -0.03146,0.5298 -0.03586,1.40252 -0.0071,1.39238 0.011,-0.005 4.281063,-0.01 9.4890647,-0.0142 z m -8.1615587,-1.56901 c 0.02749,-0.31636 0.118742,-0.96237 0.172742,-1.22272 0.06958,-0.3354 0.161271,-0.69779 0.173334,-0.68497 0.0053,0.006 0.06427,0.29512 0.13109,0.64335 0.06681,0.34822 0.126346,0.63831 0.132293,0.64462 0.02569,0.0272 0.03868,-0.18744 0.07749,-1.28162 l 0.04114,-1.15921 0.07349,-0.17658 c 0.04042,-0.0972 0.081,-0.17657 0.09015,-0.17657 0.0093,0 0.0619,0.24172 0.11721,0.53714 0.0553,0.29542 0.108044,0.53715 0.1172,0.53715 0.0092,0 0.06305,-0.34032 0.119774,-0.75626 0.192075,-1.40853 0.178398,-1.34038 0.310352,-1.54697 0.06435,-0.10078 0.124872,-0.17398 0.134492,-0.16269 0.0096,0.0113 0.06825,0.26857 0.130282,0.57178 0.06203,0.3032 0.12146,0.56133 0.13205,0.57364 0.02161,0.0251 0.05434,-0.73901 0.05434,-1.26922 0,-0.32652 0.0038,-0.35205 0.06434,-0.42662 l 0.06434,-0.0793 0.01526,0.0707 c 0.0084,0.0389 0.08805,0.63682 0.177041,1.32874 0.161949,1.25921 0.17533,1.34835 0.19875,1.32348 0.0069,-0.008 0.07808,-0.79472 0.158178,-1.74976 l 0.145621,-1.73643 0.126806,-0.12026 c 0.150122,-0.14236 0.117878,-0.19702 0.288565,0.48923 0.126288,0.50774 0.136368,0.54118 0.156435,0.51918 0.0059,-0.007 0.06808,-0.37144 0.138141,-0.811 l 0.127393,-0.79925 0.08153,-0.0551 0.08152,-0.0552 0.01911,0.1193 c 0.01052,0.0657 0.057,0.58365 0.103283,1.15119 0.04629,0.56753 0.08862,1.03719 0.09405,1.04365 0.0055,0.007 0.01434,0.007 0.01983,0 0.0055,-0.007 0.03625,-0.53973 0.06843,-1.185 0.03218,-0.64528 0.06686,-1.22332 0.07708,-1.28452 0.01712,-0.10232 0.03359,-0.11993 0.20448,-0.21865 0.102236,-0.0591 0.193727,-0.1076 0.203319,-0.10782 0.0096,-2.4e-4 0.105273,0.17203 0.212618,0.38281 0.14758,0.28976 0.199794,0.37077 0.214075,0.33216 0.01037,-0.0282 0.04395,-0.22916 0.07465,-0.44684 0.08327,-0.59103 0.06869,-0.54801 0.207081,-0.61098 0.0669,-0.0305 0.1306497,-0.0453 0.1416567,-0.0332 0.011,0.0122 0.07667,0.32753 0.145935,0.70071 0.06926,0.37317 0.134701,0.68903 0.145422,0.70189 0.01953,0.0235 0.03208,-0.0714 0.14156,-1.06774 l 0.05884,-0.53549 0.132469,-0.0365 c 0.07285,-0.02 0.144447,-0.0366 0.159089,-0.0368 0.01463,-1.6e-4 0.06735,0.1427 0.117117,0.31751 0.11106,0.39009 0.133791,0.45663 0.15006,0.43936 0.0071,-0.008 0.03068,-0.16504 0.05257,-0.35024 0.06411,-0.54188 0.05827,-0.52048 0.142178,-0.52048 l 0.07344,0 0.139848,1.18032 c 0.156948,1.32464 0.163646,1.37334 0.185679,1.34994 0.0087,-0.009 0.03421,-0.59819 0.05672,-1.30884 0.03965,-1.25124 0.0426,-1.29209 0.0933,-1.29209 0.04576,0 0.06053,0.0439 0.1167,0.34632 0.03538,0.19047 0.07172,0.34626 0.08076,0.34618 0.009,-5e-5 0.05175,-0.16051 0.09493,-0.35655 0.06656,-0.3022 0.08784,-0.36092 0.139902,-0.3861 0.03378,-0.0163 0.06649,-0.0243 0.07273,-0.0176 0.0062,0.007 0.06899,0.83562 0.13946,1.84221 0.118568,1.69345 0.167488,2.15937 0.169176,1.61106 3.72e-4,-0.1205 0.01808,-0.85519 0.0393,-1.63265 0.02128,-0.77743 0.03892,-1.50576 0.03925,-1.61849 4.82e-4,-0.18066 0.0065,-0.20496 0.05008,-0.20496 0.04154,0 0.07221,0.0864 0.190858,0.53715 0.07777,0.29543 0.150621,0.53714 0.161906,0.53714 0.01129,0 0.02889,-0.0605 0.03916,-0.13428 0.111578,-0.8039 0.130818,-0.89761 0.184316,-0.89761 0.05067,0 0.05788,0.0716 0.183641,1.82347 0.072,1.00291 0.135021,1.82876 0.140047,1.83524 0.005,0.007 0.01405,0.007 0.02002,0 0.006,-0.007 0.0719,-0.75601 0.146472,-1.66561 0.07458,-0.90962 0.142457,-1.71247 0.150852,-1.7841 l 0.01526,-0.13024 0.1245,0.0246 c 0.162763,0.0321 0.293103,0.0782 0.311786,0.11027 0.0083,0.0142 0.03131,0.22409 0.05125,0.46659 0.05029,0.61096 0.05314,0.61061 0.161444,-0.0193 l 0.07107,-0.41328 0.14822,0.0468 c 0.08151,0.0257 0.15797,0.0654 0.169888,0.0882 0.02229,0.0427 0.369088,2.8384 0.369088,2.97562 0,0.0421 0.01197,0.0766 0.0266,0.0766 0.01463,0 0.0266,-0.006 0.0266,-0.0121 0,-0.0692 0.271976,-2.77401 0.279759,-2.78227 0.0058,-0.007 0.08808,0.0273 0.182905,0.0746 0.166873,0.0829 0.172902,0.0896 0.187926,0.20828 0.01677,0.13241 0.307687,3.38639 0.30836,3.44899 3.06e-4,0.0285 0.0067,0.0275 0.02622,-0.005 0.01551,-0.0255 0.02733,-0.5385 0.02956,-1.28632 0.002,-0.68416 0.01124,-1.42484 0.0204,-1.64599 l 0.01663,-0.40207 0.169412,0.10519 0.169413,0.10517 -0.01865,0.84814 c -0.01154,0.5246 -0.0092,0.83733 0.0062,0.81985 0.01367,-0.0156 0.129404,-0.31134 0.257238,-0.6573 0.127833,-0.34596 0.239397,-0.62902 0.247927,-0.62902 0.0085,0 0.05746,0.034 0.108733,0.0755 l 0.09322,0.0755 -0.01614,1.02707 c -0.0089,0.56488 -0.0065,1.02706 0.0054,1.02706 0.01183,0 0.120951,-0.36964 0.242519,-0.82143 0.308947,-1.14817 0.300756,-1.16777 0.323085,0.77294 0.0095,0.82743 0.01851,1.77477 0.01997,2.10519 0.0014,0.33041 0.01299,0.60075 0.02559,0.60075 0.01261,0 0.193893,-0.72514 0.402878,-1.61143 0.208985,-0.8863 0.384112,-1.61145 0.389167,-1.61145 0.0051,0 0.07429,0.0922 0.153845,0.20497 l 0.144652,0.20496 0.07,1.07429 c 0.03848,0.59087 0.07731,1.1888 0.08624,1.32874 0.0089,0.13994 0.02496,0.27987 0.03557,0.31097 0.02632,0.0768 0.04605,-0.002 0.22652,-0.90466 0.08082,-0.40428 0.15132,-0.74777 0.156647,-0.76331 0.0054,-0.0156 0.08592,0.1371 0.179082,0.33924 l 0.169387,0.36753 0.01629,1.1591 c 0.009,0.6375 0.01793,1.16441 0.01997,1.17088 0.01178,0.0376 0.03872,-0.0697 0.148825,-0.59176 0.06717,-0.31851 0.13169,-0.60359 0.143371,-0.63347 0.0458,-0.11715 0.299752,1.19756 0.339596,1.75796 l 0.01856,0.2612 -8.151053,0 -8.1510557,0 0.01537,-0.17669 z m 0.569615,-0.94001 c 0,-0.0388 0.01197,-0.0707 0.0266,-0.0707 0.01463,0 0.0266,0.0318 0.0266,0.0707 0,0.0388 -0.01197,0.0707 -0.0266,0.0707 -0.01463,0 -0.0266,-0.0318 -0.0266,-0.0707 z m 0.09053,-1.95352 c 0.0094,-0.0262 0.02321,-0.0413 0.03054,-0.0336 0.0074,0.008 0.0056,0.0355 -0.0039,0.0618 -0.0094,0.0263 -0.02321,0.0413 -0.03054,0.0336 -0.0074,-0.008 -0.0056,-0.0355 0.0038,-0.0618 z m 1.826564,-0.11026 c 0,-0.0233 0.01197,-0.0424 0.0266,-0.0424 0.01463,0 0.0266,0.0192 0.0266,0.0424 0,0.0233 -0.01197,0.0424 -0.0266,0.0424 -0.01463,0 -0.0266,-0.0192 -0.0266,-0.0424 z m -0.550718,-0.9241 c 0.0085,-0.0225 0.01483,-0.0158 0.01609,0.0171 9.6e-4,0.0297 -0.0052,0.0466 -0.01401,0.0372 -0.0088,-0.01 -0.0098,-0.0338 -0.002,-0.0542 l -5e-6,0 z m -0.572072,-0.39704 c 0.01978,-0.021 0.02321,-0.01 0.01164,0.0372 -0.0094,0.0382 -0.02146,0.0511 -0.0281,0.0298 -0.0064,-0.0204 9.6e-4,-0.0505 0.01648,-0.067 z m 7.7493677,-1.02204 c 0.01652,-0.0797 0.04827,-0.38636 0.07055,-0.68179 0.04183,-0.55521 0.06187,-0.73466 0.07981,-0.7156 0.0057,0.007 -0.02032,0.34769 -0.0579,0.75913 -0.03756,0.41143 -0.0683,0.79257 -0.06825,0.847 l 6.3e-5,0.0989 -0.02719,-0.0814 c -0.0189,-0.0566 -0.01803,-0.12554 0.0029,-0.22617 l 0,0 z m -5.0738167,0.17518 c 0.0085,-0.0225 0.01483,-0.0159 0.01609,0.017 9.6e-4,0.0297 -0.0052,0.0466 -0.01396,0.0372 -0.0089,-0.01 -0.0098,-0.0337 -0.002,-0.0542 l 0,0 z m 3.9932967,-0.31243 c 0.0062,-0.0352 0.01183,-0.013 0.01212,0.0491 3.06e-4,0.0621 -0.0048,0.091 -0.01158,0.0639 -0.0066,-0.027 -0.0069,-0.078 -4.84e-4,-0.11308 l 4e-6,0 z m -5.2792617,-0.63004 c 0.01851,-0.0237 0.04062,-0.0356 0.04908,-0.0266 0.0085,0.009 -0.0024,0.0282 -0.02375,0.0427 -0.05637,0.0378 -0.06372,0.0331 -0.02531,-0.016 z m 4.3129237,-0.0575 c 0,-0.0224 0.01197,-0.0407 0.0266,-0.0407 0.01463,0 0.0266,0.0262 0.0266,0.0581 0,0.0321 -0.01197,0.0503 -0.0266,0.0407 -0.01463,-0.01 -0.0266,-0.0358 -0.0266,-0.0581 z m -1.331315,-0.52133 c 0,-0.0156 0.01197,-0.0283 0.0266,-0.0283 0.01463,0 0.0266,0.0127 0.0266,0.0283 0,0.0155 -0.01197,0.0283 -0.0266,0.0283 -0.01464,0 -0.0266,-0.0127 -0.0266,-0.0283 z m -1.5891387,-0.17493 c 0.0085,-0.0225 0.01482,-0.0157 0.01609,0.0172 9.6e-4,0.0297 -0.0052,0.0466 -0.01402,0.0372 -0.0089,-0.01 -0.0098,-0.0337 -0.002,-0.0542 l 0,0 z m -0.554275,0.0336 c -0.0091,-0.0156 -0.0039,-0.0283 0.01172,-0.0283 0.01551,0 0.02822,0.0127 0.02822,0.0283 0,0.0155 -0.0053,0.0283 -0.01172,0.0283 -0.0064,0 -0.01914,-0.0127 -0.02821,-0.0283 z m 4.9252907,-0.75799 c 0.0076,-0.008 0.01405,0.004 0.01429,0.0254 3.74e-4,0.033 0.0049,0.0327 0.02623,-0.002 0.02123,-0.0348 0.02589,-0.032 0.02623,0.0164 4.84e-4,0.0866 -0.03421,0.10858 -0.05904,0.0373 -0.01188,-0.0341 -0.01531,-0.0685 -0.0077,-0.0766 z m -2.03634,0.0246 c 0,-0.0147 0.01197,-0.0344 0.0266,-0.044 0.01464,-0.01 0.0266,0.002 0.0266,0.0265 0,0.0243 -0.01197,0.0441 -0.0266,0.0441 -0.01463,0 -0.0266,-0.012 -0.0266,-0.0265 z m -1.3845697,-0.1824 c 0,-0.007 0.01798,-0.0185 0.03994,-0.0273 0.02195,-0.009 0.03994,-0.005 0.03994,0.0111 0,0.015 -0.01798,0.0273 -0.03994,0.0273 -0.02195,0 -0.03994,-0.006 -0.03994,-0.0111 z m 2.3431137,-0.0825 c 0,-0.0204 0.01865,-0.0617 0.0414,-0.0919 0.04076,-0.054 0.041,-0.054 0.01692,9.4e-4 -0.01347,0.031 -0.01914,0.0724 -0.01256,0.092 0.0065,0.0195 -9.6e-4,0.0354 -0.01692,0.0354 -0.01585,0 -0.02884,-0.0167 -0.02884,-0.037 z m -1.535886,-0.10968 c 0.0085,-0.0225 0.01478,-0.0158 0.01609,0.0171 9.6e-4,0.0297 -0.0052,0.0466 -0.01401,0.0372 -0.0089,-0.01 -0.0098,-0.0339 -0.002,-0.0542 l 0,0 z m 3.48804,-0.33924 c 0.0085,-0.0225 0.01482,-0.0159 0.01609,0.0171 9.6e-4,0.0297 -0.0052,0.0466 -0.01401,0.0371 -0.0088,-0.01 -0.0098,-0.0337 -0.002,-0.0542 l -5e-6,0 z"
       id="path11404-3"
       inkscape:connector-curvature="0" />
  </g>
</svg>
