<?xml version="1.0" encoding="UTF-8" standalone="no"?>
<!-- Created with Inkscape (http://www.inkscape.org/) -->

<svg
   xmlns:dc="http://purl.org/dc/elements/1.1/"
   xmlns:cc="http://creativecommons.org/ns#"
   xmlns:rdf="http://www.w3.org/1999/02/22-rdf-syntax-ns#"
   xmlns:svg="http://www.w3.org/2000/svg"
   xmlns="http://www.w3.org/2000/svg"
   xmlns:sodipodi="http://sodipodi.sourceforge.net/DTD/sodipodi-0.dtd"
   xmlns:inkscape="http://www.inkscape.org/namespaces/inkscape"
   width="32"
   height="32"
   viewBox="0 0 32 32.000001"
   id="svg4136"
   version="1.1"
   inkscape:version="0.91 r13725"
   sodipodi:docname="clinic_frame.svg">
  <defs
     id="defs4138" />
  <sodipodi:namedview
     id="base"
     pagecolor="#ffffff"
     bordercolor="#666666"
     borderopacity="1.0"
     inkscape:pageopacity="0.0"
     inkscape:pageshadow="2"
     inkscape:zoom="15.839192"
     inkscape:cx="-6.7823571"
     inkscape:cy="18.23749"
     inkscape:document-units="px"
     inkscape:current-layer="layer1"
     showgrid="false"
     units="px"
     inkscape:window-width="1920"
     inkscape:window-height="1138"
     inkscape:window-x="-8"
     inkscape:window-y="-8"
     inkscape:window-maximized="1" />
  <metadata
     id="metadata4141">
    <rdf:RDF>
      <cc:Work
         rdf:about="">
        <dc:format>image/svg+xml</dc:format>
        <dc:type
           rdf:resource="http://purl.org/dc/dcmitype/StillImage" />
        <dc:title></dc:title>
      </cc:Work>
    </rdf:RDF>
  </metadata>
  <g
     inkscape:label="Ebene 1"
     inkscape:groupmode="layer"
     id="layer1"
     transform="translate(0,-1020.3621)">
    <path
       inkscape:connector-curvature="0"
       id="path4140"
       d="m 3.2224824,1020.3621 25.5550136,0 c 1.723663,0 3.222504,1.424 3.222504,3.2226 l 0,25.5548 c 0,1.7239 -1.498841,3.2226 -3.222504,3.2226 l -25.5550136,0 C 1.4238863,1052.3621 0,1050.8634 0,1049.1395 l 0,-25.5548 c 0,-1.7986 1.4238863,-3.2226 3.2224824,-3.2226 z"
       style="fill:#000000;fill-opacity:1;fill-rule:nonzero;stroke:none" />
    <path
       inkscape:connector-curvature="0"
       id="path4142"
       d="m 27.203716,1022.3105 -22.33253,0 c -1.5737615,0 -2.8477645,1.2742 -2.8477645,2.848 l 0,22.3325 c 0,1.5738 1.274003,2.7726 2.8477645,2.7726 l 22.33253,0 c 1.57378,0 2.847792,-1.1988 2.847792,-2.7726 l 0,-22.3325 c 0,-1.5738 -1.274012,-2.848 -2.847792,-2.848 z"
       style="fill:#ffffff;fill-opacity:1;fill-rule:nonzero;stroke:none" />
    <path
       style="opacity:1;fill:#000000;fill-opacity:1;stroke:none;stroke-width:25;stroke-linecap:butt;stroke-linejoin:round;stroke-miterlimit:4;stroke-dasharray:none;stroke-dashoffset:0;stroke-opacity:1"
       d="m 14.38988,1047.1241 c -4.319836,-0.5942 -8.0455418,-4.0659 -9.0061034,-8.3922 -0.2766585,-1.2459 -0.3458704,-2.7201 -0.183178,-3.9015 0.6658222,-4.8347 4.4000844,-8.6692 9.1581184,-9.4039 0.748891,-0.1157 2.639099,-0.1304 3.228437,-0.025 2.456857,0.439 4.501745,1.5063 6.156802,3.2135 1.598661,1.6491 2.552745,3.5334 2.990994,5.9073 0.132918,0.72 0.132918,2.797 0,3.517 -0.525829,2.8482 -1.951649,5.2267 -4.173382,6.9618 -1.562157,1.2199 -3.325695,1.9268 -5.358652,2.1475 -0.690216,0.075 -2.184909,0.062 -2.813036,-0.024 z m 2.846831,-1.4919 c 1.909944,-0.2504 3.597197,-1.0139 5.052828,-2.2865 1.604262,-1.4025 2.824307,-3.5696 3.107493,-5.5195 0.135813,-0.9351 0.08424,-2.7232 -0.104036,-3.6069 -0.42566,-1.9978 -1.532141,-3.7873 -3.201029,-5.1769 -1.883372,-1.5683 -3.971864,-2.2672 -6.50311,-2.1767 -0.902576,0.032 -1.420546,0.1078 -2.245434,0.3273 -2.701633,0.7191 -5.1436223,2.9129 -6.2231731,5.5908 -0.4276897,1.0608 -0.6175035,1.9907 -0.6558676,3.2131 -0.055859,1.7797 0.3097516,3.3039 1.1611727,4.8409 0.7243379,1.3074 1.9852174,2.6235 3.287281,3.431 1.910677,1.185 4.093741,1.6556 6.323875,1.3634 z"
       id="path4702"
       inkscape:connector-curvature="0" />
    <path
       style="opacity:1;fill:#000000;fill-opacity:1;stroke:none;stroke-width:25;stroke-linecap:butt;stroke-linejoin:round;stroke-miterlimit:4;stroke-dasharray:none;stroke-dashoffset:0;stroke-opacity:1"
       d="m 13.110971,1041.2365 0,-2.1315 -2.131516,0 -2.1315159,0 0,-2.771 0,-2.7709 2.1315159,0 2.131516,0 0,-2.1316 0,-2.1315 2.77097,0 2.770971,0 0,2.1315 0,2.1316 2.184804,0 2.184803,0 0,2.7709 0,2.771 -2.184803,0 -2.184804,0 0,2.1315 0,2.1315 -2.770971,0 -2.77097,0 0,-2.1315 z"
       id="path4704"
       inkscape:connector-curvature="0" />
  </g>
</svg>
