<?xml version="1.0" encoding="UTF-8" standalone="no"?>
<!-- Created with Inkscape (http://www.inkscape.org/) -->

<svg
   xmlns:dc="http://purl.org/dc/elements/1.1/"
   xmlns:cc="http://creativecommons.org/ns#"
   xmlns:rdf="http://www.w3.org/1999/02/22-rdf-syntax-ns#"
   xmlns:svg="http://www.w3.org/2000/svg"
   xmlns="http://www.w3.org/2000/svg"
   xmlns:sodipodi="http://sodipodi.sourceforge.net/DTD/sodipodi-0.dtd"
   xmlns:inkscape="http://www.inkscape.org/namespaces/inkscape"
   width="32"
   height="32"
   viewBox="0 0 32 32.000001"
   id="svg4137"
   version="1.1"
   inkscape:version="0.91 r13725"
   sodipodi:docname="comm_tower_frame_color.svg">
  <defs
     id="defs4139">
    <pattern
       y="0"
       x="0"
       height="6"
       width="6"
       patternUnits="userSpaceOnUse"
       id="EMFhbasepattern" />
  </defs>
  <sodipodi:namedview
     id="base"
     pagecolor="#ffffff"
     bordercolor="#666666"
     borderopacity="1.0"
     inkscape:pageopacity="0.0"
     inkscape:pageshadow="2"
     inkscape:zoom="22.627417"
     inkscape:cx="-1.185441"
     inkscape:cy="13.674881"
     inkscape:document-units="px"
     inkscape:current-layer="layer1"
     showgrid="false"
     units="px"
     inkscape:window-width="1920"
     inkscape:window-height="1138"
     inkscape:window-x="-8"
     inkscape:window-y="-8"
     inkscape:window-maximized="1" />
  <metadata
     id="metadata4142">
    <rdf:RDF>
      <cc:Work
         rdf:about="">
        <dc:format>image/svg+xml</dc:format>
        <dc:type
           rdf:resource="http://purl.org/dc/dcmitype/StillImage" />
        <dc:title></dc:title>
      </cc:Work>
    </rdf:RDF>
  </metadata>
  <g
     inkscape:label="Ebene 1"
     inkscape:groupmode="layer"
     id="layer1"
     transform="translate(0,-1020.3622)">
    <rect
       style="opacity:1;fill:#000000;fill-opacity:1;stroke:none;stroke-width:2.09500003;stroke-linecap:butt;stroke-linejoin:round;stroke-miterlimit:4;stroke-dasharray:none;stroke-dashoffset:0;stroke-opacity:1"
       id="rect4154"
       width="32"
       height="31.99999"
       x="0"
       y="1020.3622"
       ry="3.2261746" />
    <rect
       style="opacity:1;fill:#ffffff;fill-opacity:1;stroke:none;stroke-width:2.09500003;stroke-linecap:butt;stroke-linejoin:round;stroke-miterlimit:4;stroke-dasharray:none;stroke-dashoffset:0;stroke-opacity:1"
       id="rect4154-7"
       width="28"
       height="28"
       x="-30.045902"
       y="1022.3163"
       ry="2.8229036"
       transform="scale(-1,1)" />
    <path
       style="opacity:1;fill:#000000;fill-opacity:1;stroke:none;stroke-width:1;stroke-linecap:butt;stroke-linejoin:round;stroke-miterlimit:4;stroke-dasharray:none;stroke-dashoffset:0;stroke-opacity:1"
       d=""
       id="path4711"
       inkscape:connector-curvature="0"
       transform="translate(0,1020.3622)" />
    <path
       style="opacity:1;fill:#000000;fill-opacity:1;stroke:none;stroke-width:1;stroke-linecap:butt;stroke-linejoin:round;stroke-miterlimit:4;stroke-dasharray:none;stroke-dashoffset:0;stroke-opacity:1"
       d=""
       id="path4713"
       inkscape:connector-curvature="0"
       transform="translate(0,1020.3622)" />
    <path
       style="opacity:1;fill:#000000;fill-opacity:1;stroke:none;stroke-width:1;stroke-linecap:butt;stroke-linejoin:round;stroke-miterlimit:4;stroke-dasharray:none;stroke-dashoffset:0;stroke-opacity:1"
       d=""
       id="path4715"
       inkscape:connector-curvature="0"
       transform="translate(0,1020.3622)" />
    <path
       style="fill:#000000;fill-opacity:1;stroke:none;stroke-width:0.40000001;stroke-miterlimit:4;stroke-dasharray:none;stroke-opacity:1"
       d="m 14.525825,1043.7438 0,-5.1901 0.302752,0 0.30275,0 0,-2.1952 0,-2.1953 -0.261761,-0.1084 c -0.143973,-0.06 -0.435524,-0.3017 -0.647896,-0.5379 -0.848928,-0.9442 -0.849042,-2.2165 -2.62e-4,-3.1605 0.541959,-0.6028 1.099887,-0.8316 1.90122,-0.7796 0.660207,0.043 0.998562,0.1806 1.478375,0.6019 0.769304,0.6754 1.003164,1.8978 0.536375,2.8036 -0.236058,0.458 -0.661176,0.8882 -1.104182,1.1173 l -0.258334,0.1336 0,2.1603 0,2.1603 0.346001,0 0.346003,0 0,5.19 0,5.19 -1.470509,0 -1.470506,0 0,-5.19 z"
       id="path19915"
       inkscape:connector-curvature="0" />
    <path
       style="fill:#000000;fill-opacity:1;stroke:none;stroke-width:0.40000001;stroke-miterlimit:4;stroke-dasharray:none;stroke-opacity:1"
       d="m 19.611725,1035.3748 -0.400375,-0.4108 0.21812,-0.3028 c 0.683372,-0.9485 0.998942,-2.2506 0.811283,-3.3474 -0.120925,-0.7069 -0.548706,-1.6667 -0.942945,-2.1157 l -0.26627,-0.3033 0.420575,-0.4142 0.420573,-0.4142 0.268421,0.2915 c 1.375031,1.4934 1.763116,4.0057 0.915019,5.9234 -0.211105,0.4774 -0.8859,1.5044 -0.988433,1.5044 -0.03059,0 -0.235762,-0.1849 -0.455968,-0.4109 z"
       id="path19917"
       inkscape:connector-curvature="0" />
    <path
       style="fill:#000000;fill-opacity:1;stroke:none;stroke-width:0.40000001;stroke-miterlimit:4;stroke-dasharray:none;stroke-opacity:1"
       d="m 21.541126,1037.3084 -0.37326,-0.3803 0.455347,-0.5928 c 0.566262,-0.7372 1.064104,-1.7636 1.29456,-2.6689 0.198414,-0.7794 0.240497,-2.2645 0.08701,-3.0707 -0.214101,-1.1247 -0.756988,-2.2922 -1.482408,-3.1881 l -0.445185,-0.5497 0.398387,-0.3985 0.398389,-0.3983 0.270504,0.2561 c 0.775347,0.7343 1.676446,2.4169 1.992972,3.7214 0.246445,1.0157 0.264746,2.6303 0.04111,3.6278 -0.189278,0.8444 -0.571777,1.7951 -1.034972,2.5725 -0.342437,0.5748 -1.047061,1.4498 -1.167425,1.4498 -0.03398,0 -0.229747,-0.1711 -0.43504,-0.3803 z"
       id="path19919"
       inkscape:connector-curvature="0" />
    <path
       style="fill:#000000;fill-opacity:1;stroke:none;stroke-width:0.40000001;stroke-miterlimit:4;stroke-dasharray:none;stroke-opacity:1"
       d="m 23.445455,1039.2128 -0.371939,-0.379 0.442007,-0.5486 c 2.980477,-3.6987 2.837797,-9.1702 -0.329505,-12.6357 l -0.434111,-0.475 0.414463,-0.4082 0.414461,-0.4083 0.48166,0.5203 c 1.293776,1.3974 2.280156,3.4177 2.622177,5.3705 0.16629,0.9496 0.165098,2.7785 -0.0024,3.7352 -0.327313,1.8691 -1.08473,3.5199 -2.324762,5.0671 -0.238319,0.2973 -0.45733,0.5406 -0.486694,0.5406 -0.02937,0 -0.220759,-0.1705 -0.425326,-0.3789 z"
       id="path19921"
       inkscape:connector-curvature="0" />
    <path
       style="fill:#000000;fill-opacity:1;stroke:none;stroke-width:0.40000001;stroke-miterlimit:4;stroke-dasharray:none;stroke-opacity:1"
       d="m 11.4196,1035.4168 c -1.5866755,-2.1015 -1.4813968,-5.0528 0.252208,-7.0701 l 0.334503,-0.3893 0.394504,0.3854 0.394502,0.3854 -0.250724,0.2634 c -0.732316,0.7692 -1.141704,1.8387 -1.147752,2.9984 -0.0058,1.115 0.286132,1.968 0.975936,2.8517 l 0.242165,0.3102 -0.366964,0.3602 c -0.201831,0.198 -0.393424,0.3601 -0.425763,0.3601 -0.03234,0 -0.213517,-0.2049 -0.402615,-0.4554 z"
       id="path19923"
       inkscape:connector-curvature="0" />
    <path
       style="fill:#000000;fill-opacity:1;stroke:none;stroke-width:0.40000001;stroke-miterlimit:4;stroke-dasharray:none;stroke-opacity:1"
       d="m 9.7868124,1037.3938 c -0.7563595,-0.8614 -1.4176715,-2.098 -1.7669683,-3.3039 -0.1715332,-0.5922 -0.197804,-0.8783 -0.197804,-2.1535 0,-1.2752 0.026265,-1.5612 0.197804,-2.1534 0.358405,-1.2374 1.0398313,-2.4957 1.8179634,-3.357 l 0.3044135,-0.337 0.368135,0.3613 0.368134,0.3613 -0.466203,0.5652 c -0.7400006,0.8972 -1.2933433,2.076 -1.510908,3.2189 -0.1526394,0.8018 -0.1112788,2.291 0.085284,3.0707 0.223067,0.885 0.8238325,2.101 1.373373,2.7798 l 0.429676,0.5308 -0.367645,0.3608 -0.367645,0.3608 -0.2676037,-0.3048 z"
       id="path19925"
       inkscape:connector-curvature="0" />
    <path
       style="fill:#000000;fill-opacity:1;stroke:none;stroke-width:0.40000001;stroke-miterlimit:4;stroke-dasharray:none;stroke-opacity:1"
       d="m 7.5899585,1039.099 c -1.2682449,-1.5695 -2.0403992,-3.2424 -2.3692237,-5.1332 -0.2147728,-1.2349 -0.1349935,-3.3826 0.1675704,-4.5111 0.4583355,-1.7095 1.3392095,-3.3606 2.4054295,-4.5088 l 0.5771988,-0.6215 0.365931,0.3605 0.3659325,0.3606 -0.4524159,0.5044 c -3.3126786,3.694 -3.4033231,9.1817 -0.2142119,12.9688 l 0.3711645,0.4408 -0.370905,0.364 -0.3709036,0.364 -0.4755666,-0.5885 z"
       id="path19929"
       inkscape:connector-curvature="0" />
  </g>
</svg>
