<?xml version="1.0" encoding="UTF-8" standalone="no"?>
<!-- Created with Inkscape (http://www.inkscape.org/) -->

<svg
   xmlns:dc="http://purl.org/dc/elements/1.1/"
   xmlns:cc="http://creativecommons.org/ns#"
   xmlns:rdf="http://www.w3.org/1999/02/22-rdf-syntax-ns#"
   xmlns:svg="http://www.w3.org/2000/svg"
   xmlns="http://www.w3.org/2000/svg"
   xmlns:sodipodi="http://sodipodi.sourceforge.net/DTD/sodipodi-0.dtd"
   xmlns:inkscape="http://www.inkscape.org/namespaces/inkscape"
   width="32"
   height="32"
   viewBox="0 0 32 32.000001"
   id="svg4137"
   version="1.1"
   inkscape:version="0.91 r13725"
   sodipodi:docname="courthouse.svg">
  <defs
     id="defs4139">
    <pattern
       y="0"
       x="0"
       height="6"
       width="6"
       patternUnits="userSpaceOnUse"
       id="EMFhbasepattern" />
  </defs>
  <sodipodi:namedview
     id="base"
     pagecolor="#ffffff"
     bordercolor="#666666"
     borderopacity="1.0"
     inkscape:pageopacity="0.0"
     inkscape:pageshadow="2"
     inkscape:zoom="22.627417"
     inkscape:cx="8.470986"
     inkscape:cy="13.674881"
     inkscape:document-units="px"
     inkscape:current-layer="layer1"
     showgrid="false"
     units="px"
     inkscape:window-width="1920"
     inkscape:window-height="1138"
     inkscape:window-x="-8"
     inkscape:window-y="-8"
     inkscape:window-maximized="1" />
  <metadata
     id="metadata4142">
    <rdf:RDF>
      <cc:Work
         rdf:about="">
        <dc:format>image/svg+xml</dc:format>
        <dc:type
           rdf:resource="http://purl.org/dc/dcmitype/StillImage" />
        <dc:title></dc:title>
      </cc:Work>
    </rdf:RDF>
  </metadata>
  <g
     inkscape:label="Ebene 1"
     inkscape:groupmode="layer"
     id="layer1"
     transform="translate(0,-1020.3622)">
    <path
       style="opacity:1;fill:#000000;fill-opacity:1;stroke:none;stroke-width:1;stroke-linecap:butt;stroke-linejoin:round;stroke-miterlimit:4;stroke-dasharray:none;stroke-dashoffset:0;stroke-opacity:1"
       d=""
       id="path4711"
       inkscape:connector-curvature="0"
       transform="translate(0,1020.3622)" />
    <path
       style="opacity:1;fill:#000000;fill-opacity:1;stroke:none;stroke-width:1;stroke-linecap:butt;stroke-linejoin:round;stroke-miterlimit:4;stroke-dasharray:none;stroke-dashoffset:0;stroke-opacity:1"
       d=""
       id="path4713"
       inkscape:connector-curvature="0"
       transform="translate(0,1020.3622)" />
    <path
       style="opacity:1;fill:#000000;fill-opacity:1;stroke:none;stroke-width:1;stroke-linecap:butt;stroke-linejoin:round;stroke-miterlimit:4;stroke-dasharray:none;stroke-dashoffset:0;stroke-opacity:1"
       d=""
       id="path4715"
       inkscape:connector-curvature="0"
       transform="translate(0,1020.3622)" />
    <path
       style="opacity:0.97000002;fill:#000000;fill-opacity:1;stroke:none;stroke-width:3.5;stroke-linecap:round;stroke-linejoin:round;stroke-miterlimit:4;stroke-dasharray:none;stroke-opacity:1"
       d="m 6.6941212,1047.6132 0.852778,-0.8594 3.6342278,-0.033 3.634226,-0.033 0,-9.0421 0,-9.0422 -2.983283,-0.033 c -1.640808,-0.018 -2.9832857,0 -2.9832857,0.037 0,0.039 0.9134385,2.0991 2.0298627,4.579 1.116426,2.4798 2.029865,4.5705 2.029865,4.646 0,0.4832 -0.434291,1.4515 -0.876165,1.9535 -1.053717,1.1971 -2.9833646,1.7015 -4.9305715,1.2887 -1.6525514,-0.3502 -2.898609,-1.5067 -3.1195262,-2.8953 -0.067368,-0.4234 0.13356,-0.9335 1.9306991,-4.9014 1.9795385,-4.3706 2.0067489,-4.4423 2.0710428,-5.4615 l 0.065151,-1.0328 3.3831068,-0.9029 c 1.860708,-0.4966 3.38987,-0.9038 3.398137,-0.9049 0.0083,-10e-4 0.04901,-0.2144 0.09056,-0.4741 0.146899,-0.9187 1.088093,-1.4841 2.089946,-1.2556 0.613918,0.1401 1.033293,0.5439 1.211829,1.1669 0.07872,0.2747 0.157624,0.5193 0.175328,0.5435 0.01771,0.024 1.516278,0.4403 3.330164,0.9244 l 3.297978,0.8803 0.0696,0.9824 c 0.06722,0.9487 0.139885,1.1373 2.110384,5.4775 1.894293,4.1723 2.034254,4.5299 1.949863,4.9823 -0.220741,1.1835 -1.08253,2.1667 -2.336274,2.6654 -0.993699,0.3952 -3.199796,0.3887 -4.224687,-0.012 -1.278954,-0.5005 -2.305243,-1.8169 -2.305243,-2.9568 0,-0.1743 0.862701,-2.2266 1.917114,-4.5607 1.054414,-2.334 1.966483,-4.3683 2.02682,-4.5205 l 0.109708,-0.2768 -3.010995,0 -3.010995,0 0,9.1036 0,9.1037 3.663205,0 3.663205,0 0.854555,0.8611 0.854556,0.8612 -10.75783,0 -10.7578286,0 0.8527781,-0.8594 z m 4.2222098,-11.6582 c -0.408797,-0.9303 -1.1170316,-2.5496 -1.5738547,-3.5984 -0.4568231,-1.0487 -0.8784622,-1.8986 -0.9369761,-1.8887 -0.058513,0.01 -0.7563716,1.5047 -1.5507952,3.3216 -0.7944238,1.8169 -1.4999594,3.4281 -1.5678569,3.5803 l -0.1234492,0.2768 3.2481002,0 3.2481019,0 -0.743269,-1.6916 z m 17.000869,1.6132 c 0,-0.1654 -3.111158,-7.1798 -3.183644,-7.1779 -0.05517,0 -2.801544,6.1528 -3.192998,7.1517 -0.02256,0.057 1.402963,0.1046 3.167817,0.1046 1.764855,0 3.208825,-0.035 3.208825,-0.078 z"
       id="path9714"
       inkscape:connector-curvature="0" />
  </g>
</svg>
