<?xml version="1.0" encoding="UTF-8" standalone="no"?>
<!-- Created with Inkscape (http://www.inkscape.org/) -->

<svg
   xmlns:dc="http://purl.org/dc/elements/1.1/"
   xmlns:cc="http://creativecommons.org/ns#"
   xmlns:rdf="http://www.w3.org/1999/02/22-rdf-syntax-ns#"
   xmlns:svg="http://www.w3.org/2000/svg"
   xmlns="http://www.w3.org/2000/svg"
   xmlns:sodipodi="http://sodipodi.sourceforge.net/DTD/sodipodi-0.dtd"
   xmlns:inkscape="http://www.inkscape.org/namespaces/inkscape"
   width="32"
   height="32"
   viewBox="0 0 32 32.000001"
   id="svg4137"
   version="1.1"
   inkscape:version="0.91 r13725"
   sodipodi:docname="courthouse_frame.svg">
  <defs
     id="defs4139">
    <pattern
       y="0"
       x="0"
       height="6"
       width="6"
       patternUnits="userSpaceOnUse"
       id="EMFhbasepattern" />
  </defs>
  <sodipodi:namedview
     id="base"
     pagecolor="#ffffff"
     bordercolor="#666666"
     borderopacity="1.0"
     inkscape:pageopacity="0.0"
     inkscape:pageshadow="2"
     inkscape:zoom="22.627417"
     inkscape:cx="8.470986"
     inkscape:cy="13.674881"
     inkscape:document-units="px"
     inkscape:current-layer="layer1"
     showgrid="false"
     units="px"
     inkscape:window-width="1920"
     inkscape:window-height="1138"
     inkscape:window-x="-8"
     inkscape:window-y="-8"
     inkscape:window-maximized="1" />
  <metadata
     id="metadata4142">
    <rdf:RDF>
      <cc:Work
         rdf:about="">
        <dc:format>image/svg+xml</dc:format>
        <dc:type
           rdf:resource="http://purl.org/dc/dcmitype/StillImage" />
        <dc:title></dc:title>
      </cc:Work>
    </rdf:RDF>
  </metadata>
  <g
     inkscape:label="Ebene 1"
     inkscape:groupmode="layer"
     id="layer1"
     transform="translate(0,-1020.3622)">
    <rect
       style="opacity:1;fill:#000000;fill-opacity:1;stroke:none;stroke-width:2.09500003;stroke-linecap:butt;stroke-linejoin:round;stroke-miterlimit:4;stroke-dasharray:none;stroke-dashoffset:0;stroke-opacity:1"
       id="rect4154"
       width="32"
       height="31.99999"
       x="0"
       y="1020.3622"
       ry="3.2261746" />
    <rect
       style="opacity:1;fill:#ffffff;fill-opacity:1;stroke:none;stroke-width:2.09500003;stroke-linecap:butt;stroke-linejoin:round;stroke-miterlimit:4;stroke-dasharray:none;stroke-dashoffset:0;stroke-opacity:1"
       id="rect4154-7"
       width="28"
       height="28"
       x="-30.045902"
       y="1022.3163"
       ry="2.8229036"
       transform="scale(-1,1)" />
    <path
       style="opacity:1;fill:#000000;fill-opacity:1;stroke:none;stroke-width:1;stroke-linecap:butt;stroke-linejoin:round;stroke-miterlimit:4;stroke-dasharray:none;stroke-dashoffset:0;stroke-opacity:1"
       d=""
       id="path4711"
       inkscape:connector-curvature="0"
       transform="translate(0,1020.3622)" />
    <path
       style="opacity:1;fill:#000000;fill-opacity:1;stroke:none;stroke-width:1;stroke-linecap:butt;stroke-linejoin:round;stroke-miterlimit:4;stroke-dasharray:none;stroke-dashoffset:0;stroke-opacity:1"
       d=""
       id="path4713"
       inkscape:connector-curvature="0"
       transform="translate(0,1020.3622)" />
    <path
       style="opacity:1;fill:#000000;fill-opacity:1;stroke:none;stroke-width:1;stroke-linecap:butt;stroke-linejoin:round;stroke-miterlimit:4;stroke-dasharray:none;stroke-dashoffset:0;stroke-opacity:1"
       d=""
       id="path4715"
       inkscape:connector-curvature="0"
       transform="translate(0,1020.3622)" />
    <path
       style="opacity:0.97000002;fill:#000000;fill-opacity:1;stroke:none;stroke-width:3.5;stroke-linecap:round;stroke-linejoin:round;stroke-miterlimit:4;stroke-dasharray:none;stroke-opacity:1"
       d="m 6.8782464,1046.406 0.7720273,-0.7781 3.2900983,-0.03 3.290097,-0.03 0,-8.1859 0,-8.186 -2.700792,-0.03 c -1.485438,-0.016 -2.7007953,0 -2.7007953,0.034 0,0.035 0.8269439,1.9004 1.8376523,4.1454 1.010711,2.245 1.837655,4.1378 1.837655,4.2061 0,0.4374 -0.393168,1.3141 -0.7932,1.7685 -0.953939,1.0838 -2.7008662,1.5404 -4.4636896,1.1667 -1.4960692,-0.317 -2.624136,-1.364 -2.8241343,-2.6211 -0.060989,-0.3834 0.1209131,-0.8452 1.7478787,-4.4373 1.7920935,-3.9568 1.8167273,-4.0217 1.8749331,-4.9444 l 0.058982,-0.935 3.0627561,-0.8174 c 1.684515,-0.4496 3.068879,-0.8182 3.076363,-0.8192 0.0075,-9e-4 0.04437,-0.1941 0.08198,-0.4292 0.132989,-0.8317 0.98506,-1.3436 1.892046,-1.1367 0.555786,0.1268 0.935449,0.4924 1.09708,1.0564 0.07127,0.2487 0.142698,0.4701 0.158726,0.492 0.01603,0.022 1.372699,0.3986 3.014826,0.8369 l 2.985688,0.7969 0.06301,0.8894 c 0.06085,0.8589 0.126639,1.0296 1.910549,4.9589 1.71492,3.7772 1.841628,4.1009 1.765228,4.5105 -0.199839,1.0714 -0.980024,1.9615 -2.115049,2.413 -0.899605,0.3578 -2.896804,0.3519 -3.824646,-0.011 -1.157849,-0.4531 -2.086957,-1.6448 -2.086957,-2.6768 0,-0.1578 0.781011,-2.0158 1.73558,-4.1288 0.95457,-2.113 1.780274,-3.9547 1.834898,-4.0925 l 0.09932,-0.2506 -2.72588,0 -2.72588,0 0,8.2416 0,8.2416 3.316332,0 3.316331,0 0.773636,0.7796 0.773637,0.7797 -9.739157,0 -9.7391561,0 0.7720275,-0.7781 z m 3.8224036,-10.5543 c -0.370087,-0.8422 -1.0112584,-2.3082 -1.4248247,-3.2577 -0.4135659,-0.9494 -0.7952794,-1.7188 -0.8482526,-1.7098 -0.052972,0.01 -0.6847498,1.3622 -1.4039484,3.007 -0.7191988,1.6449 -1.3579263,3.1035 -1.4193945,3.2413 l -0.1117597,0.2506 2.9405335,0 2.9405354,0 -0.672888,-1.5314 z m 15.391035,1.4604 c 0,-0.1497 -2.816559,-6.4999 -2.882181,-6.4982 -0.04995,0 -2.536262,5.5702 -2.890649,6.4745 -0.02042,0.052 1.270115,0.095 2.867853,0.095 1.597738,0 2.904977,-0.032 2.904977,-0.071 z"
       id="path9714"
       inkscape:connector-curvature="0" />
  </g>
</svg>
