<?xml version="1.0" encoding="UTF-8" standalone="no"?>
<!-- Created with Inkscape (http://www.inkscape.org/) -->

<svg
   xmlns:dc="http://purl.org/dc/elements/1.1/"
   xmlns:cc="http://creativecommons.org/ns#"
   xmlns:rdf="http://www.w3.org/1999/02/22-rdf-syntax-ns#"
   xmlns:svg="http://www.w3.org/2000/svg"
   xmlns="http://www.w3.org/2000/svg"
   xmlns:sodipodi="http://sodipodi.sourceforge.net/DTD/sodipodi-0.dtd"
   xmlns:inkscape="http://www.inkscape.org/namespaces/inkscape"
   width="32"
   height="32"
   viewBox="0 0 32 32.000001"
   id="svg4135"
   version="1.1"
   inkscape:version="0.91 r13725"
   sodipodi:docname="dentist_frame.svg">
  <defs
     id="defs4137" />
  <sodipodi:namedview
     id="base"
     pagecolor="#ffffff"
     bordercolor="#666666"
     borderopacity="1.0"
     inkscape:pageopacity="0.0"
     inkscape:pageshadow="2"
     inkscape:zoom="7.9195959"
     inkscape:cx="-28.209904"
     inkscape:cy="6.3515896"
     inkscape:document-units="px"
     inkscape:current-layer="layer1"
     showgrid="false"
     units="px"
     inkscape:window-width="1920"
     inkscape:window-height="1138"
     inkscape:window-x="-8"
     inkscape:window-y="-8"
     inkscape:window-maximized="1" />
  <metadata
     id="metadata4140">
    <rdf:RDF>
      <cc:Work
         rdf:about="">
        <dc:format>image/svg+xml</dc:format>
        <dc:type
           rdf:resource="http://purl.org/dc/dcmitype/StillImage" />
        <dc:title></dc:title>
      </cc:Work>
    </rdf:RDF>
  </metadata>
  <g
     inkscape:label="Ebene 1"
     inkscape:groupmode="layer"
     id="layer1"
     transform="translate(0,-1020.3622)">
    <path
       inkscape:connector-curvature="0"
       id="path4140"
       d="m 3.2224824,1020.3622 25.5550136,0 c 1.723663,0 3.222504,1.424 3.222504,3.2226 l 0,25.5548 c 0,1.7239 -1.498841,3.2226 -3.222504,3.2226 l -25.5550136,0 C 1.4238863,1052.3622 0,1050.8635 0,1049.1396 l 0,-25.5548 c 0,-1.7986 1.4238863,-3.2226 3.2224824,-3.2226 z"
       style="fill:#000000;fill-opacity:1;fill-rule:nonzero;stroke:none" />
    <path
       inkscape:connector-curvature="0"
       id="path4142"
       d="m 27.203716,1022.3106 -22.33253,0 c -1.5737615,0 -2.8477645,1.2742 -2.8477645,2.848 l 0,22.3325 c 0,1.5738 1.274003,2.7726 2.8477645,2.7726 l 22.33253,0 c 1.57378,0 2.847792,-1.1988 2.847792,-2.7726 l 0,-22.3325 c 0,-1.5738 -1.274012,-2.848 -2.847792,-2.848 z"
       style="fill:#ffffff;fill-opacity:1;fill-rule:nonzero;stroke:none" />
    <path
       style="opacity:1;fill:#000000;fill-opacity:1;stroke:none;stroke-width:25;stroke-linecap:butt;stroke-linejoin:round;stroke-miterlimit:4;stroke-dasharray:none;stroke-dashoffset:0;stroke-opacity:1"
       d="m 12.418009,1047.0057 c -0.48366,-0.2384 -1.088949,-0.9443 -1.486277,-1.7333 -0.69359,-1.3773 -0.697504,-1.4067 -0.78577,-5.8841 -0.08107,-4.1122 -0.125744,-4.6478 -0.5097036,-6.1099 -0.1168539,-0.445 -0.3496307,-1.3356 -0.5172817,-1.9792 -0.181195,-0.6955 -0.32805,-1.5656 -0.3620977,-2.1451 -0.072264,-1.2301 0.1080101,-1.8481 0.7277244,-2.4948 0.3939387,-0.4112 0.4698983,-0.4476 0.9336436,-0.4476 0.667945,0 1.469128,0.2167 2.633454,0.7123 1.324008,0.5635 1.972032,0.7122 3.103388,0.7122 1.164599,0 1.773296,-0.146 3.144706,-0.754 1.052447,-0.4666 1.846707,-0.6705 2.612118,-0.6705 0.332896,0 0.499293,0.066 0.746234,0.2969 0.490195,0.4578 0.834139,1.313 0.895784,2.2269 0.04808,0.7128 0.002,0.9794 -0.513027,2.9707 -0.888412,3.4347 -0.889867,3.4469 -0.859852,7.1754 0.02217,2.7539 -0.0014,3.4026 -0.153227,4.2206 -0.243554,1.3121 -0.521689,2.1143 -0.976942,2.8176 -0.885978,1.3686 -2.453785,1.714 -2.453785,0.5405 0,-0.2064 0.140963,-1.0348 0.313251,-1.8411 0.251519,-1.1772 0.311822,-1.6957 0.306,-2.6314 -0.01165,-1.8722 -0.210432,-2.6447 -0.823049,-3.1981 -0.502624,-0.4541 -1.028931,-0.5962 -2.239705,-0.6046 -1.2454,-0.01 -1.857688,0.1625 -2.353124,0.658 -0.559609,0.5596 -0.697358,1.1436 -0.718065,3.044 -0.01502,1.3786 0.01636,1.7177 0.255901,2.7651 0.288391,1.261 0.341604,1.9983 0.167691,2.3233 -0.130953,0.2446 -0.62517,0.2584 -1.087989,0.031 z"
       id="path4698"
       inkscape:connector-curvature="0" />
  </g>
</svg>
