<?xml version="1.0" encoding="UTF-8" standalone="no"?>
<!-- Created with Inkscape (http://www.inkscape.org/) -->

<svg
   xmlns:dc="http://purl.org/dc/elements/1.1/"
   xmlns:cc="http://creativecommons.org/ns#"
   xmlns:rdf="http://www.w3.org/1999/02/22-rdf-syntax-ns#"
   xmlns:svg="http://www.w3.org/2000/svg"
   xmlns="http://www.w3.org/2000/svg"
   xmlns:sodipodi="http://sodipodi.sourceforge.net/DTD/sodipodi-0.dtd"
   xmlns:inkscape="http://www.inkscape.org/namespaces/inkscape"
   width="32"
   height="32"
   viewBox="0 0 32 32.000001"
   id="svg4135"
   version="1.1"
   inkscape:version="0.91 r13725"
   sodipodi:docname="fast_food.svg">
  <defs
     id="defs4137" />
  <sodipodi:namedview
     id="base"
     pagecolor="#ffffff"
     bordercolor="#666666"
     borderopacity="1.0"
     inkscape:pageopacity="0.0"
     inkscape:pageshadow="2"
     inkscape:zoom="11.2"
     inkscape:cx="-0.22730821"
     inkscape:cy="22.501276"
     inkscape:document-units="px"
     inkscape:current-layer="layer1"
     showgrid="false"
     units="px"
     inkscape:window-width="1920"
     inkscape:window-height="1138"
     inkscape:window-x="-8"
     inkscape:window-y="-8"
     inkscape:window-maximized="1" />
  <metadata
     id="metadata4140">
    <rdf:RDF>
      <cc:Work
         rdf:about="">
        <dc:format>image/svg+xml</dc:format>
        <dc:type
           rdf:resource="http://purl.org/dc/dcmitype/StillImage" />
        <dc:title></dc:title>
      </cc:Work>
    </rdf:RDF>
  </metadata>
  <g
     inkscape:label="Ebene 1"
     inkscape:groupmode="layer"
     id="layer1"
     transform="translate(0,-1020.3622)">
    <path
       style="opacity:1;fill:#000000;fill-opacity:1;stroke:none;stroke-width:25;stroke-linecap:butt;stroke-linejoin:round;stroke-miterlimit:4;stroke-dasharray:none;stroke-dashoffset:0;stroke-opacity:1"
       d="m 4.440941,1033.6957 c 0.061529,-1.723 0.1645045,-2.1233 0.7845677,-3.0504 1.0656395,-1.5933 2.9364026,-2.7826 4.8687943,-3.0953 0.864292,-0.1399 9.946455,-0.2166 11.347585,-0.096 2.03907,0.1757 3.534102,0.8473 4.900653,2.2015 0.661163,0.6551 0.879827,0.9437 1.184041,1.5625 0.42299,0.8603 0.512679,1.287 0.595855,2.8348 l 0.05878,1.0937 -11.896043,0 -11.896043,0 0.051812,-1.4509 z"
       id="path4710"
       inkscape:connector-curvature="0" />
    <path
       style="opacity:1;fill:#000000;fill-opacity:1;stroke:none;stroke-width:25;stroke-linecap:butt;stroke-linejoin:round;stroke-miterlimit:4;stroke-dasharray:none;stroke-dashoffset:0;stroke-opacity:1"
       d="m 4.2048924,1038.9946 c -0.7515647,-0.056 -0.8042482,-0.074 -1.0563877,-0.3558 -0.3800934,-0.4254 -0.2665271,-0.8312 0.3230413,-1.1543 0.252418,-0.1383 1.1718863,-0.1523 11.496888,-0.1744 6.17239,-0.013 11.852753,0.01 12.623029,0.05 l 1.400501,0.074 0.301079,0.3285 c 0.165593,0.1807 0.301077,0.405 0.301077,0.4985 0,0.2924 -0.293467,0.5432 -0.758928,0.6486 -0.496165,0.1124 -23.2063059,0.1913 -24.6302996,0.086 z"
       id="path4712"
       inkscape:connector-curvature="0" />
    <path
       style="opacity:1;fill:#000000;fill-opacity:1;stroke:none;stroke-width:25;stroke-linecap:butt;stroke-linejoin:round;stroke-miterlimit:4;stroke-dasharray:none;stroke-dashoffset:0;stroke-opacity:1"
       d="m 9.0584061,1044.9717 c -3.0675429,-0.058 -2.963906,-0.036 -3.7724878,-0.7922 -0.6577863,-0.6153 -0.8080022,-0.9677 -0.8531354,-2.0016 l -0.038003,-0.8705 11.8944461,0 11.894446,0 -0.05963,0.6473 c -0.134416,1.4591 -0.507242,2.0752 -1.664946,2.7514 l -0.601488,0.3513 -7.037993,-0.017 c -3.870896,-0.01 -8.26344,-0.04 -9.7612078,-0.068 z"
       id="path4714"
       inkscape:connector-curvature="0" />
  </g>
</svg>
