<?xml version="1.0" encoding="UTF-8" standalone="no"?>
<!-- Created with Inkscape (http://www.inkscape.org/) -->

<svg
   xmlns:dc="http://purl.org/dc/elements/1.1/"
   xmlns:cc="http://creativecommons.org/ns#"
   xmlns:rdf="http://www.w3.org/1999/02/22-rdf-syntax-ns#"
   xmlns:svg="http://www.w3.org/2000/svg"
   xmlns="http://www.w3.org/2000/svg"
   xmlns:sodipodi="http://sodipodi.sourceforge.net/DTD/sodipodi-0.dtd"
   xmlns:inkscape="http://www.inkscape.org/namespaces/inkscape"
   width="32"
   height="32"
   viewBox="0 0 32 32.000001"
   id="svg4135"
   version="1.1"
   inkscape:version="0.91 r13725"
   sodipodi:docname="fire_station.svg">
  <defs
     id="defs4137" />
  <sodipodi:namedview
     id="base"
     pagecolor="#ffffff"
     bordercolor="#666666"
     borderopacity="1.0"
     inkscape:pageopacity="0.0"
     inkscape:pageshadow="2"
     inkscape:zoom="11.2"
     inkscape:cx="-0.22730821"
     inkscape:cy="22.501276"
     inkscape:document-units="px"
     inkscape:current-layer="layer1"
     showgrid="false"
     units="px"
     inkscape:window-width="1920"
     inkscape:window-height="1138"
     inkscape:window-x="-8"
     inkscape:window-y="-8"
     inkscape:window-maximized="1" />
  <metadata
     id="metadata4140">
    <rdf:RDF>
      <cc:Work
         rdf:about="">
        <dc:format>image/svg+xml</dc:format>
        <dc:type
           rdf:resource="http://purl.org/dc/dcmitype/StillImage" />
        <dc:title></dc:title>
      </cc:Work>
    </rdf:RDF>
  </metadata>
  <g
     inkscape:label="Ebene 1"
     inkscape:groupmode="layer"
     id="layer1"
     transform="translate(0,-1020.3622)">
    <path
       style="opacity:1;fill:#000000;fill-opacity:1;stroke:none;stroke-width:25;stroke-linecap:butt;stroke-linejoin:round;stroke-miterlimit:4;stroke-dasharray:none;stroke-dashoffset:0;stroke-opacity:1"
       d="m 12.739702,1049.0667 c -2.213161,-0.9535 -4.3357422,-3.0136 -5.5123417,-5.35 -0.4412553,-0.8762 -0.91149,-2.2969 -1.0237248,-3.093 -0.1635742,-1.1601 -0.2129552,-3.549 -0.1008518,-4.8788 0.1086695,-1.2891 0.3973822,-2.5845 0.899464,-4.0358 0.407117,-1.1767 1.4309233,-3.1794 2.1225107,-4.1517 0.7490127,-1.0531 2.2513056,-2.5643 3.1945526,-3.2135 0.688946,-0.4741 2.723742,-1.5459 2.796617,-1.4731 0.01971,0.02 -0.07958,0.4294 -0.220661,0.9103 -0.239397,0.8161 -0.256504,0.9787 -0.256504,2.437 0,1.7513 0.138939,2.4811 0.704309,3.6994 0.4437,0.956 1.737029,2.511 1.928931,2.3191 0.04743,-0.047 0.150592,-0.4266 0.229253,-0.8426 0.357966,-1.893 1.550649,-3.6315 3.098612,-4.5167 l 0.486558,-0.2782 0.05431,0.9032 c 0.05686,0.9456 0.361593,2.3579 0.687164,3.1847 0.105329,0.2676 0.546953,1.2505 0.981387,2.1843 1.340834,2.8821 1.708833,3.8985 1.923019,5.3111 0.5242,3.4571 -0.534863,6.851 -2.855786,9.1517 -0.773575,0.7669 -2.21725,1.8919 -2.260647,1.7617 -0.01452,-0.043 0.250543,-0.6988 0.589028,-1.4561 0.937898,-2.0985 0.951714,-2.1516 0.951714,-3.6602 l 0,-1.301 -0.376386,-0.7525 c -0.352412,-0.7046 -1.438765,-2.2708 -1.519271,-2.1903 -0.02003,0.02 -0.09617,0.2714 -0.169219,0.5585 -0.184051,0.7235 -0.928934,2.2129 -1.390269,2.7799 l -0.38414,0.4721 -0.245294,-0.2899 c -0.66,-0.7799 -1.468032,-2.8514 -1.730273,-4.4358 -0.18334,-1.1076 -0.207826,-3.2681 -0.04533,-4 0.06708,-0.3021 0.105734,-0.5979 0.08591,-0.6574 -0.05575,-0.1673 -1.362044,0.8629 -2.196776,1.7323 -1.656042,1.725 -2.431193,3.5895 -2.430445,5.8459 5.98e-4,1.8045 0.551542,3.7589 1.706843,6.055 0.386912,0.7689 0.693457,1.4063 0.68121,1.4164 -0.01225,0.01 -0.193809,-0.056 -0.403471,-0.146 z"
       id="path4722"
       inkscape:connector-curvature="0" />
  </g>
</svg>
