<?xml version="1.0" encoding="UTF-8" standalone="no"?>
<!-- Created with Inkscape (http://www.inkscape.org/) -->

<svg
   xmlns:dc="http://purl.org/dc/elements/1.1/"
   xmlns:cc="http://creativecommons.org/ns#"
   xmlns:rdf="http://www.w3.org/1999/02/22-rdf-syntax-ns#"
   xmlns:svg="http://www.w3.org/2000/svg"
   xmlns="http://www.w3.org/2000/svg"
   xmlns:sodipodi="http://sodipodi.sourceforge.net/DTD/sodipodi-0.dtd"
   xmlns:inkscape="http://www.inkscape.org/namespaces/inkscape"
   width="32"
   height="32"
   viewBox="0 0 32 32.000001"
   id="svg4137"
   version="1.1"
   inkscape:version="0.91 r13725"
   sodipodi:docname="fountain.svg">
  <defs
     id="defs4139" />
  <sodipodi:namedview
     id="base"
     pagecolor="#ffffff"
     bordercolor="#666666"
     borderopacity="1.0"
     inkscape:pageopacity="0.0"
     inkscape:pageshadow="2"
     inkscape:zoom="15.839192"
     inkscape:cx="10.496034"
     inkscape:cy="22.23862"
     inkscape:document-units="px"
     inkscape:current-layer="layer1"
     showgrid="false"
     units="px"
     inkscape:window-width="1920"
     inkscape:window-height="1138"
     inkscape:window-x="-8"
     inkscape:window-y="-8"
     inkscape:window-maximized="1" />
  <metadata
     id="metadata4142">
    <rdf:RDF>
      <cc:Work
         rdf:about="">
        <dc:format>image/svg+xml</dc:format>
        <dc:type
           rdf:resource="http://purl.org/dc/dcmitype/StillImage" />
        <dc:title></dc:title>
      </cc:Work>
    </rdf:RDF>
  </metadata>
  <g
     inkscape:label="Ebene 1"
     inkscape:groupmode="layer"
     id="layer1"
     transform="translate(0,-1020.3622)">
    <path
       style="opacity:1;fill:#000000;fill-opacity:1;stroke:none;stroke-width:20.44091034;stroke-linecap:round;stroke-linejoin:round;stroke-miterlimit:4;stroke-dasharray:none;stroke-opacity:1"
       d="m 12.540129,1048.2722 c -0.23399,-0.1017 -0.406092,-0.4446 -0.34575,-0.6889 0.0216,-0.087 0.1102,-0.2327 0.197264,-0.3241 0.149775,-0.1576 0.187491,-0.1666 0.702691,-0.1666 1.052495,0 1.607634,-0.2965 1.947544,-1.0403 0.135617,-0.2968 0.179572,-0.4928 0.197563,-0.8809 l 0.02328,-0.4992 -0.293617,-4e-4 c -0.78512,-9e-4 -1.976556,-0.2791 -2.653471,-0.6197 -0.599427,-0.3014 -0.865738,-0.5121 -1.815262,-1.436 -1.0945717,-1.0649 -1.4133587,-1.3352 -2.1010606,-1.7817 -0.9332773,-0.606 -2.2365854,-1.1407 -3.7956703,-1.5572 -0.3811413,-0.1016 -0.7531954,-0.2246 -0.8267825,-0.2728 -0.1587411,-0.1039 -0.325758,-0.4324 -0.325758,-0.6405 0,-0.2154 0.2393412,-0.537 0.5161142,-0.6938 l 0.2402388,-0.136 11.8424744,-10e-4 11.842476,-0 0.212019,0.1862 c 0.381713,0.3351 0.344752,0.8973 -0.0773,1.1757 -0.121688,0.08 -0.720557,0.3101 -1.330798,0.5111 -2.277707,0.7495 -3.341926,1.3895 -5.274136,3.1716 -1.026184,0.9466 -1.816581,1.4378 -2.819848,1.7525 -0.461468,0.1449 -1.572533,0.3429 -1.922725,0.3429 -0.151165,0 -0.158638,0.016 -0.158638,0.3201 0,0.7002 0.312097,1.4304 0.745608,1.7444 0.345705,0.2506 0.762108,0.3559 1.40527,0.3559 0.465508,0 0.580858,0.02 0.710745,0.1219 0.231232,0.1817 0.312332,0.4817 0.201817,0.7462 -0.171898,0.4114 -0.09351,0.4028 -3.650393,0.4001 -2.631535,0 -3.229915,-0.016 -3.393757,-0.089 z m 4.526881,-5.1762 c 1.473408,-0.1825 2.146655,-0.5455 3.749951,-2.0212 0.778137,-0.7162 1.559504,-1.3194 2.233353,-1.7242 l 0.508854,-0.3054 -7.588374,0 -7.5883763,10e-5 0.5106266,0.3038 c 0.814449,0.4844 1.3590317,0.9252 2.3997187,1.942 0.535734,0.5235 1.143197,1.0611 1.349924,1.1947 0.445387,0.2878 0.998611,0.4825 1.667139,0.5864 0.610758,0.095 2.081734,0.1075 2.757184,0.023 z"
       id="path6607"
       inkscape:connector-curvature="0" />
    <path
       style="opacity:1;fill:#000000;fill-opacity:1;stroke:none;stroke-width:23.12624931;stroke-linecap:round;stroke-linejoin:round;stroke-miterlimit:4;stroke-dasharray:none;stroke-opacity:1"
       d="m 15.237609,1035.2783 c -0.02027,-1.5027 -0.02926,-1.6078 -0.165028,-1.9495 -0.314157,-0.7903 -1.019421,-1.2334 -1.856327,-1.1662 -0.962125,0.077 -1.604165,0.7694 -1.712757,1.8467 -0.05536,0.5492 -0.12385,0.7042 -0.366714,0.8297 -0.301927,0.1562 -0.584463,0.095 -0.801605,-0.1728 -0.13531,-0.1673 -0.142946,-0.8412 -0.01531,-1.3417 0.227675,-0.8917 0.877426,-1.7431 1.602174,-2.0993 1.002922,-0.4929 2.207046,-0.4499 3.094711,0.1105 l 0.248549,0.157 -0.02957,-0.8981 c -0.02493,-0.7517 -0.05537,-0.977 -0.187637,-1.3822 -0.402393,-1.2327 -1.247922,-2.0755 -2.433354,-2.4255 -0.482128,-0.1422 -1.386965,-0.1422 -1.872608,3e-4 -1.6465627,0.4831 -2.6836998,1.9737 -2.6914364,3.8683 -0.00103,0.2523 -0.030241,0.3224 -0.2069354,0.4992 -0.2896294,0.2895 -0.5725412,0.2869 -0.8682396,-0.01 l -0.2147456,-0.2147 0.037825,-0.6173 c 0.1275976,-2.0826 1.1726918,-3.6966 2.9075083,-4.4902 0.6746997,-0.3088 1.1798587,-0.4145 1.9739097,-0.4134 0.810559,0 1.312187,0.1056 1.976173,0.4125 0.856895,0.3959 1.528973,0.9757 2.013771,1.7373 l 0.219168,0.3443 0.160493,-0.2839 c 0.431065,-0.7621 1.190115,-1.4626 2.014562,-1.8592 1.273541,-0.6125 2.875671,-0.6122 4.167418,7e-4 1.645943,0.7811 2.741518,2.5548 2.778655,4.4985 l 0.012,0.6245 -0.197586,0.1771 c -0.330177,0.2962 -0.826746,0.2074 -0.971781,-0.1734 -0.03421,-0.09 -0.07974,-0.3889 -0.101175,-0.6643 -0.086,-1.1053 -0.439734,-1.9338 -1.119086,-2.6212 -0.706692,-0.715 -1.463938,-1.0235 -2.509138,-1.0221 -0.994179,0 -1.741976,0.3071 -2.428064,0.9926 -0.752336,0.7519 -1.076581,1.6385 -1.137668,3.111 l -0.03346,0.8065 0.194905,-0.1303 c 0.337096,-0.225 0.702683,-0.37 1.178368,-0.467 1.615157,-0.3294 3.257036,0.8084 3.616845,2.5064 0.20946,0.9886 0.02758,1.4817 -0.546224,1.4817 -0.392184,0 -0.63534,-0.2765 -0.63534,-0.7225 0,-0.1277 -0.0422,-0.3943 -0.09376,-0.5924 -0.236881,-0.9093 -0.903468,-1.436 -1.821275,-1.4389 -0.74995,0 -1.308538,0.3701 -1.639621,1.0933 -0.183805,0.4015 -0.252237,1.0909 -0.255229,2.5711 l -0.0023,1.0741 -0.630883,0 -0.630888,0 -0.0216,-1.5884 z"
       id="path6609"
       inkscape:connector-curvature="0" />
  </g>
</svg>
