<?xml version="1.0" encoding="UTF-8" standalone="no"?>
<!-- Created with Inkscape (http://www.inkscape.org/) -->

<svg
   xmlns:dc="http://purl.org/dc/elements/1.1/"
   xmlns:cc="http://creativecommons.org/ns#"
   xmlns:rdf="http://www.w3.org/1999/02/22-rdf-syntax-ns#"
   xmlns:svg="http://www.w3.org/2000/svg"
   xmlns="http://www.w3.org/2000/svg"
   xmlns:sodipodi="http://sodipodi.sourceforge.net/DTD/sodipodi-0.dtd"
   xmlns:inkscape="http://www.inkscape.org/namespaces/inkscape"
   width="32"
   height="32"
   viewBox="0 0 32 32.000001"
   id="svg4137"
   version="1.1"
   inkscape:version="0.91 r13725"
   sodipodi:docname="government.svg">
  <defs
     id="defs4139">
    <pattern
       y="0"
       x="0"
       height="6"
       width="6"
       patternUnits="userSpaceOnUse"
       id="EMFhbasepattern" />
  </defs>
  <sodipodi:namedview
     id="base"
     pagecolor="#ffffff"
     bordercolor="#666666"
     borderopacity="1.0"
     inkscape:pageopacity="0.0"
     inkscape:pageshadow="2"
     inkscape:zoom="22.627417"
     inkscape:cx="8.470986"
     inkscape:cy="13.674881"
     inkscape:document-units="px"
     inkscape:current-layer="layer1"
     showgrid="false"
     units="px"
     inkscape:window-width="1920"
     inkscape:window-height="1138"
     inkscape:window-x="-8"
     inkscape:window-y="-8"
     inkscape:window-maximized="1" />
  <metadata
     id="metadata4142">
    <rdf:RDF>
      <cc:Work
         rdf:about="">
        <dc:format>image/svg+xml</dc:format>
        <dc:type
           rdf:resource="http://purl.org/dc/dcmitype/StillImage" />
        <dc:title></dc:title>
      </cc:Work>
    </rdf:RDF>
  </metadata>
  <g
     inkscape:label="Ebene 1"
     inkscape:groupmode="layer"
     id="layer1"
     transform="translate(0,-1020.3622)">
    <path
       style="opacity:1;fill:#000000;fill-opacity:1;stroke:none;stroke-width:1;stroke-linecap:butt;stroke-linejoin:round;stroke-miterlimit:4;stroke-dasharray:none;stroke-dashoffset:0;stroke-opacity:1"
       d=""
       id="path4711"
       inkscape:connector-curvature="0"
       transform="translate(0,1020.3622)" />
    <path
       style="opacity:1;fill:#000000;fill-opacity:1;stroke:none;stroke-width:1;stroke-linecap:butt;stroke-linejoin:round;stroke-miterlimit:4;stroke-dasharray:none;stroke-dashoffset:0;stroke-opacity:1"
       d=""
       id="path4713"
       inkscape:connector-curvature="0"
       transform="translate(0,1020.3622)" />
    <path
       style="opacity:1;fill:#000000;fill-opacity:1;stroke:none;stroke-width:1;stroke-linecap:butt;stroke-linejoin:round;stroke-miterlimit:4;stroke-dasharray:none;stroke-dashoffset:0;stroke-opacity:1"
       d=""
       id="path4715"
       inkscape:connector-curvature="0"
       transform="translate(0,1020.3622)" />
    <path
       style="opacity:1;fill:#000000;fill-opacity:1;stroke:none;stroke-width:3.5;stroke-linecap:round;stroke-linejoin:round;stroke-miterlimit:4;stroke-dasharray:none;stroke-opacity:1"
       d="m 5.3742779,1042.0695 0,-5.7733 10.6240121,0 10.624014,0 0,5.7733 0,5.7733 -3.422301,0 -3.422302,0 0,-1.1309 0,-1.1308 -3.838928,0 -3.838931,0 0,1.1308 0,1.1309 -3.3627818,0 -3.3627823,0 0,-5.7733 z"
       id="path4159"
       inkscape:connector-curvature="0" />
    <path
       style="opacity:1;fill:#000000;fill-opacity:1;stroke:none;stroke-width:3.5;stroke-linecap:round;stroke-linejoin:round;stroke-miterlimit:4;stroke-dasharray:none;stroke-opacity:1"
       d="m 8.1716375,1035.08 c 0,-0.3979 0.2472021,-0.7823 0.595882,-0.9267 0.1275211,-0.053 0.1952506,-0.1524 0.2965264,-0.4359 0.5501361,-1.5397 1.8221061,-2.9169 3.4422191,-3.7268 0.796038,-0.398 2.210751,-0.7771 2.899772,-0.7771 0.483196,0 0.443457,0.2566 0.443457,-2.8632 l 0,-2.791 0.327351,0 0.32735,0 0,0.2381 c 0,0.1309 0.01,0.238 0.0222,0.238 0.01225,0 0.149547,-0.056 0.305197,-0.1251 0.352241,-0.1558 1.078745,-0.2124 1.519932,-0.1184 0.347555,0.074 0.843968,0.3056 1.040058,0.4852 0.508098,0.4653 1.766191,0.5066 2.244616,0.073 0.102787,-0.093 0.106425,-0.047 0.09149,1.1603 l -0.01558,1.2572 -0.365246,0.099 c -0.532712,0.1442 -1.483255,0.098 -1.926255,-0.094 -0.180044,-0.078 -0.407702,-0.1995 -0.505908,-0.2701 -0.482567,-0.3471 -1.401122,-0.4427 -1.933272,-0.2013 -0.499825,0.2267 -0.477218,0.1508 -0.477218,1.6031 l 0,1.2916 0.472955,0.04 c 1.9515,0.1627 4.030011,1.2974 5.184751,2.8303 0.332583,0.4415 0.765425,1.2507 0.914482,1.7097 0.07494,0.2307 0.134642,0.3155 0.240948,0.3422 0.184893,0.046 0.490724,0.3063 0.592838,0.5038 0.07872,0.1523 0.113362,0.3459 0.09992,0.5584 -0.0062,0.099 -0.425726,0.1041 -7.922519,0.1041 l -7.9159305,0 0,-0.2045 z"
       id="path4161"
       inkscape:connector-curvature="0" />
  </g>
</svg>
