<?xml version="1.0" encoding="UTF-8" standalone="no"?>
<!-- Created with Inkscape (http://www.inkscape.org/) -->

<svg
   xmlns:dc="http://purl.org/dc/elements/1.1/"
   xmlns:cc="http://creativecommons.org/ns#"
   xmlns:rdf="http://www.w3.org/1999/02/22-rdf-syntax-ns#"
   xmlns:svg="http://www.w3.org/2000/svg"
   xmlns="http://www.w3.org/2000/svg"
   xmlns:sodipodi="http://sodipodi.sourceforge.net/DTD/sodipodi-0.dtd"
   xmlns:inkscape="http://www.inkscape.org/namespaces/inkscape"
   width="32"
   height="32"
   viewBox="0 0 32 32.000001"
   id="svg4137"
   version="1.1"
   inkscape:version="0.91 r13725"
   sodipodi:docname="hindu_frame.svg">
  <defs
     id="defs4139">
    <pattern
       y="0"
       x="0"
       height="6"
       width="6"
       patternUnits="userSpaceOnUse"
       id="EMFhbasepattern" />
  </defs>
  <sodipodi:namedview
     id="base"
     pagecolor="#ffffff"
     bordercolor="#666666"
     borderopacity="1.0"
     inkscape:pageopacity="0.0"
     inkscape:pageshadow="2"
     inkscape:zoom="15.839192"
     inkscape:cx="17.290349"
     inkscape:cy="17.620771"
     inkscape:document-units="px"
     inkscape:current-layer="layer1"
     showgrid="false"
     units="px"
     inkscape:window-width="1920"
     inkscape:window-height="1138"
     inkscape:window-x="-8"
     inkscape:window-y="-8"
     inkscape:window-maximized="1" />
  <metadata
     id="metadata4142">
    <rdf:RDF>
      <cc:Work
         rdf:about="">
        <dc:format>image/svg+xml</dc:format>
        <dc:type
           rdf:resource="http://purl.org/dc/dcmitype/StillImage" />
        <dc:title></dc:title>
      </cc:Work>
    </rdf:RDF>
  </metadata>
  <g
     inkscape:label="Ebene 1"
     inkscape:groupmode="layer"
     id="layer1"
     transform="translate(0,-1020.3622)">
    <rect
       style="opacity:1;fill:#000000;fill-opacity:1;stroke:none;stroke-width:2.09500003;stroke-linecap:butt;stroke-linejoin:round;stroke-miterlimit:4;stroke-dasharray:none;stroke-dashoffset:0;stroke-opacity:1"
       id="rect4154"
       width="32"
       height="31.99999"
       x="0"
       y="1020.3622"
       ry="3.2261746" />
    <rect
       style="opacity:1;fill:#ffffff;fill-opacity:1;stroke:none;stroke-width:2.09500003;stroke-linecap:butt;stroke-linejoin:round;stroke-miterlimit:4;stroke-dasharray:none;stroke-dashoffset:0;stroke-opacity:1"
       id="rect4154-7"
       width="28"
       height="28"
       x="-30.045902"
       y="1022.3163"
       ry="2.8229036"
       transform="scale(-1,1)" />
    <path
       style="fill:#000000;fill-opacity:1;stroke:none;stroke-width:2.18499994;stroke-miterlimit:4;stroke-dasharray:none;stroke-opacity:1"
       d="m 11.402019,1046.801 c -1.8019432,-0.3615 -4.1471913,-1.5987 -5.1678808,-2.7265 -0.9178806,-1.0141 -1.6355902,-2.3571 -1.9414024,-3.6328 -0.1837526,-0.7663 -0.2595854,-2.7406 -0.1088528,-2.8338 0.039675,-0.024 0.1844153,0.4345 0.3216402,1.0199 0.5129502,2.1883 1.7751315,4.0959 3.3022531,4.9909 0.4999363,0.2929 1.8053012,0.6426 2.8927417,0.7749 1.45779,0.1772 3.334696,-0.1636 4.437767,-0.8057 0.59869,-0.3485 1.3252,-1.0702 1.542302,-1.5321 0.254239,-0.5409 0.255882,-1.3936 0.0037,-1.9145 -0.448662,-0.9268 -2.017238,-1.9483 -3.113445,-2.0276 -0.38532,-0.028 -0.706388,0.018 -1.170501,0.1673 -0.351748,0.113 -0.651427,0.1898 -0.665956,0.1706 -0.09408,-0.1251 -1.607988,-3.0153 -1.607088,-3.0681 5.47e-4,-0.036 0.389374,-0.2662 0.863913,-0.5116 2.37006,-1.2253 3.092795,-1.9931 3.096993,-3.2902 0.0033,-0.9969 -0.430415,-1.5682 -1.261402,-1.6619 -0.563415,-0.064 -1.098036,0.2071 -2.377928,1.2035 -0.9574837,0.7453 -1.1419834,0.8597 -1.1435694,0.709 -3.645e-4,-0.037 -0.3253743,-0.4323 -0.7221755,-0.8773 l -0.7214538,-0.8091 0.2437498,-0.2037 c 1.2608323,-1.0542 3.2436589,-1.7652 4.6304439,-1.6603 1.426538,0.1078 2.373802,0.8319 2.808539,2.1467 0.24876,0.7524 0.167345,2.0734 -0.171227,2.7783 -0.306012,0.637 -1.156483,1.572 -1.810269,1.9903 -0.437413,0.2797 -0.455836,0.3052 -0.238825,0.3305 0.313918,0.036 4.602985,-0.6269 4.671824,-0.7227 0.01334,-0.019 0.224769,-0.3208 0.469828,-0.6716 0.57594,-0.8246 1.360303,-1.6493 1.821263,-1.9148 0.722919,-0.4166 2.489215,-0.572 3.185394,-0.2804 1.969921,0.8254 3.603675,4.0442 3.603675,7.0999 0,2.2038 -0.920037,3.9679 -2.221255,4.2591 -1.233278,0.276 -2.698477,-0.5596 -3.701012,-2.1108 -0.5737,-0.8876 -0.761165,-1.7958 -0.552963,-2.6789 l 0.06446,-0.2734 0.115334,0.4102 c 0.18922,0.6727 0.559261,1.2607 1.12046,1.7802 0.578919,0.5359 0.920225,0.6556 1.558391,0.546 0.20984,-0.036 0.469876,-0.071 0.577862,-0.079 0.107984,-0.01 0.175269,-0.048 0.14952,-0.09 -0.02575,-0.042 0.0555,-0.1852 0.180556,-0.319 0.342318,-0.3661 0.511943,-0.7623 0.603671,-1.41 0.236838,-1.6724 -0.563105,-4.033 -1.733995,-5.1171 -0.692909,-0.6415 -1.114152,-0.7827 -1.634682,-0.5479 -0.554192,0.2498 -1.110258,0.9262 -1.445726,1.7585 -0.168908,0.419 -0.411171,0.8358 -0.580921,0.9994 -0.353896,0.3412 -1.192908,0.766 -1.931495,0.9778 -0.300724,0.086 -0.563904,0.1724 -0.584849,0.1914 -0.02094,0.018 0.25012,0.3317 0.60236,0.695 1.029353,1.0618 1.483415,2.1844 1.483415,3.6679 0,2.8037 -1.737943,4.5681 -5.024425,5.1012 -1.012353,0.1641 -1.909458,0.1651 -2.718799,0 l 0,0 z"
       id="path44341"
       inkscape:connector-curvature="0" />
    <path
       style="fill:#000000;fill-opacity:1;stroke:none;stroke-width:2.18499994;stroke-miterlimit:4;stroke-dasharray:none;stroke-opacity:1"
       d="m 20.599119,1030.0858 c -1.513927,-0.2127 -2.591843,-0.7799 -3.821587,-2.0106 -0.90364,-0.9045 -1.362323,-1.6328 -1.536334,-2.4396 -0.08378,-0.3883 0.01573,-0.549 0.125603,-0.2028 0.101896,0.321 1.035785,1.25 1.640602,1.632 2.281363,1.4407 5.669909,1.6367 7.552783,0.4369 l 0.445749,-0.2841 0.685858,0.7153 0.685859,0.7154 -0.219455,0.1778 c -0.518232,0.4196 -1.67177,0.8892 -2.745821,1.1178 -0.775061,0.1649 -2.154279,0.2345 -2.813257,0.1419 z"
       id="path44343"
       inkscape:connector-curvature="0" />
    <path
       style="fill:#000000;fill-opacity:1;stroke:none;stroke-width:2.18499994;stroke-miterlimit:4;stroke-dasharray:none;stroke-opacity:1"
       d="m 19.968094,1026.3364 c -0.275664,-0.4433 -0.501209,-0.8342 -0.501209,-0.8684 0,-0.034 0.379878,-0.3019 0.844172,-0.5945 l 0.844171,-0.5322 0.539796,0.8389 0.539799,0.8389 -0.791632,0.5075 c -0.435401,0.2791 -0.832643,0.5319 -0.882765,0.5616 -0.05012,0.029 -0.31667,-0.3085 -0.592332,-0.7518 z"
       id="path44345"
       inkscape:connector-curvature="0" />
  </g>
</svg>
