<?xml version="1.0" encoding="UTF-8" standalone="no"?>
<!-- Created with Inkscape (http://www.inkscape.org/) -->

<svg
   xmlns:dc="http://purl.org/dc/elements/1.1/"
   xmlns:cc="http://creativecommons.org/ns#"
   xmlns:rdf="http://www.w3.org/1999/02/22-rdf-syntax-ns#"
   xmlns:svg="http://www.w3.org/2000/svg"
   xmlns="http://www.w3.org/2000/svg"
   xmlns:sodipodi="http://sodipodi.sourceforge.net/DTD/sodipodi-0.dtd"
   xmlns:inkscape="http://www.inkscape.org/namespaces/inkscape"
   width="32"
   height="32"
   viewBox="0 0 32 32.000001"
   id="svg4135"
   version="1.1"
   inkscape:version="0.91 r13725"
   sodipodi:docname="hostel.svg">
  <defs
     id="defs4137" />
  <sodipodi:namedview
     id="base"
     pagecolor="#ffffff"
     bordercolor="#666666"
     borderopacity="1.0"
     inkscape:pageopacity="0.0"
     inkscape:pageshadow="2"
     inkscape:zoom="11.2"
     inkscape:cx="-0.22730821"
     inkscape:cy="22.501276"
     inkscape:document-units="px"
     inkscape:current-layer="layer1"
     showgrid="false"
     units="px"
     inkscape:window-width="1920"
     inkscape:window-height="1138"
     inkscape:window-x="-8"
     inkscape:window-y="-8"
     inkscape:window-maximized="1" />
  <metadata
     id="metadata4140">
    <rdf:RDF>
      <cc:Work
         rdf:about="">
        <dc:format>image/svg+xml</dc:format>
        <dc:type
           rdf:resource="http://purl.org/dc/dcmitype/StillImage" />
        <dc:title></dc:title>
      </cc:Work>
    </rdf:RDF>
  </metadata>
  <g
     inkscape:label="Ebene 1"
     inkscape:groupmode="layer"
     id="layer1"
     transform="translate(0,-1020.3622)">
    <path
       style="opacity:1;fill:#000000;fill-opacity:1;stroke:none;stroke-width:25;stroke-linecap:butt;stroke-linejoin:round;stroke-miterlimit:4;stroke-dasharray:none;stroke-dashoffset:0;stroke-opacity:1"
       d="m 3.6119775,1036.5385 0,-12.3581 0.2657184,-0.2236 c 0.3656101,-0.3077 0.7150553,-0.3683 1.1280147,-0.1957 0.65949,0.2755 0.6598212,0.2764 0.6599881,1.7788 8.23e-5,0.7413 0.026665,2.6436 0.059072,4.2273 l 0.058923,2.8794 10.4766423,0 10.476642,0 0.0033,-3.1026 c 0.0035,-3.2602 0.09368,-5.2388 0.252325,-5.5353 0.203255,-0.3797 1.180625,-0.4998 1.496635,-0.1838 0.30572,0.3058 0.322018,0.8893 0.364184,13.0405 l 0.04175,12.0312 -1.079106,0 -1.079105,0 0,-1.8303 0,-1.8304 -10.491071,0 -10.4910719,0 0,1.8304 0,1.8303 -1.0714286,0 -1.0714285,0 0,-12.3581 4.4e-6,0 z m 23.1250005,2.4474 0,-4.6428 -10.491072,0 -10.4910713,0 0,4.6428 0,4.6429 10.4910713,0 10.491072,0 0,-4.6429 z"
       id="path4738"
       inkscape:connector-curvature="0" />
    <path
       style="opacity:1;fill:#000000;fill-opacity:1;stroke:none;stroke-width:25;stroke-linecap:butt;stroke-linejoin:round;stroke-miterlimit:4;stroke-dasharray:none;stroke-dashoffset:0;stroke-opacity:1"
       d="m 8.9466176,1041.4478 c -0.7488799,-0.2672 -1.4147038,-1.0274 -1.598932,-1.8255 -0.1359075,-0.5888 0.00969,-1.4873 0.3294222,-2.0328 0.2649809,-0.4522 1.1282888,-1.0623 1.6416153,-1.1601 0.3833713,-0.073 1.3573879,0.102 1.7873139,0.3214 0.867059,0.4423 1.414135,1.4808 1.321019,2.5077 -0.05743,0.6334 -0.251445,1.0505 -0.707051,1.52 -0.698879,0.7201 -1.8515239,0.9983 -2.7733874,0.6693 z"
       id="path4740"
       inkscape:connector-curvature="0" />
    <path
       style="opacity:1;fill:#000000;fill-opacity:1;stroke:none;stroke-width:25;stroke-linecap:butt;stroke-linejoin:round;stroke-miterlimit:4;stroke-dasharray:none;stroke-dashoffset:0;stroke-opacity:1"
       d="m 13.611978,1039.825 0,-1.7502 4.308035,0.032 4.308036,0.032 0.60344,0.2853 c 0.674824,0.3191 1.445515,0.9977 1.841502,1.6215 0.222895,0.3511 0.546129,1.2132 0.546129,1.4565 0,0.04 -2.611607,0.073 -5.803571,0.073 l -5.803571,0 0,-1.7502 z"
       id="path4742"
       inkscape:connector-curvature="0" />
    <path
       style="opacity:1;fill:#000000;fill-opacity:1;stroke:none;stroke-width:25;stroke-linecap:butt;stroke-linejoin:round;stroke-miterlimit:4;stroke-dasharray:none;stroke-dashoffset:0;stroke-opacity:1"
       d="m 13.611978,1028.9413 0,-1.6518 4.475738,0 4.475739,0 0.50194,0.2847 c 0.697788,0.3958 1.461555,1.2129 1.838959,1.9673 0.406659,0.8128 0.404415,0.9241 -0.02006,0.9943 -0.184152,0.03 -2.795759,0.056 -5.803571,0.056 l -5.46875,10e-4 0,-1.6518 z"
       id="path4744"
       inkscape:connector-curvature="0" />
    <path
       style="opacity:1;fill:#000000;fill-opacity:1;stroke:none;stroke-width:25;stroke-linecap:butt;stroke-linejoin:round;stroke-miterlimit:4;stroke-dasharray:none;stroke-dashoffset:0;stroke-opacity:1"
       d="m 8.9874202,1030.5132 c -0.6478136,-0.2237 -1.0857632,-0.6021 -1.3970233,-1.2071 -0.2257707,-0.4387 -0.2633829,-0.6134 -0.2678571,-1.2435 -0.00654,-0.9216 0.2304084,-1.4387 0.9147786,-1.9966 1.0855101,-0.8849 2.2958756,-0.8246 3.3727796,0.1681 0.89616,0.826 1.107468,1.9035 0.582451,2.97 -0.599612,1.218 -1.914327,1.755 -3.2051288,1.3091 z"
       id="path4746"
       inkscape:connector-curvature="0" />
  </g>
</svg>
