<?xml version="1.0" encoding="UTF-8" standalone="no"?>
<!-- Created with Inkscape (http://www.inkscape.org/) -->

<svg
   xmlns:dc="http://purl.org/dc/elements/1.1/"
   xmlns:cc="http://creativecommons.org/ns#"
   xmlns:rdf="http://www.w3.org/1999/02/22-rdf-syntax-ns#"
   xmlns:svg="http://www.w3.org/2000/svg"
   xmlns="http://www.w3.org/2000/svg"
   xmlns:sodipodi="http://sodipodi.sourceforge.net/DTD/sodipodi-0.dtd"
   xmlns:inkscape="http://www.inkscape.org/namespaces/inkscape"
   width="32"
   height="32"
   viewBox="0 0 32 32.000001"
   id="svg4135"
   version="1.1"
   inkscape:version="0.91 r13725"
   sodipodi:docname="kindergarten_frame.svg">
  <defs
     id="defs4137" />
  <sodipodi:namedview
     id="base"
     pagecolor="#ffffff"
     bordercolor="#666666"
     borderopacity="1.0"
     inkscape:pageopacity="0.0"
     inkscape:pageshadow="2"
     inkscape:zoom="11.2"
     inkscape:cx="-19.736237"
     inkscape:cy="22.545918"
     inkscape:document-units="px"
     inkscape:current-layer="layer1"
     showgrid="false"
     units="px"
     inkscape:window-width="1920"
     inkscape:window-height="1138"
     inkscape:window-x="-8"
     inkscape:window-y="-8"
     inkscape:window-maximized="1" />
  <metadata
     id="metadata4140">
    <rdf:RDF>
      <cc:Work
         rdf:about="">
        <dc:format>image/svg+xml</dc:format>
        <dc:type
           rdf:resource="http://purl.org/dc/dcmitype/StillImage" />
        <dc:title></dc:title>
      </cc:Work>
    </rdf:RDF>
  </metadata>
  <g
     inkscape:label="Ebene 1"
     inkscape:groupmode="layer"
     id="layer1"
     transform="translate(0,-1020.3622)">
    <path
       inkscape:connector-curvature="0"
       id="path4140"
       d="m 3.2224824,1020.3622 25.5550136,0 c 1.723663,0 3.222504,1.424 3.222504,3.2226 l 0,25.5548 c 0,1.7239 -1.498841,3.2226 -3.222504,3.2226 l -25.5550136,0 C 1.4238863,1052.3622 0,1050.8635 0,1049.1396 l 0,-25.5548 c 0,-1.7986 1.4238863,-3.2226 3.2224824,-3.2226 z"
       style="fill:#000000;fill-opacity:1;fill-rule:nonzero;stroke:none" />
    <path
       inkscape:connector-curvature="0"
       id="path4142"
       d="m 27.203716,1022.3106 -22.33253,0 c -1.5737615,0 -2.8477645,1.2742 -2.8477645,2.848 l 0,22.3325 c 0,1.5738 1.274003,2.7726 2.8477645,2.7726 l 22.33253,0 c 1.57378,0 2.847792,-1.1988 2.847792,-2.7726 l 0,-22.3325 c 0,-1.5738 -1.274012,-2.848 -2.847792,-2.848 z"
       style="fill:#ffffff;fill-opacity:1;fill-rule:nonzero;stroke:none" />
    <path
       style="opacity:1;fill:#000000;fill-opacity:1;stroke:none;stroke-width:25;stroke-linecap:butt;stroke-linejoin:round;stroke-miterlimit:4;stroke-dasharray:none;stroke-dashoffset:0;stroke-opacity:1"
       d="m 14.742011,1042.6677 0,-1.2554 0.627811,0 0.627812,0 0,-1.3745 0,-1.3744 -0.25505,0.1043 c -0.140276,0.057 -1.553197,0.6301 -3.139825,1.2728 -2.214614,0.8969 -2.861812,1.1891 -2.7859144,1.258 0.054376,0.049 0.6109244,0.3298 1.2367734,0.6235 1.89874,0.8908 2.035344,1.0092 1.765957,1.5302 -0.227493,0.4398 -0.41143,0.4087 -2.079863,-0.3515 -1.5695707,-0.7154 -2.5863357,-1.1391 -2.7323758,-1.1391 -0.0746,0 -0.8850334,0.3001 -1.800964,0.667 -0.9159306,0.3669 -1.6844588,0.667 -1.7078404,0.667 -0.046275,0 -0.35084,-0.6794 -0.35084,-0.7827 0,-0.035 0.4502586,-0.2477 1.0005745,-0.4732 0.550316,-0.2253 1.1241749,-0.4629 1.275242,-0.5278 l 0.2746676,-0.1182 -0.4120014,-0.1922 -0.4120012,-0.1921 0,-1.4715 0,-1.4716 0.3984813,-0.9756 c 0.2191648,-0.5366 0.4171723,-1.0197 0.4400166,-1.0738 0.028417,-0.066 0.2433648,-0.098 0.6805695,-0.098 l 0.6390346,5e-4 1.5993125,1.6789 c 0.8796222,0.9234 1.6289862,1.7266 1.6652532,1.7849 0.05404,0.087 0.147779,0.076 0.519552,-0.059 0.773553,-0.2808 7.512662,-3.0304 7.582478,-3.0935 0.03629,-0.033 0.311687,-1.0436 0.611987,-2.2461 l 0.545998,-2.1863 0.525921,-0.5208 0.525921,-0.5208 1.986463,0.7284 c 1.092555,0.4007 2.002999,0.745 2.02321,0.7653 0.02021,0.02 -0.08795,0.3813 -0.240362,0.8023 -0.15241,0.421 -0.277109,0.7789 -0.277109,0.7953 0,0.08 0.270827,-0.01 1.249349,-0.3957 0.586138,-0.2342 1.11335,-0.4372 1.17158,-0.4513 0.06549,-0.015 0.167056,0.1324 0.266266,0.3883 0.08822,0.2277 0.146514,0.4254 0.129554,0.4394 -0.01696,0.014 -1.160897,0.4839 -2.542082,1.0441 l -2.511245,1.0186 -0.03924,1.7861 c -0.03868,1.7604 -0.04192,1.7883 -0.224504,1.9362 -0.25821,0.2091 -0.518775,0.1882 -0.711518,-0.057 -0.151566,-0.1926 -0.162648,-0.3082 -0.162648,-1.6956 0,-1.3847 -0.0096,-1.4853 -0.137334,-1.4385 -0.07554,0.028 -1.130269,0.4458 -2.343856,0.9293 l -2.206523,0.8791 -0.04968,0.6999 c -0.02731,0.3849 -0.04968,1.1004 -0.04968,1.5902 l 0,0.8904 0.627812,0 0.627811,0 0,1.2556 0,1.2557 -1.726482,0 -1.726481,0 0,-1.2557 z m -4.532171,-2.682 c 0.248096,-0.1 0.451155,-0.2057 0.45124,-0.2341 2.38e-4,-0.08 -2.3320659,-2.0278 -2.4274151,-2.0278 -0.055107,0 -0.083674,0.3608 -0.083674,1.0567 l 0,1.0567 0.254915,0.2971 c 0.1402033,0.1632 0.2879379,0.3207 0.3282993,0.3497 0.068792,0.049 0.3875374,-0.058 1.4766358,-0.4983 z m 10.94762,-4.4367 0.568953,-0.2158 0,-0.9255 c 0,-0.9213 -9.67e-4,-0.9259 -0.2013,-1.0021 -0.110714,-0.042 -0.213729,-0.076 -0.228921,-0.076 -0.01519,0 -0.194661,0.5032 -0.398818,1.1184 -0.204156,0.6149 -0.387435,1.1623 -0.407285,1.2163 -0.05178,0.1408 0.03036,0.1266 0.667371,-0.1148 z"
       id="path4764"
       inkscape:connector-curvature="0" />
    <path
       style="opacity:1;fill:#000000;fill-opacity:1;stroke:none;stroke-width:25;stroke-linecap:butt;stroke-linejoin:round;stroke-miterlimit:4;stroke-dasharray:none;stroke-dashoffset:0;stroke-opacity:1"
       d="m 6.8662172,1035.2991 c -0.3498763,-0.2307 -0.5200855,-0.5488 -0.5206682,-0.9733 -0.00102,-0.7395 0.4035676,-1.1536 1.1271559,-1.1536 0.3758441,0 0.4747318,0.034 0.7126979,0.2426 0.802135,0.7043 0.3174816,2.0321 -0.7417008,2.0321 -0.2142706,0 -0.4413656,-0.058 -0.5774848,-0.1478 z"
       id="path4766"
       inkscape:connector-curvature="0" />
    <path
       style="opacity:1;fill:#000000;fill-opacity:1;stroke:none;stroke-width:25;stroke-linecap:butt;stroke-linejoin:round;stroke-miterlimit:4;stroke-dasharray:none;stroke-dashoffset:0;stroke-opacity:1"
       d="m 19.587187,1031.3317 c -0.539386,-0.1891 -0.764402,-0.5137 -0.764402,-1.1023 0,-0.6767 0.442819,-1.138 1.092212,-1.138 0.890688,0 1.4177,0.8577 1.011475,1.6462 -0.278177,0.5399 -0.814697,0.7779 -1.339285,0.5941 z"
       id="path4768"
       inkscape:connector-curvature="0" />
  </g>
</svg>
