<?xml version="1.0" encoding="UTF-8" standalone="no"?>
<!-- Created with Inkscape (http://www.inkscape.org/) -->

<svg
   xmlns:dc="http://purl.org/dc/elements/1.1/"
   xmlns:cc="http://creativecommons.org/ns#"
   xmlns:rdf="http://www.w3.org/1999/02/22-rdf-syntax-ns#"
   xmlns:svg="http://www.w3.org/2000/svg"
   xmlns="http://www.w3.org/2000/svg"
   xmlns:sodipodi="http://sodipodi.sourceforge.net/DTD/sodipodi-0.dtd"
   xmlns:inkscape="http://www.inkscape.org/namespaces/inkscape"
   width="32"
   height="32"
   viewBox="0 0 32 32.000001"
   id="svg4135"
   version="1.1"
   inkscape:version="0.91 r13725"
   sodipodi:docname="kindergarten.svg">
  <defs
     id="defs4137" />
  <sodipodi:namedview
     id="base"
     pagecolor="#ffffff"
     bordercolor="#666666"
     borderopacity="1.0"
     inkscape:pageopacity="0.0"
     inkscape:pageshadow="2"
     inkscape:zoom="11.2"
     inkscape:cx="-0.22730821"
     inkscape:cy="22.545918"
     inkscape:document-units="px"
     inkscape:current-layer="layer1"
     showgrid="false"
     units="px"
     inkscape:window-width="1920"
     inkscape:window-height="1138"
     inkscape:window-x="-8"
     inkscape:window-y="-8"
     inkscape:window-maximized="1" />
  <metadata
     id="metadata4140">
    <rdf:RDF>
      <cc:Work
         rdf:about="">
        <dc:format>image/svg+xml</dc:format>
        <dc:type
           rdf:resource="http://purl.org/dc/dcmitype/StillImage" />
        <dc:title></dc:title>
      </cc:Work>
    </rdf:RDF>
  </metadata>
  <g
     inkscape:label="Ebene 1"
     inkscape:groupmode="layer"
     id="layer1"
     transform="translate(0,-1020.3622)">
    <path
       style="opacity:1;fill:#000000;fill-opacity:1;stroke:none;stroke-width:25;stroke-linecap:butt;stroke-linejoin:round;stroke-miterlimit:4;stroke-dasharray:none;stroke-dashoffset:0;stroke-opacity:1"
       d="m 14.861978,1043.2091 0,-1.4285 0.714285,0 0.714286,0 0,-1.5637 0,-1.5637 -0.290179,0.1186 c -0.159598,0.065 -1.767134,0.7169 -3.572303,1.4481 -2.5196534,1.0205 -3.2559951,1.353 -3.1696435,1.4313 0.061866,0.056 0.6950719,0.3753 1.4071255,0.7094 2.16027,1.0135 2.315691,1.1482 2.009199,1.7409 -0.258828,0.5005 -0.468101,0.4651 -2.366342,-0.3999 -1.7857622,-0.8138 -2.9425756,-1.296 -3.1087311,-1.296 -0.084875,0 -1.0069372,0.3415 -2.0490274,0.7589 -1.0420902,0.4174 -1.9164748,0.7589 -1.943077,0.7589 -0.052649,0 -0.3991644,-0.773 -0.3991644,-0.8905 0,-0.04 0.5122768,-0.2819 1.1383928,-0.5383 0.6261161,-0.2564 1.2790179,-0.5267 1.4508929,-0.6006 l 0.3125,-0.1345 -0.46875,-0.2186 -0.46875,-0.2186 0,-1.6742 0,-1.6743 0.4533679,-1.11 c 0.2493523,-0.6105 0.4746331,-1.1602 0.500624,-1.2216 0.032331,-0.076 0.2768857,-0.1114 0.7743107,-0.111 l 0.7270546,6e-4 1.8196006,1.9102 c 1.0007804,1.0505 1.8533614,1.9643 1.8946244,2.0306 0.06149,0.099 0.168134,0.087 0.591114,-0.067 0.880101,-0.3196 8.54745,-3.4478 8.626882,-3.5197 0.04129,-0.037 0.354619,-1.1873 0.696281,-2.5554 l 0.621204,-2.4874 0.598361,-0.5926 0.598362,-0.5926 2.260076,0.8288 c 1.243043,0.4559 2.278891,0.8477 2.301885,0.8707 0.02299,0.023 -0.100067,0.4338 -0.273469,0.9128 -0.173403,0.479 -0.315278,0.8862 -0.315278,0.9049 0,0.092 0.308131,-0.01 1.421434,-0.4503 0.666872,-0.2664 1.266701,-0.4974 1.332952,-0.5134 0.07451,-0.018 0.190066,0.1506 0.302941,0.4418 0.100366,0.259 0.166695,0.484 0.1474,0.5 -0.0193,0.016 -1.320799,0.5505 -2.892227,1.1878 l -2.857143,1.1589 -0.04464,2.0322 c -0.044,2.0028 -0.04769,2.0346 -0.255427,2.2028 -0.293775,0.2379 -0.590231,0.2142 -0.809521,-0.065 -0.172443,-0.2192 -0.185052,-0.3507 -0.185052,-1.9292 0,-1.5755 -0.01092,-1.6899 -0.15625,-1.6367 -0.08594,0.032 -1.285951,0.5073 -2.666697,1.0574 l -2.510448,1.0002 -0.05652,0.7962 c -0.03108,0.4379 -0.05652,1.2521 -0.05652,1.8093 l 0,1.0131 0.714285,0 0.714286,0 0,1.4285 0,1.4286 -1.964286,0 -1.964285,0 0,-1.4286 z m -5.1564274,-3.0515 c 0.2822686,-0.114 0.5132954,-0.234 0.5133924,-0.2664 2.71e-4,-0.09 -2.6532826,-2.3071 -2.761765,-2.3071 -0.062697,0 -0.0952,0.4105 -0.0952,1.2023 l 0,1.2022 0.2900268,0.338 c 0.1595148,0.1858 0.3275983,0.3649 0.3735189,0.3979 0.078267,0.056 0.4409165,-0.066 1.6800274,-0.5669 z m 12.4555344,-5.0479 0.647321,-0.2454 0,-1.053 c 0,-1.0482 -0.0011,-1.0534 -0.229027,-1.1401 -0.125964,-0.048 -0.243168,-0.087 -0.260453,-0.087 -0.01728,0 -0.221472,0.5726 -0.453749,1.2724 -0.232278,0.6997 -0.440801,1.3225 -0.463385,1.3839 -0.05891,0.1601 0.03454,0.144 0.759293,-0.1307 z"
       id="path4764"
       inkscape:connector-curvature="0" />
    <path
       style="opacity:1;fill:#000000;fill-opacity:1;stroke:none;stroke-width:25;stroke-linecap:butt;stroke-linejoin:round;stroke-miterlimit:4;stroke-dasharray:none;stroke-dashoffset:0;stroke-opacity:1"
       d="m 5.901379,1034.8254 c -0.3980679,-0.2624 -0.5917217,-0.6244 -0.5923846,-1.1073 -0.00116,-0.8414 0.4591547,-1.3125 1.2824094,-1.3125 0.4276126,0 0.5401211,0.038 0.8108645,0.276 0.9126204,0.8013 0.3612112,2.3121 -0.8438622,2.3121 -0.2437841,0 -0.502159,-0.066 -0.6570271,-0.1683 z"
       id="path4766"
       inkscape:connector-curvature="0" />
    <path
       style="opacity:1;fill:#000000;fill-opacity:1;stroke:none;stroke-width:25;stroke-linecap:butt;stroke-linejoin:round;stroke-miterlimit:4;stroke-dasharray:none;stroke-dashoffset:0;stroke-opacity:1"
       d="m 20.374524,1030.3115 c -0.61368,-0.2151 -0.869689,-0.5843 -0.869689,-1.2541 0,-0.7698 0.503812,-1.2947 1.242651,-1.2947 1.013371,0 1.612974,0.9759 1.150796,1.873 -0.316493,0.6143 -0.926913,0.885 -1.523758,0.6758 z"
       id="path4768"
       inkscape:connector-curvature="0" />
  </g>
</svg>
