<?xml version="1.0" encoding="UTF-8" standalone="no"?>
<!-- Created with Inkscape (http://www.inkscape.org/) -->

<svg
   xmlns:dc="http://purl.org/dc/elements/1.1/"
   xmlns:cc="http://creativecommons.org/ns#"
   xmlns:rdf="http://www.w3.org/1999/02/22-rdf-syntax-ns#"
   xmlns:svg="http://www.w3.org/2000/svg"
   xmlns="http://www.w3.org/2000/svg"
   xmlns:sodipodi="http://sodipodi.sourceforge.net/DTD/sodipodi-0.dtd"
   xmlns:inkscape="http://www.inkscape.org/namespaces/inkscape"
   width="32"
   height="32"
   viewBox="0 0 32 32.000001"
   id="svg4135"
   version="1.1"
   inkscape:version="0.91 r13725"
   sodipodi:docname="kiosk_frame_color.svg">
  <defs
     id="defs4137" />
  <sodipodi:namedview
     id="base"
     pagecolor="#ffffff"
     bordercolor="#666666"
     borderopacity="1.0"
     inkscape:pageopacity="0.0"
     inkscape:pageshadow="2"
     inkscape:zoom="11.2"
     inkscape:cx="-12.816594"
     inkscape:cy="9.2408158"
     inkscape:document-units="px"
     inkscape:current-layer="layer1"
     showgrid="false"
     units="px"
     inkscape:window-width="1920"
     inkscape:window-height="1138"
     inkscape:window-x="-8"
     inkscape:window-y="-8"
     inkscape:window-maximized="1" />
  <metadata
     id="metadata4140">
    <rdf:RDF>
      <cc:Work
         rdf:about="">
        <dc:format>image/svg+xml</dc:format>
        <dc:type
           rdf:resource="http://purl.org/dc/dcmitype/StillImage" />
        <dc:title></dc:title>
      </cc:Work>
    </rdf:RDF>
  </metadata>
  <g
     inkscape:label="Ebene 1"
     inkscape:groupmode="layer"
     id="layer1"
     transform="translate(0,-1020.3622)">
    <path
       inkscape:connector-curvature="0"
       id="path4140"
       d="m 3.2224824,1020.3622 25.5550136,0 c 1.723663,0 3.222504,1.424 3.222504,3.2226 l 0,25.5548 c 0,1.7239 -1.498841,3.2226 -3.222504,3.2226 l -25.5550136,0 C 1.4238863,1052.3622 0,1050.8635 0,1049.1396 l 0,-25.5548 c 0,-1.7986 1.4238863,-3.2226 3.2224824,-3.2226 z"
       style="fill:#2ca089;fill-opacity:1;fill-rule:nonzero;stroke:none" />
    <path
       inkscape:connector-curvature="0"
       id="path4142"
       d="m 27.203716,1022.3106 -22.33253,0 c -1.5737615,0 -2.8477645,1.2742 -2.8477645,2.848 l 0,22.3325 c 0,1.5738 1.274003,2.7726 2.8477645,2.7726 l 22.33253,0 c 1.57378,0 2.847792,-1.1988 2.847792,-2.7726 l 0,-22.3325 c 0,-1.5738 -1.274012,-2.848 -2.847792,-2.848 z"
       style="fill:#ffffff;fill-opacity:1;fill-rule:nonzero;stroke:none" />
    <path
       style="opacity:1;fill:#2ca089;fill-opacity:1;stroke:none;stroke-width:25;stroke-linecap:butt;stroke-linejoin:round;stroke-miterlimit:4;stroke-dasharray:none;stroke-dashoffset:0;stroke-opacity:1"
       d="m 7.0769681,1033.4583 c -0.2122979,-0.084 -0.51627,-0.2597 -0.6754933,-0.3911 l -0.2894972,-0.2388 0,-1.3154 0,-1.3153 0.7527734,-0.7885 c 0.4140253,-0.4335 1.4301603,-1.524 2.2580778,-2.4231 l 1.5053042,-1.6348 0.863936,-10e-5 c 0.529066,0 0.883673,0.032 0.914858,0.082 0.05893,0.095 -0.148086,0.4422 -1.586838,2.6583 -1.5782604,2.4309 -1.4436963,2.1196 -1.5075021,3.4874 l -0.054647,1.1714 -0.2412941,0.2335 c -0.5341106,0.5168 -1.3350679,0.7127 -1.9396774,0.4742 z"
       id="path4802"
       inkscape:connector-curvature="0" />
    <path
       style="opacity:1;fill:#2ca089;fill-opacity:1;stroke:none;stroke-width:25;stroke-linecap:butt;stroke-linejoin:round;stroke-miterlimit:4;stroke-dasharray:none;stroke-dashoffset:0;stroke-opacity:1"
       d="m 10.995404,1033.4062 c -0.180137,-0.064 -0.487657,-0.2609 -0.683378,-0.4381 l -0.3558556,-0.3222 0.010693,-1.1577 c 0.010289,-1.1139 0.018185,-1.1678 0.2093506,-1.4278 0.554965,-0.7549 1.905066,-2.8684 2.3819,-3.7288 l 0.540395,-0.9751 0.694793,0 c 0.382137,0 0.735565,0.024 0.785396,0.056 0.06667,0.042 0.02925,0.2817 -0.141652,0.9059 -0.678914,2.4796 -0.918512,3.6737 -0.998997,4.9784 -0.04321,0.7007 -0.111973,1.3609 -0.152795,1.4674 -0.04082,0.1066 -0.221129,0.2856 -0.400681,0.3981 -0.604086,0.3782 -1.2696,0.4645 -1.889168,0.2451 z"
       id="path4804"
       inkscape:connector-curvature="0" />
    <path
       style="opacity:1;fill:#2ca089;fill-opacity:1;stroke:none;stroke-width:25;stroke-linecap:butt;stroke-linejoin:round;stroke-miterlimit:4;stroke-dasharray:none;stroke-dashoffset:0;stroke-opacity:1"
       d="m 15.135768,1033.5026 c -0.342352,-0.1316 -0.845764,-0.4445 -0.984873,-0.6122 -0.07995,-0.096 -0.09638,-0.4089 -0.0726,-1.3808 0.03039,-1.2421 0.03717,-1.2838 0.603655,-3.7099 l 0.572917,-2.4537 0.724838,0.022 0.724837,0.022 0.460797,2.2002 c 0.449112,2.1443 0.461852,2.2385 0.502396,3.7106 l 0.04159,1.5105 -0.250641,0.2109 c -0.461789,0.3886 -0.845953,0.5361 -1.465211,0.5629 -0.366353,0.015 -0.681355,-0.014 -0.857711,-0.082 z"
       id="path4806"
       inkscape:connector-curvature="0" />
    <path
       style="opacity:1;fill:#2ca089;fill-opacity:1;stroke:none;stroke-width:25;stroke-linecap:butt;stroke-linejoin:round;stroke-miterlimit:4;stroke-dasharray:none;stroke-dashoffset:0;stroke-opacity:1"
       d="m 19.090557,1033.4495 c -0.70213,-0.3509 -0.728936,-0.4146 -0.686658,-1.6332 0.04508,-1.2995 0.0093,-1.5484 -0.596822,-4.1575 -0.275665,-1.1865 -0.501209,-2.191 -0.501209,-2.2324 0,-0.044 0.347388,-0.075 0.842569,-0.075 l 0.842569,0 0.616257,1.1773 c 0.338941,0.6476 0.967234,1.8001 1.396207,2.5613 l 0.779954,1.3838 0,1.2058 0,1.2057 -0.373338,0.2847 c -0.789286,0.602 -1.50267,0.688 -2.319529,0.2798 z"
       id="path4808"
       inkscape:connector-curvature="0" />
    <path
       style="opacity:1;fill:#2ca089;fill-opacity:1;stroke:none;stroke-width:25;stroke-linecap:butt;stroke-linejoin:round;stroke-miterlimit:4;stroke-dasharray:none;stroke-dashoffset:0;stroke-opacity:1"
       d="m 23.674805,1033.6584 c -0.386741,-0.1216 -0.626079,-0.249 -0.945688,-0.5034 l -0.250896,-0.1996 -2e-6,-1.3009 -2e-6,-1.3008 -0.437976,-0.7835 c -0.418713,-0.7492 -2.119163,-3.6174 -2.385924,-4.0245 l -0.127428,-0.1946 1.031768,0 1.031768,0 0.516716,0.6729 c 0.284193,0.37 1.194413,1.5065 2.022711,2.5255 l 1.505995,1.8528 0.0033,1.0422 c 0.0043,1.3513 -0.05129,1.5476 -0.519063,1.833 -0.356566,0.2175 -0.968195,0.4881 -1.080183,0.4779 -0.03099,0 -0.195296,-0.05 -0.365134,-0.1024 z"
       id="path4810"
       inkscape:connector-curvature="0" />
    <path
       style="opacity:1;fill:#2ca089;fill-opacity:1;stroke:none;stroke-width:25;stroke-linecap:butt;stroke-linejoin:round;stroke-miterlimit:4;stroke-dasharray:none;stroke-dashoffset:0;stroke-opacity:1"
       d="m 9.0069491,1046.9759 c -0.8856113,-0.054 -1.2211129,-0.2063 -1.5207937,-0.6882 l -0.1775896,-0.2857 0,-5.2882 c 0,-2.9084 0.026326,-5.3821 0.058501,-5.4969 0.043559,-0.1555 0.1322871,-0.2293 0.3473965,-0.289 0.1915148,-0.053 3.0622327,-0.08 8.5164567,-0.08 l 8.227562,-4e-4 0.187156,0.1992 0.187154,0.1991 0,5.4229 0,5.4228 -0.210645,0.2764 c -0.115854,0.152 -0.341662,0.3579 -0.501795,0.4574 l -0.29115,0.1811 -7.025131,0.01 c -3.863822,0.01 -7.3725263,-0.012 -7.7971221,-0.039 z m 14.4748579,-6.8409 0,-3.8987 -7.372527,0 -7.3725282,0 0,3.8987 0,3.8984 7.3725282,0 7.372527,0 0,-3.8984 z"
       id="path4812"
       inkscape:connector-curvature="0" />
  </g>
</svg>
