<?xml version="1.0" encoding="UTF-8" standalone="no"?>
<!-- Created with Inkscape (http://www.inkscape.org/) -->

<svg
   xmlns:dc="http://purl.org/dc/elements/1.1/"
   xmlns:cc="http://creativecommons.org/ns#"
   xmlns:rdf="http://www.w3.org/1999/02/22-rdf-syntax-ns#"
   xmlns:svg="http://www.w3.org/2000/svg"
   xmlns="http://www.w3.org/2000/svg"
   xmlns:sodipodi="http://sodipodi.sourceforge.net/DTD/sodipodi-0.dtd"
   xmlns:inkscape="http://www.inkscape.org/namespaces/inkscape"
   width="32"
   height="32"
   viewBox="0 0 25.6 25.6"
   id="svg4180"
   version="1.1"
   inkscape:version="0.91 r13725"
   sodipodi:docname="level_crossing.svg"
   inkscape:export-filename="C:\Users\Fabienne\Desktop\fehlende_symbole\einfach\png\sinkhole.png"
   inkscape:export-xdpi="90"
   inkscape:export-ydpi="90">
  <defs
     id="defs4182" />
  <sodipodi:namedview
     pagecolor="#ffffff"
     bordercolor="#666666"
     borderopacity="1.0"
     inkscape:pageopacity="0.0"
     inkscape:pageshadow="2"
     inkscape:zoom="8"
     inkscape:cx="24.717357"
     inkscape:cy="27.365262"
     inkscape:document-units="pt"
     inkscape:current-layer="layer1"
     id="namedview4184"
     showgrid="false"
     inkscape:window-width="1396"
     inkscape:window-height="975"
     inkscape:window-x="7"
     inkscape:window-y="3"
     inkscape:window-maximized="0"
     units="px" />
  <metadata
     id="metadata4186">
    <rdf:RDF>
      <cc:Work
         rdf:about="">
        <dc:format>image/svg+xml</dc:format>
        <dc:type
           rdf:resource="http://purl.org/dc/dcmitype/StillImage" />
        <dc:title />
      </cc:Work>
    </rdf:RDF>
  </metadata>
  <g
     inkscape:label="Layer 1"
     inkscape:groupmode="layer"
     id="layer1"
     transform="translate(0,-314.4)">
    <path
       style="fill:#ffffff;fill-opacity:1;stroke:#ffffff;stroke-width:0.33381128;stroke-miterlimit:4;stroke-dasharray:none;stroke-opacity:1"
       d="m 6.9232298,339.80725 c -3.2680045,-0.0226 -3.3222817,-0.0241 -3.5990088,-0.10198 -0.7296898,-0.20531 -1.3667906,-0.58013 -1.9042943,-1.12039 -0.53081182,-0.53353 -0.8274585,-1.01491 -1.06666,-1.73089 l -0.12833822,-0.38417 -0.0343709,-1.28371 c -0.048467,-1.81022 -0.0154872,-16.72256 0.0378436,-17.11158 0.0764818,-0.55786 0.37951089,-1.26404 0.76428141,-1.78107 0.57976241,-0.77904 1.33093761,-1.29498 2.30594451,-1.58386 l 0.3065585,-0.0908 2.163942,-0.0262 c 2.8135858,-0.0341 11.4189624,-0.0342 14.1197214,-9e-5 l 2.109843,0.0266 0.324592,0.0989 c 1.487548,0.45266 2.584687,1.58293 2.964018,3.0535 0.08292,0.32148 0.09143,0.43988 0.124787,1.73577 0.02223,0.86368 0.02713,4.28618 0.01296,9.03088 l -0.02284,7.64013 -0.08585,0.34589 c -0.38698,1.55921 -1.509909,2.73766 -3.012349,3.16127 l -0.341361,0.0962 -3.372142,0.0282 c -3.792935,0.0317 -6.815412,0.031 -11.6672541,-0.002 l 0,0 z"
       id="path4745"
       inkscape:connector-curvature="0" />
    <path
       id="crossing"
       d="m 2.117942,317.0701 0,2.36213 8.264556,8.26966 -8.264556,8.26966 0,2.36212 2.3606778,0 8.2645562,-8.26966 8.264556,8.26966 2.360685,0 0,-2.36212 -8.260195,-8.26966 8.264554,-8.26966 0,-2.36213 -2.360677,0 -8.268923,8.26966 -8.2645562,-8.26966 -2.3606778,0 z"
       inkscape:connector-curvature="0"
       style="fill:#ff2600" />
  </g>
</svg>
