<?xml version="1.0" encoding="UTF-8" standalone="no"?>
<!-- Created with Inkscape (http://www.inkscape.org/) -->

<svg
   xmlns:dc="http://purl.org/dc/elements/1.1/"
   xmlns:cc="http://creativecommons.org/ns#"
   xmlns:rdf="http://www.w3.org/1999/02/22-rdf-syntax-ns#"
   xmlns:svg="http://www.w3.org/2000/svg"
   xmlns="http://www.w3.org/2000/svg"
   xmlns:sodipodi="http://sodipodi.sourceforge.net/DTD/sodipodi-0.dtd"
   xmlns:inkscape="http://www.inkscape.org/namespaces/inkscape"
   width="32"
   height="32"
   viewBox="0 0 32 32.000001"
   id="svg4135"
   version="1.1"
   inkscape:version="0.91 r13725"
   sodipodi:docname="library.svg">
  <defs
     id="defs4137" />
  <sodipodi:namedview
     id="base"
     pagecolor="#ffffff"
     bordercolor="#666666"
     borderopacity="1.0"
     inkscape:pageopacity="0.0"
     inkscape:pageshadow="2"
     inkscape:zoom="11.2"
     inkscape:cx="-0.22730821"
     inkscape:cy="-2.9020413"
     inkscape:document-units="px"
     inkscape:current-layer="layer1"
     showgrid="false"
     units="px"
     inkscape:window-width="1920"
     inkscape:window-height="1138"
     inkscape:window-x="-8"
     inkscape:window-y="-8"
     inkscape:window-maximized="1" />
  <metadata
     id="metadata4140">
    <rdf:RDF>
      <cc:Work
         rdf:about="">
        <dc:format>image/svg+xml</dc:format>
        <dc:type
           rdf:resource="http://purl.org/dc/dcmitype/StillImage" />
        <dc:title></dc:title>
      </cc:Work>
    </rdf:RDF>
  </metadata>
  <g
     inkscape:label="Ebene 1"
     inkscape:groupmode="layer"
     id="layer1"
     transform="translate(0,-1020.3622)">
    <path
       style="opacity:1;fill:#000000;fill-opacity:1;stroke:none;stroke-width:25;stroke-linecap:butt;stroke-linejoin:round;stroke-miterlimit:4;stroke-dasharray:none;stroke-dashoffset:0;stroke-opacity:1"
       d="m 11.558406,1047.6812 c -1.27672,-0.047 -1.422949,-0.07 -1.8876344,-0.2983 -0.5639884,-0.2769 -1.1262451,-0.8365 -1.4209694,-1.4142 l -0.1962897,-0.3848 0.03841,-9.4703 0.03841,-9.4702 0.1959531,-0.4048 c 0.2480635,-0.5124 0.5402965,-0.7892 1.2631633,-1.1962 l 0.5756861,-0.3241 6.946635,-0.054 6.946636,-0.054 0,9.5233 0,9.5233 -0.290178,0 c -0.367028,0 -1.019926,0.2952 -1.339286,0.6004 -0.216866,0.2072 -0.245536,0.3001 -0.245536,0.7952 0,0.496 0.03096,0.5958 0.268994,0.8669 0.278505,0.3172 0.711153,0.534 1.27787,0.6403 l 0.328136,0.062 0,0.5705 0,0.5704 -5.558036,-0.016 c -3.056919,-0.01 -6.180803,-0.039 -6.941964,-0.067 l 0,0 z m 9.719843,-1.4571 c -0.262985,-0.5131 -0.329155,-1.5037 -0.131966,-1.9757 0.267155,-0.6394 0.645231,-0.5915 -4.654841,-0.5897 -5.279815,0 -6.214494,0.054 -6.6840369,0.3734 -0.8086835,0.5503 -0.7123547,1.8162 0.1730407,2.274 0.4458162,0.2306 1.3816962,0.2709 6.6020962,0.2846 l 4.890208,0.013 -0.194501,-0.3794 z m -11.4578198,-3.473 c 0.5209348,-0.1875 0.6702298,-0.1926 6.8049408,-0.2348 l 6.272322,-0.043 0,-8.3922 0,-8.3922 -5.915179,0.059 c -3.253348,0.032 -6.105591,0.081 -6.338317,0.1084 -0.467562,0.055 -0.8905938,0.3024 -1.1757945,0.6873 -0.1857379,0.2506 -0.1869506,0.2971 -0.217115,8.3259 -0.016684,4.4406 -0.015291,8.0738 0.00309,8.0738 0.018386,0 0.2731073,-0.086 0.5660482,-0.1917 z"
       id="path4820"
       inkscape:connector-curvature="0" />
  </g>
</svg>
