<?xml version="1.0" encoding="UTF-8" standalone="no"?>
<!-- Created with Inkscape (http://www.inkscape.org/) -->

<svg
   xmlns:dc="http://purl.org/dc/elements/1.1/"
   xmlns:cc="http://creativecommons.org/ns#"
   xmlns:rdf="http://www.w3.org/1999/02/22-rdf-syntax-ns#"
   xmlns:svg="http://www.w3.org/2000/svg"
   xmlns="http://www.w3.org/2000/svg"
   xmlns:sodipodi="http://sodipodi.sourceforge.net/DTD/sodipodi-0.dtd"
   xmlns:inkscape="http://www.inkscape.org/namespaces/inkscape"
   width="32"
   height="32"
   viewBox="0 0 32 32.000001"
   id="svg4153"
   version="1.1"
   inkscape:version="0.91 r13725"
   sodipodi:docname="lighthouse.svg">
  <defs
     id="defs4155" />
  <sodipodi:namedview
     id="base"
     pagecolor="#ffffff"
     bordercolor="#666666"
     borderopacity="1.0"
     inkscape:pageopacity="0.0"
     inkscape:pageshadow="2"
     inkscape:zoom="15.839192"
     inkscape:cx="2.7913437"
     inkscape:cy="21.000039"
     inkscape:document-units="px"
     inkscape:current-layer="layer1"
     showgrid="false"
     units="px"
     inkscape:window-width="1920"
     inkscape:window-height="1138"
     inkscape:window-x="-8"
     inkscape:window-y="-8"
     inkscape:window-maximized="1" />
  <metadata
     id="metadata4158">
    <rdf:RDF>
      <cc:Work
         rdf:about="">
        <dc:format>image/svg+xml</dc:format>
        <dc:type
           rdf:resource="http://purl.org/dc/dcmitype/StillImage" />
        <dc:title></dc:title>
      </cc:Work>
    </rdf:RDF>
  </metadata>
  <g
     inkscape:label="Ebene 1"
     inkscape:groupmode="layer"
     id="layer1"
     transform="translate(0,-1020.3622)">
    <path
       style="opacity:1;fill:#000000;fill-opacity:1;stroke:none;stroke-width:0.0375;stroke-linecap:butt;stroke-linejoin:round;stroke-miterlimit:4;stroke-dasharray:none;stroke-dashoffset:0;stroke-opacity:1"
       d="m 6.0204332,1048.1855 0,-0.5501 1.6405614,0 1.6405613,0 0.021622,-0.1019 c 0.011888,-0.056 0.7869601,-3.7624 1.7223741,-8.2363 l 1.700756,-8.1344 3.491817,-2e-4 3.491816,-2e-4 0.01334,0.066 c 0.0074,0.036 0.780183,3.731 1.717435,8.2105 0.937253,4.4796 1.704096,8.1527 1.704096,8.1625 0,0.01 0.712149,0.011 1.582556,0 l 1.582556,-0.015 0,0.548 0,0.5479 -6.875732,0.014 c -3.781652,0.01 -8.351288,0.02 -10.1547438,0.026 l -3.2790118,0.011 0,-0.5502 z m 16.0594728,-0.5852 c 0.0047,0 -0.433543,-2.1291 -0.486113,-2.3567 l -0.0125,-0.054 -5.332773,0 -5.332776,0 -0.01366,0.066 c -0.0075,0.036 -0.121667,0.5826 -0.253676,1.2142 -0.132008,0.6316 -0.240016,1.1507 -0.240016,1.1537 0,0.01 11.663298,-0.016 11.671473,-0.023 z m -1.352481,-6.493 c -0.12245,-0.5835 -0.246099,-1.177 -0.274755,-1.3188 l -0.0521,-0.2579 -4.150822,0.01 -4.150821,0.01 -0.25647,1.2229 c -0.141058,0.6726 -0.263402,1.2634 -0.271878,1.3128 l -0.01541,0.09 4.697453,0 4.697455,0 -0.222654,-1.061 z m -0.967515,-4.6011 c 0,-0.025 -0.44068,-2.1469 -0.471128,-2.2682 l -0.01363,-0.054 -3.030637,0 c -1.666848,0 -3.030634,0.01 -3.030634,0.015 0,0.01 -0.1079,0.5297 -0.239783,1.1592 -0.131878,0.6294 -0.239781,1.1516 -0.239781,1.1603 0,0.01 1.580758,0.016 3.512798,0.016 2.609873,0 3.512798,-0.01 3.512798,-0.027 z"
       id="path9888"
       inkscape:connector-curvature="0" />
    <path
       style="opacity:1;fill:#000000;fill-opacity:1;stroke:none;stroke-width:0.0375;stroke-linecap:butt;stroke-linejoin:round;stroke-miterlimit:4;stroke-dasharray:none;stroke-dashoffset:0;stroke-opacity:1"
       d="m 15.629882,1030.534 c -1.271871,-0.3319 -1.948922,-1.7726 -1.389206,-2.9561 0.689869,-1.4587 2.722192,-1.6633 3.705055,-0.373 0.323442,0.4246 0.441195,0.8145 0.416506,1.379 -0.01732,0.3961 -0.03914,0.4851 -0.197459,0.8054 -0.372906,0.7545 -1.159496,1.2409 -1.990447,1.2307 -0.123988,0 -0.368989,-0.04 -0.544449,-0.086 z m 1.36635,-0.5273 c 0.61138,-0.301 0.953695,-0.8529 0.958174,-1.5448 0.002,-0.3064 -0.02009,-0.4101 -0.1429,-0.6714 -0.587366,-1.2493 -2.345291,-1.3905 -3.078914,-0.2472 -0.621312,0.9682 -0.154445,2.2153 0.966265,2.5811 0.124738,0.041 0.351774,0.06 0.593148,0.051 0.325352,-0.013 0.443681,-0.041 0.704227,-0.1689 z"
       id="path9906"
       inkscape:connector-curvature="0" />
    <path
       style="opacity:1;fill:#000000;fill-opacity:1;stroke:none;stroke-width:0.0375;stroke-linecap:butt;stroke-linejoin:round;stroke-miterlimit:4;stroke-dasharray:none;stroke-dashoffset:0;stroke-opacity:1"
       d="m 13.14786,1025.5809 c 0,-0.1517 0.02293,-0.1726 0.31342,-0.2857 0.172381,-0.067 0.346143,-0.1073 0.38614,-0.089 0.04678,0.021 0.0606,0.01 0.03876,-0.032 -0.0231,-0.044 -9.25e-4,-0.054 0.06951,-0.033 0.06631,0.02 0.09215,0.01 0.07193,-0.028 -0.0202,-0.038 0.0056,-0.048 0.07193,-0.028 0.06631,0.02 0.09215,0.01 0.07192,-0.028 -0.0202,-0.038 0.0056,-0.048 0.07193,-0.028 0.06631,0.02 0.09215,0.01 0.07193,-0.028 -0.0202,-0.038 0.0056,-0.048 0.07193,-0.028 0.05691,0.017 0.09396,0.014 0.08233,-0.01 -0.03076,-0.058 0.924576,-0.4136 1.009441,-0.3755 0.04581,0.021 0.05938,0.01 0.03764,-0.032 -0.0231,-0.044 -9.25e-4,-0.054 0.06951,-0.033 0.05691,0.017 0.09336,0.013 0.08101,-0.011 -0.01238,-0.023 0.10525,-0.088 0.261359,-0.143 0.245576,-0.087 0.313121,-0.091 0.501103,-0.029 0.1195,0.039 0.206838,0.091 0.194092,0.115 -0.01274,0.024 0.02339,0.03 0.0803,0.012 0.06631,-0.02 0.09215,-0.01 0.07193,0.028 -0.0202,0.038 0.0056,0.048 0.07193,0.028 0.07039,-0.022 0.09261,-0.011 0.06951,0.033 -0.02186,0.042 -0.008,0.053 0.03888,0.032 0.04006,-0.018 0.569898,0.1611 1.177422,0.3979 1.104196,0.4304 1.104585,0.4306 1.104585,0.5942 l 0,0.1636 -3.045224,0 -3.045223,0 0,-0.1637 z"
       id="path9908"
       inkscape:connector-curvature="0" />
    <path
       style="opacity:1;fill:#000000;fill-opacity:1;stroke:none;stroke-width:0.0375;stroke-linecap:butt;stroke-linejoin:round;stroke-miterlimit:4;stroke-dasharray:none;stroke-dashoffset:0;stroke-opacity:1"
       d="m 24.489522,1031.0412 c -2.532091,-0.4169 -4.641224,-0.7593 -4.686956,-0.7609 -0.07649,0 -0.08417,-0.1369 -0.09591,-1.6761 l -0.01275,-1.6732 4.626389,-0.7473 c 2.544514,-0.411 4.718731,-0.765 4.831595,-0.7867 l 0.205208,-0.039 0,3.2275 0,3.2275 -0.131879,-0.01 c -0.07254,0 -2.203593,-0.3479 -4.735684,-0.7648 z"
       id="path9914"
       inkscape:connector-curvature="0" />
    <path
       style="opacity:1;fill:#000000;fill-opacity:1;stroke:none;stroke-width:0.0375;stroke-linecap:butt;stroke-linejoin:round;stroke-miterlimit:4;stroke-dasharray:none;stroke-dashoffset:0;stroke-opacity:1"
       d="m 2.8415142,1028.5591 c 0,-2.725 0.00792,-3.0385 0.077075,-3.0385 0.0949,0 9.3903848,1.3796 9.6130728,1.4268 l 0.160022,0.034 -0.01303,1.571 -0.01302,1.5709 -4.7038173,0.7044 c -2.5870989,0.3874 -4.7975251,0.7191 -4.9120585,0.7372 l -0.2082415,0.033 0,-3.0385 z"
       id="path9916"
       inkscape:connector-curvature="0" />
  </g>
</svg>
