<?xml version="1.0" encoding="UTF-8" standalone="no"?>
<!-- Created with Inkscape (http://www.inkscape.org/) -->

<svg
   xmlns:dc="http://purl.org/dc/elements/1.1/"
   xmlns:cc="http://creativecommons.org/ns#"
   xmlns:rdf="http://www.w3.org/1999/02/22-rdf-syntax-ns#"
   xmlns:svg="http://www.w3.org/2000/svg"
   xmlns="http://www.w3.org/2000/svg"
   xmlns:sodipodi="http://sodipodi.sourceforge.net/DTD/sodipodi-0.dtd"
   xmlns:inkscape="http://www.inkscape.org/namespaces/inkscape"
   width="32"
   height="32"
   viewBox="0 0 32 32.000001"
   id="svg4137"
   version="1.1"
   inkscape:version="0.91 r13725"
   sodipodi:docname="marketplace.svg">
  <defs
     id="defs4139" />
  <sodipodi:namedview
     id="base"
     pagecolor="#ffffff"
     bordercolor="#666666"
     borderopacity="1.0"
     inkscape:pageopacity="0.0"
     inkscape:pageshadow="2"
     inkscape:zoom="22.627417"
     inkscape:cx="8.470986"
     inkscape:cy="13.674881"
     inkscape:document-units="px"
     inkscape:current-layer="layer1"
     showgrid="false"
     units="px"
     inkscape:window-width="1920"
     inkscape:window-height="1138"
     inkscape:window-x="-8"
     inkscape:window-y="-8"
     inkscape:window-maximized="1" />
  <metadata
     id="metadata4142">
    <rdf:RDF>
      <cc:Work
         rdf:about="">
        <dc:format>image/svg+xml</dc:format>
        <dc:type
           rdf:resource="http://purl.org/dc/dcmitype/StillImage" />
        <dc:title></dc:title>
      </cc:Work>
    </rdf:RDF>
  </metadata>
  <g
     inkscape:label="Ebene 1"
     inkscape:groupmode="layer"
     id="layer1"
     transform="translate(0,-1020.3622)">
    <path
       style="opacity:1;fill:#000000;fill-opacity:1;stroke:none;stroke-width:1;stroke-linecap:butt;stroke-linejoin:round;stroke-miterlimit:4;stroke-dasharray:none;stroke-dashoffset:0;stroke-opacity:1"
       d=""
       id="path4711"
       inkscape:connector-curvature="0"
       transform="translate(0,1020.3622)" />
    <path
       style="opacity:1;fill:#000000;fill-opacity:1;stroke:none;stroke-width:1;stroke-linecap:butt;stroke-linejoin:round;stroke-miterlimit:4;stroke-dasharray:none;stroke-dashoffset:0;stroke-opacity:1"
       d=""
       id="path4713"
       inkscape:connector-curvature="0"
       transform="translate(0,1020.3622)" />
    <path
       style="opacity:1;fill:#000000;fill-opacity:1;stroke:none;stroke-width:1;stroke-linecap:butt;stroke-linejoin:round;stroke-miterlimit:4;stroke-dasharray:none;stroke-dashoffset:0;stroke-opacity:1"
       d=""
       id="path4715"
       inkscape:connector-curvature="0"
       transform="translate(0,1020.3622)" />
    <path
       style="opacity:1;fill:#000000;fill-opacity:1;stroke:none;stroke-width:0.05049634;stroke-linecap:round;stroke-linejoin:round;stroke-miterlimit:4;stroke-dasharray:none;stroke-opacity:1"
       d="m 15.610686,1036.1137 0,-3.8175 -3.494345,0 -3.4943473,0 0,-0.303 c 0,-0.2963 -0.0023,-0.303 -0.1009937,-0.303 -0.098747,0 -0.1009938,0.01 -0.1009938,0.303 l 0,0.303 -2.2824352,0 -2.2824352,0 0,-0.7469 0,-0.7468 0.1312963,-0.057 c 0.072202,-0.032 2.7126626,-1.5743 5.8676738,-3.428 l 5.7363831,-3.3703 0.01225,-0.2083 0.01225,-0.2083 0.240269,0 0.240273,0 0,0.1791 c 0,0.1497 0.0182,0.1916 0.111087,0.256 0.0611,0.042 2.751545,1.5999 5.978766,3.4611 l 5.867674,3.384 0,0.743 0,0.743 -2.22184,0 -2.221836,0 0,-0.2828 c 0,-0.2747 -0.0029,-0.2828 -0.100988,-0.2828 -0.09811,0 -0.100987,0.01 -0.100987,0.2828 l 0,0.2828 -3.655936,0 -3.655935,0 0,3.8175 0,3.8176 -0.242382,0 -0.242382,0 0,-3.8176 z"
       id="path8207"
       inkscape:connector-curvature="0" />
    <path
       style="opacity:1;fill:#000000;fill-opacity:1;stroke:none;stroke-width:0.05049634;stroke-linecap:round;stroke-linejoin:round;stroke-miterlimit:4;stroke-dasharray:none;stroke-opacity:1"
       d="m 4.905462,1044.4961 0,-2.9086 2.4238245,0 2.4238247,0 0,-0.6626 0,-0.6626 0.4544668,-0.028 c 0.249957,-0.015 1.854225,-0.018 3.565043,-0.01 1.710816,0.011 3.414617,0.023 3.786223,0.024 l 0.675652,0 0.01112,0.6564 0.01112,0.6565 0.81804,0.01 0.818041,0.01 0,2.9077 0,2.9078 -7.493658,0 -7.4936571,0 0,-2.9086 z"
       id="path8209"
       inkscape:connector-curvature="0" />
    <path
       style="opacity:1;fill:#000000;fill-opacity:1;stroke:none;stroke-width:0.05049634;stroke-linecap:round;stroke-linejoin:round;stroke-miterlimit:4;stroke-dasharray:none;stroke-opacity:1"
       d="m 13.065672,1038.2547 c 0,-1.3764 0.0098,-1.6765 0.05428,-1.6765 0.118862,0 0.520251,0.1639 0.693695,0.2832 0.35216,0.2423 0.69422,0.7777 0.80633,1.262 0.05541,0.2394 0.146806,0.9382 0.200772,1.5351 l 0.02465,0.2727 -0.526287,0 -0.526288,0 -4.03e-4,-0.1717 c -0.0012,-0.5613 -0.210403,-1.7181 -0.32335,-1.7879 -0.02579,-0.016 -0.03986,0.3253 -0.03986,0.9675 l 0,0.9921 -0.181789,0 -0.181786,0 0,-1.6765 z"
       id="path8211"
       inkscape:connector-curvature="0" />
    <path
       style="opacity:1;fill:#000000;fill-opacity:1;stroke:none;stroke-width:0.05049634;stroke-linecap:round;stroke-linejoin:round;stroke-miterlimit:4;stroke-dasharray:none;stroke-opacity:1"
       d="m 10.843832,1037.2852 0,-0.707 0.96953,0 0.969531,0 0,0.707 0,0.7069 -0.969531,0 -0.96953,0 0,-0.7069 z"
       id="path8213"
       inkscape:connector-curvature="0" />
    <path
       style="opacity:1;fill:#000000;fill-opacity:1;stroke:none;stroke-width:0.05049634;stroke-linecap:round;stroke-linejoin:round;stroke-miterlimit:4;stroke-dasharray:none;stroke-opacity:1"
       d="m 11.519856,1036.2135 c -0.395821,-0.1 -0.736967,-0.3842 -0.911,-0.7604 -0.08388,-0.1813 -0.105732,-0.2908 -0.106434,-0.5331 -8.07e-4,-0.2639 0.0169,-0.341 0.131556,-0.5739 0.144071,-0.2927 0.351174,-0.4981 0.651171,-0.646 0.147892,-0.073 0.25349,-0.091 0.528214,-0.091 0.293434,0 0.376523,0.016 0.571275,0.1119 0.266169,0.1306 0.531025,0.4015 0.653943,0.6687 0.12558,0.273 0.123887,0.8022 -0.0034,1.0605 -0.282575,0.5734 -0.944238,0.9067 -1.515324,0.7633 z"
       id="path8215"
       inkscape:connector-curvature="0" />
    <path
       style="opacity:1;fill:#000000;fill-opacity:1;stroke:none;stroke-width:0.05049634;stroke-linecap:round;stroke-linejoin:round;stroke-miterlimit:4;stroke-dasharray:none;stroke-opacity:1"
       d="m 8.3967074,1041.0724 c 0.2330431,-2.3972 0.4820398,-3.2558 1.1341828,-3.9109 0.2923312,-0.2938 0.7763368,-0.5833 0.9749958,-0.5833 l 0.09557,0 0,1.6765 0,1.6765 -0.181785,0 -0.181787,0 0,-1.0123 c 0,-0.6909 -0.01329,-1.0041 -0.04204,-0.9863 -0.177199,0.1095 -0.4373861,0.8122 -0.5604962,1.5138 -0.093322,0.5319 -0.2052909,1.4735 -0.2053627,1.727 l -4.9e-5,0.1717 -0.5298686,0 -0.5298687,0 0.026512,-0.2727 z"
       id="path8217"
       inkscape:connector-curvature="0" />
    <path
       style="opacity:1;fill:#000000;fill-opacity:1;stroke:none;stroke-width:0.01262409;stroke-linecap:round;stroke-linejoin:round;stroke-miterlimit:4;stroke-dasharray:none;stroke-opacity:1"
       d="m 22.100923,1043.7191 0,-3.8175 2.21174,0 2.21174,0 0,3.8175 0,3.8175 -2.21174,0 -2.21174,0 0,-3.8175 z m 4.0271,0 0.0026,-3.4211 -1.817885,0 -1.817884,0 0,3.4169 c 0,1.8793 0.003,3.42 0.0068,3.4237 0.0036,0 0.820622,0.01 1.815342,0 l 1.808583,0 0.0026,-3.4211 z"
       id="path8219"
       inkscape:connector-curvature="0" />
    <path
       style="opacity:1;fill:#000000;fill-opacity:1;stroke:none;stroke-width:0.01262409;stroke-linecap:round;stroke-linejoin:round;stroke-miterlimit:4;stroke-dasharray:none;stroke-opacity:1"
       d="m 22.787673,1045.5269 0,-0.1414 1.489643,0 1.489643,0 0,0.1414 0,0.1413 -1.489643,0 -1.489643,0 0,-0.1413 z"
       id="path8221"
       inkscape:connector-curvature="0" />
    <path
       style="opacity:1;fill:#000000;fill-opacity:1;stroke:none;stroke-width:0.01262409;stroke-linecap:round;stroke-linejoin:round;stroke-miterlimit:4;stroke-dasharray:none;stroke-opacity:1"
       d="m 22.828072,1044.8603 0,-0.1413 1.484591,0 1.484594,0 0,0.1413 0,0.1414 -1.484594,0 -1.484591,0 0,-0.1414 z"
       id="path8223"
       inkscape:connector-curvature="0" />
    <path
       style="opacity:1;fill:#000000;fill-opacity:1;stroke:none;stroke-width:0.01262409;stroke-linecap:round;stroke-linejoin:round;stroke-miterlimit:4;stroke-dasharray:none;stroke-opacity:1"
       d="m 22.828072,1044.2241 0,-0.1414 1.484591,0 1.484594,0 0,0.1414 0,0.1413 -1.484594,0 -1.484591,0 0,-0.1413 z"
       id="path8225"
       inkscape:connector-curvature="0" />
    <path
       style="opacity:1;fill:#000000;fill-opacity:1;stroke:none;stroke-width:0.01262409;stroke-linecap:round;stroke-linejoin:round;stroke-miterlimit:4;stroke-dasharray:none;stroke-opacity:1"
       d="m 22.828072,1043.5474 0,-0.1413 1.50479,0 1.50479,0 0,0.1413 0,0.1414 -1.50479,0 -1.50479,0 0,-0.1414 z"
       id="path8227"
       inkscape:connector-curvature="0" />
    <path
       style="opacity:1;fill:#000000;fill-opacity:1;stroke:none;stroke-width:0.01262409;stroke-linecap:round;stroke-linejoin:round;stroke-miterlimit:4;stroke-dasharray:none;stroke-opacity:1"
       d="m 22.828072,1042.8809 0,-0.1414 1.484591,0 1.484594,0 0,0.1414 0,0.1413 -1.484594,0 -1.484591,0 0,-0.1413 z"
       id="path8229"
       inkscape:connector-curvature="0" />
    <path
       style="opacity:1;fill:#000000;fill-opacity:1;stroke:none;stroke-width:0.01262409;stroke-linecap:round;stroke-linejoin:round;stroke-miterlimit:4;stroke-dasharray:none;stroke-opacity:1"
       d="m 22.828072,1042.2446 0,-0.1413 1.484591,0 1.484594,0 0,0.1413 0,0.1414 -1.484594,0 -1.484591,0 0,-0.1414 z"
       id="path8231"
       inkscape:connector-curvature="0" />
    <path
       style="opacity:1;fill:#000000;fill-opacity:1;stroke:none;stroke-width:0.01262409;stroke-linecap:round;stroke-linejoin:round;stroke-miterlimit:4;stroke-dasharray:none;stroke-opacity:1"
       d="m 22.828072,1041.6084 0,-0.1414 1.50479,0 1.50479,0 0,0.1414 0,0.1413 -1.50479,0 -1.50479,0 0,-0.1413 z"
       id="path8233"
       inkscape:connector-curvature="0" />
    <path
       style="opacity:1;fill:#000000;fill-opacity:1;stroke:none;stroke-width:0.01262409;stroke-linecap:round;stroke-linejoin:round;stroke-miterlimit:4;stroke-dasharray:none;stroke-opacity:1"
       d="m 22.838171,1040.9317 0,-0.1413 1.489642,0 1.489643,0 0,0.1413 0,0.1414 -1.489643,0 -1.489642,0 0,-0.1414 z"
       id="path8235"
       inkscape:connector-curvature="0" />
  </g>
</svg>
