<?xml version="1.0" encoding="UTF-8" standalone="no"?>
<!-- Created with Inkscape (http://www.inkscape.org/) -->

<svg
   xmlns:dc="http://purl.org/dc/elements/1.1/"
   xmlns:cc="http://creativecommons.org/ns#"
   xmlns:rdf="http://www.w3.org/1999/02/22-rdf-syntax-ns#"
   xmlns:svg="http://www.w3.org/2000/svg"
   xmlns="http://www.w3.org/2000/svg"
   xmlns:sodipodi="http://sodipodi.sourceforge.net/DTD/sodipodi-0.dtd"
   xmlns:inkscape="http://www.inkscape.org/namespaces/inkscape"
   width="32"
   height="32"
   viewBox="0 0 32 32.000001"
   id="svg4137"
   version="1.1"
   inkscape:version="0.91 r13725"
   sodipodi:docname="memorial_frame.svg">
  <defs
     id="defs4139" />
  <sodipodi:namedview
     id="base"
     pagecolor="#ffffff"
     bordercolor="#666666"
     borderopacity="1.0"
     inkscape:pageopacity="0.0"
     inkscape:pageshadow="2"
     inkscape:zoom="22.627417"
     inkscape:cx="8.470986"
     inkscape:cy="13.674881"
     inkscape:document-units="px"
     inkscape:current-layer="layer1"
     showgrid="false"
     units="px"
     inkscape:window-width="1920"
     inkscape:window-height="1138"
     inkscape:window-x="-8"
     inkscape:window-y="-8"
     inkscape:window-maximized="1" />
  <metadata
     id="metadata4142">
    <rdf:RDF>
      <cc:Work
         rdf:about="">
        <dc:format>image/svg+xml</dc:format>
        <dc:type
           rdf:resource="http://purl.org/dc/dcmitype/StillImage" />
        <dc:title></dc:title>
      </cc:Work>
    </rdf:RDF>
  </metadata>
  <g
     inkscape:label="Ebene 1"
     inkscape:groupmode="layer"
     id="layer1"
     transform="translate(0,-1020.3622)">
    <rect
       style="opacity:1;fill:#000000;fill-opacity:1;stroke:none;stroke-width:2.09500003;stroke-linecap:butt;stroke-linejoin:round;stroke-miterlimit:4;stroke-dasharray:none;stroke-dashoffset:0;stroke-opacity:1"
       id="rect4154"
       width="32"
       height="31.99999"
       x="0"
       y="1020.3622"
       ry="3.2261746" />
    <rect
       style="opacity:1;fill:#ffffff;fill-opacity:1;stroke:none;stroke-width:2.09500003;stroke-linecap:butt;stroke-linejoin:round;stroke-miterlimit:4;stroke-dasharray:none;stroke-dashoffset:0;stroke-opacity:1"
       id="rect4154-7"
       width="28"
       height="28"
       x="-30.045902"
       y="1022.3163"
       ry="2.8229036"
       transform="scale(-1,1)" />
    <path
       style="opacity:1;fill:#000000;fill-opacity:1;stroke:none;stroke-width:1;stroke-linecap:butt;stroke-linejoin:round;stroke-miterlimit:4;stroke-dasharray:none;stroke-dashoffset:0;stroke-opacity:1"
       d=""
       id="path4711"
       inkscape:connector-curvature="0"
       transform="translate(0,1020.3622)" />
    <path
       style="opacity:1;fill:#000000;fill-opacity:1;stroke:none;stroke-width:1;stroke-linecap:butt;stroke-linejoin:round;stroke-miterlimit:4;stroke-dasharray:none;stroke-dashoffset:0;stroke-opacity:1"
       d=""
       id="path4713"
       inkscape:connector-curvature="0"
       transform="translate(0,1020.3622)" />
    <path
       style="opacity:1;fill:#000000;fill-opacity:1;stroke:none;stroke-width:1;stroke-linecap:butt;stroke-linejoin:round;stroke-miterlimit:4;stroke-dasharray:none;stroke-dashoffset:0;stroke-opacity:1"
       d=""
       id="path4715"
       inkscape:connector-curvature="0"
       transform="translate(0,1020.3622)" />
    <path
       style="opacity:1;fill:#000000;fill-opacity:1;stroke:none;stroke-width:25;stroke-linecap:butt;stroke-linejoin:round;stroke-miterlimit:4;stroke-dasharray:none;stroke-dashoffset:0;stroke-opacity:1"
       d="m 4.885399,1047.2051 0,-0.9474 1.4721352,0 c 1.4501447,0 1.4736328,0 1.5724659,-0.1579 0.095099,-0.1497 4.8406339,-9.0288 5.1578169,-9.6505 l 0.149958,-0.294 -0.298815,-0.1519 c -1.54685,-0.7866 -2.797915,-2.3614 -3.2549038,-4.0973 -0.1996118,-0.7582 -0.184115,-2.3404 0.030246,-3.0878 0.6734208,-2.3482 2.5169908,-4.0727 4.9610298,-4.6406 0.86069,-0.2 2.24363,-0.1709 3.141772,0.066 2.051896,0.5414 3.733662,2.0162 4.473616,3.923 0.332462,0.8567 0.445164,1.5777 0.397727,2.5444 -0.05046,1.0287 -0.164222,1.4751 -0.61126,2.3989 -0.567148,1.1719 -1.409538,2.0919 -2.498862,2.729 -0.245654,0.1436 -0.446646,0.2887 -0.446646,0.3224 0,0.087 5.195777,9.8251 5.321455,9.9734 0.0931,0.1099 0.261821,0.1229 1.602026,0.1229 l 1.497965,0 0,0.9474 0,0.9474 -11.333861,0 -11.3338623,0 0,-0.9474 z m 17.40432,-0.9753 c 0,-0.015 -1.13387,-2.1517 -2.51971,-4.7473 l -2.51971,-4.7193 -1.076949,0.01 -1.076951,0.01 -2.507652,4.6876 c -1.379208,2.5782 -2.50821,4.7114 -2.508889,4.7403 -6.95e-4,0.029 2.746262,0.053 6.104313,0.053 3.358051,0 6.105548,-0.013 6.105548,-0.028 z m -5.207812,-11.4483 c 0.322727,-0.064 0.80713,-0.2373 1.200859,-0.4295 2.327425,-1.1365 3.208769,-3.9453 1.920994,-6.1221 -0.539758,-0.9124 -1.361734,-1.5873 -2.433018,-1.9977 -0.548147,-0.21 -0.608808,-0.218 -1.656751,-0.218 -1.04598,0 -1.109431,0.01 -1.651641,0.2161 -1.609918,0.617 -2.622594,1.7827 -2.949289,3.395 -0.383357,1.892 0.619338,3.8408 2.432159,4.7271 1.048094,0.5124 2.035126,0.6475 3.136687,0.4291 z"
       id="path4740"
       inkscape:connector-curvature="0" />
  </g>
</svg>
