<?xml version="1.0" encoding="UTF-8" standalone="no"?>
<!-- Created with Inkscape (http://www.inkscape.org/) -->

<svg
   xmlns:dc="http://purl.org/dc/elements/1.1/"
   xmlns:cc="http://creativecommons.org/ns#"
   xmlns:rdf="http://www.w3.org/1999/02/22-rdf-syntax-ns#"
   xmlns:svg="http://www.w3.org/2000/svg"
   xmlns="http://www.w3.org/2000/svg"
   xmlns:sodipodi="http://sodipodi.sourceforge.net/DTD/sodipodi-0.dtd"
   xmlns:inkscape="http://www.inkscape.org/namespaces/inkscape"
   width="32"
   height="32"
   viewBox="0 0 32 32.000001"
   id="svg4137"
   version="1.1"
   inkscape:version="0.91 r13725"
   sodipodi:docname="money_changer_frame_color.svg">
  <defs
     id="defs4139" />
  <sodipodi:namedview
     id="base"
     pagecolor="#ffffff"
     bordercolor="#666666"
     borderopacity="1.0"
     inkscape:pageopacity="0.0"
     inkscape:pageshadow="2"
     inkscape:zoom="22.627417"
     inkscape:cx="8.470986"
     inkscape:cy="13.674881"
     inkscape:document-units="px"
     inkscape:current-layer="layer1"
     showgrid="false"
     units="px"
     inkscape:window-width="1920"
     inkscape:window-height="1138"
     inkscape:window-x="-8"
     inkscape:window-y="-8"
     inkscape:window-maximized="1" />
  <metadata
     id="metadata4142">
    <rdf:RDF>
      <cc:Work
         rdf:about="">
        <dc:format>image/svg+xml</dc:format>
        <dc:type
           rdf:resource="http://purl.org/dc/dcmitype/StillImage" />
        <dc:title></dc:title>
      </cc:Work>
    </rdf:RDF>
  </metadata>
  <g
     inkscape:label="Ebene 1"
     inkscape:groupmode="layer"
     id="layer1"
     transform="translate(0,-1020.3622)">
    <rect
       style="opacity:1;fill:#ffd42a;fill-opacity:1;stroke:none;stroke-width:2.09500003;stroke-linecap:butt;stroke-linejoin:round;stroke-miterlimit:4;stroke-dasharray:none;stroke-dashoffset:0;stroke-opacity:1"
       id="rect4154"
       width="32"
       height="31.99999"
       x="0"
       y="1020.3622"
       ry="3.2261746" />
    <rect
       style="opacity:1;fill:#ffffff;fill-opacity:1;stroke:none;stroke-width:2.09500003;stroke-linecap:butt;stroke-linejoin:round;stroke-miterlimit:4;stroke-dasharray:none;stroke-dashoffset:0;stroke-opacity:1"
       id="rect4154-7"
       width="28"
       height="28"
       x="-30.045902"
       y="1022.3163"
       ry="2.8229036"
       transform="scale(-1,1)" />
    <path
       style="opacity:1;fill:#000000;fill-opacity:1;stroke:none;stroke-width:1;stroke-linecap:butt;stroke-linejoin:round;stroke-miterlimit:4;stroke-dasharray:none;stroke-dashoffset:0;stroke-opacity:1"
       d=""
       id="path4711"
       inkscape:connector-curvature="0"
       transform="translate(0,1020.3622)" />
    <path
       style="opacity:1;fill:#000000;fill-opacity:1;stroke:none;stroke-width:1;stroke-linecap:butt;stroke-linejoin:round;stroke-miterlimit:4;stroke-dasharray:none;stroke-dashoffset:0;stroke-opacity:1"
       d=""
       id="path4713"
       inkscape:connector-curvature="0"
       transform="translate(0,1020.3622)" />
    <path
       style="opacity:1;fill:#000000;fill-opacity:1;stroke:none;stroke-width:1;stroke-linecap:butt;stroke-linejoin:round;stroke-miterlimit:4;stroke-dasharray:none;stroke-dashoffset:0;stroke-opacity:1"
       d=""
       id="path4715"
       inkscape:connector-curvature="0"
       transform="translate(0,1020.3622)" />
    <path
       style="fill:#ffd42a;fill-opacity:1;stroke:none;stroke-width:2.18499994;stroke-miterlimit:4;stroke-dasharray:none;stroke-opacity:1"
       d="m 17.817748,1048.6016 c -1.684336,-0.2586 -2.887701,-1.8682 -2.675174,-3.5785 0.162284,-1.306 0.969433,-2.3124 2.187205,-2.7272 0.300317,-0.1024 0.430915,-0.121 0.862623,-0.1243 0.612764,-0.01 0.860532,0.051 1.41343,0.3156 0.353979,0.1694 0.476342,0.2587 0.797889,0.5819 0.420423,0.4226 0.663893,0.8309 0.847512,1.4213 0.14864,0.478 0.148665,1.3356 4.5e-5,1.8137 -0.420044,1.3513 -1.492292,2.2264 -2.837699,2.3159 -0.182477,0.013 -0.450605,0 -0.59584,-0.019 l 9e-6,0 z m 0.949733,-1.3242 0.02213,-0.4203 0.63229,-0.012 0.632291,-0.013 -0.01296,-0.3194 -0.01297,-0.3195 -0.630378,-0.013 -0.630377,-0.013 0,-0.1524 0,-0.1524 0.630377,-0.012 0.630378,-0.013 0,-0.3318 0,-0.3318 -0.428762,-0.022 -0.428761,-0.022 0.489403,-0.8848 c 0.269173,-0.4866 0.49908,-0.9096 0.510909,-0.94 0.01647,-0.042 -0.101762,-0.055 -0.50472,-0.055 l -0.526227,0 -0.418543,0.8295 -0.418542,0.8294 -0.417238,-0.8294 -0.417236,-0.8295 -0.526383,0 -0.526382,0 0.210034,0.3871 c 0.115512,0.2129 0.346058,0.634 0.512308,0.9358 0.166252,0.3017 0.302275,0.5555 0.302275,0.564 0,0.01 -0.189113,0.015 -0.420253,0.015 l -0.42025,0 0,0.3539 0,0.3539 0.619317,0 0.619319,0 0,0.1548 0,0.1549 -0.619319,0 -0.619317,0 0,0.3305 0,0.3306 0.608258,0.013 0.608259,0.013 0.01269,0.4328 0.01269,0.4328 0.45181,-0.013 0.451807,-0.012 0.02213,-0.4202 z"
       id="path36903"
       inkscape:connector-curvature="0" />
    <path
       style="fill:#ffd42a;fill-opacity:1;stroke:none;stroke-width:2.18499994;stroke-miterlimit:4;stroke-dasharray:none;stroke-opacity:1"
       d="m 8.2058758,1043.8991 c -0.4768605,-0.058 -0.9007889,-0.2128 -1.3211044,-0.4827 -0.3132012,-0.2011 -0.7848673,-0.6892 -0.9764423,-1.0104 -0.7806417,-1.3089 -0.5940578,-2.9735 0.4524716,-4.0368 0.4053535,-0.4119 0.9362345,-0.7172 1.4854105,-0.8545 0.39587,-0.099 1.03847,-0.099 1.4331681,-5e-4 0.5337086,0.1334 0.9967277,0.3936 1.4148907,0.7951 1.01251,0.972 1.289396,2.4908 0.686595,3.7662 -0.244925,0.5182 -0.550871,0.8993 -0.98337,1.2249 -0.6235697,0.4695 -1.4330549,0.6906 -2.1916192,0.5986 z m 1.3716146,-0.8742 c 0.161845,-0.017 0.3096443,-0.043 0.3284423,-0.057 0.018799,-0.014 0.094004,-0.043 0.1671213,-0.064 l 0.132942,-0.038 0,-0.4679 c 0,-0.2574 -0.0062,-0.468 -0.01384,-0.468 -0.0076,0 -0.102623,0.056 -0.2111428,0.1236 -0.1085188,0.068 -0.2574439,0.1332 -0.3309426,0.1449 -0.073498,0.011 -0.1411908,0.034 -0.1504275,0.049 -0.021231,0.034 -0.5761464,0.036 -0.5761464,0 0,-0.014 -0.070383,-0.043 -0.1564014,-0.066 -0.086021,-0.022 -0.1564015,-0.053 -0.1564015,-0.068 0,-0.016 -0.0176,-0.029 -0.039102,-0.029 -0.021503,-2e-4 -0.1024412,-0.062 -0.1798615,-0.1381 -0.1869645,-0.1828 -0.2128044,-0.2169 -0.2367994,-0.3125 -0.011213,-0.045 -0.032889,-0.089 -0.048186,-0.098 -0.015299,-0.01 -0.027814,-0.044 -0.027814,-0.078 0,-0.058 0.028469,-0.061 0.7515009,-0.061 0.8579161,0 0.7816404,0.028 0.8272031,-0.305 l 0.022465,-0.1642 -0.8318626,0 -0.8318639,0 0,-0.2033 0,-0.2033 0.872019,0 c 0.659596,0 0.8798568,-0.01 0.904201,-0.039 0.017696,-0.022 0.04172,-0.1095 0.053378,-0.1955 0.011662,-0.086 0.027996,-0.181 0.03632,-0.2111 0.014152,-0.051 -0.043269,-0.055 -0.894118,-0.055 -0.787357,0 -0.9092368,-0.01 -0.9092368,-0.047 0,-0.026 0.012313,-0.047 0.027366,-0.047 0.015054,0 0.035725,-0.042 0.045948,-0.093 0.017416,-0.087 0.043699,-0.1243 0.2175103,-0.3086 0.2212525,-0.2345 0.4438047,-0.317 0.8571878,-0.3176 0.324897,-5e-4 0.5366819,0.045 0.6701132,0.1433 0.097757,0.072 0.1076361,0.074 0.1443751,0.024 0.0217,-0.03 0.03943,-0.091 0.03943,-0.1356 0,-0.045 0.01248,-0.095 0.02773,-0.1114 0.0284,-0.03 0.09739,-0.3894 0.09739,-0.5068 0,-0.048 -0.02635,-0.071 -0.10166,-0.087 -0.05592,-0.013 -0.1172384,-0.034 -0.1362796,-0.05 -0.019044,-0.015 -0.1856642,-0.044 -0.3702735,-0.064 -0.2594929,-0.028 -0.4183597,-0.028 -0.7001364,0 -0.2004643,0.021 -0.3780031,0.052 -0.39453,0.068 -0.016524,0.016 -0.051916,0.03 -0.078644,0.03 -0.049911,0 -0.4816775,0.2005 -0.5448613,0.253 -0.019402,0.016 -0.08519,0.068 -0.1461923,0.1149 -0.1720331,0.1328 -0.4677725,0.4927 -0.4677725,0.5692 0,0.018 -0.014074,0.033 -0.031279,0.033 -0.017205,0 -0.031761,0.018 -0.032337,0.039 -6.047e-4,0.021 -0.02826,0.095 -0.061499,0.1642 -0.03324,0.069 -0.060912,0.1487 -0.0615,0.1774 -0.00271,0.1317 -0.033396,0.1511 -0.2390099,0.1511 -0.1717155,0 -0.1999752,0.01 -0.1999752,0.056 0,0.031 -0.01388,0.07 -0.030843,0.087 -0.016961,0.017 -0.034561,0.1007 -0.039102,0.1861 l -0.00822,0.1553 0.195502,0.01 0.195502,0.01 0,0.2018 0,0.2018 -0.1487655,0 c -0.1324993,0 -0.1527965,0.01 -0.1856299,0.086 -0.020278,0.047 -0.04642,0.1529 -0.058103,0.2346 l -0.021241,0.1486 0.2503121,0 0.250314,0 0.021959,0.1173 c 0.012087,0.065 0.048835,0.1763 0.08168,0.2485 0.032845,0.072 0.059724,0.1461 0.059724,0.1642 0,0.018 0.014074,0.033 0.031279,0.033 0.017206,0 0.031279,0.019 0.031279,0.042 0,0.023 0.028154,0.074 0.062559,0.1142 0.034413,0.04 0.062559,0.082 0.062559,0.095 0,0.04 0.3775227,0.4024 0.4399076,0.4222 0.033319,0.01 0.06058,0.03 0.06058,0.044 0,0.036 0.344242,0.21 0.4696508,0.2368 0.059966,0.013 0.1243237,0.036 0.1430126,0.051 0.090752,0.073 0.6493582,0.1033 1.0735729,0.059 z"
       id="path36905"
       inkscape:connector-curvature="0" />
    <path
       style="fill:#ffd42a;fill-opacity:1;stroke:none;stroke-width:2.18499994;stroke-miterlimit:4;stroke-dasharray:none;stroke-opacity:1"
       d="m 22.858878,1038.2715 c -1.064188,-0.1162 -1.987124,-0.776 -2.472886,-1.7677 -0.09269,-0.1892 -0.193564,-0.4461 -0.224156,-0.5708 l -0.05564,-0.2266 -8.187619,-2e-4 -8.1876162,-2e-4 0,-5.5366 0,-5.5366 12.3557182,0 12.355719,0 0,5.4871 c 0,3.018 -0.0086,5.5094 -0.019,5.5367 -0.0168,0.044 -0.142547,0.049 -1.093602,0.049 l -1.074619,0 -0.03354,0.133 c -0.30172,1.1961 -1.27062,2.1531 -2.40874,2.3793 -0.310507,0.062 -0.684395,0.082 -0.954048,0.053 z m -0.993164,-0.9402 c 0.11085,-0.052 0.245935,-0.1027 0.300191,-0.1121 0.05425,-0.01 0.128892,-0.031 0.165855,-0.049 0.03698,-0.018 0.121413,-0.025 0.187682,-0.015 0.216385,0.031 1.023151,0.1989 1.154946,0.241 0.118225,0.038 0.785417,0.041 0.808365,0 0.0093,-0.015 0.07886,-0.035 0.154911,-0.046 0.189269,-0.026 0.362189,-0.1162 0.363145,-0.1896 7.62e-4,-0.059 -0.120637,-0.3329 -0.160942,-0.3635 -0.01163,-0.01 -0.0307,-0.054 -0.04253,-0.1016 -0.01175,-0.047 -0.03405,-0.086 -0.0494,-0.086 -0.01534,0 -0.02789,-0.027 -0.02789,-0.061 0,-0.033 -0.01519,-0.07 -0.03375,-0.082 -0.0422,-0.026 -0.318111,0.048 -0.348292,0.093 -0.03057,0.046 -0.720352,0.045 -0.778342,0 -0.073,-0.058 -0.549678,-0.1154 -0.810982,-0.097 -0.20208,0.014 -0.24223,0.01 -0.228374,-0.027 0.0094,-0.024 0.02734,-0.044 0.04021,-0.044 0.03611,0 0.282706,-0.3636 0.282706,-0.4168 0,-0.026 0.01625,-0.053 0.0361,-0.059 0.02164,-0.01 0.04204,-0.1148 0.05094,-0.2685 l 0.01484,-0.2565 0.415705,0 c 0.22864,0 0.437972,-0.01 0.465186,-0.019 0.04094,-0.016 0.04949,-0.078 0.04949,-0.3597 l 0,-0.3408 -0.530963,0 -0.530961,0 -0.04824,-0.093 c -0.02653,-0.051 -0.05702,-0.1574 -0.06772,-0.2355 -0.01075,-0.078 -0.0316,-0.1497 -0.0464,-0.1588 -0.0148,-0.01 -0.02691,-0.1044 -0.02691,-0.2115 0,-0.398 0.240246,-0.646 0.625606,-0.646 0.173477,0 0.350104,0.064 0.448959,0.1629 0.02584,0.026 0.07729,0.1159 0.114325,0.2001 0.09974,0.2266 0.113488,0.2474 0.160304,0.2419 0.02352,0 0.22263,-0.022 0.442456,-0.044 0.219828,-0.021 0.404885,-0.047 0.41124,-0.058 0.02013,-0.033 -0.04962,-0.3788 -0.07646,-0.3788 -0.01412,0 -0.03496,-0.042 -0.0463,-0.094 -0.01138,-0.052 -0.03358,-0.094 -0.0494,-0.094 -0.01582,0 -0.02879,-0.021 -0.02879,-0.046 0,-0.113 -0.402339,-0.4546 -0.535282,-0.4546 -0.0296,0 -0.0587,-0.015 -0.06466,-0.033 -0.01629,-0.049 -0.511559,-0.1371 -0.760739,-0.1355 -0.231542,0 -0.682036,0.081 -0.744771,0.1306 -0.02048,0.016 -0.07244,0.04 -0.115437,0.053 -0.112263,0.034 -0.37565,0.2504 -0.468272,0.3848 -0.04351,0.063 -0.09672,0.1336 -0.118225,0.1564 -0.0215,0.023 -0.0391,0.068 -0.0391,0.099 0,0.032 -0.0176,0.064 -0.0391,0.071 -0.0519,0.017 -0.05633,0.953 -0.0046,0.9865 0.01894,0.013 0.04164,0.061 0.05039,0.1083 l 0.01596,0.086 -0.262568,0 -0.26257,0 0.0089,0.3519 0.0089,0.3519 0.351903,0.01 0.351903,0.01 -1.5e-5,0.1475 c -1.8e-5,0.1614 -0.08406,0.4123 -0.199183,0.5946 -0.0892,0.1413 -0.426781,0.4748 -0.481147,0.4754 -0.05635,5e-4 -0.04815,0.084 0.02105,0.2151 0.03309,0.062 0.111025,0.2228 0.173215,0.3561 0.06219,0.1333 0.121737,0.2424 0.132324,0.2424 0.01062,0 0.10995,-0.043 0.220801,-0.095 z m -1.740816,-3.0217 c 0.237235,-1.1028 1.078196,-2.0314 2.143892,-2.3674 0.878514,-0.277 1.823238,-0.1411 2.600397,0.374 0.665437,0.4411 1.145355,1.1301 1.342731,1.9277 l 0.08318,0.3362 0.510615,0 0.510614,0 0,-4.4106 0,-4.4105 -11.229629,0 -11.2296266,0 0,4.4106 0,4.4106 7.6065086,-0.01 7.606511,-0.01 0.05481,-0.2548 z"
       id="path36907"
       inkscape:connector-curvature="0" />
    <path
       style="fill:#ffd42a;fill-opacity:1;stroke:none;stroke-width:2.18499994;stroke-miterlimit:4;stroke-dasharray:none;stroke-opacity:1"
       d="m 15.633129,1033.2654 c -1.899652,-0.2935 -3.110274,-2.259 -2.560285,-4.1569 0.593219,-2.0471 2.908894,-2.9385 4.67722,-1.8004 0.499494,0.3214 1.001749,0.9385 1.215958,1.494 0.17299,0.4486 0.228027,0.743 0.229281,1.2267 0.0012,0.462 -0.02782,0.6562 -0.159006,1.0635 -0.283638,0.8807 -0.979846,1.6348 -1.824391,1.9759 -0.459547,0.1856 -1.119715,0.2681 -1.578777,0.1972 z m 0.641247,-1.0279 0,-0.2467 0.1173,-0.02 c 0.17433,-0.029 0.543698,-0.148 0.636201,-0.204 0.28178,-0.1703 0.52899,-0.394 0.52899,-0.4785 0,-0.016 0.02111,-0.05 0.04692,-0.075 0.02581,-0.026 0.04692,-0.08 0.04692,-0.1212 0,-0.041 0.01408,-0.083 0.03129,-0.093 0.04835,-0.03 0.03609,-0.4527 -0.01759,-0.6069 -0.05994,-0.1721 -0.213464,-0.3888 -0.3133,-0.4422 -0.04167,-0.022 -0.07575,-0.051 -0.07575,-0.064 0,-0.037 -0.464729,-0.2231 -0.735087,-0.2936 l -0.250242,-0.065 -0.0086,-0.5232 c -0.0047,-0.2878 -0.0017,-0.5232 0.0066,-0.5232 0.03554,0 0.23642,0.1071 0.23642,0.1261 0,0.011 0.02816,0.053 0.06256,0.093 0.03441,0.04 0.06255,0.09 0.06255,0.1105 0,0.089 0.07994,0.1 0.455399,0.063 0.397963,-0.039 0.451731,-0.054 0.451731,-0.1298 0,-0.1652 -0.31574,-0.5741 -0.525365,-0.6804 -0.136292,-0.069 -0.460165,-0.1769 -0.606343,-0.2016 -0.132293,-0.022 -0.135335,-0.026 -0.144751,-0.1552 l -0.0096,-0.1322 -0.248444,0 -0.248443,0 0,0.1407 c 0,0.1354 -0.0036,0.1408 -0.09318,0.1408 -0.0965,0 -0.520323,0.1318 -0.657547,0.2045 -0.16552,0.088 -0.469203,0.421 -0.469203,0.515 0,0.028 -0.01641,0.067 -0.03649,0.087 -0.02236,0.022 -0.03625,0.1429 -0.0359,0.3113 5.19e-4,0.2498 0.0097,0.2915 0.101438,0.4597 0.09879,0.1812 0.347755,0.4563 0.412971,0.4563 0.01813,0 0.06628,0.026 0.106975,0.058 0.04071,0.032 0.176652,0.09 0.302096,0.1278 0.413089,0.126 0.368844,0.045 0.368844,0.6735 0,0.4653 -0.0071,0.5481 -0.04671,0.5481 -0.07855,0 -0.407191,-0.3496 -0.440986,-0.4692 l -0.03094,-0.1095 -0.24898,0.011 c -0.136939,0.01 -0.272688,0.024 -0.301664,0.039 -0.02899,0.015 -0.122163,0.028 -0.207104,0.028 l -0.15442,0 0.02559,0.1371 c 0.07087,0.3794 0.417377,0.7755 0.795253,0.9091 0.08602,0.03 0.184553,0.067 0.21896,0.082 0.03441,0.015 0.132943,0.038 0.218965,0.052 l 0.156402,0.025 0.0092,0.2418 0.0092,0.2417 0.248928,0 0.248925,0 0,-0.2467 z"
       id="path36909"
       inkscape:connector-curvature="0" />
    <path
       style="fill:#ffd42a;fill-opacity:1;stroke:none;stroke-width:2.18499994;stroke-miterlimit:4;stroke-dasharray:none;stroke-opacity:1"
       d="m 15.726271,1029.3623 c -0.01721,0 -0.03796,-0.014 -0.04614,-0.022 -0.0081,-0.01 -0.02803,-0.014 -0.04413,-0.014 -0.01609,0 -0.03839,-0.01 -0.04952,-0.02 -0.05221,-0.05 -0.104275,-0.09 -0.118387,-0.09 -0.0086,0 -0.01553,-0.014 -0.01553,-0.032 0,-0.017 -0.01062,-0.036 -0.02346,-0.041 -0.0129,-0.01 -0.02345,-0.022 -0.02345,-0.037 0,-0.015 -0.01062,-0.032 -0.02346,-0.037 -0.03458,-0.013 -0.03458,-0.3072 0,-0.3072 0.0129,0 0.02346,-0.011 0.02346,-0.025 0,-0.03 0.154325,-0.1799 0.215116,-0.2083 0.02362,-0.011 0.05516,-0.026 0.0701,-0.034 0.01495,-0.01 0.04133,-0.014 0.05866,-0.014 0.03083,0 0.03149,0.01 0.03149,0.4457 0,0.2452 -0.0051,0.445 -0.01163,0.444 -0.0064,-9e-4 -0.02581,-0.01 -0.04301,-0.01 z"
       id="path36911"
       inkscape:connector-curvature="0" />
    <path
       style="fill:#ffd42a;fill-opacity:1;stroke:none;stroke-width:2.18499994;stroke-miterlimit:4;stroke-dasharray:none;stroke-opacity:1"
       d="m 16.281497,1030.8416 0,-0.5181 0.06648,0.01 c 0.03655,0.01 0.07315,0.017 0.08134,0.026 0.0081,0.01 0.03063,0.015 0.0499,0.015 0.01928,0 0.03941,0.01 0.04471,0.016 0.0053,0.01 0.02327,0.016 0.03991,0.016 0.02685,0 0.0704,0.029 0.1331,0.09 0.01112,0.011 0.0278,0.019 0.03702,0.019 0.0092,0 0.01676,0.014 0.01676,0.032 0,0.018 0.01062,0.036 0.02346,0.041 0.0129,0.01 0.02346,0.022 0.02346,0.037 0,0.016 0.0081,0.031 0.01801,0.034 0.012,0.01 0.01802,0.06 0.01802,0.1686 0,0.1089 -0.006,0.1647 -0.01802,0.1687 -0.0099,0 -0.01801,0.02 -0.01801,0.036 0,0.017 -0.01063,0.034 -0.02346,0.04 -0.0129,0.01 -0.02346,0.019 -0.02346,0.031 0,0.025 -0.05496,0.084 -0.0782,0.084 -0.0086,0 -0.01564,0.01 -0.01564,0.016 0,0.01 -0.0074,0.016 -0.01632,0.016 -0.009,0 -0.0353,0.018 -0.05849,0.039 -0.02319,0.021 -0.05809,0.039 -0.07751,0.039 -0.01944,0 -0.03535,0.01 -0.03535,0.016 0,0.01 -0.02069,0.016 -0.046,0.016 -0.0253,0 -0.05035,0.01 -0.05566,0.016 -0.0053,0.01 -0.02684,0.016 -0.04785,0.016 l -0.03818,0 0,-0.5181 z"
       id="path36913"
       inkscape:connector-curvature="0" />
  </g>
</svg>
