<?xml version="1.0" encoding="UTF-8" standalone="no"?>
<!-- Created with Inkscape (http://www.inkscape.org/) -->

<svg
   xmlns:dc="http://purl.org/dc/elements/1.1/"
   xmlns:cc="http://creativecommons.org/ns#"
   xmlns:rdf="http://www.w3.org/1999/02/22-rdf-syntax-ns#"
   xmlns:svg="http://www.w3.org/2000/svg"
   xmlns="http://www.w3.org/2000/svg"
   xmlns:sodipodi="http://sodipodi.sourceforge.net/DTD/sodipodi-0.dtd"
   xmlns:inkscape="http://www.inkscape.org/namespaces/inkscape"
   width="32"
   height="32"
   viewBox="0 0 32 32.000001"
   id="svg4135"
   version="1.1"
   inkscape:version="0.91 r13725"
   sodipodi:docname="observation_tower_frame.svg">
  <defs
     id="defs4137" />
  <sodipodi:namedview
     id="base"
     pagecolor="#ffffff"
     bordercolor="#666666"
     borderopacity="1.0"
     inkscape:pageopacity="0.0"
     inkscape:pageshadow="2"
     inkscape:zoom="15.839192"
     inkscape:cx="-3.79718"
     inkscape:cy="7.4212154"
     inkscape:document-units="px"
     inkscape:current-layer="layer1"
     showgrid="false"
     units="px"
     inkscape:window-width="1920"
     inkscape:window-height="1138"
     inkscape:window-x="-8"
     inkscape:window-y="-8"
     inkscape:window-maximized="1" />
  <metadata
     id="metadata4140">
    <rdf:RDF>
      <cc:Work
         rdf:about="">
        <dc:format>image/svg+xml</dc:format>
        <dc:type
           rdf:resource="http://purl.org/dc/dcmitype/StillImage" />
        <dc:title></dc:title>
      </cc:Work>
    </rdf:RDF>
  </metadata>
  <g
     inkscape:label="Ebene 1"
     inkscape:groupmode="layer"
     id="layer1"
     transform="translate(0,-1020.3622)">
    <path
       inkscape:connector-curvature="0"
       id="path4140"
       d="m 3.222482,1020.3622 25.555014,0 c 1.723663,0 3.222504,1.424 3.222504,3.2226 l 0,25.5548 c 0,1.7239 -1.498841,3.2226 -3.222504,3.2226 l -25.555014,0 C 1.423886,1052.3622 0,1050.8635 0,1049.1396 l 0,-25.5548 c 0,-1.7986 1.423886,-3.2226 3.222482,-3.2226 z"
       style="fill:#000000;fill-opacity:1;fill-rule:nonzero;stroke:none" />
    <path
       inkscape:connector-curvature="0"
       id="path4142"
       d="m 27.203716,1022.3106 -22.33253,0 c -1.573762,0 -2.847765,1.2742 -2.847765,2.848 l 0,22.3325 c 0,1.5738 1.274003,2.7726 2.847765,2.7726 l 22.33253,0 c 1.57378,0 2.847792,-1.1988 2.847792,-2.7726 l 0,-22.3325 c 0,-1.5738 -1.274012,-2.848 -2.847792,-2.848 z"
       style="fill:#ffffff;fill-opacity:1;fill-rule:nonzero;stroke:none" />
    <path
       style="opacity:1;fill:#000000;fill-opacity:1;stroke:none;stroke-width:25;stroke-linecap:butt;stroke-linejoin:round;stroke-miterlimit:4;stroke-dasharray:none;stroke-dashoffset:0;stroke-opacity:1"
       d="m 7.7003679,1047.066 c -0.3401907,-0.2074 -0.3223652,0.098 -0.3218539,-5.5052 l 4.712e-4,-5.1421 -0.1162793,0 c -0.11459,0 -0.1168073,0.024 -0.1526236,1.617 -0.03958,1.761 -0.046433,1.7973 -0.3642344,1.9289 -0.2103078,0.087 -0.4170376,0.04 -0.5940602,-0.1378 l -0.1356153,-0.1356 0.015646,-2.2791 0.015646,-2.2792 0.1663225,-0.133 0.1663225,-0.133 2.5078233,-3e-4 2.5078233,-3e-4 0.181057,0.1618 0.181058,0.1617 0.01635,2.11 c 0.01839,2.3735 0.0035,2.5089 -0.290434,2.649 -0.219336,0.1046 -0.407185,0.07 -0.619916,-0.1124 l -0.15081,-0.1298 -0.02551,-1.6439 c -0.02419,-1.559 -0.03087,-1.644 -0.129025,-1.644 -0.100184,0 -0.103705,0.1485 -0.10939,4.6154 -0.0032,2.5385 -0.02194,4.8732 -0.04158,5.1884 -0.03479,0.5582 -0.04035,0.577 -0.216764,0.7346 -0.2054901,0.1835 -0.472924,0.2134 -0.7282367,0.082 -0.3472546,-0.1795 -0.3380493,-0.098 -0.3388811,-3.0086 -4.158e-4,-1.457 -0.01615,-2.7066 -0.034964,-2.7769 -0.027867,-0.104 -0.066259,-0.1246 -0.2071462,-0.1109 l -0.1729393,0.017 -0.02772,2.7998 c -0.015246,1.5398 -0.048907,2.8428 -0.074802,2.8956 -0.069709,0.142 -0.3865925,0.3199 -0.5693114,0.3197 -0.087878,-10e-5 -0.2392686,-0.048 -0.336423,-0.108 z"
       id="path4872"
       inkscape:connector-curvature="0" />
    <path
       style="opacity:1;fill:#000000;fill-opacity:1;stroke:none;stroke-width:25;stroke-linecap:butt;stroke-linejoin:round;stroke-miterlimit:4;stroke-dasharray:none;stroke-dashoffset:0;stroke-opacity:1"
       d="m 8.5777547,1034.4146 c -0.6691447,-0.1926 -1.1140517,-0.8415 -1.0442276,-1.5232 0.053814,-0.5254 0.4372117,-1.0299 0.9045073,-1.1902 0.3259217,-0.1118 0.8395553,-0.09 1.1022031,0.047 0.285775,0.1488 0.6088735,0.4848 0.7180245,0.7468 0.124552,0.2989 0.11118,0.8431 -0.02777,1.1302 -0.164015,0.3387 -0.5400553,0.663 -0.8890932,0.7667 -0.3266243,0.097 -0.4900955,0.102 -0.7636424,0.023 z"
       id="path4874"
       inkscape:connector-curvature="0" />
    <path
       style="opacity:1;fill:#000000;fill-opacity:1;stroke:none;stroke-width:25;stroke-linecap:butt;stroke-linejoin:round;stroke-miterlimit:4;stroke-dasharray:none;stroke-dashoffset:0;stroke-opacity:1"
       d="m 13.470306,1047.0772 c 0.05009,-0.1678 2.805994,-13.3334 2.805994,-13.4049 0,-0.014 -0.411649,-0.025 -0.914774,-0.025 l -0.914773,0 2.04e-4,-1.8988 c 1.11e-4,-1.0444 0.01629,-2.2504 0.03594,-2.6802 l 0.03574,-0.7813 1.197612,-0.6587 c 2.691231,-1.4803 3.701472,-2.0229 3.871316,-2.0792 0.165351,-0.054 0.22188,-0.035 0.748451,0.2632 0.313275,0.1773 0.644436,0.3589 0.735913,0.4034 0.09148,0.045 0.184652,0.107 0.207054,0.1388 0.0224,0.032 0.04112,0.04 0.04158,0.017 4.44e-4,-0.023 0.131828,0.039 0.291914,0.1387 0.47419,0.2926 0.615388,0.3718 0.776172,0.4352 0.08385,0.033 0.152461,0.083 0.152461,0.1102 0,0.027 0.03118,0.051 0.0693,0.053 0.05342,0 1.628461,0.8737 2.092891,1.1585 0.07164,0.044 0.08572,0.4203 0.10165,2.7161 l 0.01849,2.665 -0.781856,0 -0.781856,0 0.02914,0.1248 c 0.02916,0.1248 1.156548,5.543 2.193846,10.5435 0.303141,1.4613 0.551165,2.7025 0.551165,2.7581 0,0.093 -0.05884,0.1013 -0.684464,0.1013 l -0.684465,0 -0.126931,-0.605 -0.126932,-0.6048 -0.940355,-1.2108 c -2.444689,-3.1478 -3.66719,-4.6783 -3.723403,-4.6614 -0.03378,0.01 -1.073099,1.2799 -2.309586,2.8219 l -2.24816,2.8036 -0.09289,0.4371 c -0.05109,0.2405 -0.1205,0.5682 -0.15425,0.7283 l -0.06137,0.2911 -0.719873,0 c -0.659665,0 -0.717451,-0.01 -0.690912,-0.097 z m 9.878487,-6.1751 c -0.570396,-2.7614 -0.861329,-4.112 -0.892401,-4.1431 -0.01584,-0.016 -0.06283,0.01 -0.104425,0.051 -0.178792,0.1888 -1.598346,1.9629 -1.623894,2.0295 -0.02558,0.067 0.683649,1.006 2.328959,3.0844 0.333127,0.4209 0.615985,0.7549 0.628572,0.7423 0.01258,-0.012 -0.138978,-0.8064 -0.336811,-1.7641 z m -6.340974,0.2707 c 1.707615,-2.134 1.781724,-2.2352 1.742298,-2.3811 -0.03752,-0.1389 -1.526655,-2.0481 -1.622314,-2.08 -0.03409,-0.011 -0.107142,0.219 -0.17469,0.5506 -0.06386,0.3136 -0.329343,1.593 -0.589972,2.8432 -0.461459,2.2135 -0.498681,2.4117 -0.453058,2.4117 0.01203,0 0.506009,-0.605 1.097736,-1.3444 z m 3.191536,-3.9918 c 0.209199,-0.2516 0.719767,-0.8818 1.134596,-1.4006 l 0.754235,-0.9432 -0.12418,-0.5814 -0.124181,-0.5814 -2.07441,0 -2.074409,0 -0.10115,0.5428 -0.10115,0.5428 0.512723,0.6769 c 0.848728,1.1205 1.717396,2.2015 1.769017,2.2015 0.0267,0 0.219711,-0.2059 0.428909,-0.4574 z m 2.896168,-6.7227 0,-1.2478 -3.423472,0.014 -3.423472,0.014 -0.01492,1.2336 -0.01492,1.2335 3.438393,0 3.438393,0 0,-1.2478 z"
       id="path4876"
       inkscape:connector-curvature="0" />
  </g>
</svg>
