<?xml version="1.0" encoding="UTF-8" standalone="no"?>
<!-- Created with Inkscape (http://www.inkscape.org/) -->

<svg
   xmlns:dc="http://purl.org/dc/elements/1.1/"
   xmlns:cc="http://creativecommons.org/ns#"
   xmlns:rdf="http://www.w3.org/1999/02/22-rdf-syntax-ns#"
   xmlns:svg="http://www.w3.org/2000/svg"
   xmlns="http://www.w3.org/2000/svg"
   xmlns:sodipodi="http://sodipodi.sourceforge.net/DTD/sodipodi-0.dtd"
   xmlns:inkscape="http://www.inkscape.org/namespaces/inkscape"
   width="32"
   height="32"
   viewBox="0 0 32 32.000001"
   id="svg4135"
   version="1.1"
   inkscape:version="0.91 r13725"
   sodipodi:docname="pharmacy.svg">
  <defs
     id="defs4137" />
  <sodipodi:namedview
     id="base"
     pagecolor="#ffffff"
     bordercolor="#666666"
     borderopacity="1.0"
     inkscape:pageopacity="0.0"
     inkscape:pageshadow="2"
     inkscape:zoom="15.839192"
     inkscape:cx="9.9977156"
     inkscape:cy="5.3241165"
     inkscape:document-units="px"
     inkscape:current-layer="layer1"
     showgrid="false"
     units="px"
     inkscape:window-width="1920"
     inkscape:window-height="1138"
     inkscape:window-x="-8"
     inkscape:window-y="-8"
     inkscape:window-maximized="1" />
  <metadata
     id="metadata4140">
    <rdf:RDF>
      <cc:Work
         rdf:about="">
        <dc:format>image/svg+xml</dc:format>
        <dc:type
           rdf:resource="http://purl.org/dc/dcmitype/StillImage" />
        <dc:title></dc:title>
      </cc:Work>
    </rdf:RDF>
  </metadata>
  <g
     inkscape:label="Ebene 1"
     inkscape:groupmode="layer"
     id="layer1"
     transform="translate(0,-1020.3622)">
    <path
       style="opacity:1;fill:#000000;fill-opacity:1;stroke:none;stroke-width:25;stroke-linecap:butt;stroke-linejoin:round;stroke-miterlimit:4;stroke-dasharray:none;stroke-dashoffset:0;stroke-opacity:1"
       d="m 7.1588712,1041.4844 0.00221,-7.1184 1.7813408,-1.8178 1.781341,-1.8177 5.303716,0 5.303716,0 1.783135,1.784 1.783136,1.7839 0,7.1496 0,7.1496 -8.870402,0 -8.8704023,0 0.00221,-7.1184 z m 10.7306608,1.888 0,-1.758 0.862299,-0.041 c 0.474264,-0.023 1.283964,-0.041 1.799334,-0.041 l 0.937036,0 0,-1.8624 0,-1.8625 -0.615562,-2e-4 c -0.338559,-10e-5 -1.148259,-0.019 -1.799334,-0.042 l -1.183773,-0.041 0,-1.7578 0,-1.7578 -1.862468,0 -1.862469,0 0,1.7578 0,1.7578 -1.146543,0.042 c -0.630598,0.023 -1.437156,0.042 -1.79235,0.042 l -0.645807,0 -0.02721,1.8467 c -0.01496,1.0156 -0.01643,1.868 -0.0033,1.894 0.01317,0.026 0.831972,0.047 1.819556,0.047 l 1.795609,0 0,1.7256 c 0,0.9492 0.01894,1.7446 0.04209,1.7678 0.02315,0.023 0.86126,0.042 1.862468,0.042 l 1.820379,0 0,-1.758 z"
       id="path4886"
       inkscape:connector-curvature="0" />
    <path
       style="opacity:1;fill:#000000;fill-opacity:1;stroke:none;stroke-width:25;stroke-linecap:butt;stroke-linejoin:round;stroke-miterlimit:4;stroke-dasharray:none;stroke-dashoffset:0;stroke-opacity:1"
       d="m 10.692195,1026.19 0,-2.6516 5.334869,0 5.334868,0 0,2.6516 0,2.6517 -5.334868,0 -5.334869,0 0,-2.6517 z"
       id="path4890"
       inkscape:connector-curvature="0" />
  </g>
</svg>
