<?xml version="1.0" encoding="UTF-8" standalone="no"?>
<!-- Created with Inkscape (http://www.inkscape.org/) -->

<svg
   xmlns:dc="http://purl.org/dc/elements/1.1/"
   xmlns:cc="http://creativecommons.org/ns#"
   xmlns:rdf="http://www.w3.org/1999/02/22-rdf-syntax-ns#"
   xmlns:svg="http://www.w3.org/2000/svg"
   xmlns="http://www.w3.org/2000/svg"
   xmlns:sodipodi="http://sodipodi.sourceforge.net/DTD/sodipodi-0.dtd"
   xmlns:inkscape="http://www.inkscape.org/namespaces/inkscape"
   width="32"
   height="32"
   viewBox="0 0 32 32.000001"
   id="svg4138"
   version="1.1"
   inkscape:version="0.91 r13725"
   sodipodi:docname="police.svg">
  <defs
     id="defs4140" />
  <sodipodi:namedview
     id="base"
     pagecolor="#ffffff"
     bordercolor="#666666"
     borderopacity="1.0"
     inkscape:pageopacity="0.0"
     inkscape:pageshadow="2"
     inkscape:zoom="15.839192"
     inkscape:cx="13.660504"
     inkscape:cy="11.43619"
     inkscape:document-units="px"
     inkscape:current-layer="layer1"
     showgrid="false"
     units="px"
     inkscape:window-width="1920"
     inkscape:window-height="1138"
     inkscape:window-x="-8"
     inkscape:window-y="-8"
     inkscape:window-maximized="1" />
  <metadata
     id="metadata4143">
    <rdf:RDF>
      <cc:Work
         rdf:about="">
        <dc:format>image/svg+xml</dc:format>
        <dc:type
           rdf:resource="http://purl.org/dc/dcmitype/StillImage" />
        <dc:title></dc:title>
      </cc:Work>
    </rdf:RDF>
  </metadata>
  <g
     inkscape:label="Ebene 1"
     inkscape:groupmode="layer"
     id="layer1"
     transform="translate(0,-1020.3622)">
    <path
       style="opacity:1;fill:#000000;fill-opacity:1;stroke:none;stroke-width:2.09500003;stroke-linecap:butt;stroke-linejoin:round;stroke-miterlimit:4;stroke-dasharray:none;stroke-dashoffset:0;stroke-opacity:1"
       d="m 12.397532,1048.4766 c 0.145931,-0.2461 3.727088,-4.8426 6.837106,-8.7757 1.818933,-2.3002 2.901186,-3.5671 3.047391,-3.5671 0.469051,0 1.242951,0.7252 1.644567,1.541 0.346288,0.7034 0.407484,0.9942 0.513085,2.4383 0.06595,0.9019 0.12156,3.1881 0.123586,5.0806 l 0.0037,3.4408 -6.131502,0 c -4.870935,0 -6.112262,-0.032 -6.037916,-0.1579 z"
       id="path4710"
       inkscape:connector-curvature="0" />
    <path
       style="opacity:1;fill:#000000;fill-opacity:1;stroke:none;stroke-width:2.09500003;stroke-linecap:butt;stroke-linejoin:round;stroke-miterlimit:4;stroke-dasharray:none;stroke-dashoffset:0;stroke-opacity:1"
       d="m 6.7630113,1044.4039 c 0,-4.5936 0.053314,-5.0355 0.7697565,-6.3797 0.5706028,-1.0705 1.1782647,-1.6067 1.9969826,-1.762 0.6708326,-0.1272 9.3550916,-0.1876 9.3550916,-0.065 0,0.035 -2.139088,2.8048 -4.753528,6.1556 -2.614441,3.3507 -4.7594368,6.1001 -4.7666578,6.1097 -0.00722,0.01 -0.5955451,0.04 -1.307387,0.068 l -1.2942579,0.05 0,-4.1764 z"
       id="path4712"
       inkscape:connector-curvature="0" />
    <path
       style="opacity:1;fill:#000000;fill-opacity:1;stroke:none;stroke-width:2.09500003;stroke-linecap:butt;stroke-linejoin:round;stroke-miterlimit:4;stroke-dasharray:none;stroke-dashoffset:0;stroke-opacity:1"
       d="m 13.910924,1033.723 c -2.196868,-0.7556 -3.612379,-2.4422 -3.612379,-4.3043 l 0,-0.6085 5.380985,0 5.380984,0 -0.09047,0.7261 c -0.19414,1.558 -0.860595,2.6394 -2.133869,3.4624 -1.505371,0.9729 -3.394469,1.2507 -4.925252,0.7243 z"
       id="path4714"
       inkscape:connector-curvature="0" />
    <path
       style="opacity:1;fill:#000000;fill-opacity:1;stroke:none;stroke-width:2.09500003;stroke-linecap:butt;stroke-linejoin:round;stroke-miterlimit:4;stroke-dasharray:none;stroke-dashoffset:0;stroke-opacity:1"
       d="m 10.298545,1025.9406 0,-0.8494 0.912291,-0.9184 0.91229,-0.9184 3.478522,0 3.478522,0 0.975623,0.9814 0.975623,0.9814 0,0.7863 0,0.7864 -5.366435,0 -5.366436,0 0,-0.8493 z"
       id="path4716"
       inkscape:connector-curvature="0" />
  </g>
</svg>
