<?xml version="1.0" encoding="UTF-8" standalone="no"?>
<!-- Created with Inkscape (http://www.inkscape.org/) -->

<svg
   xmlns:dc="http://purl.org/dc/elements/1.1/"
   xmlns:cc="http://creativecommons.org/ns#"
   xmlns:rdf="http://www.w3.org/1999/02/22-rdf-syntax-ns#"
   xmlns:svg="http://www.w3.org/2000/svg"
   xmlns="http://www.w3.org/2000/svg"
   xmlns:sodipodi="http://sodipodi.sourceforge.net/DTD/sodipodi-0.dtd"
   xmlns:inkscape="http://www.inkscape.org/namespaces/inkscape"
   width="32"
   height="32"
   viewBox="0 0 32 32.000001"
   id="svg4138"
   version="1.1"
   inkscape:version="0.91 r13725"
   sodipodi:docname="police_frame_color.svg">
  <defs
     id="defs4140" />
  <sodipodi:namedview
     id="base"
     pagecolor="#ffffff"
     bordercolor="#666666"
     borderopacity="1.0"
     inkscape:pageopacity="0.0"
     inkscape:pageshadow="2"
     inkscape:zoom="15.839192"
     inkscape:cx="13.660504"
     inkscape:cy="11.43619"
     inkscape:document-units="px"
     inkscape:current-layer="layer1"
     showgrid="false"
     units="px"
     inkscape:window-width="1920"
     inkscape:window-height="1138"
     inkscape:window-x="-8"
     inkscape:window-y="-8"
     inkscape:window-maximized="1" />
  <metadata
     id="metadata4143">
    <rdf:RDF>
      <cc:Work
         rdf:about="">
        <dc:format>image/svg+xml</dc:format>
        <dc:type
           rdf:resource="http://purl.org/dc/dcmitype/StillImage" />
        <dc:title></dc:title>
      </cc:Work>
    </rdf:RDF>
  </metadata>
  <g
     inkscape:label="Ebene 1"
     inkscape:groupmode="layer"
     id="layer1"
     transform="translate(0,-1020.3622)">
    <rect
       style="opacity:1;fill:#ff7f2a;fill-opacity:1;stroke:none;stroke-width:2.09500003;stroke-linecap:butt;stroke-linejoin:round;stroke-miterlimit:4;stroke-dasharray:none;stroke-dashoffset:0;stroke-opacity:1"
       id="rect4154"
       width="32"
       height="31.99999"
       x="0"
       y="1020.3622"
       ry="3.2261746" />
    <rect
       style="opacity:1;fill:#ffffff;fill-opacity:1;stroke:none;stroke-width:2.09500003;stroke-linecap:butt;stroke-linejoin:round;stroke-miterlimit:4;stroke-dasharray:none;stroke-dashoffset:0;stroke-opacity:1"
       id="rect4154-7"
       width="28"
       height="28"
       x="-30.045902"
       y="1022.3163"
       ry="2.8229036"
       transform="scale(-1,1)" />
    <path
       style="opacity:1;fill:#ff7f2a;fill-opacity:1;stroke:none;stroke-width:2.09500003;stroke-linecap:butt;stroke-linejoin:round;stroke-miterlimit:4;stroke-dasharray:none;stroke-dashoffset:0;stroke-opacity:1"
       d="m 13.043509,1047.4205 c 0.129959,-0.2191 3.319148,-4.3125 6.088767,-7.8151 1.619845,-2.0484 2.583643,-3.1767 2.713845,-3.1767 0.417713,0 1.106907,0.6458 1.464565,1.3724 0.308386,0.6264 0.362884,0.8853 0.456926,2.1714 0.05873,0.8031 0.108255,2.8391 0.11006,4.5245 l 0.0033,3.0641 -5.460392,0 c -4.337798,0 -5.443259,-0.029 -5.37705,-0.1406 z"
       id="path4710"
       inkscape:connector-curvature="0" />
    <path
       style="opacity:1;fill:#ff7f2a;fill-opacity:1;stroke:none;stroke-width:2.09500003;stroke-linecap:butt;stroke-linejoin:round;stroke-miterlimit:4;stroke-dasharray:none;stroke-dashoffset:0;stroke-opacity:1"
       d="m 8.025702,1043.7936 c 0,-4.0907 0.047479,-4.4844 0.6855046,-5.6814 0.5081487,-0.9533 1.0493004,-1.4308 1.7784074,-1.5691 0.597408,-0.1134 8.331152,-0.1671 8.331152,-0.058 0,0.032 -1.904959,2.4978 -4.233242,5.4819 -2.328284,2.9839 -4.238504,5.4324 -4.244934,5.4409 -0.0064,0.01 -0.5303612,0.035 -1.1642902,0.06 l -1.1525978,0.044 0,-3.7193 z"
       id="path4712"
       inkscape:connector-curvature="0" />
    <path
       style="opacity:1;fill:#ff7f2a;fill-opacity:1;stroke:none;stroke-width:2.09500003;stroke-linecap:butt;stroke-linejoin:round;stroke-miterlimit:4;stroke-dasharray:none;stroke-dashoffset:0;stroke-opacity:1"
       d="m 14.391257,1034.2817 c -1.956416,-0.6728 -3.216995,-2.1749 -3.216995,-3.8331 l 0,-0.5419 4.792021,0 4.792022,0 -0.08057,0.6467 c -0.172891,1.3874 -0.766401,2.3504 -1.900311,3.0834 -1.340605,0.8663 -3.022936,1.1138 -4.38617,0.6449 z"
       id="path4714"
       inkscape:connector-curvature="0" />
    <path
       style="opacity:1;fill:#ff7f2a;fill-opacity:1;stroke:none;stroke-width:2.09500003;stroke-linecap:butt;stroke-linejoin:round;stroke-miterlimit:4;stroke-dasharray:none;stroke-dashoffset:0;stroke-opacity:1"
       d="m 11.174262,1027.3512 0,-0.7564 0.812438,-0.818 0.812438,-0.8178 3.097788,0 3.097788,0 0.868839,0.8739 0.868838,0.8741 0,0.7002 0,0.7003 -4.779064,0 -4.779065,0 0,-0.7563 z"
       id="path4716"
       inkscape:connector-curvature="0" />
  </g>
</svg>
