<?xml version="1.0" encoding="UTF-8" standalone="no"?>
<!-- Created with Inkscape (http://www.inkscape.org/) -->

<svg
   xmlns:dc="http://purl.org/dc/elements/1.1/"
   xmlns:cc="http://creativecommons.org/ns#"
   xmlns:rdf="http://www.w3.org/1999/02/22-rdf-syntax-ns#"
   xmlns:svg="http://www.w3.org/2000/svg"
   xmlns="http://www.w3.org/2000/svg"
   xmlns:sodipodi="http://sodipodi.sourceforge.net/DTD/sodipodi-0.dtd"
   xmlns:inkscape="http://www.inkscape.org/namespaces/inkscape"
   width="32"
   height="32"
   viewBox="0 0 32 32.000001"
   id="svg4135"
   version="1.1"
   inkscape:version="0.91 r13725"
   sodipodi:docname="post_office_frame.svg">
  <defs
     id="defs4137" />
  <sodipodi:namedview
     id="base"
     pagecolor="#ffffff"
     bordercolor="#666666"
     borderopacity="1.0"
     inkscape:pageopacity="0.0"
     inkscape:pageshadow="2"
     inkscape:zoom="15.839192"
     inkscape:cx="-3.79718"
     inkscape:cy="5.3241165"
     inkscape:document-units="px"
     inkscape:current-layer="layer1"
     showgrid="false"
     units="px"
     inkscape:window-width="1920"
     inkscape:window-height="1138"
     inkscape:window-x="-8"
     inkscape:window-y="-8"
     inkscape:window-maximized="1" />
  <metadata
     id="metadata4140">
    <rdf:RDF>
      <cc:Work
         rdf:about="">
        <dc:format>image/svg+xml</dc:format>
        <dc:type
           rdf:resource="http://purl.org/dc/dcmitype/StillImage" />
        <dc:title></dc:title>
      </cc:Work>
    </rdf:RDF>
  </metadata>
  <g
     inkscape:label="Ebene 1"
     inkscape:groupmode="layer"
     id="layer1"
     transform="translate(0,-1020.3622)">
    <path
       inkscape:connector-curvature="0"
       id="path4140"
       d="m 3.2224824,1020.3622 25.5550136,0 c 1.723663,0 3.222504,1.424 3.222504,3.2226 l 0,25.5548 c 0,1.7239 -1.498841,3.2226 -3.222504,3.2226 l -25.5550136,0 C 1.4238863,1052.3622 0,1050.8635 0,1049.1396 l 0,-25.5548 c 0,-1.7986 1.4238863,-3.2226 3.2224824,-3.2226 z"
       style="fill:#000000;fill-opacity:1;fill-rule:nonzero;stroke:none" />
    <path
       inkscape:connector-curvature="0"
       id="path4142"
       d="m 27.203716,1022.3106 -22.33253,0 c -1.5737615,0 -2.8477645,1.2742 -2.8477645,2.848 l 0,22.3325 c 0,1.5738 1.274003,2.7726 2.8477645,2.7726 l 22.33253,0 c 1.57378,0 2.847792,-1.1988 2.847792,-2.7726 l 0,-22.3325 c 0,-1.5738 -1.274012,-2.848 -2.847792,-2.848 z"
       style="fill:#ffffff;fill-opacity:1;fill-rule:nonzero;stroke:none" />
    <path
       style="opacity:1;fill:#000000;fill-opacity:1;stroke:none;stroke-width:25;stroke-linecap:butt;stroke-linejoin:round;stroke-miterlimit:4;stroke-dasharray:none;stroke-dashoffset:0;stroke-opacity:1"
       d="m 6.0476672,1043.3994 -0.1536964,-0.023 0,-6.7868 0,-6.7869 10.0321792,0 10.032178,0 0,6.8185 0,6.8185 -9.878482,-0.01 c -5.433165,-0.01 -9.9476459,-0.018 -10.0321788,-0.032 z m 15.6907108,-3.5089 c -1.467622,-1.4909 -2.678346,-2.7106 -2.690498,-2.7106 -0.01215,0 -0.279382,0.2083 -0.593845,0.4629 -1.027199,0.8316 -1.604392,1.1019 -2.352567,1.1019 -0.740226,0 -1.328074,-0.2565 -2.391394,-1.0438 -0.287382,-0.2127 -0.555212,-0.4067 -0.595176,-0.431 -0.04769,-0.029 -0.172545,0.048 -0.363282,0.2228 -0.564973,0.5192 -5.2927371,5.061 -5.2927371,5.0845 0,0.013 3.8132771,0.024 8.4739511,0.024 l 8.473951,0 -2.668403,-2.7106 z m 3.349015,-8.7418 c -0.04718,-0.047 -5.332808,5.2837 -5.332808,5.3781 0,0.1 0.584106,0.7252 3.209923,3.4372 l 2.127532,2.1973 0.01424,-5.4898 c 0.0079,-3.0195 -6.65e-4,-5.5048 -0.01889,-5.5228 z m -17.694282,10.3225 c 1.0037783,-0.9508 4.354576,-4.1833 4.675034,-4.5102 l 0.333712,-0.3403 -0.388967,-0.4051 c -0.928945,-0.9674 -5.2001574,-5.2395 -5.2384175,-5.2395 -0.051788,0 -0.056318,8.3339 -0.00536,9.8555 0.02024,0.6043 0.059808,1.0988 0.087929,1.0988 0.02812,0 0.2693503,-0.2067 0.536067,-0.4592 z m 9.468906,-3.721 c 0.130797,-0.058 0.451591,-0.2665 0.712875,-0.4629 0.520606,-0.3913 2.781099,-2.6019 5.182225,-5.0676 l 1.537457,-1.579 -8.319723,0 -8.3197234,0 1.8440384,1.8496 c 3.969947,3.9818 5.13086,5.0156 5.999103,5.3421 0.278055,0.1045 1.048352,0.058 1.363748,-0.082 z"
       id="path4898"
       inkscape:connector-curvature="0" />
  </g>
</svg>
