<?xml version="1.0" encoding="UTF-8" standalone="no"?>
<!-- Created with Inkscape (http://www.inkscape.org/) -->

<svg
   xmlns:dc="http://purl.org/dc/elements/1.1/"
   xmlns:cc="http://creativecommons.org/ns#"
   xmlns:rdf="http://www.w3.org/1999/02/22-rdf-syntax-ns#"
   xmlns:svg="http://www.w3.org/2000/svg"
   xmlns="http://www.w3.org/2000/svg"
   xmlns:sodipodi="http://sodipodi.sourceforge.net/DTD/sodipodi-0.dtd"
   xmlns:inkscape="http://www.inkscape.org/namespaces/inkscape"
   width="32"
   height="32"
   viewBox="0 0 32 32.000001"
   id="svg4135"
   version="1.1"
   inkscape:version="0.91 r13725"
   sodipodi:docname="pub_frame_color.svg">
  <defs
     id="defs4137" />
  <sodipodi:namedview
     id="base"
     pagecolor="#ffffff"
     bordercolor="#666666"
     borderopacity="1.0"
     inkscape:pageopacity="0.0"
     inkscape:pageshadow="2"
     inkscape:zoom="15.839192"
     inkscape:cx="-17.592076"
     inkscape:cy="5.3241165"
     inkscape:document-units="px"
     inkscape:current-layer="layer1"
     showgrid="false"
     units="px"
     inkscape:window-width="1920"
     inkscape:window-height="1138"
     inkscape:window-x="-8"
     inkscape:window-y="-8"
     inkscape:window-maximized="1" />
  <metadata
     id="metadata4140">
    <rdf:RDF>
      <cc:Work
         rdf:about="">
        <dc:format>image/svg+xml</dc:format>
        <dc:type
           rdf:resource="http://purl.org/dc/dcmitype/StillImage" />
        <dc:title></dc:title>
      </cc:Work>
    </rdf:RDF>
  </metadata>
  <g
     inkscape:label="Ebene 1"
     inkscape:groupmode="layer"
     id="layer1"
     transform="translate(0,-1020.3622)">
    <path
       inkscape:connector-curvature="0"
       id="path4140"
       d="m 3.222482,1020.3622 25.555014,0 c 1.723663,0 3.222504,1.424 3.222504,3.2226 l 0,25.5548 c 0,1.7239 -1.498841,3.2226 -3.222504,3.2226 l -25.555014,0 C 1.423886,1052.3622 0,1050.8635 0,1049.1396 l 0,-25.5548 c 0,-1.7986 1.423886,-3.2226 3.222482,-3.2226 z"
       style="fill:#2ca089;fill-opacity:1;fill-rule:nonzero;stroke:none" />
    <path
       inkscape:connector-curvature="0"
       id="path4142"
       d="m 27.203716,1022.3106 -22.33253,0 c -1.573762,0 -2.847765,1.2742 -2.847765,2.848 l 0,22.3325 c 0,1.5738 1.274003,2.7726 2.847765,2.7726 l 22.33253,0 c 1.57378,0 2.847792,-1.1988 2.847792,-2.7726 l 0,-22.3325 c 0,-1.5738 -1.274012,-2.848 -2.847792,-2.848 z"
       style="fill:#ffffff;fill-opacity:1;fill-rule:nonzero;stroke:none" />
    <path
       style="opacity:1;fill:#2ca089;fill-opacity:1;stroke:none;stroke-width:25;stroke-linecap:butt;stroke-linejoin:round;stroke-miterlimit:4;stroke-dasharray:none;stroke-dashoffset:0;stroke-opacity:1"
       d="m 10.932765,1046.481 c -0.04529,-0.073 -0.764503,-4.3277 -2.0033412,-11.8503 -1.4243031,-8.649 -1.3761176,-8.3442 -1.3278212,-8.3989 0.08982,-0.1017 2.4444464,-0.1359 9.5578984,-0.1387 6.994829,0 7.364939,0 7.329341,0.092 -0.02062,0.052 -0.797492,4.6519 -1.726383,10.2215 l -1.688892,10.1265 -5.054332,0 c -3.167014,0 -5.066332,-0.02 -5.08647,-0.052 z m 11.051417,-15.5241 c 0.01802,-0.1268 0.11706,-0.7673 0.22009,-1.4234 0.10303,-0.6561 0.202679,-1.3074 0.221443,-1.4472 l 0.03411,-0.2543 -0.206167,-0.064 c -0.15225,-0.047 -1.847598,-0.071 -6.4827,-0.09 -5.26231,-0.021 -6.2766116,-0.014 -6.2770208,0.047 -0.00137,0.2058 0.5087098,3.2806 0.5519258,3.3271 0.09789,0.1054 0.779017,0.1192 6.314199,0.1273 l 5.591351,0.01 0.03277,-0.2304 z"
       id="path4906"
       inkscape:connector-curvature="0" />
  </g>
</svg>
