<?xml version="1.0" encoding="UTF-8" standalone="no"?>
<!-- Created with Inkscape (http://www.inkscape.org/) -->

<svg
   xmlns:dc="http://purl.org/dc/elements/1.1/"
   xmlns:cc="http://creativecommons.org/ns#"
   xmlns:rdf="http://www.w3.org/1999/02/22-rdf-syntax-ns#"
   xmlns:svg="http://www.w3.org/2000/svg"
   xmlns="http://www.w3.org/2000/svg"
   xmlns:sodipodi="http://sodipodi.sourceforge.net/DTD/sodipodi-0.dtd"
   xmlns:inkscape="http://www.inkscape.org/namespaces/inkscape"
   width="32"
   height="32"
   viewBox="0 0 32 32.000001"
   id="svg4135"
   version="1.1"
   inkscape:version="0.91 r13725"
   sodipodi:docname="public_building_frame_color.svg">
  <defs
     id="defs4137" />
  <sodipodi:namedview
     id="base"
     pagecolor="#ffffff"
     bordercolor="#666666"
     borderopacity="1.0"
     inkscape:pageopacity="0.0"
     inkscape:pageshadow="2"
     inkscape:zoom="15.839192"
     inkscape:cx="-17.055432"
     inkscape:cy="4.787473"
     inkscape:document-units="px"
     inkscape:current-layer="layer1"
     showgrid="false"
     units="px"
     inkscape:window-width="1920"
     inkscape:window-height="1138"
     inkscape:window-x="-8"
     inkscape:window-y="-8"
     inkscape:window-maximized="1" />
  <metadata
     id="metadata4140">
    <rdf:RDF>
      <cc:Work
         rdf:about="">
        <dc:format>image/svg+xml</dc:format>
        <dc:type
           rdf:resource="http://purl.org/dc/dcmitype/StillImage" />
        <dc:title></dc:title>
      </cc:Work>
    </rdf:RDF>
  </metadata>
  <g
     inkscape:label="Ebene 1"
     inkscape:groupmode="layer"
     id="layer1"
     transform="translate(0,-1020.3622)">
    <path
       inkscape:connector-curvature="0"
       id="path4140"
       d="m 3.2224824,1020.3622 25.5550136,0 c 1.723663,0 3.222504,1.424 3.222504,3.2226 l 0,25.5548 c 0,1.7239 -1.498841,3.2226 -3.222504,3.2226 l -25.5550136,0 C 1.4238863,1052.3622 0,1050.8635 0,1049.1396 l 0,-25.5548 c 0,-1.7986 1.4238863,-3.2226 3.2224824,-3.2226 z"
       style="fill:#ff7f2a;fill-opacity:1;fill-rule:nonzero;stroke:none" />
    <path
       inkscape:connector-curvature="0"
       id="path4142"
       d="m 27.203716,1022.3106 -22.33253,0 c -1.5737615,0 -2.8477645,1.2742 -2.8477645,2.848 l 0,22.3325 c 0,1.5738 1.274003,2.7726 2.8477645,2.7726 l 22.33253,0 c 1.57378,0 2.847792,-1.1988 2.847792,-2.7726 l 0,-22.3325 c 0,-1.5738 -1.274012,-2.848 -2.847792,-2.848 z"
       style="fill:#ffffff;fill-opacity:1;fill-rule:nonzero;stroke:none" />
    <path
       style="opacity:1;fill:#ff7f2a;fill-opacity:1;stroke:none;stroke-width:25;stroke-linecap:butt;stroke-linejoin:round;stroke-miterlimit:4;stroke-dasharray:none;stroke-dashoffset:0;stroke-opacity:1"
       d="m 6.2379736,1036.1397 c -0.3031432,-0.2063 -0.4280035,-0.4164 -0.4572885,-0.7696 -0.048231,-0.5815 -0.1660062,-0.4555 2.901389,-3.1064 2.8175269,-2.4349 6.4733829,-5.5641 6.7986489,-5.8192 0.316602,-0.2484 0.328331,-0.2521 0.713058,-0.2304 0.389829,0.022 0.39294,0.023 0.914573,0.4618 1.952011,1.6401 7.594468,6.5218 8.195368,7.0904 0.512993,0.4855 0.555332,0.5554 0.555332,0.9165 0,0.6045 -0.389737,1.0079 -0.979056,1.0132 -0.205907,0 -0.380574,-0.032 -0.471784,-0.092 -0.184191,-0.1207 -0.750284,-0.6 -4.009107,-3.3938 -3.714919,-3.1848 -4.19856,-3.5924 -4.263288,-3.5924 -0.03139,0 -0.436273,0.3255 -0.899748,0.7232 -0.463473,0.3978 -2.436011,2.091 -4.383418,3.7626 -1.947406,1.6717 -3.5950278,3.0685 -3.6613817,3.104 -0.2171019,0.1161 -0.7372402,0.079 -0.9532977,-0.068 z"
       id="path4916"
       inkscape:connector-curvature="0" />
    <path
       style="opacity:1;fill:#ff7f2a;fill-opacity:1;stroke:none;stroke-width:25;stroke-linecap:butt;stroke-linejoin:round;stroke-miterlimit:4;stroke-dasharray:none;stroke-dashoffset:0;stroke-opacity:1"
       d="m 8.4111034,1045.4415 c -0.4219009,-0.2818 -0.4059508,-0.1133 -0.4060528,-4.2894 l -9.14e-5,-3.746 0.2236118,-0.252 c 0.202708,-0.2284 0.2536218,-0.2542 0.5446359,-0.2761 0.2387069,-0.018 0.3727003,0 0.5225532,0.087 0.409251,0.2259 0.3981273,0.1346 0.4467024,3.6653 l 0.043729,3.1785 6.4966675,0 6.496669,0 -0.0028,-3.0498 c -0.0016,-1.6774 0.01556,-3.1477 0.03801,-3.2674 0.05044,-0.2688 0.352207,-0.5498 0.650522,-0.6059 0.314686,-0.059 0.637669,0.061 0.847892,0.3153 l 0.181408,0.2194 -0.01638,3.8004 c -0.01822,4.2262 0.0059,3.9814 -0.41702,4.2393 -0.183942,0.1121 -0.359196,0.1147 -7.819076,0.1149 l -7.6309135,2e-4 -0.2000659,-0.1337 z"
       id="path4918"
       inkscape:connector-curvature="0" />
  </g>
</svg>
