<?xml version="1.0" encoding="UTF-8" standalone="no"?>
<!-- Created with Inkscape (http://www.inkscape.org/) -->

<svg
   xmlns:dc="http://purl.org/dc/elements/1.1/"
   xmlns:cc="http://creativecommons.org/ns#"
   xmlns:rdf="http://www.w3.org/1999/02/22-rdf-syntax-ns#"
   xmlns:svg="http://www.w3.org/2000/svg"
   xmlns="http://www.w3.org/2000/svg"
   xmlns:sodipodi="http://sodipodi.sourceforge.net/DTD/sodipodi-0.dtd"
   xmlns:inkscape="http://www.inkscape.org/namespaces/inkscape"
   width="32"
   height="32"
   viewBox="0 0 32 32.000001"
   id="svg4135"
   version="1.1"
   inkscape:version="0.91 r13725"
   sodipodi:docname="restaurant_frame_color.svg">
  <defs
     id="defs4137">
    <pattern
       y="0"
       x="0"
       height="6"
       width="6"
       patternUnits="userSpaceOnUse"
       id="EMFhbasepattern" />
  </defs>
  <sodipodi:namedview
     id="base"
     pagecolor="#ffffff"
     bordercolor="#666666"
     borderopacity="1.0"
     inkscape:pageopacity="0.0"
     inkscape:pageshadow="2"
     inkscape:zoom="15.839192"
     inkscape:cx="-17.592076"
     inkscape:cy="5.3241165"
     inkscape:document-units="px"
     inkscape:current-layer="layer1"
     showgrid="false"
     units="px"
     inkscape:window-width="1920"
     inkscape:window-height="1138"
     inkscape:window-x="-8"
     inkscape:window-y="-8"
     inkscape:window-maximized="1" />
  <metadata
     id="metadata4140">
    <rdf:RDF>
      <cc:Work
         rdf:about="">
        <dc:format>image/svg+xml</dc:format>
        <dc:type
           rdf:resource="http://purl.org/dc/dcmitype/StillImage" />
        <dc:title></dc:title>
      </cc:Work>
    </rdf:RDF>
  </metadata>
  <g
     inkscape:label="Ebene 1"
     inkscape:groupmode="layer"
     id="layer1"
     transform="translate(0,-1020.3622)">
    <path
       inkscape:connector-curvature="0"
       id="path4140"
       d="m 3.2224824,1020.3622 25.5550136,0 c 1.723663,0 3.222504,1.424 3.222504,3.2226 l 0,25.5548 c 0,1.7239 -1.498841,3.2226 -3.222504,3.2226 l -25.5550136,0 C 1.4238863,1052.3622 0,1050.8635 0,1049.1396 l 0,-25.5548 c 0,-1.7986 1.4238863,-3.2226 3.2224824,-3.2226 z"
       style="fill:#2ca089;fill-opacity:1;fill-rule:nonzero;stroke:none" />
    <path
       inkscape:connector-curvature="0"
       id="path4142"
       d="m 27.203716,1022.3106 -22.33253,0 c -1.5737615,0 -2.8477645,1.2742 -2.8477645,2.848 l 0,22.3325 c 0,1.5738 1.274003,2.7726 2.8477645,2.7726 l 22.33253,0 c 1.57378,0 2.847792,-1.1988 2.847792,-2.7726 l 0,-22.3325 c 0,-1.5738 -1.274012,-2.848 -2.847792,-2.848 z"
       style="fill:#ffffff;fill-opacity:1;fill-rule:nonzero;stroke:none" />
    <path
       style="opacity:1;fill:#2ca089;fill-opacity:1;stroke:none;stroke-width:25;stroke-linecap:butt;stroke-linejoin:round;stroke-miterlimit:4;stroke-dasharray:none;stroke-dashoffset:0;stroke-opacity:1"
       d="m 8.7981594,1048.3071 c -0.2522197,-0.034 -0.2863556,-0.057 -0.304155,-0.2123 -0.020782,-0.1807 0.023214,-0.6774 0.3984155,-4.4975 0.1227757,-1.2501 0.2411101,-2.6015 0.2629653,-3.0031 l 0.039737,-0.7302 -0.5119856,-0.3588 c -1.2923047,-0.9055 -2.3470118,-2.2841 -2.7864236,-3.6419 -1.0479713,-3.2385 -0.050001,-7.533 2.2908527,-9.8582 0.773524,-0.7683 1.4968144,-1.2091 2.1137103,-1.288 1.470253,-0.1882 3.687494,2.2137 4.620094,5.0048 0.386494,1.1567 0.468867,1.7657 0.467758,3.4582 -8.97e-4,1.3697 -0.0104,1.487 -0.167602,2.0693 -0.454986,1.6854 -1.551446,3.2648 -2.94445,4.2414 l -0.530126,0.3717 0.04016,0.8257 c 0.02208,0.4541 0.166661,2.1325 0.321281,3.7298 0.15462,1.5973 0.300647,3.1386 0.324504,3.425 l 0.04338,0.5209 -1.697001,-0.01 c -0.9333505,-0.01 -1.8248484,-0.026 -1.9811064,-0.047 z"
       id="path4928"
       inkscape:connector-curvature="0" />
    <path
       style="opacity:1;fill:#2ca089;fill-opacity:1;stroke:none;stroke-width:25;stroke-linecap:butt;stroke-linejoin:round;stroke-miterlimit:4;stroke-dasharray:none;stroke-dashoffset:0;stroke-opacity:1"
       d="m 19.559812,1047.8183 c 0.02467,-0.3076 0.184546,-1.9787 0.355278,-3.7136 0.341977,-3.4751 0.380347,-4.4511 0.19134,-4.8673 -0.149767,-0.3297 -0.486819,-0.6143 -1.352166,-1.1417 -1.320368,-0.8048 -1.294248,-0.7456 -1.376153,-3.1163 -0.05722,-1.6564 -0.02497,-8.0624 0.04641,-9.2163 0.0364,-0.5884 0.04099,-0.6023 0.275155,-0.8365 0.283142,-0.2831 0.537161,-0.3135 0.791663,-0.095 0.346755,0.2983 0.355237,0.4125 0.41057,5.5261 0.05461,5.0472 0.04259,4.8845 0.37404,5.0619 0.383509,0.2052 1.124156,0.1158 1.303108,-0.1573 0.119504,-0.1824 0.176115,-1.5847 0.274941,-6.8109 0.0686,-3.6279 0.06155,-3.5665 0.425631,-3.7049 0.210184,-0.08 0.518483,0.018 0.714746,0.2268 0.219379,0.2335 0.244911,0.8212 0.248378,5.7165 l 0.0031,4.3287 0.17362,0.1615 c 0.307312,0.2858 0.511505,0.3817 0.820803,0.3854 0.34095,0 0.669092,-0.1422 0.78566,-0.3503 0.06028,-0.1076 0.08956,-1.2268 0.122623,-4.6871 0.02389,-2.5001 0.06305,-4.7295 0.08703,-4.9542 0.03855,-0.3612 0.07126,-0.4362 0.282195,-0.6471 0.282203,-0.2823 0.511541,-0.3093 0.782531,-0.093 0.356754,0.2855 0.368352,0.4501 0.40048,5.6845 0.03188,5.1938 -0.005,6.1735 -0.251359,6.6689 -0.124078,0.2495 -0.251936,0.3549 -1.035274,0.8532 -1.558576,0.9913 -1.626489,1.0778 -1.610735,2.0515 0.0053,0.3302 0.10897,1.6089 0.230284,2.8416 0.46733,4.7487 0.505796,5.2345 0.421183,5.3191 -0.05866,0.059 -0.57448,0.085 -2.009413,0.1016 l -1.930491,0.023 0.04486,-0.5593 z"
       id="path4930"
       inkscape:connector-curvature="0" />
  </g>
</svg>
