<?xml version="1.0" encoding="UTF-8" standalone="no"?>
<!-- Created with Inkscape (http://www.inkscape.org/) -->

<svg
   xmlns:dc="http://purl.org/dc/elements/1.1/"
   xmlns:cc="http://creativecommons.org/ns#"
   xmlns:rdf="http://www.w3.org/1999/02/22-rdf-syntax-ns#"
   xmlns:svg="http://www.w3.org/2000/svg"
   xmlns="http://www.w3.org/2000/svg"
   xmlns:sodipodi="http://sodipodi.sourceforge.net/DTD/sodipodi-0.dtd"
   xmlns:inkscape="http://www.inkscape.org/namespaces/inkscape"
   width="32"
   height="32"
   viewBox="0 0 32 32.000001"
   id="svg4145"
   version="1.1"
   inkscape:version="0.91 r13725"
   sodipodi:docname="sikh.svg">
  <defs
     id="defs4147" />
  <sodipodi:namedview
     id="base"
     pagecolor="#ffffff"
     bordercolor="#666666"
     borderopacity="1.0"
     inkscape:pageopacity="0.0"
     inkscape:pageshadow="2"
     inkscape:zoom="15.839192"
     inkscape:cx="21.270321"
     inkscape:cy="12.614986"
     inkscape:document-units="px"
     inkscape:current-layer="layer1"
     showgrid="false"
     units="px"
     inkscape:window-width="1920"
     inkscape:window-height="1138"
     inkscape:window-x="-8"
     inkscape:window-y="-8"
     inkscape:window-maximized="1" />
  <metadata
     id="metadata4150">
    <rdf:RDF>
      <cc:Work
         rdf:about="">
        <dc:format>image/svg+xml</dc:format>
        <dc:type
           rdf:resource="http://purl.org/dc/dcmitype/StillImage" />
        <dc:title></dc:title>
      </cc:Work>
    </rdf:RDF>
  </metadata>
  <g
     inkscape:label="Ebene 1"
     inkscape:groupmode="layer"
     id="layer1"
     transform="translate(0,-1020.3622)">
    <path
       style="fill:#000000;fill-opacity:1;stroke:none;stroke-width:6.25;stroke-miterlimit:4;stroke-dasharray:none;stroke-opacity:1"
       d="m 15.829852,1049.3483 c -0.683268,-0.2442 -1.104204,-1.0922 -0.875408,-1.7634 0.108,-0.3169 0.370648,-0.6511 0.632096,-0.8043 l 0.248325,-0.1455 -1.67e-4,-0.7589 c -1.1e-4,-0.4174 -0.01646,-1.1882 -0.03635,-1.7128 -0.03277,-0.8641 -0.04525,-0.9521 -0.132531,-0.9353 -0.170894,0.033 -1.552268,0.9853 -1.51547,1.0448 0.0218,0.035 -8.89e-4,0.043 -0.05914,0.021 -0.05849,-0.022 -0.106613,-0.01 -0.126095,0.046 -0.01732,0.045 -0.05409,0.068 -0.08166,0.051 -0.02759,-0.017 -0.06509,0.01 -0.08338,0.056 -0.01826,0.048 -0.0558,0.073 -0.08338,0.056 -0.02759,-0.017 -0.06509,0.01 -0.08338,0.056 -0.01826,0.048 -0.05436,0.074 -0.08018,0.058 -0.02582,-0.016 -0.07449,0.022 -0.108113,0.085 -0.03616,0.068 -0.08841,0.098 -0.127835,0.074 -0.03668,-0.022 0.01336,0.052 0.111213,0.164 0.09784,0.1123 0.194101,0.2906 0.213919,0.3963 0.07571,0.4036 -0.211127,0.8221 -0.615385,0.8979 -0.270935,0.051 -0.444987,-0.01 -0.682264,-0.2236 -0.193494,-0.1774 -0.2057,-0.2084 -0.2057,-0.5226 0,-0.2953 0.0194,-0.3545 0.166731,-0.5093 0.178931,-0.188 0.310173,-0.2733 0.466806,-0.3035 0.120188,-0.023 1.054333,-0.6635 1.179718,-0.8087 0.04969,-0.058 0.102537,-0.092 0.117412,-0.078 0.01489,0.015 0.10465,-0.045 0.19947,-0.134 0.09483,-0.088 0.182358,-0.1511 0.19452,-0.1389 0.01225,0.013 0.1018,-0.053 0.19921,-0.1433 0.09741,-0.091 0.189855,-0.1645 0.205448,-0.1634 0.0156,9e-4 0.183175,-0.1 0.372406,-0.2247 0.189232,-0.1248 0.315711,-0.2271 0.281069,-0.2274 -0.03465,-2e-4 -0.07671,-0.053 -0.09352,-0.1171 -0.01679,-0.064 -0.0546,-0.1019 -0.08404,-0.084 -0.02941,0.018 -0.06844,-0.01 -0.08671,-0.054 -0.01826,-0.048 -0.0558,-0.073 -0.08338,-0.056 -0.02759,0.017 -0.0651,-0.01 -0.08336,-0.056 -0.01826,-0.048 -0.0584,-0.071 -0.0892,-0.052 -0.0308,0.019 -0.05599,0.01 -0.05599,-0.028 0,-0.034 -0.0252,-0.047 -0.05598,-0.028 -0.0308,0.019 -0.07092,0 -0.0892,-0.052 -0.01826,-0.047 -0.05299,-0.074 -0.07715,-0.06 -0.02416,0.015 -0.05889,-0.012 -0.07715,-0.059 -0.01826,-0.048 -0.0558,-0.073 -0.08338,-0.056 -0.02759,0.017 -0.0651,-0.01 -0.08336,-0.056 -0.01826,-0.048 -0.0558,-0.073 -0.08338,-0.056 -0.02759,0.017 -0.0651,-0.01 -0.08336,-0.056 -0.01826,-0.048 -0.0558,-0.073 -0.08338,-0.056 -0.02759,0.017 -0.0651,-0.01 -0.08338,-0.056 -0.01826,-0.048 -0.0584,-0.071 -0.0892,-0.052 -0.03079,0.019 -0.05599,0.01 -0.05599,-0.019 0,-0.064 -1.554865,-1.083 -1.653421,-1.0832 -0.03821,-2e-4 -0.06948,-0.018 -0.06948,-0.039 0,-0.054 -0.455053,-0.3501 -0.538398,-0.3501 -0.03749,0 -0.08157,-0.035 -0.09796,-0.078 -0.01638,-0.043 -0.05497,-0.062 -0.08576,-0.043 -0.03079,0.019 -0.05597,0.01 -0.05597,-0.028 0,-0.034 -0.02239,-0.048 -0.04975,-0.031 -0.02737,0.017 -0.0647,-0.01 -0.08297,-0.056 -0.01827,-0.048 -0.05372,-0.074 -0.07876,-0.058 -0.02505,0.015 -0.119011,-0.02 -0.208806,-0.08 -0.0898,-0.059 -0.208508,-0.1078 -0.263806,-0.108 -0.05529,-2e-4 -0.08508,-0.025 -0.06619,-0.056 0.0204,-0.033 -0.04465,-0.056 -0.160171,-0.056 -0.106986,0 -0.211031,0.027 -0.231211,0.06 -0.02018,0.033 -0.07167,0.046 -0.114435,0.029 -0.04276,-0.016 -0.07775,-0.01 -0.07775,0.017 0,0.043 -0.3101942,0.1974 -0.4005422,0.1989 -0.02161,3e-4 -0.07709,0.051 -0.123281,0.1117 -0.0462,0.061 -0.08479,0.087 -0.08576,0.058 -9.78e-4,-0.029 -0.100772,0.044 -0.221774,0.1619 -0.121005,0.1183 -0.208121,0.2341 -0.193591,0.2576 0.01453,0.023 -0.02386,0.078 -0.08531,0.121 -0.06145,0.043 -0.09724,0.093 -0.07953,0.1104 0.04777,0.048 -0.1777247,0.1551 -0.2283203,0.1086 -0.023814,-0.022 -0.030171,0.014 -0.014122,0.079 0.016051,0.065 0.00561,0.1529 -0.023174,0.1945 -0.034386,0.05 -0.045139,-0.044 -0.031319,-0.2717 0.01165,-0.1923 -0.00204,-0.3474 -0.030677,-0.3474 -0.028439,0 -0.038628,-0.05 -0.02264,-0.1112 0.015988,-0.061 0.0064,-0.1113 -0.021306,-0.1113 -0.027709,0 -0.050376,-0.038 -0.050376,-0.084 0,-0.047 -0.090025,-0.3028 -0.2000548,-0.5697 -0.11003,-0.2669 -0.2029236,-0.5291 -0.20643,-0.5825 -0.00347,-0.054 -0.030189,-0.097 -0.059311,-0.097 -0.029114,0 -0.037446,-0.015 -0.018524,-0.034 0.018922,-0.019 -0.00339,-0.072 -0.049513,-0.1184 -0.046151,-0.046 -0.07026,-0.1196 -0.053568,-0.163 0.016691,-0.043 0.00826,-0.066 -0.018764,-0.049 -0.05926,0.037 -0.1295763,-0.125 -0.085455,-0.1963 0.01719,-0.028 0.00329,-0.051 -0.030891,-0.051 -0.034171,0 -0.046685,-0.025 -0.027789,-0.056 0.018896,-0.031 0.0064,-0.056 -0.027788,-0.056 -0.034172,0 -0.046685,-0.025 -0.027788,-0.056 0.018896,-0.031 0.0064,-0.056 -0.027789,-0.056 -0.034171,0 -0.048535,-0.022 -0.031905,-0.049 0.016627,-0.027 -0.2815525,-0.69 -0.6626201,-1.4736 -0.8031802,-1.6514 -1.1651968,-2.4643 -1.3364138,-3.0008 -0.068579,-0.2148 -0.1367362,-0.3489 -0.1553504,-0.3056 -0.018239,0.043 -0.019608,-0.023 -0.00303,-0.1452 0.023689,-0.1747 0.016459,-0.2045 -0.033765,-0.1389 -0.05027,0.065 -0.056724,0.04 -0.030242,-0.1208 0.019404,-0.1177 0.0094,-0.2191 -0.023629,-0.2395 -0.1853185,-0.1145 0.087047,-2.8632 0.2837169,-2.8632 0.031327,0 0.039196,-0.052 0.018042,-0.1182 -0.026917,-0.085 -0.01846,-0.1062 0.030003,-0.076 0.049015,0.03 0.056627,0.01 0.027787,-0.083 -0.02409,-0.076 -0.018575,-0.112 0.014015,-0.092 0.060974,0.038 0.2490329,-0.398 0.2035558,-0.4716 -0.016282,-0.026 -0.00169,-0.048 0.032529,-0.048 0.034173,0 0.046685,-0.025 0.02779,-0.056 -0.018896,-0.031 -0.0064,-0.056 0.027787,-0.056 0.034171,0 0.046685,-0.025 0.027789,-0.056 -0.018896,-0.031 -0.0064,-0.056 0.027788,-0.056 0.034172,0 0.046685,-0.025 0.02779,-0.056 -0.018887,-0.031 -0.0064,-0.056 0.027788,-0.056 0.034172,0 0.050002,-0.02 0.035177,-0.044 -0.064879,-0.105 0.7328385,-1.1646 1.3318995,-1.7693 0.3485366,-0.3518 0.633703,-0.6227 0.633703,-0.6021 0,0.021 0.049182,-0.021 0.109305,-0.094 0.060122,-0.072 0.1101375,-0.1137 0.1111537,-0.092 9.782e-4,0.021 0.066951,-0.021 0.146522,-0.095 0.3114188,-0.2886 1.9076887,-0.9946 2.0122887,-0.89 0.01545,0.015 0.06136,5e-4 0.101988,-0.033 0.04064,-0.034 0.111713,-0.047 0.157953,-0.029 0.04624,0.018 0.08408,0.01 0.08408,-0.028 0,-0.036 0.05515,-0.046 0.138943,-0.025 0.08459,0.021 0.138943,0.011 0.138943,-0.026 0,-0.033 0.05627,-0.055 0.125049,-0.048 0.06877,0.01 0.16799,-0.01 0.220476,-0.029 0.05248,-0.023 0.127514,-0.03 0.166731,-0.017 0.03922,0.013 -0.05696,0.09 -0.213707,0.1695 -0.156755,0.08 -0.300562,0.1295 -0.319569,0.1105 -0.01901,-0.019 -0.03455,0 -0.03455,0.034 0,0.037 -0.02501,0.053 -0.05558,0.034 -0.03057,-0.019 -0.05558,-0.01 -0.05558,0.028 0,0.034 -0.02501,0.047 -0.05558,0.028 -0.03057,-0.019 -0.05558,0 -0.05558,0.034 0,0.037 -0.01567,0.052 -0.03484,0.033 -0.04714,-0.047 -0.354205,0.1158 -0.354205,0.1878 0,0.032 -0.0241,0.043 -0.05355,0.024 -0.02945,-0.018 -0.102398,0.016 -0.162101,0.075 -0.0597,0.06 -0.121114,0.096 -0.136466,0.081 -0.01535,-0.015 -0.05698,0.026 -0.0925,0.093 -0.03552,0.066 -0.07582,0.1095 -0.08956,0.096 -0.01374,-0.014 -0.1419489,0.082 -0.2849189,0.2137 -0.14297,0.1312 -0.275559,0.229 -0.294641,0.2172 -0.01908,-0.012 -0.156756,0.1027 -0.305944,0.254 -0.149186,0.1514 -0.250058,0.2754 -0.224159,0.2754 0.0259,0 -0.01905,0.052 -0.09988,0.1157 -0.080831,0.063 -0.1327484,0.1386 -0.1153686,0.1667 0.017376,0.028 0.00605,0.051 -0.025254,0.051 -0.07595,0 -0.3415928,0.395 -0.3052213,0.4539 0.01574,0.025 6.492e-4,0.046 -0.033524,0.046 -0.034172,0 -0.046685,0.025 -0.027789,0.056 0.018896,0.03 0.00855,0.056 -0.023085,0.056 -0.07684,0 -0.2404172,0.3224 -0.1982186,0.3907 0.018336,0.03 0.00765,0.054 -0.023779,0.054 -0.031417,0 -0.041135,0.042 -0.021627,0.092 0.025495,0.067 0.015144,0.08 -0.036744,0.048 -0.04842,-0.03 -0.063802,-0.02 -0.046658,0.032 0.014069,0.042 -0.00951,0.1118 -0.052385,0.1547 -0.047708,0.048 -0.064752,0.1306 -0.043919,0.2136 0.022551,0.09 0.013783,0.1231 -0.025991,0.099 -0.040575,-0.025 -0.047681,0.013 -0.02191,0.1147 0.028643,0.1142 0.020799,0.1412 -0.031506,0.1088 -0.052811,-0.033 -0.060414,-9e-4 -0.03148,0.1307 0.020978,0.095 0.015526,0.1737 -0.012125,0.1737 -0.027646,0 -0.050919,0.081 -0.05171,0.1806 -7.827e-4,0.099 -0.0115,0.6098 -0.023804,1.1343 -0.0123,0.5246 -0.00169,0.9247 0.023467,0.8893 0.0252,-0.035 0.03051,0.061 0.011788,0.2134 -0.025904,0.2114 -0.019206,0.2579 0.027985,0.1945 0.047689,-0.064 0.053826,-0.034 0.026535,0.1306 -0.026526,0.1598 -0.018512,0.2034 0.031737,0.1723 0.049139,-0.03 0.057285,0 0.030279,0.1058 -0.022986,0.091 -0.01414,0.1472 0.023423,0.1472 0.035089,0 0.04561,0.047 0.025103,0.1112 -0.021129,0.067 -0.00999,0.1113 0.02779,0.1113 0.037776,0 0.048925,0.045 0.027789,0.1112 -0.021609,0.068 -0.00999,0.1113 0.029995,0.1113 0.035899,0 0.050874,0.038 0.033276,0.083 -0.01759,0.046 -0.00515,0.083 0.027789,0.083 0.032884,0 0.045386,0.038 0.027788,0.083 -0.01759,0.046 -0.00515,0.083 0.027787,0.083 0.032884,0 0.045386,0.037 0.027789,0.083 -0.01759,0.046 -0.00515,0.083 0.027788,0.083 0.032884,0 0.045386,0.037 0.027788,0.083 -0.01759,0.046 -0.00855,0.083 0.020096,0.083 0.02865,0 0.036121,0.042 0.016593,0.092 -0.02594,0.068 -0.015436,0.08 0.038975,0.046 0.054421,-0.034 0.064914,-0.021 0.038975,0.047 -0.019519,0.051 -0.00979,0.092 0.021627,0.092 0.031416,0 0.043056,0.023 0.025868,0.051 -0.048198,0.078 0.028856,0.2313 0.095535,0.1901 0.037117,-0.023 0.045964,0 0.023706,0.056 -0.019519,0.051 -0.00979,0.092 0.021628,0.092 0.031416,0 0.041661,0.025 0.022765,0.056 -0.018896,0.031 -0.0064,0.056 0.027789,0.056 0.034171,0 0.046685,0.025 0.027788,0.056 -0.018896,0.031 -0.0064,0.056 0.027788,0.056 0.034171,0 0.046685,0.025 0.027789,0.056 -0.018896,0.031 -0.0064,0.056 0.027789,0.056 0.034171,0 0.048304,0.022 0.031391,0.05 -0.016914,0.027 0.00923,0.065 0.058067,0.084 0.051354,0.02 0.075192,0.07 0.05652,0.1183 -0.017766,0.046 0.015072,0.1315 0.07297,0.1894 0.05789,0.058 0.09067,0.12 0.07285,0.1377 -0.01783,0.018 -0.0018,0.033 0.03569,0.033 0.03747,0 0.05255,0.025 0.03352,0.056 -0.01902,0.031 0.0044,0.071 0.05199,0.089 0.04761,0.018 0.0733,0.055 0.05707,0.081 -0.01622,0.026 0.01935,0.097 0.07905,0.1563 0.0597,0.06 0.09455,0.1226 0.07743,0.1396 -0.01711,0.017 0.0099,0.047 0.05989,0.066 0.05006,0.019 0.07705,0.058 0.06001,0.085 -0.01705,0.028 0.008,0.065 0.05558,0.083 0.04761,0.018 0.07262,0.056 0.05558,0.083 -0.01705,0.028 0.008,0.065 0.05558,0.083 0.04761,0.018 0.07379,0.054 0.05817,0.079 -0.01562,0.025 0.0276,0.085 0.09605,0.1331 0.06845,0.048 0.100129,0.088 0.0704,0.089 -0.02973,9e-4 0.005,0.051 0.07716,0.1111 0.07216,0.06 0.109677,0.1101 0.08337,0.1113 -0.02631,8e-4 0.0074,0.048 0.07485,0.1042 0.06747,0.056 0.1109084,0.1143 0.09651,0.1286 -0.01439,0.014 0.08237,0.1427 0.215023,0.2852 0.132657,0.1424 0.231975,0.2682 0.220707,0.2794 -0.01127,0.01 0.05422,0.083 0.145511,0.1602 0.0913,0.077 0.15404,0.1516 0.139424,0.1662 -0.01461,0.015 0.06267,0.105 0.171747,0.2008 0.109078,0.096 0.183572,0.1741 0.165544,0.1741 -0.01802,0 0.414124,0.4439 0.960337,0.9865 0.919287,0.9131 1.847435,1.742 1.847435,1.6498 0,-0.022 0.05286,0.028 0.117487,0.1101 0.06462,0.082 0.131151,0.1357 0.147851,0.119 0.0167,-0.017 0.06558,0.02 0.108638,0.081 0.04305,0.061 0.1003,0.098 0.127251,0.082 0.02695,-0.017 0.07726,0.023 0.111863,0.087 0.03459,0.065 0.07571,0.1045 0.0914,0.089 0.0157,-0.016 0.262108,0.1447 0.547582,0.3565 0.285474,0.2117 0.533207,0.385 0.550519,0.385 0.01731,0 0.03149,-0.4936 0.03149,-1.097 l 0,-1.0969 -0.773122,-0.7788 -0.773121,-0.7788 0.102575,-0.6391 c 0.05642,-0.3516 0.11667,-0.731 0.133923,-0.8432 l 0.03136,-0.2039 -0.291726,-0.095 c -1.06584,-0.3493 -2.17509,-1.1803 -2.819251,-2.1121 -1.337667,-1.935 -1.381942,-4.4195 -0.11308,-6.3456 0.688435,-1.0449 1.779129,-1.9026 2.876809,-2.2621 0.160478,-0.053 0.291746,-0.1 0.291705,-0.1051 -4.3e-5,-0.01 -0.03753,-0.2219 -0.08329,-0.4818 -0.04577,-0.2598 -0.08272,-0.5349 -0.08212,-0.6113 7.82e-4,-0.099 0.254505,-0.4295 0.884452,-1.1516 l 0.88336,-1.0126 0.796682,0.9 c 0.438178,0.495 0.850625,0.964 0.916549,1.0423 l 0.119863,0.1422 -0.1059,0.579 c -0.05824,0.3185 -0.08718,0.5949 -0.06429,0.6142 0.02289,0.019 0.166654,0.08 0.319489,0.1342 1.387486,0.4944 2.707569,1.8009 3.259094,3.2258 0.298765,0.7718 0.396701,1.3852 0.363898,2.2791 -0.03428,0.9345 -0.151913,1.4253 -0.532801,2.2231 -0.626134,1.3115 -1.748389,2.3608 -3.047905,2.8498 -0.470462,0.177 -0.45129,0.1063 -0.288719,1.0636 0.06316,0.3718 0.106913,0.7098 0.09726,0.7512 -0.0095,0.041 -0.298918,0.3801 -0.642804,0.7527 l -0.625241,0.6774 0,1.0237 c 0,0.6881 0.01944,1.0237 0.05929,1.0237 0.0326,0 0.149457,-0.069 0.259665,-0.1529 0.1102,-0.084 0.210545,-0.1441 0.222968,-0.1334 0.03079,0.026 0.866604,-0.6396 1.225319,-0.9763 0.160036,-0.1503 0.300161,-0.264 0.31139,-0.2528 0.01112,0.01 0.189443,-0.1677 0.396035,-0.3976 0.206588,-0.2299 0.393428,-0.407 0.415195,-0.3936 0.05081,0.031 0.289312,-0.2202 0.247946,-0.2616 -0.0171,-0.017 0.152394,-0.196 0.376681,-0.3975 0.432416,-0.3885 1.302439,-1.3985 1.27905,-1.4848 -0.0078,-0.028 0.01075,-0.051 0.0409,-0.051 0.06231,0 0.61526,-0.7208 0.61815,-0.8058 0.0011,-0.031 0.03815,-0.076 0.08246,-0.1008 0.04434,-0.025 0.06771,-0.066 0.05195,-0.091 -0.01575,-0.025 0.01037,-0.061 0.05793,-0.08 0.04761,-0.018 0.07262,-0.056 0.05559,-0.084 -0.01704,-0.028 0.008,-0.065 0.05559,-0.083 0.04761,-0.018 0.07262,-0.056 0.05558,-0.083 -0.01704,-0.028 0.01,-0.066 0.06,-0.085 0.05005,-0.019 0.0753,-0.051 0.05613,-0.07 -0.01919,-0.019 8.55e-4,-0.062 0.04457,-0.096 0.0437,-0.034 0.08708,-0.096 0.0964,-0.1398 0.0094,-0.043 0.06163,-0.1256 0.116237,-0.1827 0.0546,-0.057 0.0844,-0.128 0.0662,-0.1575 -0.01819,-0.029 -0.005,-0.054 0.02905,-0.054 0.03418,0 0.04669,-0.025 0.0278,-0.056 -0.0189,-0.031 -0.0064,-0.056 0.0278,-0.056 0.03416,0 0.04668,-0.025 0.0278,-0.056 -0.0189,-0.031 -0.0084,-0.056 0.02337,-0.056 0.07684,0 0.295628,-0.4336 0.253329,-0.5021 -0.01824,-0.029 -0.0076,-0.054 0.02395,-0.054 0.03143,0 0.04115,-0.042 0.02163,-0.092 -0.02224,-0.058 -0.01341,-0.079 0.02371,-0.056 0.06668,0.041 0.14373,-0.1122 0.09554,-0.1901 -0.0172,-0.028 -0.0056,-0.051 0.02586,-0.051 0.03142,0 0.04115,-0.042 0.02163,-0.092 -0.02595,-0.068 -0.01545,-0.08 0.03898,-0.047 0.05441,0.034 0.06492,0.021 0.03897,-0.046 -0.01951,-0.051 -0.01212,-0.092 0.0166,-0.092 0.02866,0 0.0377,-0.037 0.0201,-0.083 -0.0176,-0.046 -0.005,-0.083 0.0278,-0.083 0.03289,0 0.04537,-0.037 0.0278,-0.083 -0.0176,-0.046 -0.005,-0.083 0.0278,-0.083 0.03286,0 0.04537,-0.037 0.0278,-0.083 -0.0176,-0.046 -0.0026,-0.083 0.03328,-0.083 0.03997,0 0.05159,-0.043 0.02999,-0.1113 -0.01941,-0.061 -0.01088,-0.1112 0.01884,-0.1112 0.02976,0 0.04002,-0.054 0.02279,-0.1199 -0.022,-0.084 -0.0115,-0.1076 0.03523,-0.079 0.04812,0.03 0.05659,0 0.03052,-0.1026 -0.02279,-0.091 -0.013,-0.1436 0.02664,-0.1436 0.03908,0 0.04954,-0.052 0.0278,-0.139 -0.02254,-0.09 -0.01153,-0.1389 0.03111,-0.1389 0.04444,0 0.05405,-0.054 0.02939,-0.1667 -0.02358,-0.1074 -0.01459,-0.1668 0.02528,-0.1668 0.04195,0 0.05094,-0.094 0.02786,-0.2917 -0.02492,-0.2137 -0.01823,-0.2695 0.02502,-0.2085 0.04981,0.07 0.05916,0.066 0.05977,-0.028 6e-4,-0.093 -0.07033,-1.0495 -0.134553,-1.814 -0.0092,-0.1114 -0.0343,-0.2302 -0.05546,-0.2645 -0.02116,-0.034 -0.02166,-0.1151 -0.0011,-0.1798 0.02733,-0.086 0.01866,-0.1062 -0.03231,-0.075 -0.05232,0.032 -0.06016,0.01 -0.03151,-0.1087 0.02698,-0.1075 0.01949,-0.1404 -0.02564,-0.1125 -0.04459,0.028 -0.05181,0 -0.02407,-0.086 0.02883,-0.091 0.02121,-0.1137 -0.0278,-0.083 -0.04903,0.03 -0.05663,0.01 -0.0278,-0.083 0.02975,-0.094 0.0219,-0.1141 -0.03129,-0.081 -0.05046,0.031 -0.06071,0.017 -0.03547,-0.049 0.01951,-0.051 0.0096,-0.092 -0.02163,-0.092 -0.03143,0 -0.04306,-0.023 -0.02586,-0.051 0.04194,-0.068 -0.02481,-0.2338 -0.08026,-0.1995 -0.05565,0.034 -0.122138,-0.1318 -0.08001,-0.1999 0.01732,-0.028 -0.0076,-0.066 -0.05508,-0.084 -0.04761,-0.018 -0.07272,-0.056 -0.05582,-0.083 0.0169,-0.027 0.0026,-0.05 -0.0314,-0.05 -0.03416,0 -0.04658,-0.025 -0.02755,-0.056 0.01902,-0.031 -0.0044,-0.071 -0.05199,-0.089 -0.04761,-0.018 -0.07263,-0.056 -0.05559,-0.083 0.01704,-0.028 -0.008,-0.065 -0.05558,-0.083 -0.04761,-0.018 -0.07441,-0.053 -0.05959,-0.077 0.01486,-0.024 -0.03516,-0.084 -0.111125,-0.1341 -0.07597,-0.05 -0.132519,-0.1086 -0.125685,-0.1311 0.01572,-0.051 -0.804766,-0.8688 -0.859634,-0.8564 -0.02235,0.01 -0.08135,-0.053 -0.131125,-0.129 -0.04978,-0.076 -0.110162,-0.1259 -0.134171,-0.1112 -0.02403,0.015 -0.05863,-0.013 -0.07689,-0.06 -0.01826,-0.048 -0.0558,-0.073 -0.08336,-0.056 -0.02757,0.017 -0.06585,-0.01 -0.08505,-0.06 -0.0192,-0.05 -0.04893,-0.077 -0.06604,-0.06 -0.0171,0.017 -0.07997,-0.018 -0.139663,-0.077 -0.05971,-0.06 -0.13265,-0.094 -0.162099,-0.075 -0.02944,0.018 -0.05355,0.01 -0.05355,-0.024 0,-0.079 -0.288206,-0.218 -0.382881,-0.1844 -0.0517,0.018 -0.06262,0 -0.03309,-0.044 0.02916,-0.047 0.02202,-0.058 -0.02107,-0.031 -0.06279,0.039 -0.460455,-0.1664 -0.498622,-0.2573 -0.01025,-0.024 -0.0415,-0.03 -0.06947,-0.013 -0.02796,0.017 -0.05084,0 -0.05084,-0.034 0,-0.071 0.104125,-0.059 0.847553,0.096 0.236898,0.049 0.430722,0.1126 0.430722,0.1404 0,0.028 0.02206,0.037 0.04907,0.021 0.126163,-0.078 1.214175,0.4147 1.812681,0.8209 0.453324,0.3076 1.25046,1.0839 1.648235,1.6051 0.963875,1.263 1.348635,2.258 1.49548,3.8672 0.06306,0.6911 -0.0014,1.8093 -0.110487,1.9185 -0.02808,0.028 -0.03881,0.083 -0.02385,0.1221 0.01497,0.039 0.0016,0.087 -0.02971,0.1062 -0.03131,0.019 -0.04285,0.072 -0.02563,0.1167 0.01722,0.045 0.0044,0.082 -0.02848,0.082 -0.03286,0 -0.04536,0.037 -0.02779,0.083 0.0176,0.046 0.005,0.083 -0.0278,0.083 -0.03292,0 -0.04384,0.042 -0.02429,0.092 0.02595,0.068 0.01546,0.08 -0.03897,0.046 -0.05441,-0.034 -0.06491,-0.021 -0.03898,0.047 0.01952,0.051 0.01213,0.092 -0.0166,0.092 -0.02866,0 -0.03614,0.042 -0.0166,0.092 0.02224,0.058 0.01341,0.079 -0.02371,0.056 -0.07613,-0.047 -0.133365,0.1005 -0.08804,0.2267 0.0193,0.054 0.0133,0.078 -0.01342,0.053 -0.05353,-0.049 -1.261918,2.3937 -1.21877,2.4635 0.03694,0.06 -0.03093,0.2258 -0.07991,0.1956 -0.05461,-0.034 -0.403484,0.6865 -0.363696,0.7508 0.01772,0.029 0.0044,0.052 -0.0299,0.052 -0.03416,0 -0.04668,0.025 -0.0278,0.056 0.0189,0.03 0.0064,0.056 -0.02779,0.056 -0.03417,0 -0.04669,0.025 -0.0278,0.056 0.0189,0.031 0.0064,0.056 -0.02779,0.056 -0.03416,0 -0.04668,0.025 -0.0278,0.056 0.0189,0.031 0.0086,0.056 -0.02277,0.056 -0.03143,0 -0.04395,0.034 -0.02786,0.076 0.01607,0.042 -0.0085,0.114 -0.05469,0.1602 -0.04615,0.046 -0.06843,0.099 -0.04952,0.1183 0.01891,0.019 0.0094,0.034 -0.02117,0.034 -0.03058,0 -0.05578,0.031 -0.05601,0.07 -2.21e-4,0.038 -0.09111,0.2957 -0.20199,0.5721 -0.271001,0.6757 -0.389801,1.1618 -0.356385,1.4583 0.01514,0.1342 0.0094,0.2231 -0.0125,0.1975 -0.022,-0.026 -0.155846,-0.197 -0.297461,-0.3809 -0.468264,-0.6083 -1.06117,-0.9683 -1.598213,-0.9704 -0.250817,-9e-4 -0.359486,0.031 -0.579662,0.1706 -0.149038,0.094 -0.322751,0.1818 -0.386029,0.1939 -0.06327,0.013 -0.146312,0.065 -0.184522,0.1166 -0.03821,0.052 -0.07028,0.071 -0.07124,0.043 -9.77e-4,-0.029 -0.03848,0 -0.08336,0.056 -0.04489,0.06 -0.0824,0.084 -0.08338,0.056 -9.79e-4,-0.029 -0.03233,-0.015 -0.06968,0.031 -0.03735,0.046 -0.09956,0.09 -0.138268,0.098 -0.114512,0.023 -1.01299,0.6371 -1.01299,0.6921 0,0.028 -0.0252,0.035 -0.05599,0.016 -0.0308,-0.019 -0.07093,0 -0.0892,0.052 -0.01826,0.048 -0.0558,0.073 -0.08337,0.056 -0.02759,-0.017 -0.06509,0.01 -0.08338,0.056 -0.01826,0.048 -0.0558,0.073 -0.08336,0.056 -0.02759,-0.017 -0.0651,0.01 -0.08338,0.056 -0.01826,0.047 -0.0558,0.073 -0.08338,0.056 -0.02759,-0.017 -0.06509,0.01 -0.08336,0.056 -0.01826,0.047 -0.0558,0.073 -0.08338,0.056 -0.02759,-0.017 -0.06509,0.01 -0.08336,0.056 -0.01826,0.048 -0.0558,0.073 -0.08338,0.056 -0.02759,-0.017 -0.06509,0.01 -0.08338,0.056 -0.01826,0.048 -0.05561,0.073 -0.08297,0.056 -0.02738,-0.017 -0.04976,-0.01 -0.04976,0.022 0,0.065 -0.563157,0.4319 -0.630147,0.41 -0.07906,-0.026 -0.203512,0.105 -0.203512,0.214 0,0.093 0.763841,0.7048 1.507794,1.2079 0.141516,0.096 0.272642,0.214 0.291387,0.2629 0.01875,0.049 0.05665,0.075 0.08424,0.058 0.02759,-0.017 0.06509,0.01 0.08338,0.056 0.01826,0.047 0.0558,0.073 0.08336,0.056 0.02759,-0.017 0.06509,0.01 0.08338,0.056 0.01826,0.048 0.05841,0.071 0.0892,0.052 0.03079,-0.019 0.05599,-0.01 0.05599,0.022 0,0.072 0.393372,0.3426 0.448077,0.3088 0.02225,-0.014 0.05542,0.014 0.07369,0.061 0.01826,0.048 0.05339,0.074 0.07801,0.059 0.06989,-0.043 0.46175,0.1993 0.580091,0.359 0.2518,0.3397 0.146567,0.8405 -0.229372,1.0917 -0.667275,0.4457 -1.492191,-0.3938 -1.038948,-1.0573 0.07922,-0.116 0.144038,-0.2194 0.144038,-0.2298 0,-0.01 -0.485436,-0.3355 -1.078746,-0.7225 -0.593312,-0.387 -1.09333,-0.7416 -1.111152,-0.788 -0.01783,-0.046 -0.05759,-0.069 -0.08837,-0.05 -0.03541,0.022 -0.05598,0.6046 -0.05598,1.5867 l 0,1.5522 0.208415,0.087 c 0.25574,0.1065 0.600138,0.4314 0.735813,0.6941 0.28369,0.5492 0.16838,1.1879 -0.29598,1.6394 -0.40921,0.3978 -0.967138,0.5252 -1.48692,0.3394 z m -1.087784,-14.5267 c 0.355166,-2.9294 0.344908,-4.4138 -0.05086,-7.3588 l -0.09453,-0.7034 -0.204627,0.072 c -1.272347,0.4489 -2.316719,1.5414 -2.79013,2.9186 -0.173884,0.5059 -0.181574,0.5641 -0.183466,1.3894 -0.0022,0.972 0.06223,1.3018 0.390071,1.9959 0.447375,0.9471 1.171981,1.7009 2.080262,2.1639 0.309089,0.1575 0.606679,0.2864 0.661308,0.2864 0.08607,0 0.111687,-0.1019 0.191978,-0.7642 z m 3.330334,0.5223 c 1.36816,-0.6866 2.257783,-1.879 2.519448,-3.3768 0.325737,-1.8645 -0.566207,-3.8121 -2.182246,-4.7648 -0.395644,-0.2333 -0.83933,-0.4288 -0.880239,-0.3879 -0.03718,0.037 -0.177981,1.0322 -0.30141,2.1299 -0.224878,1.9999 -0.210917,2.902 0.08259,5.3354 0.149007,1.2354 0.161669,1.3061 0.234054,1.3061 0.02524,0 0.262758,-0.1089 0.527808,-0.2419 z m -1.422649,-2.273 c -0.01544,-0.038 -0.02804,-0.01 -0.02804,0.07 0,0.076 0.0126,0.1078 0.02804,0.069 0.01544,-0.038 0.01544,-0.1009 0,-0.1389 z m -0.05308,-0.6107 c -0.01327,-0.069 -0.02466,-0.026 -0.02527,0.097 -6.16e-4,0.1224 0.01025,0.1789 0.02417,0.1257 0.01389,-0.053 0.01441,-0.1532 0.0011,-0.2223 l 0,0 z m -9.0029321,-1.8061 c -0.012779,-0.084 -0.023565,-0.029 -0.02399,0.1242 -4.171e-4,0.1529 0.01005,0.222 0.023227,0.1536 0.01319,-0.068 0.013536,-0.1934 7.825e-4,-0.2778 z m 7.8900481,-1.1367 c -0.01774,-0.044 -0.03091,-0.031 -0.03358,0.034 -0.0024,0.059 0.01075,0.091 0.02918,0.073 0.01849,-0.019 0.02045,-0.067 0.0044,-0.1065 l 1e-6,0 z m 1.24705,-5.4778 c -0.029,-0.054 -0.134437,-0.1723 -0.234279,-0.264 -0.174817,-0.1605 -0.173721,-0.157 0.0297,0.097 0.217942,0.2723 0.296684,0.3365 0.20458,0.1667 z"
       id="path48899"
       inkscape:connector-curvature="0" />
  </g>
</svg>
