<?xml version="1.0" encoding="UTF-8" standalone="no"?>
<!-- Created with Inkscape (http://www.inkscape.org/) -->

<svg
   xmlns:dc="http://purl.org/dc/elements/1.1/"
   xmlns:cc="http://creativecommons.org/ns#"
   xmlns:rdf="http://www.w3.org/1999/02/22-rdf-syntax-ns#"
   xmlns:svg="http://www.w3.org/2000/svg"
   xmlns="http://www.w3.org/2000/svg"
   xmlns:sodipodi="http://sodipodi.sourceforge.net/DTD/sodipodi-0.dtd"
   xmlns:inkscape="http://www.inkscape.org/namespaces/inkscape"
   width="32"
   height="32"
   viewBox="0 0 25.6 25.6"
   id="svg4180"
   version="1.1"
   inkscape:version="0.91 r13725"
   sodipodi:docname="sinkhole2.svg"
   inkscape:export-filename="C:\Users\Fabienne\Desktop\fehlende_symbole\einfach\png\sinkhole.png"
   inkscape:export-xdpi="90"
   inkscape:export-ydpi="90">
  <defs
     id="defs4182" />
  <sodipodi:namedview
     pagecolor="#ffffff"
     bordercolor="#666666"
     borderopacity="1.0"
     inkscape:pageopacity="0.0"
     inkscape:pageshadow="2"
     inkscape:zoom="8"
     inkscape:cx="-0.965434"
     inkscape:cy="27.365262"
     inkscape:document-units="pt"
     inkscape:current-layer="layer1"
     id="namedview4184"
     showgrid="false"
     inkscape:window-width="1396"
     inkscape:window-height="975"
     inkscape:window-x="7"
     inkscape:window-y="3"
     inkscape:window-maximized="0"
     units="px" />
  <metadata
     id="metadata4186">
    <rdf:RDF>
      <cc:Work
         rdf:about="">
        <dc:format>image/svg+xml</dc:format>
        <dc:type
           rdf:resource="http://purl.org/dc/dcmitype/StillImage" />
        <dc:title></dc:title>
      </cc:Work>
    </rdf:RDF>
  </metadata>
  <g
     inkscape:label="Layer 1"
     inkscape:groupmode="layer"
     id="layer1"
     transform="translate(0,-314.4)">
    <path
       style="fill:#c8823c;fill-opacity:1;stroke:none;stroke-width:3.75;stroke-linecap:round;stroke-linejoin:miter;stroke-miterlimit:4;stroke-dasharray:none;stroke-opacity:1"
       d="m 10.631536,332.42262 c -2.5789307,-0.17635 -4.5149103,-0.86752 -5.8434866,-2.08618 -0.7928888,-0.72729 -1.2597807,-1.53604 -1.433463,-2.48304 -0.074282,-0.40502 -0.092885,-1.17632 -0.028374,-1.17632 0.022093,0 0.090891,0.0765 0.1528871,0.17008 0.3921541,0.59171 1.7185132,1.19144 3.5154462,1.58955 4.4785234,0.99223 10.9505174,0.70753 14.1650374,-0.62311 0.541035,-0.22396 1.063057,-0.53478 1.303016,-0.77583 0.09609,-0.0965 0.174706,-0.16147 0.174706,-0.14432 0,0.0507 -0.307159,0.52593 -0.544977,0.84328 -1.400088,1.86833 -3.955181,3.42889 -6.844896,4.18063 -0.693313,0.18037 -1.630299,0.35046 -2.352332,0.42704 -0.584686,0.062 -1.857456,0.106 -2.263565,0.0782 z"
       id="path4773"
       inkscape:connector-curvature="0" />
    <path
       style="fill:#c8823c;fill-opacity:0.63157893;stroke:none;stroke-width:3.75;stroke-linecap:round;stroke-linejoin:miter;stroke-miterlimit:4;stroke-dasharray:none;stroke-opacity:1"
       d="m 11.252907,329.26894 c -0.09764,-0.009 -0.437179,-0.0381 -0.754521,-0.0638 -2.1717113,-0.17653 -4.21556,-0.64107 -5.5493862,-1.26129 -0.7171993,-0.3335 -1.180192,-0.68184 -1.4621598,-1.10008 -0.078104,-0.11585 -0.1531789,-0.19945 -0.1668417,-0.18578 -0.043346,0.0433 -0.087503,-0.41495 -0.054647,-0.56714 0.2852231,-1.32115 3.0257209,-2.38992 7.1664564,-2.79485 0.813497,-0.0795 4.335398,-0.08 5.126309,-7e-4 2.500635,0.25081 4.342458,0.6822 5.636718,1.32023 0.874613,0.43116 1.367877,0.88305 1.515733,1.3886 0.07676,0.26248 0.07898,0.23938 -0.07734,0.80521 -0.03896,0.14104 -0.618954,0.65569 -0.974804,0.86499 -0.99318,0.58415 -2.657929,1.0837 -4.503854,1.35147 -1.383518,0.20071 -1.894854,0.23363 -3.837835,0.2471 -1.037467,0.007 -1.966194,0.006 -2.063838,-0.004 z"
       id="path4777"
       inkscape:connector-curvature="0" />
  </g>
</svg>
