<?xml version="1.0" encoding="UTF-8" standalone="no"?>
<!-- Created with Inkscape (http://www.inkscape.org/) -->

<svg
   xmlns:dc="http://purl.org/dc/elements/1.1/"
   xmlns:cc="http://creativecommons.org/ns#"
   xmlns:rdf="http://www.w3.org/1999/02/22-rdf-syntax-ns#"
   xmlns:svg="http://www.w3.org/2000/svg"
   xmlns="http://www.w3.org/2000/svg"
   xmlns:sodipodi="http://sodipodi.sourceforge.net/DTD/sodipodi-0.dtd"
   xmlns:inkscape="http://www.inkscape.org/namespaces/inkscape"
   width="32"
   height="32"
   viewBox="0 0 25.6 25.6"
   id="svg4180"
   version="1.1"
   inkscape:version="0.91 r13725"
   sodipodi:docname="spring.svg"
   inkscape:export-filename="C:\Users\Fabienne\Desktop\fehlende_symbole\einfach\png\sinkhole.png"
   inkscape:export-xdpi="90"
   inkscape:export-ydpi="90">
  <defs
     id="defs4182" />
  <sodipodi:namedview
     pagecolor="#ffffff"
     bordercolor="#666666"
     borderopacity="1.0"
     inkscape:pageopacity="0.0"
     inkscape:pageshadow="2"
     inkscape:zoom="8"
     inkscape:cx="-0.965434"
     inkscape:cy="27.365262"
     inkscape:document-units="pt"
     inkscape:current-layer="layer1"
     id="namedview4184"
     showgrid="false"
     inkscape:window-width="1396"
     inkscape:window-height="975"
     inkscape:window-x="7"
     inkscape:window-y="3"
     inkscape:window-maximized="0"
     units="px" />
  <metadata
     id="metadata4186">
    <rdf:RDF>
      <cc:Work
         rdf:about="">
        <dc:format>image/svg+xml</dc:format>
        <dc:type
           rdf:resource="http://purl.org/dc/dcmitype/StillImage" />
        <dc:title></dc:title>
      </cc:Work>
    </rdf:RDF>
  </metadata>
  <g
     inkscape:label="Layer 1"
     inkscape:groupmode="layer"
     id="layer1"
     transform="translate(0,-314.4)">
    <path
       style="fill:#ffffff;fill-opacity:1;stroke:#ffffff;stroke-width:0.31628457;stroke-miterlimit:4;stroke-dasharray:none;stroke-opacity:1"
       d="m 4.1460053,339.81785 c -2.070692,-0.27127 -3.7227886,-1.95742 -3.9608326,-4.04246 -0.023835,-0.20875 -0.031787,-3.08032 -0.024331,-8.7822 l 0.011084,-8.47203 0.073986,-0.30745 c 0.1551086,-0.64458 0.3567665,-1.11536 0.6938095,-1.61975 0.6875034,-1.02884 1.8027347,-1.75009 3.0527944,-1.97432 0.3219405,-0.0577 0.8197848,-0.0612 8.8219384,-0.0612 9.47455,0 8.705664,-0.0194 9.475611,0.23851 0.693406,0.23223 1.235641,0.56149 1.755059,1.06573 0.548167,0.53215 0.941482,1.15656 1.170437,1.85817 0.242202,0.74219 0.226171,0.0701 0.226018,9.47479 -1.38e-4,9.11542 0.0074,8.70171 -0.170012,9.33755 -0.185939,0.66645 -0.620474,1.40984 -1.1224,1.92018 -0.654558,0.66553 -1.422031,1.0892 -2.393247,1.32116 -0.242053,0.0578 -0.721295,0.0614 -8.822019,0.0668 -4.7113345,0.003 -8.6658862,-0.007 -8.7878931,-0.0234 z m 17.4150427,-0.38961 c 1.721922,-0.30057 3.043796,-1.57322 3.442145,-3.31395 l 0.07818,-0.34162 0.01147,-8.30122 c 0.01166,-8.44877 0.0081,-8.73449 -0.114192,-9.26248 -0.18561,-0.80113 -0.614429,-1.54476 -1.223692,-2.12205 -0.590824,-0.55981 -1.251436,-0.90196 -2.103222,-1.0893 -0.276582,-0.0608 -0.635498,-0.0634 -8.837289,-0.0634 -8.0746893,0 -8.5656139,0.003 -8.8484662,0.061 -1.5321303,0.31231 -2.7495209,1.38148 -3.2298922,2.83663 -0.2207303,0.66864 -0.2076285,0.0765 -0.2076285,9.38336 0,9.31034 -0.013191,8.71447 0.207518,9.37389 0.4872614,1.45582 1.7618756,2.56441 3.2597606,2.83517 0.4153613,0.0751 17.1362593,0.0788 17.5653043,0.004 z"
       id="path4153"
       inkscape:connector-curvature="0" />
    <path
       style="fill:#ffffff;fill-opacity:1;stroke:#ffffff;stroke-width:0.31999999;stroke-miterlimit:4;stroke-dasharray:none;stroke-opacity:1"
       d="m 7.1775862,339.28849 c -3.1337578,-0.0217 -3.1858053,-0.0231 -3.4511647,-0.0977 -0.6997148,-0.19671 -1.3106441,-0.55592 -1.8260678,-1.07367 -0.5090064,-0.5113 -0.7934672,-0.97262 -1.0228425,-1.65877 l -0.1230663,-0.36814 -0.032959,-1.23024 c -0.046476,-1.73478 -0.014851,-16.02573 0.036289,-16.39852 0.07334,-0.53463 0.3639209,-1.21138 0.7328855,-1.70686 0.5559462,-0.74658 1.2762638,-1.24103 2.2112184,-1.51785 l 0.2939653,-0.087 2.0750492,-0.0252 c 2.698006,-0.0327 10.9498807,-0.0327 13.5396967,-8e-5 l 2.023172,0.0255 0.311257,0.0947 c 1.426442,0.4338 2.478511,1.51697 2.842259,2.92627 0.07951,0.30807 0.08768,0.42155 0.119662,1.66343 0.02132,0.8277 0.02602,4.10758 0.01242,8.65457 l -0.02191,7.32177 -0.08232,0.33147 c -0.371083,1.49424 -1.447883,2.62358 -2.888606,3.02954 l -0.327337,0.0922 -3.233619,0.027 c -3.637124,0.0304 -6.53544,0.0297 -11.187973,-0.002 l 0,0 z"
       id="path4745"
       inkscape:connector-curvature="0" />
    <path
       style="fill:#000000;fill-opacity:1;stroke:none;stroke-width:12.5;stroke-linecap:round;stroke-linejoin:miter;stroke-miterlimit:4;stroke-dasharray:none;stroke-opacity:1"
       d="m 3.152445,336.01521 c 0.7692229,-1.50305 1.848091,-2.66657 3.4081571,-3.67554 3.2915748,-2.12887 7.8974059,-2.2514 11.3530659,-0.30203 1.752073,0.98836 3.275968,2.54437 3.991047,4.07518 l 0.265815,0.56905 -9.679637,0 -9.6796357,0 0.3411877,-0.66666 z"
       id="path6468"
       inkscape:connector-curvature="0" />
    <path
       style="fill:#000000;fill-opacity:1;stroke:none;stroke-width:12.5;stroke-linecap:round;stroke-linejoin:miter;stroke-miterlimit:4;stroke-dasharray:none;stroke-opacity:1"
       d="m 11.847953,328.15547 c -0.0933,-2.00039 -0.250258,-2.58325 -0.809703,-3.00678 -0.276023,-0.20898 -0.514249,-0.2599 -1.029638,-0.22008 -1.0088679,0.078 -1.3733375,0.57058 -1.6574103,2.24035 -0.093867,0.55175 -0.480263,0.76676 -0.7840951,0.4363 -0.4446244,-0.48361 -0.077506,-2.12816 0.6810047,-3.05069 0.7550704,-0.91834 2.0530347,-1.18941 3.0605037,-0.63918 0.282084,0.15407 0.537244,0.25079 0.567022,0.21494 0.139342,-0.16772 -0.197568,-2.48657 -0.449509,-3.09382 -0.745164,-1.79609 -2.6039831,-2.56389 -4.132632,-1.707 -1.100872,0.6171 -1.9193446,2.13208 -1.9193446,3.55268 0,0.42658 -0.071724,0.69292 -0.2417323,0.89757 -0.2171976,0.26146 -0.2674914,0.27052 -0.4955207,0.0893 -0.3171167,-0.25197 -0.3811492,-0.89262 -0.1923214,-1.9242 0.3082142,-1.6838 1.2058464,-3.07918 2.4223751,-3.76563 0.5740638,-0.32391 0.8144484,-0.37467 1.7718088,-0.37417 0.97254,5.1e-4 1.187644,0.0478 1.7636341,0.38794 0.600917,0.35485 1.479688,1.31158 1.83614,1.99902 0.09388,0.18106 0.165423,0.22052 0.203595,0.11231 0.173486,-0.49168 0.914857,-1.45964 1.406449,-1.83629 2.809679,-2.15274 6.328693,0.0319 6.538707,4.05913 0.05089,0.97591 0.03424,1.08758 -0.183056,1.2276 -0.131472,0.0846 -0.321994,0.11556 -0.423383,0.069 -0.193572,-0.0893 -0.222223,-0.19394 -0.407554,-1.48692 -0.204811,-1.4289 -0.865294,-2.56354 -1.826418,-3.1376 -0.665652,-0.39758 -2.145706,-0.37544 -2.801922,0.0419 -0.636764,0.405 -1.36377,1.41794 -1.556872,2.16922 -0.153871,0.59866 -0.34601,2.78026 -0.244864,2.78026 0.02885,0 0.284709,-0.1353 0.568567,-0.30076 1.330021,-0.77505 2.949502,-0.0415 3.595503,1.62837 0.274782,0.71034 0.357495,1.6687 0.174079,2.017 -0.05579,0.10606 -0.243833,0.16664 -0.43479,0.14035 -0.310727,-0.0427 -0.348427,-0.11327 -0.492555,-0.92118 -0.189955,-1.06474 -0.586185,-1.62978 -1.306625,-1.86331 -0.440493,-0.14278 -0.586531,-0.12959 -1.041189,0.0941 -0.796811,0.39213 -1.008472,1.00131 -1.114139,3.20661 l -0.08401,1.75321 -0.438327,0 -0.438325,0 -0.08346,-1.7895 z"
       id="path6470"
       inkscape:connector-curvature="0" />
  </g>
</svg>
