<?xml version="1.0" encoding="UTF-8" standalone="no"?>
<!-- Created with Inkscape (http://www.inkscape.org/) -->

<svg
   xmlns:dc="http://purl.org/dc/elements/1.1/"
   xmlns:cc="http://creativecommons.org/ns#"
   xmlns:rdf="http://www.w3.org/1999/02/22-rdf-syntax-ns#"
   xmlns:svg="http://www.w3.org/2000/svg"
   xmlns="http://www.w3.org/2000/svg"
   xmlns:sodipodi="http://sodipodi.sourceforge.net/DTD/sodipodi-0.dtd"
   xmlns:inkscape="http://www.inkscape.org/namespaces/inkscape"
   width="32"
   height="32"
   viewBox="0 0 32 32.000001"
   id="svg4135"
   version="1.1"
   inkscape:version="0.91 r13725"
   sodipodi:docname="supermarket.svg">
  <defs
     id="defs4137" />
  <sodipodi:namedview
     id="base"
     pagecolor="#ffffff"
     bordercolor="#666666"
     borderopacity="1.0"
     inkscape:pageopacity="0.0"
     inkscape:pageshadow="2"
     inkscape:zoom="15.839192"
     inkscape:cx="9.9977156"
     inkscape:cy="7.550014"
     inkscape:document-units="px"
     inkscape:current-layer="layer1"
     showgrid="false"
     units="px"
     inkscape:window-width="1920"
     inkscape:window-height="1138"
     inkscape:window-x="-8"
     inkscape:window-y="-8"
     inkscape:window-maximized="1" />
  <metadata
     id="metadata4140">
    <rdf:RDF>
      <cc:Work
         rdf:about="">
        <dc:format>image/svg+xml</dc:format>
        <dc:type
           rdf:resource="http://purl.org/dc/dcmitype/StillImage" />
        <dc:title></dc:title>
      </cc:Work>
    </rdf:RDF>
  </metadata>
  <g
     inkscape:label="Ebene 1"
     inkscape:groupmode="layer"
     id="layer1"
     transform="translate(0,-1020.3622)">
    <path
       style="opacity:1;fill:#000000;fill-opacity:1;stroke:none;stroke-width:25;stroke-linecap:butt;stroke-linejoin:round;stroke-miterlimit:4;stroke-dasharray:none;stroke-dashoffset:0;stroke-opacity:1"
       d="m 9.7136102,1046.5883 c -0.641429,-0.2924 -0.9769189,-0.8183 -0.9779686,-1.5332 l -6.167e-4,-0.4201 -1.1298671,-0.022 c -1.0049017,-0.02 -1.144587,-0.035 -1.2629569,-0.1424 -0.3583795,-0.3245 -0.2728327,-1.0862 0.1390671,-1.2382 0.3451851,-0.1274 2.982676,-0.1801 9.215942,-0.1842 l 5.983601,0 -0.01739,-0.9943 -0.01739,-0.9944 -7.762492,-0.7756 c -4.2693651,-0.4266 -7.7727258,-0.7859 -7.7852402,-0.7984 -0.016091,-0.016 -1.7078048,-10.0429 -1.7183809,-10.1848 -6.467e-4,-0.01 4.4573645,-0.016 9.9066911,-0.016 9.381808,0 9.909563,-0.01 9.939806,-0.1105 0.01757,-0.061 0.09082,-0.3946 0.162785,-0.7418 0.206434,-0.9961 0.277412,-1.1437 0.623677,-1.2973 0.547378,-0.2427 2.332085,-0.8177 2.537977,-0.8177 0.157019,0 0.268088,0.064 0.480078,0.2758 0.255351,0.2553 0.275798,0.3003 0.275798,0.6061 0,0.2887 -0.0258,0.3559 -0.205187,0.534 -0.193741,0.1923 -0.359151,0.2679 -1.562579,0.7138 -0.403407,0.1495 -0.489516,0.2081 -0.581626,0.396 -0.05946,0.1214 -0.292081,1.0729 -0.516926,2.1147 -0.224846,1.0417 -0.808327,3.7476 -1.296627,6.013 l -0.887817,4.1191 0,1.7682 0,1.7683 -0.433459,0 -0.433459,0 -0.03094,0.4324 c -0.0533,0.7449 -0.478319,1.3378 -1.114373,1.5546 -0.415381,0.1415 -0.867231,0.1218 -1.239197,-0.054 -0.589349,-0.2786 -0.826918,-0.6664 -0.893942,-1.4593 l -0.04004,-0.4736 -3.51714,0 -3.51714,0 -0.03934,0.4261 c -0.07146,0.7741 -0.543187,1.4188 -1.164285,1.5913 -0.356191,0.099 -0.8371421,0.077 -1.1190428,-0.052 z m 12.1815548,-7.1815 c 0.05589,-0.022 0.129157,-0.091 0.162814,-0.1534 0.06299,-0.1177 0.503509,-2.0792 0.503509,-2.242 0,-0.072 -0.10718,-0.091 -0.505076,-0.091 l -0.505077,0 0,1.2627 c 0,1.2026 0.0058,1.2627 0.121106,1.2627 0.06661,0 0.166834,-0.018 0.222724,-0.039 z m -1.139766,-0.1872 c 0.02108,-0.055 0.03832,-0.5992 0.03832,-1.2096 l 0,-1.1097 -1.336981,0.04 c -0.73534,0.022 -1.362525,0.066 -1.393746,0.097 -0.03122,0.031 -0.04751,0.4734 -0.03619,0.9825 0.01571,0.707 0.04139,0.9386 0.108673,0.9801 0.04846,0.03 0.474615,0.1017 0.947018,0.1596 0.472403,0.058 0.915736,0.1137 0.985184,0.1241 0.380648,0.056 0.651166,0.031 0.687725,-0.064 z m -3.497212,-1.2903 0,-1.0114 -1.341609,0.017 -1.341609,0.017 -0.01769,0.8473 c -0.0097,0.466 0.0076,0.8725 0.03845,0.9034 0.06576,0.066 1.542036,0.2203 2.204734,0.2308 l 0.457725,0.01 0,-1.0114 z m -3.447587,0.659 c 0.02108,-0.055 0.03832,-0.4527 0.03832,-0.8839 l 0,-0.784 -1.357392,0 -1.357393,0 0.0044,0.6155 c 0.0024,0.3386 0.02652,0.6724 0.0535,0.7419 0.04387,0.1129 0.175475,0.1405 1.24247,0.2611 0.656372,0.074 1.225878,0.1381 1.265567,0.142 0.03969,0 0.08941,-0.038 0.110486,-0.093 l -1e-6,0 z m -3.370943,-0.9735 0,-0.6944 -1.5549295,0 -1.5549297,0 0.042076,0.3314 c 0.063156,0.4975 0.1596618,0.7435 0.3148747,0.8025 0.076397,0.029 0.5068727,0.084 0.9566132,0.1228 0.4497405,0.038 0.9171468,0.079 1.0386808,0.091 0.121534,0.012 0.3417165,0.026 0.4892935,0.031 l 0.268321,0.01 0,-0.6945 z m -1.065395,-1.452 1.002261,0 0,-1.3574 0,-1.3574 -1.7993344,0 -1.7993343,0 0,0.2153 c 0,0.3114 0.3148002,2.1237 0.4012498,2.3101 0.062503,0.1347 0.128631,0.1635 0.45155,0.1966 0.208078,0.021 0.4600039,0.028 0.5598354,0.016 0.099832,-0.013 0.6325291,-0.023 1.1837725,-0.023 z m 4.47466,-1.3574 0,-1.4206 -1.357392,0 -1.357393,0 0,1.4206 0,1.4205 1.357393,0 1.357392,0 0,-1.4205 z m 3.409265,0 0,-1.4218 -1.341609,0.017 -1.341609,0.017 -0.01711,1.3242 c -0.0094,0.7283 -0.0032,1.3604 0.0138,1.4047 0.02371,0.062 0.340369,0.081 1.358717,0.081 l 1.327806,0 0,-1.4217 0,0 z m 2.635867,1.3595 0.836532,-9e-4 0,-1.3586 0,-1.3587 -1.341608,0.017 -1.341609,0.017 -0.01706,1.3085 -0.01706,1.3085 0.143329,0.032 c 0.224743,0.05 0.635879,0.081 0.774674,0.057 0.06945,-0.012 0.502709,-0.022 0.962802,-0.022 z m 2.849036,-0.038 c 0.04618,-0.041 0.507869,-2.2702 0.510356,-2.4643 0.0023,-0.1792 -0.01886,-0.2005 -0.234233,-0.2361 -0.130215,-0.022 -0.513757,-0.039 -0.852316,-0.04 l -0.615562,-7e-4 0,1.4253 0,1.4252 0.583995,-0.044 c 0.321197,-0.024 0.594689,-0.054 0.60776,-0.065 z m -12.303433,-4.3508 0,-0.9155 -2.0834393,0 c -1.884058,0 -2.0834396,0.01 -2.0834396,0.103 0,0.1824 0.2003786,1.3698 0.2557358,1.5154 0.070379,0.1851 0.1269084,0.1903 2.1907274,0.2024 l 1.7204157,0.01 0,-0.9154 z m 3.409265,0 0,-0.9155 -1.357392,0 -1.357393,0 0,0.9155 0,0.9154 1.357393,0 1.357392,0 0,-0.9154 z m 3.409265,0 0,-0.9155 -1.357392,0 -1.357393,0 0,0.8734 c 0,0.4803 0.01894,0.8923 0.04209,0.9154 0.02315,0.023 0.633975,0.042 1.357392,0.042 l 1.315303,0 0,-0.9154 z m 3.535534,0 0,-0.9167 -1.373176,0.017 -1.373176,0.017 0,0.8495 0,0.8495 0.157836,0.044 c 0.08681,0.024 0.704739,0.047 1.373176,0.05 l 1.21534,0.01 0,-0.9167 z m 2.697287,0.8289 c 0.0438,-0.044 0.327112,-1.4161 0.330539,-1.6011 l 0.0026,-0.1421 -1.136422,0 -1.136422,0 0,0.9251 0,0.925 0.953015,-0.037 c 0.524158,-0.02 0.968154,-0.052 0.986658,-0.07 z"
       id="path5068"
       inkscape:connector-curvature="0" />
  </g>
</svg>
