<?xml version="1.0" encoding="UTF-8" standalone="no"?>
<!-- Created with Inkscape (http://www.inkscape.org/) -->

<svg
   xmlns:dc="http://purl.org/dc/elements/1.1/"
   xmlns:cc="http://creativecommons.org/ns#"
   xmlns:rdf="http://www.w3.org/1999/02/22-rdf-syntax-ns#"
   xmlns:svg="http://www.w3.org/2000/svg"
   xmlns="http://www.w3.org/2000/svg"
   xmlns:sodipodi="http://sodipodi.sourceforge.net/DTD/sodipodi-0.dtd"
   xmlns:inkscape="http://www.inkscape.org/namespaces/inkscape"
   width="32"
   height="32"
   viewBox="0 0 32 32.000001"
   id="svg4137"
   version="1.1"
   inkscape:version="0.91 r13725"
   sodipodi:docname="tram_stop_frame.svg">
  <defs
     id="defs4139">
    <pattern
       y="0"
       x="0"
       height="6"
       width="6"
       patternUnits="userSpaceOnUse"
       id="EMFhbasepattern" />
  </defs>
  <sodipodi:namedview
     id="base"
     pagecolor="#ffffff"
     bordercolor="#666666"
     borderopacity="1.0"
     inkscape:pageopacity="0.0"
     inkscape:pageshadow="2"
     inkscape:zoom="15.839192"
     inkscape:cx="17.290349"
     inkscape:cy="17.620771"
     inkscape:document-units="px"
     inkscape:current-layer="layer1"
     showgrid="false"
     units="px"
     inkscape:window-width="1920"
     inkscape:window-height="1138"
     inkscape:window-x="-8"
     inkscape:window-y="-8"
     inkscape:window-maximized="1" />
  <metadata
     id="metadata4142">
    <rdf:RDF>
      <cc:Work
         rdf:about="">
        <dc:format>image/svg+xml</dc:format>
        <dc:type
           rdf:resource="http://purl.org/dc/dcmitype/StillImage" />
        <dc:title></dc:title>
      </cc:Work>
    </rdf:RDF>
  </metadata>
  <g
     inkscape:label="Ebene 1"
     inkscape:groupmode="layer"
     id="layer1"
     transform="translate(0,-1020.3622)">
    <path
       inkscape:connector-curvature="0"
       id="path4786"
       d="m 3.2224826,1020.3622 25.5550174,0 c 1.723663,0 3.2225,1.424 3.2225,3.2226 l 0,25.5548 c 0,1.7239 -1.498837,3.2226 -3.2225,3.2226 l -25.5550174,0 C 1.4238871,1052.3622 0,1050.8635 0,1049.1396 l 0,-25.5548 c 0,-1.7986 1.4238871,-3.2226 3.2224826,-3.2226 z"
       style="fill:#000000;fill-opacity:1;fill-rule:nonzero;stroke:none" />
    <path
       inkscape:connector-curvature="0"
       id="path4788"
       d="m 27.203719,1022.3106 -22.3325342,0 c -1.5737591,0 -2.8477635,1.2742 -2.8477635,2.848 l 0,22.3325 c 0,1.5738 1.2740044,2.7726 2.8477635,2.7726 l 22.3325342,0 c 1.573781,0 2.847792,-1.1988 2.847792,-2.7726 l 0,-22.3325 c 0,-1.5738 -1.274011,-2.848 -2.847792,-2.848 z"
       style="fill:#ffffff;fill-opacity:1;fill-rule:nonzero;stroke:none" />
    <path
       style="fill:#000000;fill-opacity:1;stroke:none;stroke-width:17.5;stroke-linecap:round;stroke-linejoin:round;stroke-miterlimit:4;stroke-dasharray:none;stroke-opacity:1"
       d="m 4.9586162,1040.0296 0,-3.2245 2.2846042,-0.016 2.2846054,-0.015 0.015498,-2.9118 0.015506,-2.9117 -2.3001059,0 -2.3001049,0 0,-0.5156 0,-0.5156 6.570104,0.028 c 3.613559,0.015 6.570105,0.019 6.570105,0.01 0,-0.011 -0.81305,-0.8252 -1.806777,-1.8108 l -1.80678,-1.7922 -4.9126467,0 -4.9126461,0 0,-0.4182 0,-0.418 11.5275488,0 11.527546,0 0,0.418 0,0.4182 -5.808446,0 -5.808447,0 1.806179,1.8061 1.806179,1.8062 1.899373,-0.019 1.89937,-0.02 0.296118,0.6474 c 0.162864,0.356 0.297421,0.6609 0.299015,0.6777 0.0017,0.017 0.08933,0.1984 0.194975,0.4037 0.105643,0.2053 0.174962,0.3733 0.154041,0.3733 -0.02092,0 -0.008,0.036 0.029,0.081 0.03687,0.045 0.698663,1.4481 1.470655,3.1192 l 1.403622,3.0382 0,2.4954 0,2.4954 -11.199041,0 -11.1990432,0 0,-3.2247 z m 15.4098828,-5.4061 0,-3.6733 -0.298642,0 -0.29864,0 0,3.6733 0,3.6733 0.29864,0 0.298642,0 0,-3.6733 z m 5.114202,2.8521 c -0.205747,-0.4518 -0.949457,-2.0912 -1.65269,-3.6434 l -1.278606,-2.8221 -0.424976,0 -0.424979,0 -0.03933,1.1743 c -0.02163,0.6458 -0.03932,2.2853 -0.03932,3.6433 l 0,2.4691 2.116996,0 2.116999,0 -0.374086,-0.8212 z m -6.965777,-2.8819 0,-3.6435 -0.298641,0 -0.29864,0 0,3.6435 0,3.6434 0.29864,0 0.298641,0 0,-3.6434 z m -2.209943,-0.7167 0,-2.9268 -2.926684,0 -2.926684,0 0,2.9268 0,2.9266 2.926684,0 2.926684,0 0,-2.9266 z"
       id="path7850"
       inkscape:connector-curvature="0" />
    <path
       style="fill:#000000;fill-opacity:1;stroke:none;stroke-width:17.5;stroke-linecap:round;stroke-linejoin:round;stroke-miterlimit:4;stroke-dasharray:none;stroke-opacity:1"
       d="m 10.961303,1045.9995 c -0.665066,-0.1364 -1.1831772,-0.4326 -1.6515693,-0.9442 -0.2932901,-0.3204 -0.594449,-0.8593 -0.6810639,-1.2186 l -0.039584,-0.1643 2.9097692,0 2.909768,0 -0.03958,0.1643 c -0.09712,0.403 -0.40764,0.938 -0.753444,1.2981 -0.691706,0.7203 -1.721635,1.0558 -2.654298,0.8647 z"
       id="path7856"
       inkscape:connector-curvature="0" />
    <path
       style="fill:#000000;fill-opacity:1;stroke:none;stroke-width:17.5;stroke-linecap:round;stroke-linejoin:round;stroke-miterlimit:4;stroke-dasharray:none;stroke-opacity:1"
       d="m 16.783426,1045.9256 c -0.504189,-0.1719 -0.947402,-0.4594 -1.281684,-0.8311 -0.282932,-0.3148 -0.602126,-0.904 -0.665143,-1.228 l -0.03776,-0.1941 2.910759,0 2.910761,0 -0.03819,0.1643 c -0.021,0.09 -0.134458,0.3622 -0.252119,0.6042 -0.366504,0.7539 -1.134174,1.3719 -1.932586,1.5557 -0.467863,0.1079 -1.181709,0.077 -1.614042,-0.071 z"
       id="path7858"
       inkscape:connector-curvature="0" />
    <path
       style="fill:#000000;fill-opacity:1;stroke:none;stroke-width:17.5;stroke-linecap:round;stroke-linejoin:round;stroke-miterlimit:4;stroke-dasharray:none;stroke-opacity:1"
       d="m 4.7794321,1046.8082 0,-0.3883 11.4976829,0 11.497685,0 0,0.3883 0,0.3882 -11.497685,0 -11.4976829,0 0,-0.3882 z"
       id="path7860"
       inkscape:connector-curvature="0" />
  </g>
</svg>
