<?xml version="1.0" encoding="UTF-8" standalone="no"?>
<!-- Created with Inkscape (http://www.inkscape.org/) -->

<svg
   xmlns:dc="http://purl.org/dc/elements/1.1/"
   xmlns:cc="http://creativecommons.org/ns#"
   xmlns:rdf="http://www.w3.org/1999/02/22-rdf-syntax-ns#"
   xmlns:svg="http://www.w3.org/2000/svg"
   xmlns="http://www.w3.org/2000/svg"
   xmlns:sodipodi="http://sodipodi.sourceforge.net/DTD/sodipodi-0.dtd"
   xmlns:inkscape="http://www.inkscape.org/namespaces/inkscape"
   width="32"
   height="32"
   viewBox="0 0 32 32.000001"
   id="svg4135"
   version="1.1"
   inkscape:version="0.91 r13725"
   sodipodi:docname="university.svg">
  <defs
     id="defs4137" />
  <sodipodi:namedview
     id="base"
     pagecolor="#ffffff"
     bordercolor="#666666"
     borderopacity="1.0"
     inkscape:pageopacity="0.0"
     inkscape:pageshadow="2"
     inkscape:zoom="15.839192"
     inkscape:cx="9.9977156"
     inkscape:cy="7.550014"
     inkscape:document-units="px"
     inkscape:current-layer="layer1"
     showgrid="false"
     units="px"
     inkscape:window-width="1920"
     inkscape:window-height="1138"
     inkscape:window-x="-8"
     inkscape:window-y="-8"
     inkscape:window-maximized="1"
     showguides="false" />
  <metadata
     id="metadata4140">
    <rdf:RDF>
      <cc:Work
         rdf:about="">
        <dc:format>image/svg+xml</dc:format>
        <dc:type
           rdf:resource="http://purl.org/dc/dcmitype/StillImage" />
        <dc:title></dc:title>
      </cc:Work>
    </rdf:RDF>
  </metadata>
  <g
     inkscape:label="Ebene 1"
     inkscape:groupmode="layer"
     id="layer1"
     transform="translate(0,-1020.3622)">
    <path
       style="opacity:1;fill:#000000;fill-opacity:1;stroke:none;stroke-width:25;stroke-linecap:butt;stroke-linejoin:round;stroke-miterlimit:4;stroke-dasharray:none;stroke-dashoffset:0;stroke-opacity:1"
       d="m 14.4487,1047.4337 c -0.862799,-0.1108 -2.035786,-0.3563 -2.759645,-0.5777 l -0.549936,-0.1682 -0.03302,-0.2591 c -0.03507,-0.2752 -0.343384,-2.4046 -0.695671,-4.8048 -0.117223,-0.7987 -0.233468,-1.6885 -0.258323,-1.9774 l -0.04519,-0.5253 0.216458,0.091 c 0.233251,0.097 4.013181,2.3565 4.942784,2.954 l 0.564913,0.3631 0.317595,-0.1609 c 0.174678,-0.089 1.369404,-0.8005 2.654948,-1.5822 4.774026,-2.9028 6.481477,-3.9308 6.77997,-4.0821 l 0.306416,-0.1552 0.03993,0.4227 c 0.0636,0.6734 0.04607,4.7854 -0.02307,5.4104 -0.05101,0.4611 -0.112088,0.6686 -0.324106,1.101 -0.219122,0.4468 -0.36924,0.6408 -0.930992,1.2033 -0.735343,0.7362 -1.169426,1.0457 -2.121838,1.5127 -1.124675,0.5515 -2.461009,0.954 -3.882774,1.1695 -0.943048,0.1429 -3.308403,0.1799 -4.198447,0.066 z"
       id="path5130"
       inkscape:connector-curvature="0" />
    <path
       style="opacity:1;fill:#000000;fill-opacity:1;stroke:none;stroke-width:25;stroke-linecap:butt;stroke-linejoin:round;stroke-miterlimit:4;stroke-dasharray:none;stroke-dashoffset:0;stroke-opacity:1"
       d="m 8.514054,1046.5867 c -0.6071286,-0.3491 -0.5899117,-0.2362 -0.2872332,-1.8825 0.4125347,-2.2439 1.0739297,-5.5923 1.132192,-5.732 0.047198,-0.1131 0.056726,-0.1065 0.091655,0.063 0.075312,0.3659 0.3263737,2.8395 0.6296782,6.204 l 0.0812,0.9008 -0.1924016,0.1978 c -0.2397396,0.2466 -0.6285826,0.4283 -0.9184468,0.4294 -0.1293006,4e-4 -0.3519284,-0.074 -0.5366436,-0.1807 z"
       id="path5132"
       inkscape:connector-curvature="0" />
    <path
       style="opacity:1;fill:#000000;fill-opacity:1;stroke:none;stroke-width:25;stroke-linecap:butt;stroke-linejoin:round;stroke-miterlimit:4;stroke-dasharray:none;stroke-dashoffset:0;stroke-opacity:1"
       d="m 7.2553965,1043.8718 c -0.1243441,-0.2047 -0.3000943,-0.5385 -0.3905561,-0.7418 l -0.1644759,-0.3697 -0.033801,-2.9293 -0.033801,-2.9293 0.2610741,0.1467 c 0.1435907,0.081 0.6094971,0.3624 1.0353475,0.6259 0.685773,0.4243 0.7763364,0.5006 0.792322,0.6675 0.00993,0.1037 -0.1376014,0.9272 -0.3278403,1.83 -0.1902388,0.9028 -0.4520841,2.1884 -0.5818785,2.8568 -0.1297942,0.6685 -0.2572119,1.2154 -0.2831502,1.2154 -0.025938,0 -0.1488967,-0.1675 -0.2732407,-0.3722 z"
       id="path5134"
       inkscape:connector-curvature="0" />
    <path
       style="opacity:1;fill:#000000;fill-opacity:1;stroke:none;stroke-width:25;stroke-linecap:butt;stroke-linejoin:round;stroke-miterlimit:4;stroke-dasharray:none;stroke-dashoffset:0;stroke-opacity:1"
       d="m 14.006758,1040.1855 c -1.399121,-0.8629 -3.046419,-1.9026 -3.590036,-2.2659 -0.04058,-0.027 -0.03079,-0.083 0.02699,-0.1537 0.08355,-0.1023 3.546988,-2.7176 4.493015,-3.3927 0.399335,-0.2849 0.425848,-0.2939 0.870053,-0.2939 0.598401,0 0.891888,-0.094 1.234167,-0.3953 0.244111,-0.2148 0.28037,-0.2795 0.28037,-0.5 0,-0.5598 -0.417142,-0.8773 -1.213312,-0.9234 -0.821665,-0.048 -1.369297,0.2762 -1.469394,0.8687 -0.04189,0.2479 -0.08294,0.2872 -0.906079,0.8681 -0.47421,0.3347 -1.675649,1.1861 -2.669864,1.892 -0.994215,0.7059 -1.8365606,1.2835 -1.8718786,1.2835 -0.035319,0 -0.741834,-0.4158 -1.5700341,-0.924 -4.6676613,-2.8643 -5.0097852,-3.0882 -5.0097852,-3.2787 0,-0.053 0.062039,-0.09 0.1512744,-0.09 0.083201,0 0.4028195,-0.1659 0.7102635,-0.3687 0.307449,-0.2027 0.7720731,-0.4929 1.0325031,-0.6449 0.2604299,-0.152 2.7747628,-1.6717 5.5874059,-3.3772 2.812644,-1.7054 5.317368,-3.221 5.566053,-3.3679 l 0.452155,-0.2672 0.337027,0.17 c 0.185364,0.094 0.777389,0.4311 1.315611,0.7502 0.994882,0.5899 9.488736,5.7494 10.773346,6.5442 0.386863,0.2393 0.734892,0.4352 0.773398,0.4352 0.03851,0 0.07001,0.026 0.07001,0.058 0,0.032 0.04972,0.068 0.110485,0.08 0.13964,0.027 -0.252871,0.2751 -6.076699,3.8407 -5.828538,3.5684 -7.45128,4.5441 -7.556486,4.5435 -0.04554,-3e-4 -0.878288,-0.4911 -1.85056,-1.0907 z"
       id="path5136"
       inkscape:connector-curvature="0" />
  </g>
</svg>
