<?xml version="1.0" encoding="UTF-8" standalone="no"?>
<!-- Created with Inkscape (http://www.inkscape.org/) -->

<svg
   xmlns:dc="http://purl.org/dc/elements/1.1/"
   xmlns:cc="http://creativecommons.org/ns#"
   xmlns:rdf="http://www.w3.org/1999/02/22-rdf-syntax-ns#"
   xmlns:svg="http://www.w3.org/2000/svg"
   xmlns="http://www.w3.org/2000/svg"
   xmlns:sodipodi="http://sodipodi.sourceforge.net/DTD/sodipodi-0.dtd"
   xmlns:inkscape="http://www.inkscape.org/namespaces/inkscape"
   width="32"
   height="32"
   viewBox="0 0 32 32.000001"
   id="svg4135"
   version="1.1"
   inkscape:version="0.91 r13725"
   sodipodi:docname="university_frame_color.svg">
  <defs
     id="defs4137" />
  <sodipodi:namedview
     id="base"
     pagecolor="#ffffff"
     bordercolor="#666666"
     borderopacity="1.0"
     inkscape:pageopacity="0.0"
     inkscape:pageshadow="2"
     inkscape:zoom="15.839192"
     inkscape:cx="-17.592076"
     inkscape:cy="7.550014"
     inkscape:document-units="px"
     inkscape:current-layer="layer1"
     showgrid="false"
     units="px"
     inkscape:window-width="1920"
     inkscape:window-height="1138"
     inkscape:window-x="-8"
     inkscape:window-y="-8"
     inkscape:window-maximized="1"
     showguides="false" />
  <metadata
     id="metadata4140">
    <rdf:RDF>
      <cc:Work
         rdf:about="">
        <dc:format>image/svg+xml</dc:format>
        <dc:type
           rdf:resource="http://purl.org/dc/dcmitype/StillImage" />
        <dc:title></dc:title>
      </cc:Work>
    </rdf:RDF>
  </metadata>
  <g
     inkscape:label="Ebene 1"
     inkscape:groupmode="layer"
     id="layer1"
     transform="translate(0,-1020.3622)">
    <path
       inkscape:connector-curvature="0"
       id="path4140"
       d="m 3.2224824,1020.3622 25.5550136,0 c 1.723663,0 3.222504,1.424 3.222504,3.2226 l 0,25.5548 c 0,1.7239 -1.498841,3.2226 -3.222504,3.2226 l -25.5550136,0 C 1.4238863,1052.3622 0,1050.8635 0,1049.1396 l 0,-25.5548 c 0,-1.7986 1.4238863,-3.2226 3.2224824,-3.2226 z"
       style="fill:#ff7f2a;fill-opacity:1;fill-rule:nonzero;stroke:none" />
    <path
       inkscape:connector-curvature="0"
       id="path4142"
       d="m 27.203716,1022.3106 -22.33253,0 c -1.5737615,0 -2.8477645,1.2742 -2.8477645,2.848 l 0,22.3325 c 0,1.5738 1.274003,2.7726 2.8477645,2.7726 l 22.33253,0 c 1.57378,0 2.847792,-1.1988 2.847792,-2.7726 l 0,-22.3325 c 0,-1.5738 -1.274012,-2.848 -2.847792,-2.848 z"
       style="fill:#ffffff;fill-opacity:1;fill-rule:nonzero;stroke:none" />
    <path
       style="opacity:1;fill:#ff7f2a;fill-opacity:1;stroke:none;stroke-width:25;stroke-linecap:butt;stroke-linejoin:round;stroke-miterlimit:4;stroke-dasharray:none;stroke-dashoffset:0;stroke-opacity:1"
       d="m 14.708644,1046.0671 c -0.757502,-0.097 -1.787337,-0.3129 -2.422855,-0.5072 l -0.482822,-0.1477 -0.02899,-0.2274 c -0.03079,-0.2417 -0.301477,-2.1112 -0.61077,-4.2185 -0.102918,-0.7012 -0.204976,-1.4824 -0.226797,-1.7361 l -0.03968,-0.4611 0.190041,0.08 c 0.204785,0.085 3.523408,2.0689 4.339562,2.5935 l 0.49597,0.3188 0.278835,-0.1412 c 0.15336,-0.078 1.202281,-0.7029 2.330936,-1.3891 4.191398,-2.5486 5.69047,-3.4512 5.952535,-3.584 l 0.26902,-0.1363 0.03505,0.3712 c 0.05584,0.5912 0.04045,4.2014 -0.02026,4.7501 -0.04478,0.4048 -0.09841,0.587 -0.284551,0.9666 -0.192381,0.3923 -0.324179,0.5627 -0.817374,1.0565 -0.645601,0.6464 -1.026708,0.9181 -1.862886,1.3281 -0.987419,0.4842 -2.160665,0.8376 -3.408916,1.0267 -0.827958,0.1256 -2.904642,0.158 -3.686065,0.058 z"
       id="path5130"
       inkscape:connector-curvature="0" />
    <path
       style="opacity:1;fill:#ff7f2a;fill-opacity:1;stroke:none;stroke-width:25;stroke-linecap:butt;stroke-linejoin:round;stroke-miterlimit:4;stroke-dasharray:none;stroke-dashoffset:0;stroke-opacity:1"
       d="m 9.4982678,1045.3235 c -0.533034,-0.3066 -0.5179183,-0.2074 -0.252179,-1.6528 0.3621885,-1.9701 0.9428672,-4.9098 0.9940182,-5.0324 0.04144,-0.099 0.0498,-0.093 0.08047,0.055 0.06612,0.3212 0.286543,2.4929 0.552832,5.4468 l 0.07129,0.7908 -0.16892,0.1737 c -0.210482,0.2165 -0.551871,0.376 -0.8063593,0.377 -0.113521,4e-4 -0.3089791,-0.065 -0.4711514,-0.1586 z"
       id="path5132"
       inkscape:connector-curvature="0" />
    <path
       style="opacity:1;fill:#ff7f2a;fill-opacity:1;stroke:none;stroke-width:25;stroke-linecap:butt;stroke-linejoin:round;stroke-miterlimit:4;stroke-dasharray:none;stroke-dashoffset:0;stroke-opacity:1"
       d="m 8.3932182,1042.9399 c -0.109169,-0.1797 -0.2634705,-0.4728 -0.3428922,-0.6513 l -0.1444031,-0.3245 -0.029676,-2.5719 -0.029676,-2.5717 0.2292124,0.1287 c 0.1260667,0.071 0.5351133,0.3182 0.9089925,0.5495 0.6020805,0.3726 0.6815915,0.4396 0.6956262,0.5861 0.00872,0.091 -0.1208084,0.814 -0.2878304,1.6066 -0.1670218,0.7926 -0.3969112,1.9213 -0.5108653,2.5082 -0.113954,0.5869 -0.2258216,1.067 -0.2485943,1.067 -0.022772,0 -0.1307252,-0.147 -0.2398941,-0.3267 z"
       id="path5134"
       inkscape:connector-curvature="0" />
    <path
       style="opacity:1;fill:#ff7f2a;fill-opacity:1;stroke:none;stroke-width:25;stroke-linecap:butt;stroke-linejoin:round;stroke-miterlimit:4;stroke-dasharray:none;stroke-dashoffset:0;stroke-opacity:1"
       d="m 14.320637,1039.7035 c -1.228371,-0.7577 -2.674631,-1.6705 -3.151905,-1.9894 -0.03563,-0.023 -0.02703,-0.073 0.0237,-0.1349 0.07335,-0.09 3.114109,-2.3859 3.944683,-2.9787 0.350599,-0.2501 0.373876,-0.258 0.76387,-0.258 0.525372,0 0.783042,-0.083 1.083549,-0.3471 0.214319,-0.1886 0.246153,-0.2454 0.246153,-0.439 0,-0.4915 -0.366234,-0.7702 -1.065239,-0.8107 -0.721388,-0.042 -1.202186,0.2425 -1.290067,0.7627 -0.03678,0.2177 -0.07282,0.2522 -0.795501,0.7621 -0.416336,0.294 -1.47115,1.0414 -2.344031,1.6612 -0.872879,0.6197 -1.612424,1.1268 -1.643432,1.1268 -0.03101,0 -0.6512996,-0.365 -1.3784253,-0.8112 -4.098015,-2.5147 -4.3983857,-2.7113 -4.3983857,-2.8786 0,-0.047 0.054468,-0.079 0.1328127,-0.079 0.073047,0 0.353659,-0.1457 0.6235822,-0.3237 0.2699276,-0.178 0.6778485,-0.4327 0.9064953,-0.5662 0.2286468,-0.1334 2.4361278,-1.4676 4.9055138,-2.965 2.469386,-1.4973 4.66843,-2.8279 4.886766,-2.9569 l 0.396973,-0.2346 0.295896,0.1492 c 0.162742,0.083 0.682515,0.3785 1.155052,0.6587 0.873466,0.5179 8.330721,5.0478 9.458555,5.7455 0.339651,0.2101 0.645206,0.3821 0.679012,0.3821 0.03381,0 0.06147,0.023 0.06147,0.051 0,0.028 0.04365,0.059 0.09701,0.07 0.122597,0.023 -0.222011,0.2415 -5.335093,3.3719 -5.117217,3.133 -6.541918,3.9896 -6.634284,3.9891 -0.03998,-3e-4 -0.771101,-0.4312 -1.624716,-0.9576 z"
       id="path5136"
       inkscape:connector-curvature="0" />
  </g>
</svg>
