<?xml version="1.0" encoding="UTF-8" standalone="no"?>
<!-- Created with Inkscape (http://www.inkscape.org/) -->

<svg
   xmlns:dc="http://purl.org/dc/elements/1.1/"
   xmlns:cc="http://creativecommons.org/ns#"
   xmlns:rdf="http://www.w3.org/1999/02/22-rdf-syntax-ns#"
   xmlns:svg="http://www.w3.org/2000/svg"
   xmlns="http://www.w3.org/2000/svg"
   xmlns:sodipodi="http://sodipodi.sourceforge.net/DTD/sodipodi-0.dtd"
   xmlns:inkscape="http://www.inkscape.org/namespaces/inkscape"
   width="32"
   height="32"
   viewBox="0 0 32 32.000001"
   id="svg4137"
   version="1.1"
   inkscape:version="0.91 r13725"
   sodipodi:docname="water_tower.svg">
  <defs
     id="defs4139" />
  <sodipodi:namedview
     id="base"
     pagecolor="#ffffff"
     bordercolor="#666666"
     borderopacity="1.0"
     inkscape:pageopacity="0.0"
     inkscape:pageshadow="2"
     inkscape:zoom="15.839192"
     inkscape:cx="17.290349"
     inkscape:cy="17.620771"
     inkscape:document-units="px"
     inkscape:current-layer="layer1"
     showgrid="false"
     units="px"
     inkscape:window-width="1920"
     inkscape:window-height="1138"
     inkscape:window-x="-8"
     inkscape:window-y="-8"
     inkscape:window-maximized="1" />
  <metadata
     id="metadata4142">
    <rdf:RDF>
      <cc:Work
         rdf:about="">
        <dc:format>image/svg+xml</dc:format>
        <dc:type
           rdf:resource="http://purl.org/dc/dcmitype/StillImage" />
        <dc:title></dc:title>
      </cc:Work>
    </rdf:RDF>
  </metadata>
  <g
     inkscape:label="Ebene 1"
     inkscape:groupmode="layer"
     id="layer1"
     transform="translate(0,-1020.3622)">
    <path
       style="fill:#000000;fill-opacity:1;stroke:none;stroke-width:6.25;stroke-miterlimit:4;stroke-dasharray:none;stroke-opacity:1"
       d="m 6.2618458,1042.3607 c -0.5749625,-0.2683 -1.218848,-0.9252 -1.4520432,-1.4814 -0.085707,-0.2043 -0.1574366,-0.6473 -0.1594098,-0.9842 -0.00358,-0.6208 0.2977664,-1.787 0.4618606,-1.787 0.049213,0 0.061089,-0.046 0.026386,-0.1021 -0.034715,-0.056 -0.00947,-0.1021 0.05596,-0.1021 0.065479,0 0.095007,-0.063 0.065607,-0.1393 -0.029401,-0.077 0.3012413,-0.8693 0.7347581,-1.7614 0.4335168,-0.8921 0.9426362,-2.007 1.1313765,-2.4774 l 0.3431628,-0.8553 0.4298535,1.1699 c 0.2364195,0.6435 0.7511441,1.8555 1.1438334,2.6934 0.908983,1.9393 1.0912483,2.4901 1.0954493,3.3102 0.0061,1.1928 -0.6980526,2.2094 -1.8157877,2.6215 -0.5646762,0.2083 -1.4912048,0.1611 -2.0609953,-0.1049 z"
       id="path50022"
       inkscape:connector-curvature="0" />
    <path
       style="fill:#000000;fill-opacity:1;stroke:none;stroke-width:6.25;stroke-miterlimit:4;stroke-dasharray:none;stroke-opacity:1"
       d="m 11.662743,1048.7574 c 0.03112,-0.1006 0.244111,-1.0789 0.473307,-2.1741 2.047851,-9.7849 2.754097,-13.2172 2.754097,-13.3847 0,-0.1802 -0.08244,-0.196 -1.022577,-0.196 l -1.022574,0 0.02701,-3.126 0.02701,-3.1261 2.859082,-1.5735 c 1.572494,-0.8654 2.95801,-1.5992 3.078922,-1.6307 0.22523,-0.058 0.324674,-0.01 2.537132,1.2374 0.617766,0.3483 1.352958,0.7596 1.633761,0.9141 1.369729,0.7533 1.788376,0.9962 1.825105,1.0589 0.022,0.038 0.07343,1.4582 0.114277,3.1571 l 0.07429,3.0888 -0.93025,0 c -0.511638,0 -0.93025,0.043 -0.93025,0.095 0,0.082 3.072373,14.9813 3.217825,15.6048 0.0521,0.2235 0.0313,0.2298 -0.75416,0.2298 l -0.807746,0 -0.162524,-0.7197 c -0.159568,-0.7066 -0.207005,-0.7766 -2.610144,-3.8546 -1.346192,-1.7243 -2.580071,-3.2929 -2.741952,-3.4857 l -0.294329,-0.3508 -2.678367,3.3439 -2.678367,3.3439 -0.17957,0.8359 -0.179568,0.836 -0.843002,0.03 c -0.77055,0.028 -0.838144,0.014 -0.786423,-0.1531 z m 12.008873,-5.1719 c 0,-0.04 -1.137921,-5.4924 -1.329529,-6.3708 -0.06432,-0.2949 -0.14759,-0.5347 -0.185056,-0.5331 -0.125658,0.01 -2.008597,2.4477 -1.977836,2.5651 0.0167,0.064 0.774876,1.0715 1.684816,2.2395 1.430755,1.8364 1.807605,2.2741 1.807605,2.0993 z m -7.682389,-1.929 c 0.776221,-0.9688 1.536455,-1.9276 1.68941,-2.1306 l 0.2781,-0.3692 -0.730509,-0.9583 c -1.032241,-1.354 -1.308424,-1.6573 -1.36519,-1.4993 -0.05867,0.1633 -1.379331,6.5146 -1.379331,6.6333 0,0.047 0.02164,0.085 0.0481,0.085 0.02645,0 0.683193,-0.7926 1.459415,-1.7615 z m 4.411418,-5.4958 c 0.850014,-1.0482 1.327338,-1.7214 1.321077,-1.8635 -0.0053,-0.1223 -0.06313,-0.4522 -0.128306,-0.733 l -0.118504,-0.5105 -2.412823,-0.028 c -2.734897,-0.031 -2.504149,-0.1098 -2.599323,0.8868 l -0.05444,0.57 1.296284,1.6593 c 0.712955,0.9126 1.31178,1.6593 1.33072,1.6593 0.01894,0 0.633334,-0.7384 1.365315,-1.6411 z m 2.5562,-6.8851 0,-1.4805 -4.033349,0 -4.033349,0 0,1.4805 0,1.4807 4.033349,0 4.033349,0 0,-1.4807 z"
       id="path50024"
       inkscape:connector-curvature="0" />
  </g>
</svg>
