<?xml version="1.0" encoding="UTF-8" standalone="no"?>
<!-- Created with Inkscape (http://www.inkscape.org/) -->

<svg
   xmlns:dc="http://purl.org/dc/elements/1.1/"
   xmlns:cc="http://creativecommons.org/ns#"
   xmlns:rdf="http://www.w3.org/1999/02/22-rdf-syntax-ns#"
   xmlns:svg="http://www.w3.org/2000/svg"
   xmlns="http://www.w3.org/2000/svg"
   xmlns:sodipodi="http://sodipodi.sourceforge.net/DTD/sodipodi-0.dtd"
   xmlns:inkscape="http://www.inkscape.org/namespaces/inkscape"
   width="32"
   height="32"
   viewBox="0 0 32 32.000001"
   id="svg4135"
   version="1.1"
   inkscape:version="0.91 r13725"
   sodipodi:docname="water_well_frame.svg">
  <defs
     id="defs4137" />
  <sodipodi:namedview
     id="base"
     pagecolor="#ffffff"
     bordercolor="#666666"
     borderopacity="1.0"
     inkscape:pageopacity="0.0"
     inkscape:pageshadow="2"
     inkscape:zoom="15.839192"
     inkscape:cx="-3.79718"
     inkscape:cy="7.550014"
     inkscape:document-units="px"
     inkscape:current-layer="layer1"
     showgrid="false"
     units="px"
     inkscape:window-width="1920"
     inkscape:window-height="1138"
     inkscape:window-x="-8"
     inkscape:window-y="-8"
     inkscape:window-maximized="1"
     showguides="false" />
  <metadata
     id="metadata4140">
    <rdf:RDF>
      <cc:Work
         rdf:about="">
        <dc:format>image/svg+xml</dc:format>
        <dc:type
           rdf:resource="http://purl.org/dc/dcmitype/StillImage" />
        <dc:title></dc:title>
      </cc:Work>
    </rdf:RDF>
  </metadata>
  <g
     inkscape:label="Ebene 1"
     inkscape:groupmode="layer"
     id="layer1"
     transform="translate(0,-1020.3622)">
    <path
       inkscape:connector-curvature="0"
       id="path4140"
       d="m 3.222483,1020.3622 25.555013,0 c 1.723663,0 3.222504,1.424 3.222504,3.2226 l 0,25.5548 c 0,1.7239 -1.498841,3.2226 -3.222504,3.2226 l -25.555013,0 C 1.423887,1052.3622 0,1050.8635 0,1049.1396 l 0,-25.5548 c 0,-1.7986 1.423887,-3.2226 3.222483,-3.2226 z"
       style="fill:#000000;fill-opacity:1;fill-rule:nonzero;stroke:none" />
    <path
       inkscape:connector-curvature="0"
       id="path4142"
       d="m 27.203716,1022.3106 -22.33253,0 c -1.573761,0 -2.847764,1.2742 -2.847764,2.848 l 0,22.3325 c 0,1.5738 1.274003,2.7726 2.847764,2.7726 l 22.33253,0 c 1.57378,0 2.847792,-1.1988 2.847792,-2.7726 l 0,-22.3325 c 0,-1.5738 -1.274012,-2.848 -2.847792,-2.848 z"
       style="fill:#ffffff;fill-opacity:1;fill-rule:nonzero;stroke:none" />
    <path
       style="opacity:1;fill:#000000;fill-opacity:1;stroke:none;stroke-width:25;stroke-linecap:butt;stroke-linejoin:round;stroke-miterlimit:4;stroke-dasharray:none;stroke-dashoffset:0;stroke-opacity:1"
       d="m 7.1711889,1037.9359 c -0.010783,-5.4763 -0.034922,-8.0107 -0.076696,-8.0524 -0.042513,-0.042 -0.2160277,-0.016 -0.573396,0.087 -0.7264234,0.2106 -1.613952,0.3886 -1.6649296,0.3338 -0.051574,-0.055 -0.2880219,-0.9837 -0.2880219,-1.1306 0,-0.077 0.099807,-0.1323 0.3924568,-0.219 1.1674804,-0.3456 8.7725088,-2.3889 8.8911098,-2.3889 0.06607,0 0.299297,0.6425 0.393752,1.0848 0.03819,0.1787 0.03125,0.1864 -0.269469,0.296 -0.169767,0.062 -0.690837,0.2114 -1.157936,0.3321 l -0.849269,0.2195 -0.03709,0.5601 c -0.0204,0.308 -0.03722,1.129 -0.03739,1.8245 l -3.01e-4,1.2647 1.686111,0 1.686111,0 0,0.2277 c 0,0.3307 0.04689,0.4118 0.238163,0.4118 0.473718,0 1.251584,0.4905 1.910718,1.2049 0.703914,0.7629 1.079126,1.6354 1.488023,3.4601 0.107617,0.4802 0.203284,0.8803 0.212594,0.8894 0.0093,0.01 1.868016,0.035 4.130457,0.059 l 4.113529,0.042 0,3.7419 0,3.7418 -10.086394,0 -10.0863938,0 -0.015736,-7.9915 z m 11.7882821,0.3605 c -0.01652,-0.072 -0.09779,-0.4578 -0.180588,-0.8576 -0.164096,-0.7921 -0.408589,-1.6054 -0.639903,-2.1284 -0.555414,-1.256 -1.734005,-2.3408 -2.573004,-2.3686 l -0.270678,-0.01 -0.01805,0.218 -0.01804,0.2181 -1.682602,0 -1.6826,0 0,2.5291 0,2.5292 3.547754,0 3.547755,0 -0.03004,-0.1308 z"
       id="path5144"
       inkscape:connector-curvature="0" />
  </g>
</svg>
