<?xml version="1.0" encoding="UTF-8" standalone="no"?>
<!-- Created with Inkscape (http://www.inkscape.org/) -->

<svg
   xmlns:dc="http://purl.org/dc/elements/1.1/"
   xmlns:cc="http://creativecommons.org/ns#"
   xmlns:rdf="http://www.w3.org/1999/02/22-rdf-syntax-ns#"
   xmlns:svg="http://www.w3.org/2000/svg"
   xmlns="http://www.w3.org/2000/svg"
   xmlns:sodipodi="http://sodipodi.sourceforge.net/DTD/sodipodi-0.dtd"
   xmlns:inkscape="http://www.inkscape.org/namespaces/inkscape"
   width="32"
   height="32"
   viewBox="0 0 32 32.000001"
   id="svg4135"
   version="1.1"
   inkscape:version="0.91 r13725"
   sodipodi:docname="water_well.svg">
  <defs
     id="defs4137" />
  <sodipodi:namedview
     id="base"
     pagecolor="#ffffff"
     bordercolor="#666666"
     borderopacity="1.0"
     inkscape:pageopacity="0.0"
     inkscape:pageshadow="2"
     inkscape:zoom="15.839192"
     inkscape:cx="9.9977156"
     inkscape:cy="7.550014"
     inkscape:document-units="px"
     inkscape:current-layer="layer1"
     showgrid="false"
     units="px"
     inkscape:window-width="1920"
     inkscape:window-height="1138"
     inkscape:window-x="-8"
     inkscape:window-y="-8"
     inkscape:window-maximized="1"
     showguides="false" />
  <metadata
     id="metadata4140">
    <rdf:RDF>
      <cc:Work
         rdf:about="">
        <dc:format>image/svg+xml</dc:format>
        <dc:type
           rdf:resource="http://purl.org/dc/dcmitype/StillImage" />
        <dc:title></dc:title>
      </cc:Work>
    </rdf:RDF>
  </metadata>
  <g
     inkscape:label="Ebene 1"
     inkscape:groupmode="layer"
     id="layer1"
     transform="translate(0,-1020.3622)">
    <path
       style="opacity:1;fill:#000000;fill-opacity:1;stroke:none;stroke-width:25;stroke-linecap:butt;stroke-linejoin:round;stroke-miterlimit:4;stroke-dasharray:none;stroke-dashoffset:0;stroke-opacity:1"
       d="m 6.0057593,1037.5233 c -0.011709,-5.9466 -0.037921,-8.6987 -0.083282,-8.744 -0.046164,-0.046 -0.2345785,-0.017 -0.6226351,0.095 -0.7888032,0.2287 -1.7525462,0.4219 -1.8079013,0.3624 -0.056002,-0.06 -0.3127551,-1.0681 -0.3127551,-1.2277 0,-0.083 0.1083778,-0.1437 0.4261581,-0.2378 1.2677349,-0.3752 9.5258271,-2.594 9.6546131,-2.594 0.07175,0 0.324998,0.6977 0.427565,1.1779 0.04147,0.1941 0.03393,0.2024 -0.29261,0.3215 -0.184344,0.067 -0.750161,0.2296 -1.25737,0.3606 l -0.922199,0.2383 -0.04028,0.6082 c -0.02215,0.3344 -0.04042,1.226 -0.0406,1.9813 l -3.27e-4,1.3732 1.830902,0 1.830901,0 0,0.2473 c 0,0.3591 0.05092,0.4471 0.258616,0.4471 0.514397,0 1.359061,0.5327 2.074796,1.3084 0.76436,0.8284 1.171794,1.7758 1.615804,3.7572 0.116857,0.5214 0.220739,0.956 0.230849,0.9658 0.01011,0.01 2.028427,0.039 4.48515,0.064 l 4.466768,0.046 0,4.0632 0,4.0632 -10.952538,0 -10.9525392,0 -0.017087,-8.6778 z m 12.8005717,0.3914 c -0.01794,-0.078 -0.106187,-0.4971 -0.196095,-0.9312 -0.178188,-0.8602 -0.443676,-1.7433 -0.694854,-2.3113 -0.603108,-1.3637 -1.882908,-2.5418 -2.793954,-2.5719 l -0.293921,-0.01 -0.0196,0.2367 -0.01959,0.2368 -1.827091,0 -1.82709,0 0,2.7463 0,2.7464 3.852409,0 3.85241,0 -0.03262,-0.1421 z"
       id="path5144"
       inkscape:connector-curvature="0" />
  </g>
</svg>
