<?xml version="1.0" encoding="UTF-8" standalone="no"?>
<!-- Created with Inkscape (http://www.inkscape.org/) -->

<svg
   xmlns:dc="http://purl.org/dc/elements/1.1/"
   xmlns:cc="http://creativecommons.org/ns#"
   xmlns:rdf="http://www.w3.org/1999/02/22-rdf-syntax-ns#"
   xmlns:svg="http://www.w3.org/2000/svg"
   xmlns="http://www.w3.org/2000/svg"
   xmlns:sodipodi="http://sodipodi.sourceforge.net/DTD/sodipodi-0.dtd"
   xmlns:inkscape="http://www.inkscape.org/namespaces/inkscape"
   width="32"
   height="32"
   viewBox="0 0 25.6 25.6"
   id="svg4180"
   version="1.1"
   inkscape:version="0.91 r13725"
   sodipodi:docname="waterfall.svg"
   inkscape:export-filename="C:\Users\Fabienne\Desktop\fehlende_symbole\einfach\png\sinkhole.png"
   inkscape:export-xdpi="90"
   inkscape:export-ydpi="90">
  <defs
     id="defs4182" />
  <sodipodi:namedview
     pagecolor="#ffffff"
     bordercolor="#666666"
     borderopacity="1.0"
     inkscape:pageopacity="0.0"
     inkscape:pageshadow="2"
     inkscape:zoom="16"
     inkscape:cx="8.3124354"
     inkscape:cy="14.757194"
     inkscape:document-units="pt"
     inkscape:current-layer="layer1"
     id="namedview4184"
     showgrid="false"
     inkscape:window-width="1396"
     inkscape:window-height="975"
     inkscape:window-x="7"
     inkscape:window-y="3"
     inkscape:window-maximized="0"
     units="px" />
  <metadata
     id="metadata4186">
    <rdf:RDF>
      <cc:Work
         rdf:about="">
        <dc:format>image/svg+xml</dc:format>
        <dc:type
           rdf:resource="http://purl.org/dc/dcmitype/StillImage" />
        <dc:title />
      </cc:Work>
    </rdf:RDF>
  </metadata>
  <g
     inkscape:label="Layer 1"
     inkscape:groupmode="layer"
     id="layer1"
     transform="translate(0,-314.4)">
    <path
       style="fill:#ffffff;fill-opacity:1;stroke:none;stroke-width:0.33381155;stroke-miterlimit:4;stroke-dasharray:none;stroke-opacity:1"
       d="m 6.8455584,339.97398 c -3.3111958,-0.0229 -3.3661904,-0.0244 -3.6465748,-0.10332 -0.7393337,-0.20797 -1.3848548,-0.58776 -1.9294624,-1.13517 -0.53782712,-0.54058 -0.83839452,-1.02832 -1.08075752,-1.75377 l -0.1300345,-0.38923 -0.034825,-1.3007 c -0.049108,-1.83415 -0.015692,-16.94361 0.038344,-17.33776 0.077493,-0.56524 0.3845268,-1.28076 0.7743827,-1.80461 0.58742482,-0.78935 1.34852782,-1.31212 2.33642082,-1.60479 l 0.3106101,-0.092 2.1925416,-0.0267 c 2.8507714,-0.0346 11.5698806,-0.0346 14.3063356,-9e-5 l 2.137727,0.0269 0.32888,0.1001 c 1.507208,0.45865 2.618849,1.60386 3.003193,3.09387 0.08402,0.32572 0.09264,0.4457 0.126436,1.75872 0.02252,0.87509 0.02749,4.34283 0.01313,9.15025 l -0.02314,7.74113 -0.08698,0.35046 c -0.392093,1.57982 -1.529864,2.77384 -3.052161,3.20306 l -0.345872,0.0975 -3.416712,0.0286 c -3.843063,0.0321 -6.905487,0.0314 -11.8214522,-0.002 l 0,0 z"
       id="path4745"
       inkscape:connector-curvature="0" />
    <path
       style="fill:#000000;fill-opacity:1;stroke:none;stroke-width:5.52427197;stroke-linecap:round;stroke-linejoin:miter;stroke-miterlimit:4;stroke-dasharray:none;stroke-opacity:1"
       d="m 14.497746,336.40484 c -0.170328,-0.0566 -0.525065,-0.19887 -0.788301,-0.31602 -0.753749,-0.33547 -1.058163,-0.42529 -1.441332,-0.42529 -0.381726,0 -0.502671,-0.0779 -0.326877,-0.21054 0.07707,-0.0581 0.209826,-0.0736 0.473137,-0.0553 0.36117,0.0252 0.581122,0.0994 1.717376,0.58082 0.382789,0.16213 0.604285,0.22014 0.90537,0.23709 0.359799,0.0203 0.433122,0.006 0.753125,-0.15655 0.441627,-0.22294 0.823198,-0.59936 1.08751,-1.07288 0.20595,-0.36895 0.908896,-1.96879 0.875705,-1.99304 -0.0098,-0.007 -0.220744,-0.0839 -0.468497,-0.17012 -0.247751,-0.0864 -0.66918,-0.25531 -0.936508,-0.37555 l -0.486049,-0.21861 -3.908371,0 -3.9083708,0 -0.6169375,0.24661 c -0.3393155,0.13564 -0.8418473,0.31927 -1.116736,0.40807 -0.2748897,0.0888 -0.5122622,0.19394 -0.5274949,0.23364 -0.033862,0.0883 0.4078659,0.86367 0.780354,1.36991 0.38408,0.52197 1.1263541,1.21488 1.4756912,1.37753 0.560592,0.261 0.975612,0.19366 2.205999,-0.3579 0.884487,-0.39652 1.300654,-0.47935 1.255603,-0.24995 -0.01014,0.0516 -0.151531,0.12316 -0.354682,0.17955 -0.185817,0.0516 -0.654576,0.23574 -1.04169,0.40924 -1.184142,0.53073 -1.527799,0.56662 -2.2024992,0.22996 -0.7244186,-0.36145 -1.7111354,-1.48282 -2.2451706,-2.55159 -0.1005861,-0.2013 -0.1862136,-0.36983 -0.1902854,-0.37453 -0.00409,-0.006 -0.222779,0.0389 -0.4860171,0.0972 -0.7099987,0.15683 -0.6756878,0.16992 -0.6756878,-0.2576 0,-0.25481 0.021381,-0.36626 0.070383,-0.36687 0.056132,-7.1e-4 0.056085,-0.009 -2.385e-4,-0.0456 -0.056113,-0.0356 -0.067665,-1.5059 -0.056312,-7.16425 l 0.014299,-7.11943 0.6067084,-0.15261 c 1.8993731,-0.47782 3.5783712,-0.30853 5.9846202,0.6034 l 0.816304,0.30935 3.053073,-3e-5 3.05307,-5e-5 0.365997,-0.17334 c 0.551912,-0.26139 1.581003,-0.60216 2.1985,-0.72799 0.302556,-0.0616 0.577793,-0.11212 0.611638,-0.11212 0.04422,0 0.06154,2.15801 0.06154,7.66467 l 0,7.66469 -1.027611,-0.0303 c -0.735677,-0.0217 -1.163575,-0.062 -1.506221,-0.14192 -0.263238,-0.0613 -0.494987,-0.10169 -0.514998,-0.0895 -0.02,0.0122 -0.155588,0.30732 -0.301279,0.65587 -0.471074,1.12704 -0.748511,1.61308 -1.151545,2.01739 -0.655353,0.65745 -1.356574,0.86738 -2.086309,0.6246 z m 1.31859,-4.78137 c 0.02093,-0.27097 0.06151,-1.82295 0.09017,-3.44881 0.02866,-1.62589 0.07903,-3.20953 0.111886,-3.51923 0.2081,-1.96059 0.576625,-3.32816 1.281344,-4.75494 0.176731,-0.35781 0.330167,-0.66957 0.340971,-0.69278 0.01078,-0.0232 -1.285968,-0.0422 -2.881711,-0.0422 l -2.901354,0 -0.319184,0.5687 c -1.509244,2.68904 -2.56275,5.81115 -3.174014,9.40635 -0.175936,1.03476 -0.3983512,2.62248 -0.3983512,2.8436 l 0,0.13206 3.9061002,0 3.906101,0 0.03804,-0.49269 z m -8.7089338,-13.0051 c -0.085164,-0.0129 -0.2245261,-0.0129 -0.30969,0 -0.085164,0.0129 -0.015481,0.0236 0.1548451,0.0236 0.1703295,0 0.2400097,-0.0104 0.1548449,-0.0236 z"
       id="path7381"
       inkscape:connector-curvature="0" />
    <path
       style="fill:#000000;fill-opacity:1;stroke:none;stroke-width:6.25;stroke-linecap:round;stroke-linejoin:miter;stroke-miterlimit:4;stroke-dasharray:none;stroke-opacity:1"
       d="m 11.566867,331.45404 -0.07798,-0.0613 0.01892,-0.55099 c 0.108871,-3.17112 0.340098,-4.8276 0.923748,-6.61749 0.270852,-0.83063 0.907993,-2.34966 1.05253,-2.50937 0.07043,-0.0778 0.192641,-0.0681 0.262659,0.0209 0.03208,0.0409 0.05834,0.0844 0.05834,0.0971 0,0.0126 -0.09948,0.23578 -0.221065,0.49594 -0.751393,1.60784 -1.194062,3.07809 -1.422402,4.72424 -0.146234,1.05422 -0.203156,1.82864 -0.287158,3.90664 -0.01743,0.43129 -0.01993,0.44528 -0.08913,0.49972 -0.09037,0.0711 -0.122287,0.0704 -0.218458,-0.006 z"
       id="path7383"
       inkscape:connector-curvature="0" />
    <path
       style="fill:#000000;fill-opacity:1;stroke:none;stroke-width:6.25;stroke-linecap:round;stroke-linejoin:miter;stroke-miterlimit:4;stroke-dasharray:none;stroke-opacity:1"
       d="m 10.231159,330.03295 c -0.0409,-0.0519 -0.05479,-0.10139 -0.04565,-0.16188 0.0072,-0.0479 0.02066,-0.2645 0.02981,-0.48128 0.145082,-3.43459 0.638894,-5.67159 1.704057,-7.71949 0.39255,-0.75471 0.983267,-1.67279 1.114933,-1.73277 0.05651,-0.0257 0.08205,-0.0212 0.145173,0.0256 0.134742,0.10005 0.116901,0.16572 -0.156809,0.57628 -1.620695,2.4311 -2.258055,4.77419 -2.441866,8.97695 -0.0092,0.20906 -0.02225,0.40771 -0.02912,0.44146 -0.03246,0.15938 -0.219697,0.2032 -0.320522,0.0751 z"
       id="path7385"
       inkscape:connector-curvature="0" />
    <path
       style="fill:#000000;fill-opacity:1;stroke:none;stroke-width:6.25;stroke-linecap:round;stroke-linejoin:miter;stroke-miterlimit:4;stroke-dasharray:none;stroke-opacity:1"
       d="m 13.42503,330.07956 c -0.04723,-0.0522 -0.04952,-0.102 -0.03162,-0.68273 0.108557,-3.52062 0.425527,-5.3774 1.289255,-7.55223 0.341606,-0.86016 0.641338,-1.48397 0.734471,-1.52862 0.05976,-0.0287 0.08982,-0.0293 0.13999,-0.003 0.144567,0.0762 0.140893,0.18225 -0.01722,0.49736 -0.352252,0.70195 -0.781775,1.81014 -1.014912,2.61857 -0.453968,1.5742 -0.637483,2.94707 -0.747852,5.5947 -0.01549,0.37163 -0.02821,0.74854 -0.02824,0.83758 -6.3e-5,0.12426 -0.01317,0.17495 -0.0564,0.21817 -0.07225,0.0723 -0.202062,0.0723 -0.267445,3e-5 z"
       id="path7387"
       inkscape:connector-curvature="0" />
    <path
       style="fill:#000000;fill-opacity:1;stroke:none;stroke-width:6.25;stroke-linecap:round;stroke-linejoin:miter;stroke-miterlimit:4;stroke-dasharray:none;stroke-opacity:1"
       d="m 9.018961,334.76598 c -0.08517,-0.0238 -0.223239,-0.084 -0.306833,-0.13362 -0.312992,-0.18627 -0.7603563,-0.6977 -1.0966828,-1.25374 -0.1553507,-0.25686 -0.16018,-0.33428 -0.02388,-0.38297 0.09494,-0.034 0.1215062,-0.009 0.2867764,0.25834 0.3369632,0.54709 0.7725534,1.03038 1.0506234,1.16569 0.0836,0.0409 0.200483,0.0683 0.3178,0.0752 0.231671,0.0134 0.38292,-0.0437 0.856119,-0.32357 0.640323,-0.37869 0.837491,-0.44683 1.280993,-0.44277 0.371596,0.005 0.566024,0.0597 1.350543,0.39081 0.722487,0.30494 0.922024,0.36255 1.253673,0.36197 0.411056,-7.1e-4 0.733992,-0.14378 1.092982,-0.48427 0.190405,-0.18058 0.501423,-0.57171 0.65289,-0.82106 0.120904,-0.19903 0.21674,-0.24416 0.300021,-0.14133 0.02837,0.035 0.05155,0.0796 0.05155,0.0989 0,0.057 -0.375151,0.60271 -0.571584,0.83138 -0.4383,0.51023 -0.903832,0.77632 -1.415732,0.8092 -0.402287,0.0258 -0.702279,-0.054 -1.531896,-0.40733 -0.750372,-0.31962 -0.996508,-0.3806 -1.379789,-0.3419 -0.242039,0.0244 -0.457666,0.11538 -0.930536,0.39248 -0.215318,0.12616 -0.467626,0.26014 -0.560686,0.29773 -0.21779,0.0879 -0.474419,0.10739 -0.676354,0.051 z"
       id="path7389"
       inkscape:connector-curvature="0" />
  </g>
</svg>
