<?xml version="1.0" encoding="UTF-8" standalone="no"?>
<!-- Created with Inkscape (http://www.inkscape.org/) -->

<svg
   xmlns:dc="http://purl.org/dc/elements/1.1/"
   xmlns:cc="http://creativecommons.org/ns#"
   xmlns:rdf="http://www.w3.org/1999/02/22-rdf-syntax-ns#"
   xmlns:svg="http://www.w3.org/2000/svg"
   xmlns="http://www.w3.org/2000/svg"
   xmlns:sodipodi="http://sodipodi.sourceforge.net/DTD/sodipodi-0.dtd"
   xmlns:inkscape="http://www.inkscape.org/namespaces/inkscape"
   width="32"
   height="32"
   viewBox="0 0 25.6 25.6"
   id="svg4180"
   version="1.1"
   inkscape:version="0.91 r13725"
   sodipodi:docname="wind.svg"
   inkscape:export-filename="C:\Users\Fabienne\Desktop\fehlende_symbole\einfach\png\sinkhole.png"
   inkscape:export-xdpi="90"
   inkscape:export-ydpi="90">
  <defs
     id="defs4182" />
  <sodipodi:namedview
     pagecolor="#ffffff"
     bordercolor="#666666"
     borderopacity="1.0"
     inkscape:pageopacity="0.0"
     inkscape:pageshadow="2"
     inkscape:zoom="8"
     inkscape:cx="-0.965434"
     inkscape:cy="27.365262"
     inkscape:document-units="pt"
     inkscape:current-layer="layer1"
     id="namedview4184"
     showgrid="false"
     inkscape:window-width="1396"
     inkscape:window-height="975"
     inkscape:window-x="7"
     inkscape:window-y="3"
     inkscape:window-maximized="0"
     units="px" />
  <metadata
     id="metadata4186">
    <rdf:RDF>
      <cc:Work
         rdf:about="">
        <dc:format>image/svg+xml</dc:format>
        <dc:type
           rdf:resource="http://purl.org/dc/dcmitype/StillImage" />
        <dc:title></dc:title>
      </cc:Work>
    </rdf:RDF>
  </metadata>
  <g
     inkscape:label="Layer 1"
     inkscape:groupmode="layer"
     id="layer1"
     transform="translate(0,-314.4)">
    <path
       style="fill:#ffffff;fill-opacity:1;stroke:#ffffff;stroke-width:0.31628457;stroke-miterlimit:4;stroke-dasharray:none;stroke-opacity:1"
       d="m 4.1460051,339.81785 c -2.0706919,-0.27127 -3.72278853,-1.95742 -3.96083253,-4.04246 -0.023834,-0.20875 -0.031787,-3.08032 -0.024331,-8.7822 l 0.011084,-8.47203 0.073986,-0.30745 c 0.1551086,-0.64458 0.3567665,-1.11536 0.6938095,-1.61975 0.68750343,-1.02884 1.80273463,-1.75009 3.05279433,-1.97432 0.3219405,-0.0577 0.8197848,-0.0612 8.8219386,-0.0612 9.47455,0 8.705664,-0.0194 9.475611,0.23851 0.693406,0.23223 1.235641,0.56149 1.755059,1.06573 0.548167,0.53215 0.941482,1.15656 1.170437,1.85817 0.242202,0.74219 0.226171,0.0701 0.226018,9.47479 -1.38e-4,9.11542 0.0074,8.70171 -0.170012,9.33755 -0.185939,0.66645 -0.620474,1.40984 -1.1224,1.92018 -0.654558,0.66553 -1.422031,1.0892 -2.393247,1.32116 -0.242053,0.0578 -0.721295,0.0614 -8.822019,0.0668 -4.7113346,0.003 -8.6658864,-0.007 -8.7878933,-0.0234 z m 17.4150429,-0.38961 c 1.721922,-0.30057 3.043796,-1.57322 3.442145,-3.31395 l 0.07818,-0.34162 0.01147,-8.30122 c 0.01166,-8.44877 0.0081,-8.73449 -0.114192,-9.26248 -0.18561,-0.80113 -0.614429,-1.54476 -1.223692,-2.12205 -0.590824,-0.55981 -1.251436,-0.90196 -2.103222,-1.0893 -0.276582,-0.0608 -0.635498,-0.0634 -8.837289,-0.0634 -8.0746895,0 -8.5656141,0.003 -8.8484664,0.061 -1.5321303,0.31231 -2.7495208,1.38148 -3.22989213,2.83663 -0.2207304,0.66864 -0.2076286,0.0765 -0.2076286,9.38336 0,9.31034 -0.013191,8.71447 0.2075181,9.37389 0.48726143,1.45582 1.76187553,2.56441 3.25976053,2.83517 0.4153613,0.0751 17.1362595,0.0788 17.5653045,0.004 z"
       id="path4153"
       inkscape:connector-curvature="0" />
    <path
       style="fill:#ffffff;fill-opacity:1;stroke:#ffffff;stroke-width:0.31999999;stroke-miterlimit:4;stroke-dasharray:none;stroke-opacity:1"
       d="m 7.177586,339.28849 c -3.1337578,-0.0217 -3.1858053,-0.0231 -3.4511647,-0.0977 -0.6997148,-0.19671 -1.3106441,-0.55592 -1.8260677,-1.07367 -0.5090064,-0.5113 -0.7934672,-0.97262 -1.02284253,-1.65877 l -0.1230663,-0.36814 -0.032959,-1.23024 c -0.046476,-1.73478 -0.014851,-16.02573 0.036289,-16.39852 0.07334,-0.53463 0.36392093,-1.21138 0.73288543,-1.70686 0.5559463,-0.74658 1.2762638,-1.24103 2.2112184,-1.51785 l 0.2939653,-0.087 2.0750492,-0.0252 c 2.6980058,-0.0327 10.9498809,-0.0327 13.5396969,-8e-5 l 2.023172,0.0255 0.311257,0.0947 c 1.426442,0.4338 2.478511,1.51697 2.842259,2.92627 0.07951,0.30807 0.08768,0.42155 0.119662,1.66343 0.02132,0.8277 0.02602,4.10758 0.01242,8.65457 l -0.02191,7.32177 -0.08232,0.33147 c -0.371082,1.49424 -1.447882,2.62358 -2.888605,3.02954 l -0.327337,0.0922 -3.233619,0.027 c -3.637125,0.0304 -6.535441,0.0297 -11.1879734,-0.002 l 0,0 z"
       id="path4745"
       inkscape:connector-curvature="0" />
    <path
       style="fill:#000000;fill-opacity:1;stroke:none;stroke-width:16.25;stroke-linecap:round;stroke-linejoin:round;stroke-miterlimit:4;stroke-dasharray:none;stroke-opacity:1"
       d="m 11.931897,337.99835 c -0.0011,-0.0653 0.109889,-2.66471 0.246546,-5.77642 l 0.248465,-5.65765 0.163742,0 c 0.159721,0 0.163743,0.003 0.163743,0.15815 0,0.22418 0.422565,10.36892 0.455291,10.93042 l 0.02707,0.46427 -0.651464,0 -0.651462,0 -0.002,-0.11877 z"
       id="path9670"
       inkscape:connector-curvature="0" />
    <path
       style="fill:#000000;fill-opacity:1;stroke:none;stroke-width:16.25;stroke-linecap:round;stroke-linejoin:round;stroke-miterlimit:4;stroke-dasharray:none;stroke-opacity:1"
       d="m 21.268967,331.10398 c -1.071348,-0.41567 -3.408936,-1.57238 -4.678997,-2.3153 -1.064447,-0.62264 -3.525102,-2.23786 -3.525102,-2.31392 0,-0.0295 0.065,-0.0964 0.144447,-0.14837 0.07945,-0.0521 0.204484,-0.21868 0.277861,-0.37025 0.07338,-0.15158 0.148993,-0.2756 0.168031,-0.2756 0.07196,0 2.735453,1.42521 3.314932,1.77378 0.86519,0.52044 3.213854,2.10066 3.768294,2.53539 0.638298,0.50046 1.166276,1.02257 1.166276,1.15329 0,0.14673 -0.186507,0.13528 -0.635742,-0.039 z"
       id="path9672"
       inkscape:connector-curvature="0" />
    <path
       style="fill:#000000;fill-opacity:1;stroke:none;stroke-width:16.25;stroke-linecap:round;stroke-linejoin:round;stroke-miterlimit:4;stroke-dasharray:none;stroke-opacity:1"
       d="m 12.150484,326.14898 c -0.113156,-0.0754 -0.256928,-0.2415 -0.319502,-0.36919 -0.09678,-0.19747 -0.103389,-0.26681 -0.04431,-0.46398 0.08338,-0.27834 0.356996,-0.52418 0.643108,-0.57786 0.404983,-0.0761 0.877283,0.3337 0.877283,0.76095 0,0.3766 -0.413247,0.78712 -0.792348,0.78712 -0.08718,0 -0.251074,-0.0617 -0.364226,-0.13704 z"
       id="path9674"
       inkscape:connector-curvature="0" />
    <path
       style="fill:#000000;fill-opacity:1;stroke:none;stroke-width:16.25;stroke-linecap:round;stroke-linejoin:round;stroke-miterlimit:4;stroke-dasharray:none;stroke-opacity:1"
       d="m 13.019079,324.54604 c -0.15317,-0.10271 -0.554439,-0.13072 -0.83799,-0.0582 l -0.187489,0.0479 -0.04112,-1.13803 c -0.05832,-1.61378 0.09606,-4.72082 0.297201,-5.98177 0.103916,-0.65142 0.180004,-0.93525 0.291704,-1.088 0.08,-0.10944 0.08669,-0.10812 0.178883,0.0331 0.116432,0.1784 0.181033,0.57882 0.341099,2.11451 0.190209,1.82488 0.259769,3.39891 0.213415,4.82918 -0.02294,0.70798 -0.05912,1.29754 -0.0804,1.31015 -0.02128,0.0126 -0.100173,-0.0184 -0.175299,-0.0688 z"
       id="path9676"
       inkscape:connector-curvature="0" />
    <path
       style="fill:#000000;fill-opacity:1;stroke:none;stroke-width:16.25;stroke-linecap:round;stroke-linejoin:round;stroke-miterlimit:4;stroke-dasharray:none;stroke-opacity:1"
       d="m 3.0746369,331.37532 c 0,-0.11243 0.642069,-0.76126 1.1806635,-1.19316 1.0566032,-0.84729 3.4082844,-2.45833 4.5349825,-3.10672 0.6565464,-0.37781 2.6308681,-1.45545 2.6665351,-1.45545 0.0102,0 0.03567,0.0848 0.05642,0.18866 0.02075,0.1038 0.140581,0.29149 0.266289,0.41721 l 0.228558,0.22856 -0.909598,0.63412 c -2.4022593,1.67473 -3.5216256,2.34469 -5.7954016,3.46865 -1.1571163,0.57197 -1.762305,0.83852 -1.952637,0.85996 -0.1919163,0.0216 -0.2758165,0.008 -0.2758165,-0.0419 z"
       id="path9678"
       inkscape:connector-curvature="0" />
  </g>
</svg>
