<?xml version="1.0" encoding="UTF-8" standalone="no"?>
<!-- Created with Inkscape (http://www.inkscape.org/) -->

<svg
   xmlns:dc="http://purl.org/dc/elements/1.1/"
   xmlns:cc="http://creativecommons.org/ns#"
   xmlns:rdf="http://www.w3.org/1999/02/22-rdf-syntax-ns#"
   xmlns:svg="http://www.w3.org/2000/svg"
   xmlns="http://www.w3.org/2000/svg"
   xmlns:sodipodi="http://sodipodi.sourceforge.net/DTD/sodipodi-0.dtd"
   xmlns:inkscape="http://www.inkscape.org/namespaces/inkscape"
   width="32"
   height="32"
   viewBox="0 0 32 32.000001"
   id="svg4137"
   version="1.1"
   inkscape:version="0.91 r13725"
   sodipodi:docname="windmill_frame.svg">
  <defs
     id="defs4139" />
  <sodipodi:namedview
     id="base"
     pagecolor="#ffffff"
     bordercolor="#666666"
     borderopacity="1.0"
     inkscape:pageopacity="0.0"
     inkscape:pageshadow="2"
     inkscape:zoom="15.839192"
     inkscape:cx="17.290349"
     inkscape:cy="17.620771"
     inkscape:document-units="px"
     inkscape:current-layer="layer1"
     showgrid="false"
     units="px"
     inkscape:window-width="1920"
     inkscape:window-height="1138"
     inkscape:window-x="-8"
     inkscape:window-y="-8"
     inkscape:window-maximized="1" />
  <metadata
     id="metadata4142">
    <rdf:RDF>
      <cc:Work
         rdf:about="">
        <dc:format>image/svg+xml</dc:format>
        <dc:type
           rdf:resource="http://purl.org/dc/dcmitype/StillImage" />
        <dc:title></dc:title>
      </cc:Work>
    </rdf:RDF>
  </metadata>
  <g
     inkscape:label="Ebene 1"
     inkscape:groupmode="layer"
     id="layer1"
     transform="translate(0,-1020.3622)">
    <rect
       style="opacity:1;fill:#000000;fill-opacity:1;stroke:none;stroke-width:2.09500003;stroke-linecap:butt;stroke-linejoin:round;stroke-miterlimit:4;stroke-dasharray:none;stroke-dashoffset:0;stroke-opacity:1"
       id="rect4154"
       width="32"
       height="31.99999"
       x="0"
       y="1020.3622"
       ry="3.2261746" />
    <rect
       style="opacity:1;fill:#ffffff;fill-opacity:1;stroke:none;stroke-width:2.09500003;stroke-linecap:butt;stroke-linejoin:round;stroke-miterlimit:4;stroke-dasharray:none;stroke-dashoffset:0;stroke-opacity:1"
       id="rect4154-7"
       width="28"
       height="28"
       x="-30.045902"
       y="1022.3163"
       ry="2.8229036"
       transform="scale(-1,1)" />
    <path
       style="opacity:1;fill:#000000;fill-opacity:1;stroke:none;stroke-width:2.5;stroke-linecap:butt;stroke-linejoin:round;stroke-miterlimit:4;stroke-dasharray:none;stroke-dashoffset:0;stroke-opacity:1"
       d="m 10.433892,1047.6341 c 0.0302,-0.1422 0.631579,-2.8178 1.336397,-5.9455 0.704821,-3.1277 1.267983,-5.7003 1.251478,-5.7168 -0.0165,-0.016 -1.106074,1.1155 -2.421264,2.5155 l -2.3912529,2.5456 -0.3950688,-0.2718 c -0.6697667,-0.4608 -1.1820276,-1.0279 -1.6488651,-1.8253 -0.2461858,-0.4206 -0.4359496,-0.7738 -0.4216967,-0.7849 0.014252,-0.012 1.7916093,-1.0768 3.949682,-2.3681 3.5030925,-2.0961 3.9312175,-2.3758 3.9932565,-2.609 0.03823,-0.1436 0.05763,-0.3309 0.04312,-0.4161 -0.02114,-0.1242 -2.155597,-1.7762 -7.2863695,-5.6393 -0.043659,-0.033 0.9687465,-1.2979 1.2715776,-1.5889 0.3235473,-0.3109 1.6079951,-1.113 1.665108,-1.0398 0.014152,0.018 1.1051839,1.4688 2.4245109,3.2237 1.319328,1.7549 2.429026,3.2249 2.465993,3.2665 0.03697,0.042 0.463442,-0.243 0.947718,-0.6325 0.484275,-0.3895 0.933517,-0.7286 0.998315,-0.7534 0.10899,-0.042 0.695053,0.3973 1.684333,1.262 l 0.403145,0.3523 2.5289,-3.3129 2.528904,-3.3131 0.474301,0.2614 c 0.846836,0.4665 1.282246,0.8434 1.853547,1.6047 0.308593,0.4112 0.559795,0.7669 0.55823,0.7907 -0.0015,0.024 -1.673209,1.2849 -3.714755,2.8027 -2.041545,1.5178 -3.742531,2.7984 -3.779961,2.8458 -0.03743,0.047 -0.02477,0.2522 0.02813,0.455 l 0.0962,0.3688 3.858014,2.3122 3.858016,2.3121 -0.451665,0.7586 c -0.444899,0.7471 -1.275067,1.6276 -1.846227,1.9583 l -0.250363,0.145 -2.319891,-2.4734 c -1.275939,-1.3604 -2.343732,-2.4837 -2.37287,-2.4964 -0.02914,-0.013 0.422952,2.5485 1.004643,5.6916 0.581687,3.1431 1.059128,5.7803 1.060973,5.8604 0.0032,0.1353 -0.385709,0.1445 -5.517897,0.1292 l -5.521255,-0.016 0.05491,-0.2587 z"
       id="path12862"
       inkscape:connector-curvature="0" />
  </g>
</svg>
