<?xml version="1.0" encoding="utf-8"?>
<!-- Generator: Adobe Illustrator 16.0.3, SVG Export Plug-In . SVG Version: 6.00 Build 0)  -->
<!DOCTYPE svg PUBLIC "-//W3C//DTD SVG 1.1//EN" "http://www.w3.org/Graphics/SVG/1.1/DTD/svg11.dtd">
<svg version="1.1"
	 id="svg10817" xmlns:dc="http://purl.org/dc/elements/1.1/" xmlns:cc="http://creativecommons.org/ns#" xmlns:rdf="http://www.w3.org/1999/02/22-rdf-syntax-ns#" xmlns:svg="http://www.w3.org/2000/svg" xmlns:sodipodi="http://sodipodi.sourceforge.net/DTD/sodipodi-0.dtd" xmlns:inkscape="http://www.inkscape.org/namespaces/inkscape" inkscape:version="0.91 r13725" sodipodi:docname="cave_entrance.svg" inkscape:export-filename="C:\Users\Fabienne\Desktop\fehlende_symbole\einfach\png\cave_entrance.png" inkscape:export-xdpi="90" inkscape:export-ydpi="90"
	 xmlns="http://www.w3.org/2000/svg" xmlns:xlink="http://www.w3.org/1999/xlink" x="0px" y="0px" width="32px" height="32px"
	 viewBox="0 0 32 32" enable-background="new 0 0 32 32" xml:space="preserve">
<sodipodi:namedview  units="px" pagecolor="#ffffff" bordercolor="#666666" borderopacity="1.0" inkscape:zoom="9.0509668" inkscape:cx="-14.014945" inkscape:cy="9.813298" id="namedview10821" showgrid="false" inkscape:pageopacity="0.0" inkscape:pageshadow="2" inkscape:current-layer="layer1" inkscape:window-maximized="0" inkscape:window-height="980" inkscape:document-units="pt" inkscape:window-width="1399" inkscape:window-x="2" inkscape:window-y="2" showguides="false">
	</sodipodi:namedview>
<g id="layer1" transform="translate(0,-314.4)" inkscape:label="Layer 1" inkscape:groupmode="layer">
	<path id="path4153" inkscape:connector-curvature="0" fill="none" d="M5.183,346.172c-2.588-0.338-4.654-2.445-4.951-5.053
		c-0.03-0.261-0.04-3.851-0.03-10.978l0.014-10.59l0.093-0.384c0.194-0.806,0.446-1.394,0.867-2.024
		c0.859-1.286,2.253-2.188,3.816-2.468c0.402-0.072,1.024-0.076,11.027-0.076c11.842,0,10.881-0.024,11.844,0.298
		c0.867,0.291,1.545,0.702,2.193,1.333c0.687,0.665,1.178,1.445,1.463,2.322c0.304,0.928,0.283,0.088,0.282,11.844
		c0,11.395,0.009,10.876-0.212,11.671c-0.232,0.834-0.775,1.763-1.402,2.399c-0.818,0.832-1.778,1.361-2.992,1.652
		c-0.303,0.072-0.901,0.076-11.027,0.084C10.278,346.205,5.335,346.193,5.183,346.172L5.183,346.172z M26.951,345.685
		c2.152-0.375,3.805-1.967,4.303-4.143l0.098-0.428l0.016-10.376c0.015-10.561,0.01-10.918-0.145-11.578
		c-0.23-1.001-0.768-1.931-1.529-2.652c-0.737-0.7-1.563-1.128-2.629-1.362c-0.346-0.076-0.793-0.079-11.045-0.079
		c-10.093,0-10.707,0.003-11.061,0.076c-1.915,0.39-3.437,1.728-4.038,3.546c-0.276,0.835-0.259,0.095-0.259,11.729
		c0,11.637-0.017,10.893,0.259,11.717c0.609,1.82,2.203,3.205,4.075,3.543C5.514,345.775,26.415,345.779,26.951,345.685
		L26.951,345.685z"/>
	<path fill="#575756" d="M15.974,336.943l-11.836-0.012l0.013-0.379c0.006-0.209,0.019-0.689,0.027-1.068
		c0.017-0.781,0.074-1.309,0.235-2.174c0.87-4.645,3.901-8.442,7.921-9.921c1.149-0.423,2.165-0.616,3.428-0.651
		c2.867-0.081,5.619,1.001,7.832,3.08c2.516,2.361,4.012,5.684,4.232,9.4c0.039,0.662,0.045,1.754,0.009,1.74
		c-0.015-0.006-5.351-0.012-11.861-0.018V336.943z"/>
	<path fill="#FFFFFF" d="M26.52,334.8c-0.033-0.396-0.396-1.793-0.463-2.119c-0.088-0.42-0.556-2.725-0.566-2.725
		c-0.012,0-0.848,3.956-0.988,3.772c-0.543-0.705-0.23-4.658-0.225-5.166c0.002-0.149-0.271-0.365-0.348-0.458
		c0,0-1.093,5.208-1.635,4.341l-0.564-6.435c0,0-0.52-0.344-0.731-0.467c-0.129-0.074-0.612,6.296-0.909,6.341
		c-0.831,0.127-0.045-5.91-0.082-6.181c-0.104-0.739-1.105-1.063-1.105-1.063c-0.092-0.025-0.182-0.045-0.199-0.046
		c-0.018,0-0.799,9.259-1.414,7.651c-0.598-1.809,0.215-7.882,0.15-7.882c-0.058,0-0.476-0.031-0.541-0.063
		c-0.041-0.021-0.583-0.025-0.636-0.025c-0.052,0-1.058,4.984-1.215,7.174c-0.09,1.255-1.841-6.579-1.841-6.579
		c-0.102,0.032-0.65,0.269-0.66,0.259c-0.007-0.009,0.458,6.917-0.338,6.79c-0.289-0.74-0.595-5.521-0.606-5.796l-0.021-0.502
		l-0.212,0.131l-0.211,0.131c0,0-0.605,0.477-0.616,0.477c-0.01,0-0.072,0.043-0.136,0.095c0,0,0.341,4.902-0.076,4.493
		c-0.662-0.651-1.312-3.523-1.412-3.382l-0.525,0.616L8.321,330.1c-0.048,0.738,0.199,2.959-0.115,3.073
		c-0.166,0.062-0.327-0.86-0.553-1.989c-0.101-0.505-0.303-0.782-0.42-0.529l-0.211,0.459c0,0-0.786,2.878-0.835,3.578l-0.023,0.326
		H16.35h10.189l-0.02-0.222V334.8L26.52,334.8z"/>
</g>
</svg>
