<?xml version="1.0" encoding="utf-8"?>
<!-- Generator: Adobe Illustrator 16.0.3, SVG Export Plug-In . SVG Version: 6.00 Build 0)  -->
<!DOCTYPE svg PUBLIC "-//W3C//DTD SVG 1.1//EN" "http://www.w3.org/Graphics/SVG/1.1/DTD/svg11.dtd">
<svg version="1.1" id="Ebene_1" xmlns="http://www.w3.org/2000/svg" xmlns:xlink="http://www.w3.org/1999/xlink" x="0px" y="0px"
	 width="595.28px" height="841.89px" viewBox="0 0 595.28 841.89" enable-background="new 0 0 595.28 841.89" xml:space="preserve">
<g id="layer1" transform="translate(0,-1020.3622)" inkscape:label="Ebene 1" inkscape:groupmode="layer">
	<path id="path4139" inkscape:connector-curvature="0" fill="#585857" stroke="#585857" stroke-miterlimit="10" d="
		M285.387,1450.233c0-0.055,7.42-12.555,7.509-12.65c0.09-0.097,0.06-0.137,1.727,2.369l1.423,2.139l0.21-0.252
		c0.115-0.139,1.347-2.513,2.736-5.278c1.391-2.765,2.549-5.002,2.574-4.973c0.024,0.029,0.496,0.985,1.047,2.124
		c0.549,1.139,2.369,4.9,4.045,8.36c1.676,3.459,3.25,6.72,3.5,7.246l0.455,0.957h-12.612
		C291.063,1450.274,285.387,1450.257,285.387,1450.233L285.387,1450.233z"/>
</g>
</svg>
