<?xml version="1.0" encoding="utf-8"?>
<!-- Generator: Adobe Illustrator 16.0.3, SVG Export Plug-In . SVG Version: 6.00 Build 0)  -->
<!DOCTYPE svg PUBLIC "-//W3C//DTD SVG 1.1//EN" "http://www.w3.org/Graphics/SVG/1.1/DTD/svg11.dtd">
<svg version="1.1"
	 id="svg4137" xmlns:dc="http://purl.org/dc/elements/1.1/" xmlns:cc="http://creativecommons.org/ns#" xmlns:rdf="http://www.w3.org/1999/02/22-rdf-syntax-ns#" xmlns:svg="http://www.w3.org/2000/svg" xmlns:sodipodi="http://sodipodi.sourceforge.net/DTD/sodipodi-0.dtd" xmlns:inkscape="http://www.inkscape.org/namespaces/inkscape" sodipodi:docname="airfield.svg" inkscape:version="0.91 r13725"
	 xmlns="http://www.w3.org/2000/svg" xmlns:xlink="http://www.w3.org/1999/xlink" x="0px" y="0px" width="32px" height="32px"
	 viewBox="0 0 32 32" enable-background="new 0 0 32 32" xml:space="preserve">
<sodipodi:namedview  units="px" showgrid="false" inkscape:cy="17.620771" inkscape:cx="17.290349" inkscape:zoom="15.839192" borderopacity="1.0" bordercolor="#666666" pagecolor="#ffffff" id="base" inkscape:window-maximized="1" inkscape:window-y="-8" inkscape:current-layer="layer1" inkscape:document-units="px" inkscape:window-x="-8" inkscape:pageshadow="2" inkscape:pageopacity="0.0" inkscape:window-width="1920" inkscape:window-height="1138">
	</sodipodi:namedview>
<g id="layer1" transform="translate(0,-1020.3622)" inkscape:label="Ebene 1" inkscape:groupmode="layer">
	<path id="path5848" inkscape:connector-curvature="0" d="M10.216,1048.599c0.026-0.027,0.729-0.441,1.561-0.921l1.512-0.872
		l0.018-2.445c0.01-1.346,0.003-2.446-0.015-2.446s-1.532,1.064-3.364,2.366c-1.832,1.301-3.368,2.373-3.414,2.383
		c-0.052,0.011-0.243-0.487-0.53-1.383l-0.448-1.4l0.153-0.166c0.084-0.092,1.836-2.068,3.893-4.393l3.74-4.226v-3.455v-3.455
		l1.117-0.018l1.117-0.018l0.018-2.45l0.018-2.45h0.432h0.432l0.018,2.45l0.017,2.45l1.216,0.018l1.217,0.018v3.294v3.294
		l3.934,4.442c2.163,2.443,3.933,4.473,3.933,4.512c0,0.115-0.813,2.682-0.869,2.744c-0.028,0.031-1.601-1.041-3.491-2.383
		c-1.893-1.343-3.455-2.441-3.474-2.441s-0.026,1.147-0.017,2.549l0.018,2.549l1.467,0.848c0.807,0.466,1.541,0.893,1.633,0.949
		c0.15,0.092-0.42,0.102-5.86,0.104C12.879,1048.646,10.189,1048.626,10.216,1048.599L10.216,1048.599z"/>
</g>
</svg>
