<?xml version="1.0" encoding="utf-8"?>
<!-- Generator: Adobe Illustrator 16.0.3, SVG Export Plug-In . SVG Version: 6.00 Build 0)  -->
<!DOCTYPE svg PUBLIC "-//W3C//DTD SVG 1.1//EN" "http://www.w3.org/Graphics/SVG/1.1/DTD/svg11.dtd">
<svg version="1.1"
	 id="svg8049" xmlns:sodipodi="http://sodipodi.sourceforge.net/DTD/sodipodi-0.dtd" xmlns:inkscape="http://www.inkscape.org/namespaces/inkscape" xmlns:rdf="http://www.w3.org/1999/02/22-rdf-syntax-ns#" xmlns:dc="http://purl.org/dc/elements/1.1/" xmlns:svg="http://www.w3.org/2000/svg" xmlns:cc="http://creativecommons.org/ns#" inkscape:export-ydpi="90" inkscape:export-xdpi="90" inkscape:export-filename="C:\Users\Fabienne\Desktop\Symbole\png\cinema.png" sodipodi:docname="cinema.svg" inkscape:version="0.91 r13725"
	 xmlns="http://www.w3.org/2000/svg" xmlns:xlink="http://www.w3.org/1999/xlink" x="0px" y="0px" width="32px" height="32px"
	 viewBox="0 0 32 32" enable-background="new 0 0 32 32" xml:space="preserve">
<sodipodi:namedview  showgrid="false" id="namedview8053" inkscape:cy="13.072328" inkscape:cx="-23.148025" inkscape:zoom="14.75" bordercolor="#666666" gridtolerance="10" borderopacity="1" pagecolor="#ffffff" objecttolerance="10" guidetolerance="10" inkscape:window-y="-9" inkscape:window-height="1003" inkscape:window-x="-9" inkscape:window-width="1920" inkscape:window-maximized="1" inkscape:current-layer="svg8049" inkscape:pageshadow="2" inkscape:pageopacity="0">
	</sodipodi:namedview>
<path id="path4745" inkscape:connector-curvature="0" inkscape:export-ydpi="90" inkscape:export-xdpi="90" inkscape:export-filename="C:\Users\Fabienne\Desktop\Symbole\png\cinema.png" fill="none" d="
	M8.972,31.111c-3.917-0.027-3.982-0.029-4.314-0.123c-0.875-0.246-1.639-0.695-2.283-1.342c-0.636-0.642-0.992-1.217-1.279-2.074
	l-0.154-0.459l-0.041-1.539C0.844,23.406,0.883,5.543,0.947,5.077c0.092-0.668,0.455-1.514,0.916-2.133
	C2.558,2.01,3.458,1.392,4.627,1.046l0.367-0.109l2.594-0.031c3.373-0.041,13.688-0.041,16.926,0l2.527,0.032l0.391,0.118
	c1.782,0.542,3.098,1.896,3.553,3.658c0.102,0.385,0.108,0.527,0.148,2.079c0.026,1.035,0.032,5.134,0.016,10.818l-0.025,9.152
	l-0.104,0.414c-0.465,1.864-1.812,3.276-3.609,3.784L27,31.078l-4.042,0.031C18.41,31.152,14.788,31.15,8.972,31.111L8.972,31.111z"
	/>
<path id="path8599" inkscape:connector-curvature="0" fill="#80152A" d="M4.577,27.191c-0.212-0.125-0.507-0.379-0.654-0.563
	l-0.269-0.334V15.811V5.326L3.99,4.935c0.651-0.754,0.087-0.722,12.46-0.722c10.521,0,11.34,0.015,11.738,0.213
	c0.235,0.117,0.542,0.367,0.685,0.555c0.257,0.341,0.259,0.415,0.259,10.836c0,10.421-0.003,10.496-0.26,10.837
	c-0.142,0.188-0.45,0.438-0.685,0.555c-0.398,0.197-1.22,0.213-11.827,0.213C5.417,27.422,4.946,27.412,4.577,27.191z M7.116,25.575
	c0.173-0.169,0.199-1.291,0.036-1.542c-0.061-0.092-0.389-0.194-0.731-0.227c-0.802-0.074-1.149,0.213-1.149,0.947
	c0,0.814,0.148,0.967,0.976,0.967C6.644,25.721,7.035,25.656,7.116,25.575z M21.938,21.195l-0.032-4.527l-5.513-0.031l-5.513-0.031
	v4.561v4.561h5.546h5.544L21.938,21.195z M27.314,25.549c0.086-0.102,0.132-0.461,0.107-0.877c-0.037-0.682-0.052-0.709-0.45-0.818
	c-0.252-0.068-0.591-0.072-0.873-0.006l-0.456,0.111l-0.038,0.779c-0.023,0.541,0.015,0.809,0.126,0.879
	C26.005,25.787,27.154,25.738,27.314,25.549L27.314,25.549z M7.07,22.006c0.236-0.23,0.27-1.389,0.046-1.607
	c-0.083-0.08-0.473-0.145-0.867-0.145c-0.822,0-0.976,0.146-0.976,0.938c0,0.731,0.272,1.006,0.995,1.006
	C6.653,22.197,6.946,22.127,7.07,22.006L7.07,22.006z M27.208,22.072c0.194-0.104,0.24-0.26,0.24-0.827
	c0-0.386-0.066-0.767-0.149-0.847s-0.436-0.146-0.785-0.146c-0.351,0-0.703,0.063-0.785,0.146c-0.082,0.08-0.15,0.461-0.15,0.846
	c0,0.537,0.05,0.727,0.219,0.822C26.083,22.229,26.902,22.23,27.208,22.072L27.208,22.072L27.208,22.072z M7.116,18.406
	c0.173-0.168,0.199-1.291,0.036-1.541c-0.061-0.094-0.389-0.195-0.731-0.229c-0.802-0.074-1.149,0.213-1.149,0.948
	c0,0.815,0.148,0.968,0.976,0.968C6.644,18.553,7.035,18.486,7.116,18.406z M27.314,18.38c0.086-0.101,0.132-0.462,0.107-0.877
	c-0.037-0.683-0.052-0.708-0.45-0.819c-0.252-0.07-0.591-0.072-0.873-0.004l-0.456,0.11l-0.038,0.778
	c-0.023,0.541,0.015,0.811,0.126,0.879C26.005,18.618,27.154,18.568,27.314,18.38L27.314,18.38z M7.07,14.837
	c0.236-0.23,0.27-1.39,0.046-1.607c-0.083-0.08-0.473-0.146-0.867-0.146c-0.822,0-0.976,0.148-0.976,0.937
	c0,0.732,0.272,1.007,0.995,1.007C6.653,15.028,6.946,14.958,7.07,14.837z M21.968,10.472V5.915h-5.545h-5.543v4.557v4.557h5.543
	h5.545V10.472z M27.208,14.902c0.194-0.102,0.24-0.258,0.24-0.826c0-0.385-0.066-0.766-0.149-0.846s-0.436-0.146-0.785-0.146
	c-0.351,0-0.703,0.066-0.785,0.146s-0.15,0.46-0.15,0.844c0,0.538,0.05,0.729,0.219,0.823
	C26.083,15.059,26.902,15.062,27.208,14.902L27.208,14.902z M7.116,11.237c0.173-0.168,0.199-1.292,0.036-1.542
	c-0.06-0.092-0.389-0.194-0.73-0.226c-0.802-0.075-1.149,0.212-1.149,0.95c0,0.817,0.148,0.964,0.976,0.964
	C6.644,11.383,7.035,11.317,7.116,11.237L7.116,11.237z M27.314,11.211c0.086-0.101,0.132-0.462,0.107-0.877
	c-0.037-0.683-0.052-0.708-0.45-0.82c-0.252-0.07-0.591-0.072-0.873-0.004l-0.456,0.111L25.604,10.4
	c-0.023,0.541,0.015,0.809,0.126,0.879C26.005,11.449,27.154,11.4,27.314,11.211L27.314,11.211z M7.07,7.668
	c0.236-0.23,0.27-1.389,0.046-1.607C7.035,5.98,6.644,5.915,6.249,5.915c-0.822,0-0.976,0.148-0.976,0.937
	c0,0.732,0.272,1.007,0.995,1.007C6.653,7.859,6.946,7.79,7.07,7.668z M27.208,7.733c0.194-0.102,0.24-0.258,0.24-0.826
	c0-0.385-0.066-0.766-0.149-0.846c-0.194-0.189-1.376-0.189-1.57,0c-0.082,0.08-0.149,0.46-0.149,0.844
	c0,0.537,0.05,0.728,0.219,0.823C26.083,7.89,26.902,7.893,27.208,7.733L27.208,7.733z"/>
<path id="path4153" inkscape:connector-curvature="0" fill="none" d="M5.183,31.771c-2.588-0.338-4.654-2.445-4.951-5.053
	c-0.03-0.263-0.04-3.853-0.03-10.98L0.216,5.15l0.093-0.384C0.503,3.96,0.755,3.372,1.176,2.742
	c0.859-1.286,2.253-2.188,3.816-2.468c0.402-0.072,1.024-0.076,11.027-0.076c11.842,0,10.881-0.024,11.844,0.298
	c0.867,0.291,1.545,0.702,2.193,1.333c0.687,0.665,1.178,1.445,1.463,2.322c0.304,0.928,0.281,0.088,0.28,11.844
	c0,11.396,0.011,10.876-0.212,11.671c-0.23,0.834-0.773,1.764-1.4,2.398c-0.818,0.832-1.778,1.36-2.992,1.651
	c-0.303,0.072-0.901,0.076-11.027,0.084C10.278,31.807,5.335,31.793,5.183,31.771L5.183,31.771z M26.951,31.285
	c2.152-0.375,3.805-1.967,4.303-4.143l0.098-0.43l0.018-10.376c0.014-10.56,0.01-10.917-0.146-11.577
	c-0.229-1.001-0.768-1.931-1.529-2.652c-0.735-0.7-1.563-1.127-2.629-1.362C26.719,0.67,26.271,0.667,16.02,0.667
	c-10.093,0-10.707,0.004-11.061,0.076C3.042,1.134,1.521,2.471,0.92,4.29C0.644,5.125,0.661,4.386,0.661,16.019
	c0,11.637-0.017,10.893,0.259,11.717c0.609,1.82,2.203,3.205,4.075,3.543C5.514,31.375,26.415,31.379,26.951,31.285z"/>
</svg>
