<?xml version="1.0" encoding="utf-8"?>
<!-- Generator: Adobe Illustrator 16.0.3, SVG Export Plug-In . SVG Version: 6.00 Build 0)  -->
<!DOCTYPE svg PUBLIC "-//W3C//DTD SVG 1.1//EN" "http://www.w3.org/Graphics/SVG/1.1/DTD/svg11.dtd">
<svg version="1.1"
	 id="svg4137" xmlns:cc="http://creativecommons.org/ns#" xmlns:inkscape="http://www.inkscape.org/namespaces/inkscape" xmlns:svg="http://www.w3.org/2000/svg" xmlns:sodipodi="http://sodipodi.sourceforge.net/DTD/sodipodi-0.dtd" xmlns:rdf="http://www.w3.org/1999/02/22-rdf-syntax-ns#" xmlns:dc="http://purl.org/dc/elements/1.1/" sodipodi:docname="airfield.svg" inkscape:version="0.91 r13725"
	 xmlns="http://www.w3.org/2000/svg" xmlns:xlink="http://www.w3.org/1999/xlink" x="0px" y="0px" width="32px" height="32px"
	 viewBox="0 0 32 32" enable-background="new 0 0 32 32" xml:space="preserve">
<sodipodi:namedview  units="px" inkscape:zoom="15.839192" inkscape:cy="17.620771" inkscape:cx="17.290349" showgrid="false" borderopacity="1.0" bordercolor="#666666" id="base" pagecolor="#ffffff" inkscape:window-height="1138" inkscape:window-width="1920" inkscape:pageopacity="0.0" inkscape:pageshadow="2" inkscape:window-x="-8" inkscape:window-y="-8" inkscape:document-units="px" inkscape:current-layer="layer1" inkscape:window-maximized="1">
	</sodipodi:namedview>
<g>
	<path fill-rule="evenodd" clip-rule="evenodd" fill="#80152A" d="M17.255,4.267c-0.233,0.287-0.431,0.534-0.635,0.778
		c-0.297,0.357-0.717,0.447-1.064,0.231c-0.334-0.208-0.389-0.573-0.118-0.922c0.35-0.453,0.713-0.897,1.093-1.373
		c0.273,0.152,0.52,0.289,0.764,0.428c3.893,2.228,7.784,4.455,11.675,6.684c0.551,0.316,0.762,0.752,0.58,1.194
		c-0.173,0.42-0.566,0.576-1.037,0.648c-1.61,0.247-3.22,0.499-4.829,0.75c-0.136,0.021-0.27,0.051-0.432,0.083
		c0.353,1.219,0.696,2.409,1.041,3.6c0.335,1.16,0.661,2.32,1.013,3.478c0.234,0.77-0.023,1.511-0.126,2.258
		c-0.212,1.543-0.464,3.082-0.706,4.621c-0.091,0.582-0.491,0.966-1.072,1.045c-0.847,0.117-1.551-0.448-1.454-1.217
		c0.145-1.145,0.336-2.283,0.51-3.426c0.112-0.742,0.275-1.481,0.327-2.228c0.032-0.483-0.095-0.978-0.151-1.466
		c-0.047-0.005-0.096-0.01-0.144-0.014c-0.241,0.313-0.481,0.627-0.72,0.938c-1.758,2.302-3.518,4.603-5.271,6.907
		c-0.279,0.365-0.583,0.687-1.135,0.722c-0.522,0.032-0.94-0.14-1.207-0.529c-0.269-0.392-0.241-0.794,0.047-1.171
		c0.746-0.98,1.499-1.954,2.248-2.931c1.136-1.479,2.279-2.956,3.4-4.443c0.102-0.135,0.141-0.358,0.094-0.518
		c-0.535-1.863-1.095-3.723-1.649-5.583c-0.241-0.819,0.093-1.249,1.061-1.398c2.611-0.403,5.221-0.813,7.83-1.221
		c0.063-0.009,0.123-0.03,0.287-0.071C24.033,8.151,20.661,6.219,17.255,4.267z"/>
	<path fill-rule="evenodd" clip-rule="evenodd" fill="#80152A" d="M18.715,6.627c1.162-0.01,2.133,0.93,2.147,2.083
		c0.015,1.167-0.953,2.135-2.134,2.132c-1.173-0.002-2.116-0.936-2.123-2.1C16.6,7.584,17.545,6.638,18.715,6.627z"/>
</g>
<polyline fill-rule="evenodd" clip-rule="evenodd" fill="#80152A" points="5.5,28 6.75,28 6.75,8.438 12.688,7 5.5,2.313 "/>
</svg>
