<?xml version="1.0" encoding="utf-8"?>
<!-- Generator: Adobe Illustrator 16.0.3, SVG Export Plug-In . SVG Version: 6.00 Build 0)  -->
<!DOCTYPE svg PUBLIC "-//W3C//DTD SVG 1.1//EN" "http://www.w3.org/Graphics/SVG/1.1/DTD/svg11.dtd">
<svg version="1.1"
	 id="svg10360" xmlns:dc="http://purl.org/dc/elements/1.1/" xmlns:cc="http://creativecommons.org/ns#" xmlns:rdf="http://www.w3.org/1999/02/22-rdf-syntax-ns#" xmlns:svg="http://www.w3.org/2000/svg" xmlns:sodipodi="http://sodipodi.sourceforge.net/DTD/sodipodi-0.dtd" xmlns:inkscape="http://www.inkscape.org/namespaces/inkscape" inkscape:version="0.91 r13725" sodipodi:docname="stadium.svg" inkscape:export-filename="C:\Users\Fabienne\Desktop\Symbole\png\stadium.png" inkscape:export-xdpi="90" inkscape:export-ydpi="90"
	 xmlns="http://www.w3.org/2000/svg" xmlns:xlink="http://www.w3.org/1999/xlink" x="0px" y="0px" width="32px" height="32px"
	 viewBox="0 0 32 32" enable-background="new 0 0 32 32" xml:space="preserve">
<sodipodi:namedview  units="px" pagecolor="#ffffff" bordercolor="#666666" borderopacity="1.0" inkscape:zoom="12.799999" inkscape:cx="11.94941" inkscape:cy="21.959957" id="namedview10364" showgrid="false" inkscape:document-units="pt" inkscape:pageopacity="0.0" inkscape:pageshadow="2" inkscape:current-layer="layer1" inkscape:window-maximized="1" inkscape:window-width="1920" inkscape:window-x="-9" inkscape:window-y="-9" inkscape:window-height="1003">
	</sodipodi:namedview>
<g id="layer1" transform="translate(0,-314.4)" inkscape:label="Layer 1" inkscape:groupmode="layer">
	<path id="path4153" inkscape:connector-curvature="0" fill="none" d="M5.183,346.172c-2.588-0.338-4.654-2.445-4.951-5.053
		c-0.03-0.261-0.04-3.851-0.03-10.978l0.014-10.59l0.093-0.384c0.194-0.806,0.446-1.394,0.867-2.024
		c0.859-1.286,2.253-2.188,3.816-2.468c0.402-0.072,1.024-0.076,11.027-0.076c11.842,0,10.881-0.024,11.844,0.298
		c0.867,0.291,1.545,0.702,2.193,1.333c0.687,0.665,1.178,1.445,1.463,2.322c0.304,0.928,0.283,0.088,0.282,11.844
		c0,11.395,0.009,10.876-0.212,11.671c-0.232,0.834-0.775,1.763-1.402,2.399c-0.818,0.832-1.778,1.361-2.992,1.652
		c-0.303,0.072-0.901,0.076-11.027,0.084C10.278,346.205,5.335,346.193,5.183,346.172L5.183,346.172z M26.951,345.685
		c2.152-0.375,3.805-1.967,4.303-4.143l0.098-0.428l0.016-10.376c0.015-10.561,0.01-10.918-0.145-11.578
		c-0.23-1.001-0.768-1.931-1.529-2.652c-0.737-0.7-1.563-1.128-2.629-1.362c-0.346-0.076-0.793-0.079-11.045-0.079
		c-10.093,0-10.707,0.003-11.061,0.076c-1.915,0.39-3.437,1.728-4.038,3.546c-0.276,0.835-0.259,0.095-0.259,11.729
		c0,11.637-0.017,10.893,0.259,11.717c0.609,1.82,2.203,3.205,4.075,3.543C5.514,345.775,26.415,345.779,26.951,345.685
		L26.951,345.685z"/>
	<path id="path4745" inkscape:connector-curvature="0" fill="none" d="M8.972,345.511c-3.917-0.027-3.982-0.029-4.314-0.123
		c-0.875-0.246-1.639-0.695-2.283-1.342c-0.636-0.64-0.992-1.217-1.279-2.074l-0.154-0.459l-0.041-1.539
		c-0.058-2.168-0.019-20.031,0.045-20.499c0.092-0.668,0.455-1.514,0.916-2.133c0.695-0.933,1.595-1.551,2.764-1.897l0.367-0.109
		l2.594-0.031c3.373-0.041,13.687-0.041,16.925,0l2.528,0.032l0.39,0.118c1.783,0.542,3.098,1.896,3.553,3.658
		c0.101,0.385,0.109,0.527,0.149,2.08c0.026,1.035,0.032,5.134,0.017,10.817l-0.028,9.152l-0.103,0.414
		c-0.465,1.867-1.811,3.279-3.61,3.787l-0.409,0.115l-4.042,0.033C18.41,345.552,14.788,345.55,8.972,345.511L8.972,345.511
		L8.972,345.511z"/>
</g>
<path fill="#FFFFFF" d="M3.882,10.6l7.838-2.313l7.133-0.398l7.191,1.769l2.104,1.474l0.574,1.642l-0.574,3.395l-1.986,4.686
	l-7.191,2.479c0,0-9.433-0.53-10.14-0.825s-4.139-1.945-4.139-1.945l-1.406-7.498l-0.275-1.698L3.882,10.6z"/>
<g>
	<path id="path8386" inkscape:connector-curvature="0" sodipodi:nodetypes="cc" fill="#80152A" stroke="#80152A" d="M3.011,11.723
		l1.741,8.489"/>
	<path id="path8390" inkscape:connector-curvature="0" sodipodi:nodetypes="cc" fill="#80152A" stroke="#80152A" d="M29.018,11.723
		l-1.739,8.489"/>
	<path id="rect8396" inkscape:connector-curvature="0" sodipodi:nodetypes="csssscc" fill="#80152A" d="M20.395,20.125v3.31
		c0,0.37-0.5,0.665-1.127,0.665H13.25c-0.625,0-1.128-0.295-1.128-0.665v-3.31C12.883,16.522,20.428,17.025,20.395,20.125
		L20.395,20.125z"/>
	<path id="path8348" inkscape:connector-curvature="0" fill="#80152A" stroke="#80152A" stroke-miterlimit="10" d="M27.207,19.083
		c-1.051,1.898-5.662,3.325-11.193,3.325c-5.528,0-10.139-1.427-11.191-3.325c-0.083,0.216-0.13,0.441-0.13,0.684
		c0,0.818,0.524,1.446,1.166,1.907c0.64,0.453,1.475,0.811,2.48,1.114c2.008,0.604,4.702,0.966,7.675,0.966
		c2.975,0,5.666-0.361,7.674-0.966c1.006-0.304,1.842-0.661,2.482-1.114c0.645-0.461,1.168-1.089,1.168-1.907
		C27.338,19.524,27.289,19.295,27.207,19.083z"/>
	<path id="path8399" inkscape:connector-curvature="0" fill="#80152A" stroke="#80152A" stroke-miterlimit="10" d="M16.014,7.284
		c-3.416,0-6.507,0.4-8.815,1.072C6.043,8.697,5.087,9.093,4.35,9.604c-0.736,0.509-1.338,1.212-1.338,2.119
		c0,0.912,0.603,1.613,1.338,2.123c0.737,0.51,1.694,0.911,2.849,1.249c2.308,0.674,5.399,1.074,8.815,1.074
		c3.416,0,6.506-0.4,8.813-1.074c1.156-0.338,2.117-0.738,2.854-1.249c0.738-0.509,1.338-1.21,1.338-2.123
		c0-0.907-0.6-1.61-1.338-2.119c-0.736-0.51-1.697-0.907-2.854-1.248C22.52,7.684,19.43,7.284,16.014,7.284z M16.014,9.074
		c3.279,0,6.252,0.396,8.332,1.006c1.039,0.303,1.855,0.667,2.346,1.007c0.488,0.338,0.566,0.569,0.566,0.636
		c0,0.071-0.078,0.302-0.566,0.641c-0.49,0.34-1.307,0.705-2.346,1.009c-2.08,0.608-5.053,1.004-8.332,1.004
		c-3.28,0-6.248-0.396-8.329-1.004c-1.039-0.304-1.858-0.668-2.348-1.009c-0.489-0.339-0.566-0.57-0.566-0.641
		c0-0.067,0.077-0.298,0.566-0.636c0.49-0.34,1.309-0.704,2.348-1.007C9.766,9.47,12.734,9.074,16.014,9.074z"/>
	<path id="path8448" fill="#80152A" stroke="#80152A" stroke-miterlimit="10" d="M24.168,9.304l-0.814-0.119l-1.623,3.65
		l0.029,0.054L24.168,9.304z M19.193,8.348l-0.648-0.061l-0.252,4.104l0.086,0.053L19.193,8.348z M8.206,9.304l0.816-0.119
		l1.623,3.65l-0.03,0.054L8.206,9.304z M13.18,8.348l0.652-0.061l0.249,4.104l-0.087,0.053L13.18,8.348z M16.172,12.34
		c-2.933,0.039-5.889,0.324-8.709,1.167c3.328,0.848,6.789,1.014,10.208,0.914c2.49-0.102,5-0.356,7.406-1.056
		C22.182,12.574,19.162,12.329,16.172,12.34z"/>
</g>
<path fill="#FFFFFF" d="M25.785,14.78"/>
</svg>
