<?xml version="1.0" encoding="utf-8"?>
<!-- Generator: Adobe Illustrator 16.0.3, SVG Export Plug-In . SVG Version: 6.00 Build 0)  -->
<!DOCTYPE svg PUBLIC "-//W3C//DTD SVG 1.1//EN" "http://www.w3.org/Graphics/SVG/1.1/DTD/svg11.dtd">
<svg version="1.1"
	 id="svg2" xmlns:dc="http://purl.org/dc/elements/1.1/" xmlns:cc="http://creativecommons.org/ns#" xmlns:rdf="http://www.w3.org/1999/02/22-rdf-syntax-ns#" xmlns:svg="http://www.w3.org/2000/svg" xmlns:sodipodi="http://sodipodi.sourceforge.net/DTD/sodipodi-0.dtd" xmlns:inkscape="http://www.inkscape.org/namespaces/inkscape" inkscape:export-ydpi="90" inkscape:export-xdpi="90" inkscape:export-filename="C:\Users\Fabienne\Desktop\Symbole\png\theatre.png" sodipodi:docname="theatre.svg" inkscape:version="0.91 r13725"
	 xmlns="http://www.w3.org/2000/svg" xmlns:xlink="http://www.w3.org/1999/xlink" x="0px" y="0px" width="32px" height="32px"
	 viewBox="0 0 32 32" enable-background="new 0 0 32 32" xml:space="preserve">
<sodipodi:namedview  showgrid="false" id="namedview18148" inkscape:cy="8.5776115" inkscape:cx="-20.242803" inkscape:zoom="10.429825" borderopacity="1" bordercolor="#666666" pagecolor="#ffffff" guidetolerance="10" gridtolerance="10" objecttolerance="10" inkscape:window-height="1003" inkscape:window-y="-9" inkscape:window-x="-9" inkscape:window-width="1920" inkscape:window-maximized="1" inkscape:current-layer="svg2" inkscape:pageshadow="2" inkscape:pageopacity="0">
	</sodipodi:namedview>
<path id="path4153" inkscape:connector-curvature="0" fill="none" d="M5.183,31.771c-2.588-0.338-4.654-2.445-4.951-5.053
	c-0.03-0.262-0.04-3.852-0.03-10.979L0.216,5.15l0.093-0.384C0.503,3.96,0.755,3.372,1.176,2.742
	c0.859-1.286,2.253-2.188,3.816-2.468c0.402-0.072,1.024-0.076,11.027-0.076c11.842,0,10.881-0.024,11.844,0.298
	c0.867,0.291,1.545,0.702,2.193,1.333c0.687,0.665,1.178,1.445,1.463,2.322c0.304,0.928,0.282,0.088,0.281,11.844
	c0,11.396,0.01,10.876-0.212,11.671c-0.231,0.834-0.774,1.764-1.401,2.398c-0.818,0.832-1.778,1.361-2.992,1.652
	c-0.303,0.072-0.901,0.076-11.027,0.084C10.278,31.807,5.335,31.793,5.183,31.771L5.183,31.771z M26.951,31.285
	c2.152-0.375,3.805-1.967,4.303-4.143l0.098-0.429l0.017-10.376C31.383,5.777,31.379,5.42,31.223,4.76
	c-0.229-1.001-0.768-1.931-1.529-2.652c-0.736-0.7-1.563-1.127-2.629-1.362C26.719,0.67,26.271,0.667,16.02,0.667
	c-10.093,0-10.707,0.004-11.061,0.076C3.042,1.134,1.521,2.471,0.92,4.29C0.644,5.125,0.661,4.386,0.661,16.019
	c0,11.637-0.017,10.893,0.259,11.717c0.609,1.82,2.203,3.205,4.075,3.543C5.514,31.375,26.415,31.379,26.951,31.285z"/>
<path id="path4745" inkscape:connector-curvature="0" fill="none" d="M8.972,31.111c-3.917-0.027-3.982-0.029-4.314-0.123
	c-0.875-0.246-1.639-0.695-2.283-1.342c-0.636-0.641-0.992-1.217-1.279-2.074l-0.154-0.459l-0.041-1.539
	C0.844,23.406,0.883,5.543,0.947,5.077c0.092-0.668,0.455-1.514,0.916-2.133C2.558,2.01,3.458,1.392,4.627,1.046l0.367-0.109
	l2.594-0.031c3.373-0.041,13.688-0.041,16.926,0l2.527,0.032l0.391,0.118c1.782,0.542,3.098,1.896,3.553,3.658
	c0.101,0.385,0.108,0.527,0.148,2.079c0.026,1.035,0.032,5.134,0.016,10.818l-0.026,9.152l-0.103,0.414
	c-0.465,1.865-1.812,3.277-3.61,3.785L27,31.078l-4.042,0.031C18.41,31.152,14.788,31.15,8.972,31.111L8.972,31.111z"/>
<rect id="canvas" y="16" display="none" fill="none" width="16" height="16"/>
<path id="path18690" inkscape:connector-curvature="0" fill="#80152A" enable-background="new    " d="M9.221,22.705
	c-2.67-0.51-4.406-2.327-5.009-5.246c-0.153-0.74-0.182-1.85-0.182-6.968c0-5.752,0.011-6.082,0.2-6.002
	C4.993,4.81,7.113,5.517,7.923,5.721c0.808,0.203,1.304,0.244,2.92,0.241c1.722-0.003,2.072-0.038,3.035-0.297
	c0.903-0.243,2.452-0.787,3.351-1.174c0.188-0.081,0.199,0.072,0.199,2.343v2.429l-0.314-0.075c-0.174-0.041-0.532-0.157-0.8-0.257
	L15.826,8.75V7.792c0-0.527-0.027-0.958-0.061-0.958c-0.033,0-0.362,0.127-0.73,0.282c-1.465,0.616-2.459,0.801-4.305,0.801
	c-1.83,0-2.606-0.146-4.267-0.801C6.068,6.961,5.72,6.833,5.689,6.833c-0.031,0-0.056,2.231-0.056,4.958
	c0,5.357,0.023,5.602,0.64,6.906c0.866,1.83,3.036,2.837,5.341,2.479c0.465-0.072,0.92-0.16,1.011-0.195
	c0.134-0.051,0.169,0.092,0.185,0.736l0.02,0.801l-0.42,0.119C11.692,22.838,10.1,22.873,9.221,22.705L9.221,22.705z"/>
<path id="path18692" inkscape:connector-curvature="0" fill="#80152A" enable-background="new    " d="M7.339,12.415
	C5.99,11.513,6.594,9.468,8.21,9.468c0.911,0,1.59,0.682,1.59,1.596C9.8,12.351,8.396,13.121,7.339,12.415z"/>
<path id="path18694" inkscape:connector-curvature="0" fill="#80152A" enable-background="new    " d="M7.465,18.249
	c0-1.05,0.744-2.162,1.742-2.605c0.856-0.38,2.319-0.383,3.098-0.005l0.543,0.263v1.364v1.363h-2.691H7.465V18.249z"/>
<path id="path18696" inkscape:connector-curvature="0" fill="#80152A" enable-background="new    " d="M19.146,27.727
	c-1.83-0.394-3.359-1.6-4.17-3.285c-0.743-1.547-0.75-1.627-0.752-8.632l-0.001-6.315l1.165,0.452
	c0.641,0.249,1.685,0.59,2.32,0.758c1.058,0.281,1.332,0.307,3.271,0.303c1.943-0.003,2.213-0.029,3.238-0.313
	c0.916-0.253,1.9-0.612,3.27-1.191c0.123-0.052,0.144,1.078,0.107,6.279c-0.039,6.094-0.051,6.377-0.289,7.236
	c-0.88,3.154-3.209,4.903-6.498,4.879C20.303,27.891,19.557,27.814,19.146,27.727L19.146,27.727z M21.932,24.402
	c1.067-0.363,2.144-1.652,2.323-2.785l0.075-0.469h-3.467h-3.465l0.078,0.479c0.172,1.08,1.265,2.408,2.271,2.768
	C20.395,24.623,21.275,24.626,21.932,24.402L21.932,24.402L21.932,24.402z M19.273,17.568c1.479-0.99,0.689-3.29-1.08-3.14
	c-0.938,0.078-1.566,0.779-1.565,1.739C16.629,17.471,18.186,18.295,19.273,17.568z M24.271,17.6
	c1.146-0.699,1.096-2.412-0.088-3.005c-1.48-0.744-3.063,0.835-2.316,2.316C22.299,17.768,23.453,18.1,24.271,17.6z"/>
</svg>
