<?xml version="1.0" encoding="UTF-8" standalone="no"?>
<!-- Created with Inkscape (http://www.inkscape.org/) -->

<svg
   xmlns:dc="http://purl.org/dc/elements/1.1/"
   xmlns:cc="http://creativecommons.org/ns#"
   xmlns:rdf="http://www.w3.org/1999/02/22-rdf-syntax-ns#"
   xmlns:svg="http://www.w3.org/2000/svg"
   xmlns="http://www.w3.org/2000/svg"
   xmlns:sodipodi="http://sodipodi.sourceforge.net/DTD/sodipodi-0.dtd"
   xmlns:inkscape="http://www.inkscape.org/namespaces/inkscape"
   width="352.78mm"
   height="352.78mm"
   viewBox="0 0 1250.0079 1250.0079"
   id="svg20674"
   version="1.1"
   inkscape:version="0.91 r13725"
   sodipodi:docname="accomodation_motel.svg">
  <defs
     id="defs20676" />
  <sodipodi:namedview
     id="base"
     pagecolor="#ffffff"
     bordercolor="#666666"
     borderopacity="1.0"
     inkscape:pageopacity="0.0"
     inkscape:pageshadow="2"
     inkscape:zoom="0.5"
     inkscape:cx="80"
     inkscape:cy="520"
     inkscape:document-units="px"
     inkscape:current-layer="layer1"
     showgrid="false"
     inkscape:window-width="1920"
     inkscape:window-height="1018"
     inkscape:window-x="-8"
     inkscape:window-y="-8"
     inkscape:window-maximized="1" />
  <metadata
     id="metadata20679">
    <rdf:RDF>
      <cc:Work
         rdf:about="">
        <dc:format>image/svg+xml</dc:format>
        <dc:type
           rdf:resource="http://purl.org/dc/dcmitype/StillImage" />
        <dc:title></dc:title>
      </cc:Work>
    </rdf:RDF>
  </metadata>
  <g
     inkscape:label="Layer 1"
     inkscape:groupmode="layer"
     id="layer1"
     transform="translate(0,197.64569)">
    <path
       inkscape:connector-curvature="0"
       d="m 448.42495,75.044573 c -18.942,-0.9059 -35.418,6.2003 -51.489,21.7776 -17.117,16.617397 -24.008,32.594357 -23.914,55.396457 0,26.9253 24.182,58.1454 51.732,67.0476 30.424,9.8393 66.508,-2.9362 84.312,-29.8958 10.683,-16.1176 14.425,-46.4601 8.053,-65.7638 -6.248,-18.95996 -27.719,-38.744657 -48.866,-45.023057 -6.934,-2.0616 -13.512,-3.2392 -19.828,-3.539 z m -146.599,0.4373 c -7.618,0.3123 -15.118,3.4453 -20.256,9.3957 l -8.112,9.4582 0,152.396057 0,152.39634 29.161,0 29.221,0 0,-37.7641 0,-37.7016 292.408,0.8434 292.164,0.9058 0.968,36.8489 0.968,36.8488 29.04,0 29.162,0 0,-124.2715 c 0,-92.55164 -1.218,-126.50494 -4.451,-132.81454 -8.84,-17.4921 -28.493,-21.3966 -45.329,-9.0897 -6.185,4.6229 -6.766,10.0236 -8.422,67.841 l -1.905,62.89644 -292.164,0.8434 -292.164,0.9058 -1.03,-87.36344 c -1,-83.774157 -1.312,-87.719257 -8.3,-94.684857 -5.56,-5.5756 -13.306,-8.1962 -20.925,-7.9307 z m 249.396,49.355457 0,49.7211 0,49.7212 162.404,0 162.46,0 -2.436,-12.8723 c -3.873,-20.8343 -15.534,-39.7944 -36.055,-58.5671 -29.924,-27.3313 -34.238,-28.0029 -170.395,-28.0029 l -115.975,0 z m -77.234,253.60964 -24.951,75.1001 c -23.489,70.7179 -25.448,75.1783 -34.225,77.0525 -15.68,3.3422 -31.785,15.6304 -36.971,27.9997 -3.81,9.0896 -4.941,29.7771 -4.941,90.7806 l 0,78.9422 25.682,0 c 24.458,0 25.744,0.4373 25.744,7.8089 0,12.6193 11.695,30.6204 24.221,37.3986 13.962,7.5278 30.17,7.9682 45.757,1.1557 14.056,-5.8098 22.112,-16.8361 24.829,-33.7971 l 2.062,-12.8723 101.882,0 101.944,0 4.27,14.7027 c 7.184,24.4264 23.355,37.0925 47.219,37.03 23.177,0 42.284,-16.3987 47.281,-40.2629 l 2.312,-11.1668 25.441,0 25.439,0 0,-74.5504 c 0,-41.0126 -1.499,-80.0979 -3.414,-86.8136 -4.186,-15.1806 -18.351,-29.1118 -35.874,-35.1403 l -13.422,-4.6353 -24.464,-73.4541 -24.524,-73.4509 -150.628,-0.9059 -150.628,-0.9058 z m 47.647,48.1343 102.857,0.7809 102.921,0.9058 14.703,46.304 c 8.121,25.4259 14.762,48.1999 14.762,50.5738 0,3.3735 -28.987,4.2731 -134.033,4.2731 -117.165,0 -133.86,-0.5935 -132.143,-5.0665 1.063,-2.655 8.509,-26.0006 16.474,-51.489 l 14.459,-46.304 z m -49.418,164.5969 c 42.512,0 54.544,57.6675 15.437,74.0038 -14.119,5.9036 -17.464,5.9036 -31.177,0 -14.243,-6.2159 -21.84,-17.8168 -21.84,-33.3723 0,-24.5825 14.841,-40.569 37.58,-40.569 z m 304.002,0 c 41.107,0 53.52,56.0495 16.412,73.6977 -17.43,8.2775 -28.138,6.3097 -43.318,-7.8714 -25.77,-23.9578 -8.609,-65.8263 26.906,-65.8263 z"
       id="path14187"
       style="fill:#004150;fill-opacity:1" />
  </g>
</svg>
