<?xml version="1.0" encoding="UTF-8" standalone="no"?>
<!-- Created with Inkscape (http://www.inkscape.org/) -->

<svg
   xmlns:dc="http://purl.org/dc/elements/1.1/"
   xmlns:cc="http://creativecommons.org/ns#"
   xmlns:rdf="http://www.w3.org/1999/02/22-rdf-syntax-ns#"
   xmlns:svg="http://www.w3.org/2000/svg"
   xmlns="http://www.w3.org/2000/svg"
   xmlns:sodipodi="http://sodipodi.sourceforge.net/DTD/sodipodi-0.dtd"
   xmlns:inkscape="http://www.inkscape.org/namespaces/inkscape"
   width="352.78mm"
   height="352.78mm"
   viewBox="0 0 1250.0079 1250.0079"
   id="svg24603"
   version="1.1"
   inkscape:version="0.91 r13725"
   sodipodi:docname="destination_memorial.svg">
  <defs
     id="defs24605" />
  <sodipodi:namedview
     id="base"
     pagecolor="#ffffff"
     bordercolor="#666666"
     borderopacity="1.0"
     inkscape:pageopacity="0.0"
     inkscape:pageshadow="2"
     inkscape:zoom="0.5"
     inkscape:cx="80"
     inkscape:cy="520"
     inkscape:document-units="px"
     inkscape:current-layer="layer1"
     showgrid="false"
     inkscape:window-width="1920"
     inkscape:window-height="1018"
     inkscape:window-x="-8"
     inkscape:window-y="-8"
     inkscape:window-maximized="1" />
  <metadata
     id="metadata24608">
    <rdf:RDF>
      <cc:Work
         rdf:about="">
        <dc:format>image/svg+xml</dc:format>
        <dc:type
           rdf:resource="http://purl.org/dc/dcmitype/StillImage" />
        <dc:title></dc:title>
      </cc:Work>
    </rdf:RDF>
  </metadata>
  <g
     inkscape:label="Layer 1"
     inkscape:groupmode="layer"
     id="layer1"
     transform="translate(0,197.64569)">
    <path
       id="path4740"
       inkscape:connector-curvature="0"
       d="m 284.57765,760.88324 0,-28.444 44.2127,0 c 43.5521,0 44.273,0 47.2465,-4.715 2.8533,-4.506 145.3734,-271.194 154.9249,-289.877 l 4.5053,-8.83 -8.9807,-4.566 c -46.4655,-23.637 -84.0403,-70.915 -97.7667,-123.056 -6.0072,-22.767 -5.5266,-70.284 0.9011,-92.751 20.2141,-70.52499 75.6002,-122.335994 149.0079,-139.396994 25.8609,-6.007 67.4004,-5.135 94.3426,2.104 61.6635,16.279 112.1538,60.581004 134.4103,117.828994 9.972,25.711 13.366,47.397 11.9244,76.413 -1.5019,30.876 -4.926,44.302 -18.352,72.055 -17.0303,35.202 -42.3205,62.834 -75.0596,81.968 -7.3888,4.325 -13.3959,8.681 -13.3959,9.671 0,2.704 156.0662,295.132 159.8207,299.578 2.8233,3.274 7.8693,3.664 48.1174,3.664 l 44.9937,0 0,28.474 0,28.444 -340.4264,0 -340.4262,0 0,-28.444 0,0 z m 522.7439,-29.315 c 0,-0.301 -34.0306,-64.607 -75.6903,-142.58 l -75.6904,-141.739 -32.3485,0.3 -32.3487,0.301 -75.2999,140.807 c -41.4195,77.463 -75.3299,141.529 -75.3599,142.401 0,0.901 82.4785,1.501 183.3388,1.501 100.8604,0 183.3689,-0.3 183.3689,-0.9 l 0,-0.301 z m -156.3967,-343.821 c 9.6716,-1.801 24.2389,-7.118 36.0731,-12.915 69.8934,-34.121 96.3851,-118.491 57.6688,-183.879 -44.9937,-75.99099 -164.296,-95.512994 -224.2176,-26.88199 -15.3483,17.60099 -32.0782,45.68399 -36.7939,68.81199 -11.5037,56.828 18.5921,115.367 73.0472,141.98 31.4775,15.378 61.123,19.433 94.2224,12.884 z"
       style="fill:#c84614;fill-opacity:1" />
  </g>
</svg>
