<?xml version="1.0" encoding="UTF-8" standalone="no"?>
<!-- Created with Inkscape (http://www.inkscape.org/) -->

<svg
   xmlns:dc="http://purl.org/dc/elements/1.1/"
   xmlns:cc="http://creativecommons.org/ns#"
   xmlns:rdf="http://www.w3.org/1999/02/22-rdf-syntax-ns#"
   xmlns:svg="http://www.w3.org/2000/svg"
   xmlns="http://www.w3.org/2000/svg"
   xmlns:sodipodi="http://sodipodi.sourceforge.net/DTD/sodipodi-0.dtd"
   xmlns:inkscape="http://www.inkscape.org/namespaces/inkscape"
   width="352.78mm"
   height="352.78mm"
   viewBox="0 0 1250.0079 1250.0079"
   id="svg26724"
   version="1.1"
   inkscape:version="0.48.4 r9939"
   sodipodi:docname="destination_picnic_site.svg">
  <defs
     id="defs26726" />
  <sodipodi:namedview
     id="base"
     pagecolor="#ffffff"
     bordercolor="#666666"
     borderopacity="1.0"
     inkscape:pageopacity="0.0"
     inkscape:pageshadow="2"
     inkscape:zoom="0.5"
     inkscape:cx="693.83292"
     inkscape:cy="469.22968"
     inkscape:document-units="px"
     inkscape:current-layer="layer1"
     showgrid="false"
     inkscape:window-width="1920"
     inkscape:window-height="1161"
     inkscape:window-x="1920"
     inkscape:window-y="0"
     inkscape:window-maximized="1" />
  <metadata
     id="metadata26729">
    <rdf:RDF>
      <cc:Work
         rdf:about="">
        <dc:format>image/svg+xml</dc:format>
        <dc:type
           rdf:resource="http://purl.org/dc/dcmitype/StillImage" />
        <dc:title />
      </cc:Work>
    </rdf:RDF>
  </metadata>
  <g
     inkscape:label="Layer 1"
     inkscape:groupmode="layer"
     id="layer1"
     transform="translate(0,197.64569)">
    <path
       style="font-size:medium;font-style:normal;font-variant:normal;font-weight:normal;font-stretch:normal;text-indent:0;text-align:start;text-decoration:none;line-height:normal;letter-spacing:normal;word-spacing:normal;text-transform:none;direction:ltr;block-progression:tb;writing-mode:lr-tb;text-anchor:start;baseline-shift:baseline;color:#000000;fill:#c84614;fill-opacity:1;fill-rule:nonzero;stroke:none;stroke-width:6.22570467;marker:none;visibility:visible;display:inline;overflow:visible;enable-background:accumulate;font-family:Sans;-inkscape-font-specification:Sans"
       d="m 750.21875,146.09375 c -32.05265,0.0145 -74.39911,0.13075 -130.84375,0.28125 l -3.25,0.0312 c -108.80501,0.28985 -165.2811,0.45503 -195,1.09375 -15.048,0.32341 -23.47199,0.7637 -28.96875,1.4375 -5.49676,0.6738 -8.22126,1.72451 -10.90625,2.875 -14.03932,6.00469 -24.51563,14.43603 -30.75,24.8125 -6.23437,10.37647 -8.10941,22.6134 -5.3125,35.65625 3.44156,16.0475 16.83025,30.2513 34.3125,37.09375 10.80413,4.22707 19.07397,5.26705 48.3125,6.0625 9.53903,0.2538 18.21131,0.61094 24.46875,0.96875 1.63768,0.0936 2.56862,0.18902 3.84375,0.28125 -0.0716,0.0587 -0.11513,0.0977 -0.1875,0.15625 -3.38842,2.74282 -5.05025,7.60215 -8.625,19.46875 -3.57475,11.8666 -8.54856,30.78657 -16.1875,61 l -18.34375,72.5 L 350,410.875 c -31.06171,0.52308 -47.48065,0.84812 -57.65625,1.6875 -10.1756,0.83938 -14.42154,2.37257 -19.78125,4.84375 -21.91539,10.09613 -33.68858,27.00682 -33.78125,48.96875 -0.0893,20.90226 10.41373,37.31903 29.6875,46.75 14.51063,7.09673 40.29529,9.60245 92.0625,9.875 8.34291,0 15.05987,0.22245 19.5625,0.625 1.79429,0.16041 2.93812,0.34566 3.9375,0.53125 -0.28897,1.29002 -0.69102,2.98362 -1.21875,5.21875 -1.11819,4.73597 -2.71839,11.46037 -4.71875,19.65625 C 374.09302,565.423 368.57213,587.73486 362.5,612 c -6.07464,24.27467 -11.58873,46.60751 -15.59375,63.03125 -2.00251,8.21187 -3.62523,14.91897 -4.75,19.6875 -0.56239,2.38427 -1.01168,4.30425 -1.3125,5.65625 -0.15041,0.676 -0.26016,1.20751 -0.34375,1.625 -0.0418,0.20875 -0.0966,0.39238 -0.125,0.5625 -0.0284,0.17012 -0.0625,0.15869 -0.0625,0.71875 0,1.5044 0.98703,2.46591 1.53125,2.84375 0.54422,0.37784 0.93726,0.49206 1.34375,0.625 0.81298,0.26589 1.63462,0.41211 2.6875,0.5625 2.10576,0.30078 5.01374,0.53088 8.8125,0.71875 7.59752,0.37574 18.72029,0.5625 33.03125,0.5625 26.22162,0 40.60145,-0.20958 49.9375,-2.53125 4.66803,-1.16084 8.17781,-2.96942 10.8125,-5.59375 2.63469,-2.62433 4.30438,-5.8662 5.9375,-9.65625 0.7788,-1.80795 1.74556,-5.07135 3.21875,-10.21875 1.47319,-5.1474 3.31942,-11.95824 5.4375,-19.9375 4.23617,-15.95852 9.52465,-36.64224 14.84375,-58.21875 5.31198,-21.54784 10.33567,-41.37894 14.15625,-55.96875 1.91029,-7.29491 3.53652,-13.28601 4.71875,-17.5 0.59112,-2.10699 1.08225,-3.76544 1.4375,-4.90625 0.0431,-0.13844 0.0546,-0.18985 0.0937,-0.3125 0.18515,-0.0231 0.24351,-0.0392 0.46875,-0.0625 1.41051,-0.14576 3.59953,-0.30245 6.4375,-0.4375 5.67594,-0.27011 14.06722,-0.50053 25,-0.6875 C 552.08431,522.18857 584.14834,522 625.40625,522 l 125.28125,0 8.84375,35.1875 c 18.16987,72.29289 27.05094,107.88531 33.5,126.34375 3.22453,9.22922 5.82028,14.32757 9.125,17.59375 3.30472,3.26618 7.02629,4.1201 10.875,5.15625 l 0,0.0312 c 3.41273,0.91068 9.64774,1.25281 18.65625,1.5625 9.00851,0.30969 20.38638,0.42012 32.53125,0.25 l 41.75,-0.625 3.9375,-0.0625 L 908.9375,703.6562 886.1875,612 c -6.25314,-25.20546 -11.94927,-48.14139 -16.09375,-64.78125 -2.07224,-8.31993 -3.73731,-15.07368 -4.90625,-19.75 -0.38515,-1.54077 -0.63716,-2.48914 -0.90625,-3.5625 2.36268,-0.088 5.71374,-0.22941 9.875,-0.375 8.48032,-0.29669 20.16561,-0.69525 33.0625,-1.0625 27.10725,-0.76503 44.57921,-1.93431 57.5,-4.6875 12.92079,-2.75319 21.33394,-7.24726 29.40625,-14.15625 25.4877,-21.81823 21.9259,-62.99479 -6.9375,-79.90625 -9.36399,-5.48643 -17.72796,-8.85056 -31.3125,-10.65625 -13.58454,-1.80569 -32.4751,-2.21875 -63.96875,-2.21875 l -55.625,0 -1.53125,-5.9375 c -1.16769,-4.48936 -9.29764,-36.29214 -18.0625,-70.59375 -8.00825,-31.33682 -13.16806,-50.15999 -17.4375,-61.65625 -2.13472,-5.74813 -4.04732,-9.68031 -6.15625,-12.53125 -0.96858,-1.30937 -2.03715,-2.33698 -3.15625,-3.1875 6.22201,-0.60674 15.52944,-1.11365 30.03125,-1.40625 18.43131,-0.36769 28.43093,-0.65386 35.53125,-1.5625 7.10032,-0.90864 11.31373,-2.55876 17.09375,-5.3125 6.93461,-3.29463 14.61605,-7.88184 18.21875,-11.34375 14.1611,-13.60229 18.51017,-39.14989 10.0625,-57.75 -6.22561,-13.70703 -19.21684,-23.27244 -38.40625,-28.96875 -7.97282,-2.36626 -12.83362,-3.64924 -43.25,-4.15625 -15.20819,-0.2535 -36.94735,-0.35827 -69,-0.34375 z m -65.0938,111.96875 17.34375,70.96875 c 9.87063,40.36553 18.48567,75.54694 19.21875,78.46875 l 0.0312,0.0312 0.28125,1.125 -97.875,0 -97.875,0 0.5625,-2.1875 c 0.85878,-3.39568 9.61984,-38.36689 19.5,-77.84375 l 17.34375,-69.46875 60.78125,-0.5 60.6875,-0.59375 z m 172.1875,263.71875 c 10e-4,0.004 0.0217,0.0258 0.0312,0.0625 -0.005,-0.0179 0.002,-0.0546 0,-0.0625 -0.007,-0.0236 -0.0318,-0.002 -0.0312,0 z"
       id="path5186"
       inkscape:connector-curvature="0"
       sodipodi:nodetypes="sccsscsccccccscccsccccscsssssscssscssssscssssscccssscsssccscccccsscscscssscccssccsccccssccccccccccccccccc" />
  </g>
</svg>
