<?xml version="1.0" encoding="UTF-8" standalone="no"?>
<!-- Created with Inkscape (http://www.inkscape.org/) -->

<svg
   xmlns:dc="http://purl.org/dc/elements/1.1/"
   xmlns:cc="http://creativecommons.org/ns#"
   xmlns:rdf="http://www.w3.org/1999/02/22-rdf-syntax-ns#"
   xmlns:svg="http://www.w3.org/2000/svg"
   xmlns="http://www.w3.org/2000/svg"
   xmlns:sodipodi="http://sodipodi.sourceforge.net/DTD/sodipodi-0.dtd"
   xmlns:inkscape="http://www.inkscape.org/namespaces/inkscape"
   width="352.78mm"
   height="352.78mm"
   viewBox="0 0 1250.0079 1250.0079"
   id="svg4191"
   version="1.1"
   inkscape:version="0.91 r13725"
   sodipodi:docname="education_school.svg">
  <defs
     id="defs4193" />
  <sodipodi:namedview
     id="base"
     pagecolor="#ffffff"
     bordercolor="#666666"
     borderopacity="1.0"
     inkscape:pageopacity="0.0"
     inkscape:pageshadow="2"
     inkscape:zoom="0.5"
     inkscape:cx="80"
     inkscape:cy="520"
     inkscape:document-units="px"
     inkscape:current-layer="layer1"
     showgrid="false"
     inkscape:window-width="1920"
     inkscape:window-height="1018"
     inkscape:window-x="-8"
     inkscape:window-y="-8"
     inkscape:window-maximized="1" />
  <metadata
     id="metadata4196">
    <rdf:RDF>
      <cc:Work
         rdf:about="">
        <dc:format>image/svg+xml</dc:format>
        <dc:type
           rdf:resource="http://purl.org/dc/dcmitype/StillImage" />
        <dc:title></dc:title>
      </cc:Work>
    </rdf:RDF>
  </metadata>
  <g
     inkscape:label="Layer 1"
     inkscape:groupmode="layer"
     id="layer1"
     transform="translate(0,197.64569)">
    <path
       style="fill:#c84614;fill-opacity:1"
       d="m 315.95286,65.1722 c -0.05,0 -0.06,0.01 -0.06,0.03 0.316,0.637 9.866,26.585 21.477,57.74003 l 21.068,56.58601 57.77401,53.08 c 31.713,29.17201 58.907,54.03006 60.31,55.21306 l 2.617,2.166 -100.41001,100.564 -100.40801,100.581 -2.649,6.794 c -7.747,20.008 -11.486,44.226 -9.603,62.397 2.018,19.263 9.99,46.132 14.014,47.191 3.162,0.814 326.31604,188.694 329.43504,191.559 l 2.807,2.68 101.48401,-101.454 101.54701,-101.453 3.644,3.555 c 2.11301,1.996 23.72101,21.878 48.15701,44.258 50.86601,46.628 43.76201,42.389 60.15601,36.062 27.803,-10.751 43.446,-28.208 51.115,-57.256 1.167,-4.303 2.335,-10.129 2.682,-12.873 l 0.693,-4.955 -42.328,-38.523 c -23.313,-21.257 -43.88501,-39.96 -45.88101,-41.705 l -3.334,-3.115 47.21901,-47.219 46.941,-47.236 0,-55.946 c 0,-50.071 0,-56.01 -1.545,-56.556 -0.819,-0.341 -76.206,-43.432 -167.18702,-95.78006 l -0.01,0 C 724.5739,169.20923 649.00589,125.80923 647.69689,125.13923 c -2.302,-1.182 -4.082,0.483 -48.544,44.946 -25.401,25.37001 -46.63001,45.98801 -47.20401,45.78501 -0.536,-0.158 -27.103,-24.155 -59.021,-53.23701 l -58.01801,-52.845 -59.71801,-22.86203 c -31.78,-12.167 -57.853,-21.719 -59.243,-21.752 z M 430.95287,122.11323 694.1229,361.7033 c 144.71702,131.735 263.24803,239.762 263.37103,240.262 l 0,0 c 0,0.438 -4.518,3.115 -10.408,5.922 -21.815,10.598 -32.54,23.314 -40.209,47.937 -1.482,4.799 -2.744,8.664 -2.807,8.664 0,-0.02 -116.81802,-107.093 -259.47604,-238.187 C 501.96888,295.3153 382.62486,185.77524 379.40186,182.87724 l -5.879,-5.27001 22.194,-21.552 c 12.15601,-11.858 25.08801,-24.344 28.68901,-27.754 l 6.547,-6.188 z M 958.98793,352.3243 c 0.41,0 0.662,14.553 0.662,32.32 l 0,32.336 -0.01,0 -44.224,44.231 c -24.19001,24.31 -44.51001,44.258 -45.00801,44.193 -0.82,0 -24.748,-21.193 -33.662,-29.765 -0.631,-0.53 21.442,-23.264 60.342,-62.102 33.59901,-33.678 61.52501,-61.213 61.90001,-61.213 z m -660.68108,159.752 c 0.04,-0.01 0.08,-0.01 0.123,0 0.504,0.06 58.02301,33.102 127.82202,73.432 69.80301,40.302 137.01901,79.045 149.37702,86.213 l 22.455,12.966 0,36.34 0.08,0 c 0,20.012 0,36.312 -0.316,36.219 0,-0.02 -68.15001,-39.461 -151.11802,-87.678 l -150.87302,-87.615 -2.144,-8.85 c -2.964,-12.468 -3.553,-28.55 -1.418,-40.425 2.016,-11.081 4.689,-20.319 6.016,-20.602 z m 463.05406,37.651 c 0.915,0 32.823,29.515 33.319,30.763 0.315,0.782 -37.838,39.429 -84.46701,86.119 l -0.01,0 c -46.581,46.628 -85.10201,84.963 -85.58401,84.963 -0.473,0 -0.727,-14.586 -0.727,-32.508 l 0,-32.384 68.39701,-68.446 c 37.619,-37.681 68.66501,-68.507 69.06801,-68.507 z m 208.13102,61.863 c 0.07,0 0.104,0.01 0.104,0.03 l -0.01,0.01 c 0,1.428 -3.178,13.841 -4.641,18.297 -6.704,19.479 -18.984,32.446 -37.936,40.363 -3.925,1.621 -8.476,3.334 -9.974,3.615 -2.649,0.681 -2.744,0.561 -2.113,-2.123 7.546,-33.817 19.731,-48.309 49.685,-58.721 2.345,-0.871 4.403,-1.458 4.881,-1.468 z"
       id="path4203"
       inkscape:connector-curvature="0" />
  </g>
</svg>
