<?xml version="1.0" encoding="UTF-8" standalone="no"?>
<!-- Created with Inkscape (http://www.inkscape.org/) -->

<svg
   xmlns:dc="http://purl.org/dc/elements/1.1/"
   xmlns:cc="http://creativecommons.org/ns#"
   xmlns:rdf="http://www.w3.org/1999/02/22-rdf-syntax-ns#"
   xmlns:svg="http://www.w3.org/2000/svg"
   xmlns="http://www.w3.org/2000/svg"
   version="1.1"
   width="1000"
   height="1000"
   viewBox="0 0 1000 1000"
   id="svg30975">
  <defs
     id="defs30977" />
  <metadata
     id="metadata30980">
    <rdf:RDF>
      <cc:Work
         rdf:about="">
        <dc:format>image/svg+xml</dc:format>
        <dc:type
           rdf:resource="http://purl.org/dc/dcmitype/StillImage" />
        <dc:title></dc:title>
      </cc:Work>
    </rdf:RDF>
  </metadata>
  <g
     id="layer1">
    <path
       d="M 497.04268,179.40814 A 320.59155,320.59155 0 0 0 176.45091,499.99994 320.59155,320.59155 0 0 0 497.04268,820.59186 320.59155,320.59155 0 0 0 817.63449,499.99994 320.59155,320.59155 0 0 0 497.04268,179.40814 z"
       id="path9919"
       style="fill:#ffffff;fill-opacity:1;stroke:none" />
    <path
       d="m 512.59822,174.30873 c -30.28288,-1.00595 -65.74154,2.26103 -91.27343,8.49156 -176.42651,43.91884 -284.23722,224.56535 -238.68584,400.41397 31.05428,119.92128 127.14172,212.78183 246.63536,238.35992 52.81235,11.30511 121.69459,7.16062 173.12506,-10.4526 C 710.78779,774.01253 796.04896,674.5439 816.50057,560.954 849.53971,377.26636 724.9331,203.52877 540.61741,176.56976 c -8.38664,-1.2568 -17.92656,-2.01018 -28.01919,-2.26103 z m -17.07731,47.1091 c 78.86686,0 142.71149,25.42552 198.79003,79.1927 57.93787,55.62651 86.00981,121.95559 85.48227,203.46103 -0.50246,47.4608 -7.22338,76.50498 -27.67499,118.86533 C 716.3907,697.03 645.14675,754.79168 566.3804,773.53498 468.19261,796.85119 371.65555,771.27396 299.77338,702.558 186.86248,595.24949 184.52328,417.18984 294.5701,305.63598 348.99041,250.46202 418.26202,221.41783 495.52091,221.41783 z m -80.03763,80.67534 0,63.36467 0,63.33967 -63.35217,0 -63.30209,0 0,83.4639 0,83.49062 63.30209,0 63.35217,0 0,63.33968 0,63.33967 83.47218,0 83.47217,0 0,-63.33967 0,-63.33968 64.82205,0 64.7768,0 0,-83.49062 0,-83.4639 -64.7768,0 -64.7743,0 0,-63.33967 0,-63.36467 -83.51992,0 -83.47218,0 z"
       id="path9157"
       style="fill:#4682be;fill-opacity:1" />
  </g>
</svg>
