<?xml version="1.0" encoding="UTF-8" standalone="no"?>
<!-- Created with Inkscape (http://www.inkscape.org/) -->

<svg
   xmlns:dc="http://purl.org/dc/elements/1.1/"
   xmlns:cc="http://creativecommons.org/ns#"
   xmlns:rdf="http://www.w3.org/1999/02/22-rdf-syntax-ns#"
   xmlns:svg="http://www.w3.org/2000/svg"
   xmlns="http://www.w3.org/2000/svg"
   xmlns:sodipodi="http://sodipodi.sourceforge.net/DTD/sodipodi-0.dtd"
   xmlns:inkscape="http://www.inkscape.org/namespaces/inkscape"
   width="352.78mm"
   height="352.78mm"
   viewBox="0 0 1250.0079 1250.0079"
   id="svg22500"
   version="1.1"
   inkscape:version="0.91 r13725"
   sodipodi:docname="leisure_cinema.svg">
  <defs
     id="defs22502" />
  <sodipodi:namedview
     id="base"
     pagecolor="#ffffff"
     bordercolor="#666666"
     borderopacity="1.0"
     inkscape:pageopacity="0.0"
     inkscape:pageshadow="2"
     inkscape:zoom="0.5"
     inkscape:cx="80"
     inkscape:cy="520"
     inkscape:document-units="px"
     inkscape:current-layer="layer1"
     showgrid="false"
     inkscape:window-width="1920"
     inkscape:window-height="1018"
     inkscape:window-x="-8"
     inkscape:window-y="-8"
     inkscape:window-maximized="1" />
  <metadata
     id="metadata22505">
    <rdf:RDF>
      <cc:Work
         rdf:about="">
        <dc:format>image/svg+xml</dc:format>
        <dc:type
           rdf:resource="http://purl.org/dc/dcmitype/StillImage" />
        <dc:title></dc:title>
      </cc:Work>
    </rdf:RDF>
  </metadata>
  <g
     inkscape:label="Layer 1"
     inkscape:groupmode="layer"
     id="layer1"
     transform="translate(0,197.64569)">
    <path
       d="m 626.4814,118.46613 c -329.3508,0 -314.3119,-0.8253 -331.6406,19.23449 l -8.9433,10.4004 0,279.07605 0,279.0782 7.1855,8.8906 c 3.9133,4.8978 11.7126,11.6454 17.3555,14.9727 9.8223,5.8827 22.3598,6.1367 313.6465,6.1367 282.3426,0 304.2495,-0.4268 314.8437,-5.668 6.2553,-3.1144 14.4272,-9.7594 18.207,-14.7637 6.841,-9.0769 6.9747,-11.0986 6.9747,-288.4902 0,-277.39145 0,-279.35855 -6.9219,-288.43545 -3.8064,-5.0044 -12.0045,-11.65139 -18.2598,-14.76579 -10.5942,-5.2705 -32.3942,-5.666 -312.4473,-5.666 z m -271.6699,45.28329 0.1328,0 c 10.5145,0 20.9219,1.7297 23.0782,3.8965 5.9623,5.80276 5.0856,36.66676 -1.3301,42.78906 -3.3002,3.2475 -11.1267,5.0957 -21.375,5.0957 -19.2454,0 -26.459,-7.3415 -26.459,-26.8262 0,-21.00196 4.0723,-24.95506 25.9531,-24.95506 z m 123.4571,0 147.5468,0 147.5723,0 0,121.34376 0,121.28899 -147.5723,0 -147.5468,0 0,-121.28899 0,-121.34376 z m 416.1015,0.2656 c 9.1568,0 18.3399,1.2241 20.9219,3.7422 2.1294,2.1294 3.9394,12.26756 3.9394,22.51566 0,15.1193 -1.3311,19.2731 -6.3886,21.9882 -8.1453,4.259 -29.9189,4.2084 -37.4785,0 -4.4986,-2.5287 -5.8301,-7.6434 -5.8301,-21.9375 0,-10.2215 1.8632,-20.33136 3.9394,-22.46086 2.6619,-2.5287 11.7397,-3.7441 20.8965,-3.7441 l 0,-0.1036 z m -540.6133,94.21876 c 1.7909,0.015 3.6842,0.1175 5.6856,0.3047 l 0.08,0 c 9.077,0.8518 17.8344,3.5823 19.4316,6.0312 4.3385,6.6546 3.6209,36.5477 -1.0644,41.0196 -2.1297,2.1295 -12.5637,3.8984 -23.0782,3.8984 -22.0405,0 -25.9531,-3.8835 -25.9531,-25.6309 0,-17.8027 7.5871,-25.771 24.8984,-25.623 z m 541.4375,0.029 -0.027,0.01 c 4.0194,0.021 7.9605,0.4805 11.3144,1.4121 10.5942,2.9813 11.0464,3.6536 12.0313,21.834 0.5323,11.0467 -0.5326,20.6533 -2.875,23.3418 -4.259,5.0309 -34.8439,6.3463 -42.1641,1.8105 -2.9546,-1.8632 -3.993,-8.9939 -3.3808,-23.3945 l 1.0644,-20.7441 12.1114,-2.9629 c 3.7532,-0.9051 7.8796,-1.3313 11.9257,-1.3047 z m -0.8789,96.39649 0,0.1113 c 9.2898,0 18.7125,1.7575 20.9219,3.9004 2.1295,2.1294 3.9395,12.2636 3.9395,22.5117 0,15.1193 -1.3293,19.2751 -6.3868,21.9902 -8.1453,4.2589 -29.8941,4.1565 -37.4804,-0.2675 -4.4985,-2.5021 -5.8828,-7.5639 -5.8828,-21.8848 0,-10.2214 1.8647,-20.3315 3.9941,-22.4609 2.1295,-2.1295 11.5514,-3.9004 20.8945,-3.9004 z m -539.5566,0.1113 0.1328,0 c 10.4879,0 20.8685,1.7575 23.0781,3.9004 5.9623,5.7762 5.0856,36.6649 -1.33,42.7871 -3.3002,3.2209 -11.1267,5.041 -21.375,5.041 -19.2454,0 -26.459,-7.2886 -26.459,-26.7734 0,-21.002 4.0722,-24.9551 25.9531,-24.9551 z m 123.3496,93.7246 0.1074,0.014 146.6934,0.8242 146.7754,0.8262 0.7988,120.5097 0.7988,120.668 -147.5742,0 -147.5996,0 0,-121.3945 0,-121.4473 z m -124.3535,0.6465 c 1.7917,0.014 3.6861,0.1141 5.6875,0.2988 l 0.08,0 c 9.1036,0.905 17.8077,3.5799 19.4316,6.0821 4.3385,6.6545 3.6209,36.5475 -1.0644,41.0195 -2.1297,2.1294 -12.537,3.9251 -23.0782,3.8984 -22.0405,0 -26.0058,-4.0931 -26.0058,-25.7871 0,-17.7305 7.6297,-25.6488 24.9492,-25.5117 z m 541.4394,0.023 -0.027,0.01 c 4.0194,0.018 7.9605,0.4784 11.3144,1.4102 10.5942,2.9547 11.0464,3.6535 12.0313,21.8339 0.5323,11.0467 -0.5326,20.6572 -2.875,23.3457 -4.259,5.0043 -34.8439,6.3183 -42.1641,1.7559 -2.9546,-1.81 -3.993,-8.9939 -3.3808,-23.3945 l 1.0644,-20.7442 12.1114,-2.9121 c 3.7532,-0.905 7.8796,-1.3313 11.9257,-1.3047 z m -0.8789,96.3965 0,0.1094 c 9.2898,0 18.7125,1.7577 20.9219,3.9004 2.1295,2.1296 3.9395,12.2369 3.9395,22.5117 0,15.0926 -1.3293,19.2747 -6.3868,22.043 -8.1453,4.2058 -29.8941,4.1804 -37.4804,-0.2676 -4.4985,-2.5287 -5.8828,-7.5946 -5.8828,-21.8887 0,-10.2482 1.8647,-20.3803 3.9941,-22.5097 2.1295,-2.2093 11.5514,-3.8985 20.8945,-3.8985 z m -539.5566,0.1094 0.1328,0 c 10.4879,0 20.8685,1.7315 23.0781,3.8476 5.9623,5.8028 5.0856,36.663 -1.33,42.7852 -3.3002,3.2209 -11.1267,5.0711 -21.375,5.0977 -19.2454,0 -26.459,-7.3173 -26.459,-26.7754 0,-21.0819 4.0722,-24.9551 25.9531,-24.9551 z m -1.0039,94.3808 c 1.7917,0.014 3.6861,0.1142 5.6875,0.2989 l 0.08,0 c 9.1036,0.8785 17.8077,3.5804 19.4316,6.0293 4.3385,6.6813 3.6209,36.5211 -1.0644,41.0195 -2.1297,2.1562 -12.537,3.925 -23.0782,3.8984 -22.0405,0 -26.0058,-4.0669 -26.0058,-25.7343 0,-17.7063 7.6297,-25.645 24.9492,-25.5118 z m 541.4394,0.025 -0.027,0.01 c 4.0194,0 7.9605,0.5051 11.3144,1.4101 10.5942,2.9014 11.0464,3.6314 12.0313,21.7852 0.5323,11.0733 -0.5326,20.6267 -2.875,23.3418 -4.259,5.0309 -34.8439,6.3464 -42.1641,1.8105 -2.9546,-1.8633 -3.993,-8.9959 -3.3808,-23.3965 l 1.0644,-20.7422 12.1114,-2.9668 c 3.7532,-0.8785 7.8796,-1.2766 11.9257,-1.25 z"
       id="path8599"
       inkscape:connector-curvature="0"
       style="fill:#821432;fill-opacity:1" />
  </g>
</svg>
