<?xml version="1.0" encoding="UTF-8" standalone="no"?>
<!-- Created with Inkscape (http://www.inkscape.org/) -->

<svg
   xmlns:dc="http://purl.org/dc/elements/1.1/"
   xmlns:cc="http://creativecommons.org/ns#"
   xmlns:rdf="http://www.w3.org/1999/02/22-rdf-syntax-ns#"
   xmlns:svg="http://www.w3.org/2000/svg"
   xmlns="http://www.w3.org/2000/svg"
   xmlns:sodipodi="http://sodipodi.sourceforge.net/DTD/sodipodi-0.dtd"
   xmlns:inkscape="http://www.inkscape.org/namespaces/inkscape"
   width="352.78mm"
   height="352.78mm"
   viewBox="0 0 1250.0079 1250.0079"
   id="svg6683"
   version="1.1"
   inkscape:version="0.91 r13725"
   sodipodi:docname="misc_watch_tower.svg">
  <defs
     id="defs6685" />
  <sodipodi:namedview
     id="base"
     pagecolor="#ffffff"
     bordercolor="#666666"
     borderopacity="1.0"
     inkscape:pageopacity="0.0"
     inkscape:pageshadow="2"
     inkscape:zoom="0.5"
     inkscape:cx="80"
     inkscape:cy="520"
     inkscape:document-units="px"
     inkscape:current-layer="layer1"
     showgrid="false"
     inkscape:window-width="1920"
     inkscape:window-height="1018"
     inkscape:window-x="-8"
     inkscape:window-y="-8"
     inkscape:window-maximized="1" />
  <metadata
     id="metadata6688">
    <rdf:RDF>
      <cc:Work
         rdf:about="">
        <dc:format>image/svg+xml</dc:format>
        <dc:type
           rdf:resource="http://purl.org/dc/dcmitype/StillImage" />
        <dc:title></dc:title>
      </cc:Work>
    </rdf:RDF>
  </metadata>
  <g
     inkscape:label="Layer 1"
     inkscape:groupmode="layer"
     id="layer1"
     transform="translate(0,197.64569)">
    <path
       inkscape:connector-curvature="0"
       d="m 741.11759,80.800669 c -6.5003,1.6803 -22.5249,10.3383 -80.5456,42.360101 -43.986,24.2623 -81.4152,44.7983 -83.1799,45.6935 -3.1654,1.682 -3.2216,3.8106 -3.2216,87.1022 l 0,85.4211 28.8837,0 c 15.8856,0 28.9128,0.2805 28.9128,0.5601 0,1.4007 -89.2592,427.7755 -89.9599,429.7371 -0.56,1.4008 4.763,1.9608 23.4218,2.2412 13.1397,0 23.8983,-0.56 23.8983,-1.4007 0,-0.8405 2.2404,-11.2069 4.7058,-23.477 l 4.6504,-22.3851 72.4503,-90.3521 72.393,-90.3792 3.5021,3.7263 c 1.9617,1.9616 35.2443,44.3209 73.9899,94.0493 l 70.4605,90.4918 4.1184,18.8829 c 2.2412,10.4501 4.0903,19.3316 4.0903,19.8074 0,0.2803 10.3938,0.8403 23.085,0.8403 17.566,0 23.1694,-0.5601 23.1694,-2.2413 0,-1.1209 -20.0875,-97.8598 -44.6013,-214.966 -24.5148,-117.108 -44.6577,-213.5383 -44.6577,-214.2382 0,-0.561 11.2344,-1.4015 24.8506,-1.4015 l 24.7934,0 -0.5601,-86.2335 c -0.2806,-67.9379 -0.8406,-86.1482 -2.5218,-85.8406 -1.1202,0 -1.9608,0 -1.9608,-0.8397 0,-0.8415 -2.5216,-2.2421 -5.7995,-3.3905 -3.1381,-1.1201 -5.7434,-2.8019 -5.7434,-3.698 0,-0.8407 -0.8405,-1.1211 -1.6803,-0.5611 -0.8405,0.5611 -1.6819,0.2806 -1.6819,-0.56 0,-0.8398 -1.6804,-1.9616 -4.1176,-2.5218 -2.2412,-0.56 -4.0341,-1.9606 -4.0341,-2.8005 0,-0.8413 -0.8405,-1.4015 -1.6811,-0.5609 -0.8406,0.5609 -1.6812,0.2804 -1.6812,-0.2805 0,-0.8406 -2.5218,-2.2413 -5.7433,-3.5021 -3.1653,-1.1201 -5.7996,-2.8294 -5.7996,-3.7255 0,-0.8405 -0.5601,-1.121 -1.6803,-0.5609 -0.8406,0.5609 -1.6812,0 -1.6812,-0.5601 0,-0.8397 -1.6812,-1.9615 -4.0903,-2.5217 -2.2412,-0.56 -4.1185,-1.6803 -4.1185,-2.8013 0,-0.8406 -0.8405,-1.4007 -1.6812,-0.8406 -0.8405,0.5601 -1.6801,0.5601 -1.6801,-0.2796 0,-0.8406 -2.5218,-2.2412 -5.7997,-3.5022 -3.1381,-1.1209 -5.7432,-2.8856 -5.7432,-3.7824 0,-0.8406 -0.8407,-1.1203 -1.6812,-0.5602 -0.8397,0.5602 -1.6812,0.5602 -1.6812,-0.2804 0,-0.8397 -2.5209,-2.2412 -5.7425,-3.502 -3.1662,-1.1203 -5.7441,-2.8286 -5.7441,-3.7255 0,-0.8415 -0.8406,-1.1211 -1.6804,-0.5603 -0.8405,0.5603 -1.6811,0 -1.6811,-0.5608 0,-0.8407 -1.9607,-1.9608 -4.1747,-2.5208 -2.2404,-0.5611 -4.034,-1.6822 -4.034,-2.8023 0,-0.8405 -0.8407,-1.4006 -1.6812,-0.8405 -0.8406,0.5609 -1.6811,0.2806 -1.6811,-0.56 0,-0.8406 -2.5217,-2.5217 -5.7707,-3.5021 -3.1652,-1.1211 -5.7995,-2.5218 -5.7995,-3.5584 0,-0.8398 -0.8406,-1.1202 -1.6812,-0.5601 -0.8405,0.5601 -1.6803,0.2806 -1.6803,-0.5602 0,-0.8405 -1.9616,-1.9616 -4.0911,-2.5216 -2.2413,-0.5601 -4.1185,-1.6803 -4.1185,-2.8014 0,-0.8404 -0.5601,-1.4007 -1.6803,-0.561 -0.8406,0.561 -1.6811,0.2806 -1.6811,-0.2794 0,-0.8407 -2.5209,-2.241401 -5.7997,-3.502201 -3.1372,-1.1202 -5.7424,-2.8295 -5.7424,-3.7263 0,-0.8398 -0.8407,-1.1202 -1.6819,-0.5602 -0.8398,0.5602 -1.6804,0.2806 -1.6804,-0.2796 0,-0.8405 -2.5217,-2.242 -5.7433,-3.502 -3.1663,-1.1212 -5.7434,-2.8306 -5.7434,-3.7264 0,-0.8405 -0.8405,-1.1211 -1.6811,-0.5609 -0.8405,0.5609 -1.6812,0.2803 -1.6812,-0.2796 0,-0.8406 -2.2412,-2.2413 -5.2105,-3.3342 -1.4015,-0.56 -2.5217,-0.8406 -4.5388,0 z m -109.1506,120.216001 108.9263,0 108.9546,0 0,38.8027 0,38.8018 -108.9546,0 -108.9263,0 0,-38.8018 0,-38.8027 z m -232.5611,74.5509 c -6.4151,0 -12.9146,0.8415 -18.1822,2.9421 -10.1695,4.062 -19.3025,12.6631 -24.2896,22.8045 -3.8108,7.7612 -4.1457,9.386 -4.1457,20.4797 0,10.6181 0.2795,12.8883 3.5575,19.3034 6.6956,13.6163 20.0313,23.7857 34.7396,26.3346 21.3476,3.6983 43.0327,-9.0765 50.933,-30.0328 3.9786,-10.5063 3.1662,-25.8864 -1.9618,-36.1403 -4.4534,-8.9939 -13.5591,-17.7066 -23.1403,-22.1609 -4.8464,-2.2413 -11.1789,-3.4458 -17.5668,-3.5303 z m 279.3202,65.6975 65.3053,0.561 65.1647,0.5601 3.9224,18.4628 3.9497,18.4907 -35.7763,44.6569 c -19.6946,24.6263 -36.4207,44.6857 -37.1207,44.6295 -2.2412,0 -71.5525,-89.5114 -71.665,-92.369 0,-1.4008 1.4007,-9.8057 3.0537,-18.6589 l 3.1662,-16.0808 z m -360.14621,37.4856 -4.9301,2.8576 c -9.9734,5.7432 -9.5821,2.8856 -9.5821,81.3025 0,67.6029 0,69.7316 2.5217,73.822 3.3895,5.5472 12.1874,9.5813 18.4899,8.3767 6.052,-1.1201 12.7485,-7.2284 14.3452,-12.9709 0.8406,-2.8303 1.4006,-24.2341 1.4006,-53.6789 l 0,-49.0285 3.7255,0 3.7272,0 -0.8406,159.8875 c -0.8414,168.2924 -0.8414,167.7595 4.81831,175.577 1.4007,1.9608 4.8747,4.6505 7.8166,6.1345 8.8533,4.3709 17.173,3.1663 24.149,-3.6137 7.5089,-7.0885 7.1721,-2.5208 7.1721,-98.2239 l 0,-88.0265 5.688,0 5.6307,0 0.2806,87.7741 0.2795,87.6895 3.3904,5.1551 c 7.7604,11.7109 23.2249,13.7289 33.1148,4.3709 7.6487,-7.1721 7.1721,4.4262 7.1721,-173.5591 l 0,-163.277 3.11,0 3.138,0 0.2796,51.8008 c 0.2806,50.065 0.5602,51.9704 2.9702,55.3327 6.5276,8.7127 16.473,10.9257 25.1021,5.5756 8.5446,-5.2958 8.3767,-3.5866 8.3767,-79.706 0,-75.9795 0.2796,-72.7017 -8.4885,-79.3973 l -4.6504,-3.5584 -79.1739,-0.2804 -79.22931,-0.2797 z m 340.19841,59.5901 c 0.5601,-1.4015 53.0343,65.6976 53.6789,68.6113 0.2796,1.1204 -20.0595,27.7636 -45.1624,59.0013 -51.8008,64.521 -46.8981,58.6097 -46.9543,56.9567 0,-1.1202 37.6816,-181.964 38.4378,-184.5692 z m 170.8132,1.6811 c 0,0.5601 9.2463,43.4803 20.0875,95.254 10.8421,51.7454 19.583,94.2181 19.4151,94.3298 0,0 -21.6563,-27.0919 -47.7668,-60.5706 l -47.5435,-60.9626 27.7355,-34.5718 c 15.2139,-19.0509 27.8489,-34.1232 28.0722,-33.4788 z"
       id="path7871"
       style="fill:#4c4c4c;fill-opacity:1" />
  </g>
</svg>
