<?xml version="1.0" encoding="UTF-8" standalone="no"?>
<!-- Created with Inkscape (http://www.inkscape.org/) -->

<svg
   xmlns:dc="http://purl.org/dc/elements/1.1/"
   xmlns:cc="http://creativecommons.org/ns#"
   xmlns:rdf="http://www.w3.org/1999/02/22-rdf-syntax-ns#"
   xmlns:svg="http://www.w3.org/2000/svg"
   xmlns="http://www.w3.org/2000/svg"
   version="1.0"
   width="1000"
   height="1000"
   viewBox="0 0 1000 1000"
   id="svg4799"
   xml:space="preserve"><title
     id="title5366">natural_rock_and_stone</title><metadata
     id="metadata11"><rdf:RDF><cc:Work
         rdf:about=""><dc:format>image/svg+xml</dc:format><dc:type
           rdf:resource="http://purl.org/dc/dcmitype/StillImage" /><dc:title>natural_rock_and_stone</dc:title></cc:Work></rdf:RDF></metadata><defs
     id="defs9" /><g
     id="layer1"><g
       transform="matrix(6.2899075,0,0,6.2899075,-5306.3279,-9089.4726)"
       id="g4571"><path
         d="m 891.516,1519.413 c 2.886,-7.53 -1.23,-7.409 -1.513,-13.441 -0.152,-3.24 2.163,-4.827 5.124,-5.839 2.818,-0.962 5.451,-2.457 8.196,-3.644 0.785,-0.34 1.672,-0.475 2.526,-0.62 5.293,-0.899 10.578,-1.871 15.895,-2.596 1.518,-0.207 3.502,-0.191 4.642,0.614 4.059,2.869 8.526,2.093 12.942,2.079 2.34,-0.01 5.61,-0.903 6.891,2.115 0.348,0.819 1.455,1.529 2.752,1.746 8.256,1.377 13.723,6.442 15.75,14.563 0.388,1.553 1.092,3.051 1.813,4.493 4.443,8.884 2.315,16.574 -6.227,21.56 -6.36,3.713 -12.59,7.866 -19.377,10.57 -5.446,2.17 -11.706,2.197 -17.49,3.638 -11.892,2.961 -23.601,0.286 -35.36,-0.787 -0.805,-0.073 -3.926,-0.568 -4.815,-0.938 -2.906,-1.211 -4.524,-0.827 -5.811,-5.085 -0.25,-0.828 3.53,-11.125 3.773,-11.339 3.662,-3.232 0.693,-7.585 2.03,-11.099 0.548,-1.44 1.766,-2.87 3.062,-3.721 1.733,-1.135 3.839,-1.703 5.197,-2.269 l 0,0 z m 23.358,19.802 c -3.802,-4.349 -7.639,-8.74 -11.48,-13.127 -6.174,-7.051 -6.176,-7.05 -14.743,-3.563 -3.875,1.577 -5.144,4.625 -3.421,8.518 1.41,3.186 3.06,6.269 4.401,9.482 0.801,1.919 1.965,2.497 3.998,2.433 3.716,-0.117 7.528,-0.385 11.146,0.264 6.141,1.101 6.091,1.381 10.099,-4.007 l 0,0 z m 32.729,-29.295 c -5.985,1.096 -11.431,2.092 -17.477,3.198 3.155,3.905 5.85,7.303 8.639,10.621 0.396,0.472 1.344,0.906 1.887,0.768 7.694,-1.959 15.364,-4.02 22.998,-6.045 -2.119,-11.84 -7.247,-16.676 -17,-16.208 0.302,2.436 0.604,4.864 0.953,7.666 l 0,0 z m -37.868,4.425 c 3.024,3.671 5.657,6.989 8.45,10.166 0.601,0.684 1.939,1.397 2.665,1.181 4.121,-1.228 8.159,-2.734 12.47,-4.231 -0.853,-1.302 -1.453,-2.235 -2.07,-3.158 -0.969,-1.45 -1.629,-3.462 -2.986,-4.224 -3.171,-1.779 -6.645,-3.942 -10.062,-4.061 -2.665,-0.091 -5.426,2.662 -8.467,4.327 l 0,0 z m 9.748,-13.543 c 7.988,7.801 15.637,8.926 25.703,4.514 -0.391,-1.409 -0.939,-2.816 -1.148,-4.272 -0.393,-2.753 -1.796,-3.834 -4.555,-3.383 -6.393,1.044 -12.802,2.016 -20,3.141 z m -11.158,4.059 c 6.664,-3.753 12.608,-4.762 18.812,-8.256 -0.777,-0.382 -2.362,-1.885 -3.746,-1.719 -6.506,0.781 -12.958,2.021 -19.851,3.167 1.614,3.327 3.285,3.708 4.785,6.808 z m -0.632,4.553 c -5.602,-9.538 -6.047,-9.728 -14.246,-6.592 1.807,4.695 4.036,8.957 10.066,8.466 1.416,-0.116 2.751,-1.206 4.18,-1.874 l 0,0 z"
         id="path4573"
         style="fill:#4c4c4c" /></g></g></svg>