<?xml version="1.0" encoding="UTF-8" standalone="no"?>
<!-- Created with Inkscape (http://www.inkscape.org/) -->

<svg
   xmlns:dc="http://purl.org/dc/elements/1.1/"
   xmlns:cc="http://creativecommons.org/ns#"
   xmlns:rdf="http://www.w3.org/1999/02/22-rdf-syntax-ns#"
   xmlns:svg="http://www.w3.org/2000/svg"
   xmlns="http://www.w3.org/2000/svg"
   version="1.1"
   width="1000"
   height="1000"
   viewBox="0 0 1000 1000"
   id="svg3361">
  <defs
     id="defs3363" />
  <metadata
     id="metadata3366">
    <rdf:RDF>
      <cc:Work
         rdf:about="">
        <dc:format>image/svg+xml</dc:format>
        <dc:type
           rdf:resource="http://purl.org/dc/dcmitype/StillImage" />
        <dc:title></dc:title>
      </cc:Work>
    </rdf:RDF>
  </metadata>
  <g
     transform="translate(0,968)"
     id="layer1">
    <g
       transform="translate(-0.05208308,0.18)"
       id="g7">
      <path
         d="m 805.11051,-326.32834 a 13.910066,12.091572 0 0 0 -6.1937,1.70015 l -274.96799,138.66136 a 13.912774,12.093926 0 1 0 13.96303,20.92201 l 274.96796,-138.66136 a 13.910066,12.091572 0 0 0 -7.7693,-22.6222 z m 0,-45.05548 a 13.910066,12.091572 0 0 0 -6.1937,1.70014 l -274.96799,138.66135 a 13.912764,12.093918 0 1 0 13.96303,20.92199 l 274.96796,-138.66135 a 13.910066,12.091572 0 0 0 -7.7693,-22.62218 z m 1.35832,-48.9282 a 13.910066,12.091572 0 0 0 -7.55196,1.74753 l -274.968,138.61413 a 13.912765,12.093919 0 1 0 13.96304,20.92199 L 812.87987,-397.6425 a 13.910066,12.091572 0 0 0 -6.41104,-22.66943 z m -639.0567,-160.94088 313.25117,309.85184 1.36305,117.34906 -315.97727,-310.43217 1.36305,-116.76873 z m 17.13549,-34.79607 318.61992,314.51871 305.1285,-152.58038 L 497.79879,-766.308 184.54762,-616.04897 z"
         id="line15"
         style="font-size:medium;font-style:normal;font-variant:normal;font-weight:normal;font-stretch:normal;text-indent:0;text-align:start;text-decoration:none;line-height:normal;letter-spacing:normal;word-spacing:normal;text-transform:none;direction:ltr;block-progression:tb;writing-mode:lr-tb;text-anchor:start;baseline-shift:baseline;color:#000000;fill:#c84614;fill-opacity:1;fill-rule:nonzero;stroke:none;visibility:visible;display:inline;overflow:visible;enable-background:accumulate;font-family:sans-serif" />
    </g>
  </g>
</svg>
