<?xml version="1.0" encoding="UTF-8" standalone="no"?>
<!-- Created with Inkscape (http://www.inkscape.org/) -->

<svg
   xmlns:dc="http://purl.org/dc/elements/1.1/"
   xmlns:cc="http://creativecommons.org/ns#"
   xmlns:rdf="http://www.w3.org/1999/02/22-rdf-syntax-ns#"
   xmlns:svg="http://www.w3.org/2000/svg"
   xmlns="http://www.w3.org/2000/svg"
   xmlns:sodipodi="http://sodipodi.sourceforge.net/DTD/sodipodi-0.dtd"
   xmlns:inkscape="http://www.inkscape.org/namespaces/inkscape"
   width="352.78mm"
   height="352.78mm"
   viewBox="0 0 1250.0079 1250.0079"
   id="svg17228"
   version="1.1"
   inkscape:version="0.91 r13725"
   sodipodi:docname="shop_kiosk.svg">
  <defs
     id="defs17230" />
  <sodipodi:namedview
     id="base"
     pagecolor="#ffffff"
     bordercolor="#666666"
     borderopacity="1.0"
     inkscape:pageopacity="0.0"
     inkscape:pageshadow="2"
     inkscape:zoom="0.5"
     inkscape:cx="80"
     inkscape:cy="520"
     inkscape:document-units="px"
     inkscape:current-layer="layer1"
     showgrid="false"
     inkscape:window-width="1920"
     inkscape:window-height="1018"
     inkscape:window-x="-8"
     inkscape:window-y="-8"
     inkscape:window-maximized="1" />
  <metadata
     id="metadata17233">
    <rdf:RDF>
      <cc:Work
         rdf:about="">
        <dc:format>image/svg+xml</dc:format>
        <dc:type
           rdf:resource="http://purl.org/dc/dcmitype/StillImage" />
        <dc:title></dc:title>
      </cc:Work>
    </rdf:RDF>
  </metadata>
  <g
     inkscape:label="Layer 1"
     inkscape:groupmode="layer"
     id="layer1"
     transform="translate(0,197.64567)">
    <path
       inkscape:connector-curvature="0"
       d="m 533.60326,73.383639 -9.3586,17.0118 c -24.2422,44.143101 -57.2791,96.615701 -80.9008,128.609601 l -11.5571,15.6361 0,16.6256 c 0,9.133 -0.564,26.4492 -1.128,38.4293 l -1.1271,21.7474 7.8082,8.0929 c 9.5275,9.8377 20.1264,16.2138 32.7832,19.7656 18.9145,5.2713 42.5079,0.8175 60.3227,-11.453 13.4179,-9.2457 13.6434,-9.8011 14.8278,-52.0837 0.8452,-34.6436 1.4091,-39.7738 7.3007,-65.6789 7.8083,-34.982 18.5194,-77.6479 27.4838,-109.7826 3.7772,-13.502301 6.8217,-25.118701 6.8217,-25.710801 0,-0.6483 -12.0088,-1.212 -26.6951,-1.212 l -26.6944,0 z m 69.6815,0 -2.8466,12.6623 c -1.6918,6.9344 -9.9508,43.167801 -18.6607,80.545601 l -15.8701,67.9397 -1.1279,40.3546 -1.1271,40.3545 6.5963,7.2698 c 7.2724,8.0619 24.0724,17.0963 38.0543,20.4789 25.3976,6.1451 53.2474,-2.1705 71.4008,-21.3612 l 4.6797,-5.0091 0.5631,-40.0811 c 0.2819,-45.7498 0.8459,-42.5194 -17.6177,-129.8753 -6.6521,-31.1764 -12.6001,-60.399301 -13.2199,-64.965801 l -1.1279,-8.3129 -24.8337,0 -24.7779,0 z m 65.6229,0 0.8459,3.9634 c 0.5632,2.1423 3.5794,15.684 6.8773,30.060101 3.2983,14.3761 9.8945,42.6377 14.6866,62.7643 16.7159,70.471 16.8565,71.5281 14.3761,110.9919 -1.9732,30.2744 -1.6911,35.0749 0.5639,39.585 4.7072,9.0766 18.6891,18.7002 35.0665,24.1124 4.2281,1.4094 12.8257,2.1423 21.9023,1.7476 12.6568,-0.4228 16.7436,-1.353 26.1588,-6.0013 6.2011,-2.9879 15.3061,-9.3838 20.5207,-14.1477 l 9.3586,-8.6454 -0.5631,-38.9226 -0.564,-38.979 -19.3653,-33.9697 c -19.8452,-34.7846 -54.9393,-99.7081 -65.2844,-120.793101 l -5.8068,-11.7799 -29.3445,0 -29.2879,0 z m -216.1486,0 -12.7698,13.4882 c -7.0472,7.4418 -30.4151,32.786001 -51.9231,56.266901 -21.5073,23.5092 -49.0759,53.0817 -61.3093,65.7382 l -22.2409,23.0666 0,41.8965 0,41.8992 6.004,6.6609 c 6.8783,7.5828 20.3801,15.5319 32.1352,18.7736 11.4158,3.1571 17.6176,2.9794 29.6257,-0.7612 13.7563,-4.2564 24.3545,-10.5932 31.9938,-19.0497 l 6.1454,-6.8273 1.1271,-33.8036 c 0.564,-18.6042 1.6919,-36.8309 2.255,-40.4671 0.564,-4.6793 9.6408,-19.6812 30.613,-51.4213 41.5779,-62.8603 71.1754,-109.819301 71.1754,-112.863701 0,-2.1986 -4.792,-2.5933 -31.3734,-2.5933 l -31.4015,0 z m 289.7769,0 11.6137,18.7735 c 23.3962,37.716201 57.7581,96.077501 71.1195,120.516801 l 13.5585,25.1047 -0.5639,41.2367 -0.282,41.2933 8.8795,8.3128 c 9.471,8.8511 19.9292,14.3423 34.08,17.8376 4.792,1.1838 9.1608,2.1987 10.1756,2.2551 4.1439,0.5637 24.3552,-7.6221 33.5442,-13.5982 19.7604,-12.882 18.4919,-9.5474 19.7039,-55.6072 l 1.1271,-40.1347 -24.3263,-29.3441 c -24.693,-29.8798 -77.9694,-96.148 -98.1241,-122.278701 l -11.0498,-14.3703 -34.6997,0 -34.6156,0 z M 631.92466,382.08074 c -263.5334,0 -272.6666,0 -277.8819,3.2473 -11.7826,7.2162 -11.1622,-2.537 -11.1622,183.7207 0,182.5765 -0.2819,177.1925 9.5842,191.484 5.2993,7.5827 15.1654,14.923 24.7771,18.3337 5.4408,1.9168 50.2037,2.3679 253.2447,2.4806 156.3332,0 249.0731,-0.592 252.9917,-1.6631 15.3902,-4.2564 30.9789,-19.5938 34.446,-33.9698 0.846,-2.9035 0.846,-83.2151 0.5639,-178.4919 l -0.8459,-173.2037 c 0,0 -2.537,-5.277 -4.3128,-6.7709 -1.6912,-1.5222 -8.7383,-5.1754 -8.7383,-5.1754 l -272.5259,0 z m -240.2219,47.0719 239.771,0 239.7702,0 0,126.4081 0,126.408 -239.7702,0 -239.771,0 0,-126.408 0,-126.4081 z"
       id="path5311"
       style="fill:#a01914;fill-opacity:1" />
  </g>
</svg>
