<?xml version="1.0" encoding="UTF-8" standalone="no"?>
<!-- Created with Inkscape (http://www.inkscape.org/) -->

<svg
   xmlns:dc="http://purl.org/dc/elements/1.1/"
   xmlns:cc="http://creativecommons.org/ns#"
   xmlns:rdf="http://www.w3.org/1999/02/22-rdf-syntax-ns#"
   xmlns:svg="http://www.w3.org/2000/svg"
   xmlns="http://www.w3.org/2000/svg"
   xmlns:sodipodi="http://sodipodi.sourceforge.net/DTD/sodipodi-0.dtd"
   xmlns:inkscape="http://www.inkscape.org/namespaces/inkscape"
   width="352.78mm"
   height="352.78mm"
   viewBox="0 0 1250.0079 1250.0079"
   id="svg15234"
   version="1.1"
   inkscape:version="0.91 r13725"
   sodipodi:docname="shop_car_rental.svg">
  <defs
     id="defs15236" />
  <sodipodi:namedview
     id="base"
     pagecolor="#ffffff"
     bordercolor="#666666"
     borderopacity="1.0"
     inkscape:pageopacity="0.0"
     inkscape:pageshadow="2"
     inkscape:zoom="0.5"
     inkscape:cx="80"
     inkscape:cy="520"
     inkscape:document-units="px"
     inkscape:current-layer="layer1"
     showgrid="false"
     inkscape:window-width="1920"
     inkscape:window-height="1018"
     inkscape:window-x="-8"
     inkscape:window-y="-8"
     inkscape:window-maximized="1" />
  <metadata
     id="metadata15239">
    <rdf:RDF>
      <cc:Work
         rdf:about="">
        <dc:format>image/svg+xml</dc:format>
        <dc:type
           rdf:resource="http://purl.org/dc/dcmitype/StillImage" />
        <dc:title></dc:title>
      </cc:Work>
    </rdf:RDF>
  </metadata>
  <g
     inkscape:label="Layer 1"
     inkscape:groupmode="layer"
     id="layer1"
     transform="translate(0,197.64569)">
    <path
       inkscape:connector-curvature="0"
       d="m 441.46003,83.322687 c -20.1153,0.3955 -40.152,5.8527 -60.0296,16.4245 -66.489,35.353603 -87.4744,125.727803 -43.1043,185.678503 16.5032,22.2773 39.7819,40.0278 62.9298,48.0423 49.9319,17.2682 111.8599,-0.9755 141.8089,-41.7098 l 11.2048,-15.2908 35.5381,0 35.5911,-0.2636 26.4164,-26.622 26.3634,-26.6192 25.7309,25.6411 25.8626,25.6438 26.4685,-26.4162 26.601,-26.4137 27.5499,27.3918 c 37.2518,36.9089 38.6492,36.8404 87.2367,-3.654 20.4323,-17.0572 37.3578,-31.9763 37.4894,-33.1627 0,-1.1864 -16.451,-15.9526 -36.7774,-32.7989 l -36.8562,-30.6371 -154.4376,0 c -88.1598,0 -154.5171,-1.3973 -154.5171,-3.1926 0,-7.6982 -33.9561,-39.8168 -50.7233,-47.989603 -20.0624,-9.7809 -40.2307,-14.4525 -60.346,-14.057 z m -47.9291,101.541903 c 5.0095,0.6326 10.1499,2.7287 14.9219,6.4855 11.1782,8.8054 12.6808,26.9514 3.1376,38.2086 -16.6885,19.72 -46.9804,8.4864 -47.0068,-17.4553 0,-18.0326 13.9201,-29.1607 28.9473,-27.2388 z m 98.1781,221.2561 -17.9007,54.1191 c -24.2019,72.9479 -28.9208,82.9951 -38.9921,85.5787 -12.2851,3.0318 -24.4916,12.9365 -28.8413,23.3765 -2.742,6.38 -4.4557,31.573 -5.8533,81.6638 l -2.1086,72.244 23.9377,0.8173 23.8326,0.8173 3.6121,14.3128 c 11.0987,43.5789 70.3908,42.9936 82.7818,-0.8701 l 3.7694,-13.4374 84.6537,-0.7118 84.6537,0.7118 3.7959,13.4374 c 12.4706,43.869 71.7352,44.4806 82.8605,0.8701 l 3.612,-14.3128 23.8326,-0.8173 23.9907,-0.8173 -1.8454,-72.244 c -1.5813,-50.0644 -3.2429,-75.2574 -5.9318,-81.6638 -4.3763,-10.3873 -16.5032,-20.2656 -28.8678,-23.3765 -10.0449,-2.5836 -14.7373,-12.6308 -38.9921,-85.5787 l -17.9272,-54.1191 -129.0229,0.6591 -129.0495,-0.6591 z m 122.1423,40.2677 0,0 c 2.3728,0 4.5608,0 6.8541,0 2.3728,0 4.6669,0 7.0131,0 l 0,0 c 41.3119,0 76.7175,1.2918 78.6159,3.7594 2.6368,3.1373 29.5011,87.9119 29.5011,92.6837 0,0.87 -45.6094,1.4237 -101.6312,1.1337 l -5.9849,0 0,-0.2637 c -2.3727,0 -5.0088,0 -7.514,0 -2.3727,0 -5.0352,0 -7.4079,0 l 0,0.2637 -5.9841,0 c -55.9705,0.29 -101.6321,-0.2901 -101.6321,-1.1337 0,-4.7718 26.9968,-89.5464 29.5011,-92.6837 2.1095,-2.4782 37.3836,-3.8385 78.6689,-3.7594 z m -123.2757,152.9297 c 21.7761,0 35.274,13.8144 35.274,36.1444 0,28.9999 -29.1318,45.4112 -53.9132,30.2258 -21.223,-12.8918 -23.8325,-40.0753 -5.4045,-57.0006 8.5414,-7.83 12.4697,-9.3696 24.0437,-9.3696 z m 260.4451,0 c 11.5475,0 15.4494,1.529 24.0437,9.3696 18.4016,16.9517 15.8177,44.1088 -5.4045,57.0006 -24.7556,15.159 -53.9661,-1.2391 -53.9661,-30.2258 0,-22.33 13.5509,-36.1444 35.3269,-36.1444 z"
       id="path7484"
       style="fill:#a01914;fill-opacity:1" />
  </g>
</svg>
