<?xml version="1.0" encoding="UTF-8" standalone="no"?>
<!-- Created with Inkscape (http://www.inkscape.org/) -->

<svg
   xmlns:dc="http://purl.org/dc/elements/1.1/"
   xmlns:cc="http://creativecommons.org/ns#"
   xmlns:rdf="http://www.w3.org/1999/02/22-rdf-syntax-ns#"
   xmlns:svg="http://www.w3.org/2000/svg"
   xmlns="http://www.w3.org/2000/svg"
   xmlns:sodipodi="http://sodipodi.sourceforge.net/DTD/sodipodi-0.dtd"
   xmlns:inkscape="http://www.inkscape.org/namespaces/inkscape"
   width="352.78mm"
   height="352.78mm"
   viewBox="0 0 1250.0079 1250.0079"
   id="svg19205"
   version="1.1"
   inkscape:version="0.91 r13725"
   sodipodi:docname="traffic_fuel_station.svg">
  <defs
     id="defs19207" />
  <sodipodi:namedview
     id="base"
     pagecolor="#ffffff"
     bordercolor="#666666"
     borderopacity="1.0"
     inkscape:pageopacity="0.0"
     inkscape:pageshadow="2"
     inkscape:zoom="0.5"
     inkscape:cx="80"
     inkscape:cy="520"
     inkscape:document-units="px"
     inkscape:current-layer="layer1"
     showgrid="false"
     inkscape:window-width="1920"
     inkscape:window-height="1018"
     inkscape:window-x="-8"
     inkscape:window-y="-8"
     inkscape:window-maximized="1" />
  <metadata
     id="metadata19210">
    <rdf:RDF>
      <cc:Work
         rdf:about="">
        <dc:format>image/svg+xml</dc:format>
        <dc:type
           rdf:resource="http://purl.org/dc/dcmitype/StillImage" />
        <dc:title></dc:title>
      </cc:Work>
    </rdf:RDF>
  </metadata>
  <g
     inkscape:label="Layer 1"
     inkscape:groupmode="layer"
     id="layer1"
     transform="translate(0,197.64569)">
    <path
       inkscape:connector-curvature="0"
       d="m 818.8779,68.567749 c -0.8678,0 -1.7345,0.7805 -2.6022,1.70551 -5.4343,6.3015 -10.6663,12.75329 -16.0431,19.02599 -3.7574,4.336 -7.6021,8.5389 -11.4468,12.759101 -1.1562,1.4454 -1.1562,2.4282 0,3.7261 6.6205,5.9547 13.2685,11.9411 19.7717,18.0113 10.1181,9.4236 20.2637,18.8903 30.3807,28.2847 4.6251,4.2781 9.2502,8.5678 13.9328,12.8169 1.4459,1.2141 1.1563,2.168 0,3.4428 -5.3768,5.9258 -11.0709,11.5654 -15.8695,17.9535 -2.6011,3.3243 -3.4689,7.8654 -5.0586,11.8545 -3.0056,7.7181 -0.578,15.1902 1.7345,22.301 2.0241,6.0704 5.4343,11.551 10.2905,16.147 5.5503,5.1742 10.464,10.8543 15.7833,16.2598 4.5378,4.4515 9.1629,8.7903 13.7295,13.1551 2.3126,2.1969 4.4814,4.2926 6.5043,6.6051 0.5782,0.6937 0.8678,1.9078 1.1563,2.8327 0,1.272 0,2.5727 0,3.8388 0,99.2058 0,198.3798 0,297.6435 0,8.7586 0,17.7195 -1.4448,26.4202 -1.1563,7.689 -3.209,15.3521 -8.2963,21.6247 -7.1112,8.8452 -21.6509,9.9842 -29.7162,1.85 -6.2722,-6.2437 -8.0641,-14.2883 -9.9721,-22.5266 -2.3125,-9.3367 -1.7344,-18.7484 -1.7344,-28.1141 0,-65.6747 0,-131.2771 0,-196.9229 0,-5.579 0.2886,-11.2792 -0.5781,-16.7137 -1.7344,-9.0186 -3.4401,-18.0604 -6.4458,-26.6456 -3.093,-8.8452 -7.6606,-17.2164 -13.8179,-24.5586 -5.0297,-6.0124 -10.4342,-11.6896 -16.765,-16.488 -8.2962,-6.2437 -16.9971,-11.3167 -26.7094,-14.959 -9.2215,-3.4687 -18.5292,-5.6309 -28.2991,-6.2667 -3.0929,-0.2891 -6.2147,-0.8673 -9.6548,-1.4164 l 0,-3.6683 c 0,-32.0858 0,-64.2294 0,-96.373 0,-10.8398 -2.6011,-21.2691 -8.5273,-30.3746 -4.162,-6.5616 -9.8284,-11.9006 -16.65,-15.9764 -8.9606,-5.2897 -18.6155,-7.0011 -28.7324,-6.9433 -31.7392,0 -63.4485,0 -95.1301,0 -69.23,0 -138.3736,0 -207.6034,0 -6.1573,0 -12.4881,0.4337 -18.442,1.8789 -10.9271,2.6595 -19.6855,8.7585 -26.3048,18.0664 -5.1745,7.2844 -8.2963,15.1757 -8.8744,24.0499 0,0.4625 -0.2896,0.925 -0.5781,1.4163 l 0,621.9328 410.785,0 0,-462.1021 c 5.9837,0.636 11.6778,0.289 16.9971,2.9918 3.093,1.5899 6.5608,2.457 9.7123,3.9515 6.7355,3.1507 11.9962,8.0445 16.2156,14.1149 4.163,5.9257 6.5907,12.4528 7.1687,19.5925 0.5782,5.3187 1.1564,10.5739 1.1564,15.8637 0,65.8192 0,131.6675 0,197.4866 0,9.3945 0,18.9249 1.4458,28.117 1.1564,9.3078 3.2378,18.6762 6.2435,27.5504 3.6137,10.9266 9.2216,21.1738 17.4017,29.4699 3.7574,3.8444 8.2963,7.0443 12.8053,10.0506 5.6079,3.7289 12.0249,5.7437 18.5293,7.5647 8.6423,2.4281 17.3719,2.0813 26.1302,2.1969 7.5158,0 14.7432,-1.7633 21.7383,-4.0094 6.5906,-2.1967 12.8628,-5.3619 17.9501,-10.2182 4.7986,-4.5094 9.395,-9.3136 13.8466,-14.2276 1.4447,-1.7632 2.6011,-4.0729 3.555,-6.0963 4.1918,-8.4117 7.8044,-17.0604 9.7124,-26.3103 2.024,-9.4235 3.6135,-18.8555 3.7286,-28.568 0,-1.9077 0.8677,-3.9051 1.1562,-5.813 l 0,-374.82 c -0.2885,-1.8499 -0.8666,-3.5698 -1.1562,-5.4199 -0.5782,-5.55 -0.2885,-11.2502 -1.7344,-16.6556 -2.3116,-9.2499 -4.5953,-18.4681 -10.117,-26.5908 -5.4918,-8.2093 -12.5156,-14.7509 -19.5694,-21.3414 -5.6366,-5.232 -11.1284,-10.5478 -16.765,-15.8088 -4.5389,-4.1914 -9.1054,-8.1746 -13.673,-12.3082 -5.2609,-4.7695 -10.4929,-9.513 -15.6386,-14.3403 -4.6826,-4.307001 -9.2779,-8.816401 -13.9616,-13.152201 -5.8102,-5.3767 -11.6778,-10.68669 -17.488,-16.03429 -0.5781,-0.4914 -1.1562,-0.8961 -1.7344,-1.4742 -0.8667,-1.15631 -2.0229,-1.50321 -2.8907,-1.35861 z m -450.5308,152.829601 307.5034,0 0,153.8471 -307.5034,0 0,-153.8471 z"
       id="path7-5"
       style="fill:#4c4c4c;fill-opacity:1" />
  </g>
</svg>
