<?xml version="1.0" encoding="UTF-8" standalone="no"?>
<!-- Created with Inkscape (http://www.inkscape.org/) -->

<svg
   xmlns:dc="http://purl.org/dc/elements/1.1/"
   xmlns:cc="http://creativecommons.org/ns#"
   xmlns:rdf="http://www.w3.org/1999/02/22-rdf-syntax-ns#"
   xmlns:svg="http://www.w3.org/2000/svg"
   xmlns="http://www.w3.org/2000/svg"
   xmlns:sodipodi="http://sodipodi.sourceforge.net/DTD/sodipodi-0.dtd"
   xmlns:inkscape="http://www.inkscape.org/namespaces/inkscape"
   width="352.78mm"
   height="352.78mm"
   viewBox="0 0 1250.0079 1250.0079"
   id="svg26390"
   version="1.1"
   inkscape:version="0.91 r13725"
   sodipodi:docname="utility_solar.svg">
  <defs
     id="defs26392" />
  <sodipodi:namedview
     id="base"
     pagecolor="#ffffff"
     bordercolor="#666666"
     borderopacity="1.0"
     inkscape:pageopacity="0.0"
     inkscape:pageshadow="2"
     inkscape:zoom="0.5"
     inkscape:cx="128"
     inkscape:cy="520"
     inkscape:document-units="px"
     inkscape:current-layer="layer1"
     showgrid="false"
     inkscape:window-width="1920"
     inkscape:window-height="1018"
     inkscape:window-x="-8"
     inkscape:window-y="-8"
     inkscape:window-maximized="1" />
  <metadata
     id="metadata26395">
    <rdf:RDF>
      <cc:Work
         rdf:about="">
        <dc:format>image/svg+xml</dc:format>
        <dc:type
           rdf:resource="http://purl.org/dc/dcmitype/StillImage" />
        <dc:title></dc:title>
      </cc:Work>
    </rdf:RDF>
  </metadata>
  <g
     inkscape:label="Layer 1"
     inkscape:groupmode="layer"
     id="layer1"
     transform="translate(0,197.64569)">
    <path
       d="m 772.81835,45.961819 0,27.244 -19.1093,0 c -20.6157,0 -36.0469,15.135 -36.0469,33.795001 l 0,0.502 c 0,2.245 0.254,4.444 0.6758,6.565 l 54.4824,0 123.3633,0 c 0.465,-2.128 0.7324,-4.32 0.7324,-6.565 l 0,-0.502 c 0,-18.660001 -16.7137,-33.795001 -37.3438,-33.795001 l -17.8125,0 0,-27.244 -68.9414,0 z m -179.2441,62.098001 -77.3106,138.328 -146.5019,-38.785 39.1191,144.24 -138.5156,78.998 139.1074,79.348 -38.0566,140.332 142.707,-37.789 78.8672,133.925 0,-128.298 c -102.8619,-0.627 -185.7773,-83.443 -185.7773,-185.194 0,-101.756 83.4994,-184.572 186.3613,-185.199 l 0,-139.906 z m 80.0957,33.254 c -17.6994,0 -36.2585,6.739 -45.8418,19.3 -4.0698,5.314 -6.6758,11.567 -6.6758,18.959 l 0,509.221 c 0,2.358 0.4516,4.743 0.9238,7.108 4.4555,22.625 28.7883,44.751 51.5938,44.751 l 267.2441,0 c 25.2045,0 38.7286,-26.987 38.7286,-51.888 l 0,-509.192 c 0,-24.899 -13.5223,-38.259 -38.7286,-38.259 l -267.2441,0 z m 166.6328,126.89 -30.4629,106.28 -3.4297,12.011 24.502,0 55.0293,0 -17.0742,21.645 -78.2852,99.328 -9.7226,12.326 -20.3848,25.84 33.9082,-118.277 -79.5293,0 32.5684,-41.315 9.998,-12.68 9.9141,-12.587 26.6699,-33.83 46.2988,-58.741 z m -246.7285,7.006 c -87.6552,0.627 -158.7832,71.208 -158.7832,157.955 0,86.74 71.128,157.324 158.7832,157.949 l 0,-315.904 z m 96.5195,492.68 0,20.435 c 0,11.275 9.267,20.43 20.6797,20.43 l 193.0391,0 c 11.4127,0 20.6855,-9.155 20.6855,-20.43 l 0,-20.435 -234.4043,0 z"
       id="path5"
       inkscape:connector-curvature="0" />
  </g>
</svg>
