<?xml version="1.0" encoding="UTF-8" standalone="no"?>
<!-- Created with Inkscape (http://www.inkscape.org/) -->

<svg
   xmlns:dc="http://purl.org/dc/elements/1.1/"
   xmlns:cc="http://creativecommons.org/ns#"
   xmlns:rdf="http://www.w3.org/1999/02/22-rdf-syntax-ns#"
   xmlns:svg="http://www.w3.org/2000/svg"
   xmlns="http://www.w3.org/2000/svg"
   xmlns:sodipodi="http://sodipodi.sourceforge.net/DTD/sodipodi-0.dtd"
   xmlns:inkscape="http://www.inkscape.org/namespaces/inkscape"
   width="352.78mm"
   height="352.78mm"
   viewBox="0 0 1250.0079 1250.0079"
   id="svg6616"
   version="1.1"
   inkscape:version="0.91 r13725"
   sodipodi:docname="worship_buddhist.svg">
  <defs
     id="defs6618" />
  <sodipodi:namedview
     id="base"
     pagecolor="#ffffff"
     bordercolor="#666666"
     borderopacity="1.0"
     inkscape:pageopacity="0.0"
     inkscape:pageshadow="2"
     inkscape:zoom="0.5"
     inkscape:cx="80"
     inkscape:cy="520"
     inkscape:document-units="px"
     inkscape:current-layer="layer1"
     showgrid="false"
     inkscape:window-width="1920"
     inkscape:window-height="1018"
     inkscape:window-x="-8"
     inkscape:window-y="-8"
     inkscape:window-maximized="1" />
  <metadata
     id="metadata6621">
    <rdf:RDF>
      <cc:Work
         rdf:about="">
        <dc:format>image/svg+xml</dc:format>
        <dc:type
           rdf:resource="http://purl.org/dc/dcmitype/StillImage" />
        <dc:title></dc:title>
      </cc:Work>
    </rdf:RDF>
  </metadata>
  <g
     inkscape:label="Layer 1"
     inkscape:groupmode="layer"
     id="layer1"
     transform="translate(0,197.64569)">
    <path
       inkscape:connector-curvature="0"
       d="m 625.58194,50.478985 c -9.115,-0.858 -12.609,-0.296 -22.079,4.74 -26.898,13.849 -32.923,46.204995 -12.771,68.486995 3.935,4.379 6.773,8.428 6.241,8.96 -0.533,0.533 -9.692,2.456 -20.285,4.276 -55.662,9.499 -106.216,34.66601 -149.922,74.61501 -12.133,11.097 -12.381,11.049 -14.334,-3.007 -2.22,-15.92 -15.16,-29.39 -32.944,-34.272 -29.118,-7.96 -60.382,23.359 -52.422,52.477 5.83,21.276 19.519,32.127 42.423,33.696 l 14.855,1.035 -7.167,11.272 c -18.229,28.703 -33.451,69.797 -38.955,105.129 -1.775,11.363 -3.515,22.629 -3.929,25.026 -0.711,4.024 -1.332,3.746 -8.611,-3.178 -28.083,-26.692 -73.979,-7.064 -73.979,31.612 0,38.38 43.89,57.555 73.629,32.136 4.528,-3.935 8.52,-6.773 8.786,-6.359 0.296,0.414 2.072,10.304 3.989,22.022 7.428,45.068 31.394,99.46 58.026,131.774 6.51,7.841 6.042,9.537 -2.663,9.537 -45.127,0 -63.894,56.875 -26.875,81.376 7.368,4.912 10.484,5.605 24.274,5.605 14.292,0 16.722,-0.622 24.622,-6.185 11.748,-8.197 18.782,-22.078 18.782,-36.814 0,-6.185 0.474,-11.213 1.036,-11.213 0.562,0 4.746,2.93 9.363,6.821 34.888,28.526 95.423,55.2 136.052,59.816 17.074,1.924 18.72,3.421 11.618,10.464 -21.306,21.098 -15.888,56.046 10.922,70.22 9.972,5.267 28.57,5.353 38.898,0.296 27.105,-13.908 33.459,-48.983 12.597,-69.874 l -7.454,-7.398 20.98,-3.412 c 32.373,-5.297 54.833,-12.493 83.803,-26.875 25.389,-12.547 45.319,-25.889 68.43,-45.656 l 10.404,-8.901 0,7.397 c 0,13.76 13.947,32.791 27.973,38.147 8.108,3.136 25.537,2.16 34.563,-1.953 13.967,-6.422 25.431,-24.034 25.372,-39.304 0,-24.383 -25.825,-47.736 -48.551,-44.097 -3.699,0.71 -6.762,0.77 -6.762,0.296 0,-0.532 3.063,-5.785 6.88,-11.674 19.767,-31.041 35.696,-72.36 41.555,-108.195 1.983,-11.659 3.75,-21.548 4.046,-21.962 0.296,-0.474 3.412,2.071 6.933,5.607 12.695,12.695 26.86,16.468 43.52,11.733 31.337,-9.173 42.39296,-48.204 20.229,-71.552 -8.641,-9.114 -19.261,-13.582 -32.134,-13.582 -12.754,0 -21.3,3.483 -31.094,12.774 l -6.531,6.182 -0.917,-4.912 c -0.474,-2.693 -2.368,-14.435 -4.22,-26.124 -6.126,-39.475 -23.925,-83.045 -48.604,-119.117 -6.51,-9.647 -11.964,-18.187 -11.964,-18.897 0,-0.71 4.098,-1.332 9.247,-1.332 24.68,0 43.867,-19.246 43.867,-43.984 0,-34.622 -35.963,-54.83001 -66.176,-37.105 -11.955,6.954 -19.583,19.699 -21.211,34.968 -0.621,6.244 -1.39,11.328 -1.834,11.328 -0.385,0 -7.156,-4.971 -15.145,-11.097 -37.907,-29.207 -87.342,-49.83501 -136.05,-56.64101 l -17.281,-2.426 8.09,-9.188 c 13.819,-15.654 15.737,-34.577995 5.262,-52.421995 -6.836,-11.688 -19.711,-19.559 -34.389,-20.98 z m 20.865,131.773005 10.691,1.45 c 33.764,4.528 72.694,19.427 101.664,38.839 25.952,17.43 30.823,8.188 -43.925,82.995 -35.984,35.954 -65.983,65.338 -66.871,65.368 -0.947,0 -1.568,-42.479 -1.568,-94.323 l 0,-94.323 z m -49.128,0.651 0,96.057 c 0,52.821 -0.296,95.974 -0.474,95.885 -0.443,0 -47.571,-39.93 -125.011,-105.653 l -18.09,-15.314 5.839,-6.128 c 27.135,-28.615 84.646,-56.765 130.098,-63.689 l 7.629,-1.155 z m 217.198,91.837 c 2.604,0 22.258,32.214 30.514,49.821 8.404,17.991 18.972,54.936 20.865,73.46 l 1.036,9.709 -90.795,0 c -71.493,0 -90.739,-0.592 -90.739,-2.604 0,-2.515 126.627,-130.389 129.113,-130.389 z m -392.086,19.075 c 1.686,-0.533 119.229,96.699 132.93,109.985 3.965,3.818 2.723,3.93 -84.267,3.93 l -88.313,0 1.036,-7.688 c 4.439,-32.314 13.677,-62.207 26.934,-87.271 5.297,-10.031 10.549,-18.601 11.674,-18.956 z m 207.832,99.871 c 9.875,1.095 19.3,5.312 25.662,12.31 17.399,19.205 14.275,49.012 -6.647,63.69 -11.096,7.782 -28.733,9.555 -40.688,3.932 -15.269,-7.22 -25.516,-23.415 -25.546,-40.401 0,-10.09 9.667,-27.135 18.9,-33.231 8.152,-5.386 18.447,-7.392 28.319,-6.3 z m -213.727,63.113 c 13.331,0 31.894,0 57.564,0 l 89.467,0 -62.361,62.42 c -34.296,34.355 -63.373,62.417 -64.557,62.417 -2.663,0 -20.876,-27.47 -29.073,-43.982 -7.842,-15.772 -15.974,-39.643 -19.88,-58.256 -4.018,-19.087 -11.159,-22.215 28.84,-22.599 z m 363.072,0.532 c 46.458,-0.296 84.773,0 85.306,0.415 3.758,3.758 -12.712,60.727 -23.868,82.299 -3.344,6.569 -8.289,15.417 -10.982,19.767 l -4.797,7.744 -65.021,-54.788 -65.021,-54.907 84.383,-0.533 z m -120.967,35.081 c 1.45,0 2.752,0.947 4.912,2.604 2.545,1.983 32.859,27.582 67.392,56.641 50.66,42.848 62.346,53.637 60.452,55.945 -4.942,5.919 -29.248,24.111 -45.02,33.581 -19.531,11.777 -42.633,20.971 -65.714,26.238 -9.232,2.161 -20.755,4.38 -25.49,4.972 l -8.726,1.272 0,-88.022 0,-87.967 6.24,-3.178 c 2.841,-1.45 4.492,-2.16 5.954,-2.071 z m -62.822,1.272 c 0.858,0 1.509,40.094 1.509,89.008 l 0,89.005 -6.646,0 c -9.085,-0.296 -40.665,-8.489 -56.526,-14.97 -17.193,-6.984 -35.489,-17.296 -51.379,-29.014 l -12.891,-9.535 62.13,-62.189 c 34.179,-34.237 62.891,-62.186 63.749,-62.186 z"
       id="path6455"
       style="fill:#000000;fill-opacity:1" />
  </g>
</svg>
