<?xml version="1.0" encoding="UTF-8" standalone="no"?>
<!-- Created with Inkscape (http://www.inkscape.org/) -->

<svg
   xmlns:dc="http://purl.org/dc/elements/1.1/"
   xmlns:cc="http://creativecommons.org/ns#"
   xmlns:rdf="http://www.w3.org/1999/02/22-rdf-syntax-ns#"
   xmlns:svg="http://www.w3.org/2000/svg"
   xmlns="http://www.w3.org/2000/svg"
   xmlns:sodipodi="http://sodipodi.sourceforge.net/DTD/sodipodi-0.dtd"
   xmlns:inkscape="http://www.inkscape.org/namespaces/inkscape"
   width="352.78mm"
   height="352.78mm"
   viewBox="0 0 1250.0079 1250.0079"
   id="svg7765"
   version="1.1"
   inkscape:version="0.48.4 r9939"
   sodipodi:docname="worship_islamic.svg">
  <defs
     id="defs7767" />
  <sodipodi:namedview
     id="base"
     pagecolor="#ffffff"
     bordercolor="#666666"
     borderopacity="1.0"
     inkscape:pageopacity="0.0"
     inkscape:pageshadow="2"
     inkscape:zoom="0.5"
     inkscape:cx="1702.6075"
     inkscape:cy="788.85792"
     inkscape:document-units="px"
     inkscape:current-layer="layer1"
     showgrid="false"
     inkscape:window-width="1920"
     inkscape:window-height="1161"
     inkscape:window-x="1920"
     inkscape:window-y="0"
     inkscape:window-maximized="1" />
  <metadata
     id="metadata7770">
    <rdf:RDF>
      <cc:Work
         rdf:about="">
        <dc:format>image/svg+xml</dc:format>
        <dc:type
           rdf:resource="http://purl.org/dc/dcmitype/StillImage" />
        <dc:title />
      </cc:Work>
    </rdf:RDF>
  </metadata>
  <g
     inkscape:label="Layer 1"
     inkscape:groupmode="layer"
     id="layer1"
     transform="translate(0,197.64569)">
    <path
       style="font-size:medium;font-style:normal;font-variant:normal;font-weight:normal;font-stretch:normal;text-indent:0;text-align:start;text-decoration:none;line-height:normal;letter-spacing:normal;word-spacing:normal;text-transform:none;direction:ltr;block-progression:tb;writing-mode:lr-tb;text-anchor:start;baseline-shift:baseline;color:#000000;fill:#000100;fill-opacity:1;fill-rule:nonzero;stroke:none;stroke-width:9.73365784;marker:none;visibility:visible;display:inline;overflow:visible;enable-background:accumulate;font-family:Sans;-inkscape-font-specification:Sans"
       d="m 613.5,113.9375 c -175.79779,0 -318.46875,140.3198 -318.46875,313.40625 0,173.08645 142.67075,313.4375 318.46875,313.4375 76.49087,0 146.72762,-26.60199 201.625,-70.875 L 810.59375,661.5 c -28.60568,9.00594 -59.1874,14.125 -91.15625,14.125 -153.50857,0 -277.375,-112.44185 -277.375,-250.6875 0,-138.24626 123.86618,-250.71875 277.375,-250.71875 27.82246,0 54.63186,3.83373 80,10.71875 l 4.15625,-8.625 C 750.48701,137.32204 684.79016,113.9375 613.5,113.9375 z M 866.5625,270.5 787.21875,358.28125 682.28125,303.59375 741.25,406.1875 l -84.46875,82.90625 115.8125,-24.375 52.71875,105.9375 L 837.9375,453 l 117.03125,-17.4375 -108,-48.34375 z"
       id="path3-9"
       inkscape:connector-curvature="0"
       sodipodi:nodetypes="sssccsssccsccccccccccc" />
  </g>
</svg>
