<?xml version="1.0" encoding="UTF-8" standalone="no"?>
<!--
This work, "cut-out from planet" is a derivative of
  - the globe icon "Antu_tag-places" (https://commons.wikimedia.org/wiki/File:Antu_tag-places.svg)
    from the Antü Plasma Suite by Fabián Alexis, used under CC BY-SA 3.0 unported
    and
  - "Scissors icon black" (https://commons.wikimedia.org/wiki/File:Scissors_icon_black.svg)
    by WikiMedia user "Inductiveload", used under public domain (or closest equivalent applicable) rights

"cut-out from planet" is licensed under CC BY-SA 4.0 international by HSR Hochschule für Technik Rapperswil
See https://creativecommons.org/licenses/by-sa/4.0/
-->
<svg
   xmlns:osb="http://www.openswatchbook.org/uri/2009/osb"
   xmlns:dc="http://purl.org/dc/elements/1.1/"
   xmlns:cc="http://creativecommons.org/ns#"
   xmlns:rdf="http://www.w3.org/1999/02/22-rdf-syntax-ns#"
   xmlns:svg="http://www.w3.org/2000/svg"
   xmlns="http://www.w3.org/2000/svg"
   xmlns:xlink="http://www.w3.org/1999/xlink"
   xmlns:sodipodi="http://sodipodi.sourceforge.net/DTD/sodipodi-0.dtd"
   xmlns:inkscape="http://www.inkscape.org/namespaces/inkscape"
   viewBox="0 0 22 22"
   id="svg3336"
   version="1.1"
   inkscape:version="0.91 r13725"
   sodipodi:docname="Antu_tag-places.svg">
  <metadata
     id="metadata3344">
    <rdf:RDF>
      <cc:Work
         rdf:about="">
        <dc:format>image/svg+xml</dc:format>
        <dc:type
           rdf:resource="http://purl.org/dc/dcmitype/StillImage" />
        <dc:title />
      </cc:Work>
    </rdf:RDF>
  </metadata>
  <defs
     id="defs3342">
    <linearGradient
       id="linearGradient5755"
       osb:paint="solid">
      <stop
         style="stop-color:#000000;stop-opacity:1;"
         offset="0"
         id="stop5757" />
    </linearGradient>
    <linearGradient
       id="linearGradient5720"
       osb:paint="solid">
      <stop
         style="stop-color:#000000;stop-opacity:1;"
         offset="0"
         id="stop5722" />
    </linearGradient>
    <linearGradient
       id="linearGradient5686"
       osb:paint="solid">
      <stop
         style="stop-color:#000000;stop-opacity:1;"
         offset="0"
         id="stop5688" />
    </linearGradient>
    <linearGradient
       id="linearGradient14231">
      <stop
         id="stop14233"
         offset="0"
         style="stop-color:#dddddd;stop-opacity:1" />
      <stop
         id="stop14235"
         offset="1"
         style="stop-color:#dddddd;stop-opacity:0" />
    </linearGradient>
    <linearGradient
       gradientTransform="matrix(1.766857,0,0,0.565977,-91.92384,-210.7178)"
       gradientUnits="userSpaceOnUse"
       xlink:href="#linearGradient14231"
       id="linearGradient14237"
       y2="657.97473"
       x2="110.20206"
       y1="700.05035"
       x1="147.8557" />
    <linearGradient
       gradientTransform="matrix(1.766857,0,0,0.565977,-90.36186,-209.7173)"
       gradientUnits="userSpaceOnUse"
       xlink:href="#linearGradient14231"
       id="linearGradient2112"
       y2="657.97473"
       x2="110.20206"
       y1="700.05035"
       x1="147.8557" />
    <linearGradient
       gradientTransform="matrix(1.766857,0,0,0.565977,-91.92384,-210.7178)"
       gradientUnits="userSpaceOnUse"
       xlink:href="#linearGradient14231"
       id="linearGradient6110"
       y2="657.97473"
       x2="110.20206"
       y1="700.05035"
       x1="147.8557" />
    <linearGradient
       gradientTransform="matrix(1.766857,0,0,0.565977,-90.36186,-209.7173)"
       gradientUnits="userSpaceOnUse"
       xlink:href="#linearGradient14231"
       id="linearGradient2112-4"
       y2="657.97473"
       x2="110.20206"
       y1="700.05035"
       x1="147.8557" />
    <marker
       style="overflow:visible"
       id="Scissors"
       orient="auto"
       refY="0"
       refX="0">
      <path
         style="marker-start:none"
         id="schere"
         d="M 9.0898857,-3.6061018 C 8.1198849,-4.7769976 6.3697607,-4.7358294 5.0623558,-4.2327734 l -8.2124046,3.0779029 c -2.3882933,-1.3067135 -4.7482873,-0.9325372 -4.7482873,-1.5687873 0,-0.4973164 0.4566662,-0.3883222 0.3883068,-1.6831941 -0.065635,-1.2432767 -1.3635771,-2.1630796 -2.5903987,-2.0816435 -1.227271,-0.00735 -2.499439,0.9331613 -2.510341,2.2300611 -0.09143,1.3063864 1.007209,2.5196896 2.306764,2.6052316 1.5223406,0.2266616 4.218258,-0.6955566 5.482945,1.57086006 -0.9422847,1.73825774 -2.6140244,1.74307674 -4.1255107,1.65607034 -1.2548743,-0.072235 -2.7620933,0.2873979 -3.3606483,1.5208605 -0.578367,1.1820862 -0.0112,2.8646022 1.316749,3.226412 1.3401912,0.4918277 3.1806689,-0.129711 3.4993722,-1.6707242 0.2456585,-1.187823 -0.5953659,-1.7459574 -0.2725074,-2.1771537 0.2436135,-0.32536 1.7907806,-0.1368452 4.5471053,-1.3748244 L 5.6763468,4.2330688 C 6.8000164,4.5467672 8.1730685,4.5362646 9.1684433,3.4313614 L -0.05164093,-0.05372222 9.0898857,-3.6061018 z m -18.3078016,-1.900504 c 1.294559,0.7227998 1.1888392,2.6835702 -0.1564272,3.0632889 -1.2165179,0.423661 -2.7710269,-0.7589694 -2.3831779,-2.0774648 0.227148,-1.0818519 1.653387,-1.480632 2.5396051,-0.9858241 z m 0.056264,8.0173649 c 1.3508301,0.4988648 1.1214429,2.7844356 -0.2522207,3.091609 -0.9110594,0.3163391 -2.2135494,-0.1387976 -2.3056964,-1.2121394 -0.177609,-1.305055 1.356085,-2.4841482 2.5579171,-1.8794696 z" />
    </marker>
  </defs>
  <sodipodi:namedview
     pagecolor="#ffffff"
     bordercolor="#666666"
     borderopacity="1"
     objecttolerance="10"
     gridtolerance="10"
     guidetolerance="10"
     inkscape:pageopacity="0"
     inkscape:pageshadow="2"
     inkscape:window-width="1920"
     inkscape:window-height="1163"
     id="namedview3340"
     showgrid="false"
     inkscape:zoom="27.169843"
     inkscape:cx="12.451141"
     inkscape:cy="8.1574504"
     inkscape:window-x="1920"
     inkscape:window-y="0"
     inkscape:window-maximized="1"
     inkscape:current-layer="svg3336" />
  <path
     d="m 10.592947,2.536608 c -0.319,0 -0.6279998,0.026 -0.9379998,0.063 -0.304,0.036 -0.614,0.087 -0.906,0.156 -0.094,0.022 -0.185,0.067 -0.281,0.094 -0.084,0.023 -0.167,0.037 -0.25,0.063 -0.105,0.033 -0.214,0.059 -0.313,0.094 -0.107,0.038 -0.207,0.083 -0.313,0.125 -0.206,0.083 -0.397,0.182 -0.594,0.281 -0.071,0.036 -0.149,0.056 -0.219,0.094 -0.23,0.121 -0.441,0.263 -0.656,0.406 -0.082,0.055 -0.17,0.098 -0.25,0.156 -0.033,0.024 -0.061,0.038 -0.094,0.063 -0.094,0.071 -0.191,0.142 -0.281,0.219 -0.107,0.089 -0.21,0.187 -0.313,0.281 -0.032,0.03 -0.062,0.064 -0.094,0.094 -0.011,0.011 -0.02,0.02 -0.031,0.031 -0.016,0.016 -0.015,0.047 -0.031,0.063 -0.21,0.204 -0.439,0.399 -0.625,0.625 -0.005,0.001 0.005,0.025 0,0.031 -0.181,0.22 -0.343,0.448 -0.5,0.688 -0.021,0.032 -0.042,0.061 -0.063,0.094 -0.015,0.024 -0.047,0.037 -0.063,0.063 -0.06,0.098 -0.101,0.209 -0.156,0.313 -0.018,0.033 -0.045,0.061 -0.063,0.094 -0.075,0.146 -0.15,0.29 -0.219,0.438 -0.004,0.001 0.004,0.023 0,0.031 -0.117,0.253 -0.222,0.514 -0.313,0.781 -0.019,0.053 -0.045,0.103 -0.063,0.156 -0.003,10e-4 0.003,0.022 0,0.031 -0.02,0.062 -0.044,0.125 -0.063,0.188 -0.073,0.257 -0.14,0.514 -0.188,0.781 -0.034,0.192 -0.074,0.397 -0.094,0.594 -0.027,0.265 -0.031,0.542 -0.031,0.813 0,0.404 0.036,0.8 0.094,1.188 0.006,0.041 -0.007,0.085 0,0.125 0.044,0.266 0.118,0.525 0.188,0.781 0.026,0.096 0.064,0.186 0.094,0.281 0.04,0.129 0.079,0.249 0.125,0.375 0.077,0.212 0.156,0.422 0.25,0.625 0.05,0.106 0.102,0.21 0.156,0.313 0.152,0.292 0.315,0.575 0.5,0.844 0.016,0.024 0.046,0.039 0.063,0.063 0.198,0.281 0.394,0.56 0.625,0.813 0.04,0.044 0.084,0.082 0.125,0.125 0.04,0.042 0.084,0.084 0.125,0.125 0.214,0.214 0.451,0.405 0.688,0.594 0.306,0.244 0.629,0.459 0.969,0.656 0.012,0.001 0.019,0.024 0.031,0.031 0.053,0.03 0.103,0.065 0.156,0.094 0.316,0.156 0.692,0.325 0.938,0.438 0.11,0.042 0.231,0.057 0.344,0.094 0.053,0.018 0.103,0.046 0.156,0.063 0.136,0.041 0.268,0.09 0.406,0.125 0.042,0.011 0.083,0.021 0.125,0.031 0.292,0.069 0.602,0.121 0.906,0.156 0.309,0.036 0.6179998,0.063 0.9379998,0.063 0.34,0 0.671,-0.021 1,-0.063 0.365,-0.048 0.681,-0.124 1,-0.188 1.698,-0.436 3.162,-1.421 4.219,-2.749 0.028,-0.035 0.067,-0.058 0.094,-0.094 0.009,-0.012 0.022,-0.02 0.031,-0.031 0.014,-0.018 0.018,-0.044 0.031,-0.063 0.623,-0.825 1.077,-1.78 1.344,-2.812 0.056,-0.217 0.118,-0.432 0.156,-0.656 0.005,-0.03 -0.005,-0.063 0,-0.094 0.006,-0.04 0.025,-0.079 0.031,-0.125 0.006,-0.043 0.026,-0.082 0.031,-0.125 l -0.031,0 c 0.044,-0.329 0.094,-0.659 0.094,-1 0,-0.552 -0.05,-1.103 -0.156,-1.624 -0.009,-0.043 -0.022,-0.082 -0.031,-0.125 -0.046,-0.208 -0.124,-0.423 -0.188,-0.625 -0.003,-10e-4 0.003,-0.022 0,-0.031 -0.012,-0.038 -0.018,-0.056 -0.031,-0.094 -0.039,-0.119 -0.081,-0.258 -0.125,-0.375 -0.012,-0.032 -0.018,-0.064 -0.031,-0.094 -0.043,-0.109 -0.108,-0.206 -0.156,-0.313 -0.002,0 0.002,-0.026 0,-0.031 -0.025,-0.054 -0.068,-0.103 -0.094,-0.156 -0.098,-0.203 -0.198,-0.4 -0.313,-0.594 -0.058,-0.098 -0.094,-0.217 -0.156,-0.313 -0.024,-0.036 -0.069,-0.058 -0.094,-0.094 -0.067,-0.099 -0.147,-0.185 -0.219,-0.281 -0.08,-0.1 -0.14,-0.216 -0.219,-0.313 -0.005,-0.001 0.005,-0.025 0,-0.031 -0.172,-0.209 -0.37,-0.403 -0.563,-0.594 -0.093,-0.092 -0.184,-0.194 -0.281,-0.281 -0.028,-0.025 -0.065,-0.038 -0.094,-0.063 -0.209,-0.182 -0.43,-0.34 -0.656,-0.5 -0.055,-0.038 -0.101,-0.088 -0.156,-0.125 -0.07,-0.046 -0.148,-0.081 -0.219,-0.125 -0.135,-0.084 -0.266,-0.174 -0.406,-0.25 -0.123,-0.067 -0.248,-0.127 -0.375,-0.188 -0.214,-0.102 -0.432,-0.198 -0.656,-0.281 -0.266,-0.099 -0.534,-0.18 -0.813,-0.25 -0.245,-0.062 -0.497,-0.118 -0.75,-0.156 -0.397,-0.061 -0.805,-0.094 -1.219,-0.094 m 0,1 c 0.299,0 0.585,0.027 0.875,0.063 0.18,0.023 0.355,0.058 0.531,0.094 10e-4,0 0.021,0 0.031,0 0.166,0.035 0.338,0.079 0.5,0.125 0.096,0.027 0.187,0.063 0.281,0.094 0.172,0.057 0.334,0.117 0.5,0.188 0.194,0.08 0.379,0.153 0.563,0.25 -0.031,0.001 -0.063,0.021 -0.094,0.031 -0.047,0.017 -0.113,0.096 -0.125,0.125 -0.02,0.048 0.005,0.115 0,0.188 0.038,0.017 0.06,0.089 0.125,0.125 0.025,0.014 0.041,-0.001 0.063,0 0.038,0.021 0.07,0.087 0.063,0.125 -0.011,0.055 -0.088,0.022 -0.125,0.063 0.006,0.078 -0.043,0.105 -0.063,0.156 0.012,0.033 0.057,0.024 0.063,0.063 -0.007,0.043 -0.079,0.049 -0.063,0.094 0.072,0.056 0.151,-0.022 0.219,-0.031 0.149,-0.019 0.283,0.041 0.375,-0.031 -0.012,-0.071 0.101,-0.092 0.094,-0.156 -0.006,-0.048 -0.09,-0.061 -0.125,-0.094 -0.019,-0.018 -0.04,-0.059 -0.063,-0.094 -0.026,-0.04 -0.064,-0.087 -0.094,-0.125 -0.039,-0.052 -0.125,-0.117 -0.125,-0.156 10e-5,-0.045 0.052,-0.063 0.063,-0.125 -0.012,-0.057 -0.117,0 -0.125,-0.063 0.002,-0.019 0.021,-0.051 0.031,-0.063 0.15,0.082 0.298,0.179 0.438,0.281 0.032,0.021 0.062,0.041 0.094,0.063 0.108,0.081 0.207,0.17 0.313,0.25 -0.067,0.012 -0.101,0.09 -0.156,0.156 -0.038,0.046 -0.099,0.101 -0.156,0.125 -0.028,0.012 -0.068,-0.016 -0.094,0 -0.037,0.025 -0.051,0.096 -0.094,0.125 -0.031,0.021 -0.124,0.094 -0.156,0.094 -0.038,10e-5 -0.098,-0.04 -0.125,-0.031 -0.04,0.013 -0.017,0.077 -0.063,0.094 -0.088,0.031 -0.25,-0.069 -0.281,0.063 0.038,0.076 0.153,0.051 0.219,0.094 0.042,0.026 0.114,0.143 0.125,0.188 0.001,0.038 0.015,0.179 0,0.219 -0.041,0.106 -0.159,0.097 -0.281,0.094 -0.034,-10e-5 -0.063,0 -0.094,0 -0.207,-0.014 -0.407,-0.085 -0.5,0.063 0.007,0.113 0.025,0.183 0,0.281 -0.018,0.072 -0.097,0.125 -0.094,0.188 0.002,0.032 0.055,0.082 0.063,0.125 0.005,0.023 -0.011,0.073 0,0.094 0.034,0.066 0.127,-0.001 0.188,0 0.059,10e-4 0.126,0.121 0.125,0.188 -10e-5,0.046 -0.033,0.112 -0.063,0.156 -0.058,0.089 -0.167,0.077 -0.25,0.125 -0.07,0.039 -0.084,0.119 -0.125,0.188 -0.044,0.074 -0.081,0.111 -0.063,0.219 -0.06,0.118 -0.126,0.194 -0.25,0.25 -0.037,0.017 -0.092,0.039 -0.125,0.063 -0.027,0.019 -0.056,0.051 -0.094,0.094 -0.047,0.052 -0.1,0.085 -0.125,0.125 -0.019,0.031 -0.001,0.084 -0.031,0.125 -0.029,0.056 -0.088,0.1 -0.125,0.156 -0.017,0.026 -0.043,0.059 -0.063,0.094 -0.042,0.077 -0.101,0.151 -0.094,0.219 0.007,0.066 0.089,0.068 0.094,0.125 0.004,0.032 -0.033,0.059 -0.031,0.094 10e-5,0.051 0.027,0.086 0.031,0.125 0.001,0.099 -0.044,0.12 -0.063,0.188 -0.009,0.032 0.008,0.068 0,0.094 -0.016,0.05 -0.093,0.098 -0.094,0.156 -10e-5,0.042 0.059,0.097 0.063,0.156 0.002,0.04 -0.038,0.057 -0.031,0.094 0.014,0.073 0.162,0.162 0.219,0.219 0.075,0.075 0.155,0.139 0.188,0.219 0.027,0.067 0.041,0.168 0.094,0.219 0.039,0.037 0.106,0.054 0.156,0.094 0.047,0.036 0.107,0.055 0.156,0.094 0.081,0.064 0.183,0.197 0.313,0.188 0.068,-0.001 0.142,-0.05 0.219,-0.063 0.079,-0.014 0.17,-0.039 0.25,-0.031 0.061,0.001 0.124,0.066 0.188,0.063 0.067,0 0.143,-0.061 0.219,-0.094 0.132,-0.057 0.339,-0.153 0.531,-0.125 0.146,0.021 0.149,0.217 0.25,0.281 0.118,0.001 0.219,-0.054 0.313,-0.031 0.07,0.017 0.149,0.132 0.156,0.188 0.007,0.058 -0.054,0.121 -0.063,0.156 -0.018,0.078 -0.017,0.169 -0.031,0.219 -0.011,0.038 -0.032,0.086 -0.031,0.125 0,0.035 0.058,0.142 0.094,0.188 0.044,0.056 0.103,0.096 0.156,0.156 0.087,0.109 0.155,0.236 0.219,0.375 0.017,0.037 -0.016,0.077 0,0.125 -0.029,0.224 -0.103,0.377 -0.25,0.625 -0.069,0.08 -0.158,0.15 -0.156,0.25 -0.005,0.24 0.136,0.393 0.125,0.625 -0.024,0.312 0.024,0.333 0,0.5 0.105,0.053 0.031,0.233 0,0.344 -0.045,0.132 -0.1,0.162 -0.125,0.25 0.071,0.031 0.171,0.019 0.25,0 0,0 0.096,0.401 0.094,0.406 -0.807,0.797 -1.819,1.387 -2.938,1.718 -0.55,0.133 -0.713,0.133 -0.969,0.188 -0.334,0.055 -0.683,0.094 -1.031,0.094 -0.243,0 -0.483,-0.001 -0.7189998,-0.031 -0.182,-0.018 -0.354,-0.062 -0.531,-0.094 -0.053,-0.001 -0.104,-0.02 -0.156,-0.031 -0.163,-0.055 -0.351,-0.088 -0.5,-0.125 -0.17,-0.048 -0.335,-0.096 -0.5,-0.156 0.014,-0.013 0.027,-0.011 0.031,-0.031 0.009,-0.04 0.002,-0.062 0,-0.125 0.015,-0.065 0.08,-0.058 0.094,-0.125 -0.028,-0.048 -0.083,-0.038 -0.125,-0.063 -0.041,-0.024 -0.068,-0.074 -0.063,-0.125 0.07,-0.029 0.2,0.066 0.25,-0.031 0.025,-0.046 -0.034,-0.141 0,-0.188 0.023,-0.031 0.169,-0.055 0.219,-0.063 0.071,-0.012 0.148,-0.001 0.188,-0.031 0.044,-0.029 0.101,-0.105 0.094,-0.188 -0.004,-0.039 -0.033,-0.059 -0.063,-0.094 -0.025,-0.029 -0.013,-0.066 -0.031,-0.094 -0.031,-0.047 -0.08,-0.058 -0.094,-0.125 0.096,-0.019 0.236,0.102 0.375,0.063 0.066,-0.019 0.157,-0.188 0.188,-0.25 10e-4,-0.019 -10e-4,-0.04 0,-0.063 0.012,-0.026 0.059,-0.049 0.063,-0.063 10e-4,-0.036 -0.008,-0.071 0,-0.094 0.024,-0.068 0.085,-0.075 0.125,-0.125 0.03,-0.038 0.065,-0.087 0.094,-0.125 0.031,-0.041 0.042,-0.089 0.063,-0.125 0.02,-0.122 -0.06,-0.206 -0.031,-0.313 0.032,-0.12 0.196,-0.165 0.313,-0.219 0.04,-0.019 0.092,-0.05 0.1249998,-0.063 0.08,-0.028 0.176,-0.036 0.25,-0.063 0.125,-0.046 0.157,-0.167 0.219,-0.281 0.029,-0.054 0.057,-0.118 0.063,-0.156 0.005,-0.035 -0.007,-0.053 0,-0.094 0.006,-0.04 0.02,-0.081 0.031,-0.125 0.014,-0.058 0.031,-0.154 0.031,-0.219 0,-0.053 -0.029,-0.078 -0.031,-0.125 -0.009,-0.173 0.061,-0.218 0.125,-0.313 0.032,-0.047 0.04,-0.091 0.063,-0.125 0.108,-0.161 0.295,-0.226 0.281,-0.469 -0.005,-0.08 -0.035,-0.256 -0.094,-0.281 -0.034,-0.015 -0.107,-0.011 -0.156,-0.031 -0.158,-0.059 -0.274,-0.269 -0.438,-0.281 -0.035,0 -0.055,0.031 -0.094,0.031 -0.065,0 -0.147,-0.053 -0.219,-0.063 -0.046,-0.001 -0.1289998,0.013 -0.1559998,0 -0.042,-0.02 -0.029,-0.102 -0.063,-0.125 -0.027,-0.018 -0.084,-0.015 -0.125,-0.031 -0.066,-0.025 -0.112,-0.056 -0.188,-0.063 -0.023,-10e-5 -0.067,0 -0.094,0 -0.042,-10e-4 -0.086,-0.04 -0.125,-0.063 -0.048,-0.029 -0.074,-0.052 -0.094,-0.094 0.044,-0.144 -0.096,-0.167 -0.125,-0.25 -0.014,-0.039 0.013,-0.09 0,-0.125 -0.017,-0.05 -0.071,-0.084 -0.125,-0.125 -0.097,-0.074 -0.174,-0.139 -0.313,-0.156 -0.061,-0.001 -0.145,0 -0.219,0 -0.078,-0.001 -0.161,-0.058 -0.219,-0.125 -0.056,-0.065 -0.076,-0.125 -0.125,-0.156 -0.047,-0.03 -0.124,-0.031 -0.156,-0.063 -0.014,-0.014 -0.017,-0.031 -0.031,-0.063 -0.023,-0.048 -0.061,-0.098 -0.031,-0.156 -0.053,-0.027 -0.035,0.072 -0.094,0.063 -0.052,-0.074 -0.101,-0.115 -0.219,-0.094 -0.054,0.001 -0.093,0.06 -0.156,0.063 -0.052,0 -0.088,-0.053 -0.156,-0.063 -0.052,-10e-4 -0.12,0.036 -0.156,0.031 -0.057,-0.011 -0.073,-0.059 -0.125,-0.094 -0.038,-0.025 -0.104,-0.095 -0.125,-0.094 -0.067,0 -0.126,0.143 -0.219,0.094 -0.045,-0.057 0.085,-0.071 0.031,-0.125 -0.04,-0.041 -0.061,10e-4 -0.094,0.031 -0.037,0.025 -0.084,0.047 -0.125,0.063 -0.092,0.034 -0.147,0.025 -0.219,0.063 -0.066,0.034 -0.087,0.088 -0.125,0.156 -0.031,0.056 -0.079,0.153 -0.125,0.156 -0.056,0 -0.106,-0.072 -0.156,-0.094 -0.153,-0.066 -0.248,0.03 -0.375,0.031 -0.118,0 -0.287,-0.171 -0.281,-0.281 0.004,-0.067 0.054,-0.166 0.063,-0.25 0.006,-0.066 0.062,-0.127 0.063,-0.188 10e-5,-0.081 -0.135,-0.147 -0.188,-0.156 -0.125,-0.023 -0.295,0.061 -0.438,0 -0.027,-0.045 0.047,-0.081 0.063,-0.125 0.009,-0.025 -0.009,-0.034 0,-0.063 0.016,-0.042 0.074,-0.08 0.094,-0.125 0.015,-0.034 0.016,-0.082 0.031,-0.125 0.017,-0.049 0.059,-0.091 0.063,-0.125 0.005,-0.045 -0.027,-0.095 -0.063,-0.125 -0.111,10e-4 -0.187,0 -0.25,0.031 -0.144,0.066 -0.106,0.266 -0.25,0.313 -0.05,0.016 -0.133,0.021 -0.188,0.031 -0.047,10e-4 -0.107,0.032 -0.156,0.031 -0.058,-1e-4 -0.153,-0.057 -0.188,-0.094 -0.009,-10e-4 -0.024,-0.036 -0.031,-0.063 0.002,-0.001 -0.002,-0.021 0,-0.031 0.046,-0.223 0.093,-0.444 0.156,-0.656 0.003,-10e-4 -0.003,-0.022 0,-0.031 0.042,-0.139 0.103,-0.27 0.156,-0.406 0.013,-10e-4 0.019,-0.023 0.031,-0.031 0.077,-0.053 0.156,-0.119 0.25,-0.125 0.057,0 0.164,0.02 0.219,0.031 0.05,10e-4 0.082,0.059 0.125,0.063 0.123,0.001 0.149,-0.103 0.25,-0.156 0.104,0.015 0.156,-0.001 0.25,0 0.064,10e-4 0.138,0.09 0.188,0.094 0.042,0 0.053,-0.069 0.094,-0.063 0.04,0.001 0.119,0.108 0.125,0.156 0.007,0.06 -0.048,0.122 -0.031,0.188 0.063,0.064 0.191,0.056 0.281,0.094 0.059,-0.048 0.009,-0.118 0,-0.188 -0.002,-0.031 0.004,-0.066 0,-0.094 -0.006,-0.048 -0.031,-0.084 -0.031,-0.125 -10e-5,-0.19 0.154,-0.3 0.281,-0.375 0.055,-0.033 0.108,-0.069 0.156,-0.094 0.067,-0.034 0.1,-0.063 0.156,-0.094 0.101,-0.057 0.202,-0.092 0.281,-0.156 0.037,-0.086 -0.004,-0.196 0,-0.281 0.037,-0.022 0.055,0 0.094,0 0.061,-0.013 0.09,-0.091 0.125,-0.125 0.02,-0.02 0.069,-0.043 0.094,-0.063 0.061,-0.048 0.072,-0.104 0.125,-0.125 0.019,-0.001 0.064,-0.017 0.094,-0.031 0.04,-0.011 0.092,-0.04 0.156,-0.063 0.042,-0.014 0.14,-0.015 0.156,-0.031 0.02,-0.02 -0.006,-0.095 0,-0.125 0.032,-0.151 0.272,-0.168 0.406,-0.219 0.094,-0.036 0.178,-0.114 0.281,-0.094 -0.02,0.072 -0.11,0.038 -0.094,0.125 0.023,0.121 0.176,-0.013 0.219,-0.031 0.081,-0.034 0.237,-0.055 0.344,-0.094 0.094,-0.034 0.245,-0.08 0.156,-0.188 -0.074,0 -0.092,0.066 -0.156,0.094 -0.044,0.001 -0.056,-0.027 -0.094,-0.031 -0.036,0 -0.057,0.038 -0.094,0.031 -0.037,-0.001 -0.088,-0.082 -0.094,-0.125 -0.015,-0.111 0.11,-0.136 0.156,-0.219 -0.03,-0.101 -0.166,-0.024 -0.25,-0.063 0.009,-0.06 0.055,-0.114 0.125,-0.125 0.057,-0.001 0.185,0.001 0.219,0.031 0.02,0.017 0,0.066 0.031,0.094 0.034,0.031 0.081,0.001 0.125,0 0.016,-0.076 -0.106,-0.043 -0.094,-0.094 0.09,-0.059 0.265,-0.016 0.375,-0.031 0.063,-0.001 0.131,-0.062 0.188,-0.094 0.054,-0.03 0.099,-0.081 0.156,-0.031 0.016,0.054 -0.032,0.066 -0.063,0.094 -0.102,0.091 -0.202,0.207 -0.281,0.313 0.049,0.048 0.136,0.022 0.219,0.031 0.032,0 0.06,0.025 0.094,0.031 0.04,10e-4 0.094,-0.012 0.125,0 0.056,0.014 0.07,0.094 0.125,0.094 0.091,0 0.083,-0.125 0.031,-0.188 0.016,-0.063 0.053,-0.08 0.031,-0.125 -0.041,-0.082 -0.211,0.014 -0.219,-0.094 -0.005,-0.067 0.07,-0.075 0.094,-0.125 -0.011,-0.129 0.106,-0.135 0.094,-0.25 -0.006,-0.048 -0.06,-0.049 -0.094,-0.094 -0.017,-0.023 -0.001,-0.076 -0.031,-0.094 -0.07,-0.059 -0.21,-0.044 -0.219,-0.156 -0.004,-0.066 10e-4,-0.115 0,-0.188 -0.009,-0.067 -0.066,-0.268 -0.125,-0.281 -0.075,-0.016 -0.129,0.114 -0.219,0.156 -0.049,0.023 -0.139,0.04 -0.188,0.031 -0.032,-0.001 -0.089,-0.032 -0.094,-0.094 -0.006,-0.07 0.05,-0.082 0.063,-0.156 -0.011,-0.044 -0.051,-0.029 -0.094,-0.063 -0.049,-0.037 -0.091,-0.116 -0.156,-0.125 -0.033,0 -0.093,0.029 -0.125,0.031 -0.06,0 -0.106,-0.015 -0.156,-0.031 0.021,-10e-4 0.041,-0.024 0.063,-0.031 0.122,-0.042 0.25,-0.059 0.375,-0.094 0.022,-10e-4 0.041,-0.025 0.063,-0.031 0.031,0.033 0.056,0.103 0.094,0.125 0.025,0.014 0.063,-10e-4 0.094,0 0.098,0.03 0.174,0.085 0.281,0.063 0.037,-0.065 -0.074,-0.074 -0.031,-0.125 0.072,10e-4 0.132,0.04 0.188,0.063 0.077,-0.056 0.128,-0.066 0.125,-0.156 -10e-5,-0.046 -0.062,-0.063 -0.094,-0.094 0.063,-0.011 0.124,-0.022 0.188,-0.031 0.005,0.017 0.021,0.03 0.031,0.031 0.038,10e-4 0.165,-0.051 0.188,-0.063 0.004,0 -0.006,-0.027 0,-0.031 0.2529998,-0.027 0.5209998,-0.031 0.7809998,-0.031 m -2.4999998,0.469 c -0.023,0.043 -0.047,0.079 -0.094,0.094 0.012,0.065 -0.084,0.105 -0.094,0.156 -0.006,0.035 -0.002,0.094 0,0.125 0.02,0.319 -0.251,0.477 -0.563,0.469 -0.061,0.058 -0.029,0.17 -0.063,0.25 -0.028,0.067 -0.12,0.131 -0.188,0.125 -0.05,0 -0.125,-0.079 -0.125,-0.125 0,-0.057 0.081,-0.091 0.031,-0.156 0.007,-0.044 0.106,-0.086 0.094,-0.156 -0.012,-0.074 -0.096,-0.019 -0.188,-0.031 -0.052,-0.001 -0.133,-0.037 -0.188,-0.063 0.101,-0.067 0.205,-0.126 0.313,-0.188 0.094,-0.056 0.185,-0.105 0.281,-0.156 0.252,-0.127 0.522,-0.244 0.781,-0.344 m 5.3739998,0.75 c -0.027,0 -0.04,0.018 -0.063,0.031 -0.051,0.031 -0.054,0.079 -0.094,0.094 -0.054,0.021 -0.117,0.001 -0.125,0.063 -0.006,0.041 0.033,0.055 0.031,0.094 -0.02,0.049 -0.053,0.066 -0.063,0.125 0.068,0.11 0.229,-10e-4 0.313,-0.031 0.038,-0.011 0.073,0 0.094,-0.031 0.023,-0.035 0.013,-0.105 0.031,-0.156 0.019,-0.056 0.069,-0.043 0.063,-0.094 -0.006,-0.05 -0.106,-0.102 -0.188,-0.094 m -7.3119998,0.781 c 0.061,0.016 0.196,0.193 0.063,0.25 -0.013,0.001 -0.187,0.036 -0.219,0.031 -0.046,-0.001 -0.078,-0.086 -0.125,-0.094 -0.092,-0.016 -0.218,0.101 -0.281,0 0.016,-0.059 0.086,-0.043 0.156,-0.063 0.125,-0.034 0.298,-0.153 0.406,-0.125 m 0.25,0.313 c 0.031,0 0.056,0.059 0.094,0.063 0.036,0 0.072,-0.036 0.094,-0.031 0.056,0.015 0.084,0.115 0.031,0.156 -0.044,0 -0.061,-0.037 -0.094,-0.031 -0.091,0.016 -0.12,0.193 -0.188,0.188 -0.064,-10e-4 -0.096,-0.141 -0.031,-0.188 0.002,-0.04 -0.033,-0.054 -0.031,-0.094 0.02,-0.025 0.072,-0.066 0.125,-0.063 m -0.313,0.031 c 0.019,1e-4 0.024,0 0.031,0 -0.009,0.071 -0.039,0.091 -0.094,0.125 -0.095,0.057 -0.157,0.128 -0.188,0.25 -0.009,0.036 -0.111,0.134 -0.156,0.125 -0.106,-0.022 0.038,-0.22 0.063,-0.25 0.027,-0.033 0.062,-0.056 0.094,-0.094 0.03,-0.037 0.033,-0.105 0.063,-0.125 0.032,-0.022 0.132,-0.033 0.188,-0.031 m 9.4989998,0.031 c 0.048,0.013 0.058,0.069 0.094,0.094 0.027,0.018 0.064,0.012 0.094,0.031 0.035,0.022 0.054,0.06 0.094,0.094 0.056,0.047 0.14,0.088 0.219,0.125 0.016,0.001 0.044,0.023 0.063,0.031 0.055,0.071 0.104,0.145 0.156,0.219 0.006,0.04 0.012,0.099 0.031,0.125 0.052,0.071 0.131,0.132 0.188,0.219 -10e-5,0.083 0.036,0.133 0.094,0.156 0.073,0.124 0.149,0.248 0.219,0.375 0.029,0.058 0.035,0.129 0.063,0.188 -0.021,0 -0.043,10e-4 -0.063,0 -0.066,-0.116 -0.409,-0.139 -0.438,0.031 -0.013,0.075 0.049,0.175 -0.063,0.188 -0.071,0.001 -0.153,-0.073 -0.25,-0.094 -0.04,-0.001 -0.094,0.014 -0.125,0 -0.073,-0.025 -0.062,-0.112 -0.125,-0.156 -0.036,-0.025 -0.13,-0.056 -0.188,-0.063 -0.036,0 -0.056,0 -0.094,0 -0.045,-0.001 -0.118,-0.001 -0.156,-0.031 -0.036,-0.022 -0.116,-0.062 -0.125,-0.094 -0.014,-0.049 0.09,-0.114 0.094,-0.156 0.002,-0.031 -0.023,-0.045 -0.031,-0.094 -0.005,-0.029 0.006,-0.074 0,-0.094 -10e-4,-0.034 -0.071,-0.062 -0.125,-0.063 -0.048,0 -0.084,0.03 -0.125,0.031 -0.059,1e-4 -0.177,-0.037 -0.25,-0.031 -0.044,0 -0.084,0.028 -0.125,0.031 -0.116,0.001 -0.191,-10e-4 -0.281,0 -0.066,0 -0.189,0.034 -0.25,0.063 -0.031,0.014 -0.054,0.043 -0.094,0.063 -0.018,0.001 -0.039,0.021 -0.063,0.031 -0.038,0.017 -0.089,0.053 -0.125,0.063 -0.052,0.013 -0.124,0 -0.219,0 -0.068,0 -0.187,-0.014 -0.188,-0.094 -10e-5,-0.123 0.227,-0.072 0.344,-0.094 0.044,-10e-4 0.073,-0.063 0.125,-0.094 0.025,-0.015 0.039,-0.015 0.063,-0.031 0.04,-0.028 0.119,-0.093 0.125,-0.125 0.006,-0.03 -0.035,-0.072 -0.031,-0.094 0.005,-0.028 0.057,-0.058 0.094,-0.094 0.056,-0.055 0.087,-0.12 0.156,-0.156 0.047,-0.025 0.135,-0.024 0.156,-0.063 0.005,-0.043 -10e-5,-0.055 0,-0.094 0.029,-0.027 0.038,-0.058 0.063,-0.063 0.072,-0.016 0.135,0.035 0.219,0.031 0.036,0 0.086,-0.001 0.125,-0.031 0.033,-0.022 0.062,-0.045 0.094,-0.063 0.035,-0.018 0.051,-0.059 0.094,-0.063 0.105,-0.001 0.171,0.124 0.219,0.188 0.04,0.053 0.153,0.119 0.219,0.156 0.037,0.021 0.084,0.045 0.125,0.063 0.087,0.039 0.247,0.165 0.25,0.25 0.002,0.042 -0.038,0.054 -0.031,0.094 0.066,0.011 0.123,-0.059 0.125,-0.125 10e-5,-0.041 -0.039,-0.05 -0.031,-0.094 0.031,-0.066 0.148,-0.001 0.188,-0.031 -0.007,-0.075 -0.124,-0.086 -0.188,-0.125 -0.034,-0.021 -0.058,-0.048 -0.094,-0.063 -0.052,-0.021 -0.116,-0.032 -0.156,-0.063 -0.038,-0.029 -0.057,-0.08 -0.094,-0.125 -0.054,-0.064 -0.158,-0.073 -0.125,-0.219 0.016,-0.022 0.037,-0.069 0.063,-0.063 m -8.8119998,0.219 0.094,0 c 0.034,10e-5 0.08,-0.018 0.094,0 -0.022,0.088 -0.212,0.063 -0.281,0.031 0.004,-0.033 0.05,-0.027 0.094,-0.031 m -0.313,0.156 c 0.023,0 0.039,-0.001 0.063,0 -0.062,0.052 -0.144,0.092 -0.25,0.125 -0.051,0.016 -0.116,0.025 -0.125,-0.031 -0.011,-0.069 0.047,-0.056 0.094,-0.063 0.058,-10e-4 0.15,-0.029 0.219,-0.031 m 8.6869998,0 c -0.043,0.014 -0.066,0.113 0,0.125 0.031,-0.018 0.039,-0.068 0.031,-0.125 -0.017,-0.018 -0.017,0 -0.031,0 m -0.031,0.188 c -0.021,0.001 -0.04,0.001 -0.063,0.031 10e-5,0.075 0.015,0.123 0,0.188 0.043,0.082 0.134,0.026 0.156,-0.031 0.026,-0.139 -0.03,-0.205 -0.094,-0.188 m 0.438,0.375 c 0.049,0.08 0.141,0.137 0.25,0.156 0.04,-0.03 0.044,-0.105 0.063,-0.156 -0.047,10e-5 -0.097,0 -0.156,0 -0.059,0 -0.122,-0.028 -0.156,0 m -11.6869998,2.687 c 0.164,-10e-4 0.212,0.216 0.344,0.281 0.033,0.017 0.082,0.022 0.125,0.031 0.035,0.001 0.061,0.02 0.094,0.031 0.071,0.024 0.162,10e-4 0.219,0.031 0.085,0.038 0.146,0.207 0.219,0.25 0.004,0.043 -0.013,0.093 0,0.125 0.035,0.047 0.099,0.064 0.156,0.094 0.068,0.037 0.092,0.127 0.156,0.156 0.022,10e-4 0.059,-0.001 0.094,0 0.088,0.027 0.112,0.147 0.188,0.125 0.05,-0.014 0.055,-0.078 0.063,-0.125 0.033,-0.036 0.074,-0.093 0.125,-0.094 0.083,0 0.095,0.075 0.125,0.156 0.017,0.046 0.051,0.108 0.063,0.156 0.021,0.083 0.017,0.325 0,0.375 -0.021,0.061 -0.106,0.089 -0.156,0.156 -0.024,0.031 -0.044,0.071 -0.063,0.094 -0.032,0.04 -0.069,0.057 -0.094,0.094 -0.014,0.021 -0.018,0.066 -0.031,0.094 -0.04,0.085 -0.096,0.148 -0.063,0.25 0.014,0.042 0.062,0.076 0.063,0.125 0,0.058 -0.115,0.093 -0.125,0.156 -0.007,0.047 0.048,0.126 0.063,0.188 0.011,0.047 0.097,0.094 0.125,0.125 0.047,0.053 0.082,0.121 0.125,0.188 0.085,0.13 0.136,0.28 0.219,0.406 0.043,0.066 0.127,0.119 0.156,0.188 0.015,0.035 -0.014,0.094 0,0.125 0.048,0.108 0.266,0.228 0.375,0.281 0.051,0.025 0.11,0 0.156,0.031 0.071,0.039 0.214,0.157 0.25,0.219 0.032,0.056 0.047,0.193 0.063,0.281 0.021,0.117 -0.005,0.217 0,0.344 0.004,0.069 0.03,0.119 0.031,0.188 0,0.024 1e-4,0.07 0,0.094 -0.002,0.083 0.007,0.166 0,0.25 -0.004,0.046 -0.003,0.087 0,0.125 0.004,0.041 0.028,0.057 0.031,0.094 0.002,0.039 -0.035,0.095 -0.031,0.125 0.009,0.084 0.077,0.142 0.094,0.219 0.013,0.061 0.039,0.208 0.031,0.281 -0.005,0.039 -0.025,0.083 -0.031,0.125 -0.004,0.033 0.005,0.062 0,0.094 -0.006,0.047 -0.034,0.081 -0.031,0.125 0.006,0.09 0.08,0.16 0.094,0.25 0.005,0.03 -10e-5,0.065 0,0.094 10e-5,0.027 0.023,0.038 0.031,0.063 -0.263,-0.15 -0.509,-0.318 -0.75,-0.5 -0.229,-0.173 -0.451,-0.364 -0.656,-0.563 -10e-4,-10e-4 -0.021,-0.021 -0.031,-0.031 -0.207,-0.204 -0.414,-0.428 -0.594,-0.656 -0.104,-0.132 -0.218,-0.267 -0.313,-0.406 -0.056,-0.083 -0.104,-0.164 -0.156,-0.25 -0.032,-0.051 -0.063,-0.104 -0.094,-0.156 -0.089,-0.153 -0.173,-0.308 -0.25,-0.469 -0.049,-0.101 -0.081,-0.208 -0.125,-0.313 -0.105,-0.248 -0.205,-0.489 -0.281,-0.75 -0.054,-0.185 -0.086,-0.371 -0.125,-0.563 -0.03,-0.146 -0.073,-0.289 -0.094,-0.438 -0.011,-0.081 -0.023,-0.168 -0.031,-0.25 -0.024,-0.235 -0.031,-0.477 -0.031,-0.719 0,-0.302 0.026,-0.584 0.063,-0.875 1e-4,-10e-4 -10e-5,-0.021 0,-0.031 0.063,0 0.149,-0.092 0.219,-0.094 m 2.688,0.75 c 0.064,-0.029 0.084,0.117 0.031,0.125 -0.05,10e-4 -0.08,-0.102 -0.031,-0.125"
     id="path3338"
     inkscape:connector-curvature="0"
     style="color:#000000;fill:#4d4d4d" />
  <path
     style="opacity:1;fill:none;fill-opacity:1;fill-rule:nonzero;stroke:#ff0000;stroke-width:0.29699999;stroke-miterlimit:4;stroke-dasharray:0.594, 0.297;stroke-dashoffset:0;stroke-opacity:1"
     id="path6120"
     sodipodi:type="arc"
     sodipodi:cx="9.4774199"
     sodipodi:cy="10.167027"
     sodipodi:rx="2.4843721"
     sodipodi:ry="2.4843721"
     sodipodi:start="1.1061756"
     sodipodi:end="0.040980131"
     d="M 10.590627,12.388035 A 2.4843721,2.4843721 0 0 1 7.6276537,11.825482 2.4843721,2.4843721 0 0 1 7.3906346,8.8189058 2.4843721,2.4843721 0 0 1 10.228858,7.7990231 2.4843721,2.4843721 0 0 1 11.959706,10.268809"
     sodipodi:open="true" />
  <g
     id="layer1"
     transform="matrix(0,-0.1735993,0.1735993,0,-165.63135,21.11593)">
    <g
       id="g4593"
       transform="matrix(4.2610846,-1.2351263,1.2351263,4.2610846,-1337.7659,-2994.9736)">
      <path
         style="marker-start:none"
         id="path4599"
         d="m 52.833357,957.4865 c -0.115865,-0.26466 -0.437685,-0.34877 -0.702826,-0.32535 l -1.661177,0.13219 c -0.367808,-0.36373 -0.818458,-0.41896 -0.785144,-0.53517 0.02604,-0.0908 0.103744,-0.047 0.159058,-0.2871 0.05311,-0.23053 -0.135802,-0.46649 -0.364148,-0.51586 -0.223779,-0.0656 -0.505389,0.0396 -0.575287,0.27589 -0.0851,0.23382 0.05204,0.51296 0.284926,0.59663 0.266191,0.12111 0.806895,0.0938 0.919223,0.57401 -0.263126,0.26816 -0.568726,0.18151 -0.840247,0.0865 -0.225424,-0.0789 -0.519552,-0.0921 -0.693464,0.10182 -0.167534,0.18563 -0.152037,0.52264 0.07157,0.65826 0.219037,0.16 0.587749,0.14285 0.726649,-0.12194 0.107065,-0.20409 -0.01733,-0.35007 0.06422,-0.41193 0.06153,-0.0467 0.334256,0.0688 0.902526,-0.013 l 1.460164,1.0382 c 0.188816,0.11614 0.440157,0.18611 0.679818,0.0364 l -1.501592,-1.11933 1.855727,-0.1702 z m -3.244456,-1.30573 c 0.198609,0.1998 0.07663,0.55241 -0.188966,0.55132 -0.244383,0.0137 -0.466396,-0.28372 -0.326517,-0.50423 0.09813,-0.18571 0.379521,-0.18388 0.515483,-0.0471 z m -0.409515,1.46733 c 0.220612,0.16185 0.05904,0.56731 -0.207946,0.55149 -0.182971,0.0101 -0.397043,-0.14126 -0.357673,-0.34213 0.03589,-0.24767 0.377763,-0.38273 0.565619,-0.20936 z"
         inkscape:connector-curvature="0" />
    </g>
  </g>
</svg>
