<?xml version="1.0" encoding="UTF-8" standalone="no"?>
<!--
This work, "cut-out from planet" is a derivative of
  - the globe icon "Antu_tag-places" (https://commons.wikimedia.org/wiki/File:Antu_tag-places.svg)
    from the Antü Plasma Suite by Fabián Alexis, used under CC BY-SA 3.0 unported
    and
  - "Scissors icon black" (https://commons.wikimedia.org/wiki/File:Scissors_icon_black.svg)
    by WikiMedia user "Inductiveload", used under public domain (or closest equivalent applicable) rights

"cut-out from planet" is licensed under CC BY-SA 4.0 international by HSR Hochschule für Technik Rapperswil
See https://creativecommons.org/licenses/by-sa/4.0/
-->

<svg
   xmlns:osb="http://www.openswatchbook.org/uri/2009/osb"
   xmlns:dc="http://purl.org/dc/elements/1.1/"
   xmlns:cc="http://creativecommons.org/ns#"
   xmlns:rdf="http://www.w3.org/1999/02/22-rdf-syntax-ns#"
   xmlns:svg="http://www.w3.org/2000/svg"
   xmlns="http://www.w3.org/2000/svg"
   height="26.007"
   width="26"
   version="1.1"
   id="svg3336"
   viewBox="0 0 26 26.007">
  <metadata
     id="metadata3344">
    <rdf:RDF>
      <cc:Work
         rdf:about="">
        <dc:format>image/svg+xml</dc:format>
        <dc:type
           rdf:resource="http://purl.org/dc/dcmitype/StillImage" />
        <dc:title>cut-out from planet</dc:title>
        <cc:license
           rdf:resource="http://creativecommons.org/licenses/by-sa/4.0/" />
      </cc:Work>
      <cc:License
         rdf:about="http://creativecommons.org/licenses/by-sa/4.0/">
        <cc:permits
           rdf:resource="http://creativecommons.org/ns#Reproduction" />
        <cc:permits
           rdf:resource="http://creativecommons.org/ns#Distribution" />
        <cc:requires
           rdf:resource="http://creativecommons.org/ns#Notice" />
        <cc:requires
           rdf:resource="http://creativecommons.org/ns#Attribution" />
        <cc:permits
           rdf:resource="http://creativecommons.org/ns#DerivativeWorks" />
        <cc:requires
           rdf:resource="http://creativecommons.org/ns#ShareAlike" />
      </cc:License>
    </rdf:RDF>
  </metadata>
  <defs
     id="defs3342">
    <linearGradient
       osb:paint="solid"
       id="linearGradient5755">
      <stop
         id="stop5757"
         offset="0"
         style="stop-color:#000000;stop-opacity:1;" />
    </linearGradient>
    <linearGradient
       osb:paint="solid"
       id="linearGradient5720">
      <stop
         id="stop5722"
         offset="0"
         style="stop-color:#000000;stop-opacity:1;" />
    </linearGradient>
    <linearGradient
       osb:paint="solid"
       id="linearGradient5686">
      <stop
         id="stop5688"
         offset="0"
         style="stop-color:#000000;stop-opacity:1;" />
    </linearGradient>
  </defs>
  <path
     style="color:#000000;fill:#568cbc"
     id="path3338"
     d="M 13.005,5 C 12.686,5 12.377,5.026 12.067,5.063 11.763,5.099 11.453,5.15 11.161,5.219 11.067,5.241 10.976,5.286 10.88,5.313 10.796,5.336 10.713,5.35 10.63,5.376 10.525,5.409 10.416,5.435 10.317,5.47 10.21,5.508 10.11,5.553 10.004,5.595 9.798,5.678 9.607,5.777 9.41,5.876 9.339,5.912 9.261,5.932 9.191,5.97 8.961,6.091 8.75,6.233 8.535,6.376 8.453,6.431 8.365,6.474 8.285,6.532 8.252,6.556 8.224,6.57 8.191,6.595 8.097,6.666 8,6.737 7.91,6.814 7.803,6.903 7.7,7.001 7.597,7.095 7.565,7.125 7.535,7.159 7.503,7.189 7.492,7.2 7.483,7.209 7.472,7.22 7.456,7.236 7.457,7.267 7.441,7.283 7.231,7.487 7.002,7.682 6.816,7.908 6.811,7.909 6.821,7.933 6.816,7.939 6.635,8.159 6.473,8.387 6.316,8.627 6.295,8.659 6.274,8.688 6.253,8.721 6.238,8.745 6.206,8.758 6.19,8.784 6.13,8.882 6.089,8.993 6.034,9.097 6.016,9.13 5.989,9.158 5.971,9.191 5.896,9.337 5.821,9.481 5.752,9.629 5.748,9.63 5.756,9.652 5.752,9.66 5.635,9.913 5.53,10.174 5.439,10.441 5.42,10.494 5.394,10.544 5.376,10.597 c -0.003,0.001 0.003,0.022 0,0.031 C 5.356,10.69 5.332,10.753 5.313,10.816 5.24,11.073 5.173,11.33 5.125,11.597 5.091,11.789 5.051,11.994 5.031,12.191 5.004,12.456 5,12.733 5,13.004 c 0,0.404 0.036,0.8 0.094,1.188 0.006,0.041 -0.007,0.085 0,0.125 0.044,0.266 0.118,0.525 0.188,0.781 0.026,0.096 0.064,0.186 0.094,0.281 0.04,0.129 0.079,0.249 0.125,0.375 0.077,0.212 0.156,0.422 0.25,0.625 0.05,0.106 0.102,0.21 0.156,0.313 0.152,0.292 0.315,0.575 0.5,0.844 0.016,0.024 0.046,0.039 0.063,0.063 0.198,0.281 0.394,0.56 0.625,0.813 0.04,0.044 0.084,0.082 0.125,0.125 0.04,0.042 0.084,0.084 0.125,0.125 0.214,0.214 0.451,0.405 0.688,0.594 0.306,0.244 0.629,0.459 0.969,0.656 0.012,0.001 0.019,0.024 0.031,0.031 0.053,0.03 0.103,0.065 0.156,0.094 0.316,0.156 0.692,0.325 0.938,0.438 0.11,0.042 0.231,0.057 0.344,0.094 0.053,0.018 0.103,0.046 0.156,0.063 0.136,0.041 0.268,0.09 0.406,0.125 0.042,0.011 0.083,0.021 0.125,0.031 0.292,0.069 0.602,0.121 0.906,0.156 0.309,0.036 0.618,0.063 0.938,0.063 0.34,0 0.671,-0.021 1,-0.063 0.365,-0.048 0.681,-0.124 1,-0.188 1.698,-0.436 3.162,-1.421 4.219,-2.749 0.028,-0.035 0.067,-0.058 0.094,-0.094 0.009,-0.012 0.022,-0.02 0.031,-0.031 0.014,-0.018 0.018,-0.044 0.031,-0.063 0.623,-0.825 1.077,-1.78 1.344,-2.812 0.056,-0.217 0.118,-0.432 0.156,-0.656 0.005,-0.03 -0.005,-0.063 0,-0.094 0.006,-0.04 0.025,-0.079 0.031,-0.125 0.006,-0.043 0.026,-0.082 0.031,-0.125 l -0.031,0 c 0.044,-0.329 0.094,-0.659 0.094,-1 0,-0.552 -0.05,-1.103 -0.156,-1.624 -0.009,-0.043 -0.022,-0.082 -0.031,-0.125 -0.046,-0.208 -0.124,-0.423 -0.188,-0.625 -0.003,-10e-4 0.003,-0.022 0,-0.031 C 20.615,10.564 20.609,10.546 20.596,10.508 20.557,10.389 20.515,10.25 20.471,10.133 20.459,10.101 20.453,10.069 20.44,10.039 20.397,9.93 20.332,9.833 20.284,9.726 c -0.002,0 0.002,-0.026 0,-0.031 C 20.259,9.641 20.216,9.592 20.19,9.539 20.092,9.336 19.992,9.139 19.877,8.945 19.819,8.847 19.783,8.728 19.721,8.632 19.697,8.596 19.652,8.574 19.627,8.538 19.56,8.439 19.48,8.353 19.408,8.257 19.328,8.157 19.268,8.041 19.189,7.944 19.184,7.943 19.194,7.919 19.189,7.913 19.017,7.704 18.819,7.51 18.626,7.319 18.533,7.227 18.442,7.125 18.345,7.038 18.317,7.013 18.28,7 18.251,6.975 18.042,6.793 17.821,6.635 17.595,6.475 17.54,6.437 17.494,6.387 17.439,6.35 17.369,6.304 17.291,6.269 17.22,6.225 17.085,6.141 16.954,6.051 16.814,5.975 16.691,5.908 16.566,5.848 16.439,5.787 16.225,5.685 16.007,5.589 15.783,5.506 15.517,5.407 15.249,5.326 14.97,5.256 14.725,5.194 14.473,5.138 14.22,5.1 13.823,5.039 13.415,5.006 13.001,5.006 m 0,1 c 0.299,0 0.585,0.027 0.875,0.063 0.18,0.023 0.355,0.058 0.531,0.094 10e-4,0 0.021,0 0.031,0 0.166,0.035 0.338,0.079 0.5,0.125 0.096,0.027 0.187,0.063 0.281,0.094 0.172,0.057 0.334,0.117 0.5,0.188 0.194,0.08 0.379,0.153 0.563,0.25 -0.031,10e-4 -0.063,0.021 -0.094,0.031 -0.047,0.017 -0.113,0.096 -0.125,0.125 -0.02,0.048 0.005,0.115 0,0.188 0.038,0.017 0.06,0.089 0.125,0.125 0.025,0.014 0.041,-10e-4 0.063,0 0.038,0.021 0.07,0.087 0.063,0.125 -0.011,0.055 -0.088,0.022 -0.125,0.063 0.006,0.078 -0.043,0.105 -0.063,0.156 0.012,0.033 0.057,0.024 0.063,0.063 C 16.182,7.739 16.11,7.745 16.126,7.79 16.198,7.846 16.277,7.768 16.345,7.759 16.494,7.74 16.628,7.8 16.72,7.728 16.708,7.657 16.821,7.636 16.814,7.572 16.808,7.524 16.724,7.511 16.689,7.478 16.67,7.46 16.649,7.419 16.626,7.384 16.6,7.344 16.562,7.297 16.532,7.259 16.493,7.207 16.407,7.142 16.407,7.103 16.4071,7.058 16.459,7.04 16.47,6.978 c -0.012,-0.057 -0.117,0 -0.125,-0.063 0.002,-0.019 0.021,-0.051 0.031,-0.063 0.15,0.082 0.298,0.179 0.438,0.281 0.032,0.021 0.062,0.041 0.094,0.063 0.108,0.081 0.207,0.17 0.313,0.25 -0.067,0.012 -0.101,0.09 -0.156,0.156 -0.038,0.046 -0.099,0.101 -0.156,0.125 -0.028,0.012 -0.068,-0.016 -0.094,0 -0.037,0.025 -0.051,0.096 -0.094,0.125 -0.031,0.021 -0.124,0.094 -0.156,0.094 -0.038,1e-4 -0.098,-0.04 -0.125,-0.031 -0.04,0.013 -0.017,0.077 -0.063,0.094 -0.088,0.031 -0.25,-0.069 -0.281,0.063 0.038,0.076 0.153,0.051 0.219,0.094 0.042,0.026 0.114,0.143 0.125,0.188 10e-4,0.038 0.015,0.179 0,0.219 -0.041,0.106 -0.159,0.097 -0.281,0.094 -0.034,-10e-5 -0.063,0 -0.094,0 -0.207,-0.014 -0.407,-0.085 -0.5,0.063 0.007,0.113 0.025,0.183 0,0.281 -0.018,0.072 -0.097,0.125 -0.094,0.188 0.002,0.032 0.055,0.082 0.063,0.125 0.005,0.023 -0.011,0.073 0,0.094 0.034,0.066 0.127,-10e-4 0.188,0 0.059,0.001 0.126,0.121 0.125,0.188 -10e-5,0.046 -0.033,0.112 -0.063,0.156 -0.058,0.089 -0.167,0.077 -0.25,0.125 -0.07,0.039 -0.084,0.119 -0.125,0.188 -0.044,0.074 -0.081,0.111 -0.063,0.219 -0.06,0.118 -0.126,0.194 -0.25,0.25 -0.037,0.017 -0.092,0.039 -0.125,0.063 -0.027,0.019 -0.056,0.051 -0.094,0.094 -0.047,0.052 -0.1,0.085 -0.125,0.125 -0.019,0.031 -0.001,0.084 -0.031,0.125 -0.029,0.056 -0.088,0.1 -0.125,0.156 -0.017,0.026 -0.043,0.059 -0.063,0.094 -0.042,0.077 -0.101,0.151 -0.094,0.219 0.007,0.066 0.089,0.068 0.094,0.125 0.004,0.032 -0.033,0.059 -0.031,0.094 10e-5,0.051 0.027,0.086 0.031,0.125 0.001,0.099 -0.044,0.12 -0.063,0.188 -0.009,0.032 0.008,0.068 0,0.094 -0.016,0.05 -0.093,0.098 -0.094,0.156 -10e-5,0.042 0.059,0.097 0.063,0.156 0.002,0.04 -0.038,0.057 -0.031,0.094 0.014,0.073 0.162,0.162 0.219,0.219 0.075,0.075 0.155,0.139 0.188,0.219 0.027,0.067 0.041,0.168 0.094,0.219 0.039,0.037 0.106,0.054 0.156,0.094 0.047,0.036 0.107,0.055 0.156,0.094 0.081,0.064 0.183,0.197 0.313,0.188 0.068,-10e-4 0.142,-0.05 0.219,-0.063 0.079,-0.014 0.17,-0.039 0.25,-0.031 0.061,10e-4 0.124,0.066 0.188,0.063 0.067,0 0.143,-0.061 0.219,-0.094 0.132,-0.057 0.339,-0.153 0.531,-0.125 0.146,0.021 0.149,0.217 0.25,0.281 0.118,10e-4 0.219,-0.054 0.313,-0.031 0.07,0.017 0.149,0.132 0.156,0.188 0.007,0.058 -0.054,0.121 -0.063,0.156 -0.018,0.078 -0.017,0.169 -0.031,0.219 -0.011,0.038 -0.032,0.086 -0.031,0.125 0,0.035 0.058,0.142 0.094,0.188 0.044,0.056 0.103,0.096 0.156,0.156 0.087,0.109 0.155,0.236 0.219,0.375 0.017,0.037 -0.016,0.077 0,0.125 -0.029,0.224 -0.103,0.377 -0.25,0.625 -0.069,0.08 -0.158,0.15 -0.156,0.25 -0.005,0.24 0.136,0.393 0.125,0.625 -0.024,0.312 0.024,0.333 0,0.5 0.105,0.053 0.031,0.233 0,0.344 -0.045,0.132 -0.1,0.162 -0.125,0.25 0.071,0.031 0.171,0.019 0.25,0 0,0 0.096,0.401 0.094,0.406 -0.807,0.797 -1.819,1.387 -2.938,1.718 -0.55,0.133 -0.713,0.133 -0.969,0.188 -0.334,0.055 -0.683,0.094 -1.031,0.094 -0.243,0 -0.483,-0.001 -0.719,-0.031 -0.182,-0.018 -0.354,-0.062 -0.531,-0.094 -0.053,-0.001 -0.104,-0.02 -0.156,-0.031 -0.163,-0.055 -0.351,-0.088 -0.5,-0.125 -0.17,-0.048 -0.335,-0.096 -0.5,-0.156 0.014,-0.013 0.027,-0.011 0.031,-0.031 0.009,-0.04 0.002,-0.062 0,-0.125 0.015,-0.065 0.08,-0.058 0.094,-0.125 -0.028,-0.048 -0.083,-0.038 -0.125,-0.063 -0.041,-0.024 -0.068,-0.074 -0.063,-0.125 0.07,-0.029 0.2,0.066 0.25,-0.031 0.025,-0.046 -0.034,-0.141 0,-0.188 0.023,-0.031 0.169,-0.055 0.219,-0.063 0.071,-0.012 0.148,-0.001 0.188,-0.031 0.044,-0.029 0.101,-0.105 0.094,-0.188 -0.004,-0.039 -0.033,-0.059 -0.063,-0.094 -0.025,-0.029 -0.013,-0.066 -0.031,-0.094 -0.031,-0.047 -0.08,-0.058 -0.094,-0.125 0.096,-0.019 0.236,0.102 0.375,0.063 0.066,-0.019 0.157,-0.188 0.188,-0.25 0.001,-0.019 -10e-4,-0.04 0,-0.063 0.012,-0.026 0.059,-0.049 0.063,-0.063 10e-4,-0.036 -0.008,-0.071 0,-0.094 0.024,-0.068 0.085,-0.075 0.125,-0.125 0.03,-0.038 0.065,-0.087 0.094,-0.125 0.031,-0.041 0.042,-0.089 0.063,-0.125 0.02,-0.122 -0.06,-0.206 -0.031,-0.313 0.032,-0.12 0.196,-0.165 0.313,-0.219 0.04,-0.019 0.092,-0.05 0.125,-0.063 0.08,-0.028 0.176,-0.036 0.25,-0.063 0.125,-0.046 0.157,-0.167 0.219,-0.281 0.029,-0.054 0.057,-0.118 0.063,-0.156 0.005,-0.035 -0.007,-0.053 0,-0.094 0.006,-0.04 0.02,-0.081 0.031,-0.125 0.014,-0.058 0.031,-0.154 0.031,-0.219 0,-0.053 -0.029,-0.078 -0.031,-0.125 -0.009,-0.173 0.061,-0.218 0.125,-0.313 0.032,-0.047 0.04,-0.091 0.063,-0.125 0.108,-0.161 0.295,-0.226 0.281,-0.469 -0.005,-0.08 -0.035,-0.256 -0.094,-0.281 -0.034,-0.015 -0.107,-0.011 -0.156,-0.031 -0.158,-0.059 -0.274,-0.269 -0.438,-0.281 -0.035,0 -0.055,0.031 -0.094,0.031 -0.065,0 -0.147,-0.053 -0.219,-0.063 -0.046,-10e-4 -0.129,0.013 -0.156,0 -0.042,-0.02 -0.029,-0.102 -0.063,-0.125 -0.027,-0.018 -0.084,-0.015 -0.125,-0.031 -0.066,-0.025 -0.112,-0.056 -0.188,-0.063 -0.023,-10e-5 -0.067,0 -0.094,0 -0.042,-10e-4 -0.086,-0.04 -0.125,-0.063 -0.048,-0.029 -0.074,-0.052 -0.094,-0.094 0.044,-0.144 -0.096,-0.167 -0.125,-0.25 -0.014,-0.039 0.013,-0.09 0,-0.125 -0.017,-0.05 -0.071,-0.084 -0.125,-0.125 -0.097,-0.074 -0.174,-0.139 -0.313,-0.156 -0.061,-10e-4 -0.145,0 -0.219,0 -0.078,-10e-4 -0.161,-0.058 -0.219,-0.125 -0.056,-0.065 -0.076,-0.125 -0.125,-0.156 -0.047,-0.03 -0.124,-0.031 -0.156,-0.063 C 10.303,12.935 10.3,12.918 10.286,12.886 10.263,12.838 10.225,12.788 10.255,12.73 10.202,12.703 10.22,12.802 10.161,12.793 10.109,12.719 10.06,12.678 9.942,12.699 9.888,12.7 9.849,12.759 9.786,12.762 9.734,12.762 9.698,12.709 9.63,12.699 9.578,12.698 9.51,12.735 9.474,12.73 9.417,12.719 9.401,12.671 9.349,12.636 9.311,12.611 9.245,12.541 9.224,12.542 9.157,12.542 9.098,12.685 9.005,12.636 8.96,12.579 9.09,12.565 9.036,12.511 8.996,12.47 8.975,12.512 8.942,12.542 8.905,12.567 8.858,12.589 8.817,12.605 8.725,12.639 8.67,12.63 8.598,12.668 8.532,12.702 8.511,12.756 8.473,12.824 8.442,12.88 8.394,12.977 8.348,12.98 8.292,12.98 8.242,12.908 8.192,12.886 8.039,12.82 7.944,12.916 7.817,12.917 7.699,12.917 7.53,12.746 7.536,12.636 7.54,12.569 7.59,12.47 7.599,12.386 7.605,12.32 7.661,12.259 7.662,12.198 7.6621,12.117 7.527,12.051 7.474,12.042 c -0.125,-0.023 -0.295,0.061 -0.438,0 -0.027,-0.045 0.047,-0.081 0.063,-0.125 0.009,-0.025 -0.009,-0.034 0,-0.063 0.016,-0.042 0.074,-0.08 0.094,-0.125 0.015,-0.034 0.016,-0.082 0.031,-0.125 0.017,-0.049 0.059,-0.091 0.063,-0.125 0.005,-0.045 -0.027,-0.095 -0.063,-0.125 -0.111,0.001 -0.187,0 -0.25,0.031 -0.144,0.066 -0.106,0.266 -0.25,0.313 -0.05,0.016 -0.133,0.021 -0.188,0.031 C 6.489,11.73 6.429,11.761 6.38,11.76 6.322,11.7599 6.227,11.703 6.192,11.666 6.183,11.665 6.168,11.63 6.161,11.603 c 0.002,-10e-4 -0.002,-0.021 0,-0.031 0.046,-0.223 0.093,-0.444 0.156,-0.656 0.003,-0.001 -0.003,-0.022 0,-0.031 0.042,-0.139 0.103,-0.27 0.156,-0.406 0.013,-10e-4 0.019,-0.023 0.031,-0.031 0.077,-0.053 0.156,-0.119 0.25,-0.125 0.057,0 0.164,0.02 0.219,0.031 0.05,0.001 0.082,0.059 0.125,0.063 0.123,10e-4 0.149,-0.103 0.25,-0.156 0.104,0.015 0.156,-10e-4 0.25,0 0.064,0.001 0.138,0.09 0.188,0.094 0.042,0 0.053,-0.069 0.094,-0.063 0.04,10e-4 0.119,0.108 0.125,0.156 0.007,0.06 -0.048,0.122 -0.031,0.188 0.063,0.064 0.191,0.056 0.281,0.094 0.059,-0.048 0.009,-0.118 0,-0.188 -0.002,-0.031 0.004,-0.066 0,-0.094 C 8.249,10.4 8.224,10.364 8.224,10.323 8.2239,10.133 8.378,10.023 8.505,9.948 8.56,9.915 8.613,9.879 8.661,9.854 8.728,9.82 8.761,9.791 8.817,9.76 8.918,9.703 9.019,9.668 9.098,9.604 c 0.037,-0.086 -0.004,-0.196 0,-0.281 0.037,-0.022 0.055,0 0.094,0 C 9.253,9.31 9.282,9.232 9.317,9.198 9.337,9.178 9.386,9.155 9.411,9.135 9.472,9.087 9.483,9.031 9.536,9.01 9.555,9.009 9.6,8.993 9.63,8.979 9.67,8.968 9.722,8.939 9.786,8.916 9.828,8.902 9.926,8.901 9.942,8.885 9.962,8.865 9.936,8.79 9.942,8.76 9.974,8.609 10.214,8.592 10.348,8.541 c 0.094,-0.036 0.178,-0.114 0.281,-0.094 -0.02,0.072 -0.11,0.038 -0.094,0.125 0.023,0.121 0.176,-0.013 0.219,-0.031 0.081,-0.034 0.237,-0.055 0.344,-0.094 0.094,-0.034 0.245,-0.08 0.156,-0.188 -0.074,0 -0.092,0.066 -0.156,0.094 -0.044,10e-4 -0.056,-0.027 -0.094,-0.031 -0.036,0 -0.057,0.038 -0.094,0.031 -0.037,-10e-4 -0.088,-0.082 -0.094,-0.125 -0.015,-0.111 0.11,-0.136 0.156,-0.219 -0.03,-0.101 -0.166,-0.024 -0.25,-0.063 0.009,-0.06 0.055,-0.114 0.125,-0.125 0.057,-10e-4 0.185,0.001 0.219,0.031 0.02,0.017 0,0.066 0.031,0.094 0.034,0.031 0.081,0.001 0.125,0 0.016,-0.076 -0.106,-0.043 -0.094,-0.094 0.09,-0.059 0.265,-0.016 0.375,-0.031 0.063,-10e-4 0.131,-0.062 0.188,-0.094 0.054,-0.03 0.099,-0.081 0.156,-0.031 0.016,0.054 -0.032,0.066 -0.063,0.094 -0.102,0.091 -0.202,0.207 -0.281,0.313 0.049,0.048 0.136,0.022 0.219,0.031 0.032,0 0.06,0.025 0.094,0.031 0.04,0.001 0.094,-0.012 0.125,0 0.056,0.014 0.07,0.094 0.125,0.094 0.091,0 0.083,-0.125 0.031,-0.188 C 12.113,8.008 12.15,7.991 12.128,7.946 12.087,7.864 11.917,7.96 11.909,7.852 11.904,7.785 11.979,7.777 12.003,7.727 11.992,7.598 12.109,7.592 12.097,7.477 12.091,7.429 12.037,7.428 12.003,7.383 11.986,7.36 12.002,7.307 11.972,7.289 11.902,7.23 11.762,7.245 11.753,7.133 11.749,7.067 11.754,7.018 11.753,6.945 11.744,6.878 11.687,6.677 11.628,6.664 11.553,6.648 11.499,6.778 11.409,6.82 11.36,6.843 11.27,6.86 11.221,6.851 11.189,6.85 11.132,6.819 11.127,6.757 11.121,6.687 11.177,6.675 11.19,6.601 11.179,6.557 11.139,6.572 11.096,6.538 11.047,6.501 11.005,6.422 10.94,6.413 c -0.033,0 -0.093,0.029 -0.125,0.031 -0.06,0 -0.106,-0.015 -0.156,-0.031 0.021,-0.001 0.041,-0.024 0.063,-0.031 0.122,-0.042 0.25,-0.059 0.375,-0.094 0.022,-0.001 0.041,-0.025 0.063,-0.031 0.031,0.033 0.056,0.103 0.094,0.125 0.025,0.014 0.063,-10e-4 0.094,0 0.098,0.03 0.174,0.085 0.281,0.063 C 11.666,6.38 11.555,6.371 11.598,6.32 11.67,6.321 11.73,6.36 11.786,6.383 11.863,6.327 11.914,6.317 11.911,6.227 11.9109,6.181 11.849,6.164 11.817,6.133 11.88,6.122 11.941,6.111 12.005,6.102 c 0.005,0.017 0.021,0.03 0.031,0.031 0.038,0.001 0.165,-0.051 0.188,-0.063 0.004,0 -0.006,-0.027 0,-0.031 0.253,-0.027 0.521,-0.031 0.781,-0.031 m -2.5,0.469 c -0.023,0.043 -0.047,0.079 -0.094,0.094 0.012,0.065 -0.084,0.105 -0.094,0.156 -0.006,0.035 -0.002,0.094 0,0.125 0.02,0.319 -0.251,0.477 -0.563,0.469 C 9.693,7.379 9.725,7.491 9.691,7.571 9.663,7.638 9.571,7.702 9.503,7.696 9.453,7.696 9.378,7.617 9.378,7.571 9.378,7.514 9.459,7.48 9.409,7.415 9.416,7.371 9.515,7.329 9.503,7.259 9.491,7.185 9.407,7.24 9.315,7.228 9.263,7.227 9.182,7.191 9.127,7.165 9.228,7.098 9.332,7.039 9.44,6.977 9.534,6.921 9.625,6.872 9.721,6.821 9.973,6.694 10.243,6.577 10.502,6.477 m 5.374,0.75 c -0.027,0 -0.04,0.018 -0.063,0.031 -0.051,0.031 -0.054,0.079 -0.094,0.094 -0.054,0.021 -0.117,10e-4 -0.125,0.063 -0.006,0.041 0.033,0.055 0.031,0.094 -0.02,0.049 -0.053,0.066 -0.063,0.125 0.068,0.11 0.229,-0.001 0.313,-0.031 0.038,-0.011 0.073,0 0.094,-0.031 C 15.992,7.537 15.982,7.467 16,7.416 16.019,7.36 16.069,7.373 16.063,7.322 16.057,7.272 15.957,7.22 15.875,7.228 M 8.563,8.009 C 8.624,8.025 8.759,8.202 8.626,8.259 8.613,8.26 8.439,8.295 8.407,8.29 8.361,8.289 8.329,8.204 8.282,8.196 8.19,8.18 8.064,8.297 8.001,8.196 8.017,8.137 8.087,8.153 8.157,8.133 8.282,8.099 8.455,7.98 8.563,8.008 m 0.25,0.313 c 0.031,0 0.056,0.059 0.094,0.063 0.036,0 0.072,-0.036 0.094,-0.031 C 9.057,8.368 9.085,8.468 9.032,8.509 8.988,8.509 8.971,8.472 8.938,8.478 8.847,8.494 8.818,8.671 8.75,8.666 8.686,8.665 8.654,8.525 8.719,8.478 8.721,8.438 8.686,8.424 8.688,8.384 8.708,8.359 8.76,8.318 8.813,8.321 M 8.5,8.352 c 0.019,10e-5 0.024,0 0.031,0 C 8.522,8.423 8.492,8.443 8.437,8.477 8.342,8.534 8.28,8.605 8.249,8.727 8.24,8.763 8.138,8.861 8.093,8.852 7.987,8.83 8.131,8.632 8.156,8.602 8.183,8.569 8.218,8.546 8.25,8.508 8.28,8.471 8.283,8.403 8.313,8.383 8.345,8.361 8.445,8.35 8.501,8.352 M 18,8.383 c 0.048,0.013 0.058,0.069 0.094,0.094 0.027,0.018 0.064,0.012 0.094,0.031 0.035,0.022 0.054,0.06 0.094,0.094 0.056,0.047 0.14,0.088 0.219,0.125 0.016,10e-4 0.044,0.023 0.063,0.031 0.055,0.071 0.104,0.145 0.156,0.219 0.006,0.04 0.012,0.099 0.031,0.125 0.052,0.071 0.131,0.132 0.188,0.219 -10e-5,0.083 0.036,0.133 0.094,0.156 0.073,0.124 0.149,0.248 0.219,0.375 0.029,0.058 0.035,0.129 0.063,0.188 -0.021,0 -0.043,0.001 -0.063,0 -0.066,-0.116 -0.409,-0.139 -0.438,0.031 -0.013,0.075 0.049,0.175 -0.063,0.188 -0.071,10e-4 -0.153,-0.073 -0.25,-0.094 -0.04,-10e-4 -0.094,0.014 -0.125,0 -0.073,-0.025 -0.062,-0.112 -0.125,-0.156 -0.036,-0.025 -0.13,-0.056 -0.188,-0.063 -0.036,0 -0.056,0 -0.094,0 C 17.924,9.945 17.851,9.945 17.813,9.915 17.777,9.893 17.697,9.853 17.688,9.821 17.674,9.772 17.778,9.707 17.782,9.665 17.784,9.634 17.759,9.62 17.751,9.571 17.746,9.542 17.757,9.497 17.751,9.477 17.75,9.443 17.68,9.415 17.626,9.414 c -0.048,0 -0.084,0.03 -0.125,0.031 -0.059,10e-5 -0.177,-0.037 -0.25,-0.031 -0.044,0 -0.084,0.028 -0.125,0.031 -0.116,10e-4 -0.191,-10e-4 -0.281,0 -0.066,0 -0.189,0.034 -0.25,0.063 -0.031,0.014 -0.054,0.043 -0.094,0.063 -0.018,10e-4 -0.039,0.021 -0.063,0.031 -0.038,0.017 -0.089,0.053 -0.125,0.063 -0.052,0.013 -0.124,0 -0.219,0 -0.068,0 -0.187,-0.014 -0.188,-0.094 -10e-5,-0.123 0.227,-0.072 0.344,-0.094 0.044,-10e-4 0.073,-0.063 0.125,-0.094 0.025,-0.015 0.039,-0.015 0.063,-0.031 0.04,-0.028 0.119,-0.093 0.125,-0.125 0.006,-0.03 -0.035,-0.072 -0.031,-0.094 0.005,-0.028 0.057,-0.058 0.094,-0.094 0.056,-0.055 0.087,-0.12 0.156,-0.156 0.047,-0.025 0.135,-0.024 0.156,-0.063 0.005,-0.043 -10e-5,-0.055 0,-0.094 0.029,-0.027 0.038,-0.058 0.063,-0.063 0.072,-0.016 0.135,0.035 0.219,0.031 0.036,0 0.086,-0.001 0.125,-0.031 0.033,-0.022 0.062,-0.045 0.094,-0.063 0.035,-0.018 0.051,-0.059 0.094,-0.063 0.105,-0.001 0.171,0.124 0.219,0.188 0.04,0.053 0.153,0.119 0.219,0.156 0.037,0.021 0.084,0.045 0.125,0.063 0.087,0.039 0.247,0.165 0.25,0.25 0.002,0.042 -0.038,0.054 -0.031,0.094 C 18.381,9.299 18.438,9.229 18.44,9.163 18.4401,9.122 18.401,9.113 18.409,9.069 18.44,9.003 18.557,9.068 18.597,9.038 18.59,8.963 18.473,8.952 18.409,8.913 18.375,8.892 18.351,8.865 18.315,8.85 18.263,8.829 18.199,8.818 18.159,8.787 18.121,8.758 18.102,8.707 18.065,8.662 18.011,8.598 17.907,8.589 17.94,8.443 17.956,8.421 17.977,8.374 18.003,8.38 m -8.812,0.219 0.094,0 c 0.034,10e-5 0.08,-0.018 0.094,0 C 9.357,8.687 9.167,8.662 9.098,8.63 9.102,8.597 9.148,8.603 9.192,8.599 M 8.879,8.755 c 0.023,0 0.039,-0.001 0.063,0 C 8.88,8.807 8.798,8.847 8.692,8.88 8.641,8.896 8.576,8.905 8.567,8.849 8.556,8.78 8.614,8.793 8.661,8.786 8.719,8.785 8.811,8.757 8.88,8.755 m 8.687,0 c -0.043,0.014 -0.066,0.113 0,0.125 0.031,-0.018 0.039,-0.068 0.031,-0.125 -0.017,-0.018 -0.017,0 -0.031,0 m -0.031,0.188 c -0.021,0.001 -0.04,0.001 -0.063,0.031 10e-5,0.075 0.015,0.123 0,0.188 0.043,0.082 0.134,0.026 0.156,-0.031 0.026,-0.139 -0.03,-0.205 -0.094,-0.188 m 0.438,0.375 c 0.049,0.08 0.141,0.137 0.25,0.156 0.04,-0.03 0.044,-0.105 0.063,-0.156 -0.047,10e-5 -0.097,0 -0.156,0 -0.059,0 -0.122,-0.028 -0.156,0 M 6.287,12.005 c 0.164,-0.001 0.212,0.216 0.344,0.281 0.033,0.017 0.082,0.022 0.125,0.031 0.035,10e-4 0.061,0.02 0.094,0.031 0.071,0.024 0.162,10e-4 0.219,0.031 0.085,0.038 0.146,0.207 0.219,0.25 0.004,0.043 -0.013,0.093 0,0.125 0.035,0.047 0.099,0.064 0.156,0.094 0.068,0.037 0.092,0.127 0.156,0.156 0.022,0.001 0.059,-10e-4 0.094,0 0.088,0.027 0.112,0.147 0.188,0.125 0.05,-0.014 0.055,-0.078 0.063,-0.125 0.033,-0.036 0.074,-0.093 0.125,-0.094 0.083,0 0.095,0.075 0.125,0.156 0.017,0.046 0.051,0.108 0.063,0.156 0.021,0.083 0.017,0.325 0,0.375 -0.021,0.061 -0.106,0.089 -0.156,0.156 -0.024,0.031 -0.044,0.071 -0.063,0.094 -0.032,0.04 -0.069,0.057 -0.094,0.094 -0.014,0.021 -0.018,0.066 -0.031,0.094 -0.04,0.085 -0.096,0.148 -0.063,0.25 0.014,0.042 0.062,0.076 0.063,0.125 0,0.058 -0.115,0.093 -0.125,0.156 -0.007,0.047 0.048,0.126 0.063,0.188 0.011,0.047 0.097,0.094 0.125,0.125 0.047,0.053 0.082,0.121 0.125,0.188 0.085,0.13 0.136,0.28 0.219,0.406 0.043,0.066 0.127,0.119 0.156,0.188 0.015,0.035 -0.014,0.094 0,0.125 0.048,0.108 0.266,0.228 0.375,0.281 0.051,0.025 0.11,0 0.156,0.031 0.071,0.039 0.214,0.157 0.25,0.219 0.032,0.056 0.047,0.193 0.063,0.281 0.021,0.117 -0.005,0.217 0,0.344 0.004,0.069 0.03,0.119 0.031,0.188 0,0.024 10e-5,0.07 0,0.094 -0.002,0.083 0.007,0.166 0,0.25 -0.004,0.046 -0.003,0.087 0,0.125 0.004,0.041 0.028,0.057 0.031,0.094 0.002,0.039 -0.035,0.095 -0.031,0.125 0.009,0.084 0.077,0.142 0.094,0.219 0.013,0.061 0.039,0.208 0.031,0.281 -0.005,0.039 -0.025,0.083 -0.031,0.125 -0.004,0.033 0.005,0.062 0,0.094 -0.006,0.047 -0.034,0.081 -0.031,0.125 0.006,0.09 0.08,0.16 0.094,0.25 0.005,0.03 -10e-5,0.065 0,0.094 10e-5,0.027 0.023,0.038 0.031,0.063 C 9.277,18.919 9.031,18.751 8.79,18.569 8.561,18.396 8.339,18.205 8.134,18.006 8.133,18.005 8.113,17.985 8.103,17.975 7.896,17.771 7.689,17.547 7.509,17.319 7.405,17.187 7.291,17.052 7.196,16.913 7.14,16.83 7.092,16.749 7.04,16.663 7.008,16.612 6.977,16.559 6.946,16.507 6.857,16.354 6.773,16.199 6.696,16.038 6.647,15.937 6.615,15.83 6.571,15.725 6.466,15.477 6.366,15.236 6.29,14.975 6.236,14.79 6.204,14.604 6.165,14.412 6.135,14.266 6.092,14.123 6.071,13.974 6.06,13.893 6.048,13.806 6.04,13.724 6.016,13.489 6.009,13.247 6.009,13.005 c 0,-0.302 0.026,-0.584 0.063,-0.875 10e-5,-0.001 -10e-5,-0.021 0,-0.031 0.063,0 0.149,-0.092 0.219,-0.094 m 2.688,0.75 C 9.043,12.726 9.063,12.872 9.01,12.88 8.96,12.881 8.93,12.778 8.979,12.755" />
  <path
     d="M 13.00268,14.851427 A 2.4843721,2.4843721 0 0 1 10.039707,14.288873 2.4843721,2.4843721 0 0 1 9.8026877,11.282297 2.4843721,2.4843721 0 0 1 12.640912,10.262414 2.4843721,2.4843721 0 0 1 14.371759,12.7322"
     id="path6120"
     style="opacity:1;fill:none;fill-opacity:1;fill-rule:nonzero;stroke:#89b1d3;stroke-width:0.29699999;stroke-miterlimit:4;stroke-dasharray:0.594, 0.297;stroke-dashoffset:0;stroke-opacity:1" />
  <g
     transform="matrix(0,-0.1735993,0.1735993,0,-163.2193,23.579322)"
     id="layer1">
    <g
       transform="matrix(4.2610846,-1.2351263,1.2351263,4.2610846,-1337.7659,-2994.9736)"
       id="g4593">
      <path
         d="m 52.833357,957.4865 c -0.115865,-0.26466 -0.437685,-0.34877 -0.702826,-0.32535 l -1.661177,0.13219 c -0.367808,-0.36373 -0.818458,-0.41896 -0.785144,-0.53517 0.02604,-0.0908 0.103744,-0.047 0.159058,-0.2871 0.05311,-0.23053 -0.135802,-0.46649 -0.364148,-0.51586 -0.223779,-0.0656 -0.505389,0.0396 -0.575287,0.27589 -0.0851,0.23382 0.05204,0.51296 0.284926,0.59663 0.266191,0.12111 0.806895,0.0938 0.919223,0.57401 -0.263126,0.26816 -0.568726,0.18151 -0.840247,0.0865 -0.225424,-0.0789 -0.519552,-0.0921 -0.693464,0.10182 -0.167534,0.18563 -0.152037,0.52264 0.07157,0.65826 0.219037,0.16 0.587749,0.14285 0.726649,-0.12194 0.107065,-0.20409 -0.01733,-0.35007 0.06422,-0.41193 0.06153,-0.0467 0.334256,0.0688 0.902526,-0.013 l 1.460164,1.0382 c 0.188816,0.11614 0.440157,0.18611 0.679818,0.0364 l -1.501592,-1.11933 1.855727,-0.1702 z m -3.244456,-1.30573 c 0.198609,0.1998 0.07663,0.55241 -0.188966,0.55132 -0.244383,0.0137 -0.466396,-0.28372 -0.326517,-0.50423 0.09813,-0.18571 0.379521,-0.18388 0.515483,-0.0471 z m -0.409515,1.46733 c 0.220612,0.16185 0.05904,0.56731 -0.207946,0.55149 -0.182971,0.0101 -0.397043,-0.14126 -0.357673,-0.34213 0.03589,-0.24767 0.377763,-0.38273 0.565619,-0.20936 z"
         id="path4599"
         style="marker-start:none;fill:#0d47a1" />
    </g>
  </g>
</svg>
