<?xml version="1.0" encoding="UTF-8" standalone="no"?>
<!--
This work, "folder with map" is a derivative of
  - the folder icon "Folder 3 icon-72a7cf" (https://commons.wikimedia.org/wiki/File:Folder_3_icon-72a7cf.svg)
    by WikiMedia user "Offnfopt", used under public domain (or closest equivalent applicable) rights
    and
  - "Italy blank" (https://commons.wikimedia.org/wiki/File:Italy_blank.svg)
    by WikiMedia user "Davide101", used under CC BY-SA 3.0 unported

This work, "folder with map" is licensed under CC BY-SA 4.0 international by HSR Hochschule für Technik Rapperswil
See https://creativecommons.org/licenses/by-sa/4.0/
-->
<svg
   xmlns:dc="http://purl.org/dc/elements/1.1/"
   xmlns:cc="http://creativecommons.org/ns#"
   xmlns:rdf="http://www.w3.org/1999/02/22-rdf-syntax-ns#"
   xmlns:svg="http://www.w3.org/2000/svg"
   xmlns="http://www.w3.org/2000/svg"
   version="1.1"
   id="svg2"
   viewBox="0 0 372.04724 372.04724"
   height="105mm"
   width="105mm">
  <defs
     id="defs4" />
  <metadata
     id="metadata7">
    <rdf:RDF>
      <cc:Work
         rdf:about="">
        <dc:format>image/svg+xml</dc:format>
        <dc:type
           rdf:resource="http://purl.org/dc/dcmitype/StillImage" />
        <dc:title></dc:title>
      </cc:Work>
    </rdf:RDF>
  </metadata>
  <g
     transform="translate(-20,-664.31496)"
     id="layer1">
    <g
       transform="matrix(0.84240531,0,0,0.84240531,92.171344,761.27)"
       id="g4558">
      <path
         style="fill:#72a7cf;fill-rule:evenodd;stroke:#568cbc;stroke-width:9;stroke-linejoin:round"
         d="m 4.5,216.77 0,-177.53 82.467,0 -0.0039,17.257 127.16,0 0,160.27 z"
         id="path4548" />
      <g
         transform="matrix(0.75657259,0,0,0.75657259,-12.213224,-23.139671)"
         id="g4200">
        <g
           id="page"
           transform="matrix(0,1,-1,0,0,0)"
           style="fill:#ffffff;fill-opacity:1;stroke:#0d47a1;stroke-width:9;stroke-linejoin:round;stroke-miterlimit:4;stroke-dasharray:none;stroke-opacity:1" >
          <path
             d="m 31.716456,-269.66678 168.247494,0 0,158.29218 -209.5699175,0 0,-117.63234 z"
             id="page_back" />
          <path
             d="m 32.170524,-228.48147 -0.454068,-41.18531 168.247494,0 0,158.29218 -209.5699175,0 0,-117.63234 z"
             id="page_front" />
        </g>
        <g
           transform="matrix(0.19416808,0,0,0.19416808,117.65878,-9.2244492)"
           id="layer1-3"
           style="fill:#000000;fill-opacity:1;stroke:none;stroke-opacity:1">
          <g
             style="display:inline;fill:#72a7cf;stroke:none;stroke-width:4.19999981;stroke-miterlimit:4;stroke-dasharray:none;stroke-opacity:1;fill-opacity:1"
             id="g4472"
             transform="translate(5.6050492,-13.31254)">
            <path
               id="path2962"
               d="m 348.63773,112.05793 c -1.3284,0.0155 -7.3595,2.06215 -14.0172,4.7712 -13.0774,5.32117 -15.4629,5.96233 -16.0324,4.35631 -0.1739,-0.49023 -3.5266,-1.25731 -7.4384,-1.68918 -6.1281,-0.67657 -8.521,-0.45107 -17.3067,1.65954 -12.0056,2.88418 -15.4898,5.35112 -15.7064,11.11303 -0.2015,5.36006 -2.8401,8.25449 -7.8532,8.56445 -4.4476,0.27498 -10.3425,-2.46855 -10.3425,-4.80083 0,-0.67757 -1.2955,-2.0132 -2.9042,-2.96348 -2.5684,-1.5172 -3.4439,-1.56053 -7.1124,-0.53342 -2.2977,0.64331 -5.4036,0.92257 -6.9049,0.62233 -2.6518,-0.53038 -2.757,-0.40375 -3.5858,4.38594 -0.5922,3.42271 -0.4544,7.32543 0.4446,12.77258 0.7121,4.31517 1.0364,8.47588 0.7408,9.24604 -1.2374,3.22467 -13.1592,0.27894 -12.3577,-3.05238 1.4214,-5.90722 -7.1438,-3.80944 -11.5279,2.8153 -1.4229,2.15019 -2.7821,5.62984 -3.0227,7.7643 -0.4113,3.64921 -0.2171,4.04853 3.3487,6.51965 3.4243,2.37305 3.8577,3.1508 4.4452,7.85321 0.7228,5.78515 -0.2766,7.94211 -3.6747,7.94211 -2.5058,0 -5.3046,-4.37797 -5.3046,-8.29773 0,-1.59479 -0.7997,-3.54144 -1.8966,-4.53412 -1.8268,-1.65321 -2.1677,-1.66013 -6.9642,-0.14817 -3.0068,0.94779 -6.0725,2.74595 -7.5865,4.44521 -5.9336,6.65939 -16.7276,0.81348 -16.7436,-9.06823 -0.005,-3.16141 -0.4915,-4.23075 -2.7857,-5.92695 -2.524,-1.86612 -3.1365,-1.95193 -6.3418,-0.88904 -2.8352,0.94012 -3.7321,1.81918 -4.386,4.3563 -0.654,2.5376 -0.4892,3.41352 0.8002,4.35631 3.6783,2.68968 -0.984,17.41477 -6.6975,21.12958 -4.6118,2.99847 -11.5314,17.3285 -9.7498,20.18126 0.661,1.05843 1.9309,2.13994 2.8449,2.43005 3.2863,1.04303 0.8755,7.57735 -2.5486,6.9049 -1.9769,-0.38824 -2.7137,-1.57583 -4.3563,-7.14197 -0.8451,-2.86399 -1.7862,-4.09744 -3.408,-4.50449 -2.3668,-0.59402 -3.0006,-3.19307 -1.215,-4.97863 0.5657,-0.56574 0.8858,-2.02895 0.7112,-3.25983 -0.41,-2.89167 -6.1419,-5.81514 -8.7126,-4.44521 -2.8452,1.51623 -6.8524,-0.84301 -12.091,-7.11234 -4.2099,-5.03838 -4.726,-6.1088 -4.1488,-8.65335 0.362,-1.59604 0.7263,-5.67801 0.8001,-9.06823 0.1322,-6.06863 0.098,-6.16305 -2.4893,-6.46037 -2.731,-0.31385 -9.2461,3.02527 -9.2461,4.74156 0,0.52913 -2.0163,4.64683 -4.4748,9.15713 -2.959804,5.42976 -4.363204,9.08531 -4.178504,10.84632 0.1841,1.75509 -0.9517,4.72564 -3.3487,8.74225 -3.4594,5.79674 -5.6161,7.52235 -10.2833,8.23846 -1.0794,0.16563 -2.4746,1.65325 -3.2598,3.43763 -1.1791,2.67934 -1.7308,3.0493 -3.7933,2.54859 -1.3274,-0.32224 -4.0118,-1.63202 -5.9565,-2.9042 -4.855,-3.17597 -9.0038,-2.98798 -13.9877,0.62233 -3.3347,2.41566 -4.5942,2.81169 -7.2605,2.31151 -2.4325,-0.45635 -3.9028,-0.1288 -5.9565,1.33356 -3.6952,2.63119 -10.0718,2.66935 -11.4687,0.0593 -1.3675,-2.55512 -3.4393,-2.41281 -4.1192,0.29635 -0.6259,2.49374 -4.728,4.75605 -7.2013,3.97105 -0.9075,-0.28804 -2.7829,0.38401 -4.1785,1.48174 -2.0622,1.62215 -2.5189,2.75179 -2.5189,6.25293 0,3.83214 0.593,4.98085 5.6898,11.14267 3.1596,3.81973 5.6899,7.81657 5.6899,8.97933 0,1.15167 1.0474,3.02867 2.3115,4.1785 9.1193,8.29504 8.4134,7.10864 7.8236,13.42454 -0.2959,3.16817 -0.8068,6.49943 -1.1558,7.40869 -0.3489,0.90927 -4.1223,3.39901 -8.3866,5.51206 -6.6229,3.28178 -8.1244,3.70661 -10.3129,2.87457 -2.0145,-0.76593 -3.5071,-0.58008 -6.9345,0.88905 -2.3973,1.02759 -4.9508,1.86698 -5.6899,1.86698 -0.7391,0 -1.3632,0.64012 -1.3632,1.42247 0,0.78236 0.3438,1.42247 0.7705,1.42247 0.4267,0 2.4652,3.76888 4.5045,8.38663 4.2669,9.66167 8.2359,13.42454 14.1654,13.42455 5.565,0 7.1124,1.34153 7.1124,6.07512 0,2.50695 -0.6666,4.9907 -1.7189,6.37147 -0.9479,1.24387 -3.4637,5.31784 -5.6009,9.06823 l -3.8822,6.816 1.0076,6.93453 c 0.7907,5.33071 1.7779,7.93951 4.2081,11.32047 3.557,4.94861 4.0687,5.34927 16.2102,12.09098 9.9565,5.52842 14.2699,6.14611 21.2185,2.99311 4.5507,-2.0649 7.9256,-2.52219 6.9346,-0.91868 -0.3463,0.56018 0.2918,1.99706 1.4224,3.20056 1.9126,2.03584 1.9699,2.44041 0.7113,5.45279 -0.7441,1.78076 -3.8111,5.88187 -6.816,9.1275 l -5.4825,5.89732 1.1854,4.23777 1.2151,4.2674 7.3494,0 c 5.1943,0 7.6547,-0.40993 8.4459,-1.3632 0.6154,-0.74158 2.9105,-1.62085 5.0972,-1.98552 7.5553,-1.26001 19.6181,-8.63156 19.6182,-11.97244 0,-2.20149 6.164804,-14.61767 7.734604,-15.58788 0.6195,-0.38283 2.4291,-0.94681 4.0304,-1.2743 2.9745,-0.60835 4.7825,-3.04902 5.7195,-7.70503 0.7233,-3.59444 6.1455,-8.69345 13.0985,-12.29842 l 6.1048,-3.17092 13.6616,3.5858 c 16.6289,4.34435 18.4911,5.01581 22.1668,8.1792 9.4486,8.13175 20.6347,14.99651 29.8718,18.31427 5.322,1.91155 10.4458,3.46726 11.4094,3.46727 2.1949,0 9.9757,8.69538 12.2984,13.75052 1.2318,2.68089 1.9446,7.32825 2.4301,15.88423 0.3778,6.65831 1.053,12.34112 1.5113,12.6244 0.4584,0.28329 0.8298,1.50851 0.8298,2.69676 0,1.2246 1.6676,3.86873 3.8229,6.1344 7.0132,7.37243 10.8295,18.23194 9.7498,27.67885 -0.3913,3.42457 0.01,5.34555 1.9263,9.12751 2.2037,4.34874 2.7835,4.83133 6.3122,5.30462 5.2939,0.71005 6.9617,2.23487 6.2529,5.77877 -0.4662,2.33106 -0.0378,3.40948 2.4597,5.98622 1.6737,1.72685 3.4791,3.14128 4.0007,3.14128 4.4416,0 18.581,16.42081 18.581,21.5741 0,2.29205 -0.4329,3.02442 -2.0152,3.25982 -4.9587,0.73774 -4.6051,6.02279 0.5334,7.85321 2.2154,0.78915 2.853,0.60018 4.3564,-1.39283 2.2102,-2.93024 6.6924,-2.75482 12.5355,0.50379 2.2244,1.24054 5.5167,2.99467 7.3197,3.91179 4.0666,2.06843 10.4632,8.56136 10.4907,10.63887 0.0113,0.84986 1.4047,4.31484 3.1117,7.70504 2.7985,5.55808 3.4374,6.18247 6.3122,6.46037 5.1322,0.49616 16.5043,8.75769 18.907,13.72089 1.1008,2.27399 1.9855,4.78437 1.9855,5.60097 0,0.81656 1.3869,2.54828 3.082,3.85252 5.6085,4.31527 14.4217,13.28118 17.8401,18.1661 3.175,4.53709 3.8801,5.00584 12.3281,7.91248 7.801,2.68406 9.4779,3.66571 12.9504,7.58649 2.1937,2.47694 4.114,5.35799 4.2674,6.40111 0.2032,1.3823 1.1166,1.97304 3.408,2.19297 1.7291,0.16599 3.6934,-0.16109 4.3563,-0.71123 0.6629,-0.55018 2.8781,-1.56409 4.9193,-2.28188 3.3685,-1.1845 4.4053,-1.09453 11.2909,0.91868 7.9235,2.31668 12.3602,2.79065 13.1874,1.4521 1.0017,-1.62066 6.1082,0.13125 8.8312,3.02275 3.2202,3.4196 9.6369,13.60562 13.8394,21.95935 1.5744,3.12943 3.3996,6.75674 4.06,8.06065 0.9494,1.8746 2.0501,2.42956 5.2453,2.66713 2.2225,0.16525 4.9609,-0.17416 6.0752,-0.77051 1.7355,-0.92883 2.7819,-0.58959 7.3494,2.51896 6.8568,4.66666 7.2777,5.8451 3.3487,9.09786 -5.9652,4.93846 -6.4604,5.45817 -6.4604,6.87527 0,1.94408 2.6758,1.77237 6.7568,-0.41489 2.4009,-1.28686 4.5095,-1.65702 7.1419,-1.30393 2.7272,0.36579 4.0862,0.0739 5.0083,-1.03722 0.6942,-0.83643 2.0684,-1.51135 3.082,-1.51137 1.0136,0 2.7314,-0.4689 3.7933,-1.03721 2.8878,-1.54554 6.9365,2.77721 11.3501,12.09097 4.0944,8.64016 4.215,9.32897 2.3115,13.2171 -2.8696,5.8615 -2.2935,8.38879 2.6078,11.26121 2.2625,1.32591 4.7163,2.39568 5.4528,2.40041 0.7366,0.005 5.0256,3.41869 9.5424,7.5865 4.5168,4.16783 8.9976,7.5865 9.9573,7.58649 0.9597,-10e-6 2.959,-1.49362 4.4156,-3.31909 4.6462,-5.82308 10.2695,-3.71791 15.2026,5.68987 2.6938,5.13738 3.2628,7.42523 4.1192,16.12131 0.5884,5.97409 4.4634,14.57093 9.8091,21.81117 3.4247,4.63848 5.6603,11.64259 5.6603,17.66232 0,5.4231 2.9466,18.25099 5.1861,22.58167 0.8874,1.71602 2.4392,3.32471 3.4376,3.58581 2.3907,0.62519 2.469,7.0007 0.1482,11.64646 -1.6201,3.24299 -1.758,3.31124 -6.6382,2.99311 -4.3132,-0.2812 -5.6435,0.0913 -9.7499,2.72639 -4.0613,2.60614 -6.6085,5.25406 -6.6085,6.9049 0,0.23424 0.8177,0.63015 1.8077,0.88904 0.99,0.25889 2.4571,1.49015 3.2598,2.7264 1.2694,1.95501 1.3014,2.94698 0.2075,7.61613 -1.8443,7.87211 -5.8618,14.70311 -9.335,15.91386 -3.7204,1.29697 -4.4748,1.24989 -4.4748,-0.23708 0,-0.6746 -1.6436,-1.65084 -3.6747,-2.19297 -3.5284,-0.94178 -4.3416,-0.68918 -17.8401,6.04549 l -14.1062,7.05307 -3.7636,-1.57064 c -2.0641,-0.86753 -5.9942,-1.56631 -8.7422,-1.57064 -4.2752,-0.007 -5.6874,0.49302 -9.7795,3.4969 -8.4702,6.21765 -24.5988,9.17032 -38.6734,7.11234 -7.5159,-1.09897 -7.7898,-1.06039 -11.8242,1.30393 -6.5826,3.85765 -10.4817,3.34555 -22.0779,-2.87457 -7.9244,-4.25058 -9.8684,-5.67305 -9.8684,-7.34942 0,-1.14735 -0.6159,-2.96342 -1.3632,-4.03033 -1.2806,-1.82831 -1.755,-1.87779 -8.5052,-0.91868 -5.7563,0.81788 -7.67,1.50014 -9.7498,3.58581 -2.0288,2.03448 -2.3544,2.86126 -1.4521,3.76361 0.633,0.633 1.1558,1.48997 1.1558,1.89663 0,0.98049 -7.1012,4.56377 -9.0386,4.56375 -0.837,0 -3.5396,-2.08065 -6.0159,-4.62302 l -4.5045,-4.62302 -5.7788,3.43763 c -3.19,1.89037 -6.6413,4.5045 -7.6457,5.80841 -2.4657,3.2011 -4.381,9.29164 -4.0896,12.95038 0.1553,1.95052 -0.2894,3.30136 -1.2743,3.85252 -1.3241,0.74101 -1.3675,1.48382 -0.3556,5.86768 0.9925,4.29992 1.9609,5.74713 6.8752,10.19436 l 5.7195,5.18608 8.3274,-0.65197 c 7.9236,-0.61984 8.506,-0.5499 11.8835,1.77809 1.9512,1.34484 5.4469,2.86487 7.794,3.37836 3.321,0.7266 5.2138,1.98668 8.5348,5.66024 3.9696,4.39104 15.858,11.52796 19.2033,11.52786 0.6779,0 3.0189,1.8755 5.1861,4.1785 2.2249,2.3643 6.5891,5.4625 10.0462,7.1124 5.6572,2.6999 6.676,2.8948 13.1282,2.3708 6.313,-0.5127 7.3716,-0.3473 11.2315,1.8373 5.8696,3.3221 11.1134,8.6498 14.61,14.847 2.7463,4.8675 3.5673,5.5101 12.2984,9.8684 8.5442,4.265 9.6529,4.6121 12.8318,3.7636 4.1399,-1.105 12.3677,0.6135 13.8395,2.9042 1.1966,1.8626 5.1032,1.9266 5.8084,0.0889 0.2938,-0.7658 -0.1752,-3.2548 -1.0372,-5.512 -1.4771,-3.8678 -1.4651,-4.3768 0.1778,-8.8016 1.3947,-3.7564 2.7397,-5.3438 6.6974,-8.0013 4.9451,-3.3205 4.9458,-3.3297 4.7119,-8.0607 -0.1913,-3.8704 -0.5611,-4.8034 -2.104,-5.0972 -4.0861,-0.778 -10.806,-14.74033 -11.0538,-22.99653 -0.1543,-5.14314 0.0884,-5.96499 2.2819,-7.79394 2.6516,-2.21093 5.4231,-10.16253 5.4232,-15.55824 0,-3.40671 3.6677,-9.46831 12.8911,-21.33702 3.1913,-4.10663 5.7437,-8.69141 7.1123,-12.80221 1.1727,-3.52239 2.3065,-5.76098 2.519,-4.97864 0.2125,0.78236 0.8358,2.35057 1.3928,3.4969 0.5816,1.19685 0.7909,4.75066 0.5038,8.32736 -0.4686,5.83782 -0.3141,6.38652 2.1633,9.0386 1.4538,1.55631 3.2083,2.87197 3.9118,2.90421 17.1552,0.78644 20.329,0.66737 21.9594,-0.80014 2.3336,-2.10048 4.1888,-6.49022 4.8897,-11.58719 0.8168,-5.9403 10.3126,-17.50247 15.1137,-18.40318 1.9353,-0.36307 4.7995,-2.14148 7.1124,-4.38594 3.7897,-3.67782 3.8931,-3.91164 3.8821,-10.16472 -0.006,-3.52119 -0.6109,-8.63589 -1.3336,-11.35011 -1.9092,-7.17112 0.226,-11.13557 8.7719,-16.29911 8.6893,-5.25011 14.0827,-6.80966 19.0552,-5.48243 2.124,0.56693 3.8525,1.36427 3.8525,1.77809 0,0.41382 0.6238,0.77052 1.3928,0.7705 3.563,0 5.6809,-10.89007 2.845,-14.63957 -1.7232,-2.27828 -1.9064,-16.60255 -0.2964,-22.99656 1.0304,-4.09189 0.9632,-4.45306 -1.1854,-6.10476 -1.2527,-0.96301 -3.7755,-2.43102 -5.6009,-3.28946 -1.8255,-0.85841 -6.5805,-4.07691 -10.5796,-7.14197 -6.1768,-4.73404 -7.8603,-5.57132 -11.202,-5.57134 -2.1636,0 -4.7716,-0.43891 -5.7788,-0.97794 -1.9839,-1.06175 -5.6306,-7.48976 -5.6306,-9.92765 0,-0.82769 1.7296,-4.63184 3.8229,-8.4459 3.1151,-5.67581 3.7569,-7.75896 3.6155,-11.49828 -0.1523,-4.02507 0.189,-4.87402 2.7264,-7.02344 2.9468,-2.49621 5.9565,-7.46117 5.9565,-9.8091 0,-0.72179 1.707,-3.74882 3.7933,-6.72709 2.0863,-2.97828 3.7932,-5.72153 3.7932,-6.10476 0,-1.19736 6.9559,-7.92412 8.9794,-8.68298 1.0593,-0.39727 4.7572,-0.3234 8.2088,0.17781 l 6.2826,0.91868 -2.2819,2.43005 c -1.2482,1.34684 -2.1239,2.87433 -1.9559,3.37836 0.168,0.50402 3.705,2.87044 7.8532,5.27498 6.6851,3.87497 8.12,4.37886 12.7429,4.23777 7.2023,-0.21979 18.9015,1.4769 21.3963,3.11165 3.2424,2.12447 8.3314,14.02984 7.794,18.22537 -0.2446,1.90927 0.044,4.64979 0.6519,6.10476 1.5339,3.67116 9.6203,10.15285 12.7133,10.19436 1.3776,0.0185 3.5562,0.64746 4.8601,1.39283 1.304,0.74539 3.331,1.37434 4.5045,1.39283 1.9806,0.0312 2.1337,-0.37993 2.1337,-5.68987 0,-6.49039 1.4785,-10.735 5.0972,-14.63957 3.3025,-3.56344 3.1496,-6.40812 -0.7409,-14.84701 -3.3744,-7.31966 -7.2719,-11.65413 -19.5293,-21.663 -4.6428,-3.79116 -6.4261,-5.95368 -7.2605,-8.77188 -1.3209,-4.46176 -2.774,-5.65019 -10.224,-8.38664 -3.1089,-1.14194 -9.7291,-3.97596 -14.6988,-6.28257 -7.5642,-3.51077 -10.3428,-5.48365 -17.0993,-12.06134 -8.6778,-8.44822 -11.2299,-9.88506 -30.3756,-17.30669 -17.5276,-6.79438 -21.548,-8.62164 -35.5617,-16.09167 -7.302,-3.89235 -14.2125,-7.31891 -15.3804,-7.61613 -1.1679,-0.29722 -3.44,-2.0326 -5.0379,-3.85252 -2.4004,-2.73386 -2.8452,-3.96442 -2.6079,-7.17161 0.2732,-3.69276 0.5464,-4.0384 5.8381,-6.72709 3.0594,-1.5545 7.0068,-4.28728 8.7719,-6.10476 3.696,-3.80572 4.0829,-7.0368 1.6002,-13.03929 -2.1085,-5.0979 -5.649,-6.26622 -15.4693,-5.12681 -12.6881,1.47216 -43.4543,2.24711 -45.7561,1.15576 -1.1626,-0.55122 -3.4692,-1.51176 -5.1268,-2.13371 -1.6576,-0.62196 -3.2358,-1.69045 -3.4969,-2.37078 -0.261,-0.68033 -2.7366,-1.98651 -5.512,-2.9042 -9.1128,-3.01304 -14.0766,-7.09055 -14.0765,-11.58719 0,-1.74062 -2.2109,-3.32554 -6.1641,-4.41558 -1.0504,-0.28966 -8.3619,-6.82392 -16.2398,-14.52102 -15.5376,-15.1808 -19.9379,-21.38447 -24.0634,-33.90216 -1.2033,-3.651 -2.9827,-8.63963 -3.9415,-11.08339 -0.9587,-2.44377 -1.7484,-5.95928 -1.7484,-7.79394 0,-3.22521 -5.107,-18.04785 -11.8539,-34.34668 -1.7975,-4.34226 -3.0601,-8.47175 -2.7857,-9.18677 0.5793,-1.50945 -4.928,-7.2472 -7.1123,-7.40869 -2.6142,-0.19327 -3.2951,-0.39707 -6.9345,-2.01516 -4.0406,-1.79641 -10.3237,-6.74666 -20.3591,-16.09167 -9.6871,-9.02059 -14.0111,-11.93318 -18.8181,-12.65404 -3.7277,-0.559 -5.0855,-1.57156 -12.4169,-9.27568 -4.5248,-4.75472 -9.0937,-10.12756 -10.1648,-11.9428 -4.8248,-8.17747 -9.9268,-37.86451 -8.031,-46.70437 1.0791,-5.03169 1.6717,-5.4949 3.4377,-2.66712 0.6514,1.04314 2.0432,1.89661 3.082,1.89662 1.472,0 1.9145,-0.67982 2.0151,-3.08201 0.0974,-2.32253 0.2184,-2.53814 0.5335,-0.88905 0.6283,3.28882 2.3606,2.08144 5.3046,-3.6747 3.1256,-6.11131 3.1507,-10.70533 0.0889,-11.14267 -2.8316,-0.40446 -7.7902,-5.87963 -14.9952,-16.56583 l -6.2529,-9.27567 3.7932,-7.52723 c 3.3905,-6.74329 4.4626,-7.99933 10.0758,-11.765 5.4465,-3.65375 6.5868,-4.08812 8.5348,-3.20055 1.6848,0.76762 2.0024,1.33928 1.2447,2.25224 -0.5556,0.6695 -1.5709,1.00235 -2.2522,0.74087 -2.2806,-0.87513 -12.8615,11.23992 -12.8615,14.72847 0,2.10464 1.6029,0.94401 3.1413,-2.28187 0.8705,-1.8255 2.2893,-3.3191 3.1412,-3.3191 0.852,0 6.0711,-2.42303 11.6169,-5.39352 20.5744,-11.02031 25.9888,-13.57272 28.8049,-13.57272 2.8673,0 2.8831,-0.0381 2.3115,-4.20813 -0.45,-3.28347 -0.2026,-4.65736 1.1854,-6.37147 l 1.7781,-2.19297 6.4308,1.71881 c 3.5379,0.94274 7.2898,2.29601 8.3273,3.02275 1.6955,1.18752 1.722,1.37921 0.2964,1.92626 -2.0292,0.77865 -2.0751,3.25982 -0.0593,3.25982 0.8417,0 3.1888,-0.93525 5.2157,-2.07443 2.8648,-1.61011 3.6747,-2.65573 3.6747,-4.65266 0,-1.41287 0.6172,-2.79576 1.3632,-3.08201 2.0764,-0.79678 8.6555,4.4789 11.3798,9.1275 3.0037,5.12545 3.0029,5.42316 0.0592,5.42316 -1.4751,0 -2.3708,0.53738 -2.3707,1.42247 0,2.41793 9.3035,1.91099 12.0317,-0.65197 2.2414,-2.10573 2.8567,-4.14565 1.3928,-4.71192 -0.4495,-0.17386 -2.1265,-2.42763 -3.7043,-4.97864 -2.4108,-3.89781 -3.8194,-5.02122 -8.8905,-7.17161 -4.5589,-1.93324 -6.2737,-3.20804 -6.9641,-5.15645 -0.6823,-1.9251 -0.5706,-2.78761 0.3852,-3.37836 0.7043,-0.43526 1.4926,-2.96716 1.7485,-5.6306 0.4241,-4.41366 0.2762,-4.83047 -1.5114,-4.83047 -1.0787,0 -2.2263,0.42674 -2.5486,0.94832 -0.898,1.45301 -3.0273,1.12407 -3.6747,-0.56306 -0.7832,-2.04094 1.8242,-6.26162 5.275,-8.50518 4.3191,-2.80813 6.389,-9.88391 2.9042,-9.92764 -0.9128,-0.0114 -3.5317,-0.87994 -5.8381,-1.92626 -2.8719,-1.30292 -4.5183,-1.58638 -5.186,-0.91867 -1.5487,1.54867 -2.2229,1.16689 -3.2599,-1.80772 -0.9034,-2.59169 -0.6628,-3.07363 3.4673,-6.93454 2.4383,-2.27933 6.6622,-5.39975 9.3942,-6.93453 4.6141,-2.59207 6.8753,-5.67267 6.8753,-9.36458 0,-1.7152 -11.4937,-4.34591 -21.5741,-4.91937 -9.493,-0.54003 -30.1676,-4.30989 -34.3763,-6.28256 -1.3039,-0.61116 -3.4376,-1.24984 -4.7416,-1.39284 -17.2306,-1.88966 -19.8508,-3.09152 -23.7374,-10.87595 -2.9446,-5.89771 -7.0955,-11.20194 -8.7423,-11.20194 -1.4086,0 -3.1474,-2.20391 -4.2674,-5.42315 -1.1214,-3.22346 -1.036,-3.40477 3.082,-5.51207 2.2628,-1.15792 3.113,-5.92816 1.1854,-6.66782 -0.0454,-0.0174 -0.1189,-10e-4 -0.2074,0 z m 15.7657,274.71414 c 0.1828,-0.009 0.3231,0.0268 0.4445,0.14817 0.3202,0.32023 0.3334,1.66488 0,2.99311 -0.6534,2.60319 -2.9007,3.26788 -3.734,1.09648 -0.4802,-1.25141 2.0101,-4.17582 3.2895,-4.23776 z"
               style="display:inline;fill:#72a7cf;fill-opacity:1;stroke:none;stroke-width:4.19999981;stroke-miterlimit:4;stroke-dasharray:none;stroke-opacity:1" />
            <g
               style="fill:#72a7cf;fill-opacity:1;stroke:none;stroke-width:4.19999981;stroke-miterlimit:4;stroke-dasharray:none;stroke-opacity:1"
               id="g4398">
              <g
                 style="fill:#72a7cf;fill-opacity:1;stroke:none;stroke-width:4.19999981;stroke-miterlimit:4;stroke-dasharray:none;stroke-opacity:1"
                 id="g4393">
                <path
                   id="path2894"
                   d="m 331.02169,969.78997 c -2.59212,-3.64031 -1.61698,-6.09229 2.42288,-6.09229 3.47294,0 7.0854,4.48373 5.5668,6.90943 -1.83567,2.9322 -5.59359,2.54786 -7.98968,-0.81714 z"
                   style="fill:#72a7cf;fill-opacity:1;stroke:none;stroke-width:4.19999981;stroke-miterlimit:4;stroke-dasharray:none;stroke-opacity:1" />
                <path
                   id="path2890"
                   d="m 352.27848,881.1943 c -0.86209,-2.24658 1.02392,-3.65745 3.91814,-2.93105 1.68605,0.42317 2.40261,1.15897 2.19502,2.25393 -0.42032,2.2171 -5.3142,2.75917 -6.11316,0.67712 z"
                   style="fill:#72a7cf;fill-opacity:1;stroke:none;stroke-width:4.19999981;stroke-miterlimit:4;stroke-dasharray:none;stroke-opacity:1" />
                <path
                   id="path2888"
                   d="m 336.76265,876.9831 c 0,-2.36684 1.86275,-3.53216 2.93644,-1.83701 1.3828,2.18317 0.96025,3.67767 -1.03982,3.67767 -1.24519,0 -1.89662,-0.63222 -1.89662,-1.84066 z"
                   style="fill:#72a7cf;fill-opacity:1;stroke:none;stroke-width:4.19999981;stroke-miterlimit:4;stroke-dasharray:none;stroke-opacity:1" />
              </g>
              <g
                 style="fill:#72a7cf;fill-opacity:1;stroke:none;stroke-width:4.19999981;stroke-miterlimit:4;stroke-dasharray:none;stroke-opacity:1"
                 id="g4384">
                <path
                   id="path2886"
                   d="m 516.04201,844.30079 c -0.67123,-1.25419 -0.94015,-2.73382 -0.59761,-3.28807 0.34255,-0.55425 -0.24723,-1.55107 -1.31061,-2.21517 -2.26194,-1.41261 -2.50903,-3.83451 -0.55651,-5.45496 2.51232,-2.08504 4.77497,-0.78766 4.91961,2.82086 0.0729,1.81795 0.60629,4.50667 1.18539,5.97495 1.44848,3.67258 1.32999,4.44275 -0.68348,4.44275 -0.95501,0 -2.28557,-1.02616 -2.95679,-2.28036 z"
                   style="fill:#72a7cf;fill-opacity:1;stroke:none;stroke-width:4.19999981;stroke-miterlimit:4;stroke-dasharray:none;stroke-opacity:1" />
                <path
                   id="path2882"
                   d="m 507.96013,832.01945 c -2.33796,-1.70956 -1.24656,-4.40454 1.78373,-4.40454 2.81688,0 3.49224,0.88334 2.77432,3.62868 -0.61939,2.36855 -2.04747,2.61164 -4.55805,0.77586 z"
                   style="fill:#72a7cf;fill-opacity:1;stroke:none;stroke-width:4.19999981;stroke-miterlimit:4;stroke-dasharray:none;stroke-opacity:1" />
                <path
                   id="path2880"
                   d="m 405.04111,819.58762 c 0,-0.76401 0.85982,-1.84926 1.9107,-2.41167 1.49332,-0.7992 2.02955,-0.71284 2.45481,0.39538 0.29927,0.77987 0.26775,1.86513 -0.07,2.41167 -0.9277,1.50103 -4.29548,1.19104 -4.29548,-0.39538 z"
                   style="fill:#72a7cf;fill-opacity:1;stroke:none;stroke-width:4.19999981;stroke-miterlimit:4;stroke-dasharray:none;stroke-opacity:1" />
                <path
                   id="path2878"
                   d="m 530.69923,813.40119 c -0.80477,-1.30215 1.18167,-3.80421 3.02023,-3.80421 1.92824,0 1.19063,4.16719 -0.80488,4.5473 -0.86413,0.1646 -1.86103,-0.16979 -2.21535,-0.74309 z"
                   style="fill:#72a7cf;fill-opacity:1;stroke:none;stroke-width:4.19999981;stroke-miterlimit:4;stroke-dasharray:none;stroke-opacity:1" />
                <path
                   id="path2868"
                   d="m 469.52633,671.7882 c 0,-0.81005 1.1884,-1.55224 2.88394,-1.80109 2.25209,-0.33054 2.82168,-0.0944 2.59975,1.07776 -0.37302,1.97018 -5.48369,2.64432 -5.48369,0.72333 z"
                   style="fill:#72a7cf;fill-opacity:1;stroke:none;stroke-width:4.19999981;stroke-miterlimit:4;stroke-dasharray:none;stroke-opacity:1" />
                <path
                   id="path2866"
                   d="m 448.85313,659.57402 c -1.52619,-1.52618 -1.4338,-3.17228 0.27386,-4.87996 2.75298,-2.75296 9.61034,1.81219 7.60237,5.06114 -0.82252,1.33086 -6.49467,1.20038 -7.87623,-0.18118 z"
                   style="fill:#72a7cf;fill-opacity:1;stroke:none;stroke-width:4.19999981;stroke-miterlimit:4;stroke-dasharray:none;stroke-opacity:1" />
                <path
                   id="path2862"
                   d="m 392.29179,644.67627 c -0.78542,-1.27085 0.34897,-3.64817 2.05279,-4.30198 2.02652,-0.77766 2.36114,-0.22739 1.63092,2.68203 -0.61124,2.43533 -2.63087,3.32349 -3.68371,1.61995 z"
                   style="fill:#72a7cf;fill-opacity:1;stroke:none;stroke-width:4.19999981;stroke-miterlimit:4;stroke-dasharray:none;stroke-opacity:1" />
              </g>
              <g
                 style="fill:#72a7cf;fill-opacity:1;stroke:none;stroke-width:4.19999981;stroke-miterlimit:4;stroke-dasharray:none;stroke-opacity:1"
                 id="g4372">
                <path
                   id="path2876"
                   d="m 136.77294,804.48022 c -1.69291,-0.93831 -2.93388,-1.00446 -4.90261,-0.26135 -3.4392,1.29816 -4.78514,0.15829 -7.6626,-6.48937 -2.72603,-6.29781 -4.79195,-6.75309 -6.39311,-1.40889 -1.92019,6.40903 -5.32708,4.11371 -8.16104,-5.4983 -0.80757,-2.73906 0.92598,-4.93313 3.8977,-4.93313 2.83231,0 2.81887,-0.50374 -0.11611,-4.3517 -2.86376,-3.75459 -2.90699,-4.35219 -0.47415,-6.55389 2.32485,-2.10396 2.44815,-4.81282 0.27443,-6.02929 -2.05429,-1.14964 -1.83132,-5.57958 0.74257,-14.75397 1.44033,-5.13387 1.7375,-8.1402 1.26036,-12.75057 -0.47812,-4.61979 -0.31819,-6.2267 0.68284,-6.86073 1.93417,-1.22508 2.72967,-1.03726 2.72967,0.64448 0,0.82583 0.53188,1.3242 1.18197,1.10751 1.41713,-0.47238 2.66681,-6.93565 1.93946,-10.03077 -0.48468,-2.06247 -0.82803,-2.16347 -5.27548,-1.55178 l -4.75707,0.65425 0.61194,-4.61299 c 0.33656,-2.53715 1.46483,-6.85763 2.50725,-9.60105 2.95402,-7.77436 2.60383,-17.35941 -0.96221,-26.33638 -5.22987,-13.16545 -7.16134,-16.28799 -10.36594,-16.75833 -2.2068,-0.32388 -3.00691,-0.007 -3.44122,1.36093 -0.311238,0.98061 -1.063098,1.61933 -1.670805,1.41937 -1.495678,-0.49213 -1.987282,-4.45352 -0.711044,-5.72976 1.254778,-1.25477 1.354388,-5.62329 0.156443,-6.86071 -0.532079,-0.5496 -0.292194,-3.85914 0.615179,-8.48739 2.137627,-10.90344 3.524587,-12.19988 7.123517,-6.65857 2.43749,3.75304 5.78802,5.2361 11.82939,5.2361 4.74081,0 7.24337,-1.08879 10.12797,-4.40636 1.22016,-1.40329 3.47095,-2.51653 5.78948,-2.86346 3.62212,-0.54199 8.06066,-3.46556 8.06066,-5.30937 0,-2.02194 9.14136,-11.34037 13.39717,-13.65667 3.30695,-1.79987 4.62075,-3.09223 4.62075,-4.54533 0,-2.50598 1.697,-4.30635 4.05909,-4.30635 0.98073,0 6.34824,2.3351 11.92781,5.18911 9.80976,5.01782 10.22986,5.36288 12.72603,10.45245 3.19849,6.5216 3.19713,7.01667 -0.0265,9.65605 -2.03703,1.66786 -2.24882,2.14269 -0.96758,2.16933 2.73722,0.0569 10.21362,16.8083 10.21362,22.88433 0,2.41058 0.76411,4.46507 2.37078,6.3745 1.30393,1.54964 2.37078,3.52921 2.37078,4.39906 0,3.31084 -3.16011,11.04882 -4.8904,11.97485 -3.11651,1.6679 -7.43765,8.50829 -7.43765,11.77382 0,1.80191 1.14837,4.72884 2.82768,7.20714 3.32537,4.9075 3.61811,9.06478 1.43988,20.44798 -0.78226,4.08806 -1.42237,11.21873 -1.42246,15.84593 -1.2e-4,5.98956 -0.84579,12.13601 -2.93572,21.33702 -1.61456,7.10816 -3.0551,14.99967 -3.20121,17.53667 -0.29666,5.15111 -1.36149,6.2569 -6.04577,6.27833 -2.33219,0.0107 -4.25029,-0.93324 -7.23476,-3.56027 -3.37712,-2.97267 -5.39831,-3.85194 -11.99942,-5.22012 -4.36603,-0.90493 -8.25829,-1.64334 -8.64947,-1.64092 -1.03572,0.006 -0.87002,6.75716 0.29976,12.21165 1.22642,5.71857 0.0726,8.49582 -5.69389,13.70552 -4.07368,3.68033 -6.67045,4.22073 -10.38597,2.16139 z"
                   style="fill:#72a7cf;fill-opacity:1;stroke:none;stroke-width:4.19999981;stroke-miterlimit:4;stroke-dasharray:none;stroke-opacity:1" />
                <path
                   id="path2872"
                   d="m 103.11281,786.3967 c -2.12236,-3.23912 -1.95197,-3.89652 1.36615,-5.27093 3.81324,-1.5795 5.1345,-0.28043 4.29051,4.21841 -0.76768,4.0921 -3.35021,4.57262 -5.65666,1.05252 z"
                   style="fill:#72a7cf;fill-opacity:1;stroke:none;stroke-width:4.19999981;stroke-miterlimit:4;stroke-dasharray:none;stroke-opacity:1" />
                <path
                   id="path2860"
                   d="m 101.99047,634.55462 c 0.71053,-2.831 4.69114,-9.40219 6.29658,-10.39442 1.44146,-0.89086 2.74473,1.28181 2.76282,4.60588 0.0113,2.07225 -0.37617,2.60127 -1.73642,2.37083 -2.26377,-0.38351 -4.88724,1.81026 -4.88724,4.08677 0,1.00381 -0.66537,1.78052 -1.52528,1.78052 -1.1665,0 -1.38065,-0.57618 -0.91046,-2.44958 z"
                   style="fill:#72a7cf;fill-opacity:1;stroke:none;stroke-width:4.19999981;stroke-miterlimit:4;stroke-dasharray:none;stroke-opacity:1" />
              </g>
              <g
                 style="fill:#72a7cf;fill-opacity:1;stroke:none;stroke-width:4.19999981;stroke-miterlimit:4;stroke-dasharray:none;stroke-opacity:1"
                 id="g4377">
                <path
                   id="path2856"
                   d="m 228.65508,525.20484 c 0,-1.86547 2.37655,-3.34781 3.87882,-2.41935 0.47451,0.29326 0.86274,1.3615 0.86274,2.37386 0,1.33115 -0.65623,1.84065 -2.37078,1.84065 -1.69391,0 -2.37078,-0.51253 -2.37078,-1.79516 z"
                   style="fill:#72a7cf;fill-opacity:1;stroke:none;stroke-width:4.19999981;stroke-miterlimit:4;stroke-dasharray:none;stroke-opacity:1" />
                <path
                   id="path2854"
                   d="m 265.75214,524.74938 c -1.92938,-2.05373 -1.98292,-2.38205 -0.61203,-3.75295 1.93113,-1.93112 3.96135,-1.13437 4.70998,1.8484 1.11324,4.43552 -0.85909,5.35217 -4.09795,1.90455 z"
                   style="fill:#72a7cf;fill-opacity:1;stroke:none;stroke-width:4.19999981;stroke-miterlimit:4;stroke-dasharray:none;stroke-opacity:1" />
                <path
                   id="path2852"
                   d="m 215.39323,504.95175 c 0.0245,-2.00162 1.61165,-3.83526 2.7244,-3.14754 1.85143,1.14425 1.23158,4.33293 -0.84229,4.33293 -1.04315,0 -1.89009,-0.53343 -1.88211,-1.18539 z"
                   style="fill:#72a7cf;fill-opacity:1;stroke:none;stroke-width:4.19999981;stroke-miterlimit:4;stroke-dasharray:none;stroke-opacity:1" />
                <path
                   id="path2850"
                   d="m 235.19841,492.33486 c -2.38271,-2.3827 -2.4915,-2.39852 -6.61663,-0.96211 -7.48606,2.60671 -11.30644,1.40823 -11.30644,-3.54691 0,-2.26713 5.52419,-4.40729 8.60446,-3.3335 4.35674,1.51877 7.81993,0.63695 9.24726,-2.35462 2.12418,-4.45207 4.38174,-2.97397 4.72671,3.09475 0.31087,5.46881 -0.3356,9.52493 -1.51811,9.52493 -0.3931,0 -1.80486,-1.09015 -3.13725,-2.42254 z"
                   style="fill:#72a7cf;fill-opacity:1;stroke:none;stroke-width:4.19999981;stroke-miterlimit:4;stroke-dasharray:none;stroke-opacity:1" />
                <path
                   id="path2846"
                   d="m 198.87824,468.58437 c -0.66752,-1.7395 1.26155,-6.22805 2.90655,-6.763 1.70021,-0.55288 2.40591,3.0283 1.14297,5.80016 -1.27125,2.7901 -3.17468,3.24266 -4.04952,0.96284 z"
                   style="fill:#72a7cf;fill-opacity:1;stroke:none;stroke-width:4.19999981;stroke-miterlimit:4;stroke-dasharray:none;stroke-opacity:1" />
              </g>
            </g>
          </g>
        </g>
      </g>
      <path
         style="fill:#89b1d3;fill-rule:evenodd;stroke:#568cbc;stroke-width:9;stroke-linejoin:round"
         d="m 4.5,216.77 33.311,-92.876 59.313,0 25.188,-26.301 129.19,0 -35.75,119.18 z"
         id="path4550" />
    </g>
  </g>
</svg>
