<?xml version="1.0" encoding="UTF-8" standalone="no"?>
<!--
This work, "folder with file" is a derivative of
  - the folder icon "Folder 3 icon-72a7cf" (https://commons.wikimedia.org/wiki/File:Folder_3_icon-72a7cf.svg)
    by WikiMedia user "Offnfopt", used under public domain (or closest equivalent applicable) rights

This work, "folder with file" has been released into the public domain by its author HSR Hochschule für Technik Rapperswil.
This applies worldwide.
See https://creativecommons.org/publicdomain/zero/1.0/
-->
<svg
   xmlns:dc="http://purl.org/dc/elements/1.1/"
   xmlns:cc="http://creativecommons.org/ns#"
   xmlns:rdf="http://www.w3.org/1999/02/22-rdf-syntax-ns#"
   xmlns:svg="http://www.w3.org/2000/svg"
   xmlns="http://www.w3.org/2000/svg"
   version="1.1"
   id="svg2"
   viewBox="0 0 372.04724 372.04724"
   height="105mm"
   width="105mm">
  <defs
     id="defs4" />
  <metadata
     id="metadata7">
    <rdf:RDF>
      <cc:Work
         rdf:about="">
        <dc:format>image/svg+xml</dc:format>
        <dc:type
           rdf:resource="http://purl.org/dc/dcmitype/StillImage" />
        <dc:title></dc:title>
      </cc:Work>
    </rdf:RDF>
  </metadata>
  <g
     transform="translate(-20,-664.31496)"
     id="layer1">
    <g
       transform="translate(71.999078,746.49856)"
       id="g4558">
      <path
         style="fill:#72a7cf;fill-rule:evenodd;stroke:#568cbc;stroke-width:9;stroke-linejoin:round"
         d="m 4.5,216.77 0,-177.53 82.467,0 -0.0039,17.257 127.16,0 0,160.27 z"
         id="path4548" />
      <g
         id="page">
        <path
           transform="matrix(0,1,-1,0,0,0)"
           d="m 31.716456,-269.66678 168.247494,0 0,158.29218 -209.5699175,0 0,-117.63234 z"
           id="page_back"
           style="fill:#ffffff;fill-opacity:1;stroke:#568cbc;stroke-width:9;stroke-linejoin:round;stroke-miterlimit:4;stroke-dasharray:none;stroke-opacity:1" />
        <path
           transform="matrix(0,1,-1,0,0,0)"
           d="m 32.170524,-228.48147 -0.454068,-41.18531 168.247494,0 0,158.29218 -209.5699175,0 0,-117.63234 z"
           id="page_front"
           style="fill:#ffffff;fill-opacity:1;stroke:#568cbc;stroke-width:9;stroke-linejoin:round;stroke-miterlimit:4;stroke-dasharray:none;stroke-opacity:1" />
      </g>
      <path
         style="fill:#89b1d3;fill-rule:evenodd;stroke:#568cbc;stroke-width:9;stroke-linejoin:round"
         d="m 4.5,216.77 33.311,-92.876 59.313,0 25.188,-26.301 129.19,0 -35.75,119.18 z"
         id="path4550" />
    </g>
  </g>
</svg>
