<?xml version="1.0" encoding="UTF-8" standalone="no"?>
<!-- Created with Inkscape (http://www.inkscape.org/) -->

<svg
   xmlns:dc="http://purl.org/dc/elements/1.1/"
   xmlns:cc="http://creativecommons.org/ns#"
   xmlns:rdf="http://www.w3.org/1999/02/22-rdf-syntax-ns#"
   xmlns:svg="http://www.w3.org/2000/svg"
   xmlns="http://www.w3.org/2000/svg"
   xmlns:sodipodi="http://sodipodi.sourceforge.net/DTD/sodipodi-0.dtd"
   xmlns:inkscape="http://www.inkscape.org/namespaces/inkscape"
   width="32"
   height="32"
   id="svg13368"
   version="1.1"
   inkscape:version="0.91 r13725"
   viewBox="0 0 32 32"
   sodipodi:docname="_background_hospital.svg">
  <defs
     id="defs13370" />
  <sodipodi:namedview
     id="base"
     pagecolor="#ffffff"
     bordercolor="#666666"
     borderopacity="1.0"
     inkscape:pageopacity="0.0"
     inkscape:pageshadow="2"
     inkscape:zoom="20"
     inkscape:cx="11.871489"
     inkscape:cy="16"
     inkscape:current-layer="layer1"
     showgrid="true"
     inkscape:grid-bbox="true"
     inkscape:document-units="px"
     inkscape:window-width="1920"
     inkscape:window-height="1018"
     inkscape:window-x="-8"
     inkscape:window-y="-8"
     inkscape:window-maximized="1" />
  <metadata
     id="metadata13373">
    <rdf:RDF>
      <cc:Work
         rdf:about="">
        <dc:format>image/svg+xml</dc:format>
        <dc:type
           rdf:resource="http://purl.org/dc/dcmitype/StillImage" />
        <dc:title></dc:title>
      </cc:Work>
    </rdf:RDF>
  </metadata>
  <g
     id="layer1"
     inkscape:label="Layer 1"
     inkscape:groupmode="layer">
    <path
       style="opacity:1;fill:#4682be;fill-opacity:1"
       d="m 16.211673,0.97758611 c -3.440528,0 -6.8981291,0.0108659 -8.6021509,0.0304313 L 4.988571,1.0388838 4.6177563,1.1473508 C 3.4366052,1.4913992 2.5272595,2.1059188 1.825001,3.0346864 1.3592404,3.6502058 0.99246438,4.4913745 0.89950067,5.1556278 0.83483235,5.6190116 0.7954366,23.381476 0.85291961,25.537305 l 0.0413773,1.53031 0.15560047,0.456472 c 0.2899668,0.852146 0.6496812,1.42291 1.2922764,2.062296 0.6507467,0.643364 1.4226785,1.089793 2.3067764,1.334419 0.3354818,0.09347 0.4011665,0.09542 4.3588687,0.122381 5.8764931,0.0387 9.5361261,0.04065 14.1314181,-0.0021 l 4.084016,-0.03086 0.417322,-0.117376 c 1.814653,-0.505141 3.175686,-1.909182 3.645485,-3.761696 l 0.105051,-0.411694 0.02478,-9.10048 c 0.01735,-5.652011 0.01,-9.727954 -0.01735,-10.7571249 C 31.358162,5.3185229 31.352958,5.1772557 31.248894,4.7944065 30.789179,3.0423378 29.459539,1.6959638 27.659009,1.1570229 L 27.263938,1.0396444 24.710677,1.0079088 C 23.074842,0.98834578 19.651285,0.97726 16.210756,0.97726 Z"
       id="path4745-1"
       inkscape:connector-curvature="0" />
  </g>
</svg>
