<?xml version="1.0" encoding="UTF-8" standalone="no"?>
<!-- Created with Inkscape (http://www.inkscape.org/) -->

<svg
   xmlns:dc="http://purl.org/dc/elements/1.1/"
   xmlns:cc="http://creativecommons.org/ns#"
   xmlns:rdf="http://www.w3.org/1999/02/22-rdf-syntax-ns#"
   xmlns:svg="http://www.w3.org/2000/svg"
   xmlns="http://www.w3.org/2000/svg"
   xmlns:sodipodi="http://sodipodi.sourceforge.net/DTD/sodipodi-0.dtd"
   xmlns:inkscape="http://www.inkscape.org/namespaces/inkscape"
   width="32"
   height="32"
   id="svg15057"
   version="1.1"
   inkscape:version="0.91 r13725"
   viewBox="0 0 32 32"
   sodipodi:docname="_frame.svg">
  <defs
     id="defs15059" />
  <sodipodi:namedview
     id="base"
     pagecolor="#ffffff"
     bordercolor="#666666"
     borderopacity="1.0"
     inkscape:pageopacity="0.0"
     inkscape:pageshadow="2"
     inkscape:zoom="20"
     inkscape:cx="11.871489"
     inkscape:cy="16"
     inkscape:current-layer="layer1"
     showgrid="true"
     inkscape:grid-bbox="true"
     inkscape:document-units="px"
     inkscape:window-width="1920"
     inkscape:window-height="1018"
     inkscape:window-x="-8"
     inkscape:window-y="-8"
     inkscape:window-maximized="1" />
  <metadata
     id="metadata15062">
    <rdf:RDF>
      <cc:Work
         rdf:about="">
        <dc:format>image/svg+xml</dc:format>
        <dc:type
           rdf:resource="http://purl.org/dc/dcmitype/StillImage" />
        <dc:title></dc:title>
      </cc:Work>
    </rdf:RDF>
  </metadata>
  <g
     id="layer1"
     inkscape:label="Layer 1"
     inkscape:groupmode="layer">
    <path
       inkscape:connector-curvature="0"
       d="m 15.917097,0.66722968 c -9.4422604,0 -10.0297502,0 -10.4092225,0.0735116 C 4.0324862,1.0115353 2.7162616,1.8846978 1.9053953,3.1284632 1.5079888,3.737789 1.2699275,4.3059025 1.0868075,5.0854553 L 1.0000234,5.4576191 0.9851746,15.699697 c -0.009893,6.892054 0,10.365622 0.0292029,10.618031 0.2803476,2.524317 2.2307034,4.560002 4.6736307,4.886923 0.1435397,0.02122 4.8088388,0.03183 10.3686858,0.02805 9.558364,-0.0092 10.1231,-0.01364 10.409124,-0.08123 1.145957,-0.281451 2.052318,-0.793468 2.824445,-1.598151 0.591878,-0.615116 1.104826,-1.513044 1.321901,-2.319667 0.210525,-0.768884 0.199091,-0.267794 0.199091,-11.288652 0,-11.3700125 0.0236,-10.5573116 -0.263651,-11.4548459 C 30.278607,3.6419359 29.815207,2.8872704 29.166738,2.2441149 28.555044,1.6338196 27.914759,1.2372832 27.096386,0.9558334 c -0.909018,-0.30950526 0,-0.28899786 -11.179898,-0.28899786 z m 0,0.45145022 c 9.67544,0 10.097281,0 10.423892,0.0773 1.006228,0.2272788 1.787726,0.6396846 2.481534,1.3167009 0.718357,0.6973114 1.227412,1.597074 1.443579,2.5652249 0.147169,0.6383208 0.150634,0.9836876 0.136445,11.1979373 l -0.01699,10.036306 -0.09256,0.415574 c -0.470084,2.104574 -2.03026,3.643795 -4.061609,4.006501 -0.505934,0.09094 -20.2363679,0.08609 -20.7224722,-0.01216 C 3.7418434,30.395168 2.237945,29.055732 1.6630774,27.295493 1.4025614,26.498539 1.4178558,27.218195 1.4178558,15.965221 1.4178558,4.7141897 1.403007,5.4294167 1.6630774,4.6218385 2.2304215,2.8644939 3.6680112,1.5685581 5.4756687,1.191377 5.8098526,1.120746 6.3890418,1.1178655 15.916257,1.1178655 Z"
       id="path4153" />
  </g>
</svg>
