<?xml version="1.0" encoding="UTF-8" standalone="no"?>
<!-- Created with Inkscape (http://www.inkscape.org/) -->

<svg
   xmlns:dc="http://purl.org/dc/elements/1.1/"
   xmlns:cc="http://creativecommons.org/ns#"
   xmlns:rdf="http://www.w3.org/1999/02/22-rdf-syntax-ns#"
   xmlns:svg="http://www.w3.org/2000/svg"
   xmlns="http://www.w3.org/2000/svg"
   xmlns:sodipodi="http://sodipodi.sourceforge.net/DTD/sodipodi-0.dtd"
   xmlns:inkscape="http://www.inkscape.org/namespaces/inkscape"
   width="1000"
   height="1000"
   id="svg15057"
   version="1.1"
   inkscape:version="0.91 r13725"
   viewBox="0 0 1000 1000"
   sodipodi:docname="_frame.svg">
  <defs
     id="defs15059" />
  <sodipodi:namedview
     id="base"
     pagecolor="#ffffff"
     bordercolor="#666666"
     borderopacity="1.0"
     inkscape:pageopacity="0.0"
     inkscape:pageshadow="2"
     inkscape:zoom="0.5"
     inkscape:cx="9.7405635"
     inkscape:cy="416"
     inkscape:current-layer="layer1"
     showgrid="true"
     inkscape:grid-bbox="true"
     inkscape:document-units="px"
     inkscape:window-width="1920"
     inkscape:window-height="1018"
     inkscape:window-x="-8"
     inkscape:window-y="-8"
     inkscape:window-maximized="1" />
  <metadata
     id="metadata15062">
    <rdf:RDF>
      <cc:Work
         rdf:about="">
        <dc:format>image/svg+xml</dc:format>
        <dc:type
           rdf:resource="http://purl.org/dc/dcmitype/StillImage" />
        <dc:title></dc:title>
      </cc:Work>
    </rdf:RDF>
  </metadata>
  <g
     id="layer1"
     inkscape:label="Layer 1"
     inkscape:groupmode="layer"
     transform="translate(0,968)">
    <path
       inkscape:connector-curvature="0"
       d="m 503.58115,-963.31145 c -315.21302,0 -334.82533,0 -347.49333,2.39669 -49.2532,8.82865 -93.193015,37.2962 -120.262339,77.84645 -13.266708,19.86574 -21.21396,38.38783 -27.3270937,63.80345 l -2.8971323,12.13359 -0.4957008,333.92054 c -0.33026,224.70034 0,337.94843 0.9748868,346.17768 9.358905,82.299829 74.468053,148.668885 156.020829,159.327429 4.79181,0.691833 160.5345,1.037748 346.14007,0.914509 319.08893,-0.299945 337.94163,-0.444702 347.49003,-2.648327 38.25573,-9.176093 68.51297,-25.8692872 94.28906,-52.104216 19.75879,-20.054512 36.88264,-49.32949 44.1293,-75.627669 7.02797,-25.067776 6.64627,-8.730836 6.64627,-368.041806 0,-370.69438 0.7879,-344.19804 -8.80148,-373.46019 -8.97998,-27.65433 -24.44977,-52.25855 -46.09776,-73.22723 -20.4203,-19.89734 -41.79508,-32.82554 -69.115,-42.0016 -30.34594,-10.09074 0,-9.42214 -373.22095,-9.42214 z m 0,14.71855 c 322.99729,0 337.0797,0 347.98303,2.52021 33.59113,7.40992 59.68004,20.85551 82.84158,42.92814 23.98107,22.73432 40.97496,52.06911 48.19131,83.63356 4.91297,20.81105 5.02865,32.07097 4.55498,365.08425 l -0.56719,327.21179 -3.08995,13.54888 C 967.802,-45.051033 915.71831,5.1319006 847.90535,16.957136 831.01564,19.922036 172.35031,19.763912 156.12259,16.560686 97.132023,5.9029571 46.927059,-37.766424 27.736129,-95.155164 19.039268,-121.13811 19.549844,-97.675293 19.549844,-464.5539 c 0,-366.81526 -0.4957,-343.49685 8.186285,-369.82617 18.939771,-57.29438 66.931139,-99.54553 127.276561,-111.84269 11.15613,-2.30278 30.49133,-2.39669 348.54041,-2.39669 z"
       id="path4153" />
  </g>
</svg>
