<?xml version="1.0" encoding="UTF-8" standalone="no"?>
<!-- Created with Inkscape (http://www.inkscape.org/) -->

<svg
   xmlns:dc="http://purl.org/dc/elements/1.1/"
   xmlns:cc="http://creativecommons.org/ns#"
   xmlns:rdf="http://www.w3.org/1999/02/22-rdf-syntax-ns#"
   xmlns:svg="http://www.w3.org/2000/svg"
   xmlns="http://www.w3.org/2000/svg"
   xmlns:sodipodi="http://sodipodi.sourceforge.net/DTD/sodipodi-0.dtd"
   xmlns:inkscape="http://www.inkscape.org/namespaces/inkscape"
   width="352.78mm"
   height="352.78mm"
   viewBox="0 0 1250.0079 1250.0079"
   id="svg9843"
   version="1.1"
   inkscape:version="0.91 r13725"
   sodipodi:docname="_frame.svg">
  <defs
     id="defs9845" />
  <sodipodi:namedview
     id="base"
     pagecolor="#ffffff"
     bordercolor="#666666"
     borderopacity="1.0"
     inkscape:pageopacity="0.0"
     inkscape:pageshadow="2"
     inkscape:zoom="0.5"
     inkscape:cx="128"
     inkscape:cy="520"
     inkscape:document-units="px"
     inkscape:current-layer="layer1"
     showgrid="false"
     inkscape:window-width="1920"
     inkscape:window-height="1018"
     inkscape:window-x="-8"
     inkscape:window-y="-8"
     inkscape:window-maximized="1" />
  <metadata
     id="metadata9848">
    <rdf:RDF>
      <cc:Work
         rdf:about="">
        <dc:format>image/svg+xml</dc:format>
        <dc:type
           rdf:resource="http://purl.org/dc/dcmitype/StillImage" />
        <dc:title></dc:title>
      </cc:Work>
    </rdf:RDF>
  </metadata>
  <g
     inkscape:label="Layer 1"
     inkscape:groupmode="layer"
     id="layer1"
     transform="translate(0,197.64569)">
    <path
       inkscape:connector-curvature="0"
       d="m 625.64054,-31.704702 c -290.604,0 -308.685,0 -320.364,2.208 -45.40799,8.134 -85.91699,34.3619963 -110.87299,71.721996 -12.231,18.303 -19.558,35.368 -25.194,58.783996 l -2.672,11.179 -0.465,307.651 c -0.291,207.023 0,311.362 0.901,318.944 8.628,75.825 68.654,136.973 143.83999,146.793 4.416,0.639 148.001,0.958 319.116,0.842 294.177,-0.291 311.558,-0.407 320.361,-2.44 35.269,-8.454 63.16396,-23.834 86.92796,-48.005 18.216,-18.477 34.003,-45.449 40.684,-69.678 6.479,-23.096 6.127,-8.044 6.127,-339.088 0,-341.531996 0.727,-317.12 -8.114,-344.079996 -8.279,-25.478 -22.541,-48.147 -42.499,-67.466 -18.826,-18.3319997 -38.53196,-30.242996 -63.71896,-38.696996 -27.977,-9.297 0,-8.681 -344.083,-8.681 z m 0,13.561 c 297.78,0 310.763,0 320.815,2.324 30.969,6.8270003 55.02096,19.2149963 76.37396,39.550996 22.109,20.946 37.776,47.973 44.429,77.053996 4.532,19.174 4.637,29.548 4.201,336.363 l -0.523,301.47 -2.847,12.483 c -14.468,63.217 -62.485,109.452 -125.00396,120.347 -15.571,2.731 -622.813,2.585 -637.774,-0.349 -54.38499,-9.819 -100.66999,-50.053 -118.36299,-102.927 -8.018,-23.939 -7.547,-2.324 -7.547,-340.338 0,-337.957996 -0.465,-316.474 7.547,-340.731996 17.461,-52.787 61.706,-91.7139997 117.33999,-103.043996 10.285,-2.12 28.111,-2.208 321.329,-2.208 z"
       id="path4153" />
  </g>
</svg>
