<?xml version="1.0" encoding="UTF-8" standalone="no"?>
<!-- Created with Inkscape (http://www.inkscape.org/) -->

<svg
   xmlns:dc="http://purl.org/dc/elements/1.1/"
   xmlns:cc="http://creativecommons.org/ns#"
   xmlns:rdf="http://www.w3.org/1999/02/22-rdf-syntax-ns#"
   xmlns:svg="http://www.w3.org/2000/svg"
   xmlns="http://www.w3.org/2000/svg"
   xmlns:sodipodi="http://sodipodi.sourceforge.net/DTD/sodipodi-0.dtd"
   xmlns:inkscape="http://www.inkscape.org/namespaces/inkscape"
   width="1000"
   height="1000"
   id="svg3353"
   version="1.1"
   inkscape:version="0.91 r13725"
   viewBox="0 0 1000 1000"
   sodipodi:docname="accomodation_hostel.svg">
  <defs
     id="defs3355" />
  <sodipodi:namedview
     id="base"
     pagecolor="#ffffff"
     bordercolor="#666666"
     borderopacity="1.0"
     inkscape:pageopacity="0.0"
     inkscape:pageshadow="2"
     inkscape:zoom="0.5"
     inkscape:cx="6.3954416"
     inkscape:cy="336"
     inkscape:current-layer="layer1"
     showgrid="true"
     inkscape:grid-bbox="true"
     inkscape:document-units="px"
     inkscape:window-width="1920"
     inkscape:window-height="1018"
     inkscape:window-x="-8"
     inkscape:window-y="-8"
     inkscape:window-maximized="1" />
  <metadata
     id="metadata3358">
    <rdf:RDF>
      <cc:Work
         rdf:about="">
        <dc:format>image/svg+xml</dc:format>
        <dc:type
           rdf:resource="http://purl.org/dc/dcmitype/StillImage" />
        <dc:title></dc:title>
      </cc:Work>
    </rdf:RDF>
  </metadata>
  <g
     id="layer1"
     inkscape:label="Layer 1"
     inkscape:groupmode="layer"
     transform="translate(0,968)">
    <path
       id="circle12"
       style="fill:#004150;fill-opacity:1"
       d="m 368.79597,-375.16977 a 96.916115,88.38385 0 0 1 -96.91612,88.38385 96.916115,88.38385 0 0 1 -96.91611,-88.38385 96.916115,88.38385 0 0 1 96.91611,-88.38385 96.916115,88.38385 0 0 1 96.91612,88.38385 z m 0,-349.13077 a 96.916115,88.38385 0 0 1 -96.91612,88.38385 96.916115,88.38385 0 0 1 -96.91611,-88.38385 96.916115,88.38385 0 0 1 96.91611,-88.38385 96.916115,88.38385 0 0 1 96.91612,88.38385 z m -315.607713,273.24823 1.136429,-401.1765 9.304515,-8.84162 c 13.992285,-12.37179 44.746899,-13.24624 59.662539,-1.45741 l 9.44657,10.75245 0.67475,273.3778 742.05281,-0.4858 c -0.0355,-28.40331 -2.23735,-261.58897 -0.95887,-265.73449 3.05416,-10.16949 2.84108,-10.91439 11.93251,-17.32699 13.81472,-9.71607 40.09465,-9.71607 57.24763,0 5.29149,3.01198 5.54009,11.82121 7.45781,17.16505 2.30837,6.54215 0.99438,792.766479 0.99438,792.766479 -0.14206,0 -76.42487,0.291482 -76.42487,0.291482 l -0.46167,-118.341721 -741.87524,0 -0.67476,120.54403 -78.200537,0 -1.313996,-401.53276 z m 822.242093,-70.11763 -372.25161,0 -369.80119,-0.0324 -0.67476,298.89868 742.69205,0.42103 0,-299.28732 z m -468.56399,-156.68781 0,-57.77822 156.54313,0 c 156.50762,0 156.54313,0 178.45491,11.33541 39.38438,17.68325 71.77261,54.18328 78.94632,88.96681 l 3.05415,14.5741 -208.49925,0 -208.49926,0 0,-58.3288 0,1.2307 z m 0,334.00608 0,-57.74584 156.54313,0 c 156.50762,0 156.54313,0 178.45491,11.33541 39.38438,17.68325 71.77261,54.18328 78.94632,88.96681 l 3.05415,14.5741 -208.49925,0 -208.49926,0 0,-58.3288 0,1.19832 z"
       inkscape:connector-curvature="0" />
  </g>
</svg>
