<?xml version="1.0" encoding="UTF-8" standalone="no"?>
<!-- Created with Inkscape (http://www.inkscape.org/) -->

<svg
   xmlns:dc="http://purl.org/dc/elements/1.1/"
   xmlns:cc="http://creativecommons.org/ns#"
   xmlns:rdf="http://www.w3.org/1999/02/22-rdf-syntax-ns#"
   xmlns:svg="http://www.w3.org/2000/svg"
   xmlns="http://www.w3.org/2000/svg"
   xmlns:sodipodi="http://sodipodi.sourceforge.net/DTD/sodipodi-0.dtd"
   xmlns:inkscape="http://www.inkscape.org/namespaces/inkscape"
   width="1000"
   height="1000"
   id="svg4929"
   version="1.1"
   inkscape:version="0.91 r13725"
   viewBox="0 0 1000 1000"
   sodipodi:docname="accomodation_caravan_site.svg">
  <defs
     id="defs4931" />
  <sodipodi:namedview
     id="base"
     pagecolor="#ffffff"
     bordercolor="#666666"
     borderopacity="1.0"
     inkscape:pageopacity="0.0"
     inkscape:pageshadow="2"
     inkscape:zoom="0.5"
     inkscape:cx="9.7405635"
     inkscape:cy="416"
     inkscape:current-layer="layer1"
     showgrid="true"
     inkscape:grid-bbox="true"
     inkscape:document-units="px"
     inkscape:window-width="1920"
     inkscape:window-height="1018"
     inkscape:window-x="-8"
     inkscape:window-y="-8"
     inkscape:window-maximized="1" />
  <metadata
     id="metadata4934">
    <rdf:RDF>
      <cc:Work
         rdf:about="">
        <dc:format>image/svg+xml</dc:format>
        <dc:type
           rdf:resource="http://purl.org/dc/dcmitype/StillImage" />
        <dc:title></dc:title>
      </cc:Work>
    </rdf:RDF>
  </metadata>
  <g
     id="layer1"
     inkscape:label="Layer 1"
     inkscape:groupmode="layer"
     transform="translate(0,968)">
    <path
       inkscape:connector-curvature="0"
       d="m 441.56507,-741.35916 -312.14456,0.94786 -17.09789,9.74111 c -20.841412,11.914 -39.864487,35.20137 -50.674524,61.99681 l -8.099846,20.05127 -0.883068,158.1309 c -0.780629,134.72003 -0.341534,161.35888 3.805491,180.0333 9.286379,42.58437 38.793095,77.63705 74.485687,88.72636 12.65424,3.99865 37.16698,5.19012 101.14415,5.39627 l 84.66244,0.4122 -1.45377,-8.69815 c -2.30277,-14.22239 3.33223,-47.16041 11.21496,-65.21635 21.44346,-49.38619 73.42651,-76.21075 120.17746,-62.3184 45.97182,13.68648 78.43902,59.49859 79.74997,112.8837 l 0.63908,23.26679 222.5667,0 222.28857,0 0,-8.37248 c 0,-12.94443 -12.60008,-31.89504 -24.36735,-36.55348 -6.30981,-2.43231 -29.55357,-4.2666 -57.87375,-4.34901 l -47.35105,0 -0.63908,-188.64917 c -0.63909,-209.95358 -0.56612,-209.17029 -20.90828,-240.33532 -12.1927,-18.59204 -37.22064,-38.39197 -55.86463,-44.28709 -7.23044,-2.26675 -124.05757,-3.17438 -323.36148,-2.55672 z m 201.93701,73.99291 c 93.53753,-1.48414 94.56503,-0.61829 94.56503,78.82428 0,47.44866 -2.76626,59.65513 -15.85428,70.29094 -5.59945,4.61709 -17.94923,5.5116 -74.76622,5.55295 l -67.91146,0 -10.31384,-11.99617 -10.31387,-11.99635 0,-53.3024 0,-53.22018 8.78923,-11.59211 8.86141,-11.51385 66.944,-1.03049 z m -476.76872,2.80336 131.11532,0 131.18755,0 10.31337,12.00015 10.31384,12.07462 0,49.92226 c 0,57.01263 -2.90786,68.12255 -19.86564,76.32611 -8.36574,4.03999 -33.96305,5.07459 -134.16459,5.07459 -117.25016,0 -124.32496,-0.45335 -133.46839,-6.92557 -5.31745,-3.79261 -11.1057,-9.97202 -12.8772,-13.84704 -1.8442,-4.03996 -3.25907,-28.93099 -3.25907,-58.77709 l 0,-51.77326 10.38607,-12.07462 10.31386,-12.00015 z m 259.94832,347.184 c -7.20166,-0.49482 -14.68137,0.41219 -22.29043,2.34969 -42.67565,11.83122 -67.28111,63.4354 -54.34339,113.68729 4.6788,18.09744 24.8357,44.57559 40.2899,52.73795 14.77997,7.83261 46.045,8.69416 60.36441,1.77256 15.73766,-7.6263 32.74089,-27.04291 40.43189,-46.29446 23.01005,-57.4991 -14.04619,-120.71188 -64.45238,-124.23654 z m -6.43616,46.21629 c 3.61036,-0.4122 7.37583,0.41219 11.21449,1.68993 31.33237,10.88315 36.28831,60.13764 7.61293,76.00886 -17.96972,9.93492 -33.33172,5.42922 -45.20532,-13.28654 -16.7471,-26.1855 1.06358,-62.88302 26.3779,-64.41235 z"
       id="path5904"
       style="fill:#004150;fill-opacity:1" />
  </g>
</svg>
