<?xml version="1.0" encoding="UTF-8" standalone="no"?>
<!-- Created with Inkscape (http://www.inkscape.org/) -->

<svg
   xmlns:dc="http://purl.org/dc/elements/1.1/"
   xmlns:cc="http://creativecommons.org/ns#"
   xmlns:rdf="http://www.w3.org/1999/02/22-rdf-syntax-ns#"
   xmlns:svg="http://www.w3.org/2000/svg"
   xmlns="http://www.w3.org/2000/svg"
   xmlns:sodipodi="http://sodipodi.sourceforge.net/DTD/sodipodi-0.dtd"
   xmlns:inkscape="http://www.inkscape.org/namespaces/inkscape"
   width="1000"
   height="1000"
   id="svg3368"
   version="1.1"
   inkscape:version="0.91 r13725"
   viewBox="0 0 1000 1000"
   sodipodi:docname="accomodation_guest_house.svg">
  <defs
     id="defs3370" />
  <sodipodi:namedview
     id="base"
     pagecolor="#ffffff"
     bordercolor="#666666"
     borderopacity="1.0"
     inkscape:pageopacity="0.0"
     inkscape:pageshadow="2"
     inkscape:zoom="0.5"
     inkscape:cx="6.3954416"
     inkscape:cy="333.46811"
     inkscape:current-layer="layer1"
     showgrid="true"
     inkscape:grid-bbox="true"
     inkscape:document-units="px"
     showguides="false"
     inkscape:window-width="1920"
     inkscape:window-height="1018"
     inkscape:window-x="-8"
     inkscape:window-y="-8"
     inkscape:window-maximized="1" />
  <metadata
     id="metadata3373">
    <rdf:RDF>
      <cc:Work
         rdf:about="">
        <dc:format>image/svg+xml</dc:format>
        <dc:type
           rdf:resource="http://purl.org/dc/dcmitype/StillImage" />
        <dc:title></dc:title>
      </cc:Work>
    </rdf:RDF>
  </metadata>
  <g
     id="layer1"
     inkscape:label="Layer 1"
     inkscape:groupmode="layer"
     transform="translate(0,968)">
    <path
       id="path9949"
       style="fill:#004150;fill-opacity:1"
       d="m 46.652895,-450.53712 c -18.193811,-6.34821 -29.541689,-19.68266 -31.104347,-36.49427 -1.227804,-13.27065 2.753255,-22.68132 13.84069,-32.76191 13.766278,-12.63263 450.380532,-340.66639 457.486902,-343.72885 4.68798,-2.04164 10.15728,-2.77535 20.94707,-2.77535 12.24082,0 15.77541,0.57421 22.47252,3.70047 4.2787,2.04164 102.68899,75.09399 218.32573,162.3421 199.68544,150.53888 210.62405,159.05634 215.27482,167.31859 11.83156,21.15009 2.3812,45.29884 -22.39811,56.71925 -11.94317,5.455 -30.43463,5.6145 -42.08016,0.2871 -4.35312,-2.04163 -93.94555,-68.49056 -199.16456,-147.69973 -115.85997,-87.31191 -192.05818,-143.68025 -193.47201,-143.23364 -1.30222,0.47851 -95.28497,70.75551 -208.72655,156.24909 -113.55318,85.49358 -209.656687,156.88709 -213.600539,158.70543 -10.194487,4.52988 -26.751227,5.10409 -37.801456,1.37172 l 0,0 0,0 z m 98.447495,365.899766 c -8.18536,-3.509065 -16.63116,-11.292809 -20.68663,-19.076556 -2.49281,-4.78509 -2.75325,-20.32067 -2.75325,-158.57783 l 0,-153.21853 4.94842,-7.78374 c 17.18924,-27.24311 59.97632,-25.74378 74.93319,2.42444 3.57179,6.79483 3.609,8.10275 4.09268,136.56643 l 0.48368,129.73969 306.76477,0 306.76476,0 0,-126.90054 c 0,-144.60537 -0.66971,-137.71485 13.35701,-149.96467 19.23558,-16.77971 49.18654,-13.90866 64.51548,6.41202 l 4.79959,6.12491 0.44647,154.04795 c 0.40927,102.17758 -0.0744,155.89818 -1.19059,159.31154 -2.4184,7.337135 -12.24083,16.81161 -21.35634,20.60778 l -7.66446,3.22196 -360.1184,0 -360.1556,0 -7.18078,-2.934854 0,0 z M 255.1934,-295.85116 c 0,-102.7518 0.55809,-120.52042 3.75782,-126.03923 6.54829,-10.9738 25.82108,-11.77131 34.63894,-1.37172 5.06003,5.86971 5.28327,8.90026 6.02739,78.76255 l 0.78133,72.63765 211.88907,0 211.92627,0 0,-55.53893 c 0,-44.56512 0.74412,-56.65545 3.6462,-61.66384 4.53915,-7.71994 16.22189,-11.57991 25.70946,-8.70886 14.39878,4.49798 14.24995,2.45634 14.95687,116.62855 l 0.74412,104.85724 -22.47252,0 -22.54693,0 0,-28.16822 0,-28.39152 -212.1123,0 -212.00068,0 0,28.39152 0,28.16822 -22.50973,0 -22.43531,0 0,-119.56341 0,0 z m 128.99375,-3.44526 c -27.49535,-7.30524 -41.00119,-23.63834 -39.40132,-47.91469 1.11618,-17.96003 9.04109,-29.63564 25.9699,-38.2169 34.34128,-17.64103 80.70015,5.93351 80.70015,40.80085 -0.0372,28.42343 -37.02013,53.36969 -67.26873,45.33074 z m 76.45865,-30.05036 0,-31.64538 90.26214,0.66991 c 88.66227,0.66991 90.55978,0.66991 100.97751,5.67831 5.91578,2.74345 15.06849,8.45365 20.46338,12.63263 10.52935,8.29415 24.92813,30.91167 24.92813,39.20582 l 0,5.0403 -118.31558,0 -118.35279,0 0.0372,-31.58159 0,0 z"
       inkscape:connector-curvature="0" />
  </g>
</svg>
