<?xml version="1.0" encoding="UTF-8" standalone="no"?>
<!-- Created with Inkscape (http://www.inkscape.org/) -->

<svg
   xmlns:dc="http://purl.org/dc/elements/1.1/"
   xmlns:cc="http://creativecommons.org/ns#"
   xmlns:rdf="http://www.w3.org/1999/02/22-rdf-syntax-ns#"
   xmlns:svg="http://www.w3.org/2000/svg"
   xmlns="http://www.w3.org/2000/svg"
   xmlns:sodipodi="http://sodipodi.sourceforge.net/DTD/sodipodi-0.dtd"
   xmlns:inkscape="http://www.inkscape.org/namespaces/inkscape"
   width="32"
   height="32"
   id="svg3353"
   version="1.1"
   inkscape:version="0.91 r13725"
   viewBox="0 0 32 32"
   sodipodi:docname="motel_.svg">
  <defs
     id="defs3355" />
  <sodipodi:namedview
     id="base"
     pagecolor="#ffffff"
     bordercolor="#666666"
     borderopacity="1.0"
     inkscape:pageopacity="0.0"
     inkscape:pageshadow="2"
     inkscape:zoom="20"
     inkscape:cx="8.5263671"
     inkscape:cy="16"
     inkscape:current-layer="layer1"
     showgrid="true"
     inkscape:grid-bbox="true"
     inkscape:document-units="px"
     inkscape:window-width="1920"
     inkscape:window-height="1018"
     inkscape:window-x="-8"
     inkscape:window-y="-8"
     inkscape:window-maximized="1" />
  <metadata
     id="metadata3358">
    <rdf:RDF>
      <cc:Work
         rdf:about="">
        <dc:format>image/svg+xml</dc:format>
        <dc:type
           rdf:resource="http://purl.org/dc/dcmitype/StillImage" />
        <dc:title />
      </cc:Work>
    </rdf:RDF>
  </metadata>
  <g
     id="layer1"
     inkscape:label="Layer 1"
     inkscape:groupmode="layer">
    <path
       style="fill:#004150;fill-opacity:1"
       id="path14187"
       inkscape:connector-curvature="0"
       d="m 10.3505,27.781907 c -0.401,-0.217 -0.775,-0.793 -0.775,-1.197 0,-0.236 -0.041,-0.25 -0.824,-0.25 l -0.823,0 0,-2.527 c 0,-1.953 0.036,-2.615 0.158,-2.906 0.166,-0.396 0.681,-0.789 1.183,-0.896 0.281,-0.06 0.345,-0.204 1.097,-2.468 l 0.798,-2.403001 4.823,0.029 4.822,0.029 0.784,2.351001 0.784,2.352 0.43,0.148 c 0.561,0.193 1.014,0.639 1.148,1.125 0.061,0.215 0.109,1.466 0.109,2.779 l 0.002,2.387 -0.814,0 -0.814,0 -0.074,0.357 c -0.16,0.764 -0.772,1.289 -1.514,1.289 -0.764,0.002 -1.281,-0.402 -1.511,-1.184 l -0.138,-0.471 -3.263,0 -3.262,0 -0.066,0.412 c -0.087,0.543 -0.346,0.896 -0.796,1.082 -0.499,0.218 -1.017,0.203 -1.464,-0.038 l 0,0 z m 1.251,-3.468 c 1.252,-0.523 0.867,-2.369 -0.494,-2.369 -0.728,0 -1.203,0.512 -1.203,1.299 0,0.498 0.244,0.869 0.7,1.068 0.439,0.191 0.545,0.191 0.997,0.002 l 0,0 z m 9.764,-0.011 c 1.188,-0.565 0.791,-2.358 -0.525,-2.358 -1.137,0 -1.686,1.34 -0.861,2.107 0.486,0.454 0.828,0.516 1.386,0.251 z m -1.144,-4.472 c 0,-0.076 -0.213,-0.805 -0.473,-1.619 l -0.471,-1.482 -3.294,-0.029 -3.294,-0.025 -0.463,1.482 c -0.255,0.816 -0.492,1.563 -0.526,1.648 -0.055,0.143 0.479,0.162 4.23,0.162 3.363,0 4.293,-0.029 4.291,-0.137 l 0,0 z" />
    <path
       style="fill:#004150;fill-opacity:1"
       id="path14189"
       inkscape:connector-curvature="0"
       d="m 4.7445,10.916906 0,-4.879 0.26,-0.303 c 0.329,-0.381 0.962,-0.403 1.318,-0.046 0.224,0.223 0.234,0.348 0.266,3.03 l 0.033,2.797 9.354,-0.028 9.354,-0.028 0.059,-2.013 c 0.053,-1.851 0.073,-2.025 0.271,-2.173 0.539,-0.394 1.168,-0.268 1.451,0.292 0.104,0.202 0.142,1.288 0.143,4.251 l 0.002,3.979001 -0.934,0 -0.93,0 -0.031,-1.180001 -0.031,-1.18 -9.355,-0.028 -9.36,-0.028 0,1.208 0,1.208001 -0.937,0 -0.933,0 0,-4.879001 z" />
    <path
       style="fill:#004150;fill-opacity:1"
       id="path14191"
       inkscape:connector-curvature="0"
       d="m 13.6375,8.605906 0,-1.592 3.713,0 c 4.359,0 4.496,0.022 5.454,0.897 0.657,0.601 1.031,1.208 1.155,1.875 l 0.078,0.412 -5.201,0 -5.199,0 0,-1.592 z" />
    <path
       style="fill:#004150;fill-opacity:1"
       id="path14193"
       inkscape:connector-curvature="0"
       d="m 9.5885,10.038906 c -0.882,-0.285 -1.653,-1.285 -1.657,-2.147 -0.003,-0.73 0.218,-1.242 0.766,-1.774 0.686,-0.665 1.396,-0.846 2.284,-0.583 0.677,0.201 1.364,0.834 1.564,1.441 0.204,0.618 0.085,1.59 -0.257,2.106 -0.57,0.863 -1.726,1.272 -2.7,0.957 z" />
  </g>
</svg>
