<?xml version="1.0" encoding="UTF-8" standalone="no"?>
<!-- Created with Inkscape (http://www.inkscape.org/) -->

<svg
   xmlns:dc="http://purl.org/dc/elements/1.1/"
   xmlns:cc="http://creativecommons.org/ns#"
   xmlns:rdf="http://www.w3.org/1999/02/22-rdf-syntax-ns#"
   xmlns:svg="http://www.w3.org/2000/svg"
   xmlns="http://www.w3.org/2000/svg"
   xmlns:sodipodi="http://sodipodi.sourceforge.net/DTD/sodipodi-0.dtd"
   xmlns:inkscape="http://www.inkscape.org/namespaces/inkscape"
   width="352.78mm"
   height="352.78mm"
   viewBox="0 0 1250.0079 1250.0079"
   id="svg20063"
   version="1.1"
   inkscape:version="0.91 r13725"
   sodipodi:docname="accomodation_hotel.svg">
  <defs
     id="defs20065" />
  <sodipodi:namedview
     id="base"
     pagecolor="#ffffff"
     bordercolor="#666666"
     borderopacity="1.0"
     inkscape:pageopacity="0.0"
     inkscape:pageshadow="2"
     inkscape:zoom="0.5"
     inkscape:cx="80"
     inkscape:cy="520"
     inkscape:document-units="px"
     inkscape:current-layer="layer1"
     showgrid="false"
     inkscape:window-width="1920"
     inkscape:window-height="1018"
     inkscape:window-x="-8"
     inkscape:window-y="-8"
     inkscape:window-maximized="1" />
  <metadata
     id="metadata20068">
    <rdf:RDF>
      <cc:Work
         rdf:about="">
        <dc:format>image/svg+xml</dc:format>
        <dc:type
           rdf:resource="http://purl.org/dc/dcmitype/StillImage" />
        <dc:title></dc:title>
      </cc:Work>
    </rdf:RDF>
  </metadata>
  <g
     inkscape:label="Layer 1"
     inkscape:groupmode="layer"
     id="layer1"
     transform="translate(0,197.64569)">
    <path
       inkscape:connector-curvature="0"
       style="fill:#004150;fill-opacity:1"
       d="m 267.50545,194.68582 c -10.169,0.483 -19.884,5.816 -24.784,15.8784 -4.948,10.0221 -5.779,42.6441 -5.779,230.64879 l 0,218.85563 33.911,0 33.83,0 0,-51.8089 0,-51.6479 320.198,0 320.027,0 0,51.6479 0,51.8089 34.078,0 34.07895,0 -1.158,-191.97314 c -1.028,-208.9745 -0.814,-205.38019 -22.60595,-213.4301 -14.417,-5.27268 -31.892,1.77097 -38.768,15.87841 -4.429,9.13661 -5.526,31.30188 -5.526,112.88725 l 0,101.64568 -319.946,0 -319.864,0 -1.072,-132.85496 c -1.114,-127.75136 -1.543,-133.42656 -9.123,-144.17316 -6.666,-9.4988 -17.294,-13.8578 -27.467,-13.3628 z m 190.743,88.4359 c -11.626,-0.40252 -23.45,2.09298 -34.327,8.09814 -21.474,11.81315 -31.429,27.69155 -32.908,52.27585 -2.015,33.14934 15.048,55.52794 49.902,65.48563 38.345,10.91566 85.276,-23.16748 85.242,-61.94772 0,-35.80979 -33.024,-62.77288 -67.909,-63.9119 z m 117.228,29.47863 0,58.49031 0,58.56273 160.854,0 161.016,0 0,-9.43044 c 0,-15.29468 -19.506,-57.22642 -33.825,-72.56147 -7.288,-7.80839 -19.824,-18.43415 -27.884,-23.50559 -14.233,-9.01582 -16.681,-9.20903 -137.321,-10.37624 l -122.84,-1.16728 z"
       id="path13628-2" />
  </g>
</svg>
