<?xml version="1.0" encoding="UTF-8" standalone="no"?>
<!-- Created with Inkscape (http://www.inkscape.org/) -->

<svg
   xmlns:dc="http://purl.org/dc/elements/1.1/"
   xmlns:cc="http://creativecommons.org/ns#"
   xmlns:rdf="http://www.w3.org/1999/02/22-rdf-syntax-ns#"
   xmlns:svg="http://www.w3.org/2000/svg"
   xmlns="http://www.w3.org/2000/svg"
   xmlns:sodipodi="http://sodipodi.sourceforge.net/DTD/sodipodi-0.dtd"
   xmlns:inkscape="http://www.inkscape.org/namespaces/inkscape"
   width="32"
   height="32"
   id="svg3368"
   version="1.1"
   inkscape:version="0.91 r13725"
   viewBox="0 0 32 32"
   sodipodi:docname="guest_house_.svg">
  <defs
     id="defs3370" />
  <sodipodi:namedview
     id="base"
     pagecolor="#ffffff"
     bordercolor="#666666"
     borderopacity="1.0"
     inkscape:pageopacity="0.0"
     inkscape:pageshadow="2"
     inkscape:zoom="20"
     inkscape:cx="8.5263671"
     inkscape:cy="13.468109"
     inkscape:current-layer="layer1"
     showgrid="true"
     inkscape:grid-bbox="true"
     inkscape:document-units="px"
     showguides="false"
     inkscape:window-width="1920"
     inkscape:window-height="1018"
     inkscape:window-x="-8"
     inkscape:window-y="-8"
     inkscape:window-maximized="1" />
  <metadata
     id="metadata3373">
    <rdf:RDF>
      <cc:Work
         rdf:about="">
        <dc:format>image/svg+xml</dc:format>
        <dc:type
           rdf:resource="http://purl.org/dc/dcmitype/StillImage" />
        <dc:title />
      </cc:Work>
    </rdf:RDF>
  </metadata>
  <g
     id="layer1"
     inkscape:label="Layer 1"
     inkscape:groupmode="layer">
    <path
       style="opacity:0.97000002;fill:#004150;fill-opacity:1"
       id="path13628"
       inkscape:connector-curvature="0"
       enable-background="new    "
       d="m 15.303253,20.5345 0,-0.992 2.426,0.021 c 2.383,0.021 2.434,0.021 2.714,0.178 0.159,0.086 0.405,0.265 0.55,0.396 0.283,0.26 0.67,0.969 0.67,1.229 l 0,0.158 -3.18,0 -3.181,0 10e-4,-0.99 0,0 z" />
    <path
       style="opacity:0.97000002;fill:#004150;fill-opacity:1"
       id="path13630"
       inkscape:connector-curvature="0"
       enable-background="new    "
       d="m 13.248253,21.4765 c -0.739,-0.229 -1.102,-0.741 -1.059,-1.502 0.03,-0.563 0.243,-0.929 0.698,-1.198 0.923,-0.553 2.169,0.186 2.169,1.279 -10e-4,0.891 -0.995,1.673 -1.808,1.421 z" />
    <path
       style="opacity:0.97000002;fill:#004150;fill-opacity:1"
       id="path13632"
       inkscape:connector-curvature="0"
       enable-background="new    "
       d="m 9.781253,21.5845 c 0,-3.221 0.015,-3.778 0.101,-3.951 0.176,-0.344 0.694,-0.369 0.931,-0.043 0.136,0.184 0.142,0.279 0.162,2.469 l 0.021,2.277 5.695,0 5.696,0 0,-1.741 c 0,-1.397 0.02,-1.776 0.098,-1.933 0.122,-0.242 0.436,-0.363 0.691,-0.273 0.387,0.141 0.383,0.077 0.402,3.656 l 0.02,3.287 -0.604,0 -0.606,0 0,-0.883 0,-0.89 -5.701,0 -5.698,0 0,0.89 0,0.883 -0.605,0 -0.603,0 0,-3.748 0,0 z" />
    <path
       style="fill:#004150;fill-opacity:1"
       id="path9947"
       inkscape:connector-curvature="0"
       d="m 6.8222531,28.2055 c -0.22,-0.11 -0.447,-0.354 -0.556,-0.598 -0.067,-0.15 -0.074,-0.637 -0.074,-4.971 l 0,-4.803 0.133,-0.244 c 0.462,-0.854 1.612,-0.807 2.0139999,0.076 0.096,0.213 0.097,0.254 0.11,4.281 l 0.013,4.067 8.245,0 8.245,0 0,-3.978 c 0,-4.533 -0.018,-4.317 0.359,-4.701 0.517,-0.526 1.322,-0.436 1.734,0.201 l 0.129,0.192 0.012,4.829 c 0.011,3.203 -0.002,4.887 -0.032,4.994 -0.065,0.23 -0.329,0.527 -0.574,0.646 l -0.206,0.101 -9.679,0 -9.6799999,0 -0.193,-0.092 0,0 z" />
    <path
       style="fill:#004150;fill-opacity:1"
       id="path9949"
       inkscape:connector-curvature="0"
       d="m 4.1762531,16.7355 c -0.489,-0.199 -0.794,-0.617 -0.836,-1.144 -0.033,-0.416 0.074,-0.711 0.372,-1.027 0.37,-0.396 12.1049999,-10.679 12.2959999,-10.775 0.126,-0.064 0.273,-0.087 0.563,-0.087 0.329,0 0.424,0.018 0.604,0.116 0.115,0.064 2.76,2.354 5.868,5.089 5.367,4.719 5.661,4.986 5.786,5.245 0.318,0.663 0.064,1.42 -0.602,1.778 -0.321,0.171 -0.818,0.176 -1.131,0.009 -0.117,-0.064 -2.525,-2.147 -5.353,-4.63 -3.114,-2.737 -5.162,-4.504 -5.2,-4.49 -0.035,0.015 -2.561,2.218 -5.61,4.898 -3.0519999,2.68 -5.6349999,4.918 -5.7409999,4.975 -0.274,0.142 -0.719,0.16 -1.016,0.043 l 0,0 0,0 z" />
  </g>
</svg>
