<?xml version="1.0" encoding="UTF-8" standalone="no"?>
<!-- Created with Inkscape (http://www.inkscape.org/) -->

<svg
   xmlns:dc="http://purl.org/dc/elements/1.1/"
   xmlns:cc="http://creativecommons.org/ns#"
   xmlns:rdf="http://www.w3.org/1999/02/22-rdf-syntax-ns#"
   xmlns:svg="http://www.w3.org/2000/svg"
   xmlns="http://www.w3.org/2000/svg"
   xmlns:sodipodi="http://sodipodi.sourceforge.net/DTD/sodipodi-0.dtd"
   xmlns:inkscape="http://www.inkscape.org/namespaces/inkscape"
   width="32"
   height="32"
   id="svg4929"
   version="1.1"
   inkscape:version="0.91 r13725"
   viewBox="0 0 32 32"
   sodipodi:docname="accomodation_caravan_site.svg">
  <defs
     id="defs4931" />
  <sodipodi:namedview
     id="base"
     pagecolor="#ffffff"
     bordercolor="#666666"
     borderopacity="1.0"
     inkscape:pageopacity="0.0"
     inkscape:pageshadow="2"
     inkscape:zoom="20"
     inkscape:cx="11.871489"
     inkscape:cy="16"
     inkscape:current-layer="layer1"
     showgrid="true"
     inkscape:grid-bbox="true"
     inkscape:document-units="px"
     inkscape:window-width="1920"
     inkscape:window-height="1018"
     inkscape:window-x="-8"
     inkscape:window-y="-8"
     inkscape:window-maximized="1" />
  <metadata
     id="metadata4934">
    <rdf:RDF>
      <cc:Work
         rdf:about="">
        <dc:format>image/svg+xml</dc:format>
        <dc:type
           rdf:resource="http://purl.org/dc/dcmitype/StillImage" />
        <dc:title></dc:title>
      </cc:Work>
    </rdf:RDF>
  </metadata>
  <g
     id="layer1"
     inkscape:label="Layer 1"
     inkscape:groupmode="layer">
    <path
       inkscape:connector-curvature="0"
       d="M 14.028286,6.64084 4.6602941,6.67124 4.1471574,6.98366 C 3.5216709,7.36577 2.9507559,8.11265 2.6263282,8.972042 L 2.383238,9.615133 2.3567356,14.686759 c -0.023428,4.320785 -0.01025,5.175155 0.1142093,5.774087 0.2787001,1.36578 1.1642471,2.490001 2.2354429,2.845661 0.3797753,0.128246 1.1154446,0.166459 3.0355086,0.173071 l 2.5408646,0.01322 -0.04363,-0.27897 c -0.06911,-0.456145 0.100006,-1.512544 0.33658,-2.09164 0.643555,-1.58393 2.203655,-2.444256 3.606731,-1.998696 1.379693,0.438957 2.354089,1.908258 2.393433,3.620443 l 0.01918,0.74622 6.679607,0 6.67126,0 0,-0.268525 c 0,-0.415158 -0.37815,-1.022948 -0.731306,-1.172355 -0.189368,-0.07801 -0.886953,-0.13684 -1.73689,-0.139483 l -1.421086,0 -0.01918,-6.050418 c -0.01918,-6.7337 -0.01699,-6.708578 -0.627493,-7.708113 -0.365924,-0.59629 -1.117055,-1.23132 -1.676593,-1.42039 -0.216998,-0.0727 -3.72318,-0.10181 -9.704631,-0.082 z m 6.060475,2.373125 c 2.807221,-0.0476 2.838058,-0.01983 2.838058,2.528078 0,1.521789 -0.08302,1.913279 -0.475814,2.254394 -0.168049,0.148081 -0.538687,0.17677 -2.243862,0.178096 l -2.038139,0 -0.309536,-0.384745 -0.309537,-0.384751 0,-1.709532 0,-1.706895 0.26378,-0.371786 0.265946,-0.369276 2.009104,-0.03305 z m -14.3086443,0.08991 3.9349949,0 3.9371624,0 0.309522,0.384873 0.309536,0.387261 0,1.601123 c 0,1.828528 -0.08727,2.184849 -0.596202,2.447956 -0.25107,0.129572 -1.019289,0.162754 -4.0265087,0.162754 -3.5188776,0 -3.7312045,-0.01454 -4.0056144,-0.222119 C 5.4834213,13.744085 5.309706,13.545897 5.25654,13.421616 5.2011924,13.292045 5.15873,12.493732 5.15873,11.536498 l 0,-1.660489 L 5.4704336,9.488748 5.7799702,9.103875 Z M 13.58161,20.238874 c -0.216134,-0.01587 -0.440613,0.01322 -0.668974,0.07536 -1.280769,0.379455 -2.019221,2.034521 -1.630938,3.646216 0.140419,0.580427 0.745362,1.429643 1.209169,1.691429 0.443572,0.25121 1.381889,0.278842 1.811639,0.05685 0.472314,-0.244593 0.98261,-0.867329 1.21343,-1.484771 0.690571,-1.84413 -0.42155,-3.871511 -1.934326,-3.984555 z m -0.19316,1.482264 c 0.108353,-0.01322 0.221361,0.01322 0.336566,0.0542 0.940338,0.349048 1.089074,1.928754 0.228477,2.437781 -0.539302,0.318636 -1.000342,0.174128 -1.356689,-0.42613 -0.502609,-0.83983 0.03192,-2.016805 0.791646,-2.065854 z"
       id="path5904"
       style="fill:#004150;fill-opacity:1" />
  </g>
</svg>
