<?xml version="1.0" encoding="UTF-8" standalone="no"?>
<!-- Created with Inkscape (http://www.inkscape.org/) -->

<svg
   xmlns:dc="http://purl.org/dc/elements/1.1/"
   xmlns:cc="http://creativecommons.org/ns#"
   xmlns:rdf="http://www.w3.org/1999/02/22-rdf-syntax-ns#"
   xmlns:svg="http://www.w3.org/2000/svg"
   xmlns="http://www.w3.org/2000/svg"
   xmlns:sodipodi="http://sodipodi.sourceforge.net/DTD/sodipodi-0.dtd"
   xmlns:inkscape="http://www.inkscape.org/namespaces/inkscape"
   width="1000"
   height="1000"
   id="svg3346"
   version="1.1"
   inkscape:version="0.91 r13725"
   viewBox="0 0 1000 1000"
   sodipodi:docname="accomodation_camp_site.svg">
  <defs
     id="defs3348" />
  <sodipodi:namedview
     id="base"
     pagecolor="#ffffff"
     bordercolor="#666666"
     borderopacity="1.0"
     inkscape:pageopacity="0.0"
     inkscape:pageshadow="2"
     inkscape:zoom="0.5"
     inkscape:cx="6.3954416"
     inkscape:cy="496"
     inkscape:current-layer="layer1"
     showgrid="true"
     inkscape:grid-bbox="true"
     inkscape:document-units="px"
     inkscape:window-width="1920"
     inkscape:window-height="1018"
     inkscape:window-x="-8"
     inkscape:window-y="-8"
     inkscape:window-maximized="1" />
  <metadata
     id="metadata3351">
    <rdf:RDF>
      <cc:Work
         rdf:about="">
        <dc:format>image/svg+xml</dc:format>
        <dc:type
           rdf:resource="http://purl.org/dc/dcmitype/StillImage" />
        <dc:title></dc:title>
      </cc:Work>
    </rdf:RDF>
  </metadata>
  <g
     id="layer1"
     inkscape:label="Layer 1"
     inkscape:groupmode="layer"
     transform="translate(0,968)">
    <path
       style="fill:#004150;fill-opacity:1;stroke:#004150;stroke-width:34.72325897;stroke-linejoin:round;stroke-opacity:1"
       d="m 77.659042,-130.43076 0,-29.96369 47.632948,0 47.63295,0 160.1734,-300.16459 c 88.10017,-165.12068 160.71724,-301.40837 161.35702,-302.76522 0.73559,-1.58299 -7.48562,-14.39764 -22.36093,-34.82573 -12.95592,-17.78976 -23.57655,-33.01659 -23.57655,-33.92116 0,-0.90454 3.61487,-5.42738 7.99748,-10.13865 l 7.99748,-8.51798 19.92969,27.28769 c 10.94053,15.00069 20.44154,28.04149 21.08133,28.94605 0.63981,0.90454 10.17278,-11.34474 21.20929,-27.28768 l 20.08968,-28.98376 4.12668,4.59821 c 2.27128,2.48755 6.11009,6.78423 8.57328,9.49793 l 4.31863,4.9374 -22.80877,32.6774 c -12.57203,17.97821 -22.55287,33.46887 -22.20101,34.41113 0.31925,0.94225 69.99389,137.30532 154.83109,303.02904 l 154.31923,301.25761 46.12943,0 46.16144,0 0,29.96369 0,29.81293 -421.3069,0 -421.306888,0 0,-29.85062 z m 532.759668,-44.09751 c -64.71553,-126.78977 -105.34269,-205.44917 -106.23844,-205.75069 -0.95969,-0.3769 -115.57946,213.10027 -117.17897,218.18845 -0.28931,0.90454 51.47176,1.69606 115.06765,1.69606 l 115.61148,0 -7.26172,-14.13382 0,0 z"
       inkscape:connector-curvature="0"
       id="path3338" />
  </g>
</svg>
