<?xml version="1.0" encoding="UTF-8" standalone="no"?>
<!-- Created with Inkscape (http://www.inkscape.org/) -->

<svg
   xmlns:dc="http://purl.org/dc/elements/1.1/"
   xmlns:cc="http://creativecommons.org/ns#"
   xmlns:rdf="http://www.w3.org/1999/02/22-rdf-syntax-ns#"
   xmlns:svg="http://www.w3.org/2000/svg"
   xmlns="http://www.w3.org/2000/svg"
   xmlns:sodipodi="http://sodipodi.sourceforge.net/DTD/sodipodi-0.dtd"
   xmlns:inkscape="http://www.inkscape.org/namespaces/inkscape"
   width="1000"
   height="1000"
   id="svg3353"
   version="1.1"
   inkscape:version="0.91 r13725"
   viewBox="0 0 1000 1000"
   sodipodi:docname="accomodation_motel.svg">
  <defs
     id="defs3355" />
  <sodipodi:namedview
     id="base"
     pagecolor="#ffffff"
     bordercolor="#666666"
     borderopacity="1.0"
     inkscape:pageopacity="0.0"
     inkscape:pageshadow="2"
     inkscape:zoom="0.5"
     inkscape:cx="6.3954416"
     inkscape:cy="416"
     inkscape:current-layer="layer1"
     showgrid="true"
     inkscape:grid-bbox="true"
     inkscape:document-units="px"
     inkscape:window-width="1920"
     inkscape:window-height="1018"
     inkscape:window-x="-8"
     inkscape:window-y="-8"
     inkscape:window-maximized="1" />
  <metadata
     id="metadata3358">
    <rdf:RDF>
      <cc:Work
         rdf:about="">
        <dc:format>image/svg+xml</dc:format>
        <dc:type
           rdf:resource="http://purl.org/dc/dcmitype/StillImage" />
        <dc:title></dc:title>
      </cc:Work>
    </rdf:RDF>
  </metadata>
  <g
     id="layer1"
     inkscape:label="Layer 1"
     inkscape:groupmode="layer"
     transform="translate(0,968)">
    <path
       id="path14193"
       style="fill:#004150;fill-opacity:1"
       d="m 246.95015,-711.09376 c -35.36115,-11.07269 -66.27208,-49.92423 -66.43245,-83.41426 -0.12027,-28.36163 8.74006,-48.25362 30.71047,-68.92264 27.50312,-25.83627 55.96844,-32.8684 91.57013,-22.65045 27.14228,7.80916 54.68549,32.40219 62.70389,55.98508 8.17877,24.01025 3.40782,61.77395 -10.30365,81.82134 -22.85244,33.52888 -69.19879,49.41916 -108.24839,37.18093 z m 162.3325,-55.67426 0,-61.85166 148.8616,0 c 174.76102,0 180.25362,0.85474 218.66176,34.84984 26.34044,23.34977 41.33485,46.93266 46.30626,72.84664 l 3.12718,16.00683 -208.51849,0 -208.43831,0 0,-61.85165 z m -356.53815,89.78591 0,-189.55667 10.42392,-11.77202 c 13.190268,-14.80243 38.5685,-15.65717 52.84126,-1.78717 8.9806,8.6639 9.38152,13.52034 10.66447,117.72017 l 1.32303,108.66776 375.02057,-1.08784 375.02056,-1.08784 2.36543,-78.20816 c 2.12487,-71.9142 2.92671,-78.67437 10.86493,-84.4244 21.60959,-15.3075 46.82745,-10.41221 58.17349,11.34465 4.16957,7.84802 5.69306,50.04079 5.73316,165.15791 l 0.0802,154.59032 -37.44593,0 -37.28556,0 -1.24285,-45.84486 -1.24285,-45.84482 -375.06066,-1.08784 -375.26111,-1.08784 0,46.93266 0,46.9327 -37.566204,0 -37.405836,0 0,-189.55671 z m 224.75575,655.231281 c -16.07689,-8.430785 -31.0713,-30.809273 -31.0713,-46.505295 0,-9.168964 -1.64377,-9.712886 -33.03581,-9.712886 l -32.99571,0 0,-98.17784 c 0,-75.87706 1.44331,-101.59678 6.33453,-112.90258 6.65527,-15.38521 27.30265,-30.65387 47.42884,-34.81098 11.26585,-2.3311 13.83174,-7.92572 43.98092,-95.88561 l 31.99342,-93.36029 193.36371,1.12669 193.32362,1.1267 31.43213,91.34001 31.43213,91.37883 17.23956,5.75002 c 22.49161,7.49835 40.65328,24.82614 46.02561,43.70799 2.44561,8.35308 4.37003,56.95636 4.37003,107.96843 l 0.0802,92.73863 -32.63488,0 -32.63489,0 -2.96681,13.870001 c -6.41472,29.682577 -30.95102,50.079636 -60.69929,50.079636 -30.63028,0.0777 -51.35785,-15.618319 -60.57901,-46.000224 l -5.53269,-18.299076 -130.8202,0 -130.7801,0 -2.64607,16.006835 c -3.48801,21.096386 -13.87183,34.81098 -31.91323,42.037367 -20.00591,8.469636 -40.77357,7.886863 -58.69469,-1.476358 l 0,0 z m 50.15509,-134.737141 c 50.19518,-20.31936 34.75976,-92.03931 -19.80545,-92.03931 -29.18697,0 -48.23067,19.89199 -48.23067,50.46816 0,19.34806 9.78245,33.76199 28.0644,41.49344 17.60038,7.42065 21.85014,7.42065 39.97172,0.0777 l 0,0 z m 391.45828,-0.42737 c 47.6293,-21.95112 31.71277,-91.61194 -21.0483,-91.61194 -45.5846,0 -67.59511,52.06107 -34.51921,81.8602 19.48471,17.6386 33.19618,20.0474 55.56751,9.75174 z m -45.86524,-173.74409 c 0,-2.95272 -8.5396,-31.27549 -18.96352,-62.90065 l -18.88333,-57.57798 -132.06305,-1.1267 -132.06304,-0.97129 -18.5626,57.57799 c -10.22346,31.70286 -19.72526,60.72496 -21.08839,64.02734 -2.20506,5.55577 19.20407,6.29395 169.58916,6.29395 134.82939,0 172.11495,-1.1267 172.03477,-5.32266 l 0,0 z"
       inkscape:connector-curvature="0" />
  </g>
</svg>
