<?xml version="1.0" encoding="UTF-8" standalone="no"?>
<!-- Created with Inkscape (http://www.inkscape.org/) -->

<svg
   xmlns:dc="http://purl.org/dc/elements/1.1/"
   xmlns:cc="http://creativecommons.org/ns#"
   xmlns:rdf="http://www.w3.org/1999/02/22-rdf-syntax-ns#"
   xmlns:svg="http://www.w3.org/2000/svg"
   xmlns="http://www.w3.org/2000/svg"
   xmlns:sodipodi="http://sodipodi.sourceforge.net/DTD/sodipodi-0.dtd"
   xmlns:inkscape="http://www.inkscape.org/namespaces/inkscape"
   width="352.78mm"
   height="352.78mm"
   viewBox="0 0 1250.0079 1250.0079"
   id="svg19452"
   version="1.1"
   inkscape:version="0.91 r13725"
   sodipodi:docname="accomodation_hostel.svg">
  <defs
     id="defs19454" />
  <sodipodi:namedview
     id="base"
     pagecolor="#ffffff"
     bordercolor="#666666"
     borderopacity="1.0"
     inkscape:pageopacity="0.0"
     inkscape:pageshadow="2"
     inkscape:zoom="0.5"
     inkscape:cx="80"
     inkscape:cy="520"
     inkscape:document-units="px"
     inkscape:current-layer="layer1"
     showgrid="false"
     inkscape:window-width="1920"
     inkscape:window-height="1018"
     inkscape:window-x="-8"
     inkscape:window-y="-8"
     inkscape:window-maximized="1" />
  <metadata
     id="metadata19457">
    <rdf:RDF>
      <cc:Work
         rdf:about="">
        <dc:format>image/svg+xml</dc:format>
        <dc:type
           rdf:resource="http://purl.org/dc/dcmitype/StillImage" />
        <dc:title></dc:title>
      </cc:Work>
    </rdf:RDF>
  </metadata>
  <g
     inkscape:label="Layer 1"
     inkscape:groupmode="layer"
     id="layer1"
     transform="translate(0,197.64569)">
    <path
       inkscape:connector-curvature="0"
       d="m 309.51982,80.757176 c -8.694,0.2734 -17.305,3.0537 -22.691,8.2752 l -7.163,7.4222 -0.819,338.625954 1.093,338.94854 60.225,0 0.547,-101.71597 571.089,0 0.272,99.84611 c 0,0 58.668,-0.27343 58.777,-0.27343 0,0 1.094,-663.6677 -0.82,-669.19 -1.367,-4.510704 -1.64,-11.927504 -5.714,-14.469904 -13.204,-8.2014 -33.462,-8.2014 -44.096,0 -6.998,5.4129 -6.834,6.0444 -9.186,14.628504 -1.092,3.4992 0.821,200.33465 0.821,224.30996 l -571.198,0.38271 -0.547,-230.717874 -7.244,-9.0762 c -5.74,-4.9755 -14.544,-7.2938 -23.237,-7.0477 z m 137.591,49.123364 a 74.605042,74.605042 0 0 0 -74.578,74.59139 74.605042,74.605042 0 0 0 74.578,74.59143 74.605042,74.605042 0 0 0 74.605,-74.59143 74.605042,74.605042 0 0 0 -74.605,-74.59139 z m 103.912,65.03399 0,48.749 0,48.21304 160.5,0 160.5,0 -2.46,-12.33205 c -5.522,-29.36089 -30.427,-60.14619 -60.745,-75.07259 -16.867,-9.5683 -16.922,-9.5574 -137.4,-9.5574 l -120.505,0 z m -210.53,181.00683 284.697,0 286.501,0 0,252.60741 -571.69,-0.32812 0.547,-252.28742 z m 106.618,48.64229 a 74.605042,74.605042 0 0 0 -74.578,74.59138 74.605042,74.605042 0 0 0 74.578,74.59138 74.605042,74.605042 0 0 0 74.605,-74.59138 74.605042,74.605042 0 0 0 -74.605,-74.59138 z m 103.912,52.27274 0,48.74889 0,48.21303 160.5,0 160.5,0 -2.46,-12.28014 c -5.522,-29.36089 -30.427,-60.146 -60.745,-75.07254 -16.867,-9.56825 -16.922,-9.60924 -137.4,-9.60924 l -120.505,0 z"
       id="path13065"
       style="fill:#004150;fill-opacity:1" />
  </g>
</svg>
