<?xml version="1.0" encoding="UTF-8" standalone="no"?>
<!-- Created with Inkscape (http://www.inkscape.org/) -->

<svg
   xmlns:dc="http://purl.org/dc/elements/1.1/"
   xmlns:cc="http://creativecommons.org/ns#"
   xmlns:rdf="http://www.w3.org/1999/02/22-rdf-syntax-ns#"
   xmlns:svg="http://www.w3.org/2000/svg"
   xmlns="http://www.w3.org/2000/svg"
   xmlns:sodipodi="http://sodipodi.sourceforge.net/DTD/sodipodi-0.dtd"
   xmlns:inkscape="http://www.inkscape.org/namespaces/inkscape"
   width="1000"
   height="1000"
   id="svg3340"
   version="1.1"
   inkscape:version="0.91 r13725"
   viewBox="0 0 1000 1000"
   sodipodi:docname="accomodation_hotel.svg">
  <defs
     id="defs3342" />
  <sodipodi:namedview
     id="base"
     pagecolor="#ffffff"
     bordercolor="#666666"
     borderopacity="1.0"
     inkscape:pageopacity="0.0"
     inkscape:pageshadow="2"
     inkscape:zoom="0.5"
     inkscape:cx="6.3954416"
     inkscape:cy="416"
     inkscape:current-layer="layer1"
     showgrid="true"
     inkscape:grid-bbox="true"
     inkscape:document-units="px"
     inkscape:window-width="1920"
     inkscape:window-height="1018"
     inkscape:window-x="-8"
     inkscape:window-y="-8"
     inkscape:window-maximized="1" />
  <metadata
     id="metadata3345">
    <rdf:RDF>
      <cc:Work
         rdf:about="">
        <dc:format>image/svg+xml</dc:format>
        <dc:type
           rdf:resource="http://purl.org/dc/dcmitype/StillImage" />
        <dc:title></dc:title>
      </cc:Work>
    </rdf:RDF>
  </metadata>
  <g
     id="layer1"
     inkscape:label="Layer 1"
     inkscape:groupmode="layer"
     transform="translate(0,968)">
    <path
       id="path13632"
       style="fill:#004150;fill-opacity:1"
       d="m 95.9635,-430.89913 c 0,-230.87101 0.84025,-270.85701 6.03003,-283.1642 10.2807,-24.71323 40.82626,-26.44316 54.81394,-3.11387 7.95766,13.19687 8.35308,20.11657 9.53931,176.99616 l 1.18624,163.20617 335.55624,0 335.6551,0 0,-124.80181 c 0,-100.18744 1.13681,-127.47084 5.7829,-138.69065 7.21626,-17.29926 25.60291,-25.99832 40.7274,-19.52345 22.88446,9.88529 22.5879,5.48633 23.67528,262.10852 l 1.23566,235.76422 -35.73533,0 -35.73533,0 0,-63.56243 0,-63.46357 -335.80338,0 -335.85281,0 0,63.46357 0,63.56243 -35.53762,0 -35.53763,0 0,-268.78109 0,0 z m 172.15237,-2.37247 c -52.39205,-15.91533 -78.09381,-51.74951 -75.0788,-104.73468 2.22419,-39.29403 17.20041,-64.60038 49.47589,-83.48129 65.39121,-38.30551 153.71629,12.90031 153.71629,89.21476 0.0494,61.98079 -70.48213,116.44875 -128.11338,99.00121 z m 151.78866,-83.679 0,-71.86608 141.60681,1.48279 c 139.08606,1.43337 141.90337,1.6805 158.31296,12.75203 9.29217,6.22774 23.7247,19.2269 32.1272,28.81563 16.50844,18.83148 38.99748,70.33385 38.99748,89.11591 l 0,11.56579 -185.64579,0 -185.44809,0 0.0494,-71.86607 0,0 z" />
  </g>
</svg>
