<?xml version="1.0" encoding="UTF-8" standalone="no"?>
<!-- Created with Inkscape (http://www.inkscape.org/) -->

<svg
   xmlns:dc="http://purl.org/dc/elements/1.1/"
   xmlns:cc="http://creativecommons.org/ns#"
   xmlns:rdf="http://www.w3.org/1999/02/22-rdf-syntax-ns#"
   xmlns:svg="http://www.w3.org/2000/svg"
   xmlns="http://www.w3.org/2000/svg"
   xmlns:sodipodi="http://sodipodi.sourceforge.net/DTD/sodipodi-0.dtd"
   xmlns:inkscape="http://www.inkscape.org/namespaces/inkscape"
   width="1000"
   height="1000"
   id="svg3350"
   version="1.1"
   inkscape:version="0.91 r13725"
   viewBox="0 0 1000 1000"
   sodipodi:docname="catering_fastfood.svg">
  <defs
     id="defs3352" />
  <sodipodi:namedview
     id="base"
     pagecolor="#ffffff"
     bordercolor="#666666"
     borderopacity="1.0"
     inkscape:pageopacity="0.0"
     inkscape:pageshadow="2"
     inkscape:zoom="0.5"
     inkscape:cx="6.3954416"
     inkscape:cy="336"
     inkscape:current-layer="layer1"
     showgrid="true"
     inkscape:grid-bbox="true"
     inkscape:document-units="px"
     inkscape:window-width="1920"
     inkscape:window-height="1018"
     inkscape:window-x="-8"
     inkscape:window-y="-8"
     inkscape:window-maximized="1" />
  <metadata
     id="metadata3355">
    <rdf:RDF>
      <cc:Work
         rdf:about="">
        <dc:format>image/svg+xml</dc:format>
        <dc:type
           rdf:resource="http://purl.org/dc/dcmitype/StillImage" />
        <dc:title></dc:title>
      </cc:Work>
    </rdf:RDF>
  </metadata>
  <g
     id="layer1"
     inkscape:label="Layer 1"
     inkscape:groupmode="layer"
     transform="translate(0,968)">
    <path
       id="path11952"
       style="fill:#6e5028;fill-opacity:1"
       d="m 67.288131,-591.46155 c 1.717708,-62.89831 3.581603,-75.10246 16.007575,-106.57396 20.137364,-50.96239 65.930724,-105.50108 111.577904,-132.85983 62.56842,-37.50653 81.4632,-39.96524 306.8484,-40.05464 183.64855,-0.0894 203.85902,0.89407 238.76138,11.80181 82.08451,25.70471 145.96862,86.0102 177.17974,167.32649 13.66857,35.76308 15.82484,48.54838 17.61564,106.03752 l 2.30246,65.35702 -436.18815,0 -436.078486,0 1.973537,-71.03441 z m -42.28485,233.84577 c -24.9250369,-23.96126 -11.11028,-60.88664 25.582882,-68.30743 33.038466,-6.52676 886.593047,-4.29157 906.693887,2.72693 21.37998,7.15266 35.66985,29.23632 30.91874,47.65434 -8.11343,31.15854 3.54506,30.62214 -490.93551,30.62214 -457.129551,-0.17882 -459.285823,-0.26823 -472.259999,-12.69589 z M 132.7072,-87.693971 c -21.92818,-11.712407 -49.155665,-42.602759 -58.365503,-66.340509 -4.604919,-11.98063 -7.96724,-36.076 -7.96724,-57.44444 l 0,-36.88067 435.493733,0 435.49376,0 -1.97354,41.48517 c -2.37555,52.66113 -17.87147,83.64089 -54.74737,109.479715 l -25.9849,18.149761 -353.33615,-0.178815 c -284.29892,-0.0447 -356.36955,-1.74345 -368.61279,-8.270212 l 0,0 z"
       inkscape:connector-curvature="0" />
  </g>
</svg>
