<?xml version="1.0" encoding="UTF-8" standalone="no"?>
<!-- Created with Inkscape (http://www.inkscape.org/) -->

<svg
   xmlns:dc="http://purl.org/dc/elements/1.1/"
   xmlns:cc="http://creativecommons.org/ns#"
   xmlns:rdf="http://www.w3.org/1999/02/22-rdf-syntax-ns#"
   xmlns:svg="http://www.w3.org/2000/svg"
   xmlns="http://www.w3.org/2000/svg"
   xmlns:sodipodi="http://sodipodi.sourceforge.net/DTD/sodipodi-0.dtd"
   xmlns:inkscape="http://www.inkscape.org/namespaces/inkscape"
   width="352.78mm"
   height="352.78mm"
   viewBox="0 0 1250.0079 1250.0079"
   id="svg22578"
   version="1.1"
   inkscape:version="0.91 r13725"
   sodipodi:docname="catering_pub.svg">
  <defs
     id="defs22580" />
  <sodipodi:namedview
     id="base"
     pagecolor="#ffffff"
     bordercolor="#666666"
     borderopacity="1.0"
     inkscape:pageopacity="0.0"
     inkscape:pageshadow="2"
     inkscape:zoom="0.5"
     inkscape:cx="375"
     inkscape:cy="520"
     inkscape:document-units="px"
     inkscape:current-layer="layer1"
     showgrid="false"
     inkscape:window-width="1920"
     inkscape:window-height="1018"
     inkscape:window-x="-8"
     inkscape:window-y="-8"
     inkscape:window-maximized="1" />
  <metadata
     id="metadata22583">
    <rdf:RDF>
      <cc:Work
         rdf:about="">
        <dc:format>image/svg+xml</dc:format>
        <dc:type
           rdf:resource="http://purl.org/dc/dcmitype/StillImage" />
        <dc:title></dc:title>
      </cc:Work>
    </rdf:RDF>
  </metadata>
  <g
     inkscape:label="Layer 1"
     inkscape:groupmode="layer"
     id="layer1"
     transform="translate(0,197.64569)">
    <path
       inkscape:connector-curvature="0"
       d="m 625.04225,89.604819 c -248.6753,0 -280.6494,0.709 -280.6494,5.87 0,6.041001 105.9557,645.654001 109.5005,661.053001 l 1.985,8.584 168.1543,0 168.2138,0 54.6667,-329.111 c 30.0882,-181.041 55.6108,-333.019 56.7169,-337.755001 l 1.985,-8.641 -280.5927,0 z m -216.3438,53.782001 213.5192,0 c 200.7495,0 213.5165,0.369 213.5732,6.701 0,3.687 -3.715,29.586 -8.2523,57.548 l -8.3629,50.847 -195.2422,0 c -152.8521,0 -195.6818,-1.021 -196.9012,-4.765 -0.8508,-2.637 -4.3786,-23.798 -7.8667,-47.024 -3.4881,-23.225 -7.2285,-46.97 -8.3629,-52.783 l -2.0985,-10.524 z"
       id="path16995"
       style="fill:#6e5028;fill-opacity:1" />
  </g>
</svg>
