<?xml version="1.0" encoding="UTF-8" standalone="no"?>
<!-- Created with Inkscape (http://www.inkscape.org/) -->

<svg
   xmlns:dc="http://purl.org/dc/elements/1.1/"
   xmlns:cc="http://creativecommons.org/ns#"
   xmlns:rdf="http://www.w3.org/1999/02/22-rdf-syntax-ns#"
   xmlns:svg="http://www.w3.org/2000/svg"
   xmlns="http://www.w3.org/2000/svg"
   xmlns:sodipodi="http://sodipodi.sourceforge.net/DTD/sodipodi-0.dtd"
   xmlns:inkscape="http://www.inkscape.org/namespaces/inkscape"
   width="352.78mm"
   height="352.78mm"
   viewBox="0 0 1250.0079 1250.0079"
   id="svg23237"
   version="1.1"
   inkscape:version="0.91 r13725"
   sodipodi:docname="catering_restaurant.svg">
  <defs
     id="defs23239" />
  <sodipodi:namedview
     id="base"
     pagecolor="#ffffff"
     bordercolor="#666666"
     borderopacity="1.0"
     inkscape:pageopacity="0.0"
     inkscape:pageshadow="2"
     inkscape:zoom="0.5"
     inkscape:cx="80"
     inkscape:cy="520"
     inkscape:document-units="px"
     inkscape:current-layer="layer1"
     showgrid="false"
     inkscape:window-width="1920"
     inkscape:window-height="1018"
     inkscape:window-x="-8"
     inkscape:window-y="-8"
     inkscape:window-maximized="1" />
  <metadata
     id="metadata23242">
    <rdf:RDF>
      <cc:Work
         rdf:about="">
        <dc:format>image/svg+xml</dc:format>
        <dc:type
           rdf:resource="http://purl.org/dc/dcmitype/StillImage" />
        <dc:title></dc:title>
      </cc:Work>
    </rdf:RDF>
  </metadata>
  <g
     inkscape:label="Layer 1"
     inkscape:groupmode="layer"
     id="layer1"
     transform="translate(0,197.64569)">
    <path
       inkscape:connector-curvature="0"
       d="m 702.14183,67.852525 c -8.112,0.585 -16.7796,7.691 -20.6193,17.663 -1.8423,5.147 -3.2547,79.336005 -3.2547,179.230995 0,195.928 -2.0178,183.295 34.0418,205.958 63.8667,40.034 60.071,24.769 44.8354,175.633 -6.8429,67.318 -12.3962,126.447 -12.3962,131.536 l 0,0 0,0 0,9.357 61.3987,0 c 60.299,0 61.2845,0 61.2845,-7.486 0,-4.211 -5.7199,-63.574 -12.6213,-132.149 -11.4047,-115.334 -12.1709,-125.336 -7.0826,-135.892 5.0298,-10.616 11.0802,-15.294 57.45957,-44.479 30.0325,-18.979 28.6698,-9.592 28.6698,-201.046 0,-180.867995 -0.5556,-187.768995 -17.3616,-196.775995 -9.4455,-5.059 -23.21597,2.925 -28.15807,16.113 -1.8715,5.059 -3.3132,70.125005 -3.3132,153.817995 0,140.425 -0.2924,145.367 -6.9101,152.152 -10.0889,10.059 -29.6173,9.27 -40.4372,-1.755 l -8.5682,-8.627 0,-145.308 c 0,-99.01699 -1.2575,-148.027995 -3.8835,-153.846995 -7.0768,-15.353 -28.4447,-18.365 -36.9544,-5.206 -1.6084,2.632 -3.7168,72.523005 -4.6818,155.514995 -1.4329,119.545 -2.8073,152.122 -6.5124,156.625 -9.9426,11.931 -38.2937,10.411 -46.8912,-2.632 -1.3744,-2.047 -2.6318,-68.107 -2.6903,-146.683 0,-152.647995 -1.082,-161.683995 -17.5341,-170.544995 -2.3687,-1.17 -5.0064,-1.754 -7.7114,-1.462 z m -232.8006,0.585 c -10.8872,0 -21.6165,3.129 -32.9569,9.767 -102.9061,60.270005 -151.9583,236.985995 -98.1805,353.255995 16.5516,35.764 54.6026,77.084 88.6414,96.122 3.7139,2.047 2.2225,25.266 -7.6529,123.2 -6.6966,66.353 -12.2235,124.166 -12.2235,128.553 0,7.895 0,7.925 61.229,7.72 l 61.2845,0 0,-9.592 c 0,-5.234 -5.4129,-63.223 -12.051,-128.669 -7.223,-71.353 -10.7,-119.575 -8.6823,-120.189 1.8423,-0.585 12.6974,-7.983 24.1606,-16.434 39.4196,-29.009 72.2595,-81.033 82.8162,-131.155 8.2758,-39.391 5.0532,-107.498 -7.0242,-148.028 -16.1714,-54.158 -44.8178,-102.26299 -79.6755,-133.640995 -22.9206,-20.616 -41.5426,-30.617 -59.6849,-30.91 z"
       id="path17553"
       style="fill:#6e5028;fill-opacity:1" />
  </g>
</svg>
