<?xml version="1.0" encoding="UTF-8" standalone="no"?>
<!-- Created with Inkscape (http://www.inkscape.org/) -->

<svg
   xmlns:dc="http://purl.org/dc/elements/1.1/"
   xmlns:cc="http://creativecommons.org/ns#"
   xmlns:rdf="http://www.w3.org/1999/02/22-rdf-syntax-ns#"
   xmlns:svg="http://www.w3.org/2000/svg"
   xmlns="http://www.w3.org/2000/svg"
   xmlns:sodipodi="http://sodipodi.sourceforge.net/DTD/sodipodi-0.dtd"
   xmlns:inkscape="http://www.inkscape.org/namespaces/inkscape"
   width="32"
   height="32"
   id="svg3350"
   version="1.1"
   inkscape:version="0.91 r13725"
   viewBox="0 0 32 32"
   sodipodi:docname="fast_food_.svg">
  <defs
     id="defs3352" />
  <sodipodi:namedview
     id="base"
     pagecolor="#ffffff"
     bordercolor="#666666"
     borderopacity="1.0"
     inkscape:pageopacity="0.0"
     inkscape:pageshadow="2"
     inkscape:zoom="20"
     inkscape:cx="8.5263671"
     inkscape:cy="16"
     inkscape:current-layer="layer1"
     showgrid="true"
     inkscape:grid-bbox="true"
     inkscape:document-units="px"
     inkscape:window-width="1920"
     inkscape:window-height="1018"
     inkscape:window-x="-8"
     inkscape:window-y="-8"
     inkscape:window-maximized="1" />
  <metadata
     id="metadata3355">
    <rdf:RDF>
      <cc:Work
         rdf:about="">
        <dc:format>image/svg+xml</dc:format>
        <dc:type
           rdf:resource="http://purl.org/dc/dcmitype/StillImage" />
        <dc:title />
      </cc:Work>
    </rdf:RDF>
  </metadata>
  <g
     id="layer1"
     inkscape:label="Layer 1"
     inkscape:groupmode="layer">
    <path
       style="fill:#6e5028;fill-opacity:1"
       id="path11948"
       inkscape:connector-curvature="0"
       d="m 5.679596,24.566056 c -0.6,-0.262 -1.3449996,-0.953 -1.5969996,-1.484 -0.126,-0.268 -0.218,-0.807 -0.218,-1.285 l 0,-0.825 11.9159996,0 11.916,0 -0.054,0.928 c -0.065,1.178 -0.489,1.871 -1.498,2.449 l -0.711,0.406 -9.668,-0.004 c -7.779,-10e-4 -9.751,-0.039 -10.086,-0.185 l 0,0 z" />
    <path
       style="fill:#6e5028;fill-opacity:1"
       id="path11950"
       inkscape:connector-curvature="0"
       d="m 2.7325964,18.528056 c -0.682,-0.536 -0.304,-1.362 0.7,-1.527999 0.904,-0.146 24.2589996,-0.096 24.8089996,0.061 0.585,0.160001 0.976,0.654 0.846,1.066001 -0.222,0.696999 0.097,0.685 -13.433,0.685 -12.5079996,-0.004 -12.5669996,-0.006 -12.9219996,-0.284 z" />
    <path
       style="fill:#6e5028;fill-opacity:1"
       id="path11952"
       inkscape:connector-curvature="0"
       d="m 3.8895964,13.297057 c 0.047,-1.407 0.098,-1.68 0.438,-2.384 0.5509996,-1.14 1.8039996,-2.36 3.0529996,-2.972 1.712,-0.839 2.229,-0.894 8.396,-0.896 5.025,-0.002 5.578,0.02 6.533,0.264 2.246,0.575 3.994,1.924 4.848,3.743 0.374,0.8 0.433,1.086 0.482,2.372 l 0.063,1.462 -11.935,0 -11.9319996,0 0.054,-1.589 z" />
  </g>
</svg>
