<?xml version="1.0" encoding="UTF-8" standalone="no"?>
<!-- Created with Inkscape (http://www.inkscape.org/) -->

<svg
   xmlns:dc="http://purl.org/dc/elements/1.1/"
   xmlns:cc="http://creativecommons.org/ns#"
   xmlns:rdf="http://www.w3.org/1999/02/22-rdf-syntax-ns#"
   xmlns:svg="http://www.w3.org/2000/svg"
   xmlns="http://www.w3.org/2000/svg"
   xmlns:sodipodi="http://sodipodi.sourceforge.net/DTD/sodipodi-0.dtd"
   xmlns:inkscape="http://www.inkscape.org/namespaces/inkscape"
   width="1000"
   height="1000"
   id="svg3348"
   version="1.1"
   inkscape:version="0.91 r13725"
   viewBox="0 0 1000 1000"
   sodipodi:docname="catering_restaurant.svg">
  <defs
     id="defs3350" />
  <sodipodi:namedview
     id="base"
     pagecolor="#ffffff"
     bordercolor="#666666"
     borderopacity="1.0"
     inkscape:pageopacity="0.0"
     inkscape:pageshadow="2"
     inkscape:zoom="0.5"
     inkscape:cx="4.0839292"
     inkscape:cy="574.89927"
     inkscape:current-layer="layer1"
     showgrid="true"
     inkscape:grid-bbox="true"
     inkscape:document-units="px"
     inkscape:window-width="1920"
     inkscape:window-height="1018"
     inkscape:window-x="-8"
     inkscape:window-y="-8"
     inkscape:window-maximized="1" />
  <metadata
     id="metadata3353">
    <rdf:RDF>
      <cc:Work
         rdf:about="">
        <dc:format>image/svg+xml</dc:format>
        <dc:type
           rdf:resource="http://purl.org/dc/dcmitype/StillImage" />
        <dc:title></dc:title>
      </cc:Work>
    </rdf:RDF>
  </metadata>
  <g
     id="layer1"
     inkscape:label="Layer 1"
     inkscape:groupmode="layer"
     transform="translate(0,968)">
    <path
       id="path17555"
       style="fill:#6e5028;fill-opacity:1;stroke:none"
       d="m 206.48472,-25.850945 c 0,-5.502918 7.32679,-78.031435 16.25143,-161.272295 13.17262,-122.86191 15.12124,-152.06408 10.17176,-154.59542 -45.3637,-23.88268 -96.0666,-75.68351 -118.12489,-120.55067 -71.669985,-145.86412 -6.27454,-367.55852 130.86882,-443.16867 40.29731,-22.23179 74.5929,-14.85789 123.46411,26.52409 46.45492,39.36424 84.64773,99.67626 106.1994,167.619 16.09553,50.84701 20.38248,136.36242 9.35334,185.77865 -14.06899,62.88006 -57.83484,128.07134 -110.36944,164.464 -15.27712,10.6023 -29.77479,19.92057 -32.23005,20.6543 -2.68909,0.77041 1.98759,61.22918 11.61373,150.74337 8.8467,82.1036 16.05657,154.852224 16.05657,161.419051 l 0,12.033059 -81.68585,0 c -81.49099,0.256799 -81.56893,0.256799 -81.56893,-9.648465 z m 450.12956,-1.797617 c 0,-6.383389 7.36575,-80.562778 16.48526,-165.014278 20.30454,-189.26384 25.40992,-170.11366 -59.7055,-220.337 -48.05278,-28.43177 -45.3637,-12.54667 -45.3637,-258.34385 0,-125.31988 1.8317,-218.42932 4.28695,-224.88608 6.82015,-16.6922 25.17607,-26.56077 37.80308,-20.25075 21.94138,11.1159 23.30541,22.45192 23.38336,213.9536 0.078,98.57568 1.6758,181.33964 3.5075,183.98104 11.45785,16.21527 49.26093,18.12295 62.5115,3.15501 4.94948,-5.64967 6.78117,-46.48135 8.69081,-196.45433 1.28609,-104.11529 4.0921,-191.90523 6.23557,-195.09692 11.34092,-16.50877 39.79067,-12.7301 49.22196,6.53013 3.50749,7.30054 5.1833,68.78652 5.1833,193.00581 l 0,182.29347 11.45784,10.78574 c 14.41974,13.64723 40.45321,14.63776 53.89863,2.01773 8.96363,-8.51119 9.19746,-14.67446 9.19746,-190.84135 0,-104.99575 1.90964,-186.65911 4.40386,-193.00581 6.58632,-16.65551 24.98122,-26.56077 37.56926,-20.21407 22.40905,11.29933 23.18849,19.99396 23.11055,246.89778 0,240.1842 1.83169,228.40795 -38.19281,252.21726 -61.81,36.61277 -69.87726,42.48255 -76.58048,55.79962 -6.78118,13.2437 -5.76789,25.75368 9.43128,170.44384 9.19746,86.02901 16.83602,160.501893 16.83602,165.784699 0,9.244905 -1.32506,9.428335 -81.68586,9.428335 l -81.84173,0 0,-11.776255 0.15589,0 0,-0.07339 z"
       inkscape:connector-curvature="0" />
  </g>
</svg>
