<?xml version="1.0" encoding="UTF-8" standalone="no"?>
<!-- Created with Inkscape (http://www.inkscape.org/) -->

<svg
   xmlns:dc="http://purl.org/dc/elements/1.1/"
   xmlns:cc="http://creativecommons.org/ns#"
   xmlns:rdf="http://www.w3.org/1999/02/22-rdf-syntax-ns#"
   xmlns:svg="http://www.w3.org/2000/svg"
   xmlns="http://www.w3.org/2000/svg"
   xmlns:sodipodi="http://sodipodi.sourceforge.net/DTD/sodipodi-0.dtd"
   xmlns:inkscape="http://www.inkscape.org/namespaces/inkscape"
   width="1000"
   height="1000"
   id="svg3346"
   version="1.1"
   inkscape:version="0.91 r13725"
   viewBox="0 0 1000 1000"
   sodipodi:docname="catering_pub.svg">
  <defs
     id="defs3348" />
  <sodipodi:namedview
     id="base"
     pagecolor="#ffffff"
     bordercolor="#666666"
     borderopacity="1.0"
     inkscape:pageopacity="0.0"
     inkscape:pageshadow="2"
     inkscape:zoom="0.5"
     inkscape:cx="4.0839292"
     inkscape:cy="416"
     inkscape:current-layer="layer1"
     showgrid="true"
     inkscape:grid-bbox="true"
     inkscape:document-units="px"
     inkscape:window-width="1920"
     inkscape:window-height="1018"
     inkscape:window-x="-8"
     inkscape:window-y="-8"
     inkscape:window-maximized="1" />
  <metadata
     id="metadata3351">
    <rdf:RDF>
      <cc:Work
         rdf:about="">
        <dc:format>image/svg+xml</dc:format>
        <dc:type
           rdf:resource="http://purl.org/dc/dcmitype/StillImage" />
        <dc:title></dc:title>
      </cc:Work>
    </rdf:RDF>
  </metadata>
  <g
     id="layer1"
     inkscape:label="Layer 1"
     inkscape:groupmode="layer"
     transform="translate(0,968)">
    <path
       style="fill:#6e5028;fill-opacity:1;stroke:#6e5028;stroke-width:39.88004303;stroke-opacity:1"
       id="path16995"
       inkscape:connector-curvature="0"
       d="M 221.18667,-53.792251 C 215.41708,-72.502308 43.021392,-849.6763 43.021392,-857.01561 c 0,-6.27115 51.97257,-7.09811 456.721638,-7.09811 l 456.72165,0 -3.23097,10.47488 c -1.80013,5.7543 -43.34126,190.44294 -92.31363,410.41541 l -88.99034,399.83715 -273.75604,0 -273.75604,0 -3.23099,-10.405971 0,0 z M 829.34882,-720.70436 c 7.38509,-33.97444 13.52395,-65.46799 13.43163,-69.94738 -0.0923,-7.68387 -20.86287,-8.16627 -347.60694,-8.16627 l -347.51464,0 3.36946,12.81794 c 1.84627,7.06365 7.98512,35.90403 13.6624,64.12418 5.6773,28.22015 11.4469,53.92495 12.8316,57.12944 1.98474,4.54831 71.63538,5.8232 320.42059,5.8232 l 317.78964,0 13.61626,-61.78111 z" />
  </g>
</svg>
