<?xml version="1.0" encoding="UTF-8" standalone="no"?>
<!-- Created with Inkscape (http://www.inkscape.org/) -->

<svg
   xmlns:dc="http://purl.org/dc/elements/1.1/"
   xmlns:cc="http://creativecommons.org/ns#"
   xmlns:rdf="http://www.w3.org/1999/02/22-rdf-syntax-ns#"
   xmlns:svg="http://www.w3.org/2000/svg"
   xmlns="http://www.w3.org/2000/svg"
   xmlns:sodipodi="http://sodipodi.sourceforge.net/DTD/sodipodi-0.dtd"
   xmlns:inkscape="http://www.inkscape.org/namespaces/inkscape"
   width="32"
   height="32"
   id="svg7172"
   version="1.1"
   inkscape:version="0.91 r13725"
   viewBox="0 0 32 32"
   sodipodi:docname="coniferous.svg">
  <defs
     id="defs7174" />
  <sodipodi:namedview
     id="base"
     pagecolor="#ffffff"
     bordercolor="#666666"
     borderopacity="1.0"
     inkscape:pageopacity="0.0"
     inkscape:pageshadow="2"
     inkscape:zoom="20"
     inkscape:cx="11.871489"
     inkscape:cy="16"
     inkscape:current-layer="layer1"
     showgrid="true"
     inkscape:grid-bbox="true"
     inkscape:document-units="px"
     inkscape:window-width="1920"
     inkscape:window-height="1018"
     inkscape:window-x="-8"
     inkscape:window-y="-8"
     inkscape:window-maximized="1" />
  <metadata
     id="metadata7177">
    <rdf:RDF>
      <cc:Work
         rdf:about="">
        <dc:format>image/svg+xml</dc:format>
        <dc:type
           rdf:resource="http://purl.org/dc/dcmitype/StillImage" />
        <dc:title></dc:title>
      </cc:Work>
    </rdf:RDF>
  </metadata>
  <g
     id="layer1"
     inkscape:label="Layer 1"
     inkscape:groupmode="layer">
    <path
       style="fill:#000000;fill-opacity:1"
       d="M 15.958889,2.0252252 C 14.428279,1.9933562 12.817151,3.0354054 12.491497,5.1710203 12.353649,6.0752999 12.238402,6.3660298 11.368514,6.3845996 8.688883,6.4417166 7.5492317,11.288335 9.8132,13.572702 c 0.22433,0.22637 0.09507,0.422871 -0.660186,1.129491 -3.8433554,3.596203 0.295048,10.77211 4.226112,7.328135 0.575576,-0.504269 0.666856,-0.509663 0.796732,-0.09326 0.274102,0.878922 0.152262,5.099147 -0.189738,6.497293 l -0.341401,1.390862 2.056015,0 c 0.203553,0 0.305429,8.97e-4 0.47051,0 0.167044,8.97e-4 0.27122,0 0.478069,0 l 2.056016,0 -0.333812,-1.390862 c -0.341969,-1.398146 -0.47143,-5.618371 -0.197312,-6.497293 0.129875,-0.4164 0.221156,-0.411006 0.796731,0.09326 3.931049,3.443975 8.069391,-3.731932 4.226036,-7.328135 -0.755163,-0.70662 -0.923341,-1.001682 -0.652474,-1.129491 C 24.80839,12.50375 23.595383,6.9279814 20.981533,6.3845996 20.123636,6.2063098 20.004096,6.0752999 19.866201,5.1710203 19.525183,2.9342508 17.770656,1.904535 16.178819,2.0438778 c -0.07253,-0.0069 -0.146896,-0.017107 -0.21993,-0.018625 z"
       id="path9696"
       inkscape:connector-curvature="0" />
  </g>
</svg>
