<?xml version="1.0" encoding="UTF-8" standalone="no"?>
<!-- Created with Inkscape (http://www.inkscape.org/) -->

<svg
   xmlns:dc="http://purl.org/dc/elements/1.1/"
   xmlns:cc="http://creativecommons.org/ns#"
   xmlns:rdf="http://www.w3.org/1999/02/22-rdf-syntax-ns#"
   xmlns:svg="http://www.w3.org/2000/svg"
   xmlns="http://www.w3.org/2000/svg"
   xmlns:sodipodi="http://sodipodi.sourceforge.net/DTD/sodipodi-0.dtd"
   xmlns:inkscape="http://www.inkscape.org/namespaces/inkscape"
   width="32"
   height="32"
   id="svg9913"
   version="1.1"
   inkscape:version="0.91 r13725"
   viewBox="0 0 32 32"
   sodipodi:docname="destination_zoo.svg">
  <defs
     id="defs9915" />
  <sodipodi:namedview
     id="base"
     pagecolor="#ffffff"
     bordercolor="#666666"
     borderopacity="1.0"
     inkscape:pageopacity="0.0"
     inkscape:pageshadow="2"
     inkscape:zoom="20"
     inkscape:cx="11.871489"
     inkscape:cy="16"
     inkscape:current-layer="layer1"
     showgrid="true"
     inkscape:grid-bbox="true"
     inkscape:document-units="px"
     inkscape:window-width="1920"
     inkscape:window-height="1018"
     inkscape:window-x="-8"
     inkscape:window-y="-8"
     inkscape:window-maximized="1" />
  <metadata
     id="metadata9918">
    <rdf:RDF>
      <cc:Work
         rdf:about="">
        <dc:format>image/svg+xml</dc:format>
        <dc:type
           rdf:resource="http://purl.org/dc/dcmitype/StillImage" />
        <dc:title></dc:title>
      </cc:Work>
    </rdf:RDF>
  </metadata>
  <g
     id="layer1"
     inkscape:label="Layer 1"
     inkscape:groupmode="layer">
    <path
       style="fill:#0a8228;fill-opacity:1;stroke:none;stroke-opacity:1"
       d="m 21.421643,5.01323 c -1.434047,-0.002 -2.644412,0.90954 -3.262671,2.46606 -0.817826,2.04628 -0.07569,4.56488 1.645409,5.56748 1.488279,0.86956 3.315277,0.42916 4.35216,-1.05114 0.164779,-0.23704 0.177891,-0.24081 0.479874,-0.24567 0.346999,-0.003 0.346369,-0.0306 0.02554,0.4677 -0.92124,1.42589 -2.505443,2.10982 -4.024422,1.73853 C 19.315059,13.63328 18.184508,12.50475 17.67273,10.98938 17.234629,9.69774 17.290715,8.13169 17.812752,6.90293 L 17.996598,6.47066 17.820746,6.43756 C 17.42973,6.36626 14.985297,5.99728 14.154176,5.88722 11.488763,5.53405 9.5007763,5.4684 8.5785403,5.70058 7.4781619,5.97876 6.38478,6.50807 5.7296944,7.0777 4.8719157,7.8239 4.2800967,8.88009 3.9883725,10.18623 c -0.5240754,2.34745 -0.3997983,4.80841 0.7097637,14.06639 0.2139036,1.7887 0.4180053,3.55679 0.4518084,3.9329 l 0.062407,0.68031 0.889727,0 c 0.48923,0 1.1209213,-0.0113 1.4013549,-0.0331 l 0.511777,-0.0354 0.010303,-1.51647 c 0.010303,-1.60852 0.09115,-2.86259 0.2658108,-3.88331 0.1832151,-1.06067 0.4064856,-1.5526 0.8056541,-1.77633 0.9539896,-0.52974 3.9835076,-0.8409 6.2414976,-0.64011 1.704266,0.14876 2.644412,0.44643 3.006777,0.94956 0.534323,0.74378 0.731761,2.25648 0.687743,5.25098 l -0.02256,1.70544 1.471401,-0.0331 c 0.811688,-0.0206 1.48695,-0.0503 1.503314,-0.0709 0.01534,-0.0206 0.319458,-2.86341 0.677713,-6.31866 0.357257,-3.45283 0.653756,-6.27847 0.655829,-6.27847 0,0 0.383836,0.008 0.849557,0.0188 1.24876,0.0303 1.799562,-0.14117 2.299052,-0.71804 0.121837,-0.14152 0.252115,-0.2575 0.287945,-0.2575 0.147386,0 0.41157,0.31794 0.547733,0.66138 0.376645,0.95181 0.545248,2.33138 0.739719,6.0612 0.113594,2.16601 -0.05428,3.02363 -0.661715,3.37073 -0.535366,0.30475 -1.577882,-0.0491 -1.983223,-0.67794 -0.113593,-0.17415 -0.13235,-0.26866 -0.155859,-0.79839 -0.02153,-0.48014 -0.04706,-0.62727 -0.122022,-0.72278 -0.142278,-0.18388 -0.408191,-0.25221 -0.901578,-0.22677 -0.413528,0.0157 -0.457648,0.033 -0.595815,0.18897 -0.193476,0.22253 -0.228275,0.42511 -0.127941,0.83144 0.341844,1.39808 1.519082,2.73056 2.682875,3.0353 0.399203,0.10524 1.267012,0.0473 1.629344,-0.10628 0.559905,-0.23463 0.976719,-0.74184 1.313469,-1.59207 0.271249,-0.6809 0.295835,-0.9608 0.34189,-3.55496 0.02358,-1.3086 0.07363,-3.42464 0.105922,-4.70298 0.09322,-3.44922 0.08497,-6.1487 -0.02142,-7.05089 -0.297862,-2.52404 -0.8772,-3.71153 -2.179194,-4.4904 -0.534324,-0.31925 -0.947852,-0.41212 -1.833251,-0.41337 -0.887425,-0.001 -1.177603,0.0607 -1.855236,0.38977 l -0.36185,0.17481 -0.37779,-0.20787 C 22.431628,5.11873 22.019623,5.0131 21.425949,5.0131 Z m 5.873624,3.53844 c 0.341846,0 0.515557,0.49873 0.27196,0.7866 -0.253856,0.29993 -0.664716,0.0938 -0.667796,-0.33306 0,-0.22739 0.19825,-0.45354 0.395836,-0.45354 z M 3.5869596,9.06662 c -0.5087082,-0.012 -1.0087135,0.52848 -1.213445,1.31097 -0.2149457,0.81756 -0.3373677,3.03724 -0.357842,6.48164 -0.012253,2.05716 -0.010303,2.14175 0.083936,2.22039 0.1238762,0.1064 0.1564198,0.10454 0.2659252,-0.0236 0.085996,-0.10038 0.093096,-0.28313 0.1198684,-2.91723 C 2.5243362,12.30984 2.625642,10.94202 2.9152936,10.24295 3.1036611,9.78824 3.295682,9.61464 3.612999,9.61464 c 0.2323396,0 0.2319274,-3.9e-4 0.2718455,-0.23148 C 3.9298467,9.1159 3.8951475,9.07269 3.586971,9.06663 Z m 24.2620294,7.51621 c 0,-0.007 0.01225,0.003 0.02049,0.026 0.01432,0.0424 0.01225,0.0929 0,0.11103 -0.01534,0.0194 -0.0276,-0.014 -0.02553,-0.0756 0.0011,-0.0339 0,-0.0554 0.01027,-0.0614 z"
       id="path4722"
       inkscape:connector-curvature="0"
       inkscape:transform-center-x="132.5464"
       inkscape:transform-center-y="159.211" />
  </g>
</svg>
