<?xml version="1.0" encoding="UTF-8" standalone="no"?>
<!-- Created with Inkscape (http://www.inkscape.org/) -->

<svg
   xmlns:dc="http://purl.org/dc/elements/1.1/"
   xmlns:cc="http://creativecommons.org/ns#"
   xmlns:rdf="http://www.w3.org/1999/02/22-rdf-syntax-ns#"
   xmlns:svg="http://www.w3.org/2000/svg"
   xmlns="http://www.w3.org/2000/svg"
   xmlns:sodipodi="http://sodipodi.sourceforge.net/DTD/sodipodi-0.dtd"
   xmlns:inkscape="http://www.inkscape.org/namespaces/inkscape"
   width="352.78mm"
   height="352.78mm"
   viewBox="0 0 1250.0079 1250.0079"
   id="svg7829"
   version="1.1"
   inkscape:version="0.91 r13725"
   sodipodi:docname="destination_castle.svg">
  <defs
     id="defs7831" />
  <sodipodi:namedview
     id="base"
     pagecolor="#ffffff"
     bordercolor="#666666"
     borderopacity="1.0"
     inkscape:pageopacity="0.0"
     inkscape:pageshadow="2"
     inkscape:zoom="0.5"
     inkscape:cx="80"
     inkscape:cy="520"
     inkscape:document-units="px"
     inkscape:current-layer="layer1"
     showgrid="false"
     inkscape:window-width="1920"
     inkscape:window-height="1018"
     inkscape:window-x="-8"
     inkscape:window-y="-8"
     inkscape:window-maximized="1" />
  <metadata
     id="metadata7834">
    <rdf:RDF>
      <cc:Work
         rdf:about="">
        <dc:format>image/svg+xml</dc:format>
        <dc:type
           rdf:resource="http://purl.org/dc/dcmitype/StillImage" />
        <dc:title></dc:title>
      </cc:Work>
    </rdf:RDF>
  </metadata>
  <g
     inkscape:label="Layer 1"
     inkscape:groupmode="layer"
     id="layer1"
     transform="translate(0,197.64569)">
    <path
       d="m 442.46595,94.868819 -0.02,0.01 -3.231,3.623 c -1.781,2.021001 -3.013,4.231001 -2.734,4.868001 0.28,0.637 -0.805,2.501 -2.383,4.219 -1.578,1.717 -2.472,3.53 -1.988,4.056 0.483,0.526 0.05,0.974 -0.944,0.974 -0.993,0 -1.405,0.681 -0.896,1.567 0.509,0.859 -0.126,2.017 -1.391,2.543 -1.247,0.527 -1.899,1.604 -1.44,2.379 0.458,0.803 0.05,1.459 -0.845,1.459 -0.891,0 -1.204,0.736 -0.695,1.622 0.509,0.886 0.178,1.568 -0.746,1.568 -0.89,0 -1.254,0.736 -0.745,1.622 0.509,0.858 -0.102,2.017 -1.341,2.543 -1.247,0.526 -1.95,1.603 -1.492,2.379 0.432,0.803 0.08,1.459 -0.845,1.459 -0.891,0 -1.254,0.63 -0.793,1.405 0.458,0.776 -0.256,1.853 -1.492,2.379 -1.273,0.498 -1.9,1.709 -1.392,2.595 0.509,0.886 0.229,1.567 -0.695,1.567 -0.89,0 -1.228,0.736 -0.745,1.622 0.483,0.886 0.178,1.624 -0.745,1.624 -0.917,0 -1.303,0.631 -0.845,1.406 0.458,0.775 -0.229,1.852 -1.491,2.378 -1.272,0.499 -1.851,1.658 -1.342,2.544 0.483,0.886 0.178,1.622 -0.746,1.622 -0.916,0 -1.229,0.736 -0.745,1.622 0.483,0.886 0.178,1.622 -0.746,1.622 -0.916,0 -1.302,0.632 -0.844,1.408 0.458,0.775 -0.229,1.852 -1.491,2.378 -1.273,0.499 -1.85,1.656 -1.341,2.542 0.483,0.886 0.178,1.623 -0.746,1.623 -0.916,0 -1.255,0.737 -0.746,1.623 0.509,0.886 0.229,1.567 -0.646,1.567 -0.865,0 -1.54,1.049 -1.54,2.379 0,1.329 -0.751,2.433 -1.59,2.433 -0.84,0 -1.079,0.738 -0.596,1.624 0.484,0.886 0.153,1.567 -0.745,1.567 -0.916,0 -1.303,0.684 -0.845,1.459 0.458,0.776 -0.254,1.853 -1.491,2.379 -1.247,0.526 -1.902,1.71 -1.393,2.593 0.509,0.886 0.231,1.568 -0.693,1.568 -0.916,0 -1.254,0.737 -0.746,1.623 0.509,0.886 0.177,1.623 -0.746,1.623 -0.891,0 -1.254,0.631 -0.793,1.407 0.458,0.775 -0.256,1.852 -1.493,2.378 -1.247,0.526 -1.85,1.71 -1.34,2.594 0.508,0.886 0.152,1.624 -0.746,1.624 -0.891,0 -1.205,0.681 -0.696,1.567 0.509,0.886 0.177,1.622 -0.747,1.622 -0.891,0 -1.303,0.683 -0.845,1.459 0.433,0.776 -0.254,1.853 -1.491,2.379 -1.272,0.526 -1.9,1.655 -1.391,2.541 0.483,0.886 0.229,1.624 -0.695,1.624 -0.891,0 -1.229,0.736 -0.745,1.622 0.483,0.886 0.178,1.567 -0.746,1.567 -0.916,0 -1.303,0.684 -0.845,1.46 0.458,0.775 -0.23,1.852 -1.492,2.378 -1.272,0.526 -1.85,1.656 -1.341,2.542 0.484,0.914 0.178,1.624 -0.745,1.624 -0.916,0 -1.255,0.736 -0.746,1.621 0.509,0.887 0.23,1.622 -0.646,1.622 -0.865,0 -1.59,1.05 -1.59,2.38 0,1.3 -0.7,2.378 -1.54,2.378 -0.839,0 -1.129,0.738 -0.646,1.624 0.484,0.886 0.229,1.621 -0.695,1.621 -0.916,0 -1.303,0.603 -0.844,1.407 0.458,0.775 -0.229,1.854 -1.491,2.38 -1.273,0.525 -1.902,1.707 -1.393,2.593 0.484,0.886 0.178,1.624 -0.745,1.624 -0.916,0 -1.179,0.681 -0.695,1.566 0.483,0.888 0.152,1.623 -0.746,1.623 -0.916,0 -1.303,0.657 -0.845,1.46 0.458,0.774 -0.254,1.852 -1.49,2.378 -1.247,0.526 -1.85,1.656 -1.341,2.542 0.509,0.886 0.153,1.621 -0.746,1.621 -0.916,0 -1.255,0.738 -0.747,1.624 0.509,0.886 0.179,1.567 -0.745,1.567 -0.891,0 -1.251,0.656 -0.793,1.46 0.458,0.775 -0.255,1.852 -1.492,2.378 -1.272,0.526 -1.85,1.712 -1.341,2.595 0.509,0.886 0.178,1.567 -0.745,1.567 -0.891,0 -1.229,0.736 -0.746,1.623 0.484,0.886 0.178,1.622 -0.745,1.622 -0.916,0 -1.303,0.604 -0.845,1.407 0.458,0.775 -0.178,1.852 -1.441,2.379 -1.27201,0.526 -1.90101,1.711 -1.39201,2.594 0.483,0.887 0.178,1.623 -0.746,1.623 -0.916,0 -1.229,0.681 -0.745,1.567 0.483,0.886 0.154,1.622 -0.793,1.622 -1.247,0 -1.574,61.008 -1.243,244.347 l 0.449,244.51 97.11501,0 c 53.387,-0.06 178.939,-0.277 278.97,-0.54 l 181.905,-0.325 0,-163.222 0,-163.114 -16.898,0 -16.897,0 0,27.095 0,27.258 -16.899,0 -16.898,0 0,-27.258 0,-27.095 -18.489,0 -18.39,0 0,26.392 0,26.392 -17.643,0 -17.495,0 0,-26.392 0,-26.392 -18.389,0 -18.539,0 0,26.392 0,26.392 -16.897,0 -16.9,0 0,-26.392 0,-26.392 -19.681,0 -19.881,0 0,24.77 0,24.825 -17.643,0 -17.594,0 0,-24.825 0,-24.77 -22.068,0 -22.066,0 0,21.579 0,21.579 -16.899,0 -16.898,0 0,-101.568 c 0,-70.417 -0.521,-101.567 -1.59,-101.567 -0.84,0 -1.155,-0.738 -0.646,-1.624 0.509,-0.886 0.27,-1.567 -0.596,-1.567 -0.865,0 -1.591,-1.132 -1.591,-2.434 0,-1.329 -0.676,-2.378 -1.541,-2.378 -0.84,0 -1.13,-0.736 -0.646,-1.622 0.483,-0.886 0.177,-1.568 -0.747,-1.568 -0.916,0 -1.254,-0.737 -0.746,-1.623 0.509,-0.886 -0.152,-2.07 -1.391,-2.594 -1.247,-0.526 -1.873,-1.575 -1.44,-2.378 0.432,-0.803 0.08,-1.408 -0.845,-1.408 -0.891,0 -1.254,-0.736 -0.746,-1.622 0.509,-0.886 0.228,-1.624 -0.647,-1.624 -0.865,0 -1.538,-1.049 -1.538,-2.378 0,-1.329 -0.501,-2.433 -1.341,-2.433 -0.84,0 -1.156,-0.764 -0.647,-1.623 0.483,-0.886 0.178,-1.623 -0.746,-1.623 -0.916,0 -1.254,-0.737 -0.745,-1.623 0.509,-0.886 -0.102,-1.988 -1.341,-2.541 -1.273,-0.526 -1.924,-1.576 -1.491,-2.379 0.433,-0.803 0.08,-1.459 -0.845,-1.459 -0.916,0 -1.254,-0.709 -0.745,-1.567 0.483,-0.886 0.151,-1.623 -0.747,-1.623 -0.916,0 -1.203,-0.737 -0.694,-1.623 0.509,-0.886 -0.128,-1.988 -1.392,-2.542 -1.273,-0.526 -1.924,-1.63 -1.491,-2.433 0.432,-0.803 0.05,-1.408 -0.845,-1.408 -0.916,0 -1.254,-0.736 -0.745,-1.622 0.508,-0.886 -0.08,-2.017 -1.341,-2.543 -1.273,-0.526 -1.951,-1.575 -1.492,-2.378 0.432,-0.803 0.08,-1.46 -0.845,-1.46 -0.916,0 -1.255,-0.736 -0.746,-1.621 0.484,-0.887 0.204,-1.622 -0.695,-1.622 -0.916,0 -1.254,-0.681 -0.745,-1.567 0.509,-0.886 -0.127,-2.069 -1.391,-2.595 -1.247,-0.527 -1.949,-1.576 -1.491,-2.379 0.458,-0.803 0.101,-1.407 -0.795,-1.407 -0.916,0 -1.328,-0.658 -0.895,-1.406 0.432,-0.747 -0.512,-2.797 -2.039,-4.597 -1.527,-1.8 -2.372,-3.637 -1.888,-4.218 0.483,-0.527 0.05,-0.976 -0.943,-0.976 -0.993,0 -1.406,-0.737 -0.897,-1.623 0.509,-0.858 -0.102,-2.015 -1.341,-2.541 -1.247,-0.526 -1.949,-1.603 -1.491,-2.379 0.433,-0.803 0.08,-1.46 -0.845,-1.46 -0.89,0 -1.277,-0.604 -0.845,-1.352 0.408,-0.748 -0.511,-2.797 -2.038,-4.597 -1.527,-1.799 -2.423,-3.718 -1.939,-4.272 0.483,-0.526 0.102,-0.974 -0.896,-0.974 -0.992,0 -1.404,-0.682 -0.895,-1.568 0.509,-0.886 -0.153,-2.069 -1.393,-2.595 -1.247,-0.526 -1.898,-1.602 -1.44,-2.378 0.432,-0.803 0.08,-1.459 -0.845,-1.459 -0.891,0 -1.254,-0.682 -0.745,-1.568 0.509,-0.886 0.229,-1.622 -0.646,-1.622 -0.865,0 -1.543,-1.076 -1.543,-2.378 0,-1.33 -0.725,-2.435 -1.59,-2.435 -0.84,0 -1.13,-0.682 -0.646,-1.567 0.483,-0.887 0.178,-1.622 -0.746,-1.622 -0.916,0 -1.203,-0.736 -0.694,-1.622 0.508,-0.859 -0.154,-2.016 -1.393,-2.542 -1.247,-0.526 -1.924,-1.577 -1.491,-2.38 0.433,-0.803 0.08,-1.459 -0.845,-1.459 -0.916,0 -1.277,-0.684 -0.845,-1.459 0.433,-0.775 -0.203,-1.852 -1.44,-2.378 -1.273,-0.527 -1.9,-1.657 -1.391,-2.542 0.483,-0.886 0.178,-1.622 -0.746,-1.622 -0.916,0 -1.303,-0.686 -0.845,-1.461 0.433,-0.775 -0.203,-1.852 -1.44,-2.378 -1.273,-0.527 -1.902,-1.656 -1.393,-2.542 0.484,-0.886 0.102,-1.622 -0.895,-1.622 -0.993,0 -1.428,-0.421 -0.945,-0.92 0.484,-0.498 -0.409,-2.34 -1.986,-4.057 -1.603,-1.717 -2.523,-3.792 -2.039,-4.65 0.483,-0.859 0.316,-1.567 -0.397,-1.567 -0.712,0 -4.482,-5.415 -8.35,-12.061 l -7.007,-12.061001 z m -34.86,199.415001 66.003,0 0,110.762 -66.003,0 0,-110.762 z m 190.852,264.358 66.002,0 0,110.761 -66.002,0 0,-110.761 z m 122.86,0 70.774,0 0,110.761 -70.774,0 0,-110.761 z"
       id="path14817-0"
       inkscape:connector-curvature="0"
       style="fill:#c84614;fill-opacity:1" />
  </g>
</svg>
