<?xml version="1.0" encoding="UTF-8" standalone="no"?>
<!-- Created with Inkscape (http://www.inkscape.org/) -->

<svg
   xmlns:dc="http://purl.org/dc/elements/1.1/"
   xmlns:cc="http://creativecommons.org/ns#"
   xmlns:rdf="http://www.w3.org/1999/02/22-rdf-syntax-ns#"
   xmlns:svg="http://www.w3.org/2000/svg"
   xmlns="http://www.w3.org/2000/svg"
   xmlns:sodipodi="http://sodipodi.sourceforge.net/DTD/sodipodi-0.dtd"
   xmlns:inkscape="http://www.inkscape.org/namespaces/inkscape"
   width="32"
   height="32"
   id="svg8691"
   version="1.1"
   inkscape:version="0.91 r13725"
   viewBox="0 0 32 32"
   sodipodi:docname="destination_picnic_site.svg">
  <defs
     id="defs8693" />
  <sodipodi:namedview
     id="base"
     pagecolor="#ffffff"
     bordercolor="#666666"
     borderopacity="1.0"
     inkscape:pageopacity="0.0"
     inkscape:pageshadow="2"
     inkscape:zoom="20"
     inkscape:cx="11.871489"
     inkscape:cy="16"
     inkscape:current-layer="layer1"
     showgrid="true"
     inkscape:grid-bbox="true"
     inkscape:document-units="px"
     inkscape:window-width="1920"
     inkscape:window-height="1018"
     inkscape:window-x="-8"
     inkscape:window-y="-8"
     inkscape:window-maximized="1" />
  <metadata
     id="metadata8696">
    <rdf:RDF>
      <cc:Work
         rdf:about="">
        <dc:format>image/svg+xml</dc:format>
        <dc:type
           rdf:resource="http://purl.org/dc/dcmitype/StillImage" />
        <dc:title></dc:title>
      </cc:Work>
    </rdf:RDF>
  </metadata>
  <g
     id="layer1"
     inkscape:label="Layer 1"
     inkscape:groupmode="layer">
    <path
       inkscape:connector-curvature="0"
       style="fill:#c84614;fill-opacity:1;stroke:#c84614;stroke-width:0.24893178;stroke-miterlimit:4;stroke-dasharray:none;stroke-opacity:1"
       d="M 15.813778,4.036733 C 7.4420832,4.0620568 7.3195034,4.0632372 6.9243957,4.255491 5.9049247,4.7506523 5.4406721,5.6278915 5.6399843,6.6833669 5.7588442,7.3127506 6.232715,7.8907904 6.8560353,8.1678326 7.2493245,8.342572 7.5342765,8.3833083 8.6293537,8.4171403 c 0.7178213,0.021711 1.3051243,0.060294 1.3051243,0.084317 0,0.025324 -0.08086,0.1204576 -0.180224,0.2117726 C 9.608423,8.8472758 9.43647,9.4965121 8.8634461,12.070285 L 8.15288,15.25802 5.7083447,15.304986 c -2.3306044,0.04454 -2.4638361,0.05903 -2.8588514,0.265839 -0.7931228,0.414924 -1.1961595,1.076093 -1.1994732,1.966716 -0.00277,0.847707 0.3567368,1.488382 1.0482514,1.872633 0.5031219,0.279436 1.4652167,0.395418 3.4036948,0.407005 0.6305292,0 1.0150957,0.04093 1.0150957,0.101152 0,0.05299 -0.3728901,1.787627 -0.8286507,3.855882 -0.4557607,2.068219 -0.82866,3.805481 -0.82866,3.85815 0,0.06139 0.5895924,0.0939 1.661446,0.0939 1.9659016,0 2.1578297,-0.05292 2.3948207,-0.677525 0.08409,-0.221738 0.477424,-1.907916 0.876289,-3.745274 0.398865,-1.837358 0.755961,-3.382966 0.791359,-3.434737 0.04163,-0.06029 1.759058,-0.09395 4.855916,-0.09395 l 4.791689,0 0.354245,1.599675 c 1.363534,6.160798 1.339045,6.078773 1.924541,6.257773 0.18673,0.05661 0.981265,0.0879 1.889325,0.07347 l 1.56617,-0.0265 -0.853518,-3.905223 c -0.469237,-2.147894 -0.855538,-3.907402 -0.857661,-3.912217 -0.0018,0 0.788258,-0.03497 1.75674,-0.06626 2.030146,-0.06507 2.604046,-0.2038 3.188248,-0.771615 0.897187,-0.872168 0.770942,-2.514501 -0.244458,-3.190113 -0.687408,-0.457369 -1.154272,-0.529249 -3.515559,-0.529249 l -2.177278,0 -0.08086,-0.352937 C 23.736713,14.75754 23.432645,13.404138 23.103774,11.942595 22.503244,9.2740178 22.327534,8.7402113 22.028597,8.6514146 21.595728,8.5229031 21.997121,8.4516184 23.337866,8.4209007 24.720305,8.3895439 24.836128,8.3726852 25.264484,8.1409564 25.515154,8.005711 25.809318,7.7997389 25.917046,7.6821821 26.402057,7.1531459 26.562214,6.1046119 26.269222,5.3720335 26.052216,4.8294447 25.601957,4.4457907 24.90195,4.2098222 24.304474,4.008451 24.285248,4.0101071 15.813699,4.0357613 Z m 2.558466,4.4909786 0.673274,3.1265404 c 0.370353,1.719928 0.694793,3.224674 0.720933,3.34296 l 0.04763,0.214068 -3.822166,0 -3.822155,0 0.05806,-0.258728 c 0.03175,-0.142394 0.360559,-1.635001 0.731279,-3.317085 l 0.673284,-3.0583704 2.369936,-0.022892 2.369953,-0.026504 z"
       id="path5186" />
  </g>
</svg>
