<?xml version="1.0" encoding="UTF-8" standalone="no"?>
<!-- Created with Inkscape (http://www.inkscape.org/) -->

<svg
   xmlns:dc="http://purl.org/dc/elements/1.1/"
   xmlns:cc="http://creativecommons.org/ns#"
   xmlns:rdf="http://www.w3.org/1999/02/22-rdf-syntax-ns#"
   xmlns:svg="http://www.w3.org/2000/svg"
   xmlns="http://www.w3.org/2000/svg"
   xmlns:sodipodi="http://sodipodi.sourceforge.net/DTD/sodipodi-0.dtd"
   xmlns:inkscape="http://www.inkscape.org/namespaces/inkscape"
   width="1000"
   height="1000"
   id="svg3348"
   version="1.1"
   inkscape:version="0.91 r13725"
   viewBox="0 0 1000 1000"
   sodipodi:docname="destination_museum.svg">
  <defs
     id="defs3350" />
  <sodipodi:namedview
     id="base"
     pagecolor="#ffffff"
     bordercolor="#666666"
     borderopacity="1.0"
     inkscape:pageopacity="0.0"
     inkscape:pageshadow="2"
     inkscape:zoom="0.5"
     inkscape:cx="6.3954416"
     inkscape:cy="576"
     inkscape:current-layer="layer1"
     showgrid="true"
     inkscape:grid-bbox="true"
     inkscape:document-units="px"
     inkscape:window-width="1920"
     inkscape:window-height="1018"
     inkscape:window-x="-8"
     inkscape:window-y="-8"
     inkscape:window-maximized="1" />
  <metadata
     id="metadata3353">
    <rdf:RDF>
      <cc:Work
         rdf:about="">
        <dc:format>image/svg+xml</dc:format>
        <dc:type
           rdf:resource="http://purl.org/dc/dcmitype/StillImage" />
        <dc:title></dc:title>
      </cc:Work>
    </rdf:RDF>
  </metadata>
  <g
     id="layer1"
     inkscape:label="Layer 1"
     inkscape:groupmode="layer"
     transform="translate(0,968)">
    <path
       id="path14753"
       style="opacity:0.97000002;fill:#c84614;fill-opacity:1"
       d="m 91.953577,-729.72265 0,-34.46014 203.205273,-74.74286 203.20527,-74.74285 203.24115,74.74285 203.24115,74.74286 0,34.46014 0,34.46014 -406.4823,0 -406.410543,0 0,-34.46014 z M 27.268,-19.566499 c 0,-1.386327 13.956012,-33.469906 31.033291,-71.217622 l 31.033292,-68.603409 34.836217,-1.46554 34.80034,-1.54477 0,-188.65936 0,-188.69898 -33.47291,-1.50516 -33.544653,-1.50514 0,-35.45038 0,-35.45037 406.410543,0 406.4823,0 0,35.68802 0,35.72764 -34.65683,0 -34.69272,0 0,191.19437 0,191.23397 34.65685,0 34.62095,0 32.32485,71.45528 32.43248,71.33645 -471.132,0 C 239.29892,-17.071109 27.268,-18.180172 27.268,-19.566499 Z M 432.81751,-305.18956 c 1.68619,-169.13196 -0.60991,-187.39187 -26.94336,-213.69249 -9.97371,-9.94195 -23.39156,-19.52741 -29.81348,-21.30983 -29.31121,-8.11991 -66.76643,14.21976 -79.21562,47.21435 -4.87922,12.87304 -6.31428,52.83889 -6.31428,175.03375 l 0,158.35821 70.42582,-1.34672 70.42585,-1.38632 1.43507,-142.87095 0,0 z m 271.01213,-17.82422 c 0,-152.85251 -0.43054,-161.48734 -9.47145,-178.47976 -27.15862,-50.97723 -86.03217,-52.522 -119.54096,-3.12914 -9.07678,13.42757 -9.6508,21.5871 -10.87062,179.54922 l -1.36331,165.48789 70.67698,-1.34672 70.64111,-1.46555 0,-160.61594 -0.0718,0 z"
       inkscape:connector-curvature="0" />
  </g>
</svg>
