<?xml version="1.0" encoding="UTF-8" standalone="no"?>
<!-- Created with Inkscape (http://www.inkscape.org/) -->

<svg
   xmlns:dc="http://purl.org/dc/elements/1.1/"
   xmlns:cc="http://creativecommons.org/ns#"
   xmlns:rdf="http://www.w3.org/1999/02/22-rdf-syntax-ns#"
   xmlns:svg="http://www.w3.org/2000/svg"
   xmlns="http://www.w3.org/2000/svg"
   xmlns:sodipodi="http://sodipodi.sourceforge.net/DTD/sodipodi-0.dtd"
   xmlns:inkscape="http://www.inkscape.org/namespaces/inkscape"
   width="32"
   height="32"
   id="svg9302"
   version="1.1"
   inkscape:version="0.91 r13725"
   viewBox="0 0 32 32"
   sodipodi:docname="destination_ruin.svg">
  <defs
     id="defs9304" />
  <sodipodi:namedview
     id="base"
     pagecolor="#ffffff"
     bordercolor="#666666"
     borderopacity="1.0"
     inkscape:pageopacity="0.0"
     inkscape:pageshadow="2"
     inkscape:zoom="20"
     inkscape:cx="11.871489"
     inkscape:cy="16"
     inkscape:current-layer="layer1"
     showgrid="true"
     inkscape:grid-bbox="true"
     inkscape:document-units="px"
     inkscape:window-width="1920"
     inkscape:window-height="1018"
     inkscape:window-x="-8"
     inkscape:window-y="-8"
     inkscape:window-maximized="1" />
  <metadata
     id="metadata9307">
    <rdf:RDF>
      <cc:Work
         rdf:about="">
        <dc:format>image/svg+xml</dc:format>
        <dc:type
           rdf:resource="http://purl.org/dc/dcmitype/StillImage" />
        <dc:title></dc:title>
      </cc:Work>
    </rdf:RDF>
  </metadata>
  <g
     id="layer1"
     inkscape:label="Layer 1"
     inkscape:groupmode="layer">
    <path
       inkscape:connector-curvature="0"
       style="fill:#c84614;fill-opacity:1;stroke:#c84614;stroke-width:0.22325979;stroke-miterlimit:4;stroke-dasharray:none;stroke-opacity:1"
       d="M 5.317262,4.38078 C 5.187877,4.38078 5.06509,4.39629 4.95075,4.42838 4.72263,4.49144 4.52674,4.618322 4.370236,4.800021 4.291276,4.891851 4.222827,4.996053 4.165243,5.115549 4.079783,5.293794 4.018672,5.466504 3.982078,5.636358 c -0.110439,0.509813 0,0.981604 0.33744,1.424059 0.138952,0.183221 0.262487,0.302829 0.431721,0.386788 4.38e-4,3.7e-4 0,-3.7e-4 0,0 0.01856,0.01107 0.04552,0.01548 0.06502,0.02436 0.159942,0.06747 0.352302,0.113183 0.634944,0.151246 l 0.417231,0.05641 0,7.600073 0,7.600147 -0.290257,0 -0.290257,0 0,1.080421 0,1.080495 10.159024,0 10.159023,0 0,-1.080495 0,-1.080421 -1.56015,0 -1.560146,0 0,-0.281032 c -3.66e-4,-0.154441 -0.06688,-0.411928 -0.148797,-0.572571 -0.08266,-0.160643 -1.598042,-2.459994 -3.366991,-5.110743 l -3.216336,-4.821063 -0.119726,-1.661719 c -0.06595,-0.914913 -0.109508,-1.67323 -0.09799,-1.685634 0.01114,-0.01214 0.852658,0.0697 1.87037,0.181589 1.0114,0.111513 1.564611,0.163057 1.915702,0.136058 0.351005,-0.02655 0.499803,-0.13253 0.703866,-0.337103 0.139322,-0.139624 0.264434,-0.344757 0.353695,-0.566147 3.66e-4,-3.71e-4 -3.62e-4,0 0,0 0.0446,-0.110662 0.08081,-0.224627 0.105236,-0.337144 3.66e-4,-7.41e-4 -3.62e-4,0 0,0 0.02507,-0.113073 0.03809,-0.22325 0.03809,-0.326262 0,-0.168626 -0.02787,-0.337362 -0.07988,-0.501312 C 20.42063,6.924428 20.37975,6.861822 20.34854,6.793199 20.30953,6.706899 20.27888,6.616402 20.228814,6.538197 20.137794,6.396566 20.030885,6.270424 19.911342,6.168637 19.792267,6.066854 19.661118,5.990281 19.524953,5.946128 19.377081,5.898558 18.505472,5.779731 17.587514,5.682476 16.66956,5.585106 13.624869,5.253206 10.82084,4.945623 8.016806,4.637929 5.538702,4.385863 5.315042,4.385863 Z m 3.310708,3.606694 0.555154,0.0498 c 0.304655,0.02766 0.581907,0.08407 0.616838,0.125327 0.0353,0.04207 0.05387,3.299782 0.04364,7.375372 l -0.01857,7.297545 -0.598629,0.02544 -0.598717,0.02655 0,-7.451018 0,-7.448787 z m 4.02738,0.455937 c 0.05945,0 0.108857,0.01659 0.108857,0.03432 0,0.109544 0.944712,13.812105 0.970533,14.076538 l 0.0325,0.324185 -0.61135,0 -0.609494,0 0,-7.217669 c 0,-3.178945 0,-4.982742 0.01856,-5.992344 0.01485,-1.009569 0.04272,-1.22521 0.09103,-1.22521 z m 3.542913,9.624927 c 0.01302,-0.01548 0.707766,0.989886 1.445902,2.078808 0.738883,1.089593 1.52086,2.261737 1.710708,2.575855 0.0446,0.07523 0.05016,0.113405 -0.12706,0.13398 -0.179268,0.02103 -0.545409,0.02214 -1.257164,0.02214 l -1.480268,0 -0.161528,-2.385762 c -0.08916,-1.312545 -0.148331,-2.403437 -0.13059,-2.424568 z m -11.924163,7.57638 0,1.037235 0,1.037267 12.263464,0 12.263373,0 0,-1.037267 0,-1.037235 -12.263373,0 -12.263464,0 z"
       id="path5763" />
  </g>
</svg>
