<?xml version="1.0" encoding="UTF-8" standalone="no"?>
<!-- Created with Inkscape (http://www.inkscape.org/) -->

<svg
   xmlns:dc="http://purl.org/dc/elements/1.1/"
   xmlns:cc="http://creativecommons.org/ns#"
   xmlns:rdf="http://www.w3.org/1999/02/22-rdf-syntax-ns#"
   xmlns:svg="http://www.w3.org/2000/svg"
   xmlns="http://www.w3.org/2000/svg"
   xmlns:sodipodi="http://sodipodi.sourceforge.net/DTD/sodipodi-0.dtd"
   xmlns:inkscape="http://www.inkscape.org/namespaces/inkscape"
   width="352.78mm"
   height="352.78mm"
   viewBox="0 0 1250.0079 1250.0079"
   id="svg26017"
   version="1.1"
   inkscape:version="0.91 r13725"
   sodipodi:docname="destination_museum.svg">
  <defs
     id="defs26019" />
  <sodipodi:namedview
     id="base"
     pagecolor="#ffffff"
     bordercolor="#666666"
     borderopacity="1.0"
     inkscape:pageopacity="0.0"
     inkscape:pageshadow="2"
     inkscape:zoom="0.5"
     inkscape:cx="80"
     inkscape:cy="520"
     inkscape:document-units="px"
     inkscape:current-layer="layer1"
     showgrid="false"
     inkscape:window-width="1920"
     inkscape:window-height="1018"
     inkscape:window-x="-8"
     inkscape:window-y="-8"
     inkscape:window-maximized="1" />
  <metadata
     id="metadata26022">
    <rdf:RDF>
      <cc:Work
         rdf:about="">
        <dc:format>image/svg+xml</dc:format>
        <dc:type
           rdf:resource="http://purl.org/dc/dcmitype/StillImage" />
        <dc:title></dc:title>
      </cc:Work>
    </rdf:RDF>
  </metadata>
  <g
     inkscape:label="Layer 1"
     inkscape:groupmode="layer"
     id="layer1"
     transform="translate(0,197.64569)">
    <path
       inkscape:connector-curvature="0"
       style="fill:#c84614;fill-opacity:1;stroke:#c84614;stroke-width:7.42797899;stroke-miterlimit:4;stroke-dasharray:none;stroke-opacity:1"
       d="m 624.96783,117.60734 -155.448,51.805 -155.4452,51.83101 0,22.178 0,22.178 310.8932,0 310.9454,0 0,-22.178 0,-22.178 -155.5001,-51.83101 -155.4453,-51.805 z m -310.8932,208.59101 0,23.716 0,23.718 26.3555,0 26.3528,0 -0.6321,132.437 -0.6871,132.355 -26.5149,0.824 -26.4626,0.824 -23.1346,46.693 -23.0824,46.693 11.3804,1.649 c 6.2659,0.824 167.6253,1.648 358.5585,1.923 l 347.123,0.275 -24.3135,-48.753 -24.3713,-48.727 -25.7096,0 -25.7098,0 0,-133.069 0,-133.069 26.3528,0 26.3555,0 0,-23.717 0,-23.717 -310.9454,0 -310.8932,0 z m 206.3314,47.489 c 6.0818,0 11.8723,0.825 16.8549,3.491 13.0733,6.76 24.3437,17.45 30.541,29.048 5.6916,10.636 5.8263,13.219 6.6013,122.214 l 0.742,111.33 -55.6626,0 -55.7175,0 0.8519,-111.44 0.9069,-111.385 6.7634,-13.082 c 9.0499,-17.59 29.8457,-29.599 48.094,-30.176 z m 207.8347,0 c 13.1392,-0.549 26.2044,4.535 37.3044,15.088 16.6185,15.774 16.1514,12.092 17.0143,136.862 l 0.742,113.969 -55.6626,0 -55.6076,0 1.5665,-103.444 c 2.0886,-134.305 1.5115,-129.276 16.8549,-144.584 11.3969,-11.405 24.646,-17.396 37.7881,-17.891 z"
       id="path5167" />
  </g>
</svg>
