<?xml version="1.0" encoding="UTF-8" standalone="no"?>
<!-- Created with Inkscape (http://www.inkscape.org/) -->

<svg
   xmlns:dc="http://purl.org/dc/elements/1.1/"
   xmlns:cc="http://creativecommons.org/ns#"
   xmlns:rdf="http://www.w3.org/1999/02/22-rdf-syntax-ns#"
   xmlns:svg="http://www.w3.org/2000/svg"
   xmlns="http://www.w3.org/2000/svg"
   xmlns:sodipodi="http://sodipodi.sourceforge.net/DTD/sodipodi-0.dtd"
   xmlns:inkscape="http://www.inkscape.org/namespaces/inkscape"
   width="1000"
   height="1000"
   id="svg8691"
   version="1.1"
   inkscape:version="0.91 r13725"
   viewBox="0 0 1000 1000"
   sodipodi:docname="destination_picnic_site.svg">
  <defs
     id="defs8693" />
  <sodipodi:namedview
     id="base"
     pagecolor="#ffffff"
     bordercolor="#666666"
     borderopacity="1.0"
     inkscape:pageopacity="0.0"
     inkscape:pageshadow="2"
     inkscape:zoom="0.5"
     inkscape:cx="9.7405635"
     inkscape:cy="576"
     inkscape:current-layer="layer1"
     showgrid="true"
     inkscape:grid-bbox="true"
     inkscape:document-units="px"
     inkscape:window-width="1920"
     inkscape:window-height="1018"
     inkscape:window-x="-8"
     inkscape:window-y="-8"
     inkscape:window-maximized="1" />
  <metadata
     id="metadata8696">
    <rdf:RDF>
      <cc:Work
         rdf:about="">
        <dc:format>image/svg+xml</dc:format>
        <dc:type
           rdf:resource="http://purl.org/dc/dcmitype/StillImage" />
        <dc:title></dc:title>
      </cc:Work>
    </rdf:RDF>
  </metadata>
  <g
     id="layer1"
     inkscape:label="Layer 1"
     inkscape:groupmode="layer"
     transform="translate(0,968)">
    <path
       inkscape:connector-curvature="0"
       style="fill:#c84614;fill-opacity:1;stroke:#c84614;stroke-width:8.5613966;stroke-miterlimit:4;stroke-dasharray:none;stroke-opacity:1"
       d="m 494.8901,-877.36065 c -279.62235,0.89682 -283.71663,0.93862 -296.91359,7.74701 -34.05127,17.53544 -49.55774,48.60164 -42.90053,85.97982 3.97003,22.28874 19.79775,42.75921 40.61723,52.57027 13.13623,6.18815 22.65388,7.63077 59.23048,8.82888 23.97589,0.76886 43.59236,2.13523 43.59236,2.98597 0,0.89681 -2.7008,4.26583 -6.01965,7.49963 -4.87089,4.74705 -10.61428,27.73884 -29.75381,118.8854 l -23.73357,112.88915 -81.64974,1.66323 c -77.844341,1.57733 -82.294404,2.09047 -95.48828,9.41433 -26.491036,14.69395 -39.952834,38.10832 -40.063515,69.64848 -0.09252,30.02035 11.915339,52.70896 35.012567,66.31667 16.804737,9.89584 48.939598,14.00318 113.686558,14.41351 21.06026,0 33.90513,1.44947 33.90513,3.58216 0,1.87657 -12.45487,63.3063 -27.6777,136.55065 -15.22283,73.24307 -27.67801,134.765764 -27.67801,136.630963 0,2.174041 19.69293,3.325337 55.49384,3.325337 65.66292,0 72.0735,-1.874088 79.98922,-23.993597 2.80868,-7.85254 15.94641,-67.566163 29.26886,-132.633623 13.32247,-65.06746 25.24981,-119.803 26.43213,-121.63639 1.39048,-2.13508 58.75417,-3.32711 162.19209,-3.32711 l 160.04685,0 11.83211,56.65025 c 45.5433,218.176013 44.72534,215.271212 64.28145,221.610246 6.23695,2.004763 32.77516,3.112855 63.1052,2.601838 l 52.31152,-0.938461 -28.50828,-138.297993 c -15.67295,-76.06465 -28.57576,-138.37516 -28.64668,-138.54568 -0.0601,0 26.32855,-1.2384 58.67674,-2.3465 67.80876,-2.30436 86.97755,-7.21728 106.49044,-27.32565 29.96688,-30.88662 25.75018,-89.04753 -8.16512,-112.97339 -22.96006,-16.19707 -38.55376,-18.7426 -117.42293,-18.7426 l -72.72309,0 -2.70081,-12.49877 c -1.4861,-6.8717 -11.64226,-54.80052 -22.62685,-106.55902 -20.05826,-94.50392 -25.92714,-113.40793 -35.91191,-116.55254 -14.45822,-4.55104 -1.05133,-7.07549 43.73079,-8.16332 46.17475,-1.11045 50.04334,-1.70749 64.35083,-9.91383 8.37261,-4.78953 18.19796,-12.08374 21.79618,-16.24685 16.19981,-18.73508 21.5492,-55.86743 11.763,-81.81067 -7.2482,-19.21502 -22.28727,-32.80159 -45.66815,-41.15808 -19.95625,-7.13128 -20.59842,-7.07264 -303.556,-6.16413 z m 85.45514,159.04171 22.48797,110.72204 c 12.37014,60.90884 23.20674,114.19731 24.07983,118.38623 l 1.59089,7.58093 -127.66389,0 -127.66351,0 1.93926,-9.16249 c 1.06048,-5.04268 12.04301,-57.90127 24.4254,-117.46991 l 22.4883,-108.3079 79.15806,-0.81068 79.15862,-0.93861 z"
       id="path5186" />
  </g>
</svg>
