<?xml version="1.0" encoding="UTF-8" standalone="no"?>
<!-- Created with Inkscape (http://www.inkscape.org/) -->

<svg
   xmlns:dc="http://purl.org/dc/elements/1.1/"
   xmlns:cc="http://creativecommons.org/ns#"
   xmlns:rdf="http://www.w3.org/1999/02/22-rdf-syntax-ns#"
   xmlns:svg="http://www.w3.org/2000/svg"
   xmlns="http://www.w3.org/2000/svg"
   version="1.1"
   width="1000"
   height="1000"
   viewBox="0 0 1000 1000"
   id="svg4799">
  <title
     id="title5366">destination_historic</title>
  <defs
     id="defs5498" />
  <metadata
     id="metadata5594">
    <rdf:RDF>
      <cc:Work
         rdf:about="">
        <dc:format>image/svg+xml</dc:format>
        <dc:type
           rdf:resource="http://purl.org/dc/dcmitype/StillImage" />
        <dc:title>destination_historic</dc:title>
      </cc:Work>
    </rdf:RDF>
  </metadata>
  <g
     id="layer1">
    <g
       transform="matrix(1.7699132,0,0,1.7699132,-9313.7782,10769.67)"
       id="g10587"
       style="fill:#c84614;fill-opacity:1">
      <path
         d="m 306.0625,156.5625 c -31.83543,-0.0513 -62.43399,10.8346 -87.34375,31.3125 -28.39295,23.33808 -45.98551,56.32568 -49.5625,92.90625 -6.20532,63.5328 40.43418,120.2876 103.96875,126.5 3.26018,0.31858 6.51814,0.46875 9.75,0.46875 22.69029,0 44.49069,-7.77499 62.25,-22.375 20.28675,-16.67612 32.84873,-40.26817 35.40625,-66.40625 2.18938,-22.4248 -4.47327,-44.34467 -18.78125,-61.75 -14.30975,-17.40887 -34.54395,-28.21864 -56.96875,-30.40625 -15.65842,-1.53097 -29.59579,9.93002 -31.125,25.59375 -1.52921,15.66373 9.93002,29.62528 25.59375,31.15625 7.27257,0.71151 13.82627,4.1995 18.46875,9.84375 4.64248,5.64779 6.80526,12.76222 6.09375,20.03125 -1.07257,10.98939 -6.34756,20.89385 -14.875,27.90625 -8.52744,7.01063 -19.29186,10.29132 -30.28125,9.21875 -32.26198,-3.15222 -55.9317,-31.96031 -52.78125,-64.21875 2.09558,-21.42834 12.39938,-40.76492 29.03125,-54.4375 16.63187,-13.67258 37.60291,-20.0661 59.03125,-17.96875 59.20537,5.78762 102.66085,58.67317 96.875,117.875 l 178.375,0 c -5.78408,-59.20183 37.66963,-112.08738 96.875,-117.875 21.42303,-2.09912 42.39407,4.29617 59.03125,17.96875 16.63187,13.67258 26.93921,33.00739 29.03125,54.4375 3.15045,32.26021 -20.55583,61.06653 -52.8125,64.21875 -10.98762,1.0708 -21.71902,-2.20812 -30.25,-9.21875 -8.53098,-7.01063 -13.80774,-16.91509 -14.875,-27.90625 -0.70974,-7.26903 1.45127,-14.38346 6.09375,-20.03125 4.64248,-5.64425 11.19441,-9.13224 18.46875,-9.84375 15.66727,-1.53097 27.12296,-15.49252 25.59375,-31.15625 -1.52921,-15.66373 -15.46658,-27.12472 -31.125,-25.59375 -22.4248,2.18761 -42.66077,12.99738 -56.96875,30.40625 -14.30798,17.40533 -21.00188,39.32697 -18.8125,61.75 2.55221,26.13808 15.15075,49.73013 35.4375,66.40625 17.75931,14.59824 39.55971,22.375 62.25,22.375 3.23186,0 6.49159,-0.15017 9.75,-0.46875 63.53305,-6.21138 110.15756,-62.94677 103.96875,-126.46875 -3.57699,-36.58057 -21.17132,-69.60119 -49.5625,-92.9375 -24.07082,-19.78409 -53.45594,-30.58274 -84.125,-31.25 l 0,-0.0625 -391.09375,0 z m 77.09375,203.46875 0,375.46875 c -26.03896,3.99646 -46,26.50224 -46,53.65625 0,29.97879 24.30423,54.28125 54.28125,54.28125 l 217.125,0 c 29.97879,0 54.28125,-24.30246 54.28125,-54.28125 0,-27.15578 -19.96104,-49.6651 -46,-53.65625 l 0,-375.46875 -233.6875,0 z M 500,427.875 c 17.25488,0 31.21875,14.00043 31.21875,31.25 l 0,208.875 c 0,17.24957 -13.96387,31.21875 -31.21875,31.21875 -17.25134,0 -31.21875,-13.96918 -31.21875,-31.21875 l 0,-208.875 c 0,-17.24957 13.96741,-31.25 31.21875,-31.25 z"
         transform="matrix(0.56499946,0,0,0.56499946,5262.2796,-6084.8577)"
         id="path10019"
         style="fill:#c84614;fill-opacity:1" />
    </g>
  </g>
</svg>
