<?xml version="1.0" encoding="UTF-8" standalone="no"?>
<!-- Created with Inkscape (http://www.inkscape.org/) -->

<svg
   xmlns:dc="http://purl.org/dc/elements/1.1/"
   xmlns:cc="http://creativecommons.org/ns#"
   xmlns:rdf="http://www.w3.org/1999/02/22-rdf-syntax-ns#"
   xmlns:svg="http://www.w3.org/2000/svg"
   xmlns="http://www.w3.org/2000/svg"
   xmlns:sodipodi="http://sodipodi.sourceforge.net/DTD/sodipodi-0.dtd"
   xmlns:inkscape="http://www.inkscape.org/namespaces/inkscape"
   width="352.78mm"
   height="352.78mm"
   viewBox="0 0 1250.0079 1250.0079"
   id="svg27431"
   version="1.1"
   inkscape:version="0.91 r13725"
   sodipodi:docname="destination_ruin.svg">
  <defs
     id="defs27433" />
  <sodipodi:namedview
     id="base"
     pagecolor="#ffffff"
     bordercolor="#666666"
     borderopacity="1.0"
     inkscape:pageopacity="0.0"
     inkscape:pageshadow="2"
     inkscape:zoom="0.5"
     inkscape:cx="80"
     inkscape:cy="520"
     inkscape:document-units="px"
     inkscape:current-layer="layer1"
     showgrid="false"
     inkscape:window-width="1920"
     inkscape:window-height="1018"
     inkscape:window-x="-8"
     inkscape:window-y="-8"
     inkscape:window-maximized="1" />
  <metadata
     id="metadata27436">
    <rdf:RDF>
      <cc:Work
         rdf:about="">
        <dc:format>image/svg+xml</dc:format>
        <dc:type
           rdf:resource="http://purl.org/dc/dcmitype/StillImage" />
        <dc:title></dc:title>
      </cc:Work>
    </rdf:RDF>
  </metadata>
  <g
     inkscape:label="Layer 1"
     inkscape:groupmode="layer"
     id="layer1"
     transform="translate(0,197.64569)">
    <path
       inkscape:connector-curvature="0"
       style="fill:#c84614;fill-opacity:1;stroke:#c84614;stroke-width:6.07283926;stroke-miterlimit:4;stroke-dasharray:none;stroke-opacity:1"
       d="m 321.29595,113.11382 c -3.5548,0 -6.9284,0.418 -10.0699,1.282 -6.2676,1.698 -11.6496,5.115 -15.9496,10.008 -2.1692,2.473 -4.05,5.279 -5.6321,8.497 -2.3479,4.8 -4.027,9.451 -5.0325,14.025 -3.0342,13.729 0,26.434 9.2712,38.349 3.8177,4.934 7.2118,8.155 11.8615,10.416 0.012,0.01 0,-0.01 0,0 0.5103,0.298 1.2504,0.417 1.7863,0.656 4.3944,1.817 9.6795,3.048 17.4451,4.073 l 11.4633,1.519 0,204.665 0,204.667 -7.9748,0 -7.9748,0 0,29.095 0,29.097 279.11861,0 279.1186,0 0,-29.097 0,-29.095 -42.865,0 -42.865,0 0,-7.568 c -0.01,-4.159 -1.8373,-11.093 -4.0882,-15.419 -2.2712,-4.326 -43.9061,-66.246 -92.5078,-137.629 l -88.3687,-129.828 -3.2894,-44.749 c -1.8119,-24.638 -3.0088,-45.059 -2.6923,-45.393 0.3062,-0.327 23.4268,1.877 51.3884,4.89 27.7881,3.003 42.9875,4.391 52.6338,3.664 9.6438,-0.715 13.732,-3.569 19.3386,-9.078 3.8279,-3.76 7.2654,-9.284 9.7178,-15.246 0.01,-0.01 -0.01,0 0,0 1.225,-2.98 2.2202,-6.049 2.8914,-9.079 0.01,-0.02 -0.01,0 0,0 0.689,-3.045 1.0463,-6.012 1.0463,-8.786 0,-4.541 -0.7656,-9.085 -2.1947,-13.5 -0.6125,-1.937 -1.7353,-3.623 -2.5928,-5.471 -1.0718,-2.324 -1.9139,-4.761 -3.2894,-6.867 -2.5009,-3.814 -5.4382,-7.211 -8.7226,-9.952 -3.2716,-2.741 -6.8749,-4.803 -10.616,-5.992 -4.0627,-1.281 -28.0102,-4.481 -53.231,-7.1 -25.2208,-2.622 -108.8735,-11.56 -185.914,-19.843 -77.0406,-8.286 -145.12641,-15.074 -151.27151,-15.074 z m 90.96151,97.126 15.2529,1.341 c 8.3704,0.745 15.9879,2.264 16.9475,3.375 0.9697,1.133 1.4801,88.861 1.1994,198.614 l -0.5104,196.518 -16.4473,0.685 -16.4498,0.715 0,-200.651 0,-200.591 z m 110.6521,12.278 c 1.6333,0 2.9909,0.447 2.9909,0.924 0,2.95 25.9558,371.951 26.6653,379.072 l 0.8931,8.73 -16.7968,0 -16.7459,0 0,-194.367 c 0,-85.607 0,-134.182 0.5104,-161.37 0.4083,-27.187 1.1739,-32.994 2.5009,-32.994 z m 97.3413,259.193 c 0.3573,-0.417 19.4458,26.657 39.7261,55.981 20.3007,29.342 41.7855,60.907 47.0016,69.366 1.225,2.026 1.3781,3.054 -3.491,3.608 -4.9253,0.566 -14.985,0.596 -34.5405,0.596 l -40.6703,0 -4.4379,-64.247 c -2.4498,-35.346 -4.0754,-64.723 -3.588,-65.292 z m -327.61571,204.027 0,27.932 0,27.933 336.93801,0 336.9354,0 0,-27.933 0,-27.932 -336.9354,0 -336.93801,0 z"
       id="path5763" />
  </g>
</svg>
