<?xml version="1.0" encoding="UTF-8" standalone="no"?>
<!-- Created with Inkscape (http://www.inkscape.org/) -->

<svg
   xmlns:dc="http://purl.org/dc/elements/1.1/"
   xmlns:cc="http://creativecommons.org/ns#"
   xmlns:rdf="http://www.w3.org/1999/02/22-rdf-syntax-ns#"
   xmlns:svg="http://www.w3.org/2000/svg"
   xmlns="http://www.w3.org/2000/svg"
   xmlns:sodipodi="http://sodipodi.sourceforge.net/DTD/sodipodi-0.dtd"
   xmlns:inkscape="http://www.inkscape.org/namespaces/inkscape"
   width="1000"
   height="1000"
   id="svg4799"
   version="1.1"
   inkscape:version="0.91 r13725"
   viewBox="0 0 1000 1000"
   sodipodi:docname="destination_historic.svg">
  <title
     id="title5366">destination_historic</title>
  <defs
     id="defs5498" />
  <sodipodi:namedview
     inkscape:window-height="894"
     inkscape:window-width="1240"
     inkscape:pageshadow="2"
     inkscape:pageopacity="0.0"
     borderopacity="1.0"
     bordercolor="#666666"
     pagecolor="#ffffff"
     id="base"
     showgrid="false"
     showguides="false"
     inkscape:guide-bbox="true"
     inkscape:zoom="0.24613286"
     inkscape:cx="537.44493"
     inkscape:cy="449.33921"
     inkscape:window-x="383"
     inkscape:window-y="174"
     inkscape:current-layer="layer1"
     inkscape:window-maximized="0">
    <sodipodi:guide
       orientation="horizontal"
       position="-431.71806,-202.64317"
       id="guide5596" />
  </sodipodi:namedview>
  <metadata
     id="metadata5594">
    <rdf:RDF>
      <cc:Work
         rdf:about="">
        <dc:format>image/svg+xml</dc:format>
        <dc:type
           rdf:resource="http://purl.org/dc/dcmitype/StillImage" />
        <dc:title>destination_historic</dc:title>
      </cc:Work>
    </rdf:RDF>
  </metadata>
  <g
     inkscape:label="Layer 1"
     inkscape:groupmode="layer"
     id="layer1">
    <g
       id="g10587"
       transform="matrix(1.7699132,0,0,1.7699132,-9313.7782,10769.67)"
       style="fill:#c84614;fill-opacity:1">
      <path
         id="path10019"
         d="m 5731.7063,-5926.2067 c -2.021,-20.668 -11.968,-39.313 -28.009,-52.498 -13.6,-11.178 -30.199,-17.275 -47.527,-17.652 l 0,-0.041 -220.959,0 0,0 c -17.987,-0.029 -35.276,6.119 -49.35,17.689 -16.042,13.186 -25.988,31.83 -28.009,52.498 -3.506,35.896 22.846,67.955 58.743,71.465 1.842,0.18 3.679,0.27 5.505,0.27 12.82,0 25.14,-4.396 35.174,-12.645 11.462,-9.422 18.569,-22.744 20.014,-37.512 1.237,-12.67 -2.534,-25.064 -10.618,-34.898 -8.085,-9.836 -19.515,-15.934 -32.185,-17.17 -8.847,-0.865 -16.725,5.609 -17.589,14.459 -0.864,8.85 5.609,16.723 14.459,17.588 4.109,0.402 7.816,2.381 10.439,5.57 2.623,3.191 3.846,7.211 3.444,11.318 -0.606,6.209 -3.595,11.809 -8.413,15.771 -4.818,3.961 -10.889,5.809 -17.098,5.203 -18.228,-1.781 -31.608,-18.061 -29.828,-36.287 1.184,-12.107 7.011,-23.029 16.408,-30.754 9.397,-7.725 21.241,-11.33 33.348,-10.145 33.451,3.27 58.007,33.145 54.738,66.594 l 100.769,0 c -3.268,-33.449 21.288,-63.324 54.739,-66.594 12.104,-1.186 23.948,2.42 33.348,10.145 9.397,7.725 15.226,18.646 16.408,30.754 1.78,18.227 -11.603,34.506 -29.828,36.287 -6.208,0.605 -12.278,-1.242 -17.098,-5.203 -4.82,-3.961 -7.81,-9.561 -8.413,-15.771 -0.401,-4.107 0.82,-8.127 3.443,-11.318 2.623,-3.189 6.328,-5.168 10.438,-5.57 8.852,-0.865 15.323,-8.738 14.459,-17.588 -0.864,-8.85 -8.742,-15.324 -17.589,-14.459 -12.67,1.236 -24.103,7.334 -32.187,17.17 -8.084,9.834 -11.854,22.229 -10.617,34.898 1.442,14.768 8.553,28.09 20.015,37.512 10.034,8.248 22.354,12.645 35.174,12.645 1.826,0 3.663,-0.09 5.504,-0.27 35.902,-3.51 62.255,-35.568 58.748,-71.465 z"
         inkscape:connector-curvature="0"
         style="fill:#c84614;fill-opacity:1" />
      <path
         id="path10021"
         d="m 5610.7993,-5669.2957 0,-212.153 -132.04,0 0,212.151 c -14.712,2.258 -25.98,14.969 -25.98,30.311 0,16.938 13.73,30.668 30.667,30.668 l 122.667,0 c 16.938,0 30.667,-13.73 30.667,-30.668 0,-15.343 -11.269,-28.054 -25.981,-30.309 z m -83.667,-156.159 c 0,-9.746 7.9,-17.65 17.647,-17.65 9.749,0 17.646,7.904 17.646,17.65 l 0,118.014 c 0,9.746 -7.897,17.648 -17.646,17.648 -9.747,0 -17.647,-7.902 -17.647,-17.648 l 0,-118.014 z"
         inkscape:connector-curvature="0"
         style="fill:#c84614;fill-opacity:1" />
    </g>
  </g>
</svg>
