<?xml version="1.0" encoding="UTF-8" standalone="no"?>
<!-- Created with Inkscape (http://www.inkscape.org/) -->

<svg
   xmlns:dc="http://purl.org/dc/elements/1.1/"
   xmlns:cc="http://creativecommons.org/ns#"
   xmlns:rdf="http://www.w3.org/1999/02/22-rdf-syntax-ns#"
   xmlns:svg="http://www.w3.org/2000/svg"
   xmlns="http://www.w3.org/2000/svg"
   xmlns:sodipodi="http://sodipodi.sourceforge.net/DTD/sodipodi-0.dtd"
   xmlns:inkscape="http://www.inkscape.org/namespaces/inkscape"
   width="1000"
   height="1000"
   id="svg9913"
   version="1.1"
   inkscape:version="0.91 r13725"
   viewBox="0 0 1000 1000"
   sodipodi:docname="destination_zoo.svg">
  <defs
     id="defs9915" />
  <sodipodi:namedview
     id="base"
     pagecolor="#ffffff"
     bordercolor="#666666"
     borderopacity="1.0"
     inkscape:pageopacity="0.0"
     inkscape:pageshadow="2"
     inkscape:zoom="0.5"
     inkscape:cx="9.7405635"
     inkscape:cy="416"
     inkscape:current-layer="layer1"
     showgrid="true"
     inkscape:grid-bbox="true"
     inkscape:document-units="px"
     inkscape:window-width="1920"
     inkscape:window-height="1018"
     inkscape:window-x="-8"
     inkscape:window-y="-8"
     inkscape:window-maximized="1" />
  <metadata
     id="metadata9918">
    <rdf:RDF>
      <cc:Work
         rdf:about="">
        <dc:format>image/svg+xml</dc:format>
        <dc:type
           rdf:resource="http://purl.org/dc/dcmitype/StillImage" />
        <dc:title></dc:title>
      </cc:Work>
    </rdf:RDF>
  </metadata>
  <g
     id="layer1"
     inkscape:label="Layer 1"
     inkscape:groupmode="layer"
     transform="translate(0,968)">
    <path
       style="fill:#0a8228;fill-opacity:1;stroke:none;stroke-opacity:1"
       d="m 694.37623,-836.98298 c -49.82014,-0.0603 -91.86934,27.42541 -113.34824,74.35927 -28.41203,61.70161 -2.62953,137.64513 57.16305,167.87659 51.70419,26.2199 115.1758,12.94049 151.19808,-31.6951 5.72457,-7.14748 6.1801,-7.26116 16.67127,-7.4077 12.05507,-0.0905 12.03318,-0.92268 0.88728,14.10259 -32.00473,42.99495 -87.04142,63.61754 -139.81216,52.42201 -45.94397,-9.73672 -85.22036,-43.76536 -103.00001,-89.45842 -15.22003,-38.9469 -13.27156,-86.16811 4.8645,-123.21899 l 6.38697,-13.03427 -6.10926,-0.99807 c -13.58425,-2.14991 -98.50613,-13.27578 -127.38005,-16.59444 -92.59892,-10.64915 -161.66343,-12.6287 -193.70276,-5.62776 -38.22816,8.38797 -76.21327,24.3483 -98.97155,41.52439 -29.80004,22.50021 -50.360375,54.34758 -60.495146,93.73171 -18.206866,70.78281 -13.889363,144.9883 24.657846,424.14478 7.43122,53.93479 14.5219,107.24813 15.69625,118.58899 l 2.16808,20.51344 30.90994,0 c 16.9963,0 38.94184,-0.34073 48.68437,-0.99807 l 17.77961,-1.06742 0.35794,-45.72622 c 0.35793,-48.50181 3.16663,-86.31586 9.2345,-117.0937 6.36507,-31.98245 14.1217,-46.81565 27.98918,-53.5618 33.14249,-15.97328 138.39076,-25.35571 216.83543,-19.30127 59.20779,4.48556 91.86933,13.46123 104.45823,28.63214 18.56287,22.42725 25.42205,68.03979 23.89283,158.33315 l -0.78376,51.42424 51.11784,-0.99807 c 28.19879,-0.62115 51.65803,-1.5167 52.22652,-2.13785 0.53293,-0.62115 11.09827,-86.34059 23.54438,-190.52697 12.41144,-104.1134 22.7121,-189.31511 22.78411,-189.31511 0,0 13.33482,0.24122 29.5144,0.56687 43.38309,0.91363 62.51845,-4.25671 79.8712,-21.6511 4.23273,-4.26727 8.75872,-7.76443 10.00348,-7.76443 5.12032,0 14.29833,9.58688 19.02875,19.94265 13.085,28.69999 18.94242,70.29825 25.69853,182.76375 3.94636,65.31185 -1.88574,91.17171 -22.9886,101.63784 -18.5991,9.18915 -54.81708,-1.4805 -68.899,-20.44196 -3.94633,-5.25116 -4.59797,-8.10093 -5.41469,-24.07391 -0.74798,-14.47769 -1.63491,-18.91412 -4.23916,-21.79403 -4.94287,-5.54455 -14.18094,-7.60491 -31.32166,-6.83781 -14.36634,0.4734 -15.89911,0.99505 -20.69916,5.69802 -6.72154,6.70996 -7.93049,12.81837 -4.44479,25.07047 11.87597,42.15639 52.77432,82.33475 93.20557,91.5236 13.86868,3.1733 44.01718,1.42623 56.60493,-3.20467 19.45162,-7.07481 33.93212,-22.36875 45.63112,-48.00579 9.42345,-20.53122 10.27759,-28.97106 11.87758,-107.19294 0.81919,-39.4583 2.55798,-103.2634 3.67984,-141.80927 3.23854,-104.00455 2.95192,-185.40216 -0.74416,-212.60594 -10.34801,-76.10755 -30.47474,-111.91401 -75.70723,-135.39933 -18.56291,-9.62637 -32.92925,-12.42669 -63.68883,-12.46438 -30.82998,-0.0302 -40.91103,1.83029 -64.45263,11.75276 l -12.57101,5.27106 -13.12477,-6.26792 c -17.63717,-8.42446 -31.95061,-11.60953 -52.57539,-11.60953 z m 204.05514,106.69481 c 11.87606,0 17.91094,15.03825 9.44815,23.71841 -8.81919,9.04381 -23.09285,2.82835 -23.19985,-10.04278 0,-6.85651 6.88738,-13.67563 13.7517,-13.67563 z m -823.648623,15.52732 c -17.672995,-0.36183 -35.043644,15.93529 -42.156207,39.52977 -7.467412,24.65194 -11.720467,91.5821 -12.431763,195.44132 -0.425681,62.02968 -0.357936,64.58032 2.916015,66.95156 4.303574,3.20829 5.434169,3.1522 9.238489,-0.71161 2.98758,-3.02676 3.234241,-8.53724 4.164339,-87.96343 1.352603,-115.45458 4.872061,-156.69855 14.934826,-177.77765 6.544063,-13.7109 13.215047,-18.94547 24.238935,-18.94547 8.071693,0 8.057373,-0.0118 9.444164,-6.97983 1.563419,-8.05871 0.357936,-9.36163 -10.348401,-9.54435 z m 842.885443,226.63678 c 0,-0.21107 0.42558,0.0905 0.71184,0.78397 0.4975,1.2785 0.42558,2.80123 0,3.3479 -0.53292,0.58497 -0.95885,-0.42214 -0.88693,-2.27957 0.0382,-1.02218 0,-1.67048 0.35679,-1.85139 z"
       id="path4722"
       inkscape:connector-curvature="0"
       inkscape:transform-center-x="4604.7851"
       inkscape:transform-center-y="4800.6997" />
  </g>
</svg>
