<?xml version="1.0" encoding="UTF-8" standalone="no"?>
<!-- Created with Inkscape (http://www.inkscape.org/) -->

<svg
   xmlns:dc="http://purl.org/dc/elements/1.1/"
   xmlns:cc="http://creativecommons.org/ns#"
   xmlns:rdf="http://www.w3.org/1999/02/22-rdf-syntax-ns#"
   xmlns:svg="http://www.w3.org/2000/svg"
   xmlns="http://www.w3.org/2000/svg"
   xmlns:sodipodi="http://sodipodi.sourceforge.net/DTD/sodipodi-0.dtd"
   xmlns:inkscape="http://www.inkscape.org/namespaces/inkscape"
   width="352.78mm"
   height="352.78mm"
   viewBox="0 0 1250.0079 1250.0079"
   id="svg26724"
   version="1.1"
   inkscape:version="0.91 r13725"
   sodipodi:docname="destination_picnic_site.svg">
  <defs
     id="defs26726" />
  <sodipodi:namedview
     id="base"
     pagecolor="#ffffff"
     bordercolor="#666666"
     borderopacity="1.0"
     inkscape:pageopacity="0.0"
     inkscape:pageshadow="2"
     inkscape:zoom="0.5"
     inkscape:cx="80"
     inkscape:cy="520"
     inkscape:document-units="px"
     inkscape:current-layer="layer1"
     showgrid="false"
     inkscape:window-width="1920"
     inkscape:window-height="1018"
     inkscape:window-x="-8"
     inkscape:window-y="-8"
     inkscape:window-maximized="1" />
  <metadata
     id="metadata26729">
    <rdf:RDF>
      <cc:Work
         rdf:about="">
        <dc:format>image/svg+xml</dc:format>
        <dc:type
           rdf:resource="http://purl.org/dc/dcmitype/StillImage" />
        <dc:title></dc:title>
      </cc:Work>
    </rdf:RDF>
  </metadata>
  <g
     inkscape:label="Layer 1"
     inkscape:groupmode="layer"
     id="layer1"
     transform="translate(0,197.64569)">
    <path
       inkscape:connector-curvature="0"
       style="fill:#c84614;fill-opacity:1;stroke:#c84614;stroke-width:6.22570467;stroke-miterlimit:4;stroke-dasharray:none;stroke-opacity:1"
       d="m 619.37751,149.52536 c -223.1176,0.594 -226.3847,0.622 -236.9147,5.134 -27.1706,11.621 -39.5434,32.209 -34.2315,56.98 3.1678,14.771 15.797,28.337 32.4094,34.839 10.4819,4.101 18.0762,5.057 47.2615,5.851 19.131,0.509 34.7836,1.414 34.7836,1.979 0,0.594 -2.154,2.827 -4.8033,4.97 -3.8865,3.146 -8.4693,18.383 -23.7414,78.787 l -18.9376,74.813 -65.1503,1.102 c -62.1141,1.046 -65.6647,1.385 -76.1925,6.239 -21.138,9.738 -31.8795,25.255 -31.9677,46.157 -0.085,19.895 9.5075,34.931 27.9373,43.949 13.4091,6.558 39.0501,9.28 90.7134,9.552 16.8045,0 27.0538,0.961 27.0538,2.374 0,1.244 -9.9381,41.954 -22.0848,90.494 -12.1467,48.539 -22.0848,89.311 -22.0848,90.547 0,1.441 15.7134,2.204 44.2799,2.204 52.394,0 57.5092,-1.243 63.8253,-15.901 2.2417,-5.204 12.7242,-44.777 23.3545,-87.898 10.6302,-43.121 20.1473,-79.395 21.0909,-80.61 1.1082,-1.414 46.8814,-2.205 129.4171,-2.205 l 127.7054,0 9.4411,37.543 c 36.3403,144.588 35.6876,142.663 51.2919,146.864 4.9766,1.328 26.152,2.063 50.3533,1.724 l 41.74047,-0.622 -22.74737,-91.652 c -12.5058,-50.409 -22.8014,-91.703 -22.858,-91.816 -0.056,0 21.0083,-0.82 46.81977,-1.555 54.1063,-1.527 69.4015,-4.783 84.9713,-18.109 23.91152,-20.469 20.54692,-59.013 -6.5151,-74.869 -18.3203,-10.734 -30.763,-12.421 -93.69467,-12.421 l -58.0276,0 -2.1541,-8.283 c -1.1845,-4.554 -9.2896,-36.317 -18.0543,-70.618 -16.0051,-62.629 -20.688,-75.157 -28.6552,-77.241 -11.5364,-3.016 -0.8396,-4.689 34.8941,-5.41 36.8438,-0.735 39.9307,-1.131 51.347,-6.57 6.6807,-3.174 14.5207,-8.008 17.3919,-10.767 12.92607,-12.416 17.19457,-37.024 9.38597,-54.217 -5.78367,-12.734 -17.78367,-21.738 -36.43977,-27.276 -15.9237,-4.726 -16.4362,-4.687 -242.2151,-4.085 z m 68.1868,105.399 17.9438,73.377 c 9.8705,40.365 18.5173,75.68 19.2138,78.456 l 1.2693,5.024 -101.8663,0 -101.8659,0 1.5463,-6.072 c 0.8452,-3.342 9.6095,-38.372 19.4897,-77.849 l 17.944,-71.777 63.1623,-0.537 63.1627,-0.622 z"
       id="path5186" />
  </g>
</svg>
