<?xml version="1.0" encoding="UTF-8" standalone="no"?>
<!-- Created with Inkscape (http://www.inkscape.org/) -->

<svg
   xmlns:dc="http://purl.org/dc/elements/1.1/"
   xmlns:cc="http://creativecommons.org/ns#"
   xmlns:rdf="http://www.w3.org/1999/02/22-rdf-syntax-ns#"
   xmlns:svg="http://www.w3.org/2000/svg"
   xmlns="http://www.w3.org/2000/svg"
   xmlns:sodipodi="http://sodipodi.sourceforge.net/DTD/sodipodi-0.dtd"
   xmlns:inkscape="http://www.inkscape.org/namespaces/inkscape"
   width="32"
   height="32"
   id="svg8080"
   version="1.1"
   inkscape:version="0.91 r13725"
   viewBox="0 0 32 32"
   sodipodi:docname="destination_castle.svg">
  <defs
     id="defs8082" />
  <sodipodi:namedview
     id="base"
     pagecolor="#ffffff"
     bordercolor="#666666"
     borderopacity="1.0"
     inkscape:pageopacity="0.0"
     inkscape:pageshadow="2"
     inkscape:zoom="20"
     inkscape:cx="11.871489"
     inkscape:cy="16"
     inkscape:current-layer="layer1"
     showgrid="true"
     inkscape:grid-bbox="true"
     inkscape:document-units="px"
     inkscape:window-width="1920"
     inkscape:window-height="1018"
     inkscape:window-x="-8"
     inkscape:window-y="-8"
     inkscape:window-maximized="1" />
  <metadata
     id="metadata8085">
    <rdf:RDF>
      <cc:Work
         rdf:about="">
        <dc:format>image/svg+xml</dc:format>
        <dc:type
           rdf:resource="http://purl.org/dc/dcmitype/StillImage" />
        <dc:title></dc:title>
      </cc:Work>
    </rdf:RDF>
  </metadata>
  <g
     id="layer1"
     inkscape:label="Layer 1"
     inkscape:groupmode="layer">
    <path
       d="m 8.310782,2.4105044 -8.74e-4,4.073e-4 -0.140916,0.1478055 c -0.07769,0.082497 -0.131372,0.1726172 -0.119165,0.1985986 0.01249,0.026002 -0.0351,0.1020248 -0.103904,0.1721264 -0.06881,0.07007 -0.107789,0.1440148 -0.0867,0.1654641 0.02109,0.021512 0.0028,0.039786 -0.0412,0.039786 -0.04328,0 -0.06132,0.027778 -0.03912,0.063909 0.0222,0.035087 -0.0055,0.082288 -0.06062,0.1038001 -0.05438,0.021512 -0.08282,0.065476 -0.06284,0.097012 0.01998,0.03279 0.0028,0.059523 -0.0369,0.059523 -0.03884,0 -0.05244,0.030075 -0.03024,0.066206 0.0222,0.036132 0.0083,0.064014 -0.0326,0.064014 -0.03884,0 -0.05466,0.030075 -0.03246,0.066206 0.02219,0.034983 -0.0042,0.082288 -0.058542,0.1036957 -0.05438,0.021512 -0.085038,0.065371 -0.065062,0.097117 0.018866,0.03279 0.00416,0.059523 -0.036901,0.059523 -0.038843,0 -0.054657,0.025689 -0.034542,0.05733 0.019976,0.031641 -0.011098,0.075605 -0.065062,0.097012 -0.05549,0.020259 -0.082819,0.069757 -0.060761,0.1058678 0.022196,0.036132 0.00971,0.063909 -0.030381,0.063909 -0.038843,0 -0.053548,0.030075 -0.032462,0.066206 0.021086,0.036132 0.00832,0.066206 -0.032462,0.066206 -0.039953,0 -0.056877,0.025793 -0.036901,0.05733 0.019976,0.031641 -0.00971,0.075501 -0.065062,0.097012 -0.05549,0.020363 -0.080738,0.067668 -0.058542,0.1038001 0.021086,0.036132 0.00832,0.066206 -0.0326,0.066206 -0.039953,0 -0.053548,0.030075 -0.032462,0.066206 0.021086,0.036132 0.00832,0.066206 -0.0326,0.066206 -0.039953,0 -0.056738,0.025793 -0.036762,0.057435 C 6.832115,4.918065 6.802429,4.962029 6.747077,4.983436 6.691587,5.003799 6.666339,5.051 6.688535,5.0871317 c 0.021086,0.036132 0.00832,0.066206 -0.032462,0.066206 -0.039953,0 -0.054796,0.030075 -0.0326,0.066206 0.022196,0.036132 0.00971,0.063909 -0.028161,0.063909 -0.037733,0 -0.067143,0.042815 -0.067143,0.097012 0,0.054197 -0.032739,0.09931 -0.069362,0.09931 -0.036623,0 -0.047028,0.030075 -0.025942,0.066207 0.021086,0.036132 0.00694,0.063909 -0.032462,0.063909 -0.039953,0 -0.056877,0.027882 -0.036901,0.059523 0.019976,0.031641 -0.011098,0.075605 -0.065062,0.097117 -0.05438,0.021407 -0.082957,0.069757 -0.060761,0.1057841 0.022196,0.036132 0.00971,0.064014 -0.030242,0.064014 -0.039953,0 -0.054657,0.030075 -0.032462,0.066206 0.022196,0.036132 0.00832,0.066206 -0.0326,0.066206 -0.038843,0 -0.054657,0.025689 -0.034542,0.057435 0.019976,0.031641 -0.011098,0.075605 -0.065062,0.097012 -0.05438,0.021512 -0.080738,0.069757 -0.058403,0.105826 0.022196,0.036132 0.00694,0.066206 -0.0326,0.066206 -0.038843,0 -0.052577,0.027778 -0.030381,0.063909 0.022196,0.036132 0.00832,0.066206 -0.0326,0.066206 -0.038843,0 -0.056877,0.027882 -0.036901,0.059523 0.018866,0.031641 -0.011098,0.075605 -0.065062,0.097012 -0.05549,0.021407 -0.082819,0.067564 -0.060623,0.1036957 0.021086,0.036132 0.00971,0.066206 -0.030381,0.066206 -0.038843,0 -0.053548,0.030075 -0.032462,0.066207 0.021086,0.036132 0.00832,0.063909 -0.0326,0.063909 -0.039953,0 -0.056877,0.027882 -0.036901,0.059523 0.019976,0.031641 -0.00971,0.075501 -0.065062,0.097012 -0.05549,0.021512 -0.080738,0.067564 -0.058542,0.1036956 0.021086,0.03728 0.00832,0.066206 -0.032462,0.066206 -0.039953,0 -0.054796,0.030075 -0.032462,0.066102 0.022196,0.036132 0.00971,0.066206 -0.028161,0.066206 -0.037733,0 -0.069362,0.042815 -0.069362,0.097117 0,0.053049 -0.030519,0.097012 -0.067143,0.097012 -0.036623,0 -0.049247,0.030075 -0.028161,0.066207 0.021086,0.036132 0.00971,0.066102 -0.030242,0.066102 -0.039953,0 -0.056877,0.024645 -0.036762,0.057435 0.019976,0.031641 -0.00971,0.075605 -0.065062,0.097117 -0.05549,0.021408 -0.082957,0.069653 -0.060761,0.1057842 0.021086,0.036132 0.00832,0.066206 -0.032462,0.066206 -0.039953,0 -0.051467,0.027777 -0.030381,0.063909 0.021086,0.036236 0.00694,0.066206 -0.0326,0.066206 -0.039953,0 -0.056877,0.026838 -0.036901,0.059523 0.019976,0.031537 -0.011098,0.075605 -0.064923,0.097012 -0.05438,0.021512 -0.080738,0.067564 -0.058542,0.1036957 0.022196,0.036132 0.00694,0.066102 -0.0326,0.066102 -0.039953,0 -0.054796,0.030075 -0.0326,0.066206 0.022196,0.036132 0.00832,0.063909 -0.032461,0.063909 -0.038843,0 -0.054519,0.026733 -0.034542,0.059523 C 4.651639,8.771339 4.620565,8.815199 4.566601,8.83671 4.511111,8.858222 4.485863,8.906571 4.508059,8.9425777 c 0.022196,0.036132 0.00832,0.063909 -0.032462,0.063909 -0.038843,0 -0.053548,0.030075 -0.0326,0.066206 0.021086,0.036132 0.00832,0.066206 -0.032462,0.066206 -0.039953,0 -0.056877,0.024645 -0.036901,0.057435 0.019976,0.031641 -0.00832,0.075605 -0.062842,0.097117 -0.05549,0.021408 -0.082957,0.069757 -0.060761,0.105826 0.021086,0.036132 0.00832,0.066206 -0.032462,0.066206 -0.039953,0 -0.053548,0.027777 -0.032462,0.063909 0.021086,0.036132 0.00694,0.066206 -0.034542,0.066206 -0.05438,0 -0.068669,2.4889253 -0.054241,9.9685683 l 0.01956,9.97522 4.2353942,0 c 2.3283228,-0.0021 7.8039278,-0.01128 12.1664908,-0.02203 l 7.933274,-0.01326 0,-6.658933 0,-6.654526 -0.73696,0 -0.736917,0 0,1.105388 0,1.112039 -0.737002,0 -0.736959,0 0,-1.112039 0,-1.105388 -0.806336,0 -0.802035,0 0,1.076702 0,1.076712 -0.769448,0 -0.762999,0 0,-1.076712 0,-1.076702 -0.801979,0 -0.808528,0 0,1.076702 0,1.076712 -0.736918,0 -0.737042,0 0,-1.076712 0,-1.076702 -0.85833,0 -0.867055,0 0,1.010537 0,1.012782 -0.769449,0 -0.767312,0 0,-1.012782 0,-1.010537 -0.962428,0 -0.962345,0 0,0.880348 0,0.880359 -0.737002,0 -0.736959,0 0,-4.14365 c 0,-2.872787 -0.02275,-4.1436073 -0.06936,-4.1436073 -0.03662,0 -0.05036,-0.030075 -0.02816,-0.066206 0.0222,-0.036132 0.0111,-0.063909 -0.02594,-0.063909 -0.03773,0 -0.06936,-0.046157 -0.06936,-0.09931 0,-0.054197 -0.02955,-0.097012 -0.06728,-0.097012 -0.03662,0 -0.04925,-0.030075 -0.02816,-0.066206 0.02109,-0.036132 0.0083,-0.064014 -0.0326,-0.064014 -0.03995,0 -0.05466,-0.030075 -0.0326,-0.066206 0.0222,-0.036132 -0.0069,-0.084481 -0.06062,-0.105826 -0.05438,-0.021512 -0.08171,-0.064222 -0.06284,-0.097012 0.01887,-0.03279 0.0042,-0.057435 -0.0369,-0.057435 -0.03884,0 -0.05466,-0.030075 -0.0326,-0.066206 0.0222,-0.036132 0.0097,-0.066206 -0.02816,-0.066206 -0.03773,0 -0.06714,-0.042815 -0.06714,-0.097012 0,-0.054197 -0.02192,-0.09931 -0.0584,-0.09931 -0.03662,0 -0.0505,-0.031224 -0.0283,-0.066206 0.02109,-0.036132 0.0083,-0.066207 -0.0326,-0.066207 -0.03995,0 -0.05466,-0.030075 -0.03246,-0.066206 0.0222,-0.036132 -0.0042,-0.081139 -0.05854,-0.1036956 -0.05549,-0.021512 -0.08393,-0.064327 -0.06506,-0.097012 0.01887,-0.03279 0.0042,-0.059523 -0.0369,-0.059523 -0.03995,0 -0.05466,-0.028926 -0.03246,-0.063909 0.02109,-0.036132 0.0069,-0.066206 -0.0326,-0.066206 -0.03995,0 -0.05244,-0.030075 -0.03024,-0.066206 0.02219,-0.036132 -0.0055,-0.081139 -0.06076,-0.1036957 -0.05549,-0.021512 -0.08393,-0.06652 -0.06506,-0.09931 0.01887,-0.03279 0.0028,-0.057435 -0.0369,-0.057435 -0.03995,0 -0.05466,-0.030075 -0.03246,-0.066206 0.0222,-0.036132 -0.0042,-0.082288 -0.05854,-0.1038001 -0.05549,-0.021407 -0.08504,-0.064222 -0.06506,-0.097012 0.01887,-0.03279 0.0042,-0.059523 -0.0369,-0.059523 -0.03995,0 -0.0548,-0.030075 -0.0326,-0.066102 0.02109,-0.036236 0.0083,-0.066206 -0.03024,-0.066206 -0.03995,0 -0.05466,-0.027778 -0.03246,-0.063909 0.02219,-0.036132 -0.0055,-0.084377 -0.06062,-0.1058677 -0.05438,-0.021512 -0.08504,-0.064327 -0.06506,-0.097012 0.01998,-0.03279 0.0042,-0.057435 -0.03468,-0.057435 -0.03995,0 -0.05799,-0.026838 -0.03898,-0.05733 0.01887,-0.030493 -0.02233,-0.114107 -0.08892,-0.1875398 -0.06659,-0.073412 -0.103488,-0.1483798 -0.0824,-0.1720847 0.02109,-0.021512 0.0028,-0.039786 -0.04106,-0.039786 -0.04328,0 -0.06132,-0.030075 -0.03912,-0.066206 0.0222,-0.034983 -0.0042,-0.082184 -0.05854,-0.1036957 -0.05438,-0.021407 -0.08504,-0.065371 -0.06506,-0.097012 0.01887,-0.03279 0.0042,-0.059523 -0.0369,-0.059523 -0.03884,0 -0.05563,-0.024645 -0.0369,-0.055137 0.01776,-0.030493 -0.02233,-0.114107 -0.08892,-0.1875503 -0.06659,-0.073412 -0.105708,-0.1516797 -0.08448,-0.1742776 0.02109,-0.021512 0.0042,-0.039682 -0.03912,-0.039682 -0.04328,0 -0.06118,-0.027882 -0.03898,-0.064013 0.0222,-0.036132 -0.0069,-0.084377 -0.06076,-0.1058677 -0.05438,-0.021407 -0.08282,-0.065371 -0.06284,-0.097012 0.01887,-0.03279 0.0042,-0.059523 -0.0369,-0.059523 -0.03884,0 -0.05466,-0.027778 -0.03246,-0.064014 0.0222,-0.036132 0.0097,-0.066206 -0.02816,-0.066206 -0.03773,0 -0.06728,-0.043859 -0.06728,-0.097012 0,-0.054302 -0.03163,-0.09931 -0.06936,-0.09931 -0.03662,0 -0.04925,-0.027778 -0.02816,-0.063909 0.02109,-0.036132 0.0083,-0.066206 -0.0326,-0.066206 -0.03995,0 -0.05244,-0.030075 -0.03024,-0.066206 0.0222,-0.035087 -0.0069,-0.082288 -0.06076,-0.1036957 -0.05438,-0.021407 -0.08393,-0.064327 -0.06506,-0.097117 0.01887,-0.03279 0.0042,-0.059523 -0.0369,-0.059523 -0.03995,0 -0.05563,-0.027882 -0.0369,-0.059523 0.01887,-0.031641 -0.0083,-0.0755 -0.06284,-0.097012 -0.05549,-0.021512 -0.08282,-0.067564 -0.06062,-0.1036957 0.02109,-0.036132 0.0083,-0.066206 -0.03246,-0.066206 -0.03995,0 -0.05688,-0.027986 -0.0369,-0.059628 0.01887,-0.031641 -0.0083,-0.075605 -0.06284,-0.097012 -0.05549,-0.021512 -0.08296,-0.067564 -0.06076,-0.1036956 0.02109,-0.036132 0.0042,-0.066206 -0.03898,-0.066206 -0.04328,0 -0.06229,-0.017126 -0.0412,-0.037489 0.02109,-0.020363 -0.0179,-0.095446 -0.08656,-0.1655058 -0.06992,-0.07007 -0.110008,-0.1547081 -0.08892,-0.1897119 0.02109,-0.035087 0.01387,-0.063909 -0.01734,-0.063909 -0.03107,0 -0.195462,-0.2209146 -0.364165,-0.492048 L 8.309381,2.4104 Z m -1.5203225,8.1354946 2.8785315,0 0,4.518729 -2.8785315,0 0,-4.518729 z m 8.3234645,10.784944 2.878489,0 0,4.518698 -2.878489,0 0,-4.518698 z m 5.358202,0 3.086604,0 0,4.518698 -3.086604,0 0,-4.518698 z"
       id="path14817-0"
       inkscape:connector-curvature="0"
       style="fill:#c84614;fill-opacity:1" />
  </g>
</svg>
