<?xml version="1.0" encoding="UTF-8" standalone="no"?>
<!-- Created with Inkscape (http://www.inkscape.org/) -->

<svg
   xmlns:dc="http://purl.org/dc/elements/1.1/"
   xmlns:cc="http://creativecommons.org/ns#"
   xmlns:rdf="http://www.w3.org/1999/02/22-rdf-syntax-ns#"
   xmlns:svg="http://www.w3.org/2000/svg"
   xmlns="http://www.w3.org/2000/svg"
   xmlns:sodipodi="http://sodipodi.sourceforge.net/DTD/sodipodi-0.dtd"
   xmlns:inkscape="http://www.inkscape.org/namespaces/inkscape"
   width="1000"
   height="1000"
   id="svg3351"
   version="1.1"
   inkscape:version="0.91 r13725"
   viewBox="0 0 1000 1000"
   sodipodi:docname="destination_monument.svg">
  <defs
     id="defs3353" />
  <sodipodi:namedview
     id="base"
     pagecolor="#ffffff"
     bordercolor="#666666"
     borderopacity="1.0"
     inkscape:pageopacity="0.0"
     inkscape:pageshadow="2"
     inkscape:zoom="0.5"
     inkscape:cx="6.3954416"
     inkscape:cy="720.23349"
     inkscape:current-layer="layer1"
     showgrid="true"
     inkscape:grid-bbox="true"
     inkscape:document-units="px"
     inkscape:window-width="1920"
     inkscape:window-height="1018"
     inkscape:window-x="-8"
     inkscape:window-y="-8"
     inkscape:window-maximized="1" />
  <metadata
     id="metadata3356">
    <rdf:RDF>
      <cc:Work
         rdf:about="">
        <dc:format>image/svg+xml</dc:format>
        <dc:type
           rdf:resource="http://purl.org/dc/dcmitype/StillImage" />
        <dc:title></dc:title>
      </cc:Work>
    </rdf:RDF>
  </metadata>
  <g
     id="layer1"
     inkscape:label="Layer 1"
     inkscape:groupmode="layer"
     transform="translate(0,968)">
    <path
       id="path6990"
       style="fill:#c84614;fill-opacity:1"
       d="m 67.3685,-50.676734 0,-39.526341 423.45653,0 423.50647,0 0,39.526341 0,39.526341 -423.50647,0 -423.45653,0 0,-39.526341 z m 121.67947,-116.809186 0,-52.09955 311.51342,0 311.56335,0 0,52.09955 0,52.13642 -311.56335,0 -311.51342,0 0,-52.13642 z m 300.6786,-76.36106 -208.00847,-0.95866 2.49649,-20.64809 c 1.39804,-11.35645 12.43258,-148.37126 24.46572,-304.5593 12.08306,-156.15118 23.51704,-284.9805 25.36445,-286.30788 1.89734,-1.2905 40.64304,-17.14529 86.17922,-35.24924 57.56932,-22.89725 85.13069,-32.00454 90.52314,-30.01346 4.29398,1.5486 40.89269,17.40338 81.336,35.13861 l 73.59686,32.29952 2.69622,18.0302 c 1.29819,9.91846 11.43397,139.33773 21.86935,287.59839 10.6351,148.26064 20.67103,278.0855 21.96921,288.48328 2.24685,16.48161 1.39804,18.76765 -5.9916,17.99334 -4.69342,-0.47933 -102.1069,-1.25364 -216.49659,-1.80671 l 0,0 z"
       inkscape:connector-curvature="0" />
  </g>
</svg>
