<?xml version="1.0" encoding="UTF-8" standalone="no"?>
<!-- Created with Inkscape (http://www.inkscape.org/) -->

<svg
   xmlns:dc="http://purl.org/dc/elements/1.1/"
   xmlns:cc="http://creativecommons.org/ns#"
   xmlns:rdf="http://www.w3.org/1999/02/22-rdf-syntax-ns#"
   xmlns:svg="http://www.w3.org/2000/svg"
   xmlns="http://www.w3.org/2000/svg"
   xmlns:sodipodi="http://sodipodi.sourceforge.net/DTD/sodipodi-0.dtd"
   xmlns:inkscape="http://www.inkscape.org/namespaces/inkscape"
   width="1000"
   height="1000"
   id="svg3346"
   version="1.1"
   inkscape:version="0.91 r13725"
   viewBox="0 0 1000 1000"
   sodipodi:docname="destination_memorial.svg">
  <defs
     id="defs3348" />
  <sodipodi:namedview
     id="base"
     pagecolor="#ffffff"
     bordercolor="#666666"
     borderopacity="1.0"
     inkscape:pageopacity="0.0"
     inkscape:pageshadow="2"
     inkscape:zoom="0.5"
     inkscape:cx="4.0839292"
     inkscape:cy="496"
     inkscape:current-layer="layer1"
     showgrid="true"
     inkscape:grid-bbox="true"
     inkscape:document-units="px"
     inkscape:window-width="1920"
     inkscape:window-height="1018"
     inkscape:window-x="-8"
     inkscape:window-y="-8"
     inkscape:window-maximized="1" />
  <metadata
     id="metadata3351">
    <rdf:RDF>
      <cc:Work
         rdf:about="">
        <dc:format>image/svg+xml</dc:format>
        <dc:type
           rdf:resource="http://purl.org/dc/dcmitype/StillImage" />
        <dc:title></dc:title>
      </cc:Work>
    </rdf:RDF>
  </metadata>
  <g
     id="layer1"
     inkscape:label="Layer 1"
     inkscape:groupmode="layer"
     transform="translate(0,968)">
    <path
       style="fill:#c84614;fill-opacity:1;stroke:#c84614;stroke-width:31.70902252;stroke-opacity:1"
       id="path4740"
       inkscape:connector-curvature="0"
       d="m 181.97706,-77.024896 0,-33.833354 41.42652,0 c 40.80737,0 41.48281,-0.10718 44.24082,-5.60912 2.67359,-5.35903 136.24034,-322.57799 145.16168,-344.76438 l 4.22145,-10.53943 -8.41476,-5.3233 c -43.53725,-28.11706 -78.74416,-84.35116 -91.60552,-146.37302 -5.6286,-27.08098 -5.20646,-83.6009 0.84429,-110.32461 18.96839,-83.88672 70.83597,-145.51559 139.6175,-165.80845 24.20299,-7.14538 63.15293,-6.1093 88.42536,2.35797 57.74946,19.36397 105.02973,72.02539 125.93999,140.15656 9.34348,30.61793 12.4955,56.37701 11.14463,90.92491 -1.43529,36.72723 -4.61545,52.69714 -17.16724,85.67305 -15.95709,41.8719 -39.6535,74.74063 -70.35753,97.49865 -6.89504,5.14467 -12.55179,10.32507 -12.55179,11.50406 0,3.14396 146.23111,350.9094 149.74899,356.37561 2.67358,3.89423 7.40161,4.35868 45.11325,4.35868 l 42.15824,0 0,33.833355 0,33.726173 -318.97294,0 -318.97294,0 0,-33.833354 z M 671.83439,-111.8586 c 0,-0.57163 -31.94232,-76.74134 -70.94854,-169.55977 l -70.94854,-168.66659 -30.36632,0.28581 -30.31003,0.21436 -70.58268,167.48761 c -38.80922,92.10389 -70.58268,168.30933 -70.61082,169.3454 0,1.00036 77.28072,1.89353 171.78496,1.89353 94.58868,0 171.98197,-0.5359 171.98197,-1.00035 l 0,0 z M 525.23742,-520.85991 c 9.06205,-2.28652 22.71142,-8.46727 33.79976,-15.36256 65.4888,-40.62146 90.31094,-140.94253 54.06274,-218.71995 -15.19723,-32.61864 -38.33079,-56.69855 -68.47196,-71.38232 -15.45052,-7.50264 -17.1391,-7.78846 -46.63298,-7.78846 -29.43759,0 -31.2106,0.32155 -46.49226,7.71701 -45.31025,22.0435 -73.81913,63.70104 -82.99375,121.29277 -10.77878,67.59525 17.44867,137.22694 68.44381,168.88095 29.49388,18.32789 57.27104,23.15102 88.28464,15.36256 z" />
  </g>
</svg>
