<?xml version="1.0" encoding="UTF-8" standalone="no"?>
<!-- Created with Inkscape (http://www.inkscape.org/) -->

<svg
   xmlns:dc="http://purl.org/dc/elements/1.1/"
   xmlns:cc="http://creativecommons.org/ns#"
   xmlns:rdf="http://www.w3.org/1999/02/22-rdf-syntax-ns#"
   xmlns:svg="http://www.w3.org/2000/svg"
   xmlns="http://www.w3.org/2000/svg"
   xmlns:sodipodi="http://sodipodi.sourceforge.net/DTD/sodipodi-0.dtd"
   xmlns:inkscape="http://www.inkscape.org/namespaces/inkscape"
   width="1000"
   height="1000"
   id="svg8080"
   version="1.1"
   inkscape:version="0.91 r13725"
   viewBox="0 0 1000 1000"
   sodipodi:docname="destination_castle.svg">
  <defs
     id="defs8082" />
  <sodipodi:namedview
     id="base"
     pagecolor="#ffffff"
     bordercolor="#666666"
     borderopacity="1.0"
     inkscape:pageopacity="0.0"
     inkscape:pageshadow="2"
     inkscape:zoom="0.5"
     inkscape:cx="-289.08517"
     inkscape:cy="336"
     inkscape:current-layer="layer1"
     showgrid="true"
     inkscape:grid-bbox="true"
     inkscape:document-units="px"
     inkscape:window-width="1920"
     inkscape:window-height="1018"
     inkscape:window-x="-8"
     inkscape:window-y="-8"
     inkscape:window-maximized="1" />
  <metadata
     id="metadata8085">
    <rdf:RDF>
      <cc:Work
         rdf:about="">
        <dc:format>image/svg+xml</dc:format>
        <dc:type
           rdf:resource="http://purl.org/dc/dcmitype/StillImage" />
        <dc:title></dc:title>
      </cc:Work>
    </rdf:RDF>
  </metadata>
  <g
     id="layer1"
     inkscape:label="Layer 1"
     inkscape:groupmode="layer"
     transform="translate(0,968)">
    <path
       d="m 199.86564,-901.58632 -0.0331,0.0128 -5.3356,4.63717 c -2.94164,2.58821 -4.97424,5.41559 -4.51204,6.23071 0.47292,0.81578 -1.32901,3.20087 -3.93419,5.4002 -2.6054,2.19833 -4.08129,4.51823 -3.28278,5.19117 0.79854,0.67491 0.10601,1.24822 -1.55999,1.24822 -1.63874,0 -2.3218,0.8715 -1.48123,2.00505 0.84058,1.1008 -0.20825,2.58165 -2.2953,3.25656 -2.05903,0.67491 -3.13587,2.05421 -2.37935,3.0436 0.75651,1.02873 0.10601,1.86744 -1.39718,1.86744 -1.47062,0 -1.98557,0.94356 -1.145,2.07711 0.84058,1.13358 0.31427,2.00834 -1.23435,2.00834 -1.47063,0 -2.06963,0.94355 -1.22906,2.0771 0.8402,1.09754 -0.15903,2.58166 -2.21662,3.25329 -2.05903,0.67491 -3.21985,2.05091 -2.46349,3.04689 0.71434,1.02874 0.15751,1.86744 -1.39721,1.86744 -1.47074,0 -2.06952,0.80596 -1.30789,1.79864 0.75637,0.99269 -0.42021,2.37199 -2.46349,3.0436 -2.10106,0.63559 -3.13583,2.18852 -2.30063,3.32144 0.84042,1.13358 0.36765,2.00504 -1.15034,2.00504 -1.47074,0 -2.02753,0.94355 -1.22914,2.07711 0.7984,1.13358 0.31503,2.07711 -1.22913,2.07711 -1.51277,0 -2.15357,0.80921 -1.39721,1.79863 0.75637,0.99269 -0.36765,2.36873 -2.46349,3.0436 -2.10106,0.63886 -3.05704,2.12298 -2.21662,3.25657 0.7984,1.13358 0.31503,2.0771 -1.23435,2.0771 -1.51277,0 -2.02753,0.94356 -1.22914,2.07711 0.7984,1.13359 0.31503,2.07711 -1.23435,2.07711 -1.51277,0 -2.14832,0.80922 -1.39195,1.80193 0.75637,0.99269 -0.36766,2.37199 -2.46349,3.0436 -2.10106,0.63886 -3.05704,2.11971 -2.21662,3.25329 0.7984,1.13358 0.31503,2.07711 -1.22913,2.07711 -1.51277,0 -2.07478,0.94355 -1.23436,2.07711 0.84043,1.13358 0.36766,2.00504 -1.06628,2.00504 -1.42871,0 -2.54228,1.34325 -2.54228,3.0436 0,1.70034 -1.23962,3.11569 -2.62631,3.11569 -1.38668,0 -1.78065,0.94356 -0.98226,2.07714 0.7984,1.13359 0.26278,2.00505 -1.22913,2.00505 -1.51277,0 -2.15358,0.87475 -1.39721,1.86744 0.75637,0.99268 -0.42021,2.37198 -2.46349,3.04689 -2.05903,0.67161 -3.14106,2.18851 -2.30064,3.31881 0.84043,1.13358 0.36766,2.00833 -1.14507,2.00833 -1.51277,0 -2.06952,0.94356 -1.22914,2.07711 0.84043,1.13359 0.31503,2.07711 -1.23435,2.07711 -1.47074,0 -2.06952,0.80595 -1.30789,1.80193 0.75636,0.99269 -0.42021,2.37199 -2.46349,3.0436 -2.05903,0.67491 -3.05704,2.18852 -2.21136,3.32012 0.84043,1.13359 0.26278,2.07711 -1.23435,2.07711 -1.47075,0 -1.99077,0.87149 -1.15034,2.00505 0.84042,1.13358 0.31502,2.0771 -1.23436,2.0771 -1.47074,0 -2.15358,0.87476 -1.39721,1.86744 0.71434,0.99269 -0.42021,2.37199 -2.46349,3.0436 -2.10106,0.67161 -3.13584,2.11972 -2.29541,3.25329 0.79839,1.13359 0.36765,2.07711 -1.15034,2.07711 -1.470741,0 -2.027527,0.94355 -1.229133,2.07714 0.798393,1.13358 0.315026,2.00504 -1.234357,2.00504 -1.51277,0 -2.153576,0.87476 -1.39721,1.86744 0.756366,0.99269 -0.367657,2.36873 -2.46349,3.0436 -2.101058,0.67491 -3.057042,2.11971 -2.216618,3.25329 0.798394,1.1696 0.315026,2.0771 -1.229133,2.0771 -1.512769,0 -2.074781,0.94356 -1.229132,2.07385 0.840423,1.13358 0.367657,2.07711 -1.066281,2.07711 -1.428712,0 -2.626304,1.34325 -2.626304,3.04689 0,1.66433 -1.155563,3.0436 -2.542284,3.0436 -1.386683,0 -1.864675,0.94355 -1.06628,2.07714 0.798394,1.13358 0.367656,2.07384 -1.145075,2.07384 -1.51277,0 -2.153576,0.7732 -1.391947,1.80194 0.756366,0.99268 -0.367657,2.37198 -2.46349,3.04689 -2.101058,0.67164 -3.141061,2.18525 -2.300638,3.31881 0.798395,1.13358 0.315026,2.07711 -1.229132,2.07711 -1.51277,0 -1.948733,0.87146 -1.150338,2.00504 0.798394,1.13685 0.262774,2.07711 -1.234358,2.07711 -1.512769,0 -2.153575,0.842 -1.397209,1.86744 0.756366,0.98942 -0.420212,2.37199 -2.458227,3.0436 -2.05903,0.6749 -3.057042,2.11971 -2.216619,3.25329 0.840424,1.13358 0.262775,2.07384 -1.234357,2.07384 -1.51277,0 -2.074781,0.94356 -1.234358,2.07711 0.840423,1.13359 0.315026,2.00504 -1.229094,2.00504 -1.470741,0 -2.064293,0.83871 -1.307889,1.86744 0.756365,0.99269 -0.420212,2.36873 -2.46349,3.0436 -2.101059,0.67491 -3.057042,2.19178 -2.216619,3.32143 0.840423,1.13359 0.315026,2.00505 -1.229132,2.00505 -1.470741,0 -2.027527,0.94355 -1.234358,2.07711 0.798395,1.13358 0.315026,2.0771 -1.229132,2.0771 -1.51277,0 -2.153576,0.7732 -1.39721,1.80194 0.756366,0.99268 -0.315026,2.37198 -2.379432,3.04689 -2.101059,0.67164 -3.141062,2.18851 -2.300638,3.32012 0.798394,1.13359 0.315026,2.07711 -1.229133,2.07711 -1.512769,0 -2.027527,0.87146 -1.229132,2.00504 0.798394,1.13359 0.262774,2.07711 -1.307889,2.07711 -2.05903,0 -2.600065,78.08609 -2.053767,312.74805 l 0.740625,312.956706 160.36782,0 c 88.15899,-0.06588 295.48581,-0.353892 460.66872,-0.691156 l 300.38334,-0.416012 0,-208.913478 0,-208.77522 -27.90405,0 -27.90243,0 0,34.6798 0,34.88846 -27.90564,0 -27.90402,0 0,-34.88846 0,-34.6798 -30.53089,0 -30.36803,0 0,33.77982 0,33.78013 -29.13417,0 -28.88999,0 0,-33.78013 0,-33.77982 -30.36592,0 -30.61388,0 0,33.77982 0,33.78013 -27.90247,0 -27.90716,0 0,-33.78013 0,-33.77982 -32.49957,0 -32.82994,0 0,31.704 0,31.77443 -29.13421,0 -29.05329,0 0,-31.77443 0,-31.704 -36.44112,0 -36.43797,0 0,27.61952 0,27.61987 -27.90564,0 -27.90402,0 0,-130.00045 c 0,-90.12915 -0.8614,-129.99912 -2.62623,-129.99912 -1.38657,0 -1.90681,-0.94356 -1.06624,-2.07711 0.84058,-1.13359 0.42029,-2.00505 -0.98218,-2.00505 -1.4286,0 -2.62623,-1.4481 -2.62623,-3.11569 0,-1.70034 -1.11887,-3.0436 -2.54747,-3.0436 -1.38657,0 -1.86479,-0.94355 -1.06625,-2.07711 0.79855,-1.13358 0.31427,-2.00833 -1.23435,-2.00833 -1.51266,0 -2.06963,-0.94356 -1.23436,-2.07711 0.84057,-1.13359 -0.26126,-2.65046 -2.2953,-3.32013 -2.05903,-0.6749 -3.09385,-2.01486 -2.37936,-3.04359 0.71449,-1.02874 0.15903,-1.80194 -1.39717,-1.80194 -1.47063,0 -2.06963,-0.94355 -1.23436,-2.0771 0.84058,-1.13359 0.36728,-2.07711 -1.06624,-2.07711 -1.4286,0 -2.54217,-1.34326 -2.54217,-3.0436 0,-1.70035 -0.82997,-3.11569 -2.21124,-3.11569 -1.38657,0 -1.91212,-0.97961 -1.07154,-2.07711 0.79854,-1.13359 0.31426,-2.07714 -1.23436,-2.07714 -1.51266,0 -2.06963,-0.94356 -1.22906,-2.07711 0.84058,-1.13359 -0.15903,-2.54561 -2.21654,-3.25329 -2.10106,-0.6749 -3.1779,-2.01815 -2.46342,-3.04359 0.71449,-1.02874 0.15903,-1.86744 -1.39717,-1.86744 -1.51265,0 -2.06963,-0.90751 -1.22905,-2.00505 0.79854,-1.13358 0.26126,-2.07711 -1.23436,-2.07711 -1.51266,0 -1.98558,-0.94355 -1.145,-2.0771 0.84019,-1.13359 -0.20825,-2.54561 -2.3006,-3.25329 -2.10106,-0.67491 -3.1779,-2.08696 -2.46342,-3.1157 0.71449,-1.02873 0.10602,-1.80193 -1.39717,-1.80193 -1.51265,0 -2.06963,-0.94356 -1.22905,-2.07711 0.84057,-1.13358 -0.15903,-2.58165 -2.21655,-3.25656 -2.10106,-0.67161 -3.21993,-2.01487 -2.46341,-3.0436 0.71449,-1.02873 0.15903,-1.86744 -1.39717,-1.86744 -1.51266,0 -2.07494,-0.94356 -1.23436,-2.07385 0.79855,-1.13684 0.31427,-2.0771 -1.145,-2.0771 -1.51266,0 -2.06963,-0.87149 -1.22906,-2.00505 0.8402,-1.13358 -0.20825,-2.64719 -2.2953,-3.32143 -2.05903,-0.6749 -3.21993,-2.01816 -2.46341,-3.0436 0.75652,-1.02873 0.15903,-1.80193 -1.31311,-1.80193 -1.51266,0 -2.19572,-0.842 -1.47593,-1.79864 0.71449,-0.95667 -0.8455,-3.57992 -3.36684,-5.88376 -2.52135,-2.30319 -3.91845,-4.65518 -3.11998,-5.39889 0.79855,-0.6749 0.10602,-1.24822 -1.55468,-1.24822 -1.63874,0 -2.3218,-0.94355 -1.48123,-2.07711 0.84057,-1.09753 -0.15903,-2.57839 -2.21654,-3.25329 -2.05903,-0.67161 -3.21993,-2.05091 -2.46342,-3.04359 0.71449,-1.02874 0.15903,-1.86744 -1.39717,-1.86744 -1.47063,0 -2.10636,-0.7732 -1.39717,-1.72984 0.67246,-0.95667 -0.8455,-3.57993 -3.36684,-5.88409 -2.52135,-2.30319 -4.0025,-4.75871 -3.19873,-5.46769 0.79855,-0.6749 0.15903,-1.24496 -1.48123,-1.24496 -1.63874,0 -2.3165,-0.87475 -1.47593,-2.0083 0.84058,-1.13359 -0.26126,-2.6472 -2.3006,-3.32144 -2.05903,-0.67161 -3.13587,-2.05091 -2.37936,-3.04359 0.71449,-1.02874 0.15903,-1.86744 -1.39717,-1.86744 -1.47062,0 -2.06963,-0.87149 -1.22905,-2.00834 0.84057,-1.13359 0.36727,-2.07711 -1.06625,-2.07711 -1.42859,0 -2.54747,-1.37601 -2.54747,-3.0436 0,-1.70364 -1.19763,-3.11569 -2.62623,-3.11569 -1.38657,0 -1.86478,-0.87149 -1.06624,-2.00504 0.79855,-1.13359 0.31427,-2.07711 -1.23436,-2.07711 -1.51265,0 -1.98557,-0.94356 -1.145,-2.07711 0.84058,-1.1008 -0.26126,-2.58166 -2.3006,-3.25329 -2.05903,-0.67161 -3.1779,-2.01816 -2.46341,-3.04689 0.71449,-1.02874 0.15903,-1.86744 -1.39717,-1.86744 -1.51266,0 -2.10636,-0.87476 -1.39717,-1.86744 0.71449,-0.99269 -0.31427,-2.3687 -2.37936,-3.0436 -2.10106,-0.67491 -3.13587,-2.11971 -2.2953,-3.25329 0.79855,-1.13358 0.31427,-2.07711 -1.22906,-2.07711 -1.51265,0 -2.15369,-0.87801 -1.39717,-1.87073 0.71449,-0.99269 -0.31427,-2.37199 -2.37935,-3.0436 -2.10106,-0.6749 -3.14118,-2.11971 -2.3006,-3.25328 0.79854,-1.13359 0.15902,-2.07711 -1.47593,-2.07711 -1.63875,0 -2.35853,-0.5373 -1.55999,-1.17616 0.79855,-0.63886 -0.67776,-2.99447 -3.27748,-5.19248 -2.64743,-2.19834 -4.16532,-4.85372 -3.36685,-5.95191 0.79855,-1.1008 0.52517,-2.00505 -0.65655,-2.00505 -1.17643,0 -7.40092,-6.93084 -13.78865,-15.43722 L 199.8126,-901.5896 Z m -57.56508,255.23826 108.99194,0 0,141.76797 -108.99194,0 0,-141.76797 z m 315.15741,338.36054 108.99033,0 0,141.767 -108.99033,0 0,-141.767 z m 202.88152,0 116.87034,0 0,141.767 -116.87034,0 0,-141.767 z"
       id="path14817-0"
       inkscape:connector-curvature="0"
       style="fill:#c84614;fill-opacity:1" />
  </g>
</svg>
