<?xml version="1.0" encoding="UTF-8" standalone="no"?>
<!-- Created with Inkscape (http://www.inkscape.org/) -->

<svg
   xmlns:dc="http://purl.org/dc/elements/1.1/"
   xmlns:cc="http://creativecommons.org/ns#"
   xmlns:rdf="http://www.w3.org/1999/02/22-rdf-syntax-ns#"
   xmlns:svg="http://www.w3.org/2000/svg"
   xmlns="http://www.w3.org/2000/svg"
   xmlns:sodipodi="http://sodipodi.sourceforge.net/DTD/sodipodi-0.dtd"
   xmlns:inkscape="http://www.inkscape.org/namespaces/inkscape"
   width="32"
   height="32"
   id="svg3348"
   version="1.1"
   inkscape:version="0.91 r13725"
   viewBox="0 0 32 32"
   sodipodi:docname="museum_.svg">
  <defs
     id="defs3350" />
  <sodipodi:namedview
     id="base"
     pagecolor="#ffffff"
     bordercolor="#666666"
     borderopacity="1.0"
     inkscape:pageopacity="0.0"
     inkscape:pageshadow="2"
     inkscape:zoom="20"
     inkscape:cx="8.5263671"
     inkscape:cy="16"
     inkscape:current-layer="layer1"
     showgrid="true"
     inkscape:grid-bbox="true"
     inkscape:document-units="px"
     inkscape:window-width="1920"
     inkscape:window-height="1018"
     inkscape:window-x="-8"
     inkscape:window-y="-8"
     inkscape:window-maximized="1" />
  <metadata
     id="metadata3353">
    <rdf:RDF>
      <cc:Work
         rdf:about="">
        <dc:format>image/svg+xml</dc:format>
        <dc:type
           rdf:resource="http://purl.org/dc/dcmitype/StillImage" />
        <dc:title />
      </cc:Work>
    </rdf:RDF>
  </metadata>
  <g
     id="layer1"
     inkscape:label="Layer 1"
     inkscape:groupmode="layer">
    <path
       style="opacity:0.97000002;fill:#c84614;fill-opacity:1"
       id="path14751"
       inkscape:connector-curvature="0"
       enable-background="new    "
       d="m 3.268,26.9045 c 0,-0.035 0.389,-0.845 0.865,-1.798 l 0.865,-1.732 0.971,-0.037 0.97,-0.039 0,-4.763 0,-4.764 -0.933,-0.038 -0.935,-0.038 0,-0.895 0,-0.895 11.328,0 11.33,0 0,0.901 0,0.902 -0.966,0 -0.967,0 0,4.827 0,4.828 0.966,0 0.965,0 0.901,1.804 0.904,1.801 -13.132,0 C 9.178,26.9675 3.268,26.9395 3.268,26.9045 Z m 11.304,-7.211 c 0.047,-4.27 -0.017,-4.731 -0.751,-5.395 -0.278,-0.251 -0.652,-0.493 -0.831,-0.538 -0.817,-0.205 -1.861,0.359 -2.208,1.192 -0.136,0.325 -0.176,1.334 -0.176,4.419 l 0,3.998 1.963,-0.034 1.963,-0.035 0.04,-3.607 0,0 z m 7.554,-0.45 c 0,-3.859 -0.012,-4.077 -0.264,-4.506 -0.757,-1.287 -2.398,-1.326 -3.332,-0.079 -0.253,0.339 -0.269,0.545 -0.303,4.533 l -0.038,4.178 1.97,-0.034 1.969,-0.037 0,-4.055 -0.002,0 z" />
    <path
       style="opacity:0.97000002;fill:#c84614;fill-opacity:1"
       id="path14753"
       inkscape:connector-curvature="0"
       enable-background="new    "
       d="m 5.071,8.9755 0,-0.87 5.664,-1.887 5.664,-1.887 5.665,1.887 5.665,1.887 0,0.87 0,0.87 -11.33,0 -11.328,0 0,-0.87 z" />
  </g>
</svg>
