<?xml version="1.0" encoding="UTF-8" standalone="no"?>
<!-- Created with Inkscape (http://www.inkscape.org/) -->

<svg
   xmlns:dc="http://purl.org/dc/elements/1.1/"
   xmlns:cc="http://creativecommons.org/ns#"
   xmlns:rdf="http://www.w3.org/1999/02/22-rdf-syntax-ns#"
   xmlns:svg="http://www.w3.org/2000/svg"
   xmlns="http://www.w3.org/2000/svg"
   xmlns:sodipodi="http://sodipodi.sourceforge.net/DTD/sodipodi-0.dtd"
   xmlns:inkscape="http://www.inkscape.org/namespaces/inkscape"
   width="1000"
   height="1000"
   id="svg9302"
   version="1.1"
   inkscape:version="0.91 r13725"
   viewBox="0 0 1000 1000"
   sodipodi:docname="destination_ruin.svg">
  <defs
     id="defs9304" />
  <sodipodi:namedview
     id="base"
     pagecolor="#ffffff"
     bordercolor="#666666"
     borderopacity="1.0"
     inkscape:pageopacity="0.0"
     inkscape:pageshadow="2"
     inkscape:zoom="0.5"
     inkscape:cx="9.7405635"
     inkscape:cy="576"
     inkscape:current-layer="layer1"
     showgrid="true"
     inkscape:grid-bbox="true"
     inkscape:document-units="px"
     inkscape:window-width="1920"
     inkscape:window-height="1018"
     inkscape:window-x="-8"
     inkscape:window-y="-8"
     inkscape:window-maximized="1" />
  <metadata
     id="metadata9307">
    <rdf:RDF>
      <cc:Work
         rdf:about="">
        <dc:format>image/svg+xml</dc:format>
        <dc:type
           rdf:resource="http://purl.org/dc/dcmitype/StillImage" />
        <dc:title></dc:title>
      </cc:Work>
    </rdf:RDF>
  </metadata>
  <g
     id="layer1"
     inkscape:label="Layer 1"
     inkscape:groupmode="layer"
     transform="translate(0,968)">
    <path
       inkscape:connector-curvature="0"
       style="fill:#c84614;fill-opacity:1;stroke:#c84614;stroke-width:8.26099014;stroke-miterlimit:4;stroke-dasharray:none;stroke-opacity:1"
       d="m 75.353752,-879.60061 c -5.021578,0 -9.78708,0.54714 -14.224745,1.67917 -8.853596,2.22453 -16.456308,6.70051 -22.530406,13.11023 -3.064527,3.23946 -5.721111,6.91535 -7.95601,11.13076 -3.3168,6.28789 -5.688587,12.3805 -7.108842,18.37238 -4.286262,17.98448 0,34.62767 13.096429,50.23598 5.392885,6.46343 10.187418,10.68279 16.755581,13.64458 0.017,0.013 0,-0.0131 0,0 0.720335,0.39051 1.766683,0.54608 2.5235,0.85934 6.20753,2.38011 13.67324,3.99271 24.642896,5.33545 l 16.193207,1.98995 0,268.10487 0,268.10748 -11.265202,0 -11.265203,0 0,38.1136 0,38.1162 394.283233,0 394.28318,0 0,-38.1162 0,-38.1136 -60.55118,0 -60.55104,0 0,-9.91386 c -0.0142,-5.44815 -2.59569,-14.53142 -5.77498,-20.19837 -3.20813,-5.66694 -62.02182,-86.78027 -130.67673,-180.28972 l -124.82965,-170.0708 -4.6467,-58.61982 c -2.55959,-32.27504 -4.25013,-59.0259 -3.8031,-59.46347 0.43235,-0.42826 33.09262,2.45878 72.59118,6.40585 39.25358,3.9338 60.72433,5.75209 74.35056,4.79966 13.6229,-0.9366 19.39792,-4.67521 27.31784,-11.89185 5.40724,-4.92546 10.26298,-12.16186 13.72731,-19.97176 0.0142,-0.0131 -0.0141,0 0,0 1.73097,-3.90377 3.13632,-7.92408 4.08432,-11.8933 0.0142,-0.0261 -0.014,0 0,0 0.973,-3.98883 1.47831,-7.8755 1.47831,-11.50941 0,-5.94856 -1.08166,-11.90099 -3.10022,-17.6846 -0.86472,-2.53745 -2.45132,-4.74597 -3.66261,-7.16676 -1.51402,-3.04438 -2.70359,-6.2368 -4.6467,-8.9956 -3.5326,-4.99627 -7.68186,-9.44614 -12.32146,-13.03684 -4.62143,-3.59055 -9.71147,-6.2918 -14.99619,-7.84936 -5.73907,-1.67811 -39.5672,-5.86992 -75.1942,-9.30075 -35.62683,-3.43489 -153.79474,-15.14319 -262.62228,-25.99369 C 180.12612,-870.52926 83.94809,-879.4213 75.267592,-879.4213 Z m 128.492328,127.23196 21.54615,1.75678 c 11.82401,0.97575 22.58448,2.9657 23.94018,4.42111 1.37004,1.48409 2.09076,116.40515 1.69372,260.17818 l -0.72072,257.4327 -23.23347,0.89744 -23.23688,0.9366 0,-262.84672 0,-262.76801 z m 156.30718,16.08392 c 2.30732,0 4.22486,0.58523 4.22486,1.21069 0,3.86435 36.66535,487.24435 37.66748,496.57265 l 1.26137,11.43615 -23.72719,0 -23.65515,0 0,-254.61495 c 0,-112.14242 0,-175.77428 0.72033,-211.38963 0.57635,-35.61418 1.65802,-43.22126 3.53299,-43.22126 z m 137.50447,339.53487 c 0.50531,-0.54609 27.46919,34.91983 56.11709,73.33331 28.67688,38.43716 59.02629,79.78643 66.39451,90.86745 1.73098,2.65386 1.94677,4.00055 -4.93134,4.72637 -6.9576,0.74186 -21.16794,0.78102 -48.79196,0.78102 l -57.45088,0 -6.26908,-84.16162 c -3.4604,-46.30214 -5.75689,-84.78512 -5.06834,-85.53055 z m -462.790276,267.26906 0,36.590142 0,36.591269 475.958926,0 475.9554,0 0,-36.591269 0,-36.590142 -475.9554,0 -475.958926,0 z"
       id="path5763" />
  </g>
</svg>
