<?xml version="1.0" encoding="UTF-8" standalone="no"?>
<!-- Created with Inkscape (http://www.inkscape.org/) -->

<svg
   xmlns:dc="http://purl.org/dc/elements/1.1/"
   xmlns:cc="http://creativecommons.org/ns#"
   xmlns:rdf="http://www.w3.org/1999/02/22-rdf-syntax-ns#"
   xmlns:svg="http://www.w3.org/2000/svg"
   xmlns="http://www.w3.org/2000/svg"
   xmlns:sodipodi="http://sodipodi.sourceforge.net/DTD/sodipodi-0.dtd"
   xmlns:inkscape="http://www.inkscape.org/namespaces/inkscape"
   width="32"
   height="32"
   id="svg3367"
   version="1.1"
   inkscape:version="0.91 r13725"
   viewBox="0 0 32 32"
   sodipodi:docname="university_.svg">
  <defs
     id="defs3369" />
  <sodipodi:namedview
     id="base"
     pagecolor="#ffffff"
     bordercolor="#666666"
     borderopacity="1.0"
     inkscape:pageopacity="0.0"
     inkscape:pageshadow="2"
     inkscape:zoom="20"
     inkscape:cx="13.643268"
     inkscape:cy="16"
     inkscape:current-layer="layer1"
     showgrid="true"
     inkscape:grid-bbox="true"
     inkscape:document-units="px"
     inkscape:window-width="1920"
     inkscape:window-height="1018"
     inkscape:window-x="-8"
     inkscape:window-y="-8"
     inkscape:window-maximized="1" />
  <metadata
     id="metadata3372">
    <rdf:RDF>
      <cc:Work
         rdf:about="">
        <dc:format>image/svg+xml</dc:format>
        <dc:type
           rdf:resource="http://purl.org/dc/dcmitype/StillImage" />
        <dc:title />
      </cc:Work>
    </rdf:RDF>
  </metadata>
  <g
     id="layer1"
     inkscape:label="Layer 1"
     inkscape:groupmode="layer">
    <path
       style="fill:#c84614;fill-opacity:1"
       id="path11700"
       inkscape:connector-curvature="0"
       d="m 13.066737,19.194083 c -1.488,-0.926 -2.707,-1.713 -2.707,-1.748 0,-0.057 1.937,-1.521 4.425,-3.345 0.619,-0.454 0.634,-0.46 0.968,-0.415 0.506,0.07 0.999,-0.074 1.327,-0.386 0.231,-0.221 0.274,-0.307 0.274,-0.548 0,-0.56 -0.563,-0.945 -1.384,-0.947 -0.764,-10e-4 -1.354,0.417 -1.361,0.965 -0.002,0.189 -0.084,0.266 -0.784,0.738 -0.43,0.29 -1.649,1.147 -2.71,1.906 l -1.9290005,1.378 -3.034,-1.863 c -1.668,-1.024 -3.05,-1.883 -3.069,-1.908 -0.02,-0.025 -0.13,-0.107 -0.246,-0.183 -0.116,-0.076 -0.219,-0.178 -0.229,-0.226 -0.018,-0.091 -0.01,-0.095 0.229,-0.122 0.123,-0.014 0.779,-0.415 0.878,-0.537 0.02,-0.023 0.166,-0.109 0.325,-0.19 0.16,-0.081 2.896,-1.734 6.0810005,-3.6739998 3.185,-1.94 5.857,-3.558 5.938,-3.595 0.125,-0.057 1.024,0.468 6.008,3.514 3.227,1.9699998 5.963,3.6329998 6.084,3.6949998 0.121,0.062 0.43,0.254 0.681,0.427 0.252,0.172 0.478,0.294 0.499,0.271 0.021,-0.023 0.043,-0.006 0.043,0.038 0,0.046 0.053,0.062 0.123,0.037 0.336,-0.118 -0.295,0.291 -2.898,1.876 -1.549,0.941 -4.578,2.797 -6.734,4.124 -2.157,1.327 -3.96,2.41 -4.006,2.406 -0.047,0 -1.303,-0.762 -2.792,-1.688 z" />
    <path
       style="fill:#c84614;fill-opacity:1"
       id="path11702"
       inkscape:connector-curvature="0"
       d="m 15.019737,27.073083 c -1.201,-0.1 -2.67,-0.395 -3.603,-0.721 l -0.279,-0.102 -0.086,-0.771 c -0.047,-0.42 -0.228,-1.648 -0.402,-2.73 -0.31,-1.938 -0.567,-3.92 -0.522,-4.033 0.021,-0.053 5.363,3.166 5.605,3.381 0.13,0.109 -0.103,0.243 5.477,-3.156 2.563,-1.563 4.676,-2.833 4.688,-2.817 0.017,0.014 0.027,1.354 0.035,2.976 0.012,3.254 0.006,3.281 -0.445,4.146 -0.281,0.535 -1.258,1.531 -1.91,1.951 -1.471,0.941 -3.301,1.563 -5.309,1.805 -0.917,0.106 -2.412,0.142 -3.249,0.071 l 0,0 z" />
    <path
       style="fill:#c84614;fill-opacity:1"
       id="path11704"
       inkscape:connector-curvature="0"
       d="m 8.5437365,26.230083 c -0.159,-0.078 -0.363,-0.221 -0.453,-0.313 l -0.164,-0.18 0.332,-1.809 c 0.421,-2.297 1.054,-5.5 1.081,-5.473 0.053,0.053 0.245,1.807 0.4840005,4.42 l 0.263,2.865 -0.17,0.186 c -0.201,0.217 -0.6610005,0.443 -0.9080005,0.445 -0.097,0.001 -0.306,-0.061 -0.465,-0.141 l 0,0 z" />
    <path
       style="fill:#c84614;fill-opacity:1"
       id="path11706"
       inkscape:connector-curvature="0"
       d="m 7.2587365,23.537083 c -0.128,-0.187 -0.316,-0.534 -0.419,-0.772 l -0.186,-0.434 -0.021,-2.9 -0.021,-2.902 1.005,0.611 c 0.553,0.336 1.032,0.633 1.064,0.66 0.032,0.029 -0.056,0.553 -0.195,1.166 -0.139,0.613 -0.42,1.969 -0.624,3.014 l -0.37,1.896 -0.233,-0.339 0,0 z" />
    <path
       style="fill:#c84614;stroke:#ffffff;stroke-width:0.2465;fill-opacity:1"
       id="path11708"
       inkscape:connector-curvature="0"
       d="m 3.9927365,11.528083 -2.047,1.379 c 0,0 -0.263,-0.119 -0.189,-0.157" />
  </g>
</svg>
