<?xml version="1.0" encoding="UTF-8" standalone="no"?>
<!-- Created with Inkscape (http://www.inkscape.org/) -->

<svg
   xmlns:dc="http://purl.org/dc/elements/1.1/"
   xmlns:cc="http://creativecommons.org/ns#"
   xmlns:rdf="http://www.w3.org/1999/02/22-rdf-syntax-ns#"
   xmlns:svg="http://www.w3.org/2000/svg"
   xmlns="http://www.w3.org/2000/svg"
   xmlns:sodipodi="http://sodipodi.sourceforge.net/DTD/sodipodi-0.dtd"
   xmlns:inkscape="http://www.inkscape.org/namespaces/inkscape"
   width="1000"
   height="1000"
   id="svg10524"
   version="1.1"
   inkscape:version="0.91 r13725"
   viewBox="0 0 1000 1000"
   sodipodi:docname="education_kindergarten.svg">
  <defs
     id="defs10526" />
  <sodipodi:namedview
     id="base"
     pagecolor="#ffffff"
     bordercolor="#666666"
     borderopacity="1.0"
     inkscape:pageopacity="0.0"
     inkscape:pageshadow="2"
     inkscape:zoom="0.5"
     inkscape:cx="9.7405635"
     inkscape:cy="336"
     inkscape:current-layer="layer1"
     showgrid="true"
     inkscape:grid-bbox="true"
     inkscape:document-units="px"
     inkscape:window-width="1920"
     inkscape:window-height="1018"
     inkscape:window-x="-8"
     inkscape:window-y="-8"
     inkscape:window-maximized="1" />
  <metadata
     id="metadata10529">
    <rdf:RDF>
      <cc:Work
         rdf:about="">
        <dc:format>image/svg+xml</dc:format>
        <dc:type
           rdf:resource="http://purl.org/dc/dcmitype/StillImage" />
        <dc:title></dc:title>
      </cc:Work>
    </rdf:RDF>
  </metadata>
  <g
     id="layer1"
     inkscape:label="Layer 1"
     inkscape:groupmode="layer"
     transform="translate(0,968)">
    <path
       inkscape:connector-curvature="0"
       d="m 76.8283,-899.83936 0,115.00849 0,0 0,21.99666 c 0.304122,1.06082 0.753849,2.08612 0.858647,3.17877 2.650326,27.80376 12.129257,51.57231 27.905073,71.39129 31.07192,39.03385 80.48648,50.06864 121.88516,27.46681 44.05948,-24.05838 68.23114,-80.40357 57.93107,-138.49038 -9.1108,-51.38151 -36.08657,-82.42611 -76.43021,-96.30712 -5.76174,-1.97475 -11.7743,-2.86661 -17.66688,-4.25943 -5.91281,0 -11.82263,0.0143 -17.73209,0 l -96.750767,0 z m 650.34043,147.99441 c -26.70467,-0.18924 -47.27641,24.3033 -47.27641,56.30187 0,31.21687 21.47399,57.5778 46.91199,57.5934 26.05592,0 46.6645,-25.31206 46.67766,-57.38225 0.0119,-32.79225 -19.26278,-56.31363 -46.31324,-56.51302 z m -0.23586,124.17554 c -18.53431,0.0143 -37.07839,-0.16075 -55.60222,0.0986 -15.26873,0.16074 -25.52991,9.4811 -27.81412,26.78672 -1.23045,9.31488 -0.88909,19.26638 0.23586,28.6602 1.71735,14.54671 9.53845,22.62799 21.08828,24.91619 3.41689,0.67842 6.96891,0.47128 10.45964,0.47128 30.08379,-0.0987 60.16858,-0.12787 90.25916,-0.18997 7.09839,0 14.22787,0.47127 21.29652,-0.0987 11.83852,-0.95242 19.90475,-9.78111 22.84447,-23.99499 1.99789,-9.69804 2.0283,-19.50337 0.49341,-29.24152 -1.92341,-12.12224 -7.12,-21.24337 -16.99043,-24.93175 -4.04813,-1.51941 -8.42525,-2.2647 -12.65797,-2.32498 -17.85885,-0.25208 -35.74006,-0.0986 -53.59894,-0.0986 l 0,0 z m -552.48434,12.34481 c -2.62317,0 -5.26347,0.18996 -7.94894,0.5637 -25.06136,3.37898 -45.65439,16.25832 -59.79101,43.05368 -5.34491,10.12994 -10.11108,20.6325 -11.045115,32.83943 -1.622613,21.21057 -3.072869,42.45555 -3.993728,63.72476 -1.80856,41.73095 -3.272319,83.48638 -4.748596,125.24155 -0.632138,17.79361 -1.220365,35.60252 -1.315015,53.41462 -0.135304,22.98495 -3.399778,45.94704 -0.611875,68.9537 1.470521,12.14259 2.657092,24.41546 5.021742,36.30831 4.605939,23.15287 10.934587,45.58843 21.335397,65.93685 4.16919,8.15005 9.94442,13.82525 17.12057,17.49195 9.20477,4.70122 18.9021,6.27782 28.71166,6.74541 20.76476,0.99079 41.25536,-2.49048 61.67765,-6.45398 21.8097,-4.23082 43.77418,-6.3884 65.77553,-5.9724 15.37623,0.28496 30.85186,1.89499 46.05335,4.77732 29.09968,5.53035 56.38646,17.150547 80.13788,39.9075 10.5959,10.151267 21.75831,19.559446 33.27807,28.014907 12.28579,9.025017 25.90379,13.196907 40.22497,9.230152 23.29813,-6.464175 36.84786,-25.327989 43.21744,-53.301175 3.17763,-13.955558 -0.014,-25.304754 -7.92293,-35.001144 -3.99069,-4.88915 -8.26565,-9.5789 -12.90508,-13.47522 -21.75928,-18.24815 -45.82714,-30.69013 -70.77125,-40.02086 -29.37523,-10.98898 -59.22916,-20.05857 -88.78931,-30.30442 -13.41759,-4.65088 -26.62857,-10.14107 -39.93901,-15.24964 -3.313,-1.27063 -5.08867,-3.58977 -4.91724,-8.32653 0.13344,-3.42135 -0.59862,-6.92347 -1.07839,-10.36045 -3.24832,-23.25805 -9.93754,-45.17704 -16.82127,-67.03451 -9.16455,-29.10806 -18.62352,-58.09253 -27.17656,-87.47896 -3.51054,-12.06935 -4.99028,-25.04226 -7.50642,-38.19741 2.79239,-0.82493 4.19523,-1.43357 5.63294,-1.66264 27.56467,-4.01819 55.12967,-8.0035 82.70108,-11.95878 23.70782,-3.3914 47.44469,-6.49315 71.12245,-10.19873 16.28319,-2.55441 31.22202,-9.48969 43.6856,-23.34942 10.17904,-11.32336 18.7628,-23.82424 20.99702,-41.36079 2.29176,-17.97708 -7.78871,-35.98247 -22.19405,-39.11568 -10.50157,-2.28662 -20.52206,1.1435 -30.42897,4.84169 -11.5434,4.30831 -22.82854,9.99487 -34.55317,13.21565 -17.03233,4.67506 -34.42569,4.21328 -51.67304,1.12779 -20.41255,-3.64987 -40.25407,-9.91318 -58.42529,-22.52745 -16.9791,-11.78801 -33.69199,-24.18286 -50.81492,-35.63105 -16.11758,-10.77366 -32.96907,-18.56793 -51.32217,-18.41154 z m 634.59878,95.04776 c -55.07182,-0.12787 -110.13454,-0.12787 -165.20636,0 -4.64278,0 -9.40456,0.7935 -13.93311,2.1467 -21.8367,6.52599 -27.79485,29.88555 -22.5845,54.35099 1.91317,8.97212 6.74581,15.33312 13.3608,19.65403 6.85667,4.48911 14.31069,5.57488 21.84282,5.6166 26.45581,0.16075 52.91473,0.0987 79.37022,0.0987 0,-0.16075 3.1e-4,-0.34707 -0.0139,-0.52864 20.15022,0 40.28551,0 60.42894,0 11.53633,0 23.08885,0.44753 34.60487,-0.12787 16.44482,-0.81872 27.45851,-11.77945 30.14295,-29.66034 0.79754,-5.32107 0.73362,-10.96888 0.40219,-16.41188 -0.78794,-12.87263 -5.76205,-22.62922 -15.07808,-28.77234 -7.31002,-4.81719 -15.25588,-6.33361 -23.33865,-6.35816 z m -156.84128,107.69929 c -11.54309,0 -23.08856,0.28497 -34.61809,1.06349 -8.41206,0.56992 -16.48572,3.48053 -23.02665,10.52296 -10.42418,11.22143 -11.15028,25.99618 -8.66424,41.29489 2.41372,14.82636 10.69254,23.76695 22.15512,26.39943 10.47454,2.39513 21.29385,3.01657 31.97689,3.1627 29.0227,0.39675 58.04973,0.12787 87.07205,0.12787 l 0,-0.18998 c 33.45688,0 66.90428,0.0986 100.35473,-0.0987 5.0694,0 10.20269,-0.66893 15.19503,-1.79343 15.98439,-3.60364 25.27334,-16.69285 25.79733,-35.79172 0.64207,-23.16017 -6.78772,-36.83194 -23.82008,-41.53728 -8.02936,-2.21648 -16.46982,-2.95884 -24.73075,-3.00012 -55.89161,-0.28497 -111.79334,-0.25208 -167.69134,-0.16075 z m 75.46742,108.071 c -40.22734,0.0986 -80.46013,0.16074 -120.68812,0.28495 -9.78961,0 -19.53193,1.32835 -28.67279,6.50433 -11.84905,6.71264 -17.3146,18.49208 -17.23755,34.19372 0.0682,15.99846 5.26245,28.87267 17.91397,34.4861 7.32048,3.25804 15.33566,5.67235 23.06588,5.77588 40.28648,0.56371 80.57672,0.25208 120.87034,0.25208 0,0 0.0125,0 0.0125,0 17.9968,0 36.01218,0.0986 54.00225,0 26.71782,-0.18998 53.4397,-0.36533 80.15112,-1.06349 5.37498,-0.12786 10.94165,-1.80291 16.01446,-4.13166 12.7827,-5.85868 18.70909,-18.13888 19.16273,-34.69412 0.36215,-13.17261 -3.46292,-23.87041 -12.86621,-30.62858 -9.5577,-6.8805 -20.12887,-10.8915 -31.04047,-10.92592 -40.23308,-0.0986 -80.46078,-0.0986 -120.68811,-0.0986 z m 139.53884,107.1989 c -78.8635,0.18997 -157.72528,0.33611 -236.58881,0.51292 -17.60363,0.0986 -35.22149,-0.0987 -52.81836,0.33611 -11.70092,0.28496 -23.31703,1.8727 -34.2016,7.84302 -7.764,4.25065 -14.0399,10.46654 -16.80821,20.91498 -5.36181,20.22351 2.60303,38.89457 19.83919,46.55382 11.2946,5.01844 23.07906,6.09724 34.9044,6.10009 75.91735,0 151.83201,-0.0986 227.74267,-0.18998 23.77846,-0.0986 47.56573,-0.0986 71.33034,-0.82492 7.8276,-0.25208 15.80591,-1.67505 23.37826,-4.16444 11.01198,-3.60365 19.62753,-11.46953 23.00028,-25.98058 0.36587,-1.53513 0.84843,-3.02277 1.27451,-4.53339 0,-3.66813 0,-7.32639 0,-11.00614 -3.2217,-16.41477 -13.05416,-23.99372 -25.0171,-28.4825 -11.73475,-4.39551 -23.70679,-7.10117 -36.03619,-7.0684 z"
       id="path3-97"
       style="fill:#c84614;fill-opacity:1" />
  </g>
</svg>
