<?xml version="1.0" encoding="UTF-8" standalone="no"?>
<!-- Created with Inkscape (http://www.inkscape.org/) -->

<svg
   xmlns:dc="http://purl.org/dc/elements/1.1/"
   xmlns:cc="http://creativecommons.org/ns#"
   xmlns:rdf="http://www.w3.org/1999/02/22-rdf-syntax-ns#"
   xmlns:svg="http://www.w3.org/2000/svg"
   xmlns="http://www.w3.org/2000/svg"
   version="1.1"
   width="1000"
   height="1000"
   viewBox="0 0 1000 1000"
   id="svg5146">
  <defs
     id="defs5498" />
  <metadata
     id="metadata5594">
    <rdf:RDF>
      <cc:Work
         rdf:about="">
        <dc:format>image/svg+xml</dc:format>
        <dc:type
           rdf:resource="http://purl.org/dc/dcmitype/StillImage" />
        <dc:title></dc:title>
      </cc:Work>
    </rdf:RDF>
  </metadata>
  <g
     id="layer1">
    <path
       d="m 438.875,235.25 -0.0937,0.0312 L 235,278.84375 l -0.1875,0.0312 -0.125,0.15625 c -3.58111,4.94916 -7.52231,9.9544 -8.9375,14.53125 -0.70759,2.28842 -0.77282,4.51876 0.25,6.5 1.00295,1.94274 3.05758,3.58042 6.3125,4.90625 0.26084,0.23858 0.476,0.53837 0.71875,0.8125 l 0.0312,0.0312 0.0312,0.0312 c 7.9139,6.10394 11.88747,18.42598 13.53125,31.9375 1.62845,13.38555 1.0193,27.87399 -0.0937,38.625 -13.34354,2.92629 -20.02632,8.37552 -23.3125,13.1875 -1.6589,2.42914 -2.46111,4.69585 -2.84375,6.34375 -0.16419,0.70711 -0.23466,1.23504 -0.28125,1.6875 l -0.0625,-0.0625 0,0.875 c -0.001,0.0639 -2.5e-4,0.12157 0,0.15625 1.2e-4,0.0173 -2.2e-4,0.0526 0,0.0625 0,5e-5 0.25035,0.005 0.5,0 l -0.34375,0.375 15.65625,13.0625 c -7.66349,11.0642 -14.13036,29.60271 -12.65625,60.9375 2.09647,45.02 15.13358,63.02073 24.3125,70.25 l -12.8125,4.78125 -0.125,0.0625 -0.0937,0.0937 c -1.84134,2.54428 -2.67979,4.98643 -2.625,7.28125 0.0548,2.29482 0.99236,4.41264 2.5625,6.34375 3.12498,3.84341 8.74956,7.02562 15.375,9.65625 0.17656,0.22248 0.37234,0.51139 0.75,0.78125 7.91422,6.11698 11.8626,18.45081 13.5,31.96875 1.62487,13.41452 0.98655,27.91346 -0.15625,38.65625 -14.34159,5.06378 -23.91831,9.28162 -30.125,12.78125 -6.26028,3.52985 -9.17139,6.33455 -10.28125,8.625 -0.55493,1.14523 -0.63817,2.15935 -0.40625,3.03125 0.23192,0.8719 0.73963,1.5747 1.3125,2.09375 1.14573,1.0381 2.53125,1.46875 2.53125,1.46875 l 0.0312,0 312.3125,93.8125 0.15625,0.0625 0.1875,-0.0625 206.78125,-83.375 0.0937,-0.0312 c 0.13255,-0.0233 1.95765,-0.3579 4.75,-1.875 2.89475,-1.57274 6.75678,-4.3925 10.71875,-9.40625 7.92395,-10.0275 16.20896,-28.78775 17.84375,-63.71875 1.64595,-35.63685 -6.93153,-54.74127 -15.84375,-65.0625 l 12.03125,-3.59375 0.0312,0 c 0,0 1.38535,-0.43522 2.53125,-1.46875 0.57295,-0.51677 1.08049,-1.19281 1.3125,-2.0625 0.23201,-0.86969 0.14889,-1.9197 -0.40625,-3.0625 -1.11029,-2.2856 -4.02096,-5.0652 -10.28125,-8.59375 -6.2067,-3.49834 -15.78356,-7.71114 -30.125,-12.78125 -1.15466,-10.75489 -1.7874,-25.27603 -0.15625,-38.6875 1.6437,-13.51468 5.59876,-25.82048 13.5,-31.9375 l 0.0312,0 0,-0.0312 c 0.31967,-0.26612 0.5445,-0.5375 0.75,-0.8125 6.6081,-2.62712 12.21847,-5.75837 15.34375,-9.59375 1.57357,-1.9311 2.5103,-4.0483 2.5625,-6.34375 0.0522,-2.29545 -0.7703,-4.73702 -2.625,-7.28125 l -0.0937,-0.125 -0.125,-0.0625 -25.34375,-9.4375 c 4.01702,-4.58332 6.91783,-10.38362 8.96875,-19.5 2.12985,-9.46721 3.41144,-22.49829 4.3125,-41.5 1.61054,-35.00731 -10.22103,-54.12777 -22.5,-64.4375 -12.27897,-10.30973 -25,-11.84375 -25,-11.84375 L 438.96875,235.25 l -0.0937,0 z m 287.1875,57.625 c 2.6299,0 6.52251,0.86043 9.84375,5.09375 l 0.0312,0 c 2.32065,2.91273 4.11,7.15786 5.375,12.53125 l -221.0625,83.96875 -0.46875,-18.9375 67.625,-27.34375 136.15625,-55.0625 c 0,0 1.07045,-0.25 2.5,-0.25 z m -473.53125,18.375 25.53125,6.5 0.0312,0 0.0312,0.0312 0.0625,0 0.0312,0 177.3439,45.2188 52.125,13.28125 0.5,20.21875 L 257.75,329.78125 c -1.07563,-6.5077 -2.78135,-12.77594 -5.21875,-18.53125 z m 490.625,10.25 c 0.36972,4.36864 0.56794,9.18123 0.46875,14.4375 l -0.0937,0 0,0.5 0,3.875 -222.375,84.46875 -0.5,-18.90625 222.5,-84.375 z m -484.3125,16 249.65625,68.78125 0.46875,21 -249.3125,-77.09375 c -0.0233,-4.17215 -0.44684,-8.45655 -0.8125,-12.6875 z M 742.5,352.375 c -4.01144,36.1317 -18.5603,37.77553 -19,37.8125 -10e-4,10e-5 -0.0303,-8e-5 -0.0312,0 -0.43376,1.8e-4 -0.91352,0.0425 -1.40625,0.3125 l 0,-0.0312 -10.0625,3.5 -190.0313,66.0937 -0.625,-23.8125 z m -482.90625,8.3125 249.65625,76.96875 0.53125,22.5 -223.375,-68.875 -28.5,-8.8125 c 0.30408,-2.604 0.63716,-5.90233 0.9375,-9.5625 l -0.21875,0 0.0312,-0.0312 0.1875,0.0312 0.125,0 c 0.29896,-3.67799 0.49366,-7.85367 0.625,-12.21875 z M 261,426.25 c 0.7628,0.088 1.21875,0.21875 1.21875,0.21875 l 0,-0.0312 226.4375,73.90625 -0.3125,26.3125 L 242.9375,450.75 c 1.18558,-8.82714 3.43782,-15.46938 6.65625,-19.5625 4.04421,-5.10716 9.11784,-5.20154 11.40625,-4.9375 z m 471.96875,18.28125 c -1.97002,4.62113 -3.44578,9.60807 -4.5,14.78125 l -227.9375,69.5 0,-19.15625 z M 242.2188,461 l 0.0937,0.0312 245.96875,75.875 -0.25,17.8125 -245.71875,-76 c -0.21729,-2.66115 -0.24696,-5.51055 -0.375,-8.53125 l 0.0625,0 0,-0.5 c 0,-3.11762 0.10699,-5.88326 0.21875,-8.6875 z m 484.40625,10.3125 c -0.4548,5.29969 -0.7984,10.60995 -0.8125,15.6875 l -225.34375,69.90625 0,-16.75 226.1562,-68.84375 z m -483.125,18.25 244.40625,75.34375 -0.40625,32.8125 -205.0625,-67.40625 -18.6875,-6.5 -0.1875,-0.0937 c -0.0655,-0.0364 -0.12302,-0.003 -0.1875,-0.0312 -0.0541,-0.0241 -0.10282,-0.012 -0.15625,-0.0312 -0.43987,-0.15839 -0.86893,-0.28125 -1.28125,-0.28125 0.0681,0 -0.24238,-0.0215 -0.65625,-0.125 -0.41387,-0.10348 -0.9857,-0.26837 -1.6875,-0.59375 -1.40361,-0.65076 -3.31408,-1.87809 -5.34375,-4.125 -3.98451,-4.41099 -8.45774,-12.93648 -10.75,-28.96875 z m 482.53125,8.875 c 0.0434,2.70777 0.30916,5.34056 0.5,7.6875 l 0.0312,0.46875 0.0312,0 c 0.28887,3.45343 0.61784,6.61693 0.90625,9.09375 l -22.3125,6.84375 0,0.0312 -0.0312,0 -204.6875,72.5 0,-26.71875 225.5625,-69.90625 z M 743.5,559.34375 c 2.6259,0 6.47214,0.84132 9.84375,5.0625 1.70299,2.18983 3.187,5.1668 4.375,8.75 L 537.5625,655 537.25,642 741,559.59375 c 0,0 1.07045,-0.25 2.5,-0.25 z M 270.03125,577.75 l 25.5,6.5 138,35.15625 28.4375,6.28125 0.0625,0.0312 9.3125,3.34375 0.0312,0 0.0312,0 53.71875,13.6875 0.4375,15.03125 L 274.5,592.25 c -1.09763,-5.05726 -2.5517,-9.94502 -4.46875,-14.5 z m 490,6.34375 c 0.70114,5.47665 1.05738,11.758 0.90625,18.84375 l 0,1.6875 -222.65625,79.40625 -0.46875,-17.71875 z M 276.1875,603.125 525.75,668.0625 526.28125,685.875 277.1875,620.84375 c -0.013,-5.70199 -0.31697,-11.70595 -1,-17.71875 z m 484.09375,12.5 c -3.52739,39.29707 -18.94502,40.99495 -19.40625,41.03125 -10e-4,9e-5 -0.0303,-7e-5 -0.0312,0 -0.37953,-5.1e-4 -0.86899,0.0344 -1.34375,0.3125 l 0,-0.0312 -0.125,0.0625 -199.96875,69.5 -0.875,-31.25 221.75,-79.625 z m -483.4375,15.59375 249.625,64.90625 0.84375,30.53125 -251.90625,-77.75 c 0.30307,-2.6161 0.63787,-5.88469 0.9375,-9.53125 9.7e-4,-0.0118 -9.7e-4,-0.0194 0,-0.0312 0.28972,-2.50172 0.43692,-5.27176 0.5,-8.125 z"
       id="path7556"
       style="fill:#c84614;fill-opacity:1" />
  </g>
</svg>
