<?xml version="1.0" encoding="UTF-8" standalone="no"?>
<!-- Created with Inkscape (http://www.inkscape.org/) -->

<svg
   xmlns:dc="http://purl.org/dc/elements/1.1/"
   xmlns:cc="http://creativecommons.org/ns#"
   xmlns:rdf="http://www.w3.org/1999/02/22-rdf-syntax-ns#"
   xmlns:svg="http://www.w3.org/2000/svg"
   xmlns="http://www.w3.org/2000/svg"
   xmlns:sodipodi="http://sodipodi.sourceforge.net/DTD/sodipodi-0.dtd"
   xmlns:inkscape="http://www.inkscape.org/namespaces/inkscape"
   width="1000"
   height="1000"
   id="svg3402"
   version="1.1"
   inkscape:version="0.91 r13725"
   viewBox="0 0 1000 1000"
   sodipodi:docname="education_school.svg">
  <defs
     id="defs3404" />
  <sodipodi:namedview
     id="base"
     pagecolor="#ffffff"
     bordercolor="#666666"
     borderopacity="1.0"
     inkscape:pageopacity="0.0"
     inkscape:pageshadow="2"
     inkscape:zoom="0.5"
     inkscape:cx="-0.23149121"
     inkscape:cy="450.7983"
     inkscape:current-layer="g31"
     showgrid="true"
     inkscape:grid-bbox="true"
     inkscape:document-units="px"
     inkscape:window-width="1920"
     inkscape:window-height="1018"
     inkscape:window-x="-8"
     inkscape:window-y="-8"
     inkscape:window-maximized="1" />
  <metadata
     id="metadata3407">
    <rdf:RDF>
      <cc:Work
         rdf:about="">
        <dc:format>image/svg+xml</dc:format>
        <dc:type
           rdf:resource="http://purl.org/dc/dcmitype/StillImage" />
        <dc:title></dc:title>
      </cc:Work>
    </rdf:RDF>
  </metadata>
  <g
     id="layer1"
     inkscape:label="Layer 1"
     inkscape:groupmode="layer"
     style="display:inline"
     transform="translate(0,968)">
    <g
       transform="translate(0.78553904,-314.39958)"
       id="g7">
      <g
         id="g19"
         transform="translate(-0.1,0.9)">
        <g
           id="g31"
           transform="translate(1.25,1.4)">
          <path
             style="fill:#c84614;fill-opacity:1"
             inkscape:connector-curvature="0"
             d="m 750.62173,-422.56444 c -120.95189,-66.44741 -221.30721,-121.55015 -223.04478,-122.401 -3.05135,-1.49912 -5.42461,0.60775 -64.45965,57.04754 -33.7343,32.21079 -61.91685,58.38459 -62.67969,58.14149 -0.72046,-0.2431 -35.98043,-30.67116 -78.36021,-67.58189 l -77.04644,-67.09569 -79.29257,-29.00997 c -43.56641,-15.96358 -79.038285,-28.3617 -78.741627,-27.59188 0.254279,0.81033 13.095347,33.75043 28.521587,73.29474 l 27.97066,71.83615 76.7074,67.3793 c 42.1255,37.03228 78.23307,68.5948 80.09778,70.09392 l 3.47514,2.75514 -133.32678,127.66818 -133.326787,127.668184 -3.517521,8.630061 C 23.299955,-46.326182 18.341521,-15.573993 20.841928,7.480021 23.511854,31.952119 34.106799,66.02668 39.446651,67.404248 43.642249,68.417166 472.73751,306.93909 476.89073,310.5856 l 3.72942,3.4034 134.7677,-128.80265 134.85246,-128.80265 4.83129,4.497356 c 2.79707,2.552554 31.48818,27.794474 63.95109,56.196694 67.55337,59.19492 58.10268,53.8062 79.88588,45.78389 36.91279,-13.65414 57.67888,-35.81678 67.89241,-72.687 1.52567,-5.46975 3.09373,-12.8438 3.5599,-16.328234 l 0.88998,-6.280091 -56.19559,-48.90368 C 884.11803,-8.3215 856.78307,-32.064297 854.11315,-34.292717 l -4.4075,-3.970638 62.67969,-59.924228 62.34066,-59.964747 0,-71.02581 c 0,-63.57073 -0.16952,-71.10684 -2.07661,-71.79562 -1.10187,-0.40517 -101.20291,-55.14326 -222.02766,-121.59068 z M 461.80353,211.4817 c 0,25.40398 -0.16952,46.10803 -0.33904,45.98648 -0.16952,-0.0405 -90.48083,-50.07867 -200.66825,-111.29943 L 60.467022,34.950356 57.627576,23.727225 c -3.941319,-15.842037 -4.704155,-36.262464 -1.86471,-51.334683 2.754686,-14.504986 6.441727,-26.538451 8.136918,-26.173801 0.678076,0.08103 77.046436,42.015838 169.731016,93.228971 92.68458,51.172618 181.93639,100.359908 198.33737,109.435658 l 29.83536,16.44979 0,46.14854 z m 148.79541,-69.08101 c -61.8321,59.19493 -113.02687,107.85551 -113.66257,107.85551 -0.6357,0 -0.97474,-18.51614 -0.97474,-41.28654 l 0,-41.12447 90.81987,-86.90836 c 49.96576,-47.850243 91.15891,-86.948877 91.70984,-86.948877 1.18664,0 43.56642,37.477965 44.24449,39.058117 0.25428,1.012918 -50.22004,50.07866 -112.13689,109.35462 z M 955.0194,72.630905 c 0,1.823252 -4.23798,17.584255 -6.18745,23.216075 -8.89975,24.7152 -25.21596,41.20551 -50.34717,51.25365 -5.21272,2.06636 -11.27302,4.21374 -13.26487,4.57839 -3.51753,0.85085 -3.64466,0.7293 -2.79707,-2.6741 10.00163,-42.94772 26.1907,-61.34231 65.98532,-74.550763 3.51752,-1.296535 6.61124,-2.066353 6.61124,-1.823252 z M 938.95747,60.354339 c 0.16952,0.567234 -6.01793,3.970638 -13.81581,7.53611 -28.98777,13.451551 -43.22738,29.577201 -53.39852,60.856111 -1.99185,6.07751 -3.64466,10.98003 -3.72942,10.98003 -0.12714,-0.0405 -155.11,-135.933591 -344.54761,-302.37627 C 334.07088,-328.9303 175.61288,-467.98368 171.33252,-471.6707 l -7.79788,-6.68526 29.45395,-27.34878 c 16.1467,-15.07222 33.31051,-30.91426 38.09942,-35.24955 l 8.68786,-7.86024 349.46366,304.15901 C 781.38945,-77.402506 938.78795,59.706071 938.95747,60.354339 Z m 2.83944,-234.834899 -58.73837,56.15617 c -32.12388,30.873738 -59.11979,56.196687 -59.75549,56.115654 -1.0595,0 -32.84433,-26.903102 -44.71067,-37.802104 -0.84759,-0.68878 28.47921,-29.53668 80.14016,-78.84553 44.62591,-42.74514 81.70822,-77.71107 82.1744,-77.71107 0.55093,0 0.88997,18.47563 0.88997,41.04344 l 0,41.04344 z"
             id="path43" />
        </g>
      </g>
    </g>
  </g>
</svg>
