<?xml version="1.0" encoding="UTF-8" standalone="no"?>
<!-- Created with Inkscape (http://www.inkscape.org/) -->

<svg
   xmlns:dc="http://purl.org/dc/elements/1.1/"
   xmlns:cc="http://creativecommons.org/ns#"
   xmlns:rdf="http://www.w3.org/1999/02/22-rdf-syntax-ns#"
   xmlns:svg="http://www.w3.org/2000/svg"
   xmlns="http://www.w3.org/2000/svg"
   xmlns:sodipodi="http://sodipodi.sourceforge.net/DTD/sodipodi-0.dtd"
   xmlns:inkscape="http://www.inkscape.org/namespaces/inkscape"
   width="32"
   height="32"
   id="svg3402"
   version="1.1"
   inkscape:version="0.91 r13725"
   viewBox="0 0 32 32"
   sodipodi:docname="school_.svg">
  <defs
     id="defs3404" />
  <sodipodi:namedview
     id="base"
     pagecolor="#ffffff"
     bordercolor="#666666"
     borderopacity="1.0"
     inkscape:pageopacity="0.0"
     inkscape:pageshadow="2"
     inkscape:zoom="20"
     inkscape:cx="1.8994343"
     inkscape:cy="16"
     inkscape:current-layer="g31"
     showgrid="true"
     inkscape:grid-bbox="true"
     inkscape:document-units="px"
     inkscape:window-width="1920"
     inkscape:window-height="1018"
     inkscape:window-x="-8"
     inkscape:window-y="-8"
     inkscape:window-maximized="1" />
  <metadata
     id="metadata3407">
    <rdf:RDF>
      <cc:Work
         rdf:about="">
        <dc:format>image/svg+xml</dc:format>
        <dc:type
           rdf:resource="http://purl.org/dc/dcmitype/StillImage" />
        <dc:title />
      </cc:Work>
    </rdf:RDF>
  </metadata>
  <g
     id="layer1"
     inkscape:label="Layer 1"
     inkscape:groupmode="layer"
     style="display:inline">
    <g
       transform="translate(0.78553904,-314.39958)"
       id="g7">
      <g
         id="g19"
         transform="translate(-0.1,0.9)">
        <g
           id="g31"
           transform="translate(1.25,1.4)">
          <path
             style="fill:#c84614;fill-opacity:1"
             inkscape:connector-curvature="0"
             d="m 19.438,319.81 c -2.854,-1.64 -5.222,-3 -5.263,-3.021 -0.072,-0.037 -0.128,0.015 -1.521,1.408 -0.796,0.795 -1.461,1.441 -1.479,1.435 -0.017,-0.006 -0.849,-0.757 -1.849,-1.668 l -1.818,-1.656 -1.871,-0.716 c -1.028,-0.394 -1.865,-0.7 -1.858,-0.681 0.006,0.02 0.309,0.833 0.673,1.809 l 0.66,1.773 1.81,1.663 c 0.994,0.914 1.846,1.693 1.89,1.73 l 0.082,0.068 -3.146,3.151 -3.146,3.151 -0.083,0.213 c -0.243,0.627 -0.36,1.386 -0.301,1.955 0.063,0.604 0.313,1.445 0.439,1.479 0.099,0.025 10.224,5.912 10.322,6.002 l 0.088,0.084 3.18,-3.179 3.182,-3.179 0.114,0.111 c 0.066,0.063 0.743,0.686 1.509,1.387 1.594,1.461 1.371,1.328 1.885,1.13 0.871,-0.337 1.361,-0.884 1.602,-1.794 0.036,-0.135 0.073,-0.317 0.084,-0.403 l 0.021,-0.155 -1.326,-1.207 c -0.73,-0.666 -1.375,-1.252 -1.438,-1.307 l -0.104,-0.098 1.479,-1.479 1.471,-1.48 0,-1.753 c 0,-1.569 -0.004,-1.755 -0.049,-1.772 -0.026,-0.01 -2.388,-1.361 -5.239,-3.001 z m -6.815,15.649 c 0,0.627 -0.004,1.138 -0.008,1.135 -0.004,-10e-4 -2.135,-1.236 -4.735,-2.747 l -4.727,-2.745 -0.067,-0.277 c -0.093,-0.391 -0.111,-0.895 -0.044,-1.267 0.065,-0.358 0.152,-0.655 0.192,-0.646 0.016,0.002 1.818,1.037 4.005,2.301 2.187,1.263 4.293,2.477 4.68,2.701 l 0.704,0.406 0,1.139 z m 3.511,-1.705 c -1.459,1.461 -2.667,2.662 -2.682,2.662 -0.015,0 -0.023,-0.457 -0.023,-1.019 l 0,-1.015 2.143,-2.145 c 1.179,-1.181 2.151,-2.146 2.164,-2.146 0.028,0 1.028,0.925 1.044,0.964 0.006,0.025 -1.185,1.236 -2.646,2.699 z m 8.127,-1.722 c 0,0.045 -0.1,0.434 -0.146,0.573 -0.21,0.61 -0.595,1.017 -1.188,1.265 -0.123,0.051 -0.266,0.104 -0.313,0.113 -0.083,0.021 -0.086,0.018 -0.066,-0.066 0.236,-1.06 0.618,-1.514 1.557,-1.84 0.083,-0.032 0.156,-0.051 0.156,-0.045 z m -0.379,-0.303 c 0.004,0.014 -0.142,0.098 -0.326,0.186 -0.684,0.332 -1.02,0.73 -1.26,1.502 -0.047,0.15 -0.086,0.271 -0.088,0.271 -0.003,-10e-4 -3.66,-3.355 -8.13,-7.463 -4.469,-4.104 -8.208,-7.536 -8.309,-7.627 l -0.184,-0.165 0.695,-0.675 c 0.381,-0.372 0.786,-0.763 0.899,-0.87 l 0.205,-0.194 8.246,7.507 c 4.534,4.128 8.248,7.512 8.252,7.528 z m 0.067,-5.796 -1.386,1.386 c -0.758,0.762 -1.395,1.387 -1.41,1.385 -0.025,0 -0.775,-0.664 -1.055,-0.933 -0.02,-0.017 0.672,-0.729 1.891,-1.946 1.053,-1.055 1.928,-1.918 1.939,-1.918 0.013,0 0.021,0.456 0.021,1.013 l 0,1.013 z"
             id="path43" />
        </g>
      </g>
    </g>
  </g>
</svg>
