<?xml version="1.0" encoding="UTF-8" standalone="no"?>
<!-- Created with Inkscape (http://www.inkscape.org/) -->

<svg
   xmlns:dc="http://purl.org/dc/elements/1.1/"
   xmlns:cc="http://creativecommons.org/ns#"
   xmlns:rdf="http://www.w3.org/1999/02/22-rdf-syntax-ns#"
   xmlns:svg="http://www.w3.org/2000/svg"
   xmlns="http://www.w3.org/2000/svg"
   xmlns:sodipodi="http://sodipodi.sourceforge.net/DTD/sodipodi-0.dtd"
   xmlns:inkscape="http://www.inkscape.org/namespaces/inkscape"
   width="1000"
   height="1000"
   id="svg3367"
   version="1.1"
   inkscape:version="0.91 r13725"
   viewBox="0 0 1000 1000"
   sodipodi:docname="education_university.svg">
  <defs
     id="defs3369" />
  <sodipodi:namedview
     id="base"
     pagecolor="#ffffff"
     bordercolor="#666666"
     borderopacity="1.0"
     inkscape:pageopacity="0.0"
     inkscape:pageshadow="2"
     inkscape:zoom="0.5"
     inkscape:cx="11.512342"
     inkscape:cy="407.02816"
     inkscape:current-layer="layer1"
     showgrid="true"
     inkscape:grid-bbox="true"
     inkscape:document-units="px"
     inkscape:window-width="1920"
     inkscape:window-height="1018"
     inkscape:window-x="-8"
     inkscape:window-y="-8"
     inkscape:window-maximized="1" />
  <metadata
     id="metadata3372">
    <rdf:RDF>
      <cc:Work
         rdf:about="">
        <dc:format>image/svg+xml</dc:format>
        <dc:type
           rdf:resource="http://purl.org/dc/dcmitype/StillImage" />
        <dc:title></dc:title>
      </cc:Work>
    </rdf:RDF>
  </metadata>
  <g
     id="layer1"
     inkscape:label="Layer 1"
     inkscape:groupmode="layer"
     transform="translate(0,968)">
    <path
       id="path11706"
       style="fill:#c84614;fill-opacity:1"
       d="m 225.10954,-220.29213 c -4.12009,-6.0401 -10.17148,-17.24821 -13.48687,-24.93561 l -5.98701,-14.01821 -0.67595,-93.67003 -0.67595,-93.73463 32.34916,19.73531 c 17.80009,10.8528 33.21825,20.4459 34.24827,21.318 1.03003,0.9367 -1.80254,17.86191 -6.2767,37.66182 -4.47416,19.7999 -13.51906,63.59872 -20.08545,97.35223 l -11.90965,61.24082 -7.49985,-10.9497 0,0 z m 41.36187,86.98393 c -5.11793,-2.5194 -11.68433,-7.1383 -14.58127,-10.1099 l -5.27887,-5.81401 10.68649,-58.43072 c 13.55124,-74.19312 33.92639,-177.65006 34.79547,-176.77796 1.70598,1.7119 7.88612,58.36612 15.57912,142.76605 l 8.4655,92.53953 -5.472,6.00781 c -6.46983,7.0091 -21.27643,14.3089 -29.22692,14.3735 -3.12226,0.0323 -9.8496,-1.9703 -14.96752,-4.5543 l 0,0 z m 208.45095,27.22891 c -38.65806,-3.23 -85.94256,-12.75851 -115.97417,-23.28831 l -8.98051,-3.2946 -2.76819,-24.90331 c -1.51285,-13.566 -7.33892,-53.23042 -12.93967,-88.17903 -9.97835,-62.59742 -18.25072,-126.61605 -16.80225,-130.26595 0.67595,-1.7119 172.62545,102.26184 180.415,109.20634 4.18447,3.5207 -3.31539,7.8489 176.2949,-101.93883 82.49842,-50.48492 150.51214,-91.50594 150.89839,-90.98914 0.5472,0.4522 0.86909,43.73422 1.12659,96.12484 0.38626,105.10423 0.19313,105.97633 -14.32376,133.91584 -9.04489,17.28051 -40.49278,49.45132 -61.47951,63.01733 -47.34887,30.39431 -106.25332,50.48491 -170.88728,58.30152 -29.5166,3.4238 -77.63799,4.5866 -104.57954,2.2933 l 0,0 z m -62.8636,-254.49179 c -47.89608,-29.90981 -87.13352,-55.32992 -87.13352,-56.46042 0,-1.8411 62.34859,-49.12832 142.43289,-108.04354 19.92451,-14.6642 20.40733,-14.858 31.1582,-13.4045 16.28724,2.261 32.15604,-2.39021 42.71377,-12.46781 7.43548,-7.1383 8.81958,-9.9161 8.81958,-17.7004 0,-18.08801 -18.12197,-30.52352 -44.5485,-30.58812 -24.59181,-0.0323 -43.58286,13.46911 -43.80818,31.16952 -0.0644,6.1047 -2.70381,8.5918 -25.23557,23.8374 -13.84093,9.36701 -53.07838,37.04812 -87.23008,61.56383 l -62.0911,44.50941 -97.65908,-60.17492 c -53.68995,-33.07521 -98.17408,-60.82092 -98.785656,-61.62842 -0.643765,-0.8075 -4.184469,-3.4561 -7.918303,-5.9109 -3.733834,-2.4548 -7.049222,-5.74941 -7.371104,-7.29981 -0.579388,-2.9393 -0.321882,-3.0685 7.371104,-3.9406 3.959151,-0.4522 25.074629,-13.4045 28.261259,-17.3451 0.64377,-0.7429 5.34325,-3.52071 10.46117,-6.13701 5.15012,-2.6163 93.2171,-56.00822 195.73661,-118.67023 102.5195,-62.66202 188.52643,-114.92344 191.13368,-116.11854 4.02352,-1.8411 32.96074,15.1164 193.38685,113.50224 103.8714,63.63101 191.93838,117.34593 195.83315,119.34853 3.89478,2.0026 13.84094,8.20421 21.92018,13.79211 8.11144,5.5556 15.38598,9.4962 16.06193,8.7533 0.67595,-0.7429 1.38409,-0.1938 1.38409,1.2274 0,1.4858 1.70598,2.0026 3.95915,1.1951 10.81525,-3.8114 -9.49552,9.39931 -93.28147,60.59482 -49.85956,30.39431 -147.35769,90.34314 -216.7555,133.20525 -69.43,42.86212 -127.46537,77.84303 -128.94603,77.71383 -1.51284,0 -41.94125,-24.61261 -89.86952,-54.52242 z"
       inkscape:connector-curvature="0" />
  </g>
</svg>
