<?xml version="1.0" encoding="UTF-8" standalone="no"?>
<!-- Created with Inkscape (http://www.inkscape.org/) -->

<svg
   xmlns:dc="http://purl.org/dc/elements/1.1/"
   xmlns:cc="http://creativecommons.org/ns#"
   xmlns:rdf="http://www.w3.org/1999/02/22-rdf-syntax-ns#"
   xmlns:svg="http://www.w3.org/2000/svg"
   xmlns="http://www.w3.org/2000/svg"
   xmlns:sodipodi="http://sodipodi.sourceforge.net/DTD/sodipodi-0.dtd"
   xmlns:inkscape="http://www.inkscape.org/namespaces/inkscape"
   width="32"
   height="32"
   id="svg10524"
   version="1.1"
   inkscape:version="0.91 r13725"
   viewBox="0 0 32 32"
   sodipodi:docname="education_kindergarten.svg">
  <defs
     id="defs10526" />
  <sodipodi:namedview
     id="base"
     pagecolor="#ffffff"
     bordercolor="#666666"
     borderopacity="1.0"
     inkscape:pageopacity="0.0"
     inkscape:pageshadow="2"
     inkscape:zoom="20"
     inkscape:cx="11.871489"
     inkscape:cy="16"
     inkscape:current-layer="layer1"
     showgrid="true"
     inkscape:grid-bbox="true"
     inkscape:document-units="px"
     inkscape:window-width="1920"
     inkscape:window-height="1018"
     inkscape:window-x="-8"
     inkscape:window-y="-8"
     inkscape:window-maximized="1" />
  <metadata
     id="metadata10529">
    <rdf:RDF>
      <cc:Work
         rdf:about="">
        <dc:format>image/svg+xml</dc:format>
        <dc:type
           rdf:resource="http://purl.org/dc/dcmitype/StillImage" />
        <dc:title></dc:title>
      </cc:Work>
    </rdf:RDF>
  </metadata>
  <g
     id="layer1"
     inkscape:label="Layer 1"
     inkscape:groupmode="layer">
    <path
       inkscape:connector-curvature="0"
       d="m 2.8283,4.1461394 0,3.1480411 0,0 0,0.602098 c 0.0098,0.029037 0.024292,0.057102 0.027669,0.08701 C 2.941373,8.7443401 3.2468217,9.3949388 3.7551809,9.9374287 4.7564413,11.005873 6.348774,11.30792 7.6828035,10.689257 9.1025744,10.030725 9.8814811,8.4884306 9.5495718,6.8984639 9.255986,5.4920365 8.3867196,4.6422761 7.0866882,4.2623214 6.9010221,4.2082683 6.7072734,4.1838558 6.5173911,4.1457314 c -0.1905342,0 -0.380972,3.924e-4 -0.5713983,0 l -3.1176927,0 z m 20.956544,4.05094 c -0.86053,-0.00518 -1.523433,0.6652358 -1.523433,1.5411087 0,0.8544759 0.691977,1.5760339 1.51169,1.5764609 0.839625,0 1.503715,-0.692848 1.504139,-1.5706813 3.82e-4,-0.8975976 -0.620723,-1.5414306 -1.492396,-1.5468883 z m -0.0076,3.3989636 c -0.597249,3.92e-4 -1.194813,-0.0044 -1.791724,0.0027 -0.492019,0.0044 -0.822675,0.259519 -0.896281,0.733213 -0.03965,0.254969 -0.02865,0.527364 0.0076,0.784494 0.05534,0.398176 0.307367,0.619379 0.679548,0.682012 0.110106,0.01857 0.224566,0.0129 0.337051,0.0129 0.969419,-0.0027 1.93887,-0.0035 2.908508,-0.0052 0.228738,0 0.458478,0.0129 0.686258,-0.0027 0.381484,-0.02607 0.64141,-0.267731 0.736139,-0.656797 0.06438,-0.265457 0.06536,-0.533851 0.0159,-0.800406 -0.06198,-0.331813 -0.229435,-0.581479 -0.547499,-0.682438 -0.130447,-0.04159 -0.271495,-0.06199 -0.40789,-0.06364 -0.575483,-0.0069 -1.151686,-0.0027 -1.72717,-0.0027 l 0,0 z M 5.9740105,11.933948 c -0.084529,0 -0.1696098,0.0052 -0.2561463,0.01543 -0.8075764,0.09249 -1.4711654,0.445027 -1.9267033,1.178476 -0.172234,0.277279 -0.325819,0.564758 -0.3559173,0.898889 -0.052287,0.580581 -0.09902,1.162104 -0.1286937,1.74429 -0.058279,1.14227 -0.1054471,2.28521 -0.1530186,3.428143 -0.02037,0.487051 -0.039325,0.974521 -0.042375,1.462078 -0.00436,0.62915 -0.1095543,1.257674 -0.019717,1.887418 0.047386,0.33237 0.085622,0.668306 0.1618204,0.99384 0.1484216,0.633746 0.3523556,1.247858 0.6875111,1.80484 0.1343476,0.223085 0.3204486,0.378428 0.5516926,0.478794 0.296614,0.128683 0.6091004,0.171838 0.9252033,0.184637 0.6691228,0.02712 1.3294111,-0.06817 1.987498,-0.17666 0.7027951,-0.115807 1.4105774,-0.174865 2.1195479,-0.163478 0.4954834,0.0078 0.9941694,0.05187 1.4840214,0.130766 0.937707,0.151378 1.816995,0.469449 2.58236,1.092358 0.341442,0.277863 0.701139,0.535386 1.072351,0.766831 0.395897,0.247035 0.834723,0.361229 1.296208,0.25265 0.750758,-0.176939 1.187384,-0.693284 1.392637,-1.458973 0.102396,-0.381995 -4.48e-4,-0.692648 -0.255308,-0.95806 -0.128596,-0.133827 -0.266352,-0.262196 -0.415853,-0.368847 -0.70117,-0.499493 -1.476732,-0.840058 -2.28053,-1.095461 -0.946586,-0.300793 -1.908598,-0.549048 -2.861143,-0.8295 -0.432368,-0.127305 -0.858078,-0.277584 -1.286993,-0.417417 -0.106758,-0.03478 -0.163977,-0.09826 -0.158453,-0.227916 0.0043,-0.09365 -0.01929,-0.189511 -0.03475,-0.283589 C 9.9545861,21.636862 9.7390331,21.03689 9.517212,20.438602 9.2218939,19.641849 8.9170883,18.848479 8.6414759,18.044106 8.528352,17.713741 8.480669,17.358643 8.399589,16.998557 c 0.089982,-0.02258 0.135187,-0.03924 0.1815157,-0.04551 0.888243,-0.109987 1.7764963,-0.219074 2.6649563,-0.327339 0.76396,-0.09283 1.528856,-0.177732 2.291847,-0.279162 0.524709,-0.06992 1.006097,-0.259754 1.407723,-0.639126 0.328009,-0.309946 0.604612,-0.652123 0.676607,-1.132138 0.07385,-0.492073 -0.250983,-0.984921 -0.71518,-1.070684 -0.338402,-0.06259 -0.661302,0.0313 -0.980542,0.132528 -0.371974,0.117928 -0.735626,0.273582 -1.11344,0.361742 -0.548849,0.127967 -1.109332,0.115327 -1.66511,0.03087 C 10.490193,13.929833 9.8508205,13.758392 9.2652719,13.413111 8.718138,13.090447 8.1795825,12.751172 7.6278139,12.437809 7.1084417,12.14291 6.5654201,11.929563 5.9740105,11.933844 Z m 20.4492855,2.601671 c -1.774632,-0.0035 -3.548971,-0.0035 -5.323603,0 -0.149609,0 -0.303052,0.02172 -0.44898,0.05876 -0.703665,0.178631 -0.89566,0.818035 -0.727762,1.487709 0.06165,0.245587 0.217377,0.419702 0.430538,0.537975 0.220949,0.122877 0.461147,0.152597 0.703862,0.153739 0.852511,0.0044 1.705122,0.0027 2.557623,0.0027 0,-0.0044 10e-6,-0.0095 -4.48e-4,-0.01447 0.64932,0 1.298159,0 1.94726,0 0.371746,0 0.744014,0.01225 1.115106,-0.0035 0.529917,-0.02241 0.884822,-0.32243 0.971325,-0.81187 0.0257,-0.14565 0.02364,-0.300243 0.01296,-0.44923 -0.02539,-0.352353 -0.185676,-0.619413 -0.485875,-0.787564 -0.235558,-0.131857 -0.491605,-0.173365 -0.752064,-0.174037 z m -5.054047,2.947972 c -0.371964,0 -0.744005,0.0078 -1.115532,0.02911 -0.27107,0.0156 -0.531235,0.09527 -0.74201,0.288037 -0.335908,0.307156 -0.359306,0.711574 -0.279196,1.130334 0.07778,0.405831 0.344556,0.650555 0.713926,0.722612 0.337531,0.06556 0.686172,0.08257 1.030422,0.08657 0.935226,0.01086 1.870592,0.0035 2.805806,0.0035 l 0,-0.0052 c 1.078113,0 2.155921,0.0027 3.233827,-0.0027 0.163356,0 0.328771,-0.01831 0.489644,-0.04909 0.51508,-0.09864 0.814407,-0.456921 0.831292,-0.9797 0.02069,-0.633946 -0.218727,-1.008173 -0.767577,-1.136969 -0.258738,-0.06067 -0.530723,-0.08099 -0.796923,-0.08212 -1.801049,-0.0078 -3.602424,-0.0069 -5.403679,-0.0044 z m 2.431859,2.958146 c -1.296284,0.0027 -2.592744,0.0044 -3.889049,0.0078 -0.31546,0 -0.629396,0.03636 -0.923951,0.178038 -0.381823,0.18374 -0.557945,0.50617 -0.555462,0.935959 0.0022,0.437914 0.169577,0.79031 0.577259,0.943962 0.235895,0.08918 0.494176,0.155265 0.743274,0.158099 1.29819,0.01543 2.596501,0.0069 3.894921,0.0069 0,0 4.03e-4,0 4.03e-4,0 0.579928,0 1.160455,0.0027 1.740166,0 0.860954,-0.0052 1.722039,-0.01 2.582787,-0.02911 0.173203,-0.0035 0.352583,-0.04935 0.516049,-0.113093 0.411909,-0.160365 0.602881,-0.496502 0.617499,-0.949656 0.01167,-0.360564 -0.111589,-0.653387 -0.4146,-0.838373 -0.307987,-0.188335 -0.648632,-0.298125 -1.000247,-0.299067 -1.296469,-0.0027 -2.592765,-0.0027 -3.889049,-0.0027 z m 4.496494,2.934275 c -2.541294,0.0052 -5.082533,0.0092 -7.623828,0.01404 -0.567259,0.0027 -1.134976,-0.0027 -1.702017,0.0092 -0.37705,0.0078 -0.751367,0.05126 -1.102111,0.214681 -0.250187,0.11635 -0.452421,0.286493 -0.541627,0.57249 -0.172779,0.553563 0.08388,1.064632 0.639297,1.274283 0.363957,0.137366 0.743699,0.166895 1.124758,0.166973 2.446358,0 4.892629,-0.0027 7.338771,-0.0052 0.766236,-0.0027 1.532756,-0.0027 2.298546,-0.02258 0.252236,-0.0069 0.509329,-0.04585 0.75334,-0.11399 0.35485,-0.09864 0.632477,-0.313947 0.74116,-0.711147 0.01179,-0.04202 0.02734,-0.08274 0.04107,-0.124089 0,-0.100405 0,-0.20054 0,-0.301263 -0.103816,-0.449309 -0.420657,-0.656762 -0.80615,-0.77963 -0.37814,-0.120315 -0.763927,-0.194375 -1.161229,-0.193478 z"
       id="path3-97"
       style="fill:#c84614;fill-opacity:1" />
  </g>
</svg>
