<?xml version="1.0" encoding="UTF-8" standalone="no"?>
<!-- Created with Inkscape (http://www.inkscape.org/) -->

<svg
   xmlns:dc="http://purl.org/dc/elements/1.1/"
   xmlns:cc="http://creativecommons.org/ns#"
   xmlns:rdf="http://www.w3.org/1999/02/22-rdf-syntax-ns#"
   xmlns:svg="http://www.w3.org/2000/svg"
   xmlns="http://www.w3.org/2000/svg"
   xmlns:sodipodi="http://sodipodi.sourceforge.net/DTD/sodipodi-0.dtd"
   xmlns:inkscape="http://www.inkscape.org/namespaces/inkscape"
   width="1000"
   height="1000"
   id="svg4799"
   version="1.1"
   inkscape:version="0.91 r13725"
   viewBox="0 0 1000 1000"
   sodipodi:docname="education_college.svg">
  <title
     id="title5366">public_emercency</title>
  <defs
     id="defs5498" />
  <sodipodi:namedview
     inkscape:window-height="894"
     inkscape:window-width="1240"
     inkscape:pageshadow="2"
     inkscape:pageopacity="0.0"
     borderopacity="1.0"
     bordercolor="#666666"
     pagecolor="#ffffff"
     id="base"
     showgrid="false"
     showguides="false"
     inkscape:guide-bbox="true"
     inkscape:zoom="0.454"
     inkscape:cx="82.085581"
     inkscape:cy="931.41512"
     inkscape:window-x="383"
     inkscape:window-y="174"
     inkscape:current-layer="layer1"
     inkscape:window-maximized="0">
    <sodipodi:guide
       orientation="horizontal"
       position="-431.71806,-202.64317"
       id="guide5596" />
  </sodipodi:namedview>
  <metadata
     id="metadata5594">
    <rdf:RDF>
      <cc:Work
         rdf:about="">
        <dc:format>image/svg+xml</dc:format>
        <dc:type
           rdf:resource="http://purl.org/dc/dcmitype/StillImage" />
        <dc:title>public_emercency</dc:title>
      </cc:Work>
    </rdf:RDF>
  </metadata>
  <g
     inkscape:label="Layer 1"
     inkscape:groupmode="layer"
     id="layer1">
    <g
       id="g4211"
       transform="matrix(1.326406,0,0,1.5907157,-1086.5829,-823.88714)">
      <path
         d="m 1266.9854,618.20304 c -1.074,0.021 -38.3635,5.06266 -82.8675,11.19166 -44.501,6.13 -82.665,11.25228 -84.8231,11.37828 -2.1399,0.127 -4.1699,0.38102 -4.4999,0.53901 -1.679,0.867 -10.8571,2.14791 -12.2821,1.70792 -2.77,-0.84501 -2.8733,-0.83899 -3.1143,0.24802 -0.117,0.57899 0.5281,2.20553 1.4431,3.59753 0.92,1.402 1.74,2.83609 1.842,3.20709 0.09,0.367 11.2344,16.49533 24.7394,35.82433 l 24.5612,35.15394 27.9347,-5.95988 c 15.367,-3.291 32.9463,-6.90182 39.0903,-8.03981 10.002,-1.84701 11.273,-2.30735 12.207,-4.38335 2.707,-6.019 11.2296,-7.80182 19.6696,-4.12182 9.057,3.965 13.4333,10.92156 10.7433,17.10855 -1.156,2.65901 -2.0477,3.40851 -5.6647,4.73451 -5.123,1.869 -11.2575,1.09359 -16.5155,-2.10941 -3.475,-2.102 -3.663,-2.10607 -12.687,-0.0651 -36.244,8.202 -64.6768,15.07914 -64.9488,15.70514 -0.169,0.389 9.5128,14.93775 21.5058,32.31275 11.998,17.378 22.2126,31.82507 22.7206,32.04507 0.492,0.266 25.6144,-3.04926 55.8134,-7.33627 30.189,-4.29099 72.5743,-10.25151 94.2013,-13.20651 36.375,-5.003 45.3091,-6.49194 41.0311,-6.80094 -0.896,-0.063 -1.4024,-0.49468 -1.1824,-1.00068 0.211,-0.486 0.058,-0.77765 -0.2901,-0.62865 -0.35,0.151 -2.2543,-2.28039 -4.2113,-5.39139 -1.943,-3.115 -4.4294,-6.71711 -5.4704,-7.98211 -1.041,-1.268 -23.2781,-32.78212 -49.4581,-70.04512 -40.428,-57.59 -47.8376,-67.70678 -49.4876,-67.68279 z m -162.1672,87.5736 -13.7104,32.16295 -13.6986,32.14085 -0.028,5.68361 c -0.01,3.128 0.3998,7.86977 0.9218,10.53477 l 0.9409,4.87079 13.198,-19.17253 c 7.27,-10.563 16.8873,-24.18697 21.3703,-30.29297 4.478,-6.109 7.9682,-11.46631 7.7512,-11.94431 -0.224,-0.458 -4.0887,-6.03606 -8.5817,-12.40106 l -8.1635,-11.5821 z m 20.8785,34.40128 c -0.171,-0.434 -22.5484,31.91008 -38.2304,55.26208 l -12.3542,18.38426 0.9483,2.77367 c 0.549,1.44199 2.1187,3.99622 3.4957,5.62222 1.375,1.649 3.3817,3.34541 4.4557,3.8124 2.739,1.16501 8.9083,0.87234 12.1673,-0.55866 l 2.7697,-1.23396 10.8597,-32.91193 c 9.911,-30.018 16.2172,-50.31408 15.8882,-51.15008 z m 7.4508,6.64991 c -1.041,1.03601 -7.7209,24.17087 -13.6029,47.06388 -3.278,12.786 -7.1794,27.22896 -8.6774,32.09296 l -2.7565,8.93613 2.593,2.46057 c 8.741,8.08599 23.5537,18.40215 36.3397,25.27115 8.906,4.797 25.5957,11.59215 36.2307,14.80515 23.346,6.969 46.5436,8.89828 67.3136,5.56328 9.223,-1.505 24.7953,-7.81573 30.4733,-12.37773 9.141,-7.392 9.338,-7.66424 24.838,-43.66524 7.699,-17.945 14.0222,-32.80967 13.9092,-33.05067 -0.055,-0.228 -29.4978,3.6449 -65.3198,8.6169 -77.962,10.73699 -74.7496,10.3895 -75.6656,8.5555 -1.639,-3.535 -45.1903,-64.75487 -45.6753,-64.27188 z M 979.63701,958.4501 c -30.479,0 -55.27301,12.72498 -55.27301,28.36405 l 0,31.13645 c 0,15.6391 24.79401,28.364 55.27301,28.364 l 392.21949,0 53.9286,0 25.9762,0 c 8.938,0 16.1783,-3.7185 16.1783,-8.3025 0,-4.5841 -7.2437,-8.3014 -16.1797,-8.3014 l -9.8009,0 0,-54.65791 9.8009,0 c 8.938,0 16.1783,-3.71801 16.1783,-8.30134 0,-4.58334 -7.2423,-8.30135 -16.1783,-8.30135 l -25.9778,0 -53.9286,0 -392.21649,0 z"
         id="path4213"
         inkscape:connector-curvature="0"
         style="fill:#c84614;fill-opacity:1" />
    </g>
  </g>
</svg>
