<?xml version="1.0" encoding="UTF-8" standalone="no"?>
<!-- Created with Inkscape (http://www.inkscape.org/) -->

<svg
   xmlns:dc="http://purl.org/dc/elements/1.1/"
   xmlns:cc="http://creativecommons.org/ns#"
   xmlns:rdf="http://www.w3.org/1999/02/22-rdf-syntax-ns#"
   xmlns:svg="http://www.w3.org/2000/svg"
   xmlns="http://www.w3.org/2000/svg"
   xmlns:sodipodi="http://sodipodi.sourceforge.net/DTD/sodipodi-0.dtd"
   xmlns:inkscape="http://www.inkscape.org/namespaces/inkscape"
   width="32"
   height="32"
   id="svg3346"
   version="1.1"
   inkscape:version="0.91 r13725"
   viewBox="0 0 32 32"
   sodipodi:docname="dentist_.svg">
  <defs
     id="defs3348" />
  <sodipodi:namedview
     id="base"
     pagecolor="#ffffff"
     bordercolor="#666666"
     borderopacity="1.0"
     inkscape:pageopacity="0.0"
     inkscape:pageshadow="2"
     inkscape:zoom="20"
     inkscape:cx="12.493899"
     inkscape:cy="16"
     inkscape:current-layer="layer1"
     showgrid="true"
     inkscape:grid-bbox="true"
     inkscape:document-units="px"
     inkscape:window-width="1920"
     inkscape:window-height="1018"
     inkscape:window-x="-8"
     inkscape:window-y="-8"
     inkscape:window-maximized="1" />
  <metadata
     id="metadata3351">
    <rdf:RDF>
      <cc:Work
         rdf:about="">
        <dc:format>image/svg+xml</dc:format>
        <dc:type
           rdf:resource="http://purl.org/dc/dcmitype/StillImage" />
        <dc:title />
      </cc:Work>
    </rdf:RDF>
  </metadata>
  <g
     id="layer1"
     inkscape:label="Layer 1"
     inkscape:groupmode="layer">
    <path
       style="fill:#4682be;fill-opacity:1"
       id="path10272"
       inkscape:connector-curvature="0"
       d="m 11.665946,28.82055 c -0.727,-0.359 -1.348,-1.107 -1.9430002,-2.344 -0.835,-1.732 -0.921,-2.439 -0.904,-7.401 0.018,-5.012 -0.025,-5.383 -1.027,-8.916 -0.953,-3.3579997 -0.972,-4.9849997 -0.076,-6.3149996 0.483,-0.717 1.04,-1.019 1.734,-0.938 1.1340002,0.13 1.8750002,0.349 3.0790002,0.907 1.495,0.6939999 2.435,0.9239999 3.787,0.9269999 1.413,0.002 2.155,-0.175 3.735,-0.8899999 1.625,-0.736 1.627,-0.736 2.811,-0.887 0.896,-0.114 0.979,-0.103 1.422,0.186 0.709,0.466 1.258,1.6759999 1.339,2.9499999 0.051,0.849 0,1.223 -0.336,2.467 -1.522,5.6269997 -1.599,6.1369997 -1.386,9.6479997 0.349,5.772 -0.699,9.644 -2.883,10.635 -0.681,0.308 -1.16,0.304 -1.479,-0.014 -0.354,-0.353 -0.326,-0.715 0.204,-3.102 0.438,-1.945 0.456,-2.15 0.387,-3.654 -0.091,-1.998 -0.325,-2.845 -0.974,-3.455 -0.604,-0.578 -1.313,-0.768 -2.897,-0.768 -1.529,0 -2.285,0.232 -2.887,0.9 -0.616,0.685 -0.735,1.181 -0.807,3.381 -0.059,1.814 -0.042,1.996 0.332,3.553 0.741,3.071 0.399,3.939 -1.231,3.13 z" />
  </g>
</svg>
