<?xml version="1.0" encoding="UTF-8" standalone="no"?>
<!-- Created with Inkscape (http://www.inkscape.org/) -->

<svg
   xmlns:dc="http://purl.org/dc/elements/1.1/"
   xmlns:cc="http://creativecommons.org/ns#"
   xmlns:rdf="http://www.w3.org/1999/02/22-rdf-syntax-ns#"
   xmlns:svg="http://www.w3.org/2000/svg"
   xmlns="http://www.w3.org/2000/svg"
   xmlns:sodipodi="http://sodipodi.sourceforge.net/DTD/sodipodi-0.dtd"
   xmlns:inkscape="http://www.inkscape.org/namespaces/inkscape"
   width="352.78mm"
   height="352.78mm"
   viewBox="0 0 1250.0079 1250.0079"
   id="svg30975"
   version="1.1"
   inkscape:version="0.91 r13725"
   sodipodi:docname="health_clinic.svg">
  <defs
     id="defs30977" />
  <sodipodi:namedview
     id="base"
     pagecolor="#ffffff"
     bordercolor="#666666"
     borderopacity="1.0"
     inkscape:pageopacity="0.0"
     inkscape:pageshadow="2"
     inkscape:zoom="0.5"
     inkscape:cx="80"
     inkscape:cy="520"
     inkscape:document-units="px"
     inkscape:current-layer="layer1"
     showgrid="false"
     inkscape:window-width="1920"
     inkscape:window-height="1018"
     inkscape:window-x="-8"
     inkscape:window-y="-8"
     inkscape:window-maximized="1" />
  <metadata
     id="metadata30980">
    <rdf:RDF>
      <cc:Work
         rdf:about="">
        <dc:format>image/svg+xml</dc:format>
        <dc:type
           rdf:resource="http://purl.org/dc/dcmitype/StillImage" />
        <dc:title></dc:title>
      </cc:Work>
    </rdf:RDF>
  </metadata>
  <g
     inkscape:label="Layer 1"
     inkscape:groupmode="layer"
     id="layer1"
     transform="translate(0,197.64569)">
    <path
       inkscape:connector-curvature="0"
       d="m 643.09478,48.360974 c -35.131,-1.167 -76.2664,2.623 -105.8858,9.851 -204.6714,50.949996 -329.742,260.516996 -276.8981,464.517996 36.0259,139.12 147.4964,246.847 286.1203,276.52 61.2673,13.115 141.1772,8.307 200.8414,-12.126 125.7408,-43.05 224.6518,-158.443 248.3776,-290.218 38.32852,-213.095 -106.2269,-414.646996 -320.0505,-445.921996 -9.7293,-1.458 -20.7965,-2.332 -32.5049,-2.623 z m -19.8113,54.650996 c 91.493,0 165.5588,29.496 230.6152,91.871 67.2134,64.532 99.7795,141.48 99.1675,236.034 -0.5829,55.059 -8.3798,88.753 -32.1056,137.895 -41.4473,85.955 -124.097,152.964 -215.4734,174.708 -113.9071,27.049 -225.8992,-2.623 -309.2893,-82.34 -130.9873,-124.488 -133.701,-331.054 -6.0363,-460.467 63.1327,-64.007 143.4943,-97.701 233.1219,-97.701 z m -92.8512,93.591 0,73.509 0,73.48 -73.4945,0 -73.4364,0 0,96.826 0,96.857 73.4364,0 73.4945,0 0,73.48 0,73.48 96.8356,0 96.8356,0 0,-73.48 0,-73.48 75.1997,0 75.1472,0 0,-96.857 0,-96.826 -75.1472,0 -75.1443,0 0,-73.48 0,-73.509 -96.891,0 -96.8356,0 z"
       id="path9157"
       style="fill:#4682be;fill-opacity:1" />
  </g>
</svg>
