<?xml version="1.0" encoding="UTF-8" standalone="no"?>
<!-- Created with Inkscape (http://www.inkscape.org/) -->

<svg
   xmlns:dc="http://purl.org/dc/elements/1.1/"
   xmlns:cc="http://creativecommons.org/ns#"
   xmlns:rdf="http://www.w3.org/1999/02/22-rdf-syntax-ns#"
   xmlns:svg="http://www.w3.org/2000/svg"
   xmlns="http://www.w3.org/2000/svg"
   xmlns:sodipodi="http://sodipodi.sourceforge.net/DTD/sodipodi-0.dtd"
   xmlns:inkscape="http://www.inkscape.org/namespaces/inkscape"
   width="1000"
   height="1000"
   viewBox="0 0 1000 1000"
   id="svg4136"
   version="1.1"
   inkscape:version="0.91 r13725"
   sodipodi:docname="health_clinic.svg">
  <defs
     id="defs4138" />
  <sodipodi:namedview
     id="base"
     pagecolor="#ffffff"
     bordercolor="#666666"
     borderopacity="1.0"
     inkscape:pageopacity="0.0"
     inkscape:pageshadow="2"
     inkscape:zoom="0.5"
     inkscape:cx="178.40149"
     inkscape:cy="418.23749"
     inkscape:document-units="px"
     inkscape:current-layer="layer1"
     showgrid="false"
     units="px"
     inkscape:window-width="1920"
     inkscape:window-height="1018"
     inkscape:window-x="-8"
     inkscape:window-y="-8"
     inkscape:window-maximized="1" />
  <metadata
     id="metadata4141">
    <rdf:RDF>
      <cc:Work
         rdf:about="">
        <dc:format>image/svg+xml</dc:format>
        <dc:type
           rdf:resource="http://purl.org/dc/dcmitype/StillImage" />
        <dc:title></dc:title>
      </cc:Work>
    </rdf:RDF>
  </metadata>
  <g
     inkscape:label="Ebene 1"
     inkscape:groupmode="layer"
     id="layer1"
     transform="translate(0,-52.3621)">
    <path
       id="path4704"
       style="opacity:1;fill:#4682be;fill-opacity:1;stroke:none;stroke-width:25;stroke-linecap:butt;stroke-linejoin:round;stroke-miterlimit:4;stroke-dasharray:none;stroke-dashoffset:0;stroke-opacity:1"
       d="m 383.72745,750.70057 0,-86.74619 -86.52708,0 -86.52706,0 0,-112.76938 0,-112.76937 86.52706,0 86.52708,0 0,-86.74619 0,-86.7462 112.48515,0 112.48519,0 0,86.7462 0,86.74619 88.69024,0 88.69024,0 0,112.76937 0,112.76938 -88.69024,0 -88.69024,0 0,86.74619 0,86.74277 -112.48519,0 -112.48515,0 0,-86.74277 z M 435.64366,990.3054 C 260.2836,966.1234 109.04179,824.83707 70.04861,648.7719 58.817895,598.06519 56.008297,538.07037 62.612656,489.99483 89.641135,293.23752 241.23031,137.18436 434.3786,107.28313 c 30.40064,-4.70588 107.13197,-5.30356 131.05565,-1.03048 99.73401,17.86516 182.74448,61.30009 249.93008,130.7788 64.89626,67.11203 103.6265,143.79727 121.41683,240.4052 5.39569,29.30012 5.39569,113.83077 0,143.13089 C 915.4356,736.47989 857.55568,833.27674 767.3663,903.88899 703.95192,953.5377 632.36257,982.302 549.83648,991.2844 c -28.01879,3.0571 -88.69453,2.5075 -114.19282,-0.9961 z M 551.20833,929.58927 C 628.74084,919.39778 697.23347,888.32523 756.32352,836.53651 821.44721,779.45797 870.97385,691.26565 882.46956,611.91147 887.98274,573.85567 885.889,501.08628 878.2463,465.12236 860.96701,383.81712 816.05035,310.99277 748.30328,254.43977 671.84941,190.61842 587.06888,162.17018 484.31513,165.85588 c -36.63931,1.30528 -57.66588,4.38643 -91.15149,13.32073 -109.67049,29.26576 -208.80095,118.54352 -252.62439,227.52414 -17.36169,43.17387 -25.06702,81.0167 -26.62438,130.76507 -2.26752,72.4259 12.5741,134.45764 47.13681,197.00462 29.40388,53.21079 80.5882,106.76852 133.44436,139.63411 77.5623,48.22668 166.18192,67.37995 256.71229,55.48472 z"
       inkscape:connector-curvature="0" />
  </g>
</svg>
