<?xml version="1.0" encoding="UTF-8" standalone="no"?>
<!-- Created with Inkscape (http://www.inkscape.org/) -->

<svg
   xmlns:dc="http://purl.org/dc/elements/1.1/"
   xmlns:cc="http://creativecommons.org/ns#"
   xmlns:rdf="http://www.w3.org/1999/02/22-rdf-syntax-ns#"
   xmlns:svg="http://www.w3.org/2000/svg"
   xmlns="http://www.w3.org/2000/svg"
   xmlns:sodipodi="http://sodipodi.sourceforge.net/DTD/sodipodi-0.dtd"
   xmlns:inkscape="http://www.inkscape.org/namespaces/inkscape"
   width="32"
   height="32"
   viewBox="0 0 32 32.000001"
   id="svg4136"
   version="1.1"
   inkscape:version="0.91 r13725"
   sodipodi:docname="clinic.svg">
  <defs
     id="defs4138" />
  <sodipodi:namedview
     id="base"
     pagecolor="#ffffff"
     bordercolor="#666666"
     borderopacity="1.0"
     inkscape:pageopacity="0.0"
     inkscape:pageshadow="2"
     inkscape:zoom="20"
     inkscape:cx="4.0367151"
     inkscape:cy="18.23749"
     inkscape:document-units="px"
     inkscape:current-layer="layer1"
     showgrid="false"
     units="px"
     inkscape:window-width="1920"
     inkscape:window-height="1018"
     inkscape:window-x="-8"
     inkscape:window-y="-8"
     inkscape:window-maximized="1" />
  <metadata
     id="metadata4141">
    <rdf:RDF>
      <cc:Work
         rdf:about="">
        <dc:format>image/svg+xml</dc:format>
        <dc:type
           rdf:resource="http://purl.org/dc/dcmitype/StillImage" />
        <dc:title />
      </cc:Work>
    </rdf:RDF>
  </metadata>
  <g
     inkscape:label="Ebene 1"
     inkscape:groupmode="layer"
     id="layer1"
     transform="translate(0,-1020.3621)">
    <path
       style="opacity:1;fill:#4682be;fill-opacity:1;stroke:none;stroke-width:25;stroke-linecap:butt;stroke-linejoin:round;stroke-miterlimit:4;stroke-dasharray:none;stroke-dashoffset:0;stroke-opacity:1"
       d="m 14.083606,1049.194 c -5.1180639,-0.704 -9.532212,-4.8172 -10.670268,-9.9429 -0.32778,-1.4762 -0.409781,-3.2228 -0.217026,-4.6224 0.788854,-5.7281 5.2131401,-10.2712 10.850372,-11.1417 0.887274,-0.137 3.126757,-0.1544 3.824994,-0.03 2.91084,0.5201 5.333586,1.7846 7.294467,3.8073 1.894064,1.9538 3.024446,4.1863 3.543675,6.9988 0.157479,0.853 0.157479,3.3139 0,4.1669 -0.622992,3.3745 -2.312277,6.1925 -4.944547,8.2482 -1.850814,1.4454 -3.940223,2.2828 -6.348832,2.5443 -0.817757,0.089 -2.588641,0.073 -3.332835,-0.029 z m 3.372874,-1.7676 c 2.262866,-0.2967 4.261894,-1.2013 5.986498,-2.709 1.900702,-1.6617 3.346188,-4.2292 3.681702,-6.5394 0.160908,-1.1079 0.0998,-3.2264 -0.12326,-4.2734 -0.504314,-2.367 -1.815253,-4.4871 -3.792521,-6.1335 -2.231385,-1.858 -4.705792,-2.6862 -7.704766,-2.5789 -1.069356,0.038 -1.683038,0.1277 -2.66035,0.3878 -3.2008464,0.852 -6.0940708,3.4511 -7.373103,6.6238 -0.506719,1.2569 -0.731607,2.3586 -0.77706,3.8069 -0.06618,2.1085 0.366988,3.9144 1.3757363,5.7353 0.8581824,1.5491 2.3520496,3.1083 3.894711,4.0651 2.2637357,1.404 4.8501907,1.9616 7.4924127,1.6153 z"
       id="path4702"
       inkscape:connector-curvature="0" />
    <path
       style="opacity:1;fill:#4682be;fill-opacity:1;stroke:none;stroke-width:25;stroke-linecap:butt;stroke-linejoin:round;stroke-miterlimit:4;stroke-dasharray:none;stroke-dashoffset:0;stroke-opacity:1"
       d="m 12.568378,1042.2185 0,-2.5254 -2.525382,0 -2.5253812,0 0,-3.283 0,-3.283 2.5253812,0 2.525382,0 0,-2.5254 0,-2.5254 3.282995,0 3.282996,0 0,2.5254 0,2.5254 2.588516,0 2.588516,0 0,3.283 0,3.283 -2.588516,0 -2.588516,0 0,2.5254 0,2.5253 -3.282996,0 -3.282995,0 0,-2.5253 z"
       id="path4704"
       inkscape:connector-curvature="0" />
  </g>
</svg>
