<?xml version="1.0" encoding="UTF-8" standalone="no"?>
<!-- Created with Inkscape (http://www.inkscape.org/) -->

<svg
   xmlns:dc="http://purl.org/dc/elements/1.1/"
   xmlns:cc="http://creativecommons.org/ns#"
   xmlns:rdf="http://www.w3.org/1999/02/22-rdf-syntax-ns#"
   xmlns:svg="http://www.w3.org/2000/svg"
   xmlns="http://www.w3.org/2000/svg"
   xmlns:sodipodi="http://sodipodi.sourceforge.net/DTD/sodipodi-0.dtd"
   xmlns:inkscape="http://www.inkscape.org/namespaces/inkscape"
   width="1000"
   height="1000"
   viewBox="0 0 1000 1000"
   id="svg3334"
   version="1.1"
   inkscape:version="0.91 r13725"
   sodipodi:docname="_background_doctor.svg">
  <defs
     id="defs3336" />
  <sodipodi:namedview
     id="base"
     pagecolor="#ffffff"
     bordercolor="#666666"
     borderopacity="1.0"
     inkscape:pageopacity="0.0"
     inkscape:pageshadow="2"
     inkscape:zoom="0.5"
     inkscape:cx="-431.42212"
     inkscape:cy="654.5156"
     inkscape:document-units="px"
     inkscape:current-layer="layer1"
     showgrid="false"
     units="px"
     inkscape:window-width="1920"
     inkscape:window-height="1018"
     inkscape:window-x="-8"
     inkscape:window-y="-8"
     inkscape:window-maximized="1" />
  <metadata
     id="metadata3339">
    <rdf:RDF>
      <cc:Work
         rdf:about="">
        <dc:format>image/svg+xml</dc:format>
        <dc:type
           rdf:resource="http://purl.org/dc/dcmitype/StillImage" />
        <dc:title />
      </cc:Work>
    </rdf:RDF>
  </metadata>
  <g
     inkscape:label="Layer 1"
     inkscape:groupmode="layer"
     id="layer1"
     transform="translate(0,-52.362161)">
    <g
       id="g4140">
      <path
         inkscape:connector-curvature="0"
         id="rect5152"
         d="m 195.4531,456.01566 0,448.693 613.0938,0 0,-448.693 -613.0938,0 z"
         style="fill:#ffffff;fill-opacity:1;stroke:none;stroke-width:29.39274979;stroke-miterlimit:4;stroke-dasharray:none;stroke-opacity:1" />
      <path
         style="fill:#4682be;fill-opacity:1"
         id="path10830"
         d="m 508.19169,141.78682 c -56.8916,-2.85239 -112.68229,16.13279 -162.76495,56.52104 -28.53954,23.00996 -64.11698,70.97489 -81.84817,110.28861 -6.10321,13.52386 -14.54942,43.70813 -18.77766,67.01416 l -7.59328,42.48104 -34.49666,3.25984 C 119.88774,429.20682 85.19652,462.79978 68.31827,551.69094 59.11175,600.19243 52.70174,725.64743 52.6674,859.18716 l 0,112.0299 447.33426,0 447.33094,0 -0.32763,-50.73283 C 946.67735,823.07122 938.68851,609.90132 934.15333,579.47975 925.01496,517.86073 913.62291,486.45086 891.59582,461.73562 868.30754,435.57631 845.30815,426.03149 792.83174,420.84473 757.43856,417.39748 758.85398,418.95526 753.87572,379.08918 743.61327,297.46098 681.68179,207.16317 610.75857,170.59144 576.76989,153.05845 542.26671,143.4978 508.13141,141.7904 Z m -7.99219,138.07886 c 34.67757,-0.036 44.02037,1.70536 59.67125,10.78598 37.47298,21.71293 62.7871,61.6075 71.85734,113.03812 l 2.79588,15.34381 -135.12254,0 -134.9279,0 2.93206,-19.82814 c 6.7855,-46.01884 32.43045,-85.51897 69.39225,-106.67546 19.46982,-11.15338 27.05327,-12.66431 63.40134,-12.66431 z m -65.39943,205.3145 65.19827,0 65.13346,0 0,68.3152 0,68.24488 64.06631,1.29495 64.06575,1.29822 0,141.62811 -64.06575,1.29823 -64.06631,1.29494 0,68.31914 0,0 0,68.31519 -65.19827,0 -65.13346,0 0,-68.45978 0,-68.46376 -65.26262,0 -62.0034,0 -0.85025,-143.94421 64.06579,-1.29494 64.00137,-1.29822 0,-68.24488 0,-68.31379 z"
         inkscape:connector-curvature="0" />
    </g>
  </g>
</svg>
