<?xml version="1.0" encoding="UTF-8" standalone="no"?>
<!-- Created with Inkscape (http://www.inkscape.org/) -->

<svg
   xmlns:dc="http://purl.org/dc/elements/1.1/"
   xmlns:cc="http://creativecommons.org/ns#"
   xmlns:rdf="http://www.w3.org/1999/02/22-rdf-syntax-ns#"
   xmlns:svg="http://www.w3.org/2000/svg"
   xmlns="http://www.w3.org/2000/svg"
   xmlns:sodipodi="http://sodipodi.sourceforge.net/DTD/sodipodi-0.dtd"
   xmlns:inkscape="http://www.inkscape.org/namespaces/inkscape"
   width="352.78mm"
   height="352.78mm"
   viewBox="0 0 1250.0079 1250.0079"
   id="svg31682"
   version="1.1"
   inkscape:version="0.91 r13725"
   sodipodi:docname="health_dentist.svg">
  <defs
     id="defs31684" />
  <sodipodi:namedview
     id="base"
     pagecolor="#ffffff"
     bordercolor="#666666"
     borderopacity="1.0"
     inkscape:pageopacity="0.0"
     inkscape:pageshadow="2"
     inkscape:zoom="0.5"
     inkscape:cx="80"
     inkscape:cy="520"
     inkscape:document-units="px"
     inkscape:current-layer="layer1"
     showgrid="false"
     inkscape:window-width="1920"
     inkscape:window-height="1018"
     inkscape:window-x="-8"
     inkscape:window-y="-8"
     inkscape:window-maximized="1" />
  <metadata
     id="metadata31687">
    <rdf:RDF>
      <cc:Work
         rdf:about="">
        <dc:format>image/svg+xml</dc:format>
        <dc:type
           rdf:resource="http://purl.org/dc/dcmitype/StillImage" />
        <dc:title></dc:title>
      </cc:Work>
    </rdf:RDF>
  </metadata>
  <g
     inkscape:label="Layer 1"
     inkscape:groupmode="layer"
     id="layer1"
     transform="translate(0,197.64569)">
    <path
       d="m 445.12474,94.981687 c -15.3663,-0.207 -27.9754,7.619003 -39.0761,24.097003 -22.723,33.73 -22.2377,75.026 1.9316,160.186 25.4111,89.598 26.4604,99.009 26.0039,226.115 -0.4311,125.839 1.7579,143.752 22.9336,187.676 15.0895,31.371 30.8482,50.337 49.28519,59.441 41.3375,20.517 49.9971,-1.523 31.205,-79.402 -9.4847,-39.486 -9.9162,-44.094 -8.4199,-90.098 1.8259,-55.793 4.835,-68.368 20.457,-85.74 15.267,-16.941 34.4818,-22.836 73.2579,-22.836 40.1709,0 58.1373,4.859 73.455,19.518 16.4589,15.47 22.409,36.951 24.7168,87.621 1.7499,38.142 1.2496,43.348 -9.8574,92.674 -13.4411,60.535 -14.128,69.706 -5.1504,78.658 8.09,8.065 20.2257,8.159 37.4961,0.355 55.3872,-25.132 81.96021,-123.322 73.10941,-269.703 -5.4018,-89.04 -3.4306,-101.984 35.168,-244.687 8.521,-31.549 9.8129,-41.028 8.5195,-62.559 -2.0542,-32.309 -16,-63.026 -33.9805,-74.844 -8.426,-5.495003 -11.6837,-6.990003 -22.38871,-6.191003 l 0,-0.02 c -3.5682,0.254 -7.9891,0.761 -13.6699,1.496 -30.0267,3.830003 -30.0666,3.821003 -71.2773,22.486003 -40.0695,18.133 -58.8708,22.639 -94.7051,22.588 -34.2873,0 -58.1291,-5.927 -96.043,-23.527 -30.534,-14.151 -49.35259,-19.688003 -78.11129,-22.984003 -1.65,-0.193 -3.2698,-0.301 -4.8594,-0.323 z"
       id="path10272"
       inkscape:connector-curvature="0"
       style="fill:#4682be;fill-opacity:1" />
  </g>
</svg>
