<?xml version="1.0" encoding="UTF-8" standalone="no"?>
<!-- Created with Inkscape (http://www.inkscape.org/) -->

<svg
   xmlns:dc="http://purl.org/dc/elements/1.1/"
   xmlns:cc="http://creativecommons.org/ns#"
   xmlns:rdf="http://www.w3.org/1999/02/22-rdf-syntax-ns#"
   xmlns:svg="http://www.w3.org/2000/svg"
   xmlns="http://www.w3.org/2000/svg"
   xmlns:sodipodi="http://sodipodi.sourceforge.net/DTD/sodipodi-0.dtd"
   xmlns:inkscape="http://www.inkscape.org/namespaces/inkscape"
   width="32"
   height="32"
   id="svg5468"
   version="1.1"
   inkscape:version="0.91 r13725"
   viewBox="0 0 32 32"
   sodipodi:docname="health_pharmacy.svg">
  <defs
     id="defs5470" />
  <sodipodi:namedview
     id="base"
     pagecolor="#ffffff"
     bordercolor="#666666"
     borderopacity="1.0"
     inkscape:pageopacity="0.0"
     inkscape:pageshadow="2"
     inkscape:zoom="21.066667"
     inkscape:cx="11.790724"
     inkscape:cy="16"
     inkscape:current-layer="layer1"
     showgrid="true"
     inkscape:grid-bbox="true"
     inkscape:document-units="px"
     inkscape:window-width="1920"
     inkscape:window-height="1018"
     inkscape:window-x="-8"
     inkscape:window-y="-8"
     inkscape:window-maximized="1" />
  <metadata
     id="metadata5473">
    <rdf:RDF>
      <cc:Work
         rdf:about="">
        <dc:format>image/svg+xml</dc:format>
        <dc:type
           rdf:resource="http://purl.org/dc/dcmitype/StillImage" />
        <dc:title></dc:title>
      </cc:Work>
    </rdf:RDF>
  </metadata>
  <g
     id="layer1"
     inkscape:label="Layer 1"
     inkscape:groupmode="layer">
    <path
       inkscape:connector-curvature="0"
       style="fill:#4682be;fill-opacity:1"
       d="m 14.86674,1.68431 c -0.290456,0.0267 -0.40875,0.32727 -0.313137,0.5401 0.02595,0.29269 0.04996,0.58559 0.0724,0.87879 0.36879,-0.0579 0.741492,-0.0912 1.112542,-0.0977 0.52466,-0.0114 1.060647,0.003 1.590281,0.0586 0.0033,-0.0398 0.0068,-0.0794 0.01134,-0.11924 0.0229,-0.22914 0.220348,-0.55207 -0.05969,-0.72254 C 16.844528,1.98231 16.320192,2.38031 15.875967,2.19542 15.532354,2.03784 15.292065,1.67988 14.866996,1.68434 Z m 1.14178,2.00872 c -2.678009,-0.002 -5.222668,1.36132 -5.269917,3.48824 0.171628,4.26376 7.844602,3.79828 7.991989,5.64931 0.193278,2.42753 -7.717823,1.70164 -7.586972,5.57159 0.09902,2.98118 7.464734,3.25943 7.469942,4.825 0.0057,1.81482 -5.298679,2.32767 -8.213482,3.71654 0.308951,0.48908 10.375229,-0.6474 10.407184,-3.80038 0.02921,-2.87429 -7.458983,-3.24716 -7.444801,-5.00957 0.01357,-1.67725 7.827834,-1.80845 7.773896,-5.36218 -0.05402,-3.55366 -7.719175,-3.32014 -7.954163,-5.62589 -0.01019,-1.17939 1.712101,-1.53857 2.997167,-1.3818 0.667741,0.0815 1.244746,0.72136 1.909086,1.26846 0.347251,0.28595 0.951994,0.43874 1.311148,0.52143 0.359031,0.0827 0.516623,0.0425 0.803346,-0.0308 0.191352,-0.0488 -0.21219,-0.65864 -0.05369,-0.76719 0.135489,-0.0926 0.84063,0.32495 0.91893,0.18638 0.08959,-0.15868 0.126632,-0.3504 0.08236,-0.57601 0.108413,-1.0149 -1.800336,-2.58385 -3.993582,-2.58617 -0.38111,-0.0578 -0.765979,-0.0866 -1.148442,-0.087 z m 3.096972,0.89751 c 0.443775,0 0.80347,0.35294 0.80347,0.78851 0,0.43571 -0.359695,0.78862 -0.80347,0.78862 -0.443893,0 -0.803709,-0.35291 -0.803709,-0.78862 0,-0.43557 0.359935,-0.78851 0.803709,-0.78851 z M 15.43299,6.41899 c -0.20824,0.004 -0.415344,0.0318 -0.614945,0.0814 0.01769,0.4555 0.03216,0.91044 0.04496,1.36552 0.282448,0.14292 0.585733,0.2609 0.879268,0.37199 0.409113,0.15135 0.828974,0.29114 1.249835,0.43067 0.0203,-0.51575 0.04192,-1.03118 0.06619,-1.54678 C 16.801119,6.88594 16.540325,6.65477 16.203936,6.50584 15.957085,6.44274 15.694573,6.41334 15.43299,6.41904 Z m -0.955516,5.27047 c -0.268144,0.006 -0.530868,0.10674 -0.628649,0.33103 -0.09697,0.36433 0.20562,0.68847 0.280851,1.03475 0.165843,0.46079 0.329006,0.92439 0.472656,1.39167 0.738209,-0.22918 1.490812,-0.42791 2.203876,-0.7049 0.01216,-0.26244 0.02528,-0.52456 0.04249,-0.78652 0.05075,-0.19172 0.143077,-0.37899 0.223062,-0.56835 -0.153163,-0.0553 -0.308136,-0.10601 -0.45657,-0.15835 -0.5524,-0.17928 -1.121123,-0.34304 -1.684998,-0.51841 0,0.022 0.0011,0.0439 0.0011,0.066 -0.130308,-0.0595 -0.293199,-0.0903 -0.454072,-0.087 z m 2.225199,5.40845 c -0.583027,0.19106 -1.165452,0.38164 -1.729986,0.60972 0,0.31891 0.0011,0.63752 0.0022,0.95643 0.561946,0.2661 1.154007,0.48283 1.751157,0.69113 0.151717,-0.62508 0.388816,-1.2338 0.588778,-1.84617 -0.0022,-0.25807 -0.367612,-0.36503 -0.61618,-0.30923 0.0011,-0.0339 0.0022,-0.0679 0.0033,-0.10188 z m -1.728632,5.00692 c 0,0.21629 -0.0022,0.43247 -0.0033,0.64876 -0.247185,-0.01 -0.478649,0.22207 -0.339188,0.42632 0.195415,0.48942 0.391314,0.98948 0.360385,1.5109 0.530868,-0.15812 1.056107,-0.32815 1.561618,-0.53789 0.0091,-0.50319 0.01937,-1.00579 0.02606,-1.50888 -0.271427,-0.10041 -0.550024,-0.18969 -0.825544,-0.27776 -0.257422,-0.0881 -0.517979,-0.17471 -0.779588,-0.26145 z m 1.576581,4.81066 c -0.511745,0.14509 -1.031531,0.27022 -1.556645,0.37641 0.0057,0.70623 0.01145,1.41234 0.01881,2.11849 0.604287,-0.3244 1.323586,-0.60316 1.653826,-1.18441 0.08589,-0.21349 -0.138557,-0.39755 -0.08983,-0.61395 -0.01134,-0.23217 -0.01993,-0.46426 -0.02617,-0.69654 z"
       id="path3964" />
  </g>
</svg>
