<?xml version="1.0" encoding="UTF-8" standalone="no"?>
<!-- Created with Inkscape (http://www.inkscape.org/) -->

<svg
   xmlns:dc="http://purl.org/dc/elements/1.1/"
   xmlns:cc="http://creativecommons.org/ns#"
   xmlns:rdf="http://www.w3.org/1999/02/22-rdf-syntax-ns#"
   xmlns:svg="http://www.w3.org/2000/svg"
   xmlns="http://www.w3.org/2000/svg"
   xmlns:sodipodi="http://sodipodi.sourceforge.net/DTD/sodipodi-0.dtd"
   xmlns:inkscape="http://www.inkscape.org/namespaces/inkscape"
   width="32"
   height="32"
   id="svg13931"
   version="1.1"
   inkscape:version="0.91 r13725"
   viewBox="0 0 32 32"
   sodipodi:docname="health_doctor.svg">
  <defs
     id="defs13933" />
  <sodipodi:namedview
     id="base"
     pagecolor="#ffffff"
     bordercolor="#666666"
     borderopacity="1.0"
     inkscape:pageopacity="0.0"
     inkscape:pageshadow="2"
     inkscape:zoom="20"
     inkscape:cx="11.871489"
     inkscape:cy="16"
     inkscape:current-layer="layer1"
     showgrid="true"
     inkscape:grid-bbox="true"
     inkscape:document-units="px"
     inkscape:window-width="1920"
     inkscape:window-height="1018"
     inkscape:window-x="-8"
     inkscape:window-y="-8"
     inkscape:window-maximized="1" />
  <metadata
     id="metadata13936">
    <rdf:RDF>
      <cc:Work
         rdf:about="">
        <dc:format>image/svg+xml</dc:format>
        <dc:type
           rdf:resource="http://purl.org/dc/dcmitype/StillImage" />
        <dc:title></dc:title>
      </cc:Work>
    </rdf:RDF>
  </metadata>
  <g
     id="layer1"
     inkscape:label="Layer 1"
     inkscape:groupmode="layer">
    <path
       inkscape:connector-curvature="0"
       d="m 16.654016,7.3510742 c -1.441276,-0.060883 -2.854662,0.3443473 -4.123442,1.2064168 -0.723013,0.4911376 -1.624322,1.514928 -2.073519,2.354062 -0.154617,0.288661 -0.368591,0.932931 -0.475708,1.430388 L 9.788981,13.24868 8.9150522,13.31826 C 6.8168315,13.485928 5.9379736,14.202955 5.5103847,16.100298 5.2771493,17.135541 5.1147599,19.813323 5.11389,22.66367 l 0,2.391229 11.332642,0 11.332558,0 -0.0083,-1.08287 c -0.0083,-2.079238 -0.210687,-6.629256 -0.32558,-7.278591 -0.231509,-1.315231 -0.520112,-1.985661 -1.07814,-2.513197 -0.589979,-0.558359 -1.172639,-0.762089 -2.502062,-0.872798 -0.896641,-0.07358 -0.860783,-0.04033 -0.986901,-0.891254 C 22.618121,10.673871 21.049166,8.7465037 19.252417,7.9658961 18.391357,7.5916622 17.517263,7.3875944 16.652489,7.3511507 Z m -0.202472,2.9472328 c 0.878512,-7.69e-4 1.1152,0.0364 1.511695,0.230222 0.94933,0.463453 1.590631,1.314985 1.820414,2.412749 l 0.07083,0.327507 -3.423157,0 -3.418226,0 0.07428,-0.423223 c 0.171902,-0.982252 0.821584,-1.825365 1.757964,-2.276941 0.493243,-0.238064 0.68536,-0.270314 1.606192,-0.270314 z m -1.656811,4.382348 1.651715,0 1.650073,0 0,1.458158 0,1.456657 1.623038,0.02764 1.623024,0.02771 0,3.02299 -1.623024,0.02771 -1.623038,0.02764 0,1.458242 0,0 0,1.458158 -1.651715,0 -1.650073,0 0,-1.461244 0,-1.461329 -1.653345,0 -1.570777,0 -0.02154,-3.072426 1.623025,-0.02764 1.621393,-0.02771 0,-1.456657 0,-1.458128 z"
       id="path10830"
       style="fill:#4682be;fill-opacity:1" />
  </g>
</svg>
