<?xml version="1.0" encoding="UTF-8" standalone="no"?>
<!-- Created with Inkscape (http://www.inkscape.org/) -->

<svg
   xmlns:dc="http://purl.org/dc/elements/1.1/"
   xmlns:cc="http://creativecommons.org/ns#"
   xmlns:rdf="http://www.w3.org/1999/02/22-rdf-syntax-ns#"
   xmlns:svg="http://www.w3.org/2000/svg"
   xmlns="http://www.w3.org/2000/svg"
   xmlns:sodipodi="http://sodipodi.sourceforge.net/DTD/sodipodi-0.dtd"
   xmlns:inkscape="http://www.inkscape.org/namespaces/inkscape"
   width="1000"
   height="1000"
   id="svg5468"
   version="1.1"
   inkscape:version="0.91 r13725"
   viewBox="0 0 1000 1000"
   sodipodi:docname="health_pharmacy.svg">
  <defs
     id="defs5470" />
  <sodipodi:namedview
     id="base"
     pagecolor="#ffffff"
     bordercolor="#666666"
     borderopacity="1.0"
     inkscape:pageopacity="0.0"
     inkscape:pageshadow="2"
     inkscape:zoom="0.5"
     inkscape:cx="9.7676935"
     inkscape:cy="416"
     inkscape:current-layer="layer1"
     showgrid="true"
     inkscape:grid-bbox="true"
     inkscape:document-units="px"
     inkscape:window-width="1920"
     inkscape:window-height="1018"
     inkscape:window-x="-8"
     inkscape:window-y="-8"
     inkscape:window-maximized="1" />
  <metadata
     id="metadata5473">
    <rdf:RDF>
      <cc:Work
         rdf:about="">
        <dc:format>image/svg+xml</dc:format>
        <dc:type
           rdf:resource="http://purl.org/dc/dcmitype/StillImage" />
        <dc:title></dc:title>
      </cc:Work>
    </rdf:RDF>
  </metadata>
  <g
     id="layer1"
     inkscape:label="Layer 1"
     inkscape:groupmode="layer"
     transform="translate(0,968)">
    <path
       inkscape:connector-curvature="0"
       style="fill:#4682be;fill-opacity:1"
       d="m 459.8864,-904.31536 c -9.46062,0.81828 -13.31365,10.0299 -10.19938,16.55254 0.84524,8.97012 1.62728,17.94667 2.35819,26.93242 12.01208,-1.77447 24.15159,-2.79502 36.23728,-2.99423 17.08903,-0.34938 34.54699,0.0919 51.79802,1.79593 0.10749,-1.21976 0.22149,-2.43339 0.36936,-3.65437 0.74589,-7.02249 7.17709,-16.91938 -1.9442,-22.1438 -14.19953,-7.35563 -31.27799,4.84194 -45.74712,-0.82441 -11.19203,-4.82938 -19.01863,-15.79984 -32.86381,-15.66316 z m 37.18962,61.56158 c -87.22708,-0.0613 -170.11072,41.7206 -171.6497,106.90466 5.5902,130.67216 255.51134,116.40652 260.31197,173.13534 6.29538,74.39691 -251.38194,52.15044 -247.11991,170.75344 3.22524,91.36471 243.13842,99.89229 243.30805,147.87257 0.18566,55.61908 -172.58652,71.33648 -267.52635,113.90141 10.06303,14.98892 337.93794,-19.84097 338.97877,-116.47087 0.95141,-88.08884 -242.95111,-99.51625 -242.48918,-153.52912 0.442,-51.40296 254.96518,-55.42386 253.20833,-164.33561 -1.75952,-108.90961 -251.42598,-101.75288 -259.07992,-172.41758 -0.3319,-36.14496 55.7659,-47.15281 97.62257,-42.34825 21.7494,2.49774 40.54338,22.10763 62.18201,38.8747 11.31052,8.76356 31.00798,13.44614 42.7062,15.98035 11.69422,2.53452 16.82725,1.3025 26.16628,-0.94393 6.23264,-1.49558 -6.91137,-20.18545 -1.74877,-23.5122 4.41309,-2.83793 27.38067,9.95879 29.93103,5.71202 2.91809,-4.86309 4.12461,-10.73877 2.6826,-17.65308 3.53118,-31.1038 -58.63985,-79.18767 -130.07741,-79.25877 -12.41337,-1.77141 -24.94917,-2.65405 -37.40661,-2.66631 z m 100.87337,27.50613 c 14.45447,0 26.17031,10.81662 26.17031,24.1656 0,13.35328 -11.71584,24.16897 -26.17031,24.16897 -14.45831,0 -26.1781,-10.81569 -26.1781,-24.16897 0,-13.34898 11.72366,-24.1656 26.1781,-24.1656 z m -119.61931,56.03681 c -6.78272,0.12259 -13.52843,0.97458 -20.02976,2.49468 0.5762,13.95979 1.04751,27.90241 1.46442,41.84932 9.19979,4.38009 19.07827,7.99584 28.63918,11.40044 13.32547,4.63845 27.00102,8.92261 40.70914,13.19881 0.66121,-15.80627 1.3654,-31.60274 2.15592,-47.40442 -8.37674,-7.22813 -16.87122,-14.31284 -27.82795,-18.87712 -8.04034,-1.93384 -16.59077,-2.83486 -25.11095,-2.66017 z m -31.1227,161.52497 c -8.73388,0.18388 -17.29123,3.27127 -20.47611,10.14513 -3.15847,11.16568 6.69737,21.09965 9.14777,31.71215 5.40177,14.12191 10.71625,28.32993 15.39516,42.65074 24.04466,-7.02372 48.55816,-13.11423 71.7838,-21.60319 0.39607,-8.04304 0.82341,-16.07627 1.38397,-24.1046 1.65301,-5.87568 4.66025,-11.61497 7.26549,-17.41832 -4.98877,-1.69479 -10.03649,-3.24891 -14.87122,-4.85298 -17.99256,-5.49442 -36.51679,-10.5132 -54.88311,-15.88779 0,0.67423 0.0358,1.34541 0.0358,2.02271 -4.24434,-1.82351 -9.54996,-2.76744 -14.78986,-2.66631 z m 72.47832,165.75366 c -18.99013,5.85544 -37.96065,11.69618 -56.34844,18.68618 0,9.77369 0.0358,19.53819 0.0717,29.31187 18.30349,8.15521 37.58787,14.79737 57.03801,21.18118 4.94167,-19.15693 12.66436,-37.81247 19.17745,-56.57988 -0.0717,-7.90911 -11.97372,-11.18713 -20.06998,-9.47702 0.0358,-1.03894 0.0717,-2.08094 0.10749,-3.12233 z m -56.30433,153.4479 c 0,6.62867 -0.0717,13.25398 -0.10749,19.88265 -8.05121,-0.30647 -15.59037,6.80582 -11.0479,13.0655 6.36498,14.99934 12.74573,30.32476 11.73832,46.3048 17.29123,-4.84593 34.39911,-10.05686 50.86442,-16.4848 0.2964,-15.42135 0.63091,-30.82461 0.84881,-46.24289 -8.84081,-3.07729 -17.91517,-5.81346 -26.8893,-8.51256 -8.38465,-2.70002 -16.87141,-5.35437 -25.39243,-8.0127 z m 51.35178,147.43309 c -16.66836,4.4466 -33.59863,8.28147 -50.70244,11.5359 0.18566,21.643945 0.37295,43.284214 0.61268,64.92571 19.6826,-9.94194 43.11133,-18.485144 53.86778,-36.298809 2.79757,-6.542863 -4.51303,-12.183781 -2.92591,-18.815831 -0.36936,-7.11535 -0.64915,-14.22825 -0.8524,-21.34697 z"
       id="path3964" />
  </g>
</svg>
