<?xml version="1.0" encoding="UTF-8" standalone="no"?>
<!-- Created with Inkscape (http://www.inkscape.org/) -->

<svg
   xmlns:dc="http://purl.org/dc/elements/1.1/"
   xmlns:cc="http://creativecommons.org/ns#"
   xmlns:rdf="http://www.w3.org/1999/02/22-rdf-syntax-ns#"
   xmlns:svg="http://www.w3.org/2000/svg"
   xmlns="http://www.w3.org/2000/svg"
   xmlns:sodipodi="http://sodipodi.sourceforge.net/DTD/sodipodi-0.dtd"
   xmlns:inkscape="http://www.inkscape.org/namespaces/inkscape"
   width="1000"
   height="1000"
   id="svg13931"
   version="1.1"
   inkscape:version="0.91 r13725"
   viewBox="0 0 1000 1000"
   sodipodi:docname="health_doctor.svg">
  <defs
     id="defs13933" />
  <sodipodi:namedview
     id="base"
     pagecolor="#ffffff"
     bordercolor="#666666"
     borderopacity="1.0"
     inkscape:pageopacity="0.0"
     inkscape:pageshadow="2"
     inkscape:zoom="0.5"
     inkscape:cx="349.17333"
     inkscape:cy="441.7418"
     inkscape:current-layer="layer1"
     showgrid="true"
     inkscape:grid-bbox="true"
     inkscape:document-units="px"
     inkscape:window-width="1280"
     inkscape:window-height="1002"
     inkscape:window-x="1912"
     inkscape:window-y="-8"
     inkscape:window-maximized="1" />
  <metadata
     id="metadata13936">
    <rdf:RDF>
      <cc:Work
         rdf:about="">
        <dc:format>image/svg+xml</dc:format>
        <dc:type
           rdf:resource="http://purl.org/dc/dcmitype/StillImage" />
        <dc:title></dc:title>
      </cc:Work>
    </rdf:RDF>
  </metadata>
  <g
     id="layer1"
     inkscape:label="Layer 1"
     inkscape:groupmode="layer"
     transform="translate(0,968)">
    <path
       inkscape:connector-curvature="0"
       d="m 500.63818,-904.37534 c -56.8916,-2.85239 -112.68229,16.13279 -162.76495,56.52104 -28.53954,23.00996 -64.11698,70.97489 -81.84817,110.28861 -6.10321,13.52386 -14.54942,43.70813 -18.77766,67.01416 l -7.59328,42.48104 -34.49666,3.25984 c -82.82323,7.85531 -117.514454,41.44827 -134.392704,130.33943 -9.206519,48.50149 -15.616528,173.95649 -15.650866,307.49622 l 0,112.029899 447.33426,0 447.33094,0 -0.32763,-50.732829 c -0.32762,-97.41301 -8.31646,-310.58291 -12.85164,-341.00448 -9.13837,-61.61902 -20.53042,-93.02889 -42.55751,-117.74413 -23.28828,-26.15931 -46.28767,-35.70413 -98.76408,-40.89089 -35.39318,-3.44725 -33.97776,-1.88947 -38.95602,-41.75555 -10.26245,-81.6282 -72.19393,-171.92601 -143.11715,-208.49774 -33.98868,-17.53299 -68.49186,-27.09364 -102.62716,-28.80104 z m -7.99219,138.07886 c 34.67757,-0.036 44.02037,1.70536 59.67125,10.78598 37.47298,21.71293 62.7871,61.6075 71.85734,113.03812 l 2.79588,15.34381 -135.12254,0 -134.9279,0 2.93206,-19.82814 c 6.7855,-46.01884 32.43045,-85.51897 69.39225,-106.67546 19.46982,-11.15338 27.05327,-12.66431 63.40134,-12.66431 z m -65.39943,205.3145 65.19827,0 65.13346,0 0,68.3152 0,68.24488 64.06631,1.29495 64.06575,1.29822 0,141.62811 -64.06575,1.29823 -64.06631,1.29494 0,68.31914 0,0 0,68.31519 -65.19827,0 -65.13346,0 0,-68.45978 0,-68.46376 -65.26262,0 -62.0034,0 -0.85025,-143.94421 64.06579,-1.29494 64.00137,-1.29822 0,-68.24488 0,-68.31379 z"
       id="path10830"
       style="fill:#4682be;fill-opacity:1" />
  </g>
</svg>
