<?xml version="1.0" encoding="UTF-8" standalone="no"?>
<!-- Created with Inkscape (http://www.inkscape.org/) -->

<svg
   xmlns:dc="http://purl.org/dc/elements/1.1/"
   xmlns:cc="http://creativecommons.org/ns#"
   xmlns:rdf="http://www.w3.org/1999/02/22-rdf-syntax-ns#"
   xmlns:svg="http://www.w3.org/2000/svg"
   xmlns="http://www.w3.org/2000/svg"
   xmlns:sodipodi="http://sodipodi.sourceforge.net/DTD/sodipodi-0.dtd"
   xmlns:inkscape="http://www.inkscape.org/namespaces/inkscape"
   width="1000"
   height="1000"
   id="svg3346"
   version="1.1"
   inkscape:version="0.91 r13725"
   viewBox="0 0 1000 1000"
   sodipodi:docname="health_dentist.svg">
  <defs
     id="defs3348" />
  <sodipodi:namedview
     id="base"
     pagecolor="#ffffff"
     bordercolor="#666666"
     borderopacity="1.0"
     inkscape:pageopacity="0.0"
     inkscape:pageshadow="2"
     inkscape:zoom="0.5"
     inkscape:cx="10.362973"
     inkscape:cy="615.32429"
     inkscape:current-layer="layer1"
     showgrid="true"
     inkscape:grid-bbox="true"
     inkscape:document-units="px"
     inkscape:window-width="1920"
     inkscape:window-height="1018"
     inkscape:window-x="-8"
     inkscape:window-y="-8"
     inkscape:window-maximized="1" />
  <metadata
     id="metadata3351">
    <rdf:RDF>
      <cc:Work
         rdf:about="">
        <dc:format>image/svg+xml</dc:format>
        <dc:type
           rdf:resource="http://purl.org/dc/dcmitype/StillImage" />
        <dc:title></dc:title>
      </cc:Work>
    </rdf:RDF>
  </metadata>
  <g
     id="layer1"
     inkscape:label="Layer 1"
     inkscape:groupmode="layer"
     transform="translate(0,968)">
    <path
       style="fill:#4682be;fill-opacity:1"
       id="path10272"
       inkscape:connector-curvature="0"
       d="m 332.73033,-30.531436 c -27.41269,-12.109949 -50.82847,-37.341822 -73.2639,-79.068864 -31.485,-58.4246 -34.72776,-82.27344 -34.08674,-249.65386 0.67871,-169.06703 -0.94267,-181.58178 -38.72467,-300.75852 -35.93437,-113.27354 -36.6508,-168.15628 -2.8657,-213.02043 18.21228,-24.18612 39.21484,-34.37334 65.38321,-31.64099 42.75928,4.38522 70.69986,11.77257 116.09858,30.59531 56.37135,23.41031 91.81554,31.16877 142.79483,31.26996 53.27941,0.0673 81.25769,-5.90319 140.8341,-30.02186 61.27319,-24.8271 61.3486,-24.8271 105.99319,-29.92067 33.7851,-3.84555 36.91476,-3.47443 53.61877,6.27422 26.73397,15.71929 47.43488,56.53562 50.48911,99.51076 1.92304,28.63884 0,41.25474 -12.66941,83.21792 -57.38943,189.81248 -60.29282,207.01603 -52.26132,325.45066 13.15959,194.70371 -26.35691,325.315747 -108.70809,358.744605 -25.67817,10.389594 -43.73963,10.254664 -55.76803,-0.472255 -13.34813,-11.907555 -12.29235,-24.118701 7.69215,-104.63806 16.51548,-65.60961 17.1942,-72.52476 14.59243,-123.25837 -3.43129,-67.39744 -12.25463,-95.96882 -36.7262,-116.54562 -22.77478,-19.49735 -49.50875,-25.90652 -109.23597,-25.90652 -57.65337,0 -86.15954,7.82593 -108.85891,30.35921 -23.22726,23.10672 -27.71433,39.83802 -30.42921,114.04941 -2.22469,61.19067 -1.58368,67.32997 12.51859,119.85139 27.94058,103.592359 15.04492,132.872126 -46.41681,105.582574 z" />
  </g>
</svg>
