<?xml version="1.0" encoding="UTF-8" standalone="no"?>
<!-- Created with Inkscape (http://www.inkscape.org/) -->

<svg
   xmlns:dc="http://purl.org/dc/elements/1.1/"
   xmlns:cc="http://creativecommons.org/ns#"
   xmlns:rdf="http://www.w3.org/1999/02/22-rdf-syntax-ns#"
   xmlns:svg="http://www.w3.org/2000/svg"
   xmlns="http://www.w3.org/2000/svg"
   xmlns:sodipodi="http://sodipodi.sourceforge.net/DTD/sodipodi-0.dtd"
   xmlns:inkscape="http://www.inkscape.org/namespaces/inkscape"
   width="32"
   height="32"
   id="svg11135"
   version="1.1"
   inkscape:version="0.91 r13725"
   viewBox="0 0 32 32"
   sodipodi:docname="leisure_stadium.svg">
  <defs
     id="defs11137" />
  <sodipodi:namedview
     id="base"
     pagecolor="#ffffff"
     bordercolor="#666666"
     borderopacity="1.0"
     inkscape:pageopacity="0.0"
     inkscape:pageshadow="2"
     inkscape:zoom="20"
     inkscape:cx="11.871489"
     inkscape:cy="16"
     inkscape:current-layer="layer1"
     showgrid="true"
     inkscape:grid-bbox="true"
     inkscape:document-units="px"
     inkscape:window-width="1920"
     inkscape:window-height="1018"
     inkscape:window-x="-8"
     inkscape:window-y="-8"
     inkscape:window-maximized="1" />
  <metadata
     id="metadata11140">
    <rdf:RDF>
      <cc:Work
         rdf:about="">
        <dc:format>image/svg+xml</dc:format>
        <dc:type
           rdf:resource="http://purl.org/dc/dcmitype/StillImage" />
        <dc:title></dc:title>
      </cc:Work>
    </rdf:RDF>
  </metadata>
  <g
     id="layer1"
     inkscape:label="Layer 1"
     inkscape:groupmode="layer">
    <path
       inkscape:connector-curvature="0"
       style="color:#000000;font-style:normal;font-variant:normal;font-weight:normal;font-stretch:normal;font-size:medium;line-height:normal;font-family:Sans;-inkscape-font-specification:Sans;text-indent:0;text-align:start;text-decoration:none;text-decoration-line:none;letter-spacing:normal;word-spacing:normal;text-transform:none;direction:ltr;block-progression:tb;writing-mode:lr-tb;baseline-shift:baseline;text-anchor:start;display:inline;overflow:visible;visibility:visible;fill:#821432;fill-opacity:1;stroke:none;stroke-width:20;marker:none;enable-background:accumulate"
       d="m 15.719976,8.0105 c -3.627849,0 -6.9099891,0.36178 -9.3611469,0.9733334 -1.2255858,0.3057717 -2.2425844,0.666465 -3.0249621,1.1279656 -0.782364,0.46151 -1.421977,1.096449 -1.421977,1.921299 0,0.374046 0.1317552,0.708959 0.3485236,1.006419 -0.030352,0.01036 -0.047597,0.0315 -0.047597,0.0647 0,0.739711 1.7113556,8.686856 2.3926198,9.10071 0.6812366,0.413894 1.5667835,0.737467 2.6339181,1.011722 2.134283,0.548431 4.9937025,0.872859 8.1525585,0.872859 3.158869,0 6.015764,-0.324428 8.150033,-0.872859 1.067135,-0.274255 1.955207,-0.597828 2.636457,-1.011722 0.657314,-0.399343 2.455117,-7.546041 2.580581,-8.712073 0.457322,-0.39722 0.772086,-0.881703 0.772086,-1.459748 0,-0.82485 -0.639613,-1.459789 -1.421991,-1.921299 C 27.326702,9.6503084 26.306778,9.2896152 25.081192,8.9838435 22.630062,8.3722901 19.347798,8.0105101 15.719949,8.0105101 Z m 0,1.6222694 c 0.90947,0 1.795886,0.024955 2.649743,0.070941 l -0.228151,3.2130836 c -0.751308,-0.02697 -1.503003,-0.03824 -2.253069,-0.03582 -0.754634,0.008 -1.510729,0.03039 -2.265832,0.06903 l -0.0476,0.02435 -0.0055,-0.02194 c -1.19751,0.06259 -2.392412,0.168599 -3.5752709,0.333867 l 0.022764,0.04377 -0.031732,0.04709 -0.063325,-0.0804 C 9.157324,13.405201 8.397793,13.538691 7.6460018,13.701544 7.3786698,13.645395 7.1202226,13.587193 6.8752958,13.526043 5.77098,13.250489 4.9023199,12.920648 4.3817004,12.613487 3.861081,12.306438 3.7802206,12.095274 3.7802206,12.033088 c 0,-0.06219 0.080847,-0.270895 0.6014798,-0.577945 0.5206195,-0.30712 1.3892796,-0.636921 2.4935954,-0.912404 0.2368421,-0.05917 0.4867356,-0.115539 0.7445619,-0.170018 l 2.3021295,2.924026 c 0.024144,-0.003 0.048149,-0.007 0.072293,-0.01037 L 8.3980138,10.22138 C 9.6921399,9.9894376 11.190342,9.8149826 12.816712,9.7184623 l 0.752839,3.2340537 c 0.01752,-7.45e-4 0.03518,-10e-4 0.0527,-0.002 l 0.04442,-0.02274 -0.230027,-3.2414798 c 0.740271,-0.034213 1.502603,-0.05303 2.282884,-0.05303 z m 3.26575,0.1082331 c 1.627598,0.1093803 3.117757,0.2973795 4.391712,0.5420815 l -1.519696,2.917907 c -1.196793,-0.145988 -2.403809,-0.23478 -3.612204,-0.280675 l 0.740188,-3.1793135 z m 5.148939,0.6990375 c 0.14787,0.03341 0.292263,0.06762 0.43264,0.102709 1.104316,0.275483 1.97001,0.605284 2.49063,0.912404 0.520619,0.30705 0.604404,0.515708 0.604404,0.577945 0,0.06219 -0.08374,0.27335 -0.604404,0.580399 -0.52062,0.307161 -1.386314,0.637002 -2.49063,0.912556 -0.08443,0.02103 -0.172799,0.04126 -0.259937,0.06178 -0.77897,-0.152921 -1.565045,-0.2766 -2.355687,-0.375063 l 2.182984,-2.77269 z M 3.5011478,14.049378 c 0.7581375,0.416761 1.7175502,0.75101 2.8576813,1.035439 2.4511578,0.611554 5.7332979,0.973334 9.3611469,0.973334 3.627849,0 6.910114,-0.36178 9.361244,-0.973334 1.069397,-0.266789 1.98204,-0.57734 2.71711,-0.958742 -1.695848,4.677581 -4.175082,7.049291 -7.424083,8.080303 l 0,-2.923874 c 0.03353,-3.079714 -7.978531,-3.578446 -8.787288,0 l 0,3.290343 c 0,0.003 5.39e-4,0.007 5.39e-4,0.01037 -3.9024801,-0.698077 -6.8005433,-2.85967 -8.0863502,-8.53385 z"
       id="path8348" />
  </g>
</svg>
