<?xml version="1.0" encoding="UTF-8" standalone="no"?>
<!-- Created with Inkscape (http://www.inkscape.org/) -->

<svg
   xmlns:dc="http://purl.org/dc/elements/1.1/"
   xmlns:cc="http://creativecommons.org/ns#"
   xmlns:rdf="http://www.w3.org/1999/02/22-rdf-syntax-ns#"
   xmlns:svg="http://www.w3.org/2000/svg"
   xmlns="http://www.w3.org/2000/svg"
   xmlns:sodipodi="http://sodipodi.sourceforge.net/DTD/sodipodi-0.dtd"
   xmlns:inkscape="http://www.inkscape.org/namespaces/inkscape"
   width="1000"
   height="1000"
   id="svg3355"
   version="1.1"
   inkscape:version="0.91 r13725"
   viewBox="0 0 1000 1000"
   sodipodi:docname="leisure_cinema.svg">
  <defs
     id="defs3357" />
  <sodipodi:namedview
     id="base"
     pagecolor="#ffffff"
     bordercolor="#666666"
     borderopacity="1.0"
     inkscape:pageopacity="0.0"
     inkscape:pageshadow="2"
     inkscape:zoom="0.5"
     inkscape:cx="11.512342"
     inkscape:cy="416"
     inkscape:current-layer="layer1"
     showgrid="true"
     inkscape:grid-bbox="true"
     inkscape:document-units="px"
     inkscape:window-width="1920"
     inkscape:window-height="1018"
     inkscape:window-x="-8"
     inkscape:window-y="-8"
     inkscape:window-maximized="1" />
  <metadata
     id="metadata3360">
    <rdf:RDF>
      <cc:Work
         rdf:about="">
        <dc:format>image/svg+xml</dc:format>
        <dc:type
           rdf:resource="http://purl.org/dc/dcmitype/StillImage" />
        <dc:title></dc:title>
      </cc:Work>
    </rdf:RDF>
  </metadata>
  <g
     id="layer1"
     inkscape:label="Layer 1"
     inkscape:groupmode="layer"
     transform="translate(0,968)">
    <path
       style="fill:#821432;fill-opacity:1"
       id="path8599"
       inkscape:connector-curvature="0"
       d="m 122.94851,-88.130927 c -6.81881,-4.185891 -16.30723,-12.691623 -21.03536,-18.853253 l -8.65215,-11.1847 0,-351.04551 0,-351.11248 10.80715,-13.09347 c 20.93885,-25.24929 2.79828,-24.1777 400.76521,-24.1777 338.39893,0 364.74136,0.50231 377.54269,7.13276 7.55858,3.91799 17.43297,12.28978 22.03243,18.58535 8.26619,11.41911 8.33052,13.89716 8.33052,362.86647 0,348.9693 -0.0965,351.48084 -8.36268,362.89995 -4.5673,6.295577 -14.47386,14.667357 -22.03244,18.585351 -12.80133,6.596963 -39.24025,7.132757 -380.4053,7.132757 -351.9722,0 -367.12151,-0.334871 -378.99007,-7.735525 z m 81.66475,-54.115193 c 5.5644,-5.65932 6.40066,-43.23188 1.15791,-51.63714 -1.96201,-3.08082 -12.51185,-6.4965 -23.51199,-7.60158 -25.79564,-2.47804 -36.95659,7.13276 -36.95659,31.71231 0,27.25852 4.76028,32.38205 31.39219,32.38205 12.737,0.0335 25.31318,-2.14318 27.91848,-4.85564 z M 681.35017,-288.91971 680.32091,-440.51592 503,-441.55402 l -177.32091,-1.0381 0,152.73477 0,152.73476 178.38233,0 178.318,0 -1.02925,-151.79712 z m 172.91442,145.80293 c 2.76612,-3.41569 4.24567,-15.43757 3.44157,-29.36821 -1.19008,-22.83822 -1.67254,-23.74237 -14.47387,-27.39246 -8.10537,-2.27713 -19.00901,-2.41107 -28.07929,-0.20093 l -14.66685,3.71707 -1.22225,26.08647 c -0.73977,18.11653 0.48247,27.09108 4.05269,29.43518 8.84514,5.69281 45.80173,4.05195 50.948,-2.27712 l 0,0 z M 203.13371,-261.76166 c 7.59073,-7.70203 8.68432,-46.51361 1.47955,-53.81381 -2.66963,-2.67896 -15.21364,-4.85563 -27.88632,-4.85563 -26.43892,0 -31.3922,4.88912 -31.3922,31.41092 0,24.47909 8.74865,33.68805 32.00333,33.68805 12.38319,-0.0335 21.80728,-2.37758 25.79564,-6.42953 l 0,0 z m 647.72148,2.21015 c 6.23984,-3.48266 7.7194,-8.70665 7.7194,-27.69385 0,-12.92603 -2.12284,-25.68462 -4.79246,-28.3636 -2.66963,-2.67896 -14.02357,-4.88911 -25.24885,-4.88911 -11.28962,0 -22.61139,2.10969 -25.24885,4.88911 -2.63746,2.67898 -4.82463,15.43757 -4.82463,28.33012 0,17.98258 1.60821,24.34513 7.04395,27.52641 9.16678,5.4584 35.50922,5.49189 45.35144,0.20092 l 0,0 0,0 z M 204.61326,-382.3153 c 5.5644,-5.62583 6.40066,-43.23187 1.15791,-51.60366 -1.96201,-3.14779 -12.51185,-6.52999 -23.51199,-7.66855 -25.79564,-2.47805 -36.95659,7.13276 -36.95659,31.7458 0,27.292 4.76028,32.41553 31.39219,32.41553 12.737,0.0335 25.31318,-2.21015 27.91848,-4.88912 z m 649.65133,-0.87067 c 2.76612,-3.3822 4.24567,-15.47104 3.44157,-29.3682 -1.19008,-22.87171 -1.67254,-23.70888 -14.47387,-27.42596 -8.10537,-2.34409 -19.00901,-2.41107 -28.07929,-0.13395 l -14.66685,3.68359 -1.22225,26.05298 c -0.73977,18.11653 0.48247,27.15805 4.05269,29.43518 8.84514,5.7263 45.80173,4.05194 50.948,-2.24364 l 0,0 z M 203.13371,-501.83084 c 7.59073,-7.70204 8.68432,-46.5471 1.47955,-53.81381 -2.66963,-2.67897 -15.21364,-4.88912 -27.88632,-4.88912 -26.43892,0 -31.3922,4.95609 -31.3922,31.37743 0,24.51258 8.74865,33.72154 32.00333,33.72154 12.38319,0 21.80728,-2.3441 25.79564,-6.39604 z m 479.18138,-146.17129 0,-152.60082 -178.35016,0 -178.28584,0 0,152.60082 0,152.60082 178.28584,0 178.35016,0 0,-152.60082 z m 168.5401,148.34795 c 6.23984,-3.41569 7.7194,-8.63968 7.7194,-27.66036 0,-12.89255 -2.12284,-25.65114 -4.79246,-28.33011 -2.66963,-2.67897 -14.02357,-4.88912 -25.24885,-4.88912 -11.28962,0 -22.61139,2.21015 -25.24885,4.88912 -2.63746,2.67897 -4.82463,15.40408 -4.82463,28.26313 0,18.01607 1.60821,24.41212 7.04395,27.55991 9.16678,5.42491 35.50922,5.52537 45.35144,0.16743 l 0,0 z m -646.24193,-122.7303 c 5.5644,-5.62584 6.40066,-43.26537 1.15791,-51.63715 -1.92985,-3.08082 -12.51185,-6.4965 -23.47983,-7.56809 -25.79564,-2.51153 -36.9566,7.09927 -36.9566,31.81277 0,27.35898 4.7603,32.28158 31.3922,32.28158 12.70484,0 25.28102,-2.21015 27.88632,-4.88911 l 0,0 z m 649.65133,-0.87067 c 2.76612,-3.3822 4.24567,-15.47105 3.44157,-29.36821 -1.19008,-22.8717 -1.67254,-23.70889 -14.47387,-27.45944 -8.10537,-2.3441 -19.00901,-2.41107 -28.07929,-0.13395 l -14.66685,3.71707 -1.22225,26.08648 c -0.73977,18.11653 0.48247,27.09108 4.05269,29.43518 8.84514,5.69281 45.80173,4.05194 50.948,-2.27713 l 0,0 z M 203.13371,-741.90003 c 7.59073,-7.70203 8.68432,-46.51361 1.47955,-53.81381 -2.6053,-2.71245 -15.18148,-4.88911 -27.88632,-4.88911 -26.43892,0 -31.3922,4.95609 -31.3922,31.37743 0,24.51257 8.74865,33.72153 32.00333,33.72153 12.38319,0 21.80728,-2.31061 25.79564,-6.39604 z m 647.72148,2.17666 c 6.23984,-3.41568 7.7194,-8.63967 7.7194,-27.66036 0,-12.89254 -2.12284,-25.65114 -4.79246,-28.33011 -6.23985,-6.32906 -44.25786,-6.32906 -50.4977,0 -2.63746,2.67897 -4.79246,15.40408 -4.79246,28.26314 0,17.98258 1.6082,24.37862 7.04394,27.55989 9.13462,5.42492 35.47706,5.52539 45.31928,0.16744 l 0,0 z" />
  </g>
</svg>
