<?xml version="1.0" encoding="UTF-8" standalone="no"?>
<!-- Created with Inkscape (http://www.inkscape.org/) -->

<svg
   xmlns:dc="http://purl.org/dc/elements/1.1/"
   xmlns:cc="http://creativecommons.org/ns#"
   xmlns:rdf="http://www.w3.org/1999/02/22-rdf-syntax-ns#"
   xmlns:svg="http://www.w3.org/2000/svg"
   xmlns="http://www.w3.org/2000/svg"
   xmlns:sodipodi="http://sodipodi.sourceforge.net/DTD/sodipodi-0.dtd"
   xmlns:inkscape="http://www.inkscape.org/namespaces/inkscape"
   width="32"
   height="32"
   id="svg3355"
   version="1.1"
   inkscape:version="0.91 r13725"
   viewBox="0 0 32 32"
   sodipodi:docname="cinema_.svg">
  <defs
     id="defs3357" />
  <sodipodi:namedview
     id="base"
     pagecolor="#ffffff"
     bordercolor="#666666"
     borderopacity="1.0"
     inkscape:pageopacity="0.0"
     inkscape:pageshadow="2"
     inkscape:zoom="20"
     inkscape:cx="13.643268"
     inkscape:cy="16"
     inkscape:current-layer="layer1"
     showgrid="true"
     inkscape:grid-bbox="true"
     inkscape:document-units="px"
     inkscape:window-width="1920"
     inkscape:window-height="1018"
     inkscape:window-x="-8"
     inkscape:window-y="-8"
     inkscape:window-maximized="1" />
  <metadata
     id="metadata3360">
    <rdf:RDF>
      <cc:Work
         rdf:about="">
        <dc:format>image/svg+xml</dc:format>
        <dc:type
           rdf:resource="http://purl.org/dc/dcmitype/StillImage" />
        <dc:title />
      </cc:Work>
    </rdf:RDF>
  </metadata>
  <g
     id="layer1"
     inkscape:label="Layer 1"
     inkscape:groupmode="layer">
    <path
       style="fill:#821432;fill-opacity:1"
       id="path8599"
       inkscape:connector-curvature="0"
       d="m 4.184,27.373598 c -0.212,-0.125 -0.507,-0.379 -0.654,-0.563 l -0.269,-0.334 0,-10.483 0,-10.4850001 0.336,-0.391 c 0.651,-0.754 0.087,-0.722 12.46,-0.722 10.521,0 11.34,0.015 11.738,0.213 0.235,0.117 0.542,0.367 0.685,0.555 0.257,0.341 0.259,0.415 0.259,10.8360001 0,10.421 -0.003,10.496 -0.26,10.837 -0.142,0.188 -0.45,0.438 -0.685,0.555 -0.398,0.197 -1.22,0.213 -11.827,0.213 -10.943,0 -11.414,-0.01 -11.783,-0.231 z m 2.539,-1.616 c 0.173,-0.169 0.199,-1.291 0.036,-1.542 -0.061,-0.092 -0.389,-0.194 -0.731,-0.227 -0.802,-0.074 -1.149,0.213 -1.149,0.947 0,0.814 0.148,0.967 0.976,0.967 0.396,10e-4 0.787,-0.064 0.868,-0.145 z m 14.822,-4.38 -0.032,-4.527 -5.513,-0.031 -5.513,-0.031 0,4.561 0,4.561 5.546,0 5.544,0 -0.032,-4.533 z m 5.376,4.354 c 0.086,-0.102 0.132,-0.461 0.107,-0.877 -0.037,-0.682 -0.052,-0.709 -0.45,-0.818 -0.252,-0.068 -0.591,-0.072 -0.873,-0.006 l -0.456,0.111 -0.038,0.779 c -0.023,0.541 0.015,0.809 0.126,0.879 0.275,0.17 1.424,0.121 1.584,-0.068 l 0,0 z m -20.244,-3.543 c 0.236,-0.23 0.27,-1.389 0.046,-1.607 -0.083,-0.08 -0.473,-0.145 -0.867,-0.145 -0.822,0 -0.976,0.146 -0.976,0.938 0,0.731 0.272,1.006 0.995,1.006 0.385,-10e-4 0.678,-0.071 0.802,-0.192 l 0,0 z m 20.138,0.066 c 0.194,-0.104 0.24,-0.26 0.24,-0.827 0,-0.386 -0.066,-0.767 -0.149,-0.847 -0.083,-0.08 -0.436,-0.146 -0.785,-0.146 -0.351,0 -0.703,0.063 -0.785,0.146 -0.082,0.08 -0.15,0.461 -0.15,0.846 0,0.537 0.05,0.727 0.219,0.822 0.285,0.163 1.104,0.164 1.41,0.006 l 0,0 0,0 z m -20.092,-3.666 c 0.173,-0.168 0.199,-1.291 0.036,-1.541 -0.061,-0.094 -0.389,-0.195 -0.731,-0.229 -0.802,-0.074 -1.149,0.213 -1.149,0.948 0,0.815 0.148,0.968 0.976,0.968 0.396,0.001 0.787,-0.066 0.868,-0.146 z m 20.198,-0.026 c 0.086,-0.101 0.132,-0.462 0.107,-0.877 -0.037,-0.683 -0.052,-0.708 -0.45,-0.819 -0.252,-0.07 -0.591,-0.072 -0.873,-0.004 l -0.456,0.11 -0.038,0.778 c -0.023,0.541 0.015,0.811 0.126,0.879 0.275,0.171 1.424,0.121 1.584,-0.067 l 0,0 z m -20.244,-3.543 c 0.236,-0.23 0.27,-1.39 0.046,-1.607 -0.083,-0.08 -0.473,-0.146 -0.867,-0.146 -0.822,0 -0.976,0.148 -0.976,0.937 0,0.732 0.272,1.007 0.995,1.007 0.385,0 0.678,-0.07 0.802,-0.191 z m 14.898,-4.365 0,-4.5570001 -5.545,0 -5.543,0 0,4.5570001 0,4.557 5.543,0 5.545,0 0,-4.557 z m 5.24,4.43 c 0.194,-0.102 0.24,-0.258 0.24,-0.826 0,-0.385 -0.066,-0.766 -0.149,-0.846 -0.083,-0.08 -0.436,-0.146 -0.785,-0.146 -0.351,0 -0.703,0.066 -0.785,0.146 -0.082,0.08 -0.15,0.46 -0.15,0.844 0,0.538 0.05,0.729 0.219,0.823 0.285,0.162 1.104,0.165 1.41,0.005 l 0,0 z m -20.092,-3.665 c 0.173,-0.168 0.199,-1.292 0.036,-1.5420001 -0.06,-0.092 -0.389,-0.194 -0.73,-0.226 -0.802,-0.075 -1.149,0.212 -1.149,0.9500001 0,0.817 0.148,0.964 0.976,0.964 0.395,0 0.786,-0.066 0.867,-0.146 l 0,0 z m 20.198,-0.026 c 0.086,-0.101 0.132,-0.462 0.107,-0.877 -0.037,-0.6830001 -0.052,-0.7080001 -0.45,-0.8200001 -0.252,-0.07 -0.591,-0.072 -0.873,-0.004 l -0.456,0.111 -0.038,0.7790001 c -0.023,0.541 0.015,0.809 0.126,0.879 0.275,0.17 1.424,0.121 1.584,-0.068 l 0,0 z M 6.677,7.8505979 c 0.236,-0.23 0.27,-1.389 0.046,-1.607 -0.081,-0.081 -0.472,-0.146 -0.867,-0.146 -0.822,0 -0.976,0.148 -0.976,0.937 0,0.732 0.272,1.007 0.995,1.007 0.385,0 0.678,-0.069 0.802,-0.191 z m 20.138,0.065 c 0.194,-0.102 0.24,-0.258 0.24,-0.826 0,-0.385 -0.066,-0.766 -0.149,-0.846 -0.194,-0.189 -1.376,-0.189 -1.57,0 -0.082,0.08 -0.149,0.46 -0.149,0.844 0,0.537 0.05,0.728 0.219,0.823 0.284,0.162 1.103,0.165 1.409,0.005 l 0,0 z" />
  </g>
</svg>
