<?xml version="1.0" encoding="UTF-8" standalone="no"?>
<!-- Created with Inkscape (http://www.inkscape.org/) -->

<svg
   xmlns:dc="http://purl.org/dc/elements/1.1/"
   xmlns:cc="http://creativecommons.org/ns#"
   xmlns:rdf="http://www.w3.org/1999/02/22-rdf-syntax-ns#"
   xmlns:svg="http://www.w3.org/2000/svg"
   xmlns="http://www.w3.org/2000/svg"
   xmlns:sodipodi="http://sodipodi.sourceforge.net/DTD/sodipodi-0.dtd"
   xmlns:inkscape="http://www.inkscape.org/namespaces/inkscape"
   width="1000"
   height="1000"
   id="svg11135"
   version="1.1"
   inkscape:version="0.91 r13725"
   viewBox="0 0 1000 1000"
   sodipodi:docname="leisure_stadium.svg">
  <defs
     id="defs11137" />
  <sodipodi:namedview
     id="base"
     pagecolor="#ffffff"
     bordercolor="#666666"
     borderopacity="1.0"
     inkscape:pageopacity="0.0"
     inkscape:pageshadow="2"
     inkscape:zoom="0.5"
     inkscape:cx="9.7405635"
     inkscape:cy="336"
     inkscape:current-layer="layer1"
     showgrid="true"
     inkscape:grid-bbox="true"
     inkscape:document-units="px"
     inkscape:window-width="1920"
     inkscape:window-height="1018"
     inkscape:window-x="-8"
     inkscape:window-y="-8"
     inkscape:window-maximized="1" />
  <metadata
     id="metadata11140">
    <rdf:RDF>
      <cc:Work
         rdf:about="">
        <dc:format>image/svg+xml</dc:format>
        <dc:type
           rdf:resource="http://purl.org/dc/dcmitype/StillImage" />
        <dc:title></dc:title>
      </cc:Work>
    </rdf:RDF>
  </metadata>
  <g
     id="layer1"
     inkscape:label="Layer 1"
     inkscape:groupmode="layer"
     transform="translate(0,968)">
    <path
       inkscape:connector-curvature="0"
       style="color:#000000;font-style:normal;font-variant:normal;font-weight:normal;font-stretch:normal;font-size:medium;line-height:normal;font-family:Sans;-inkscape-font-specification:Sans;text-indent:0;text-align:start;text-decoration:none;text-decoration-line:none;letter-spacing:normal;word-spacing:normal;text-transform:none;direction:ltr;block-progression:tb;writing-mode:lr-tb;baseline-shift:baseline;text-anchor:start;display:inline;overflow:visible;visibility:visible;fill:#821432;fill-opacity:1;stroke:none;stroke-width:20;marker:none;enable-background:accumulate"
       d="m 501.67053,-735.9895 c -122.89594,0 -234.08075,12.55686 -317.11545,33.78299 -41.51758,10.61289 -75.96912,23.13203 -102.472717,39.15005 -26.503132,16.01834 -48.170473,38.05615 -48.170473,66.68549 0,12.9826 4.4633,24.60694 11.806482,34.93134 -1.028195,0.35958 -1.612381,1.09332 -1.612381,2.24565 0,25.67429 57.973379,301.50815 81.051679,315.87242 23.07737,14.36566 53.0759,25.59641 89.22583,35.1154 72.30034,19.03524 169.16519,30.29567 276.17367,30.29567 107.00891,0 203.78824,-11.26043 276.08811,-30.29567 36.14995,-9.51899 66.23401,-20.74974 89.31183,-35.1154 22.26698,-13.86062 83.16882,-261.91212 87.419,-302.3834 15.49211,-13.78693 26.15496,-30.60263 26.15496,-50.66573 0,-28.62934 -21.66734,-50.66716 -48.17095,-66.6855 -26.50357,-16.01794 -61.05421,-28.53708 -102.5718,-39.14997 -83.03376,-21.22613 -194.22276,-33.78299 -317.1187,-33.78299 z m 0,56.30661 c 30.80894,0 60.8369,0.86616 89.76191,2.46226 l -7.72877,111.52147 c -25.45109,-0.93609 -50.91529,-1.32726 -76.3243,-1.24326 -25.56376,0.27767 -51.17701,1.05479 -76.75666,2.39593 l -1.61248,0.84515 -0.18632,-0.7615 c -40.56649,2.1724 -81.04464,5.85182 -121.11482,11.58803 l 0.77115,1.5192 -1.07495,1.63442 -2.14518,-2.79056 c -25.90404,3.76448 -51.63369,8.39773 -77.10114,14.05012 -9.05606,-1.94885 -17.81114,-3.96896 -26.10821,-6.09139 -37.40948,-9.56407 -66.83595,-21.01238 -84.4723,-31.67349 -17.63635,-10.65722 -20.375555,-17.98642 -20.375555,-20.1448 0,-2.15853 2.738745,-9.40238 20.375555,-20.05964 17.63635,-10.65968 47.06282,-22.1066 84.4723,-31.66821 8.02319,-2.05371 16.48851,-4.01019 25.22256,-5.90108 l 77.98626,101.48869 c 0.81789,-0.10412 1.63108,-0.24296 2.44897,-0.35992 l -54.07465,-106.3816 c 43.83944,-8.05038 94.59209,-14.10546 149.68652,-17.45554 l 25.50295,112.24931 c 0.5935,-0.0259 1.19175,-0.0347 1.78525,-0.0694 l 1.50476,-0.78927 -7.79233,-112.50706 c 25.0772,-1.18748 50.90174,-1.84059 77.3343,-1.84059 z m 110.62958,3.75662 c 55.13603,3.79643 105.61622,10.32161 148.77234,18.81486 l -51.48077,101.27631 c -40.54221,-5.06703 -81.43073,-8.14887 -122.36596,-9.74182 l 25.07439,-110.34935 z m 174.42394,24.26257 c 5.0092,1.15962 9.90061,2.347 14.65598,3.56488 37.40949,9.56162 66.73548,21.00853 84.37185,31.66822 17.63633,10.65726 20.47461,17.89948 20.47461,20.05963 0,2.15853 -2.83675,9.48758 -20.47461,20.14481 -17.63637,10.66111 -46.96236,22.10941 -84.37185,31.67349 -2.86012,0.72992 -5.85368,1.43208 -8.80555,2.1443 -26.38815,-5.30767 -53.017,-9.60039 -79.80055,-13.0179 l 73.95012,-96.23604 z M 87.749118,-526.38882 c 25.682442,14.46517 58.183222,26.06647 96.805962,35.93859 83.0347,21.22615 194.21951,33.783 317.11545,33.783 122.89594,0 234.08498,-12.55685 317.11874,-33.783 36.22657,-9.25986 67.143,-20.03864 92.04401,-33.27655 -57.44804,162.35204 -141.43384,244.67065 -251.49604,280.45558 l 0,-101.48342 c 1.13585,-106.8924 -270.27836,-124.20266 -297.67557,0 l 0,114.20303 c 0,0.10412 0.0183,0.24296 0.0183,0.35993 -132.19931,-24.22924 -230.37324,-99.255 -273.930852,-296.19754 z"
       id="path8348" />
  </g>
</svg>
