<?xml version="1.0" encoding="UTF-8" standalone="no"?>
<!-- Created with Inkscape (http://www.inkscape.org/) -->

<svg
   xmlns:dc="http://purl.org/dc/elements/1.1/"
   xmlns:cc="http://creativecommons.org/ns#"
   xmlns:rdf="http://www.w3.org/1999/02/22-rdf-syntax-ns#"
   xmlns:svg="http://www.w3.org/2000/svg"
   xmlns="http://www.w3.org/2000/svg"
   xmlns:sodipodi="http://sodipodi.sourceforge.net/DTD/sodipodi-0.dtd"
   xmlns:inkscape="http://www.inkscape.org/namespaces/inkscape"
   width="1000"
   height="1000"
   id="svg3353"
   version="1.1"
   inkscape:version="0.91 r13725"
   viewBox="0 0 1000 1000"
   sodipodi:docname="leisure_theatre.svg">
  <defs
     id="defs3355" />
  <sodipodi:namedview
     id="base"
     pagecolor="#ffffff"
     bordercolor="#666666"
     borderopacity="1.0"
     inkscape:pageopacity="0.0"
     inkscape:pageshadow="2"
     inkscape:zoom="0.5"
     inkscape:cx="9.2008305"
     inkscape:cy="576"
     inkscape:current-layer="layer1"
     showgrid="true"
     inkscape:grid-bbox="true"
     inkscape:document-units="px"
     inkscape:window-width="1920"
     inkscape:window-height="1018"
     inkscape:window-x="-8"
     inkscape:window-y="-8"
     inkscape:window-maximized="1" />
  <metadata
     id="metadata3358">
    <rdf:RDF>
      <cc:Work
         rdf:about="">
        <dc:format>image/svg+xml</dc:format>
        <dc:type
           rdf:resource="http://purl.org/dc/dcmitype/StillImage" />
        <dc:title></dc:title>
      </cc:Work>
    </rdf:RDF>
  </metadata>
  <g
     id="layer1"
     inkscape:label="Layer 1"
     inkscape:groupmode="layer"
     transform="translate(0,968)">
    <path
       id="path18696"
       style="fill:#821432;fill-opacity:1"
       d="M 621.74815,-89.932062 C 554.72866,-102.57178 498.73258,-141.26086 469.03159,-195.3165 c -27.21065,-49.62853 -27.46701,-52.19497 -27.54025,-276.91886 l -0.0366,-202.58834 42.66542,14.50038 c 23.47513,7.98804 61.70921,18.92749 84.96461,24.31701 38.74679,9.01462 48.7814,9.84871 119.79277,9.72039 71.15786,-0.0962 81.04599,-0.93033 118.58423,-10.04119 33.54637,-8.11637 69.58308,-19.63326 119.75615,-38.20787 4.50459,-1.66818 5.27367,34.58277 3.91863,201.43344 -1.42829,195.49856 -1.86776,204.57734 -10.58396,232.13449 -32.22797,101.18189 -117.52219,157.290686 -237.97417,156.520754 -18.45783,-0.224564 -45.77835,-2.694762 -60.83027,-5.485766 l 0,0 z M 723.77893,-196.59972 c 39.0764,-11.64522 78.51902,-52.99698 85.07448,-89.34419 l 2.7467,-15.04575 -126.97082,0 -126.89757,0 2.85656,15.36656 c 6.2991,34.64694 46.32769,77.24984 83.1701,88.79882 23.7315,7.31435 55.95945,7.41059 80.02055,0.22456 l 0,0 0,0 z m -97.3797,-219.23813 c 54.16494,-31.75969 25.23303,-105.54484 -39.55249,-100.73276 -34.35207,2.50228 -57.35111,24.99071 -57.31449,55.78798 0.0366,41.83298 57.05814,68.26731 96.86698,44.94478 z m 183.04014,1.02658 c 41.96959,-22.42427 40.13846,-77.37816 -3.22279,-96.4019 -54.20156,-23.86789 -112.17526,26.78722 -84.81812,74.29844 15.82099,27.49298 58.08356,38.14371 88.04091,22.10346 z m -615.48072,20.82024 c 0,-33.68452 27.24727,-69.35803 63.79671,-83.5697 31.34902,-12.19059 84.928,-12.28683 113.45706,-0.1604 l 19.88612,8.43717 0,43.7578 0,43.72572 -98.55163,0 -98.58826,0 0,-12.19059 z m -4.61445,-187.15763 c -49.404,-28.93661 -27.2839,-94.54122 31.89835,-94.54122 33.36326,0 58.23005,21.8789 58.23005,51.20047 0,41.2876 -51.41824,65.98959 -90.1284,43.34075 z m 68.92387,330.10833 c -97.78254,-16.36105 -161.359511,-74.65132 -183.442985,-168.29429 -5.60327,-23.73957 -6.665327,-59.34892 -6.665327,-223.53691 0,-184.52702 0.402849,-195.11359 7.324535,-192.54715 27.943107,10.29784 105.583177,32.97875 135.247547,39.52318 29.59112,6.51234 47.75597,7.82764 106.93823,7.7314 63.06425,-0.0962 75.88219,-1.21906 111.14982,-9.52791 33.07028,-7.79556 89.79881,-25.24735 122.72259,-37.66251 6.88507,-2.59852 7.28792,2.3098 7.28792,75.16461 l 0,77.92353 -11.49952,-2.40603 c -6.37235,-1.31531 -19.48327,-5.03664 -29.29815,-8.24469 l -17.87186,-5.80657 0,-30.73312 c 0,-16.90642 -0.98881,-30.73312 -2.23399,-30.73312 -1.20854,0 -13.2574,4.07422 -26.73455,9.0467 -53.65222,19.76159 -90.05516,25.69648 -157.66062,25.69648 -67.01952,0 -95.43871,-4.68375 -156.26898,-25.69648 -14.46596,-4.97248 -27.21065,-9.07878 -28.34595,-9.07878 -1.13531,0 -2.05087,71.57159 -2.05087,159.0551 0,171.85523 0.84232,179.71496 23.43851,221.54793 31.71524,58.70731 111.18645,91.01237 195.60173,79.52755 17.02955,-2.30979 33.69287,-5.13288 37.02553,-6.25569 4.90744,-1.63611 6.18923,2.9514 6.77519,23.61124 l 0.73246,25.69648 -15.38153,3.81758 c -26.29508,6.44818 -84.59838,7.571 -116.78973,2.18147 l 0,0 z"
       inkscape:connector-curvature="0" />
  </g>
</svg>
