<?xml version="1.0" encoding="UTF-8" standalone="no"?>
<!-- Created with Inkscape (http://www.inkscape.org/) -->

<svg
   xmlns:dc="http://purl.org/dc/elements/1.1/"
   xmlns:cc="http://creativecommons.org/ns#"
   xmlns:rdf="http://www.w3.org/1999/02/22-rdf-syntax-ns#"
   xmlns:svg="http://www.w3.org/2000/svg"
   xmlns="http://www.w3.org/2000/svg"
   xmlns:sodipodi="http://sodipodi.sourceforge.net/DTD/sodipodi-0.dtd"
   xmlns:inkscape="http://www.inkscape.org/namespaces/inkscape"
   width="32"
   height="32"
   id="svg3354"
   version="1.1"
   inkscape:version="0.91 r13725"
   viewBox="0 0 32 32"
   sodipodi:docname="golf_course.svg">
  <defs
     id="defs3356" />
  <sodipodi:namedview
     id="base"
     pagecolor="#ffffff"
     bordercolor="#666666"
     borderopacity="1.0"
     inkscape:pageopacity="0.0"
     inkscape:pageshadow="2"
     inkscape:zoom="20"
     inkscape:cx="13.643268"
     inkscape:cy="16"
     inkscape:current-layer="layer1"
     showgrid="true"
     inkscape:grid-bbox="true"
     inkscape:document-units="px"
     inkscape:window-width="1920"
     inkscape:window-height="1018"
     inkscape:window-x="-8"
     inkscape:window-y="-8"
     inkscape:window-maximized="1" />
  <metadata
     id="metadata3359">
    <rdf:RDF>
      <cc:Work
         rdf:about="">
        <dc:format>image/svg+xml</dc:format>
        <dc:type
           rdf:resource="http://purl.org/dc/dcmitype/StillImage" />
        <dc:title />
      </cc:Work>
    </rdf:RDF>
  </metadata>
  <g
     id="layer1"
     inkscape:label="Layer 1"
     inkscape:groupmode="layer">
    <g
       transform="translate(-0.2569438,0.8435)"
       id="g4"
       style="fill:#821432;fill-opacity:1">
      <path
         style="clip-rule:evenodd;fill:#821432;fill-rule:evenodd;fill-opacity:1"
         inkscape:connector-curvature="0"
         d="M 17.255,4.267 C 17.022,4.554 16.824,4.801 16.62,5.045 16.323,5.402 15.903,5.492 15.556,5.276 15.222,5.068 15.167,4.703 15.438,4.354 c 0.35,-0.453 0.713,-0.897 1.093,-1.373 0.273,0.152 0.52,0.289 0.764,0.428 3.893,2.228 7.784,4.455 11.675,6.684 0.551,0.316 0.762,0.752 0.58,1.194 -0.173,0.42 -0.566,0.576 -1.037,0.648 -1.61,0.247 -3.22,0.499 -4.829,0.75 -0.136,0.021 -0.27,0.051 -0.432,0.083 0.353,1.219 0.696,2.409 1.041,3.6 0.335,1.16 0.661,2.32 1.013,3.478 0.234,0.77 -0.023,1.511 -0.126,2.258 -0.212,1.543 -0.464,3.082 -0.706,4.621 -0.091,0.582 -0.491,0.966 -1.072,1.045 -0.847,0.117 -1.551,-0.448 -1.454,-1.217 0.145,-1.145 0.336,-2.283 0.51,-3.426 0.112,-0.742 0.275,-1.481 0.327,-2.228 0.032,-0.483 -0.095,-0.978 -0.151,-1.466 -0.047,-0.005 -0.096,-0.01 -0.144,-0.014 -0.241,0.313 -0.481,0.627 -0.72,0.938 -1.758,2.302 -3.518,4.603 -5.271,6.907 -0.279,0.365 -0.583,0.687 -1.135,0.722 -0.522,0.032 -0.94,-0.14 -1.207,-0.529 -0.269,-0.392 -0.241,-0.794 0.047,-1.171 0.746,-0.98 1.499,-1.954 2.248,-2.931 1.136,-1.479 2.279,-2.956 3.4,-4.443 0.102,-0.135 0.141,-0.358 0.094,-0.518 -0.535,-1.863 -1.095,-3.723 -1.649,-5.583 -0.241,-0.819 0.093,-1.249 1.061,-1.398 2.611,-0.403 5.221,-0.813 7.83,-1.221 0.063,-0.009 0.123,-0.03 0.287,-0.071 -3.442,-1.97 -6.814,-3.902 -10.22,-5.854 z"
         id="path6" />
      <path
         style="clip-rule:evenodd;fill:#821432;fill-rule:evenodd;fill-opacity:1"
         inkscape:connector-curvature="0"
         d="m 18.715,6.627 c 1.162,-0.01 2.133,0.93 2.147,2.083 0.015,1.167 -0.953,2.135 -2.134,2.132 -1.173,-0.002 -2.116,-0.936 -2.123,-2.1 -0.005,-1.158 0.94,-2.104 2.11,-2.115 z"
         id="path8" />
    </g>
    <polyline
       transform="translate(-0.2569438,0.8435)"
       style="clip-rule:evenodd;fill:#821432;fill-rule:evenodd;fill-opacity:1"
       points="5.5,28 6.75,28 6.75,8.438 12.688,7 5.5,2.313 "
       id="polyline10" />
  </g>
</svg>
