<?xml version="1.0" encoding="UTF-8" standalone="no"?>
<!-- Created with Inkscape (http://www.inkscape.org/) -->

<svg
   xmlns:dc="http://purl.org/dc/elements/1.1/"
   xmlns:cc="http://creativecommons.org/ns#"
   xmlns:rdf="http://www.w3.org/1999/02/22-rdf-syntax-ns#"
   xmlns:svg="http://www.w3.org/2000/svg"
   xmlns="http://www.w3.org/2000/svg"
   xmlns:sodipodi="http://sodipodi.sourceforge.net/DTD/sodipodi-0.dtd"
   xmlns:inkscape="http://www.inkscape.org/namespaces/inkscape"
   width="32"
   height="32"
   id="svg3353"
   version="1.1"
   inkscape:version="0.91 r13725"
   viewBox="0 0 32 32"
   sodipodi:docname="theatre_.svg">
  <defs
     id="defs3355" />
  <sodipodi:namedview
     id="base"
     pagecolor="#ffffff"
     bordercolor="#666666"
     borderopacity="1.0"
     inkscape:pageopacity="0.0"
     inkscape:pageshadow="2"
     inkscape:zoom="20"
     inkscape:cx="11.331756"
     inkscape:cy="16"
     inkscape:current-layer="layer1"
     showgrid="true"
     inkscape:grid-bbox="true"
     inkscape:document-units="px"
     inkscape:window-width="1920"
     inkscape:window-height="1018"
     inkscape:window-x="-8"
     inkscape:window-y="-8"
     inkscape:window-maximized="1" />
  <metadata
     id="metadata3358">
    <rdf:RDF>
      <cc:Work
         rdf:about="">
        <dc:format>image/svg+xml</dc:format>
        <dc:type
           rdf:resource="http://purl.org/dc/dcmitype/StillImage" />
        <dc:title />
      </cc:Work>
    </rdf:RDF>
  </metadata>
  <g
     id="layer1"
     inkscape:label="Layer 1"
     inkscape:groupmode="layer">
    <path
       id="path18696"
       style="fill:#821432;fill-opacity:1"
       d="m 19.275758,27.39028 c -1.83,-0.394 -3.359,-1.6 -4.17,-3.285 -0.743,-1.547 -0.75,-1.627 -0.752,-8.632 l -10e-4,-6.3149997 1.165,0.452 c 0.641,0.2489997 1.685,0.5899997 2.32,0.7579997 1.058,0.281 1.332,0.307 3.271,0.303 1.943,-0.003 2.213,-0.029 3.238,-0.313 0.916,-0.253 1.9,-0.6119997 3.27,-1.1909997 0.123,-0.052 0.144,1.0779997 0.107,6.2789997 -0.039,6.094 -0.051,6.377 -0.289,7.236 -0.88,3.154 -3.209,4.903 -6.498,4.879 -0.504,-0.007 -1.25,-0.084 -1.661,-0.171 l 0,0 z m 2.786,-3.325 c 1.067,-0.363 2.144,-1.652 2.323,-2.785 l 0.075,-0.469 -3.467,0 -3.465,0 0.078,0.479 c 0.172,1.08 1.265,2.408 2.271,2.768 0.648,0.228 1.528,0.231 2.185,0.007 l 0,0 0,0 z m -2.659,-6.834 c 1.479,-0.99 0.689,-3.29 -1.08,-3.14 -0.938,0.078 -1.566,0.779 -1.565,1.739 0.001,1.304 1.558,2.128 2.645,1.401 z m 4.998,0.032 c 1.146,-0.699 1.096,-2.412 -0.088,-3.005 -1.48,-0.744 -3.063,0.835 -2.316,2.316 0.432,0.857 1.586,1.189 2.404,0.689 z m -16.8060004,0.649 c 0,-1.05 0.744,-2.162 1.742,-2.605 0.8560004,-0.38 2.3190004,-0.383 3.0980004,-0.005 l 0.543,0.263 0,1.364 0,1.363 -2.691,0 -2.6920004,0 0,-0.38 z m -0.126,-5.834 c -1.349,-0.902 -0.745,-2.9469997 0.871,-2.9469997 0.911,0 1.59,0.682 1.59,1.5959997 0,1.287 -1.404,2.057 -2.461,1.351 z m 1.882,10.29 c -2.67,-0.51 -4.406,-2.327 -5.009,-5.246 -0.153,-0.74 -0.182,-1.85 -0.182,-6.968 0,-5.7519997 0.011,-6.0819997 0.2,-6.0019997 0.763,0.321 2.883,1.028 3.693,1.232 0.808,0.203 1.304,0.244 2.9200004,0.241 1.722,-0.003 2.072,-0.038 3.035,-0.297 0.903,-0.243 2.452,-0.787 3.351,-1.174 0.188,-0.081 0.199,0.072 0.199,2.343 l 0,2.429 -0.314,-0.075 c -0.174,-0.041 -0.532,-0.157 -0.8,-0.257 l -0.488,-0.181 0,-0.958 c 0,-0.527 -0.027,-0.958 -0.061,-0.958 -0.033,0 -0.362,0.127 -0.73,0.282 -1.465,0.616 -2.459,0.801 -4.305,0.801 -1.8300004,0 -2.6060004,-0.146 -4.2670004,-0.801 -0.395,-0.155 -0.743,-0.283 -0.774,-0.283 -0.031,0 -0.056,2.231 -0.056,4.9579997 0,5.357 0.023,5.602 0.64,6.906 0.866,1.83 3.036,2.837 5.3410004,2.479 0.465,-0.072 0.92,-0.16 1.011,-0.195 0.134,-0.051 0.169,0.092 0.185,0.736 l 0.02,0.801 -0.42,0.119 c -0.718,0.201 -2.31,0.236 -3.1890004,0.068 l 0,0 z"
       inkscape:connector-curvature="0" />
  </g>
</svg>
