<?xml version="1.0" encoding="UTF-8" standalone="no"?>
<!-- Created with Inkscape (http://www.inkscape.org/) -->

<svg
   xmlns:dc="http://purl.org/dc/elements/1.1/"
   xmlns:cc="http://creativecommons.org/ns#"
   xmlns:rdf="http://www.w3.org/1999/02/22-rdf-syntax-ns#"
   xmlns:svg="http://www.w3.org/2000/svg"
   xmlns="http://www.w3.org/2000/svg"
   xmlns:sodipodi="http://sodipodi.sourceforge.net/DTD/sodipodi-0.dtd"
   xmlns:inkscape="http://www.inkscape.org/namespaces/inkscape"
   width="32"
   height="32"
   id="svg3345"
   version="1.1"
   inkscape:version="0.91 r13725"
   viewBox="0 0 32 32"
   sodipodi:docname="airfield_military.svg">
  <defs
     id="defs3347" />
  <sodipodi:namedview
     id="base"
     pagecolor="#ffffff"
     bordercolor="#666666"
     borderopacity="1.0"
     inkscape:pageopacity="0.0"
     inkscape:pageshadow="2"
     inkscape:zoom="20"
     inkscape:cx="13.643268"
     inkscape:cy="16"
     inkscape:current-layer="layer1"
     showgrid="true"
     inkscape:grid-bbox="true"
     inkscape:document-units="px"
     inkscape:window-width="1920"
     inkscape:window-height="1018"
     inkscape:window-x="-8"
     inkscape:window-y="-8"
     inkscape:window-maximized="1" />
  <metadata
     id="metadata3350">
    <rdf:RDF>
      <cc:Work
         rdf:about="">
        <dc:format>image/svg+xml</dc:format>
        <dc:type
           rdf:resource="http://purl.org/dc/dcmitype/StillImage" />
        <dc:title />
      </cc:Work>
    </rdf:RDF>
  </metadata>
  <g
     id="layer1"
     inkscape:label="Layer 1"
     inkscape:groupmode="layer">
    <path
       id="path5848"
       inkscape:connector-curvature="0"
       d="m 10.0525,28.6505 c 0.026,-0.027 0.729,-0.441 1.561,-0.921 l 1.512,-0.872 0.018,-2.445 c 0.01,-1.346 0.003,-2.446 -0.015,-2.446 -0.018,0 -1.532,1.064 -3.364,2.366 -1.832,1.301 -3.368,2.373 -3.414,2.383 -0.052,0.011 -0.243,-0.487 -0.53,-1.383 l -0.448,-1.4 0.153,-0.166 c 0.084,-0.092 1.836,-2.068 3.893,-4.393 l 3.74,-4.226 0,-3.455 0,-3.455 1.117,-0.018 1.117,-0.018 0.018,-2.45 0.018,-2.45 0.432,0 0.432,0 0.018,2.45 0.017,2.45 1.216,0.018 1.217,0.018 0,3.294 0,3.294 3.934,4.442 c 2.163,2.443 3.933,4.473 3.933,4.512 0,0.115 -0.813,2.682 -0.869,2.744 -0.028,0.031 -1.601,-1.041 -3.491,-2.383 -1.893,-1.343 -3.455,-2.441 -3.474,-2.441 -0.019,0 -0.026,1.147 -0.017,2.549 l 0.018,2.549 1.467,0.848 c 0.807,0.466 1.541,0.893 1.633,0.949 0.15,0.092 -0.42,0.102 -5.86,0.104 -3.319,-10e-4 -6.009,-0.021 -5.982,-0.048 l 0,0 z"
       style="fill:#000000;fill-opacity:1" />
  </g>
</svg>
