<?xml version="1.0" encoding="UTF-8" standalone="no"?>
<!-- Created with Inkscape (http://www.inkscape.org/) -->

<svg
   xmlns:dc="http://purl.org/dc/elements/1.1/"
   xmlns:cc="http://creativecommons.org/ns#"
   xmlns:rdf="http://www.w3.org/1999/02/22-rdf-syntax-ns#"
   xmlns:svg="http://www.w3.org/2000/svg"
   xmlns="http://www.w3.org/2000/svg"
   xmlns:sodipodi="http://sodipodi.sourceforge.net/DTD/sodipodi-0.dtd"
   xmlns:inkscape="http://www.inkscape.org/namespaces/inkscape"
   width="352.78mm"
   height="352.78mm"
   viewBox="0 0 1250.0079 1250.0079"
   id="svg4946"
   version="1.1"
   inkscape:version="0.91 r13725"
   sodipodi:docname="military_military_airfield.svg">
  <defs
     id="defs4948" />
  <sodipodi:namedview
     id="base"
     pagecolor="#ffffff"
     bordercolor="#666666"
     borderopacity="1.0"
     inkscape:pageopacity="0.0"
     inkscape:pageshadow="2"
     inkscape:zoom="0.5"
     inkscape:cx="80"
     inkscape:cy="520"
     inkscape:document-units="px"
     inkscape:current-layer="layer1"
     showgrid="false"
     inkscape:window-width="1920"
     inkscape:window-height="1018"
     inkscape:window-x="-8"
     inkscape:window-y="-8"
     inkscape:window-maximized="1" />
  <metadata
     id="metadata4951">
    <rdf:RDF>
      <cc:Work
         rdf:about="">
        <dc:format>image/svg+xml</dc:format>
        <dc:type
           rdf:resource="http://purl.org/dc/dcmitype/StillImage" />
        <dc:title></dc:title>
      </cc:Work>
    </rdf:RDF>
  </metadata>
  <g
     inkscape:label="Layer 1"
     inkscape:groupmode="layer"
     id="layer1"
     transform="translate(0,197.64569)">
    <path
       inkscape:connector-curvature="0"
       d="m 608.933,64.840319 -0.5709,69.906001 -0.571,69.906 -31.8838,0.571 -31.8846,0.571 0,98.622 0,98.621 -106.7858,120.602 c -58.7164,66.366 -108.6982,122.828 -111.0962,125.454 l -4.4242,4.738 12.8453,39.906 c 8.1924,25.576 13.6155,39.848 15.0999,39.534 1.4276,-0.285 45.158,-30.942 97.4517,-68.079 52.2938,-37.165 95.5393,-67.508 96.0527,-67.508 0.5709,0 0.5709,31.37 0.2857,69.791 l -0.5709,69.793 -43.131,24.919 c -23.7493,13.701 -43.8164,25.49 -44.5587,26.261 -0.8559,0.857 75.9861,1.428 170.7263,1.428 155.283,0 171.5823,-0.286 167.3002,-2.941 -2.5687,-1.713 -23.5778,-13.787 -46.6133,-27.089 l -41.9324,-24.206 -0.5709,-72.817 c 0,-40.02 0,-72.761 0.5709,-72.761 0.571,0 45.158,31.371 99.1929,69.707 53.9496,38.306 98.8218,68.878 99.6215,67.993 1.7127,-1.712 24.805,-75.044 24.805,-78.327 0,-1.142 -50.5241,-59.03 -112.2665,-128.765 l -112.2949,-126.795 0,-94.055 0,-93.998 -34.7383,-0.571 -34.7105,-0.571 -0.571,-69.906 -0.5709,-69.906001 -12.3029,0 -12.3315,0 z"
       id="path5848"
       style="fill:#000000;fill-opacity:1" />
  </g>
</svg>
