<?xml version="1.0" encoding="UTF-8" standalone="no"?>
<!-- Created with Inkscape (http://www.inkscape.org/) -->

<svg
   xmlns:dc="http://purl.org/dc/elements/1.1/"
   xmlns:cc="http://creativecommons.org/ns#"
   xmlns:rdf="http://www.w3.org/1999/02/22-rdf-syntax-ns#"
   xmlns:svg="http://www.w3.org/2000/svg"
   xmlns="http://www.w3.org/2000/svg"
   xmlns:sodipodi="http://sodipodi.sourceforge.net/DTD/sodipodi-0.dtd"
   xmlns:inkscape="http://www.inkscape.org/namespaces/inkscape"
   width="1000"
   height="1000"
   id="svg3345"
   version="1.1"
   inkscape:version="0.91 r13725"
   viewBox="0 0 1000 1000"
   sodipodi:docname="military_military_airfield.svg">
  <defs
     id="defs3347" />
  <sodipodi:namedview
     id="base"
     pagecolor="#ffffff"
     bordercolor="#666666"
     borderopacity="1.0"
     inkscape:pageopacity="0.0"
     inkscape:pageshadow="2"
     inkscape:zoom="0.5"
     inkscape:cx="11.512342"
     inkscape:cy="576"
     inkscape:current-layer="layer1"
     showgrid="true"
     inkscape:grid-bbox="true"
     inkscape:document-units="px"
     inkscape:window-width="1920"
     inkscape:window-height="1018"
     inkscape:window-x="-8"
     inkscape:window-y="-8"
     inkscape:window-maximized="1" />
  <metadata
     id="metadata3350">
    <rdf:RDF>
      <cc:Work
         rdf:about="">
        <dc:format>image/svg+xml</dc:format>
        <dc:type
           rdf:resource="http://purl.org/dc/dcmitype/StillImage" />
        <dc:title></dc:title>
      </cc:Work>
    </rdf:RDF>
  </metadata>
  <g
     id="layer1"
     inkscape:label="Layer 1"
     inkscape:groupmode="layer"
     transform="translate(0,968)">
    <path
       id="path5848"
       inkscape:connector-curvature="0"
       d="m 272.63966,-23.020249 c 1.00704,-0.966796 28.23584,-15.791001 60.46111,-32.978487 l 58.56324,-31.223931 0.69718,-87.548753 c 0.38732,-48.19657 0.1162,-87.58456 -0.58098,-87.58456 -0.69719,0 -59.33789,38.09893 -130.29546,84.71998 -70.95757,46.58525 -130.45038,84.970629 -132.23206,85.328702 -2.01408,0.39388 -9.41195,-17.438132 -20.52812,-49.521442 l -17.35207,-50.13016 5.926042,-5.94401 c 3.253508,-3.29427 71.112498,-74.04941 150.784838,-157.3013 l 144.85879,-151.32148 0,-123.71409 0,-123.71408 43.26398,-0.64453 43.26398,-0.64453 0.69718,-87.72779 0.69718,-87.72779 16.73235,0 16.73236,0 0.69718,87.72779 0.65845,87.72779 47.09847,0.64453 47.13721,0.64453 0,117.94912 0,117.94911 152.37286,159.05585 c 83.77796,87.47714 152.33413,160.16588 152.33413,161.56236 0,4.11784 -31.48936,96.03508 -33.65837,98.255128 -1.0845,1.110025 -62.01041,-37.275358 -135.21445,-85.328698 -73.32024,-48.08916 -133.82009,-87.40553 -134.556,-87.40553 -0.73592,0 -1.00704,41.07093 -0.65845,91.27271 l 0.69718,91.272707 56.82028,30.364558 c 31.25696,16.686183 59.68647,31.975883 63.24984,33.98109 5.80985,3.294268 -16.26756,3.65234 -226.97127,3.723955 -128.55249,-0.03581 -232.74238,-0.751952 -231.6966,-1.718749 l 0,0 z"
       style="fill:#000000;fill-opacity:1" />
  </g>
</svg>
