<?xml version="1.0" encoding="UTF-8" standalone="no"?>
<!-- Created with Inkscape (http://www.inkscape.org/) -->

<svg
   xmlns:dc="http://purl.org/dc/elements/1.1/"
   xmlns:cc="http://creativecommons.org/ns#"
   xmlns:rdf="http://www.w3.org/1999/02/22-rdf-syntax-ns#"
   xmlns:svg="http://www.w3.org/2000/svg"
   xmlns="http://www.w3.org/2000/svg"
   xmlns:sodipodi="http://sodipodi.sourceforge.net/DTD/sodipodi-0.dtd"
   xmlns:inkscape="http://www.inkscape.org/namespaces/inkscape"
   width="32"
   height="32"
   id="svg9424"
   version="1.1"
   inkscape:version="0.91 r13725"
   viewBox="0 0 32 32"
   sodipodi:docname="military.svg">
  <defs
     id="defs9426" />
  <sodipodi:namedview
     id="base"
     pagecolor="#ffffff"
     bordercolor="#666666"
     borderopacity="1.0"
     inkscape:pageopacity="0.0"
     inkscape:pageshadow="2"
     inkscape:zoom="20"
     inkscape:cx="11.871489"
     inkscape:cy="16"
     inkscape:current-layer="layer1"
     showgrid="true"
     inkscape:grid-bbox="true"
     inkscape:document-units="px"
     inkscape:window-width="1920"
     inkscape:window-height="1018"
     inkscape:window-x="-8"
     inkscape:window-y="-8"
     inkscape:window-maximized="1" />
  <metadata
     id="metadata9429">
    <rdf:RDF>
      <cc:Work
         rdf:about="">
        <dc:format>image/svg+xml</dc:format>
        <dc:type
           rdf:resource="http://purl.org/dc/dcmitype/StillImage" />
        <dc:title></dc:title>
      </cc:Work>
    </rdf:RDF>
  </metadata>
  <g
     id="layer1"
     inkscape:label="Layer 1"
     inkscape:groupmode="layer">
    <path
       inkscape:connector-curvature="0"
       d="M 10.369586,6.286 C 10.214511,6.42765 10.10075,6.62392 9.9970409,6.83601 9.7885649,7.26244 9.6818966,7.74731 9.5873797,8.23934 9.3985775,9.2218 9.2501809,10.21729 9.1091248,11.2151 c -0.024138,0.17078 -0.047283,0.34183 -0.07109,0.51422 l 10.3675072,0 c -0.0014,-0.0189 -0.0017,-0.0301 -0.0033,-0.0411 -0.05538,-0.48534 -0.107131,-0.9715 -0.167012,-1.45575 C 19.143963,9.49334 19.041081,8.75741 18.892734,8.036 18.829745,7.72979 18.76626,7.4221 18.637735,7.15358 18.464837,6.79254 18.263619,6.47356 17.976365,6.28599 c -2.535752,0 -5.071472,0 -7.607126,0 z m 19.120723,0.0502 c -0.02248,0 -0.03852,-0.002 -0.05439,5.2e-4 -0.670794,0.0943 -1.341587,0.18819 -2.012215,0.28514 -0.02976,0.004 -0.06183,0.0283 -0.08564,0.0556 -0.132922,0.15241 -0.2631,0.3094 -0.395443,0.46273 -0.01752,0.0203 -0.04166,0.0379 -0.06365,0.0406 -0.174535,0.0207 -0.349135,0.0375 -0.523835,0.0553 -0.41644,0.0422 -0.832962,0.0838 -1.249302,0.12667 -0.47933,0.0493 -0.958593,0.1003 -1.437906,0.14962 -0.473262,0.0487 -0.94659,0.0958 -1.419919,0.14422 -0.48543,0.0496 -0.970876,0.1 -1.456323,0.1502 -0.182536,0.0189 -0.365006,0.0381 -0.555181,0.058 0.15706,0.78604 0.216627,1.58993 0.29929,2.39373 0.07407,-0.007 0.144825,-0.0128 0.215486,-0.0202 0.680299,-0.0724 1.360599,-0.14581 2.040965,-0.21764 0.627528,-0.0662 1.255204,-0.13006 1.882715,-0.19643 0.787944,-0.0834 1.57592,-0.16868 2.363963,-0.2507 0.02976,-0.003 0.06448,0.0105 0.09076,0.0317 0.148463,0.11996 0.294264,0.24622 0.44271,0.36608 0.02612,0.0211 0.06117,0.0335 0.09093,0.0298 0.610697,-0.0749 1.221362,-0.15225 1.831861,-0.23056 0.09076,-0.0116 0.181115,-0.0306 0.271614,-0.0462 0,-0.006 0,-0.0115 0,-0.0173 C 29.750267,9.54314 29.732908,9.37951 29.719847,9.2151 29.652394,8.36888 29.586264,7.52255 29.519489,6.67628 29.511223,6.5629 29.49998,6.44963 29.490392,6.33645 Z M 7.1540463,13.68482 c -0.03538,0 -0.073239,0.0103 -0.1056432,0.0302 -0.5295225,0.32639 -1.0607644,0.64753 -1.5865174,0.9856 -0.4946718,0.3181 -0.9816724,0.65891 -1.4443866,1.06464 -0.024138,0.0212 -0.047614,0.0436 -0.071421,0.0655 0.00165,0.005 0.00331,0.009 0.00661,0.0135 l 22.6692949,0 c 0.0017,-0.007 0.0033,-0.0137 0.005,-0.0206 -0.155241,-0.13634 -0.308895,-0.27655 -0.466103,-0.40846 -0.748084,-0.62745 -1.526885,-1.17133 -2.315489,-1.68792 -0.04067,-0.0267 -0.08911,-0.0422 -0.133914,-0.0422 -1.762954,0 -3.525857,0.002 -5.28886,0.004 -0.224066,0 -0.448199,0.004 -0.672314,0.006 -0.566523,0.004 -1.133029,0.0106 -1.699485,0.0108 -0.998668,5.1e-4 -1.997319,-0.003 -2.995987,-0.005 -0.870226,-0.002 -1.740486,-10e-4 -2.610778,-0.003 -0.4891169,-10e-4 -0.978118,-0.006 -1.4671852,-0.008 -0.6073414,-0.003 -1.2146166,-0.005 -1.8219084,-0.005 z m -3.3277963,3.33026 0,0.51823 c 0.00331,0.11668 0.013226,0.23356 0.011573,0.34992 -0.00827,0.37067 0.061667,0.72311 0.1238291,1.07689 0.1811146,1.03215 0.4233998,2.03408 0.759524,2.9873 0.2314563,0.65648 0.5049881,1.27471 0.860538,1.81416 0.3399102,0.51582 0.7315178,0.9232 1.2170635,1.12117 0.1340794,0.0547 0.2747552,0.0777 0.412356,0.11554 0.013226,0.004 0.026452,0.0105 0.039678,0.0158 l 16.4620664,0 c 0.01157,-0.005 0.02215,-0.0132 0.03356,-0.0148 0.64292,-0.0849 1.184643,-0.47179 1.644249,-1.10145 0.404933,-0.55474 0.699065,-1.21777 0.936886,-1.93383 0.301786,-0.90836 0.502905,-1.86302 0.635596,-2.84626 0.04497,-0.33236 0.07721,-0.66982 0.09556,-1.00712 0.01488,-0.28911 0.0033,-0.58131 0.0033,-0.87212 l 0,-0.22341 -23.2355029,0 z m 4.3656134,0.88391 c 1.0312041,0.0179 1.8859886,1.2518 1.8737546,2.70503 -0.01323,1.50559 -0.8758141,2.7043 -1.9294033,2.68613 -1.0693282,-0.0184 -1.9244601,-1.27147 -1.8909816,-2.78206 0.031412,-1.41749 0.8591493,-2.62645 1.9466303,-2.6091 z m 4.8309066,0 c 1.035503,0.004 1.89247,1.22775 1.890287,2.69952 -0.0017,1.48617 -0.861199,2.69385 -1.913879,2.69081 -1.0625,-0.003 -1.910126,-1.21318 -1.908192,-2.72413 0.0017,-1.47083 0.870904,-2.67022 1.931784,-2.6662 z m 4.83132,0 c 1.048944,5.1e-4 1.906771,1.21699 1.906308,2.70358 -5.13e-4,1.47784 -0.859745,2.68567 -1.911185,2.68675 -1.052729,0.001 -1.912771,-1.2102 -1.912887,-2.69375 0,-1.48613 0.861166,-2.6971 1.917764,-2.69658 z m 4.815879,0.0473 c 0.03323,-5.1e-4 0.06663,0 0.100187,10e-4 1.044662,0.0494 1.870201,1.30597 1.835333,2.79977 -0.03439,1.47794 -0.925494,2.64494 -1.990805,2.58547 -1.03051,-0.0575 -1.830456,-1.25324 -1.830671,-2.70132 0.0099,-1.49442 0.856471,-2.66002 1.886006,-2.6852 z"
       id="path37" />
  </g>
</svg>
