<?xml version="1.0" encoding="UTF-8" standalone="no"?>
<!-- Created with Inkscape (http://www.inkscape.org/) -->

<svg
   xmlns:dc="http://purl.org/dc/elements/1.1/"
   xmlns:cc="http://creativecommons.org/ns#"
   xmlns:rdf="http://www.w3.org/1999/02/22-rdf-syntax-ns#"
   xmlns:svg="http://www.w3.org/2000/svg"
   xmlns="http://www.w3.org/2000/svg"
   xmlns:sodipodi="http://sodipodi.sourceforge.net/DTD/sodipodi-0.dtd"
   xmlns:inkscape="http://www.inkscape.org/namespaces/inkscape"
   width="32"
   height="32"
   id="svg8298"
   version="1.1"
   inkscape:version="0.91 r13725"
   viewBox="0 0 32 32"
   sodipodi:docname="mining.svg">
  <defs
     id="defs8300" />
  <sodipodi:namedview
     id="base"
     pagecolor="#ffffff"
     bordercolor="#666666"
     borderopacity="1.0"
     inkscape:pageopacity="0.0"
     inkscape:pageshadow="2"
     inkscape:zoom="20"
     inkscape:cx="11.871489"
     inkscape:cy="16"
     inkscape:current-layer="layer1"
     showgrid="true"
     inkscape:grid-bbox="true"
     inkscape:document-units="px"
     inkscape:window-width="1920"
     inkscape:window-height="1018"
     inkscape:window-x="-8"
     inkscape:window-y="-8"
     inkscape:window-maximized="1" />
  <metadata
     id="metadata8303">
    <rdf:RDF>
      <cc:Work
         rdf:about="">
        <dc:format>image/svg+xml</dc:format>
        <dc:type
           rdf:resource="http://purl.org/dc/dcmitype/StillImage" />
        <dc:title></dc:title>
      </cc:Work>
    </rdf:RDF>
  </metadata>
  <g
     id="layer1"
     inkscape:label="Layer 1"
     inkscape:groupmode="layer">
    <path
       inkscape:connector-curvature="0"
       d="M 11.162529,2.0874656 C 7.4816115,4.3413628 4.6520573,7.434887 2.63479,11.440488 c 1.0451477,0.992988 2.0587733,1.955869 3.0926039,2.938142 0.7368887,-1.621094 1.5953627,-3.071613 2.6916154,-4.3954717 1.9859817,2.2511137 3.9425157,4.4691977 5.9170037,6.7073737 -0.112579,0.129537 -0.199088,0.237085 -0.293002,0.336376 -1.904925,2.013904 -3.810591,4.026875 -5.7162276,6.040001 -0.9238587,0.976053 -1.8492876,1.950395 -2.7713983,2.928532 -0.4642106,0.492365 -0.4717059,0.725516 -0.020738,1.252917 0.2918165,0.341943 0.5977055,0.670466 0.9099048,0.990297 0.4295777,0.440177 0.6702893,0.428016 1.0821506,-0.03903 1.8115144,-2.054072 3.6211027,-4.110009 5.4318767,-6.164827 1.001983,-1.136893 2.004913,-2.272729 3.066266,-3.475635 0.136577,0.170529 0.237009,0.307079 0.34781,0.432651 2.712265,3.076232 5.425152,6.151717 8.139194,9.226005 0.395478,0.447906 0.632101,0.459118 1.05128,0.03421 0.303756,-0.307903 0.599424,-0.626925 0.882472,-0.957718 0.503435,-0.588142 0.495466,-0.794266 -0.02666,-1.345754 -2.308165,-2.441952 -4.622997,-4.876283 -6.921563,-7.329136 -0.600846,-0.6412 -1.151387,-1.338756 -1.739731,-2.027791 1.756381,-1.991775 3.571717,-4.050449 5.414013,-6.139758 0.300793,0.342176 0.560139,0.65829 0.840787,0.94999 0.239971,0.24937 0.475557,0.532719 0.763196,0.694057 1.675116,0.940022 3.364927,1.848771 5.050797,2.765669 0.07169,0.03903 0.154352,0.05427 0.281744,0.09766 C 29.192883,12.946632 28.308338,10.995335 27.415439,9.0486102 27.345521,8.8965247 27.229091,8.7640797 27.116068,8.6426913 26.719138,8.2166809 26.314298,7.7995189 25.913991,7.380553 26.071009,7.1689396 26.17707,7.0259046 26.24675,6.9320408 25.807426,6.4372498 25.392809,5.9701391 24.97443,5.4991251 24.852963,5.6086018 24.722609,5.7259315 24.56488,5.8681267 23.477574,4.6639613 22.407304,3.478581 21.362719,2.3218762 20.413233,3.3591831 19.488516,4.369665 18.511982,5.436627 c 1.050925,1.141092 2.118736,2.3003938 3.204501,3.479336 -1.913576,2.02157 -3.803273,4.017762 -5.702718,6.024404 C 13.942342,12.749108 11.904751,10.593833 9.8447332,8.4147963 11.054631,7.2149384 12.391625,6.2733303 13.851775,5.4730467 12.930227,4.3129051 12.048259,3.2024946 11.1625,2.08745 Z"
       id="path3-49" />
  </g>
</svg>
