<?xml version="1.0" encoding="UTF-8" standalone="no"?>
<!-- Created with Inkscape (http://www.inkscape.org/) -->

<svg
   xmlns:dc="http://purl.org/dc/elements/1.1/"
   xmlns:cc="http://creativecommons.org/ns#"
   xmlns:rdf="http://www.w3.org/1999/02/22-rdf-syntax-ns#"
   xmlns:svg="http://www.w3.org/2000/svg"
   xmlns="http://www.w3.org/2000/svg"
   xmlns:sodipodi="http://sodipodi.sourceforge.net/DTD/sodipodi-0.dtd"
   xmlns:inkscape="http://www.inkscape.org/namespaces/inkscape"
   width="1000"
   height="1000"
   viewBox="0 0 999.99999 999.99999"
   id="svg4123"
   version="1.1"
   inkscape:version="0.91 r13725"
   sodipodi:docname="misc_drinking_water.svg">
  <defs
     id="defs4125" />
  <sodipodi:namedview
     id="base"
     pagecolor="#ffffff"
     bordercolor="#666666"
     borderopacity="1.0"
     inkscape:pageopacity="0.0"
     inkscape:pageshadow="2"
     inkscape:zoom="0.5"
     inkscape:cx="80"
     inkscape:cy="520"
     inkscape:document-units="px"
     inkscape:current-layer="layer1"
     showgrid="false"
     units="px"
     inkscape:window-width="1920"
     inkscape:window-height="1018"
     inkscape:window-x="-8"
     inkscape:window-y="-8"
     inkscape:window-maximized="1" />
  <metadata
     id="metadata4128">
    <rdf:RDF>
      <cc:Work
         rdf:about="">
        <dc:format>image/svg+xml</dc:format>
        <dc:type
           rdf:resource="http://purl.org/dc/dcmitype/StillImage" />
        <dc:title></dc:title>
      </cc:Work>
    </rdf:RDF>
  </metadata>
  <g
     inkscape:label="Layer 1"
     inkscape:groupmode="layer"
     id="layer1"
     transform="translate(0,-52.362271)">
    <path
       style="fill:#4c4c4c;fill-opacity:1"
       d="m 480.42501,169.31477 c -14.19139,0 -25.69009,11.49643 -25.69009,25.69009 l 0,3.20146 -68.4414,0 c -14.19139,0 -25.69123,11.4987 -25.69123,25.69009 l 0,36.78789 c 0,14.19025 11.49871,25.69009 25.69123,25.69009 l 68.96268,0 c -0.33843,1.66035 -0.51901,3.37749 -0.51901,5.13665 l 0,31.90336 c -28.87906,10.30057 -53.79007,30.21462 -70.05179,56.83255 l -197.70498,0 c -14.19138,0 -25.69122,11.4987 -25.69122,25.69008 l 0,84.82919 c 0,14.19025 11.49984,25.69008 25.69122,25.69008 l 195.06227,0 c 23.63224,42.53214 68.1961,69.16824 117.91137,69.16824 49.71482,0 94.27981,-26.6361 117.90751,-69.16824 l 5.2207,0 c 8.77081,0 15.90171,7.13545 15.90171,15.90399 l 0,49.13835 c -11.74401,2.36674 -20.58637,12.73772 -20.58637,25.18244 l 0,43.64964 c 0,14.19024 11.4953,25.69008 25.68895,25.69008 l 126.83551,0 c 14.18911,0 25.68781,-11.4987 25.68781,-25.69008 l 0,-43.64964 c 0,-13.01596 -9.68049,-23.74581 -22.24104,-25.43343 l 0,-91.30366 c 0,-60.48828 -49.21331,-109.69704 -109.70045,-109.69704 l -49.45294,0 c -16.26399,-26.62134 -41.175,-46.53198 -70.05519,-56.83255 l 0,-31.90336 c 0,-1.76029 -0.18058,-3.4763 -0.51674,-5.13665 l 68.96155,0 c 14.19138,0 25.69008,-11.49984 25.69008,-25.69009 l 0,-36.78789 c 0,-14.19025 -11.49756,-25.69009 -25.69008,-25.69009 l -68.44481,0 0,-3.2026 c 0,-14.19025 -11.49757,-25.68895 -25.68782,-25.68895 l -39.04743,0 z m 225.43315,539.91201 c -11.2216,0 -21.1508,7.28535 -24.50558,17.99476 l -38.7617,123.48753 c -0.19647,0.61667 -0.36228,1.23448 -0.50765,1.85796 -2.0567,6.51537 -3.09017,13.22039 -3.09017,19.97424 0,36.87421 29.99997,66.8685 66.86964,66.8685 36.86966,0 66.86736,-29.99883 66.86736,-66.8685 0,-6.47561 -0.96305,-12.90807 -2.84827,-19.17699 -0.30777,-1.54565 -0.75068,-3.04134 -1.3242,-4.47229 L 730.366,727.22154 c -3.35591,-10.71055 -13.28511,-17.99476 -24.50784,-17.99476 z"
       id="path3-99"
       inkscape:connector-curvature="0" />
  </g>
</svg>
