<?xml version="1.0" encoding="UTF-8" standalone="no"?>
<!-- Created with Inkscape (http://www.inkscape.org/) -->

<svg
   xmlns:dc="http://purl.org/dc/elements/1.1/"
   xmlns:cc="http://creativecommons.org/ns#"
   xmlns:rdf="http://www.w3.org/1999/02/22-rdf-syntax-ns#"
   xmlns:svg="http://www.w3.org/2000/svg"
   xmlns="http://www.w3.org/2000/svg"
   xmlns:sodipodi="http://sodipodi.sourceforge.net/DTD/sodipodi-0.dtd"
   xmlns:inkscape="http://www.inkscape.org/namespaces/inkscape"
   width="1000"
   height="1000"
   id="svg3347"
   version="1.1"
   inkscape:version="0.91 r13725"
   viewBox="0 0 1000 1000"
   sodipodi:docname="misc_water_well.svg">
  <defs
     id="defs3349" />
  <sodipodi:namedview
     id="base"
     pagecolor="#ffffff"
     bordercolor="#666666"
     borderopacity="1.0"
     inkscape:pageopacity="0.0"
     inkscape:pageshadow="2"
     inkscape:zoom="0.5"
     inkscape:cx="13.112538"
     inkscape:cy="416"
     inkscape:current-layer="layer1"
     showgrid="true"
     inkscape:grid-bbox="true"
     inkscape:document-units="px"
     inkscape:window-width="1920"
     inkscape:window-height="1018"
     inkscape:window-x="-8"
     inkscape:window-y="-8"
     inkscape:window-maximized="1" />
  <metadata
     id="metadata3352">
    <rdf:RDF>
      <cc:Work
         rdf:about="">
        <dc:format>image/svg+xml</dc:format>
        <dc:type
           rdf:resource="http://purl.org/dc/dcmitype/StillImage" />
        <dc:title></dc:title>
      </cc:Work>
    </rdf:RDF>
  </metadata>
  <g
     id="layer1"
     inkscape:label="Layer 1"
     inkscape:groupmode="layer"
     transform="translate(0,968)">
    <path
       style="fill:#4c4c4c;fill-opacity:1"
       id="path50584"
       inkscape:connector-curvature="0"
       d="m 125.69946,-386.26537 c 0,-265.74317 -0.34439,-280.47473 -6.46677,-278.94086 -50.280061,12.46271 -90.534721,19.65273 -91.797462,16.45716 -7.002474,-17.92712 -13.584035,-42.94839 -11.709055,-44.54617 2.142833,-1.78952 382.954997,-87.71826 388.771267,-87.71826 2.33415,0 9.71928,18.56623 16.03298,40.26412 2.21937,7.60544 1.33927,7.95695 -47.06585,18.59819 l -49.32343,10.83296 -0.99489,62.72894 -0.99489,62.72894 70.56045,0 70.56049,0 0,10.83296 c 0,9.77843 1.03315,10.83297 10.21673,10.86493 24.10687,0.0319 63.25185,23.51935 92.9454,55.73065 19.24724,20.83508 36.35165,59.69315 48.63467,110.34285 l 6.65809,27.48186 171.23537,0.79889 171.23537,0.70303 0,131.59336 0,131.62532 -419.30663,0 -419.19184,0 0,-280.37887 0,0 z m 483.43859,-6.10352 c -13.89016,-61.6105 -32.44863,-98.58318 -64.70593,-129.16474 -21.08395,-20.00424 -42.01484,-31.47631 -65.39469,-35.85424 -15.72686,-2.93992 -15.76513,-2.93992 -15.76513,6.00766 l 0,8.97954 -70.48396,0 -70.48392,0 0,86.72763 0,86.69568 146.05711,0 146.05707,0 -5.28055,-23.39153 0,0 z" />
  </g>
</svg>
