<?xml version="1.0" encoding="UTF-8" standalone="no"?>
<!-- Created with Inkscape (http://www.inkscape.org/) -->

<svg
   xmlns:dc="http://purl.org/dc/elements/1.1/"
   xmlns:cc="http://creativecommons.org/ns#"
   xmlns:rdf="http://www.w3.org/1999/02/22-rdf-syntax-ns#"
   xmlns:svg="http://www.w3.org/2000/svg"
   xmlns="http://www.w3.org/2000/svg"
   xmlns:sodipodi="http://sodipodi.sourceforge.net/DTD/sodipodi-0.dtd"
   xmlns:inkscape="http://www.inkscape.org/namespaces/inkscape"
   width="352.78mm"
   height="352.78mm"
   viewBox="0 0 1250.0079 1250.0079"
   id="svg5490"
   version="1.1"
   inkscape:version="0.91 r13725"
   sodipodi:docname="misc_lighthouse.svg">
  <defs
     id="defs5492" />
  <sodipodi:namedview
     id="base"
     pagecolor="#ffffff"
     bordercolor="#666666"
     borderopacity="1.0"
     inkscape:pageopacity="0.0"
     inkscape:pageshadow="2"
     inkscape:zoom="0.5"
     inkscape:cx="80"
     inkscape:cy="520"
     inkscape:document-units="px"
     inkscape:current-layer="layer1"
     showgrid="false"
     inkscape:window-width="1920"
     inkscape:window-height="1018"
     inkscape:window-x="-8"
     inkscape:window-y="-8"
     inkscape:window-maximized="1" />
  <metadata
     id="metadata5495">
    <rdf:RDF>
      <cc:Work
         rdf:about="">
        <dc:format>image/svg+xml</dc:format>
        <dc:type
           rdf:resource="http://purl.org/dc/dcmitype/StillImage" />
        <dc:title></dc:title>
      </cc:Work>
    </rdf:RDF>
  </metadata>
  <g
     inkscape:label="Layer 1"
     inkscape:groupmode="layer"
     id="layer1"
     transform="translate(0,197.64569)">
    <path
       inkscape:connector-curvature="0"
       d="m 627.72645,98.520208 c -1.911,0 -3.995,0.727 -7.306,1.885002 -4.199,1.48 -7.396,3.219 -7.047,3.838 0.323,0.646 -0.619,0.807 -2.153,0.323 -1.884,-0.565 -2.503,-0.296 -1.884,0.888 0.592,1.104 0.269,1.4 -0.996,0.835 -2.261,-1.05 -28.013,8.506 -27.179,10.094 0.297,0.619 -0.672,0.726 -2.207,0.269 -1.776,-0.539 -2.476,-0.296 -1.938,0.727 0.539,1.022 -0.269,1.265 -1.938,0.726 -1.803,-0.538 -2.503,-0.269 -1.938,0.781 0.539,1.023 -0.269,1.292 -1.938,0.727 -1.803,-0.539 -2.476,-0.323 -1.938,0.726 0.538,1.023 -0.269,1.346 -1.938,0.781 -1.911,-0.565 -2.503,-0.323 -1.884,0.835 0.592,1.13 0.269,1.453 -0.996,0.888 -1.077,-0.485 -5.779,0.565 -10.409,2.369 -7.806,3.041 -8.412,3.636 -8.412,7.728 l 0,4.366 81.961,0 81.963,0 0,-4.366 c 0,-4.415 0,-4.434 -29.757,-16.035 -16.393,-6.353 -30.6,-11.155 -31.65,-10.67 -1.265,0.565 -1.642,0.296 -1.049,-0.834 0.646,-1.185 0.02,-1.454 -1.831,-0.889 -1.749,0.565 -2.503,0.269 -1.938,-0.78 0.512,-1.023 -0.269,-1.292 -1.938,-0.727 -1.534,0.457 -2.503,0.323 -2.153,-0.323 0.35,-0.646 -1.965,-2.046 -5.206,-3.101002 -2.53,-0.834 -4.293,-1.211 -6.204,-1.104 z m 354.132,28.441002 -5.572,1.05 c -2.988,0.592 -61.563,10.124 -130.013,21.187 l -124.547,20.134 0.377,45.056 c 0.323,41.426 0.511,45.055 2.584,45.108 1.211,0 57.994,9.225 126.175,20.449 68.128,11.225 125.499,20.528 127.383,20.608 l 3.629,0.269 0,-86.902 0,-86.848 z m -711.68,4.417 c -1.857,0 -2.045,8.455 -2.045,81.805 l 0,81.75 5.572,-0.888 c 3.095,-0.485 62.585,-9.378 132.22,-19.822 l 126.648,-18.977 0.323,-42.271 0.377,-42.268 -4.312,-0.942 c -6.003,-1.265 -256.207,-38.379 -258.764,-38.379 z m 351.712,22.605 c -19.305,1.938 -37.66,13.117 -46.946,32.753 -15.074,31.843 3.168,70.661 37.38,79.597 4.71,1.212 11.329,2.234 14.721,2.315 22.368,0.269 43.476,-12.826 53.517,-33.121 4.252,-8.614 4.853,-11.053 5.31,-21.712 0.673,-15.208 -2.476,-25.703 -11.197,-37.116 -13.217,-17.375 -33.477,-24.656 -52.785,-22.713 z m 9.149,10.988 c 16.272,1.319 32.056,10.673 39.956,27.496 3.311,7.025 3.944,9.822 3.89,18.086 0,18.626 -9.314,33.482 -25.76,41.584 -6.972,3.446 -10.231,4.172 -19.033,4.522 -6.487,0.27 -12.565,-0.269 -15.93,-1.372 -30.174,-9.852 -42.766,-43.418 -26.024,-69.501 9.866,-15.383 26.63,-22.129 42.901,-20.82 z m -96.313,118.237 -45.791,218.966 c -25.195,120.374 -46.047,220.192 -46.37,221.699 l -0.566,2.735 -44.163,0 -44.16,0 0,14.826 0,0 0,14.823 88.218,-0.323 c 48.505,0 171.552,-0.458 273.326,-0.673 l 185.108,-0.377 0,-14.826 0,-14.721 -42.637,0.431 c -23.391,0.269 -42.583,0.269 -42.583,0 0,-0.269 -20.594,-99.139 -45.843,-219.701 -25.249,-120.59 -46.05,-220.046 -46.266,-221.015 l -0.376,-1.777 -93.998,0 -94.001,0 z m 94.106,81.33 81.645,0 0.377,1.481 c 0.808,3.284 12.67,60.364 12.67,61.037 0,0.565 -24.295,0.754 -94.63,0.727 -52.004,0 -94.526,-0.269 -94.526,-0.431 0,-0.269 2.913,-14.298 6.466,-31.229 3.553,-16.931 6.414,-30.96 6.414,-31.176 0,-0.269 36.724,-0.43 81.595,-0.43 z m 111.927,143.946 1.427,6.939 c 0.727,3.795 4.075,19.819 7.359,35.485 l 5.995,28.653 -126.439,0 -126.436,0 0.431,-2.422 c 0.269,-1.319 3.513,-17.187 7.308,-35.329 l 6.939,-33.014 111.718,-0.269 111.717,-0.269 z m -255.348,152.303 143.526,0 143.577,0 0.377,1.48 c 1.372,6.111 13.197,63.347 13.09,63.455 -0.269,0.269 -314.147,0.808 -314.227,0.592 0,0 2.915,-14.034 6.468,-31.019 3.553,-17.012 6.619,-31.703 6.834,-32.699 l 0.377,-1.777 z"
       id="path9888"
       style="fill:#4c4c4c;fill-opacity:1" />
  </g>
</svg>
