<?xml version="1.0" encoding="UTF-8" standalone="no"?>
<!-- Created with Inkscape (http://www.inkscape.org/) -->

<svg
   xmlns:dc="http://purl.org/dc/elements/1.1/"
   xmlns:cc="http://creativecommons.org/ns#"
   xmlns:rdf="http://www.w3.org/1999/02/22-rdf-syntax-ns#"
   xmlns:svg="http://www.w3.org/2000/svg"
   xmlns="http://www.w3.org/2000/svg"
   xmlns:sodipodi="http://sodipodi.sourceforge.net/DTD/sodipodi-0.dtd"
   xmlns:inkscape="http://www.inkscape.org/namespaces/inkscape"
   width="32"
   height="32"
   id="svg3351"
   version="1.1"
   inkscape:version="0.91 r13725"
   viewBox="0 0 32 32"
   sodipodi:docname="observation_tower_.svg">
  <defs
     id="defs3353" />
  <sodipodi:namedview
     id="base"
     pagecolor="#ffffff"
     bordercolor="#666666"
     borderopacity="1.0"
     inkscape:pageopacity="0.0"
     inkscape:pageshadow="2"
     inkscape:zoom="20"
     inkscape:cx="11.331756"
     inkscape:cy="16"
     inkscape:current-layer="layer1"
     showgrid="true"
     inkscape:grid-bbox="true"
     inkscape:document-units="px"
     inkscape:window-width="1920"
     inkscape:window-height="1018"
     inkscape:window-x="-8"
     inkscape:window-y="-8"
     inkscape:window-maximized="1" />
  <metadata
     id="metadata3356">
    <rdf:RDF>
      <cc:Work
         rdf:about="">
        <dc:format>image/svg+xml</dc:format>
        <dc:type
           rdf:resource="http://purl.org/dc/dcmitype/StillImage" />
        <dc:title />
      </cc:Work>
    </rdf:RDF>
  </metadata>
  <g
     id="layer1"
     inkscape:label="Layer 1"
     inkscape:groupmode="layer">
    <path
       id="path39734"
       style="fill:#4c4c4c;fill-opacity:1"
       d="m 7.6520302,13.865098 c -0.525,-0.091 -1.002,-0.452 -1.241,-0.938 -0.112,-0.229 -0.127,-0.31 -0.127,-0.689 0,-0.396 0.012,-0.455 0.148,-0.732 0.178,-0.362 0.505,-0.668 0.868,-0.813 0.375,-0.149 0.929,-0.141 1.275,0.02 0.342,0.159 0.667,0.47 0.826,0.791 0.181,0.366 0.21,0.914 0.068,1.289 -0.282,0.748 -1.055,1.204 -1.817,1.072 l 0,0 z m -1.109,14.407 c -0.105,-0.053 -0.231,-0.15 -0.279,-0.219 -0.199,-0.279 -0.199,-0.26 -0.171,-6.267 l 0.026,-5.708 -0.133,0 -0.132,0 0,1.75 c 0,1.051 -0.019,1.816 -0.046,1.917 -0.057,0.205 -0.297,0.423 -0.513,0.462 -0.225,0.043 -0.538,-0.1 -0.659,-0.298 -0.089,-0.146 -0.091,-0.222 -0.091,-2.635 0,-2.799 -0.013,-2.697 0.343,-2.902 l 0.176,-0.102 2.827,0.011 2.8269998,0.011 0.166,0.127 c 0.314,0.239 0.302,0.122 0.302,2.834 0,2.717 0.006,2.657 -0.299,2.846 -0.308,0.191 -0.663,0.111 -0.8959998,-0.2 -0.09,-0.12 -0.094,-0.187 -0.106,-1.974 l -0.013,-1.85 -0.112,0 -0.111,0 0,5.829 c 0,6.353 0.017,5.938 -0.256,6.194 -0.353,0.334 -0.905,0.263 -1.182,-0.155 l -0.121,-0.185 -0.013,-3.131 -0.012,-3.133 -0.202,0 -0.202,0 0,3.143 c 0,3.416 0.012,3.254 -0.256,3.507 -0.249,0.242 -0.546,0.284 -0.862,0.128 l 0,0 z m 6.4939998,0.028 c 0.025,-0.07 3.211,-15.292 3.211,-15.34 0,-0.013 -0.464,-0.023 -1.031,-0.023 l -1.031,0 0,-3.0500002 c 0,-2.973 0.003,-3.052 0.116,-3.108 0.063,-0.032 1.399,-0.766 2.969,-1.632 2.761,-1.524 2.856,-1.572 3.036,-1.504 0.101,0.039 0.185,0.092 0.185,0.119 0,0.027 0.025,0.033 0.06,0.013 0.031,-0.02 0.059,-0.01 0.059,0.022 0,0.032 0.094,0.092 0.207,0.133 0.113,0.042 0.205,0.098 0.205,0.125 0,0.027 0.027,0.034 0.061,0.014 0.032,-0.02 0.06,-0.01 0.06,0.022 0,0.032 0.092,0.092 0.204,0.133 0.113,0.041 0.207,0.097 0.207,0.125 0,0.028 0.027,0.034 0.06,0.014 0.033,-0.02 0.06,-0.009 0.06,0.025 0,0.034 0.065,0.078 0.146,0.098 0.081,0.021 0.146,0.062 0.146,0.093 0,0.031 0.026,0.04 0.06,0.02 0.032,-0.02 0.06,-0.012 0.06,0.021 0,0.032 0.094,0.088 0.207,0.126 0.112,0.038 0.205,0.094 0.205,0.126 0,0.032 0.026,0.042 0.061,0.021 0.031,-0.02 0.059,-0.008 0.059,0.025 0,0.034 0.066,0.078 0.146,0.098 0.082,0.021 0.147,0.062 0.147,0.093 0,0.03 0.025,0.04 0.06,0.021 0.031,-0.021 0.059,-0.01 0.059,0.021 0,0.032 0.093,0.092 0.206,0.133 0.114,0.041 0.206,0.097 0.206,0.125 0,0.028 0.027,0.034 0.059,0.014 0.033,-0.02 0.061,-0.01 0.061,0.022 0,0.032 0.093,0.092 0.205,0.133 0.113,0.041 0.207,0.097 0.207,0.125 0,0.028 0.025,0.034 0.06,0.014 0.032,-0.02 0.06,-0.007 0.06,0.025 0,0.033 0.065,0.078 0.146,0.098 0.081,0.02 0.146,0.062 0.146,0.093 0,0.031 0.026,0.04 0.06,0.02 0.034,-0.02 0.06,-0.01 0.06,0.022 0,0.032 0.094,0.092 0.207,0.133 0.112,0.041 0.205,0.097 0.205,0.125 0,0.028 0.026,0.034 0.059,0.014 0.033,-0.02 0.061,-0.008 0.061,0.025 0,0.033 0.066,0.078 0.146,0.098 0.082,0.02 0.146,0.062 0.146,0.093 0,0.031 0.026,0.04 0.061,0.02 0.031,-0.02 0.059,-0.01 0.059,0.022 0,0.032 0.094,0.092 0.206,0.133 0.112,0.041 0.206,0.096 0.206,0.121 0,0.026 0.033,0.041 0.074,0.033 0.058,-0.011 0.076,0.639 0.088,3.064 l 0.016,3.0790002 -0.885,0 c -0.486,0 -0.885,0.021 -0.885,0.045 0,0.025 0.717,3.465 1.592,7.645 0.875,4.18 1.592,7.633 1.592,7.674 0,0.057 -0.199,0.074 -0.826,0.074 -0.453,0 -0.824,-0.014 -0.824,-0.029 0,-0.017 -0.065,-0.334 -0.146,-0.707 l -0.146,-0.674 -2.516,-3.229 c -1.383,-1.775 -2.57,-3.287 -2.64,-3.359 l -0.125,-0.133 -2.585,3.227 -2.585,3.226 -0.167,0.797 c -0.092,0.438 -0.168,0.813 -0.168,0.839 0,0.023 -0.385,0.044 -0.854,0.044 -0.666,-0.003 -0.856,-0.021 -0.836,-0.075 l 0,0 z m 10.983,-8.442 c -0.387,-1.848 -0.709,-3.377 -0.717,-3.4 -0.008,-0.023 -0.459,0.515 -1.002,1.195 l -0.989,1.234 1.696,2.176 c 0.932,1.195 1.699,2.168 1.705,2.162 0.006,-0.004 -0.306,-1.52 -0.693,-3.367 z m -6.51,1.094 c 0.896,-1.115 1.621,-2.063 1.611,-2.105 -0.023,-0.104 -1.898,-2.503 -1.916,-2.45 -0.027,0.093 -1.371,6.545 -1.371,6.588 0.002,0.059 -0.173,0.27 1.676,-2.033 l 0,0 z m 4.069,-5.076 1.277,-1.595 -0.141,-0.659 -0.14,-0.659 -2.327,-0.015 -2.33,-0.016 -0.113,0.575 c -0.063,0.316 -0.112,0.616 -0.11,0.666 0.004,0.102 2.483,3.296 2.56,3.296 0.025,0.002 0.621,-0.714 1.324,-1.593 l 0,0 z m 2.447,-6.5650002 0,-1.385 -3.889,0 -3.889,0 0,1.385 0,1.3850002 3.889,0 3.889,0 0,-1.3850002 z" />
  </g>
</svg>
