<?xml version="1.0" encoding="UTF-8" standalone="no"?>
<!-- Created with Inkscape (http://www.inkscape.org/) -->

<svg
   xmlns:dc="http://purl.org/dc/elements/1.1/"
   xmlns:cc="http://creativecommons.org/ns#"
   xmlns:rdf="http://www.w3.org/1999/02/22-rdf-syntax-ns#"
   xmlns:svg="http://www.w3.org/2000/svg"
   xmlns="http://www.w3.org/2000/svg"
   xmlns:sodipodi="http://sodipodi.sourceforge.net/DTD/sodipodi-0.dtd"
   xmlns:inkscape="http://www.inkscape.org/namespaces/inkscape"
   width="1000"
   height="1000"
   id="svg3355"
   version="1.1"
   inkscape:version="0.91 r13725"
   viewBox="0 0 1000 1000"
   sodipodi:docname="misc_lighthouse.svg">
  <defs
     id="defs3357" />
  <sodipodi:namedview
     id="base"
     pagecolor="#ffffff"
     bordercolor="#666666"
     borderopacity="1.0"
     inkscape:pageopacity="0.0"
     inkscape:pageshadow="2"
     inkscape:zoom="0.59"
     inkscape:cx="9.2008305"
     inkscape:cy="490.57627"
     inkscape:current-layer="layer1"
     showgrid="true"
     inkscape:grid-bbox="true"
     inkscape:document-units="px"
     inkscape:window-width="1920"
     inkscape:window-height="1018"
     inkscape:window-x="-8"
     inkscape:window-y="-8"
     inkscape:window-maximized="1" />
  <metadata
     id="metadata3360">
    <rdf:RDF>
      <cc:Work
         rdf:about="">
        <dc:format>image/svg+xml</dc:format>
        <dc:type
           rdf:resource="http://purl.org/dc/dcmitype/StillImage" />
        <dc:title></dc:title>
      </cc:Work>
    </rdf:RDF>
  </metadata>
  <g
     id="layer1"
     inkscape:label="Layer 1"
     inkscape:groupmode="layer"
     transform="translate(0,968)">
    <path
       id="path9916"
       style="fill:#4c4c4c;fill-opacity:1"
       d="m 85.793347,-728.90694 c 0,-94.01278 0.248862,-104.84581 2.395292,-104.84581 2.955229,0 292.101101,47.61014 299.038111,49.23165 l 4.97723,1.173 -0.4044,54.19966 -0.4044,54.19966 -146.33052,24.28808 c -80.47556,13.38604 -149.223533,24.80558 -152.800916,25.42658 l -6.470397,1.1385 0,-104.81132 z m 673.450123,85.62926 c -78.79575,-14.38654 -144.43295,-26.18559 -145.83279,-26.25459 -2.39529,-0.069 -2.61305,-4.72651 -2.98634,-57.82217 l -0.43551,-57.75317 143.93523,-25.77157 c 79.10683,-14.17954 146.79713,-26.39258 150.25009,-27.15158 l 6.43928,-1.38001 0,111.36633 0,111.36634 -4.16842,-0.207 c -2.17754,-0.1035 -68.468,-12.00603 -147.20154,-26.39258 l 0,0 z M 406.38908,-831.64824 c 0,-5.24402 0.71548,-5.96852 9.7367,-9.86703 5.35052,-2.31151 10.76326,-3.69151 12.00757,-3.07051 1.46206,0.7245 1.89757,0.345 1.2132,-1.104 -0.71548,-1.48351 -0.0311,-1.86301 2.17753,-1.13851 2.05311,0.72451 2.86191,0.345 2.23976,-0.966 -0.62216,-1.3455 0.15554,-1.656 2.23975,-0.966 2.05311,0.7245 2.86191,0.345 2.23975,-0.96601 -0.65326,-1.311 0.15554,-1.656 2.23976,-0.966 2.0531,0.69 2.8619,0.345 2.23975,-0.966 -0.62216,-1.311 0.18664,-1.65601 2.23975,-0.966 1.77314,0.5865 2.92412,0.483 2.58194,-0.3105 -0.96434,-2.03551 28.7746,-14.28305 31.38765,-12.93754 1.43095,0.7245 1.86646,0.3105 1.18209,-1.10401 -0.71548,-1.518 0,-1.863 2.17754,-1.1385 1.77313,0.621 2.89301,0.4485 2.51972,-0.3795 -0.4044,-0.7935 3.2663,-3.03601 8.1191,-4.93351 7.65249,-3.00151 9.7367,-3.13951 15.58495,-1.00051 3.73292,1.34551 6.43929,3.13951 6.03489,3.96751 -0.4044,0.82801 0.71547,1.00051 2.48861,0.414 2.05311,-0.7245 2.86191,-0.345 2.27086,0.96601 -0.65326,1.3455 0.18665,1.6905 2.20865,0.966 2.14643,-0.7245 2.89301,-0.3795 2.14643,1.1385 -0.68437,1.44901 -0.24886,1.82851 1.2132,1.10401 1.2132,-0.621 17.66916,5.55451 36.61373,13.69654 34.34288,14.86954 34.34288,14.86954 34.34288,20.52756 l 0,5.62351 -94.69177,0 -94.72288,0 0,-5.62351 -0.0311,0 z m 77.20926,170.87901 c -39.53786,-11.45404 -60.62887,-61.16869 -43.20857,-101.98231 21.4643,-50.33565 84.70621,-57.40817 115.25395,-12.86854 10.07889,14.62804 13.71849,28.08308 12.94079,47.57564 -0.52883,13.66204 -1.2132,16.73255 -6.12821,27.77258 -11.60316,26.01308 -36.02269,42.81464 -61.87317,42.46964 -3.91957,-0.1035 -11.54095,-1.4145 -16.98479,-2.96701 l 0,0 z m 42.49309,-18.18156 c 19.00679,-10.38453 29.64561,-29.42859 29.77004,-53.30266 0.0622,-10.59153 -0.65326,-14.14504 -4.4795,-23.14957 -18.26021,-43.12513 -72.94751,-47.98964 -95.74944,-8.55602 -19.34897,33.43059 -4.82169,76.45222 30.05002,89.07926 3.88846,1.4145 10.9499,2.07 18.44686,1.7595 10.17221,-0.4485 13.90513,-1.4145 21.96202,-5.83051 l 0,0 z m -341.43788,627.142816 0,-18.975056 51.0477,0 51.0477,0 0.65326,-3.55351 c 0.37329,-1.932006 24.48174,-129.82388 53.59853,-284.10833 l 52.91416,-280.65829 108.62801,0 108.62802,0 0.4355,2.277 c 0.24886,1.24201 24.2951,128.71985 53.4741,283.2803 29.179,154.52595 52.97638,281.210326 52.97638,281.555327 0,0.379501 22.17977,0.448501 49.21234,0.1035 l 49.27457,-0.552001 0,18.906055 0,18.940556 -213.92751,0.517501 c -117.61813,0.276001 -259.81132,0.690002 -315.86736,0.828003 l -102.00208,0.448501 0,-19.009556 -0.0933,0 z m 499.58931,-20.148059 c 0.12443,-0.138 -13.53184,-73.485217 -15.11833,-81.316737 l -0.43551,-1.89751 -165.89725,0 -165.89724,0 -0.43551,2.27701 c -0.24886,1.2765 -3.79514,20.11356 -7.90135,41.91762 -4.10621,21.769566 -7.46584,39.675119 -7.46584,39.744119 0.0933,0.276001 362.93328,-0.517501 363.15103,-0.724502 l 0,0 z M 642.15417,-295.99969 c -3.79513,-20.07906 -7.65249,-40.60662 -8.49239,-45.47113 l -1.64871,-8.90103 -129.12797,0.207 -129.12797,0.207 -7.96357,42.26262 c -4.38618,23.25307 -8.21243,43.60813 -8.46129,45.29864 l -0.49772,3.10501 146.14387,0 146.08166,0 -6.90591,-36.70811 0,0 z m -30.08112,-158.73497 c 0,-0.8625 -13.71849,-74.07171 -14.65172,-78.28069 l -0.43551,-1.86301 -94.31848,0 c -51.8565,0 -94.28737,0.207 -94.28737,0.5175 0,0.276 -3.35963,18.28502 -7.46584,39.98559 -4.10621,21.70056 -7.46584,39.74411 -7.46584,40.02011 0,0.3105 49.18124,0.55201 109.28127,0.55201 81.28436,0.0345 109.34349,-0.207 109.34349,-0.93151 l 0,0 z"
       inkscape:connector-curvature="0" />
  </g>
</svg>
