<?xml version="1.0" encoding="UTF-8" standalone="no"?>
<!-- Created with Inkscape (http://www.inkscape.org/) -->

<svg
   xmlns:dc="http://purl.org/dc/elements/1.1/"
   xmlns:cc="http://creativecommons.org/ns#"
   xmlns:rdf="http://www.w3.org/1999/02/22-rdf-syntax-ns#"
   xmlns:svg="http://www.w3.org/2000/svg"
   xmlns="http://www.w3.org/2000/svg"
   xmlns:sodipodi="http://sodipodi.sourceforge.net/DTD/sodipodi-0.dtd"
   xmlns:inkscape="http://www.inkscape.org/namespaces/inkscape"
   width="32"
   height="32"
   id="svg3349"
   version="1.1"
   inkscape:version="0.91 r13725"
   viewBox="0 0 32 32"
   sodipodi:docname="fountain_.svg">
  <defs
     id="defs3351" />
  <sodipodi:namedview
     id="base"
     pagecolor="#ffffff"
     bordercolor="#666666"
     borderopacity="1.0"
     inkscape:pageopacity="0.0"
     inkscape:pageshadow="2"
     inkscape:zoom="20"
     inkscape:cx="8.9750236"
     inkscape:cy="16"
     inkscape:current-layer="layer1"
     showgrid="true"
     inkscape:grid-bbox="true"
     inkscape:document-units="px"
     inkscape:window-width="1920"
     inkscape:window-height="1018"
     inkscape:window-x="-8"
     inkscape:window-y="-8"
     inkscape:window-maximized="1" />
  <metadata
     id="metadata3354">
    <rdf:RDF>
      <cc:Work
         rdf:about="">
        <dc:format>image/svg+xml</dc:format>
        <dc:type
           rdf:resource="http://purl.org/dc/dcmitype/StillImage" />
        <dc:title />
      </cc:Work>
    </rdf:RDF>
  </metadata>
  <g
     id="layer1"
     inkscape:label="Layer 1"
     inkscape:groupmode="layer">
    <path
       id="path6609"
       style="fill:#4c4c4c;fill-opacity:1"
       d="m 15.327166,14.446727 c -0.02,-1.503 -0.029,-1.608 -0.165,-1.95 -0.314,-0.791 -1.02,-1.233 -1.856,-1.166 -0.962,0.077 -1.604,0.77 -1.712,1.847 -0.056,0.549 -0.124,0.704 -0.367,0.83 -0.302,0.156 -0.584,0.095 -0.802,-0.173 -0.135,-0.167 -0.143,-0.841 -0.015,-1.342 0.228,-0.892 0.877,-1.743 1.602,-2.099 1.003,-0.4929999 2.207,-0.4499999 3.095,0.11 l 0.249,0.157 -0.03,-0.8979999 c -0.025,-0.751 -0.055,-0.977 -0.188,-1.382 -0.402,-1.233 -1.248,-2.076 -2.433,-2.426 -0.482,-0.142 -1.387,-0.142 -1.873,0 -1.6459998,0.483 -2.6839998,1.974 -2.6909998,3.868 -0.001,0.2519999 -0.03,0.3219999 -0.207,0.4999999 -0.29,0.29 -0.573,0.287 -0.869,-0.009 l -0.214,-0.215 0.038,-0.6169999 c 0.127,-2.083 1.173,-3.697 2.908,-4.49 0.6739998,-0.309 1.1799998,-0.415 1.9739998,-0.414 0.811,0.001 1.313,0.105 1.976,0.413 0.857,0.396 1.529,0.976 2.014,1.737 l 0.219,0.344 0.161,-0.284 c 0.431,-0.762 1.19,-1.463 2.014,-1.859 1.273,-0.612 2.876,-0.612 4.168,0.001 1.646,0.781 2.742,2.555 2.779,4.499 l 0.012,0.6239999 -0.198,0.177 c -0.33,0.296 -0.827,0.208 -0.972,-0.173 -0.034,-0.09 -0.08,-0.3889999 -0.102,-0.6639999 -0.086,-1.105 -0.439,-1.934 -1.119,-2.622 -0.706,-0.715 -1.463,-1.023 -2.509,-1.022 -0.994,0.001 -1.741,0.307 -2.428,0.993 -0.753,0.752 -1.077,1.639 -1.138,3.111 l -0.033,0.8069999 0.194,-0.13 c 0.337,-0.225 0.703,-0.37 1.179,-0.467 1.615,-0.3299999 3.257,0.808 3.617,2.506 0.209,0.988 0.027,1.481 -0.547,1.481 -0.393,0 -0.635,-0.276 -0.635,-0.723 0,-0.127 -0.043,-0.394 -0.094,-0.592 -0.237,-0.91 -0.904,-1.437 -1.822,-1.439 -0.75,-10e-4 -1.309,0.37 -1.639,1.094 -0.184,0.401 -0.252,1.091 -0.256,2.571 l -0.002,1.074 -0.631,0 -0.631,0 -0.021,-1.588 0,0 z m -2.697,12.994 c -0.234,-0.102 -0.406,-0.444 -0.346,-0.688 0.021,-0.087 0.11,-0.232 0.197,-0.324 0.149,-0.158 0.188,-0.167 0.703,-0.167 1.052,0 1.607,-0.296 1.947,-1.04 0.136,-0.297 0.18,-0.492 0.198,-0.881 l 0.023,-0.5 -0.294,0 c -0.785,0 -1.977,-0.279 -2.653,-0.619 -0.6,-0.302 -0.866,-0.512 -1.815,-1.436 -1.0939998,-1.065 -1.4129998,-1.336 -2.1009998,-1.783 -0.933,-0.605 -2.236,-1.141 -3.795,-1.557 -0.381,-0.102 -0.753,-0.225 -0.827,-0.272 -0.159,-0.104 -0.326,-0.433 -0.326,-0.641 0,-0.216 0.24,-0.537 0.516,-0.694 l 0.24,-0.135 11.8429998,-0.002 11.842,0 0.213,0.186 c 0.381,0.335 0.344,0.896 -0.078,1.176 -0.121,0.08 -0.721,0.311 -1.33,0.511 -2.277,0.749 -3.342,1.39 -5.274,3.172 -1.026,0.946 -1.816,1.438 -2.819,1.753 -0.462,0.145 -1.572,0.342 -1.924,0.342 -0.15,0 -0.158,0.017 -0.158,0.32 0,0.701 0.313,1.431 0.746,1.744 0.346,0.252 0.762,0.356 1.405,0.356 0.466,0 0.581,0.021 0.71,0.122 0.232,0.182 0.313,0.482 0.202,0.746 -0.172,0.412 -0.093,0.402 -3.65,0.4 -2.633,-0.002 -3.231,-0.016 -3.395,-0.089 l 0,0 z m 4.527,-5.177 c 1.473,-0.182 2.146,-0.545 3.75,-2.021 0.777,-0.716 1.559,-1.319 2.232,-1.724 l 0.51,-0.307 -7.589,0 -7.5879998,0 0.511,0.305 c 0.814,0.484 1.3589998,0.926 2.3989998,1.941 0.536,0.523 1.143,1.062 1.35,1.195 0.445,0.287 0.999,0.482 1.667,0.586 0.611,0.097 2.082,0.109 2.758,0.025 l 0,0 z" />
  </g>
</svg>
