<?xml version="1.0" encoding="UTF-8" standalone="no"?>
<!-- Created with Inkscape (http://www.inkscape.org/) -->

<svg
   xmlns:dc="http://purl.org/dc/elements/1.1/"
   xmlns:cc="http://creativecommons.org/ns#"
   xmlns:rdf="http://www.w3.org/1999/02/22-rdf-syntax-ns#"
   xmlns:svg="http://www.w3.org/2000/svg"
   xmlns="http://www.w3.org/2000/svg"
   xmlns:sodipodi="http://sodipodi.sourceforge.net/DTD/sodipodi-0.dtd"
   xmlns:inkscape="http://www.inkscape.org/namespaces/inkscape"
   width="1000"
   height="1000"
   id="svg3347"
   version="1.1"
   inkscape:version="0.91 r13725"
   viewBox="0 0 1000 1000"
   sodipodi:docname="misc_windmill.svg">
  <defs
     id="defs3349" />
  <sodipodi:namedview
     id="base"
     pagecolor="#ffffff"
     bordercolor="#666666"
     borderopacity="1.0"
     inkscape:pageopacity="0.0"
     inkscape:pageshadow="2"
     inkscape:zoom="0.5"
     inkscape:cx="11.512342"
     inkscape:cy="416"
     inkscape:current-layer="layer1"
     showgrid="true"
     inkscape:grid-bbox="true"
     inkscape:document-units="px"
     inkscape:window-width="1920"
     inkscape:window-height="1018"
     inkscape:window-x="-8"
     inkscape:window-y="-8"
     inkscape:window-maximized="1" />
  <metadata
     id="metadata3352">
    <rdf:RDF>
      <cc:Work
         rdf:about="">
        <dc:format>image/svg+xml</dc:format>
        <dc:type
           rdf:resource="http://purl.org/dc/dcmitype/StillImage" />
        <dc:title></dc:title>
      </cc:Work>
    </rdf:RDF>
  </metadata>
  <g
     id="layer1"
     inkscape:label="Layer 1"
     inkscape:groupmode="layer"
     transform="translate(0,968)">
    <path
       style="fill:#4c4c4c;fill-opacity:1"
       id="path12862"
       inkscape:connector-curvature="0"
       d="m 284.67791,-47.197094 c 1.1243,-5.186649 23.71244,-101.993146 50.18449,-215.213096 26.47205,-113.18711 47.62925,-206.28418 47.016,-206.87506 -0.64733,-0.59088 -41.56487,40.37708 -90.93169,91.02897 l -89.80737,92.14508 -14.85433,-9.8809 c -25.14333,-16.67606 -44.39264,-37.19286 -61.90439,-66.0477 -9.23286,-15.19885 -16.38746,-28.03416 -15.84235,-28.39526 0.54511,-0.39392 67.28739,-38.99834 148.33888,-85.67818 131.57667,-75.86295 147.62344,-85.97363 149.97424,-94.41014 1.43092,-5.18665 2.18045,-11.98181 1.63534,-15.03471 -0.7836,-4.49729 -80.94929,-64.27506 -273.68083,-204.08478 -1.63534,-1.21459 36.3863,-46.97528 47.76553,-57.47988 12.16284,-11.25963 60.40534,-40.2786 62.55172,-37.61962 0.51104,0.65654 41.49673,53.14674 91.03389,116.66677 49.57122,63.52003 91.23829,116.69959 92.63515,118.20963 1.39685,1.51003 17.40954,-8.79761 35.60269,-22.88034 18.19315,-14.08274 35.05758,-26.36 37.47652,-27.27915 4.12242,-1.51004 26.09728,14.37818 63.26718,45.6622 l 15.12689,12.76966 94.95187,-119.8838 95.02001,-119.8838 17.75024,9.45414 c 31.82098,16.87303 48.1403,30.52901 69.63819,58.07077 11.61772,14.87058 21.02092,27.77155 20.95278,28.62505 -0.0681,0.8535 -62.85834,46.48288 -139.583,101.40227 -76.65652,54.91938 -140.53695,101.27095 -141.9338,102.97795 -1.39685,1.707 -0.88581,9.12587 1.05616,16.4791 l 3.5773,13.32771 144.86379,83.67575 144.93192,83.64291 -16.96664,27.50894 c -16.69409,26.9837 -47.90181,58.85861 -69.33157,70.84043 l -9.36913,5.2523 -87.18401,-89.55176 c -47.90181,-49.24033 -88.03575,-89.88002 -89.09191,-90.3396 -1.05615,-0.42675 15.91049,92.24356 37.71501,205.95591 21.80452,113.71235 39.79325,209.205772 39.86139,212.094538 0.10221,4.825553 -14.51364,5.186649 -207.24516,4.694246 l -207.34738,-0.590884 2.14638,-9.355664 0,0 z" />
  </g>
</svg>
