<?xml version="1.0" encoding="UTF-8" standalone="no"?>
<!-- Created with Inkscape (http://www.inkscape.org/) -->

<svg
   xmlns:dc="http://purl.org/dc/elements/1.1/"
   xmlns:cc="http://creativecommons.org/ns#"
   xmlns:rdf="http://www.w3.org/1999/02/22-rdf-syntax-ns#"
   xmlns:svg="http://www.w3.org/2000/svg"
   xmlns="http://www.w3.org/2000/svg"
   xmlns:sodipodi="http://sodipodi.sourceforge.net/DTD/sodipodi-0.dtd"
   xmlns:inkscape="http://www.inkscape.org/namespaces/inkscape"
   width="32"
   height="32"
   id="svg3355"
   version="1.1"
   inkscape:version="0.91 r13725"
   viewBox="0 0 32 32"
   sodipodi:docname="lighthouse_.svg">
  <defs
     id="defs3357" />
  <sodipodi:namedview
     id="base"
     pagecolor="#ffffff"
     bordercolor="#666666"
     borderopacity="1.0"
     inkscape:pageopacity="0.0"
     inkscape:pageshadow="2"
     inkscape:zoom="20"
     inkscape:cx="11.331756"
     inkscape:cy="16"
     inkscape:current-layer="layer1"
     showgrid="true"
     inkscape:grid-bbox="true"
     inkscape:document-units="px"
     inkscape:window-width="1920"
     inkscape:window-height="1018"
     inkscape:window-x="-8"
     inkscape:window-y="-8"
     inkscape:window-maximized="1" />
  <metadata
     id="metadata3360">
    <rdf:RDF>
      <cc:Work
         rdf:about="">
        <dc:format>image/svg+xml</dc:format>
        <dc:type
           rdf:resource="http://purl.org/dc/dcmitype/StillImage" />
        <dc:title />
      </cc:Work>
    </rdf:RDF>
  </metadata>
  <g
     id="layer1"
     inkscape:label="Layer 1"
     inkscape:groupmode="layer">
    <path
       id="path9916"
       style="fill:#4c4c4c;fill-opacity:1"
       d="m 2.7425,8.0415316 c 0,-2.725 0.008,-3.039 0.077,-3.039 0.095,0 9.39,1.38 9.613,1.427 l 0.16,0.034 -0.013,1.571 -0.013,1.571 -4.704,0.7040004 c -2.587,0.388 -4.797,0.719 -4.912,0.737 l -0.208,0.033 0,-3.0380004 z m 21.649,2.4820004 c -2.533,-0.417 -4.643,-0.7590004 -4.688,-0.7610004 -0.077,-0.002 -0.084,-0.137 -0.096,-1.676 l -0.014,-1.674 4.627,-0.747 c 2.543,-0.411 4.719,-0.765 4.83,-0.787 l 0.207,-0.04 0,3.228 0,3.2280004 -0.134,-0.006 c -0.07,-0.003 -2.201,-0.348 -4.732,-0.765 l 0,0 z M 13.0485,5.0635316 c 0,-0.152 0.023,-0.173 0.313,-0.286 0.172,-0.067 0.346,-0.107 0.386,-0.089 0.047,0.021 0.061,0.01 0.039,-0.032 -0.023,-0.043 -10e-4,-0.054 0.07,-0.033 0.066,0.021 0.092,0.01 0.072,-0.028 -0.02,-0.039 0.005,-0.048 0.072,-0.028 0.066,0.021 0.092,0.01 0.072,-0.028 -0.021,-0.038 0.005,-0.048 0.072,-0.028 0.066,0.02 0.092,0.01 0.072,-0.028 -0.02,-0.038 0.006,-0.048 0.072,-0.028 0.057,0.017 0.094,0.014 0.083,-0.009 -0.031,-0.059 0.925,-0.414 1.009,-0.375 0.046,0.021 0.06,0.009 0.038,-0.032 -0.023,-0.044 0,-0.054 0.07,-0.033 0.057,0.018 0.093,0.013 0.081,-0.011 -0.013,-0.023 0.105,-0.088 0.261,-0.143 0.246,-0.087 0.313,-0.091 0.501,-0.029 0.12,0.039 0.207,0.091 0.194,0.115 -0.013,0.024 0.023,0.029 0.08,0.012 0.066,-0.021 0.092,-0.01 0.073,0.028 -0.021,0.039 0.006,0.049 0.071,0.028 0.069,-0.021 0.093,-0.011 0.069,0.033 -0.022,0.042 -0.008,0.053 0.039,0.032 0.039,-0.018 0.568,0.161 1.177,0.397 1.104,0.431 1.104,0.431 1.104,0.595 l 0,0.163 -3.044,0 -3.045,0 0,-0.163 -10e-4,0 z m 2.482,4.9530004 c -1.271,-0.3320004 -1.949,-1.7730004 -1.389,-2.9560004 0.69,-1.459 2.723,-1.664 3.705,-0.373 0.324,0.424 0.441,0.814 0.416,1.379 -0.017,0.396 -0.039,0.485 -0.197,0.805 -0.373,0.754 -1.158,1.2410004 -1.989,1.2310004 -0.126,-0.003 -0.371,-0.041 -0.546,-0.086 l 0,0 z m 1.366,-0.5270004 c 0.611,-0.301 0.953,-0.853 0.957,-1.545 0.002,-0.307 -0.021,-0.41 -0.144,-0.671 -0.587,-1.25 -2.345,-1.391 -3.078,-0.248 -0.622,0.969 -0.155,2.216 0.966,2.582 0.125,0.041 0.352,0.06 0.593,0.051 0.327,-0.013 0.447,-0.041 0.706,-0.169 l 0,0 z m -10.976,18.1779994 0,-0.55 1.641,0 1.641,0 0.021,-0.103 c 0.012,-0.056 0.787,-3.763 1.723,-8.235 l 1.701,-8.134999 3.492,0 3.492,0 0.014,0.066 c 0.008,0.036 0.781,3.730999 1.719,8.210999 0.938,4.479 1.703,8.151 1.703,8.161 0,0.011 0.713,0.013 1.582,0.003 l 1.584,-0.016 0,0.548 0,0.549 -6.877,0.015 c -3.781,0.008 -8.352,0.02 -10.154,0.024 l -3.279,0.013 0,-0.551 -0.003,0 z m 16.06,-0.584 c 0.004,-0.004 -0.435,-2.13 -0.486,-2.357 l -0.014,-0.055 -5.333,0 -5.333,0 -0.014,0.066 c -0.008,0.037 -0.122,0.583 -0.254,1.215 -0.132,0.631 -0.24,1.15 -0.24,1.152 0.003,0.008 11.667,-0.015 11.674,-0.021 l 0,0 z m -1.353,-6.494 c -0.122,-0.582 -0.246,-1.177 -0.273,-1.318 l -0.053,-0.258 -4.151,0.006 -4.151,0.006 -0.256,1.225 c -0.141,0.674 -0.264,1.264 -0.272,1.313 l -0.016,0.09 4.698,0 4.696,0 -0.222,-1.064 0,0 z m -0.967,-4.601 c 0,-0.025 -0.441,-2.147 -0.471,-2.268999 l -0.014,-0.054 -3.032,0 c -1.667,0 -3.031,0.006 -3.031,0.015 0,0.008 -0.108,0.529999 -0.24,1.158999 -0.132,0.629 -0.24,1.152 -0.24,1.16 0,0.009 1.581,0.016 3.513,0.016 2.613,0.001 3.515,-0.006 3.515,-0.027 l 0,0 z" />
  </g>
</svg>
