<?xml version="1.0" encoding="UTF-8" standalone="no"?>
<!-- Created with Inkscape (http://www.inkscape.org/) -->

<svg
   xmlns:dc="http://purl.org/dc/elements/1.1/"
   xmlns:cc="http://creativecommons.org/ns#"
   xmlns:rdf="http://www.w3.org/1999/02/22-rdf-syntax-ns#"
   xmlns:svg="http://www.w3.org/2000/svg"
   xmlns="http://www.w3.org/2000/svg"
   xmlns:sodipodi="http://sodipodi.sourceforge.net/DTD/sodipodi-0.dtd"
   xmlns:inkscape="http://www.inkscape.org/namespaces/inkscape"
   width="1000"
   height="1000"
   id="svg3359"
   version="1.1"
   inkscape:version="0.91 r13725"
   viewBox="0 0 1000 1000"
   sodipodi:docname="misc_comm_tower.svg">
  <defs
     id="defs3361" />
  <sodipodi:namedview
     id="base"
     pagecolor="#ffffff"
     bordercolor="#666666"
     borderopacity="1.0"
     inkscape:pageopacity="0.0"
     inkscape:pageshadow="2"
     inkscape:zoom="0.5"
     inkscape:cx="9.2008305"
     inkscape:cy="414.38929"
     inkscape:current-layer="layer1"
     showgrid="true"
     inkscape:grid-bbox="true"
     inkscape:document-units="px"
     inkscape:window-width="1920"
     inkscape:window-height="1018"
     inkscape:window-x="-8"
     inkscape:window-y="-8"
     inkscape:window-maximized="1" />
  <metadata
     id="metadata3364">
    <rdf:RDF>
      <cc:Work
         rdf:about="">
        <dc:format>image/svg+xml</dc:format>
        <dc:type
           rdf:resource="http://purl.org/dc/dcmitype/StillImage" />
        <dc:title></dc:title>
      </cc:Work>
    </rdf:RDF>
  </metadata>
  <g
     id="layer1"
     inkscape:label="Layer 1"
     inkscape:groupmode="layer"
     transform="translate(0,968)">
    <path
       id="path19929"
       style="fill:#4c4c4c;fill-opacity:1"
       d="m 208.67111,-379.32247 c -43.44471,-49.7655 -69.89528,-102.86138 -81.16761,-162.80835 -7.36641,-39.17169 -4.62542,-107.3019 5.72182,-143.07977 15.69218,-54.20601 45.87735,-106.6041 82.43532,-143.01634 l 19.7694,-19.72857 12.54004,11.45018 12.54003,11.41848 -15.4866,16.01757 c -113.51131,117.16619 -116.59492,291.23442 -7.33215,411.31866 l 12.71135,13.98763 -12.71135,11.51362 -12.71135,11.60878 -16.3089,-18.68189 0,0 z m 75.27448,-54.11086 c -25.90237,-27.30917 -48.54981,-66.51259 -60.54165,-104.76446 -5.89313,-18.77703 -6.78395,-27.84838 -6.78395,-68.28879 0,-40.44042 0.89082,-49.54347 6.78395,-68.28879 12.26594,-39.26686 35.63289,-79.16806 62.28903,-106.47724 l 10.41577,-10.68895 12.60856,11.45018 12.60856,11.45019 -15.96627,17.92066 c -25.35418,28.45102 -44.30128,65.8465 -51.77048,102.10014 -5.24215,25.43782 -3.80313,72.66588 2.9123,97.4059 7.64052,28.07041 28.23222,66.63945 47.04227,88.17596 l 14.73283,16.84224 -12.60856,11.41847 -12.5743,11.45019 -9.14806,-9.7057 z m 55.95049,-62.67471 c -54.34016,-66.67118 -50.74261,-160.27091 8.63412,-224.24606 l 11.44364,-12.33829 13.53365,12.21142 13.53364,12.21142 -8.59986,8.37354 c -25.08007,24.39112 -39.12765,58.29764 -39.29896,95.1222 -0.20558,35.36554 9.79904,62.42097 33.44009,90.45965 l 8.2915,9.83258 -12.5743,11.41847 c -6.921,6.28015 -13.49938,11.41847 -14.59578,11.41847 -1.09639,0 -7.33215,-6.5339 -13.80774,-14.4634 l 0,0 z m 412.03957,120.40142 -12.74561,-12.02111 15.14398,-17.41317 c 102.06767,-117.38821 97.23667,-290.8538 -11.27233,-400.85172 l -14.9384,-15.06604 14.25315,-12.94093 14.18464,-12.94093 16.41168,16.52506 c 44.33554,44.31001 78.04973,108.38031 89.836,170.35722 5.68755,30.10036 5.65329,88.11253 -0.0685,118.46663 -11.23806,59.28089 -37.20896,111.67898 -79.66006,160.71496 -8.15445,9.42024 -15.65792,17.09598 -16.61726,17.09598 -0.99361,0.0317 -7.53773,-5.36033 -14.52726,-11.92595 l 0,0 z m -65.20133,-60.39101 -12.77987,-12.08456 15.58938,-18.80876 c 19.35826,-23.37614 36.42093,-55.91878 44.3698,-84.62354 6.7497,-24.74002 8.18872,-71.84121 2.94657,-97.4059 -7.36642,-35.68271 -25.90237,-72.69758 -50.70834,-101.11689 l -15.17824,-17.44488 13.56791,-12.62375 13.5679,-12.62375 9.28511,8.1198 c 26.55336,23.28099 57.45803,76.66233 68.28495,118.02256 8.39429,32.22546 9.07954,83.41827 1.3705,115.07281 -6.44133,26.76996 -19.56383,56.93376 -35.42732,81.57862 -11.752,18.23783 -35.87272,45.95934 -40.01847,45.95934 -1.16492,0 -7.84609,-5.39205 -14.86988,-12.0211 z m -66.12642,-61.34257 -13.70496,-13.03608 7.53773,-9.61054 c 23.40121,-30.06865 34.1596,-71.36544 27.82106,-106.19178 -4.07722,-22.4246 -18.81005,-52.87386 -32.24091,-67.0835 l -9.18232,-9.64227 14.45873,-13.13124 14.3902,-13.13124 9.25085,9.26165 c 47.11079,47.38665 60.4046,127.06219 31.31583,187.86555 -7.22937,15.16118 -30.32222,47.70382 -33.85125,47.70382 -1.19918,0.0317 -8.22297,-5.8361 -15.79496,-13.00437 l 0,0 z m -174.29283,265.47943 0,-164.58456 10.38151,0 10.38154,0 0,-69.62094 0,-69.62096 -8.97679,-3.42553 c -4.93378,-1.90308 -14.9384,-9.57884 -22.20203,-17.06428 -29.08877,-29.94176 -29.08877,-70.28702 0,-100.22879 18.57022,-19.12593 37.68867,-26.38934 65.13285,-24.74001 22.57891,1.36387 34.19387,5.74095 50.67408,19.09422 26.4163,21.40963 34.39944,60.16899 18.3989,88.9372 -8.08592,14.52682 -22.6817,28.16555 -37.82568,35.42896 l -8.87396,4.25021 0,68.51082 0,68.51082 11.95758,0 11.85478,0 0,164.55284 0,164.61627 -50.36571,0 -50.53707,0 0,-164.61627 0,0 z"
       inkscape:connector-curvature="0" />
  </g>
</svg>
