<?xml version="1.0" encoding="UTF-8" standalone="no"?>
<!-- Created with Inkscape (http://www.inkscape.org/) -->

<svg
   xmlns:dc="http://purl.org/dc/elements/1.1/"
   xmlns:cc="http://creativecommons.org/ns#"
   xmlns:rdf="http://www.w3.org/1999/02/22-rdf-syntax-ns#"
   xmlns:svg="http://www.w3.org/2000/svg"
   xmlns="http://www.w3.org/2000/svg"
   xmlns:sodipodi="http://sodipodi.sourceforge.net/DTD/sodipodi-0.dtd"
   xmlns:inkscape="http://www.inkscape.org/namespaces/inkscape"
   width="1000"
   height="1000"
   id="svg3349"
   version="1.1"
   inkscape:version="0.91 r13725"
   viewBox="0 0 1000 1000"
   sodipodi:docname="misc_water_tower.svg">
  <defs
     id="defs3351" />
  <sodipodi:namedview
     id="base"
     pagecolor="#ffffff"
     bordercolor="#666666"
     borderopacity="1.0"
     inkscape:pageopacity="0.0"
     inkscape:pageshadow="2"
     inkscape:zoom="0.5"
     inkscape:cx="9.2008305"
     inkscape:cy="416"
     inkscape:current-layer="layer1"
     showgrid="true"
     inkscape:grid-bbox="true"
     inkscape:document-units="px"
     inkscape:window-width="1920"
     inkscape:window-height="1018"
     inkscape:window-x="-8"
     inkscape:window-y="-8"
     inkscape:window-maximized="1" />
  <metadata
     id="metadata3354">
    <rdf:RDF>
      <cc:Work
         rdf:about="">
        <dc:format>image/svg+xml</dc:format>
        <dc:type
           rdf:resource="http://purl.org/dc/dcmitype/StillImage" />
        <dc:title></dc:title>
      </cc:Work>
    </rdf:RDF>
  </metadata>
  <g
     id="layer1"
     inkscape:label="Layer 1"
     inkscape:groupmode="layer"
     transform="translate(0,968)">
    <path
       id="path50024"
       style="fill:#4c4c4c;fill-opacity:1"
       d="m 352.95036,-53.970092 c 1.12354,-3.268303 8.72393,-35.645884 16.91913,-71.841578 73.22809,-323.40927 98.4746,-436.85299 98.4746,-442.38161 0,-5.95625 -2.94102,-6.47552 -36.54793,-6.47552 l -36.54797,0 0.95831,-103.33335 0.95831,-103.30282 102.24175,-52.01794 c 56.2429,-28.62056 105.74458,-52.84266 110.0735,-53.91173 8.06302,-1.92432 11.66494,-0.33599 90.74206,40.89961 22.07418,11.51542 48.3451,25.1079 58.45692,30.20889 48.93991,24.89409 63.90938,32.92739 65.26423,35.00444 0.72699,1.25234 2.64361,48.19984 4.06456,104.34134 l 2.64361,102.08102 -33.24345,0 c -18.30703,0 -33.24345,1.40506 -33.24345,3.11558 0,2.68795 109.80913,495.102086 114.99723,515.75043 1.85053,7.330773 1.09049,7.575132 -26.96487,7.575132 l -28.88149,0 -5.84899,-23.733378 C 811.78264,-95.32787 810.03125,-97.649282 724.14683,-199.36376 676,-256.36052 631.91773,-308.19519 626.10178,-314.54853 l -10.50837,-11.6376 -95.69884,110.54195 -95.76489,110.48086 -6.41077,27.612574 -6.41076,27.612579 -30.13721,0.946892 c -27.65881,0.977436 -30.07111,0.549808 -28.22058,-4.978817 l 0,0 z M 782.37243,-224.89928 c 0,-1.31343 -40.64557,-181.52827 -47.51896,-210.60701 -2.24708,-9.71327 -5.28723,-17.65494 -6.60904,-17.59385 -4.49414,0.18327 -71.80717,80.82177 -70.71668,84.70097 0.59481,2.13814 27.69186,35.43207 60.14222,74.1019 51.18699,60.72324 64.70246,75.20151 64.70246,69.39799 z m -274.73762,-63.77773 c 27.75795,-31.9805 54.95414,-63.71664 60.40659,-70.40597 l 9.9466,-12.18741 -26.10569,-31.6445 c -36.91147,-44.77881 -46.79198,-54.79753 -48.84078,-49.57435 -2.08184,5.43699 -49.30341,215.31091 -49.30341,219.2512 0,1.55779 0.76004,2.81013 1.71835,2.81013 0.95831,-0.0305 24.42039,-26.20751 52.17834,-58.2491 z m 157.6916,-181.6199 c 30.40156,-34.63791 47.51897,-56.90513 47.25461,-61.60904 -0.19828,-4.03193 -2.24708,-14.93645 -4.59328,-24.2221 l -4.26283,-16.86078 -86.21488,-0.91634 c -97.78068,-1.00799 -89.55243,-3.63485 -92.95609,29.29254 l -1.94966,18.8462 46.36238,54.85862 c 25.47784,30.17835 46.85807,54.79753 47.51897,54.79753 0.66091,0 22.70204,-24.34428 48.84078,-54.18663 z m 91.43601,-227.55942 0,-48.93291 -144.20916,0 -144.20917,0 0,48.93291 0,48.96346 144.20917,0 144.20916,0 0,-48.96346 z m -596.92811,432.48507 c -20.5541,-8.85802 -43.55354,-30.57543 -51.91397,-48.96346 -3.07321,-6.81151 -5.61768,-21.41196 -5.68377,-32.5303 -0.13219,-20.49562 10.64054,-59.10436 16.52258,-59.10436 1.7514,0 2.18099,-1.4967 0.92527,-3.32939 -1.22267,-1.86324 -0.33045,-3.3294 2.01576,-3.3294 2.3462,0 3.40365,-2.01596 2.3462,-4.64282 -1.05744,-2.44359 10.77273,-28.6511 26.27092,-58.12692 15.49819,-29.47582 33.70608,-66.3435 40.4473,-81.89084 l 12.29281,-28.25403 15.36601,38.66983 c 8.45956,21.25924 26.86573,61.33414 40.90993,89.00781 32.48341,64.1748 39.02637,82.28792 39.15855,109.38124 0.23132,39.43345 -24.94912,73.06337 -64.90075,86.68639 -20.25669,6.78097 -53.40101,5.22318 -73.75684,-3.57375 l 0,0 z"
       inkscape:connector-curvature="0" />
  </g>
</svg>
