<?xml version="1.0" encoding="UTF-8" standalone="no"?>
<!-- Created with Inkscape (http://www.inkscape.org/) -->

<svg
   xmlns:dc="http://purl.org/dc/elements/1.1/"
   xmlns:cc="http://creativecommons.org/ns#"
   xmlns:rdf="http://www.w3.org/1999/02/22-rdf-syntax-ns#"
   xmlns:svg="http://www.w3.org/2000/svg"
   xmlns="http://www.w3.org/2000/svg"
   xmlns:sodipodi="http://sodipodi.sourceforge.net/DTD/sodipodi-0.dtd"
   xmlns:inkscape="http://www.inkscape.org/namespaces/inkscape"
   width="1000"
   height="1000"
   id="svg3349"
   version="1.1"
   inkscape:version="0.91 r13725"
   viewBox="0 0 1000 1000"
   sodipodi:docname="misc_fountain.svg">
  <defs
     id="defs3351" />
  <sodipodi:namedview
     id="base"
     pagecolor="#ffffff"
     bordercolor="#666666"
     borderopacity="1.0"
     inkscape:pageopacity="0.0"
     inkscape:pageshadow="2"
     inkscape:zoom="0.5"
     inkscape:cx="6.8440981"
     inkscape:cy="576"
     inkscape:current-layer="layer1"
     showgrid="true"
     inkscape:grid-bbox="true"
     inkscape:document-units="px"
     inkscape:window-width="1920"
     inkscape:window-height="1018"
     inkscape:window-x="-8"
     inkscape:window-y="-8"
     inkscape:window-maximized="1" />
  <metadata
     id="metadata3354">
    <rdf:RDF>
      <cc:Work
         rdf:about="">
        <dc:format>image/svg+xml</dc:format>
        <dc:type
           rdf:resource="http://purl.org/dc/dcmitype/StillImage" />
        <dc:title></dc:title>
      </cc:Work>
    </rdf:RDF>
  </metadata>
  <g
     id="layer1"
     inkscape:label="Layer 1"
     inkscape:groupmode="layer"
     transform="translate(0,968)">
    <path
       id="path6609"
       style="fill:#4c4c4c;fill-opacity:1"
       d="m 472.02328,-514.2886 c -0.68298,-58.33731 -0.99032,-62.41277 -5.63461,-75.68713 -10.72284,-30.7018 -34.83215,-47.85755 -63.38086,-45.25702 -32.8515,2.98867 -54.77527,29.88671 -58.46338,71.68929 -1.91235,21.30884 -4.2345,27.325 -12.53275,32.21555 -10.31305,6.05497 -19.94311,3.68732 -27.38763,-6.71481 -4.61014,-6.48192 -4.88333,-32.6425 -0.51224,-52.08827 7.78601,-34.622 29.94882,-67.65264 54.70697,-81.4704 34.25162,-19.13525 75.36722,-17.46625 105.69168,4.26953 l 8.50315,6.09379 -1.02448,-34.85489 c -0.85373,-29.14925 -1.8782,-37.92119 -6.42004,-53.64083 -13.72797,-47.85755 -42.61817,-80.57768 -83.08493,-94.16255 -16.4599,-5.51157 -47.3649,-5.51157 -63.9614,0 -56.20953,18.74712 -91.65637,76.61866 -91.89541,150.13221 -0.0342,9.78111 -1.02447,12.49808 -7.06888,19.40696 -9.90326,11.25603 -19.56747,11.13959 -29.67563,-0.34933 l -7.30792,-8.34499 1.29767,-23.94818 c 4.33694,-80.84938 40.05698,-143.49503 99.30579,-174.27446 23.01653,-11.9935 40.29601,-16.10778 67.41045,-16.06896 27.69498,0.0388 44.83786,4.07546 67.47876,16.03014 29.26584,15.37031 52.21408,37.88238 68.77643,67.41977 l 7.47867,13.35198 5.49802,-11.02315 c 14.71829,-29.5762 40.63751,-56.78475 68.77643,-72.15506 43.47189,-23.75412 98.21301,-23.75412 142.33374,0.0388 56.20953,30.31367 93.63702,99.16955 94.90054,174.62379 l 0.40979,24.21988 -6.76153,6.87006 c -11.26923,11.48892 -28.24137,8.0733 -33.193,-6.7148 -1.16107,-3.49326 -2.73193,-15.09861 -3.48321,-25.77244 -2.93683,-42.88937 -14.99149,-75.0661 -38.21292,-101.77008 -24.10932,-27.75194 -49.96024,-39.70663 -85.68027,-39.66781 -33.94428,0.0388 -59.45371,11.91587 -82.91419,38.54221 -25.71432,29.18806 -36.77865,63.616 -38.86175,120.75008 l -1.12693,31.32282 6.62494,-5.0458 c 11.50827,-8.73313 24.00687,-14.36115 40.26187,-18.1261 55.15091,-12.80859 111.22385,31.36164 123.51755,97.26766 7.13718,38.34815 0.92203,57.48341 -18.67959,57.48341 -13.42063,0 -21.68473,-10.71264 -21.68473,-28.06246 0,-4.92937 -1.46841,-15.29268 -3.21002,-22.97784 -8.09335,-35.32066 -30.87085,-55.77559 -62.21979,-55.85322 -25.61187,-0.0388 -44.70126,14.36115 -55.97049,42.46242 -6.28344,15.56438 -8.60559,42.34598 -8.74218,99.79057 l -0.0683,41.68614 -21.54813,0 -21.54813,0 -0.71713,-61.63649 0,0 z M 379.92297,-9.94063 c -7.99091,-3.959019 -13.86456,-17.233377 -11.81561,-26.703971 0.71713,-3.376811 3.75641,-9.004828 6.72738,-12.575708 5.08823,-6.132598 6.42005,-6.481923 24.00687,-6.481923 35.92493,0 54.87772,-11.488918 66.48843,-40.366468 4.64429,-11.52773 6.14686,-19.09644 6.76154,-34.19506 l 0.78543,-19.40695 -10.03985,0 c -26.8071,0 -67.51291,-10.82908 -90.59775,-24.02581 -20.48951,-11.72181 -29.57319,-19.87273 -61.98075,-55.73678 -37.35918,-41.33682 -48.25277,-51.85539 -71.7474,-69.20521 -31.86117,-23.48241 -76.35754,-44.28667 -129.5961,-60.43326 -13.010834,-3.95902 -25.714326,-8.73313 -28.241364,-10.55738 -5.429718,-4.03665 -11.13263,-16.80643 -11.13263,-24.87972 0,-8.3838 8.195801,-20.84307 17.620972,-26.93685 l 8.195801,-5.23988 404.428621,-0.0776 404.39447,0 7.27378,7.21939 c 13.01083,13.00266 11.74731,34.77726 -2.66364,45.64516 -4.13205,3.10511 -24.62155,12.07112 -45.41839,19.83391 -77.75767,29.07162 -114.12653,53.95133 -180.10273,123.11773 -35.03705,36.71796 -62.01489,55.8144 -96.26651,68.04078 -15.77692,5.62802 -53.6825,13.27436 -65.70301,13.27436 -5.12237,0 -5.39556,0.65984 -5.39556,12.42045 0,27.20855 10.68869,55.542711 25.47528,67.691465 11.81561,9.781106 26.02166,13.817753 47.97958,13.817753 15.91351,0 19.84067,0.815092 24.24591,4.735297 7.92261,7.064132 10.68869,18.708306 6.89813,28.955179 C 614.63022,-6.020425 617.328,-6.408564 495.8594,-6.486192 405.94464,-6.56382 385.52343,-7.107214 379.92297,-9.94063 l 0,0 z m 154.59329,-200.93962 c 50.30173,-7.06413 73.28412,-21.15358 128.05939,-78.44292 26.53391,-27.79076 53.23856,-51.19555 76.22095,-66.91518 l 17.41608,-11.91587 -259.15806,0 -259.12389,0 17.45022,11.83824 c 27.79743,18.78593 46.40872,35.94168 81.92385,75.3378 18.30396,20.29968 39.03251,41.22038 46.10138,46.38263 15.19639,11.13959 34.11503,18.7083 56.92667,22.74495 20.86514,3.76495 71.09857,4.23072 94.18341,0.97035 l 0,0 z"
       inkscape:connector-curvature="0" />
  </g>
</svg>
