<?xml version="1.0" encoding="UTF-8" standalone="no"?>
<!-- Created with Inkscape (http://www.inkscape.org/) -->

<svg
   xmlns:dc="http://purl.org/dc/elements/1.1/"
   xmlns:cc="http://creativecommons.org/ns#"
   xmlns:rdf="http://www.w3.org/1999/02/22-rdf-syntax-ns#"
   xmlns:svg="http://www.w3.org/2000/svg"
   xmlns="http://www.w3.org/2000/svg"
   xmlns:sodipodi="http://sodipodi.sourceforge.net/DTD/sodipodi-0.dtd"
   xmlns:inkscape="http://www.inkscape.org/namespaces/inkscape"
   width="352.78mm"
   height="352.78mm"
   viewBox="0 0 1250.0079 1250.0079"
   id="svg5509"
   version="1.1"
   inkscape:version="0.91 r13725"
   sodipodi:docname="misc_fountain.svg">
  <defs
     id="defs5511" />
  <sodipodi:namedview
     id="base"
     pagecolor="#ffffff"
     bordercolor="#666666"
     borderopacity="1.0"
     inkscape:pageopacity="0.0"
     inkscape:pageshadow="2"
     inkscape:zoom="0.5"
     inkscape:cx="80"
     inkscape:cy="520"
     inkscape:document-units="px"
     inkscape:current-layer="layer1"
     showgrid="false"
     inkscape:window-width="1920"
     inkscape:window-height="1018"
     inkscape:window-x="-8"
     inkscape:window-y="-8"
     inkscape:window-maximized="1" />
  <metadata
     id="metadata5514">
    <rdf:RDF>
      <cc:Work
         rdf:about="">
        <dc:format>image/svg+xml</dc:format>
        <dc:type
           rdf:resource="http://purl.org/dc/dcmitype/StillImage" />
        <dc:title></dc:title>
      </cc:Work>
    </rdf:RDF>
  </metadata>
  <g
     inkscape:label="Layer 1"
     inkscape:groupmode="layer"
     id="layer1"
     transform="translate(0,197.64569)">
    <path
       inkscape:connector-curvature="0"
       d="m 752.09375,81.060996 c -21.6923,0 -43.2646,4.597 -62.3732,13.791 C 664.96345,106.749 642.15945,127.75 629.21085,150.645 l -4.8672,8.562 -6.5801,-10.305 c -14.5721,-22.864 -34.762,-40.35 -60.5108,-52.248004 -19.9193,-9.254 -35.002,-12.348 -59.3684,-12.379 -23.8559,0 -39.0291,3.155 -59.279,12.439 C 386.47705,120.54 355.05045,169.062 351.23505,231.646 l -1.2023,18.538 6.4601,6.459 c 8.8931,8.894 17.3957,8.923 26.1088,0 5.3178,-5.348 6.1896,-7.451 6.219,-15.022 0,-56.906 31.3972,-101.673 80.8513,-116.184 14.6015,-4.267 41.7621,-4.267 56.2436,0 35.6032,10.516 61.0214,35.843 73.0993,72.889 3.9966,12.168 4.8978,18.989 5.6484,41.552 l 0.9023,26.92 -7.5119,-4.687 c -26.6794,-16.825 -62.8238,-18.086 -92.9586,-3.274 -21.7828,10.695 -41.3115,36.203 -48.1623,63.004 -3.8459,15.052 -3.6048,35.303 0.3001,40.319 6.5507,8.053 15.0532,9.916 24.1264,5.229 7.3013,-3.786 9.3437,-8.443 11.0261,-24.937 3.246,-32.359 22.5041,-53.21 51.4071,-55.524 25.1182,-2.102 46.3293,11.267 55.7636,35.033 4.086,10.275 4.3872,13.46 4.9872,58.617 l 0.6012,47.712 18.9581,0 18.9581,0 0,-32.269 c 0,-44.466 2.1035,-65.167 7.6919,-77.215 9.9144,-21.753 26.6794,-32.959 49.214,-32.929 27.5807,0 47.6506,15.894 54.7719,43.234 1.5024,5.95 2.7036,13.971 2.7036,17.787 0,13.431 7.2708,21.783 19.0781,21.783 17.2463,0 22.7146,-14.873 16.4345,-44.557 -10.8156,-51.016 -60.1496,-85.177 -108.6719,-75.263 -14.3015,3.005 -25.2677,7.242 -35.3926,14.002 l -5.859,3.935 0.9012,-24.216 c 1.8024,-44.225 11.5979,-70.906 34.2208,-93.499 20.6417,-20.612 43.0551,-29.835 72.9193,-29.865 31.4267,-0.03 54.2013,9.284 75.4124,30.766 20.431,20.671 31.0371,45.548 33.6207,78.747 0.6012,8.263 2.1036,17.247 3.0648,19.95 4.3566,11.448 19.2887,14.122 29.203,5.229 l 5.9496,-5.349 -0.3012,-18.718 c -1.2012,-58.407 -34.0408,-111.737 -83.4948,-135.202004 -19.4087,-9.223 -41.1916,-13.791 -62.8533,-13.791 z M 629.15085,448.509 l -355.7928,0 -7.2108,4.057 c -8.292,4.717 -15.5027,14.392 -15.5027,20.882 0,6.248 4.9872,16.133 9.7649,19.258 2.1024,1.502 13.4297,5.077 24.877,8.142 46.8399,12.499 85.9879,28.603 114.0203,46.78 20.6711,13.43 30.2548,21.572 63.1238,53.571 28.5136,27.76 36.5055,34.13 54.5319,43.204 20.311,10.215 56.0942,18.537 79.6794,18.537 l 8.8626,0 -0.6,15.023 c -0.6012,11.687 -1.8036,17.606 -5.9496,26.53 -10.2155,22.353 -26.89,31.216 -58.4966,31.216 -15.4733,0 -16.6451,0.301 -21.1217,5.048 -2.7047,2.704 -5.2883,7.06 -5.9189,9.675 -1.8024,7.33 3.3342,17.666 10.3649,20.731 4.9272,2.102 22.8947,2.403 102.0024,2.703 106.8706,0 104.4965,0.3 109.6648,-12.018 3.3342,-7.932 0.9012,-16.885 -6.0401,-22.353 -3.8754,-3.034 -7.3602,-3.695 -21.3617,-3.695 -19.3181,0 -31.7877,-3.125 -42.1833,-10.696 -13.0085,-9.405 -22.4134,-31.337 -22.4134,-52.399 0,-9.104 0,-9.614 4.7471,-9.614 10.5767,0 43.9257,-5.919 57.8072,-10.276 30.1348,-9.464 53.8401,-24.276 84.6667,-52.699 58.046,-53.54 90.0444,-72.798 158.4565,-95.302 18.297,-6.009 36.3244,-12.889 39.9598,-15.293 12.67905,-8.412 13.79085,-25.268 2.4036,-35.333 l -6.4002,-5.648 -355.7917,0 z m -230.3853,45.368 227.9817,0 228.0406,0 -15.3228,9.284 c -20.2204,12.169 -43.7162,30.226 -67.0603,51.738 -48.1929,44.347 -68.4122,55.282 -112.6685,60.751 -20.311,2.403 -64.5062,2.103 -82.8642,-0.902 -20.0699,-3.124 -36.7444,-8.983 -50.1153,-17.606 -6.219,-3.996 -24.4559,-20.19 -40.5598,-35.903 -31.2466,-30.496 -47.5916,-43.716 -72.0475,-58.258 l -15.3839,-9.224 z"
       id="path6607"
       style="fill:#4c4c4c;fill-opacity:1" />
  </g>
</svg>
