<?xml version="1.0" encoding="UTF-8" standalone="no"?>
<!-- Created with Inkscape (http://www.inkscape.org/) -->

<svg
   xmlns:dc="http://purl.org/dc/elements/1.1/"
   xmlns:cc="http://creativecommons.org/ns#"
   xmlns:rdf="http://www.w3.org/1999/02/22-rdf-syntax-ns#"
   xmlns:svg="http://www.w3.org/2000/svg"
   xmlns="http://www.w3.org/2000/svg"
   xmlns:sodipodi="http://sodipodi.sourceforge.net/DTD/sodipodi-0.dtd"
   xmlns:inkscape="http://www.inkscape.org/namespaces/inkscape"
   width="32"
   height="32"
   id="svg3349"
   version="1.1"
   inkscape:version="0.91 r13725"
   viewBox="0 0 32 32"
   sodipodi:docname="water_tower_.svg">
  <defs
     id="defs3351" />
  <sodipodi:namedview
     id="base"
     pagecolor="#ffffff"
     bordercolor="#666666"
     borderopacity="1.0"
     inkscape:pageopacity="0.0"
     inkscape:pageshadow="2"
     inkscape:zoom="20"
     inkscape:cx="11.331756"
     inkscape:cy="16"
     inkscape:current-layer="layer1"
     showgrid="true"
     inkscape:grid-bbox="true"
     inkscape:document-units="px"
     inkscape:window-width="1920"
     inkscape:window-height="1018"
     inkscape:window-x="-8"
     inkscape:window-y="-8"
     inkscape:window-maximized="1" />
  <metadata
     id="metadata3354">
    <rdf:RDF>
      <cc:Work
         rdf:about="">
        <dc:format>image/svg+xml</dc:format>
        <dc:type
           rdf:resource="http://purl.org/dc/dcmitype/StillImage" />
        <dc:title />
      </cc:Work>
    </rdf:RDF>
  </metadata>
  <g
     id="layer1"
     inkscape:label="Layer 1"
     inkscape:groupmode="layer">
    <path
       id="path50024"
       style="fill:#4c4c4c;fill-opacity:1"
       d="m 11.822397,29.554802 c 0.034,-0.107 0.264,-1.167 0.512,-2.352 2.215999,-10.588 2.979999,-14.302 2.979999,-14.483 0,-0.195 -0.089,-0.212 -1.105999,-0.212 l -1.106,0 0.029,-3.3830001 0.029,-3.382 3.093999,-1.703 c 1.702,-0.937 3.2,-1.73 3.331,-1.765 0.244,-0.063 0.353,-0.011 2.746,1.339 0.668,0.377 1.463,0.822 1.769,0.989 1.481,0.815 1.934,1.078 1.975,1.146 0.022,0.041 0.08,1.578 0.123,3.416 l 0.08,3.3420001 -1.006,0 c -0.554,0 -1.006,0.046 -1.006,0.102 0,0.088 3.323,16.209 3.48,16.885 0.056,0.24 0.033,0.248 -0.816,0.248 l -0.874,0 -0.177,-0.777 c -0.172,-0.764 -0.225,-0.84 -2.824,-4.17 -1.457,-1.866 -2.791,-3.563 -2.967,-3.771 l -0.318,-0.381 -2.896,3.619 -2.897999,3.617 -0.194,0.904 -0.194,0.904 -0.912,0.031 c -0.837,0.032 -0.91,0.018 -0.854,-0.163 l 0,0 z m 12.994999,-5.596 c 0,-0.043 -1.23,-5.943 -1.438,-6.895 -0.068,-0.318 -0.16,-0.578 -0.2,-0.576 -0.136,0.006 -2.173,2.646 -2.14,2.773 0.018,0.07 0.838,1.16 1.82,2.426 1.549,1.988 1.958,2.462 1.958,2.272 z m -8.314,-2.088 c 0.84,-1.047 1.663,-2.086 1.828,-2.305 l 0.301,-0.399 -0.79,-1.036 c -1.117,-1.466 -1.416,-1.794 -1.478,-1.623 -0.063,0.178 -1.492,7.049 -1.492,7.178 0,0.051 0.023,0.092 0.052,0.092 0.029,-0.001 0.739,-0.858 1.579,-1.907 z m 4.772,-5.946 c 0.92,-1.134 1.438,-1.863 1.43,-2.017 -0.006,-0.132 -0.068,-0.489 -0.139,-0.793 l -0.129,-0.552 -2.609,-0.03 c -2.959,-0.033 -2.71,-0.119 -2.813,0.959 l -0.059,0.617 1.403,1.796 c 0.771,0.988 1.418,1.794 1.438,1.794 0.02,0 0.687,-0.797 1.478,-1.774 z m 2.767,-7.4500001 0,-1.602 -4.364,0 -4.364,0 0,1.602 0,1.6030001 4.364,0 4.364,0 0,-1.6030001 z M 5.9783965,22.633802 c -0.622,-0.29 -1.318,-1.001 -1.571,-1.603 -0.093,-0.223 -0.17,-0.701 -0.172,-1.065 -0.004,-0.671 0.322,-1.935 0.5,-1.935 0.053,0 0.066,-0.049 0.028,-0.109 -0.037,-0.061 -0.01,-0.109 0.061,-0.109 0.071,0 0.103,-0.066 0.071,-0.152 -0.032,-0.08 0.326,-0.938 0.795,-1.903 0.469,-0.965 1.02,-2.172 1.224,-2.681 l 0.372,-0.925 0.465,1.266 c 0.256,0.696 0.813,2.008 1.238,2.914 0.983,2.101 1.1810005,2.694 1.1850005,3.581 0.007,1.291 -0.7550005,2.392 -1.9640005,2.838 -0.613,0.222 -1.616,0.171 -2.232,-0.117 l 0,0 z" />
  </g>
</svg>
