<?xml version="1.0" encoding="UTF-8" standalone="no"?>
<!-- Created with Inkscape (http://www.inkscape.org/) -->

<svg
   xmlns:dc="http://purl.org/dc/elements/1.1/"
   xmlns:cc="http://creativecommons.org/ns#"
   xmlns:rdf="http://www.w3.org/1999/02/22-rdf-syntax-ns#"
   xmlns:svg="http://www.w3.org/2000/svg"
   xmlns="http://www.w3.org/2000/svg"
   xmlns:sodipodi="http://sodipodi.sourceforge.net/DTD/sodipodi-0.dtd"
   xmlns:inkscape="http://www.inkscape.org/namespaces/inkscape"
   width="1000"
   height="1000"
   id="svg3351"
   version="1.1"
   inkscape:version="0.91 r13725"
   viewBox="0 0 1000 1000"
   sodipodi:docname="misc_watch_tower.svg">
  <defs
     id="defs3353" />
  <sodipodi:namedview
     id="base"
     pagecolor="#ffffff"
     bordercolor="#666666"
     borderopacity="1.0"
     inkscape:pageopacity="0.0"
     inkscape:pageshadow="2"
     inkscape:zoom="0.5"
     inkscape:cx="9.2008305"
     inkscape:cy="416"
     inkscape:current-layer="layer1"
     showgrid="true"
     inkscape:grid-bbox="true"
     inkscape:document-units="px"
     inkscape:window-width="1920"
     inkscape:window-height="1018"
     inkscape:window-x="-8"
     inkscape:window-y="-8"
     inkscape:window-maximized="1" />
  <metadata
     id="metadata3356">
    <rdf:RDF>
      <cc:Work
         rdf:about="">
        <dc:format>image/svg+xml</dc:format>
        <dc:type
           rdf:resource="http://purl.org/dc/dcmitype/StillImage" />
        <dc:title></dc:title>
      </cc:Work>
    </rdf:RDF>
  </metadata>
  <g
     id="layer1"
     inkscape:label="Layer 1"
     inkscape:groupmode="layer"
     transform="translate(0,968)">
    <path
       id="path39734"
       style="fill:#4c4c4c;fill-opacity:1"
       d="m 215.6382,-550.86645 c -17.7576,-3.10593 -33.89166,-15.42723 -41.97559,-32.01493 -3.78829,-7.81601 -4.29565,-10.58062 -4.29565,-23.51629 0,-13.5159 0.40588,-15.52963 5.00595,-24.98393 6.02067,-12.35544 17.08112,-22.79954 29.35924,-27.74854 12.684,-5.08553 31.4225,-4.81248 43.12561,0.68262 11.56781,5.42684 22.56061,16.04159 27.93863,26.99766 6.12215,12.49196 7.10304,31.19578 2.30003,43.99492 -9.53837,25.53003 -35.68432,41.09379 -61.45822,36.58849 l 0,0 z M 178.12738,-59.1404 c -3.55153,-1.808946 -7.81335,-5.119658 -9.4369,-7.4747 -6.73098,-9.522564 -6.73098,-8.874074 -5.78391,-213.8993 l 0.87943,-194.82003 -4.4986,0 -4.46477,0 0,59.72933 c 0,35.87174 -0.64265,61.98199 -1.5559,65.42923 -1.92797,6.99686 -10.04573,14.43743 -17.35172,15.76854 -7.6104,1.46764 -18.19731,-3.4131 -22.29002,-10.17105 -3.01033,-4.98313 -3.07798,-7.57709 -3.07798,-89.93532 0,-95.53281 -0.43972,-92.05144 11.60163,-99.04831 l 5.95303,-3.48136 95.62047,0.37544 95.62046,0.37544 5.61479,4.33464 c 10.62074,8.15732 10.21485,4.16399 10.21485,96.7274 0,92.73407 0.20294,90.6862 -10.11338,97.13697 -10.41779,6.51903 -22.42532,3.78855 -30.3063,-6.82621 -3.04416,-4.09572 -3.17946,-6.38251 -3.58535,-67.37469 l -0.43971,-63.14245 -3.78829,0 -3.75446,0 0,198.9499 c 0,216.834564 0.575,202.670178 -8.65895,211.407727 -11.93988,11.399771 -30.61073,8.976466 -39.97998,-5.290313 l -4.0927,-6.314244 -0.43972,-106.86432 -0.40588,-106.93258 -6.83245,0 -6.83245,0 0,107.27389 c 0,116.59167 0.40588,111.062439 -8.65895,119.697595 -8.42218,8.259715 -18.46791,9.693219 -29.15629,4.368775 l 0,0 z m 219.6531,0.955669 c 0.8456,-2.389173 108.60889,-521.932029 108.60889,-523.570319 0,-0.4437 -15.69434,-0.78501 -34.87255,-0.78501 l -34.87256,0 0,-104.09972 c 0,-101.47161 0.10148,-104.16796 3.92359,-106.0793 2.13091,-1.0922 47.31979,-26.14439 100.42348,-55.70188 93.38809,-52.01572 96.60137,-53.65401 102.68969,-51.3331 3.41622,1.33111 6.25744,3.14006 6.25744,4.0616 0,0.92154 0.8456,1.12632 2.02944,0.4437 1.04855,-0.68262 1.99562,-0.34131 1.99562,0.75088 0,1.0922 3.17945,3.14006 7.00157,4.53943 3.82211,1.43351 6.93392,3.34485 6.93392,4.26639 0,0.92153 0.91325,1.16045 2.06326,0.47783 1.08237,-0.68262 2.02944,-0.34131 2.02944,0.75088 0,1.0922 3.11181,3.14006 6.9001,4.53943 3.82211,1.39938 7.00157,3.31071 7.00157,4.26638 0,0.95567 0.91325,1.16046 2.02944,0.47784 1.11619,-0.68262 2.02944,-0.30718 2.02944,0.85328 0,1.16045 2.19856,2.66222 4.93831,3.34484 2.73974,0.71675 4.9383,2.11612 4.9383,3.17419 0,1.05806 0.87943,1.36524 2.02944,0.68262 1.08237,-0.68262 2.02944,-0.40958 2.02944,0.71675 0,1.09219 3.17946,3.00353 7.00157,4.30051 3.78829,1.29698 6.93392,3.20832 6.93392,4.30051 0,1.0922 0.87943,1.43351 2.06327,0.71676 1.04854,-0.68263 1.99562,-0.27305 1.99562,0.85327 0,1.16046 2.23238,2.66222 4.9383,3.34485 2.77357,0.71675 4.97213,2.11612 4.97213,3.17418 0,1.02393 0.8456,1.36524 2.02944,0.71675 1.04855,-0.71675 1.99562,-0.34131 1.99562,0.71676 0,1.09219 3.14563,3.14005 6.96774,4.53943 3.85594,1.39937 6.96775,3.31071 6.96775,4.26638 0,0.95567 0.91325,1.16045 1.99562,0.47783 1.11619,-0.68262 2.06326,-0.34131 2.06326,0.75089 0,1.09219 3.14563,3.14005 6.93392,4.53943 3.82211,1.39937 7.00157,3.31071 7.00157,4.26638 0,0.95567 0.8456,1.16045 2.02944,0.47783 1.08237,-0.68262 2.02944,-0.23892 2.02944,0.85328 0,1.12632 2.19856,2.66222 4.93831,3.34484 2.73974,0.68262 4.9383,2.11613 4.9383,3.17419 0,1.05806 0.87943,1.36524 2.02944,0.68262 1.15002,-0.68262 2.02944,-0.34131 2.02944,0.75088 0,1.0922 3.17946,3.14006 7.00157,4.53943 3.78829,1.39938 6.93392,3.31071 6.93392,4.26638 0,0.95567 0.87943,1.16046 1.99562,0.47784 1.11619,-0.68262 2.06327,-0.27305 2.06327,0.85327 0,1.12633 2.23238,2.66223 4.9383,3.34485 2.77357,0.68262 4.93831,2.11612 4.93831,3.17419 0,1.05806 0.87942,1.36524 2.06326,0.68262 1.04855,-0.68262 1.99562,-0.34131 1.99562,0.75088 0,1.09219 3.17945,3.14006 6.96774,4.53943 3.78829,1.39937 6.96775,3.27658 6.96775,4.12986 0,0.8874 1.11619,1.39937 2.50298,1.12632 1.96179,-0.37544 2.57062,21.80974 2.97651,104.57754 l 0.54118,105.08951 -29.93425,0 c -16.43846,0 -29.93424,0.71676 -29.93424,1.5359 0,0.85328 24.25181,118.26409 53.84782,260.93188 29.59601,142.6678 53.84782,260.522315 53.84782,261.921688 0,1.94547 -6.73098,2.525698 -27.93863,2.525698 -15.32228,0 -27.87098,-0.477835 -27.87098,-0.989801 0,-0.580227 -2.19856,-11.399771 -4.93831,-24.130652 l -4.9383,-23.004333 -85.10121,-110.20916 c -46.7786,-60.58261 -86.9277,-112.18876 -89.29538,-114.6462 l -4.228,-4.53943 -87.43506,110.1409 -87.43506,110.10677 -5.64861,27.20245 c -3.11181,14.9494 -5.68244,27.748544 -5.68244,28.635952 0,0.785014 -13.02224,1.501766 -28.8857,1.501766 -22.52679,-0.102393 -28.95335,-0.716752 -28.27687,-2.559829 l 0,0 z M 769.26956,-346.31906 c -13.08989,-63.07418 -23.98122,-115.26056 -24.25181,-116.04557 -0.27059,-0.78502 -15.52522,17.57749 -33.89166,40.7866 l -33.45194,42.11772 57.36552,74.26916 c 31.52397,40.78661 57.46699,73.99612 57.66993,73.79134 0.20294,-0.13653 -10.35015,-51.8792 -23.44004,-114.91925 z m -220.19429,37.33937 c 30.30631,-38.05612 54.82872,-70.41236 54.49047,-71.84586 -0.77795,-3.54963 -64.19796,-85.43002 -64.80679,-83.62108 -0.91325,3.17419 -46.37272,223.38773 -46.37272,224.85536 0.0677,2.01374 -5.85155,9.21539 56.68904,-69.38842 l 0,0 z m 137.62989,-173.24922 43.19326,-54.43902 -4.76919,-22.49236 -4.73536,-22.49237 -78.70847,-0.51196 -78.80994,-0.5461 -3.82211,19.62535 c -2.13091,10.78542 -3.78829,21.02473 -3.72064,22.73128 0.1353,3.48137 83.98501,112.49595 86.58946,112.49595 0.8456,0.0683 21.00471,-24.36957 44.78299,-54.37077 l 0,0 z m 82.76735,-224.07035 0,-47.27151 -131.54157,0 -131.54157,0 0,47.27151 0,47.27151 131.54157,0 131.54157,0 0,-47.27151 z"
       inkscape:connector-curvature="0" />
  </g>
</svg>
