<?xml version="1.0" encoding="UTF-8" standalone="no"?>
<!-- Created with Inkscape (http://www.inkscape.org/) -->

<svg
   xmlns:dc="http://purl.org/dc/elements/1.1/"
   xmlns:cc="http://creativecommons.org/ns#"
   xmlns:rdf="http://www.w3.org/1999/02/22-rdf-syntax-ns#"
   xmlns:svg="http://www.w3.org/2000/svg"
   xmlns="http://www.w3.org/2000/svg"
   xmlns:sodipodi="http://sodipodi.sourceforge.net/DTD/sodipodi-0.dtd"
   xmlns:inkscape="http://www.inkscape.org/namespaces/inkscape"
   width="1000"
   height="1000"
   id="svg3347"
   version="1.1"
   inkscape:version="0.91 r13725"
   viewBox="0 0 1000 1000"
   sodipodi:docname="misc_tower.svg">
  <defs
     id="defs3349" />
  <sodipodi:namedview
     id="base"
     pagecolor="#ffffff"
     bordercolor="#666666"
     borderopacity="1.0"
     inkscape:pageopacity="0.0"
     inkscape:pageshadow="2"
     inkscape:zoom="0.5"
     inkscape:cx="11.512342"
     inkscape:cy="576"
     inkscape:current-layer="layer1"
     showgrid="true"
     inkscape:grid-bbox="true"
     inkscape:document-units="px"
     inkscape:window-width="1920"
     inkscape:window-height="1018"
     inkscape:window-x="-8"
     inkscape:window-y="-8"
     inkscape:window-maximized="1" />
  <metadata
     id="metadata3352">
    <rdf:RDF>
      <cc:Work
         rdf:about="">
        <dc:format>image/svg+xml</dc:format>
        <dc:type
           rdf:resource="http://purl.org/dc/dcmitype/StillImage" />
        <dc:title></dc:title>
      </cc:Work>
    </rdf:RDF>
  </metadata>
  <g
     id="layer1"
     inkscape:label="Layer 1"
     inkscape:groupmode="layer"
     transform="translate(0,968)">
    <path
       style="fill:#4c4c4c;fill-opacity:1"
       id="path7871"
       inkscape:connector-curvature="0"
       d="m 203.91707,-50.488171 c 0.99787,-2.404615 129.50892,-520.238549 129.50892,-521.891729 0,-0.45086 -18.71001,-0.81155 -41.58969,-0.81155 l -41.58967,0 0,-103.75917 c 0,-101.14413 0.10691,-103.81927 4.66859,-105.74296 2.56595,-1.11213 56.45077,-26.09008 119.70844,-55.51656 111.40477,-51.84952 115.28932,-53.47264 122.48822,-51.18825 4.09839,1.29248 7.44837,3.126 7.44837,4.05779 0,0.93179 1.06915,1.14219 2.35212,0.45086 1.31861,-0.69132 2.38775,-0.33063 2.38775,0.75145 0,1.11213 3.74201,3.126 8.30368,4.50865 4.56168,1.41271 8.30369,3.30635 8.30369,4.26819 0,0.93179 1.06914,1.17225 2.31648,0.48093 1.31861,-0.66127 2.38775,-0.33064 2.38775,0.75144 0,1.08207 3.70636,3.126 8.30368,4.53871 4.59732,1.38265 8.26805,3.30635 8.26805,4.26819 0,0.93179 1.06914,1.17225 2.38775,0.48092 1.28297,-0.66126 2.31648,-0.30057 2.31648,0.84162 0,1.14219 2.63722,2.64508 5.91593,3.3364 3.31434,0.66127 5.9872,2.10404 5.9872,3.126 0,1.05202 1.03351,1.3526 2.35212,0.66127 1.28297,-0.69132 2.35211,-0.33063 2.35211,0.72139 0,1.08208 3.74201,3.00577 8.26805,4.29825 4.59731,1.29248 8.30368,3.18611 8.30368,4.29825 0,1.11213 0.99787,1.41271 2.31648,0.72138 1.31861,-0.69132 2.35211,-0.30057 2.35211,0.84162 0,1.14219 2.7085,2.64508 5.95157,3.3364 3.31435,0.69133 5.95157,2.10404 5.95157,3.15606 0,1.05202 1.0335,1.3526 2.35211,0.66127 1.31861,-0.66127 2.35212,-0.33064 2.35212,0.75144 0,1.08208 3.70636,3.126 8.30368,4.50866 4.56168,1.38265 8.23241,3.30634 8.23241,4.26819 0,0.96184 1.10478,1.17225 2.38775,0.48092 1.28297,-0.69133 2.38776,-0.33063 2.38776,0.75144 0,1.11214 3.70636,3.126 8.2324,4.53872 4.63296,1.38265 8.33932,3.30634 8.33932,4.26819 0,0.93179 0.99787,1.17225 2.31648,0.48092 1.31861,-0.69133 2.35212,-0.30058 2.35212,0.84162 0,1.17225 2.63722,2.64507 5.91592,3.3364 3.27871,0.69133 5.98721,2.10404 5.98721,3.15606 0,1.05202 1.0335,1.35259 2.35211,0.66127 1.24734,-0.69133 2.31648,-0.33064 2.31648,0.75144 0,1.11213 3.70637,3.126 8.30369,4.53871 4.56167,1.41271 8.26804,3.30635 8.26804,4.26819 0,0.93179 1.06914,1.17225 2.35212,0.48093 1.31861,-0.66127 2.35211,-0.30058 2.35211,0.84161 0,1.17225 2.7085,2.64508 5.98721,3.33641 3.2787,0.69132 5.91592,2.10403 5.91592,3.15605 0,1.05202 1.03351,1.3526 2.31648,0.66127 1.31861,-0.69132 2.31648,-0.33063 2.31648,0.75145 0,1.11213 3.742,3.126 8.33932,4.53871 4.59732,1.38265 8.30368,3.24623 8.30368,4.14796 0,0.90173 1.31861,1.38265 2.95797,1.11213 2.35211,-0.39075 3.10051,21.73172 3.63509,104.24008 l 0.64148,104.75107 -35.67376,0 c -19.67224,0 -35.67376,0.69133 -35.67376,1.53294 0,0.84162 28.86688,117.85622 64.18426,260.0291 35.28174,142.20295 64.14862,259.758588 64.14862,261.111184 0,1.893635 -8.01858,2.554904 -33.28601,2.554904 -18.35363,0 -33.32164,-0.480923 -33.32164,-0.991904 0,-0.601154 -2.63722,-11.391866 -5.84465,-24.046154 l -5.91593,-22.994136 -101.4261,-109.800754 c -55.73802,-60.35585 -103.70693,-111.81462 -106.4867,-114.30941 l -5.06062,-4.47859 -104.27714,109.74064 -104.27715,109.74063 -6.73559,27.02187 c -3.70636,14.878558 -6.77124,27.74325 -6.77124,28.554808 0,0.811558 -15.50259,1.502885 -34.42643,1.502885 -25.55253,0.06012 -33.21473,-0.510981 -32.39505,-2.434674 l 0,0 z M 646.97019,-337.68943 c -15.6095,-62.82058 -28.68869,-114.8805 -28.9738,-115.662 -0.2851,-0.7815 -18.56746,17.52363 -40.44926,40.638 l -39.87906,42.02066 68.42519,73.97198 c 37.63386,40.69811 68.56775,73.85175 68.81722,73.61129 0.24946,-0.15029 -12.3308,-51.69923 -27.94029,-114.57993 l 0,0 z M 384.35287,-300.478 c 36.13705,-37.93281 65.39595,-70.15466 65.03957,-71.62749 -0.96223,-3.57686 -76.62196,-85.1835 -77.26345,-83.34998 -1.14042,3.18612 -55.31036,222.72751 -55.31036,224.17028 -0.0356,2.04392 -7.02071,9.19765 67.53424,-69.19281 z m 164.11355,-172.65139 51.49708,-54.2842 -5.59518,-22.39298 -5.63082,-22.42304 -93.90646,-0.51098 -93.94208,-0.54104 -4.59732,19.56756 c -2.53031,10.76066 -4.52604,20.95021 -4.45477,22.6635 0.14255,3.45664 100.2144,112.17531 103.208,112.17531 1.03351,0.0301 25.08924,-24.4369 53.42155,-54.25413 l 0,0 z m 98.7176,-223.35873 0,-47.1004 -156.87902,0 -156.87901,0 0,47.1004 0,47.10041 156.87901,0 156.87902,0 0,-47.10041 z" />
  </g>
</svg>
