<?xml version="1.0" encoding="UTF-8" standalone="no"?>
<!-- Created with Inkscape (http://www.inkscape.org/) -->

<svg
   xmlns:dc="http://purl.org/dc/elements/1.1/"
   xmlns:cc="http://creativecommons.org/ns#"
   xmlns:rdf="http://www.w3.org/1999/02/22-rdf-syntax-ns#"
   xmlns:svg="http://www.w3.org/2000/svg"
   xmlns="http://www.w3.org/2000/svg"
   xmlns:sodipodi="http://sodipodi.sourceforge.net/DTD/sodipodi-0.dtd"
   xmlns:inkscape="http://www.inkscape.org/namespaces/inkscape"
   width="32"
   height="32"
   id="svg3359"
   version="1.1"
   inkscape:version="0.91 r13725"
   viewBox="0 0 32 32"
   sodipodi:docname="comm_tower_.svg">
  <defs
     id="defs3361" />
  <sodipodi:namedview
     id="base"
     pagecolor="#ffffff"
     bordercolor="#666666"
     borderopacity="1.0"
     inkscape:pageopacity="0.0"
     inkscape:pageshadow="2"
     inkscape:zoom="20"
     inkscape:cx="11.331756"
     inkscape:cy="14.389288"
     inkscape:current-layer="layer1"
     showgrid="true"
     inkscape:grid-bbox="true"
     inkscape:document-units="px"
     inkscape:window-width="1920"
     inkscape:window-height="1018"
     inkscape:window-x="-8"
     inkscape:window-y="-8"
     inkscape:window-maximized="1" />
  <metadata
     id="metadata3364">
    <rdf:RDF>
      <cc:Work
         rdf:about="">
        <dc:format>image/svg+xml</dc:format>
        <dc:type
           rdf:resource="http://purl.org/dc/dcmitype/StillImage" />
        <dc:title />
      </cc:Work>
    </rdf:RDF>
  </metadata>
  <g
     id="layer1"
     inkscape:label="Layer 1"
     inkscape:groupmode="layer">
    <path
       id="path19929"
       style="fill:#4c4c4c;fill-opacity:1"
       d="m 7.837219,18.8195 c -1.268,-1.569 -2.04,-3.243 -2.369,-5.133 -0.215,-1.235 -0.135,-3.383 0.167,-4.511 0.458,-1.709 1.339,-3.361 2.406,-4.509 l 0.577,-0.622 0.366,0.361 0.366,0.36 -0.452,0.505 c -3.313,3.694 -3.403,9.182 -0.214,12.968 l 0.371,0.441 -0.371,0.363 -0.371,0.366 -0.476,-0.589 0,0 z m 2.197,-1.706 c -0.756,-0.861 -1.417,-2.097 -1.767,-3.303 -0.172,-0.592 -0.198,-0.878 -0.198,-2.153 0,-1.275 0.026,-1.562 0.198,-2.153 0.358,-1.238 1.04,-2.496 1.818,-3.357 l 0.304,-0.337 0.368,0.361 0.368,0.361 -0.466,0.565 c -0.74,0.897 -1.293,2.076 -1.511,3.219 -0.153,0.802 -0.111,2.291 0.085,3.071 0.223,0.885 0.824,2.101 1.373,2.78 l 0.43,0.531 -0.368,0.36 -0.367,0.361 -0.267,-0.306 z m 1.633,-1.976 c -1.586,-2.102 -1.481,-5.053 0.252,-7.07 l 0.334,-0.389 0.395,0.385 0.395,0.385 -0.251,0.264 c -0.732,0.769 -1.142,1.838 -1.147,2.999 -0.006,1.115 0.286,1.968 0.976,2.852 l 0.242,0.31 -0.367,0.36 c -0.202,0.198 -0.394,0.36 -0.426,0.36 -0.032,0 -0.214,-0.206 -0.403,-0.456 l 0,0 z m 12.026001,3.796 -0.372,-0.379 0.442,-0.549 c 2.979,-3.701 2.838,-9.17 -0.329,-12.638 l -0.436,-0.475 0.416,-0.408 0.414,-0.408 0.479,0.521 c 1.294,1.397 2.278,3.417 2.622,5.371 0.166,0.949 0.165,2.778 -0.002,3.735 -0.328,1.869 -1.086,3.521 -2.325,5.067 -0.238,0.297 -0.457,0.539 -0.485,0.539 -0.029,0.001 -0.22,-0.169 -0.424,-0.376 l 0,0 z m -1.903,-1.904 -0.373,-0.381 0.455,-0.593 c 0.565,-0.737 1.063,-1.763 1.295,-2.668 0.197,-0.78 0.239,-2.265 0.086,-3.071 -0.215,-1.125 -0.756,-2.292 -1.48,-3.188 l -0.443,-0.55 0.396,-0.398 0.396,-0.398 0.271,0.256 c 0.775,0.734 1.677,2.417 1.993,3.721 0.245,1.016 0.265,2.63 0.04,3.628 -0.188,0.844 -0.571,1.795 -1.034,2.572 -0.343,0.575 -1.047,1.449 -1.168,1.449 -0.034,0 -0.229,-0.17 -0.434,-0.379 z m -1.93,-1.934 -0.4,-0.411 0.22,-0.303 c 0.683,-0.948 0.997,-2.25 0.812,-3.348 -0.119,-0.707 -0.549,-1.667 -0.941,-2.115 l -0.268,-0.304 0.422,-0.414 0.42,-0.414 0.27,0.292 c 1.375,1.494 1.763,4.006 0.914,5.923 -0.211,0.478 -0.885,1.504 -0.988,1.504 -0.035,0.001 -0.24,-0.184 -0.461,-0.41 l 0,0 z m -5.087001,8.37 0,-5.189 0.303,0 0.303001,0 0,-2.195 0,-2.195 -0.262001,-0.108 c -0.144,-0.06 -0.436,-0.302 -0.648,-0.538 -0.849,-0.944 -0.849,-2.216 0,-3.16 0.542,-0.603 1.100001,-0.832 1.901001,-0.78 0.659,0.043 0.998,0.181 1.479,0.602 0.771,0.675 1.004,1.897 0.537,2.804 -0.236,0.458 -0.662,0.888 -1.104,1.117 l -0.259,0.134 0,2.16 0,2.16 0.349,0 0.346,0 0,5.188 0,5.19 -1.47,0 -1.475001,0 0,-5.19 0,0 z" />
  </g>
</svg>
