<?xml version="1.0" encoding="UTF-8" standalone="no"?>
<!-- Created with Inkscape (http://www.inkscape.org/) -->

<svg
   xmlns:dc="http://purl.org/dc/elements/1.1/"
   xmlns:cc="http://creativecommons.org/ns#"
   xmlns:rdf="http://www.w3.org/1999/02/22-rdf-syntax-ns#"
   xmlns:svg="http://www.w3.org/2000/svg"
   xmlns="http://www.w3.org/2000/svg"
   xmlns:sodipodi="http://sodipodi.sourceforge.net/DTD/sodipodi-0.dtd"
   xmlns:inkscape="http://www.inkscape.org/namespaces/inkscape"
   width="32"
   height="32"
   id="svg3347"
   version="1.1"
   inkscape:version="0.91 r13725"
   viewBox="0 0 32 32"
   sodipodi:docname="tower_.svg">
  <defs
     id="defs3349" />
  <sodipodi:namedview
     id="base"
     pagecolor="#ffffff"
     bordercolor="#666666"
     borderopacity="1.0"
     inkscape:pageopacity="0.0"
     inkscape:pageshadow="2"
     inkscape:zoom="20"
     inkscape:cx="13.643268"
     inkscape:cy="16"
     inkscape:current-layer="layer1"
     showgrid="true"
     inkscape:grid-bbox="true"
     inkscape:document-units="px"
     inkscape:window-width="1920"
     inkscape:window-height="1018"
     inkscape:window-x="-8"
     inkscape:window-y="-8"
     inkscape:window-maximized="1" />
  <metadata
     id="metadata3352">
    <rdf:RDF>
      <cc:Work
         rdf:about="">
        <dc:format>image/svg+xml</dc:format>
        <dc:type
           rdf:resource="http://purl.org/dc/dcmitype/StillImage" />
        <dc:title />
      </cc:Work>
    </rdf:RDF>
  </metadata>
  <g
     id="layer1"
     inkscape:label="Layer 1"
     inkscape:groupmode="layer">
    <path
       style="fill:#4c4c4c;fill-opacity:1"
       id="path7871"
       inkscape:connector-curvature="0"
       d="m 7.8603194,29.923618 c 0.028,-0.08 3.6339996,-17.308 3.6339996,-17.363 0,-0.015 -0.525,-0.027 -1.167,-0.027 l -1.1669996,0 0,-3.4520002 c 0,-3.365 0.003,-3.454 0.131,-3.518 0.072,-0.037 1.5839996,-0.868 3.3589996,-1.847 3.126,-1.725 3.235,-1.779 3.437,-1.703 0.115,0.043 0.209,0.104 0.209,0.135 0,0.031 0.03,0.038 0.066,0.015 0.037,-0.023 0.067,-0.011 0.067,0.025 0,0.037 0.105,0.104 0.233,0.15 0.128,0.047 0.233,0.11 0.233,0.142 0,0.031 0.03,0.039 0.065,0.016 0.037,-0.022 0.067,-0.011 0.067,0.025 0,0.036 0.104,0.104 0.233,0.151 0.129,0.046 0.232,0.11 0.232,0.142 0,0.031 0.03,0.039 0.067,0.016 0.036,-0.022 0.065,-0.01 0.065,0.028 0,0.038 0.074,0.088 0.166,0.111 0.093,0.022 0.168,0.07 0.168,0.104 0,0.035 0.029,0.045 0.066,0.022 0.036,-0.023 0.066,-0.011 0.066,0.024 0,0.036 0.105,0.1 0.232,0.143 0.129,0.043 0.233,0.106 0.233,0.143 0,0.037 0.028,0.047 0.065,0.024 0.037,-0.023 0.066,-0.01 0.066,0.028 0,0.038 0.076,0.088 0.167,0.111 0.093,0.023 0.167,0.07 0.167,0.105 0,0.035 0.029,0.045 0.066,0.022 0.037,-0.022 0.066,-0.011 0.066,0.025 0,0.036 0.104,0.104 0.233,0.15 0.128,0.046 0.231,0.11 0.231,0.142 0,0.032 0.031,0.039 0.067,0.016 0.036,-0.023 0.067,-0.011 0.067,0.025 0,0.037 0.104,0.104 0.231,0.151 0.13,0.046 0.234,0.11 0.234,0.142 0,0.031 0.028,0.039 0.065,0.016 0.037,-0.023 0.066,-0.01 0.066,0.028 0,0.039 0.074,0.088 0.166,0.111 0.092,0.023 0.168,0.07 0.168,0.105 0,0.035 0.029,0.045 0.066,0.022 0.035,-0.023 0.065,-0.011 0.065,0.025 0,0.037 0.104,0.104 0.233,0.151 0.128,0.047 0.232,0.11 0.232,0.142 0,0.031 0.03,0.039 0.066,0.016 0.037,-0.022 0.066,-0.01 0.066,0.028 0,0.039 0.076,0.088 0.168,0.111 0.092,0.023 0.166,0.07 0.166,0.105 0,0.035 0.029,0.045 0.065,0.022 0.037,-0.023 0.065,-0.011 0.065,0.025 0,0.037 0.105,0.104 0.234,0.151 0.129,0.046 0.233,0.108 0.233,0.138 0,0.03 0.037,0.046 0.083,0.037 0.066,-0.013 0.087,0.723 0.102,3.468 l 0.018,3.4850002 -1.001,0 c -0.552,0 -1.001,0.023 -1.001,0.051 0,0.028 0.81,3.921 1.801,8.651 0.99,4.731 1.8,8.642 1.8,8.687 0,0.063 -0.225,0.085 -0.934,0.085 -0.515,0 -0.935,-0.016 -0.935,-0.033 0,-0.02 -0.074,-0.379 -0.164,-0.8 l -0.166,-0.765 -2.846,-3.653 c -1.564,-2.008 -2.91,-3.72 -2.988,-3.803 l -0.142,-0.149 -2.926,3.651 -2.926,3.651 -0.1889996,0.899 c -0.104,0.495 -0.19,0.923 -0.19,0.95 0,0.027 -0.435,0.05 -0.966,0.05 -0.717,0.002 -0.932,-0.017 -0.909,-0.081 l 0,0 z m 12.4319996,-9.555 c -0.438,-2.09 -0.805,-3.822 -0.813,-3.848 -0.008,-0.026 -0.521,0.583 -1.135,1.352 l -1.119,1.398 1.92,2.461 c 1.056,1.354 1.924,2.457 1.931,2.449 0.007,-0.005 -0.346,-1.72 -0.784,-3.812 l 0,0 z m -7.369,1.238 c 1.014,-1.262 1.835,-2.334 1.825,-2.383 -0.027,-0.119 -2.15,-2.834 -2.168,-2.773 -0.032,0.106 -1.552,7.41 -1.552,7.458 -10e-4,0.068 -0.197,0.306 1.895,-2.302 z m 4.605,-5.744 1.445,-1.806 -0.157,-0.745 -0.158,-0.746 -2.635,-0.017 -2.636,-0.018 -0.129,0.651 c -0.071,0.358 -0.127,0.697 -0.125,0.754 0.004,0.115 2.812,3.732 2.896,3.732 0.029,10e-4 0.704,-0.813 1.499,-1.805 l 0,0 z m 2.77,-7.4310002 0,-1.567 -4.402,0 -4.402,0 0,1.567 0,1.567 4.402,0 4.402,0 0,-1.567 z" />
  </g>
</svg>
