<?xml version="1.0" encoding="UTF-8" standalone="no"?>
<!-- Created with Inkscape (http://www.inkscape.org/) -->

<svg
   xmlns:dc="http://purl.org/dc/elements/1.1/"
   xmlns:cc="http://creativecommons.org/ns#"
   xmlns:rdf="http://www.w3.org/1999/02/22-rdf-syntax-ns#"
   xmlns:svg="http://www.w3.org/2000/svg"
   xmlns="http://www.w3.org/2000/svg"
   xmlns:sodipodi="http://sodipodi.sourceforge.net/DTD/sodipodi-0.dtd"
   xmlns:inkscape="http://www.inkscape.org/namespaces/inkscape"
   width="352.78mm"
   height="352.78mm"
   viewBox="0 0 1250.0079 1250.0079"
   id="svg6072"
   version="1.1"
   inkscape:version="0.91 r13725"
   sodipodi:docname="misc_hunting_stand.svg">
  <defs
     id="defs6074" />
  <sodipodi:namedview
     id="base"
     pagecolor="#ffffff"
     bordercolor="#666666"
     borderopacity="1.0"
     inkscape:pageopacity="0.0"
     inkscape:pageshadow="2"
     inkscape:zoom="0.5"
     inkscape:cx="375"
     inkscape:cy="520"
     inkscape:document-units="px"
     inkscape:current-layer="layer1"
     showgrid="false"
     inkscape:window-width="1920"
     inkscape:window-height="1018"
     inkscape:window-x="-8"
     inkscape:window-y="-8"
     inkscape:window-maximized="1" />
  <metadata
     id="metadata6077">
    <rdf:RDF>
      <cc:Work
         rdf:about="">
        <dc:format>image/svg+xml</dc:format>
        <dc:type
           rdf:resource="http://purl.org/dc/dcmitype/StillImage" />
        <dc:title></dc:title>
      </cc:Work>
    </rdf:RDF>
  </metadata>
  <g
     inkscape:label="Layer 1"
     inkscape:groupmode="layer"
     id="layer1"
     transform="translate(0,197.64569)">
    <path
       inkscape:connector-curvature="0"
       d="m 414.9761,60.694757 0,65.055003 c 138.8348,34.68 277.6965,69.417 418.0412,104.489 l 0,-65.054 C 693.6241,130.33576 554.7054,95.627757 414.9761,60.694757 Z m 53.3638,132.010003 0,233.871 312.5727,0 c 0,-49.057 -0.28,-96.603 0,-144.065 0,-9.984 -3.1605,-13.341 -12.6697,-15.662 -96.2946,-23.577 -192.5055,-47.854 -288.7155,-71.85 -3.7758,-0.839 -7.5793,-1.678 -11.4113,-2.238 z m -52.86,288.717 0,50.79 51.4332,0 c -17.5077,87.847 -34.68,173.962 -52.0485,260.999 l 77.7793,0 c 1.1192,-5.119 2.2375,-9.621 3.1329,-14.152 15.5778,-77.612 31.3526,-155.251 46.4275,-232.975 1.9575,-10.768 5.5656,-14.628 16.8646,-14.46 43.3224,0.559 86.7017,0.559 130.0802,0 11.3267,0 14.7948,3.832 16.9208,14.46 15.7179,78.59 32.1357,156.985 48.7204,235.436 0.8391,4.475 5.0341,11.691 7.9431,11.803 23.6049,1.119 47.2659,0.559 72.4099,0.559 -18.1515,-87.988 -35.8839,-173.99 -54.063,-262.23 l 51.9931,0 0,-50.259 -417.5935,0 z"
       id="path6"
       style="fill:#4c4c4c;fill-opacity:1" />
  </g>
</svg>
