<?xml version="1.0" encoding="UTF-8" standalone="no"?>
<!-- Created with Inkscape (http://www.inkscape.org/) -->

<svg
   xmlns:dc="http://purl.org/dc/elements/1.1/"
   xmlns:cc="http://creativecommons.org/ns#"
   xmlns:rdf="http://www.w3.org/1999/02/22-rdf-syntax-ns#"
   xmlns:svg="http://www.w3.org/2000/svg"
   xmlns="http://www.w3.org/2000/svg"
   xmlns:sodipodi="http://sodipodi.sourceforge.net/DTD/sodipodi-0.dtd"
   xmlns:inkscape="http://www.inkscape.org/namespaces/inkscape"
   width="1000"
   height="1000"
   id="svg3356"
   version="1.1"
   inkscape:version="0.91 r13725"
   viewBox="0 0 1000 1000"
   sodipodi:docname="misc_hunting_stand.svg">
  <defs
     id="defs3358" />
  <sodipodi:namedview
     id="base"
     pagecolor="#ffffff"
     bordercolor="#666666"
     borderopacity="1.0"
     inkscape:pageopacity="0.0"
     inkscape:pageshadow="2"
     inkscape:zoom="0.5"
     inkscape:cx="11.512342"
     inkscape:cy="336"
     inkscape:current-layer="layer1"
     showgrid="true"
     inkscape:grid-bbox="true"
     inkscape:document-units="px"
     inkscape:window-width="1920"
     inkscape:window-height="1018"
     inkscape:window-x="-8"
     inkscape:window-y="-8"
     inkscape:window-maximized="1" />
  <metadata
     id="metadata3361">
    <rdf:RDF>
      <cc:Work
         rdf:about="">
        <dc:format>image/svg+xml</dc:format>
        <dc:type
           rdf:resource="http://purl.org/dc/dcmitype/StillImage" />
        <dc:title></dc:title>
      </cc:Work>
    </rdf:RDF>
  </metadata>
  <g
     id="layer1"
     inkscape:label="Layer 1"
     inkscape:groupmode="layer"
     transform="translate(0,968)">
    <g
       transform="matrix(37.733879,0,0,30.291128,-133.04326,-917.84191)"
       id="g6"
       style="fill:#4c4c4c;fill-opacity:1">
      <path
         style="clip-rule:evenodd;fill:#4c4c4c;fill-opacity:1;fill-rule:evenodd"
         inkscape:connector-curvature="0"
         d="m 23.793,17.179 c 0,0.605 0,1.167 0,1.798 -0.605,0 -1.195,0 -1.859,0 0.65,3.155 1.284,6.231 1.932,9.376 -0.899,0 -1.745,0.016 -2.588,-0.02 -0.104,-0.004 -0.251,-0.263 -0.285,-0.423 -0.593,-2.804 -1.18,-5.607 -1.743,-8.417 -0.076,-0.38 -0.199,-0.523 -0.604,-0.518 -1.55,0.023 -3.1,0.023 -4.65,0 -0.404,-0.006 -0.53,0.133 -0.604,0.517 -0.539,2.78 -1.104,5.555 -1.661,8.331 -0.033,0.162 -0.071,0.323 -0.111,0.506 -0.928,0 -1.837,0 -2.781,0 0.621,-3.112 1.235,-6.193 1.861,-9.333 -0.65,0 -1.228,0 -1.84,0 0,-0.622 0,-1.198 0,-1.817 4.956,0 9.926,0 14.933,0 z"
         id="path8" />
      <path
         style="clip-rule:evenodd;fill:#4c4c4c;fill-opacity:1;fill-rule:evenodd"
         inkscape:connector-curvature="0"
         d="m 21.928,15.218 c -3.752,0 -7.443,0 -11.177,0 0,-2.77 0,-5.54 0,-8.36 0.137,0.027 0.275,0.049 0.41,0.082 3.44,0.858 6.878,1.724 10.322,2.567 0.339,0.083 0.458,0.204 0.453,0.561 -0.019,1.697 -0.008,3.396 -0.008,5.15 z"
         id="path10" />
      <path
         style="clip-rule:evenodd;fill:#4c4c4c;fill-opacity:1;fill-rule:evenodd"
         inkscape:connector-curvature="0"
         d="M 23.791,8.199 C 18.773,6.945 13.807,5.703 8.843,4.463 c 0,-0.792 0,-1.537 0,-2.326 4.996,1.249 9.964,2.49 14.948,3.736 0,0.761 0,1.505 0,2.326 z"
         id="path12" />
    </g>
  </g>
</svg>
