<?xml version="1.0" encoding="UTF-8" standalone="no"?>
<!-- Created with Inkscape (http://www.inkscape.org/) -->

<svg
   xmlns:dc="http://purl.org/dc/elements/1.1/"
   xmlns:cc="http://creativecommons.org/ns#"
   xmlns:rdf="http://www.w3.org/1999/02/22-rdf-syntax-ns#"
   xmlns:svg="http://www.w3.org/2000/svg"
   xmlns="http://www.w3.org/2000/svg"
   xmlns:sodipodi="http://sodipodi.sourceforge.net/DTD/sodipodi-0.dtd"
   xmlns:inkscape="http://www.inkscape.org/namespaces/inkscape"
   width="32"
   height="32"
   id="svg3352"
   version="1.1"
   inkscape:version="0.91 r13725"
   viewBox="0 0 32 32"
   sodipodi:docname="atm_.svg">
  <defs
     id="defs3354" />
  <sodipodi:namedview
     id="base"
     pagecolor="#ffffff"
     bordercolor="#666666"
     borderopacity="1.0"
     inkscape:pageopacity="0.0"
     inkscape:pageshadow="2"
     inkscape:zoom="20"
     inkscape:cx="11.331756"
     inkscape:cy="16"
     inkscape:current-layer="layer1"
     showgrid="true"
     inkscape:grid-bbox="true"
     inkscape:document-units="px"
     inkscape:window-width="1920"
     inkscape:window-height="1018"
     inkscape:window-x="-8"
     inkscape:window-y="-8"
     inkscape:window-maximized="1" />
  <metadata
     id="metadata3357">
    <rdf:RDF>
      <cc:Work
         rdf:about="">
        <dc:format>image/svg+xml</dc:format>
        <dc:type
           rdf:resource="http://purl.org/dc/dcmitype/StillImage" />
        <dc:title />
      </cc:Work>
    </rdf:RDF>
  </metadata>
  <g
     id="layer1"
     inkscape:label="Layer 1"
     inkscape:groupmode="layer">
    <path
       id="path4143"
       style="fill:#3c3c3c;fill-opacity:1"
       d="m 7.925,28.616683 c -0.59,-0.365 -0.874,-0.883 -0.965,-1.757 l -0.056,-0.536 0.366,0.29 c 0.654,0.519 0.644,0.517 4.758,0.515 2.066,-0.002 5.603,-0.033 7.859,-0.067 4.438,-0.072 4.4,-0.067 4.99,-0.565 l 0.283,-0.236 -0.053,0.377 c -0.134,0.969 -0.486,1.656 -1.021,1.979 -0.262,0.16 -0.543,0.166 -8.086,0.166 -7.474,-0.004 -7.827,-0.012 -8.075,-0.166 z m -3.584,-18.296 C 4.042,10.208683 3.7,9.8996825 3.467,9.5316825 l -0.249,-0.391 0,-2.164 c 0,-1.243 0.039,-2.302 0.091,-2.49 0.118,-0.426 0.515,-0.87 0.976,-1.093 0.367,-0.178 0.419,-0.178 11.72,-0.176 1.1,0 2.199,0.007 3.299,0.006 1.929,-0.002 3.857,-0.017 5.785,0.014 0.862,0.014 1.985,-0.052 2.765,0.257 0.786,0.313 0.924,0.918 0.919,1.713 -0.003,0.54 0.009,1.082 0.009,1.621 l 0,2.298 -0.275,0.403 c -0.304,0.445 -0.86,0.8530005 -1.165,0.8530005 l -0.196,0 -0.022,-1.7920005 -0.022,-1.792 -11.08,-0.021 -11.077,-0.022 0,1.814 0,1.8140005 -0.237,-0.007 c -0.131,-0.004 -0.296,-0.029 -0.367,-0.056 z m 5.182,14.754 c -0.963,-0.032 -1.667,-0.093 -1.771,-0.153 -0.27,-0.156 -0.628,-0.564 -0.729,-0.834 -0.063,-0.164 -0.092,-2.668 -0.092,-7.793 l 0,-7.5520005 0.821,0 0.82,0 0,5.4720005 0,5.472 0.58,0.145 c 0.871,0.215 1.304,0.459 1.946,1.098 0.637,0.634 0.953,1.201 1.112,2 l 0.099,0.496 3.698,0 3.698,0 0.055,-0.321 c 0.275,-1.642 1.548,-2.966 3.17,-3.302 l 0.497,-0.103 0,-5.478 0,-5.4790005 0.867,0 0.866,0 -0.06,7.5780005 c -0.063,8.142 -0.04,7.776 -0.521,8.258 -0.543,0.544 -0.156,0.515 -7.112,0.532 -3.49,0.01 -7.066,-0.008 -7.944,-0.036 z m 4.793,-7.48 c -1.811,-0.488 -3.247,-1.578 -3.638,-2.754 -0.281,-0.845 0.013,-1.753 0.828,-2.558 0.886,-0.875 2.19,-1.454 3.714,-1.649 2.955,-0.379 6.222,1.485 6.222,3.55 0,1.387 -1.586,2.845 -3.664,3.369 -0.825,0.206 -2.766,0.232 -3.462,0.042 z" />
  </g>
</svg>
