<?xml version="1.0" encoding="UTF-8" standalone="no"?>
<!-- Created with Inkscape (http://www.inkscape.org/) -->

<svg
   xmlns:dc="http://purl.org/dc/elements/1.1/"
   xmlns:cc="http://creativecommons.org/ns#"
   xmlns:rdf="http://www.w3.org/1999/02/22-rdf-syntax-ns#"
   xmlns:svg="http://www.w3.org/2000/svg"
   xmlns="http://www.w3.org/2000/svg"
   xmlns:sodipodi="http://sodipodi.sourceforge.net/DTD/sodipodi-0.dtd"
   xmlns:inkscape="http://www.inkscape.org/namespaces/inkscape"
   width="1000"
   height="1000"
   id="svg6031"
   version="1.1"
   inkscape:version="0.91 r13725"
   viewBox="0 0 1000 1000"
   sodipodi:docname="money_money_exchange.svg">
  <defs
     id="defs6033" />
  <sodipodi:namedview
     id="base"
     pagecolor="#ffffff"
     bordercolor="#666666"
     borderopacity="1.0"
     inkscape:pageopacity="0.0"
     inkscape:pageshadow="2"
     inkscape:zoom="0.5"
     inkscape:cx="15.075859"
     inkscape:cy="496"
     inkscape:current-layer="layer1"
     showgrid="true"
     inkscape:grid-bbox="true"
     inkscape:document-units="px"
     inkscape:window-width="1920"
     inkscape:window-height="1018"
     inkscape:window-x="-8"
     inkscape:window-y="-8"
     inkscape:window-maximized="1" />
  <metadata
     id="metadata6036">
    <rdf:RDF>
      <cc:Work
         rdf:about="">
        <dc:format>image/svg+xml</dc:format>
        <dc:type
           rdf:resource="http://purl.org/dc/dcmitype/StillImage" />
        <dc:title></dc:title>
      </cc:Work>
    </rdf:RDF>
  </metadata>
  <g
     id="layer1"
     inkscape:label="Layer 1"
     inkscape:groupmode="layer"
     transform="translate(0,968)">
    <path
       inkscape:connector-curvature="0"
       d="m 372.03053,-849.78595 c -18.75735,0 -37.52027,0.0114 -56.29059,0 -11.30657,2.54038 -22.74089,4.60693 -33.89483,7.69323 -112.83748,31.20589 -179.86929,104.67975 -202.055925,219.43666 -0.791143,4.07274 -2.119014,8.04036 -3.201645,12.05543 l 0,56.27643 c 1.03174,3.5316 2.391965,7.01246 3.039724,10.61404 18.872101,105.60644 78.814966,177.00294 179.263676,213.99317 27.19454,10.01592 55.69423,14.36398 86.4318,13.69585 -9.53134,-60.78305 -1.47136,-117.84592 21.82438,-173.83706 -13.77491,4.93154 -25.15741,8.99644 -37.2348,13.32351 -0.50891,6.44614 -1.0687,13.29259 -1.66565,20.69333 l -27.51189,0 c 0,-5.23091 1.03192,-9.75646 -0.32318,-13.44722 -1.42103,-3.97694 -4.47465,-9.53306 -7.7887,-10.3285 -41.96185,-10.06666 -57.28392,-38.80244 -52.13631,-86.47669 l 61.26748,0 c 0,13.8274 -0.79567,26.50288 0.46285,38.98771 0.46247,4.12977 6.07662,7.72775 9.33425,11.57106 3.91875,-3.39799 9.98988,-6.0783 11.37091,-10.30356 6.43196,-19.64386 -2.26705,-41.94729 -19.71878,-53.80241 -12.78871,-8.69226 -26.29759,-16.50138 -38.26626,-26.19901 -23.36366,-18.94387 -29.88492,-44.59064 -25.18933,-73.34023 3.81236,-23.34091 18.81473,-37.52953 40.92454,-43.31386 12.91022,-3.37246 24.58651,-5.78853 20.41835,-23.1289 l 26.34227,0 c 2.9888,17.05391 2.99808,17.0533 19.88396,22.83133 29.24273,10.00299 44.08687,37.84031 36.10174,68.50541 l -58.68995,0 c -0.828,-9.12498 -0.66158,-17.69142 -2.72506,-25.6648 -0.98549,-3.79887 -6.38156,-9.18923 -9.46798,-8.99825 -3.67823,0.24015 -9.27689,5.19998 -10.1037,8.97333 -2.69719,12.37041 -1.64261,24.32915 10.72089,32.25146 16.562,10.627 32.95885,21.4981 49.43854,32.25208 19.24129,12.56141 27.83666,31.03443 29.2626,53.29344 0.50891,7.61032 0.0446,15.28792 0.0446,22.9301 26.5764,-33.03218 55.33656,-61.48661 89.93695,-83.89182 34.96575,-22.64096 73.27535,-36.87883 114.77961,-44.9414 -1.79978,-5.28166 -2.93333,-9.29372 -4.51101,-13.12442 -28.93089,-70.25785 -78.2172,-120.68568 -148.78054,-148.80528 -22.79134,-9.08052 -47.51105,-13.34032 -71.34572,-19.79908 z m 227.07504,17.26321 c -4.70255,27.0569 -3.9049,28.53819 19.10017,38.50334 23.75923,10.28946 36.84061,29.6246 47.8294,54.49905 l -37.0951,0 c 18.91002,30.94495 36.52877,59.77802 55.38838,90.6404 19.6989,-30.83686 37.92744,-59.39066 57.5259,-90.08127 -5.80364,-0.31216 -8.21459,-0.89185 -10.4479,-0.48344 -21.97701,3.98983 -33.59547,-4.33458 -42.4902,-25.93836 -16.04753,-38.98199 -47.06596,-61.71063 -89.81065,-67.13852 z m 53.0135,199.82497 c -14.88161,-0.24111 -29.94921,0.74776 -45.07324,3.04442 -120.84161,18.33942 -213.52773,116.73549 -225.55379,239.45946 -11.74475,119.82839 60.84043,234.08532 175.81592,275.10354 21.01006,7.48963 43.38825,11.18219 65.13581,16.629295 16.87987,0 33.76668,0.01141 50.65349,0 6.81502,-1.513532 13.59724,-3.322315 20.47566,-4.499415 168.93701,-28.77542 267.70673,-210.12552 200.09564,-367.45972 -42.27367,-98.38524 -137.37166,-160.58473 -241.54949,-162.29063 z m 4.44624,121.84806 c 10.77916,0.09 21.63418,1.4293 32.34905,4.06432 9.30743,2.28509 13.13276,6.01584 12.54054,16.07018 -0.92086,15.84466 -0.2786,31.79114 -0.2786,49.83778 -45.29675,-20.29903 -83.98294,-14.66306 -117.71169,27.37972 l 116.90294,0 0,26.95748 -128.93453,0 c 0,13.18508 0,23.68654 0,35.44618 l 128.62269,0 0,27.16831 -115.01294,0 c 15.36604,37.62019 60.21678,49.29367 115.99379,30.37559 0,19.51623 0.57391,38.42888 -0.57354,57.21991 -0.18573,3.02899 -7.72373,6.97617 -12.43876,8.15356 -64.81702,16.09902 -133.3252,-15.85518 -161.32709,-77.2553 -6.96123,-15.28465 -14.9029,-20.46332 -30.14123,-18.34424 -4.51558,0.63653 -9.19406,0.11895 -14.86356,0.11895 l 0,-27.19384 30.00104,0 0,-34.84922 -30.03205,0 0,-26.38547 c 12.92871,-1.04514 27.96441,1.9247 36.96694,-4.11415 9.23295,-6.19783 11.60594,-21.84221 18.63013,-32.22716 27.1885,-40.1624 72.56712,-62.85168 119.27733,-62.41569 z m -347.0829,227.83857 c -19.5018,30.51855 -37.73032,59.07026 -57.94461,90.71544 10.02132,0 16.90531,0.66965 23.62413,-0.11895 13.03187,-1.55243 19.82657,3.26107 24.75165,16.01974 9.76638,25.29424 24.56656,47.85621 49.08873,61.37219 12.54102,6.91072 26.55791,11.13838 39.90764,16.578864 2.80381,0 5.63016,0.01173 8.44965,0 -0.57354,-10.696634 -1.09174,-21.392074 -1.6285,-31.866204 -41.52373,-17.06021 -57.58329,-31.78123 -65.79096,-61.40913 l 35.40219,0 c -19.2797,-31.49868 -36.98726,-60.43745 -55.85984,-91.27427 z"
       id="path3-94"
       style="fill:#3c3c3c;fill-opacity:1" />
  </g>
</svg>
