<?xml version="1.0" encoding="UTF-8" standalone="no"?>
<!-- Created with Inkscape (http://www.inkscape.org/) -->

<svg
   xmlns:dc="http://purl.org/dc/elements/1.1/"
   xmlns:cc="http://creativecommons.org/ns#"
   xmlns:rdf="http://www.w3.org/1999/02/22-rdf-syntax-ns#"
   xmlns:svg="http://www.w3.org/2000/svg"
   xmlns="http://www.w3.org/2000/svg"
   xmlns:sodipodi="http://sodipodi.sourceforge.net/DTD/sodipodi-0.dtd"
   xmlns:inkscape="http://www.inkscape.org/namespaces/inkscape"
   width="1000"
   height="1000"
   id="svg3352"
   version="1.1"
   inkscape:version="0.91 r13725"
   viewBox="0 0 1000 1000"
   sodipodi:docname="money_atm.svg">
  <defs
     id="defs3354" />
  <sodipodi:namedview
     id="base"
     pagecolor="#ffffff"
     bordercolor="#666666"
     borderopacity="1.0"
     inkscape:pageopacity="0.0"
     inkscape:pageshadow="2"
     inkscape:zoom="0.5"
     inkscape:cx="9.2008305"
     inkscape:cy="416"
     inkscape:current-layer="layer1"
     showgrid="true"
     inkscape:grid-bbox="true"
     inkscape:document-units="px"
     inkscape:window-width="1920"
     inkscape:window-height="1018"
     inkscape:window-x="-8"
     inkscape:window-y="-8"
     inkscape:window-maximized="1" />
  <metadata
     id="metadata3357">
    <rdf:RDF>
      <cc:Work
         rdf:about="">
        <dc:format>image/svg+xml</dc:format>
        <dc:type
           rdf:resource="http://purl.org/dc/dcmitype/StillImage" />
        <dc:title></dc:title>
      </cc:Work>
    </rdf:RDF>
  </metadata>
  <g
     id="layer1"
     inkscape:label="Layer 1"
     inkscape:groupmode="layer"
     transform="translate(0,968)">
    <path
       id="path4143"
       style="fill:#3c3c3c;fill-opacity:1"
       d="m 281.02921,-88.2402 c -15.26846,-11.044292 -22.61802,-26.71811 -24.97298,-53.16389 l -1.44921,-16.21847 9.47162,8.77492 c 16.92469,15.70407 16.66591,15.64356 123.13102,15.58304 53.46547,-0.0605 144.99856,-0.99853 203.38098,-2.02731 114.84984,-2.1786 113.86645,-2.02731 129.1349,-17.09596 l 7.32368,-7.14097 -1.37157,11.4074 c -3.46775,29.32032 -12.57707,50.107798 -26.4222,59.88124 -6.78022,4.841332 -14.05214,5.022883 -209.25545,5.022883 -193.41767,-0.121033 -202.55286,-0.3631 -208.97079,-5.022883 z m -92.74939,-553.60648 c -7.73774,-3.38893 -16.58827,-12.73877 -22.61801,-23.87384 l -6.44381,-11.83101 0,-65.47903 c 0,-37.61111 1.00927,-69.65469 2.35496,-75.34325 3.0537,-12.89005 13.32755,-26.32476 25.25765,-33.07236 9.4975,-5.38599 10.84319,-5.38599 303.29878,-5.32547 28.46661,0 56.90734,0.21181 85.37396,0.18155 49.92007,-0.0605 99.81427,-0.51439 149.70848,0.42362 22.30747,0.42361 51.36929,-1.57344 71.55471,7.77639 20.34068,9.47086 23.91195,27.77715 23.78256,51.83253 -0.0776,16.3395 0.2329,32.73951 0.2329,49.04875 l 0,69.53366 -7.11665,12.19411 c -7.86714,13.46495 -22.25572,25.81037 -30.14872,25.81037 l -5.07224,0 -0.56934,-54.22295 -0.56933,-54.22294 -286.73639,-0.63542 -286.65875,-0.66569 0,54.88862 0,54.88864 -6.13326,-0.21181 c -3.39012,-0.12103 -7.66011,-0.87749 -9.4975,-1.69447 z m 134.10361,446.43146 c -24.92123,-0.96827 -43.13985,-2.81402 -45.83125,-4.62952 -6.98725,-4.7203 -16.25184,-17.0657 -18.86559,-25.23545 -1.63036,-4.96237 -2.38084,-80.72924 -2.38084,-235.80321 l 0,-228.51094 21.24643,0 21.22057,0 0,165.57362 0,165.5736 15.00967,4.38745 c 22.54038,6.50555 33.74587,13.88858 50.36002,33.22365 16.48475,19.1838 24.66244,36.34027 28.77716,60.51667 l 2.56199,15.00814 95.69956,0 95.69957,0 1.42333,-9.71292 c 7.11665,-49.68419 40.06028,-89.74623 82.03558,-99.91302 l 12.86174,-3.11662 0,-165.75514 0,-165.78543 22.43686,0 22.41099,0 -1.55273,229.29766 c -1.63035,246.36336 -1.03515,235.28881 -13.48281,249.87333 -14.05216,16.46053 -4.03709,15.58304 -184.04957,16.09743 -90.31679,0.30258 -182.85916,-0.24207 -205.58068,-1.0893 z m 124.03678,-226.33233 c -46.86639,-14.76607 -84.02826,-47.74766 -94.14684,-83.33146 -7.27193,-25.56829 0.33642,-53.04286 21.42759,-77.40082 22.92856,-26.47604 56.67443,-43.99562 96.11362,-49.89599 76.47167,-11.4679 161.0175,44.93363 161.0175,107.41709 0,41.96831 -41.04367,86.08495 -94.81968,101.94032 -21.34996,6.23322 -71.58059,7.01993 -89.59219,1.27086 z"
       inkscape:connector-curvature="0" />
  </g>
</svg>
