<?xml version="1.0" encoding="UTF-8" standalone="no"?>
<!-- Created with Inkscape (http://www.inkscape.org/) -->

<svg
   xmlns:dc="http://purl.org/dc/elements/1.1/"
   xmlns:cc="http://creativecommons.org/ns#"
   xmlns:rdf="http://www.w3.org/1999/02/22-rdf-syntax-ns#"
   xmlns:svg="http://www.w3.org/2000/svg"
   xmlns="http://www.w3.org/2000/svg"
   xmlns:sodipodi="http://sodipodi.sourceforge.net/DTD/sodipodi-0.dtd"
   xmlns:inkscape="http://www.inkscape.org/namespaces/inkscape"
   width="1000"
   height="1000"
   id="svg11746"
   version="1.1"
   inkscape:version="0.91 r13725"
   viewBox="0 0 1000 1000"
   sodipodi:docname="money_bank.svg">
  <defs
     id="defs11748" />
  <sodipodi:namedview
     id="base"
     pagecolor="#ffffff"
     bordercolor="#666666"
     borderopacity="1.0"
     inkscape:pageopacity="0.0"
     inkscape:pageshadow="2"
     inkscape:zoom="0.5"
     inkscape:cx="9.7405635"
     inkscape:cy="416"
     inkscape:current-layer="layer1"
     showgrid="true"
     inkscape:grid-bbox="true"
     inkscape:document-units="px"
     inkscape:window-width="1920"
     inkscape:window-height="1018"
     inkscape:window-x="-8"
     inkscape:window-y="-8"
     inkscape:window-maximized="1" />
  <metadata
     id="metadata11751">
    <rdf:RDF>
      <cc:Work
         rdf:about="">
        <dc:format>image/svg+xml</dc:format>
        <dc:type
           rdf:resource="http://purl.org/dc/dcmitype/StillImage" />
        <dc:title></dc:title>
      </cc:Work>
    </rdf:RDF>
  </metadata>
  <g
     id="layer1"
     inkscape:label="Layer 1"
     inkscape:groupmode="layer"
     transform="translate(0,968)">
    <path
       inkscape:connector-curvature="0"
       d="m 69.940015,-686.39905 0,164.69752 c 0.02375,179.33005 0,174.00815 8.465295,186.36407 8.056125,11.48028 23.69556,19.17586 42.4198,20.8541 15.04218,1.36268 727.42564,1.36268 740.92614,0 28.41681,-2.84567 47.39134,-17.20813 51.38782,-39.00108 0.94279,-5.08345 1.57218,-69.70362 1.57218,-170.54471 l 0,-162.3699 -422.33807,0 -422.434027,0 z m 422.370865,45.36632 241.23748,0 0.94512,6.69848 c 1.57218,10.87219 4.97013,20.07586 11.23259,30.0237 18.88192,29.7951 60.86027,53.95963 97.74237,56.24592 l 10.91936,0.65655 0,46.98153 0,46.98384 -7.17507,0.70613 c -29.39143,2.91857 -56.17107,13.4065 -76.8153,30.21328 -20.80096,16.78258 -32.31855,35.06583 -35.96829,57.05346 l -0.94278,5.65266 -241.30066,0 c -191.73831,0 -241.4586,-0.3406 -241.93069,-1.55687 -0.31339,-0.80323 -0.94512,-4.65772 -1.57452,-8.59808 -1.8879,-16.68515 -16.26803,-37.98438 -35.58953,-53.01582 -22.50002,-17.51203 -45.91298,-26.62816 -75.83942,-29.59543 l -7.11192,-0.70614 0,-46.98137 0,-46.98137 10.91936,-0.65655 c 27.53435,-1.65384 60.04121,-16.35944 81.37721,-36.86318 14.57008,-13.98561 26.8744,-36.03396 26.8744,-48.1223 0,-2.38357 0.31339,-5.15139 0.94512,-6.27028 0.94512,-1.6786 23.53812,-1.84857 241.99267,-1.84857 z m -422.432844,351.96409 0.942782,8.6466 c 3.744277,36.62987 20.517181,56.07806 51.010482,59.19149 5.0986,0.55946 174.58687,0.87541 376.7102,0.75365 l 367.23567,-0.24403 9.47362,-3.41985 c 13.56177,-4.7915 24.32344,-14.14112 30.23989,-25.98623 5.09742,-10.19107 8.277,-23.84575 7.55268,-31.96935 l -0.62939,-5.5579 -9.03213,5.84244 c -5.03521,3.1863 -14.12934,7.71022 -20.32863,10.11814 l -11.20222,4.32217 -379.5744,0 -379.6041,0 -11.2337,-4.32168 c -6.199307,-2.28629 -15.829656,-7.32844 -21.461152,-10.87942 l -10.196018,-6.60125 z"
       id="path4707"
       style="fill:#3c3c3c;fill-opacity:1" />
  </g>
</svg>
