<?xml version="1.0" encoding="UTF-8" standalone="no"?>
<!-- Created with Inkscape (http://www.inkscape.org/) -->

<svg
   xmlns:dc="http://purl.org/dc/elements/1.1/"
   xmlns:cc="http://creativecommons.org/ns#"
   xmlns:rdf="http://www.w3.org/1999/02/22-rdf-syntax-ns#"
   xmlns:svg="http://www.w3.org/2000/svg"
   xmlns="http://www.w3.org/2000/svg"
   xmlns:sodipodi="http://sodipodi.sourceforge.net/DTD/sodipodi-0.dtd"
   xmlns:inkscape="http://www.inkscape.org/namespaces/inkscape"
   width="32"
   height="32"
   id="svg6031"
   version="1.1"
   inkscape:version="0.91 r13725"
   viewBox="0 0 32 32"
   sodipodi:docname="money_money_exchange.svg">
  <defs
     id="defs6033" />
  <sodipodi:namedview
     id="base"
     pagecolor="#ffffff"
     bordercolor="#666666"
     borderopacity="1.0"
     inkscape:pageopacity="0.0"
     inkscape:pageshadow="2"
     inkscape:zoom="21.066667"
     inkscape:cx="17.09889"
     inkscape:cy="16"
     inkscape:current-layer="layer1"
     showgrid="true"
     inkscape:grid-bbox="true"
     inkscape:document-units="px"
     inkscape:window-width="1920"
     inkscape:window-height="1018"
     inkscape:window-x="-8"
     inkscape:window-y="-8"
     inkscape:window-maximized="1" />
  <metadata
     id="metadata6036">
    <rdf:RDF>
      <cc:Work
         rdf:about="">
        <dc:format>image/svg+xml</dc:format>
        <dc:type
           rdf:resource="http://purl.org/dc/dcmitype/StillImage" />
        <dc:title></dc:title>
      </cc:Work>
    </rdf:RDF>
  </metadata>
  <g
     id="layer1"
     inkscape:label="Layer 1"
     inkscape:groupmode="layer">
    <path
       inkscape:connector-curvature="0"
       d="m 12.541024,4.1899053 c -0.504958,0 -1.010066,3.549e-4 -1.515373,0 -0.304379,0.079021 -0.612197,0.1433032 -0.912467,0.2393058 -3.0376455,0.9706923 -4.842178,3.2561747 -5.4394541,6.8258099 -0.021298,0.126687 -0.057045,0.250104 -0.08619,0.374997 l 0,1.750538 c 0.027775,0.109854 0.064393,0.21813 0.081831,0.330161 0.5080471,3.285 2.1217412,5.505864 4.8258746,6.656484 0.7320915,0.311556 1.4993185,0.446807 2.3267905,0.426024 -0.256589,-1.890721 -0.03961,-3.665722 0.587524,-5.407386 -0.370828,0.153401 -0.677251,0.279844 -1.002381,0.414442 -0.0137,0.200514 -0.02877,0.41348 -0.04484,0.643688 l -0.740635,0 c 0,-0.162713 0.02778,-0.303485 -0.0087,-0.41829 C 10.574749,15.901972 10.492544,15.729143 10.403328,15.7044 9.2736923,15.391266 8.8612139,14.497409 8.9997903,13.014451 l 1.6493537,0 c 0,0.430116 -0.02142,0.8244 0.01246,1.212754 0.01245,0.128461 0.163586,0.24038 0.251283,0.35993 0.105495,-0.105698 0.268933,-0.189072 0.306111,-0.320503 0.173152,-0.611043 -0.06103,-1.304815 -0.53084,-1.673581 C 10.343879,12.322669 9.9802128,12.079758 9.6580096,11.778103 9.0290475,11.188834 8.8534916,10.391064 8.9798993,9.4967775 9.0825301,8.7707338 9.486402,8.3293818 10.08161,8.1494541 10.42916,8.04455 10.743492,7.9693957 10.631283,7.4300049 l 0.709148,0 c 0.08046,0.5304799 0.08071,0.5304612 0.535287,0.7101927 0.78723,0.3111536 1.186842,1.1770632 0.971878,2.1309334 l -1.579965,0 c -0.02229,-0.283842 -0.01781,-0.5503102 -0.07336,-0.7983307 -0.02653,-0.1181678 -0.171795,-0.2858406 -0.254883,-0.2799 -0.09902,0.00747 -0.249739,0.1617509 -0.271997,0.2791247 -0.07261,0.3847947 -0.04422,0.756784 0.288612,1.003216 0.445858,0.330564 0.88727,0.668721 1.330912,1.003235 0.517986,0.390736 0.749378,0.965359 0.787765,1.657749 0.0137,0.236727 0.0012,0.475547 0.0012,0.713265 0.715451,-1.027501 1.48969,-1.912606 2.421151,-2.609544 0.941297,-0.704271 1.972612,-1.147155 3.089929,-1.3979498 C 18.538509,9.6777047 18.507993,9.5529051 18.465521,9.4337473 17.686686,7.2483025 16.359872,5.6796913 14.460269,4.8050015 13.846714,4.5225422 13.181246,4.3900367 12.539604,4.18913 Z m 6.112982,0.5369902 c -0.126595,0.8416335 -0.105122,0.8877106 0.514187,1.1976872 0.639611,0.3200645 0.991769,0.9215048 1.287593,1.6952509 l -0.99862,0 C 19.966234,8.582409 20.44054,9.479292 20.948251,10.439299 21.478556,9.4800859 21.969278,8.5918896 22.496879,7.6372258 22.340642,7.6275158 22.275738,7.6094838 22.215616,7.6221878 21.623983,7.7462958 21.311208,7.4873561 21.071757,6.8153477 20.639749,5.6027716 19.804716,4.8957733 18.654006,4.7269329 Z m 1.427152,6.2157675 c -0.400621,-0.0075 -0.806249,0.02326 -1.213396,0.0947 -3.253121,0.570467 -5.748281,3.631181 -6.072029,7.44864 -0.316175,3.727389 1.637857,7.281472 4.733059,8.557387 0.565602,0.232973 1.168035,0.347834 1.753491,0.517272 0.454415,0 0.909017,3.55e-4 1.363619,0 0.183464,-0.04708 0.366045,-0.103344 0.551216,-0.139959 4.547875,-0.89509 7.206809,-6.536177 5.386682,-11.430224 -1.13803,-3.060377 -3.698119,-4.995158 -6.502642,-5.048222 z m 0.119695,3.790213 c 0.290181,0.0028 0.582404,0.04446 0.870854,0.126425 0.250561,0.07108 0.353541,0.187129 0.337598,0.49988 -0.02479,0.492865 -0.0075,0.988897 -0.0075,1.550257 -1.219413,-0.631423 -2.260866,-0.45611 -3.168862,0.851675 l 3.14709,0 0,0.838541 -3.470987,0 c 0,0.410136 0,0.736795 0,1.102591 l 3.462592,0 0,0.845099 -3.09621,0 c 0.413662,1.170216 1.621068,1.533332 3.122615,0.944865 0,0.607073 0.01545,1.195371 -0.01544,1.779886 -0.005,0.09422 -0.207927,0.217001 -0.334858,0.253625 -1.744909,0.500777 -3.589186,-0.493192 -4.343012,-2.403108 -0.1874,-0.475445 -0.401194,-0.636533 -0.811418,-0.570617 -0.121562,0.0198 -0.247509,0.0037 -0.400135,0.0037 l 0,-0.845893 0.807644,0 0,-1.084022 -0.808479,0 0,-0.820748 c 0.348048,-0.03251 0.752817,0.05987 0.99517,-0.127975 0.248556,-0.19279 0.312438,-0.679425 0.501533,-1.00246 0.731929,-1.249294 1.953546,-1.955068 3.21101,-1.941506 z m -9.343658,7.08716 c -0.524999,0.949312 -1.0157205,1.837443 -1.5599001,2.8218 0.2697794,0 0.4551001,0.02083 0.6359743,-0.0037 0.3508248,-0.04829 0.5337418,0.101439 0.6663278,0.498311 0.262916,0.786804 0.661345,1.488618 1.321495,1.909047 0.337611,0.214965 0.714953,0.346471 1.074335,0.515703 0.07548,0 0.151567,3.65e-4 0.227469,0 -0.01544,-0.33273 -0.02939,-0.665423 -0.04384,-0.991232 -1.117841,-0.530676 -1.550173,-0.988589 -1.771128,-1.910196 l 0.953046,0 c -0.51902,-0.9798 -0.995717,-1.879971 -1.503777,-2.839183 z"
       id="path3-94"
       style="fill:#3c3c3c;fill-opacity:1" />
  </g>
</svg>
