<?xml version="1.0" encoding="UTF-8" standalone="no"?>
<!-- Created with Inkscape (http://www.inkscape.org/) -->

<svg
   xmlns:dc="http://purl.org/dc/elements/1.1/"
   xmlns:cc="http://creativecommons.org/ns#"
   xmlns:rdf="http://www.w3.org/1999/02/22-rdf-syntax-ns#"
   xmlns:svg="http://www.w3.org/2000/svg"
   xmlns="http://www.w3.org/2000/svg"
   xmlns:sodipodi="http://sodipodi.sourceforge.net/DTD/sodipodi-0.dtd"
   xmlns:inkscape="http://www.inkscape.org/namespaces/inkscape"
   width="1000"
   height="1000"
   viewBox="0 0 1000 1000"
   id="svg8324"
   version="1.1"
   inkscape:version="0.91 r13725"
   sodipodi:docname="natural_volcano.svg">
  <defs
     id="defs8326" />
  <sodipodi:namedview
     id="base"
     pagecolor="#ffffff"
     bordercolor="#666666"
     borderopacity="1.0"
     inkscape:pageopacity="0.0"
     inkscape:pageshadow="2"
     inkscape:zoom="0.5"
     inkscape:cx="80"
     inkscape:cy="520"
     inkscape:document-units="px"
     inkscape:current-layer="layer1"
     showgrid="false"
     units="px"
     inkscape:window-width="1920"
     inkscape:window-height="1018"
     inkscape:window-x="-8"
     inkscape:window-y="-8"
     inkscape:window-maximized="1" />
  <metadata
     id="metadata8329">
    <rdf:RDF>
      <cc:Work
         rdf:about="">
        <dc:format>image/svg+xml</dc:format>
        <dc:type
           rdf:resource="http://purl.org/dc/dcmitype/StillImage" />
        <dc:title></dc:title>
      </cc:Work>
    </rdf:RDF>
  </metadata>
  <g
     inkscape:label="Layer 1"
     inkscape:groupmode="layer"
     id="layer1"
     transform="translate(0,-52.362161)">
    <path
       style="fill:#6e3200;fill-opacity:1"
       d="m 665.73597,212.48947 c -78.85259,-0.40788 -74.23656,41.48969 -80.6731,56.93006 -15.69477,36.10322 0.26207,48.48558 -58.2772,29.02323 -24.31007,-8.07445 -54.61884,-5.00278 -70.39098,17.03717 -22.04026,30.80085 3.17785,66.42997 18.02281,94.10133 8.63454,16.09107 16.33233,32.73194 21.48017,50.29053 2.64635,9.03001 14.28361,45.83019 7.61938,53.29598 9.72592,-10.89383 18.83498,-24.36946 23.75103,-38.17939 10.91401,-30.65683 -15.406,-55.58554 -11.05015,-85.23635 4.61676,-31.399 30.19219,-28.08449 53.96151,-26.04722 l 0.57891,0 0,0.0315 c 28.45346,2.21177 58.89669,-11.6854 78.66726,-31.94879 12.93257,-13.25172 20.20609,-27.50736 38.17055,-34.7997 23.45038,-9.51252 49.90431,-6.85713 74.58136,-9.69648 65.11668,-7.49523 -10.75843,-72.94966 -92.62256,-74.75566 -1.29416,-0.0315 -2.5673,-0.042 -3.81899,-0.0526 z m -116.4271,290.924 c -17.81971,12.19839 -22.7551,25.70977 -52.00066,24.07722 -27.62279,-1.62204 -37.38834,-9.97716 -55.24663,-22.45519 -13.99505,19.2395 -28.37694,38.21828 -42.90306,57.06147 C 306.11,682.76796 207.63348,799.37282 103.0625,910.24116 l 800.90089,0 C 710.0237,706.09251 549.30887,503.41347 549.30887,503.41347 Z"
       id="path3-491"
       inkscape:connector-curvature="0" />
  </g>
</svg>
