<?xml version="1.0" encoding="UTF-8" standalone="no"?>
<!-- Created with Inkscape (http://www.inkscape.org/) -->

<svg
   xmlns:dc="http://purl.org/dc/elements/1.1/"
   xmlns:cc="http://creativecommons.org/ns#"
   xmlns:rdf="http://www.w3.org/1999/02/22-rdf-syntax-ns#"
   xmlns:svg="http://www.w3.org/2000/svg"
   xmlns="http://www.w3.org/2000/svg"
   xmlns:sodipodi="http://sodipodi.sourceforge.net/DTD/sodipodi-0.dtd"
   xmlns:inkscape="http://www.inkscape.org/namespaces/inkscape"
   width="1000"
   height="1000"
   id="svg9981"
   version="1.1"
   inkscape:version="0.91 r13725"
   viewBox="0 0 1000 1000"
   sodipodi:docname="natural_sink_hole.svg">
  <defs
     id="defs9983" />
  <sodipodi:namedview
     id="base"
     pagecolor="#ffffff"
     bordercolor="#666666"
     borderopacity="1.0"
     inkscape:pageopacity="0.0"
     inkscape:pageshadow="2"
     inkscape:zoom="0.5"
     inkscape:cx="9.7405635"
     inkscape:cy="336"
     inkscape:current-layer="layer1"
     showgrid="true"
     inkscape:grid-bbox="true"
     inkscape:document-units="px"
     inkscape:window-width="1920"
     inkscape:window-height="1018"
     inkscape:window-x="-8"
     inkscape:window-y="-8"
     inkscape:window-maximized="1" />
  <metadata
     id="metadata9986">
    <rdf:RDF>
      <cc:Work
         rdf:about="">
        <dc:format>image/svg+xml</dc:format>
        <dc:type
           rdf:resource="http://purl.org/dc/dcmitype/StillImage" />
        <dc:title></dc:title>
      </cc:Work>
    </rdf:RDF>
  </metadata>
  <g
     id="layer1"
     inkscape:label="Layer 1"
     inkscape:groupmode="layer"
     transform="translate(0,968)">
    <path
       inkscape:connector-curvature="0"
       style="color:#000000;font-style:normal;font-variant:normal;font-weight:normal;font-stretch:normal;font-size:medium;line-height:normal;font-family:Sans;-inkscape-font-specification:Sans;text-indent:0;text-align:start;text-decoration:none;text-decoration-line:none;letter-spacing:normal;word-spacing:normal;text-transform:none;direction:ltr;block-progression:tb;writing-mode:lr-tb;baseline-shift:baseline;text-anchor:start;display:inline;overflow:visible;visibility:visible;opacity:1;fill:#6e3200;fill-opacity:1;fill-rule:evenodd;stroke:none;stroke-width:0.05437371;stroke-linecap:butt;stroke-linejoin:round;stroke-miterlimit:4;stroke-dasharray:none;stroke-opacity:0.68181817;marker:none;enable-background:accumulate"
       d="m 568.84938,-764.50806 c -33.43312,-0.0675 -67.95945,2.33652 -103.11448,7.43295 -249.99019,36.23352 -437.285482,194.65283 -418.39462,353.88993 18.892321,159.23473 236.81533,258.99609 486.80403,222.76224 249.9897,-36.23352 437.358,-194.70652 418.46568,-353.94261 -13.57561,-114.45032 -129.99353,-198.14139 -287.22938,-222.71597 -30.76309,-4.80843 -63.09761,-7.35631 -96.53123,-7.42654 z m -20.11946,63.03218 c 28.24058,-0.20259 55.52721,1.79965 81.408,5.84466 23.59105,3.6871 46.00557,9.07019 66.92222,15.98249 l -89.12738,80.57358 c 15.68322,3.83263 30.22547,8.89327 43.2747,15.05397 l 87.24478,-78.97787 c 57.74388,27.78831 98.8175,69.23947 113.15038,119.82701 l -135.97397,16.66589 c 6.78001,12.36934 10.43565,25.69962 10.57932,39.71127 l 130.98012,-16.07129 c 19.04427,61.61338 -53.6227,137.29582 -105.3628,173.02624 L 661.76,-390.79322 c -11.31806,8.74741 -23.93827,16.89043 -37.7267,24.25551 l 90.42858,61.18964 c -52.68532,30.61068 -116.95311,53.24312 -187.57581,63.47854 -7.7856,1.12774 -15.52883,2.07315 -23.23164,2.86999 l 6.86231,-90.5696 c -3.31636,0.51322 -6.64466,1.02644 -10.0023,1.45526 -10.27303,1.31682 -20.38826,2.13392 -30.34477,2.61338 l -6.97969,89.23489 c -61.58069,1.86718 -118.98081,-6.86706 -167.70073,-24.1164 l 80.28166,-73.85982 c -15.55661,-3.98693 -29.93525,-9.20694 -42.81551,-15.5108 l -79.03209,71.5152 c -57.30321,-29.53326 -96.82583,-73.05825 -107.99439,-125.71691 l 124.36812,-13.06185 c -3.58894,-10.52275 -5.11314,-21.60228 -4.20738,-33.03837 0.19492,-2.52559 0.53568,-5.00054 0.9593,-7.49811 l -124.01262,13.30631 c 4.00773,-62.5642 46.79497,-123.23656 114.11506,-169.96041 l 87.50286,58.57355 c 12.6543,-7.97859 26.49387,-15.28964 41.34826,-21.72012 l -89.88849,-60.82059 c 50.61616,-27.5766 111.0077,-47.95457 176.94967,-57.51267 7.54459,-1.09397 15.04871,-2.01575 22.51145,-2.79571 l -5.46034,93.54157 c 13.68275,-1.61058 27.09478,-2.47157 40.16055,-2.60326 l 6.29745,-93.7033 c 4.07102,-0.13506 8.12598,-0.20258 12.16003,-0.23635 z"
       id="path3777-6" />
  </g>
</svg>
