<?xml version="1.0" encoding="UTF-8" standalone="no"?>
<!-- Created with Inkscape (http://www.inkscape.org/) -->

<svg
   xmlns:dc="http://purl.org/dc/elements/1.1/"
   xmlns:cc="http://creativecommons.org/ns#"
   xmlns:rdf="http://www.w3.org/1999/02/22-rdf-syntax-ns#"
   xmlns:svg="http://www.w3.org/2000/svg"
   xmlns="http://www.w3.org/2000/svg"
   xmlns:sodipodi="http://sodipodi.sourceforge.net/DTD/sodipodi-0.dtd"
   xmlns:inkscape="http://www.inkscape.org/namespaces/inkscape"
   width="1000"
   height="1000"
   id="svg8855"
   version="1.1"
   inkscape:version="0.91 r13725"
   viewBox="0 0 1000 1000"
   sodipodi:docname="natural_cave_entrance.svg">
  <defs
     id="defs8857" />
  <sodipodi:namedview
     id="base"
     pagecolor="#ffffff"
     bordercolor="#666666"
     borderopacity="1.0"
     inkscape:pageopacity="0.0"
     inkscape:pageshadow="2"
     inkscape:zoom="0.5"
     inkscape:cx="9.7405635"
     inkscape:cy="576"
     inkscape:current-layer="layer1"
     showgrid="true"
     inkscape:grid-bbox="true"
     inkscape:document-units="px"
     inkscape:window-width="1920"
     inkscape:window-height="1018"
     inkscape:window-x="-8"
     inkscape:window-y="-8"
     inkscape:window-maximized="1" />
  <metadata
     id="metadata8860">
    <rdf:RDF>
      <cc:Work
         rdf:about="">
        <dc:format>image/svg+xml</dc:format>
        <dc:type
           rdf:resource="http://purl.org/dc/dcmitype/StillImage" />
        <dc:title></dc:title>
      </cc:Work>
    </rdf:RDF>
  </metadata>
  <g
     id="layer1"
     inkscape:label="Layer 1"
     inkscape:groupmode="layer"
     transform="translate(0,968)">
    <path
       style="fill:#6e3200;fill-opacity:1"
       d="m 565.07325,-804.03715 c -56.74232,-0.53719 -125.87685,22.22647 -194.97413,67.81568 -83.08354,54.81942 -129.45519,119.41249 -219.52619,305.77898 -62.803334,129.95205 -117.732209,248.85166 -122.060913,264.22366 -4.328705,15.37136 9.130157,22.80856 29.905458,16.5266 20.776402,-6.28124 80.478025,-108.11109 132.672245,-226.28961 78.39136,-177.48666 114.43566,-227.63417 207.18143,-288.23348 188.70035,-123.29434 189.32184,-122.92937 392.47096,230.14097 47.4176,82.40957 102.20491,184.97601 121.74823,227.92727 49.5777,108.955587 73.5016,55.27195 26.53193,-59.53292 -33.33088,-81.46939 -149.07277,-295.10962 -261.23408,-482.19277 -22.22696,-37.07589 -62.64715,-55.69042 -112.71494,-56.16438 z m -106.8783,279.6001 c -52.12993,0 -217.05619,287.20378 -217.05619,377.9823 0,10.28602 116.38711,18.70119 258.6363,18.70119 142.25034,0 258.63743,-8.72797 258.63743,-19.39135 0,-10.66382 -30.38043,-84.27067 -67.51291,-163.57383 -62.92116,-134.37929 -149.30733,-213.71831 -232.70463,-213.71831 z"
       id="path2838"
       inkscape:connector-curvature="0" />
  </g>
</svg>
