<?xml version="1.0" encoding="UTF-8" standalone="no"?>
<!-- Created with Inkscape (http://www.inkscape.org/) -->

<svg
   xmlns:dc="http://purl.org/dc/elements/1.1/"
   xmlns:cc="http://creativecommons.org/ns#"
   xmlns:rdf="http://www.w3.org/1999/02/22-rdf-syntax-ns#"
   xmlns:svg="http://www.w3.org/2000/svg"
   xmlns="http://www.w3.org/2000/svg"
   version="1.1"
   width="1000"
   height="1000"
   viewBox="0 0 1000 1000"
   id="svg4799">
  <title
     id="title5366">public_emercency</title>
  <defs
     id="defs5498" />
  <metadata
     id="metadata5594">
    <rdf:RDF>
      <cc:Work
         rdf:about="">
        <dc:format>image/svg+xml</dc:format>
        <dc:type
           rdf:resource="http://purl.org/dc/dcmitype/StillImage" />
        <dc:title>public_emercency</dc:title>
      </cc:Work>
    </rdf:RDF>
  </metadata>
  <path
     d="m 391.16584,392.09503 0,432.58211 241.45314,0 0,-432.58211 -241.45314,0 z"
     id="rect8244"
     style="fill:#ffffff;fill-opacity:1" />
  <path
     d="m 628.87504,174.28125 c -46.5604,-0.22901 -104.4714,7.62979 -175.9375,28.71875 -267.7813,79.04351 -288.6781,210.2343 -278.9375,239.9375 l 176.125,-54.375 c -7.5988,-24.60169 17.6411,-37.75489 71.1562,-60.53125 35.4821,-14.93457 80.3408,-30.00871 126.7813,-39.15625 32.6402,-6.2649 65.2554,-10.00469 73.2187,15.78125 L 801.71874,248.75 c -8.8363,-20.49018 -53.8561,-73.88349 -172.8437,-74.46875 z m 182.5937,106.0625 -180.5,55.71875 15.2188,49.84375 0.2187,0.0937 c 3.5246,11.41085 15.3049,16.7263 25.75,13.5 l 0.031,0.125 c 0,0 141.1969,-43.73591 141.3438,-43.78125 10.8196,-3.34056 16.6929,-14.81723 13.375,-25.5625 l -15.4375,-49.9375 z m -419.4062,113.25 0,432.125 241.2187,0 0,-432.125 -241.2187,0 z m 124.4375,18.53125 c 15.0497,0 29.7056,3.04508 43.9375,9.125 l -10.2813,22.78125 c -6.2586,-2.48819 -12.1246,-4.50236 -17.5625,-6.09375 -5.4397,-1.58867 -10.9943,-2.40625 -16.6562,-2.40625 -10.0589,0 -15.0625,2.51902 -15.0625,7.5625 0,2.83458 1.6029,5.30211 4.8437,7.375 3.2408,2.07289 10.3283,5.14189 21.2813,9.21875 9.7605,3.66427 16.923,7.10391 21.4687,10.28125 4.5439,3.18006 7.9008,6.82207 10.0625,10.96875 2.1609,4.14668 3.25,9.1084 3.25,14.84375 0,11.8869 -4.4723,20.93487 -13.375,27.15625 -8.9036,6.21866 -22.2055,9.3125 -39.9375,9.3125 -9.0895,0 -16.8418,-0.54768 -23.25,-1.6875 -6.4073,-1.14072 -12.4124,-2.81781 -18,-5.03125 l 0,-26.125 c 6.332,2.76475 13.4711,5.07136 21.4063,6.9375 7.9342,1.86523 14.9341,2.8125 20.9687,2.8125 12.3675,0 18.5313,-3.33388 18.5313,-9.96875 0,-2.48728 -0.799,-4.50648 -2.4375,-6.0625 -1.6404,-1.55512 -4.4767,-3.31174 -8.5,-5.28125 -4.0234,-1.96951 -9.3891,-4.27842 -16.0938,-6.90625 -9.6118,-3.73138 -16.6808,-7.19585 -21.1875,-10.375 -4.5085,-3.17824 -7.7953,-6.82437 -9.8437,-10.9375 -2.0503,-4.11041 -3.0625,-9.14343 -3.0625,-15.15625 0,-10.29551 4.3009,-18.27246 12.9062,-23.90625 8.6053,-5.63197 20.7978,-8.4375 36.5938,-8.4375 z m -156.5,7.625 -176.5625,54.53125 c 0,0 15.2272,49.85603 15.375,49.8125 l 0.031,0.125 -0.062,0.0312 c 3.5237,11.41085 15.303,16.69415 25.75,13.46875 l 0.1875,0.0937 c 0,0 137.195,-42.51625 137.3437,-42.5625 10.8178,-3.34146 16.6626,-14.81632 13.3438,-25.5625 L 360.00034,419.75 z m 154.6875,123.9375 c 11.1397,0 20.9899,2.40692 29.5,7.25 8.5118,4.84489 15.0263,11.81088 19.5937,20.875 4.5674,9.06593 6.875,19.69702 6.875,31.875 0,18.89083 -5.0051,33.6579 -14.9687,44.3125 -9.9637,10.65732 -23.811,16 -41.5938,16 -11.1433,0 -20.9881,-2.4653 -29.5,-7.34375 -8.5101,-4.87845 -15.0585,-11.86516 -19.625,-21 -4.5665,-9.13394 -6.8437,-19.78805 -6.8437,-31.96875 0,-18.95974 4.9472,-33.69926 14.8437,-44.21875 9.8947,-10.51767 23.7955,-15.78125 41.7188,-15.78125 z m -0.4063,25.53125 c -8.4448,0 -14.5132,2.85345 -18.25,8.5625 -3.7368,5.70814 -5.625,14.35032 -5.625,25.90625 0,11.48792 1.8841,20.15082 5.6563,26.03125 3.7712,5.88224 9.9256,8.84375 18.4375,8.84375 8.4411,0 14.5173,-2.93256 18.2187,-8.78125 3.7015,-5.84597 5.5313,-14.53691 5.5313,-26.09375 0,-11.4852 -1.857,-20.09934 -5.5938,-25.84375 -3.7368,-5.7426 -9.8631,-8.625 -18.375,-8.625 z m 2.2188,111.09375 c 15.0497,0 29.7056,3.04417 43.9375,9.125 l -10.2813,22.78125 c -6.2586,-2.48728 -12.1246,-4.50236 -17.5625,-6.09375 -5.4397,-1.58867 -10.9943,-2.40625 -16.6562,-2.40625 -10.0589,0 -15.0625,2.51811 -15.0625,7.5625 0,2.83367 1.6029,5.30211 4.8437,7.375 3.2408,2.07289 10.3283,5.14189 21.2813,9.21875 9.7605,3.66427 16.923,7.10391 21.4687,10.28125 4.5439,3.18006 7.9008,6.82298 10.0625,10.96875 2.1609,4.14577 3.25,9.1084 3.25,14.84375 9e-4,11.88962 -4.4732,20.93487 -13.375,27.15625 -8.9036,6.21866 -22.2055,9.3125 -39.9375,9.3125 -9.0895,0 -16.8418,-0.54768 -23.25,-1.6875 -6.4073,-1.14072 -12.4115,-2.81781 -18,-5.03125 l 0,-26.125 c 6.332,2.76475 13.4711,5.07136 21.4063,6.9375 7.9342,1.86523 14.9341,2.8125 20.9687,2.8125 12.3675,0 18.5313,-3.33298 18.5313,-9.96875 0,-2.48728 -0.799,-4.50648 -2.4375,-6.0625 -1.6404,-1.55512 -4.4767,-3.31174 -8.5,-5.28125 -4.0234,-1.97042 -9.3891,-4.27842 -16.0938,-6.90625 -9.6118,-3.73138 -16.6808,-7.1646 -21.1875,-10.34375 -4.5085,-3.17824 -7.7953,-6.82437 -9.8437,-10.9375 -2.0503,-4.11041 -3.0625,-9.17468 -3.0625,-15.1875 0,-10.29642 4.3009,-18.27246 12.9062,-23.90625 8.6053,-5.63197 20.7978,-8.4375 36.5938,-8.4375 z"
     id="path7657"
     style="fill:#c84614;fill-opacity:1" />
</svg>
