<?xml version="1.0" encoding="UTF-8" standalone="no"?>
<!-- Created with Inkscape (http://www.inkscape.org/) -->

<svg
   xmlns:dc="http://purl.org/dc/elements/1.1/"
   xmlns:cc="http://creativecommons.org/ns#"
   xmlns:rdf="http://www.w3.org/1999/02/22-rdf-syntax-ns#"
   xmlns:svg="http://www.w3.org/2000/svg"
   xmlns="http://www.w3.org/2000/svg"
   xmlns:sodipodi="http://sodipodi.sourceforge.net/DTD/sodipodi-0.dtd"
   xmlns:inkscape="http://www.inkscape.org/namespaces/inkscape"
   width="1000"
   height="1000"
   id="svg12357"
   version="1.1"
   inkscape:version="0.91 r13725"
   viewBox="0 0 1000 1000"
   sodipodi:docname="public_town_hall.svg">
  <defs
     id="defs12359" />
  <sodipodi:namedview
     id="base"
     pagecolor="#ffffff"
     bordercolor="#666666"
     borderopacity="1.0"
     inkscape:pageopacity="0.0"
     inkscape:pageshadow="2"
     inkscape:zoom="0.5"
     inkscape:cx="9.7405635"
     inkscape:cy="336"
     inkscape:current-layer="layer1"
     showgrid="true"
     inkscape:grid-bbox="true"
     inkscape:document-units="px"
     inkscape:window-width="1920"
     inkscape:window-height="1018"
     inkscape:window-x="-8"
     inkscape:window-y="-8"
     inkscape:window-maximized="1" />
  <metadata
     id="metadata12362">
    <rdf:RDF>
      <cc:Work
         rdf:about="">
        <dc:format>image/svg+xml</dc:format>
        <dc:type
           rdf:resource="http://purl.org/dc/dcmitype/StillImage" />
        <dc:title></dc:title>
      </cc:Work>
    </rdf:RDF>
  </metadata>
  <g
     id="layer1"
     inkscape:label="Layer 1"
     inkscape:groupmode="layer"
     transform="translate(0,968)">
    <path
       d="m 568.07626,-845.88405 -0.0491,0.13333 0.0491,0 0,-0.13333 z m 0,0.13333 0,81.85824 0,81.91689 135.03978,0 135.0393,0 -66.71708,-39.57826 c -36.65642,-21.73649 -66.79388,-40.60994 -66.79388,-41.9939 0,-1.38618 26.97103,-18.32564 59.82735,-37.7349 32.85681,-19.37994 63.17988,-37.33503 67.16561,-39.80929 5.84837,-3.5943 -20.67509,-4.57041 -128.07372,-4.65882 l -135.48736,0 z m -70.62992,2.65241 c -8.71741,0 -17.62143,2.29697 -23.58108,6.55683 -9.08962,6.5093 -9.46186,11.24499 -9.46186,119.24837 l 0,112.52181 -180.15416,67.9915 c -99.09087,37.40478 -183.31909,69.42302 -187.193549,71.16064 -3.911882,1.73719 174.193529,3.07892 400.240949,2.99007 385.56293,0 406.53541,-0.44423 391.00113,-6.38491 -9.01478,-3.44767 -92.72109,-35.04383 -186.03794,-70.18096 l -169.61056,-63.90851 -2.23534,-113.78581 c -2.23537,-100.61085 -3.35304,-114.5158 -10.43137,-120.11163 -5.25208,-4.15412 -13.74547,-6.17963 -22.46239,-6.097 l -0.0491,0 z m -414.5822,436.65946 0,0.012 0,25.94432 0,25.88659 34.19704,1.0886 34.12369,1.0886 0,109.87341 0,109.87473 -34.12369,1.0886 -34.19704,1.0886 0,25.88569 0,25.942093 414.50735,0 414.50735,0 0,-26.114933 0,-26.05761 -35.27778,0 -35.38857,0 0,-111.71456 0,-111.71452 35.38857,0 35.27778,0 0,-26.05631 0,-26.11849 -414.50735,0 -414.50735,0 z m 423.43083,82.3887 c 24.06606,-0.13248 35.23439,1.68843 54.66608,7.24771 34.53284,10.22002 65.11736,32.84549 72.45613,53.78667 2.97884,8.18781 5.2531,41.29234 5.2531,73.57267 l 0,58.79071 -141.59618,0 -141.59615,0 1.48681,-68.51266 1.49203,-68.62551 14.26888,-16.05176 c 9.4988,-10.72071 23.50472,-19.9304 41.75834,-27.32339 23.65543,-9.45405 33.78889,-11.27431 72.82939,-12.48189 7.18709,-0.22268 13.42764,-0.35545 18.9816,-0.39998 z"
       id="path19820"
       inkscape:connector-curvature="0"
       style="fill:#c84614;fill-opacity:1" />
  </g>
</svg>
