<?xml version="1.0" encoding="UTF-8" standalone="no"?>
<!-- Created with Inkscape (http://www.inkscape.org/) -->

<svg
   xmlns:dc="http://purl.org/dc/elements/1.1/"
   xmlns:cc="http://creativecommons.org/ns#"
   xmlns:rdf="http://www.w3.org/1999/02/22-rdf-syntax-ns#"
   xmlns:svg="http://www.w3.org/2000/svg"
   xmlns="http://www.w3.org/2000/svg"
   xmlns:sodipodi="http://sodipodi.sourceforge.net/DTD/sodipodi-0.dtd"
   xmlns:inkscape="http://www.inkscape.org/namespaces/inkscape"
   width="1000"
   height="1000"
   id="svg12796"
   version="1.1"
   inkscape:version="0.91 r13725"
   viewBox="0 0 1000 1000"
   sodipodi:docname="public_prison.svg">
  <defs
     id="defs12798" />
  <sodipodi:namedview
     id="base"
     pagecolor="#ffffff"
     bordercolor="#666666"
     borderopacity="1.0"
     inkscape:pageopacity="0.0"
     inkscape:pageshadow="2"
     inkscape:zoom="0.5"
     inkscape:cx="9.7405635"
     inkscape:cy="576"
     inkscape:current-layer="layer1"
     showgrid="true"
     inkscape:grid-bbox="true"
     inkscape:document-units="px"
     inkscape:window-width="1920"
     inkscape:window-height="1018"
     inkscape:window-x="-8"
     inkscape:window-y="-8"
     inkscape:window-maximized="1" />
  <metadata
     id="metadata12801">
    <rdf:RDF>
      <cc:Work
         rdf:about="">
        <dc:format>image/svg+xml</dc:format>
        <dc:type
           rdf:resource="http://purl.org/dc/dcmitype/StillImage" />
        <dc:title></dc:title>
      </cc:Work>
    </rdf:RDF>
  </metadata>
  <g
     id="layer1"
     inkscape:label="Layer 1"
     inkscape:groupmode="layer"
     transform="translate(0,968)">
    <path
       d="m 55.64729,-888.2172 0,853.499221 115.96854,0 0,-853.499221 -115.96854,0 z m 517.30463,0.13711 c -0.34417,1.59386 -0.72491,2.68533 -0.73352,3.76315 -0.043,47.13747 -0.12907,94.27861 0.17209,141.41566 0,2.46598 3.06744,5.7963 5.73811,7.18604 11.34032,5.89543 23.51934,10.59753 34.56112,16.85329 32.60715,18.46727 57.66197,43.19029 76.4679,75.91368 l 0,-245.1309 -116.22528,0 z m 257.6874,0 0,853.546241 115.85637,0 0,-853.546241 -115.85637,0 z m -515.20871,0.0913 0,243.28997 c 1.18631,-1.10524 1.73448,-1.42494 2.00193,-1.88142 24.29294,-41.14481 61.17777,-70.34296 109.09879,-88.84721 5.38734,-2.07807 5.83907,-4.98616 5.82871,-9.21513 -0.0861,-40.60039 -0.043,-81.20306 0,-121.803 l 0,-21.54125 -116.91122,0 -0.019,0 z m 184.91737,197.82487 -0.0194,0.0192 c -2.24788,0 -4.50289,0.0469 -6.76837,0.18393 -69.17748,3.06893 -128.6023,54.38656 -134.29295,117.10548 -1.91984,21.17728 -0.96225,42.55868 -1.61367,63.83276 -0.0861,2.70377 -1.34621,7.32125 -3.07604,7.73683 -15.21979,3.6307 -17.20008,13.57244 -17.17939,25.17426 0.12906,72.70036 0.043,145.41031 0.0861,218.10613 0,16.83277 7.87975,23.73429 27.03685,23.76168 45.72717,0.0469 91.45516,0 137.18747,0 l 137.19828,0 c 20.32932,0 28.07059,-6.77364 28.08095,-24.57141 0,-43.44832 0.043,-86.90805 0.043,-130.3518 0,-30.11064 -0.0861,-60.20986 0,-90.31592 0.043,-8.91963 -2.48091,-17.27847 -12.60788,-20.05333 -7.7594,-2.12823 -7.6084,-5.81691 -7.8021,-11.17206 -0.88875,-24.93542 0.77654,-50.28959 -3.87862,-74.68927 -11.76138,-61.71145 -72.70963,-105.02322 -142.41263,-104.74465 z m 3.58953,54.5181 c 1.26843,0.0205 2.53684,0.0469 3.81391,0.13711 38.42897,1.99112 73.15319,30.25405 77.38859,65.20331 2.42463,19.9538 1.30714,40.24966 1.73879,60.38796 0.043,2.4981 -0.25813,5.00077 -0.38827,8.06199 l -166.83327,0 c 0,-16.53727 -0.17208,-32.38726 0.043,-48.24132 0.12907,-9.76453 -0.89735,-19.89532 1.6782,-29.20773 9.247,-33.40886 41.15307,-55.43237 78.77998,-56.31243 l 0,0 c 1.25552,-0.0302 2.51534,-0.0302 3.77938,-0.0119 z m 0.0861,174.37375 c 18.55092,0.36551 35.07283,10.65508 43.0091,26.26666 8.65981,17.06843 5.0806,37.75796 -9.66291,50.53207 -4.66985,4.05999 -6.03105,7.46371 -4.93691,13.2208 5.66477,29.64888 10.68496,59.39282 15.86823,89.11524 0.38828,2.2242 0.38828,4.49844 0.65572,7.75556 -31.41853,0 -61.89783,4.7e-4 -93.8712,0 2.56695,-14.99548 4.98222,-29.44613 7.51605,-43.87853 3.29187,-18.78056 6.92888,-37.53004 9.7246,-56.36633 0.4313,-2.79506 -2.32531,-6.58413 -4.76349,-8.98953 -14.93162,-14.76895 -19.00956,-31.54693 -10.80018,-49.76438 7.64895,-16.96657 22.52231,-26.76625 43.53245,-27.82806 1.25121,-0.0469 2.49383,-0.0903 3.73191,-0.0469 l 0,-0.0119 z m 185.31256,275.08488 0,0 c -19.24554,12.46088 -40.43558,12.3572 -61.69163,12.14481 -15.12574,-0.13711 -30.2653,0.32105 -45.36989,-0.2274 -8.0049,-0.27422 -10.36097,1.89982 -10.29841,9.0343 0.38827,40.57662 0.17209,81.155118 0.25813,121.731739 0,2.977647 0.30115,5.951614 0.47036,8.855255 l 116.64416,0 0,-151.561044 z m -373.7815,2.29243 0,151.261937 116.145,0 0,-139.223537 c -39.33455,-1.73997 -79.14022,4.33859 -116.145,-12.0384 z"
       id="path3-5"
       inkscape:connector-curvature="0"
       style="fill:#c84614;fill-opacity:1" />
  </g>
</svg>
