<?xml version="1.0" encoding="UTF-8" standalone="no"?>
<svg
   xmlns:dc="http://purl.org/dc/elements/1.1/"
   xmlns:cc="http://creativecommons.org/ns#"
   xmlns:rdf="http://www.w3.org/1999/02/22-rdf-syntax-ns#"
   xmlns:svg="http://www.w3.org/2000/svg"
   xmlns="http://www.w3.org/2000/svg"
   viewBox="0 0 1000 1000"
   version="1.1"
   id="svg4799"
   height="1000"
   width="1000">
  <title
     id="title5366">public_emercency</title>
  <defs
     id="defs5498" />
  <metadata
     id="metadata5594">
    <rdf:RDF>
      <cc:Work
         rdf:about="">
        <dc:format>image/svg+xml</dc:format>
        <dc:type
           rdf:resource="http://purl.org/dc/dcmitype/StillImage" />
        <dc:title>public_emercency</dc:title>
      </cc:Work>
    </rdf:RDF>
  </metadata>
  <g
     id="layer1">
    <path
       id="rect8244"
       d="m 391.16584,392.09503 0,432.58211 241.45314,0 0,-432.58211 -241.45314,0 z"
       style="opacity:1;fill:#ffffff;fill-opacity:1" />
    <g
       transform="translate(-948.28816,307.83686)"
       id="g4227">
      <g
         transform="matrix(0.90677424,0,0,0.90677424,875.90328,-171.15871)"
         id="g7655"
         style="fill:#c84614;fill-opacity:1">
        <path
           style="fill:#c84614;fill-opacity:1"
           d="m 544.416,211.021 c 39.13,-16.47 88.6,-33.09 139.815,-43.178 35.996,-6.909 71.958,-11.034 80.74,17.403 L 963.981,123.61 C 950.423,92.171 859.573,-9.561 579.347,73.131 284.035,160.301 260.963,305 271.705,337.757 l 194.24,-59.985 c -8.38,-27.131 19.454,-41.633 78.471,-66.751 z"
           id="path7657" />
        <path
           style="fill:#c84614;fill-opacity:1"
           d="m 476.838,312.18 -194.729,60.136 c 0,0 16.795,54.963 16.958,54.915 l 0.05,0.162 -0.081,0.023 c 3.886,12.584 16.876,18.42 28.397,14.863 l 0.213,0.111 c 0,0 151.288,-46.898 151.452,-46.949 11.93,-3.685 18.407,-16.335 14.747,-28.186 L 476.838,312.18 Z"
           id="path7659" />
        <path
           style="fill:#c84614;fill-opacity:1"
           d="m 991.741,213.496 -17.01,-55.076 -199.06,61.475 16.795,54.964 0.213,0.112 c 3.887,12.584 16.879,18.419 28.398,14.861 l 0.051,0.162 c 0,0 155.702,-48.262 155.864,-48.312 11.932,-3.684 18.408,-16.336 14.749,-28.186 z"
           id="path7661" />
        <path
           style="fill:#c84614;fill-opacity:1"
           d="m 512.204,759.898 266.01,0 0,-476.579 -266.01,0 0,476.579 z m 172.424,-38.173 c -9.819,6.858 -24.507,10.288 -44.062,10.288 -10.024,0 -18.569,-0.629 -25.636,-1.886 -7.066,-1.258 -13.68,-3.104 -19.843,-5.545 l 0,-28.809 c 6.983,3.049 14.852,5.602 23.603,7.66 8.75,2.057 16.453,3.086 23.108,3.086 13.639,0 20.459,-3.658 20.459,-10.976 0,-2.743 -0.904,-4.972 -2.711,-6.688 -1.809,-1.715 -4.93,-3.658 -9.367,-5.83 -4.437,-2.173 -10.353,-4.705 -17.747,-7.603 -10.6,-4.115 -18.385,-7.926 -23.355,-11.432 -4.972,-3.505 -8.587,-7.526 -10.846,-12.062 -2.261,-4.533 -3.39,-10.117 -3.39,-16.748 0,-11.355 4.745,-20.138 14.235,-26.351 9.49,-6.211 22.943,-9.317 40.363,-9.317 16.597,0 32.742,3.354 48.437,10.06 l -11.339,25.151 c -6.902,-2.743 -13.353,-4.99 -19.35,-6.745 -5.999,-1.752 -12.12,-2.629 -18.364,-2.629 -11.093,0 -16.639,2.783 -16.639,8.346 0,3.125 1.787,5.83 5.361,8.116 3.574,2.286 11.4,5.679 23.479,10.175 10.764,4.041 18.651,7.813 23.664,11.317 5.011,3.507 8.708,7.546 11.092,12.118 2.383,4.572 3.574,10.023 3.574,16.348 10e-4,13.112 -4.909,23.095 -14.726,29.956 z M 609.077,313.069 c 9.49,-6.211 22.943,-9.317 40.363,-9.317 16.597,0 32.742,3.355 48.437,10.06 l -11.339,25.151 c -6.902,-2.744 -13.353,-4.99 -19.35,-6.745 -5.999,-1.752 -12.12,-2.629 -18.364,-2.629 -11.093,0 -16.639,2.783 -16.639,8.345 0,3.126 1.787,5.831 5.361,8.117 3.574,2.286 11.4,5.678 23.479,10.174 10.764,4.041 18.651,7.814 23.664,11.318 5.011,3.507 8.708,7.545 11.092,12.118 2.383,4.573 3.574,10.023 3.574,16.348 0,13.109 -4.91,23.092 -14.728,29.953 -9.819,6.858 -24.507,10.288 -44.062,10.288 -10.024,0 -18.569,-0.629 -25.636,-1.886 -7.066,-1.258 -13.68,-3.104 -19.842,-5.545 l 0,-28.809 c 6.983,3.049 14.851,5.602 23.602,7.66 8.75,2.057 16.453,3.086 23.108,3.086 13.639,0 20.459,-3.658 20.459,-10.975 0,-2.743 -0.904,-4.972 -2.711,-6.688 -1.809,-1.715 -4.93,-3.658 -9.367,-5.83 -4.437,-2.172 -10.353,-4.705 -17.747,-7.603 -10.6,-4.115 -18.385,-7.926 -23.355,-11.432 -4.972,-3.505 -8.587,-7.526 -10.846,-12.062 -2.261,-4.533 -3.39,-10.117 -3.39,-16.748 0.002,-11.354 4.747,-20.136 14.237,-26.349 z m -7.65,153.182 c 10.912,-11.599 26.25,-17.398 46.016,-17.398 12.285,0 23.123,2.672 32.508,8.013 9.387,5.343 16.598,13.012 21.635,23.008 5.037,9.998 7.555,21.711 7.555,35.141 0,20.833 -5.494,37.127 -16.482,48.877 -10.988,11.753 -26.289,17.628 -45.9,17.628 -12.289,0 -23.123,-2.689 -32.51,-8.069 -9.385,-5.38 -16.598,-13.106 -21.634,-23.18 -5.036,-10.073 -7.555,-21.823 -7.555,-35.256 -0.002,-20.909 5.453,-37.163 16.367,-48.764 z"
           id="path7663" />
        <path
           style="fill:#c84614;fill-opacity:1"
           d="m 647.214,553.475 c 9.309,0 16.006,-3.223 20.088,-9.673 4.082,-6.447 6.125,-16.043 6.125,-28.788 0,-12.666 -2.061,-22.167 -6.182,-28.502 -4.121,-6.333 -10.873,-9.5 -20.26,-9.5 -9.313,0 -16.025,3.147 -20.146,9.443 -4.121,6.295 -6.182,15.815 -6.182,28.559 0,12.669 2.078,22.246 6.238,28.731 4.159,6.487 10.932,9.73 20.319,9.73 z"
           id="path7665" />
      </g>
    </g>
  </g>
</svg>
