<?xml version="1.0" encoding="UTF-8" standalone="no"?>
<!-- Created with Inkscape (http://www.inkscape.org/) -->

<svg
   xmlns:dc="http://purl.org/dc/elements/1.1/"
   xmlns:cc="http://creativecommons.org/ns#"
   xmlns:rdf="http://www.w3.org/1999/02/22-rdf-syntax-ns#"
   xmlns:svg="http://www.w3.org/2000/svg"
   xmlns="http://www.w3.org/2000/svg"
   xmlns:sodipodi="http://sodipodi.sourceforge.net/DTD/sodipodi-0.dtd"
   xmlns:inkscape="http://www.inkscape.org/namespaces/inkscape"
   width="1000"
   height="1000"
   id="svg16183"
   version="1.1"
   inkscape:version="0.91 r13725"
   viewBox="0 0 1000 1000"
   sodipodi:docname="public_post_office.svg">
  <defs
     id="defs16185" />
  <sodipodi:namedview
     id="base"
     pagecolor="#ffffff"
     bordercolor="#666666"
     borderopacity="1.0"
     inkscape:pageopacity="0.0"
     inkscape:pageshadow="2"
     inkscape:zoom="0.5"
     inkscape:cx="-202.36178"
     inkscape:cy="513"
     inkscape:current-layer="layer1"
     showgrid="true"
     inkscape:grid-bbox="true"
     inkscape:document-units="px"
     inkscape:window-width="1920"
     inkscape:window-height="1018"
     inkscape:window-x="-8"
     inkscape:window-y="-8"
     inkscape:window-maximized="1" />
  <metadata
     id="metadata16188">
    <rdf:RDF>
      <cc:Work
         rdf:about="">
        <dc:format>image/svg+xml</dc:format>
        <dc:type
           rdf:resource="http://purl.org/dc/dcmitype/StillImage" />
        <dc:title></dc:title>
      </cc:Work>
    </rdf:RDF>
  </metadata>
  <g
     id="layer1"
     inkscape:label="Layer 1"
     inkscape:groupmode="layer"
     transform="translate(0,968)">
    <path
       style="fill:#ffffff;fill-opacity:1;stroke:none;stroke-opacity:1"
       d="m 38.61899,-727.81355 0,528.8771 922.555,0 0,-528.8771 -922.555,0 z"
       id="rect5468"
       inkscape:connector-curvature="0" />
    <path
       d="m 27.93691,-757.72693 -1.25466,279.37881 c -0.40102,153.70957 0,281.53824 0.83646,284.10406 1.67287,3.73917 99.13305,4.49799 476.04402,3.66601 l 473.91167,-0.84205 0,-283.17325 0,-283.09944 -474.91541,0 -474.87243,0 z m 85.62235,35.80053 390.79808,0 390.8405,0 -121.30092,109.18779 c -124.10295,111.69898 -174.25471,153.44915 -211.43999,175.92121 -17.81834,10.74087 -25.51471,12.97344 -48.93949,13.88995 -24.38438,1.09889 -30.61752,-0.36739 -50.65245,-10.09585 -38.19014,-18.73256 -74.07723,-47.30055 -214.53596,-170.62018 L 113.55926,-721.9264 Z m -44.96471,12.95915 132.67754,116.20412 c 72.90566,63.93254 132.5945,117.07642 132.5945,118.13955 0,1.17367 -58.05664,50.97372 -128.99723,110.76395 -70.93948,59.79023 -130.62887,109.28305 -132.5945,109.83282 -2.09107,0.65999 -3.76395,-101.37914 -3.76395,-226.82503 l 0,-228.11541 z m 867.13485,7.08982 c 0.8363,0.65998 0.8363,103.32561 0,228.18498 l -0.8362,227.04123 -126.36305,-113.77355 c -69.43334,-62.53941 -126.15282,-115.43783 -126.15282,-117.56409 0,-4.1059 250.88367,-225.94168 253.18497,-223.88857 z m -286.68879,250.45124 63.82975,56.85021 c 35.05125,31.34318 91.68707,81.80386 125.73458,112.19348 l 61.98906,55.20446 -399.91699,0 -399.87569,0 14.84902,-12.59956 c 179.94363,-151.65646 248.1234,-208.49593 250.08904,-208.49593 1.25478,0 18.48807,10.68234 38.14775,23.69612 81.06263,54.07142 136.73541,52.82883 214.9536,-4.72525 l 30.19988,-22.12353 z"
       id="path5458"
       inkscape:connector-curvature="0"
       style="fill:#c84614;fill-opacity:1" />
  </g>
</svg>
