<?xml version="1.0" encoding="UTF-8" standalone="no"?>
<!-- Created with Inkscape (http://www.inkscape.org/) -->

<svg
   xmlns:dc="http://purl.org/dc/elements/1.1/"
   xmlns:cc="http://creativecommons.org/ns#"
   xmlns:rdf="http://www.w3.org/1999/02/22-rdf-syntax-ns#"
   xmlns:svg="http://www.w3.org/2000/svg"
   xmlns="http://www.w3.org/2000/svg"
   xmlns:sodipodi="http://sodipodi.sourceforge.net/DTD/sodipodi-0.dtd"
   xmlns:inkscape="http://www.inkscape.org/namespaces/inkscape"
   width="1000"
   height="1000"
   id="svg3352"
   version="1.1"
   inkscape:version="0.91 r13725"
   viewBox="0 0 1000 1000"
   sodipodi:docname="public_police.svg">
  <defs
     id="defs3354" />
  <sodipodi:namedview
     id="base"
     pagecolor="#ffffff"
     bordercolor="#666666"
     borderopacity="1.0"
     inkscape:pageopacity="0.0"
     inkscape:pageshadow="2"
     inkscape:zoom="0.5"
     inkscape:cx="9.2008305"
     inkscape:cy="416"
     inkscape:current-layer="layer1"
     showgrid="true"
     inkscape:grid-bbox="true"
     inkscape:document-units="px"
     inkscape:window-width="1920"
     inkscape:window-height="1018"
     inkscape:window-x="-8"
     inkscape:window-y="-8"
     inkscape:window-maximized="1" />
  <metadata
     id="metadata3357">
    <rdf:RDF>
      <cc:Work
         rdf:about="">
        <dc:format>image/svg+xml</dc:format>
        <dc:type
           rdf:resource="http://purl.org/dc/dcmitype/StillImage" />
        <dc:title></dc:title>
      </cc:Work>
    </rdf:RDF>
  </metadata>
  <g
     id="layer1"
     inkscape:label="Layer 1"
     inkscape:groupmode="layer"
     transform="translate(0,968)">
    <path
       id="path15877"
       style="fill:#c84614;fill-opacity:1;stroke:#c84614;stroke-width:35.59960556;stroke-miterlimit:10;stroke-opacity:1"
       d="m 300.49677,-812.35416 0,-30.09472 33.80773,-29.8932 33.80774,-29.8932 134.74041,0 134.74041,0 35.88298,32.14358 35.88299,32.14359 0,27.84434 0,27.81075 -204.43113,0 -204.43113,0 0,-30.06114 z m 147.68244,268.23268 c -57.12601,-12.32675 -113.49739,-48.83675 -138.47587,-89.64601 -10.14986,-16.55882 -13.84758,-29.08709 -15.50778,-52.06119 l -2.18845,-30.26266 205.67628,0 205.71401,0 -3.05628,27.91151 c -6.0371,54.98334 -41.24091,98.41244 -101.49866,125.58502 -51.80582,23.27639 -100.66856,29.32221 -150.66325,18.47333 z m -289.74283,355.09089 c 0,-113.82927 1.35835,-143.78964 7.39544,-164.51335 10.22533,-35.30085 26.60095,-64.4887 48.52315,-86.58952 31.73249,-32.14358 32.60032,-32.17717 234.843,-30.86724 l 176.88688,1.17557 -183.3013,208.88292 -183.33902,208.882927 -50.48521,0.974048 -50.48521,1.175575 -0.0377,-139.12093 0,0 z M 387.6196,-73.95857 c 115.87449,-133.81405 348.34038,-396.33679 352.07583,-397.44519 16.8284,-5.20612 54.48478,19.07791 69.2002,44.67186 22.7523,39.66727 24.56343,55.38639 26.75188,220.43715 l 1.99978,156.049212 -235.37123,0 -235.29578,0 20.63932,-23.713032 z"
       inkscape:connector-curvature="0" />
  </g>
</svg>
