<?xml version="1.0" encoding="UTF-8" standalone="no"?>
<!-- Created with Inkscape (http://www.inkscape.org/) -->

<svg
   xmlns:dc="http://purl.org/dc/elements/1.1/"
   xmlns:cc="http://creativecommons.org/ns#"
   xmlns:rdf="http://www.w3.org/1999/02/22-rdf-syntax-ns#"
   xmlns:svg="http://www.w3.org/2000/svg"
   xmlns="http://www.w3.org/2000/svg"
   xmlns:sodipodi="http://sodipodi.sourceforge.net/DTD/sodipodi-0.dtd"
   xmlns:inkscape="http://www.inkscape.org/namespaces/inkscape"
   width="32"
   height="32"
   id="svg3349"
   version="1.1"
   inkscape:version="0.91 r13725"
   viewBox="0 0 32 32"
   sodipodi:docname="government_.svg">
  <defs
     id="defs3351" />
  <sodipodi:namedview
     id="base"
     pagecolor="#ffffff"
     bordercolor="#666666"
     borderopacity="1.0"
     inkscape:pageopacity="0.0"
     inkscape:pageshadow="2"
     inkscape:zoom="20"
     inkscape:cx="11.331756"
     inkscape:cy="16"
     inkscape:current-layer="layer1"
     showgrid="true"
     inkscape:grid-bbox="true"
     inkscape:document-units="px"
     inkscape:window-width="1920"
     inkscape:window-height="1018"
     inkscape:window-x="-8"
     inkscape:window-y="-8"
     inkscape:window-maximized="1" />
  <metadata
     id="metadata3354">
    <rdf:RDF>
      <cc:Work
         rdf:about="">
        <dc:format>image/svg+xml</dc:format>
        <dc:type
           rdf:resource="http://purl.org/dc/dcmitype/StillImage" />
        <dc:title />
      </cc:Work>
    </rdf:RDF>
  </metadata>
  <g
     id="layer1"
     inkscape:label="Layer 1"
     inkscape:groupmode="layer">
    <path
       id="path4161"
       style="fill:#c84614;fill-opacity:1;stroke:none"
       d="m 8.302,15.38 c 0,-0.398 0.247,-0.782 0.596,-0.927 0.128,-0.053 0.195,-0.152 0.297,-0.436 0.55,-1.54 1.822,-2.917 3.442,-3.727 0.796,-0.398 2.211,-0.777 2.9,-0.777 0.483,0 0.443,0.257 0.443,-2.863 l 0,-2.791 0.328,0 0.327,0 0,0.238 c 0,0.131 0.01,0.238 0.021,0.238 0.013,0 0.149,-0.057 0.307,-0.125 0.352,-0.156 1.078,-0.212 1.52,-0.118 0.349,0.074 0.845,0.306 1.039,0.485 0.508,0.465 1.769,0.506 2.246,0.073 0.103,-0.093 0.104,-0.046 0.09,1.16 L 21.842,7.067 21.477,7.166 C 20.946,7.31 19.996,7.264 19.551,7.072 19.367,6.994 19.143,6.873 19.045,6.802 18.563,6.455 17.645,6.36 17.107,6.601 16.608,6.828 16.629,6.752 16.629,8.204 l 0,1.292 0.474,0.04 c 1.948,0.163 4.026,1.297 5.187,2.831 0.332,0.441 0.769,1.25 0.914,1.709 0.073,0.231 0.138,0.315 0.239,0.342 0.188,0.046 0.487,0.306 0.595,0.504 0.077,0.152 0.112,0.346 0.103,0.558 -0.006,0.099 -0.426,0.104 -7.922,0.104 l -7.917,0 0,-0.204 0,0 z m -4.663,6.988 0,-5.771 12.363,0 12.359,0 0,5.771 0,5.773 -3.98,0 -3.982,0 0,-1.134 0.069,-3.81 -4.466,0 -4.467,0 -0.07,3.81 0,1.134 -3.914,0 -3.912,0 0,-5.773 z" />
  </g>
</svg>
