<?xml version="1.0" encoding="UTF-8" standalone="no"?>
<!-- Created with Inkscape (http://www.inkscape.org/) -->

<svg
   xmlns:dc="http://purl.org/dc/elements/1.1/"
   xmlns:cc="http://creativecommons.org/ns#"
   xmlns:rdf="http://www.w3.org/1999/02/22-rdf-syntax-ns#"
   xmlns:svg="http://www.w3.org/2000/svg"
   xmlns="http://www.w3.org/2000/svg"
   xmlns:sodipodi="http://sodipodi.sourceforge.net/DTD/sodipodi-0.dtd"
   xmlns:inkscape="http://www.inkscape.org/namespaces/inkscape"
   width="1000"
   height="1000"
   id="svg15620"
   version="1.1"
   inkscape:version="0.91 r13725"
   viewBox="0 0 1000 1000"
   sodipodi:docname="public_post_office.svg">
  <defs
     id="defs15622" />
  <sodipodi:namedview
     id="base"
     pagecolor="#ffffff"
     bordercolor="#666666"
     borderopacity="1.0"
     inkscape:pageopacity="0.0"
     inkscape:pageshadow="2"
     inkscape:zoom="0.5"
     inkscape:cx="304.74056"
     inkscape:cy="496"
     inkscape:current-layer="layer1"
     showgrid="true"
     inkscape:grid-bbox="true"
     inkscape:document-units="px"
     inkscape:window-width="1280"
     inkscape:window-height="1002"
     inkscape:window-x="1912"
     inkscape:window-y="-8"
     inkscape:window-maximized="1" />
  <metadata
     id="metadata15625">
    <rdf:RDF>
      <cc:Work
         rdf:about="">
        <dc:format>image/svg+xml</dc:format>
        <dc:type
           rdf:resource="http://purl.org/dc/dcmitype/StillImage" />
        <dc:title></dc:title>
      </cc:Work>
    </rdf:RDF>
  </metadata>
  <g
     id="layer1"
     inkscape:label="Layer 1"
     inkscape:groupmode="layer"
     transform="translate(0,968)">
    <path
       d="m 25.083464,-752.12693 -1.254663,279.37881 c -0.401018,153.70957 0,281.53824 0.836455,284.10406 1.672871,3.73917 99.133054,4.49799 476.044024,3.66601 l 473.91169,-0.84205 0,-283.17325 0,-283.09944 -474.91543,0 -474.872425,0 z m 85.622346,35.80053 390.79808,0 390.8405,0 -121.30092,109.18779 c -124.10295,111.69898 -174.25471,153.44915 -211.43999,175.92121 -17.81834,10.74087 -25.51471,12.97344 -48.93949,13.88995 -24.38438,1.09889 -30.61752,-0.36739 -50.65245,-10.09585 -38.19014,-18.73256 -74.07723,-47.30055 -214.53596,-170.62018 L 110.70581,-716.3264 Z m -44.964709,12.95915 132.677539,116.20412 c 72.90566,63.93254 132.5945,117.07642 132.5945,118.13955 0,1.17367 -58.05664,50.97372 -128.99723,110.76395 -70.93948,59.79023 -130.628871,109.28305 -132.594496,109.83282 -2.091079,0.65999 -3.763951,-101.37914 -3.763951,-226.82503 l 0,-228.11541 z m 867.134889,7.08982 c 0.83626,0.65998 0.83626,103.32561 0,228.18498 l -0.83627,227.04123 -126.36302,-113.77355 c -69.43334,-62.53941 -126.15282,-115.43783 -126.15282,-117.56409 0,-4.1059 250.88364,-225.94168 253.18501,-223.88857 z m -286.68883,250.45124 63.82975,56.85021 c 35.05125,31.34318 91.68707,81.80386 125.73458,112.19348 l 61.98905,55.20446 -399.91698,0 -399.875695,0 14.849025,-12.59956 c 179.94363,-151.65646 248.1234,-208.49593 250.08904,-208.49593 1.25478,0 18.48807,10.68234 38.14775,23.69612 81.06263,54.07142 136.73541,52.82883 214.9536,-4.72525 l 30.19988,-22.12353 z"
       id="path5458"
       inkscape:connector-curvature="0"
       style="fill:#c84614;fill-opacity:1" />
  </g>
</svg>
