<?xml version="1.0" encoding="UTF-8" standalone="no"?>
<!-- Created with Inkscape (http://www.inkscape.org/) -->

<svg
   xmlns:dc="http://purl.org/dc/elements/1.1/"
   xmlns:cc="http://creativecommons.org/ns#"
   xmlns:rdf="http://www.w3.org/1999/02/22-rdf-syntax-ns#"
   xmlns:svg="http://www.w3.org/2000/svg"
   xmlns="http://www.w3.org/2000/svg"
   xmlns:sodipodi="http://sodipodi.sourceforge.net/DTD/sodipodi-0.dtd"
   xmlns:inkscape="http://www.inkscape.org/namespaces/inkscape"
   width="1000"
   height="1000"
   id="svg3354"
   version="1.1"
   inkscape:version="0.91 r13725"
   viewBox="0 0 1000 1000"
   sodipodi:docname="public_toilet.svg">
  <defs
     id="defs3356" />
  <sodipodi:namedview
     id="base"
     pagecolor="#ffffff"
     bordercolor="#666666"
     borderopacity="1.0"
     inkscape:pageopacity="0.0"
     inkscape:pageshadow="2"
     inkscape:zoom="0.5"
     inkscape:cx="9.2008305"
     inkscape:cy="496"
     inkscape:current-layer="layer1"
     showgrid="true"
     inkscape:grid-bbox="true"
     inkscape:document-units="px"
     inkscape:window-width="1920"
     inkscape:window-height="1018"
     inkscape:window-x="-8"
     inkscape:window-y="-8"
     inkscape:window-maximized="1" />
  <metadata
     id="metadata3359">
    <rdf:RDF>
      <cc:Work
         rdf:about="">
        <dc:format>image/svg+xml</dc:format>
        <dc:type
           rdf:resource="http://purl.org/dc/dcmitype/StillImage" />
        <dc:title></dc:title>
      </cc:Work>
    </rdf:RDF>
  </metadata>
  <g
     id="layer1"
     inkscape:label="Layer 1"
     inkscape:groupmode="layer"
     transform="translate(0,968)">
    <path
       id="path19262"
       style="opacity:0.97000002;fill:#c84614;fill-opacity:1"
       d="m 737.1374,-655.73952 c -28.54805,-14.85452 -43.23194,-38.45319 -45.19217,-72.76256 -1.92459,-33.39633 6.9499,-54.67728 30.90033,-74.13213 37.99278,-30.83279 84.93133,-28.23412 120.42928,6.74248 36.35332,35.74917 37.17306,86.24751 2.10279,124.31441 -24.66323,26.68897 -73.59765,33.85286 -108.24023,15.8378 z m 0.32076,532.76102 c 0,-111.39134 -1.81766,-119.25756 -53.74589,-239.11211 -58.48607,-134.39301 -64.7588,-161.04687 -45.37037,-189.17564 19.06768,-27.60201 26.73039,-29.04181 147.23095,-27.67225 100.43497,1.15887 107.66999,1.75586 118.61163,9.76255 42.59041,31.35954 39.66788,52.4649 -28.97574,211.36962 -51.14413,118.13382 -49.46903,110.4783 -49.46903,226.50509 l 0,98.819421 -44.08731,0 -44.19424,0 0,-90.496681 z m -281.8808,-336.52685 0,-427.05865 44.19424,0 44.19423,0 0,427.05865 0,427.058648 -44.19423,0 -44.19424,0 0,-427.058648 z m -277.71086,335.82451 0,-91.23414 -54.74383,0 c -63.012418,0 -60.30374,2.31773 -48.221606,-43.68563 8.696284,-33.15051 28.405486,-61.3144 66.968516,-95.69401 17.64206,-15.69733 33.0744,-32.65887 34.32182,-37.43479 3.13636,-12.15051 -7.27067,-30.4465 -39.45405,-69.46156 -15.0403,-18.22576 -30.04495,-39.47158 -33.35952,-47.26757 -5.524277,-13.06355 -5.239153,-15.6271 3.70661,-33.18563 17.39257,-34.09867 22.52481,-35.85453 108.7392,-37.36456 85.60851,-1.47492 97.655,1.4398 115.83167,27.74248 16.14515,23.38797 13.93544,40.77092 -8.83885,69.60203 -10.47831,13.30937 -26.58782,33.67727 -35.71179,45.30102 -9.15961,11.55351 -17.8559,27.04014 -19.31716,34.30937 -2.53048,12.43144 -0.49897,15.34616 35.14154,48.3562 41.20043,38.38295 60.05426,67.35453 68.0021,104.78933 7.73399,36.48663 11.33368,34.02844 -50.03928,34.02844 l -54.67254,0 0,91.33949 0,91.30437 -44.19424,0 -44.15859,0 0,-91.44484 z m 6.27273,-528.89814 c -66.46955,-33.92309 -70.60385,-121.50506 -7.44887,-158.06192 42.30529,-24.4766 97.15604,-10.81606 121.60543,30.34114 27.58575,46.38965 11.36932,101.90973 -36.78101,126.14051 -19.74484,9.93813 -59.37709,10.74582 -77.37555,1.58027 z"
       inkscape:connector-curvature="0" />
  </g>
</svg>
