<?xml version="1.0" encoding="UTF-8" standalone="no"?>
<!-- Created with Inkscape (http://www.inkscape.org/) -->

<svg
   xmlns:dc="http://purl.org/dc/elements/1.1/"
   xmlns:cc="http://creativecommons.org/ns#"
   xmlns:rdf="http://www.w3.org/1999/02/22-rdf-syntax-ns#"
   xmlns:svg="http://www.w3.org/2000/svg"
   xmlns="http://www.w3.org/2000/svg"
   xmlns:sodipodi="http://sodipodi.sourceforge.net/DTD/sodipodi-0.dtd"
   xmlns:inkscape="http://www.inkscape.org/namespaces/inkscape"
   width="32"
   height="32"
   id="svg6603"
   version="1.1"
   inkscape:version="0.91 r13725"
   viewBox="0 0 32 32"
   sodipodi:docname="public_market_stand.svg">
  <defs
     id="defs6605" />
  <sodipodi:namedview
     id="base"
     pagecolor="#ffffff"
     bordercolor="#666666"
     borderopacity="1.0"
     inkscape:pageopacity="0.0"
     inkscape:pageshadow="2"
     inkscape:zoom="21.066667"
     inkscape:cx="15.159672"
     inkscape:cy="16"
     inkscape:current-layer="layer1"
     showgrid="true"
     inkscape:grid-bbox="true"
     inkscape:document-units="px"
     inkscape:window-width="1920"
     inkscape:window-height="1018"
     inkscape:window-x="-8"
     inkscape:window-y="-8"
     inkscape:window-maximized="1" />
  <metadata
     id="metadata6608">
    <rdf:RDF>
      <cc:Work
         rdf:about="">
        <dc:format>image/svg+xml</dc:format>
        <dc:type
           rdf:resource="http://purl.org/dc/dcmitype/StillImage" />
        <dc:title></dc:title>
      </cc:Work>
    </rdf:RDF>
  </metadata>
  <g
     id="layer1"
     inkscape:label="Layer 1"
     inkscape:groupmode="layer">
    <path
       d="m 15.83767,4.8535 -3.47e-4,3.023e-4 3.47e-4,0 0,-3.023e-4 z m 0,3.023e-4 L 15.82612,5.035949 15.81457,5.2201791 9.944007,8.189679 C 6.715149,9.822867 4.011063,11.184353 3.937368,11.21255 l -0.133766,0.0502 0,0.657523 0,0.659379 2.33665,0 2.336617,0 0,-0.266792 c 0,-0.261783 0,-0.268529 0.103912,-0.268529 0.101273,0 0.102262,0.0086 0.102262,0.268529 l 0,0.266792 3.576039,0 3.575908,0 0,3.363749 0,3.363685 0.247854,0 0.247839,0 0,-3.363685 0,-3.363749 3.74182,0 3.73791,0 0,-0.249563 c 0,-0.242394 0.0099,-0.249649 0.105892,-0.249649 0.101273,0 0.105891,0.0086 0.105891,0.249649 l 0,0.249563 2.272736,0 2.27262,0 0,-0.655817 0,-0.654176 -6.004494,-2.983328 C 19.259523,6.6460576 16.507011,5.2729459 16.444598,5.2359077 16.349428,5.179557 16.330625,5.1426375 16.330625,5.0104292 l 0,-0.1566377 -0.245826,0 -0.245694,0 z m -3.889689,8.8824067 c -0.28142,0 -0.388234,0.01673 -0.539731,0.08107 -0.30598,0.130438 -0.517218,0.312498 -0.665631,0.569855 -0.116612,0.205356 -0.13492,0.273366 -0.133931,0.506055 0,0.213291 0.02144,0.309562 0.107871,0.47 0.178052,0.3314 0.526174,0.581503 0.93148,0.669613 0.583325,0.126055 1.261474,-0.168016 1.551075,-0.673057 0.129973,-0.227389 0.129973,-0.694193 0,-0.934796 -0.125849,-0.236209 -0.395343,-0.473227 -0.667576,-0.588703 -0.199561,-0.08463 -0.285775,-0.09985 -0.585651,-0.09985 l 0.0016,-3.02e-4 z m -1.337264,2.616596 c -0.203651,0 -0.70063,0.255564 -0.999452,0.51468 -0.667263,0.576451 -0.920874,1.334638 -1.159311,3.446463 l -0.02771,0.244391 0.541744,0 0.543657,0 0,-0.151445 c 0,-0.22387 0.114633,-1.055562 0.209853,-1.523564 0.125849,-0.618746 0.392589,-1.239738 0.573726,-1.335804 0.02969,-0.01587 0.04206,0.261124 0.04206,0.86927 l 0,0.891788 0.1879,0 0.185837,0 0,-1.476994 0,-1.478785 -0.0983,0 z m 0.345829,0 0,0.623193 0,0.623172 0.991435,0 0.991419,0 0,-0.623172 0,-0.623193 -0.991419,0 -0.991435,0 z m 2.328667,0 c -0.04503,0 -0.05625,0.265118 -0.05625,1.478785 l 0,1.476994 0.185838,0 0.187833,0 0,-0.874494 c 0,-0.566746 0.01319,-0.867985 0.03991,-0.852116 0.115623,0.05991 0.33077,1.079753 0.331809,1.57511 l 0,0.1515 0.537687,0 0.53772,0 -0.02359,-0.241045 c -0.05624,-0.525293 -0.1496,-1.141502 -0.20591,-1.353012 -0.11561,-0.427488 -0.464243,-0.898869 -0.82551,-1.112138 -0.177046,-0.104929 -0.587762,-0.249584 -0.709537,-0.249584 z m -1.716065,3.212336 c -0.661622,0.0011 -1.136318,0.0065 -1.264229,0.01565 l -0.463744,0.02375 0,0.583597 0,0.583532 -2.482556,0 -2.480625,0 0,2.563332 0,2.561475 7.671522,0 13.972892,0 -0.05938,-2.768084 0,-2.307195 -7.081303,-0.06002 -0.835518,-0.0086 -0.01155,-0.578426 -0.01155,-0.578372 -0.691657,0 c -0.379658,0 -2.124736,-0.0086 -3.875801,-0.01857 l 6.93e-4,-0.0054 c -0.875499,-0.0054 -1.724015,-0.0086 -2.38562,-0.0065 z"
       id="path8207"
       inkscape:connector-curvature="0"
       style="fill:#c84614;fill-opacity:1" />
  </g>
</svg>
