<?xml version="1.0" encoding="UTF-8" standalone="no"?>
<!-- Created with Inkscape (http://www.inkscape.org/) -->

<svg
   xmlns:dc="http://purl.org/dc/elements/1.1/"
   xmlns:cc="http://creativecommons.org/ns#"
   xmlns:rdf="http://www.w3.org/1999/02/22-rdf-syntax-ns#"
   xmlns:svg="http://www.w3.org/2000/svg"
   xmlns="http://www.w3.org/2000/svg"
   xmlns:sodipodi="http://sodipodi.sourceforge.net/DTD/sodipodi-0.dtd"
   xmlns:inkscape="http://www.inkscape.org/namespaces/inkscape"
   width="32"
   height="32"
   id="svg3351"
   version="1.1"
   inkscape:version="0.91 r13725"
   viewBox="0 0 32 32"
   sodipodi:docname="public_building_.svg">
  <defs
     id="defs3353" />
  <sodipodi:namedview
     id="base"
     pagecolor="#ffffff"
     bordercolor="#666666"
     borderopacity="1.0"
     inkscape:pageopacity="0.0"
     inkscape:pageshadow="2"
     inkscape:zoom="20"
     inkscape:cx="13.643268"
     inkscape:cy="16"
     inkscape:current-layer="layer1"
     showgrid="true"
     inkscape:grid-bbox="true"
     inkscape:document-units="px"
     inkscape:window-width="1920"
     inkscape:window-height="1018"
     inkscape:window-x="-8"
     inkscape:window-y="-8"
     inkscape:window-maximized="1" />
  <metadata
     id="metadata3356">
    <rdf:RDF>
      <cc:Work
         rdf:about="">
        <dc:format>image/svg+xml</dc:format>
        <dc:type
           rdf:resource="http://purl.org/dc/dcmitype/StillImage" />
        <dc:title />
      </cc:Work>
    </rdf:RDF>
  </metadata>
  <g
     id="layer1"
     inkscape:label="Layer 1"
     inkscape:groupmode="layer">
    <g
       transform="translate(-0.152,-0.567)"
       id="g7"
       style="fill:#c84614;fill-opacity:1">
      <path
         style="fill:#c84614;fill-opacity:1"
         inkscape:connector-curvature="0"
         d="m 21.447,11.73 0,-3.468 -10.513,0 0,3.468 -6.188,-0.125 -0.079,13.267 6.75,-0.048 0.005,-2.448 10.042,0 -0.006,2.496 6.179,-0.063 0,-13.079 -6.19,0 z m -10.714,5.915 -3.22,0 0,-3.071 3.22,0 0,3.071 z m 4.629,0 -3.22,0 0,-3.071 3.22,0 0,3.071 z m 4.829,0 -3.221,0 0,-3.072 3.221,0 0,3.072 z m 4.73,0 -3.221,0 0,-3.072 3.221,0 0,3.072 z"
         id="path9" />
    </g>
  </g>
</svg>
