<?xml version="1.0" encoding="UTF-8" standalone="no"?>
<!-- Created with Inkscape (http://www.inkscape.org/) -->

<svg
   xmlns:dc="http://purl.org/dc/elements/1.1/"
   xmlns:cc="http://creativecommons.org/ns#"
   xmlns:rdf="http://www.w3.org/1999/02/22-rdf-syntax-ns#"
   xmlns:svg="http://www.w3.org/2000/svg"
   xmlns="http://www.w3.org/2000/svg"
   xmlns:sodipodi="http://sodipodi.sourceforge.net/DTD/sodipodi-0.dtd"
   xmlns:inkscape="http://www.inkscape.org/namespaces/inkscape"
   width="32"
   height="32"
   id="svg3347"
   version="1.1"
   inkscape:version="0.91 r13725"
   viewBox="0 0 32 32"
   sodipodi:docname="courthouse_.svg">
  <defs
     id="defs3349" />
  <sodipodi:namedview
     id="base"
     pagecolor="#ffffff"
     bordercolor="#666666"
     borderopacity="1.0"
     inkscape:pageopacity="0.0"
     inkscape:pageshadow="2"
     inkscape:zoom="20"
     inkscape:cx="13.643268"
     inkscape:cy="16"
     inkscape:current-layer="layer1"
     showgrid="true"
     inkscape:grid-bbox="true"
     inkscape:document-units="px"
     inkscape:window-width="1920"
     inkscape:window-height="1018"
     inkscape:window-x="-8"
     inkscape:window-y="-8"
     inkscape:window-maximized="1" />
  <metadata
     id="metadata3352">
    <rdf:RDF>
      <cc:Work
         rdf:about="">
        <dc:format>image/svg+xml</dc:format>
        <dc:type
           rdf:resource="http://purl.org/dc/dcmitype/StillImage" />
        <dc:title />
      </cc:Work>
    </rdf:RDF>
  </metadata>
  <g
     id="layer1"
     inkscape:label="Layer 1"
     inkscape:groupmode="layer">
    <path
       style="opacity:0.97000002;fill:#c84614;fill-opacity:1"
       id="path9714"
       inkscape:connector-curvature="0"
       enable-background="new    "
       d="m 6.1236292,27.781277 0.853,-0.859 3.6339998,-0.033 3.634,-0.031 0,-9.043 0,-9.0429999 -2.983,-0.033 c -1.6409998,-0.018 -2.9839998,-0.001 -2.9839998,0.037 0,0.038 0.914,2.0989999 2.0299998,4.5789999 1.117,2.48 2.03,4.571 2.03,4.646 0,0.481 -0.434,1.451 -0.876,1.953 -1.054,1.197 -2.9829998,1.701 -4.9309998,1.289 -1.652,-0.351 -2.898,-1.508 -3.12,-2.896 -0.067,-0.424 0.134,-0.935 1.931,-4.901 1.98,-4.3709999 2.007,-4.4419999 2.071,-5.4609999 l 0.065,-1.033 3.3829998,-0.903 c 1.861,-0.497 3.39,-0.904 3.398,-0.905 0.008,-0.001 0.049,-0.215 0.091,-0.474 0.147,-0.919 1.088,-1.484 2.09,-1.256 0.614,0.14 1.034,0.544 1.211,1.167 0.08,0.275 0.158,0.519 0.176,0.543 0.018,0.024 1.518,0.44 3.33,0.924 l 3.299,0.88 0.068,0.982 c 0.066,0.949 0.141,1.137 2.109,5.4779999 1.896,4.172 2.034,4.53 1.949,4.983 -0.223,1.184 -1.082,2.166 -2.336,2.664 -0.994,0.396 -3.199,0.391 -4.227,-0.012 -1.277,-0.5 -2.305,-1.816 -2.305,-2.957 0,-0.174 0.862,-2.226 1.917,-4.561 1.054,-2.334 1.966,-4.3679999 2.026,-4.5209999 l 0.109,-0.277 -3.012,0 -3.012,0 0,9.1039999 0,9.104 3.663,0 3.663,0 0.854,0.861 0.854,0.86 -10.75,0 -10.7549998,0 0.853,-0.855 z m 4.2219998,-11.659 c -0.4089998,-0.93 -1.1169998,-2.549 -1.5739998,-3.598 -0.457,-1.049 -0.878,-1.899 -0.937,-1.889 -0.059,0.01 -0.756,1.504 -1.551,3.321 -0.795,1.817 -1.5,3.429 -1.568,3.58 l -0.123,0.278 3.248,0 3.2489998,0 -0.744,-1.692 z m 17.001,1.614 c 0,-0.166 -3.111,-7.18 -3.184,-7.178 -0.055,10e-4 -2.803,6.152 -3.193,7.151 -0.021,0.059 1.403,0.105 3.168,0.105 1.765,0 3.209,-0.035 3.209,-0.078 z" />
  </g>
</svg>
