<?xml version="1.0" encoding="UTF-8" standalone="no"?>
<!-- Created with Inkscape (http://www.inkscape.org/) -->

<svg
   xmlns:dc="http://purl.org/dc/elements/1.1/"
   xmlns:cc="http://creativecommons.org/ns#"
   xmlns:rdf="http://www.w3.org/1999/02/22-rdf-syntax-ns#"
   xmlns:svg="http://www.w3.org/2000/svg"
   xmlns="http://www.w3.org/2000/svg"
   xmlns:sodipodi="http://sodipodi.sourceforge.net/DTD/sodipodi-0.dtd"
   xmlns:inkscape="http://www.inkscape.org/namespaces/inkscape"
   width="352.78mm"
   height="352.78mm"
   viewBox="0 0 1250.0079 1250.0079"
   id="svg34125"
   version="1.1"
   inkscape:version="0.91 r13725"
   sodipodi:docname="public_post_office.svg">
  <defs
     id="defs34127" />
  <sodipodi:namedview
     id="base"
     pagecolor="#ffffff"
     bordercolor="#666666"
     borderopacity="1.0"
     inkscape:pageopacity="0.0"
     inkscape:pageshadow="2"
     inkscape:zoom="0.5"
     inkscape:cx="80"
     inkscape:cy="520"
     inkscape:document-units="px"
     inkscape:current-layer="layer1"
     showgrid="false"
     inkscape:window-width="1920"
     inkscape:window-height="1018"
     inkscape:window-x="-8"
     inkscape:window-y="-8"
     inkscape:window-maximized="1" />
  <metadata
     id="metadata34130">
    <rdf:RDF>
      <cc:Work
         rdf:about="">
        <dc:format>image/svg+xml</dc:format>
        <dc:type
           rdf:resource="http://purl.org/dc/dcmitype/StillImage" />
        <dc:title></dc:title>
      </cc:Work>
    </rdf:RDF>
  </metadata>
  <g
     inkscape:label="Layer 1"
     inkscape:groupmode="layer"
     id="layer1"
     transform="translate(0,197.64569)">
    <path
       style="fill:#ffffff;fill-opacity:1;stroke:none;stroke-opacity:1"
       d="m 269.15145,183.14477 0,488.4271 711.705,0 0,-488.4271 -711.705,0 z"
       id="rect5468"
       inkscape:connector-curvature="0" />
    <path
       d="m 266.27771,169.63136 -0.9487,253.77733 c -0.3174,139.62392 0,255.73863 0.6325,258.06943 1.2661,3.3966 75.01491,4.0859 360.22774,3.3301 l 358.61419,-0.7659 0,-257.22383 0,-257.15713 -359.37359,0 -359.34134,0 z m 64.7917,32.52 295.72114,0 295.75339,0 -91.78986,99.18201 c -93.91001,101.46302 -131.86052,139.38752 -159.99882,159.80012 -13.4836,9.75671 -19.3072,11.78461 -37.03311,12.61711 -18.4519,0.9989 -23.1688,-0.3331 -38.3292,-9.17071 -28.89891,-17.0159 -56.05511,-42.966 -162.34172,-154.98491 L 331.06941,202.15136 Z m -34.0254,11.77141 100.39841,105.55541 c 55.16871,58.074 100.33592,106.34791 100.33592,107.31371 0,1.0656 -43.93231,46.30261 -97.61351,100.61381 -53.68101,54.31111 -98.84832,99.26861 -100.33592,99.76801 -1.5824,0.5994 -2.8484,-92.08911 -2.8484,-206.03942 l 0,-207.21152 z m 656.17043,6.4401 c 0.6335,0.5993 0.6335,93.85731 0,207.27482 l -0.6325,206.23583 -95.62036,-103.34772 c -52.54081,-56.8085 -95.46101,-104.85951 -95.46101,-106.79091 0,-3.7295 189.84647,-205.23682 191.58797,-203.37202 z m -216.94047,227.50072 48.3007,51.64061 c 26.5238,28.4709 69.38051,74.30741 95.14491,101.91241 l 46.90756,50.14561 -302.62149,0 -302.59034,0 11.2364,-11.4451 C 468.81713,502.358 520.40934,450.72739 521.89694,450.72739 c 0.9498,0 13.9901,9.7034 28.8666,21.52461 61.34101,49.1165 103.46942,47.9877 162.65792,-4.2923 l 22.85251,-20.09611 z"
       id="path5458"
       inkscape:connector-curvature="0"
       style="fill:#c84614;fill-opacity:1" />
  </g>
</svg>
