<?xml version="1.0" encoding="UTF-8" standalone="no"?>
<!-- Created with Inkscape (http://www.inkscape.org/) -->

<svg
   xmlns:dc="http://purl.org/dc/elements/1.1/"
   xmlns:cc="http://creativecommons.org/ns#"
   xmlns:rdf="http://www.w3.org/1999/02/22-rdf-syntax-ns#"
   xmlns:svg="http://www.w3.org/2000/svg"
   xmlns="http://www.w3.org/2000/svg"
   xmlns:sodipodi="http://sodipodi.sourceforge.net/DTD/sodipodi-0.dtd"
   xmlns:inkscape="http://www.inkscape.org/namespaces/inkscape"
   width="1000"
   height="1000"
   id="svg3349"
   version="1.1"
   inkscape:version="0.91 r13725"
   viewBox="0 0 1000 1000"
   sodipodi:docname="public_government.svg">
  <defs
     id="defs3351" />
  <sodipodi:namedview
     id="base"
     pagecolor="#ffffff"
     bordercolor="#666666"
     borderopacity="1.0"
     inkscape:pageopacity="0.0"
     inkscape:pageshadow="2"
     inkscape:zoom="0.5"
     inkscape:cx="9.2008305"
     inkscape:cy="416"
     inkscape:current-layer="layer1"
     showgrid="true"
     inkscape:grid-bbox="true"
     inkscape:document-units="px"
     inkscape:window-width="1920"
     inkscape:window-height="1018"
     inkscape:window-x="-8"
     inkscape:window-y="-8"
     inkscape:window-maximized="1" />
  <metadata
     id="metadata3354">
    <rdf:RDF>
      <cc:Work
         rdf:about="">
        <dc:format>image/svg+xml</dc:format>
        <dc:type
           rdf:resource="http://purl.org/dc/dcmitype/StillImage" />
        <dc:title></dc:title>
      </cc:Work>
    </rdf:RDF>
  </metadata>
  <g
     id="layer1"
     inkscape:label="Layer 1"
     inkscape:groupmode="layer"
     transform="translate(0,968)">
    <path
       id="path4161"
       style="fill:#c84614;fill-opacity:1;stroke:none"
       d="m 221.15363,-480.06799 c 0,-14.16622 8.97922,-27.83413 21.66646,-32.99519 4.6532,-1.88646 7.08886,-5.41022 10.79688,-15.51878 19.99422,-54.81403 66.2354,-103.82632 125.12746,-132.65707 28.93709,-14.16623 80.37677,-27.65617 105.42407,-27.65617 17.55856,0 16.10444,9.14753 16.10444,-101.90427 l 0,-99.34153 11.92382,0 11.88748,0 0,8.47126 c 0,4.66275 0.36353,8.47126 0.76341,8.47126 0.47259,0 5.41662,-2.02883 11.16041,-4.44919 12.7963,-5.55259 39.18867,-7.54583 55.25675,-4.20004 12.68725,2.63392 30.7184,10.89162 37.7709,17.26286 18.46739,16.55099 64.30868,18.01033 81.64913,2.59833 3.74437,-3.3102 3.78072,-1.6373 3.27178,41.28849 l -0.58165,44.74106 -13.26889,3.52376 c -19.30351,5.12547 -53.83899,3.48817 -70.01613,-3.34579 -6.68897,-2.7763 -14.83207,-7.08311 -18.39468,-9.61025 -17.52221,-12.35096 -50.89438,-15.73234 -70.45236,-7.1543 -18.14021,8.07973 -17.37679,5.37462 -17.37679,57.05642 l 0,45.98684 17.23138,1.42374 c 70.81589,5.80174 146.35769,46.1648 188.56367,100.76527 12.06924,15.69674 27.95555,44.49191 33.22676,60.82934 2.65377,8.2221 5.01673,11.21196 8.68839,12.17298 6.83439,1.6373 17.70398,10.89162 21.63011,17.93914 2.79919,5.41021 4.07155,12.31536 3.74438,19.86119 -0.21812,3.52376 -15.48644,3.70172 -287.98948,3.70172 l -287.8077,0 0,-7.26108 0,0 z M 51.639,-231.34043 l 0,-205.41023 449.43371,0 449.28829,0 0,205.41023 0,205.48143 -144.68544,0 -144.75816,0 0,-40.363059 2.50837,-135.611331 -162.35306,0 -162.38942,0 -2.54472,135.611331 0,40.363059 -142.28614,0 -142.21343,0 0,-205.48143 z"
       inkscape:connector-curvature="0" />
  </g>
</svg>
