<?xml version="1.0" encoding="UTF-8" standalone="no"?>
<!-- Created with Inkscape (http://www.inkscape.org/) -->

<svg
   xmlns:dc="http://purl.org/dc/elements/1.1/"
   xmlns:cc="http://creativecommons.org/ns#"
   xmlns:rdf="http://www.w3.org/1999/02/22-rdf-syntax-ns#"
   xmlns:svg="http://www.w3.org/2000/svg"
   xmlns="http://www.w3.org/2000/svg"
   xmlns:sodipodi="http://sodipodi.sourceforge.net/DTD/sodipodi-0.dtd"
   xmlns:inkscape="http://www.inkscape.org/namespaces/inkscape"
   width="1000"
   height="1000"
   id="svg6603"
   version="1.1"
   inkscape:version="0.91 r13725"
   viewBox="0 0 1000 1000"
   sodipodi:docname="public_market_stand.svg">
  <defs
     id="defs6605" />
  <sodipodi:namedview
     id="base"
     pagecolor="#ffffff"
     bordercolor="#666666"
     borderopacity="1.0"
     inkscape:pageopacity="0.0"
     inkscape:pageshadow="2"
     inkscape:zoom="0.5"
     inkscape:cx="13.136641"
     inkscape:cy="496"
     inkscape:current-layer="layer1"
     showgrid="true"
     inkscape:grid-bbox="true"
     inkscape:document-units="px"
     inkscape:window-width="1920"
     inkscape:window-height="1018"
     inkscape:window-x="-8"
     inkscape:window-y="-8"
     inkscape:window-maximized="1" />
  <metadata
     id="metadata6608">
    <rdf:RDF>
      <cc:Work
         rdf:about="">
        <dc:format>image/svg+xml</dc:format>
        <dc:type
           rdf:resource="http://purl.org/dc/dcmitype/StillImage" />
        <dc:title></dc:title>
      </cc:Work>
    </rdf:RDF>
  </metadata>
  <g
     id="layer1"
     inkscape:label="Layer 1"
     inkscape:groupmode="layer"
     transform="translate(0,968)">
    <path
       d="m 493.36222,-869.1465 -0.0128,0.0118 0.0128,0 0,-0.0118 z m 0,0.0118 -0.42572,7.08958 -0.42571,7.17068 -216.3806,115.58003 C 157.11908,-675.72685 57.450319,-622.73456 54.734026,-621.63707 l -4.930424,1.9539 0,25.59237 0,25.66461 86.125588,0 86.12438,0 0,-10.38418 c 0,-10.18922 0,-10.45179 3.83005,-10.45179 3.73278,0 3.76923,0.33473 3.76923,10.45179 l 0,10.38418 131.80771,0 131.80288,0 0,130.92515 0,130.92266 9.13554,0 9.135,0 0,-130.92266 0,-130.92515 137.91816,0 137.77404,0 0,-9.71359 c 0,-9.43455 0.3649,-9.71694 3.90303,-9.71694 3.73278,0 3.90299,0.33474 3.90299,9.71694 l 0,9.71359 83.76981,0 83.76554,0 0,-25.52597 0,-25.46209 -221.3171,-116.11826 c -121.7636,-63.84336 -223.21727,-117.28815 -225.51773,-118.72977 -3.50783,-2.1933 -4.20088,-3.6303 -4.20088,-8.77616 l 0,-6.09671 -9.0608,0 -9.05593,0 z m -143.3684,345.7245 c -10.37274,0 -14.30975,0.65117 -19.89372,3.15544 -11.27798,5.07696 -19.06392,12.16317 -24.53421,22.18012 -4.29815,7.99295 -4.97296,10.64006 -4.9365,19.69687 0,8.3018 0.79024,12.04889 3.97597,18.29352 6.56274,12.89888 19.39402,22.63349 34.33302,26.06294 21.50053,4.90636 46.49614,-6.53958 57.17042,-26.19698 4.79062,-8.85053 4.79062,-27.01966 0,-36.3845 -4.63861,-9.19382 -14.57178,-18.41913 -24.6059,-22.91373 -7.35553,-3.294 -10.53326,-3.8864 -21.58626,-3.8864 l 0.059,-0.0118 z m -49.28965,101.84417 c -7.50628,0 -25.82422,9.94717 -36.83838,20.03258 -24.59436,22.43685 -33.9421,51.9473 -42.73055,134.14458 l -1.02135,9.51228 19.96791,0 20.03843,0 0,-5.8946 c 0,-8.71355 4.2252,-41.085 7.73488,-59.30075 4.63861,-24.08308 14.47027,-48.25357 21.14672,-51.99269 1.09433,-0.6177 1.55027,10.16357 1.55027,33.83407 l 0,34.71052 6.92573,0 6.84969,0 0,-57.48814 0,-57.55785 -3.6232,0 z m 12.74677,0 0,24.25617 0,24.25534 36.54288,0 36.54229,0 0,-24.25534 0,-24.25617 -36.54229,0 -36.54288,0 z m 85.83135,0 c -1.65974,0 -2.0733,10.31903 -2.0733,57.55785 l 0,57.48814 6.84973,0 6.92325,0 0,-34.0374 c 0,-22.05911 0.48617,-33.78405 1.47103,-33.16639 4.2617,2.33184 12.19171,42.02657 12.23001,61.30705 l 0,5.89674 19.81838,0 19.81959,0 -0.86949,-9.38205 c -2.07293,-20.44566 -5.51405,-44.42998 -7.58955,-52.66246 -4.26122,-16.63885 -17.11134,-34.98613 -30.42713,-43.28707 -6.52566,-4.08409 -21.66407,-9.71441 -26.15252,-9.71441 z m -63.25172,125.0318 c -24.38644,0.0428 -41.88306,0.253 -46.59768,0.60914 l -17.09294,0.9244 0,22.71499 0,22.71247 -91.50348,0 -91.432308,0 0,99.77101 0,99.698727 282.761378,0 515.02092,0 -2.18867,-107.740447 0,-89.80155 -261.00675,-2.33612 -30.796,-0.33473 -0.42572,-22.51372 -0.42571,-22.51162 -25.4935,0 c -13.99365,0 -78.31474,-0.33474 -142.85651,-0.72279 l 0.0256,-0.21018 c -32.26965,-0.21019 -63.54474,-0.33474 -87.93056,-0.253 z"
       id="path8207"
       inkscape:connector-curvature="0"
       style="fill:#c84614;fill-opacity:1" />
  </g>
</svg>
