<?xml version="1.0" encoding="UTF-8" standalone="no"?>
<!-- Created with Inkscape (http://www.inkscape.org/) -->

<svg
   xmlns:dc="http://purl.org/dc/elements/1.1/"
   xmlns:cc="http://creativecommons.org/ns#"
   xmlns:rdf="http://www.w3.org/1999/02/22-rdf-syntax-ns#"
   xmlns:svg="http://www.w3.org/2000/svg"
   xmlns="http://www.w3.org/2000/svg"
   xmlns:sodipodi="http://sodipodi.sourceforge.net/DTD/sodipodi-0.dtd"
   xmlns:inkscape="http://www.inkscape.org/namespaces/inkscape"
   width="1000"
   height="1000"
   id="svg3346"
   version="1.1"
   inkscape:version="0.91 r13725"
   viewBox="0 0 1000 1000"
   sodipodi:docname="public_fire_station.svg">
  <defs
     id="defs3348" />
  <sodipodi:namedview
     id="base"
     pagecolor="#ffffff"
     bordercolor="#666666"
     borderopacity="1.0"
     inkscape:pageopacity="0.0"
     inkscape:pageshadow="2"
     inkscape:zoom="0.5"
     inkscape:cx="9.2008305"
     inkscape:cy="464.56038"
     inkscape:current-layer="layer1"
     showgrid="true"
     inkscape:grid-bbox="true"
     inkscape:document-units="px"
     inkscape:window-width="1920"
     inkscape:window-height="1018"
     inkscape:window-x="-8"
     inkscape:window-y="-8"
     inkscape:window-maximized="1" />
  <metadata
     id="metadata3351">
    <rdf:RDF>
      <cc:Work
         rdf:about="">
        <dc:format>image/svg+xml</dc:format>
        <dc:type
           rdf:resource="http://purl.org/dc/dcmitype/StillImage" />
        <dc:title></dc:title>
      </cc:Work>
    </rdf:RDF>
  </metadata>
  <g
     id="layer1"
     inkscape:label="Layer 1"
     inkscape:groupmode="layer"
     transform="translate(0,968)">
    <path
       style="fill:#c84614;fill-opacity:1;stroke:#c84614;stroke-width:32.12641144;stroke-miterlimit:10;stroke-opacity:1"
       id="path12510"
       inkscape:connector-curvature="0"
       stroke-miterlimit="10"
       enable-background="new    "
       d="m 376.95862,-102.08109 c -96.16404,-42.85322 -168.99164,-123.69474 -199.92361,-222.0139 -13.61006,-43.18355 -14.74423,-165.7972 -2.02776,-216.4583 39.66165,-157.98932 136.30687,-274.74707 273.12927,-329.97277 17.90617,-7.23729 33.44089,-13.15326 34.43759,-13.15326 0.9967,0 -1.71844,9.2193 -6.04891,20.48065 -25.32985,65.70626 -18.52481,142.794 18.14675,205.58733 9.5889,16.39654 51.45017,58.58909 58.08336,58.58909 1.82155,0 4.6398,-8.91899 6.25513,-19.81999 8.97027,-58.55906 52.24066,-115.37635 109.18985,-143.24446 l 18.45607,-9.00908 0,19.91008 c 0,24.41462 10.82619,71.80241 23.19897,101.11197 5.01786,11.98208 23.19898,47.26766 40.31467,78.34901 51.31269,93.3041 66.0913,138.61979 65.71325,202.19391 -0.41243,86.51725 -32.06614,159.01036 -95.27047,218.07993 -24.36752,22.85305 -86.6095,65.496051 -90.49318,61.952477 -0.72175,-0.660666 8.24852,-19.549717 20.27762,-41.922277 32.68478,-61.05157 38.52749,-78.58926 38.39001,-116.66766 -0.0687,-28.91917 -1.85592,-36.36668 -13.81628,-58.46896 -7.59551,-13.96408 -22.47723,-34.77507 -33.23469,-46.45685 l -19.34966,-21.05123 -5.43027,18.70886 c -7.56115,25.79602 -29.38537,63.57412 -47.46339,81.83253 l -15.05356,15.13526 -11.75415,-13.36348 c -18.45607,-21.2314 -38.14942,-61.23174 -50.62532,-103.24411 -13.19764,-44.4148 -16.56578,-119.40042 -6.77066,-149.25052 3.05882,-9.33942 4.6398,-17.77793 3.53999,-18.76893 -1.13417,-0.99099 -17.76869,9.27936 -36.94651,22.82302 -138.64396,97.80864 -158.61226,228.2602 -60.00802,391.86519 12.40715,20.6308 22.54596,38.10843 22.54596,38.829157 -0.0344,3.123149 -8.38599,0.390394 -37.46205,-12.582687 z" />
  </g>
</svg>
