<?xml version="1.0" encoding="UTF-8" standalone="no"?>
<!-- Created with Inkscape (http://www.inkscape.org/) -->

<svg
   xmlns:dc="http://purl.org/dc/elements/1.1/"
   xmlns:cc="http://creativecommons.org/ns#"
   xmlns:rdf="http://www.w3.org/1999/02/22-rdf-syntax-ns#"
   xmlns:svg="http://www.w3.org/2000/svg"
   xmlns="http://www.w3.org/2000/svg"
   xmlns:sodipodi="http://sodipodi.sourceforge.net/DTD/sodipodi-0.dtd"
   xmlns:inkscape="http://www.inkscape.org/namespaces/inkscape"
   width="32"
   height="32"
   id="svg3352"
   version="1.1"
   inkscape:version="0.91 r13725"
   viewBox="0 0 32 32"
   sodipodi:docname="police_.svg">
  <defs
     id="defs3354" />
  <sodipodi:namedview
     id="base"
     pagecolor="#ffffff"
     bordercolor="#666666"
     borderopacity="1.0"
     inkscape:pageopacity="0.0"
     inkscape:pageshadow="2"
     inkscape:zoom="20"
     inkscape:cx="11.331756"
     inkscape:cy="16"
     inkscape:current-layer="layer1"
     showgrid="true"
     inkscape:grid-bbox="true"
     inkscape:document-units="px"
     inkscape:window-width="1920"
     inkscape:window-height="1018"
     inkscape:window-x="-8"
     inkscape:window-y="-8"
     inkscape:window-maximized="1" />
  <metadata
     id="metadata3357">
    <rdf:RDF>
      <cc:Work
         rdf:about="">
        <dc:format>image/svg+xml</dc:format>
        <dc:type
           rdf:resource="http://purl.org/dc/dcmitype/StillImage" />
        <dc:title />
      </cc:Work>
    </rdf:RDF>
  </metadata>
  <g
     id="layer1"
     inkscape:label="Layer 1"
     inkscape:groupmode="layer">
    <path
       id="path15877"
       style="fill:#c84614;stroke:#c84614;stroke-miterlimit:10;fill-opacity:1;stroke-opacity:1"
       d="m 10.911692,5.131376 0,-0.896 0.896,-0.89 0.896,-0.89 3.571,0 3.571,0 0.951,0.957 0.951,0.957 0,0.829 0,0.828 -5.418,0 -5.418,0 0,-0.895 z m 3.914,7.986 c -1.514,-0.367 -3.008,-1.454 -3.67,-2.669 -0.269,-0.493 -0.367,-0.866 -0.411,-1.55 l -0.058,-0.901 5.451,0 5.452,0 -0.081,0.831 c -0.16,1.637 -1.093,2.93 -2.69,3.739 -1.373,0.693 -2.668,0.873 -3.993,0.55 z m -7.679,10.572 c 0,-3.389 0.036,-4.281 0.196,-4.898 0.271,-1.051 0.705,-1.92 1.286,-2.578 0.841,-0.957 0.864,-0.958 6.224,-0.919 l 4.688,0.035 -4.858,6.219 -4.859,6.219 -1.338,0.029 -1.338,0.035 -0.001,-4.142 0,0 z m 6.074,3.426 c 3.071,-3.984 9.232,-11.8 9.331,-11.833 0.446,-0.155 1.444,0.568 1.834,1.33 0.603,1.181 0.651,1.649 0.709,6.563 l 0.053,4.646 -6.238,0 -6.236,0 0.547,-0.706 z" />
  </g>
</svg>
