<?xml version="1.0" encoding="UTF-8" standalone="no"?>
<!-- Created with Inkscape (http://www.inkscape.org/) -->

<svg
   xmlns:dc="http://purl.org/dc/elements/1.1/"
   xmlns:cc="http://creativecommons.org/ns#"
   xmlns:rdf="http://www.w3.org/1999/02/22-rdf-syntax-ns#"
   xmlns:svg="http://www.w3.org/2000/svg"
   xmlns="http://www.w3.org/2000/svg"
   xmlns:sodipodi="http://sodipodi.sourceforge.net/DTD/sodipodi-0.dtd"
   xmlns:inkscape="http://www.inkscape.org/namespaces/inkscape"
   width="1000"
   height="1000"
   id="svg3347"
   version="1.1"
   inkscape:version="0.91 r13725"
   viewBox="0 0 1000 1000"
   sodipodi:docname="public_courthouse.svg">
  <defs
     id="defs3349" />
  <sodipodi:namedview
     id="base"
     pagecolor="#ffffff"
     bordercolor="#666666"
     borderopacity="1.0"
     inkscape:pageopacity="0.0"
     inkscape:pageshadow="2"
     inkscape:zoom="0.5"
     inkscape:cx="11.512342"
     inkscape:cy="416"
     inkscape:current-layer="layer1"
     showgrid="true"
     inkscape:grid-bbox="true"
     inkscape:document-units="px"
     inkscape:window-width="1920"
     inkscape:window-height="1018"
     inkscape:window-x="-8"
     inkscape:window-y="-8"
     inkscape:window-maximized="1" />
  <metadata
     id="metadata3352">
    <rdf:RDF>
      <cc:Work
         rdf:about="">
        <dc:format>image/svg+xml</dc:format>
        <dc:type
           rdf:resource="http://purl.org/dc/dcmitype/StillImage" />
        <dc:title></dc:title>
      </cc:Work>
    </rdf:RDF>
  </metadata>
  <g
     id="layer1"
     inkscape:label="Layer 1"
     inkscape:groupmode="layer"
     transform="translate(0,968)">
    <path
       style="opacity:0.97000002;fill:#c84614;fill-opacity:1"
       id="path9714"
       inkscape:connector-curvature="0"
       enable-background="new    "
       d="m 151.72413,-62.027942 30.16618,-28.798321 128.51567,-1.106339 128.51568,-1.039287 0,-303.170221 0,-303.17021 -105.49319,-1.10634 c -58.03363,-0.60346 -105.52856,-0.0335 -105.52856,1.24044 0,1.27397 32.32343,70.36982 71.79054,153.51282 39.50248,83.143 71.79054,153.24461 71.79054,155.75902 0,16.12572 -15.34832,48.64536 -30.97956,65.47511 -37.2745,40.12991 -105.49319,57.02671 -174.38382,43.21424 -58.42265,-11.76741 -102.487191,-50.5563 -110.338177,-97.08956 -2.369441,-14.21477 4.738883,-31.34625 68.289427,-164.308 70.0223,-146.53953 70.97715,-148.91984 73.2405,-183.08222 l 2.29871,-34.63174 119.63911,-30.27344 c 65.81389,-16.66213 119.88667,-30.30697 120.16959,-30.34049 0.28292,-0.0335 1.73287,-7.20796 3.2182,-15.89104 5.19862,-30.80985 38.4769,-49.7517 73.91243,-42.10791 21.71398,4.69356 36.5672,18.23782 42.82677,39.12415 2.82918,9.21948 5.58764,17.39968 6.2242,18.20429 0.63657,0.80461 53.68377,14.75118 117.76478,30.97747 l 116.66848,29.50236 2.4048,32.92194 c 2.33408,31.81561 4.98644,38.11838 74.58436,183.65215 67.05166,139.86799 71.93201,151.87008 68.926,167.05709 -7.88635,39.69407 -38.26471,72.61602 -82.61217,89.31167 -35.15261,13.27606 -113.132,13.10843 -149.48701,-0.4023 -45.16085,-16.76271 -81.51586,-60.88214 -81.51586,-99.13462 0,-5.83342 30.48446,-74.62755 67.79432,-152.90936 37.2745,-78.24829 69.52719,-146.43896 71.64908,-151.56835 l 3.85477,-9.28653 -106.51878,0 -106.51878,0 0,305.21526 0,305.215269 129.54126,0 129.54126,0 30.20154,28.865372 30.20154,28.831846 -380.17159,0 -380.34841,0 30.16617,-28.664219 z M 301.03431,-452.90061 c -14.4642,-31.17863 -39.50247,-85.45626 -55.66419,-120.6244 -16.16171,-35.16815 -31.05029,-63.66474 -33.13681,-63.32949 -2.08653,0.33525 -26.73579,50.42221 -54.85081,111.33786 -28.11501,60.91566 -53.0472,114.95861 -55.452,120.02095 l -4.349874,9.32006 114.864864,0 114.90023,0 -26.31141,-56.72498 z m 601.23695,54.11 c 0,-5.56522 -110.01989,-240.7124 -112.60152,-240.64535 -1.94506,0.0335 -99.12753,206.24828 -112.9198,239.74016 -0.74266,1.978 49.61681,3.52017 112.03568,3.52017 62.41887,0 113.48564,-1.17339 113.48564,-2.61498 z" />
  </g>
</svg>
