<?xml version="1.0" encoding="UTF-8" standalone="no"?>
<!-- Created with Inkscape (http://www.inkscape.org/) -->

<svg
   xmlns:dc="http://purl.org/dc/elements/1.1/"
   xmlns:cc="http://creativecommons.org/ns#"
   xmlns:rdf="http://www.w3.org/1999/02/22-rdf-syntax-ns#"
   xmlns:svg="http://www.w3.org/2000/svg"
   xmlns="http://www.w3.org/2000/svg"
   xmlns:sodipodi="http://sodipodi.sourceforge.net/DTD/sodipodi-0.dtd"
   xmlns:inkscape="http://www.inkscape.org/namespaces/inkscape"
   width="32"
   height="32"
   id="svg12796"
   version="1.1"
   inkscape:version="0.91 r13725"
   viewBox="0 0 32 32"
   sodipodi:docname="public_prison.svg">
  <defs
     id="defs12798" />
  <sodipodi:namedview
     id="base"
     pagecolor="#ffffff"
     bordercolor="#666666"
     borderopacity="1.0"
     inkscape:pageopacity="0.0"
     inkscape:pageshadow="2"
     inkscape:zoom="20"
     inkscape:cx="11.871489"
     inkscape:cy="16"
     inkscape:current-layer="layer1"
     showgrid="true"
     inkscape:grid-bbox="true"
     inkscape:document-units="px"
     inkscape:window-width="1920"
     inkscape:window-height="1018"
     inkscape:window-x="-8"
     inkscape:window-y="-8"
     inkscape:window-maximized="1" />
  <metadata
     id="metadata12801">
    <rdf:RDF>
      <cc:Work
         rdf:about="">
        <dc:format>image/svg+xml</dc:format>
        <dc:type
           rdf:resource="http://purl.org/dc/dcmitype/StillImage" />
        <dc:title></dc:title>
      </cc:Work>
    </rdf:RDF>
  </metadata>
  <g
     id="layer1"
     inkscape:label="Layer 1"
     inkscape:groupmode="layer">
    <path
       d="m 3.64729,3.7828 0,25.522025 3.2347061,0 0,-25.522025 -3.2347061,0 z m 14.429158,0.0041 c -0.0096,0.047661 -0.02022,0.080299 -0.02046,0.1125286 -0.0012,1.4095432 -0.0036,2.8191955 0.0048,4.2287255 0,0.07374 0.08556,0.173326 0.160053,0.214883 0.316315,0.17629 0.656024,0.316896 0.964012,0.503961 0.90951,0.552223 1.608363,1.2915109 2.132916,2.2700319 l 0,-7.3301027 -3.241867,0 z m 7.187665,0 0,25.523431 3.231577,0 0,-25.523431 -3.231577,0 z m -14.370697,0.00273 0,7.275054 c 0.03309,-0.03305 0.04838,-0.04261 0.05584,-0.05626 0.677602,-1.2303452 1.706429,-2.1034522 3.043088,-2.6567812 0.150269,-0.06214 0.162869,-0.1491 0.16258,-0.275558 -0.0024,-1.214066 -0.0012,-2.4282 0,-3.6422521 l 0,-0.6441441 -3.261,0 -5.3e-4,0 z m 5.157893,5.9155198 -5.42e-4,5.74e-4 c -0.0627,0 -0.125599,0.0014 -0.18879,0.0055 -1.929565,0.09177 -3.587099,1.6263112 -3.745828,3.5017832 -0.05355,0.63326 -0.02684,1.272624 -0.04501,1.908779 -0.0024,0.08085 -0.03755,0.218926 -0.0858,0.231353 -0.424525,0.108568 -0.479761,0.405854 -0.479184,0.752781 0.0036,2.173945 0.0012,4.348177 0.0024,6.521986 0,0.503347 0.21979,0.709722 0.754138,0.710541 1.275466,0.0014 2.550955,0 3.826565,0 l 3.826866,0 c 0.567045,0 0.782972,-0.202551 0.783261,-0.734754 0,-1.299227 0.0012,-2.598795 0.0012,-3.897885 0,-0.900393 -0.0024,-1.800444 0,-2.7007 0.0012,-0.266722 -0.0692,-0.516675 -0.351671,-0.599651 -0.216433,-0.06364 -0.212221,-0.173942 -0.217624,-0.334076 -0.02479,-0.745639 0.02166,-1.5038 -0.108186,-2.233419 -0.32806,-1.845346 -2.028087,-3.1404892 -3.97231,-3.1321592 z m 0.100123,1.6302442 c 0.03538,6.15e-4 0.07076,0.0014 0.106381,0.0041 1.071898,0.05954 2.040459,0.904681 2.158597,1.949762 0.06763,0.596675 0.03646,1.203578 0.0485,1.80577 0.0012,0.0747 -0.0072,0.149537 -0.01083,0.241076 l -4.653474,0 c 0,-0.494511 -0.0048,-0.96847 0.0012,-1.442551 0.0036,-0.291987 -0.02503,-0.594926 0.04681,-0.873393 0.257926,-0.999019 1.147881,-1.657584 2.197407,-1.6839 l 0,0 c 0.03502,-9.02e-4 0.07016,-9.02e-4 0.105418,-3.55e-4 z m 0.0024,5.214265 c 0.51744,0.01093 0.978285,0.318617 1.199651,0.785447 0.241548,0.510394 0.141713,1.129069 -0.269527,1.511051 -0.130256,0.121405 -0.168224,0.223186 -0.137705,0.395339 0.158007,0.886585 0.298035,1.776012 0.442612,2.664796 0.01083,0.06651 0.01083,0.134516 0.01829,0.231913 -0.876356,0 -1.726514,1.4e-5 -2.618346,0 0.0716,-0.448407 0.138969,-0.880522 0.209645,-1.312091 0.09182,-0.561592 0.193267,-1.122254 0.271248,-1.685512 0.01203,-0.08358 -0.06486,-0.196884 -0.132868,-0.268812 -0.416487,-0.441633 -0.530233,-0.943342 -0.301249,-1.488095 0.213352,-0.507348 0.628214,-0.800386 1.214249,-0.832137 0.0349,-0.0014 0.06956,-0.0027 0.104094,-0.0014 l 0,-3.55e-4 z m 5.168916,8.225811 0,0 c -0.536815,0.372615 -1.127868,0.369515 -1.720762,0.363164 -0.421902,-0.0041 -0.844189,0.0096 -1.265501,-0.0068 -0.22328,-0.0082 -0.288998,0.05681 -0.287253,0.270151 0.01083,1.213355 0.0048,2.426766 0.0072,3.640121 0,0.08904 0.0084,0.17797 0.01312,0.264797 l 3.253551,0 0,-4.532101 z m -10.425873,0.06855 0,4.523157 3.239628,0 0,-4.163175 c -1.097157,-0.05203 -2.207455,0.129736 -3.239628,-0.359982 z"
       id="path3-5"
       inkscape:connector-curvature="0"
       style="fill:#c84614;fill-opacity:1" />
  </g>
</svg>
