<?xml version="1.0" encoding="UTF-8" standalone="no"?>
<!-- Created with Inkscape (http://www.inkscape.org/) -->

<svg
   xmlns:dc="http://purl.org/dc/elements/1.1/"
   xmlns:cc="http://creativecommons.org/ns#"
   xmlns:rdf="http://www.w3.org/1999/02/22-rdf-syntax-ns#"
   xmlns:svg="http://www.w3.org/2000/svg"
   xmlns="http://www.w3.org/2000/svg"
   xmlns:sodipodi="http://sodipodi.sourceforge.net/DTD/sodipodi-0.dtd"
   xmlns:inkscape="http://www.inkscape.org/namespaces/inkscape"
   width="1000"
   height="1000"
   id="svg3348"
   version="1.1"
   inkscape:version="0.91 r13725"
   viewBox="0 0 1000 1000"
   sodipodi:docname="public_embassy.svg">
  <defs
     id="defs3350" />
  <sodipodi:namedview
     id="base"
     pagecolor="#ffffff"
     bordercolor="#666666"
     borderopacity="1.0"
     inkscape:pageopacity="0.0"
     inkscape:pageshadow="2"
     inkscape:zoom="0.5"
     inkscape:cx="9.2008305"
     inkscape:cy="416"
     inkscape:current-layer="layer1"
     showgrid="true"
     inkscape:grid-bbox="true"
     inkscape:document-units="px"
     inkscape:window-width="1920"
     inkscape:window-height="1018"
     inkscape:window-x="-8"
     inkscape:window-y="-8"
     inkscape:window-maximized="1" />
  <metadata
     id="metadata3353">
    <rdf:RDF>
      <cc:Work
         rdf:about="">
        <dc:format>image/svg+xml</dc:format>
        <dc:type
           rdf:resource="http://purl.org/dc/dcmitype/StillImage" />
        <dc:title></dc:title>
      </cc:Work>
    </rdf:RDF>
  </metadata>
  <g
     id="layer1"
     inkscape:label="Layer 1"
     inkscape:groupmode="layer"
     transform="translate(0,968)">
    <path
       id="path11390"
       style="fill:#c84614;fill-opacity:1"
       d="m 210.911,-90.013174 c -7.11255,-9.915518 -7.14219,-11.508506 -7.14219,-360.989886 0,-378.1876 -0.4149,-369.27989 17.33684,-375.45677 10.491,-3.80366 23.11578,7.15217 27.23513,23.50465 3.88226,15.37718 5.27514,668.17588 1.45214,693.43607 -4.17862,27.991019 -25.21991,38.524225 -38.88192,19.505936 z M 398.08954,-352.14046 c -27.11659,-4.51888 -50.588,-14.23934 -73.46669,-30.49428 l -20.89311,-14.79201 0,-192.91372 0,-192.78367 18.07772,12.61384 c 35.59238,24.83756 54.55917,30.46177 102.50959,30.46177 39.88954,0 45.16468,-0.87777 71.21438,-11.76858 15.46979,-6.46947 44.92759,-22.88697 65.46507,-36.47611 63.39058,-41.93776 117.14958,-55.59192 167.44122,-42.58796 27.20549,7.02214 56.69293,21.52155 71.36256,35.07818 l 10.43173,9.46038 0,192.19849 0,192.29604 -17.18865,-12.8089 c -35.82946,-26.43055 -83.69097,-38.84933 -125.35865,-32.44488 -40.98605,6.17688 -68.87316,18.85574 -126.01063,56.59973 -46.91317,31.33954 -100.40546,45.61138 -143.58454,38.36168 z"
       inkscape:connector-curvature="0" />
  </g>
</svg>
