<?xml version="1.0" encoding="UTF-8" standalone="no"?>
<!-- Created with Inkscape (http://www.inkscape.org/) -->

<svg
   xmlns:dc="http://purl.org/dc/elements/1.1/"
   xmlns:cc="http://creativecommons.org/ns#"
   xmlns:rdf="http://www.w3.org/1999/02/22-rdf-syntax-ns#"
   xmlns:svg="http://www.w3.org/2000/svg"
   xmlns="http://www.w3.org/2000/svg"
   xmlns:sodipodi="http://sodipodi.sourceforge.net/DTD/sodipodi-0.dtd"
   xmlns:inkscape="http://www.inkscape.org/namespaces/inkscape"
   width="32"
   height="32"
   id="svg3352"
   version="1.1"
   inkscape:version="0.91 r13725"
   viewBox="0 0 32 32"
   sodipodi:docname="rider_.svg">
  <defs
     id="defs3354" />
  <sodipodi:namedview
     id="base"
     pagecolor="#ffffff"
     bordercolor="#666666"
     borderopacity="1.0"
     inkscape:pageopacity="0.0"
     inkscape:pageshadow="2"
     inkscape:zoom="20"
     inkscape:cx="13.643268"
     inkscape:cy="16"
     inkscape:current-layer="layer1"
     showgrid="true"
     inkscape:grid-bbox="true"
     inkscape:document-units="px"
     inkscape:window-width="1920"
     inkscape:window-height="1018"
     inkscape:window-x="-8"
     inkscape:window-y="-8"
     inkscape:window-maximized="1" />
  <metadata
     id="metadata3357">
    <rdf:RDF>
      <cc:Work
         rdf:about="">
        <dc:format>image/svg+xml</dc:format>
        <dc:type
           rdf:resource="http://purl.org/dc/dcmitype/StillImage" />
        <dc:title />
      </cc:Work>
    </rdf:RDF>
  </metadata>
  <g
     id="layer1"
     inkscape:label="Layer 1"
     inkscape:groupmode="layer">
    <g
       transform="translate(-281.54031,-403.63136)"
       id="g3"
       style="fill:#732800;fill-opacity:1">
      <path
         style="clip-rule:evenodd;fill:#732800;fill-rule:evenodd;fill-opacity:1"
         inkscape:connector-curvature="0"
         d="m 291.026,423.665 c -0.566,0.8 -1.129,1.525 -1.048,2.65 0.1,1.389 0.027,2.794 0.021,4.192 -0.002,0.721 -0.279,1.196 -0.751,1.33 -0.676,0.194 -1.303,-0.289 -1.313,-1.096 -0.025,-2.047 -0.035,-4.096 0.013,-6.143 0.009,-0.366 0.294,-0.745 0.505,-1.08 0.245,-0.388 0.341,-0.785 0.333,-1.256 -0.023,-1.215 -0.007,-2.431 -0.009,-3.646 0,-0.157 -0.015,-0.314 -0.029,-0.609 -0.45,0.753 -0.911,1.304 -0.847,2.188 0.076,1.075 0.018,2.161 0.018,3.287 -0.541,0 -1.059,0 -1.634,0 0,-0.429 0,-0.856 0,-1.283 0,-0.882 -0.003,-1.765 0,-2.646 0.006,-1.694 0.947,-2.745 2.493,-2.759 1.382,-0.013 2.764,-0.003 4.146,-0.003 0.163,0 0.327,0 0.545,0 0,-0.713 -10e-4,-1.374 0,-2.035 0.001,-0.649 -0.017,-1.299 0.015,-1.947 0.045,-0.895 0.723,-1.551 1.553,-1.547 0.828,0.004 1.487,0.671 1.539,1.566 0.014,0.229 0.002,0.461 0.002,0.719 0.751,0.214 1.468,0.415 2.183,0.624 0.546,0.16 0.816,0.551 0.718,1.02 -0.102,0.482 -0.486,0.708 -1.044,0.582 -0.59,-0.134 -1.176,-0.292 -1.811,-0.45 0,0.504 0,0.955 0,1.462 0.75,0 1.489,0.016 2.227,-0.014 0.133,-0.006 0.272,-0.189 0.385,-0.316 1.912,-2.164 3.821,-4.332 5.731,-6.498 0.091,-0.102 0.19,-0.195 0.331,-0.337 -0.034,0.405 -0.022,0.747 -0.101,1.062 -0.135,0.549 0.007,0.872 0.466,1.167 0.847,0.548 1.666,1.158 2.461,1.795 0.273,0.219 0.554,0.563 0.637,0.907 0.189,0.782 -0.393,1.442 -1.137,1.394 -0.102,-0.006 -0.205,-0.021 -0.326,-0.033 -0.343,1.13 -0.988,1.921 -2.056,2.191 -0.361,0.091 -0.753,0.077 -1.127,0.053 -0.236,-0.015 -0.349,0.052 -0.451,0.284 -0.703,1.602 -1.426,3.193 -2.128,4.797 -0.086,0.199 -0.104,0.448 -0.105,0.675 -0.007,2.214 0,4.428 -0.007,6.642 -0.002,0.847 -0.402,1.335 -1.053,1.319 -0.501,-0.011 -0.896,-0.383 -0.968,-0.933 -0.027,-0.214 -0.03,-0.432 -0.03,-0.646 -0.003,-2.131 -0.002,-4.262 -0.002,-6.393 0,-0.195 0,-0.39 0,-0.608 -0.193,-0.011 -0.328,-0.023 -0.461,-0.024 -1.473,-0.001 -2.945,0.007 -4.418,-0.006 -0.273,-0.003 -0.413,0.106 -0.584,0.344 -0.682,0.944 -0.749,1.839 -0.204,2.938 0.589,1.191 0.999,2.491 1.449,3.761 0.303,0.853 -0.248,1.636 -1.048,1.547 -0.398,-0.044 -0.676,-0.291 -0.83,-0.684 -0.732,-1.879 -1.459,-3.76 -2.178,-5.646 -0.062,-0.16 -0.065,-0.354 -0.069,-0.533 -0.008,-0.443 -0.002,-0.885 -0.002,-1.325 z m 15.677,-7.903 c -0.508,-0.105 -0.98,-0.211 -1.456,-0.294 -0.082,-0.015 -0.227,0.043 -0.262,0.115 -0.303,0.625 -0.587,1.259 -0.883,1.905 1.185,0.295 2.232,-0.4 2.601,-1.726 z"
         id="path5" />
      <path
         style="clip-rule:evenodd;fill:#732800;fill-rule:evenodd;fill-opacity:1"
         inkscape:connector-curvature="0"
         d="m 297.149,408.652 -1.006,-0.786 0,0 c -0.274,-0.295 -0.647,-0.479 -1.068,-0.483 -0.854,-0.009 -1.568,0.752 -1.583,1.688 -0.015,0.932 0.686,1.71 1.545,1.718 0.882,0.006 1.563,-0.722 1.57,-1.678 10e-4,-0.16 -0.023,-0.312 -0.058,-0.458 l 0.6,0 z"
         id="path7" />
    </g>
  </g>
</svg>
