<?xml version="1.0" encoding="UTF-8" standalone="no"?>
<!-- Created with Inkscape (http://www.inkscape.org/) -->

<svg
   xmlns:dc="http://purl.org/dc/elements/1.1/"
   xmlns:cc="http://creativecommons.org/ns#"
   xmlns:rdf="http://www.w3.org/1999/02/22-rdf-syntax-ns#"
   xmlns:svg="http://www.w3.org/2000/svg"
   xmlns="http://www.w3.org/2000/svg"
   xmlns:sodipodi="http://sodipodi.sourceforge.net/DTD/sodipodi-0.dtd"
   xmlns:inkscape="http://www.inkscape.org/namespaces/inkscape"
   width="32"
   height="32"
   id="svg12968"
   version="1.1"
   inkscape:version="0.91 r13725"
   viewBox="0 0 32 32"
   sodipodi:docname="shop_car_repaor.svg">
  <defs
     id="defs12970" />
  <sodipodi:namedview
     id="base"
     pagecolor="#ffffff"
     bordercolor="#666666"
     borderopacity="1.0"
     inkscape:pageopacity="0.0"
     inkscape:pageshadow="2"
     inkscape:zoom="20"
     inkscape:cx="11.871489"
     inkscape:cy="16"
     inkscape:current-layer="layer1"
     showgrid="true"
     inkscape:grid-bbox="true"
     inkscape:document-units="px"
     inkscape:window-width="1920"
     inkscape:window-height="1018"
     inkscape:window-x="-8"
     inkscape:window-y="-8"
     inkscape:window-maximized="1" />
  <metadata
     id="metadata12973">
    <rdf:RDF>
      <cc:Work
         rdf:about="">
        <dc:format>image/svg+xml</dc:format>
        <dc:type
           rdf:resource="http://purl.org/dc/dcmitype/StillImage" />
        <dc:title></dc:title>
      </cc:Work>
    </rdf:RDF>
  </metadata>
  <g
     id="layer1"
     inkscape:label="Layer 1"
     inkscape:groupmode="layer">
    <path
       inkscape:connector-curvature="0"
       d="m 23.496944,2.0788645 c -1.565817,0 -2.307777,0.33884 -3.40142,1.5588657 l -0.760023,0.846246 -5.956067,0 -5.9584936,0 -0.6215111,0.3761064 C 6.4585926,5.0665873 6.0767559,5.4093006 5.9526777,5.624668 c -0.7744574,1.339114 -0.07217,3.0804651 1.371891,3.4047805 0.3131716,0.071009 3.1496963,0.1647332 6.3162323,0.2103377 l 5.74891,0.084054 0.764856,0.7670464 c 0.863591,0.870373 1.261044,1.151357 1.934359,1.383199 l 0,0.0121 c 0.289074,0.09885 0.884081,0.150208 1.53809,0.128704 0.926242,-0.03039 1.170748,-0.08621 1.821148,-0.423123 0.411928,-0.214103 1.011747,-0.671184 1.330933,-1.014516 L 27.35967,9.5537058 26.247943,9.5416019 C 24.493033,9.530843 24.440026,9.5066353 22.921203,8.1460438 22.173228,7.4771323 21.561381,6.8829284 21.561381,6.8271836 c 0,-0.057022 0.627505,-0.6632227 1.401983,-1.3460804 l 1.399598,-1.2396743 1.475458,0 c 0.819046,0 1.474257,-0.051643 1.474257,-0.1139105 0,-0.21916 -1.356213,-1.3828222 -1.994605,-1.7147496 C 24.74596,2.1163191 24.5376,2.07873 23.496944,2.07873 Z M 8.2279364,5.7335487 C 8.3797419,5.7149895 8.5398844,5.7761811 8.7807617,5.9067545 9.3806011,6.2336252 9.5094699,7.1478813 9.0204569,7.6141073 8.5760315,8.0372438 7.7376997,7.9523018 7.4859762,7.45821 7.2366376,6.96666 7.3341706,6.3787501 7.7220629,6.0354182 7.9316459,5.8498262 8.0761723,5.752081 8.2279364,5.7335487 Z M 10.63926,13.456182 9.8864745,15.841498 c -1.0153553,3.219188 -1.2104836,3.663197 -1.633258,3.775951 -0.5155168,0.134352 -1.0274044,0.571933 -1.20926,1.031824 C 6.923466,20.93179 6.856066,22.042545 6.7970236,24.252005 l -0.084406,3.187033 1.0045299,0.03712 0.9997186,0.03712 0.1505612,0.630959 c 0.464915,1.92315 2.9533443,1.894975 3.4724693,-0.03954 l 0.15782,-0.591393 3.55196,-0.03214 3.549576,0.03214 0.157819,0.591393 c 0.522734,1.934528 3.008758,1.962716 3.474876,0.03954 l 0.150561,-0.630959 0.999698,-0.03712 1.006935,-0.03712 -0.08441,-3.187033 c -0.06014,-2.20946 -0.133763,-3.320215 -0.246912,-3.602732 -0.183121,-0.45735 -0.692562,-0.894997 -1.210484,-1.031824 -0.421551,-0.1127 -0.617903,-0.556763 -1.633258,-3.775951 l -0.752806,-2.385316 -5.410438,0.02959 -5.410459,-0.02959 z m 5.119,1.776614 0,0.0027 c 0.09643,-0.0013 0.191416,0.0013 0.289074,0 0.09643,0 0.193905,-0.0013 0.291458,0 l 0,-0.0027 c 1.732036,-0.004 3.218341,0.05433 3.300258,0.163307 0.108462,0.138092 1.235764,3.879897 1.235764,4.090194 0,0.03672 -1.915094,0.06092 -4.262606,0.04949 l -0.249318,0 0,-0.0054 c -0.09643,0 -0.212009,0 -0.315556,0.0027 -0.108462,-0.0027 -0.213192,-0.0027 -0.313172,-0.0027 l 0,0.0054 -0.249338,0 c -2.347491,0.0121 -4.265011,-0.01345 -4.265011,-0.04949 0,-0.210297 1.134622,-3.952102 1.239414,-4.090194 0.08441,-0.108934 1.568222,-0.167113 3.299033,-0.163307 z m -5.170763,6.745236 c 0.914172,0 1.481473,0.607868 1.481473,1.593509 0,1.278299 -1.223756,2.003843 -2.2631889,1.336182 C 8.9156861,24.338897 8.8072654,23.138722 9.5805407,22.391257 9.9394613,22.04666 10.103295,21.978032 10.587497,21.978032 Z m 10.922059,0 c 0.484202,0 0.649218,0.06738 1.009362,0.413225 0.770849,0.747465 0.662449,1.94764 -0.226444,2.516466 -1.039453,0.667661 -2.262006,-0.05662 -2.262006,-1.336182 0,-0.984377 0.566118,-1.593509 1.479088,-1.593509 z"
       id="path3-6"
       style="fill:#a01914;fill-opacity:1" />
  </g>
</svg>
