<?xml version="1.0" encoding="UTF-8" standalone="no"?>
<!-- Created with Inkscape (http://www.inkscape.org/) -->

<svg
   xmlns:dc="http://purl.org/dc/elements/1.1/"
   xmlns:cc="http://creativecommons.org/ns#"
   xmlns:rdf="http://www.w3.org/1999/02/22-rdf-syntax-ns#"
   xmlns:svg="http://www.w3.org/2000/svg"
   xmlns="http://www.w3.org/2000/svg"
   xmlns:sodipodi="http://sodipodi.sourceforge.net/DTD/sodipodi-0.dtd"
   xmlns:inkscape="http://www.inkscape.org/namespaces/inkscape"
   width="32"
   height="32"
   id="svg3347"
   version="1.1"
   inkscape:version="0.91 r13725"
   viewBox="0 0 32 32"
   sodipodi:docname="supermarket_.svg">
  <defs
     id="defs3349" />
  <sodipodi:namedview
     id="base"
     pagecolor="#ffffff"
     bordercolor="#666666"
     borderopacity="1.0"
     inkscape:pageopacity="0.0"
     inkscape:pageshadow="2"
     inkscape:zoom="20"
     inkscape:cx="13.643268"
     inkscape:cy="16"
     inkscape:current-layer="layer1"
     showgrid="true"
     inkscape:grid-bbox="true"
     inkscape:document-units="px"
     inkscape:window-width="1920"
     inkscape:window-height="1018"
     inkscape:window-x="-8"
     inkscape:window-y="-8"
     inkscape:window-maximized="1" />
  <metadata
     id="metadata3352">
    <rdf:RDF>
      <cc:Work
         rdf:about="">
        <dc:format>image/svg+xml</dc:format>
        <dc:type
           rdf:resource="http://purl.org/dc/dcmitype/StillImage" />
        <dc:title />
      </cc:Work>
    </rdf:RDF>
  </metadata>
  <g
     id="layer1"
     inkscape:label="Layer 1"
     inkscape:groupmode="layer">
    <path
       inkscape:connector-curvature="0"
       style="fill:#a01914;fill-opacity:1"
       d="m 27.160499,5.7671703 c -0.25,0 -2.319,0.708 -2.763,0.946 -0.107,0.056 -0.217,0.377 -0.338,0.973 -0.098,0.489 -0.199,0.944 -0.224,1.012 -0.006,0.015 0.005,0.024 0.01,0.036 -1.9,-0.007 -5.275,-0.012 -9.112,-0.012 l -10.7399998,0 0.854,5.1319997 0.855,5.128 0.343,0.049 c 0.189,0.027 3.695,0.386 7.7919998,0.791 l 7.448,0.738 0,0.981 0,0.978 -7.448,0.002 c -8.0259998,0 -7.8019998,-0.015 -8.0499998,0.502 -0.152,0.322 -0.006,0.875 0.27,1.021 0.097,0.055 0.65,0.098 1.23,0.098 l 1.054,0 0,0.432 c 0,0.596 0.29,1.121 0.784,1.416 1.1319998,0.679 2.5369998,-0.146 2.5469998,-1.494 l 0.002,-0.354 3.51,0 3.511,0 0.039,0.553 c 0.049,0.67 0.306,1.078 0.864,1.363 1.096,0.555 2.438,-0.298 2.445,-1.563 l 0.004,-0.354 0.43,0 0.434,0 -0.004,-1.738 -0.003,-1.736 1.284,-5.949 c 0.705,-3.272 1.283,-5.9599997 1.285,-5.9729997 0,0 -0.008,0 -0.009,0 l 0.103,-0.305 c 0.1,-0.298 0.172,-0.347 0.871,-0.581 1.334,-0.447 1.568,-0.632 1.568,-1.237 10e-4,-0.401 -0.45,-0.855 -0.846,-0.855 z M 6.8594992,15.54417 c -0.122,-0.317 -0.483,-2.499 -0.425,-2.565 0.035,-0.041 0.854,-0.062 1.819,-0.048 l 1.7539998,0.026 0,1.333 0,1.332 -1.5489998,0.026 c -1.241,0.021 -1.559,0 -1.599,-0.104 z m 3.1949998,1.554 0,0.666 -0.4039998,-0.016 c -0.223,-0.008 -0.864,-0.057 -1.426,-0.109 -1.114,-0.102 -1.054,-0.061 -1.169,-0.803 l -0.063,-0.405 1.531,0 1.5309998,0 0,0.667 z m 0,-5.855 0,0.905 -1.9069998,0 c -1.442,0 -1.915,-0.029 -1.942,-0.119 -0.078,-0.26 -0.244,-1.259 -0.244,-1.468 l 0,-0.222 2.047,0 2.0459998,0 0,0.904 z m 3.427,6.044 c 0,0.629 -0.032,0.854 -0.12,0.848 -0.065,-0.007 -0.633,-0.07 -1.261,-0.136 -0.629,-0.07 -1.175,-0.13 -1.214,-0.134 -0.039,-0.004 -0.071,-0.326 -0.071,-0.721 l 0,-0.714 1.333,0 1.333,0 0,0.857 z m 0,-2.997 0,1.38 -1.333,0 -1.333,0 0,-1.38 0,-1.38 1.333,0 1.333,0 0,1.38 z m 0,-3.047 0,0.904 -1.333,0 -1.333,0 0,-0.904 0,-0.904 1.333,0 1.333,0 0,0.904 z m 3.426,6.188 -0.002,1.001 -0.354,-0.014 c -0.197,-0.006 -0.796,-0.055 -1.333,-0.107 l -0.976,-0.095 0,-0.894 0,-0.892 1.333,0 1.332,0 0,1.001 z m 0,-3.141 0,1.38 -1.332,0 -1.333,0 0,-1.38 0,-1.38 1.333,0 1.332,0 0,1.38 z m 0,-3.047 0,0.904 -1.332,0 -1.333,0 0,-0.904 0,-0.904 1.333,0 1.332,0 0,0.904 z m 3.477,3.047 0,1.332 -1.312,0.026 c -1.021,0.021 -1.321,-0.001 -1.358,-0.1 -0.027,-0.069 -0.039,-0.681 -0.021,-1.359 l 0.024,-1.232 1.332,0 1.332,0 0,1.333 0.003,0 z m 0.047,3.329 c 0,0.896 -0.03,1.189 -0.113,1.179 -1.646,-0.157 -2.49,-0.272 -2.561,-0.345 -0.051,-0.049 -0.08,-0.512 -0.063,-1.032 l 0.024,-0.943 1.358,-0.026 1.354,-0.026 0,1.193 z m 0,-6.378 0,0.906 -1.336,0 c -1.028,0 -1.348,-0.029 -1.385,-0.127 -0.027,-0.069 -0.037,-0.466 -0.021,-0.88 l 0.029,-0.753 1.358,-0.027 1.354,-0.026 0,0.907 z m 1.525,6.404 c -0.246,1.172 -0.264,1.215 -0.51,1.25 l -0.255,0.026 0,-1.243 0,-1.244 0.509,0 0.51,0 -0.254,1.211 z m 0.682,-3.213 -0.254,1.191 -0.595,0.028 -0.594,0.028 0,-1.385 0,-1.385 0.854,0 c 0.752,0 0.857,0.021 0.854,0.167 -0.001,0.091 -0.119,0.702 -0.265,1.356 z m 0.664,-3.141 -0.166,0.81 -0.973,0.027 -0.972,0.027 0,-0.908 0,-0.908 1.142,0 c 0.629,0 1.141,0.032 1.139,0.072 -0.002,0.039 -0.079,0.435 -0.17,0.88 z"
       id="path6" />
  </g>
</svg>
