<?xml version="1.0" encoding="UTF-8" standalone="no"?>
<!-- Created with Inkscape (http://www.inkscape.org/) -->

<svg
   xmlns:dc="http://purl.org/dc/elements/1.1/"
   xmlns:cc="http://creativecommons.org/ns#"
   xmlns:rdf="http://www.w3.org/1999/02/22-rdf-syntax-ns#"
   xmlns:svg="http://www.w3.org/2000/svg"
   xmlns="http://www.w3.org/2000/svg"
   xmlns:sodipodi="http://sodipodi.sourceforge.net/DTD/sodipodi-0.dtd"
   xmlns:inkscape="http://www.inkscape.org/namespaces/inkscape"
   width="32"
   height="32"
   id="svg3361"
   version="1.1"
   inkscape:version="0.91 r13725"
   viewBox="0 0 32 32"
   sodipodi:docname="car_.svg">
  <defs
     id="defs3363" />
  <sodipodi:namedview
     id="base"
     pagecolor="#ffffff"
     bordercolor="#666666"
     borderopacity="1.0"
     inkscape:pageopacity="0.0"
     inkscape:pageshadow="2"
     inkscape:zoom="20"
     inkscape:cx="13.643268"
     inkscape:cy="16"
     inkscape:current-layer="layer1"
     showgrid="true"
     inkscape:grid-bbox="true"
     inkscape:document-units="px"
     inkscape:window-width="1920"
     inkscape:window-height="1018"
     inkscape:window-x="-8"
     inkscape:window-y="-8"
     inkscape:window-maximized="1" />
  <metadata
     id="metadata3366">
    <rdf:RDF>
      <cc:Work
         rdf:about="">
        <dc:format>image/svg+xml</dc:format>
        <dc:type
           rdf:resource="http://purl.org/dc/dcmitype/StillImage" />
        <dc:title />
      </cc:Work>
    </rdf:RDF>
  </metadata>
  <g
     id="layer1"
     inkscape:label="Layer 1"
     inkscape:groupmode="layer">
    <path
       inkscape:connector-curvature="0"
       style="fill:#a01914;fill-opacity:1"
       d="m 27.169,18.758687 c -0.07,-2.468 -0.158,-3.709 -0.291,-4.023 -0.215,-0.512 -0.814,-0.998 -1.424,-1.151 -0.494,-0.126 -0.723,-0.623 -1.916,-4.218 l -0.885,-2.666 -6.356,0.033 -6.355,-0.034 -0.884,2.667 c -1.194,3.595 -1.422,4.092 -1.918,4.218 -0.606,0.15 -1.208,0.637 -1.42,1.151 -0.136,0.314 -0.221,1.556 -0.29,4.023 l -0.1,3.559 1.18,0.041 1.175,0.043 0.176,0.706 c 0.547,2.146 3.471,2.116 4.08,-0.046 l 0.186,-0.66 4.171,-0.036 4.168,0.036 0.186,0.66 c 0.613,2.162 3.535,2.192 4.082,0.046 l 0.178,-0.706 1.174,-0.043 1.184,-0.041 -0.101,-3.559 z m -18.205,0.732 c -1.045,-0.635 -1.175,-1.975 -0.266,-2.809 0.421,-0.386 0.615,-0.462 1.184,-0.462 1.074,0 1.739,0.68 1.739,1.779 10e-4,1.43 -1.436,2.24 -2.657,1.492 z m 7.994,-5.999 c -0.104,0 -0.195,0 -0.292,0 l 0,-0.005 c -0.117,0 -0.248,0 -0.371,0.003 -0.118,-0.003 -0.251,-0.003 -0.367,-0.003 l 0,0.005 c -0.099,0 -0.19,0 -0.293,0 -2.758,0.014 -5.01,-0.014 -5.01,-0.055 0,-0.235 1.332,-4.413 1.455,-4.567 0.098,-0.121 1.842,-0.187 3.876,-0.183 l 0,0.003 c 0.115,-10e-4 0.227,0 0.339,-10e-4 0.117,0 0.227,0 0.344,10e-4 l 0,-0.003 c 2.033,-0.004 3.779,0.062 3.875,0.183 0.123,0.155 1.453,4.332 1.453,4.567 0.001,0.041 -2.251,0.069 -5.009,0.055 z m 6.672,5.999 c -1.221,0.748 -2.656,-0.062 -2.656,-1.491 0,-1.1 0.666,-1.779 1.738,-1.779 0.568,0 0.762,0.073 1.184,0.462 0.908,0.833 0.781,2.173 -0.266,2.808 z"
       id="path20" />
  </g>
</svg>
