<?xml version="1.0" encoding="UTF-8" standalone="no"?>
<!-- Created with Inkscape (http://www.inkscape.org/) -->

<svg
   xmlns:dc="http://purl.org/dc/elements/1.1/"
   xmlns:cc="http://creativecommons.org/ns#"
   xmlns:rdf="http://www.w3.org/1999/02/22-rdf-syntax-ns#"
   xmlns:svg="http://www.w3.org/2000/svg"
   xmlns="http://www.w3.org/2000/svg"
   xmlns:sodipodi="http://sodipodi.sourceforge.net/DTD/sodipodi-0.dtd"
   xmlns:inkscape="http://www.inkscape.org/namespaces/inkscape"
   width="1000"
   height="1000"
   id="svg12968"
   version="1.1"
   inkscape:version="0.91 r13725"
   viewBox="0 0 1000 1000"
   sodipodi:docname="shop_car_repair.svg">
  <defs
     id="defs12970" />
  <sodipodi:namedview
     id="base"
     pagecolor="#ffffff"
     bordercolor="#666666"
     borderopacity="1.0"
     inkscape:pageopacity="0.0"
     inkscape:pageshadow="2"
     inkscape:zoom="0.5"
     inkscape:cx="9.7405635"
     inkscape:cy="336"
     inkscape:current-layer="layer1"
     showgrid="true"
     inkscape:grid-bbox="true"
     inkscape:document-units="px"
     inkscape:window-width="1920"
     inkscape:window-height="1018"
     inkscape:window-x="-8"
     inkscape:window-y="-8"
     inkscape:window-maximized="1" />
  <metadata
     id="metadata12973">
    <rdf:RDF>
      <cc:Work
         rdf:about="">
        <dc:format>image/svg+xml</dc:format>
        <dc:type
           rdf:resource="http://purl.org/dc/dcmitype/StillImage" />
        <dc:title></dc:title>
      </cc:Work>
    </rdf:RDF>
  </metadata>
  <g
     id="layer1"
     inkscape:label="Layer 1"
     inkscape:groupmode="layer"
     transform="translate(0,968)">
    <path
       inkscape:connector-curvature="0"
       d="m 755.88758,-867.91723 c -57.34794,0 -84.52218,10.17405 -124.57678,46.80667 l -27.8358,25.40948 -218.14056,0 -218.22944,0 -22.7628,11.29301 c -12.48313,6.20054 -26.46787,16.49088 -31.01223,22.95753 -28.364448,40.20838 -2.64322,92.49439 50.24542,102.23232 11.46989,2.13212 115.35742,4.94629 231.3316,6.31562 l 210.55345,2.52381 28.0128,23.03144 c 31.62897,26.13391 46.18566,34.57077 70.84578,41.53208 l 0,0.36332 c 10.58731,2.96808 32.3794,4.51016 56.33244,3.86448 33.92355,-0.91249 42.87857,-2.58855 66.69943,-12.70474 15.08683,-6.42868 37.05517,-20.15304 48.74533,-30.46197 l 21.26345,-18.72264 -40.71693,-0.36343 c -64.27346,-0.32305 -66.21484,-1.04991 -121.84163,-41.90318 -27.39454,-20.08481 -49.8034,-37.92644 -49.8034,-39.60024 0,-1.71215 22.98233,-19.914 51.34754,-40.41756 l 51.26019,-37.2226 54.03855,0 c 29.9975,0 53.99456,-1.55064 53.99456,-3.42029 0,-6.58052 -49.67121,-41.52077 -73.05227,-51.48726 -20.95357,-8.90124 -28.58474,-10.02989 -66.6987,-10.02989 z m -559.2264,109.73595 c 5.55986,-0.55726 11.42507,1.28009 20.24719,5.2007 21.96907,9.81466 26.68889,37.26621 8.77882,51.26516 -16.27705,12.70515 -46.9809,10.15467 -56.20026,-4.68099 -9.13201,-14.75933 -5.55987,-32.41198 8.64666,-42.7209 7.67596,-5.57261 12.96923,-8.50751 18.52759,-9.06397 z m 88.31457,231.88065 -27.57072,71.62176 c -37.18733,96.6597 -44.33389,109.99156 -59.81797,113.37713 -18.88077,4.03407 -37.62862,17.17292 -44.28907,30.98166 -4.41296,8.48289 -6.88148,41.83454 -9.0439,108.17603 l -3.09137,95.69421 36.79084,1.11457 36.61463,1.11457 5.5143,18.945243 c 17.02748,57.744716 108.16605,56.89873 127.17897,-1.187232 l 5.78015,-17.757231 130.0903,-0.96504 130.00299,0.96504 5.78011,17.757231 c 19.1451,58.086353 110.19557,58.932729 127.26711,1.187232 l 5.51429,-18.945243 36.61387,-1.11457 36.87893,-1.11457 -3.09151,-95.69421 c -2.20262,-66.34149 -4.89906,-99.69314 -9.04314,-108.17603 -6.70679,-13.73244 -25.36503,-26.87328 -44.33389,-30.98166 -15.43928,-3.38394 -22.63066,-16.71743 -59.81797,-113.37713 l -27.57147,-71.62176 -198.15694,0.88847 -198.15771,-0.88847 z m 187.48304,53.34481 0,0.0811 c 3.53174,-0.039 7.01059,0.039 10.58731,0 3.53174,0 7.10176,-0.039 10.67463,0 l 0,-0.0811 c 63.43571,-0.12011 117.87153,1.63132 120.87174,4.90347 3.97241,4.14637 45.25977,116.49822 45.25977,122.81262 0,1.10256 -70.14019,1.82919 -156.11766,1.486 l -9.13126,0 0,-0.16215 c -3.53174,0 -7.76482,0 -11.55722,0.0811 -3.97241,-0.0811 -7.80814,-0.0811 -11.4699,-0.0811 l 0,0.16215 -9.13199,0 c -85.9767,0.36331 -156.20575,-0.40386 -156.20575,-1.486 0,-6.3144 41.55546,-118.66625 45.39346,-122.81262 3.09151,-3.27086 57.43603,-5.01775 120.82687,-4.90347 z m -189.37886,202.53321 c 33.48149,0 54.25885,18.25191 54.25885,47.84687 0,38.38235 -44.81998,60.16762 -82.88915,40.12035 -32.59967,-17.07963 -36.57057,-53.11622 -8.24941,-75.55968 13.14544,-10.34691 19.14584,-12.40754 36.87971,-12.40754 z m 400.0197,0 c 17.73386,0 23.77756,2.02316 36.96781,12.40754 28.2323,22.44346 24.26216,58.48005 -8.29349,75.55968 -38.0699,20.04727 -82.84582,-1.70007 -82.84582,-40.12035 0,-29.55701 20.73403,-47.84687 54.1715,-47.84687 z"
       id="path3-6"
       style="fill:#a01914;fill-opacity:1" />
  </g>
</svg>
