<?xml version="1.0" encoding="UTF-8" standalone="no"?>
<!-- Created with Inkscape (http://www.inkscape.org/) -->

<svg
   xmlns:dc="http://purl.org/dc/elements/1.1/"
   xmlns:cc="http://creativecommons.org/ns#"
   xmlns:rdf="http://www.w3.org/1999/02/22-rdf-syntax-ns#"
   xmlns:svg="http://www.w3.org/2000/svg"
   xmlns="http://www.w3.org/2000/svg"
   xmlns:sodipodi="http://sodipodi.sourceforge.net/DTD/sodipodi-0.dtd"
   xmlns:inkscape="http://www.inkscape.org/namespaces/inkscape"
   width="1000"
   height="1000"
   id="svg3357"
   version="1.1"
   inkscape:version="0.91 r13725"
   viewBox="0 0 1000 1000"
   sodipodi:docname="shop_kiosk.svg">
  <defs
     id="defs3359" />
  <sodipodi:namedview
     id="base"
     pagecolor="#ffffff"
     bordercolor="#666666"
     borderopacity="1.0"
     inkscape:pageopacity="0.0"
     inkscape:pageshadow="2"
     inkscape:zoom="0.5"
     inkscape:cx="9.2008305"
     inkscape:cy="496"
     inkscape:current-layer="layer1"
     showgrid="true"
     inkscape:grid-bbox="true"
     inkscape:document-units="px"
     inkscape:window-width="1920"
     inkscape:window-height="1018"
     inkscape:window-x="-8"
     inkscape:window-y="-8"
     inkscape:window-maximized="1" />
  <metadata
     id="metadata3362">
    <rdf:RDF>
      <cc:Work
         rdf:about="">
        <dc:format>image/svg+xml</dc:format>
        <dc:type
           rdf:resource="http://purl.org/dc/dcmitype/StillImage" />
        <dc:title></dc:title>
      </cc:Work>
    </rdf:RDF>
  </metadata>
  <g
     id="layer1"
     inkscape:label="Layer 1"
     inkscape:groupmode="layer"
     transform="translate(0,968)">
    <path
       id="path5321"
       style="fill:#a01914;fill-opacity:1"
       d="m 163.90342,-18.592752 c -13.12063,-4.33145 -26.54907,-13.638697 -33.78273,-23.268119 -13.46691,-18.149133 -13.12062,-11.311886 -13.12062,-243.169739 0,-236.54728 -0.80801,-224.16148 15.27533,-233.32554 7.11823,-4.00928 19.58475,-4.15247 379.30535,-4.15247 l 371.95626,0 c 0,0 9.69618,4.68942 11.96632,6.62247 2.34709,1.89724 5.84849,8.55551 5.84849,8.55551 l 1.19278,219.97321 c 0.65411,120.99422 0.38477,222.980179 -0.61563,226.667281 -4.73266,18.256524 -26.04887,37.73015 -47.05726,43.135513 -5.34829,1.324493 -131.86036,2.147827 -345.25328,2.112029 -277.14916,-0.143188 -338.28897,-0.715942 -345.71501,-3.150145 l 0,0 z m 674.30779,-283.584678 0,-160.55002 -327.24609,0 -327.28457,0 0,160.55002 0,160.51423 327.28457,0 327.24609,0 0,-160.51423 z M 116.73073,-574.45022 c -16.04487,-4.11667 -34.513784,-14.17565 -43.902149,-23.80507 l -8.195581,-8.44812 0,-53.2303 0,-53.23029 30.358279,-29.24623 c 16.698981,-16.0729 54.367871,-53.65986 83.725751,-83.51465 29.35788,-29.81899 61.21676,-61.96479 70.83598,-71.41523 l 17.46852,-17.14681 42.8248,0 c 36.28372,0 42.82479,0.50116 42.82479,3.29333 0,3.86609 -40.40075,63.46827 -97.15419,143.29582 -28.62681,40.30754 -40.82399,59.3874 -41.78592,65.32972 -0.73106,4.61782 -2.03927,27.74274 -2.92424,51.36883 l -1.57755,42.95653 -8.46492,8.6629 c -10.42725,10.73913 -24.85609,18.75769 -43.63282,24.16305 -16.39116,4.76101 -24.8176,4.9758 -40.40075,0.96652 l 0,0 z m 174.06953,-2.39841 c -17.27613,-4.51043 -31.6665,-12.60058 -44.67169,-25.09377 l -10.6581,-10.27377 1.46212,-27.67116 c 0.80801,-15.21377 1.46212,-37.19319 1.46212,-48.79144 l 0,-21.1203 15.77553,-19.86739 c 32.24365,-40.62972 77.26163,-107.21233 110.35177,-163.2706 l 12.77433,-21.62146 36.47611,0 c 20.04647,0 36.47611,0.68015 36.47611,1.50348 0,0.75174 -4.19398,15.50015 -9.34989,32.64696 -12.23565,40.8087 -26.85688,95.00552 -37.51498,139.42973 -7.92625,32.89754 -8.69578,39.44841 -10.004,83.44305 -1.61603,53.69566 -1.84689,54.4116 -20.1619,66.15305 -24.3174,15.57174 -56.59953,21.22768 -82.41753,14.53362 l 0,0 z m 188.65227,4.65363 c -19.08454,-4.29565 -42.01678,-15.78653 -51.94382,-26.0245 l -8.96512,-9.23565 1.46212,-51.22566 1.46212,-51.22565 21.62403,-86.27103 c 11.88936,-47.46696 23.317,-93.50204 25.47171,-102.30812 l 3.88617,-16.07291 33.85967,0 33.89816,0 1.65451,10.52435 c 0.84649,5.79913 8.88816,42.92073 17.96871,82.51233 25.12542,110.93524 24.62522,106.85437 24.04807,164.95306 l -0.57716,50.90348 -6.38716,6.33609 c -24.77913,24.37783 -62.79431,34.93798 -97.46201,27.13421 l 0,0 z m 371.91778,4.47464 c -19.3154,-4.43884 -33.59034,-11.38348 -46.51858,-22.62377 l -12.08175,-10.56015 0.53868,-52.44276 0.65411,-52.40695 -18.50739,-31.85943 c -18.23806,-31.03609 -65.14141,-105.1719 -97.07724,-153.06843 l -15.85248,-23.84087 47.28811,0 47.28812,0 15.1599,18.29232 c 27.51099,33.18392 100.15539,117.30712 133.86116,155.25205 l 33.24405,37.30059 -1.38517,50.97507 c -1.65451,58.49247 0,54.19682 -26.97231,70.55609 -12.54347,7.58899 -40.05446,18.04174 -45.71057,17.3258 -1.38516,-0.0716 -7.38756,-1.39608 -13.92864,-2.89956 l 0,0 z M 660.9481,-569.7966 c -22.35508,-6.87304 -41.43963,-19.11565 -47.86527,-30.64232 -3.15511,-5.72754 -3.23206,-11.84884 -0.69258,-50.29493 3.38596,-50.11594 3.19358,-51.40464 -19.62323,-140.8974 -6.54107,-25.55914 -15.54467,-61.46363 -20.04647,-79.72016 -4.50179,-18.25652 -8.81121,-35.47493 -9.42684,-38.19551 l -1.23126,-5.0116 39.97751,0 40.05446,0 7.88776,14.96319 c 14.12103,26.77624 62.02478,109.18118 89.11252,153.35481 l 26.47211,43.17131 0.88497,49.47159 0.88497,49.4716 -12.77433,10.98971 c -7.11823,6.04971 -19.54627,14.13986 -28.01119,17.93435 -12.85129,5.90652 -18.43044,7.08783 -35.70657,7.62479 -12.38957,0.46536 -24.12502,-0.42957 -29.89656,-2.21943 l 0,0 z"
       inkscape:connector-curvature="0" />
  </g>
</svg>
