<?xml version="1.0" encoding="UTF-8" standalone="no"?>
<!-- Created with Inkscape (http://www.inkscape.org/) -->

<svg
   xmlns:dc="http://purl.org/dc/elements/1.1/"
   xmlns:cc="http://creativecommons.org/ns#"
   xmlns:rdf="http://www.w3.org/1999/02/22-rdf-syntax-ns#"
   xmlns:svg="http://www.w3.org/2000/svg"
   xmlns="http://www.w3.org/2000/svg"
   xmlns:sodipodi="http://sodipodi.sourceforge.net/DTD/sodipodi-0.dtd"
   xmlns:inkscape="http://www.inkscape.org/namespaces/inkscape"
   width="352.78mm"
   height="352.78mm"
   viewBox="0 0 1250.0079 1250.0079"
   id="svg17887"
   version="1.1"
   inkscape:version="0.91 r13725"
   sodipodi:docname="shop_laundry.svg">
  <defs
     id="defs17889" />
  <sodipodi:namedview
     id="base"
     pagecolor="#ffffff"
     bordercolor="#666666"
     borderopacity="1.0"
     inkscape:pageopacity="0.0"
     inkscape:pageshadow="2"
     inkscape:zoom="0.5"
     inkscape:cx="80"
     inkscape:cy="520"
     inkscape:document-units="px"
     inkscape:current-layer="layer1"
     showgrid="false"
     inkscape:window-width="1920"
     inkscape:window-height="1018"
     inkscape:window-x="-8"
     inkscape:window-y="-8"
     inkscape:window-maximized="1" />
  <metadata
     id="metadata17892">
    <rdf:RDF>
      <cc:Work
         rdf:about="">
        <dc:format>image/svg+xml</dc:format>
        <dc:type
           rdf:resource="http://purl.org/dc/dcmitype/StillImage" />
        <dc:title></dc:title>
      </cc:Work>
    </rdf:RDF>
  </metadata>
  <g
     inkscape:label="Layer 1"
     inkscape:groupmode="layer"
     id="layer1"
     transform="translate(0,197.64569)">
    <path
       inkscape:connector-curvature="0"
       d="m 322.96695,67.697719 0,359.660601 0,359.6606 302.019,0 302.055,0 0,-359.6606 0,-359.660601 -302.055,0 -302.019,0 z m 17.964,143.627401 283.697,0.3578 283.627,0.3578 0.357,279.214 0.358,279.078 -284.019,0 -284.056,0 0,-279.4967 0,-279.4931 z m 288.027,109.5893 a 145.98908,145.98908 0 0 0 -145.999,146.0034 145.98908,145.98908 0 0 0 145.999,146.0035 145.98908,145.98908 0 0 0 145.929,-146.0035 145.98908,145.98908 0 0 0 -145.929,-146.0034 z"
       id="path5958"
       style="fill:#a01914;fill-opacity:1" />
  </g>
</svg>
