<?xml version="1.0" encoding="UTF-8" standalone="no"?>
<!-- Created with Inkscape (http://www.inkscape.org/) -->

<svg
   xmlns:dc="http://purl.org/dc/elements/1.1/"
   xmlns:cc="http://creativecommons.org/ns#"
   xmlns:rdf="http://www.w3.org/1999/02/22-rdf-syntax-ns#"
   xmlns:svg="http://www.w3.org/2000/svg"
   xmlns="http://www.w3.org/2000/svg"
   xmlns:sodipodi="http://sodipodi.sourceforge.net/DTD/sodipodi-0.dtd"
   xmlns:inkscape="http://www.inkscape.org/namespaces/inkscape"
   width="1000"
   height="1000"
   id="svg3347"
   version="1.1"
   inkscape:version="0.91 r13725"
   viewBox="0 0 1000 1000"
   sodipodi:docname="shop_supermarket.svg">
  <defs
     id="defs3349" />
  <sodipodi:namedview
     id="base"
     pagecolor="#ffffff"
     bordercolor="#666666"
     borderopacity="1.0"
     inkscape:pageopacity="0.0"
     inkscape:pageshadow="2"
     inkscape:zoom="0.5"
     inkscape:cx="11.512342"
     inkscape:cy="416"
     inkscape:current-layer="layer1"
     showgrid="true"
     inkscape:grid-bbox="true"
     inkscape:document-units="px"
     inkscape:window-width="1920"
     inkscape:window-height="1018"
     inkscape:window-x="-8"
     inkscape:window-y="-8"
     inkscape:window-maximized="1" />
  <metadata
     id="metadata3352">
    <rdf:RDF>
      <cc:Work
         rdf:about="">
        <dc:format>image/svg+xml</dc:format>
        <dc:type
           rdf:resource="http://purl.org/dc/dcmitype/StillImage" />
        <dc:title></dc:title>
      </cc:Work>
    </rdf:RDF>
  </metadata>
  <g
     id="layer1"
     inkscape:label="Layer 1"
     inkscape:groupmode="layer"
     transform="translate(0,968)">
    <path
       inkscape:connector-curvature="0"
       style="fill:#a01914;fill-opacity:1"
       d="m 937.45261,-834.23283 c -9.61992,0 -89.23441,25.47769 -106.3194,34.04222 -4.11732,2.01519 -8.35009,13.56651 -13.00613,35.01383 -3.77101,17.59688 -7.65746,33.97025 -8.61946,36.41726 -0.23087,0.53978 0.1924,0.86365 0.3848,1.29548 -73.11142,-0.2519 -202.9804,-0.43183 -350.62699,-0.43183 l -413.271931,0 32.861661,184.67725 32.90014,184.53331 13.19854,1.76329 c 7.27266,0.9716 142.18247,13.89038 299.83378,28.46448 l 286.59678,26.55725 0,35.30171 0,35.19376 -286.59678,0.072 c -308.83803,0 -300.21858,-0.53978 -309.76155,18.06469 -5.84891,11.58731 -0.23087,31.48725 10.38952,36.74113 3.73253,1.9792 25.0118,3.52657 47.33003,3.52657 l 40.5576,0 0,15.54571 c 0,21.44732 11.15911,40.33967 30.16808,50.95537 43.55901,24.434115 97.62298,-5.25387 98.00778,-53.76224 l 0.077,-12.73884 135.06373,0 135.10222,0 1.5007,19.89994 c 1.88551,24.11025 11.77479,38.79231 33.24646,49.04815 42.17375,19.971921 93.8135,-10.72366 94.08286,-56.24523 l 0.15392,-12.73885 16.54627,0 16.70018,0 -0.15391,-62.54268 -0.11544,-62.47072 49.40793,-214.07736 c 27.12818,-117.74434 49.36945,-214.47318 49.44641,-214.94099 0,0 -0.30784,0 -0.34632,0 l 3.96341,-10.97556 c 3.84797,-10.72366 6.61851,-12.48695 33.51581,-20.90754 51.33192,-16.08549 60.33617,-22.74279 60.33617,-44.51398 0.0385,-14.43016 -17.31587,-30.76755 -32.55383,-30.76755 z m -781.1763,351.82959 c -4.69452,-11.40738 -18.58569,-89.9276 -16.35387,-92.30264 1.34679,-1.4754 32.86166,-2.2311 69.99457,-1.7273 l 67.49337,0.93562 0,47.96859 0,47.9326 -59.60504,0.93562 c -47.7533,0.75569 -59.98984,0 -61.52903,-3.74249 z m 122.94262,55.92137 0,23.9663 -15.54579,-0.57577 c -8.58097,-0.28788 -33.24646,-2.05117 -54.87205,-3.92241 -42.86638,-3.67051 -40.5576,-2.19511 -44.98276,-28.8963 l -2.42422,-14.5741 58.91241,0 58.91241,0 0,24.00228 z m 0,-210.69472 0,32.56681 -73.38077,0 c -55.48772,0 -73.68862,-1.04357 -74.72757,-4.28226 -3.00142,-9.35622 -9.38905,-45.30567 -9.38905,-52.82662 l 0,-7.98877 78.76794,0 78.72945,0 0,32.53084 z m 131.86992,217.49597 c 0,22.63484 -1.23135,30.73156 -4.61756,30.51565 -2.50118,-0.2519 -24.35765,-2.51898 -48.5229,-4.89402 -24.20373,-2.51898 -45.21364,-4.67811 -46.71435,-4.82205 -1.50071,-0.14394 -2.73206,-11.73125 -2.73206,-25.9455 l 0,-25.6936 51.29343,0 51.29344,0 0,30.83952 z m 0,-107.84835 0,49.6599 -51.29344,0 -51.29343,0 0,-49.6599 0,-49.6599 51.29343,0 51.29344,0 0,49.6599 z m 0,-109.64762 0,32.53083 -51.29344,0 -51.29343,0 0,-32.53083 0,-32.53084 51.29343,0 51.29344,0 0,32.53084 z m 131.83144,222.67787 -0.077,36.02142 -13.62181,-0.50379 c -7.5805,-0.21592 -30.62984,-1.9792 -51.29344,-3.85045 l -37.55618,-3.41861 0,-32.17098 0,-32.09901 51.29343,0 51.25496,0 0,36.02142 z m 0,-113.03025 0,49.6599 -51.25496,0 -51.29343,0 0,-49.6599 0,-49.6599 51.29343,0 51.25496,0 0,49.6599 z m 0,-109.64762 0,32.53083 -51.25496,0 -51.29343,0 0,-32.53083 0,-32.53084 51.29343,0 51.25496,0 0,32.53084 z m 133.7939,109.64762 0,47.9326 -50.48536,0.93562 c -39.28777,0.75569 -50.83168,-0.036 -52.25543,-3.59854 -1.03895,-2.483 -1.5007,-24.50609 -0.80807,-48.90421 l 0.92351,-44.33406 51.25496,0 51.25495,0 0,47.96859 0.11544,0 z m 1.80855,119.79551 c 0,32.24295 -1.15439,42.78669 -4.34821,42.42683 -63.33758,-5.64971 -95.81444,-9.78804 -98.5465,-12.41497 -1.96246,-1.76329 -3.07838,-18.42455 -2.42422,-37.13697 l 0.92351,-33.93427 52.25543,-0.93562 52.10151,-0.93562 0,42.93062 z m 0,-229.51511 0,32.60281 -51.40888,0 c -39.55712,0 -51.87063,-1.04358 -53.29438,-4.57015 -1.03895,-2.483 -1.42374,-16.76921 -0.80807,-31.66718 l 1.11591,-27.09704 52.25543,-0.9716 52.10151,-0.93563 0,32.63879 z m 58.68153,230.45073 c -9.466,42.17493 -10.15864,43.72231 -19.62464,44.9818 l -9.81232,0.93562 0,-44.7299 0,-44.76588 19.58616,0 19.62465,0 -9.77385,43.57836 z m 26.24316,-115.6212 -9.77385,42.85865 -22.89541,1.0076 -22.85694,1.00759 0,-49.83983 0,-49.83983 32.86166,0 c 28.93673,0 32.9771,0.7557 32.86166,6.00957 -0.0385,3.27467 -4.57909,25.26177 -10.19712,48.79625 z m 25.55052,-113.03025 -6.38763,29.1482 -37.44075,0.97161 -37.40226,0.9716 0,-32.67477 0,-32.67478 43.94381,0 c 24.20373,0 43.90533,1.15154 43.82837,2.59095 -0.077,1.40343 -3.03989,15.65367 -6.54154,31.66719 z"
       id="path6" />
  </g>
</svg>
