<?xml version="1.0" encoding="UTF-8" standalone="no"?>
<!-- Created with Inkscape (http://www.inkscape.org/) -->

<svg
   xmlns:dc="http://purl.org/dc/elements/1.1/"
   xmlns:cc="http://creativecommons.org/ns#"
   xmlns:rdf="http://www.w3.org/1999/02/22-rdf-syntax-ns#"
   xmlns:svg="http://www.w3.org/2000/svg"
   xmlns="http://www.w3.org/2000/svg"
   xmlns:sodipodi="http://sodipodi.sourceforge.net/DTD/sodipodi-0.dtd"
   xmlns:inkscape="http://www.inkscape.org/namespaces/inkscape"
   width="32"
   height="32"
   id="svg13579"
   version="1.1"
   inkscape:version="0.91 r13725"
   viewBox="0 0 32 32"
   sodipodi:docname="shop_laundry.svg">
  <defs
     id="defs13581" />
  <sodipodi:namedview
     id="base"
     pagecolor="#ffffff"
     bordercolor="#666666"
     borderopacity="1.0"
     inkscape:pageopacity="0.0"
     inkscape:pageshadow="2"
     inkscape:zoom="20"
     inkscape:cx="11.871489"
     inkscape:cy="16"
     inkscape:current-layer="layer1"
     showgrid="true"
     inkscape:grid-bbox="true"
     inkscape:document-units="px"
     inkscape:window-width="1920"
     inkscape:window-height="1018"
     inkscape:window-x="-8"
     inkscape:window-y="-8"
     inkscape:window-maximized="1" />
  <metadata
     id="metadata13584">
    <rdf:RDF>
      <cc:Work
         rdf:about="">
        <dc:format>image/svg+xml</dc:format>
        <dc:type
           rdf:resource="http://purl.org/dc/dcmitype/StillImage" />
        <dc:title></dc:title>
      </cc:Work>
    </rdf:RDF>
  </metadata>
  <g
     id="layer1"
     inkscape:label="Layer 1"
     inkscape:groupmode="layer">
    <path
       inkscape:connector-curvature="0"
       d="m 5.53449,2.9394 0,13.2606 0,13.2606 10.361382,0 10.362618,0 0,-13.2606 0,-13.2606 -10.362618,0 -10.361382,0 z m 0.6162865,5.2955112 9.7328145,0.013028 9.730399,0.013028 0.01178,10.2945608 0.01178,10.289537 -9.743843,0 -9.7451393,0 0,-10.304983 0,-10.3048381 z m 9.8813605,4.0405268 a 5.0084554,5.3825823 0 0 0 -5.008791,5.383118 5.0084554,5.3825823 0 0 0 5.008791,5.383104 5.0084554,5.3825823 0 0 0 5.006391,-5.383104 5.0084554,5.3825823 0 0 0 -5.006391,-5.383118 z"
       id="path5958"
       style="fill:#a01914;fill-opacity:1" />
  </g>
</svg>
