<?xml version="1.0" encoding="UTF-8" standalone="no"?>
<!-- Created with Inkscape (http://www.inkscape.org/) -->

<svg
   xmlns:dc="http://purl.org/dc/elements/1.1/"
   xmlns:cc="http://creativecommons.org/ns#"
   xmlns:rdf="http://www.w3.org/1999/02/22-rdf-syntax-ns#"
   xmlns:svg="http://www.w3.org/2000/svg"
   xmlns="http://www.w3.org/2000/svg"
   xmlns:sodipodi="http://sodipodi.sourceforge.net/DTD/sodipodi-0.dtd"
   xmlns:inkscape="http://www.inkscape.org/namespaces/inkscape"
   width="1000"
   height="1000"
   id="svg3349"
   version="1.1"
   inkscape:version="0.91 r13725"
   viewBox="0 0 1000 1000"
   sodipodi:docname="shop_car_rental.svg">
  <defs
     id="defs3351" />
  <sodipodi:namedview
     id="base"
     pagecolor="#ffffff"
     bordercolor="#666666"
     borderopacity="1.0"
     inkscape:pageopacity="0.0"
     inkscape:pageshadow="2"
     inkscape:zoom="0.5"
     inkscape:cx="9.2008305"
     inkscape:cy="496"
     inkscape:current-layer="layer1"
     showgrid="true"
     inkscape:grid-bbox="true"
     inkscape:document-units="px"
     inkscape:window-width="1920"
     inkscape:window-height="1018"
     inkscape:window-x="-8"
     inkscape:window-y="-8"
     inkscape:window-maximized="1" />
  <metadata
     id="metadata3354">
    <rdf:RDF>
      <cc:Work
         rdf:about="">
        <dc:format>image/svg+xml</dc:format>
        <dc:type
           rdf:resource="http://purl.org/dc/dcmitype/StillImage" />
        <dc:title></dc:title>
      </cc:Work>
    </rdf:RDF>
  </metadata>
  <g
     id="layer1"
     inkscape:label="Layer 1"
     inkscape:groupmode="layer"
     transform="translate(0,968)">
    <path
       id="path7"
       style="fill:#a01914;fill-opacity:1"
       d="m 776.01412,-198.28781 c -1.85525,-59.51893 -4.14901,-89.48212 -7.58965,-97.09828 -5.59948,-12.34885 -21.14982,-24.07085 -36.97003,-27.76923 -12.8518,-3.07155 -18.78859,-15.04428 -49.82182,-101.76829 l -22.93761,-64.34563 -165.11703,0.8149 -165.08333,-0.8149 -22.97133,64.34563 c -30.96576,86.72401 -36.93629,98.69674 -49.82183,101.76829 -15.719,3.60435 -31.33681,15.3577 -36.90255,27.76923 -3.50811,7.58482 -5.73441,37.54801 -7.52219,97.09828 l -2.59735,85.87776 30.66218,1.00296 30.52726,0.97161 4.58752,17.018836 c 14.20108,51.808736 90.09756,51.087865 105.95149,-1.065637 l 4.82365,-15.953199 108.31275,-0.84625 108.31272,0.84625 4.82365,15.953199 c 15.95513,52.153502 91.78415,52.905716 106.01896,1.065637 l 4.62125,-17.018836 30.49352,-0.97161 30.69592,-1.00296 -2.49615,-85.87776 z m -472.8183,17.64569 c -27.15407,-15.32636 -30.49351,-47.67156 -6.915,-67.79328 10.92908,-9.30865 15.95512,-11.1265 30.76337,-11.1265 27.86244,0 45.13311,16.39199 45.13311,42.93888 0,34.47647 -37.27361,54.03403 -68.98148,35.9809 z m 207.58537,-144.7385 c -2.63108,0 -4.99231,0 -7.62338,0 l 0,-0.15672 c -3.03586,0 -6.40904,0 -9.61356,0.0627 -3.06959,-0.0627 -6.51023,-0.0627 -9.54609,-0.0627 l 0,0.15672 c -2.59735,0 -4.95857,0 -7.62338,0 -71.61259,0.34476 -130.06975,-0.34477 -130.06975,-1.34772 0,-5.67295 34.57507,-106.46962 37.77958,-110.19935 2.52989,-2.94617 47.83166,-4.51328 100.65565,-4.41925 l 0,0.0627 c 3.00213,-0.0313 5.86933,0 8.80399,-0.0313 3.03586,0 5.90306,0 8.90519,0.0313 l 0,-0.0627 c 52.85769,-0.094 98.19319,1.47308 100.62188,4.41925 3.23825,3.72973 37.74585,104.5264 37.74585,110.19935 0.0675,1.03429 -58.35597,1.69248 -130.03598,1.34772 z m 173.31385,144.7385 c -31.67414,18.02179 -69.04894,-1.53577 -69.04894,-35.9809 0,-26.54689 17.33813,-42.93888 45.20057,-42.93888 14.77452,0 19.76682,1.81785 30.76338,11.1265 23.54478,20.15306 20.23906,52.46692 -6.91501,67.79328 z M 212.72722,-575.64845 c -29.6165,-9.52804 -59.36792,-30.62137 -80.48401,-57.10557 -56.770577,-71.27228 -29.98755,-178.68216 55.08398,-220.71212 50.86751,-25.13649 102.71325,-26.07675 154.08673,-2.8208 21.45341,9.71609 64.8662,47.9223 64.8662,57.07423 0,2.13128 84.90291,3.76107 197.70195,3.76107 l 197.60073,0 47.19075,36.4197 c 26.0072,20.02769 47.08955,37.57935 46.98836,38.98975 -0.16866,1.4104 -21.79073,19.15012 -47.93285,39.42855 -62.16766,48.1417 -63.95544,48.20438 -111.61844,4.32523 l -35.2497,-32.5646 -34.06909,31.40494 -33.8667,31.40493 -33.0234,-30.46466 -32.98968,-30.46467 -33.73177,31.65567 -33.79924,31.62433 -45.47043,0.15671 -45.47046,0.15671 -14.36974,18.17851 c -38.31929,48.42377 -117.55522,70.08123 -181.44319,49.55209 l 0,0 z m 13.22285,-123.48846 c 12.2109,-13.38314 10.28819,-34.94661 -4.01408,-45.41492 -24.4218,-17.86508 -56.09594,-3.94912 -56.09594,24.63501 0.0337,30.84077 38.75781,44.22391 60.11002,20.77991 z"
       inkscape:connector-curvature="0" />
  </g>
</svg>
