<?xml version="1.0" encoding="UTF-8" standalone="no"?>
<!-- Created with Inkscape (http://www.inkscape.org/) -->

<svg
   xmlns:dc="http://purl.org/dc/elements/1.1/"
   xmlns:cc="http://creativecommons.org/ns#"
   xmlns:rdf="http://www.w3.org/1999/02/22-rdf-syntax-ns#"
   xmlns:svg="http://www.w3.org/2000/svg"
   xmlns="http://www.w3.org/2000/svg"
   xmlns:sodipodi="http://sodipodi.sourceforge.net/DTD/sodipodi-0.dtd"
   xmlns:inkscape="http://www.inkscape.org/namespaces/inkscape"
   width="1000"
   height="1000"
   id="svg3361"
   version="1.1"
   inkscape:version="0.91 r13725"
   viewBox="0 0 1000 1000"
   sodipodi:docname="shop_car.svg">
  <defs
     id="defs3363" />
  <sodipodi:namedview
     id="base"
     pagecolor="#ffffff"
     bordercolor="#666666"
     borderopacity="1.0"
     inkscape:pageopacity="0.0"
     inkscape:pageshadow="2"
     inkscape:zoom="0.5"
     inkscape:cx="11.512342"
     inkscape:cy="336"
     inkscape:current-layer="layer1"
     showgrid="true"
     inkscape:grid-bbox="true"
     inkscape:document-units="px"
     inkscape:window-width="1920"
     inkscape:window-height="1018"
     inkscape:window-x="-8"
     inkscape:window-y="-8"
     inkscape:window-maximized="1" />
  <metadata
     id="metadata3366">
    <rdf:RDF>
      <cc:Work
         rdf:about="">
        <dc:format>image/svg+xml</dc:format>
        <dc:type
           rdf:resource="http://purl.org/dc/dcmitype/StillImage" />
        <dc:title></dc:title>
      </cc:Work>
    </rdf:RDF>
  </metadata>
  <g
     id="layer1"
     inkscape:label="Layer 1"
     inkscape:groupmode="layer"
     transform="translate(0,968)">
    <path
       inkscape:connector-curvature="0"
       style="fill:#a01914;fill-opacity:1"
       d="m 893.5783,-319.63635 c -2.55861,-98.16822 -5.77514,-147.53077 -10.63649,-160.02057 -7.85857,-20.36553 -29.75292,-39.69688 -52.04934,-45.78267 -18.05644,-5.01183 -26.42674,-24.78072 -70.03268,-167.77698 l -32.34808,-106.04397 -232.32136,1.31263 -232.28481,-1.3524 -32.31153,106.08374 c -43.6425,142.99626 -51.97624,162.76515 -70.10579,167.77698 -22.15021,5.96646 -44.15422,25.33758 -51.90313,45.78267 -4.97101,12.4898 -8.07789,61.89212 -10.59994,160.02057 l -3.65515,141.56432 43.13077,1.63083 42.94802,1.71039 6.43307,28.08216 c 19.99367,85.360217 126.87027,84.166924 149.13013,-1.82972 l 6.79858,-26.25244 152.45633,-1.43195 152.34667,1.43195 6.79858,26.25244 c 22.40607,85.996644 129.20956,87.189937 149.20324,1.82972 l 6.50616,-28.08216 42.91147,-1.71039 43.27698,-1.63083 -3.6917,-141.56432 z M 228.15817,-290.52 c -38.19633,-25.25803 -42.94802,-78.55845 -9.7227,-111.73199 15.38818,-15.3537 22.47917,-18.37671 43.27698,-18.37671 39.25631,0 63.56306,27.04797 63.56306,70.76227 0.0366,56.88029 -52.48796,89.0992 -97.11734,59.34643 z m 292.19272,-238.6188 c -3.80136,0 -7.12754,0 -10.67304,0 l 0,-0.19888 c -4.27653,0 -9.06477,0 -13.56061,0.11933 -4.31308,-0.11933 -9.17443,-0.11933 -13.4144,-0.11933 l 0,0.19888 c -3.6186,0 -6.94479,0 -10.70959,0 -100.80905,0.55687 -183.12304,-0.55687 -183.12304,-2.1877 0,-9.34747 48.68661,-175.53339 53.18244,-181.65896 3.58205,-4.81295 67.32787,-7.43819 141.67363,-7.27909 l 0,0.11933 c 4.20343,-0.0398 8.29719,0 12.39096,-0.0398 4.27653,0 8.29719,0 12.57372,0.0398 l 0,-0.11933 c 74.30921,-0.1591 138.12813,2.46614 141.63708,7.27909 4.49583,6.16535 53.10933,172.31149 53.10933,181.65896 0.0366,1.63083 -82.27743,2.74457 -183.08648,2.1877 z M 764.22253,-290.52 c -44.62939,29.75277 -97.0808,-2.46614 -97.0808,-59.30666 0,-43.75407 24.3433,-70.76226 63.52651,-70.76226 20.76126,0 27.85225,2.90368 43.27699,18.37671 33.18876,33.13376 28.54672,86.43418 -9.7227,111.69221 z"
       id="path20" />
  </g>
</svg>
