<?xml version="1.0" encoding="UTF-8" standalone="no"?>
<!-- Created with Inkscape (http://www.inkscape.org/) -->

<svg
   xmlns:dc="http://purl.org/dc/elements/1.1/"
   xmlns:cc="http://creativecommons.org/ns#"
   xmlns:rdf="http://www.w3.org/1999/02/22-rdf-syntax-ns#"
   xmlns:svg="http://www.w3.org/2000/svg"
   xmlns="http://www.w3.org/2000/svg"
   xmlns:sodipodi="http://sodipodi.sourceforge.net/DTD/sodipodi-0.dtd"
   xmlns:inkscape="http://www.inkscape.org/namespaces/inkscape"
   width="32"
   height="32"
   id="svg3349"
   version="1.1"
   inkscape:version="0.91 r13725"
   viewBox="0 0 32 32"
   sodipodi:docname="car_rental_.svg">
  <defs
     id="defs3351" />
  <sodipodi:namedview
     id="base"
     pagecolor="#ffffff"
     bordercolor="#666666"
     borderopacity="1.0"
     inkscape:pageopacity="0.0"
     inkscape:pageshadow="2"
     inkscape:zoom="20"
     inkscape:cx="11.331756"
     inkscape:cy="16"
     inkscape:current-layer="layer1"
     showgrid="true"
     inkscape:grid-bbox="true"
     inkscape:document-units="px"
     inkscape:window-width="1920"
     inkscape:window-height="1018"
     inkscape:window-x="-8"
     inkscape:window-y="-8"
     inkscape:window-maximized="1" />
  <metadata
     id="metadata3354">
    <rdf:RDF>
      <cc:Work
         rdf:about="">
        <dc:format>image/svg+xml</dc:format>
        <dc:type
           rdf:resource="http://purl.org/dc/dcmitype/StillImage" />
        <dc:title />
      </cc:Work>
    </rdf:RDF>
  </metadata>
  <g
     id="layer1"
     inkscape:label="Layer 1"
     inkscape:groupmode="layer">
    <path
       id="path7"
       style="fill:#a01914;fill-opacity:1"
       d="m 24.212261,24.477764 c -0.055,-1.899 -0.123,-2.855 -0.225,-3.098 -0.166,-0.394 -0.627,-0.768 -1.096,-0.886 -0.381,-0.098 -0.557,-0.48 -1.477,-3.247 l -0.68,-2.053 -4.895,0.026 -4.894001,-0.026 -0.681,2.053 c -0.9179998,2.767 -1.0949998,3.149 -1.4769998,3.247 -0.466,0.115 -0.929,0.49 -1.094,0.886 -0.104,0.242 -0.17,1.198 -0.223,3.098 l -0.077,2.74 0.909,0.032 0.905,0.031 0.136,0.543 c 0.421,1.653 2.6709998,1.63 3.1409998,-0.034 l 0.143,-0.509 3.211001,-0.027 3.211,0.027 0.143,0.509 c 0.473,1.664 2.721,1.688 3.143,0.034 l 0.137,-0.543 0.904,-0.031 0.91,-0.032 -0.074,-2.74 z m -14.017001,0.563 c -0.8049998,-0.489 -0.9039998,-1.521 -0.2049998,-2.163 0.3239998,-0.297 0.4729998,-0.355 0.9119998,-0.355 0.826,0 1.338,0.523 1.338,1.37 0,1.1 -1.105,1.724 -2.045,1.148 z m 6.154001,-4.618 c -0.078,0 -0.148,0 -0.226,0 l 0,-0.005 c -0.09,0 -0.19,0 -0.285,0.002 -0.091,-0.002 -0.193,-0.002 -0.283,-0.002 l 0,0.005 c -0.077,0 -0.147,0 -0.226,0 -2.123001,0.011 -3.856001,-0.011 -3.856001,-0.043 0,-0.181 1.025,-3.397 1.12,-3.516 0.075,-0.094 1.418,-0.144 2.984001,-0.141 l 0,0.002 c 0.089,-0.001 0.174,0 0.261,-0.001 0.09,0 0.175,0 0.264,0.001 l 0,-0.002 c 1.567,-0.003 2.911,0.047 2.983,0.141 0.096,0.119 1.119,3.335 1.119,3.516 0.002,0.033 -1.73,0.054 -3.855,0.043 z m 5.138,4.618 c -0.939,0.575 -2.047,-0.049 -2.047,-1.148 0,-0.847 0.514,-1.37 1.34,-1.37 0.438,0 0.586,0.058 0.912,0.355 0.698,0.643 0.6,1.674 -0.205,2.163 z M 7.5132602,12.437765 c -0.878,-0.304 -1.76,-0.977 -2.386,-1.822 -1.683,-2.2740001 -0.889,-5.7010001 1.633,-7.0420002 1.508,-0.802 3.045,-0.832 4.5679998,-0.09 0.636,0.31 1.923,1.5290001 1.923,1.8210001 0,0.068 2.517001,0.12 5.861001,0.12 l 5.858,0 1.399,1.162 c 0.771,0.639 1.396,1.199 1.393,1.244 -0.005,0.045 -0.646,0.611 -1.421,1.258 -1.843,1.5360001 -1.896,1.5380001 -3.309,0.138 l -1.045,-1.039 -1.01,1.002 -1.004,1.0020001 -0.979,-0.9720001 -0.978,-0.972 -1,1.01 -1.002,1.0090001 -1.348,0.005 -1.348001,0.005 -0.426,0.58 c -1.136,1.545 -3.4849998,2.235999 -5.3789998,1.581 l 0,0 z m 0.392,-3.9400001 c 0.362,-0.427 0.305,-1.115 -0.119,-1.449 -0.724,-0.57 -1.663,-0.126 -1.663,0.786 0.001,0.984 1.149,1.411 1.782,0.663 z" />
  </g>
</svg>
