<?xml version="1.0" encoding="UTF-8" standalone="no"?>
<!-- Created with Inkscape (http://www.inkscape.org/) -->

<svg
   xmlns:dc="http://purl.org/dc/elements/1.1/"
   xmlns:cc="http://creativecommons.org/ns#"
   xmlns:rdf="http://www.w3.org/1999/02/22-rdf-syntax-ns#"
   xmlns:svg="http://www.w3.org/2000/svg"
   xmlns="http://www.w3.org/2000/svg"
   xmlns:sodipodi="http://sodipodi.sourceforge.net/DTD/sodipodi-0.dtd"
   xmlns:inkscape="http://www.inkscape.org/namespaces/inkscape"
   width="32"
   height="32"
   id="svg3357"
   version="1.1"
   inkscape:version="0.91 r13725"
   viewBox="0 0 32 32"
   sodipodi:docname="kiosk_.svg">
  <defs
     id="defs3359" />
  <sodipodi:namedview
     id="base"
     pagecolor="#ffffff"
     bordercolor="#666666"
     borderopacity="1.0"
     inkscape:pageopacity="0.0"
     inkscape:pageshadow="2"
     inkscape:zoom="20"
     inkscape:cx="11.331756"
     inkscape:cy="16"
     inkscape:current-layer="layer1"
     showgrid="true"
     inkscape:grid-bbox="true"
     inkscape:document-units="px"
     inkscape:window-width="1920"
     inkscape:window-height="1018"
     inkscape:window-x="-8"
     inkscape:window-y="-8"
     inkscape:window-maximized="1" />
  <metadata
     id="metadata3362">
    <rdf:RDF>
      <cc:Work
         rdf:about="">
        <dc:format>image/svg+xml</dc:format>
        <dc:type
           rdf:resource="http://purl.org/dc/dcmitype/StillImage" />
        <dc:title />
      </cc:Work>
    </rdf:RDF>
  </metadata>
  <g
     id="layer1"
     inkscape:label="Layer 1"
     inkscape:groupmode="layer">
    <path
       id="path5321"
       style="fill:#a01914;fill-opacity:1"
       d="m 7.213,28.470484 c -0.341,-0.121 -0.69,-0.381 -0.878,-0.65 -0.35,-0.507 -0.341,-0.316 -0.341,-6.793 0,-6.608 -0.021,-6.262 0.397,-6.518 0.185,-0.112 0.509,-0.116 9.858,-0.116 l 9.667,0 c 0,0 0.252,0.131 0.311,0.185 0.061,0.053 0.152,0.239 0.152,0.239 l 0.031,6.145 c 0.017,3.38 0.01,6.229 -0.016,6.332 -0.123,0.51 -0.677,1.054 -1.223,1.205 -0.139,0.037 -3.427,0.06 -8.973,0.059 -7.203,-0.004 -8.792,-0.02 -8.985,-0.088 l 0,0 z m 17.525,-7.922 0,-4.485 -8.505,0 -8.506,0 0,4.485 0,4.484 8.506,0 8.505,0 0,-4.484 z m -18.751,-7.606 c -0.417,-0.115 -0.897,-0.396 -1.141,-0.665 l -0.213,-0.236 0,-1.487 0,-1.4869997 0.789,-0.817 c 0.434,-0.449 1.413,-1.499 2.176,-2.333 0.763,-0.833 1.591,-1.731 1.841,-1.995 l 0.454,-0.479 1.113,0 c 0.943,0 1.113,0.014 1.113,0.092 0,0.108 -1.05,1.773 -2.525,4.003 -0.744,1.126 -1.061,1.659 -1.086,1.825 -0.019,0.129 -0.053,0.7749997 -0.076,1.4349997 l -0.041,1.2 -0.22,0.242 c -0.271,0.3 -0.646,0.524 -1.134,0.675 -0.426,0.133 -0.645,0.139 -1.05,0.027 l 0,0 z m 4.524,-0.067 c -0.449,-0.126 -0.823,-0.352 -1.161,-0.701 l -0.277,-0.287 0.038,-0.773 c 0.021,-0.425 0.038,-1.039 0.038,-1.3629997 l 0,-0.59 0.41,-0.555 c 0.838,-1.135 2.008,-2.995 2.868,-4.561 l 0.332,-0.604 0.948,0 c 0.521,0 0.948,0.019 0.948,0.042 0,0.021 -0.109,0.433 -0.243,0.912 -0.318,1.14 -0.698,2.654 -0.975,3.895 -0.206,0.919 -0.226,1.102 -0.26,2.3309997 -0.042,1.5 -0.048,1.52 -0.524,1.848 -0.632,0.435 -1.471,0.593 -2.142,0.406 l 0,0 z m 4.903,0.13 c -0.496,-0.12 -1.092,-0.441 -1.35,-0.727 l -0.233,-0.258 0.038,-1.431 0.038,-1.4309997 0.562,-2.41 c 0.309,-1.326 0.606,-2.612 0.662,-2.858 l 0.101,-0.449 0.88,0 0.881,0 0.043,0.294 c 0.022,0.162 0.231,1.199 0.467,2.305 0.653,3.099 0.64,2.985 0.625,4.6079997 l -0.015,1.422 -0.166,0.177 c -0.644,0.681 -1.632,0.976 -2.533,0.758 l 0,0 z m 9.666,0.125 c -0.502,-0.124 -0.873,-0.318 -1.209,-0.632 l -0.314,-0.295 0.014,-1.465 0.017,-1.4639997 -0.481,-0.89 c -0.474,-0.867 -1.693,-2.938 -2.523,-4.276 l -0.412,-0.666 1.229,0 1.229,0 0.394,0.511 c 0.715,0.927 2.603,3.277 3.479,4.337 l 0.864,1.042 -0.036,1.4239997 c -0.043,1.634 0,1.514 -0.701,1.971 -0.326,0.212 -1.041,0.504 -1.188,0.484 -0.036,-0.002 -0.192,-0.039 -0.362,-0.081 l 0,0 z m -4.949,-0.058 c -0.581,-0.192 -1.077,-0.534 -1.244,-0.856 -0.082,-0.16 -0.084,-0.331 -0.018,-1.405 0.088,-1.3999997 0.083,-1.4359997 -0.51,-3.9359997 -0.17,-0.714 -0.404,-1.717 -0.521,-2.227 -0.117,-0.51 -0.229,-0.991 -0.245,-1.067 l -0.032,-0.14 1.039,0 1.041,0 0.205,0.418 c 0.367,0.748 1.612,3.05 2.316,4.284 l 0.688,1.206 0.023,1.3819997 0.023,1.382 -0.332,0.307 c -0.185,0.169 -0.508,0.395 -0.728,0.501 -0.334,0.165 -0.479,0.198 -0.928,0.213 -0.322,0.013 -0.627,-0.012 -0.777,-0.062 l 0,0 z" />
  </g>
</svg>
