<?xml version="1.0" encoding="UTF-8" standalone="no"?>
<!-- Created with Inkscape (http://www.inkscape.org/) -->

<svg
   xmlns:dc="http://purl.org/dc/elements/1.1/"
   xmlns:cc="http://creativecommons.org/ns#"
   xmlns:rdf="http://www.w3.org/1999/02/22-rdf-syntax-ns#"
   xmlns:svg="http://www.w3.org/2000/svg"
   xmlns="http://www.w3.org/2000/svg"
   xmlns:sodipodi="http://sodipodi.sourceforge.net/DTD/sodipodi-0.dtd"
   xmlns:inkscape="http://www.inkscape.org/namespaces/inkscape"
   width="1000"
   height="1000"
   id="svg9424"
   version="1.1"
   inkscape:version="0.91 r13725"
   viewBox="0 0 1000 1000"
   sodipodi:docname="special_military.svg">
  <defs
     id="defs9426" />
  <sodipodi:namedview
     id="base"
     pagecolor="#ffffff"
     bordercolor="#666666"
     borderopacity="1.0"
     inkscape:pageopacity="0.0"
     inkscape:pageshadow="2"
     inkscape:zoom="0.5"
     inkscape:cx="9.7405635"
     inkscape:cy="416"
     inkscape:current-layer="layer1"
     showgrid="true"
     inkscape:grid-bbox="true"
     inkscape:document-units="px"
     inkscape:window-width="1920"
     inkscape:window-height="1018"
     inkscape:window-x="-8"
     inkscape:window-y="-8"
     inkscape:window-maximized="1" />
  <metadata
     id="metadata9429">
    <rdf:RDF>
      <cc:Work
         rdf:about="">
        <dc:format>image/svg+xml</dc:format>
        <dc:type
           rdf:resource="http://purl.org/dc/dcmitype/StillImage" />
        <dc:title></dc:title>
      </cc:Work>
    </rdf:RDF>
  </metadata>
  <g
     id="layer1"
     inkscape:label="Layer 1"
     inkscape:groupmode="layer"
     transform="translate(0,968)">
    <path
       inkscape:connector-curvature="0"
       d="m 266.93813,-765.71368 c -5.66687,4.71001 -9.82402,11.23618 -13.61384,18.28839 -7.6183,14.17922 -11.51626,30.30163 -14.97017,46.66213 -6.89937,32.66778 -12.32219,65.76882 -17.47678,98.947 -0.88207,5.67861 -1.72785,11.36619 -2.59783,17.09833 l 378.85784,0 c -0.0512,-0.62844 -0.0621,-1.00086 -0.12059,-1.36662 -2.02374,-16.13804 -3.91486,-32.30335 -6.10308,-48.40514 -3.33516,-24.57682 -7.09475,-49.04723 -12.51577,-73.03483 -2.3018,-10.18179 -4.62172,-20.41279 -9.31838,-29.34135 -6.31818,-12.00494 -13.67125,-22.61135 -24.16832,-28.84824 -92.6635,0 -185.32584,0 -277.98576,0 z m 698.72495,1.6692 c -0.82148,0 -1.40763,-0.0665 -1.98757,0.0173 -24.51269,3.13557 -49.02535,6.25751 -73.53199,9.48119 -1.08751,0.13301 -2.25944,0.94101 -3.12952,1.84876 -4.85735,5.06779 -9.61442,10.28786 -14.4506,15.38624 -0.64023,0.67499 -1.52237,1.26021 -2.32595,1.34999 -6.378,0.68829 -12.75837,1.24691 -19.1424,1.83878 -15.21789,1.40319 -30.43878,2.78643 -45.65301,4.2119 -17.51606,1.63928 -35.02968,3.33508 -52.54512,4.97502 -17.29433,1.61932 -34.59106,3.18544 -51.88783,4.79546 -17.73898,1.64925 -35.47854,3.3251 -53.21814,4.9943 -6.67038,0.62844 -13.33834,1.26686 -20.28787,1.92856 5.73941,26.13661 7.91616,52.86676 10.9369,79.59392 2.70672,-0.23276 5.29231,-0.42562 7.87446,-0.67167 24.86004,-2.40738 49.72011,-4.84833 74.5826,-7.23675 22.93163,-2.20122 45.86868,-4.32463 68.79969,-6.5315 28.79369,-2.77313 57.58855,-5.60877 86.38585,-8.33602 1.08752,-0.0998 2.35628,0.34913 3.31663,1.05406 5.42525,3.98879 10.75323,8.18706 16.17786,12.17252 0.9545,0.7016 2.23533,1.11391 3.32284,0.99088 22.31659,-2.4905 44.632,-5.06246 66.94135,-7.66635 3.31663,-0.38571 6.61845,-1.01748 9.92554,-1.5362 0,-0.1995 0,-0.38238 0,-0.57524 -0.60413,-5.45117 -1.23847,-10.89203 -1.71576,-16.35883 -2.46492,-28.13766 -4.8815,-56.27898 -7.32164,-84.41831 -0.30207,-3.76999 -0.71292,-7.53634 -1.06329,-11.29968 z m -816.2298,244.34898 c -1.29289,0 -2.67636,0.34249 -3.8605,1.00419 -19.35024,10.85279 -38.76331,21.53102 -57.975806,32.77218 -18.076697,10.57715 -35.873067,21.90942 -52.781945,35.40035 -0.88207,0.70492 -1.739949,1.44974 -2.609923,2.17794 0.0603,0.16626 0.120956,0.29926 0.241547,0.44889 l 828.399737,0 c 0.0621,-0.23276 0.12059,-0.45554 0.18271,-0.68497 -5.67294,-4.53344 -11.28789,-9.19557 -17.03271,-13.58171 -27.33709,-20.86334 -55.79667,-38.94789 -84.61448,-56.12503 -1.48619,-0.8878 -3.25633,-1.40319 -4.89359,-1.40319 -64.42329,0 -128.84472,0.0665 -193.26981,0.133 -8.188,0 -16.37845,0.13301 -24.56824,0.19951 -20.70234,0.133 -41.40406,0.35246 -62.10396,0.35911 -36.49413,0.017 -72.98764,-0.0998 -109.48178,-0.16625 -31.8005,-0.0665 -63.60225,-0.0333 -95.40516,-0.0998 -17.87371,-0.0333 -35.74318,-0.1995 -53.61507,-0.26601 -22.19396,-0.0998 -44.38551,-0.16625 -66.57766,-0.16625 z m -121.60703,110.73449 0,17.23167 c 0.120957,3.87972 0.483315,7.7661 0.42291,11.63519 -0.302209,12.32515 2.253485,24.04413 4.525063,35.80767 6.618437,34.32002 15.472219,67.6352 27.755141,99.33072 8.458064,21.82862 18.453684,42.38538 31.446477,60.32264 12.421279,17.15153 26.731719,30.69732 44.474919,37.28002 4.89964,1.81883 10.04033,2.58361 15.06865,3.84182 0.48331,0.13301 0.96663,0.34914 1.44994,0.52537 l 601.57017,0 c 0.4228,-0.16625 0.80942,-0.43891 1.22637,-0.49211 23.49411,-2.82301 43.29019,-15.6875 60.08548,-36.62432 14.79739,-18.44566 25.5458,-40.49207 34.23645,-64.30179 11.02811,-30.20388 18.37756,-61.94728 23.22646,-94.641 1.64333,-11.0513 2.82147,-22.27218 3.49203,-33.48775 0.54376,-9.61319 0.12059,-19.32914 0.12059,-28.99886 l 0,-7.42861 -849.090561,0 z m 159.53178,29.39089 c 37.6831,0.5952 68.91932,41.62361 68.47226,89.94496 -0.48346,50.06238 -32.00471,89.92069 -70.50582,89.31652 -39.07626,-0.61182 -70.32518,-42.27765 -69.10178,-92.50629 1.14788,-47.13296 31.39573,-87.33209 71.13534,-86.75519 z m 176.5349,0 c 37.84019,0.13301 69.15617,40.82392 69.0764,89.76175 -0.0621,49.41664 -31.47063,89.57321 -69.93852,89.47213 -38.82673,-0.0998 -69.80137,-40.33945 -69.73069,-90.58006 0.0621,-48.90657 31.82528,-88.78749 70.59281,-88.65382 z m 176.55001,0 c 38.33136,0.017 69.67877,40.46614 69.66185,89.89675 -0.0187,49.13966 -31.4175,89.30122 -69.84007,89.33713 -38.46968,0.0333 -69.89803,-40.24036 -69.90227,-89.56989 0,-49.41531 31.46943,-89.68128 70.08049,-89.66399 z m 175.98575,1.57277 c 1.21432,-0.0169 2.43485,0 3.66111,0.0333 38.17489,1.6426 68.3424,43.42481 67.06823,93.09515 -1.25671,49.14299 -33.82015,87.94691 -72.74961,85.96947 -37.65773,-1.91193 -66.89,-41.67148 -66.89786,-89.82159 0.36177,-49.69097 31.29786,-88.44834 68.91996,-89.2856 z"
       id="path37" />
  </g>
</svg>
