<?xml version="1.0" encoding="UTF-8" standalone="no"?>
<!-- Created with Inkscape (http://www.inkscape.org/) -->

<svg
   xmlns:dc="http://purl.org/dc/elements/1.1/"
   xmlns:cc="http://creativecommons.org/ns#"
   xmlns:rdf="http://www.w3.org/1999/02/22-rdf-syntax-ns#"
   xmlns:svg="http://www.w3.org/2000/svg"
   xmlns="http://www.w3.org/2000/svg"
   xmlns:sodipodi="http://sodipodi.sourceforge.net/DTD/sodipodi-0.dtd"
   xmlns:inkscape="http://www.inkscape.org/namespaces/inkscape"
   width="352.78mm"
   height="352.78mm"
   viewBox="0 0 1250.0079 1250.0079"
   id="svg25374"
   version="1.1"
   inkscape:version="0.91 r13725"
   sodipodi:docname="special_military.svg">
  <defs
     id="defs25376" />
  <sodipodi:namedview
     id="base"
     pagecolor="#ffffff"
     bordercolor="#666666"
     borderopacity="1.0"
     inkscape:pageopacity="0.0"
     inkscape:pageshadow="2"
     inkscape:zoom="0.5"
     inkscape:cx="128"
     inkscape:cy="520"
     inkscape:document-units="px"
     inkscape:current-layer="layer1"
     showgrid="false"
     inkscape:window-width="1920"
     inkscape:window-height="1018"
     inkscape:window-x="-8"
     inkscape:window-y="-8"
     inkscape:window-maximized="1" />
  <metadata
     id="metadata25379">
    <rdf:RDF>
      <cc:Work
         rdf:about="">
        <dc:format>image/svg+xml</dc:format>
        <dc:type
           rdf:resource="http://purl.org/dc/dcmitype/StillImage" />
        <dc:title></dc:title>
      </cc:Work>
    </rdf:RDF>
  </metadata>
  <g
     inkscape:label="Layer 1"
     inkscape:groupmode="layer"
     id="layer1"
     transform="translate(0,197.64569)">
    <path
       inkscape:connector-curvature="0"
       d="m 448.679,245.49432 c -4.2544,2.751 -7.3757,6.563 -10.2209,10.682 -5.7196,8.282 -8.646,17.699 -11.2394,27.255 -5.18,19.081 -9.251,38.415 -13.1209,57.794 -0.6627,3.317 -1.2968,6.639 -1.9497,9.987 l 284.438,0 c -0.038,-0.367 -0.048,-0.584 -0.082,-0.798 -1.5198,-9.426 -2.9407,-18.868 -4.5821,-28.273 -2.5054,-14.355 -5.3264,-28.648 -9.3962,-42.659 -1.7267,-5.947 -3.47,-11.923 -6.996,-17.138 -4.7438,-7.012 -10.2642,-13.207 -18.1454,-16.85 -69.5697,0 -139.1385,0 -208.7055,0 z m 524.5872,0.974 c -0.6166,0 -1.0575,-0.03 -1.4937,0.01 -18.4033,1.831 -36.807,3.655 -55.206,5.538 -0.8165,0.08 -1.6955,0.549 -2.3484,1.079 -3.6449,2.96 -7.2181,6.009 -10.849,8.987 -0.4809,0.394 -1.1422,0.737 -1.7476,0.789 -4.7885,0.402 -9.5789,0.729 -14.3716,1.073 -11.4253,0.82 -22.8529,1.628 -34.2754,2.46 -13.1506,0.958 -26.2994,1.948 -39.45,2.906 -12.9842,0.945 -25.9702,1.86 -38.9558,2.801 -13.3184,0.964 -26.6369,1.942 -39.9552,2.917 -5.0081,0.367 -10.014,0.74 -15.2317,1.127 4.3075,15.266 5.9434,30.879 8.2111,46.49 2.0342,-0.134 3.9727,-0.248 5.9119,-0.393 18.6647,-1.407 37.3291,-2.832 55.9952,-4.227 17.2163,-1.286 34.4372,-2.526 51.6534,-3.815 21.6175,-1.619 43.236,-3.276 64.8563,-4.869 0.8179,-0.06 1.7703,0.204 2.4903,0.615 4.0727,2.33 8.0734,4.782 12.1461,7.11 0.7158,0.409 1.678,0.651 2.4931,0.579 16.7549,-1.455 33.5087,-2.957 50.258,-4.478 2.4901,-0.226 4.969,-0.595 7.452,-0.898 0,-0.112 0,-0.224 0,-0.336 -0.4334,-3.184 -0.9295,-6.362 -1.2888,-9.555 -1.8511,-16.435 -3.6626,-32.872 -5.4969,-49.308 -0.2461,-2.202 -0.533,-4.402 -0.8001,-6.6 z m -612.8071,142.722 c -0.9688,0 -2.0108,0.2 -2.8972,0.587 -14.5277,6.339 -29.1027,12.576 -43.527,19.142 -13.5714,6.178 -26.9327,12.797 -39.6275,20.677 -0.6613,0.411 -1.3077,0.847 -1.9606,1.272 0.053,0.09 0.1065,0.174 0.1611,0.262 l 621.9439,0 c 0.046,-0.134 0.09,-0.267 0.1338,-0.401 -4.2601,-2.648 -8.4746,-5.371 -12.7878,-7.933 -20.5242,-12.186 -41.8907,-22.749 -63.5264,-32.782 -1.1171,-0.518 -2.4451,-0.819 -3.6755,-0.819 -48.3674,0 -96.7337,0.04 -145.1025,0.08 -6.1475,0 -12.2969,0.08 -18.4457,0.107 -15.5428,0.08 -31.085,0.206 -46.6263,0.21 -27.3988,0.01 -54.7974,-0.06 -82.1961,-0.09 -23.8754,-0.03 -47.7515,-0.02 -71.6283,-0.06 -13.419,-0.02 -26.8353,-0.118 -40.2529,-0.159 -16.6626,-0.05 -33.3237,-0.09 -49.985,-0.09 z m -91.3001,64.679 0,10.065 c 0.1133,2.266 0.3798,4.536 0.3141,6.796 -0.2083,7.199 1.6926,14.044 3.3969,20.915 4.9689,20.046 11.6159,39.505 20.8378,58.018 6.3502,12.75 13.8548,24.757 23.6094,35.234 9.3254,10.018 20.0695,17.93 33.3907,21.775 3.6798,1.062 7.5383,1.509 11.3132,2.244 0.3691,0.07 0.7274,0.203 1.0895,0.306 l 451.6454,0 c 0.3076,-0.1 0.6057,-0.257 0.9202,-0.287 17.6385,-1.649 32.5013,-9.163 45.1108,-21.392 11.1093,-10.774 19.1789,-23.651 25.7038,-37.558 8.2796,-17.642 13.7974,-36.183 17.4381,-55.279 1.2317,-6.455 2.1195,-13.009 2.6214,-19.56 0.4307,-5.615 0.087,-11.29 0.087,-16.938 l 0,-4.339 -637.4786,0 z m 119.7729,17.167 c 28.292,0.347 51.7432,24.312 51.4076,52.536 -0.3495,29.241 -24.0283,52.522 -52.9341,52.169 -29.3378,-0.358 -52.7986,-24.694 -51.8801,-54.032 0.8627,-27.53 23.571,-51.01 53.4066,-50.673 z m 132.5387,0 c 28.4095,0.07 51.9211,23.845 51.861,52.429 -0.061,28.864 -23.6275,52.319 -52.5082,52.26 -29.1505,-0.06 -52.4056,-23.562 -52.3525,-52.907 0.052,-28.566 23.8939,-51.86 52.9997,-51.782 z m 132.5497,0 c 28.7786,0.01 52.3132,23.636 52.3006,52.508 -0.014,28.702 -23.5873,52.16 -52.4344,52.181 -28.882,0.02 -52.478,-23.504 -52.4808,-52.317 0,-28.863 23.6263,-52.382 52.6146,-52.372 z m 132.1264,0.918 c 0.9112,-0.01 1.826,0 2.7471,0.02 28.6611,0.96 51.3099,25.364 50.3536,54.376 -0.9451,28.704 -25.3915,51.369 -54.6189,50.214 -28.2725,-1.116 -50.2197,-24.34 -50.2253,-52.464 0.2885,-29.024 23.4975,-51.662 51.7435,-52.151 z"
       id="path37" />
  </g>
</svg>
