<?xml version="1.0" encoding="UTF-8" standalone="no"?>
<!-- Created with Inkscape (http://www.inkscape.org/) -->

<svg
   xmlns:dc="http://purl.org/dc/elements/1.1/"
   xmlns:cc="http://creativecommons.org/ns#"
   xmlns:rdf="http://www.w3.org/1999/02/22-rdf-syntax-ns#"
   xmlns:svg="http://www.w3.org/2000/svg"
   xmlns="http://www.w3.org/2000/svg"
   xmlns:sodipodi="http://sodipodi.sourceforge.net/DTD/sodipodi-0.dtd"
   xmlns:inkscape="http://www.inkscape.org/namespaces/inkscape"
   width="1000"
   height="1000"
   id="svg8298"
   version="1.1"
   inkscape:version="0.91 r13725"
   viewBox="0 0 1000 1000"
   sodipodi:docname="special_mining.svg">
  <defs
     id="defs8300" />
  <sodipodi:namedview
     id="base"
     pagecolor="#ffffff"
     bordercolor="#666666"
     borderopacity="1.0"
     inkscape:pageopacity="0.0"
     inkscape:pageshadow="2"
     inkscape:zoom="0.5"
     inkscape:cx="9.7405635"
     inkscape:cy="496"
     inkscape:current-layer="layer1"
     showgrid="true"
     inkscape:grid-bbox="true"
     inkscape:document-units="px"
     inkscape:window-width="1920"
     inkscape:window-height="1018"
     inkscape:window-x="-8"
     inkscape:window-y="-8"
     inkscape:window-maximized="1" />
  <metadata
     id="metadata8303">
    <rdf:RDF>
      <cc:Work
         rdf:about="">
        <dc:format>image/svg+xml</dc:format>
        <dc:type
           rdf:resource="http://purl.org/dc/dcmitype/StillImage" />
        <dc:title></dc:title>
      </cc:Work>
    </rdf:RDF>
  </metadata>
  <g
     id="layer1"
     inkscape:label="Layer 1"
     inkscape:groupmode="layer"
     transform="translate(0,968)">
    <path
       inkscape:connector-curvature="0"
       d="m 324.31445,-875.91207 c -121.58435,69.16846 -215.04733,164.10372 -281.67966,287.02914 34.522263,30.4732 68.00332,60.02246 102.15177,90.16684 24.34016,-49.74876 52.69641,-94.26284 88.90672,-134.88993 65.59894,69.08304 130.22519,137.15246 195.44449,205.83846 -3.7186,3.97528 -6.57608,7.27576 -9.67815,10.32284 -62.92156,61.80346 -125.86759,123.57829 -188.81265,185.35787 -30.51597,29.95349 -61.0838,59.85447 -91.54203,89.87192 -15.33334,15.10988 -15.58092,22.26491 -0.685,38.44999 9.63899,10.493682 19.7428,20.575523 30.05506,30.390619 14.18937,13.508321 22.14032,13.13512 35.7445,-1.197767 59.83611,-63.036152 119.6086,-126.129532 179.42026,-189.188582 33.09649,-34.88941 66.22426,-69.74638 101.2818,-106.66162 4.51127,5.23326 7.82864,9.42376 11.48851,13.27736 89.58879,94.40459 179.19814,188.78625 268.84563,283.131186 13.06303,13.745511 20.87892,14.08959 34.72482,1.04985 10.03336,-9.449046 19.79957,-19.239316 29.14892,-29.390816 16.62896,-18.04913 16.36574,-24.37474 -0.8806,-41.29902 -76.24098,-74.93956 -152.70217,-149.64525 -228.62608,-224.91934 -19.84654,-19.67739 -38.03145,-41.08426 -57.46504,-62.22963 58.01501,-61.12436 117.97735,-124.30174 178.83021,-188.41925 9.93549,10.50083 18.50195,20.20185 27.77203,29.15366 7.92648,7.65276 15.70812,16.34828 25.20912,21.29948 55.33074,28.84776 111.14687,56.7358 166.83282,84.87392 2.36799,1.19776 5.0984,1.66545 9.30628,2.99702 -30.23329,-61.76393 -59.45069,-121.64608 -88.94403,-181.38792 -2.30946,-4.66726 -6.15526,-8.73178 -9.88852,-12.457 -13.11099,-13.07357 -26.48326,-25.87559 -39.70579,-38.73298 5.18646,-6.49407 8.68976,-10.88359 10.99136,-13.76412 -14.51131,-15.18433 -28.20652,-29.5192 -42.02599,-43.97386 -4.01218,3.35966 -8.3179,6.96032 -13.52784,11.32406 -35.9148,-36.95389 -71.26687,-73.3313 -105.77055,-108.8287 -31.36246,31.83327 -61.90678,62.84333 -94.16266,95.58667 34.71309,35.01827 69.98394,70.59537 105.84783,106.7752 -63.2073,62.03872 -125.62587,123.29863 -188.36641,184.87923 -68.42116,-67.2462 -135.7248,-133.38811 -203.76923,-200.25923 39.96412,-36.8217 84.12636,-65.71813 132.35656,-90.27754 -30.43965,-35.60287 -59.57192,-69.67957 -88.82942,-103.89849 z"
       id="path3-49" />
  </g>
</svg>
