<?xml version="1.0" encoding="UTF-8" standalone="no"?>
<!-- Created with Inkscape (http://www.inkscape.org/) -->

<svg
   xmlns:dc="http://purl.org/dc/elements/1.1/"
   xmlns:cc="http://creativecommons.org/ns#"
   xmlns:rdf="http://www.w3.org/1999/02/22-rdf-syntax-ns#"
   xmlns:svg="http://www.w3.org/2000/svg"
   xmlns="http://www.w3.org/2000/svg"
   xmlns:sodipodi="http://sodipodi.sourceforge.net/DTD/sodipodi-0.dtd"
   xmlns:inkscape="http://www.inkscape.org/namespaces/inkscape"
   width="1000"
   height="1000"
   id="svg3349"
   version="1.1"
   inkscape:version="0.91 r13725"
   viewBox="0 0 1000 1000"
   sodipodi:docname="special_bycicle.svg">
  <defs
     id="defs3351" />
  <sodipodi:namedview
     id="base"
     pagecolor="#ffffff"
     bordercolor="#666666"
     borderopacity="1.0"
     inkscape:pageopacity="0.0"
     inkscape:pageshadow="2"
     inkscape:zoom="0.5"
     inkscape:cx="11.512342"
     inkscape:cy="576"
     inkscape:current-layer="layer1"
     showgrid="true"
     inkscape:grid-bbox="true"
     inkscape:document-units="px"
     inkscape:window-width="1920"
     inkscape:window-height="1018"
     inkscape:window-x="-8"
     inkscape:window-y="-8"
     inkscape:window-maximized="1" />
  <metadata
     id="metadata3354">
    <rdf:RDF>
      <cc:Work
         rdf:about="">
        <dc:format>image/svg+xml</dc:format>
        <dc:type
           rdf:resource="http://purl.org/dc/dcmitype/StillImage" />
        <dc:title></dc:title>
      </cc:Work>
    </rdf:RDF>
  </metadata>
  <g
     id="layer1"
     inkscape:label="Layer 1"
     inkscape:groupmode="layer"
     transform="translate(0,968)">
    <g
       transform="matrix(34.474654,0,0,39.25364,-9763.0699,-16948.762)"
       id="g3"
       style="fill:#000000;fill-opacity:1">
      <path
         style="clip-rule:evenodd;fill:#000000;fill-opacity:1;fill-rule:evenodd"
         inkscape:connector-curvature="0"
         d="m 296.986,411.697 c 0.176,0.102 0.348,0.211 0.389,0.432 0.064,0.346 -0.187,0.65 -0.546,0.654 -0.544,0.005 -1.088,0.004 -1.631,-0.001 -0.116,-10e-4 -0.18,0.028 -0.236,0.137 -0.37,0.733 -0.752,1.46 -1.123,2.193 -0.031,0.061 -0.035,0.172 10e-4,0.223 1.337,1.903 2.682,3.802 4.027,5.699 0.011,0.018 0.032,0.029 0.071,0.061 0.487,-1.711 0.972,-3.407 1.468,-5.148 -0.223,0.043 -0.415,0.076 -0.605,0.118 -0.361,0.081 -0.699,-0.109 -0.799,-0.452 -0.097,-0.338 0.091,-0.707 0.453,-0.793 0.573,-0.134 1.139,-0.312 1.74,-0.301 0.457,0.009 0.912,-0.029 1.369,-0.035 0.412,-0.005 0.686,0.257 0.686,0.644 0.002,0.387 -0.268,0.651 -0.676,0.659 -0.266,0.004 -0.535,0.018 -0.803,0.009 -0.152,-0.006 -0.217,0.055 -0.254,0.193 -0.421,1.495 -0.846,2.989 -1.271,4.482 -0.132,0.468 -0.267,0.937 -0.409,1.438 0.469,0 0.908,0.005 1.346,-0.004 0.037,-0.003 0.098,-0.082 0.104,-0.132 0.264,-2.289 2.055,-4.263 4.449,-4.748 3.066,-0.62 6.107,1.268 6.725,4.406 0.578,2.94 -1.387,5.858 -4.328,6.443 -2.154,0.429 -4.008,-0.163 -5.502,-1.778 -0.764,-0.827 -1.207,-1.822 -1.338,-2.945 -0.016,-0.139 -0.077,-0.161 -0.196,-0.161 -0.565,0.005 -1.13,-0.007 -1.696,0.005 -0.334,0.009 -0.566,-0.111 -0.762,-0.393 -1.464,-2.086 -2.942,-4.165 -4.433,-6.271 -0.256,0.495 -0.503,0.971 -0.73,1.412 0.398,0.367 0.805,0.693 1.157,1.071 0.776,0.839 1.222,1.841 1.357,2.98 0.172,1.459 -0.176,2.784 -1.058,3.954 -0.91,1.205 -2.121,1.943 -3.617,2.177 -1.985,0.309 -3.69,-0.265 -5.087,-1.699 -0.845,-0.87 -1.328,-1.928 -1.467,-3.138 -0.007,-0.057 -0.027,-0.111 -0.041,-0.166 0,-0.306 0,-0.609 0,-0.915 0.014,-0.055 0.034,-0.108 0.04,-0.163 0.2,-1.641 0.983,-2.94 2.322,-3.89 1.291,-0.916 2.736,-1.22 4.293,-0.95 0.373,0.064 0.736,0.174 1.118,0.266 0.017,-0.032 0.041,-0.076 0.063,-0.12 0.85,-1.643 1.703,-3.285 2.546,-4.931 0.116,-0.227 0.265,-0.407 0.492,-0.52 0.797,-0.002 1.594,-0.002 2.392,-0.002 z m -5.143,7.267 c -0.494,0.956 -0.981,1.896 -1.461,2.839 -0.029,0.059 -0.008,0.145 -0.001,0.217 0.022,0.227 0.104,0.465 0.061,0.678 -0.103,0.525 -0.593,0.904 -1.214,0.834 -0.482,-0.055 -0.922,-0.499 -0.941,-0.981 -0.025,-0.609 0.33,-1.071 0.904,-1.155 0.148,-0.021 0.223,-0.091 0.288,-0.217 0.435,-0.853 0.878,-1.704 1.316,-2.554 0.025,-0.05 0.043,-0.102 0.066,-0.154 -2.096,-0.752 -4.541,0.179 -5.488,2.32 -0.897,2.028 -0.025,4.402 1.993,5.434 2.077,1.063 4.645,0.317 5.808,-1.686 1.099,-1.897 0.521,-4.352 -1.331,-5.575 z m 9.727,2.921 c 0.066,0.014 0.096,0.022 0.123,0.022 1.043,0.003 2.086,0.005 3.129,-0.004 0.07,0 0.158,-0.059 0.205,-0.118 0.396,-0.494 1.133,-0.557 1.621,-0.129 0.459,0.401 0.463,1.148 0.01,1.584 -0.453,0.437 -1.199,0.4 -1.598,-0.089 -0.096,-0.12 -0.193,-0.165 -0.346,-0.165 -0.963,0.007 -1.928,0.004 -2.893,0.004 -0.07,0 -0.139,0.007 -0.221,0.012 0,0.07 -0.008,0.127 0.002,0.182 0.164,0.833 0.52,1.579 1.123,2.177 1.189,1.183 2.621,1.595 4.25,1.208 1.789,-0.429 3.133,-1.931 3.27,-3.829 0.086,-1.203 -0.301,-2.272 -1.135,-3.145 -1.045,-1.092 -2.34,-1.551 -3.834,-1.329 -1.734,0.258 -2.914,1.236 -3.516,2.889 -0.086,0.232 -0.127,0.481 -0.19,0.73 z"
         id="path5" />
    </g>
  </g>
</svg>
