<?xml version="1.0" encoding="UTF-8" standalone="no"?>
<!-- Created with Inkscape (http://www.inkscape.org/) -->

<svg
   xmlns:dc="http://purl.org/dc/elements/1.1/"
   xmlns:cc="http://creativecommons.org/ns#"
   xmlns:rdf="http://www.w3.org/1999/02/22-rdf-syntax-ns#"
   xmlns:svg="http://www.w3.org/2000/svg"
   xmlns="http://www.w3.org/2000/svg"
   xmlns:sodipodi="http://sodipodi.sourceforge.net/DTD/sodipodi-0.dtd"
   xmlns:inkscape="http://www.inkscape.org/namespaces/inkscape"
   width="1000"
   height="1000"
   id="svg7172"
   version="1.1"
   inkscape:version="0.91 r13725"
   viewBox="0 0 1000 1000"
   sodipodi:docname="special_coniferous.svg">
  <defs
     id="defs7174" />
  <sodipodi:namedview
     id="base"
     pagecolor="#ffffff"
     bordercolor="#666666"
     borderopacity="1.0"
     inkscape:pageopacity="0.0"
     inkscape:pageshadow="2"
     inkscape:zoom="0.5"
     inkscape:cx="9.7405635"
     inkscape:cy="496"
     inkscape:current-layer="layer1"
     showgrid="true"
     inkscape:grid-bbox="true"
     inkscape:document-units="px"
     inkscape:window-width="1920"
     inkscape:window-height="1018"
     inkscape:window-x="-8"
     inkscape:window-y="-8"
     inkscape:window-maximized="1" />
  <metadata
     id="metadata7177">
    <rdf:RDF>
      <cc:Work
         rdf:about="">
        <dc:format>image/svg+xml</dc:format>
        <dc:type
           rdf:resource="http://purl.org/dc/dcmitype/StillImage" />
        <dc:title></dc:title>
      </cc:Work>
    </rdf:RDF>
  </metadata>
  <g
     id="layer1"
     inkscape:label="Layer 1"
     inkscape:groupmode="layer"
     transform="translate(0,968)">
    <path
       style="fill:#000000;fill-opacity:1"
       d="m 497.13667,-867.95457 c -49.84931,-0.93976 -102.32096,29.78827 -112.92694,92.76344 -4.48947,26.66547 -8.24287,35.23853 -36.57361,35.78612 -87.27094,1.68427 -124.3874,144.60172 -50.65388,211.96331 7.30604,6.67521 3.09626,12.46965 -21.50111,33.30651 -125.17142,106.04511 9.6092,317.6488 137.63713,216.0926 18.74552,-14.86992 21.71835,-15.02898 25.94818,-2.75005 8.92703,25.91771 4.95891,150.36403 -6.17943,191.592662 l -11.11884,41.013844 66.96084,0 c 6.62937,0 9.94729,0.02645 15.3237,0 5.44033,0.02645 8.83316,0 15.56987,0 l 66.96088,0 -10.87168,-41.013844 c -11.13734,-41.228632 -15.35366,-165.674952 -6.42611,-191.592662 4.22981,-12.27884 7.20267,-12.11978 25.94815,2.75005 128.02745,101.5562 262.80607,-110.04749 137.63466,-216.0926 -24.59435,-20.83686 -30.07161,-29.53767 -21.24994,-33.30651 73.73103,-31.52134 34.2255,-195.94002 -50.90306,-211.96331 -27.94022,-5.25742 -31.83343,-9.12065 -36.32443,-35.78612 -11.10637,-65.95802 -68.24827,-96.32236 -120.09164,-92.21341 -2.36218,-0.20347 -4.78415,-0.50445 -7.16274,-0.54922 z"
       id="path9696"
       inkscape:connector-curvature="0" />
  </g>
</svg>
