<?xml version="1.0" encoding="UTF-8" standalone="no"?>
<!-- Created with Inkscape (http://www.inkscape.org/) -->

<svg
   xmlns:dc="http://purl.org/dc/elements/1.1/"
   xmlns:cc="http://creativecommons.org/ns#"
   xmlns:rdf="http://www.w3.org/1999/02/22-rdf-syntax-ns#"
   xmlns:svg="http://www.w3.org/2000/svg"
   xmlns="http://www.w3.org/2000/svg"
   xmlns:sodipodi="http://sodipodi.sourceforge.net/DTD/sodipodi-0.dtd"
   xmlns:inkscape="http://www.inkscape.org/namespaces/inkscape"
   width="352.78mm"
   height="352.78mm"
   viewBox="0 0 1250.0079 1250.0079"
   id="svg11978"
   version="1.1"
   inkscape:version="0.91 r13725"
   sodipodi:docname="traffic_parking.svg">
  <defs
     id="defs11980" />
  <sodipodi:namedview
     id="base"
     pagecolor="#ffffff"
     bordercolor="#666666"
     borderopacity="1.0"
     inkscape:pageopacity="0.0"
     inkscape:pageshadow="2"
     inkscape:zoom="0.5"
     inkscape:cx="80"
     inkscape:cy="520"
     inkscape:document-units="px"
     inkscape:current-layer="layer1"
     showgrid="false"
     inkscape:showpageshadow="true"
     inkscape:window-width="1920"
     inkscape:window-height="1018"
     inkscape:window-x="-8"
     inkscape:window-y="-8"
     inkscape:window-maximized="1" />
  <metadata
     id="metadata11983">
    <rdf:RDF>
      <cc:Work
         rdf:about="">
        <dc:format>image/svg+xml</dc:format>
        <dc:type
           rdf:resource="http://purl.org/dc/dcmitype/StillImage" />
        <dc:title></dc:title>
      </cc:Work>
    </rdf:RDF>
  </metadata>
  <g
     inkscape:label="Layer 1"
     inkscape:groupmode="layer"
     id="layer1"
     transform="translate(0,197.64569)">
    <path
       style="font-style:normal;font-weight:normal;font-size:143.53205872px;font-family:'Bitstream Vera Sans';fill:#3c73b4;fill-opacity:1;stroke:#3c73b4;stroke-width:27.54166794;stroke-linecap:round;stroke-linejoin:round;stroke-miterlimit:4;stroke-dasharray:none;stroke-opacity:1"
       d="m 445.98545,150.81287 0,553.09089 62.071,0 0,-224.8567 120.307,0 c 66.339,2e-4 112.201,-16.286 137.585,-48.8579 25.383,-32.5715 38.073,-72.3752 38.074,-119.4095 0,-27.4152 -4.745,-52.5671 -14.238,-75.45589 -9.492,-22.8877 -22.024,-40.6819 -37.595,-53.3841 -15.571,-12.7011 -34.877,-21.316 -57.914,-25.8438 -16.426,-3.5208 -40.209,-5.2825 -71.351,-5.283 l -176.939,0 z m 62.071,65.271 119.986,0 c 28.156,6e-4 47.462,1.6352 57.914,4.9046 16.212,5.2824 29.277,16.15879 39.196,32.63279 9.919,16.475 14.878,36.2821 14.878,59.4215 0,31.9434 -8.424,56.7198 -25.276,74.3258 -16.851,17.6066 -45.327,26.4079 -85.43,26.4075 l -121.268,0 0,-197.69219 z"
       id="text2419"
       inkscape:connector-curvature="0" />
  </g>
</svg>
