<?xml version="1.0" encoding="UTF-8" standalone="no"?>
<!-- Created with Inkscape (http://www.inkscape.org/) -->

<svg
   xmlns:dc="http://purl.org/dc/elements/1.1/"
   xmlns:cc="http://creativecommons.org/ns#"
   xmlns:rdf="http://www.w3.org/1999/02/22-rdf-syntax-ns#"
   xmlns:svg="http://www.w3.org/2000/svg"
   xmlns="http://www.w3.org/2000/svg"
   xmlns:sodipodi="http://sodipodi.sourceforge.net/DTD/sodipodi-0.dtd"
   xmlns:inkscape="http://www.inkscape.org/namespaces/inkscape"
   width="32"
   height="32"
   id="svg3347"
   version="1.1"
   inkscape:version="0.91 r13725"
   viewBox="0 0 32 32"
   sodipodi:docname="parking_.svg">
  <defs
     id="defs3349" />
  <sodipodi:namedview
     id="base"
     pagecolor="#ffffff"
     bordercolor="#666666"
     borderopacity="1.0"
     inkscape:pageopacity="0.0"
     inkscape:pageshadow="2"
     inkscape:zoom="20"
     inkscape:cx="10.248101"
     inkscape:cy="16"
     inkscape:current-layer="text6"
     showgrid="true"
     inkscape:grid-bbox="true"
     inkscape:document-units="px"
     inkscape:window-width="1920"
     inkscape:window-height="1018"
     inkscape:window-x="-8"
     inkscape:window-y="-8"
     inkscape:window-maximized="1" />
  <metadata
     id="metadata3352">
    <rdf:RDF>
      <cc:Work
         rdf:about="">
        <dc:format>image/svg+xml</dc:format>
        <dc:type
           rdf:resource="http://purl.org/dc/dcmitype/StillImage" />
        <dc:title />
      </cc:Work>
    </rdf:RDF>
  </metadata>
  <g
     id="layer1"
     inkscape:label="Layer 1"
     inkscape:groupmode="layer">
    <g
       style="font-size:28px;font-family:Arial-BoldMT;fill:#0000ff"
       id="text6">
      <path
         d="m 22.658203,11.973633 q 0,1.353515 -0.478516,2.515625 -0.464843,1.148437 -1.3125,1.996094 -1.052734,1.052734 -2.488281,1.585937 -1.435547,0.519531 -3.623047,0.519531 l -2.707031,0 0,7.587891 -2.7070311,0 0,-20.3574219 5.5234371,0 q 1.832032,0 3.103516,0.3144531 1.271484,0.3007812 2.255859,0.9570312 1.16211,0.7792969 1.791016,1.9414063 0.642578,1.1621093 0.642578,2.9394533 z m -2.816406,0.06836 q 0,-1.052734 -0.369141,-1.832031 Q 19.103516,9.4306641 18.351562,8.9384766 17.695312,8.5146484 16.847656,8.3369141 16.013672,8.1455078 14.728516,8.1455078 l -2.679688,0 0,8.1347652 2.283203,0 q 1.640625,0 2.666016,-0.287109 1.02539,-0.300781 1.667969,-0.943359 0.642578,-0.65625 0.902343,-1.38086 0.273438,-0.724609 0.273438,-1.626953 z"
         style="font-size:28px;font-family:Arial-BoldMT;fill:#3c73b4;fill-opacity:1"
         id="path4137" />
    </g>
  </g>
</svg>
