<?xml version="1.0" encoding="UTF-8" standalone="no"?>
<!-- Created with Inkscape (http://www.inkscape.org/) -->

<svg
   xmlns:dc="http://purl.org/dc/elements/1.1/"
   xmlns:cc="http://creativecommons.org/ns#"
   xmlns:rdf="http://www.w3.org/1999/02/22-rdf-syntax-ns#"
   xmlns:svg="http://www.w3.org/2000/svg"
   xmlns="http://www.w3.org/2000/svg"
   xmlns:sodipodi="http://sodipodi.sourceforge.net/DTD/sodipodi-0.dtd"
   xmlns:inkscape="http://www.inkscape.org/namespaces/inkscape"
   width="32"
   height="32"
   id="svg3348"
   version="1.1"
   inkscape:version="0.91 r13725"
   viewBox="0 0 32 32"
   sodipodi:docname="fuel_station_.svg">
  <defs
     id="defs3350" />
  <sodipodi:namedview
     id="base"
     pagecolor="#ffffff"
     bordercolor="#666666"
     borderopacity="1.0"
     inkscape:pageopacity="0.0"
     inkscape:pageshadow="2"
     inkscape:zoom="20"
     inkscape:cx="13.598572"
     inkscape:cy="16"
     inkscape:current-layer="layer1"
     showgrid="true"
     inkscape:grid-bbox="true"
     inkscape:document-units="px"
     inkscape:window-width="1920"
     inkscape:window-height="1018"
     inkscape:window-x="-8"
     inkscape:window-y="-8"
     inkscape:window-maximized="1" />
  <metadata
     id="metadata3353">
    <rdf:RDF>
      <cc:Work
         rdf:about="">
        <dc:format>image/svg+xml</dc:format>
        <dc:type
           rdf:resource="http://purl.org/dc/dcmitype/StillImage" />
        <dc:title />
      </cc:Work>
    </rdf:RDF>
  </metadata>
  <g
     id="layer1"
     inkscape:label="Layer 1"
     inkscape:groupmode="layer">
    <path
       inkscape:connector-curvature="0"
       style="clip-rule:evenodd;fill:#4c4c4c;fill-rule:evenodd;fill-opacity:1"
       d="m 5.84,28.614801 c 0,-7.172 0,-14.343 0,-21.5150002 0.006,-0.017 0.017,-0.033 0.019,-0.049 0.02,-0.307 0.127,-0.58 0.306,-0.832 0.229,-0.322 0.533,-0.533 0.911,-0.625 0.206,-0.05 0.425,-0.064 0.638,-0.064 2.395,-0.005 4.788,-0.003 7.183,-0.003 1.096,0 2.193,0.002 3.291,0 0.35,-0.002 0.684,0.057 0.994,0.24 0.236,0.141 0.432,0.326 0.576,0.553 0.205,0.315 0.293,0.677 0.295,1.052 0.002,1.1120002 0,2.2240002 0,3.3340002 0,0.042 0,0.086 0,0.126 0.119,0.019 0.227,0.041 0.334,0.049 0.338,0.022 0.658,0.097 0.977,0.217 0.336,0.126 0.637,0.302 0.924,0.518 0.219,0.166 0.406,0.361 0.58,0.569 0.213,0.254 0.373,0.545 0.48,0.851 0.104,0.297 0.166,0.61 0.221,0.922 0.035,0.188 0.025,0.384 0.027,0.577 0.002,2.271 0,4.541 0.002,6.813 0,0.324 -0.014,0.65 0.061,0.973 0.066,0.285 0.129,0.563 0.346,0.779 0.279,0.281 0.781,0.242 1.027,-0.064 0.176,-0.217 0.248,-0.482 0.287,-0.748 0.041,-0.301 0.049,-0.611 0.049,-0.914 0.006,-3.434 0.004,-6.866 0.004,-10.298 0,-0.044 0.002,-0.089 -0.006,-0.133 -0.004,-0.032 -0.014,-0.073 -0.037,-0.097 -0.07,-0.08 -0.146,-0.153 -0.223,-0.229 -0.158,-0.151 -0.318,-0.301 -0.475,-0.455 -0.184,-0.187 -0.355,-0.383 -0.547,-0.562 -0.168,-0.159 -0.288,-0.349 -0.356,-0.559 -0.08,-0.246 -0.168,-0.505 -0.064,-0.7720002 0.055,-0.138 0.088,-0.294 0.176,-0.409 0.166,-0.221 0.363,-0.417 0.549,-0.622 0.041,-0.044 0.045,-0.076 -0.002,-0.118 -0.162,-0.147 -0.324,-0.296 -0.484,-0.444 -0.35,-0.325 -0.699,-0.653 -1.049,-0.979 -0.225,-0.21 -0.455,-0.416 -0.684,-0.622 -0.051,-0.045 -0.051,-0.079 -0.008,-0.129 0.133,-0.146 0.266,-0.292 0.396,-0.442 0.186,-0.217 0.367,-0.44 0.555,-0.658 0.055,-0.064 0.121,-0.091 0.189,-0.012 0.016,0.02 0.037,0.034 0.055,0.051 0.201,0.185 0.404,0.369 0.605,0.555 0.162,0.15 0.32,0.305 0.482,0.454 0.178,0.167 0.359,0.332 0.541,0.497 0.158,0.143 0.316,0.281 0.473,0.426 0.195,0.182 0.385,0.365 0.58,0.546 0.244,0.228 0.488,0.455 0.678,0.739 0.191,0.281 0.275,0.6 0.35,0.92 0.043,0.187 0.035,0.3830002 0.055,0.5750002 0.006,0.064 0.025,0.125 0.039,0.189 0,4.322 0,8.644 0,12.966 -0.014,0.066 -0.039,0.135 -0.039,0.201 -0.004,0.336 -0.059,0.662 -0.129,0.988 -0.066,0.32 -0.191,0.619 -0.336,0.91 -0.037,0.07 -0.07,0.15 -0.123,0.211 -0.154,0.17 -0.313,0.336 -0.479,0.492 -0.176,0.168 -0.393,0.279 -0.621,0.355 -0.242,0.078 -0.492,0.137 -0.752,0.137 -0.303,-0.004 -0.605,0.008 -0.904,-0.076 -0.225,-0.063 -0.447,-0.131 -0.641,-0.26 -0.156,-0.104 -0.313,-0.215 -0.443,-0.348 -0.283,-0.287 -0.477,-0.643 -0.602,-1.021 -0.104,-0.307 -0.174,-0.631 -0.217,-0.953 -0.041,-0.318 -0.045,-0.646 -0.045,-0.971 -0.004,-2.277 -0.002,-4.556 -0.004,-6.833 0,-0.183 -0.027,-0.365 -0.043,-0.549 -0.02,-0.247 -0.104,-0.473 -0.248,-0.678 -0.146,-0.21 -0.326,-0.379 -0.559,-0.488 -0.109,-0.052 -0.229,-0.081 -0.336,-0.136 -0.184,-0.093 -0.381,-0.082 -0.588,-0.104 0,5.336 0,10.658 0,15.986 -4.744,0 -9.478,0 -14.211,0 z m 12.415,-19.54 c -3.553,0 -7.097,0 -10.638,0 0,1.78 0,3.553 0,5.322 3.551,0 7.092,0 10.638,0 0,-1.775 0,-3.544 0,-5.322 z"
       id="path7" />
  </g>
</svg>
