<?xml version="1.0" encoding="UTF-8" standalone="no"?>
<!-- Created with Inkscape (http://www.inkscape.org/) -->

<svg
   xmlns:dc="http://purl.org/dc/elements/1.1/"
   xmlns:cc="http://creativecommons.org/ns#"
   xmlns:rdf="http://www.w3.org/1999/02/22-rdf-syntax-ns#"
   xmlns:svg="http://www.w3.org/2000/svg"
   xmlns="http://www.w3.org/2000/svg"
   xmlns:sodipodi="http://sodipodi.sourceforge.net/DTD/sodipodi-0.dtd"
   xmlns:inkscape="http://www.inkscape.org/namespaces/inkscape"
   width="32"
   height="32"
   id="svg7166"
   version="1.1"
   inkscape:version="0.91 r13725"
   viewBox="0 0 32 32"
   sodipodi:docname="traffic_multi_storey.svg">
  <defs
     id="defs7168" />
  <sodipodi:namedview
     id="base"
     pagecolor="#ffffff"
     bordercolor="#666666"
     borderopacity="1.0"
     inkscape:pageopacity="0.0"
     inkscape:pageshadow="2"
     inkscape:zoom="20"
     inkscape:cx="11.790724"
     inkscape:cy="16"
     inkscape:current-layer="layer1"
     showgrid="true"
     inkscape:grid-bbox="true"
     inkscape:document-units="px"
     inkscape:window-width="1920"
     inkscape:window-height="1018"
     inkscape:window-x="-8"
     inkscape:window-y="-8"
     inkscape:window-maximized="1" />
  <metadata
     id="metadata7171">
    <rdf:RDF>
      <cc:Work
         rdf:about="">
        <dc:format>image/svg+xml</dc:format>
        <dc:type
           rdf:resource="http://purl.org/dc/dcmitype/StillImage" />
        <dc:title></dc:title>
      </cc:Work>
    </rdf:RDF>
  </metadata>
  <g
     id="layer1"
     inkscape:label="Layer 1"
     inkscape:groupmode="layer">
    <path
       inkscape:connector-curvature="0"
       style="font-style:normal;font-weight:normal;font-size:143.53205872px;font-family:'Bitstream Vera Sans';fill:#3c73b4;fill-opacity:1;stroke:none;stroke-width:18.07469177;stroke-linecap:round;stroke-linejoin:round;stroke-miterlimit:4;stroke-dasharray:none;stroke-opacity:1"
       d="m 4.36722,3.37693 0,17.650154 2.1367382,0 0,-7.175626 4.1412738,0 c 2.283569,0 3.862198,-0.519773 4.735961,-1.559204 0.873762,-1.039406 1.310636,-2.309586 1.310636,-3.81054 0,-0.874866 -0.163296,-1.677475 -0.490062,-2.4079052 C 15.875016,5.3434171 15.443612,4.7755285 14.907611,4.3701812 14.371553,3.9648593 13.707054,3.6900059 12.914057,3.5455064 12.34867,3.433207 11.530035,3.3769427 10.458005,3.37693 l -6.090785,0 z m 2.1367382,2.0828609 4.1302488,0 c 0.969272,1.27e-5 1.633669,0.052203 1.993482,0.156557 0.558007,0.1685764 1.007845,0.5157242 1.349311,1.0414305 0.341409,0.5257576 0.512127,1.1577406 0.512127,1.8961536 0,1.019378 -0.290116,1.810006 -0.870174,2.371847 -0.580058,0.561866 -1.560254,0.842818 -2.940659,0.842806 l -4.1743358,0 0,-6.3087941 z m 9.9257238,8.5617721 0,1.8775 10.367864,0 0,-1.8775 -10.367864,0 z m 2.812435,3.631663 c -0.787267,0 -1.204897,0.458364 -1.39771,0.994881 l -1.023486,2.818205 c -0.405723,0.05551 -1.124986,0.563369 -1.124986,1.525489 l 0,3.583879 0.996212,0 0,1.146052 c 0,1.410083 1.871307,1.39348 1.871307,0 l 0,-1.146052 3.36616,0 0.0011,0 3.36616,0 0,1.146052 c 0,1.39348 1.871249,1.410083 1.871249,0 l 0,-1.146052 0.99614,0 0,-3.583879 c 0,-0.96212 -0.719162,-1.470014 -1.124885,-1.525489 L 26.014706,18.648107 C 25.821922,18.11159 25.404321,17.653226 24.616981,17.653226 l -1.446803,0 -2.463808,0 -1.464253,0 z m -0.01158,1.026253 2.69722,0 0.0029,0 7.09e-4,0 2.69832,0 c 0.3374,0.0038 0.481843,0.228317 0.578307,0.539877 l 0.771467,2.217824 -4.048094,0 -7.09e-4,0 -0.0029,0 -4.046994,0 0.771395,-2.217824 c 0.09636,-0.31156 0.24095,-0.536528 0.578379,-0.539877 z m -1.572335,3.836412 c 0.477416,0 0.864169,0.424739 0.864169,0.949452 0,0.524751 -0.386753,0.950674 -0.864169,0.950674 -0.477387,0 -0.864213,-0.425923 -0.864213,-0.950674 0,-0.524713 0.386826,-0.949452 0.864213,-0.949452 z m 8.54458,0 c 0.477372,0 0.864198,0.424739 0.864198,0.949452 0,0.524751 -0.386826,0.950674 -0.864198,0.950674 -0.477387,0 -0.865197,-0.425923 -0.865197,-0.950674 0,-0.524713 0.38781,-0.949452 0.865197,-0.949452 z"
       id="text2419-8" />
  </g>
</svg>
