<?xml version="1.0" encoding="UTF-8" standalone="no"?>
<!-- Created with Inkscape (http://www.inkscape.org/) -->

<svg
   xmlns:dc="http://purl.org/dc/elements/1.1/"
   xmlns:cc="http://creativecommons.org/ns#"
   xmlns:rdf="http://www.w3.org/1999/02/22-rdf-syntax-ns#"
   xmlns:svg="http://www.w3.org/2000/svg"
   xmlns="http://www.w3.org/2000/svg"
   xmlns:sodipodi="http://sodipodi.sourceforge.net/DTD/sodipodi-0.dtd"
   xmlns:inkscape="http://www.inkscape.org/namespaces/inkscape"
   width="1000"
   height="1000"
   id="svg3348"
   version="1.1"
   inkscape:version="0.91 r13725"
   viewBox="0 0 1000 1000"
   sodipodi:docname="traffic_fuel_station.svg">
  <defs
     id="defs3350" />
  <sodipodi:namedview
     id="base"
     pagecolor="#ffffff"
     bordercolor="#666666"
     borderopacity="1.0"
     inkscape:pageopacity="0.0"
     inkscape:pageshadow="2"
     inkscape:zoom="0.48927765"
     inkscape:cx="11.467646"
     inkscape:cy="496"
     inkscape:current-layer="layer1"
     showgrid="true"
     inkscape:grid-bbox="true"
     inkscape:document-units="px"
     inkscape:window-width="1280"
     inkscape:window-height="1002"
     inkscape:window-x="1912"
     inkscape:window-y="-8"
     inkscape:window-maximized="1" />
  <metadata
     id="metadata3353">
    <rdf:RDF>
      <cc:Work
         rdf:about="">
        <dc:format>image/svg+xml</dc:format>
        <dc:type
           rdf:resource="http://purl.org/dc/dcmitype/StillImage" />
        <dc:title></dc:title>
      </cc:Work>
    </rdf:RDF>
  </metadata>
  <g
     id="layer1"
     inkscape:label="Layer 1"
     inkscape:groupmode="layer"
     transform="translate(0,968)">
    <path
       inkscape:connector-curvature="0"
       style="clip-rule:evenodd;fill:#4c4c4c;fill-opacity:1;fill-rule:evenodd"
       d="m 137.84,-65.385199 c 0,-227.852461 0,-455.673161 0,-683.525631 0.20525,-0.54009 0.58154,-1.0484 0.64996,-1.55672 0.68416,-9.7533 4.34444,-18.42644 10.46772,-26.43241 7.83369,-10.22985 18.233,-16.93326 31.16372,-19.85608 7.0469,-1.58848 14.53851,-2.03326 21.82487,-2.03326 81.92877,-0.15885 163.78913,-0.0953 245.7179,-0.0953 37.49224,0 75.0187,0.0635 112.57936,0 11.97289,-0.0635 23.39845,1.81088 34.00301,7.62474 8.07315,4.47953 14.77797,10.35693 19.70396,17.56865 7.01269,10.00747 10.02301,21.50811 10.09143,33.42176 0.0684,35.32794 0,70.65587 0,105.92026 0,1.33433 0,2.7322 0,4.00299 4.07078,0.60362 7.76527,1.30256 11.42556,1.55672 11.56239,0.69893 22.50903,3.08166 33.42146,6.89403 11.49398,4.00298 21.79066,9.59445 31.60843,16.45671 7.49161,5.27378 13.88855,11.46887 19.84079,18.07698 7.28636,8.06951 12.75968,17.3145 16.41996,27.03603 3.55766,9.43561 5.67857,19.37953 7.56003,29.29169 1.19728,5.97271 0.8552,12.19957 0.92362,18.33113 0.0684,72.14904 0,144.26632 0.0684,216.44713 0,10.29339 -0.47892,20.65032 2.0867,30.91194 2.25774,9.05438 4.41286,17.88636 11.83605,24.74862 9.54411,8.92729 26.71665,7.68827 35.13188,-2.03326 6.02066,-6.89403 8.48365,-15.31301 9.81777,-23.76376 1.40254,-9.56268 1.67621,-19.4113 1.67621,-29.03752 0.20525,-109.09724 0.13683,-218.13093 0.13683,-327.16463 0,-1.39787 0.0684,-2.8275 -0.20525,-4.22537 -0.13683,-1.01663 -0.47892,-2.31919 -1.26571,-3.08167 -2.39457,-2.54157 -4.9944,-4.86076 -7.62844,-7.27526 -5.4049,-4.79723 -10.87822,-9.56269 -16.24892,-14.45523 -6.29432,-5.94094 -12.14393,-12.1678 -18.71191,-17.85458 -5.74699,-5.05139 -9.85198,-11.08764 -12.17814,-17.75928 -2.73666,-7.81535 -5.74699,-16.04371 -2.18933,-24.52623 1.88145,-4.38422 3.01033,-9.3403 6.02065,-12.99382 5.67857,-7.02111 12.4176,-13.24797 18.78033,-19.76077 1.40254,-1.39787 1.53938,-2.4145 -0.0684,-3.74883 -5.54174,-4.67015 -11.08348,-9.40383 -16.5568,-14.10575 -11.97289,-10.32516 -23.91157,-20.74563 -35.88446,-31.10256 -7.69685,-6.67165 -15.56475,-13.21621 -23.39844,-19.76077 -1.74462,-1.42964 -1.74462,-2.50981 -0.27367,-4.0983 4.5497,-4.63838 9.0994,-9.27676 13.54647,-14.04222 6.36274,-6.89403 12.55443,-13.97867 18.98558,-20.90447 1.88146,-2.03327 4.1392,-2.89105 6.46536,-0.38124 0.54733,0.63539 1.26571,1.08017 1.88146,1.62026 6.87585,5.87739 13.82013,11.72302 20.69599,17.63219 5.54174,4.76546 10.94664,9.68977 16.48838,14.42346 6.08907,5.30554 12.28076,10.54755 18.50667,15.78955 5.4049,4.54307 10.8098,8.92729 16.1805,13.5339 6.67061,5.78209 13.17018,11.59595 19.84079,17.34627 8.34681,7.2435 16.69363,14.45523 23.19319,23.47783 6.53378,8.92729 9.40727,19.06183 11.97289,29.22815 1.47096,5.94093 1.19729,12.16781 1.88146,18.26759 0.20525,2.03327 0.8552,3.97122 1.33412,6.00448 0,137.30875 0,274.6175 0,411.92625 -0.47892,2.0968 -1.33412,4.28891 -1.33412,6.38572 -0.13683,10.67462 -2.01829,21.03155 -4.41287,31.38848 -2.25774,10.16632 -6.53377,19.66546 -11.49397,28.91045 -1.26571,2.22388 -2.39458,4.76546 -4.20762,6.70341 -5.26807,5.40086 -10.70718,10.67463 -16.38575,15.63071 -6.02065,5.33731 -13.44384,8.86375 -21.24333,11.27825 -8.27839,2.47804 -16.83046,4.35245 -25.7246,4.35245 -10.36511,-0.12708 -20.696,0.25416 -30.92427,-2.4145 -7.69685,-2.00149 -15.29109,-4.16183 -21.92749,-8.26012 -5.33649,-3.30406 -10.70718,-6.83049 -15.15426,-11.05587 -9.68093,-9.11791 -16.31733,-20.42793 -20.59337,-32.43689 -3.55765,-9.7533 -5.95223,-20.04669 -7.42319,-30.27654 -1.40254,-10.10278 -1.53937,-20.52325 -1.53937,-30.84841 -0.13683,-72.33966 -0.0684,-144.74286 -0.13683,-217.08252 0,-5.81386 -0.92362,-11.59595 -1.47096,-17.44158 -0.68416,-7.84713 -3.55765,-15.02708 -8.48364,-21.53988 -4.99441,-6.67164 -11.15189,-12.04072 -19.12242,-15.50362 -3.7287,-1.65203 -7.83369,-2.57335 -11.49397,-4.32069 -6.29432,-2.95458 -13.03335,-2.60511 -20.11446,-3.30405 0,169.52325 0,338.60173 0,507.870821 -162.28396,0 -324.22584,0 -486.13351,0 z M 562.53549,-686.16562 c -121.54193,0 -242.77599,0 -363.90742,0 0,56.55011 0,112.87783 0,169.07848 121.47351,0 242.60495,0 363.90742,0 0,-56.39126 0,-112.59191 0,-169.07848 z"
       id="path7" />
  </g>
</svg>
