<?xml version="1.0" encoding="UTF-8" standalone="no"?>
<!-- Created with Inkscape (http://www.inkscape.org/) -->

<svg
   xmlns:dc="http://purl.org/dc/elements/1.1/"
   xmlns:cc="http://creativecommons.org/ns#"
   xmlns:rdf="http://www.w3.org/1999/02/22-rdf-syntax-ns#"
   xmlns:svg="http://www.w3.org/2000/svg"
   xmlns="http://www.w3.org/2000/svg"
   xmlns:sodipodi="http://sodipodi.sourceforge.net/DTD/sodipodi-0.dtd"
   xmlns:inkscape="http://www.inkscape.org/namespaces/inkscape"
   width="1000"
   height="1000"
   id="svg7166"
   version="1.1"
   inkscape:version="0.91 r13725"
   viewBox="0 0 1000 1000"
   sodipodi:docname="traffic_multi_storey_parking.svg">
  <defs
     id="defs7168" />
  <sodipodi:namedview
     id="base"
     pagecolor="#ffffff"
     bordercolor="#666666"
     borderopacity="1.0"
     inkscape:pageopacity="0.0"
     inkscape:pageshadow="2"
     inkscape:zoom="0.5"
     inkscape:cx="11.790724"
     inkscape:cy="416"
     inkscape:current-layer="layer1"
     showgrid="true"
     inkscape:grid-bbox="true"
     inkscape:document-units="px"
     inkscape:window-width="1920"
     inkscape:window-height="1018"
     inkscape:window-x="-8"
     inkscape:window-y="-8"
     inkscape:window-maximized="1" />
  <metadata
     id="metadata7171">
    <rdf:RDF>
      <cc:Work
         rdf:about="">
        <dc:format>image/svg+xml</dc:format>
        <dc:type
           rdf:resource="http://purl.org/dc/dcmitype/StillImage" />
        <dc:title></dc:title>
      </cc:Work>
    </rdf:RDF>
  </metadata>
  <g
     id="layer1"
     inkscape:label="Layer 1"
     inkscape:groupmode="layer"
     transform="translate(0,968)">
    <path
       inkscape:connector-curvature="0"
       style="font-style:normal;font-weight:normal;font-size:143.53205872px;font-family:'Bitstream Vera Sans';fill:#3c73b4;fill-opacity:1;stroke:none;stroke-width:18.07469177;stroke-linecap:round;stroke-linejoin:round;stroke-miterlimit:4;stroke-dasharray:none;stroke-opacity:1"
       d="m 84.36722,-922.62307 0,629.24432 76.17669,0 0,-255.81771 147.64025,0 c 81.41134,0 137.69093,-18.53038 168.84139,-55.58706 31.15042,-37.05579 46.72538,-82.33888 46.72538,-135.84928 0,-31.18978 -5.82165,-59.80353 -17.47116,-85.84405 -11.64898,-26.03914 -27.02893,-46.28489 -46.13786,-60.7359 -19.11096,-14.4501 -42.80097,-24.24887 -71.07204,-29.40042 -20.15657,-4.00357 -49.34167,-6.00945 -87.56053,-6.0099 l -217.14212,0 z m 76.17669,74.25592 147.24719,0 c 34.55545,4.5e-4 58.24182,1.86108 71.06948,5.5814 19.89347,6.0099 35.93061,18.38604 48.10419,37.12796 12.17154,18.74375 18.2578,41.27452 18.2578,67.59963 0,36.34177 -10.34291,64.52839 -31.02251,84.55854 -20.6796,20.03104 -55.6245,30.04724 -104.83721,30.04681 l -148.81894,0 0,-224.91434 z m 353.86124,305.23509 0,66.93462 369.62394,0 0,-66.93462 -369.62394,0 z m 100.26591,129.47215 c -28.0668,0 -42.95569,16.3411 -49.82966,35.46843 l -36.48822,100.47161 c -14.4644,1.97899 -40.10679,20.08463 -40.10679,54.3851 l 0,127.768599 35.51588,0 0,40.857814 c 0,50.270764 66.71383,49.678851 66.71383,0 l 0,-40.857814 120.00671,0 0.0392,0 120.00672,0 0,40.857814 c 0,49.678851 66.71176,50.270764 66.71176,0 l 0,-40.857814 35.51331,0 0,-127.768599 c 0,-34.30047 -25.63879,-52.40736 -40.10319,-54.3851 L 856.1201,-378.19148 c -6.87293,-19.12733 -21.76079,-35.46843 -49.83019,-35.46843 l -51.57986,0 -87.83704,0 -52.20197,0 z m -0.41284,36.58687 96.15839,0 0.10339,0 0.0253,0 96.19761,0 c 12.02862,0.13547 17.17815,8.13971 20.61718,19.24711 l 27.50351,79.06748 -144.3183,0 -0.0253,0 -0.10339,0 -144.27908,0 27.50095,-79.06748 c 3.43532,-11.1074 8.59009,-19.12772 20.61974,-19.24711 z m -56.0552,136.77164 c 17.02033,0 30.80843,15.14233 30.80843,33.84884 0,18.70786 -13.7881,33.89241 -30.80843,33.89241 -17.01928,0 -30.80999,-15.18455 -30.80999,-33.89241 0,-18.70651 13.79071,-33.84884 30.80999,-33.84884 z m 304.62219,0 c 17.01875,0 30.80945,15.14233 30.80945,33.84884 0,18.70786 -13.7907,33.89241 -30.80945,33.89241 -17.01929,0 -30.84508,-15.18455 -30.84508,-33.89241 0,-18.70651 13.82579,-33.84884 30.84508,-33.84884 z"
       id="text2419-8" />
  </g>
</svg>
