<?xml version="1.0" encoding="UTF-8" standalone="no"?>
<!-- Created with Inkscape (http://www.inkscape.org/) -->

<svg
   xmlns:dc="http://purl.org/dc/elements/1.1/"
   xmlns:cc="http://creativecommons.org/ns#"
   xmlns:rdf="http://www.w3.org/1999/02/22-rdf-syntax-ns#"
   xmlns:svg="http://www.w3.org/2000/svg"
   xmlns="http://www.w3.org/2000/svg"
   xmlns:sodipodi="http://sodipodi.sourceforge.net/DTD/sodipodi-0.dtd"
   xmlns:inkscape="http://www.inkscape.org/namespaces/inkscape"
   width="352.78mm"
   height="352.78mm"
   viewBox="0 0 1250.0079 1250.0079"
   id="svg12589"
   version="1.1"
   inkscape:version="0.91 r13725"
   sodipodi:docname="traffic_multi_storey_parking.svg">
  <defs
     id="defs12591" />
  <sodipodi:namedview
     id="base"
     pagecolor="#ffffff"
     bordercolor="#666666"
     borderopacity="1.0"
     inkscape:pageopacity="0.0"
     inkscape:pageshadow="2"
     inkscape:zoom="0.5"
     inkscape:cx="80"
     inkscape:cy="520"
     inkscape:document-units="px"
     inkscape:current-layer="layer1"
     showgrid="false"
     inkscape:window-width="1920"
     inkscape:window-height="1018"
     inkscape:window-x="-8"
     inkscape:window-y="-8"
     inkscape:window-maximized="1" />
  <metadata
     id="metadata12594">
    <rdf:RDF>
      <cc:Work
         rdf:about="">
        <dc:format>image/svg+xml</dc:format>
        <dc:type
           rdf:resource="http://purl.org/dc/dcmitype/StillImage" />
        <dc:title></dc:title>
      </cc:Work>
    </rdf:RDF>
  </metadata>
  <g
     inkscape:label="Layer 1"
     inkscape:groupmode="layer"
     id="layer1"
     transform="translate(0,197.64569)">
    <path
       inkscape:connector-curvature="0"
       style="font-style:normal;font-weight:normal;font-size:143.53205872px;font-family:'Bitstream Vera Sans';fill:#3c73b4;fill-opacity:1;stroke:none;stroke-width:18.07469177;stroke-linecap:round;stroke-linejoin:round;stroke-miterlimit:4;stroke-dasharray:none;stroke-opacity:1"
       d="m 286.28045,88.385246 0,471.168204 60.828,0 0,-191.5524 117.893,0 c 65.008,10e-5 109.948,-13.875 134.822,-41.6225 24.874,-27.7469 37.311,-61.654 37.311,-101.7218 0,-23.3544 -4.649,-44.7801 -13.951,-64.2786 -9.302,-19.4977 -21.583,-34.6575 -36.842,-45.4782 -15.26,-10.8199 -34.177,-18.157204 -56.752,-22.014504 -16.095,-2.9993 -39.4,-4.4997 -69.918,-4.5002 l -173.391,0 z m 60.828,55.601704 117.579,0 c 27.593,4e-4 46.507,1.3943 56.75,4.1793 15.885,4.5001 28.691,13.7671 38.412,27.8009 9.719,14.0347 14.579,30.9056 14.579,50.6175 0,27.212 -8.259,48.3178 -24.772,63.316 -16.513,14.9989 -44.417,22.4987 -83.714,22.4986 l -118.834,0 0,-168.4123 z m 282.563,228.555 0,50.1198 295.15,0 0,-50.1198 -295.15,0 z m 80.064,96.9468 c -22.412,0 -34.301,12.2361 -39.79,26.5582 l -29.136,75.2316 c -11.55,1.4808 -32.026,15.0389 -32.026,40.7225 l 0,95.6713 28.36,0 0,30.5935 c 0,37.642 53.272,37.1988 53.272,0 l 0,-30.5935 95.827,0 0.03,0 95.827,0 0,30.5935 c 0,37.1988 53.27,37.642 53.27,0 l 0,-30.5935 28.358,0 0,-95.6713 c 0,-25.6836 -20.473,-39.2417 -32.023,-40.7225 l -29.169,-75.2316 c -5.488,-14.3221 -17.376,-26.5582 -39.79,-26.5582 l -41.187,0 -70.139,0 -41.684,0 z m -0.34,27.3958 76.784,0 0.07,0 0.02,0 76.815,0 c 9.605,0.089 13.717,6.0949 16.463,14.4117 l 21.962,59.2046 -115.24,0 -0.02,0 -0.07,0 -115.209,0 21.96,-59.2046 c 2.744,-8.3168 6.859,-14.3224 16.465,-14.4117 z m -44.761,102.4124 c 13.591,0 24.601,11.3382 24.601,25.3453 0,14.0082 -11.01,25.3782 -24.601,25.3782 -13.59,0 -24.602,-11.37 -24.602,-25.3782 0,-14.0071 11.012,-25.3453 24.602,-25.3453 z m 243.245,0 c 13.59,0 24.602,11.3382 24.602,25.3453 0,14.0082 -11.012,25.3782 -24.602,25.3782 -13.59,0 -24.63,-11.37 -24.63,-25.3782 0,-14.0071 11.04,-25.3453 24.63,-25.3453 z"
       id="text2419-8" />
  </g>
</svg>
