<?xml version="1.0" encoding="UTF-8" standalone="no"?>
<!-- Created with Inkscape (http://www.inkscape.org/) -->

<svg
   xmlns:dc="http://purl.org/dc/elements/1.1/"
   xmlns:cc="http://creativecommons.org/ns#"
   xmlns:rdf="http://www.w3.org/1999/02/22-rdf-syntax-ns#"
   xmlns:svg="http://www.w3.org/2000/svg"
   xmlns="http://www.w3.org/2000/svg"
   xmlns:sodipodi="http://sodipodi.sourceforge.net/DTD/sodipodi-0.dtd"
   xmlns:inkscape="http://www.inkscape.org/namespaces/inkscape"
   width="1000"
   height="1000"
   id="svg3347"
   version="1.1"
   inkscape:version="0.91 r13725"
   viewBox="0 0 1000 1000"
   sodipodi:docname="traffic_parking.svg">
  <defs
     id="defs3349" />
  <sodipodi:namedview
     id="base"
     pagecolor="#ffffff"
     bordercolor="#666666"
     borderopacity="1.0"
     inkscape:pageopacity="0.0"
     inkscape:pageshadow="2"
     inkscape:zoom="0.5"
     inkscape:cx="10.248101"
     inkscape:cy="336"
     inkscape:current-layer="text6"
     showgrid="true"
     inkscape:grid-bbox="true"
     inkscape:document-units="px"
     inkscape:window-width="1920"
     inkscape:window-height="1018"
     inkscape:window-x="-8"
     inkscape:window-y="-8"
     inkscape:window-maximized="1" />
  <metadata
     id="metadata3352">
    <rdf:RDF>
      <cc:Work
         rdf:about="">
        <dc:format>image/svg+xml</dc:format>
        <dc:type
           rdf:resource="http://purl.org/dc/dcmitype/StillImage" />
        <dc:title></dc:title>
      </cc:Work>
    </rdf:RDF>
  </metadata>
  <g
     id="layer1"
     inkscape:label="Layer 1"
     inkscape:groupmode="layer"
     transform="translate(0,968)">
    <g
       style="font-size:28px;font-family:Arial-BoldMT;fill:#0000ff"
       id="text6">
      <path
         d="m 791.13503,-638.30709 q 0,58.93173 -20.83448,109.52973 -20.23916,50.00268 -57.14594,86.90947 -45.8358,45.8358 -108.33918,69.05133 -62.50338,22.62026 -157.74663,22.62026 l -117.8635,0 0,330.375011 -117.8635,0 0,-886.357421 240.48917,0 q 79.76624,0 135.12636,13.69121 55.36012,13.09595 98.21958,41.66892 50.598,33.93041 77.98042,84.52838 27.9777,50.59797 27.9777,127.98311 z m -122.62567,2.97638 q 0,-45.83579 -16.07231,-79.7662 -16.07227,-33.93045 -48.81217,-55.36018 -28.57298,-18.45338 -65.47972,-26.19189 -36.31147,-8.33379 -92.26686,-8.33379 l -116.673,0 0,354.18579 99.41013,0 q 71.43243,0 116.07772,-12.50066 44.64524,-13.09593 72.62298,-41.07363 27.9777,-28.57297 39.28781,-60.12233 11.90542,-31.5493 11.90542,-70.83715 z"
         style="font-size:28px;font-family:Arial-BoldMT;fill:#3c73b4;fill-opacity:1"
         id="path4137"
         inkscape:connector-curvature="0" />
    </g>
  </g>
</svg>
