<?xml version="1.0" encoding="UTF-8" standalone="no"?>
<!-- Created with Inkscape (http://www.inkscape.org/) -->

<svg
   xmlns:dc="http://purl.org/dc/elements/1.1/"
   xmlns:cc="http://creativecommons.org/ns#"
   xmlns:rdf="http://www.w3.org/1999/02/22-rdf-syntax-ns#"
   xmlns:svg="http://www.w3.org/2000/svg"
   xmlns="http://www.w3.org/2000/svg"
   xmlns:sodipodi="http://sodipodi.sourceforge.net/DTD/sodipodi-0.dtd"
   xmlns:inkscape="http://www.inkscape.org/namespaces/inkscape"
   width="352.78mm"
   height="352.78mm"
   viewBox="0 0 1250.0079 1250.0079"
   id="svg28605"
   version="1.1"
   inkscape:version="0.91 r13725"
   sodipodi:docname="traffic_gate.svg">
  <defs
     id="defs28607" />
  <sodipodi:namedview
     id="base"
     pagecolor="#ffffff"
     bordercolor="#666666"
     borderopacity="1.0"
     inkscape:pageopacity="0.0"
     inkscape:pageshadow="2"
     inkscape:zoom="0.5"
     inkscape:cx="80"
     inkscape:cy="520"
     inkscape:document-units="px"
     inkscape:current-layer="layer1"
     showgrid="false"
     inkscape:window-width="1920"
     inkscape:window-height="1018"
     inkscape:window-x="-8"
     inkscape:window-y="-8"
     inkscape:window-maximized="1" />
  <metadata
     id="metadata28610">
    <rdf:RDF>
      <cc:Work
         rdf:about="">
        <dc:format>image/svg+xml</dc:format>
        <dc:type
           rdf:resource="http://purl.org/dc/dcmitype/StillImage" />
        <dc:title></dc:title>
      </cc:Work>
    </rdf:RDF>
  </metadata>
  <g
     inkscape:label="Layer 1"
     inkscape:groupmode="layer"
     id="layer1"
     transform="translate(0,197.64569)">
    <path
       d="m 268.9981,195.68032 0,97.821 0,347.515 0,18.02 36.9336,0 59.5058,0 36.9336,0 59.5059,0 36.9355,0 59.504,0 36.9355,0 59.5039,0 36.9356,0 59.5039,0 36.9355,0 59.5059,0 36.9336,0 59.5058,0 36.9336,0 0,-18.02 0,-347.515 0,-97.821 -36.9336,0 -59.5058,0 -36.9336,0 -59.5059,0 -36.9355,0 -59.5039,0 -36.9356,0 -59.5039,0 -36.9355,0 -59.504,0 -36.9355,0 -59.5059,0 -36.9336,0 -59.5058,0 -36.9336,0 z m 36.9336,97.821 59.5058,0 0,347.515 -59.5058,0 0,-347.515 z m 96.4394,0 59.5059,0 0,347.515 -59.5059,0 0,-347.515 z m 96.4414,0 59.504,0 0,347.515 -59.504,0 0,-347.515 z m 96.4395,0 59.5039,0 0,347.515 -59.5039,0 0,-347.515 z m 96.4395,0 59.5039,0 0,347.515 -59.5039,0 0,-347.515 z m 96.4394,0 59.5059,0 0,347.515 -59.5059,0 0,-347.515 z m 96.4395,0 59.5058,0 0,347.515 -59.5058,0 0,-347.515 z"
       id="path3-0"
       inkscape:connector-curvature="0"
       style="fill:#4c4c4c;fill-opacity:1" />
  </g>
</svg>
