<?xml version="1.0" encoding="UTF-8" standalone="no"?>
<!-- Created with Inkscape (http://www.inkscape.org/) -->

<svg
   xmlns:dc="http://purl.org/dc/elements/1.1/"
   xmlns:cc="http://creativecommons.org/ns#"
   xmlns:rdf="http://www.w3.org/1999/02/22-rdf-syntax-ns#"
   xmlns:svg="http://www.w3.org/2000/svg"
   xmlns="http://www.w3.org/2000/svg"
   xmlns:sodipodi="http://sodipodi.sourceforge.net/DTD/sodipodi-0.dtd"
   xmlns:inkscape="http://www.inkscape.org/namespaces/inkscape"
   width="32"
   height="32"
   id="svg3348"
   version="1.1"
   inkscape:version="0.91 r13725"
   viewBox="0 0 32 32"
   sodipodi:docname="bus_station_.svg">
  <defs
     id="defs3350" />
  <sodipodi:namedview
     id="base"
     pagecolor="#ffffff"
     bordercolor="#666666"
     borderopacity="1.0"
     inkscape:pageopacity="0.0"
     inkscape:pageshadow="2"
     inkscape:zoom="20"
     inkscape:cx="11.331756"
     inkscape:cy="16"
     inkscape:current-layer="layer1"
     showgrid="true"
     inkscape:grid-bbox="true"
     inkscape:document-units="px"
     inkscape:window-width="1920"
     inkscape:window-height="1018"
     inkscape:window-x="-8"
     inkscape:window-y="-8"
     inkscape:window-maximized="1" />
  <metadata
     id="metadata3353">
    <rdf:RDF>
      <cc:Work
         rdf:about="">
        <dc:format>image/svg+xml</dc:format>
        <dc:type
           rdf:resource="http://purl.org/dc/dcmitype/StillImage" />
        <dc:title />
      </cc:Work>
    </rdf:RDF>
  </metadata>
  <g
     id="layer1"
     inkscape:label="Layer 1"
     inkscape:groupmode="layer">
    <path
       style="fill:#ffffff"
       id="path4747"
       inkscape:connector-curvature="0"
       d="M 21.158,26.758 C 20.969,26.703 20.654,26.471 20.49,26.264 20.289,26.008 20.244,25.793 20.217,24.932 l -0.025,-0.777 -4.097,0 -4.096,0 -0.021,0.136 c -0.011,0.071 -0.028,0.435 -0.037,0.798 -0.015,0.623 -0.022,0.678 -0.127,0.885 -0.234,0.457 -0.634,0.723 -1.132,0.748 -0.403,0.02 -0.656,-0.068 -0.944,-0.33 C 9.356,26.041 9.323,25.935 9.307,24.978 l -0.014,-0.819 -1.303,0 -1.302,0 0,-4.985 0,-4.986 0.273,-0.974 C 7.577,11.017 8.377,8.49 8.804,7.393 8.903,7.14 9.074,6.802 9.194,6.626 c 0.633,-0.93 1.938,-1.53 3.933,-1.808 1.152,-0.161 4.023,-0.16 5.458,0 1.944,0.219 3.37,0.801 4.094,1.675 0.318,0.382 0.478,0.685 0.697,1.33 0.282,0.821 1.039,3.355 1.491,4.994 l 0.396,1.429 0,3.146 c 0,1.729 -0.012,3.961 -0.026,4.957 l -0.026,1.81 -1.148,0 -1.146,0 -0.025,0.834 c -0.021,0.788 -0.029,0.847 -0.133,1.056 -0.146,0.299 -0.502,0.619 -0.775,0.701 -0.246,0.063 -0.607,0.07 -0.826,0.01 l 0,0 z M 11.14,20.973 c 0.208,-0.104 0.492,-0.396 0.592,-0.613 0.263,-0.562 -0.003,-1.271 -0.582,-1.551 -0.792,-0.385 -1.696,0.188 -1.696,1.074 0,0.625 0.393,1.068 1.028,1.16 0.25,0.037 0.497,0.01 0.658,-0.07 z m 11.022,-0.026 c 0.863,-0.506 0.801,-1.744 -0.11,-2.146 -0.769,-0.34 -1.665,0.268 -1.657,1.123 0.004,0.32 0.127,0.598 0.377,0.838 0.275,0.268 0.438,0.326 0.846,0.313 0.294,-0.012 0.386,-0.034 0.544,-0.128 z m 1.041,-7.033 c 0.082,-0.091 0.16,-0.208 0.174,-0.261 C 23.411,13.516 22.332,9.242 22.127,8.702 22.09,8.607 22.02,8.49 21.967,8.441 L 21.873,8.353 16.053,8.369 C 12.852,8.379 10.18,8.4 10.116,8.418 10.052,8.436 9.973,8.49 9.942,8.539 9.818,8.728 8.638,13.078 8.608,13.46 c -0.021,0.26 -0.016,0.281 0.103,0.413 0.102,0.114 0.165,0.146 0.347,0.167 0.122,0.015 3.322,0.03 7.11,0.033 l 6.888,0.01 0.148,-0.165 -0.001,0 0,0 z M 20.294,7.062 C 20.488,6.979 20.584,6.83 20.609,6.579 20.63,6.353 20.546,6.152 20.4,6.068 20.326,6.026 19.42,6.013 16.071,6.003 L 11.837,5.992 11.71,6.137 c -0.229,0.26 -0.213,0.593 0.038,0.834 0.125,0.12 0.129,0.121 0.776,0.146 0.357,0.014 2.217,0.023 4.131,0.018 3.081,-0.01 3.505,-0.015 3.639,-0.073 l 0,0 z" />
  </g>
</svg>
