<?xml version="1.0" encoding="UTF-8" standalone="no"?>
<!-- Created with Inkscape (http://www.inkscape.org/) -->

<svg
   xmlns:dc="http://purl.org/dc/elements/1.1/"
   xmlns:cc="http://creativecommons.org/ns#"
   xmlns:rdf="http://www.w3.org/1999/02/22-rdf-syntax-ns#"
   xmlns:svg="http://www.w3.org/2000/svg"
   xmlns="http://www.w3.org/2000/svg"
   xmlns:sodipodi="http://sodipodi.sourceforge.net/DTD/sodipodi-0.dtd"
   xmlns:inkscape="http://www.inkscape.org/namespaces/inkscape"
   width="1000"
   height="1000"
   id="svg13368"
   version="1.1"
   inkscape:version="0.91 r13725"
   viewBox="0 0 1000 1000"
   sodipodi:docname="transport_railway_station.svg">
  <defs
     id="defs13370" />
  <sodipodi:namedview
     id="base"
     pagecolor="#ffffff"
     bordercolor="#666666"
     borderopacity="1.0"
     inkscape:pageopacity="0.0"
     inkscape:pageshadow="2"
     inkscape:zoom="0.5"
     inkscape:cx="-245.9705"
     inkscape:cy="576"
     inkscape:current-layer="layer1"
     showgrid="true"
     inkscape:grid-bbox="true"
     inkscape:document-units="px"
     inkscape:window-width="1920"
     inkscape:window-height="1018"
     inkscape:window-x="-8"
     inkscape:window-y="-8"
     inkscape:window-maximized="1" />
  <metadata
     id="metadata13373">
    <rdf:RDF>
      <cc:Work
         rdf:about="">
        <dc:format>image/svg+xml</dc:format>
        <dc:type
           rdf:resource="http://purl.org/dc/dcmitype/StillImage" />
        <dc:title></dc:title>
      </cc:Work>
    </rdf:RDF>
  </metadata>
  <g
     id="layer1"
     inkscape:label="Layer 1"
     inkscape:groupmode="layer"
     transform="translate(0,968)">
    <path
       style="opacity:1;fill:#b40a0a;fill-opacity:1"
       d="M 507.54492 17.976562 L 507.57422 17.988281 C 397.92566 17.988281 287.73242 18.334194 233.42578 18.958984 L 149.89648 19.945312 L 138.07812 23.408203 C 100.4352 34.395363 71.454981 54.021511 49.074219 83.681641 C 34.230574 103.33819 22.542802 130.20114 19.580078 151.41406 C 17.519118 166.21219 16.261784 733.4545 18.09375 802.30078 L 19.414062 851.17188 L 24.373047 865.74805 C 33.614199 892.96128 45.077331 911.18867 65.556641 931.60742 C 86.295735 952.15321 110.89635 966.41054 139.07227 974.22266 C 149.76397 977.20761 151.85754 977.26986 277.98828 978.13086 C 465.2703 979.36674 581.90298 979.42967 728.35352 978.06445 L 858.50977 977.07812 L 871.80859 973.33008 C 929.64104 957.19843 973.01789 912.3611 987.99023 853.20117 L 991.33789 840.05273 L 992.12695 549.42969 C 992.67985 368.93304 992.44592 238.76694 991.57422 205.90039 C 990.28742 156.61429 990.12113 152.10321 986.80469 139.87695 C 972.15373 83.924743 929.77881 40.92978 872.39648 23.71875 L 859.80469 19.96875 L 778.43359 18.955078 C 726.30002 18.330328 617.19351 17.976562 507.54492 17.976562 z M 509.12305 118.49219 L 509.125 118.49219 C 645.2524 118.49219 650.72266 118.8363 667.30469 127.30273 C 689.07053 138.51284 706.22488 154.93238 717.875 175.8457 C 726.95917 192.09386 727.0957 194.93697 727.0957 415.69727 C 727.0957 621.37617 726.38313 640.67494 719.3418 658.36328 C 711.62262 677.52544 686.67584 703.16796 667.48438 711.53125 C 657.62102 715.88544 657.79756 716.43462 702.36328 790.27344 C 727.02333 831.10057 749.96854 869.66489 753.32812 875.9043 L 759.40234 887.14844 L 727.63281 887.14844 L 695.82422 887.14844 L 664.41016 834.9043 L 632.99414 782.66406 L 509.30273 782.66406 L 385.61328 782.66406 L 354.94727 833.87695 L 324.2832 885.125 L 291.43945 886.15234 L 258.59766 887.18164 L 263.8125 877.75586 L 263.63477 877.99219 C 266.49395 872.84997 288.72489 835.75794 313.02734 795.51367 C 337.36615 755.33778 357.1924 721.19568 357.0957 719.72266 C 357.0957 718.00785 346.98029 711.42471 334.79297 704.67188 C 319.74843 696.34218 308.45287 685.85438 299.66211 672.21094 L 286.72266 652.01953 L 285.65039 428.31055 C 284.93522 266.30447 285.65014 199.76736 289.40234 187.11914 C 296.3361 163.01984 322.92661 135.18559 347.87305 125.96484 C 365.99302 119.24609 382.82399 118.4922 509.12305 118.49219 z M 507.51367 132.85352 C 474.09692 132.85352 455.51373 134.56965 452.11914 137.79297 C 443.79131 145.77976 445.541 184.92621 454.61914 189.93164 C 458.72873 192.33138 481.81663 194.18294 505.9043 194.21484 C 544.14583 194.21484 550.82951 193.18545 558.26367 186.1582 L 558.12695 186.1582 C 567.5263 177.14351 569.59699 154.00543 562.19922 140.77344 C 558.26845 133.6441 552.83645 132.85352 507.51953 132.85352 L 507.51367 132.85352 z M 515.45312 206.6582 C 394.19758 206.65825 385.12019 208.02807 375.14844 229.07617 C 369.00272 241.9988 368.35879 308.40185 374.07617 323.21094 C 376.22036 329.00311 384.54807 337.43589 392.23242 341.92578 C 405.2063 349.50065 413.81863 350.11914 509.59961 350.11914 C 566.46025 350.11914 617.7452 348.40419 623.53516 346.2793 L 623.67188 346.2793 C 629.49686 344.22259 638.21701 338.29351 643.18555 333.2207 C 651.22645 324.99294 652.1543 319.02567 652.1543 277.30859 C 652.1543 231.16786 652.15428 230.48268 639.60938 218.65625 L 627.10156 206.6582 L 515.45898 206.6582 L 515.45312 206.6582 z M 631.02148 551.31055 C 630.50897 551.3083 629.99655 551.31868 629.48242 551.33789 C 623.08486 551.5763 616.53935 553.4736 609.26953 556.99805 C 595.43901 563.88754 583.78516 582.05485 583.78516 596.69336 C 583.78516 609.54779 598.83124 632.17292 610.51758 637.00586 C 625.24287 642.97181 651.76207 638.71891 663.23438 628.36719 L 663.23438 628.53711 C 684.46268 609.34023 680.06669 573.55365 654.65625 558.71094 C 646.25059 553.79416 638.70925 551.34432 631.02148 551.31055 z M 384.33984 552.70703 C 379.46636 552.62679 374.34039 553.28019 369.03125 554.80273 C 349.66096 560.35522 335.9375 578.83472 335.9375 599.4707 C 335.9375 609.65098 339.69188 616.81476 350.44922 627.13281 C 369.21189 645.1977 392.69215 646.46526 412.34766 630.59375 C 446.7885 602.81076 424.01839 553.36002 384.33984 552.70703 z "
       transform="translate(0,-968)"
       id="path4136" />
  </g>
</svg>
