<?xml version="1.0" encoding="UTF-8" standalone="no"?>
<!-- Created with Inkscape (http://www.inkscape.org/) -->

<svg
   xmlns:dc="http://purl.org/dc/elements/1.1/"
   xmlns:cc="http://creativecommons.org/ns#"
   xmlns:rdf="http://www.w3.org/1999/02/22-rdf-syntax-ns#"
   xmlns:svg="http://www.w3.org/2000/svg"
   xmlns="http://www.w3.org/2000/svg"
   xmlns:sodipodi="http://sodipodi.sourceforge.net/DTD/sodipodi-0.dtd"
   xmlns:inkscape="http://www.inkscape.org/namespaces/inkscape"
   width="32"
   height="32"
   id="svg4929"
   version="1.1"
   inkscape:version="0.91 r13725"
   viewBox="0 0 32 32"
   sodipodi:docname="transport_railway_halt.svg">
  <defs
     id="defs4931" />
  <sodipodi:namedview
     id="base"
     pagecolor="#ffffff"
     bordercolor="#666666"
     borderopacity="1.0"
     inkscape:pageopacity="0.0"
     inkscape:pageshadow="2"
     inkscape:zoom="20"
     inkscape:cx="11.871489"
     inkscape:cy="16"
     inkscape:current-layer="layer1"
     showgrid="true"
     inkscape:grid-bbox="true"
     inkscape:document-units="px"
     inkscape:window-width="1920"
     inkscape:window-height="1018"
     inkscape:window-x="-8"
     inkscape:window-y="-8"
     inkscape:window-maximized="1" />
  <metadata
     id="metadata4934">
    <rdf:RDF>
      <cc:Work
         rdf:about="">
        <dc:format>image/svg+xml</dc:format>
        <dc:type
           rdf:resource="http://purl.org/dc/dcmitype/StillImage" />
        <dc:title></dc:title>
      </cc:Work>
    </rdf:RDF>
  </metadata>
  <g
     id="layer1"
     inkscape:label="Layer 1"
     inkscape:groupmode="layer">
    <path
       style="fill:#b40a0a;fill-opacity:1"
       d="m 15.65435,2.6171706 c -4.43889,0 -5.03047,0.025375 -5.6673,0.2514377 C 9.1103,3.1788778 8.17582,4.1154861 7.93212,4.9264024 7.80025,5.3520127 7.77512,7.5909741 7.80025,13.042346 l 0.0377,7.527626 0.45478,0.679397 c 0.30895,0.459094 0.70591,0.812031 1.23465,1.09232 0.42834,0.227218 0.78385,0.448716 0.78385,0.50642 0.004,0.04954 -0.69338,1.198438 -1.54877,2.550319 -0.85412,1.35419 -1.63542,2.602249 -1.73592,2.77528 l 0.006,-0.0081 -0.18329,0.317197 1.15424,-0.03464 1.15433,-0.03464 1.07769,-1.724486 1.07777,-1.723264 4.34711,0 4.34719,0 1.10409,1.757862 1.1041,1.757943 1.1179,0 1.11658,0 -0.21351,-0.378324 c -0.11807,-0.209953 -0.92447,-1.50762 -1.79115,-2.881425 -1.56627,-2.484613 -1.57252,-2.503087 -1.22587,-2.649602 0.67449,-0.281417 1.55124,-1.144251 1.82253,-1.789037 0.24747,-0.595205 0.27257,-1.244596 0.27257,-8.165525 0,-7.4283958 -0.005,-7.5241215 -0.32407,-8.070859 C 22.58131,3.8432384 21.9784,3.2907413 21.21344,2.9135309 20.63065,2.6286362 20.43842,2.61709 15.6541,2.61709 Z m -0.0565,0.483247 c 1.59267,0 1.78355,0.026583 1.9217,0.2664746 0.26,0.4452521 0.18723,1.2238661 -0.14312,1.5271944 l 0.005,0 c -0.26127,0.236468 -0.49613,0.2711199 -1.84014,0.2711199 -0.84657,-0.00117 -1.65798,-0.06337 -1.80241,-0.1441524 -0.31905,-0.1684263 -0.38061,-1.4856954 -0.0879,-1.7544524 0.1193,-0.1084802 0.77244,-0.1661841 1.94689,-0.1661841 z m 0.27884,2.4834849 3.92391,0 0.43959,0.4037128 c 0.4409,0.3979532 0.44086,0.4210321 0.44086,1.9736414 0,1.4037445 -0.0326,1.6044731 -0.3152,1.8813259 -0.17462,0.1706954 -0.4811,0.3702424 -0.68582,0.4394524 l -0.005,0 c -0.20349,0.07156 -2.0059,0.129156 -4.00428,0.129156 -3.36625,0 -3.66896,-0.02081 -4.12493,-0.275685 C 11.27576,9.9844258 10.98311,9.7006588 10.90775,9.5057569 10.70681,9.0074462 10.72944,6.7730764 10.94545,6.3382292 11.29592,5.6299663 11.61497,5.5838757 15.87674,5.5838757 Z M 19.88423,17.18206 c 0.28911,-0.01074 0.56963,0.07169 0.88474,0.248148 0.89305,0.499439 1.04759,1.703636 0.30152,2.349604 l 0,-0.0054 c -0.4032,0.348332 -1.33523,0.49141 -1.85276,0.290668 -0.41071,-0.162626 -0.9395,-0.923894 -0.9395,-1.356445 0,-0.492578 0.40957,-1.103921 0.89564,-1.335743 0.2555,-0.11855 0.48552,-0.18243 0.71036,-0.190445 z m -8.61556,0.04605 c 1.39452,0.02202 2.19475,1.685981 0.98432,2.620858 -0.6908,0.534063 -1.51605,0.491396 -2.17547,-0.116402 -0.37806,-0.347204 -0.51001,-0.588277 -0.51001,-0.930835 0,-0.694381 0.48233,-1.316182 1.16311,-1.503015 0.18659,-0.05129 0.36677,-0.0733 0.53805,-0.07048 z"
       id="path7172"
       inkscape:connector-curvature="0" />
  </g>
</svg>
