<?xml version="1.0" encoding="UTF-8" standalone="no"?>
<!-- Created with Inkscape (http://www.inkscape.org/) -->

<svg
   xmlns:dc="http://purl.org/dc/elements/1.1/"
   xmlns:cc="http://creativecommons.org/ns#"
   xmlns:rdf="http://www.w3.org/1999/02/22-rdf-syntax-ns#"
   xmlns:svg="http://www.w3.org/2000/svg"
   xmlns="http://www.w3.org/2000/svg"
   xmlns:sodipodi="http://sodipodi.sourceforge.net/DTD/sodipodi-0.dtd"
   xmlns:inkscape="http://www.inkscape.org/namespaces/inkscape"
   width="352.78mm"
   height="352.78mm"
   viewBox="0 0 1250.0079 1250.0079"
   id="svg29264"
   version="1.1"
   inkscape:version="0.91 r13725"
   sodipodi:docname="transport_railway_station.svg">
  <defs
     id="defs29266" />
  <sodipodi:namedview
     id="base"
     pagecolor="#ffffff"
     bordercolor="#666666"
     borderopacity="1.0"
     inkscape:pageopacity="0.0"
     inkscape:pageshadow="2"
     inkscape:zoom="1.7304687"
     inkscape:cx="-5.2370203"
     inkscape:cy="520"
     inkscape:document-units="px"
     inkscape:current-layer="layer1"
     showgrid="false"
     inkscape:window-width="1920"
     inkscape:window-height="1018"
     inkscape:window-x="-8"
     inkscape:window-y="-8"
     inkscape:window-maximized="1" />
  <metadata
     id="metadata29269">
    <rdf:RDF>
      <cc:Work
         rdf:about="">
        <dc:format>image/svg+xml</dc:format>
        <dc:type
           rdf:resource="http://purl.org/dc/dcmitype/StillImage" />
        <dc:title />
      </cc:Work>
    </rdf:RDF>
  </metadata>
  <g
     inkscape:label="Layer 1"
     inkscape:groupmode="layer"
     id="layer1"
     transform="translate(0,197.64569)">
    <path
       style="opacity:1;fill:#b40a0a;fill-opacity:1"
       d="m 627.3166,20.441631 c -91.564,0 -183.582,0.275 -228.932,0.826 l -69.752,0.834 -9.869,2.931 c -31.434,9.304 -55.635,25.922 -74.324,51.038 -12.396,16.645 -22.157,39.391999 -24.631,57.354999 -1.721,12.531 -2.769,492.868 -1.236,551.166 l 1.101,41.383 4.141,12.344 c 7.717,23.044 17.29,38.479 34.392,55.769 17.318,17.398 37.862,29.471 61.391,36.086 8.928,2.528 10.676,2.583 116.004,3.309 156.393,1.048 253.788,1.101 376.084,-0.06 l 108.689,-0.834 11.106,-3.172 c 48.294,-13.66 84.516,-51.629 97.019,-101.725 l 2.797,-11.133 0.645,-246.097 c 0.43,-152.843 0.269,-263.066 -0.43,-290.897 -1.075,-41.733 -1.211,-45.553 -3.98,-55.906 -12.235,-47.379999 -47.621,-83.788999 -95.539,-98.362999 l -10.514,-3.172 -67.951,-0.861 c -43.535,-0.552 -134.647,-0.827 -226.211,-0.827 z"
       id="path4745-1"
       inkscape:connector-curvature="0" />
    <path
       style="fill:#ffffff;fill-opacity:1"
       d="m 625.11345,73.225429 c -111.62202,0 -126.49802,0.6938 -142.51202,6.8848 -22.047,8.496 -45.54601,34.142701 -51.67401,56.347711 -3.316,11.654 -3.948,72.9623 -3.316,222.23432 l 0.947,206.12503 11.436,18.6035 c 7.769,12.571 17.751,22.2352 31.04701,29.9102 10.771,6.22201 19.711,12.28721 19.711,13.86721 0.09,1.358 -17.436,32.816 -38.94601,69.834 -21.478,37.08101 -41.125,71.25611 -43.652,75.99411 l 0.158,-0.2207 -4.609,8.6856 29.025,-0.9473 29.02701,-0.9473 27.1,-47.2207 27.102,-47.18751 109.31402,0 109.31601,0 27.764,48.13481 27.76401,48.1367 28.111,0 28.078,0 -5.369,-10.3594 c -2.969,-5.749 -23.247,-41.2824 -45.041,-78.90041 -39.38601,-68.035 -39.54301,-68.5407 -30.82601,-72.5527 16.961,-7.70601 39.00801,-31.33231 45.83001,-48.98831 6.223,-16.298 6.854,-34.0798 6.854,-223.59183 0,-203.40802 -0.126,-206.02902 -8.149,-221.00002 -10.296,-19.26701 -25.45701,-34.395611 -44.69301,-44.724611 -14.655,-7.801 -19.489,-8.1172 -139.79701,-8.1172 z m -1.42,13.2325 c 40.05,0 44.85,0.7278 48.324,7.2968 6.538,12.192001 4.708,33.512411 -3.599,41.818411 l 0.126,0 c -6.57,6.475 -12.476,7.4238 -46.273,7.4238 -21.28801,-0.032 -41.69201,-1.7362 -45.32401,-3.9472 -8.023,-4.612 -9.571,-40.682111 -2.211,-48.041111 3,-2.97 19.424,-4.5507 48.95701,-4.5507 z m 7.012,68.003911 98.67201,0 11.054,11.0547 c 11.087,10.8969 11.086,11.5289 11.086,54.0429 0,38.43801 -0.82,43.93461 -7.926,51.51561 -4.391,4.674 -12.098,10.1382 -17.246,12.0332 l -0.127,0 c -5.117,1.958 -50.44101,3.5372 -100.69301,3.5372 -84.64901,0 -92.26102,-0.5689 -103.72702,-7.5489 -6.791,-4.137 -14.15,-11.9071 -16.045,-17.2441 -5.053,-13.645 -4.484,-74.82741 0.948,-86.73441 8.813,-19.394 16.836,-20.6562 124.00402,-20.6562 z m 100.77501,317.58594 c 7.27,-0.2824 14.324,1.9625 22.248,6.7949 22.457,13.676 26.343,46.6499 7.582,64.33791 l 0,-0.1582 c -10.139,9.538 -33.576,13.456 -46.59,7.959 -10.32801,-4.453 -23.62501,-25.29861 -23.62501,-37.14261 0,-13.488 10.299,-30.2282 22.52201,-36.5762 6.425,-3.2475 12.209,-4.9952 17.863,-5.2148 z m -216.65003,1.2617 c 35.06701,0.6018 55.19001,46.1664 24.75201,71.76561 -17.37101,14.624 -38.12301,13.4556 -54.70501,-3.1894 -9.507,-9.50701 -12.825,-16.10831 -12.825,-25.48831 0,-19.014 12.129,-36.0402 29.248,-41.1562 4.692,-1.4027 9.223,-2.0056 13.53,-1.9317 z"
       id="path7172"
       inkscape:connector-curvature="0" />
  </g>
</svg>
