<?xml version="1.0" encoding="UTF-8" standalone="no"?>
<!-- Created with Inkscape (http://www.inkscape.org/) -->

<svg
   xmlns:dc="http://purl.org/dc/elements/1.1/"
   xmlns:cc="http://creativecommons.org/ns#"
   xmlns:rdf="http://www.w3.org/1999/02/22-rdf-syntax-ns#"
   xmlns:svg="http://www.w3.org/2000/svg"
   xmlns="http://www.w3.org/2000/svg"
   xmlns:sodipodi="http://sodipodi.sourceforge.net/DTD/sodipodi-0.dtd"
   xmlns:inkscape="http://www.inkscape.org/namespaces/inkscape"
   width="1000"
   height="1000"
   id="svg5492"
   version="1.1"
   inkscape:version="0.91 r13725"
   viewBox="0 0 1000 1000"
   sodipodi:docname="transport_tram_halt.svg">
  <defs
     id="defs5494" />
  <sodipodi:namedview
     id="base"
     pagecolor="#ffffff"
     bordercolor="#666666"
     borderopacity="1.0"
     inkscape:pageopacity="0.0"
     inkscape:pageshadow="2"
     inkscape:zoom="0.5"
     inkscape:cx="9.7405635"
     inkscape:cy="496"
     inkscape:current-layer="layer1"
     showgrid="true"
     inkscape:grid-bbox="true"
     inkscape:document-units="px"
     inkscape:window-width="1920"
     inkscape:window-height="1018"
     inkscape:window-x="-8"
     inkscape:window-y="-8"
     inkscape:window-maximized="1" />
  <metadata
     id="metadata5497">
    <rdf:RDF>
      <cc:Work
         rdf:about="">
        <dc:format>image/svg+xml</dc:format>
        <dc:type
           rdf:resource="http://purl.org/dc/dcmitype/StillImage" />
        <dc:title></dc:title>
      </cc:Work>
    </rdf:RDF>
  </metadata>
  <g
     id="layer1"
     inkscape:label="Layer 1"
     inkscape:groupmode="layer"
     transform="translate(0,968)">
    <path
       inkscape:connector-curvature="0"
       d="m 484.45177,-871.89543 c -0.35682,0.0702 -0.70979,0.21113 -1.06631,0.21113 -15.49623,0.35516 -30.95843,1.33983 -46.36002,3.43217 -13.25647,1.79698 -26.38167,4.37919 -39.16534,8.93279 -9.964,3.54506 -19.5567,8.03537 -28.01611,15.34034 -9.25901,7.9988 -14.77048,18.50209 -15.72488,31.93855 -0.94964,13.36156 6.8279,25.74938 18.0341,29.12986 11.52009,3.48141 23.53824,-2.88709 28.30104,-15.34033 1.08289,-2.82734 2.80806,-3.60449 4.96164,-4.18367 0.45987,-0.14065 0.95527,-0.10571 1.4024,-0.24607 1.0746,-0.37976 1.58333,0 1.91409,1.29764 1.11339,4.33417 2.35677,8.6272 3.52619,12.94133 2.74676,10.14601 5.53779,20.27478 8.19421,30.45596 2.08495,7.98894 9.01478,12.81368 16.07738,10.97135 6.91615,-1.80752 11.50925,-9.65826 10.29272,-17.8371 -0.30944,-2.08533 -1.0823,-4.07289 -1.63692,-6.10477 -3.18078,-11.6541 -6.36082,-23.31786 -9.5376,-34.97142 -0.34379,-1.25544 -0.68225,-2.51434 -1.11635,-4.0961 44.14581,-6.47577 88.00215,-6.50038 131.86858,0 0,0.50991 0.0414,0.63649 0,0.742 -3.81701,13.79094 -7.5172,27.63286 -11.50196,41.35874 -2.46309,8.47845 1.12583,17.63279 8.43773,20.49879 7.26856,2.85195 15.12374,-1.90949 17.31174,-10.50294 0.28427,-1.11475 0.49629,-2.25062 0.79744,-3.35481 2.78111,-10.19594 5.58469,-20.39646 8.37868,-30.5924 1.00147,-3.64985 2.00796,-7.29548 3.03956,-11.02023 1.29373,0.24607 2.4847,0.28131 3.5596,0.7033 1.54306,0.62243 3.11575,0.88618 3.96267,3.24931 3.94606,10.99948 13.81361,17.88106 23.8766,17.01739 10.36382,-0.88968 19.06826,-8.95247 21.86214,-20.39188 2.33842,-9.56197 0.30085,-18.48316 -3.50929,-26.9064 -3.92891,-8.67327 -10.30954,-14.62296 -17.48804,-19.42624 -11.0728,-7.40484 -23.16252,-11.61945 -35.55508,-14.74533 -20.77921,-5.24778 -41.89685,-7.01767 -63.0757,-8.01638 -3.25389,-0.14065 -6.50147,-0.31648 -9.75539,-0.46066 -10.75924,0 -21.52181,0 -32.28093,0 z m 19.14169,154.37674 c -3.64775,-0.0352 -7.30358,-0.0116 -10.9561,0.10572 -41.0722,1.36444 -80.23215,11.80653 -116.95013,33.6163 -21.46241,12.74757 -40.92785,28.74164 -57.77791,48.84868 -11.6921,13.95586 -21.73264,29.29373 -28.50269,47.26906 -3.73546,9.93113 -5.66752,20.22307 -5.65899,31.16804 0.0948,103.89671 0,207.79274 0.0888,311.68948 0,23.18298 6.33393,43.87235 19.26814,61.66305 6.92476,9.53168 15.28986,16.96007 24.89272,22.52751 0.41693,0.24577 0.83859,0.49214 1.41868,0.83711 -3.29259,3.17545 -6.47384,6.25736 -9.66347,9.32312 -13.19633,12.68743 -26.41389,25.35552 -39.60181,38.05316 -5.37739,5.17289 -8.61461,11.79177 -9.64621,19.835556 -0.0415,0.355042 -0.18359,0.689356 -0.28427,1.033737 l 0,6.983189 c 0.56321,2.535632 0.9298,5.159506 1.72931,7.606333 6.51654,20.226957 28.23014,27.097652 42.55698,13.311667 26.34564,-25.345006 52.5654,-50.852102 78.85928,-76.271972 3.2111,-3.10163 6.44576,-6.14311 8.68949,-10.33734 0.1984,-0.36926 0.74146,-0.55907 1.1584,-0.67159 0.39532,-0.1066 0.83801,-0.0355 1.25938,-0.0355 64.06073,0 128.12965,0 192.1904,-0.0355 1.47881,0 2.38226,0.41841 3.19041,1.92001 2.25669,4.16927 5.70557,6.99799 8.89932,10.09361 25.83409,25.01057 51.63456,50.058754 77.51598,75.004273 8.1369,7.844054 17.46361,9.683904 27.28557,5.305076 9.77055,-4.358782 15.42094,-12.984935 17.10169,-25.043266 0.0563,-0.414857 0.20137,-0.80869 0.30086,-1.22029 l 0,-5.880397 c -0.26058,-1.494492 -0.46697,-3.003168 -0.77227,-4.485726 -1.44,-6.96036 -4.59872,-12.67866 -9.34437,-17.24244 -16.13223,-15.48838 -32.2555,-30.98979 -48.38364,-46.488 -0.20136,-0.2132 -0.38703,-0.4113 -0.69676,-0.74206 1.50011,-0.93217 2.93923,-1.77225 4.33196,-2.69021 22.23632,-14.70453 35.47192,-36.82834 39.93793,-65.98354 0.907,-5.92153 1.2425,-12.03897 1.2425,-18.07024 0.074,-102.97819 0,-205.95182 0.12437,-308.93001 0,-12.49264 -2.31562,-24.11873 -6.85047,-35.28351 -6.34033,-15.60833 -15.08744,-29.28212 -25.2793,-41.71989 -25.09467,-30.62082 -55.39016,-51.85879 -89.39567,-66.24403 -19.28315,-8.15879 -39.16623,-13.44455 -59.53277,-16.31548 -10.89031,-1.53674 -21.80795,-2.38775 -32.7509,-2.51786 z m -25.53919,31.47049 c 16.29138,0.24608 32.59173,-0.24607 48.87894,0.14066 16.19239,0.4044 31.36834,5.53473 45.20949,15.48627 1.9129,1.36793 3.62685,3.17195 5.26436,4.97349 4.11795,4.54376 5.02889,10.18961 4.12183,16.51065 -2.28689,15.89804 -12.34224,25.8531 -26.26933,25.8531 -18.24301,0 -36.49622,0 -54.73903,0 -18.19137,0 -36.37931,0 -54.57921,0 -15.88737,0 -27.06437,-13.32218 -26.64738,-31.80173 0.0948,-4.22411 1.91971,-7.56766 4.36559,-10.49345 4.50053,-5.37789 10.07969,-8.82905 15.95991,-11.61523 12.30674,-5.83188 25.01916,-9.26405 38.43483,-9.06924 z m 24.64904,94.54722 c 6.40606,-0.0711 12.8131,-0.0711 19.21768,0.0355 19.43802,0.38317 38.8862,0.92476 58.30695,1.97982 16.84145,0.91411 33.62625,2.89067 50.18851,6.84606 7.80189,1.8673 15.5551,4.02645 22.626,8.44537 2.60492,1.62449 5.01085,3.81725 7.21178,6.13432 2.10183,2.21198 2.87943,5.28926 2.87943,8.64972 0,41.84228 0.0414,83.68838 -0.0415,125.53066 0,10.26592 -3.02141,19.09956 -10.40186,25.33618 -4.99496,4.22903 -10.7379,5.75348 -16.84166,5.75348 -45.09581,0 -90.18596,0 -135.27722,0 -45.04005,0 -90.078,0 -135.11793,0 -5.14956,0 -10.0778,-1.04439 -14.59992,-3.98852 -7.62975,-4.97313 -11.49719,-12.83687 -12.58476,-22.70333 -0.25466,-2.29637 -0.28427,-4.6408 -0.28427,-6.96279 0,-40.74372 0,-81.48001 -0.0415,-122.22406 0,-3.47437 1.10687,-6.13674 3.31616,-8.31846 3.73104,-3.67514 8.16723,-5.7798 12.71079,-7.59718 10.39811,-4.16924 21.15901,-6.50846 31.99545,-8.42571 20.38778,-3.61012 40.91592,-5.58745 61.50588,-6.67094 12.00136,-0.6328 24.00669,-1.15692 36.01687,-1.45244 6.4047,-0.13918 12.8112,-0.31655 19.21723,-0.37992 z m -97.01017,280.18031 c 24.4543,0 43.20343,21.94445 43.19481,50.57494 0,28.1013 -18.978,49.79045 -43.52243,49.76545 -24.07601,0 -42.7669,-21.98206 -42.7669,-50.24332 0,-28.19132 18.83368,-50.08197 43.09452,-50.09707 z m 189.72215,0 c 24.28672,0 43.19149,22.02182 43.16153,50.27287 -0.0415,28.18638 -18.87105,50.05313 -43.13621,50.05769 -24.36836,0 -43.23686,-21.86568 -43.2456,-50.10658 0,-28.22114 18.9465,-50.23876 43.22028,-50.22398 z"
       id="path3-59"
       style="fill:#003cff;fill-opacity:1" />
  </g>
</svg>
