<?xml version="1.0" encoding="UTF-8" standalone="no"?>
<!-- Created with Inkscape (http://www.inkscape.org/) -->

<svg
   xmlns:dc="http://purl.org/dc/elements/1.1/"
   xmlns:cc="http://creativecommons.org/ns#"
   xmlns:rdf="http://www.w3.org/1999/02/22-rdf-syntax-ns#"
   xmlns:svg="http://www.w3.org/2000/svg"
   xmlns="http://www.w3.org/2000/svg"
   xmlns:sodipodi="http://sodipodi.sourceforge.net/DTD/sodipodi-0.dtd"
   xmlns:inkscape="http://www.inkscape.org/namespaces/inkscape"
   width="1000"
   height="1000"
   id="svg8292"
   version="1.1"
   inkscape:version="0.91 r13725"
   viewBox="0 0 1000 1000"
   sodipodi:docname="transport_helipad.svg">
  <defs
     id="defs8294" />
  <sodipodi:namedview
     id="base"
     pagecolor="#ffffff"
     bordercolor="#666666"
     borderopacity="1.0"
     inkscape:pageopacity="0.0"
     inkscape:pageshadow="2"
     inkscape:zoom="0.5"
     inkscape:cx="9.7405635"
     inkscape:cy="496"
     inkscape:current-layer="layer1"
     showgrid="true"
     inkscape:grid-bbox="true"
     inkscape:document-units="px"
     inkscape:window-width="1920"
     inkscape:window-height="1018"
     inkscape:window-x="-8"
     inkscape:window-y="-8"
     inkscape:window-maximized="1" />
  <metadata
     id="metadata8297">
    <rdf:RDF>
      <cc:Work
         rdf:about="">
        <dc:format>image/svg+xml</dc:format>
        <dc:type
           rdf:resource="http://purl.org/dc/dcmitype/StillImage" />
        <dc:title></dc:title>
      </cc:Work>
    </rdf:RDF>
  </metadata>
  <g
     id="layer1"
     inkscape:label="Layer 1"
     inkscape:groupmode="layer"
     transform="translate(0,968)">
    <path
       style="fill:#003cff;fill-opacity:1;stroke:none"
       d="m 201.29371,-806.5856 55.10935,57.76567 275.53639,0 0,115.5295 -260.0366,0 c -19.37023,-17.50836 -43.28623,-28.8831 -70.60914,-28.8831 -60.54046,0 -110.21382,52.06911 -110.21382,115.52903 0,63.46557 49.67336,115.529 110.21382,115.529 23.537,0 43.99295,-8.27957 61.9968,-21.66372 l 103.32517,108.30965 c 0,57.76427 55.10754,115.52617 110.21504,115.52617 l 275.53579,0 c 55.10754,0 110.21504,-57.7619 110.21504,-115.52617 -2.48056,-140.56335 -110.21443,-288.82086 -275.5364,-288.82086 l 0,-115.5295 220.43009,0 55.10631,-57.76567 -661.28784,0 z m 0,202.17493 c 30.76181,0 55.10935,25.52192 55.10935,57.76617 0,32.24376 -24.34754,57.76283 -55.10935,57.76283 -30.75999,0 -55.1057,-25.51907 -55.1057,-57.76283 0,-32.24425 24.34571,-57.76617 55.1057,-57.76617 z m 385.75144,28.88307 c 110.21444,0 220.43009,115.5295 220.43009,231.05803 l -165.32378,0 c -29.05805,0 -55.10631,-28.39266 -55.10631,-57.7657 l 0,-173.29233 z m -165.32074,404.34987 c -28.95365,0 -27.08573,57.76333 0,57.76333 l 385.75083,0 c 32.69492,0 30.82698,-57.76333 0,-57.76333 l -385.75083,0 z"
       id="heliport"
       inkscape:connector-curvature="0" />
  </g>
</svg>
