<?xml version="1.0" encoding="UTF-8" standalone="no"?>
<!-- Created with Inkscape (http://www.inkscape.org/) -->

<svg
   xmlns:dc="http://purl.org/dc/elements/1.1/"
   xmlns:cc="http://creativecommons.org/ns#"
   xmlns:rdf="http://www.w3.org/1999/02/22-rdf-syntax-ns#"
   xmlns:svg="http://www.w3.org/2000/svg"
   xmlns="http://www.w3.org/2000/svg"
   xmlns:sodipodi="http://sodipodi.sourceforge.net/DTD/sodipodi-0.dtd"
   xmlns:inkscape="http://www.inkscape.org/namespaces/inkscape"
   width="32"
   height="32"
   id="svg3347"
   version="1.1"
   inkscape:version="0.91 r13725"
   viewBox="0 0 32 32"
   sodipodi:docname="bus_stop_.svg">
  <defs
     id="defs3349" />
  <sodipodi:namedview
     id="base"
     pagecolor="#ffffff"
     bordercolor="#666666"
     borderopacity="1.0"
     inkscape:pageopacity="0.0"
     inkscape:pageshadow="2"
     inkscape:zoom="20"
     inkscape:cx="13.643268"
     inkscape:cy="16"
     inkscape:current-layer="layer1"
     showgrid="true"
     inkscape:grid-bbox="true"
     inkscape:document-units="px"
     inkscape:window-width="1920"
     inkscape:window-height="1018"
     inkscape:window-x="-8"
     inkscape:window-y="-8"
     inkscape:window-maximized="1" />
  <metadata
     id="metadata3352">
    <rdf:RDF>
      <cc:Work
         rdf:about="">
        <dc:format>image/svg+xml</dc:format>
        <dc:type
           rdf:resource="http://purl.org/dc/dcmitype/StillImage" />
        <dc:title />
      </cc:Work>
    </rdf:RDF>
  </metadata>
  <g
     id="layer1"
     inkscape:label="Layer 1"
     inkscape:groupmode="layer">
    <path
       style="fill:#003cff;fill-opacity:1"
       id="path4747"
       inkscape:connector-curvature="0"
       d="m 21.1825,27.007261 c -0.189,-0.055 -0.504,-0.287 -0.668,-0.494 -0.201,-0.256 -0.246,-0.471 -0.273,-1.332 l -0.025,-0.777 -4.097,0 -4.096,0 -0.021,0.137 c -0.011,0.07 -0.028,0.436 -0.037,0.798 -0.015,0.623 -0.022,0.679 -0.127,0.886 -0.234,0.457 -0.634,0.723 -1.132,0.748 -0.403,0.02 -0.656,-0.068 -0.944,-0.33 -0.382,-0.352 -0.415,-0.457 -0.431,-1.414 l -0.014,-0.819 -1.303,0 -1.302,0 0,-4.985 0,-4.985999 0.273,-0.974 c 0.616,-2.197 1.416,-4.7240003 1.843,-5.8210003 0.099,-0.253 0.27,-0.591 0.39,-0.767 0.633,-0.93 1.938,-1.53 3.933,-1.808 1.152,-0.161 4.023,-0.16 5.458,0 1.944,0.219 3.37,0.801 4.094,1.675 0.318,0.382 0.478,0.685 0.697,1.33 0.282,0.821 1.039,3.3550003 1.491,4.9940003 l 0.396,1.429 0,3.145999 c 0,1.729 -0.012,3.961 -0.026,4.957 l -0.025,1.81 -1.149,0 -1.146,0 -0.024,0.834 c -0.021,0.788 -0.029,0.847 -0.134,1.056 -0.146,0.299 -0.502,0.619 -0.774,0.701 -0.247,0.061 -0.608,0.068 -0.827,0.01 l 0,0 z m -10.018,-5.785 c 0.208,-0.104 0.492,-0.396 0.592,-0.613 0.263,-0.562 -0.003,-1.271 -0.582,-1.551 -0.792,-0.385 -1.696,0.188 -1.696,1.074 0,0.625 0.393,1.068 1.028,1.16 0.25,0.037 0.497,0.01 0.658,-0.07 z m 11.022,-0.026 c 0.863,-0.506 0.801,-1.744 -0.11,-2.146 -0.769,-0.34 -1.665,0.268 -1.657,1.123 0.004,0.32 0.127,0.598 0.377,0.838 0.275,0.268 0.438,0.326 0.846,0.313 0.294,-0.012 0.386,-0.034 0.544,-0.128 z m 1.041,-7.032999 c 0.082,-0.091 0.16,-0.208 0.174,-0.261 0.034,-0.137 -1.045,-4.4110003 -1.25,-4.9510003 -0.037,-0.095 -0.107,-0.212 -0.16,-0.261 l -0.094,-0.088 -5.82,0.016 c -3.201,0.01 -5.873,0.031 -5.937,0.049 -0.064,0.018 -0.143,0.072 -0.174,0.121 -0.124,0.189 -1.304,4.5390003 -1.334,4.9210003 -0.021,0.26 -0.016,0.281 0.103,0.413 0.102,0.114 0.165,0.146 0.347,0.167 0.122,0.015 3.322,0.03 7.11,0.033 l 6.888,0.01 0.148,-0.165 -0.001,0 0,0 z m -2.909,-6.8520003 c 0.194,-0.083 0.29,-0.232 0.315,-0.483 0.021,-0.226 -0.063,-0.427 -0.209,-0.511 -0.074,-0.042 -0.98,-0.055 -4.33,-0.065 l -4.234,-0.011 -0.127,0.145 c -0.229,0.26 -0.213,0.593 0.038,0.834 0.125,0.12 0.129,0.121 0.776,0.146 0.357,0.014 2.217,0.023 4.13,0.018 3.083,-0.01 3.507,-0.015 3.641,-0.073 l 0,0 z" />
  </g>
</svg>
