<?xml version="1.0" encoding="UTF-8" standalone="no"?>
<!-- Created with Inkscape (http://www.inkscape.org/) -->

<svg
   xmlns:dc="http://purl.org/dc/elements/1.1/"
   xmlns:cc="http://creativecommons.org/ns#"
   xmlns:rdf="http://www.w3.org/1999/02/22-rdf-syntax-ns#"
   xmlns:svg="http://www.w3.org/2000/svg"
   xmlns="http://www.w3.org/2000/svg"
   xmlns:sodipodi="http://sodipodi.sourceforge.net/DTD/sodipodi-0.dtd"
   xmlns:inkscape="http://www.inkscape.org/namespaces/inkscape"
   width="1000"
   height="1000"
   id="svg4929"
   version="1.1"
   inkscape:version="0.91 r13725"
   viewBox="0 0 1000 1000"
   sodipodi:docname="transport_railway_halt.svg">
  <defs
     id="defs4931" />
  <sodipodi:namedview
     id="base"
     pagecolor="#ffffff"
     bordercolor="#666666"
     borderopacity="1.0"
     inkscape:pageopacity="0.0"
     inkscape:pageshadow="2"
     inkscape:zoom="0.5"
     inkscape:cx="9.7405635"
     inkscape:cy="496"
     inkscape:current-layer="layer1"
     showgrid="true"
     inkscape:grid-bbox="true"
     inkscape:document-units="px"
     inkscape:window-width="1920"
     inkscape:window-height="1018"
     inkscape:window-x="-8"
     inkscape:window-y="-8"
     inkscape:window-maximized="1" />
  <metadata
     id="metadata4934">
    <rdf:RDF>
      <cc:Work
         rdf:about="">
        <dc:format>image/svg+xml</dc:format>
        <dc:type
           rdf:resource="http://purl.org/dc/dcmitype/StillImage" />
        <dc:title></dc:title>
      </cc:Work>
    </rdf:RDF>
  </metadata>
  <g
     id="layer1"
     inkscape:label="Layer 1"
     inkscape:groupmode="layer"
     transform="translate(0,968)">
    <path
       style="fill:#b40a0a;fill-opacity:1"
       d="m 498.11454,-883.38028 c -144.81824,0 -164.11846,0.82786 -184.89496,8.20312 -28.60386,10.12251 -59.09115,40.67924 -67.04183,67.13528 -4.30224,13.88548 -5.12211,86.93132 -4.30224,264.78164 l 1.22995,245.58786 14.83714,22.16524 c 10.07946,14.97789 23.03023,26.49241 40.28031,35.6368 13.97454,7.41296 25.573,14.63931 25.573,16.52189 0.1305,1.61624 -22.62143,39.09889 -50.52842,83.20384 -27.86556,44.180281 -53.35538,84.898049 -56.63418,90.543164 l 0.19575,-0.264261 -5.97981,10.348512 37.65694,-1.130126 37.65987,-1.130125 35.1595,-56.26114 35.16211,-56.221274 141.82392,0 141.82653,0 36.0208,57.350029 36.02112,57.352671 36.47135,0 36.42828,0 -6.96573,-12.342774 c -3.85202,-6.84969 -30.16072,-49.185916 -58.43605,-94.006126 -51.09936,-81.06019 -51.30327,-81.6629 -39.99385,-86.44294 22.00515,-9.18119 50.60901,-37.33104 59.45981,-58.36711 8.07368,-19.41848 8.89256,-40.60478 8.89256,-266.39923 0,-242.35048 -0.16312,-245.47352 -10.57274,-263.31076 -13.35793,-22.95387 -33.02779,-40.97902 -57.98452,-53.28546 -19.01345,-9.29466 -25.28493,-9.67135 -181.37277,-9.67135 z m -1.84331,15.76587 c 51.96066,0 58.1881,0.86727 62.69522,8.6937 8.48247,14.5263 6.10836,39.92848 -4.66927,49.82453 l 0.16312,0 c -8.5239,7.71474 -16.18617,8.84525 -60.03433,8.84525 -27.61924,-0.0382 -54.09139,-2.06744 -58.8034,-4.70295 -10.40897,-5.49489 -12.41736,-48.47063 -2.86773,-57.23879 3.89215,-3.53916 25.20076,-5.42174 63.51704,-5.42174 z m 9.09712,81.02339 128.01707,0 14.34157,13.17108 c 14.38431,12.98317 14.383,13.73612 14.383,64.3898 0,45.79699 -1.06357,52.34573 -10.28336,61.37802 -5.69695,5.56892 -15.69582,12.07911 -22.37479,14.33708 l -0.16312,0 c -6.63884,2.33464 -65.44224,4.2137 -130.63914,4.2137 -109.82348,0 -119.69936,-0.67892 -134.57532,-8.99419 -8.81068,-4.92897 -18.35834,-14.18683 -20.81696,-20.54548 -6.55564,-16.25733 -5.81734,-89.15336 1.22996,-103.3402 11.43404,-23.10699 21.84301,-24.61069 160.88272,-24.61069 z m 130.74549,378.38843 c 9.43218,-0.35039 18.58411,2.33888 28.86453,8.0958 29.13565,16.29414 34.1775,55.58091 9.83706,76.65554 l 0,-0.17618 c -13.15435,11.36429 -43.56172,16.03219 -60.44607,9.48301 -13.39936,-5.30565 -30.65107,-30.14193 -30.65107,-44.25385 0,-16.07029 13.36217,-36.01528 29.22015,-43.57845 8.33565,-3.86768 15.84002,-5.95175 23.1754,-6.21324 z m -281.08157,1.50238 c 45.49604,0.7184 71.60345,55.00492 32.11332,85.50516 -22.53726,17.42374 -49.46094,16.03174 -70.97444,-3.7976 -12.33416,-11.32748 -16.63901,-19.19246 -16.63901,-30.36837 0,-22.6541 15.73596,-42.94028 37.94632,-49.03568 6.08748,-1.67333 11.96583,-2.3914 17.55381,-2.2994 z"
       id="path7172"
       inkscape:connector-curvature="0" />
  </g>
</svg>
