<?xml version="1.0" encoding="UTF-8" standalone="no"?>
<!-- Created with Inkscape (http://www.inkscape.org/) -->

<svg
   xmlns:dc="http://purl.org/dc/elements/1.1/"
   xmlns:cc="http://creativecommons.org/ns#"
   xmlns:rdf="http://www.w3.org/1999/02/22-rdf-syntax-ns#"
   xmlns:svg="http://www.w3.org/2000/svg"
   xmlns="http://www.w3.org/2000/svg"
   xmlns:sodipodi="http://sodipodi.sourceforge.net/DTD/sodipodi-0.dtd"
   xmlns:inkscape="http://www.inkscape.org/namespaces/inkscape"
   width="32"
   height="32"
   id="svg5492"
   version="1.1"
   inkscape:version="0.91 r13725"
   viewBox="0 0 32 32"
   sodipodi:docname="transport_tram_halt.svg">
  <defs
     id="defs5494" />
  <sodipodi:namedview
     id="base"
     pagecolor="#ffffff"
     bordercolor="#666666"
     borderopacity="1.0"
     inkscape:pageopacity="0.0"
     inkscape:pageshadow="2"
     inkscape:zoom="20"
     inkscape:cx="11.871489"
     inkscape:cy="16"
     inkscape:current-layer="layer1"
     showgrid="true"
     inkscape:grid-bbox="true"
     inkscape:document-units="px"
     inkscape:window-width="1920"
     inkscape:window-height="1018"
     inkscape:window-x="-8"
     inkscape:window-y="-8"
     inkscape:window-maximized="1" />
  <metadata
     id="metadata5497">
    <rdf:RDF>
      <cc:Work
         rdf:about="">
        <dc:format>image/svg+xml</dc:format>
        <dc:type
           rdf:resource="http://purl.org/dc/dcmitype/StillImage" />
        <dc:title></dc:title>
      </cc:Work>
    </rdf:RDF>
  </metadata>
  <g
     id="layer1"
     inkscape:label="Layer 1"
     inkscape:groupmode="layer">
    <path
       inkscape:connector-curvature="0"
       d="m 15.454994,2.10457 c -0.01205,0.00237 -0.02397,0.00713 -0.03601,0.00713 -0.523318,0.011994 -1.045487,0.045247 -1.565609,0.1159068 -0.44768,0.060685 -0.890927,0.147888 -1.32264,0.3016664 -0.336491,0.119719 -0.660443,0.2713597 -0.946123,0.5180536 -0.312683,0.2701246 -0.498809,0.6248278 -0.53104,1.0785863 -0.03207,0.451229 0.230583,0.8695741 0.609024,0.9837352 0.389041,0.1175694 0.794902,-0.097499 0.955745,-0.5180536 0.03657,-0.095481 0.09483,-0.1217258 0.167558,-0.1412851 0.01553,-0.00475 0.03226,-0.00357 0.04736,-0.00831 0.03629,-0.012825 0.05347,0 0.06464,0.043822 0.0376,0.146368 0.07959,0.2913464 0.119082,0.4370374 0.09276,0.3426377 0.187015,0.6846933 0.276724,1.0285185 0.07041,0.269792 0.304435,0.4327266 0.542944,0.3705098 0.233563,-0.061041 0.388675,-0.326166 0.347592,-0.6023709 -0.01045,-0.070423 -0.03655,-0.1375443 -0.05528,-0.206162 C 14.021544,5.1197876 13.914152,4.7258944 13.80687,4.3323458 13.79526,4.2899492 13.78383,4.247435 13.76917,4.1940176 c 1.490834,-0.2186909 2.971892,-0.2195221 4.453291,0 0,0.01722 0.0014,0.021495 0,0.025058 -0.128903,0.4657293 -0.253861,0.9331804 -0.388429,1.3967126 -0.08318,0.286323 0.03802,0.5954712 0.284948,0.6922581 0.245464,0.096312 0.510739,-0.064485 0.584629,-0.3546914 0.0096,-0.037646 0.01676,-0.076005 0.02693,-0.1132942 0.09392,-0.3443239 0.188599,-0.6888022 0.282954,-1.0331262 0.03382,-0.1232578 0.06781,-0.2463731 0.102648,-0.3721606 0.04369,0.00831 0.08391,0.0095 0.12021,0.023751 0.05211,0.02102 0.105221,0.029927 0.133822,0.1097314 0.133261,0.3714598 0.466495,0.6038554 0.806329,0.5746887 C 20.526495,5.1128998 20.82045,4.8406139 20.914801,4.4542975 20.993771,4.1313832 20.924961,3.8301086 20.79629,3.5456501 20.663608,3.252748 20.44813,3.051823 20.205707,2.8896129 19.831771,2.6395464 19.423493,2.4972162 19.004988,2.391653 18.30326,2.2144321 17.590103,2.1546617 16.874879,2.1209347 c -0.109886,-0.00475 -0.219559,-0.010688 -0.329446,-0.015557 -0.363347,0 -0.726806,0 -1.090149,0 z m 0.646428,5.2134069 c -0.123187,-0.00119 -0.246647,-3.919e-4 -0.369995,0.00357 -1.387036,0.046078 -2.709494,0.3987146 -3.949485,1.1352452 -0.7248,0.430494 -1.382161,0.9706245 -1.951199,1.6496532 -0.39485,0.471299 -0.733926,0.989269 -0.962555,1.596308 -0.126149,0.335381 -0.191396,0.682947 -0.191108,1.052566 0.0032,3.508662 0,7.017301 0.003,10.525964 0,0.782905 0.213901,1.481599 0.650698,2.082403 0.233854,0.321891 0.516349,0.572753 0.840644,0.760769 0.01408,0.0083 0.02832,0.01662 0.04791,0.02827 -0.111193,0.107237 -0.218626,0.211315 -0.326342,0.314848 -0.445649,0.428463 -0.892015,0.856273 -1.33738,1.285081 -0.181598,0.174692 -0.290921,0.398216 -0.325759,0.66986 -0.0014,0.01199 -0.0062,0.02328 -0.0096,0.03491 l 0,0.235827 c 0.01902,0.08563 0.0314,0.17424 0.0584,0.256871 0.220068,0.683078 0.953351,0.915106 1.437178,0.449544 0.88971,-0.855918 1.775169,-1.71731 2.663131,-2.575756 0.108441,-0.104744 0.217678,-0.207457 0.29345,-0.349099 0.0067,-0.01247 0.02504,-0.01888 0.03912,-0.02268 0.01335,-0.0036 0.0283,-0.0012 0.04253,-0.0012 2.163374,0 4.327025,0 6.4904,-0.0012 0.04994,0 0.08045,0.01413 0.107742,0.06484 0.07621,0.140799 0.192681,0.236327 0.300536,0.340868 0.872435,0.844624 1.743734,1.690518 2.617767,2.532945 0.274789,0.264899 0.589758,0.327032 0.921452,0.179156 0.329958,-0.147199 0.520776,-0.43851 0.577536,-0.845728 0.0019,-0.01401 0.0068,-0.02731 0.01016,-0.04121 l 0,-0.198585 c -0.0088,-0.05047 -0.01577,-0.101419 -0.02608,-0.151486 -0.04863,-0.235056 -0.155302,-0.428167 -0.315566,-0.582289 -0.544796,-0.523053 -1.08929,-1.046546 -1.633948,-1.569931 -0.0068,-0.0072 -0.01307,-0.01389 -0.02353,-0.02506 0.05066,-0.03148 0.09926,-0.05985 0.146293,-0.09085 0.750936,-0.496582 1.197911,-1.243718 1.348731,-2.228309 0.03063,-0.199974 0.04196,-0.406564 0.04196,-0.610244 0.0025,-3.477643 0,-6.955132 0.0042,-10.432775 0,-0.421885 -0.0782,-0.814506 -0.231345,-1.191548 -0.214117,-0.527104 -0.509513,-0.988877 -0.853699,-1.408909 -0.847464,-1.0340859 -1.870563,-1.7513066 -3.018952,-2.2371058 -0.651205,-0.275528 -1.32267,-0.4540316 -2.010462,-0.5509847 -0.367773,-0.051897 -0.736469,-0.080636 -1.10602,-0.08503 z m -0.862476,1.0627797 c 0.550171,0.00831 1.100645,-0.00831 1.650675,0.00475 0.546828,0.013657 1.05933,0.1869116 1.526755,0.5229819 0.0646,0.046196 0.122481,0.1071188 0.177781,0.167958 0.139066,0.1534459 0.169829,0.3441102 0.139197,0.5575759 -0.07723,0.536888 -0.416806,0.873077 -0.887133,0.873077 -0.616079,0 -1.232502,0 -1.848574,0 -0.614335,0 -1.228554,0 -1.843177,0 -0.536527,0 -0.913982,-0.449899 -0.8999,-1.0739664 0.0032,-0.1426508 0.06483,-0.2555649 0.147429,-0.3543707 0.151986,-0.1816151 0.340398,-0.2981632 0.538977,-0.3922543 0.415607,-0.1969465 0.844914,-0.3128533 1.29797,-0.3062742 z m 0.832415,3.1929234 c 0.216337,-0.0024 0.432707,-0.0024 0.648994,0.0012 0.656435,0.01294 1.313213,0.03123 1.969065,0.06686 0.568747,0.03087 1.135581,0.09762 1.6949,0.231196 0.263475,0.06306 0.525306,0.135976 0.764095,0.285206 0.08797,0.05486 0.16922,0.128911 0.243547,0.20716 0.07098,0.0747 0.09724,0.178622 0.09724,0.292107 0,1.413042 0.0014,2.826213 -0.0014,4.239255 0,0.346687 -0.102035,0.645005 -0.351278,0.85562 -0.168683,0.142817 -0.362626,0.194299 -0.568754,0.194299 -1.522916,0 -3.045641,0 -4.568403,0 -1.521033,0 -3.041995,0 -4.563024,0 -0.173904,0 -0.340334,-0.03527 -0.493049,-0.134695 -0.257662,-0.167946 -0.388268,-0.43351 -0.424996,-0.766707 -0.0086,-0.07755 -0.0096,-0.156723 -0.0096,-0.235138 0,-1.375943 0,-2.751635 -0.0014,-4.127589 0,-0.117332 0.03738,-0.207242 0.111989,-0.28092 0.126,-0.124112 0.275813,-0.195188 0.429252,-0.256562 0.351151,-0.140798 0.714554,-0.219795 1.080508,-0.284542 0.688509,-0.121916 1.381758,-0.188692 2.077095,-0.225282 0.405294,-0.02137 0.810722,-0.03907 1.216314,-0.04905 0.216291,-0.0047 0.432643,-0.01069 0.648979,-0.01283 z m -3.276099,9.461878 c 0.825838,0 1.459009,0.741079 1.458718,1.70795 0,0.949 -0.6409,1.681457 -1.469782,1.680613 -0.813063,0 -1.444267,-0.742349 -1.444267,-1.696751 0,-0.95204 0.636026,-1.691302 1.455331,-1.691812 z m 6.407045,0 c 0.820179,0 1.458606,0.743692 1.457594,1.697749 -0.0014,0.951873 -0.637288,1.690328 -1.456739,1.690482 -0.822936,0 -1.460138,-0.738419 -1.460433,-1.692133 0,-0.953047 0.639836,-1.696597 1.459578,-1.696098 z"
       id="path3-59"
       style="fill:#003cff;fill-opacity:1" />
  </g>
</svg>
