<?xml version="1.0" encoding="UTF-8" standalone="no"?>
<!-- Created with Inkscape (http://www.inkscape.org/) -->

<svg
   xmlns:dc="http://purl.org/dc/elements/1.1/"
   xmlns:cc="http://creativecommons.org/ns#"
   xmlns:rdf="http://www.w3.org/1999/02/22-rdf-syntax-ns#"
   xmlns:svg="http://www.w3.org/2000/svg"
   xmlns="http://www.w3.org/2000/svg"
   xmlns:sodipodi="http://sodipodi.sourceforge.net/DTD/sodipodi-0.dtd"
   xmlns:inkscape="http://www.inkscape.org/namespaces/inkscape"
   width="32"
   height="32"
   id="svg5483"
   version="1.1"
   inkscape:version="0.91 r13725"
   viewBox="0 0 32 32"
   sodipodi:docname="transport_railway_station.svg">
  <defs
     id="defs5485" />
  <sodipodi:namedview
     id="base"
     pagecolor="#ffffff"
     bordercolor="#666666"
     borderopacity="1.0"
     inkscape:pageopacity="0.0"
     inkscape:pageshadow="2"
     inkscape:zoom="20"
     inkscape:cx="11.871489"
     inkscape:cy="16"
     inkscape:current-layer="layer1"
     showgrid="true"
     inkscape:grid-bbox="true"
     inkscape:document-units="px"
     inkscape:window-width="1920"
     inkscape:window-height="1018"
     inkscape:window-x="-8"
     inkscape:window-y="-8"
     inkscape:window-maximized="1" />
  <metadata
     id="metadata5488">
    <rdf:RDF>
      <cc:Work
         rdf:about="">
        <dc:format>image/svg+xml</dc:format>
        <dc:type
           rdf:resource="http://purl.org/dc/dcmitype/StillImage" />
        <dc:title></dc:title>
      </cc:Work>
    </rdf:RDF>
  </metadata>
  <g
     id="layer1"
     inkscape:label="Layer 1"
     inkscape:groupmode="layer">
    <path
       style="fill:#ffffff;fill-opacity:1"
       d="m 16.404318,2.31715 c -4.438889,0 -5.030465,0.026475 -5.667301,0.2626081 C 9.860267,2.9038244 8.92578,3.8820796 8.682091,4.7290559 8.550219,5.1735815 8.525084,7.5120902 8.550219,13.205844 l 0.03768,7.862323 0.454776,0.709602 c 0.308954,0.479503 0.70591,0.848129 1.234655,1.140879 0.428327,0.23733 0.783846,0.468678 0.783846,0.528945 0.0034,0.05177 -0.693377,1.251716 -1.548772,2.66371 -0.854117,1.414397 -1.6354269,2.717955 -1.7359137,2.89868 l 0.00619,-0.0083 -0.1832839,0.331298 1.154244,-0.03616 1.1543186,-0.0361 1.077696,-1.801164 1.077765,-1.799892 4.347112,0 4.347194,0 1.104097,1.836029 1.104096,1.836101 1.117895,0 1.116582,0 -0.213507,-0.395146 c -0.118073,-0.219286 -0.92447,-1.574653 -1.791155,-3.009535 -1.566276,-2.595088 -1.572519,-2.614382 -1.225868,-2.767412 0.67449,-0.29393 1.55124,-1.195123 1.822533,-1.868583 0.24747,-0.621662 0.272564,-1.29992 0.272564,-8.528568 0,-7.7586896 -0.0048,-7.8586628 -0.324066,-8.4297095 C 23.33145,3.5978379 22.728543,3.0207797 21.963576,2.6267977 21.380792,2.3292402 21.188557,2.3171779 16.404242,2.3171779 Z m -0.05645,0.5047356 c 1.592677,0 1.783558,0.027763 1.921706,0.2783253 0.259997,0.4650453 0.187224,1.2782756 -0.143119,1.595099 l 0.0048,0 C 17.869979,4.9422848 17.635118,4.9784768 16.291108,4.9784768 15.444539,4.9773568 14.633131,4.9122553 14.488698,4.8279153 14.169644,4.651998 14.108084,3.2761618 14.400768,2.9954632 14.520072,2.8821797 15.173209,2.8218856 16.347651,2.8218856 Z m 0.278848,2.5939019 3.923907,0 0.439588,0.4216662 c 0.440895,0.4156437 0.440854,0.4397511 0.440854,2.0613813 0,1.4661597 -0.03259,1.6758175 -0.31519,1.9649847 -0.174621,0.1782853 -0.481107,0.3867053 -0.685828,0.4589893 l -0.0048,0 c -0.20349,0.07468 -2.0059,0.134922 -4.004285,0.134922 -3.366252,0 -3.668957,-0.02172 -4.124928,-0.287941 -0.270069,-0.157799 -0.562716,-0.454181 -0.638074,-0.6577489 -0.200939,-0.5204696 -0.178313,-2.8541813 0.03768,-3.308351 0.350466,-0.7397547 0.66952,-0.7879026 4.931291,-0.7879026 z m 4.007541,12.1138295 c 0.289106,-0.0108 0.569625,0.07486 0.884739,0.259182 0.893058,0.521651 1.04759,1.77939 0.301515,2.45407 l 0,-0.006 c -0.403198,0.363814 -1.335224,0.513261 -1.852749,0.303586 -0.41072,-0.169855 -0.939499,-0.964979 -0.939499,-1.416752 0,-0.514475 0.409558,-1.153008 0.895636,-1.395141 0.2555,-0.123868 0.485514,-0.190532 0.710358,-0.198911 z m -8.615559,0.04814 c 1.394515,0.02295 2.194752,1.760947 0.984318,2.737389 -0.690799,0.557809 -1.516047,0.513244 -2.175467,-0.121652 -0.37807,-0.362631 -0.510018,-0.614426 -0.510018,-0.972215 0,-0.725258 0.482338,-1.374694 1.163113,-1.569838 0.186591,-0.05351 0.366774,-0.0765 0.538054,-0.07368 z"
       id="path7172"
       inkscape:connector-curvature="0" />
  </g>
</svg>
