<?xml version="1.0" encoding="UTF-8" standalone="no"?>
<!-- Created with Inkscape (http://www.inkscape.org/) -->

<svg
   xmlns:dc="http://purl.org/dc/elements/1.1/"
   xmlns:cc="http://creativecommons.org/ns#"
   xmlns:rdf="http://www.w3.org/1999/02/22-rdf-syntax-ns#"
   xmlns:svg="http://www.w3.org/2000/svg"
   xmlns="http://www.w3.org/2000/svg"
   xmlns:sodipodi="http://sodipodi.sourceforge.net/DTD/sodipodi-0.dtd"
   xmlns:inkscape="http://www.inkscape.org/namespaces/inkscape"
   width="1000"
   height="1000"
   id="svg13368"
   version="1.1"
   inkscape:version="0.91 r13725"
   viewBox="0 0 1000 1000"
   sodipodi:docname="transport_railway_station.svg">
  <defs
     id="defs13370" />
  <sodipodi:namedview
     id="base"
     pagecolor="#ffffff"
     bordercolor="#666666"
     borderopacity="1.0"
     inkscape:pageopacity="0.0"
     inkscape:pageshadow="2"
     inkscape:zoom="0.5"
     inkscape:cx="-331.20752"
     inkscape:cy="576"
     inkscape:current-layer="layer1"
     showgrid="true"
     inkscape:grid-bbox="true"
     inkscape:document-units="px"
     inkscape:window-width="1920"
     inkscape:window-height="1018"
     inkscape:window-x="-8"
     inkscape:window-y="-8"
     inkscape:window-maximized="1" />
  <metadata
     id="metadata13373">
    <rdf:RDF>
      <cc:Work
         rdf:about="">
        <dc:format>image/svg+xml</dc:format>
        <dc:type
           rdf:resource="http://purl.org/dc/dcmitype/StillImage" />
        <dc:title />
      </cc:Work>
    </rdf:RDF>
  </metadata>
  <g
     id="layer1"
     inkscape:label="Layer 1"
     inkscape:groupmode="layer"
     transform="translate(0,968)">
    <path
       style="opacity:1;fill:#b40a0a;fill-opacity:1"
       d="m 507.54492,-950.02344 0.0293,0.0117 c -109.64856,0 -219.8418,0.34591 -274.14844,0.9707 l -83.5293,0.98633 -11.81836,3.46289 c -37.64292,10.98716 -66.623139,30.61331 -89.003901,60.27344 -14.843645,19.65655 -26.531417,46.5195 -29.494141,67.73242 -2.06096,14.79813 -3.318294,582.04044 -1.486328,650.88672 l 1.320312,48.8711 4.958985,14.57617 c 9.241152,27.21323 20.704284,45.44062 41.183594,65.85937 20.739094,20.54579 45.339709,34.80312 73.515629,42.61524 10.6917,2.98495 12.78527,3.0472 138.91601,3.9082 187.28202,1.23588 303.9147,1.29881 450.36524,-0.06641 L 858.50977,9.07812 871.80859,5.33008 c 57.83245,-16.13165 101.2093,-60.96898 116.18164,-120.12891 l 3.34766,-13.14844 0.78906,-290.62304 c 0.5529,-180.49665 0.31897,-310.66275 -0.55273,-343.5293 -1.2868,-49.2861 -1.45309,-53.79718 -4.76953,-66.02344 -14.65096,-55.95221 -57.02588,-98.94717 -114.40821,-116.1582 l -12.59179,-3.75 -81.3711,-1.01367 c -52.13357,-0.62475 -161.24008,-0.97852 -270.88867,-0.97852 z"
       id="path4145" />
    <path
       style="opacity:1;fill:#ffffff;fill-opacity:1"
       d="m 509.12305,-849.50781 0.002,0 c 136.1274,0 141.59766,0.34411 158.17969,8.81054 21.76584,11.21011 38.92019,27.62965 50.57031,48.54297 9.08417,16.24816 9.2207,19.09127 9.2207,239.85157 0,205.6789 -0.71257,224.97767 -7.7539,242.66601 -7.71918,19.16216 -32.66596,44.80468 -51.85742,53.16797 -9.86336,4.35419 -9.68682,4.90337 34.8789,78.74219 24.66005,40.82713 47.60526,79.39145 50.96484,85.63086 l 6.07422,11.24414 -31.76953,0 -31.80859,0 -31.41406,-52.24414 -31.41602,-52.24024 -123.69141,0 -123.68945,0 -30.66601,51.21289 -30.66407,51.24805 -32.84375,1.02734 -32.84179,1.0293 5.21484,-9.42578 -0.17773,0.23633 c 2.85918,-5.14222 25.09012,-42.23425 49.39257,-82.47852 24.33881,-40.17589 44.16506,-74.31799 44.06836,-75.79101 0,-1.71481 -10.11541,-8.29795 -22.30273,-15.05078 -15.04454,-8.3297 -26.3401,-18.8175 -35.13086,-32.46094 l -12.93945,-20.19141 -1.07227,-223.70898 c -0.71517,-162.00608 -2.5e-4,-228.54319 3.75195,-241.19141 6.93376,-24.0993 33.52427,-51.93355 58.47071,-61.1543 18.11997,-6.71875 34.95094,-7.47264 161.25,-7.47265 z"
       id="path4143" />
    <path
       style="opacity:1;fill:#b40a0a;fill-opacity:1"
       d="m 507.51367,-835.14648 c -33.41675,0 -51.99994,1.71613 -55.39453,4.93945 -8.32783,7.98679 -6.57814,47.13324 2.5,52.13867 4.10959,2.39974 27.19749,4.2513 51.28516,4.2832 38.24153,0 44.92521,-1.02939 52.35937,-8.05664 l -0.13672,0 c 9.39935,-9.01469 11.47004,-32.15277 4.07227,-45.38476 -3.93077,-7.12934 -9.36277,-7.91992 -54.67969,-7.91992 l -0.006,0 z"
       id="path4141" />
    <path
       style="opacity:1;fill:#b40a0a;fill-opacity:1"
       d="m 515.45312,-761.3418 c -121.25554,5e-5 -130.33293,1.36987 -140.30468,22.41797 -6.14572,12.92263 -6.78965,79.32568 -1.07227,94.13477 2.14419,5.79217 10.4719,14.22495 18.15625,18.71484 12.97388,7.57487 21.58621,8.19336 117.36719,8.19336 56.86064,0 108.14559,-1.71495 113.93555,-3.83984 l 0.13672,0 c 5.82498,-2.05671 14.54513,-7.98579 19.51367,-13.0586 8.0409,-8.22776 8.96875,-14.19503 8.96875,-55.91211 0,-46.14073 -2e-5,-46.82591 -12.54492,-58.65234 l -12.50782,-11.99805 -111.64258,0 -0.006,0 z"
       id="path4139" />
    <path
       style="opacity:1;fill:#b40a0a;fill-opacity:1"
       d="m 631.02148,-416.68945 c -0.51251,-0.002 -1.02493,0.008 -1.53906,0.0273 -6.39756,0.23841 -12.94307,2.13571 -20.21289,5.66016 -13.83052,6.88949 -25.48437,25.0568 -25.48437,39.69531 0,12.85443 15.04608,35.47956 26.73242,40.3125 14.72529,5.96595 41.24449,1.71305 52.7168,-8.63867 l 0,0.16992 c 21.2283,-19.19688 16.83231,-54.98346 -8.57813,-69.82617 -8.40566,-4.91678 -15.947,-7.36662 -23.63477,-7.40039 z"
       id="path4137" />
    <path
       style="opacity:1;fill:#b40a0a;fill-opacity:1"
       d="m 384.33984,-415.29297 c -4.87348,-0.0802 -9.99945,0.57316 -15.30859,2.0957 -19.37029,5.55249 -33.09375,24.03199 -33.09375,44.66797 0,10.18028 3.75438,17.34406 14.51172,27.66211 18.76267,18.06489 42.24293,19.33245 61.89844,3.46094 34.44084,-27.78299 11.67073,-77.23373 -28.00782,-77.88672 z"
       id="path4136" />
  </g>
</svg>
