<?xml version="1.0" encoding="UTF-8" standalone="no"?>
<!-- Created with Inkscape (http://www.inkscape.org/) -->

<svg
   xmlns:dc="http://purl.org/dc/elements/1.1/"
   xmlns:cc="http://creativecommons.org/ns#"
   xmlns:rdf="http://www.w3.org/1999/02/22-rdf-syntax-ns#"
   xmlns:svg="http://www.w3.org/2000/svg"
   xmlns="http://www.w3.org/2000/svg"
   xmlns:sodipodi="http://sodipodi.sourceforge.net/DTD/sodipodi-0.dtd"
   xmlns:inkscape="http://www.inkscape.org/namespaces/inkscape"
   width="1000"
   height="1000"
   id="svg13368"
   version="1.1"
   inkscape:version="0.91 r13725"
   viewBox="0 0 1000 1000"
   sodipodi:docname="transport_bus_station.svg">
  <defs
     id="defs13370" />
  <sodipodi:namedview
     id="base"
     pagecolor="#ffffff"
     bordercolor="#666666"
     borderopacity="1.0"
     inkscape:pageopacity="0.0"
     inkscape:pageshadow="2"
     inkscape:zoom="0.5"
     inkscape:cx="85.927738"
     inkscape:cy="576"
     inkscape:current-layer="layer1"
     showgrid="true"
     inkscape:grid-bbox="true"
     inkscape:document-units="px"
     inkscape:window-width="1920"
     inkscape:window-height="1018"
     inkscape:window-x="-8"
     inkscape:window-y="-8"
     inkscape:window-maximized="1" />
  <metadata
     id="metadata13373">
    <rdf:RDF>
      <cc:Work
         rdf:about="">
        <dc:format>image/svg+xml</dc:format>
        <dc:type
           rdf:resource="http://purl.org/dc/dcmitype/StillImage" />
        <dc:title />
      </cc:Work>
    </rdf:RDF>
  </metadata>
  <g
     id="layer1"
     inkscape:label="Layer 1"
     inkscape:groupmode="layer"
     transform="translate(0,968)">
    <g
       id="g4160">
      <path
         id="path4158"
         d="m 507.54492,-950.02344 0.0293,0.0117 c -109.64856,0 -219.8418,0.34591 -274.14844,0.9707 l -83.5293,0.98633 -11.81836,3.46289 c -37.64292,10.98716 -66.623139,30.61331 -89.003901,60.27344 -14.843645,19.65655 -26.531417,46.5195 -29.494141,67.73242 -2.06096,14.79813 -3.318294,582.04044 -1.486328,650.88672 l 1.320312,48.8711 4.958985,14.57617 c 9.241152,27.21323 20.704284,45.44062 41.183594,65.85937 20.739094,20.54579 45.339709,34.80312 73.515629,42.61524 10.6917,2.98495 12.78527,3.0472 138.91601,3.9082 187.28202,1.23588 303.9147,1.29881 450.36524,-0.06641 L 858.50977,9.07812 871.80859,5.33008 c 57.83245,-16.13165 101.2093,-60.96898 116.18164,-120.12891 l 3.34766,-13.14844 0.78906,-290.62304 c 0.5529,-180.49665 0.31897,-310.66275 -0.55273,-343.5293 -1.2868,-49.2861 -1.45309,-53.79718 -4.76953,-66.02344 -14.65096,-55.9522 -57.02588,-98.94717 -114.40821,-116.1582 l -12.59179,-3.75 -81.3711,-1.01367 c -52.13357,-0.62475 -161.24008,-0.97852 -270.88867,-0.97852 z"
         style="opacity:1;fill:#003cff;fill-opacity:1" />
      <path
         id="path4156"
         d="m 494.92773,-827.05273 c 37.2493,0.004 75.76489,1.32889 101.43555,3.95898 69.55228,7.19986 120.57139,26.33273 146.47461,55.06641 11.37738,12.55866 17.10214,22.51955 24.9375,43.72461 10.08937,26.99125 37.17221,110.29972 53.34375,164.18359 l 14.16797,46.98047 0,103.42773 c 0,56.84269 -0.4288,130.22224 -0.92969,162.9668 l -0.92969,59.50586 -41.07421,0 -41.00196,0 -0.89258,27.41797 c -0.75134,25.90634 -1.03886,27.84569 -4.75976,34.71679 -5.22358,9.82995 -17.95919,20.35105 -27.72656,23.04688 -8.80137,2.07119 -21.71739,2.30069 -29.55274,0.32812 l 0,-0.0644 c -6.76205,-1.80818 -18.03281,-9.43684 -23.90039,-16.24219 -7.19136,-8.41627 -8.80157,-15.48472 -9.76758,-43.79101 l -0.89453,-25.54297 -146.58203,0 -146.54687,0 -0.75,4.4707 c -0.39355,2.33421 -1.00222,14.30036 -1.32422,26.23438 -0.53666,20.48178 -0.78824,22.29035 -4.54492,29.0957 -8.37206,15.02436 -22.6826,23.7699 -40.5,24.5918 -14.4185,0.65753 -23.4694,-2.23607 -33.77344,-10.84961 -13.66718,-11.5395 -14.84942,-15.02394 -15.42188,-46.48633 l -0.5,-26.92578 -46.61914,0 -46.58203,0 0,-163.88672 0,-163.91992 9.76758,-32.02149 c 22.03921,-72.22871 50.66032,-155.30801 65.9375,-191.37304 3.54201,-8.31766 9.65977,-19.42867 13.95312,-25.21485 22.64744,-30.57475 69.33789,-50.2999 140.71485,-59.43945 20.60809,-2.64652 56.5925,-3.96309 93.84179,-3.95898 z"
         style="opacity:1;fill:#ffffff;fill-opacity:1" />
      <path
         id="path4154"
         d="m 354.93359,-784.49805 -4.54492,4.76758 c -8.19315,8.54777 -7.62087,19.49484 1.35938,27.41797 4.47224,3.94512 4.61535,3.97888 27.76367,4.80078 12.77271,0.46027 79.31987,0.75617 147.79883,0.5918 110.23179,-0.32875 125.40302,-0.49358 130.19726,-2.40039 6.94092,-2.72872 10.37508,-7.62702 11.26953,-15.87891 0.75133,-7.42999 -2.25494,-14.03918 -7.47851,-16.80078 -2.64757,-1.38079 -35.06253,-1.80796 -154.88281,-2.13672 l -151.48243,-0.36133 z"
         style="opacity:1;fill:#003cff;fill-opacity:1" />
      <path
         id="path4152"
         d="m 714,-706.87695 -208.22656,0.52539 c -114.52514,0.32876 -210.12428,1.01955 -212.41406,1.61133 -2.28979,0.59176 -5.11549,2.36758 -6.22461,3.97851 -4.43646,6.21358 -46.65518,149.22454 -47.72852,161.7832 -0.75133,8.54777 -0.57202,9.23654 3.68555,13.57618 3.64936,3.74787 5.90247,4.79984 12.41406,5.49023 4.36491,0.49315 118.85407,0.98732 254.38086,1.08594 l 246.43945,0.32812 5.29492,-5.42383 -0.0371,0 0.002,-0.13281 c 2.93379,-2.99172 5.72372,-6.83765 6.22461,-8.58008 1.21645,-4.50401 -37.38819,-145.01647 -44.72266,-162.76953 -1.32379,-3.12324 -3.82838,-6.96914 -5.72461,-8.58008 L 714,-706.87695 Z"
         style="opacity:1;fill:#003cff;fill-opacity:1" />
      <path
         id="path4150"
         d="m 311.5625,-367.13281 c -22.14829,0.0838 -41.88867,16.56001 -41.88867,39.3164 0,20.54755 14.06033,35.11211 36.77929,38.13672 8.94449,1.21641 17.78272,0.32736 23.54297,-2.30273 7.44181,-3.41911 17.60189,-13.01824 21.17969,-20.15235 9.40959,-18.47633 -0.10683,-41.78493 -20.82226,-50.99023 -6.19853,-2.76878 -12.5895,-4.03126 -18.79102,-4.00781 z"
         style="opacity:1;fill:#003cff;fill-opacity:1" />
      <path
         id="path4136"
         d="m 704.69141,-366.54102 c -22.68528,-0.24426 -43.80287,17.23369 -43.57032,40.07227 0.14311,10.52035 4.5438,19.66052 13.48829,27.55078 9.83893,8.8108 15.67017,10.71643 30.26757,10.28906 10.51871,-0.39452 13.80998,-1.11668 19.46289,-4.20703 30.87635,-16.6353 28.65816,-57.33656 -3.93554,-70.55273 -5.15873,-2.09585 -10.47783,-3.09598 -15.71289,-3.15235 z"
         style="opacity:1;fill:#003cff;fill-opacity:1" />
    </g>
  </g>
</svg>
