<?xml version="1.0" encoding="UTF-8" standalone="no"?>
<!-- Created with Inkscape (http://www.inkscape.org/) -->

<svg
   xmlns:dc="http://purl.org/dc/elements/1.1/"
   xmlns:cc="http://creativecommons.org/ns#"
   xmlns:rdf="http://www.w3.org/1999/02/22-rdf-syntax-ns#"
   xmlns:svg="http://www.w3.org/2000/svg"
   xmlns="http://www.w3.org/2000/svg"
   xmlns:sodipodi="http://sodipodi.sourceforge.net/DTD/sodipodi-0.dtd"
   xmlns:inkscape="http://www.inkscape.org/namespaces/inkscape"
   width="1000"
   height="1000"
   id="svg3347"
   version="1.1"
   inkscape:version="0.91 r13725"
   viewBox="0 0 1000 1000"
   sodipodi:docname="transport_bus_stop.svg">
  <defs
     id="defs3349" />
  <sodipodi:namedview
     id="base"
     pagecolor="#ffffff"
     bordercolor="#666666"
     borderopacity="1.0"
     inkscape:pageopacity="0.0"
     inkscape:pageshadow="2"
     inkscape:zoom="0.5"
     inkscape:cx="11.512342"
     inkscape:cy="416"
     inkscape:current-layer="layer1"
     showgrid="true"
     inkscape:grid-bbox="true"
     inkscape:document-units="px"
     inkscape:window-width="1920"
     inkscape:window-height="1018"
     inkscape:window-x="-8"
     inkscape:window-y="-8"
     inkscape:window-maximized="1" />
  <metadata
     id="metadata3352">
    <rdf:RDF>
      <cc:Work
         rdf:about="">
        <dc:format>image/svg+xml</dc:format>
        <dc:type
           rdf:resource="http://purl.org/dc/dcmitype/StillImage" />
        <dc:title></dc:title>
      </cc:Work>
    </rdf:RDF>
  </metadata>
  <g
     id="layer1"
     inkscape:label="Layer 1"
     inkscape:groupmode="layer"
     transform="translate(0,968)">
    <path
       style="fill:#003cff;fill-opacity:1"
       id="path4747"
       inkscape:connector-curvature="0"
       d="m 701.62342,-58.540307 c -7.53533,-1.995981 -20.09421,-10.415391 -26.6328,-17.927538 -8.01376,-9.290383 -9.80788,-17.092854 -10.88436,-48.339025 l -0.99673,-28.19777 -163.34513,0 -163.30526,0 -0.83726,4.97181 c -0.43856,2.54034 -1.11634,15.82268 -1.47517,28.95987 -0.59804,22.609016 -0.87713,24.641287 -5.06342,32.153434 -9.32945,16.584786 -25.27723,26.238076 -45.13221,27.14534 -16.06739,0.725811 -26.15436,-2.467758 -37.63676,-11.975886 -15.23013,-12.774277 -16.54582,-16.584786 -17.18374,-51.314858 l -0.55817,-29.72197 -51.94989,0 -51.91002,0 0,-180.90845 0,-180.9447 10.88436,-35.34701 c 24.55958,-79.73036 56.45514,-171.43662 73.47939,-211.24737 3.94708,-9.18151 10.76475,-21.44772 15.54909,-27.83486 25.23736,-33.75022 77.26699,-55.52456 156.80654,-65.61334 45.9296,-5.84278 160.39479,-5.80649 217.60745,0 77.5062,7.94764 134.36004,29.06874 163.22552,60.78669 12.67848,13.863 19.05759,24.85904 27.789,48.26645 11.24319,29.79455 41.42436,121.75485 59.44535,181.23508 l 15.7883,51.85921 0,114.17007 c 0,62.74638 -0.47843,143.74692 -1.03661,179.89232 l -0.99673,65.68591 -45.81,0 -45.69039,0 -0.95686,30.26633 c -0.83726,28.596965 -1.15622,30.738108 -5.34251,38.322836 -5.82094,10.850878 -20.01446,22.463857 -30.85895,25.439684 -9.84775,2.213724 -24.24063,2.467758 -32.97203,0.362905 l 0,0 z M 302.21128,-268.48121 c 8.29285,-3.77422 19.61577,-14.37106 23.60272,-22.24611 10.48566,-20.3953 -0.11961,-46.12531 -23.20402,-56.28666 -31.57661,-13.97187 -67.61859,6.82262 -67.61859,38.97606 0,22.6816 15.6687,38.75832 40.9858,42.09705 9.96736,1.34275 19.81511,0.36291 26.23409,-2.54034 z m 439.44106,-0.94355 c 34.40733,-18.36303 31.93543,-63.29074 -4.38564,-77.87955 -30.6596,-12.33879 -66.38263,9.72587 -66.06367,40.7543 0.15947,11.61298 5.06342,21.70176 15.03078,30.41149 10.9641,9.72587 17.46282,11.83073 33.72955,11.35895 11.72162,-0.43549 15.38961,-1.23388 21.68898,-4.64519 z m 41.5041,-255.23149 c 3.26929,-3.30244 6.37911,-7.54843 6.93728,-9.47183 1.35556,-4.97181 -41.66357,-160.07768 -49.83681,-179.67459 -1.47517,-3.4476 -4.26603,-7.69359 -6.37911,-9.47183 l -3.74773,-3.19357 -232.04019,0.58065 c -127.6221,0.3629 -234.15327,1.125 -236.70491,1.77823 -2.55165,0.65323 -5.70133,2.61293 -6.93729,4.39116 -4.94381,6.85892 -51.98976,164.72287 -53.18584,178.58587 -0.83726,9.43554 -0.63791,10.19765 4.10655,14.988 4.06669,4.13712 6.57846,5.29842 13.8347,6.06052 4.86407,0.54436 132.44631,1.08872 283.47178,1.19759 l 274.62076,0.36291 5.90068,-5.98794 -0.0399,0 0,0 z M 667.17621,-773.31919 c 7.73467,-3.01211 11.56214,-8.41941 12.55888,-17.52834 0.83726,-8.20167 -2.51178,-15.49607 -8.33272,-18.54448 -2.95034,-1.5242 -39.07206,-1.99598 -172.63471,-2.35888 l -168.80724,-0.3992 -5.06342,5.26213 c -9.1301,9.43555 -8.49219,21.52031 1.51504,30.26633 4.98368,4.35487 5.14316,4.39116 30.93869,5.29842 14.23339,0.50807 88.39057,0.83469 164.66082,0.65323 122.91751,-0.3629 139.82216,-0.54435 145.16466,-2.64921 l 0,0 z" />
  </g>
</svg>
