<?xml version="1.0" encoding="UTF-8" standalone="no"?>
<!-- Created with Inkscape (http://www.inkscape.org/) -->

<svg
   xmlns:dc="http://purl.org/dc/elements/1.1/"
   xmlns:cc="http://creativecommons.org/ns#"
   xmlns:rdf="http://www.w3.org/1999/02/22-rdf-syntax-ns#"
   xmlns:svg="http://www.w3.org/2000/svg"
   xmlns="http://www.w3.org/2000/svg"
   xmlns:sodipodi="http://sodipodi.sourceforge.net/DTD/sodipodi-0.dtd"
   xmlns:inkscape="http://www.inkscape.org/namespaces/inkscape"
   width="1000"
   height="1000"
   id="svg13368"
   version="1.1"
   inkscape:version="0.91 r13725"
   viewBox="0 0 1000 1000"
   sodipodi:docname="transport_airport.svg">
  <defs
     id="defs13370" />
  <sodipodi:namedview
     id="base"
     pagecolor="#ffffff"
     bordercolor="#666666"
     borderopacity="1.0"
     inkscape:pageopacity="0.0"
     inkscape:pageshadow="2"
     inkscape:zoom="0.5"
     inkscape:cx="-245.9705"
     inkscape:cy="576"
     inkscape:current-layer="layer1"
     showgrid="true"
     inkscape:grid-bbox="true"
     inkscape:document-units="px"
     inkscape:window-width="1920"
     inkscape:window-height="1018"
     inkscape:window-x="-8"
     inkscape:window-y="-8"
     inkscape:window-maximized="1" />
  <metadata
     id="metadata13373">
    <rdf:RDF>
      <cc:Work
         rdf:about="">
        <dc:format>image/svg+xml</dc:format>
        <dc:type
           rdf:resource="http://purl.org/dc/dcmitype/StillImage" />
        <dc:title></dc:title>
      </cc:Work>
    </rdf:RDF>
  </metadata>
  <g
     id="layer1"
     inkscape:label="Layer 1"
     inkscape:groupmode="layer"
     transform="translate(0,968)">
    <path
       style="opacity:1;fill:#003cff;fill-opacity:1"
       d="M 507.54492 17.976562 L 507.57422 17.988281 C 397.92566 17.988281 287.73242 18.334194 233.42578 18.958984 L 149.89648 19.945312 L 138.07812 23.408203 C 100.4352 34.395363 71.454981 54.021511 49.074219 83.681641 C 34.230574 103.33819 22.542802 130.20114 19.580078 151.41406 C 17.519118 166.21219 16.261784 733.4545 18.09375 802.30078 L 19.414062 851.17188 L 24.373047 865.74805 C 33.614199 892.96128 45.077331 911.18867 65.556641 931.60742 C 86.295735 952.15321 110.89635 966.41054 139.07227 974.22266 C 149.76397 977.20761 151.85754 977.26986 277.98828 978.13086 C 465.2703 979.36674 581.90298 979.42967 728.35352 978.06445 L 858.50977 977.07812 L 871.80859 973.33008 C 929.64104 957.19843 973.01789 912.3611 987.99023 853.20117 L 991.33789 840.05273 L 992.12695 549.42969 C 992.67985 368.93304 992.44592 238.76694 991.57422 205.90039 C 990.28742 156.61429 990.12113 152.10321 986.80469 139.87695 C 972.15373 83.924743 929.77881 40.92978 872.39648 23.71875 L 859.80469 19.96875 L 778.43359 18.955078 C 726.30002 18.330328 617.19351 17.976562 507.54492 17.976562 z M 838.58984 170.75195 C 876.9877 170.11997 906.26101 224.12964 865.77539 255.04688 L 662.3457 410.38867 L 708.78711 825.85938 L 633.66406 883.25391 L 510.45508 528.66016 L 358.40625 644.7793 L 357.29688 749.4707 L 297.87695 795.02539 L 252.09961 669.88477 L 143.45312 592.76758 L 202.87305 547.30664 L 303.73242 573.07617 L 455.6875 456.98828 L 145.95312 244.85352 L 221.10742 187.45898 L 606.59766 337.35547 L 811.29297 180.875 C 820.38056 173.95394 829.7288 170.8978 838.58984 170.75195 z "
       transform="translate(0,-968)"
       id="path4136" />
  </g>
</svg>
