<?xml version="1.0" encoding="UTF-8" standalone="no"?>
<!-- Created with Inkscape (http://www.inkscape.org/) -->

<svg
   xmlns:dc="http://purl.org/dc/elements/1.1/"
   xmlns:cc="http://creativecommons.org/ns#"
   xmlns:rdf="http://www.w3.org/1999/02/22-rdf-syntax-ns#"
   xmlns:svg="http://www.w3.org/2000/svg"
   xmlns="http://www.w3.org/2000/svg"
   xmlns:sodipodi="http://sodipodi.sourceforge.net/DTD/sodipodi-0.dtd"
   xmlns:inkscape="http://www.inkscape.org/namespaces/inkscape"
   width="1000"
   height="1000"
   id="svg3352"
   version="1.1"
   inkscape:version="0.91 r13725"
   viewBox="0 0 1000 1000"
   sodipodi:docname="transport_taxi_stand.svg">
  <defs
     id="defs3354" />
  <sodipodi:namedview
     id="base"
     pagecolor="#ffffff"
     bordercolor="#666666"
     borderopacity="1.0"
     inkscape:pageopacity="0.0"
     inkscape:pageshadow="2"
     inkscape:zoom="0.5"
     inkscape:cx="459.8408"
     inkscape:cy="496"
     inkscape:current-layer="layer1"
     showgrid="true"
     inkscape:grid-bbox="true"
     inkscape:document-units="px"
     inkscape:window-width="1920"
     inkscape:window-height="1018"
     inkscape:window-x="-8"
     inkscape:window-y="-8"
     inkscape:window-maximized="1" />
  <metadata
     id="metadata3357">
    <rdf:RDF>
      <cc:Work
         rdf:about="">
        <dc:format>image/svg+xml</dc:format>
        <dc:type
           rdf:resource="http://purl.org/dc/dcmitype/StillImage" />
        <dc:title></dc:title>
      </cc:Work>
    </rdf:RDF>
  </metadata>
  <g
     id="layer1"
     inkscape:label="Layer 1"
     inkscape:groupmode="layer"
     transform="translate(0,968)">
    <g
       transform="matrix(27.450804,0,0,27.450804,61.107463,-867.98417)"
       id="g8"
       style="fill:#003cff;fill-opacity:1">
      <path
         style="clip-rule:evenodd;fill:#003cff;fill-opacity:1;fill-rule:evenodd"
         inkscape:connector-curvature="0"
         d="m 21.655,24.689 c -3.771,0 -7.464,0 -11.233,0 0,0.257 0.006,0.466 -0.002,0.674 -0.021,0.548 0.009,1.105 -0.085,1.642 -0.159,0.921 -0.829,1.427 -1.77,1.435 C 7.592,28.447 6.924,27.948 6.738,27.009 6.658,26.606 6.672,26.183 6.657,25.768 6.645,25.438 6.655,25.107 6.655,24.722 c -1.244,0 -2.451,0 -3.701,0 C 2.941,24.511 2.922,24.352 2.922,24.193 2.92,21.877 2.921,19.56 2.921,17.245 c 0,-0.99 0.176,-1.921 0.853,-2.699 0.515,-0.593 1.158,-0.963 1.931,-1.035 0.411,-0.039 0.55,-0.224 0.66,-0.585 C 7.031,10.743 7.728,8.571 8.393,6.387 8.5,6.037 8.654,5.923 9.016,5.932 c 1.049,0.025 2.098,0.009 3.253,0.009 0,-0.499 -0.02,-0.977 0.007,-1.452 0.021,-0.362 0.039,-0.745 0.166,-1.077 0.295,-0.769 0.879,-1.196 1.724,-1.201 1.232,-0.007 2.466,-0.015 3.699,0.001 1.15,0.015 1.857,0.705 1.914,1.866 0.029,0.596 0.005,1.195 0.005,1.846 1.271,0 2.495,0 3.745,0 0.376,1.497 0.74,2.949 1.104,4.401 0.219,0.873 0.461,1.74 0.642,2.621 0.085,0.409 0.277,0.525 0.667,0.55 0.852,0.055 1.621,0.334 2.244,0.955 0.627,0.624 0.933,1.4 0.943,2.25 0.035,2.599 0.019,5.198 0.021,7.798 0,0.048 -0.021,0.095 -0.045,0.194 -1.199,0 -2.407,0 -3.684,0 0,0.628 0.014,1.205 -0.003,1.781 -0.036,1.24 -0.76,1.975 -1.914,1.965 -1.091,-0.011 -1.805,-0.748 -1.845,-1.934 -0.019,-0.596 -0.004,-1.194 -0.004,-1.816 z M 9.137,13.413 c 4.575,0 9.08,0 13.634,0 C 22.417,11.922 22.078,10.465 21.71,9.016 21.682,8.903 21.454,8.766 21.319,8.766 17.79,8.752 14.26,8.752 10.731,8.767 c -0.131,0 -0.345,0.149 -0.38,0.269 -0.414,1.437 -0.803,2.881 -1.214,4.377 z M 8.5,20.936 c 1.042,0.016 1.895,-0.802 1.915,-1.835 0.021,-1.019 -0.832,-1.882 -1.862,-1.888 -1.035,-0.006 -1.892,0.836 -1.894,1.86 -0.002,1.003 0.832,1.847 1.841,1.863 z m 15.001,0 c 1.042,0.015 1.896,-0.804 1.914,-1.836 0.02,-1.02 -0.833,-1.882 -1.864,-1.887 -1.034,-0.006 -1.891,0.838 -1.892,1.862 0,1.003 0.834,1.846 1.842,1.861 z M 14.19,4.109 c 0,0.619 0,1.206 0,1.793 1.254,0 2.473,0 3.703,0 0,-0.612 0,-1.186 0,-1.793 -1.246,0 -2.462,0 -3.703,0 z"
         id="path10" />
    </g>
  </g>
</svg>
