<?xml version="1.0" encoding="UTF-8" standalone="no"?>
<!-- Created with Inkscape (http://www.inkscape.org/) -->

<svg
   xmlns:dc="http://purl.org/dc/elements/1.1/"
   xmlns:cc="http://creativecommons.org/ns#"
   xmlns:rdf="http://www.w3.org/1999/02/22-rdf-syntax-ns#"
   xmlns:svg="http://www.w3.org/2000/svg"
   xmlns="http://www.w3.org/2000/svg"
   xmlns:sodipodi="http://sodipodi.sourceforge.net/DTD/sodipodi-0.dtd"
   xmlns:inkscape="http://www.inkscape.org/namespaces/inkscape"
   width="1000"
   height="1000"
   id="svg3349"
   version="1.1"
   inkscape:version="0.91 r13725"
   viewBox="0 0 1000 1000"
   sodipodi:docname="transport_airfield.svg">
  <defs
     id="defs3351" />
  <sodipodi:namedview
     id="base"
     pagecolor="#ffffff"
     bordercolor="#666666"
     borderopacity="1.0"
     inkscape:pageopacity="0.0"
     inkscape:pageshadow="2"
     inkscape:zoom="0.5"
     inkscape:cx="-366.594"
     inkscape:cy="495.9997"
     inkscape:current-layer="layer1"
     showgrid="true"
     inkscape:grid-bbox="true"
     inkscape:document-units="px"
     inkscape:window-width="1920"
     inkscape:window-height="1018"
     inkscape:window-x="-8"
     inkscape:window-y="-8"
     inkscape:window-maximized="1" />
  <metadata
     id="metadata3354">
    <rdf:RDF>
      <cc:Work
         rdf:about="">
        <dc:format>image/svg+xml</dc:format>
        <dc:type
           rdf:resource="http://purl.org/dc/dcmitype/StillImage" />
        <dc:title></dc:title>
      </cc:Work>
    </rdf:RDF>
  </metadata>
  <g
     id="layer1"
     inkscape:label="Layer 1"
     inkscape:groupmode="layer"
     transform="translate(0,968)">
    <path
       inkscape:connector-curvature="0"
       style="fill:#003cff;fill-opacity:1"
       id="path1972"
       d="m 835.98701,-832.1871 c 52.95675,-40.33153 113.97289,39.46679 59.52878,81.04355 l -222.27309,169.7314 50.74302,453.95458 -82.08124,62.711036 -134.62292,-387.438676 -166.1341,126.87484 -1.21063,114.38797 -64.92478,49.77451 -50.01663,-136.73289 -118.71168,-84.26039 64.92477,-49.67074 110.20263,28.15598 166.03032,-126.84025 -338.42514,-231.78523 82.11583,-62.71104 421.19817,163.78198 223.65669,-170.97663 z" />
    <path
       d="m 835.98701,-832.1871 c 52.95675,-40.33153 113.97289,39.46679 59.52878,81.04355 l -222.27309,169.7314 50.74302,453.95458 -82.08124,62.711036 -134.62292,-387.438676 -166.1341,126.87484 -1.21063,114.38797 -64.92478,49.77451 -50.01663,-136.73289 -118.71168,-84.26039 64.92477,-49.67074 110.20263,28.15598 166.03032,-126.84025 -338.42514,-231.78523 82.11583,-62.71104 421.19817,163.78198 223.65669,-170.97663 z"
       id="path4134"
       style="fill:#003cff;fill-opacity:1"
       inkscape:connector-curvature="0" />
  </g>
</svg>
