<?xml version="1.0" encoding="UTF-8" standalone="no"?>
<!-- Created with Inkscape (http://www.inkscape.org/) -->

<svg
   xmlns:dc="http://purl.org/dc/elements/1.1/"
   xmlns:cc="http://creativecommons.org/ns#"
   xmlns:rdf="http://www.w3.org/1999/02/22-rdf-syntax-ns#"
   xmlns:svg="http://www.w3.org/2000/svg"
   xmlns="http://www.w3.org/2000/svg"
   xmlns:sodipodi="http://sodipodi.sourceforge.net/DTD/sodipodi-0.dtd"
   xmlns:inkscape="http://www.inkscape.org/namespaces/inkscape"
   width="1000"
   height="1000"
   id="svg13368"
   version="1.1"
   inkscape:version="0.91 r13725"
   viewBox="0 0 1000 1000"
   sodipodi:docname="transport_bus_station.svg">
  <defs
     id="defs13370" />
  <sodipodi:namedview
     id="base"
     pagecolor="#ffffff"
     bordercolor="#666666"
     borderopacity="1.0"
     inkscape:pageopacity="0.0"
     inkscape:pageshadow="2"
     inkscape:zoom="0.5"
     inkscape:cx="-160.73348"
     inkscape:cy="576"
     inkscape:current-layer="layer1"
     showgrid="true"
     inkscape:grid-bbox="true"
     inkscape:document-units="px"
     inkscape:window-width="1920"
     inkscape:window-height="1018"
     inkscape:window-x="-8"
     inkscape:window-y="-8"
     inkscape:window-maximized="1" />
  <metadata
     id="metadata13373">
    <rdf:RDF>
      <cc:Work
         rdf:about="">
        <dc:format>image/svg+xml</dc:format>
        <dc:type
           rdf:resource="http://purl.org/dc/dcmitype/StillImage" />
        <dc:title></dc:title>
      </cc:Work>
    </rdf:RDF>
  </metadata>
  <g
     id="layer1"
     inkscape:label="Layer 1"
     inkscape:groupmode="layer"
     transform="translate(0,968)">
    <path
       style="opacity:1;fill:#003cff;fill-opacity:1"
       d="M 507.54492 17.976562 L 507.57422 17.988281 C 397.92566 17.988281 287.73242 18.334194 233.42578 18.958984 L 149.89648 19.945312 L 138.07812 23.408203 C 100.4352 34.395363 71.454981 54.021511 49.074219 83.681641 C 34.230574 103.33819 22.542802 130.20114 19.580078 151.41406 C 17.519118 166.21219 16.261784 733.4545 18.09375 802.30078 L 19.414062 851.17188 L 24.373047 865.74805 C 33.614199 892.96128 45.077331 911.18867 65.556641 931.60742 C 86.295735 952.15321 110.89635 966.41054 139.07227 974.22266 C 149.76397 977.20761 151.85754 977.26986 277.98828 978.13086 C 465.2703 979.36674 581.90298 979.42967 728.35352 978.06445 L 858.50977 977.07812 L 871.80859 973.33008 C 929.64104 957.19843 973.01789 912.3611 987.99023 853.20117 L 991.33789 840.05273 L 992.12695 549.42969 C 992.67985 368.93304 992.44592 238.76694 991.57422 205.90039 C 990.28742 156.61429 990.12113 152.10321 986.80469 139.87695 C 972.15373 83.924743 929.77881 40.92978 872.39648 23.71875 L 859.80469 19.96875 L 778.43359 18.955078 C 726.30002 18.330328 617.19351 17.976562 507.54492 17.976562 z M 494.92773 140.94727 C 532.17703 140.95137 570.69262 142.27616 596.36328 144.90625 C 665.91556 152.10611 716.93467 171.23898 742.83789 199.97266 C 754.21527 212.53132 759.94003 222.49221 767.77539 243.69727 C 777.86476 270.68852 804.9476 353.99699 821.11914 407.88086 L 835.28711 454.86133 L 835.28711 558.28906 C 835.28711 615.13175 834.85831 688.5113 834.35742 721.25586 L 833.42773 780.76172 L 792.35352 780.76172 L 751.35156 780.76172 L 750.45898 808.17969 C 749.70764 834.08603 749.42012 836.02538 745.69922 842.89648 C 740.47564 852.72643 727.74003 863.24753 717.97266 865.94336 C 709.17129 868.01455 696.25527 868.24405 688.41992 866.27148 L 688.41992 866.20703 C 681.65787 864.39885 670.38711 856.77019 664.51953 849.96484 C 657.32817 841.54857 655.71796 834.48012 654.75195 806.17383 L 653.85742 780.63086 L 507.27539 780.63086 L 360.72852 780.63086 L 359.97852 785.10156 C 359.58497 787.43577 358.9763 799.40192 358.6543 811.33594 C 358.11764 831.81772 357.86606 833.62629 354.10938 840.43164 C 345.73733 855.456 331.42679 864.20154 313.60938 865.02344 C 299.19088 865.68097 290.13998 862.78737 279.83594 854.17383 C 266.16876 842.63433 264.98652 839.14989 264.41406 807.6875 L 263.91406 780.76172 L 217.29492 780.76172 L 170.71289 780.76172 L 170.71289 616.875 L 170.71289 452.95508 L 180.48047 420.93359 C 202.51968 348.70488 231.14079 265.62558 246.41797 229.56055 C 249.95998 221.24289 256.07774 210.13188 260.37109 204.3457 C 283.01853 173.77095 329.70898 154.0458 401.08594 144.90625 C 421.69403 142.25973 457.67844 140.94316 494.92773 140.94727 z M 354.93359 183.50195 L 350.38867 188.26953 C 342.19552 196.8173 342.7678 207.76437 351.74805 215.6875 C 356.22029 219.63262 356.3634 219.66638 379.51172 220.48828 C 392.28443 220.94855 458.83159 221.24445 527.31055 221.08008 C 637.54234 220.75133 652.71357 220.5865 657.50781 218.67969 C 664.44873 215.95097 667.88289 211.05267 668.77734 202.80078 C 669.52867 195.37079 666.5224 188.7616 661.29883 186 C 658.65126 184.61921 626.2363 184.19204 506.41602 183.86328 L 354.93359 183.50195 z M 714 261.12305 L 505.77344 261.64844 C 391.2483 261.9772 295.64916 262.66799 293.35938 263.25977 C 291.06959 263.85153 288.24389 265.62735 287.13477 267.23828 C 282.69831 273.45186 240.47959 416.46282 239.40625 429.02148 C 238.65492 437.56925 238.83423 438.25802 243.0918 442.59766 C 246.74116 446.34553 248.99427 447.3975 255.50586 448.08789 C 259.87077 448.58104 374.35993 449.07521 509.88672 449.17383 L 756.32617 449.50195 L 761.62109 444.07812 L 761.58398 444.07812 L 761.58594 443.94531 C 764.51973 440.95359 767.30966 437.10766 767.81055 435.36523 C 769.027 430.86122 730.42236 290.34876 723.08789 272.5957 C 721.7641 269.47246 719.25951 265.62656 717.36328 264.01562 L 714 261.12305 z M 311.5625 600.86719 C 289.41421 600.95094 269.67383 617.4272 269.67383 640.18359 C 269.67383 660.73114 283.73415 675.2957 306.45312 678.32031 C 315.39761 679.53672 324.23584 678.64767 329.99609 676.01758 C 337.4379 672.59847 347.59798 662.99934 351.17578 655.86523 C 360.58537 637.3889 351.06895 614.0803 330.35352 604.875 C 324.15499 602.10622 317.76402 600.84374 311.5625 600.86719 z M 704.69141 601.45898 C 682.00613 601.21472 660.88854 618.69267 661.12109 641.53125 C 661.2642 652.0516 665.6649 661.19177 674.60938 669.08203 C 684.44831 677.89283 690.27955 679.79846 704.87695 679.37109 C 715.39566 678.97657 718.68693 678.25441 724.33984 675.16406 C 755.21619 658.52876 752.998 617.8275 720.4043 604.61133 C 715.24557 602.51548 709.92647 601.51535 704.69141 601.45898 z "
       transform="translate(0,-968)"
       id="path4136" />
  </g>
</svg>
