<?xml version="1.0" encoding="UTF-8" standalone="no"?>
<!-- Created with Inkscape (http://www.inkscape.org/) -->

<svg
   xmlns:dc="http://purl.org/dc/elements/1.1/"
   xmlns:cc="http://creativecommons.org/ns#"
   xmlns:rdf="http://www.w3.org/1999/02/22-rdf-syntax-ns#"
   xmlns:svg="http://www.w3.org/2000/svg"
   xmlns="http://www.w3.org/2000/svg"
   xmlns:sodipodi="http://sodipodi.sourceforge.net/DTD/sodipodi-0.dtd"
   xmlns:inkscape="http://www.inkscape.org/namespaces/inkscape"
   width="1000"
   height="1000"
   id="svg13368"
   version="1.1"
   inkscape:version="0.91 r13725"
   viewBox="0 0 1000 1000"
   sodipodi:docname="transport_airport.svg">
  <defs
     id="defs13370" />
  <sodipodi:namedview
     id="base"
     pagecolor="#ffffff"
     bordercolor="#666666"
     borderopacity="1.0"
     inkscape:pageopacity="0.0"
     inkscape:pageshadow="2"
     inkscape:zoom="0.5"
     inkscape:cx="-331.20752"
     inkscape:cy="576"
     inkscape:current-layer="layer1"
     showgrid="true"
     inkscape:grid-bbox="true"
     inkscape:document-units="px"
     inkscape:window-width="1920"
     inkscape:window-height="1018"
     inkscape:window-x="-8"
     inkscape:window-y="-8"
     inkscape:window-maximized="1" />
  <metadata
     id="metadata13373">
    <rdf:RDF>
      <cc:Work
         rdf:about="">
        <dc:format>image/svg+xml</dc:format>
        <dc:type
           rdf:resource="http://purl.org/dc/dcmitype/StillImage" />
        <dc:title />
      </cc:Work>
    </rdf:RDF>
  </metadata>
  <g
     id="layer1"
     inkscape:label="Layer 1"
     inkscape:groupmode="layer"
     transform="translate(0,968)">
    <g
       id="g4139">
      <path
         id="path4137"
         d="m 507.54492,-950.02344 0.0293,0.0117 c -109.64856,0 -219.8418,0.34591 -274.14844,0.9707 l -83.5293,0.98633 -11.81836,3.46289 c -37.64292,10.98716 -66.623139,30.61331 -89.003901,60.27344 -14.843645,19.65655 -26.531417,46.5195 -29.494141,67.73242 -2.06096,14.79813 -3.318294,582.04044 -1.486328,650.88672 l 1.320312,48.8711 4.958985,14.57617 c 9.241152,27.21323 20.704284,45.44062 41.183594,65.85937 20.739094,20.54579 45.339709,34.80312 73.515629,42.61524 10.6917,2.98495 12.78527,3.0472 138.91601,3.9082 187.28202,1.23588 303.9147,1.29881 450.36524,-0.06641 L 858.50977,9.07812 871.80859,5.33008 c 57.83245,-16.13165 101.2093,-60.96898 116.18164,-120.12891 l 3.34766,-13.14844 0.78906,-290.62304 c 0.5529,-180.49665 0.31897,-310.66275 -0.55273,-343.5293 -1.2868,-49.2861 -1.45309,-53.79718 -4.76953,-66.02344 -14.65096,-55.95221 -57.02588,-98.94717 -114.40821,-116.1582 l -12.59179,-3.75 -81.3711,-1.01367 c -52.13357,-0.62475 -161.24008,-0.97852 -270.88867,-0.97852 z"
         style="opacity:1;fill:#003cff;fill-opacity:1" />
      <path
         id="path4136"
         d="m 838.58984,-797.24805 c 38.39786,-0.63198 67.67117,53.37769 27.18555,84.29493 l -203.42969,155.34179 46.44141,415.47071 -75.12305,57.39453 -123.20898,-354.59375 -152.04883,116.11914 -1.10937,104.6914 -59.41993,45.55469 -45.77734,-125.14062 -108.64649,-77.11719 59.41993,-45.46094 100.85937,25.76953 151.95508,-116.08789 -309.73438,-212.13476 75.1543,-57.39454 385.49024,149.89649 204.69531,-156.48047 c 9.08759,-6.92106 18.43583,-9.9772 27.29687,-10.12305 z"
         style="opacity:1;fill:#ffffff;fill-opacity:1" />
    </g>
  </g>
</svg>
