<?xml version="1.0" encoding="UTF-8" standalone="no"?>
<!-- Created with Inkscape (http://www.inkscape.org/) -->

<svg
   xmlns:dc="http://purl.org/dc/elements/1.1/"
   xmlns:cc="http://creativecommons.org/ns#"
   xmlns:rdf="http://www.w3.org/1999/02/22-rdf-syntax-ns#"
   xmlns:svg="http://www.w3.org/2000/svg"
   xmlns="http://www.w3.org/2000/svg"
   xmlns:sodipodi="http://sodipodi.sourceforge.net/DTD/sodipodi-0.dtd"
   xmlns:inkscape="http://www.inkscape.org/namespaces/inkscape"
   width="1000"
   height="1000"
   id="svg7729"
   version="1.1"
   inkscape:version="0.91 r13725"
   viewBox="0 0 1000 1000"
   sodipodi:docname="transport_ferry_station.svg">
  <defs
     id="defs7731" />
  <sodipodi:namedview
     id="base"
     pagecolor="#ffffff"
     bordercolor="#666666"
     borderopacity="1.0"
     inkscape:pageopacity="0.0"
     inkscape:pageshadow="2"
     inkscape:zoom="0.5"
     inkscape:cx="10.084798"
     inkscape:cy="335.575"
     inkscape:current-layer="layer1"
     showgrid="true"
     inkscape:grid-bbox="true"
     inkscape:document-units="px"
     inkscape:window-width="1920"
     inkscape:window-height="1018"
     inkscape:window-x="-8"
     inkscape:window-y="-8"
     inkscape:window-maximized="1" />
  <metadata
     id="metadata7734">
    <rdf:RDF>
      <cc:Work
         rdf:about="">
        <dc:format>image/svg+xml</dc:format>
        <dc:type
           rdf:resource="http://purl.org/dc/dcmitype/StillImage" />
        <dc:title></dc:title>
      </cc:Work>
    </rdf:RDF>
  </metadata>
  <g
     id="layer1"
     inkscape:label="Layer 1"
     inkscape:groupmode="layer"
     transform="translate(0,968)">
    <path
       inkscape:connector-curvature="0"
       style="color:#000000;display:inline;overflow:visible;visibility:visible;fill:#003cff;fill-opacity:1;fill-rule:nonzero;stroke:none;stroke-width:2;marker:none;enable-background:accumulate"
       d="m 440.93711,-894.79235 c -64.4229,0 -64.4229,60.94874 -64.4229,60.94874 l -96.63515,0 -32.21226,243.7961 257.69321,-121.89804 257.69322,121.89804 -32.21226,-243.7961 -96.63395,0 c 0,0 0,-60.94874 -64.42411,-60.94874 l -128.8458,0 z m 64.4229,243.79556 L 118.821,-468.15 l 128.8458,121.89805 0,60.94874 c 28.72726,0 96.30626,60.94877 128.84741,60.94877 32.48224,0 98.27011,-60.94877 128.8458,-60.94877 30.63421,0 96.36481,60.94877 128.84701,60.94877 30.57448,0 98.03273,-60.94877 128.84621,-60.94877 l 0,-60.94874 L 891.89902,-468.15 505.36001,-650.99679 Z M 247.6668,-193.87978 c -34.39452,0 -96.13856,60.9487 -128.8458,60.9487 l 0,91.42343 c 34.60759,0 98.27174,-60.94935 128.8458,-60.94935 32.4826,0 94.45169,60.94935 128.84741,60.94935 30.6326,0 96.13857,-60.94935 128.8458,-60.94935 32.48264,0 98.03354,60.94935 128.84701,60.94935 32.4814,0 98.27051,-60.94935 128.84621,-60.94935 30.57569,0 96.3644,60.94935 128.84579,60.94935 l 0,-91.42343 c -26.75397,0 -94.45003,-62.75279 -128.84579,-60.9487 -30.81348,0 -94.39935,60.9487 -128.84621,60.9487 -28.66213,0 -96.36437,-60.9487 -128.84701,-60.9487 -32.48139,0 -100.11974,60.9487 -128.8458,60.9487 -30.63296,0 -94.45168,-60.9487 -128.84741,-60.9487 z"
       id="ferry" />
  </g>
</svg>
