<?xml version="1.0" encoding="UTF-8" standalone="no"?>
<!-- Created with Inkscape (http://www.inkscape.org/) -->

<svg
   xmlns:dc="http://purl.org/dc/elements/1.1/"
   xmlns:cc="http://creativecommons.org/ns#"
   xmlns:rdf="http://www.w3.org/1999/02/22-rdf-syntax-ns#"
   xmlns:svg="http://www.w3.org/2000/svg"
   xmlns="http://www.w3.org/2000/svg"
   xmlns:sodipodi="http://sodipodi.sourceforge.net/DTD/sodipodi-0.dtd"
   xmlns:inkscape="http://www.inkscape.org/namespaces/inkscape"
   width="352.78mm"
   height="352.78mm"
   viewBox="0 0 1250.0079 1250.0079"
   id="svg13882"
   version="1.1"
   inkscape:version="0.91 r13725"
   sodipodi:docname="utility_wind.svg">
  <defs
     id="defs13884" />
  <sodipodi:namedview
     id="base"
     pagecolor="#ffffff"
     bordercolor="#666666"
     borderopacity="1.0"
     inkscape:pageopacity="0.0"
     inkscape:pageshadow="2"
     inkscape:zoom="0.5"
     inkscape:cx="128"
     inkscape:cy="520"
     inkscape:document-units="px"
     inkscape:current-layer="layer1"
     showgrid="false"
     inkscape:window-width="1920"
     inkscape:window-height="1018"
     inkscape:window-x="-8"
     inkscape:window-y="-8"
     inkscape:window-maximized="1" />
  <metadata
     id="metadata13887">
    <rdf:RDF>
      <cc:Work
         rdf:about="">
        <dc:format>image/svg+xml</dc:format>
        <dc:type
           rdf:resource="http://purl.org/dc/dcmitype/StillImage" />
        <dc:title></dc:title>
      </cc:Work>
    </rdf:RDF>
  </metadata>
  <g
     inkscape:label="Layer 1"
     inkscape:groupmode="layer"
     id="layer1"
     transform="translate(0,197.64569)">
    <path
       style="opacity:1;fill:#000000;fill-opacity:1;stroke:#000000;stroke-width:11.98105621;stroke-linecap:round;stroke-linejoin:round;stroke-miterlimit:4;stroke-dasharray:none;stroke-opacity:1"
       d="m 454.77852,62.444975 c -0.306,-0.016 -0.595,0.015 -0.866,0.097 -17.377,5.1953 54.15901,206.782325 50.68701,222.360225 -3.472,15.578 -156.57003,179.91542 -142.66502,190.29802 10.343,7.7232 105.12101,-75.56801 160.18702,-120.91791 l -19.065,436.63445 c 138.15501,1.7007 245.66303,1.3228 385.91907,1.3228 l 0,-160.37162 -300.39206,0 -8.314,-305.85304 c 62.153,3.3019 239.01402,24.8811 241.98202,11.5638 C 825.72357,322.0006 587.55054,274.6432 573.64554,264.2604 559.95853,254.04 474.03452,63.443675 454.77852,62.445575 Z"
       id="rect3947"
       inkscape:connector-curvature="0" />
  </g>
</svg>
