<?xml version="1.0" encoding="UTF-8" standalone="no"?>
<!-- Created with Inkscape (http://www.inkscape.org/) -->

<svg
   xmlns:dc="http://purl.org/dc/elements/1.1/"
   xmlns:cc="http://creativecommons.org/ns#"
   xmlns:rdf="http://www.w3.org/1999/02/22-rdf-syntax-ns#"
   xmlns:svg="http://www.w3.org/2000/svg"
   xmlns="http://www.w3.org/2000/svg"
   xmlns:sodipodi="http://sodipodi.sourceforge.net/DTD/sodipodi-0.dtd"
   xmlns:inkscape="http://www.inkscape.org/namespaces/inkscape"
   width="32"
   height="32"
   id="svg11670"
   version="1.1"
   inkscape:version="0.91 r13725"
   viewBox="0 0 32 32"
   sodipodi:docname="utility_wind.svg">
  <defs
     id="defs11672" />
  <sodipodi:namedview
     id="base"
     pagecolor="#ffffff"
     bordercolor="#666666"
     borderopacity="1.0"
     inkscape:pageopacity="0.0"
     inkscape:pageshadow="2"
     inkscape:zoom="20"
     inkscape:cx="11.871489"
     inkscape:cy="16"
     inkscape:current-layer="layer1"
     showgrid="true"
     inkscape:grid-bbox="true"
     inkscape:document-units="px"
     inkscape:window-width="1920"
     inkscape:window-height="1018"
     inkscape:window-x="-8"
     inkscape:window-y="-8"
     inkscape:window-maximized="1" />
  <metadata
     id="metadata11675">
    <rdf:RDF>
      <cc:Work
         rdf:about="">
        <dc:format>image/svg+xml</dc:format>
        <dc:type
           rdf:resource="http://purl.org/dc/dcmitype/StillImage" />
        <dc:title></dc:title>
      </cc:Work>
    </rdf:RDF>
  </metadata>
  <g
     id="layer1"
     inkscape:label="Layer 1"
     inkscape:groupmode="layer">
    <path
       style="opacity:1;fill:#000000;fill-opacity:1;stroke:#000000;stroke-width:0.37485388;stroke-linecap:round;stroke-linejoin:round;stroke-miterlimit:4;stroke-dasharray:none;stroke-opacity:1"
       d="m 9.1074041,4.8300631 c -0.010726,-4.726e-4 -0.020057,4.363e-4 -0.029173,0.00242 -0.5858567,0.1508353 1.8259449,6.0038299 1.7088869,6.4561299 -0.117057,0.4523 -5.2786952,5.223769 -4.8098961,5.525222 0.3487169,0.224235 3.5441102,-2.194086 5.4006441,-3.510801 L 10.7351,25.980532 c 4.657842,0.04944 8.282436,0.03842 13.011109,0.03842 l 0,-4.656323 -10.127602,0 -0.280299,-8.880304 c 2.095466,0.09585 8.058263,0.722415 8.158332,0.335747 0.117058,-0.452299 -7.912858,-1.827303 -8.381657,-2.128768 C 12.653531,10.392561 9.7566269,4.8586742 9.1074256,4.8296996 Z"
       id="rect3947"
       inkscape:connector-curvature="0" />
  </g>
</svg>
