<?xml version="1.0" encoding="UTF-8" standalone="no"?>
<!-- Created with Inkscape (http://www.inkscape.org/) -->

<svg
   xmlns:dc="http://purl.org/dc/elements/1.1/"
   xmlns:cc="http://creativecommons.org/ns#"
   xmlns:rdf="http://www.w3.org/1999/02/22-rdf-syntax-ns#"
   xmlns:svg="http://www.w3.org/2000/svg"
   xmlns="http://www.w3.org/2000/svg"
   xmlns:sodipodi="http://sodipodi.sourceforge.net/DTD/sodipodi-0.dtd"
   xmlns:inkscape="http://www.inkscape.org/namespaces/inkscape"
   width="1000"
   height="1000"
   viewBox="0 0 1000 1000"
   id="svg7198"
   version="1.1"
   inkscape:version="0.91 r13725"
   sodipodi:docname="utility_fossil.svg">
  <defs
     id="defs7200" />
  <sodipodi:namedview
     id="base"
     pagecolor="#ffffff"
     bordercolor="#666666"
     borderopacity="1.0"
     inkscape:pageopacity="0.0"
     inkscape:pageshadow="2"
     inkscape:zoom="0.5"
     inkscape:cx="80"
     inkscape:cy="520"
     inkscape:document-units="px"
     inkscape:current-layer="layer1"
     showgrid="false"
     units="px"
     inkscape:window-width="1920"
     inkscape:window-height="1018"
     inkscape:window-x="-8"
     inkscape:window-y="-8"
     inkscape:window-maximized="1" />
  <metadata
     id="metadata7203">
    <rdf:RDF>
      <cc:Work
         rdf:about="">
        <dc:format>image/svg+xml</dc:format>
        <dc:type
           rdf:resource="http://purl.org/dc/dcmitype/StillImage" />
        <dc:title></dc:title>
      </cc:Work>
    </rdf:RDF>
  </metadata>
  <g
     inkscape:label="Layer 1"
     inkscape:groupmode="layer"
     id="layer1"
     transform="translate(0,-52.362161)">
    <path
       style="fill:#000000;fill-opacity:1"
       d="m 548.33261,209.25466 -27.32578,542.167 133.46046,0 -27.33235,-542.167 -78.80233,0 z m 160.73468,0 -26.93315,542.167 131.57959,0 -26.93534,-542.167 -77.7111,0 z m -601.61229,96.81699 0,603.12356 771.09,0 0,-109.00369 -446.77465,0 0,-399.82534 -113.01548,-94.29453 -211.29987,0 z m 62.87472,147.01367 198.56591,0 0,68.84524 -198.56591,0 0,-68.84524 z m 0,126.21665 198.56591,0 0,68.84853 -198.56591,0 0,-68.84853 z m 0,126.21884 198.56591,0 0,68.8617 -198.56591,0 0,-68.8617 z"
       id="path5-5"
       inkscape:connector-curvature="0" />
  </g>
</svg>
