<?xml version="1.0" encoding="UTF-8" standalone="no"?>
<!-- Created with Inkscape (http://www.inkscape.org/) -->

<svg
   xmlns:dc="http://purl.org/dc/elements/1.1/"
   xmlns:cc="http://creativecommons.org/ns#"
   xmlns:rdf="http://www.w3.org/1999/02/22-rdf-syntax-ns#"
   xmlns:svg="http://www.w3.org/2000/svg"
   xmlns="http://www.w3.org/2000/svg"
   xmlns:sodipodi="http://sodipodi.sourceforge.net/DTD/sodipodi-0.dtd"
   xmlns:inkscape="http://www.inkscape.org/namespaces/inkscape"
   width="1000"
   height="1000"
   viewBox="0 0 999.99999 999.99999"
   id="svg5509"
   version="1.1"
   inkscape:version="0.91 r13725"
   sodipodi:docname="utility_hydro.svg">
  <defs
     id="defs5511" />
  <sodipodi:namedview
     id="base"
     pagecolor="#ffffff"
     bordercolor="#666666"
     borderopacity="1.0"
     inkscape:pageopacity="0.0"
     inkscape:pageshadow="2"
     inkscape:zoom="0.5"
     inkscape:cx="80"
     inkscape:cy="520"
     inkscape:document-units="px"
     inkscape:current-layer="layer1"
     showgrid="false"
     units="px"
     inkscape:window-width="1920"
     inkscape:window-height="1018"
     inkscape:window-x="-8"
     inkscape:window-y="-8"
     inkscape:window-maximized="1" />
  <metadata
     id="metadata5514">
    <rdf:RDF>
      <cc:Work
         rdf:about="">
        <dc:format>image/svg+xml</dc:format>
        <dc:type
           rdf:resource="http://purl.org/dc/dcmitype/StillImage" />
        <dc:title></dc:title>
      </cc:Work>
    </rdf:RDF>
  </metadata>
  <g
     inkscape:label="Layer 1"
     inkscape:groupmode="layer"
     id="layer1"
     transform="translate(0,-52.362271)">
    <path
       d="m 451.01087,149.12127 -41.44919,0.26842 0,802.08103 196.35028,0 -126.19273,-774.77387 c -4.70841,-16.11963 -15.87683,-27.57448 -28.70836,-27.57448 z m -333.43732,66.6071 0,72.86916 257.83259,0 0,-72.86916 -257.83259,0 z m 0,110.56853 0,72.86915 257.83259,0 0,-72.86915 -257.83259,0 z m 0,110.5641 0,72.60405 257.83259,0 0,-72.60405 -257.83259,0 z m 0,110.30341 0,72.87137 257.83259,0 0,-72.87137 -257.83259,0 z m 0,110.69997 0,72.86916 257.83259,0 0,-72.86916 -257.83259,0 z m 580.83711,101.91388 c -10.4312,0 -20.1254,3.3282 -28.98628,9.32183 -8.49337,5.46232 -18.09468,8.79273 -28.15572,8.79273 -9.97024,0 -19.4792,-3.33041 -28.15561,-8.79273 l 10.3383,66.07689 c 5.72278,2.26336 11.72426,3.32931 17.81731,3.32931 10.15471,0 19.66235,-3.06531 28.15572,-8.52652 8.77008,-5.99363 18.55508,-9.32404 28.98628,-9.32404 10.33907,0 20.0314,3.3282 28.89371,9.32404 8.49338,5.46121 18.18548,8.52652 28.15572,8.52652 9.97025,0 19.47943,-3.06531 28.15727,-8.52652 8.67785,-5.99363 18.64665,-9.32404 28.89217,-9.32404 10.24673,0 20.12562,3.3282 28.98793,9.32404 8.49338,5.46121 18.09314,8.52652 28.15561,8.52652 l 0,-60.61347 c -10.15471,0 -19.66223,-3.33041 -28.15561,-8.79273 -8.77008,-5.99253 -18.64753,-9.32183 -28.98793,-9.32183 -10.33908,0 -20.21576,3.3282 -28.89217,9.32183 -8.67784,5.46232 -18.18702,8.79273 -28.15727,8.79273 -9.97024,0 -19.66234,-3.33041 -28.15572,-8.79273 -8.86364,-5.99253 -18.64676,-9.32183 -28.89371,-9.32183 z m -580.83711,8.65575 0,72.86916 257.83259,0 0,-72.86916 -257.83259,0 z m 580.83711,103.11017 c -10.4312,0 -20.1254,3.3271 -28.98628,9.32404 -8.49337,5.46121 -18.09468,8.79383 -28.15572,8.79383 -3.78485,0 -7.56937,-0.53242 -11.35432,-1.59948 l 9.69309,62.21075 1.66123,0 c 10.15471,0 19.66235,-3.06531 28.15572,-8.52762 8.77008,-5.99143 18.55508,-9.32294 28.98628,-9.32294 10.33907,0 20.0314,3.3293 28.89371,9.32294 8.49349,5.46231 18.18548,8.52762 28.15572,8.52762 9.97025,0 19.47943,-3.06531 28.15727,-8.52762 8.67785,-5.99143 18.64665,-9.32294 28.89217,-9.32294 10.24673,0 20.12562,3.3293 28.98793,9.32294 8.49338,5.46231 18.09314,8.52762 28.15561,8.52762 l 0,-60.61127 c -10.15471,0 -19.66223,-3.33262 -28.15561,-8.79383 -8.77008,-5.99363 -18.64753,-9.32404 -28.98793,-9.32404 -10.33908,0 -20.21576,3.3271 -28.89217,9.32404 -8.67784,5.46121 -18.18702,8.79383 -28.15727,8.79383 -9.97024,0 -19.66234,-3.33262 -28.15572,-8.79383 -8.86364,-5.99363 -18.64676,-9.32404 -28.89371,-9.32404 z m -580.83711,7.19104 0,72.86805 257.83259,0 0,-72.86805 -257.83259,0 z"
       id="rect2311"
       inkscape:connector-curvature="0"
       style="fill:#000000;fill-opacity:1" />
  </g>
</svg>
