<?xml version="1.0" encoding="UTF-8" standalone="no"?>
<!-- Created with Inkscape (http://www.inkscape.org/) -->

<svg
   xmlns:dc="http://purl.org/dc/elements/1.1/"
   xmlns:cc="http://creativecommons.org/ns#"
   xmlns:rdf="http://www.w3.org/1999/02/22-rdf-syntax-ns#"
   xmlns:svg="http://www.w3.org/2000/svg"
   xmlns="http://www.w3.org/2000/svg"
   xmlns:sodipodi="http://sodipodi.sourceforge.net/DTD/sodipodi-0.dtd"
   xmlns:inkscape="http://www.inkscape.org/namespaces/inkscape"
   width="32"
   height="32"
   id="svg3355"
   version="1.1"
   inkscape:version="0.91 r13725"
   viewBox="0 0 32 32"
   sodipodi:docname="reservoir_covered_ocha_.svg">
  <defs
     id="defs3357" />
  <sodipodi:namedview
     id="base"
     pagecolor="#ffffff"
     bordercolor="#666666"
     borderopacity="1.0"
     inkscape:pageopacity="0.0"
     inkscape:pageshadow="2"
     inkscape:zoom="20"
     inkscape:cx="13.643268"
     inkscape:cy="16"
     inkscape:current-layer="layer1"
     showgrid="true"
     inkscape:grid-bbox="true"
     inkscape:document-units="px"
     inkscape:window-width="1920"
     inkscape:window-height="1018"
     inkscape:window-x="-8"
     inkscape:window-y="-8"
     inkscape:window-maximized="1" />
  <metadata
     id="metadata3360">
    <rdf:RDF>
      <cc:Work
         rdf:about="">
        <dc:format>image/svg+xml</dc:format>
        <dc:type
           rdf:resource="http://purl.org/dc/dcmitype/StillImage" />
        <dc:title />
      </cc:Work>
    </rdf:RDF>
  </metadata>
  <g
     id="layer1"
     inkscape:label="Layer 1"
     inkscape:groupmode="layer">
    <g
       transform="translate(0.155,0.267)"
       id="g8"
       style="fill:#0082aa;fill-opacity:1">
      <path
         style="clip-rule:evenodd;fill:#0082aa;fill-rule:evenodd;fill-opacity:1"
         inkscape:connector-curvature="0"
         d="m 26.686,9.285 c 0,0.583 0,1.152 0,1.744 -0.084,0.005 -0.168,0.017 -0.252,0.017 -1.422,0.001 -2.843,0.001 -4.266,0.001 -0.244,0 -0.244,10e-4 -0.244,0.247 0,4.665 0,9.331 0,13.995 0,0.087 0,0.174 0,0.271 -4.056,0 -8.091,0 -12.156,0 0,-4.826 0,-9.654 0,-14.511 -1.603,0 -3.177,0 -4.764,0 0,-0.6 0,-1.173 0,-1.761 2.171,0 4.341,0 6.539,0 0,2.521 0,5.045 0,7.589 0.299,-0.09 0.449,-0.294 0.583,-0.514 0.049,-0.079 0.083,-0.169 0.129,-0.249 0.083,-0.146 0.152,-0.141 0.238,0.007 0.087,0.152 0.161,0.313 0.267,0.45 0.394,0.511 1.14,0.517 1.543,0.013 0.108,-0.134 0.179,-0.3 0.272,-0.446 0.032,-0.049 0.081,-0.119 0.125,-0.12 0.04,-0.001 0.094,0.067 0.124,0.116 0.083,0.132 0.147,0.277 0.237,0.402 0.391,0.542 1.13,0.558 1.539,0.03 0.102,-0.132 0.17,-0.291 0.261,-0.433 0.032,-0.049 0.085,-0.117 0.126,-0.115 0.045,10e-4 0.094,0.071 0.124,0.12 0.09,0.141 0.156,0.303 0.259,0.432 0.413,0.523 1.166,0.516 1.569,-0.012 0.095,-0.124 0.158,-0.271 0.241,-0.401 0.035,-0.055 0.086,-0.099 0.129,-0.147 0.047,0.047 0.098,0.088 0.136,0.14 0.139,0.191 0.264,0.391 0.411,0.575 0.057,0.069 0.159,0.104 0.278,0.179 0,-2.566 0,-5.084 0,-7.62 2.192,10e-4 4.361,10e-4 6.552,10e-4 z"
         id="path10" />
      <path
         style="clip-rule:evenodd;fill:#0082aa;fill-rule:evenodd;fill-opacity:1"
         inkscape:connector-curvature="0"
         d="m 15.257,8.362 c -0.577,0 -1.138,0 -1.678,0 0.826,-0.822 1.656,-1.646 2.47,-2.456 0.792,0.791 1.615,1.616 2.453,2.453 -0.403,0 -0.806,0 -1.209,0 -0.51,0 -0.51,0 -0.51,0.505 0,1.608 0,3.217 0,4.826 0,0.081 0,0.161 0,0.264 -0.082,0.003 -0.147,0.01 -0.213,0.01 -0.356,10e-4 -0.713,-0.009 -1.07,0.004 -0.178,0.006 -0.238,-0.042 -0.234,-0.227 0.011,-0.632 0.004,-1.265 0.004,-1.896 0,-1.071 0,-2.141 0,-3.211 C 15.269,8.547 15.262,8.461 15.257,8.362 Z"
         id="path12" />
    </g>
  </g>
</svg>
