<?xml version="1.0" encoding="UTF-8" standalone="no"?>
<!-- Created with Inkscape (http://www.inkscape.org/) -->

<svg
   xmlns:dc="http://purl.org/dc/elements/1.1/"
   xmlns:cc="http://creativecommons.org/ns#"
   xmlns:rdf="http://www.w3.org/1999/02/22-rdf-syntax-ns#"
   xmlns:svg="http://www.w3.org/2000/svg"
   xmlns="http://www.w3.org/2000/svg"
   xmlns:sodipodi="http://sodipodi.sourceforge.net/DTD/sodipodi-0.dtd"
   xmlns:inkscape="http://www.inkscape.org/namespaces/inkscape"
   width="1000"
   height="1000"
   id="svg3358"
   version="1.1"
   inkscape:version="0.91 r13725"
   viewBox="0 0 1000 1000"
   sodipodi:docname="water_spring.svg">
  <defs
     id="defs3360" />
  <sodipodi:namedview
     id="base"
     pagecolor="#ffffff"
     bordercolor="#666666"
     borderopacity="1.0"
     inkscape:pageopacity="0.0"
     inkscape:pageshadow="2"
     inkscape:zoom="0.5"
     inkscape:cx="11.512342"
     inkscape:cy="336"
     inkscape:current-layer="layer1"
     showgrid="true"
     inkscape:grid-bbox="true"
     inkscape:document-units="px"
     inkscape:window-width="1920"
     inkscape:window-height="1018"
     inkscape:window-x="-8"
     inkscape:window-y="-8"
     inkscape:window-maximized="1" />
  <metadata
     id="metadata3363">
    <rdf:RDF>
      <cc:Work
         rdf:about="">
        <dc:format>image/svg+xml</dc:format>
        <dc:type
           rdf:resource="http://purl.org/dc/dcmitype/StillImage" />
        <dc:title></dc:title>
      </cc:Work>
    </rdf:RDF>
  </metadata>
  <g
     id="layer1"
     inkscape:label="Layer 1"
     inkscape:groupmode="layer"
     transform="translate(0,968)">
    <g
       transform="matrix(44.136431,0,0,44.136431,-200.71786,-1105.1476)"
       id="g8"
       style="fill:#0082aa;fill-opacity:1">
      <path
         style="clip-rule:evenodd;fill:#0082aa;fill-opacity:1;fill-rule:evenodd"
         inkscape:connector-curvature="0"
         d="M 5.704,19.035 C 5.7,18.891 5.686,18.742 5.686,18.59 5.683,16.221 5.693,13.856 5.677,11.489 5.674,11.094 5.763,10.95 6.188,10.954 c 2.057,0.021 4.114,0.017 6.171,0 0.392,-0.001 0.542,0.089 0.54,0.514 -0.021,2.366 -0.021,4.735 0,7.102 0.002,0.453 -0.175,0.559 -0.579,0.529 -0.5,-0.041 -0.818,-0.324 -1.064,-0.721 -0.098,-0.156 -0.17,-0.332 -0.268,-0.488 -0.148,-0.244 -0.304,-0.236 -0.444,0.012 -0.081,0.15 -0.158,0.305 -0.237,0.453 -0.528,1.006 -1.939,1.012 -2.494,0.025 -0.444,-0.781 -0.47,-0.766 -0.965,0.012 -0.331,0.52 -0.642,0.702 -1.144,0.643 z"
         id="path10" />
      <path
         style="clip-rule:evenodd;fill:#0082aa;fill-opacity:1;fill-rule:evenodd"
         inkscape:connector-curvature="0"
         d="m 18.783,15.025 c 0,-1.192 0.012,-2.385 -0.004,-3.575 -0.006,-0.34 0.061,-0.497 0.453,-0.496 2.104,0.02 4.209,0.017 6.311,0.002 0.35,-0.002 0.451,0.119 0.451,0.458 -0.016,2.412 -0.006,4.825 -0.012,7.241 0,0.461 -0.15,0.564 -0.547,0.311 -0.25,-0.164 -0.441,-0.42 -0.641,-0.65 -0.164,-0.189 -0.307,-0.395 -0.455,-0.596 -0.141,0.193 -0.295,0.377 -0.414,0.578 -0.322,0.529 -0.734,0.852 -1.396,0.811 -0.502,-0.029 -0.828,-0.287 -1.098,-0.674 -0.172,-0.242 -0.352,-0.477 -0.525,-0.715 -0.176,0.242 -0.355,0.484 -0.523,0.73 -0.275,0.41 -0.633,0.65 -1.152,0.652 -0.346,0.004 -0.457,-0.119 -0.451,-0.461 0.015,-1.203 0.003,-2.41 0.003,-3.616 z"
         id="path12" />
      <path
         style="clip-rule:evenodd;fill:#0082aa;fill-opacity:1;fill-rule:evenodd"
         inkscape:connector-curvature="0"
         d="m 13.49,8.961 c 0.809,-0.809 1.583,-1.581 2.316,-2.317 0.752,0.753 1.53,1.532 2.309,2.311 -0.457,0 -0.959,0 -1.534,0 0,0.239 0,0.432 0,0.627 0,4.086 0,8.173 0,12.257 0,0.613 0,0.619 -0.597,0.613 -0.953,-0.004 -0.835,0.109 -0.837,-0.846 -10e-4,-4.006 0,-8.015 0,-12.024 C 15.146,8.964 15.143,8.964 14.543,8.964 14.204,8.961 13.865,8.961 13.49,8.961 Z"
         id="path14" />
    </g>
  </g>
</svg>
