<?xml version="1.0" encoding="UTF-8" standalone="no"?>
<!-- Created with Inkscape (http://www.inkscape.org/) -->

<svg
   xmlns:dc="http://purl.org/dc/elements/1.1/"
   xmlns:cc="http://creativecommons.org/ns#"
   xmlns:rdf="http://www.w3.org/1999/02/22-rdf-syntax-ns#"
   xmlns:svg="http://www.w3.org/2000/svg"
   xmlns="http://www.w3.org/2000/svg"
   xmlns:sodipodi="http://sodipodi.sourceforge.net/DTD/sodipodi-0.dtd"
   xmlns:inkscape="http://www.inkscape.org/namespaces/inkscape"
   width="352.78mm"
   height="352.78mm"
   viewBox="0 0 1250.0079 1250.0079"
   id="svg27287"
   version="1.1"
   inkscape:version="0.91 r13725"
   sodipodi:docname="water_dam.svg">
  <defs
     id="defs27289" />
  <sodipodi:namedview
     id="base"
     pagecolor="#ffffff"
     bordercolor="#666666"
     borderopacity="1.0"
     inkscape:pageopacity="0.0"
     inkscape:pageshadow="2"
     inkscape:zoom="0.5"
     inkscape:cx="80"
     inkscape:cy="520"
     inkscape:document-units="px"
     inkscape:current-layer="layer1"
     showgrid="false"
     inkscape:window-width="1920"
     inkscape:window-height="1018"
     inkscape:window-x="-8"
     inkscape:window-y="-8"
     inkscape:window-maximized="1" />
  <metadata
     id="metadata27292">
    <rdf:RDF>
      <cc:Work
         rdf:about="">
        <dc:format>image/svg+xml</dc:format>
        <dc:type
           rdf:resource="http://purl.org/dc/dcmitype/StillImage" />
        <dc:title></dc:title>
      </cc:Work>
    </rdf:RDF>
  </metadata>
  <g
     inkscape:label="Layer 1"
     inkscape:groupmode="layer"
     id="layer1"
     transform="translate(0,197.64569)">
    <path
       style="fill:#0082aa;fill-opacity:1"
       d="m 278.18755,79.426319 0,695.864001 217.1797,0 -120.5215,-695.864001 -96.6582,0 z m 355.0078,194.379001 c -41.876,0 -64.548,16.703 -81.0957,28.899 -12.1779,8.971 -17.2146,12.685 -31.7734,12.685 -14.5512,0 -19.5935,-3.714 -31.7715,-12.685 -9.8427,-7.25 -21.8529,-16.099 -38.7773,-22.078 l 18.5605,107.167 c 13.2958,6.147 29.9912,10.756 51.9883,10.756 41.8752,0 64.5405,-16.698 81.0957,-28.892 12.1788,-8.98 17.2146,-12.692 31.7734,-12.692 14.5597,0 19.5947,3.712 31.7735,12.692 16.5476,12.194 39.2127,28.892 81.0879,28.892 41.8836,0 64.5485,-16.698 81.1054,-28.892 12.1789,-8.98 17.2225,-12.692 31.7813,-12.692 14.5588,0 19.6013,3.712 31.7793,12.692 16.5476,12.194 39.214,28.892 81.0976,28.892 l 0,-83.16 c -14.5588,0 -19.6049,-3.714 -31.7812,-12.685 -16.5553,-12.196 -39.2199,-28.899 -81.1035,-28.899 -41.8761,0 -64.5416,16.703 -81.0977,28.899 -12.1779,8.971 -17.2224,12.685 -31.7812,12.685 -14.5513,0 -19.5935,-3.714 -31.7715,-12.685 -16.5485,-12.196 -39.213,-28.899 -81.0899,-28.899 z m -0.01,180.873 c -41.876,0 -64.5402,16.703 -81.0879,28.899 -12.1779,8.97 -17.2146,12.684 -31.7734,12.684 -14.5571,0 -19.5935,-3.714 -31.7715,-12.684 -1.3383,-0.988 -2.724,-2.007 -4.1484,-3.041 l 16.9064,97.636 c 5.8702,0.804 12.1863,1.256 19.0137,1.256 41.8752,0 64.5405,-16.703 81.0957,-28.898 12.1704,-8.972 17.2146,-12.686 31.7734,-12.686 14.5521,0 19.5946,3.714 31.7735,12.686 16.5476,12.195 39.2127,28.898 81.0879,28.898 41.8836,0 64.5483,-16.703 81.0976,-28.898 12.1864,-8.972 17.2205,-12.686 31.7793,-12.686 14.5664,0 19.6035,3.714 31.7891,12.686 16.5476,12.195 39.214,28.898 81.0976,28.898 l 0,-83.168 c -14.5664,0 -19.6032,-3.713 -31.7812,-12.685 -16.5569,-12.194 -39.2218,-28.897 -81.1055,-28.897 -41.876,0 -64.5455,16.703 -81.0957,28.899 -12.178,8.97 -17.2224,12.684 -31.7812,12.684 -14.5588,0 -19.5935,-3.714 -31.7715,-12.684 -16.5485,-12.196 -39.2132,-28.899 -81.0977,-28.899 z m 225.7461,185.035 0,0 c -41.876,0 -64.5455,16.697 -81.0957,28.899 -12.178,8.971 -17.2224,12.684 -31.7812,12.684 -14.5588,0 -19.5935,-3.713 -31.7715,-12.684 -16.5485,-12.196 -39.2132,-28.899 -81.0977,-28.899 -41.876,0 -64.5402,16.697 -81.0879,28.899 -12.1779,8.971 -17.2146,12.684 -31.7734,12.684 -0.3979,0 -0.7738,-0.02 -1.1582,-0.02 l 14.3066,82.584 c 33.6403,-3.048 53.2204,-17.453 67.9473,-28.3 12.1704,-8.972 17.2146,-12.684 31.7734,-12.684 14.5521,0 19.5946,3.712 31.7735,12.684 16.5476,12.196 39.2127,28.893 81.0879,28.893 41.8836,0 64.5483,-16.7 81.0976,-28.893 12.1864,-8.972 17.2205,-12.684 31.7793,-12.684 14.5664,0 19.6035,3.712 31.7891,12.684 16.5476,12.196 39.214,28.893 81.0976,28.893 l 0,-83.163 c -14.5664,0 -19.6032,-3.711 -31.7812,-12.684 -16.5569,-12.196 -39.2218,-28.899 -81.1055,-28.899 z"
       id="path3-74"
       inkscape:connector-curvature="0" />
  </g>
</svg>
