<?xml version="1.0" encoding="UTF-8" standalone="no"?>
<!-- Created with Inkscape (http://www.inkscape.org/) -->

<svg
   xmlns:dc="http://purl.org/dc/elements/1.1/"
   xmlns:cc="http://creativecommons.org/ns#"
   xmlns:rdf="http://www.w3.org/1999/02/22-rdf-syntax-ns#"
   xmlns:svg="http://www.w3.org/2000/svg"
   xmlns="http://www.w3.org/2000/svg"
   xmlns:sodipodi="http://sodipodi.sourceforge.net/DTD/sodipodi-0.dtd"
   xmlns:inkscape="http://www.inkscape.org/namespaces/inkscape"
   width="1000"
   height="1000"
   viewBox="0 0 1000 1000"
   id="svg7761"
   version="1.1"
   inkscape:version="0.91 r13725"
   sodipodi:docname="water_dam.svg">
  <defs
     id="defs7763" />
  <sodipodi:namedview
     id="base"
     pagecolor="#ffffff"
     bordercolor="#666666"
     borderopacity="1.0"
     inkscape:pageopacity="0.0"
     inkscape:pageshadow="2"
     inkscape:zoom="0.5"
     inkscape:cx="80"
     inkscape:cy="520"
     inkscape:document-units="px"
     inkscape:current-layer="layer1"
     showgrid="false"
     units="px"
     inkscape:window-width="1920"
     inkscape:window-height="1018"
     inkscape:window-x="-8"
     inkscape:window-y="-8"
     inkscape:window-maximized="1" />
  <metadata
     id="metadata7766">
    <rdf:RDF>
      <cc:Work
         rdf:about="">
        <dc:format>image/svg+xml</dc:format>
        <dc:type
           rdf:resource="http://purl.org/dc/dcmitype/StillImage" />
        <dc:title></dc:title>
      </cc:Work>
    </rdf:RDF>
  </metadata>
  <g
     inkscape:label="Layer 1"
     inkscape:groupmode="layer"
     id="layer1"
     transform="translate(0,-52.362161)">
    <path
       style="fill:#0082aa;fill-opacity:1"
       d="m 123.1836,176.43016 0,765.86404 239.02675,0 -132.64528,-765.86404 -106.38147,0 z m 390.71958,213.93243 c -46.08849,0 -71.04116,18.38323 -89.25347,31.80608 -13.40292,9.87343 -18.94629,13.96104 -34.96962,13.96104 -16.01497,0 -21.5645,-4.08761 -34.96754,-13.96104 -10.83282,-7.97931 -24.05117,-17.71847 -42.67807,-24.29892 l 20.42758,117.94739 c 14.63328,6.76536 33.00814,11.83799 57.21803,11.83799 46.08761,0 71.03291,-18.37772 89.25347,-31.79837 13.40392,-9.88333 18.94629,-13.96874 34.96962,-13.96874 16.02433,0 21.56582,4.08541 34.96974,13.96874 18.21219,13.42065 43.15728,31.79837 89.24488,31.79837 46.09686,0 71.04172,-18.37772 89.26415,-31.79837 13.40403,-9.88333 18.95499,-13.96874 34.97832,-13.96874 16.02333,0 21.57308,4.08541 34.97612,13.96874 18.21219,13.42065 43.15871,31.79837 89.25556,31.79837 l 0,-91.52542 c -16.02333,0 -21.57704,-4.08761 -34.97821,-13.96104 -18.22067,-13.42285 -43.1652,-31.80608 -89.26205,-31.80608 -46.0886,0 -71.03413,18.38323 -89.25568,31.80608 -13.40292,9.87343 -18.95487,13.96104 -34.97821,13.96104 -16.01507,0 -21.56449,-4.08761 -34.96753,-13.96104 -18.21319,-13.42285 -43.15761,-31.80608 -89.24709,-31.80608 z m -0.011,199.06781 c -46.08849,0 -71.03258,18.38322 -89.24489,31.80607 -13.40293,9.87233 -18.94629,13.95994 -34.96962,13.95994 -16.02147,0 -21.5645,-4.08761 -34.96754,-13.95994 -1.47292,-1.08738 -2.99802,-2.20889 -4.5657,-3.3469 l 18.60709,107.45763 c 6.46071,0.88487 13.41217,1.38234 20.92637,1.38234 46.08761,0 71.03291,-18.38322 89.25347,-31.80497 13.39467,-9.87454 18.94629,-13.96214 34.96962,-13.96214 16.01596,0 21.56571,4.0876 34.96974,13.96214 18.21219,13.42175 43.15727,31.80497 89.24488,31.80497 46.09686,0 71.0415,-18.38322 89.25556,-31.80497 13.41229,-9.87454 18.95279,-13.96214 34.97612,-13.96214 16.0317,0 21.5755,4.0876 34.98691,13.96214 18.21219,13.42175 43.1587,31.80497 89.25556,31.80497 l 0,-91.53423 c -16.0317,0 -21.57517,-4.08651 -34.97821,-13.96104 -18.22243,-13.42065 -43.16729,-31.80387 -89.26426,-31.80387 -46.08849,0 -71.03841,18.38322 -89.25347,31.80607 -13.40304,9.87233 -18.95487,13.95994 -34.97821,13.95994 -16.02333,0 -21.56449,-4.08761 -34.96753,-13.95994 C 584.93488,607.81362 559.99024,589.4304 513.8924,589.4304 Z m 248.45488,203.64847 0,0 c -46.08849,0 -71.03841,18.37663 -89.25347,31.80612 -13.40304,9.87344 -18.95487,13.95994 -34.97821,13.95994 -16.02333,0 -21.56449,-4.0865 -34.96753,-13.95994 -18.21319,-13.42289 -43.15783,-31.80612 -89.25567,-31.80612 -46.08849,0 -71.03258,18.37663 -89.24489,31.80612 -13.40293,9.87344 -18.94629,13.95994 -34.96962,13.95994 -0.43793,0 -0.85164,-0.022 -1.27471,-0.022 l 15.74576,90.89149 c 37.02433,-3.35462 58.57407,-19.20868 74.78242,-31.14682 13.39467,-9.87454 18.94629,-13.95994 34.96962,-13.95994 16.01596,0 21.56571,4.0854 34.96974,13.95994 18.21219,13.42284 43.15727,31.79947 89.24488,31.79947 46.09686,0 71.0415,-18.37993 89.25556,-31.79947 13.41229,-9.87454 18.95279,-13.95994 34.97612,-13.95994 16.0317,0 21.5755,4.0854 34.98691,13.95994 18.21219,13.42284 43.1587,31.79947 89.25556,31.79947 l 0,-91.52873 c -16.0317,0 -21.57517,-4.08431 -34.97821,-13.95994 -18.22243,-13.42289 -43.16729,-31.80612 -89.26426,-31.80612 z"
       id="path3-74"
       inkscape:connector-curvature="0" />
  </g>
</svg>
