<?xml version="1.0" encoding="UTF-8" standalone="no"?>
<!-- Created with Inkscape (http://www.inkscape.org/) -->

<svg
   xmlns:dc="http://purl.org/dc/elements/1.1/"
   xmlns:cc="http://creativecommons.org/ns#"
   xmlns:rdf="http://www.w3.org/1999/02/22-rdf-syntax-ns#"
   xmlns:svg="http://www.w3.org/2000/svg"
   xmlns="http://www.w3.org/2000/svg"
   xmlns:sodipodi="http://sodipodi.sourceforge.net/DTD/sodipodi-0.dtd"
   xmlns:inkscape="http://www.inkscape.org/namespaces/inkscape"
   width="32"
   height="32"
   id="svg12233"
   version="1.1"
   inkscape:version="0.91 r13725"
   viewBox="0 0 32 32"
   sodipodi:docname="water_waterfall.svg">
  <defs
     id="defs12235" />
  <sodipodi:namedview
     id="base"
     pagecolor="#ffffff"
     bordercolor="#666666"
     borderopacity="1.0"
     inkscape:pageopacity="0.0"
     inkscape:pageshadow="2"
     inkscape:zoom="20"
     inkscape:cx="11.871489"
     inkscape:cy="16"
     inkscape:current-layer="layer1"
     showgrid="true"
     inkscape:grid-bbox="true"
     inkscape:document-units="px"
     inkscape:window-width="1920"
     inkscape:window-height="1018"
     inkscape:window-x="-8"
     inkscape:window-y="-8"
     inkscape:window-maximized="1" />
  <metadata
     id="metadata12238">
    <rdf:RDF>
      <cc:Work
         rdf:about="">
        <dc:format>image/svg+xml</dc:format>
        <dc:type
           rdf:resource="http://purl.org/dc/dcmitype/StillImage" />
        <dc:title></dc:title>
      </cc:Work>
    </rdf:RDF>
  </metadata>
  <g
     id="layer1"
     inkscape:label="Layer 1"
     inkscape:groupmode="layer">
    <path
       style="color:#000000;display:inline;overflow:visible;visibility:visible;fill:#0082aa;fill-opacity:1;fill-rule:nonzero;stroke:none;stroke-width:31.39999962;marker:none;enable-background:accumulate"
       d="m 18.50428,4.60718 c 0,0 -5.20262,0.44065 -6.12867,0.83798 3.53218,1.94168 5.90987,11.29883 6.07543,15.77776 0.006,0.15887 -0.0446,0.31953 -0.13724,0.43673 -0.0926,0.1172 -0.22688,0.18876 -0.36382,0.19565 -0.13693,0.007 -0.2754,-0.0503 -0.37644,-0.15773 C 17.47251,21.5901 17.41077,21.4344 17.40483,21.27554 17.13826,13.54491 14.38552,8.56083 11.88495,5.58585 11.10466,5.73101 7.45536,6.25726 6.41838,6.70615 l -0.1196,0.70398 c 0.01,0.10445 3.97318,-0.0773 4.47476,0.0241 0.17995,0.0364 0.30389,0.15605 0.34434,0.20223 0,0 4.20253,4.83434 3.59163,13.45652 -0.007,0.14789 -0.0685,0.29128 -0.16489,0.38848 -0.0964,0.0972 -0.22646,0.14639 -0.35373,0.13436 -0.12729,-0.012 -0.24954,-0.0847 -0.33109,-0.19866 -0.0815,-0.11401 -0.12158,-0.26738 -0.10828,-0.41472 0.02,-0.28234 0.0343,-0.55939 0.044,-0.83244 -0.76263,0.14908 -1.3002,0.33596 -1.61892,0.5272 -0.37753,0.22653 -0.41546,0.34989 -0.41546,0.52136 0,0.007 0,0.0572 0.11204,0.17672 0.11224,0.11954 0.32262,0.27151 0.61057,0.4133 0.57589,0.2836 1.45325,0.5346 2.49514,0.68788 0.12643,0.0141 0.24678,0.0893 0.32611,0.20444 0.0793,0.11509 0.11664,0.2686 0.1007,0.41478 -0.016,0.14617 -0.0848,0.28391 -0.18635,0.37242 -0.10154,0.0885 -0.23458,0.12658 -0.36006,0.1037 -1.10159,-0.16206 -2.04183,-0.41806 -2.74691,-0.76526 -0.35255,-0.17361 -0.64836,-0.36846 -0.88249,-0.61781 -0.23415,-0.24935 -0.42048,-0.59123 -0.42048,-0.99017 0,-0.61983 0.37748,-1.16961 0.93032,-1.50133 0.49838,-0.29903 1.16687,-0.5081 2.06836,-0.66888 -0.004,-0.31103 -0.014,-0.61627 -0.0302,-0.9142 -1.84876,0.24584 -3.28822,0.70201 -4.24749,1.27495 -1.04011,0.62121 -1.46917,1.30651 -1.46917,2.01101 0,0.37178 0.17989,0.77246 0.61815,1.2034 0.43823,0.43094 1.11748,0.85493 1.97647,1.21219 1.71795,0.71453 4.14645,1.17125 6.82829,1.17125 2.68183,0 5.10907,-0.45672 6.82706,-1.17125 0.85896,-0.35726 1.53826,-0.78125 1.97653,-1.21219 0.43823,-0.43094 0.61806,-0.83162 0.61806,-1.2034 0,-0.24567 -0.10371,-0.53245 -0.3663,-0.86164 -0.26258,-0.3292 -0.67453,-0.67842 -1.20101,-1.00185 -0.93689,-0.57558 -2.2293,-1.07486 -3.66719,-1.40206 0.0486,0.33578 0.0934,0.68124 0.13599,1.03547 0.55646,0.18148 1.05702,0.4093 1.45902,0.68056 0.23234,0.15677 0.43336,0.32686 0.59549,0.53741 0.16213,0.21053 0.29583,0.48295 0.29583,0.81056 0,0.44633 -0.22741,0.81267 -0.50604,1.07635 -0.27867,0.26368 -0.63295,0.46849 -1.05753,0.64989 -0.84915,0.36279 -1.98556,0.6185 -3.29583,0.74485 -0.12701,0.0188 -0.26052,-0.0249 -0.36005,-0.11832 -0.0995,-0.0935 -0.16428,-0.23608 -0.17495,-0.3841 -0.0107,-0.14804 0.0336,-0.29901 0.11834,-0.41036 0.0848,-0.11134 0.20941,-0.18092 0.33734,-0.18692 1.2482,-0.12037 2.32348,-0.37169 3.04657,-0.68062 0.36155,-0.15447 0.63331,-0.32732 0.78435,-0.47023 0.14343,-0.13573 0.15271,-0.20175 0.15354,-0.2147 -0.006,-0.0127 -0.0197,-0.0403 -0.0516,-0.0817 -0.0639,-0.083 -0.18989,-0.20102 -0.36387,-0.3184 -0.22041,-0.14873 -0.51441,-0.29842 -0.85227,-0.4323 0.003,0.0344 0.007,0.0676 0.0101,0.10222 0.0182,0.14793 -0.0177,0.30423 -0.0969,0.4221 -0.0792,0.11787 -0.20048,0.19609 -0.32858,0.21175 -0.1281,0.0157 -0.26144,-0.0324 -0.36005,-0.12853 C 21.06159,20.90344 20.999,20.76016 20.99022,20.61107 20.43342,14.51161 18.96927,11.195 17.68812,9.3467 17.04757,8.42255 16.63472,7.87415 16.12636,7.27883 15.63955,6.70873 15.39391,6.52236 15.63121,6.31374 16.77152,5.31122 18.6336,5.11415 18.6336,5.11415 L 18.50428,4.60723 Z M 6.52098,22.5787 c -0.45663,1.12069 0.31462,2.17704 0.89556,2.5545 1.87309,1.21705 5.41124,0.69782 2.17539,-0.25459 C 8.80003,24.64553 7.19359,23.72675 6.52098,22.5787 Z m 20.83112,0.818 c -0.47659,0.2438 -1.75492,1.71008 -4.17701,2.32954 -2.63497,0.67389 -6.56004,0.65214 -6.51614,0.78942 0.18521,0.57937 4.77976,0.89304 7.82145,0.10609 1.70675,-0.44157 2.49866,-1.00503 2.82972,-1.58369 0.24848,-0.43431 0.35242,-1.15461 0.042,-1.64136 z"
       id="rect3039"
       inkscape:connector-curvature="0" />
  </g>
</svg>
