<?xml version="1.0" encoding="UTF-8" standalone="no"?>
<!-- Created with Inkscape (http://www.inkscape.org/) -->

<svg
   xmlns:dc="http://purl.org/dc/elements/1.1/"
   xmlns:cc="http://creativecommons.org/ns#"
   xmlns:rdf="http://www.w3.org/1999/02/22-rdf-syntax-ns#"
   xmlns:svg="http://www.w3.org/2000/svg"
   xmlns="http://www.w3.org/2000/svg"
   xmlns:sodipodi="http://sodipodi.sourceforge.net/DTD/sodipodi-0.dtd"
   xmlns:inkscape="http://www.inkscape.org/namespaces/inkscape"
   width="352.78mm"
   height="352.78mm"
   viewBox="0 0 1250.0079 1250.0079"
   id="svg13953"
   version="1.1"
   inkscape:version="0.91 r13725"
   sodipodi:docname="water_waterfall.svg">
  <defs
     id="defs13955" />
  <sodipodi:namedview
     id="base"
     pagecolor="#ffffff"
     bordercolor="#666666"
     borderopacity="1.0"
     inkscape:pageopacity="0.0"
     inkscape:pageshadow="2"
     inkscape:zoom="0.5"
     inkscape:cx="80"
     inkscape:cy="520"
     inkscape:document-units="px"
     inkscape:current-layer="layer1"
     showgrid="false"
     inkscape:window-width="1920"
     inkscape:window-height="1018"
     inkscape:window-x="-8"
     inkscape:window-y="-8"
     inkscape:window-maximized="1" />
  <metadata
     id="metadata13958">
    <rdf:RDF>
      <cc:Work
         rdf:about="">
        <dc:format>image/svg+xml</dc:format>
        <dc:type
           rdf:resource="http://purl.org/dc/dcmitype/StillImage" />
        <dc:title></dc:title>
      </cc:Work>
    </rdf:RDF>
  </metadata>
  <g
     inkscape:label="Layer 1"
     inkscape:groupmode="layer"
     id="layer1"
     transform="translate(0,197.64569)">
    <path
       style="color:#000000;display:inline;overflow:visible;visibility:visible;fill:#0082aa;fill-opacity:1;fill-rule:nonzero;stroke:none;stroke-width:31.39999962;marker:none;enable-background:accumulate"
       d="m 681.79118,70.115461 c 0,0 -186.66,14.0019 -219.885,26.6269 126.728,61.697409 212.035,359.022849 217.975,501.341859 0.212,5.048 -1.601,10.153 -4.924,13.877 -3.324,3.72411 -8.14,5.99791 -13.053,6.21681 -4.913,0.2185 -9.881,-1.597 -13.506,-5.01171 -3.625,-3.4149 -5.84,-8.3623 -6.053,-13.4102 -9.564,-245.64233 -108.327,-404.01255 -198.043,-498.54306 -27.995,4.6122 -158.925,21.33401 -196.13,35.59771 l -4.291,22.3691 c 0.358,3.3187 142.55,-2.4569 160.546,0.7657 6.456,1.1559 10.903,4.9585 12.354,6.4258 0,0 150.779,153.61242 128.861,427.58395 -0.267,4.6993 -2.458,9.2554 -5.916,12.3438 -3.457,3.0884 -8.125,4.6518 -12.691,4.2695 -4.567,-0.3822 -8.953,-2.6897 -11.879,-6.3125 -2.926,-3.6228 -4.362,-8.496 -3.885,-13.1777 0.718,-8.9714 1.231,-17.775 1.58,-26.4512 -27.362,4.7371 -46.649,10.6754 -58.084,16.752 -13.545,7.198 -14.906,11.1178 -14.906,16.5664 0,0.2073 0,1.8166 4.02,5.6152 4.027,3.7986 11.575,8.6274 21.906,13.13281 20.662,9.0113 52.14,16.987 89.521,21.8574 4.536,0.4491 8.854,2.839 11.7,6.4961 2.845,3.6571 4.185,8.535 3.613,13.1797 -0.573,4.6448 -3.043,9.0213 -6.686,11.834 -3.643,2.8126 -8.416,4.022 -12.918,3.2949 -39.523,-5.1495 -73.257,-13.2838 -98.554,-24.3164 -12.649,-5.5163 -23.262,-11.7077 -31.662,-19.6308 -8.401,-7.9233 -15.086,-18.78641 -15.086,-31.46291 0,-19.6953 13.543,-37.1645 33.378,-47.7051 17.881,-9.5018 41.865,-16.1449 74.209,-21.25381 -0.147,-9.8831 -0.502,-19.5821 -1.084,-29.0488 -66.33,7.8115 -117.975,22.3064 -152.392,40.51171 -37.317,19.7391 -52.711,41.5145 -52.711,63.9003 0,11.81331 6.454,24.54511 22.178,38.23821 15.723,13.6932 40.093,27.1655 70.912,38.5176 61.637,22.70421 148.767,37.21681 244.986,37.21681 96.219,0 183.3041,-14.5126 244.94211,-37.21681 30.818,-11.3521 55.19,-24.8244 70.914,-38.5176 15.723,-13.6931 22.175,-26.4249 22.175,-38.23821 0,-7.8064 -3.721,-16.9187 -13.142,-27.3789 -9.421,-10.4602 -24.201,-21.5569 -43.09,-31.834 -33.614,-18.28921 -79.98301,-34.15371 -131.57211,-44.55071 1.742,10.6694 3.3521,21.6465 4.8791,32.90231 19.965,5.7665 37.924,13.0057 52.347,21.6249 8.33601,4.9813 15.54801,10.3862 21.36501,17.0762 5.817,6.6899 10.614,15.3459 10.614,25.7559 0,14.1821 -8.159,25.82281 -18.156,34.20111 -9.99801,8.3786 -22.70901,14.8866 -37.94201,20.6504 -30.466,11.5278 -71.2381,19.653 -118.2481,23.668 -4.557,0.5956 -9.347,-0.7904 -12.918,-3.7598 -3.571,-2.9695 -5.894,-7.5014 -6.277,-12.205 -0.383,-4.7039 1.205,-9.5011 4.246,-13.0391 3.041,-3.538 7.513,-5.7487 12.103,-5.9395 44.783,-3.8246 83.362,-11.8105 109.3051,-21.6269 12.972,-4.90821 22.722,-10.40041 28.141,-14.94141 5.146,-4.3129 5.479,-6.4109 5.509,-6.8223 -0.199,-0.4019 -0.705,-1.2795 -1.851,-2.5976 -2.292,-2.6362 -6.813,-6.3876 -13.055,-10.1172 -7.908,-4.726 -18.456,-9.4825 -30.578,-13.7364 0.115,1.0946 0.248,2.148 0.361,3.2481 0.654,4.7004 -0.636,9.6668 -3.476,13.4121 -2.841,3.7456 -7.1931,6.2308 -11.7891,6.7285 -4.596,0.4976 -9.38,-1.0293 -12.918,-4.084 -3.538,-3.0547 -5.783,-7.6064 -6.098,-12.3437 -19.977,-193.81162 -72.508,-299.19764 -118.473,-357.92784 -22.982,-29.36511 -37.794,-46.79061 -56.033,-65.70701 -17.466,-18.1151 -26.279,-24.0371 -17.765,-30.666 40.912,-31.855109 107.72,-38.117209 107.72,-38.117209 l -4.64,-16.1074 z m -429.938,571.048869 c -16.383,35.6101 11.288,69.17601 32.131,81.16991 67.203,38.6719 194.145,22.1731 78.049,-8.0898 -28.412,-7.4061 -86.048,-36.60061 -110.18,-73.08011 z m 747.38111,25.9922 c -17.099,7.7467 -62.963,54.33811 -149.86301,74.02151 -94.5381,21.4131 -235.3621,20.722 -233.7871,25.084 6.645,18.40961 171.489,28.37661 280.61911,3.3711 61.235,-14.0312 89.647,-31.9351 101.525,-50.3223 8.91501,-13.8002 12.64401,-36.68781 1.506,-52.15431 z"
       id="rect3039"
       inkscape:connector-curvature="0" />
  </g>
</svg>
