<?xml version="1.0" encoding="UTF-8" standalone="no"?>
<!-- Created with Inkscape (http://www.inkscape.org/) -->

<svg
   xmlns:dc="http://purl.org/dc/elements/1.1/"
   xmlns:cc="http://creativecommons.org/ns#"
   xmlns:rdf="http://www.w3.org/1999/02/22-rdf-syntax-ns#"
   xmlns:svg="http://www.w3.org/2000/svg"
   xmlns="http://www.w3.org/2000/svg"
   xmlns:sodipodi="http://sodipodi.sourceforge.net/DTD/sodipodi-0.dtd"
   xmlns:inkscape="http://www.inkscape.org/namespaces/inkscape"
   width="1000"
   height="1000"
   id="svg12233"
   version="1.1"
   inkscape:version="0.91 r13725"
   viewBox="0 0 1000 1000"
   sodipodi:docname="water_waterfall.svg">
  <defs
     id="defs12235" />
  <sodipodi:namedview
     id="base"
     pagecolor="#ffffff"
     bordercolor="#666666"
     borderopacity="1.0"
     inkscape:pageopacity="0.0"
     inkscape:pageshadow="2"
     inkscape:zoom="0.5"
     inkscape:cx="9.7405635"
     inkscape:cy="496"
     inkscape:current-layer="layer1"
     showgrid="true"
     inkscape:grid-bbox="true"
     inkscape:document-units="px"
     inkscape:window-width="1920"
     inkscape:window-height="1018"
     inkscape:window-x="-8"
     inkscape:window-y="-8"
     inkscape:window-maximized="1" />
  <metadata
     id="metadata12238">
    <rdf:RDF>
      <cc:Work
         rdf:about="">
        <dc:format>image/svg+xml</dc:format>
        <dc:type
           rdf:resource="http://purl.org/dc/dcmitype/StillImage" />
        <dc:title></dc:title>
      </cc:Work>
    </rdf:RDF>
  </metadata>
  <g
     id="layer1"
     inkscape:label="Layer 1"
     inkscape:groupmode="layer"
     transform="translate(0,968)">
    <path
       style="color:#000000;display:inline;overflow:visible;visibility:visible;fill:#0082aa;fill-opacity:1;fill-rule:nonzero;stroke:none;stroke-width:31.39999962;marker:none;enable-background:accumulate"
       d="m 559.78859,-809.39282 c 0,0 -163.46334,13.84497 -192.5593,26.32885 110.97907,61.00647 185.68473,355.00276 190.88653,495.72817 0.18852,4.99161 -1.40131,10.03945 -4.312,13.72181 -2.90944,3.68236 -7.12844,5.93073 -11.43102,6.14721 -4.30226,0.21994 -8.65291,-1.5804 -11.82753,-4.95579 -3.1743,-3.37664 -5.11414,-8.26865 -5.30077,-13.25994 -8.37547,-242.89196 -94.86499,-399.48889 -173.43146,-492.96106 -24.51627,4.56084 -139.17518,21.09532 -171.7565,35.19918 l -3.75776,22.11865 c 0.31419,3.28176 124.83504,-2.42872 140.59439,0.75721 5.65393,1.14367 9.54805,4.903 10.81897,6.35395 0,0 132.04108,151.89219 112.84695,422.79614 -0.21993,4.64662 -2.15223,9.15185 -5.18075,12.20582 -3.02883,3.05397 -7.11524,4.59949 -11.11399,4.22152 -3.99938,-0.37704 -7.8404,-2.66123 -10.40266,-6.24179 -2.56068,-3.58213 -3.81997,-8.40092 -3.40209,-13.03026 0.62839,-8.87096 1.07768,-17.57572 1.38245,-26.15479 -23.9614,4.68401 -40.85154,10.55567 -50.86554,16.56432 -11.86177,7.11744 -13.05351,10.99335 -13.05351,16.38083 0,0.21994 0,1.7972 3.52023,5.55245 3.52652,3.75587 10.13654,8.53068 19.18376,12.98564 18.09413,8.91055 45.66028,16.79683 78.39587,21.6128 3.97236,0.44301 7.75369,2.80575 10.24619,6.42339 2.49156,3.61606 3.66476,8.43926 3.16393,13.03215 -0.50271,4.59257 -2.66436,8.92029 -5.85501,11.70122 -3.19032,2.78062 -7.37036,3.97707 -11.31287,3.25819 -34.61133,-5.09183 -64.15313,-13.1352 -86.30634,-24.04403 -11.07692,-5.45472 -20.3711,-11.5768 -27.72733,-19.41123 -7.35686,-7.83444 -13.21124,-18.57611 -13.21124,-31.11058 0,-19.4747 11.8602,-36.74847 29.23012,-47.17092 15.65881,-9.39535 36.66239,-15.96421 64.98668,-21.01583 -0.12567,-9.77238 -0.43987,-19.36285 -0.94886,-28.72364 -58.08698,7.72415 -103.31399,22.05675 -133.4537,40.0582 -32.67966,19.51806 -46.16048,41.04979 -46.16048,63.18478 0,11.68111 5.65204,24.27025 19.42192,37.81014 13.76893,13.53989 35.11058,26.86141 62.09955,38.08631 53.977,22.45012 130.27908,36.80001 214.54096,36.80001 84.26156,0 160.52405,-14.34989 214.50231,-36.80001 26.98803,-11.2249 48.33125,-24.54642 62.10144,-38.08631 13.76893,-13.53989 19.41909,-26.12903 19.41909,-37.81014 0,-7.71881 -3.25851,-16.72927 -11.50894,-27.07223 -8.25011,-10.34328 -21.19334,-21.31557 -37.73504,-31.47756 -29.43655,-18.08439 -70.04333,-33.77148 -115.22101,-44.05192 1.52698,10.55002 2.93457,21.40417 4.27273,32.53388 17.48365,5.70199 33.21096,12.85997 45.84157,21.3828 7.29999,4.92562 13.61592,10.26975 18.70995,16.88511 5.09404,6.61474 9.29481,15.17402 9.29481,25.46733 0,14.02344 -7.14509,25.53363 -15.89948,33.8183 -8.75566,8.28468 -19.88693,14.71969 -33.22699,20.41918 -26.67981,11.39865 -62.38516,19.43291 -103.55309,23.40275 -3.99058,0.59069 -8.18539,-0.78234 -11.31256,-3.71754 -3.12624,-2.93772 -5.16159,-7.4175 -5.49683,-12.0682 -0.33619,-4.65133 1.05569,-9.39473 3.71817,-12.89328 2.66437,-3.49824 6.57954,-5.6844 10.59903,-5.87292 39.21773,-3.78195 73.00241,-11.67828 95.72148,-21.38469 11.3597,-4.85336 19.89824,-10.2842 24.64383,-14.77436 4.50649,-4.26455 4.79806,-6.33886 4.82414,-6.74575 -0.18852,-0.39902 -0.61896,-1.2662 -1.62124,-2.56696 -2.0077,-2.60782 -5.96624,-6.31594 -11.43259,-10.00395 -6.92515,-4.67301 -16.16247,-9.37618 -26.77783,-13.58262 0.0942,1.08083 0.21993,2.12396 0.31733,3.2117 0.57184,4.64787 -0.55612,9.55873 -3.04454,13.26214 -2.48842,3.7034 -6.29897,6.16103 -10.32379,6.65306 -4.02483,0.49329 -8.2143,-1.01799 -11.31257,-4.03834 -3.09795,-3.01941 -5.0645,-7.52118 -5.34036,-12.2055 -17.49434,-191.64154 -63.49709,-295.84752 -103.75009,-353.92005 -20.12571,-29.03626 -33.09722,-46.26668 -49.0696,-64.97129 -15.29529,-17.91221 -23.01316,-23.76785 -15.55733,-30.32257 35.82789,-31.49861 94.33337,-37.69043 94.33337,-37.69043 l -4.06316,-15.92714 z m -376.50841,564.65485 c -14.34706,35.21144 9.88518,68.40135 28.13798,80.26093 58.85141,38.23901 170.01806,21.9251 68.3495,-7.99907 -24.88104,-7.32324 -75.35446,-36.19078 -96.48748,-72.26186 z m 654.50184,25.70109 c -14.97418,7.66006 -55.13858,53.72974 -131.23926,73.19282 -82.78924,21.17323 -206.11269,20.48986 -204.73338,24.80312 5.81919,18.20347 150.17732,28.058804 245.74547,3.33329 53.62511,-13.87388 78.50647,-31.57747 88.90818,-49.75864 7.8071,-13.64577 11.07284,-36.27718 1.31962,-51.57059 z"
       id="rect3039"
       inkscape:connector-curvature="0" />
  </g>
</svg>
