<?xml version="1.0" encoding="UTF-8" standalone="no"?>
<!-- Created with Inkscape (http://www.inkscape.org/) -->

<svg
   xmlns:dc="http://purl.org/dc/elements/1.1/"
   xmlns:cc="http://creativecommons.org/ns#"
   xmlns:rdf="http://www.w3.org/1999/02/22-rdf-syntax-ns#"
   xmlns:svg="http://www.w3.org/2000/svg"
   xmlns="http://www.w3.org/2000/svg"
   xmlns:sodipodi="http://sodipodi.sourceforge.net/DTD/sodipodi-0.dtd"
   xmlns:inkscape="http://www.inkscape.org/namespaces/inkscape"
   width="32"
   height="32"
   id="svg3346"
   version="1.1"
   inkscape:version="0.91 r13725"
   viewBox="0 0 32 32"
   sodipodi:docname="christian_.svg">
  <defs
     id="defs3348" />
  <sodipodi:namedview
     id="base"
     pagecolor="#ffffff"
     bordercolor="#666666"
     borderopacity="1.0"
     inkscape:pageopacity="0.0"
     inkscape:pageshadow="2"
     inkscape:zoom="20"
     inkscape:cx="13.643268"
     inkscape:cy="16"
     inkscape:current-layer="layer1"
     showgrid="true"
     inkscape:grid-bbox="true"
     inkscape:document-units="px"
     inkscape:window-width="1920"
     inkscape:window-height="1018"
     inkscape:window-x="-8"
     inkscape:window-y="-8"
     inkscape:window-maximized="1" />
  <metadata
     id="metadata3351">
    <rdf:RDF>
      <cc:Work
         rdf:about="">
        <dc:format>image/svg+xml</dc:format>
        <dc:type
           rdf:resource="http://purl.org/dc/dcmitype/StillImage" />
        <dc:title />
      </cc:Work>
    </rdf:RDF>
  </metadata>
  <g
     id="layer1"
     inkscape:label="Layer 1"
     inkscape:groupmode="layer">
    <path
       id="path15412"
       inkscape:export-ydpi="6"
       inkscape:export-xdpi="6"
       inkscape:export-filename="C:\Users\Fabienne\Desktop\Symbole\png\christian.png"
       inkscape:connector-curvature="0"
       d="m 13.241,28.9195 c -0.044,-0.018 -0.055,-1.539 -0.055,-7.402 l 0,-7.38 -2.702,0 c -1.486,0 -2.733,-0.012 -2.772,-0.027 -0.063,-0.024 -0.07,-0.269 -0.07,-2.306 l 0,-2.279 2.771,0 2.772,0 0,-3.21 c 0,-2.887 0.007,-3.213 0.07,-3.237 0.039,-0.015 1.306,-0.027 2.816,-0.027 l 2.745,0 0,3.237 0,3.237 2.771,0 2.771,0 0,2.306 0,2.306 -2.771,0 -2.771,0 0,7.405 0,7.406 -2.76,-0.004 c -1.517,-0.001 -2.784,-0.012 -2.815,-0.025 l 0,0 z"
       style="fill:#000000;fill-opacity:1" />
  </g>
</svg>
