<?xml version="1.0" encoding="UTF-8" standalone="no"?>
<!-- Created with Inkscape (http://www.inkscape.org/) -->

<svg
   xmlns:dc="http://purl.org/dc/elements/1.1/"
   xmlns:cc="http://creativecommons.org/ns#"
   xmlns:rdf="http://www.w3.org/1999/02/22-rdf-syntax-ns#"
   xmlns:svg="http://www.w3.org/2000/svg"
   xmlns="http://www.w3.org/2000/svg"
   xmlns:sodipodi="http://sodipodi.sourceforge.net/DTD/sodipodi-0.dtd"
   xmlns:inkscape="http://www.inkscape.org/namespaces/inkscape"
   width="1000"
   height="1000"
   id="svg6046"
   version="1.1"
   inkscape:version="0.91 r13725"
   viewBox="0 0 1000 1000"
   sodipodi:docname="worship_islamic.svg">
  <defs
     id="defs6048" />
  <sodipodi:namedview
     id="base"
     pagecolor="#ffffff"
     bordercolor="#666666"
     borderopacity="1.0"
     inkscape:pageopacity="0.0"
     inkscape:pageshadow="2"
     inkscape:zoom="0.5"
     inkscape:cx="9.7405635"
     inkscape:cy="416"
     inkscape:current-layer="layer1"
     showgrid="true"
     inkscape:grid-bbox="true"
     inkscape:document-units="px"
     inkscape:window-width="1920"
     inkscape:window-height="1018"
     inkscape:window-x="-8"
     inkscape:window-y="-8"
     inkscape:window-maximized="1" />
  <metadata
     id="metadata6051">
    <rdf:RDF>
      <cc:Work
         rdf:about="">
        <dc:format>image/svg+xml</dc:format>
        <dc:type
           rdf:resource="http://purl.org/dc/dcmitype/StillImage" />
        <dc:title></dc:title>
      </cc:Work>
    </rdf:RDF>
  </metadata>
  <g
     id="layer1"
     inkscape:label="Layer 1"
     inkscape:groupmode="layer"
     transform="translate(0,968)">
    <path
       inkscape:connector-curvature="0"
       style="fill:#000000;fill-opacity:1;stroke:#000100;stroke-width:12.48511887"
       d="m 487.10713,-860.6446 c -216.84237,0 -392.618973,181.55518 -392.618973,405.51206 0,223.95725 175.776603,405.52714 392.618973,405.52714 94.34759,0 180.88189,-34.428976 248.56117,-91.72605 -36.36551,12.01855 -75.26229,18.87688 -115.93673,18.87688 -195.15946,0 -353.33798,-150.37042 -353.33798,-335.86972 0,-185.50036 158.17852,-335.85496 353.33798,-335.85496 35.38784,0 69.46568,5.08974 101.72227,14.27996 -65.49082,-50.47539 -146.43017,-80.74531 -234.34671,-80.74531 z m 307.35037,219.92219 -88.52695,102.79845 -117.05714,-64.06806 65.77378,120.16306 -94.21479,97.07173 129.17567,-28.54445 58.83315,124.05716 14.06884,-137.78714 130.57159,-20.40427 -120.4897,-56.62917 21.86555,-136.65731 z"
       id="path3-9" />
  </g>
</svg>
