<?xml version="1.0" encoding="UTF-8" standalone="no"?>
<!-- Created with Inkscape (http://www.inkscape.org/) -->

<svg
   xmlns:dc="http://purl.org/dc/elements/1.1/"
   xmlns:cc="http://creativecommons.org/ns#"
   xmlns:rdf="http://www.w3.org/1999/02/22-rdf-syntax-ns#"
   xmlns:svg="http://www.w3.org/2000/svg"
   xmlns="http://www.w3.org/2000/svg"
   xmlns:sodipodi="http://sodipodi.sourceforge.net/DTD/sodipodi-0.dtd"
   xmlns:inkscape="http://www.inkscape.org/namespaces/inkscape"
   width="352.78mm"
   height="352.78mm"
   viewBox="0 0 1250.0079 1250.0079"
   id="svg7765"
   version="1.1"
   inkscape:version="0.91 r13725"
   sodipodi:docname="worship_islamic.svg">
  <defs
     id="defs7767" />
  <sodipodi:namedview
     id="base"
     pagecolor="#ffffff"
     bordercolor="#666666"
     borderopacity="1.0"
     inkscape:pageopacity="0.0"
     inkscape:pageshadow="2"
     inkscape:zoom="0.5"
     inkscape:cx="80"
     inkscape:cy="520"
     inkscape:document-units="px"
     inkscape:current-layer="layer1"
     showgrid="false"
     inkscape:window-width="1920"
     inkscape:window-height="1018"
     inkscape:window-x="-8"
     inkscape:window-y="-8"
     inkscape:window-maximized="1" />
  <metadata
     id="metadata7770">
    <rdf:RDF>
      <cc:Work
         rdf:about="">
        <dc:format>image/svg+xml</dc:format>
        <dc:type
           rdf:resource="http://purl.org/dc/dcmitype/StillImage" />
        <dc:title></dc:title>
      </cc:Work>
    </rdf:RDF>
  </metadata>
  <g
     inkscape:label="Layer 1"
     inkscape:groupmode="layer"
     id="layer1"
     transform="translate(0,197.64569)">
    <path
       inkscape:connector-curvature="0"
       style="fill:#000000;stroke:#000100;stroke-width:9.73365784;fill-opacity:1"
       d="m 613.51032,118.79072 c -173.21,0 -313.617,138.1487 -313.617,308.5619 0,170.4132 140.407,308.5733 313.617,308.5733 75.363,0 144.485,-26.1977 198.546,-69.7962 -29.048,9.1452 -60.118,14.3638 -92.608,14.3638 -155.89,0 -282.24,-114.4197 -282.24,-255.5697 0,-141.1506 126.35,-255.5584 282.24,-255.5584 28.267,0 55.488,3.8729 81.254,10.8659 -52.313,-38.4077 -116.966,-61.4406 -187.192,-61.4406 z m 245.506,167.3429 -70.714,78.2213 -93.503,-48.7505 52.539,91.4344 -75.257,73.8636 103.183,-21.7199 46.995,94.3975 11.238,-104.845 104.298,-15.5259 -96.245,-43.0903 17.466,-103.9852 z"
       id="path3-9" />
  </g>
</svg>
