<?xml version="1.0" encoding="UTF-8" standalone="no"?>
<!-- Created with Inkscape (http://www.inkscape.org/) -->

<svg
   xmlns:dc="http://purl.org/dc/elements/1.1/"
   xmlns:cc="http://creativecommons.org/ns#"
   xmlns:rdf="http://www.w3.org/1999/02/22-rdf-syntax-ns#"
   xmlns:svg="http://www.w3.org/2000/svg"
   xmlns="http://www.w3.org/2000/svg"
   xmlns:sodipodi="http://sodipodi.sourceforge.net/DTD/sodipodi-0.dtd"
   xmlns:inkscape="http://www.inkscape.org/namespaces/inkscape"
   width="32"
   height="32"
   id="svg3347"
   version="1.1"
   inkscape:version="0.91 r13725"
   viewBox="0 0 32 32"
   sodipodi:docname="buddhist_.svg">
  <defs
     id="defs3349" />
  <sodipodi:namedview
     id="base"
     pagecolor="#ffffff"
     bordercolor="#666666"
     borderopacity="1.0"
     inkscape:pageopacity="0.0"
     inkscape:pageshadow="2"
     inkscape:zoom="20"
     inkscape:cx="13.643268"
     inkscape:cy="16"
     inkscape:current-layer="layer1"
     showgrid="true"
     inkscape:grid-bbox="true"
     inkscape:document-units="px"
     inkscape:window-width="1920"
     inkscape:window-height="1018"
     inkscape:window-x="-8"
     inkscape:window-y="-8"
     inkscape:window-maximized="1" />
  <metadata
     id="metadata3352">
    <rdf:RDF>
      <cc:Work
         rdf:about="">
        <dc:format>image/svg+xml</dc:format>
        <dc:type
           rdf:resource="http://purl.org/dc/dcmitype/StillImage" />
        <dc:title />
      </cc:Work>
    </rdf:RDF>
  </metadata>
  <g
     id="layer1"
     inkscape:label="Layer 1"
     inkscape:groupmode="layer">
    <path
       style="fill:#000000;stroke:#1d1d1b;stroke-width:0.0221;fill-opacity:1"
       id="path6455"
       inkscape:connector-curvature="0"
       inkscape:export-ydpi="90"
       inkscape:export-xdpi="90"
       inkscape:export-filename="C:\Users\Fabienne\Desktop\Symbole\png\buddhist.png"
       d="m 15.267588,28.611808 c -0.906,-0.479 -1.089,-1.66 -0.369,-2.373 0.24,-0.238 0.183,-0.289 -0.394,-0.354 -1.373,-0.156 -3.417,-1.056 -4.5960003,-2.021 -0.156,-0.13 -0.299,-0.231 -0.318,-0.231 -0.019,0 -0.035,0.17 -0.035,0.379 0,0.498 -0.238,0.967 -0.635,1.244 -0.267,0.188 -0.348,0.209 -0.831,0.209 -0.466,0 -0.571,-0.023 -0.82,-0.189 -1.251,-0.828 -0.617,-2.75 0.908,-2.75 0.294,0 0.31,-0.057 0.09,-0.322 -0.9,-1.092 -1.71,-2.932 -1.961,-4.455 -0.065,-0.396 -0.125,-0.73 -0.135,-0.744 -0.009,-0.014 -0.143,0.082 -0.296,0.215 -1.005,0.859 -2.49,0.211 -2.49,-1.087 0,-1.307 1.551,-1.969 2.5,-1.067 0.246,0.234 0.267,0.242 0.291,0.106 0.014,-0.081 0.074,-0.46 0.134,-0.844 0.186,-1.194001 0.701,-2.584001 1.317,-3.554001 l 0.242,-0.38 -0.503,-0.035 c -0.774,-0.053 -1.237,-0.4209997 -1.434,-1.1399997 -0.269,-0.984 0.788,-2.041 1.772,-1.772 0.601,0.165 1.039,0.619 1.114,1.157 0.066,0.475 0.073,0.476 0.483,0.101 1.4770003,-1.35 3.1870003,-2.2 5.0680003,-2.521 0.358,-0.061 0.666,-0.126 0.684,-0.144 0.018,-0.018 -0.077,-0.154 -0.21,-0.302 -0.681,-0.753 -0.477,-1.847 0.432,-2.315 0.32,-0.165 0.438,-0.189 0.746,-0.16 0.496,0.048 0.931,0.313 1.162,0.708 0.354,0.603 0.289,1.243 -0.178,1.772 l -0.273,0.311 0.584,0.082 c 1.646,0.23 3.317,0.926 4.597,1.913 0.269,0.207 0.497,0.376 0.51,0.376 0.015,0 0.042,-0.172 0.063,-0.383 0.054,-0.516 0.313,-0.946 0.716,-1.181 1.021,-0.599 2.237,0.083 2.237,1.253 0,0.836 -0.649,1.487 -1.483,1.487 -0.173,0 -0.313,0.021 -0.313,0.045 0,0.024 0.184,0.313 0.405,0.6389997 0.834,1.219 1.435,2.69 1.642,4.024001 0.063,0.395 0.127,0.793 0.143,0.884 l 0.031,0.166 0.221,-0.209 c 0.331,-0.314 0.619,-0.433 1.05,-0.433 0.435,0 0.794,0.152 1.086,0.46 0.749,0.789 0.376,2.107 -0.683,2.417 -0.563,0.161 -1.042,0.034 -1.471,-0.396 -0.119,-0.119 -0.226,-0.205 -0.234,-0.19 -0.01,0.014 -0.07,0.348 -0.137,0.743 -0.198,1.211 -0.736,2.608 -1.404,3.656 -0.129,0.2 -0.232,0.377 -0.232,0.394 0,0.016 0.103,0.014 0.228,-0.009 0.768,-0.123 1.637,0.666 1.639,1.49 0.002,0.516 -0.385,1.112 -0.858,1.329 -0.304,0.138 -0.893,0.171 -1.168,0.066 -0.473,-0.181 -0.945,-0.824 -0.945,-1.289 l 0,-0.25 -0.352,0.301 c -0.781,0.668 -1.455,1.119 -2.312,1.543 -0.979,0.486 -1.738,0.729 -2.832,0.908 l -0.709,0.115 0.252,0.25 c 0.705,0.706 0.492,1.893 -0.424,2.363 -0.346,0.176 -0.975,0.172 -1.312,-0.006 l 0,0 z m 2.614,-4.5 c 0.78,-0.178 1.562,-0.489 2.222,-0.887 0.533,-0.32 1.354,-0.934 1.521,-1.135 0.064,-0.078 -0.33,-0.441 -2.042,-1.888 -1.167,-0.983 -2.192,-1.847 -2.278,-1.915 -0.146,-0.113 -0.174,-0.116 -0.367,-0.016 l -0.211,0.107 0,2.973 0,2.974 0.295,-0.043 c 0.16,-0.021 0.548,-0.097 0.86,-0.17 z m -2.815,-2.864 c 0,-1.653 -0.023,-3.007 -0.052,-3.007 -0.029,0 -0.998,0.945 -2.153,2.102 l -2.101,2.102 0.437,0.322 c 0.537,0.396 1.155,0.744 1.736,0.98 0.536,0.219 1.602,0.5 1.909,0.506 l 0.225,0.003 -0.001,-3.008 0,0 z m -3.249,-2.144 2.108,-2.108 -3.024,0 c -3.4700003,0 -3.1010003,-0.097 -2.9200003,0.763 0.132,0.629 0.408,1.436 0.673,1.969 0.277,0.557 0.892,1.486 0.982,1.486 0.04,0 1.0220003,-0.949 2.1810003,-2.11 l 0,0 z m 11.485,0.704 c 0.377,-0.729 0.934,-2.654 0.807,-2.781 -0.018,-0.018 -1.313,-0.022 -2.883,-0.014 l -2.852,0.018 2.197,1.854 2.197,1.852 0.162,-0.262 c 0.091,-0.146 0.259,-0.445 0.372,-0.667 l 0,0 z m -6.481,-2.377 c 0.707,-0.496 0.813,-1.505 0.225,-2.153 -0.43,-0.473 -1.274,-0.566 -1.825,-0.202 -0.312,0.206 -0.639,0.781 -0.638,1.122 10e-4,0.574 0.347,1.121 0.863,1.365 0.404,0.19 1,0.131 1.375,-0.132 z m -3.173,-2.226 c -0.463,-0.449 -4.4360003,-3.735001 -4.4930003,-3.717001 -0.038,0.012 -0.216,0.3 -0.395,0.639 -0.448,0.847 -0.759,1.858001 -0.909,2.950001 l -0.036,0.259 2.9840003,0 c 2.94,0 2.983,-0.002 2.849,-0.131 l 0,0 z m 10.494,-0.197 c -0.065,-0.626 -0.421,-1.874001 -0.705,-2.482001 -0.279,-0.595 -0.944,-1.684 -1.031,-1.684 -0.084,0 -4.364,4.322001 -4.364,4.407001 0,0.068 0.651,0.087 3.067,0.087 l 3.068,0 -0.035,-0.328 0,0 z m -9.076,-4.023001 0,-3.2449997 -0.259,0.039 c -1.536,0.234 -3.479,1.184 -4.396,2.151 l -0.197,0.2069997 0.611,0.519 c 2.617,2.221 4.209,3.567001 4.224,3.570001 0.01,0.003 0.017,-1.456001 0.017,-3.241001 z m 3.973,0.898 c 2.526,-2.5279997 2.36,-2.2139997 1.483,-2.8029997 -0.979,-0.656 -2.295,-1.16 -3.435,-1.313 l -0.362,-0.049 0,3.1869997 c 0,1.752 0.022,3.188001 0.053,3.188001 0.03,-10e-4 1.045,-0.995001 2.261,-2.210001 l 0,0 z" />
  </g>
</svg>
