<?xml version="1.0" encoding="UTF-8" standalone="no"?>
<!-- Created with Inkscape (http://www.inkscape.org/) -->

<svg
   xmlns:dc="http://purl.org/dc/elements/1.1/"
   xmlns:cc="http://creativecommons.org/ns#"
   xmlns:rdf="http://www.w3.org/1999/02/22-rdf-syntax-ns#"
   xmlns:svg="http://www.w3.org/2000/svg"
   xmlns="http://www.w3.org/2000/svg"
   xmlns:sodipodi="http://sodipodi.sourceforge.net/DTD/sodipodi-0.dtd"
   xmlns:inkscape="http://www.inkscape.org/namespaces/inkscape"
   width="32"
   height="32"
   id="svg3351"
   version="1.1"
   inkscape:version="0.91 r13725"
   viewBox="0 0 32 32"
   sodipodi:docname="hindu_.svg">
  <defs
     id="defs3353" />
  <sodipodi:namedview
     id="base"
     pagecolor="#ffffff"
     bordercolor="#666666"
     borderopacity="1.0"
     inkscape:pageopacity="0.0"
     inkscape:pageshadow="2"
     inkscape:zoom="20"
     inkscape:cx="11.331756"
     inkscape:cy="16"
     inkscape:current-layer="layer1"
     showgrid="true"
     inkscape:grid-bbox="true"
     inkscape:document-units="px"
     inkscape:window-width="1920"
     inkscape:window-height="1018"
     inkscape:window-x="-8"
     inkscape:window-y="-8"
     inkscape:window-maximized="1" />
  <metadata
     id="metadata3356">
    <rdf:RDF>
      <cc:Work
         rdf:about="">
        <dc:format>image/svg+xml</dc:format>
        <dc:type
           rdf:resource="http://purl.org/dc/dcmitype/StillImage" />
        <dc:title />
      </cc:Work>
    </rdf:RDF>
  </metadata>
  <g
     id="layer1"
     inkscape:label="Layer 1"
     inkscape:groupmode="layer">
    <path
       id="path44345"
       style="fill:#000000;fill-opacity:1"
       d="m 20.476574,6.4957477 c -0.281,-0.453 -0.512,-0.853 -0.512,-0.888 0,-0.035 0.389,-0.309 0.863,-0.608 l 0.863,-0.544 0.551,0.857 0.553,0.858 -0.81,0.519 c -0.445,0.285 -0.851,0.543 -0.902,0.574 -0.051,0.032 -0.323,-0.314 -0.606,-0.768 l 0,0 z m 0.646,3.8340003 c -1.549,-0.218 -2.65,-0.7970003 -3.908,-2.0560003 -0.923,-0.925 -1.392,-1.669 -1.57,-2.494 -0.085,-0.397 0.016,-0.562 0.128,-0.208 0.104,0.328 1.059,1.278 1.677,1.668 2.333,1.473 5.797,1.674 7.722,0.447 l 0.456,-0.291 0.701,0.731 0.701,0.731 -0.225,0.182 c -0.53,0.429 -1.709,0.909 -2.808,1.1430003 -0.791,0.17 -2.201,0.242 -2.874,0.147 z m -9.403,17.088 c -1.8420003,-0.369 -4.2400003,-1.635 -5.2840003,-2.787 -0.938,-1.037 -1.672,-2.41 -1.985,-3.714 -0.188,-0.784 -0.265,-2.802 -0.111,-2.897 0.041,-0.025 0.188,0.444 0.329,1.043 0.524,2.237 1.815,4.188 3.376,5.103 0.511,0.3 1.846,0.657 2.9580003,0.792 1.49,0.182 3.409,-0.167 4.537,-0.824 0.612,-0.355 1.354,-1.094 1.577,-1.565 0.26,-0.554 0.262,-1.425 0.004,-1.958 -0.459,-0.947 -2.063,-1.991 -3.183,-2.072 -0.394,-0.029 -0.722,0.018 -1.197,0.171 -0.359,0.116 -0.666,0.194 -0.681,0.175 -0.096,-0.129 -1.644,-3.083 -1.643,-3.137 0,-0.037 0.398,-0.272 0.883,-0.523 2.423,-1.253 3.162,-2.038 3.166,-3.364 0.003,-1.02 -0.44,-1.604 -1.29,-1.699 -0.576,-0.065 -1.123,0.212 -2.431,1.23 -0.9790003,0.762 -1.1670003,0.879 -1.1690003,0.725 0,-0.039 -0.333,-0.442 -0.739,-0.897 l -0.737,-0.827 0.249,-0.208 c 1.289,-1.0780003 3.3160003,-1.8050003 4.7340003,-1.6970003 1.458,0.11 2.427,0.851 2.871,2.1950003 0.254,0.769 0.171,2.12 -0.175,2.84 -0.313,0.651 -1.183,1.607 -1.851,2.035 -0.447,0.286 -0.466,0.312 -0.244,0.338 0.321,0.038 4.706,-0.641 4.776,-0.739 0.014,-0.019 0.23,-0.328 0.48,-0.687 0.589,-0.843 1.391,-1.686 1.861,-1.958 0.74,-0.426 2.545,-0.584 3.258,-0.287 2.014,0.844 3.684,4.135 3.684,7.259 0,2.252 -0.94,4.057 -2.271,4.354 -1.26,0.283 -2.758,-0.572 -3.783,-2.158 -0.586,-0.906 -0.778,-1.836 -0.565,-2.738 l 0.065,-0.279 0.119,0.419 c 0.193,0.688 0.571,1.289 1.145,1.82 0.592,0.548 2.112,0.532 2.223,0.524 0.344,-0.156 0.436,-0.301 0.547,-0.453 0.303,-0.414 0.275,-0.792 0.369,-1.454 0.242,-1.71 -0.575,-4.123 -1.772,-5.231 -0.708,-0.656 -1.14,-0.8 -1.671,-0.56 -0.566,0.255 -1.135,0.947 -1.479,1.798 -0.172,0.428 -0.42,0.854 -0.594,1.021 -0.361,0.349 -1.22,0.784 -1.975,1 -0.308,0.088 -0.576,0.176 -0.598,0.195 -0.022,0.019 0.256,0.339 0.615,0.711 1.053,1.085 1.517,2.232 1.517,3.749 0,2.866 -1.776,4.671 -5.137,5.216 -1.035,0.168 -1.952,0.168 -2.779,0.004 l 0,0 0,-0.004 z" />
  </g>
</svg>
