<?xml version="1.0" encoding="UTF-8" standalone="no"?>
<!-- Created with Inkscape (http://www.inkscape.org/) -->

<svg
   xmlns:dc="http://purl.org/dc/elements/1.1/"
   xmlns:cc="http://creativecommons.org/ns#"
   xmlns:rdf="http://www.w3.org/1999/02/22-rdf-syntax-ns#"
   xmlns:svg="http://www.w3.org/2000/svg"
   xmlns="http://www.w3.org/2000/svg"
   xmlns:sodipodi="http://sodipodi.sourceforge.net/DTD/sodipodi-0.dtd"
   xmlns:inkscape="http://www.inkscape.org/namespaces/inkscape"
   width="1000"
   height="1000"
   id="svg3347"
   version="1.1"
   inkscape:version="0.91 r13725"
   viewBox="0 0 1000 1000"
   sodipodi:docname="worship_buddhist.svg">
  <defs
     id="defs3349" />
  <sodipodi:namedview
     id="base"
     pagecolor="#ffffff"
     bordercolor="#666666"
     borderopacity="1.0"
     inkscape:pageopacity="0.0"
     inkscape:pageshadow="2"
     inkscape:zoom="0.5"
     inkscape:cx="11.512342"
     inkscape:cy="496"
     inkscape:current-layer="layer1"
     showgrid="true"
     inkscape:grid-bbox="true"
     inkscape:document-units="px"
     inkscape:window-width="1920"
     inkscape:window-height="1018"
     inkscape:window-x="-8"
     inkscape:window-y="-8"
     inkscape:window-maximized="1" />
  <metadata
     id="metadata3352">
    <rdf:RDF>
      <cc:Work
         rdf:about="">
        <dc:format>image/svg+xml</dc:format>
        <dc:type
           rdf:resource="http://purl.org/dc/dcmitype/StillImage" />
        <dc:title></dc:title>
      </cc:Work>
    </rdf:RDF>
  </metadata>
  <g
     id="layer1"
     inkscape:label="Layer 1"
     inkscape:groupmode="layer"
     transform="translate(0,968)">
    <path
       style="fill:#000000;fill-opacity:1;stroke:#1d1d1b;stroke-width:0.75480378"
       id="path6455"
       inkscape:connector-curvature="0"
       inkscape:export-ydpi="90"
       inkscape:export-xdpi="90"
       inkscape:export-filename="C:\Users\Fabienne\Desktop\Symbole\png\buddhist.png"
       d="m 475.56999,-26.256085 c -30.94354,-16.359775 -37.19372,-56.69567 -12.60283,-81.047485 8.19697,-8.12866 6.25019,-9.87051 -13.45668,-12.09052 -46.89347,-5.32803 -116.70428,-36.06665 -156.97188,-69.02527 -5.32803,-4.44003 -10.21205,-7.88958 -10.86098,-7.88958 -0.64892,0 -1.19539,5.80618 -1.19539,12.94437 0,17.0087 -8.12865,33.02694 -21.6878,42.4876 -9.11912,6.42096 -11.8856,7.13819 -28.38199,7.13819 -15.91577,0 -19.50194,-0.78554 -28.00629,-6.45511 -42.72668,-28.27953 -21.07303,-93.92355 31.01185,-93.92355 10.04128,0 10.58774,-1.94678 3.07386,-10.99759 -30.73862,-37.29619 -58.40337,-100.13959 -66.97603,-152.15616 -2.22001,-13.52499 -4.26926,-24.93243 -4.6108,-25.41059 -0.30738,-0.47815 -4.88402,2.80063 -10.10958,7.34312 -34.32479,29.3383 -85.04351,7.2065 -85.04351,-37.12542 0,-44.6393 52.97288,-67.24926 85.38504,-36.44234 8.40189,7.99204 9.11913,8.26528 9.93882,3.62033 0.47816,-2.76648 2.5274,-15.71085 4.57664,-28.82599 6.35265,-40.77993 23.94197,-88.25402 44.98085,-121.38342 l 8.26527,-12.97852 -17.17947,-1.19539 c -26.43521,-1.81017 -42.24852,-14.37884 -48.97687,-38.93558 -9.18743,-33.60755 26.91337,-69.70835 60.52092,-60.52092 20.52657,5.63542 35.48603,21.14134 38.04758,39.5162 2.25417,16.22316 2.49324,16.25732 16.49639,3.44956 50.4455,-46.10793 108.84887,-75.13884 173.09258,-86.10228 12.22713,-2.0834 22.74657,-4.30341 23.36134,-4.91818 0.61478,-0.61477 -2.62985,-5.25972 -7.17234,-10.31451 -23.25889,-25.71798 -16.29147,-63.08247 14.75454,-79.06656 10.92928,-5.63541 14.95946,-6.4551 25.47889,-5.46464 16.9404,1.63939 31.7974,10.69021 39.68697,24.18105 12.09053,20.59487 9.87052,42.45344 -6.07941,60.52092 l -9.32405,10.6219 19.94595,2.80063 c 56.21751,7.85542 113.28888,31.62662 157.00602,65.33663 9.18743,7.06989 16.97455,12.84191 17.41855,12.84191 0.51231,0 1.43447,-5.87449 2.1517,-13.08098 1.84432,-17.62348 10.69021,-32.30971 24.45428,-40.3359 34.87125,-20.45826 76.40254,2.83478 76.40254,42.79498 0,28.55276 -22.16596,50.78703 -50.65041,50.78703 -5.90865,0 -10.69021,0.71723 -10.69021,1.53693 0,0.8197 6.28434,10.69021 13.83238,21.82441 28.48445,41.63375 49.01102,91.87431 56.0809,137.4358 2.1517,13.49084 4.33756,27.08414 4.88402,30.19215 l 1.05878,5.66957 7.54803,-7.13819 c 11.30498,-10.72436 21.14134,-14.78869 35.86172,-14.78869 14.857,0 27.11829,5.19141 37.09127,15.71085 25.58136,26.94752 12.84191,71.96252 -23.3272,82.55026 -19.22871,5.4988 -35.58848,1.16124 -50.24056,-13.52499 -4.06433,-4.06433 -7.71881,-7.00157 -7.99204,-6.48926 -0.34154,0.47815 -2.39078,11.8856 -4.6791,25.37643 -6.76249,41.36052 -25.13736,89.07368 -47.95224,124.86709 -4.40587,6.83081 -7.92373,12.87607 -7.92373,13.45669 0,0.54646 3.51786,0.47815 7.78711,-0.30739 26.23029,-4.20094 55.91013,22.74658 55.97844,50.88949 0.0683,17.62347 -13.1493,37.97927 -29.30415,45.39069 -10.38282,4.71325 -30.49954,5.84033 -39.89189,2.25416 -16.15485,-6.18187 -32.27555,-28.14291 -32.27555,-44.02453 l 0,-8.5385 -12.02221,10.28036 c -26.67429,22.81488 -49.6941,38.21834 -78.96409,52.69965 -33.43679,16.59885 -59.35969,24.89828 -96.72418,31.01185 l -24.2152,3.92771 8.60681,8.5385 c 24.07858,24.112741 16.80378,64.65356 -14.4813,80.705949 -11.81729,6.011107 -33.30017,5.874491 -44.81008,-0.204924 l 0,0 z M 564.8486,-179.94917 c 26.64013,-6.07941 53.34858,-16.70131 75.89023,-30.29461 18.20409,-10.92929 46.24454,-31.89985 51.94826,-38.76481 2.18586,-2.66402 -11.27083,-15.06192 -69.74251,-64.48279 -39.85774,-33.5734 -74.8656,-63.08247 -77.80285,-65.40494 -4.98649,-3.85941 -5.9428,-3.96187 -12.53452,-0.54647 l -7.2065,3.65448 0,101.5399 0,101.57405 10.07543,-1.46862 c 5.46465,-0.71724 18.7164,-3.31294 29.37246,-5.80619 z m -96.14356,-97.81711 c 0,-56.45659 -0.78555,-102.70113 -1.77601,-102.70113 -0.99047,0 -34.08571,32.27555 -73.5336,71.79175 l -71.7576,71.79174 14.92531,10.9976 c 18.34071,13.52499 39.44789,25.41059 59.29138,33.47094 18.30655,7.47973 54.71473,17.07701 65.20002,17.28193 l 7.68465,0.10246 -0.0342,-102.73529 0,0 z m -110.96641,-73.22621 71.99667,-71.99667 -103.28175,0 c -118.51445,0 -105.91162,-3.31294 -99.72974,26.05951 4.50833,21.48288 13.93484,49.04517 22.98565,67.24927 9.46066,19.02378 30.46539,50.75287 33.53925,50.75287 1.36616,0 34.90541,-32.41217 74.48992,-72.06498 l 0,0 z m 392.2589,24.04443 c 12.87607,-24.89828 31.89985,-90.64477 27.56229,-94.98233 -0.61477,-0.61477 -44.84422,-0.75139 -98.46603,-0.47815 l -97.40726,0.61477 75.03638,63.32155 75.03638,63.25324 5.53295,-8.94835 c 3.10801,-4.98649 8.84589,-15.19854 12.70529,-22.78073 l 0,0 z m -221.35219,-81.1841 c 24.14689,-16.9404 27.76722,-51.4018 7.68465,-73.5336 -14.68622,-16.15486 -43.51222,-19.33118 -62.33108,-6.89912 -10.65605,7.03573 -21.82442,26.67429 -21.79026,38.32081 0.0342,19.60441 11.85144,38.28666 29.47491,46.62024 13.79823,6.48926 34.15402,4.47417 46.96178,-4.50833 z m -108.3707,-76.02685 C 404.46133,-499.49416 268.7674,-611.7243 266.82062,-611.10953 c -1.29785,0.40985 -7.37726,10.24621 -13.49083,21.82442 -15.301,28.92845 -25.9229,63.4582 -31.046,100.75439 l -1.22955,8.84589 101.9156,0 c 100.41281,0 101.88144,-0.0683 97.3048,-4.47418 l 0,0 z m 358.41227,-6.72834 c -2.22001,-21.38041 -14.37884,-64.00466 -24.07859,-84.77031 -9.52897,-20.32164 -32.24139,-57.51536 -35.21279,-57.51536 -2.86894,0 -149.04813,147.6137 -149.04813,150.51679 0,2.32247 22.23426,2.9714 104.75037,2.9714 l 104.78453,0 -1.19539,-11.20252 0,0 z M 468.70504,-628.289 l 0,-110.82978 -8.84589,1.33201 c -52.46058,7.99204 -118.82183,40.43836 -150.14107,73.46529 l -6.72834,7.06987 20.86811,17.72594 c 89.38106,75.85607 143.75426,121.82742 144.26657,121.92988 0.34154,0.10246 0.58062,-49.72829 0.58062,-110.69321 z m 135.69391,30.67031 c 86.27305,-86.34135 80.60348,-75.61699 50.65041,-95.7337 -33.43678,-22.40504 -78.38347,-39.61866 -117.31905,-44.84423 l -12.36376,-1.67355 0,108.84885 c 0,59.83784 0.75139,108.88304 1.81017,108.88304 1.02462,-0.0342 35.69095,-33.98328 77.22223,-75.48041 l 0,0 z" />
  </g>
</svg>
