<?xml version="1.0" encoding="UTF-8" standalone="no"?>
<!-- Created with Inkscape (http://www.inkscape.org/) -->

<svg
   xmlns:dc="http://purl.org/dc/elements/1.1/"
   xmlns:cc="http://creativecommons.org/ns#"
   xmlns:rdf="http://www.w3.org/1999/02/22-rdf-syntax-ns#"
   xmlns:svg="http://www.w3.org/2000/svg"
   xmlns="http://www.w3.org/2000/svg"
   xmlns:sodipodi="http://sodipodi.sourceforge.net/DTD/sodipodi-0.dtd"
   xmlns:inkscape="http://www.inkscape.org/namespaces/inkscape"
   width="1000"
   height="1000"
   id="svg14190"
   version="1.1"
   inkscape:version="0.91 r13725"
   viewBox="0 0 1000 1000"
   sodipodi:docname="worship_place_of_worship_shinto_taoist.svg">
  <defs
     id="defs14192" />
  <sodipodi:namedview
     id="base"
     pagecolor="#ffffff"
     bordercolor="#666666"
     borderopacity="1.0"
     inkscape:pageopacity="0.0"
     inkscape:pageshadow="2"
     inkscape:zoom="0.5"
     inkscape:cx="9.7405635"
     inkscape:cy="496"
     inkscape:current-layer="layer1"
     showgrid="true"
     inkscape:grid-bbox="true"
     inkscape:document-units="px"
     inkscape:window-width="1920"
     inkscape:window-height="1018"
     inkscape:window-x="-8"
     inkscape:window-y="-8"
     inkscape:window-maximized="1" />
  <metadata
     id="metadata14195">
    <rdf:RDF>
      <cc:Work
         rdf:about="">
        <dc:format>image/svg+xml</dc:format>
        <dc:type
           rdf:resource="http://purl.org/dc/dcmitype/StillImage" />
        <dc:title></dc:title>
      </cc:Work>
    </rdf:RDF>
  </metadata>
  <g
     id="layer1"
     inkscape:label="Layer 1"
     inkscape:groupmode="layer"
     transform="translate(0,968)">
    <path
       inkscape:connector-curvature="0"
       d="m 486.89818,-891.0501 c -49.40495,0 -89.45834,40.86478 -89.45834,91.26966 0,50.40539 40.05339,91.26967 89.45834,91.26967 49.41181,0 89.45989,-40.86428 89.45989,-91.26967 0,-50.40488 -40.04808,-91.26966 -89.45989,-91.26966 z m -318.00904,278.2631 79.4521,147.662 178.91823,-60.84645 59.63871,243.38579 -119.27794,121.69286 c -16.16776,18.56413 -27.79772,27.91032 -29.81964,60.84645 0,60.84645 59.63924,60.84645 59.63924,60.84645 l 357.83594,0 c 0,0 59.63923,0 59.63923,-60.84645 0,-60.84645 -59.63923,-60.84645 -59.63923,-60.84645 l -178.91771,0 59.63871,-60.84644 c 59.63924,-60.84642 55.4048,-89.60255 48.45695,-121.69286 l -48.45695,-243.3858 c -14.27176,-54.3604 -51.42051,-80.90125 -119.27794,-69.97366 l -59.64029,9.12722 -178.91822,91.26969 -59.63871,-91.26969 c -26.30724,-35.75321 -70.56556,-4.99078 -49.63248,34.87734 z"
       id="place-of-worship"
       style="fill:#000000;fill-opacity:1;stroke:none" />
  </g>
</svg>
