<?xml version="1.0" encoding="UTF-8" standalone="no"?>
<!-- Created with Inkscape (http://www.inkscape.org/) -->

<svg
   xmlns:dc="http://purl.org/dc/elements/1.1/"
   xmlns:cc="http://creativecommons.org/ns#"
   xmlns:rdf="http://www.w3.org/1999/02/22-rdf-syntax-ns#"
   xmlns:svg="http://www.w3.org/2000/svg"
   xmlns="http://www.w3.org/2000/svg"
   xmlns:sodipodi="http://sodipodi.sourceforge.net/DTD/sodipodi-0.dtd"
   xmlns:inkscape="http://www.inkscape.org/namespaces/inkscape"
   width="1000"
   height="1000"
   id="svg3346"
   version="1.1"
   inkscape:version="0.91 r13725"
   viewBox="0 0 1000 1000"
   sodipodi:docname="worship_christian.svg">
  <defs
     id="defs3348" />
  <sodipodi:namedview
     id="base"
     pagecolor="#ffffff"
     bordercolor="#666666"
     borderopacity="1.0"
     inkscape:pageopacity="0.0"
     inkscape:pageshadow="2"
     inkscape:zoom="0.5"
     inkscape:cx="11.512342"
     inkscape:cy="496"
     inkscape:current-layer="layer1"
     showgrid="true"
     inkscape:grid-bbox="true"
     inkscape:document-units="px"
     inkscape:window-width="1920"
     inkscape:window-height="1018"
     inkscape:window-x="-8"
     inkscape:window-y="-8"
     inkscape:window-maximized="1" />
  <metadata
     id="metadata3351">
    <rdf:RDF>
      <cc:Work
         rdf:about="">
        <dc:format>image/svg+xml</dc:format>
        <dc:type
           rdf:resource="http://purl.org/dc/dcmitype/StillImage" />
        <dc:title></dc:title>
      </cc:Work>
    </rdf:RDF>
  </metadata>
  <g
     id="layer1"
     inkscape:label="Layer 1"
     inkscape:groupmode="layer"
     transform="translate(0,968)">
    <path
       id="path15412"
       inkscape:export-ydpi="6"
       inkscape:export-xdpi="6"
       inkscape:export-filename="C:\Users\Fabienne\Desktop\Symbole\png\christian.png"
       inkscape:connector-curvature="0"
       d="m 419.17628,-51.960679 c -1.37944,-0.564318 -1.7243,-48.249201 -1.7243,-232.060141 l 0,-231.37043 -84.71042,0 c -46.5876,0 -85.6823,-0.37621 -86.90499,-0.84648 -1.97511,-0.75242 -2.19457,-8.43342 -2.19457,-72.29542 l 0,-71.44894 86.87364,0 86.90499,0 0,-100.63673 c 0,-90.51035 0.21945,-100.73078 2.19457,-101.4832 1.22269,-0.47027 40.94441,-0.84648 88.28443,-0.84648 l 86.05851,0 0,101.48321 0,101.4832 86.87364,0 86.87363,0 0,72.29542 0,72.29542 -86.87363,0 -86.87364,0 0,232.1542 0,232.18555 -86.52878,-0.125404 c -47.55947,-0.03135 -87.2812,-0.376212 -88.25308,-0.783775 l 0,0 z"
       style="fill:#000000;fill-opacity:1" />
  </g>
</svg>
