<?xml version="1.0" encoding="UTF-8" standalone="no"?>
<!-- Created with Inkscape (http://www.inkscape.org/) -->

<svg
   xmlns:dc="http://purl.org/dc/elements/1.1/"
   xmlns:cc="http://creativecommons.org/ns#"
   xmlns:rdf="http://www.w3.org/1999/02/22-rdf-syntax-ns#"
   xmlns:svg="http://www.w3.org/2000/svg"
   xmlns="http://www.w3.org/2000/svg"
   xmlns:sodipodi="http://sodipodi.sourceforge.net/DTD/sodipodi-0.dtd"
   xmlns:inkscape="http://www.inkscape.org/namespaces/inkscape"
   width="32"
   height="32"
   id="svg3348"
   version="1.1"
   inkscape:version="0.91 r13725"
   viewBox="0 0 32 32"
   sodipodi:docname="sikh.svg">
  <defs
     id="defs3350" />
  <sodipodi:namedview
     id="base"
     pagecolor="#ffffff"
     bordercolor="#666666"
     borderopacity="1.0"
     inkscape:pageopacity="0.0"
     inkscape:pageshadow="2"
     inkscape:zoom="20"
     inkscape:cx="13.643268"
     inkscape:cy="16"
     inkscape:current-layer="layer1"
     showgrid="true"
     inkscape:grid-bbox="true"
     inkscape:document-units="px"
     inkscape:window-width="1920"
     inkscape:window-height="1018"
     inkscape:window-x="-8"
     inkscape:window-y="-8"
     inkscape:window-maximized="1" />
  <metadata
     id="metadata3353">
    <rdf:RDF>
      <cc:Work
         rdf:about="">
        <dc:format>image/svg+xml</dc:format>
        <dc:type
           rdf:resource="http://purl.org/dc/dcmitype/StillImage" />
        <dc:title />
      </cc:Work>
    </rdf:RDF>
  </metadata>
  <g
     id="layer1"
     inkscape:label="Layer 1"
     inkscape:groupmode="layer">
    <path
       inkscape:connector-curvature="0"
       style="fill:#000000;fill-opacity:1"
       d="m 23.872706,8.9398275 c -0.549,-0.505 -1.142,-1.025 -1.869,-1.246 -0.132,-0.09 -0.344,0.021 -0.237,0.177 0.591,0.644 1.23,1.25 1.611,2.046 0.846,1.6539995 0.679,3.8279995 0.086,5.5169995 -0.592,1.939 -2.297,3.609 -3.83,4.875 -0.744,0.593 -1.472,1.199 -2.271,1.719 -0.258,0.096 -0.561,0.431 -0.847,0.224 -0.326,-0.305 -0.209,-0.837 -0.019,-1.188 0.353,-0.576 0.909,-1.027 1.525,-1.286 0.276,-0.02 0.383,-0.287 0.312,-0.524 -0.163,-0.488 -0.044,-1.071 0.382,-1.383 1.125,-0.559 1.929,-1.573 2.578,-2.621 0.634,-1.031 0.751,-2.284 0.606,-3.471 -0.084,-1.307 -0.91,-2.4049995 -1.834,-3.2719995 -0.408,-0.489 -0.994,-0.776 -1.504,-1.136 -0.271,-0.427 -0.274,-0.978 -0.272,-1.476 -0.561,-0.92 -1.58,-1.447 -2.16,-2.35 -0.026,-0.04 -0.052,-0.081 -0.079,-0.121 0,-0.053 0,-0.107 0,-0.161 -0.018,0.026 -0.035,0.053 -0.053,0.08 -0.018,-0.026 -0.035,-0.053 -0.052,-0.08 0,0.053 0,0.107 0,0.161 -0.027,0.04 -0.054,0.081 -0.08,0.121 -0.579,0.903 -1.6,1.43 -2.161,2.35 0.003,0.498 -10e-4,1.048 -0.271,1.476 -0.511,0.36 -1.096,0.647 -1.503,1.136 -0.925,0.867 -1.751,1.9659995 -1.836,3.2719995 -0.1460004,1.187 -0.026,2.439 0.608,3.471 0.648,1.048 1.454,2.062 2.578,2.621 0.424,0.312 0.545,0.895 0.381,1.383 -0.069,0.237 0.035,0.505 0.312,0.524 0.617,0.259 1.173,0.71 1.525,1.286 0.192,0.351 0.308,0.883 -0.019,1.188 -0.286,0.207 -0.588,-0.128 -0.846,-0.224 -0.799,-0.52 -1.528,-1.128 -2.271,-1.719 -1.531,-1.266 -3.2370004,-2.936 -3.8290004,-4.875 -0.595,-1.689 -0.76,-3.863 0.085,-5.5169995 0.381,-0.796 1.021,-1.402 1.6110004,-2.046 0.107,-0.157 -0.103,-0.267 -0.2330004,-0.178 -0.73,0.221 -1.321,0.741 -1.87,1.246 -1.3549999,1.3489995 -2.1049999,3.5139995 -1.9809999,5.4169995 0.064,2.669 1.5369999,5.286 3.1379999,7.375 0.627,0.886 1.3180004,1.786 1.5940004,2.846 -0.061,0.204 0.171,0.291 0.297,0.14 0.885,-0.458 1.432,-1.387 2.338,-1.804 0.4,-0.112 0.752,0.138 1.074,0.33 0.154,0.061 0.538,0.205 0.337,0.42 -0.399,0.247 -0.87,0.368 -1.245,0.659 -0.714,0.475 -1.366,1.233 -1.367,2.131 0.036,0.475 0.57,0.852 1.018,0.632 0.524,-0.188 0.811,-0.825 0.616,-1.343 0.013,-0.528 0.576,-0.779 0.992,-0.967 0.211,-0.145 0.626,-0.222 0.699,0.112 0.155,0.536 -0.016,1.099 -0.069,1.633 -0.076,0.39 -0.335,0.71 -0.469,1.063 -0.003,0.461 0.381,0.814 0.719,1.07 0.087,0.071 0.144,0.092 0.18,0.082 0.036,0.01 0.093,-0.011 0.181,-0.082 0.338,-0.256 0.723,-0.609 0.718,-1.07 -0.133,-0.354 -0.392,-0.674 -0.468,-1.063 -0.054,-0.534 -0.225,-1.097 -0.068,-1.633 0.072,-0.334 0.486,-0.257 0.699,-0.112 0.416,0.188 0.979,0.438 0.991,0.967 -0.191,0.518 0.092,1.155 0.616,1.343 0.449,0.22 0.982,-0.157 1.018,-0.632 0,-0.897 -0.652,-1.656 -1.366,-2.131 -0.375,-0.291 -0.845,-0.412 -1.247,-0.659 -0.197,-0.215 0.186,-0.359 0.34,-0.42 0.319,-0.192 0.673,-0.442 1.073,-0.33 0.904,0.417 1.452,1.346 2.338,1.804 0.125,0.151 0.358,0.064 0.297,-0.14 0.276,-1.06 0.967,-1.96 1.594,-2.846 1.603,-2.089 3.073,-4.705 3.141,-7.375 0.122,-1.903 -0.629,-4.068 -1.982,-5.4159995 z m -6.501,0.807 c 0.075,-0.353 0.186,-0.896 0.629,-0.931 0.246,0.021 0.429,0.254 0.646,0.364 0.952,0.618 1.569,1.3219995 1.819,2.4619995 0.381,1.352 -0.104,2.721 -1.018,3.739 -0.462,0.492 -0.745,0.917 -1.378,1.188 -0.263,0.104 -0.511,-0.06 -0.605,-0.308 -0.275,-0.6 -0.396,-1.057 -0.566,-1.695 -0.39,-1.686 0.055,-3.186 0.473,-4.8189995 z m -2.273,4.8179995 c -0.169,0.639 -0.29,1.096 -0.567,1.695 -0.094,0.248 -0.34,0.411 -0.603,0.308 -0.634,-0.27 -0.917,-0.695 -1.377,-1.188 -0.917,-1.018 -1.4,-2.387 -1.021,-3.739 0.25,-1.14 0.868,-1.8439995 1.821,-2.4619995 0.215,-0.11 0.398,-0.343 0.646,-0.364 0.442,0.036 0.553,0.578 0.628,0.931 0.419,1.6339995 0.864,3.1339995 0.473,4.8189995 z"
       id="path7" />
  </g>
</svg>
