<?xml version="1.0" encoding="UTF-8" standalone="no"?>
<!-- Created with Inkscape (http://www.inkscape.org/) -->

<svg
   xmlns:dc="http://purl.org/dc/elements/1.1/"
   xmlns:cc="http://creativecommons.org/ns#"
   xmlns:rdf="http://www.w3.org/1999/02/22-rdf-syntax-ns#"
   xmlns:svg="http://www.w3.org/2000/svg"
   xmlns="http://www.w3.org/2000/svg"
   xmlns:sodipodi="http://sodipodi.sourceforge.net/DTD/sodipodi-0.dtd"
   xmlns:inkscape="http://www.inkscape.org/namespaces/inkscape"
   width="32"
   height="32"
   id="svg14190"
   version="1.1"
   inkscape:version="0.91 r13725"
   viewBox="0 0 32 32"
   sodipodi:docname="worship_place_of_worship_shinto_taoist.svg">
  <defs
     id="defs14192" />
  <sodipodi:namedview
     id="base"
     pagecolor="#ffffff"
     bordercolor="#666666"
     borderopacity="1.0"
     inkscape:pageopacity="0.0"
     inkscape:pageshadow="2"
     inkscape:zoom="20"
     inkscape:cx="11.871489"
     inkscape:cy="16"
     inkscape:current-layer="layer1"
     showgrid="true"
     inkscape:grid-bbox="true"
     inkscape:document-units="px"
     inkscape:window-width="1920"
     inkscape:window-height="1018"
     inkscape:window-x="-8"
     inkscape:window-y="-8"
     inkscape:window-maximized="1" />
  <metadata
     id="metadata14195">
    <rdf:RDF>
      <cc:Work
         rdf:about="">
        <dc:format>image/svg+xml</dc:format>
        <dc:type
           rdf:resource="http://purl.org/dc/dcmitype/StillImage" />
        <dc:title></dc:title>
      </cc:Work>
    </rdf:RDF>
  </metadata>
  <g
     id="layer1"
     inkscape:label="Layer 1"
     inkscape:groupmode="layer">
    <path
       inkscape:connector-curvature="0"
       d="m 15.252369,2.9499 c -1.49924,0 -2.714698,1.2400803 -2.714698,2.7696643 0,1.5295991 1.215458,2.7696643 2.714698,2.7696643 1.499448,0 2.714745,-1.2400652 2.714745,-2.7696643 0,-1.529584 -1.215297,-2.7696643 -2.714745,-2.7696643 z m -9.650285,8.444157 2.4110489,4.480943 5.4294431,-1.846443 1.809793,7.385772 -3.619602,3.692885 c -0.490626,0.563346 -0.843548,0.846965 -0.904905,1.846443 0,1.846443 1.809809,1.846443 1.809809,1.846443 l 10.85887,0 c 0,0 1.809809,0 1.809809,-1.846443 0,-1.846443 -1.809809,-1.846443 -1.809809,-1.846443 l -5.429427,0 1.809793,-1.846443 c 1.809809,-1.846442 1.681311,-2.719074 1.470472,-3.692885 l -1.470472,-7.385772 c -0.43309,-1.649618 -1.560404,-2.455025 -3.619602,-2.123417 l -1.809841,0.276974 -5.4294426,2.769665 -1.809793,-2.769665 C 6.3099102,9.250706 4.9668497,10.184221 5.602084,11.394057 Z"
       id="place-of-worship"
       style="fill:#000000;fill-opacity:1;stroke:none" />
  </g>
</svg>
