<?xml version="1.0" encoding="UTF-8" standalone="no"?>
<!-- Created with Inkscape (http://www.inkscape.org/) -->

<svg
   xmlns:dc="http://purl.org/dc/elements/1.1/"
   xmlns:cc="http://creativecommons.org/ns#"
   xmlns:rdf="http://www.w3.org/1999/02/22-rdf-syntax-ns#"
   xmlns:svg="http://www.w3.org/2000/svg"
   xmlns="http://www.w3.org/2000/svg"
   xmlns:sodipodi="http://sodipodi.sourceforge.net/DTD/sodipodi-0.dtd"
   xmlns:inkscape="http://www.inkscape.org/namespaces/inkscape"
   width="1000"
   height="1000"
   id="svg6609"
   version="1.1"
   inkscape:version="0.91 r13725"
   viewBox="0 0 1000 1000"
   sodipodi:docname="worship_jewish.svg">
  <defs
     id="defs6611" />
  <sodipodi:namedview
     id="base"
     pagecolor="#ffffff"
     bordercolor="#666666"
     borderopacity="1.0"
     inkscape:pageopacity="0.0"
     inkscape:pageshadow="2"
     inkscape:zoom="0.5"
     inkscape:cx="9.7405635"
     inkscape:cy="496"
     inkscape:current-layer="layer1"
     showgrid="true"
     inkscape:grid-bbox="true"
     inkscape:document-units="px"
     inkscape:window-width="1920"
     inkscape:window-height="1018"
     inkscape:window-x="-8"
     inkscape:window-y="-8"
     inkscape:window-maximized="1" />
  <metadata
     id="metadata6614">
    <rdf:RDF>
      <cc:Work
         rdf:about="">
        <dc:format>image/svg+xml</dc:format>
        <dc:type
           rdf:resource="http://purl.org/dc/dcmitype/StillImage" />
        <dc:title></dc:title>
      </cc:Work>
    </rdf:RDF>
  </metadata>
  <g
     id="layer1"
     inkscape:label="Layer 1"
     inkscape:groupmode="layer"
     transform="translate(0,968)">
    <path
       style="fill:#000000;fill-opacity:1;stroke:none"
       d="m 501.02673,-901.2992 -135.13025,216.25344 -266.13199,0 133.068,218.20165 -133.068,218.1996 266.13199,0 135.13025,220.14371 133.06398,-220.14371 264.07144,0 -131.00457,-218.1996 131.00457,-218.20165 -264.07144,0 -133.06398,-216.25344 z m 0,151.96033 39.52108,64.29311 -79.04215,0 39.52107,-64.29311 z m -259.87975,136.37551 81.10557,0 -41.58448,66.23877 -39.52109,-66.23877 z m 176.71361,0 166.33115,0 87.35781,146.11925 -87.35781,146.111 -166.33115,0 -87.29352,-146.111 87.29352,-146.11925 z m 259.87691,0 83.16784,0 -41.58335,68.18959 -41.58449,-68.18959 z m 41.58449,224.04689 41.58335,68.18336 -83.16784,0 41.58449,-68.18336 z m -438.65392,1.93167 41.58448,66.23925 -81.10557,0 39.52109,-66.23925 z m 180.83759,138.3258 79.04215,0 -39.52108,64.28846 -39.52107,-64.28846 z"
       id="jewish"
       inkscape:connector-curvature="0" />
  </g>
</svg>
