<?xml version="1.0" encoding="UTF-8" standalone="no"?>
<!-- Created with Inkscape (http://www.inkscape.org/) -->

<svg
   xmlns:dc="http://purl.org/dc/elements/1.1/"
   xmlns:cc="http://creativecommons.org/ns#"
   xmlns:rdf="http://www.w3.org/1999/02/22-rdf-syntax-ns#"
   xmlns:svg="http://www.w3.org/2000/svg"
   xmlns="http://www.w3.org/2000/svg"
   xmlns:sodipodi="http://sodipodi.sourceforge.net/DTD/sodipodi-0.dtd"
   xmlns:inkscape="http://www.inkscape.org/namespaces/inkscape"
   width="1000"
   height="1000"
   id="svg3348"
   version="1.1"
   inkscape:version="0.91 r13725"
   viewBox="0 0 1000 1000"
   sodipodi:docname="worship_sikh.svg">
  <defs
     id="defs3350" />
  <sodipodi:namedview
     id="base"
     pagecolor="#ffffff"
     bordercolor="#666666"
     borderopacity="1.0"
     inkscape:pageopacity="0.0"
     inkscape:pageshadow="2"
     inkscape:zoom="0.5"
     inkscape:cx="11.512342"
     inkscape:cy="416"
     inkscape:current-layer="layer1"
     showgrid="true"
     inkscape:grid-bbox="true"
     inkscape:document-units="px"
     inkscape:window-width="1920"
     inkscape:window-height="1018"
     inkscape:window-x="-8"
     inkscape:window-y="-8"
     inkscape:window-maximized="1" />
  <metadata
     id="metadata3353">
    <rdf:RDF>
      <cc:Work
         rdf:about="">
        <dc:format>image/svg+xml</dc:format>
        <dc:type
           rdf:resource="http://purl.org/dc/dcmitype/StillImage" />
        <dc:title></dc:title>
      </cc:Work>
    </rdf:RDF>
  </metadata>
  <g
     id="layer1"
     inkscape:label="Layer 1"
     inkscape:groupmode="layer"
     transform="translate(0,968)">
    <path
       inkscape:connector-curvature="0"
       style="fill:#000000;fill-opacity:1"
       d="m 755.42023,-690.56166 c -17.61747,-16.2055 -36.6469,-32.89235 -59.9764,-39.98427 -4.2359,-2.8881 -11.039,0.6739 -7.60536,5.67995 18.96525,20.66603 39.47083,40.11263 51.69716,65.65635 27.14823,53.07702 21.78918,122.8409 2.75975,177.04109 -18.99734,62.22271 -73.71097,115.81318 -122.9051,156.43925 -23.87504,19.02943 -47.23663,38.47603 -72.87662,55.16289 -8.27925,3.08065 -18.00255,13.83083 -27.18032,7.18818 -10.46137,-9.78748 -6.70683,-26.85942 -0.60971,-38.12304 11.3278,-18.4839 29.1699,-32.95654 48.9374,-41.26787 8.85687,-0.64181 12.29051,-9.20986 10.01212,-16.81522 -5.23069,-15.65997 -1.41197,-34.3685 12.25842,-44.38061 36.10136,-17.93837 61.90181,-50.47773 82.72828,-84.10816 20.34513,-33.0849 24.09967,-73.2938 19.44661,-111.38475 -2.69557,-41.94176 -29.202,-77.17668 -58.85325,-104.9988 -13.09277,-15.69206 -31.89757,-24.90192 -48.26352,-36.45436 -8.69642,-13.70247 -8.79269,-31.38412 -8.72851,-47.36499 -18.00255,-29.5229 -50.70236,-46.43438 -69.31462,-75.41174 -0.83434,-1.28361 -1.66869,-2.5993 -2.53512,-3.88291 0,-1.70077 0,-3.43364 0,-5.1665 -0.57762,0.83434 -1.12315,1.70077 -1.70077,2.56721 -0.57763,-0.83435 -1.12316,-1.70078 -1.66869,-2.56721 0,1.70077 0,3.43364 0,5.1665 -0.86643,1.28361 -1.73286,2.5993 -2.56721,3.88291 -18.58017,28.97736 -51.34416,45.88884 -69.34671,75.41174 0.0963,15.98087 -0.0321,33.63043 -8.69642,47.36499 -16.39804,11.55244 -35.17075,20.7623 -48.23142,36.45436 -29.68335,27.82212 -56.18977,63.08913 -58.91743,104.9988 -4.68517,38.09095 -0.83435,78.26776 19.51078,111.38475 20.79439,33.63043 46.65901,66.16979 82.72829,84.10816 13.6062,10.01211 17.4891,28.72064 12.22633,44.38061 -2.21422,7.60536 1.12315,16.2055 10.01211,16.81522 19.79959,8.31133 37.64169,22.78397 48.9374,41.26787 6.1613,11.26362 9.88376,28.33556 -0.60971,38.12304 -9.17777,6.64265 -18.86898,-4.10753 -27.14822,-7.18818 -25.64,-16.68686 -49.03368,-36.19764 -72.87663,-55.16289 -49.12995,-40.62607 -103.87568,-94.21654 -122.87302,-156.43925 -19.09361,-54.20019 -24.38848,-123.96407 2.72766,-177.04109 12.22633,-25.54372 32.764,-44.99032 51.69717,-65.65635 3.43364,-5.03814 -3.30528,-8.56805 -7.47701,-5.71204 -23.42577,7.09192 -42.39102,23.77877 -60.00849,39.98427 -43.48209,43.28954 -67.54966,112.76461 -63.57049,173.83208 2.05377,85.64848 49.32248,169.62828 100.69874,236.66451 20.1205,28.43183 42.29477,57.31292 51.15164,91.32843 -1.9575,6.54638 5.48741,9.33822 9.53076,4.49262 28.39974,-14.69727 45.95303,-44.50898 75.02666,-57.89055 12.83604,-3.59409 24.13176,4.42843 34.46477,10.58973 4.94188,1.9575 17.26448,6.57847 10.81437,13.47785 -12.80396,7.92625 -27.91839,11.80915 -39.95218,21.14737 -22.91234,15.2428 -43.83508,39.5671 -43.86717,68.38402 1.15524,15.24279 18.29135,27.34076 32.66772,20.28094 16.81521,-6.03294 26.02507,-26.47433 19.7675,-43.09701 0.41718,-16.94357 18.4839,-24.99819 31.83339,-31.03113 6.77101,-4.65306 20.0884,-7.124 22.43098,3.59409 4.97396,17.2003 -0.51344,35.26703 -2.21422,52.40314 -2.43885,12.51514 -10.75018,22.78398 -15.05026,34.111781 -0.0963,14.793538 12.22633,26.121344 23.07279,34.336411 2.79184,2.278397 4.62097,2.952289 5.77622,2.631388 1.15524,0.320901 2.98438,-0.352991 5.8083,-2.631388 10.84646,-8.215067 23.20115,-19.542873 23.0407,-34.336411 -4.26798,-11.359891 -12.57932,-21.628731 -15.01817,-34.111781 -1.73286,-17.13611 -7.22027,-35.20284 -2.18213,-52.40314 2.31049,-10.71809 15.59579,-8.24715 22.43099,-3.59409 13.34948,6.03294 31.41621,14.05547 31.80129,31.03113 -6.12921,16.62268 2.95229,37.06407 19.7675,43.09701 14.40846,7.05982 31.51248,-5.03815 32.66773,-20.28094 0,-28.78483 -20.92275,-53.14122 -43.83508,-68.38402 -12.03379,-9.33822 -27.11614,-13.22112 -40.01636,-21.14737 -6.32175,-6.89938 5.96876,-11.52035 10.91063,-13.47785 10.23674,-6.1613 21.59664,-14.18382 34.43268,-10.58973 29.00946,13.38157 46.59483,43.19328 75.02666,57.89055 4.01127,4.8456 11.48826,2.05376 9.53076,-4.49262 8.85687,-34.01551 31.03113,-62.8966 51.15163,-91.32843 51.44043,-67.03623 98.61289,-150.98394 100.79501,-236.66451 3.915,-61.06747 -20.18467,-130.54254 -63.60258,-173.79999 z m -208.61776,25.89672 c 2.40676,-11.32781 5.96876,-28.75274 20.18467,-29.87589 7.89417,0.67389 13.76666,8.15089 20.73021,11.6808 30.54978,19.83168 50.34937,42.4231 58.3719,79.00582 12.22633,43.38582 -3.33737,87.31717 -32.66773,119.98489 -14.82563,15.78833 -23.90712,29.42663 -44.22016,38.12304 -8.4397,3.33738 -16.39804,-1.9254 -19.41451,-9.88375 -8.82478,-19.25406 -12.70768,-33.91924 -18.163,-54.39272 -12.51514,-54.10392 1.76495,-102.23907 15.17862,-154.64219 z m -72.94081,154.6101 c -5.42322,20.50557 -9.30613,35.17075 -18.19509,54.39272 -3.01646,7.95835 -10.91063,13.18904 -19.35033,9.88375 -20.34512,-8.66432 -29.42662,-22.30262 -44.18807,-38.12304 -29.42662,-32.66772 -44.92614,-76.59907 -32.76399,-119.98489 8.02252,-36.58272 27.8542,-59.17414 58.43607,-79.00582 6.89938,-3.52991 12.77186,-11.00691 20.73021,-11.6808 14.18383,1.15524 17.74583,18.54808 20.15258,29.87589 13.44576,52.43521 27.72585,100.57036 15.17862,154.64219 z"
       id="path7" />
  </g>
</svg>
