<?xml version="1.0" encoding="UTF-8" standalone="no"?>
<!-- Created with Inkscape (http://www.inkscape.org/) -->

<svg
   xmlns:dc="http://purl.org/dc/elements/1.1/"
   xmlns:cc="http://creativecommons.org/ns#"
   xmlns:rdf="http://www.w3.org/1999/02/22-rdf-syntax-ns#"
   xmlns:svg="http://www.w3.org/2000/svg"
   xmlns="http://www.w3.org/2000/svg"
   xmlns:sodipodi="http://sodipodi.sourceforge.net/DTD/sodipodi-0.dtd"
   xmlns:inkscape="http://www.inkscape.org/namespaces/inkscape"
   width="1000"
   height="1000"
   id="svg3351"
   version="1.1"
   inkscape:version="0.91 r13725"
   viewBox="0 0 1000 1000"
   sodipodi:docname="worship_hindu.svg">
  <defs
     id="defs3353" />
  <sodipodi:namedview
     id="base"
     pagecolor="#ffffff"
     bordercolor="#666666"
     borderopacity="1.0"
     inkscape:pageopacity="0.0"
     inkscape:pageshadow="2"
     inkscape:zoom="0.5"
     inkscape:cx="9.2008305"
     inkscape:cy="496"
     inkscape:current-layer="layer1"
     showgrid="true"
     inkscape:grid-bbox="true"
     inkscape:document-units="px"
     inkscape:window-width="1920"
     inkscape:window-height="1018"
     inkscape:window-x="-8"
     inkscape:window-y="-8"
     inkscape:window-maximized="1" />
  <metadata
     id="metadata3356">
    <rdf:RDF>
      <cc:Work
         rdf:about="">
        <dc:format>image/svg+xml</dc:format>
        <dc:type
           rdf:resource="http://purl.org/dc/dcmitype/StillImage" />
        <dc:title></dc:title>
      </cc:Work>
    </rdf:RDF>
  </metadata>
  <g
     id="layer1"
     inkscape:label="Layer 1"
     inkscape:groupmode="layer"
     transform="translate(0,968)">
    <path
       id="path44345"
       style="fill:#000000;fill-opacity:1"
       d="m 664.30412,-819.59717 c -10.18803,-16.42411 -18.56324,-30.92664 -18.56324,-32.19562 0,-1.26897 14.10371,-11.2032 31.28921,-22.04384 l 31.28921,-19.72344 19.97723,31.07167 20.04975,31.10793 -29.36762,18.81703 c -16.13407,10.33305 -30.85413,19.68718 -32.70321,20.81113 -1.84907,1.1602 -11.71079,-11.38449 -21.97133,-27.84486 l 0,0 z m 23.42159,139.00676 c -56.16105,-7.90388 -96.07926,-28.8963 -141.68972,-74.54301 -33.46459,-33.5371 -50.4688,-60.51181 -56.92243,-90.42328 -3.08179,-14.39376 0.5801,-20.37605 4.64081,-7.54131 3.77066,11.89207 38.39545,46.33558 60.80186,60.47555 84.586,53.40556 210.17791,60.69308 279.97133,16.20657 l 16.53289,-10.55059 25.41568,26.50338 25.41568,26.50337 -8.15767,6.59865 c -19.21585,15.55396 -61.96206,32.957 -101.80776,41.44099 -28.67875,6.16358 -79.80017,8.77403 -104.20067,5.32968 z M 346.80749,-61.042336 C 280.02333,-74.42092 193.08066,-120.32143 155.22906,-162.08871 121.22062,-199.68652 94.608482,-249.46645 83.260252,-296.7447 76.444063,-325.16966 73.652326,-398.33492 79.2358,-401.77927 c 1.486509,-0.90641 6.816189,16.0978 11.928331,37.81534 18.998319,81.1054 65.805229,151.84149 122.401349,185.01603 18.52698,10.87689 66.92918,23.8204 107.24622,28.71501 54.02192,6.59865 123.59781,-6.05481 164.49495,-29.87522 22.18887,-12.87099 49.09106,-39.66442 57.17622,-56.74114 9.42664,-20.08601 9.49916,-51.66527 0.14502,-70.98989 -16.64165,-34.33474 -74.79679,-72.18634 -115.40388,-75.1231 -14.28499,-1.05144 -26.17706,0.65261 -43.39882,6.19983 -13.01602,4.20573 -24.14671,7.03373 -24.69055,6.34486 -3.48061,-4.67707 -59.6054,-111.77825 -59.56914,-113.73609 0,-1.34149 14.43001,-9.86172 32.01433,-18.96206 87.84907,-45.42918 114.6425,-73.89039 114.78752,-121.96628 0.10877,-36.98145 -15.95278,-58.15514 -46.77066,-61.59949 -20.88364,-2.35666 -40.71585,7.68634 -88.13912,44.59528 -35.49495,27.62732 -42.31114,31.86931 -42.38365,26.28583 0,-1.41399 -12.07336,-16.02529 -26.79343,-32.52192 l -26.72091,-29.98398 9.02783,-7.54132 c 46.7344,-39.08433 120.22598,-65.44267 171.63745,-61.52699 52.86172,3.9882 87.9941,30.85413 104.0919,79.58264 9.20911,27.88112 6.19984,76.86341 -6.34485,102.96796 -11.34823,23.60287 -42.89123,58.26392 -67.11046,73.78162 -16.20658,10.36931 -16.89545,11.31198 -8.84654,12.25464 11.63828,1.37774 170.62226,-23.2403 173.1602,-26.79342 0.50759,-0.68887 8.33896,-11.89208 17.40304,-24.9081 21.35497,-30.56408 50.43255,-61.12816 67.47302,-70.98988 26.82968,-15.44519 92.27235,-21.17369 118.1231,-10.40556 73.02024,30.60033 133.5683,149.9199 133.5683,263.18465 0,81.64925 -34.08094,147.09191 -82.33811,157.86004 -45.68297,10.26054 -99.99494,-20.73862 -137.15767,-78.24115 -21.24621,-32.84823 -28.20743,-66.56661 -20.48483,-99.26981 l 2.35666,-10.11552 4.31451,15.1914 c 6.99747,24.94435 20.70236,46.7344 41.51349,65.98651 21.46374,19.86847 76.57335,19.28837 80.59781,18.99832 12.47217,-5.65599 15.80775,-10.91316 19.83221,-16.42412 10.98566,-15.01012 9.97049,-28.71501 13.37858,-52.71669 8.77403,-61.99832 -20.84739,-149.48483 -64.24621,-189.65684 -25.66947,-23.78415 -41.33221,-29.00506 -60.58432,-20.30354 -20.52108,9.24536 -41.15092,34.33474 -53.6231,65.18887 -6.23609,15.51771 -15.22766,30.9629 -21.53626,37.01771 -13.08853,12.65346 -44.23271,28.42496 -71.60624,36.25632 -11.16695,3.19056 -20.88364,6.38112 -21.68128,7.06999 -0.79764,0.68887 9.28162,12.29089 22.29764,25.77824 38.17791,39.33812 55.00084,80.92412 55.00084,135.92496 0,103.91063 -64.39123,169.353297 -186.24873,189.112994 -37.5253,6.091062 -70.77235,6.091062 -100.75633,0.145025 l 0,0 0,-0.145025 z"
       inkscape:connector-curvature="0" />
  </g>
</svg>
