<?xml version="1.0" encoding="UTF-8" standalone="no"?>
<!-- Created with Inkscape (http://www.inkscape.org/) -->

<svg
   xmlns:dc="http://purl.org/dc/elements/1.1/"
   xmlns:cc="http://creativecommons.org/ns#"
   xmlns:rdf="http://www.w3.org/1999/02/22-rdf-syntax-ns#"
   xmlns:svg="http://www.w3.org/2000/svg"
   xmlns="http://www.w3.org/2000/svg"
   xmlns:sodipodi="http://sodipodi.sourceforge.net/DTD/sodipodi-0.dtd"
   xmlns:inkscape="http://www.inkscape.org/namespaces/inkscape"
   width="32"
   height="32"
   viewBox="0 0 32 32.000001"
   id="svg4137"
   version="1.1"
   inkscape:version="0.91 r13725"
   sodipodi:docname="airfield_frame.svg">
  <defs
     id="defs4139" />
  <sodipodi:namedview
     id="base"
     pagecolor="#ffffff"
     bordercolor="#666666"
     borderopacity="1.0"
     inkscape:pageopacity="0.0"
     inkscape:pageshadow="2"
     inkscape:zoom="15.839192"
     inkscape:cx="17.290349"
     inkscape:cy="17.620771"
     inkscape:document-units="px"
     inkscape:current-layer="layer1"
     showgrid="false"
     units="px"
     inkscape:window-width="1920"
     inkscape:window-height="1138"
     inkscape:window-x="-8"
     inkscape:window-y="-8"
     inkscape:window-maximized="1" />
  <metadata
     id="metadata4142">
    <rdf:RDF>
      <cc:Work
         rdf:about="">
        <dc:format>image/svg+xml</dc:format>
        <dc:type
           rdf:resource="http://purl.org/dc/dcmitype/StillImage" />
        <dc:title></dc:title>
      </cc:Work>
    </rdf:RDF>
  </metadata>
  <g
     inkscape:label="Ebene 1"
     inkscape:groupmode="layer"
     id="layer1"
     transform="translate(0,-1020.3622)">
    <rect
       style="opacity:1;fill:#000000;fill-opacity:1;stroke:none;stroke-width:2.09500003;stroke-linecap:butt;stroke-linejoin:round;stroke-miterlimit:4;stroke-dasharray:none;stroke-dashoffset:0;stroke-opacity:1"
       id="rect4154"
       width="32"
       height="31.99999"
       x="0"
       y="1020.3622"
       ry="3.2261746" />
    <rect
       style="opacity:1;fill:#ffffff;fill-opacity:1;stroke:none;stroke-width:2.09500003;stroke-linecap:butt;stroke-linejoin:round;stroke-miterlimit:4;stroke-dasharray:none;stroke-dashoffset:0;stroke-opacity:1"
       id="rect4154-7"
       width="28"
       height="28"
       x="-30.045902"
       y="1022.3163"
       ry="2.8229036"
       transform="scale(-1,1)" />
    <path
       style="fill:#000000;fill-opacity:1;stroke:none;stroke-width:12.5;stroke-miterlimit:4;stroke-dasharray:none;stroke-opacity:1"
       d="m 10.469855,1047.7808 c 0.02493,-0.025 0.680231,-0.4114 1.456228,-0.859 l 1.410904,-0.8134 0.01632,-2.2817 c 0.009,-1.2549 0.0028,-2.2816 -0.01368,-2.2816 -0.01649,0 -1.428683,0.9929 -3.13819,2.2066 -1.7095062,1.2137 -3.142535,2.2141 -3.1845091,2.2232 -0.04881,0.01 -0.2269197,-0.4541 -0.4941834,-1.2894 l -0.4178739,-1.3059 0.1427949,-0.1554 c 0.078537,-0.086 1.71276,-1.9296 3.6316082,-4.0979 l 3.4888133,-3.9426 0,-3.2231 0,-3.2232 1.041643,-0.017 1.041644,-0.017 0.01632,-2.2854 0.01632,-2.2854 0.402688,0 0.402687,0 0.01632,2.2854 0.01631,2.2854 1.134925,0.017 1.134927,0.017 0,3.0734 0,3.0734 3.669073,4.1435 c 2.017989,2.279 3.669071,4.173 3.669071,4.209 0,0.1083 -0.758146,2.5019 -0.810756,2.5597 -0.0268,0.029 -1.492684,-0.971 -3.257514,-2.2232 -1.76483,-1.2521 -3.222864,-2.2767 -3.240069,-2.2767 -0.01721,0 -0.02395,1.0701 -0.01501,2.378 l 0.01629,2.3779 1.368132,0.7901 c 0.752469,0.4345 1.438088,0.8328 1.523597,0.8851 0.140327,0.086 -0.392094,0.096 -5.467334,0.097 -3.092543,9e-4 -5.602409,-0.019 -5.577482,-0.043 z"
       id="path5848"
       inkscape:connector-curvature="0" />
  </g>
</svg>
