<?xml version="1.0" encoding="UTF-8" standalone="no"?>
<!-- Created with Inkscape (http://www.inkscape.org/) -->

<svg
   xmlns:dc="http://purl.org/dc/elements/1.1/"
   xmlns:cc="http://creativecommons.org/ns#"
   xmlns:rdf="http://www.w3.org/1999/02/22-rdf-syntax-ns#"
   xmlns:svg="http://www.w3.org/2000/svg"
   xmlns="http://www.w3.org/2000/svg"
   xmlns:sodipodi="http://sodipodi.sourceforge.net/DTD/sodipodi-0.dtd"
   xmlns:inkscape="http://www.inkscape.org/namespaces/inkscape"
   width="32"
   height="32"
   viewBox="0 0 32 32.000001"
   id="svg4137"
   version="1.1"
   inkscape:version="0.91 r13725"
   sodipodi:docname="airport_frame.svg">
  <defs
     id="defs4139" />
  <sodipodi:namedview
     id="base"
     pagecolor="#ffffff"
     bordercolor="#666666"
     borderopacity="1.0"
     inkscape:pageopacity="0.0"
     inkscape:pageshadow="2"
     inkscape:zoom="22.627417"
     inkscape:cx="8.470986"
     inkscape:cy="13.674881"
     inkscape:document-units="px"
     inkscape:current-layer="layer1"
     showgrid="false"
     units="px"
     inkscape:window-width="1920"
     inkscape:window-height="1138"
     inkscape:window-x="-8"
     inkscape:window-y="-8"
     inkscape:window-maximized="1" />
  <metadata
     id="metadata4142">
    <rdf:RDF>
      <cc:Work
         rdf:about="">
        <dc:format>image/svg+xml</dc:format>
        <dc:type
           rdf:resource="http://purl.org/dc/dcmitype/StillImage" />
        <dc:title></dc:title>
      </cc:Work>
    </rdf:RDF>
  </metadata>
  <g
     inkscape:label="Ebene 1"
     inkscape:groupmode="layer"
     id="layer1"
     transform="translate(0,-1020.3622)">
    <rect
       style="opacity:1;fill:#000000;fill-opacity:1;stroke:none;stroke-width:2.09500003;stroke-linecap:butt;stroke-linejoin:round;stroke-miterlimit:4;stroke-dasharray:none;stroke-dashoffset:0;stroke-opacity:1"
       id="rect4154"
       width="32"
       height="31.99999"
       x="-0.045903161"
       y="1020.4081"
       ry="3.2261746" />
    <rect
       style="opacity:1;fill:#ffffff;fill-opacity:1;stroke:none;stroke-width:2.09500003;stroke-linecap:butt;stroke-linejoin:round;stroke-miterlimit:4;stroke-dasharray:none;stroke-dashoffset:0;stroke-opacity:1"
       id="rect4154-7"
       width="28"
       height="28"
       x="-30"
       y="1022.3622"
       ry="2.8229036"
       transform="scale(-1,1)" />
    <path
       style="opacity:1;fill:#000000;fill-opacity:1;stroke:none;stroke-width:1;stroke-linecap:butt;stroke-linejoin:round;stroke-miterlimit:4;stroke-dasharray:none;stroke-dashoffset:0;stroke-opacity:1"
       d=""
       id="path4711"
       inkscape:connector-curvature="0"
       transform="translate(0,1020.3622)" />
    <path
       style="opacity:1;fill:#000000;fill-opacity:1;stroke:none;stroke-width:1;stroke-linecap:butt;stroke-linejoin:round;stroke-miterlimit:4;stroke-dasharray:none;stroke-dashoffset:0;stroke-opacity:1"
       d=""
       id="path4713"
       inkscape:connector-curvature="0"
       transform="translate(0,1020.3622)" />
    <path
       style="opacity:1;fill:#000000;fill-opacity:1;stroke:none;stroke-width:1;stroke-linecap:butt;stroke-linejoin:round;stroke-miterlimit:4;stroke-dasharray:none;stroke-dashoffset:0;stroke-opacity:1"
       d=""
       id="path4715"
       inkscape:connector-curvature="0"
       transform="translate(0,1020.3622)" />
    <path
       style="opacity:1;fill:#000000;fill-opacity:1;stroke:none;stroke-width:0.6448819;stroke-linecap:butt;stroke-linejoin:round;stroke-miterlimit:4;stroke-dasharray:none;stroke-dashoffset:0;stroke-opacity:1"
       d="m 9.2698218,1042.0553 c -0.1655837,-0.1133 -0.75849,-0.5545 -1.31757,-0.9803 -0.55908,-0.4258 -1.2054392,-0.9166 -1.4363537,-1.0905 -0.5602619,-0.4221 -0.5707472,-0.4361 -0.4373798,-0.5801 0.1353328,-0.1462 1.2534154,-1.1116 1.4420259,-1.2452 l 0.1428597,-0.1011 1.2567306,0.2088 1.2567305,0.2089 0.500759,-0.2788 c 1.341813,-0.7469 3.788064,-2.1896 3.759357,-2.2172 -0.01783,-0.017 -0.549495,-0.1935 -1.181471,-0.392 -2.611918,-0.8207 -8.3492065,-2.7234 -8.794641,-2.9167 l -0.2209709,-0.096 0.1374636,-0.1177 c 0.4439957,-0.3801 1.4811191,-1.2466 1.6374541,-1.3681 0.3440122,-0.2673 0.3847856,-0.2731 1.2744803,-0.179 1.0875307,0.115 4.5060729,0.5037 7.9237319,0.9011 4.179377,0.4859 5.142522,0.594 5.294485,0.5943 0.189761,5e-4 0.710987,-0.2767 3.244113,-1.7249 1.203186,-0.6879 2.534385,-1.4287 2.958218,-1.6463 l 0.770606,-0.3955 0.312151,0.021 c 0.528038,0.035 0.983792,0.3259 1.241718,0.7915 0.119585,0.2159 0.131075,0.2736 0.130881,0.6565 -1.77e-4,0.3684 -0.01453,0.447 -0.11692,0.6409 -0.204797,0.3877 -0.257151,0.4286 -1.518052,1.1842 -1.516993,0.9091 -11.708545,6.8105 -15.909903,9.2125 -0.826431,0.4725 -1.598388,0.9169 -1.7154608,0.9875 -0.1170721,0.071 -0.2401114,0.1283 -0.2734201,0.1283 -0.033309,0 -0.1960387,-0.093 -0.3616223,-0.2061 z"
       id="path4731"
       inkscape:connector-curvature="0" />
    <path
       style="opacity:1;fill:#000000;fill-opacity:1;stroke:none;stroke-width:0.6448819;stroke-linecap:butt;stroke-linejoin:round;stroke-miterlimit:4;stroke-dasharray:none;stroke-dashoffset:0;stroke-opacity:1"
       d="m 3.1129467,1047.8962 0,-0.7734 7.1594563,0 7.159456,0 0,0.7734 0,0.7734 -7.159456,0 -7.1594563,0 0,-0.7734 z"
       id="path4733"
       inkscape:connector-curvature="0" />
  </g>
</svg>
