<?xml version="1.0" encoding="UTF-8" standalone="no"?>
<!-- Created with Inkscape (http://www.inkscape.org/) -->

<svg
   xmlns:dc="http://purl.org/dc/elements/1.1/"
   xmlns:cc="http://creativecommons.org/ns#"
   xmlns:rdf="http://www.w3.org/1999/02/22-rdf-syntax-ns#"
   xmlns:svg="http://www.w3.org/2000/svg"
   xmlns="http://www.w3.org/2000/svg"
   xmlns:sodipodi="http://sodipodi.sourceforge.net/DTD/sodipodi-0.dtd"
   xmlns:inkscape="http://www.inkscape.org/namespaces/inkscape"
   width="32"
   height="32"
   viewBox="0 0 32 32.000001"
   id="svg4137"
   version="1.1"
   inkscape:version="0.91 r13725"
   sodipodi:docname="buddhist.svg">
  <defs
     id="defs4139">
    <pattern
       y="0"
       x="0"
       height="6"
       width="6"
       patternUnits="userSpaceOnUse"
       id="EMFhbasepattern" />
  </defs>
  <sodipodi:namedview
     id="base"
     pagecolor="#ffffff"
     bordercolor="#666666"
     borderopacity="1.0"
     inkscape:pageopacity="0.0"
     inkscape:pageshadow="2"
     inkscape:zoom="15.839192"
     inkscape:cx="17.290349"
     inkscape:cy="17.620771"
     inkscape:document-units="px"
     inkscape:current-layer="layer1"
     showgrid="false"
     units="px"
     inkscape:window-width="1920"
     inkscape:window-height="1138"
     inkscape:window-x="-8"
     inkscape:window-y="-8"
     inkscape:window-maximized="1" />
  <metadata
     id="metadata4142">
    <rdf:RDF>
      <cc:Work
         rdf:about="">
        <dc:format>image/svg+xml</dc:format>
        <dc:type
           rdf:resource="http://purl.org/dc/dcmitype/StillImage" />
        <dc:title></dc:title>
      </cc:Work>
    </rdf:RDF>
  </metadata>
  <g
     inkscape:label="Ebene 1"
     inkscape:groupmode="layer"
     id="layer1"
     transform="translate(0,-1020.3622)">
    <path
       style="fill:#000000;fill-opacity:1;stroke:#000000;stroke-width:0.02765639;stroke-miterlimit:4;stroke-dasharray:none;stroke-opacity:1"
       d="m 15.369211,1049.0026 c -0.905602,-0.4786 -1.089507,-1.6605 -0.369292,-2.3733 0.240051,-0.2375 0.183218,-0.2887 -0.393228,-0.3539 -1.372682,-0.1553 -3.416578,-1.0533 -4.596138,-2.0193 -0.1560261,-0.1277 -0.2993711,-0.2323 -0.3185411,-0.2323 -0.01918,0 -0.03486,0.1707 -0.03486,0.3793 0,0.4991 -0.238088,0.9663 -0.634472,1.2449 -0.2673181,0.1879 -0.3479063,0.2081 -0.830964,0.2081 -0.4667542,0 -0.5712582,-0.024 -0.8199132,-0.1886 -1.2513575,-0.8281 -0.6167361,-2.7499 0.9080824,-2.7499 0.293699,0 0.3095721,-0.057 0.089996,-0.3231 -0.9004784,-1.0914 -1.7105236,-2.9314 -1.9613902,-4.4554 -0.065026,-0.395 -0.1259085,-0.7297 -0.1353028,-0.7437 -0.0094,-0.014 -0.1427867,0.082 -0.2964279,0.2136 -1.0052612,0.8604 -2.4898672,0.2123 -2.4898672,-1.087 0,-1.3072 1.5510721,-1.969 2.4996874,-1.0666 0.2460235,0.234 0.2669705,0.2417 0.2907351,0.1062 0.014083,-0.08 0.074429,-0.4601 0.1341036,-0.8442 0.185478,-1.1937 0.7010185,-2.5846 1.3172555,-3.5538 l 0.241779,-0.3803 -0.5030312,-0.034 c -0.7746539,-0.053 -1.2366583,-0.4208 -1.4334136,-1.1405 -0.2690314,-0.984 0.7875445,-2.0405 1.7715358,-1.7715 0.6013775,0.1644 1.03919,0.6187 1.1145485,1.1565 0.066506,0.4746 0.072906,0.4759 0.4829598,0.1012 1.4767461,-1.3496 3.1866051,-2.2001 5.0683231,-2.5211 0.358016,-0.061 0.665736,-0.1258 0.683821,-0.1439 0.01808,-0.018 -0.07661,-0.1541 -0.210465,-0.3022 -0.680729,-0.7535 -0.476692,-1.8475 0.431804,-2.3152 0.319894,-0.1648 0.437652,-0.19 0.746097,-0.1603 0.495142,0.048 0.930858,0.3131 1.161965,0.7074 0.353012,0.6024 0.289054,1.2426 -0.17705,1.7721 l -0.27352,0.3107 0.582713,0.082 c 1.647989,0.2306 3.318116,0.9258 4.596325,1.9134 0.267656,0.2068 0.497384,0.376 0.510504,0.376 0.01312,0 0.04166,-0.1726 0.06344,-0.3835 0.05324,-0.5158 0.313644,-0.946 0.714886,-1.1812 1.020909,-0.5983 2.237939,0.083 2.237939,1.2536 0,0.8359 -0.649632,1.4865 -1.484311,1.4865 -0.172345,0 -0.313354,0.021 -0.313354,0.046 0,0.025 0.182736,0.3129 0.406084,0.6396 0.833142,1.2186 1.433257,2.6901 1.641102,4.0242 0.06154,0.395 0.125625,0.7926 0.142407,0.8836 l 0.0305,0.1655 0.22091,-0.2096 c 0.331041,-0.314 0.61856,-0.4324 1.049925,-0.4324 0.434868,0 0.793226,0.1519 1.085981,0.4603 0.748671,0.7888 0.375939,2.1078 -0.682619,2.4155 -0.562027,0.1634 -1.041905,0.035 -1.470134,-0.3932 -0.119825,-0.1197 -0.225642,-0.2063 -0.235147,-0.1921 -0.0095,0.014 -0.07049,0.3489 -0.135508,0.7439 -0.199281,1.2106 -0.73731,2.6099 -1.405888,3.6563 -0.128029,0.2004 -0.23278,0.3773 -0.23278,0.3932 0,0.016 0.102237,0.013 0.227205,-0.01 0.767501,-0.1245 1.637288,0.6658 1.639215,1.4895 0.0012,0.5164 -0.384908,1.1138 -0.858987,1.3291 -0.302987,0.1376 -0.892592,0.1711 -1.168105,0.066 -0.472167,-0.1795 -0.945585,-0.8241 -0.945585,-1.2874 l 0,-0.2512 -0.351072,0.3003 c -0.781225,0.6682 -1.456606,1.1192 -2.310855,1.5431 -0.981064,0.4869 -1.739343,0.7301 -2.831953,0.9081 l -0.709357,0.1156 0.251212,0.2512 c 0.70544,0.7055 0.492853,1.8917 -0.423475,2.3631 -0.340292,0.175 -0.969268,0.1722 -1.306038,-0.01 l 0,0 z m 2.614015,-4.4994 c 0.779659,-0.1782 1.560091,-0.4899 2.221791,-0.8876 0.532369,-0.32 1.353555,-0.9324 1.521298,-1.1345 0.06387,-0.077 -0.330285,-0.441 -2.04237,-1.8864 -1.166835,-0.9851 -2.192289,-1.8468 -2.27879,-1.9151 -0.145349,-0.1146 -0.173188,-0.1158 -0.367183,-0.015 l -0.20991,0.1085 0,2.9721 0,2.9721 0.293849,-0.042 c 0.161618,-0.023 0.549209,-0.1002 0.861315,-0.1717 z m -2.814547,-2.8647 c 0,-1.6542 -0.02351,-3.0077 -0.05229,-3.0077 -0.02875,0 -0.997679,0.9458 -2.153166,2.1018 l -2.100886,2.1017 0.437163,0.3218 c 0.536839,0.3952 1.155229,0.7448 1.735845,0.9814 0.535747,0.2183 1.602067,0.5006 1.908617,0.5052 l 0.224707,0 0,-3.0077 z m -3.249628,-2.1434 2.107951,-2.1088 -3.024493,0 c -3.4703311,0 -3.1010772,-0.097 -2.9201612,0.7635 0.1323045,0.6289 0.4078437,1.4342 0.6732312,1.9676 0.2768439,0.5563 0.8916469,1.4865 0.9825229,1.4865 0.04016,0 1.0215771,-0.949 2.1809491,-2.1088 z m 11.484765,0.7033 c 0.376353,-0.7308 0.933845,-2.6545 0.806261,-2.7821 -0.01737,-0.017 -1.314597,-0.024 -2.882733,-0.014 l -2.851158,0.018 2.197769,1.8518 2.197771,1.8517 0.162278,-0.2615 c 0.08925,-0.1438 0.255668,-0.4428 0.369812,-0.6645 z m -6.479227,-2.3773 c 0.706486,-0.4965 0.811443,-1.5061 0.223805,-2.1528 -0.429487,-0.4726 -1.274964,-0.5665 -1.824875,-0.2026 -0.311912,0.2065 -0.639064,0.7813 -0.638442,1.1218 0.0011,0.5757 0.346997,1.1229 0.863284,1.3656 0.40352,0.1897 0.999968,0.1325 1.376228,-0.132 z m -3.175222,-2.2263 c -0.462737,-0.4484 -4.4356021,-3.7354 -4.4922431,-3.7168 -0.03804,0.012 -0.215803,0.3003 -0.395057,0.6394 -0.4477365,0.8472 -0.7592563,1.8583 -0.9089514,2.9502 l -0.035555,0.2593 2.9840785,0 c 2.939237,0 2.982032,0 2.847721,-0.1321 z m 10.494214,-0.1963 c -0.0662,-0.6261 -0.420844,-1.8739 -0.705591,-2.4825 -0.278105,-0.5944 -0.945291,-1.6833 -1.031394,-1.6833 -0.08419,0 -4.364855,4.3224 -4.364855,4.4074 0,0.068 0.651993,0.087 3.068279,0.087 l 3.06828,0 -0.03471,-0.3284 z m -9.074902,-4.0231 0,-3.2453 -0.259279,0.039 c -1.536204,0.2336 -3.478814,1.184 -4.396746,2.151 l -0.196431,0.2069 0.611276,0.5188 c 2.617067,2.2212 4.209275,3.567 4.223893,3.5704 0.0095,0 0.01729,-1.4564 0.01729,-3.2413 z m 3.97237,0.8977 c 2.527072,-2.528 2.360927,-2.2141 1.483685,-2.8027 -0.978145,-0.6563 -2.295317,-1.16 -3.433682,-1.3131 l -0.36299,-0.049 0,3.187 c 0,1.7528 0.02351,3.1869 0.05226,3.1869 0.02875,0 1.046069,-0.9941 2.260726,-2.2092 z"
       id="path6455"
       inkscape:connector-curvature="0"
       inkscape:export-filename="C:\Users\Fabienne\Desktop\Symbole\png\buddhist.png"
       inkscape:export-xdpi="90"
       inkscape:export-ydpi="90" />
  </g>
</svg>
