<?xml version="1.0" encoding="UTF-8" standalone="no"?>
<!-- Created with Inkscape (http://www.inkscape.org/) -->

<svg
   xmlns:dc="http://purl.org/dc/elements/1.1/"
   xmlns:cc="http://creativecommons.org/ns#"
   xmlns:rdf="http://www.w3.org/1999/02/22-rdf-syntax-ns#"
   xmlns:svg="http://www.w3.org/2000/svg"
   xmlns="http://www.w3.org/2000/svg"
   xmlns:sodipodi="http://sodipodi.sourceforge.net/DTD/sodipodi-0.dtd"
   xmlns:inkscape="http://www.inkscape.org/namespaces/inkscape"
   width="32"
   height="32"
   viewBox="0 0 32 32.000001"
   id="svg4141"
   version="1.1"
   inkscape:version="0.91 r13725"
   sodipodi:docname="cafe.svg">
  <defs
     id="defs4143" />
  <sodipodi:namedview
     id="base"
     pagecolor="#ffffff"
     bordercolor="#666666"
     borderopacity="1.0"
     inkscape:pageopacity="0.0"
     inkscape:pageshadow="2"
     inkscape:zoom="11.2"
     inkscape:cx="18.615936"
     inkscape:cy="6.0795777"
     inkscape:document-units="px"
     inkscape:current-layer="layer1"
     showgrid="false"
     units="px"
     inkscape:window-width="1920"
     inkscape:window-height="1138"
     inkscape:window-x="-8"
     inkscape:window-y="-8"
     inkscape:window-maximized="1" />
  <metadata
     id="metadata4146">
    <rdf:RDF>
      <cc:Work
         rdf:about="">
        <dc:format>image/svg+xml</dc:format>
        <dc:type
           rdf:resource="http://purl.org/dc/dcmitype/StillImage" />
        <dc:title></dc:title>
      </cc:Work>
    </rdf:RDF>
  </metadata>
  <g
     inkscape:label="Ebene 1"
     inkscape:groupmode="layer"
     id="layer1"
     transform="translate(0,-1020.3622)">
    <path
       style="opacity:1;fill:#000000;fill-opacity:1;stroke:none;stroke-width:25;stroke-linecap:butt;stroke-linejoin:round;stroke-miterlimit:4;stroke-dasharray:none;stroke-dashoffset:0;stroke-opacity:1"
       d="m 11.562365,1041.5131 c -1.7136969,-0.3389 -3.2106181,-1.0402 -4.2040765,-1.9695 -0.4624468,-0.4325 -1.0550226,-1.3026 -1.2251952,-1.7989 -0.06951,-0.2027 -0.1212742,-2.1629 -0.163274,-6.183 l -0.061497,-5.8862 8.0502357,0 8.050235,0 0,0.7926 c 0,0.5323 0.03729,0.8236 0.113505,0.8869 0.07043,0.058 0.926838,0.1049 2.256667,0.1225 l 2.143161,0.028 0.624166,0.371 c 0.776266,0.4615 1.49469,1.2103 1.806782,1.8833 0.230478,0.497 0.238134,0.5656 0.236492,2.1207 -0.0017,1.5699 -0.0073,1.618 -0.242691,2.0723 -0.318051,0.6139 -1.193201,1.5397 -1.731002,1.8313 -0.573384,0.3108 -0.745983,0.3362 -3.111016,0.4569 l -2.034238,0.1038 -0.21006,0.792 c -0.270255,1.019 -0.454053,1.4222 -0.9093,1.9949 -0.819173,1.0306 -2.346614,1.8625 -4.076394,2.2203 -0.621364,0.1285 -4.831498,0.256 -5.3125,0.1608 z m 14.91161,-7.6912 c 0.571052,-0.6437 0.74876,-1.114 0.750309,-1.9857 0.0019,-1.0787 -0.36523,-1.8466 -1.054264,-2.2049 -0.276194,-0.1437 -1.903589,-0.286 -3.335334,-0.2918 l -0.825893,0 0,2.2826 c 0,1.4637 0.0346,2.3473 0.09642,2.4629 0.09299,0.1737 0.166296,0.1791 2.063898,0.1503 l 1.96748,-0.03 0.337385,-0.3804 z"
       id="path4707"
       inkscape:connector-curvature="0" />
    <path
       style="opacity:1;fill:#000000;fill-opacity:1;stroke:none;stroke-width:25;stroke-linecap:butt;stroke-linejoin:round;stroke-miterlimit:4;stroke-dasharray:none;stroke-dashoffset:0;stroke-opacity:1"
       d="m 6.2363084,1046.7461 c -0.977628,-0.6388 -2.080213,-2.013 -2.0837859,-2.5972 -0.0014,-0.2286 1.2336124,-0.2583 10.7803775,-0.2587 l 8.772322,-4e-4 0,0.2257 c 0,0.1242 -0.117097,0.4578 -0.260215,0.7413 -0.433441,0.8586 -0.894292,1.3587 -1.680279,1.8231 l -0.717654,0.4242 -7.131492,0 -7.1314927,0 -0.5477809,-0.358 z"
       id="path4709"
       inkscape:connector-curvature="0" />
  </g>
</svg>
