<?xml version="1.0" encoding="UTF-8" standalone="no"?>
<!-- Created with Inkscape (http://www.inkscape.org/) -->

<svg
   xmlns:dc="http://purl.org/dc/elements/1.1/"
   xmlns:cc="http://creativecommons.org/ns#"
   xmlns:rdf="http://www.w3.org/1999/02/22-rdf-syntax-ns#"
   xmlns:svg="http://www.w3.org/2000/svg"
   xmlns="http://www.w3.org/2000/svg"
   xmlns:sodipodi="http://sodipodi.sourceforge.net/DTD/sodipodi-0.dtd"
   xmlns:inkscape="http://www.inkscape.org/namespaces/inkscape"
   width="32"
   height="32"
   viewBox="0 0 32 32.000001"
   id="svg4146"
   version="1.1"
   inkscape:version="0.91 r13725"
   sodipodi:docname="car_repair.svg">
  <defs
     id="defs4148" />
  <sodipodi:namedview
     id="base"
     pagecolor="#ffffff"
     bordercolor="#666666"
     borderopacity="1.0"
     inkscape:pageopacity="0.0"
     inkscape:pageshadow="2"
     inkscape:zoom="7.9195959"
     inkscape:cx="-0.76571354"
     inkscape:cy="33.818391"
     inkscape:document-units="px"
     inkscape:current-layer="layer1"
     showgrid="false"
     units="px"
     inkscape:window-width="1920"
     inkscape:window-height="1138"
     inkscape:window-x="-8"
     inkscape:window-y="-8"
     inkscape:window-maximized="1" />
  <metadata
     id="metadata4151">
    <rdf:RDF>
      <cc:Work
         rdf:about="">
        <dc:format>image/svg+xml</dc:format>
        <dc:type
           rdf:resource="http://purl.org/dc/dcmitype/StillImage" />
        <dc:title></dc:title>
      </cc:Work>
    </rdf:RDF>
  </metadata>
  <g
     inkscape:label="Ebene 1"
     inkscape:groupmode="layer"
     id="layer1"
     transform="translate(0,-1020.3622)">
    <path
       style="opacity:1;fill:#000000;fill-opacity:1;stroke:none;stroke-width:25;stroke-linecap:butt;stroke-linejoin:round;stroke-miterlimit:4;stroke-dasharray:none;stroke-dashoffset:0;stroke-opacity:1"
       d="m 9.5252155,1049.934 c -0.524222,-0.2314 -0.8490802,-0.6263 -1.0837973,-1.3176 l -0.1999137,-0.5888 -0.9680751,-0.037 -0.9680751,-0.037 0,-3.2733 0,-3.2733 0.3866988,-0.4404 c 0.2126843,-0.2423 0.6796185,-0.5797 1.0376314,-0.7498 l 0.6509327,-0.3094 0.9616288,-2.8848 0.961629,-2.8849 6.071065,-0.033 6.071066,-0.033 0.786892,2.3687 c 1.060691,3.193 1.26303,3.6375 1.706384,3.7488 0.537562,0.1349 1.073193,0.5682 1.262505,1.0213 0.117432,0.2811 0.197046,1.3847 0.257847,3.5745 l 0.08796,3.1679 -1.047686,0.037 -1.047686,0.037 -0.158863,0.6271 c -0.484085,1.9106 -3.082835,1.8812 -3.625634,-0.041 l -0.165473,-0.5861 -4.120717,-0.033 -4.120717,-0.033 -0.08716,0.4121 c -0.137728,0.6511 -0.549111,1.2196 -1.077769,1.4893 -0.562422,0.2869 -1.034023,0.3084 -1.5706695,0.072 z m 1.5894175,-4.5302 c 0.732896,-0.4939 0.934892,-1.2343 0.555116,-2.0346 -0.49122,-1.0352 -2.1192937,-1.1241 -2.7571279,-0.1507 -0.1180168,0.1801 -0.2081545,0.5721 -0.2081545,0.9052 0,0.5141 0.061252,0.6488 0.4902211,1.0777 0.404797,0.4048 0.5775683,0.4903 0.9914793,0.4903 0.312686,0 0.661974,-0.1083 0.928466,-0.2879 z m 12.199348,0.04 c 0.93114,-0.5677 1.044006,-1.759 0.236747,-2.4988 -0.375021,-0.3437 -0.546313,-0.4105 -1.052983,-0.4105 -0.955226,0 -1.545179,0.6027 -1.545179,1.5784 0,1.2725 1.276926,1.9922 2.361415,1.3309 z m -1.477531,-5.3853 c 0,-0.2076 -1.183519,-3.9215 -1.293321,-4.0584 -0.14192,-0.177 -4.173522,-0.2216 -6.879258,-0.076 l -1.519966,0.082 -0.583298,1.9298 c -0.320813,1.0614 -0.583297,1.9598 -0.583297,1.9964 0,0.1056 1.627879,0.1508 6.408155,0.1781 2.448042,0.014 4.450985,-0.01 4.450985,-0.052 z"
       id="path4722"
       inkscape:connector-curvature="0" />
    <path
       style="opacity:1;fill:#000000;fill-opacity:1;stroke:none;stroke-width:25;stroke-linecap:butt;stroke-linejoin:round;stroke-miterlimit:4;stroke-dasharray:none;stroke-dashoffset:0;stroke-opacity:1"
       d="m 22.023208,1031.5069 c -0.724782,-0.2372 -1.14908,-0.5262 -2.080794,-1.417 l -0.820749,-0.7847 -6.187185,-0.086 c -3.4073822,-0.047 -6.461127,-0.1444 -6.7969167,-0.2162 -1.554932,-0.3325 -2.3086517,-2.1112 -1.4753105,-3.4815 0.1340321,-0.2204 0.544356,-0.5731 0.9118308,-0.7839 l 0.6681362,-0.3831 6.4103882,0 6.410388,0 0.81683,-0.8659 c 1.177228,-1.2479 1.976408,-1.5964 3.661256,-1.5963 1.116922,0 1.342864,0.039 1.957171,0.3415 0.688439,0.3385 2.146574,1.5286 2.146574,1.752 0,0.064 -0.70482,0.1162 -1.586127,0.1162 l -1.586125,0 -1.507467,1.2692 c -0.829105,0.6981 -1.507466,1.317 -1.507466,1.3753 0,0.058 0.657845,0.6663 1.461877,1.3509 1.635091,1.3922 1.693172,1.4153 3.58414,1.4269 l 1.194809,0.01 -0.626598,0.6379 c -0.34463,0.3509 -0.990156,0.8174 -1.434502,1.0367 -0.698874,0.345 -0.963001,0.4036 -1.95717,0.4341 -0.704383,0.022 -1.345809,-0.029 -1.65699,-0.131 z m -14.060231,-3.9494 c 0.525962,-0.476 0.3880627,-1.4136 -0.2569678,-1.7472 -0.5171626,-0.2674 -0.6878005,-0.2477 -1.1384288,0.1315 -0.417467,0.3512 -0.5226316,0.9543 -0.2539717,1.4563 0.2707466,0.5059 1.1704147,0.5928 1.6493683,0.1594 z"
       id="path4724"
       inkscape:connector-curvature="0" />
  </g>
</svg>
