<?xml version="1.0" encoding="UTF-8" standalone="no"?>
<!-- Created with Inkscape (http://www.inkscape.org/) -->

<svg
   xmlns:dc="http://purl.org/dc/elements/1.1/"
   xmlns:cc="http://creativecommons.org/ns#"
   xmlns:rdf="http://www.w3.org/1999/02/22-rdf-syntax-ns#"
   xmlns:svg="http://www.w3.org/2000/svg"
   xmlns="http://www.w3.org/2000/svg"
   xmlns:sodipodi="http://sodipodi.sourceforge.net/DTD/sodipodi-0.dtd"
   xmlns:inkscape="http://www.inkscape.org/namespaces/inkscape"
   width="32"
   height="32"
   viewBox="0 0 32 32.000001"
   id="svg4146"
   version="1.1"
   inkscape:version="0.91 r13725"
   sodipodi:docname="car_rental.svg">
  <defs
     id="defs4148" />
  <sodipodi:namedview
     id="base"
     pagecolor="#ffffff"
     bordercolor="#666666"
     borderopacity="1.0"
     inkscape:pageopacity="0.0"
     inkscape:pageshadow="2"
     inkscape:zoom="15.839192"
     inkscape:cx="11.646686"
     inkscape:cy="16.982233"
     inkscape:document-units="px"
     inkscape:current-layer="layer1"
     showgrid="false"
     units="px"
     inkscape:window-width="1920"
     inkscape:window-height="1138"
     inkscape:window-x="-8"
     inkscape:window-y="-8"
     inkscape:window-maximized="1" />
  <metadata
     id="metadata4151">
    <rdf:RDF>
      <cc:Work
         rdf:about="">
        <dc:format>image/svg+xml</dc:format>
        <dc:type
           rdf:resource="http://purl.org/dc/dcmitype/StillImage" />
        <dc:title></dc:title>
      </cc:Work>
    </rdf:RDF>
  </metadata>
  <g
     inkscape:label="Ebene 1"
     inkscape:groupmode="layer"
     id="layer1"
     transform="translate(0,-1020.3622)">
    <path
       style="opacity:0.97000002;fill:#000000;fill-opacity:1;stroke:none;stroke-width:3.5;stroke-linecap:round;stroke-linejoin:round;stroke-miterlimit:4;stroke-dasharray:none;stroke-opacity:1"
       d="m 9.3735635,1049.8208 c -0.5393012,-0.3297 -0.6808521,-0.5221 -0.8814591,-1.1979 l -0.1696442,-0.5715 -0.9200116,0 -0.9200117,0 0,-3.2899 0,-3.2898 0.409197,-0.4661 c 0.2250591,-0.2563 0.6599766,-0.5496 0.9664841,-0.6518 l 0.5572867,-0.1858 0.9609328,-2.8827 0.9609335,-2.8827 5.928598,-0.035 5.9286,-0.035 0.98316,2.9598 c 0.703015,2.1164 1.04129,2.9604 1.187157,2.962 0.404681,0 1.257019,0.6127 1.50109,1.0714 0.222211,0.4176 0.249324,0.8088 0.249324,3.5971 l 0,3.1286 -0.991347,0 -0.991345,0 -0.08828,0.5521 c -0.309685,1.9366 -3.350953,1.9162 -3.661305,-0.025 l -0.08434,-0.5274 -4.006257,0 -4.006258,0 -0.09112,0.437 c -0.273818,1.3132 -1.728836,2.0004 -2.8213855,1.3324 z m 1.5992385,-4.2593 c 1.458785,-0.6922 0.970674,-2.889 -0.641928,-2.889 -1.3932679,0 -2.0652087,1.6421 -1.0564895,2.5819 0.596445,0.5557 1.0150775,0.6314 1.6984175,0.3071 z m 11.841717,0.014 c 1.533874,-0.6409 1.062334,-2.9024 -0.605171,-2.9024 -0.891492,0 -1.472988,0.6277 -1.472988,1.5901 0,0.6107 0.298199,1.066 0.857697,1.3095 0.537137,0.2338 0.666839,0.2341 1.220462,0 z m -1.349285,-5.6255 c -0.448818,-1.4134 -1.132286,-3.6345 -1.132286,-3.6796 0,-0.031 -1.824999,-0.04 -4.055553,-0.02 l -4.055553,0.036 -0.583695,1.8824 c -0.321033,1.0353 -0.583696,1.9279 -0.583696,1.9834 0,0.056 2.364044,0.1011 5.25343,0.1011 l 5.25343,0 -0.09608,-0.3026 z"
       id="path7482"
       inkscape:connector-curvature="0" />
    <path
       style="opacity:0.97000002;fill:#000000;fill-opacity:1;stroke:none;stroke-width:3.5;stroke-linecap:round;stroke-linejoin:round;stroke-miterlimit:4;stroke-dasharray:none;stroke-opacity:1"
       d="m 7.7378481,1031.935 c -0.8782277,-0.3035 -1.7602601,-0.977 -2.3855375,-1.8215 -1.6839486,-2.2746 -0.8897079,-5.7021 1.6319266,-7.0425 1.5085514,-0.802 3.0453998,-0.8322 4.5681078,-0.09 0.635735,0.3099 1.922584,1.5289 1.922584,1.8212 0,0.069 2.517211,0.12 5.861137,0.12 l 5.861137,0 1.400295,1.1621 c 0.770163,0.6392 1.396333,1.1989 1.391491,1.2438 -0.0048,0.045 -0.644424,0.6112 -1.421288,1.2584 -1.843112,1.5353 -1.898744,1.5376 -3.30693,0.1377 l -1.045018,-1.0389 -1.008638,1.0019 -1.008638,1.0019 -0.978181,-0.9716 -0.978176,-0.9717 -1.001905,1.0087 -1.0019,1.0086 -1.348076,0.01 -1.348075,0.01 -0.426463,0.5802 c -1.135831,1.5452 -3.4838005,2.2355 -5.3778529,1.581 z m 0.391859,-3.9404 c 0.3614708,-0.4272 0.3049553,-1.1153 -0.118989,-1.4488 -0.7242391,-0.5697 -1.6627524,-0.1261 -1.6627524,0.786 0,0.9842 1.1483106,1.4114 1.7817403,0.6628 z"
       id="path7484"
       inkscape:connector-curvature="0" />
  </g>
</svg>
