<?xml version="1.0" encoding="UTF-8" standalone="no"?>
<!-- Created with Inkscape (http://www.inkscape.org/) -->

<svg
   xmlns:dc="http://purl.org/dc/elements/1.1/"
   xmlns:cc="http://creativecommons.org/ns#"
   xmlns:rdf="http://www.w3.org/1999/02/22-rdf-syntax-ns#"
   xmlns:svg="http://www.w3.org/2000/svg"
   xmlns="http://www.w3.org/2000/svg"
   xmlns:sodipodi="http://sodipodi.sourceforge.net/DTD/sodipodi-0.dtd"
   xmlns:inkscape="http://www.inkscape.org/namespaces/inkscape"
   width="32"
   height="32"
   viewBox="0 0 32 32.000001"
   id="svg4146"
   version="1.1"
   inkscape:version="0.91 r13725"
   sodipodi:docname="car_repair_frame_color.svg">
  <defs
     id="defs4148" />
  <sodipodi:namedview
     id="base"
     pagecolor="#ffffff"
     bordercolor="#666666"
     borderopacity="1.0"
     inkscape:pageopacity="0.0"
     inkscape:pageshadow="2"
     inkscape:zoom="7.9195959"
     inkscape:cx="-55.945297"
     inkscape:cy="33.818391"
     inkscape:document-units="px"
     inkscape:current-layer="layer1"
     showgrid="false"
     units="px"
     inkscape:window-width="1920"
     inkscape:window-height="1138"
     inkscape:window-x="-8"
     inkscape:window-y="-8"
     inkscape:window-maximized="1" />
  <metadata
     id="metadata4151">
    <rdf:RDF>
      <cc:Work
         rdf:about="">
        <dc:format>image/svg+xml</dc:format>
        <dc:type
           rdf:resource="http://purl.org/dc/dcmitype/StillImage" />
        <dc:title></dc:title>
      </cc:Work>
    </rdf:RDF>
  </metadata>
  <g
     inkscape:label="Ebene 1"
     inkscape:groupmode="layer"
     id="layer1"
     transform="translate(0,-1020.3622)">
    <path
       inkscape:connector-curvature="0"
       id="path4140"
       d="m 3.2224824,1020.3622 25.5550146,0 c 1.723662,0 3.222503,1.424 3.222503,3.2226 l 0,25.5548 c 0,1.7239 -1.49884,3.2226 -3.222503,3.2226 l -25.5550146,0 C 1.4238863,1052.3622 0,1050.8635 0,1049.1396 l 0,-25.5548 c 0,-1.7986 1.4238863,-3.2226 3.2224824,-3.2226 z"
       style="fill:#ffd42a;fill-opacity:1;fill-rule:nonzero;stroke:none" />
    <path
       inkscape:connector-curvature="0"
       id="path4142"
       d="m 27.203716,1022.3106 -22.33253,0 c -1.5737615,0 -2.8477645,1.2742 -2.8477645,2.848 l 0,22.3325 c 0,1.5738 1.274003,2.7726 2.8477645,2.7726 l 22.33253,0 c 1.57378,0 2.847792,-1.1988 2.847792,-2.7726 l 0,-22.3325 c 0,-1.5738 -1.274012,-2.848 -2.847792,-2.848 z"
       style="fill:#ffffff;fill-opacity:1;fill-rule:nonzero;stroke:none" />
    <path
       style="opacity:1;fill:#ffd42a;fill-opacity:1;stroke:none;stroke-width:25;stroke-linecap:butt;stroke-linejoin:round;stroke-miterlimit:4;stroke-dasharray:none;stroke-dashoffset:0;stroke-opacity:1"
       d="m 10.482555,1046.9388 c -0.404493,-0.1786 -0.6551562,-0.4833 -0.8362652,-1.0167 l -0.1542551,-0.4543 -0.7469734,-0.028 -0.7469734,-0.028 0,-2.5256 0,-2.5258 0.2983794,-0.3398 c 0.1641087,-0.1869 0.5243984,-0.4472 0.8006436,-0.5785 l 0.5022641,-0.2388 0.742,-2.2259 0.741999,-2.2259 4.684476,-0.026 4.684476,-0.025 0.607172,1.8277 c 0.818436,2.4637 0.974562,2.8067 1.316657,2.8926 0.414787,0.1041 0.828084,0.4384 0.974158,0.788 0.09061,0.2169 0.152042,1.0685 0.198956,2.7582 l 0.06787,2.4444 -0.808402,0.028 -0.808402,0.028 -0.12258,0.4838 c -0.373522,1.4743 -2.378736,1.4516 -2.797563,-0.031 l -0.127681,-0.4523 -3.179574,-0.025 -3.179573,-0.025 -0.06726,0.318 c -0.106272,0.5024 -0.423698,0.9411 -0.831614,1.1492 -0.433969,0.2213 -0.797859,0.2379 -1.21194,0.056 z m 1.226405,-3.4956 c 0.565508,-0.3811 0.721369,-0.9523 0.428332,-1.5699 -0.379029,-0.7988 -1.635262,-0.8673 -2.127419,-0.1163 -0.09106,0.139 -0.1606132,0.4415 -0.1606132,0.6985 0,0.3967 0.04726,0.5007 0.3782572,0.8316 0.312344,0.3123 0.445656,0.3783 0.765033,0.3783 0.241271,0 0.510783,-0.083 0.71641,-0.2222 z m 9.413102,0.031 c 0.718474,-0.4381 0.805562,-1.3573 0.182676,-1.9281 -0.289369,-0.2652 -0.42154,-0.3168 -0.812489,-0.3168 -0.73706,0 -1.192272,0.4651 -1.192272,1.218 0,0.9818 0.985286,1.5372 1.822085,1.0269 z m -1.140073,-4.1553 c 0,-0.1602 -0.913212,-3.0259 -0.997936,-3.1315 -0.109506,-0.1366 -3.220319,-0.171 -5.308083,-0.059 l -1.172816,0.063 -0.450077,1.489 c -0.247541,0.819 -0.450076,1.5123 -0.450076,1.5404 0,0.081 1.256083,0.1164 4.944576,0.1375 1.888927,0.01 3.434412,-0.01 3.434412,-0.04 z"
       id="path4722"
       inkscape:connector-curvature="0" />
    <path
       style="opacity:1;fill:#ffd42a;fill-opacity:1;stroke:none;stroke-width:25;stroke-linecap:butt;stroke-linejoin:round;stroke-miterlimit:4;stroke-dasharray:none;stroke-dashoffset:0;stroke-opacity:1"
       d="m 20.126093,1032.7203 c -0.559248,-0.183 -0.886639,-0.406 -1.605556,-1.0934 l -0.633295,-0.6055 -4.774075,-0.066 c -2.62916,-0.036 -4.9854502,-0.1115 -5.2445478,-0.1668 -1.1997964,-0.2566 -1.7813717,-1.629 -1.1383599,-2.6864 0.1034201,-0.17 0.420029,-0.4422 0.703575,-0.6049 l 0.5155385,-0.2955 4.9462992,0 4.9463,0 0.630272,-0.6682 c 0.908358,-0.9629 1.52501,-1.2318 2.825051,-1.2317 0.861824,0 1.036163,0.03 1.510166,0.2635 0.531205,0.2612 1.656311,1.1795 1.656311,1.3519 0,0.049 -0.543843,0.09 -1.223866,0.09 l -1.223865,0 -1.163172,0.9793 c -0.639743,0.5387 -1.163171,1.0163 -1.163171,1.0613 0,0.044 0.507598,0.514 1.127994,1.0423 1.261648,1.0743 1.306464,1.092 2.765547,1.101 l 0.921924,0.01 -0.483488,0.4921 c -0.265918,0.2708 -0.764011,0.6307 -1.106872,0.8 -0.539255,0.2661 -0.743057,0.3113 -1.510165,0.3349 -0.543507,0.017 -1.038436,-0.023 -1.278545,-0.1011 z m -10.848972,-3.0474 c 0.4058358,-0.3673 0.2994318,-1.0907 -0.1982781,-1.3481 -0.3990462,-0.2063 -0.5307117,-0.1912 -0.8784196,0.1014 -0.3221204,0.271 -0.4032662,0.7364 -0.1959663,1.1237 0.2089099,0.3904 0.9031001,0.4575 1.272664,0.123 z"
       id="path4724"
       inkscape:connector-curvature="0" />
  </g>
</svg>
