<?xml version="1.0" encoding="UTF-8" standalone="no"?>
<!-- Created with Inkscape (http://www.inkscape.org/) -->

<svg
   xmlns:dc="http://purl.org/dc/elements/1.1/"
   xmlns:cc="http://creativecommons.org/ns#"
   xmlns:rdf="http://www.w3.org/1999/02/22-rdf-syntax-ns#"
   xmlns:svg="http://www.w3.org/2000/svg"
   xmlns="http://www.w3.org/2000/svg"
   xmlns:sodipodi="http://sodipodi.sourceforge.net/DTD/sodipodi-0.dtd"
   xmlns:inkscape="http://www.inkscape.org/namespaces/inkscape"
   width="32"
   height="32"
   viewBox="0 0 32 32.000001"
   id="svg4135"
   version="1.1"
   inkscape:version="0.91 r13725"
   sodipodi:docname="cinema.svg">
  <defs
     id="defs4137" />
  <sodipodi:namedview
     id="base"
     pagecolor="#ffffff"
     bordercolor="#666666"
     borderopacity="1.0"
     inkscape:pageopacity="0.0"
     inkscape:pageshadow="2"
     inkscape:zoom="15.839192"
     inkscape:cx="9.8932816"
     inkscape:cy="17.55955"
     inkscape:document-units="px"
     inkscape:current-layer="layer1"
     showgrid="false"
     units="px"
     inkscape:window-width="1920"
     inkscape:window-height="1138"
     inkscape:window-x="-8"
     inkscape:window-y="-8"
     inkscape:window-maximized="1" />
  <metadata
     id="metadata4140">
    <rdf:RDF>
      <cc:Work
         rdf:about="">
        <dc:format>image/svg+xml</dc:format>
        <dc:type
           rdf:resource="http://purl.org/dc/dcmitype/StillImage" />
        <dc:title></dc:title>
      </cc:Work>
    </rdf:RDF>
  </metadata>
  <g
     inkscape:label="Ebene 1"
     inkscape:groupmode="layer"
     id="layer1"
     transform="translate(0,-1020.3622)">
    <path
       style="opacity:1;fill:#000000;fill-opacity:1;stroke:none;stroke-width:25;stroke-linecap:butt;stroke-linejoin:round;stroke-miterlimit:4;stroke-dasharray:none;stroke-dashoffset:0;stroke-opacity:1"
       d="m 5.180317,1047.5684 c -0.6114838,-0.053 -0.8271906,-0.1677 -1.2837909,-0.68 l -0.3166979,-0.3553 0,-10.4522 0,-10.4522 0.3190065,-0.3896 c 0.4050266,-0.4945 0.6141644,-0.5697 1.8264469,-0.6563 1.3932631,-0.1 21.2965834,-0.048 21.6038244,0.056 0.353506,0.1196 0.855982,0.6039 0.950977,0.9166 0.06322,0.2081 0.08005,2.4004 0.08005,10.4282 0,5.5905 -0.02338,10.3018 -0.05196,10.4694 -0.03646,0.2139 -0.118296,0.3783 -0.274422,0.5511 -0.38426,0.4253 -0.565986,0.5011 -1.359107,0.5667 -0.826063,0.068 -20.7111031,0.066 -21.49433,0 l 0,0 z m 1.7852213,-1.7171 c 0.1207741,-0.1208 0.1889865,-0.8321 0.122385,-1.2762 -0.036175,-0.2412 -0.077177,-0.3079 -0.2419602,-0.3931 -0.2661955,-0.1376 -0.9155918,-0.1845 -1.2100151,-0.087 -0.3565753,0.1177 -0.4772336,0.3658 -0.4775205,0.9818 -3.788e-4,0.8104 0.1358685,0.9224 1.0888105,0.8952 0.4671302,-0.013 0.6403138,-0.042 0.7183003,-0.1203 z m 14.4706137,-4.373 c -0.01462,-2.4814 -0.03949,-4.5235 -0.05527,-4.538 -0.01578,-0.014 -2.450682,-0.047 -5.410902,-0.072 l -5.38222,-0.046 0,4.5838 0,4.5838 5.437489,0 5.437487,0 -0.02659,-4.5118 z m 5.052471,4.4423 c 0.13094,-0.046 0.215302,-0.1267 0.246176,-0.2367 0.06703,-0.2388 0.03952,-1.2354 -0.03811,-1.3805 -0.132785,-0.2481 -0.785039,-0.337 -1.367015,-0.1863 l -0.315672,0.082 -0.01817,0.7852 c -0.02279,0.9848 -0.0064,1.0061 0.773356,1.0061 0.286126,0 0.609871,-0.031 0.719433,-0.069 z m -19.7228332,-3.5557 c 0.2515484,-0.1051 0.3486599,-0.3633 0.3492202,-0.9284 8.391e-4,-0.8462 -0.1394686,-0.9658 -1.0903835,-0.9292 -0.5247127,0.02 -0.5718303,0.033 -0.7141072,0.1988 -0.1335373,0.1553 -0.1523278,0.2394 -0.1523278,0.6818 0,0.5701 0.094582,0.8217 0.3638173,0.9678 0.2236935,0.1214 0.9622074,0.1268 1.243781,0.01 z m 19.8722422,-0.086 c 0.128774,-0.1289 0.143738,-0.2044 0.143738,-0.7261 0,-0.7928 -0.03906,-0.9077 -0.339019,-0.9976 -0.133701,-0.04 -0.463229,-0.062 -0.732286,-0.048 -0.411419,0.021 -0.507181,0.047 -0.602324,0.1644 -0.228036,0.2816 -0.235068,1.4159 -0.01,1.6116 0.172863,0.1503 0.269224,0.1678 0.845402,0.1534 0.478532,-0.012 0.569588,-0.033 0.69448,-0.1576 z m -19.7366041,-3.5805 c 0.073318,-0.048 0.1514471,-0.1775 0.17362,-0.2884 0.06116,-0.3058 0.048215,-0.9775 -0.022419,-1.1633 -0.08531,-0.2244 -0.4416029,-0.3627 -0.9584772,-0.3722 -0.3370678,-0.01 -0.4571342,0.019 -0.5997781,0.1247 -0.2883528,0.214 -0.342484,0.3794 -0.3226263,0.9861 0.020064,0.613 0.077637,0.7197 0.4371861,0.8109 0.2876502,0.073 1.1278391,0.01 1.2924942,-0.098 z m 19.4043781,0.089 c 0.427159,-0.092 0.476477,-0.1932 0.467814,-0.9633 -0.0082,-0.7327 -0.0654,-0.8256 -0.566533,-0.9206 -0.237629,-0.045 -0.434563,-0.037 -0.757104,0.03 -0.239763,0.05 -0.443046,0.091 -0.451741,0.091 -0.04303,0 -0.0068,1.558 0.03789,1.6284 0.118916,0.1874 0.723139,0.2512 1.269672,0.134 z M 6.8287621,1035.17 c 0.2075273,-0.136 0.3045947,-0.5242 0.2754386,-1.1016 -0.028411,-0.5626 -0.1222614,-0.6679 -0.6546621,-0.7344 -0.5159396,-0.064 -0.9648628,0.013 -1.1496954,0.1975 -0.1446541,0.1446 -0.1523561,0.1882 -0.1318561,0.7453 0.019297,0.5244 0.039318,0.6103 0.1761293,0.7559 0.084897,0.09 0.2411546,0.1911 0.3472399,0.224 0.2755173,0.086 0.9534984,0.034 1.1374058,-0.087 z m 14.6181389,-4.4269 0,-4.5773 -5.42957,0 -5.42957,0 0,4.5773 0,4.5773 5.42957,0 5.42957,0 0,-4.5773 z m 5.087932,4.4418 c 0.229703,-0.1113 0.301563,-0.3896 0.260406,-1.0087 -0.05061,-0.7613 -0.144921,-0.8468 -0.92892,-0.8421 -0.531438,0 -0.735948,0.061 -0.831734,0.235 -0.104331,0.1896 -0.107177,1.2969 -0.0038,1.4793 0.145341,0.2564 1.081146,0.3413 1.50405,0.1365 l -1e-6,0 z m -19.786804,-3.5916 c 0.187694,-0.052 0.2468739,-0.1083 0.3073917,-0.2917 0.091572,-0.2774 0.051811,-1.2369 -0.056677,-1.3676 -0.1821348,-0.2195 -1.1322758,-0.3083 -1.4638117,-0.1368 -0.2792012,0.1443 -0.3767407,0.393 -0.3767407,0.9603 0,0.529 0.083325,0.7356 0.3382117,0.8384 0.1894216,0.076 0.9728194,0.075 1.2516258,0 l 0,10e-5 z m 19.701792,0 c 0.175919,-0.049 0.248482,-0.1092 0.284106,-0.2364 0.06962,-0.2485 0.03993,-1.2398 -0.0417,-1.3923 -0.132121,-0.2469 -0.77345,-0.3306 -1.362548,-0.1779 l -0.315672,0.082 0,0.8148 c 0,0.8057 0.0018,0.8156 0.157836,0.8946 0.19122,0.097 0.952069,0.1059 1.277982,0.015 z m -19.6833905,-3.5591 c 0.274141,-0.1146 0.3701293,-0.4322 0.3388363,-1.1213 -0.030653,-0.675 -0.067196,-0.7047 -0.9038188,-0.7357 l -0.6600054,-0.024 -0.1916256,0.1916 c -0.1819708,0.182 -0.1916255,0.2175 -0.1916255,0.7047 0,0.5789 0.093355,0.8294 0.3638173,0.9762 0.2239138,0.1215 0.9623102,0.1268 1.2444217,0.01 z m 19.8706435,-0.085 c 0.220056,-0.22 0.236152,-1.3377 0.02345,-1.6286 -0.104559,-0.143 -1.039586,-0.2079 -1.379432,-0.096 -0.249663,0.082 -0.279938,0.1513 -0.33488,0.7624 -0.08405,0.9348 0.125446,1.1618 1.033451,1.1198 0.429151,-0.02 0.547862,-0.048 0.657407,-0.1579 z"
       id="path4698"
       inkscape:connector-curvature="0" />
  </g>
</svg>
