<?xml version="1.0" encoding="UTF-8" standalone="no"?>
<!-- Created with Inkscape (http://www.inkscape.org/) -->

<svg
   xmlns:dc="http://purl.org/dc/elements/1.1/"
   xmlns:cc="http://creativecommons.org/ns#"
   xmlns:rdf="http://www.w3.org/1999/02/22-rdf-syntax-ns#"
   xmlns:svg="http://www.w3.org/2000/svg"
   xmlns="http://www.w3.org/2000/svg"
   xmlns:sodipodi="http://sodipodi.sourceforge.net/DTD/sodipodi-0.dtd"
   xmlns:inkscape="http://www.inkscape.org/namespaces/inkscape"
   width="32"
   height="32"
   viewBox="0 0 32 32.000001"
   id="svg4135"
   version="1.1"
   inkscape:version="0.91 r13725"
   sodipodi:docname="cinema_frame.svg">
  <defs
     id="defs4137" />
  <sodipodi:namedview
     id="base"
     pagecolor="#ffffff"
     bordercolor="#666666"
     borderopacity="1.0"
     inkscape:pageopacity="0.0"
     inkscape:pageshadow="2"
     inkscape:zoom="15.839192"
     inkscape:cx="-4.4382575"
     inkscape:cy="18.096194"
     inkscape:document-units="px"
     inkscape:current-layer="layer1"
     showgrid="false"
     units="px"
     inkscape:window-width="1920"
     inkscape:window-height="1138"
     inkscape:window-x="-8"
     inkscape:window-y="-8"
     inkscape:window-maximized="1" />
  <metadata
     id="metadata4140">
    <rdf:RDF>
      <cc:Work
         rdf:about="">
        <dc:format>image/svg+xml</dc:format>
        <dc:type
           rdf:resource="http://purl.org/dc/dcmitype/StillImage" />
        <dc:title></dc:title>
      </cc:Work>
    </rdf:RDF>
  </metadata>
  <g
     inkscape:label="Ebene 1"
     inkscape:groupmode="layer"
     id="layer1"
     transform="translate(0,-1020.3622)">
    <path
       inkscape:connector-curvature="0"
       id="path4140"
       d="m 3.2224824,1020.3622 25.5550136,0 c 1.723663,0 3.222504,1.424 3.222504,3.2226 l 0,25.5548 c 0,1.7239 -1.498841,3.2226 -3.222504,3.2226 l -25.5550136,0 C 1.4238863,1052.3622 0,1050.8635 0,1049.1396 l 0,-25.5548 c 0,-1.7986 1.4238863,-3.2226 3.2224824,-3.2226 z"
       style="fill:#000000;fill-opacity:1;fill-rule:nonzero;stroke:none" />
    <path
       inkscape:connector-curvature="0"
       id="path4142"
       d="m 27.203716,1022.3106 -22.33253,0 c -1.5737615,0 -2.8477645,1.2742 -2.8477645,2.848 l 0,22.3325 c 0,1.5738 1.274003,2.7726 2.8477645,2.7726 l 22.33253,0 c 1.57378,0 2.847792,-1.1988 2.847792,-2.7726 l 0,-22.3325 c 0,-1.5738 -1.274012,-2.848 -2.847792,-2.848 z"
       style="fill:#ffffff;fill-opacity:1;fill-rule:nonzero;stroke:none" />
    <path
       style="opacity:1;fill:#000000;fill-opacity:1;stroke:none;stroke-width:25;stroke-linecap:butt;stroke-linejoin:round;stroke-miterlimit:4;stroke-dasharray:none;stroke-dashoffset:0;stroke-opacity:1"
       d="m 7.621298,1045.4329 c -0.4827529,-0.042 -0.6530486,-0.1324 -1.0135244,-0.5368 l -0.2500259,-0.2805 0,-8.2518 0,-8.2518 0.2518485,-0.3076 c 0.3197595,-0.3904 0.4848692,-0.4497 1.4419392,-0.5181 1.0999502,-0.079 16.8131786,-0.038 17.0557386,0.044 0.279085,0.094 0.675778,0.4768 0.750775,0.7237 0.04991,0.1642 0.0632,1.895 0.0632,8.2328 0,4.4136 -0.01846,8.133 -0.04102,8.2653 -0.02878,0.1689 -0.09339,0.2987 -0.21665,0.4351 -0.303365,0.3358 -0.446833,0.3956 -1.072985,0.4474 -0.652158,0.054 -16.3509542,0.052 -16.9692944,0 l 0,0 z m 1.4093925,-1.3556 c 0.095348,-0.095 0.1492006,-0.6569 0.09662,-1.0075 -0.028559,-0.1904 -0.06093,-0.2431 -0.1910222,-0.3104 -0.2101554,-0.1086 -0.7228393,-0.1456 -0.95528,-0.069 -0.2815082,0.093 -0.3767653,0.2887 -0.3769918,0.7751 -2.99e-4,0.6398 0.1072652,0.7282 0.8595917,0.7067 0.3687889,-0.01 0.5055135,-0.033 0.5670821,-0.095 z m 11.4242265,-3.4524 c -0.01154,-1.959 -0.03118,-3.5712 -0.04363,-3.5826 -0.01246,-0.011 -1.934759,-0.037 -4.271787,-0.057 l -4.249142,-0.036 0,3.6188 0,3.6188 4.292776,0 4.292775,0 -0.02099,-3.5619 z m 3.988814,3.5071 c 0.103374,-0.036 0.169976,-0.1 0.19435,-0.1868 0.05292,-0.1886 0.0312,-0.9754 -0.03009,-1.0899 -0.10483,-0.1959 -0.61977,-0.2661 -1.079228,-0.1471 l -0.249216,0.065 -0.01434,0.6199 c -0.01799,0.7775 -0.0051,0.7943 0.610547,0.7943 0.22589,0 0.48148,-0.024 0.567976,-0.054 z m -15.5707375,-2.8071 c 0.1985918,-0.083 0.2752592,-0.2868 0.2757016,-0.733 6.624e-4,-0.668 -0.1101074,-0.7625 -0.8608335,-0.7336 -0.414249,0.016 -0.4514473,0.026 -0.5637718,0.157 -0.1054247,0.1226 -0.1202594,0.189 -0.1202594,0.5383 0,0.45 0.07467,0.6487 0.2872257,0.764 0.176601,0.096 0.7596413,0.1001 0.9819374,0.01 z m 15.6886925,-0.068 c 0.101664,-0.1018 0.113478,-0.1614 0.113478,-0.5733 0,-0.6259 -0.03084,-0.7166 -0.267648,-0.7875 -0.105554,-0.032 -0.365709,-0.049 -0.578124,-0.038 -0.324806,0.017 -0.400408,0.037 -0.475521,0.1298 -0.180029,0.2223 -0.185581,1.1178 -0.0079,1.2723 0.136472,0.1186 0.212547,0.1325 0.667426,0.1211 0.377791,-0.01 0.449677,-0.026 0.548277,-0.1244 z m -15.5816093,-2.8267 c 0.057883,-0.038 0.1195642,-0.1402 0.1370692,-0.2277 0.048284,-0.2414 0.038065,-0.7717 -0.017699,-0.9184 -0.06735,-0.1772 -0.3486357,-0.2864 -0.7566964,-0.2939 -0.2661076,-0.01 -0.3608973,0.015 -0.4735115,0.099 -0.2276481,0.1689 -0.2703835,0.2995 -0.2547063,0.7785 0.01584,0.4839 0.061293,0.5682 0.3451487,0.6402 0.2270934,0.058 0.8904039,0.01 1.0203954,-0.077 z m 15.3193243,0.07 c 0.337232,-0.073 0.376168,-0.1525 0.369329,-0.7605 -0.0065,-0.5784 -0.05163,-0.6518 -0.447266,-0.7268 -0.187602,-0.035 -0.343077,-0.029 -0.597716,0.024 -0.189288,0.039 -0.349775,0.072 -0.35664,0.072 -0.03397,0 -0.0054,1.23 0.02991,1.2855 0.09388,0.148 0.570902,0.1984 1.002377,0.1058 z m -15.3766923,-2.8558 c 0.1638382,-0.1074 0.2404708,-0.4139 0.2174527,-0.8697 -0.02243,-0.4442 -0.096523,-0.5273 -0.5168412,-0.5798 -0.4073228,-0.05 -0.7617377,0.01 -0.9076589,0.1559 -0.1142012,0.1142 -0.1202818,0.1486 -0.1040975,0.5884 0.015235,0.414 0.031041,0.4818 0.1390502,0.5968 0.067024,0.071 0.1903862,0.1508 0.2741381,0.1768 0.2175148,0.068 0.7527658,0.027 0.8979566,-0.069 z m 11.5406953,-3.495 0,-3.6137 -4.286525,0 -4.286524,0 0,3.6137 0,3.6137 4.286524,0 4.286525,0 0,-3.6137 z m 4.016809,3.5067 c 0.181345,-0.088 0.238077,-0.3076 0.205584,-0.7963 -0.03995,-0.601 -0.114412,-0.6685 -0.733361,-0.6648 -0.419559,0 -0.581015,0.048 -0.656636,0.1855 -0.08237,0.1497 -0.08461,1.0239 -0.003,1.1679 0.114744,0.2024 0.853541,0.2694 1.187414,0.1077 l -1e-6,0 z m -15.6212413,-2.8355 c 0.1481803,-0.041 0.1949015,-0.085 0.2426789,-0.2303 0.072294,-0.219 0.040904,-0.9765 -0.044745,-1.0796 -0.1437914,-0.1733 -0.8939065,-0.2434 -1.1556468,-0.108 -0.2204231,0.1139 -0.2974284,0.3102 -0.2974284,0.7581 0,0.4176 0.065783,0.5807 0.2670107,0.6619 0.1495441,0.06 0.7680192,0.059 0.9881307,0 l 0,10e-5 z m 15.5541263,0 c 0.138884,-0.039 0.196171,-0.086 0.224295,-0.1866 0.05496,-0.1962 0.03152,-0.9788 -0.03292,-1.0992 -0.104307,-0.1949 -0.610622,-0.261 -1.075702,-0.1404 l -0.249216,0.065 0,0.6433 c 0,0.6361 0.0014,0.6439 0.124608,0.7062 0.150964,0.077 0.751638,0.084 1.008939,0.012 z m -15.5395987,-2.8098 c 0.2164282,-0.091 0.2922088,-0.3412 0.2675037,-0.8852 -0.0242,-0.5329 -0.05305,-0.5564 -0.7135448,-0.5809 l -0.5210596,-0.019 -0.1512841,0.1513 c -0.1436619,0.1437 -0.1512841,0.1717 -0.1512841,0.5563 0,0.457 0.073702,0.6548 0.2872257,0.7707 0.1767749,0.096 0.7597225,0.1001 0.9824432,0.01 z m 15.6874307,-0.067 c 0.173729,-0.1737 0.186436,-1.0561 0.01851,-1.2857 -0.08255,-0.1129 -0.82073,-0.1642 -1.089031,-0.076 -0.197103,0.065 -0.221005,0.1194 -0.26438,0.6019 -0.06636,0.738 0.09904,0.9172 0.815886,0.884 0.338805,-0.016 0.432525,-0.038 0.519008,-0.1246 z"
       id="path4698"
       inkscape:connector-curvature="0" />
  </g>
</svg>
