<?xml version="1.0" encoding="UTF-8" standalone="no"?>
<!-- Created with Inkscape (http://www.inkscape.org/) -->

<svg
   xmlns:dc="http://purl.org/dc/elements/1.1/"
   xmlns:cc="http://creativecommons.org/ns#"
   xmlns:rdf="http://www.w3.org/1999/02/22-rdf-syntax-ns#"
   xmlns:svg="http://www.w3.org/2000/svg"
   xmlns="http://www.w3.org/2000/svg"
   xmlns:sodipodi="http://sodipodi.sourceforge.net/DTD/sodipodi-0.dtd"
   xmlns:inkscape="http://www.inkscape.org/namespaces/inkscape"
   width="32"
   height="32"
   viewBox="0 0 32 32.000001"
   id="svg4135"
   version="1.1"
   inkscape:version="0.91 r13725"
   sodipodi:docname="dentist.svg">
  <defs
     id="defs4137" />
  <sodipodi:namedview
     id="base"
     pagecolor="#ffffff"
     bordercolor="#666666"
     borderopacity="1.0"
     inkscape:pageopacity="0.0"
     inkscape:pageshadow="2"
     inkscape:zoom="7.9195959"
     inkscape:cx="-0.62011222"
     inkscape:cy="6.3515896"
     inkscape:document-units="px"
     inkscape:current-layer="layer1"
     showgrid="false"
     units="px"
     inkscape:window-width="1920"
     inkscape:window-height="1138"
     inkscape:window-x="-8"
     inkscape:window-y="-8"
     inkscape:window-maximized="1" />
  <metadata
     id="metadata4140">
    <rdf:RDF>
      <cc:Work
         rdf:about="">
        <dc:format>image/svg+xml</dc:format>
        <dc:type
           rdf:resource="http://purl.org/dc/dcmitype/StillImage" />
        <dc:title></dc:title>
      </cc:Work>
    </rdf:RDF>
  </metadata>
  <g
     inkscape:label="Ebene 1"
     inkscape:groupmode="layer"
     id="layer1"
     transform="translate(0,-1020.3622)">
    <path
       style="opacity:1;fill:#000000;fill-opacity:1;stroke:none;stroke-width:25;stroke-linecap:butt;stroke-linejoin:round;stroke-miterlimit:4;stroke-dasharray:none;stroke-dashoffset:0;stroke-opacity:1"
       d="m 11.536075,1049.3647 c -0.600207,-0.2959 -1.351352,-1.1719 -1.8444235,-2.151 -0.8607236,-1.7092 -0.8655806,-1.7456 -0.9751163,-7.3019 -0.1006045,-5.1032 -0.1560439,-5.7678 -0.6325261,-7.5823 -0.1450121,-0.5522 -0.4338808,-1.6574 -0.6419305,-2.4561 -0.2248573,-0.8631 -0.4070998,-1.9428 -0.4493519,-2.662 -0.089677,-1.5265 0.1340372,-2.2934 0.9030833,-3.096 0.4888656,-0.5102 0.5831291,-0.5554 1.1586224,-0.5554 0.8288991,0 1.8231426,0.2689 3.2680346,0.8839 1.643052,0.6993 2.44723,0.8838 3.851207,0.8838 1.445232,0 2.200605,-0.1811 3.902483,-0.9356 1.306053,-0.5791 2.291705,-0.8321 3.241556,-0.8321 0.413114,0 0.619608,0.082 0.926054,0.3684 0.608316,0.5682 1.03514,1.6294 1.11164,2.7636 0.05966,0.8845 0.0025,1.2153 -0.636651,3.6865 -1.102492,4.2624 -1.104297,4.2775 -1.06705,8.9044 0.02751,3.4175 -0.0017,4.2226 -0.19015,5.2377 -0.302242,1.6283 -0.647399,2.6238 -1.212354,3.4965 -1.099471,1.6984 -3.04507,2.127 -3.04507,0.6708 0,-0.2561 0.17493,-1.2842 0.388734,-2.2848 0.312127,-1.4608 0.386962,-2.1043 0.379737,-3.2654 -0.01446,-2.3234 -0.26114,-3.282 -1.021379,-3.9688 -0.62374,-0.5635 -1.276871,-0.7398 -2.779404,-0.7503 -1.545502,-0.011 -2.305332,0.2017 -2.920153,0.8166 -0.694457,0.6944 -0.865399,1.4191 -0.891096,3.7775 -0.01864,1.7108 0.0203,2.1316 0.317565,3.4314 0.357884,1.5649 0.42392,2.4798 0.208099,2.8831 -0.162509,0.3036 -0.775816,0.3207 -1.35016,0.038 z"
       id="path4698"
       inkscape:connector-curvature="0" />
  </g>
</svg>
