<?xml version="1.0" encoding="UTF-8" standalone="no"?>
<!-- Created with Inkscape (http://www.inkscape.org/) -->

<svg
   xmlns:dc="http://purl.org/dc/elements/1.1/"
   xmlns:cc="http://creativecommons.org/ns#"
   xmlns:rdf="http://www.w3.org/1999/02/22-rdf-syntax-ns#"
   xmlns:svg="http://www.w3.org/2000/svg"
   xmlns="http://www.w3.org/2000/svg"
   xmlns:sodipodi="http://sodipodi.sourceforge.net/DTD/sodipodi-0.dtd"
   xmlns:inkscape="http://www.inkscape.org/namespaces/inkscape"
   width="32"
   height="32"
   viewBox="0 0 32 32.000001"
   id="svg4135"
   version="1.1"
   inkscape:version="0.91 r13725"
   sodipodi:docname="fast_food_frame.svg">
  <defs
     id="defs4137" />
  <sodipodi:namedview
     id="base"
     pagecolor="#ffffff"
     bordercolor="#666666"
     borderopacity="1.0"
     inkscape:pageopacity="0.0"
     inkscape:pageshadow="2"
     inkscape:zoom="11.2"
     inkscape:cx="-19.736237"
     inkscape:cy="22.545919"
     inkscape:document-units="px"
     inkscape:current-layer="layer1"
     showgrid="false"
     units="px"
     inkscape:window-width="1920"
     inkscape:window-height="1138"
     inkscape:window-x="-8"
     inkscape:window-y="-8"
     inkscape:window-maximized="1" />
  <metadata
     id="metadata4140">
    <rdf:RDF>
      <cc:Work
         rdf:about="">
        <dc:format>image/svg+xml</dc:format>
        <dc:type
           rdf:resource="http://purl.org/dc/dcmitype/StillImage" />
        <dc:title></dc:title>
      </cc:Work>
    </rdf:RDF>
  </metadata>
  <g
     inkscape:label="Ebene 1"
     inkscape:groupmode="layer"
     id="layer1"
     transform="translate(0,-1020.3622)">
    <path
       inkscape:connector-curvature="0"
       id="path4140"
       d="m 3.2224826,1020.3622 25.5550134,0 c 1.723663,0 3.222504,1.424 3.222504,3.2226 l 0,25.5548 c 0,1.7239 -1.498841,3.2226 -3.222504,3.2226 l -25.5550134,0 C 1.4238863,1052.3622 0,1050.8635 0,1049.1396 l 0,-25.5548 c 0,-1.7986 1.4238863,-3.2226 3.2224826,-3.2226 z"
       style="fill:#000000;fill-opacity:1;fill-rule:nonzero;stroke:none" />
    <path
       inkscape:connector-curvature="0"
       id="path4142"
       d="m 27.203716,1022.3106 -22.3325304,0 c -1.573761,0 -2.8477641,1.2742 -2.8477641,2.848 l 0,22.3325 c 0,1.5738 1.2740031,2.7726 2.8477641,2.7726 l 22.3325304,0 c 1.57378,0 2.847792,-1.1988 2.847792,-2.7726 l 0,-22.3325 c 0,-1.5738 -1.274012,-2.848 -2.847792,-2.848 z"
       style="fill:#ffffff;fill-opacity:1;fill-rule:nonzero;stroke:none" />
    <path
       style="opacity:1;fill:#000000;fill-opacity:1;stroke:none;stroke-width:25;stroke-linecap:butt;stroke-linejoin:round;stroke-miterlimit:4;stroke-dasharray:none;stroke-dashoffset:0;stroke-opacity:1"
       d="m 6.2268412,1034.0987 c 0.050643,-1.4181 0.1354003,-1.7476 0.6457614,-2.5107 0.8771058,-1.3114 2.4168921,-2.2903 4.0074034,-2.5477 0.711381,-0.1151 8.186721,-0.1783 9.339962,-0.079 1.678316,0.1446 2.908846,0.6974 4.033626,1.812 0.544189,0.5392 0.724167,0.7768 0.974559,1.2861 0.348155,0.7081 0.421976,1.0593 0.490436,2.3332 l 0.04838,0.9002 -9.791387,0 -9.7913855,0 0.042645,-1.1942 z"
       id="path4710"
       inkscape:connector-curvature="0" />
    <path
       style="opacity:1;fill:#000000;fill-opacity:1;stroke:none;stroke-width:25;stroke-linecap:butt;stroke-linejoin:round;stroke-miterlimit:4;stroke-dasharray:none;stroke-dashoffset:0;stroke-opacity:1"
       d="m 6.0325545,1038.4601 c -0.6185973,-0.046 -0.66196,-0.061 -0.8694908,-0.2928 -0.312847,-0.3502 -0.2193729,-0.6842 0.2658886,-0.9501 0.20776,-0.1138 0.9645553,-0.1254 9.4628497,-0.1435 5.080366,-0.011 9.755755,0.01 10.389754,0.041 l 1.152723,0.061 0.247812,0.2704 c 0.136296,0.1487 0.24781,0.3333 0.24781,0.4103 0,0.2407 -0.241547,0.4471 -0.624658,0.5339 -0.408383,0.092 -19.1006288,0.1574 -20.2726885,0.071 z"
       id="path4712"
       inkscape:connector-curvature="0" />
    <path
       style="opacity:1;fill:#000000;fill-opacity:1;stroke:none;stroke-width:25;stroke-linecap:butt;stroke-linejoin:round;stroke-miterlimit:4;stroke-dasharray:none;stroke-dashoffset:0;stroke-opacity:1"
       d="m 10.027381,1043.3798 c -2.5248309,-0.048 -2.4395296,-0.03 -3.1050565,-0.6521 -0.5414102,-0.5064 -0.6650498,-0.7965 -0.702198,-1.6475 l -0.03128,-0.7164 9.7900725,0 9.790071,0 -0.04908,0.5327 c -0.110635,1.201 -0.4175,1.7081 -1.370382,2.2647 l -0.495073,0.2891 -5.792826,-0.014 c -3.186054,-0.01 -6.801466,-0.033 -8.034248,-0.056 z"
       id="path4714"
       inkscape:connector-curvature="0" />
  </g>
</svg>
