<?xml version="1.0" encoding="UTF-8" standalone="no"?>
<!-- Created with Inkscape (http://www.inkscape.org/) -->

<svg
   xmlns:dc="http://purl.org/dc/elements/1.1/"
   xmlns:cc="http://creativecommons.org/ns#"
   xmlns:rdf="http://www.w3.org/1999/02/22-rdf-syntax-ns#"
   xmlns:svg="http://www.w3.org/2000/svg"
   xmlns="http://www.w3.org/2000/svg"
   xmlns:sodipodi="http://sodipodi.sourceforge.net/DTD/sodipodi-0.dtd"
   xmlns:inkscape="http://www.inkscape.org/namespaces/inkscape"
   width="32"
   height="32"
   viewBox="0 0 32 32.000001"
   id="svg4137"
   version="1.1"
   inkscape:version="0.91 r13725"
   sodipodi:docname="fountain_frame.svg">
  <defs
     id="defs4139" />
  <sodipodi:namedview
     id="base"
     pagecolor="#ffffff"
     bordercolor="#666666"
     borderopacity="1.0"
     inkscape:pageopacity="0.0"
     inkscape:pageshadow="2"
     inkscape:zoom="15.839192"
     inkscape:cx="10.496034"
     inkscape:cy="22.23862"
     inkscape:document-units="px"
     inkscape:current-layer="layer1"
     showgrid="false"
     units="px"
     inkscape:window-width="1920"
     inkscape:window-height="1138"
     inkscape:window-x="-8"
     inkscape:window-y="-8"
     inkscape:window-maximized="1" />
  <metadata
     id="metadata4142">
    <rdf:RDF>
      <cc:Work
         rdf:about="">
        <dc:format>image/svg+xml</dc:format>
        <dc:type
           rdf:resource="http://purl.org/dc/dcmitype/StillImage" />
        <dc:title></dc:title>
      </cc:Work>
    </rdf:RDF>
  </metadata>
  <g
     inkscape:label="Ebene 1"
     inkscape:groupmode="layer"
     id="layer1"
     transform="translate(0,-1020.3622)">
    <rect
       style="opacity:1;fill:#000000;fill-opacity:1;stroke:none;stroke-width:2.09500003;stroke-linecap:butt;stroke-linejoin:round;stroke-miterlimit:4;stroke-dasharray:none;stroke-dashoffset:0;stroke-opacity:1"
       id="rect4154"
       width="32"
       height="31.99999"
       x="0"
       y="1020.3622"
       ry="3.2261746" />
    <rect
       style="opacity:1;fill:#ffffff;fill-opacity:1;stroke:none;stroke-width:2.09500003;stroke-linecap:butt;stroke-linejoin:round;stroke-miterlimit:4;stroke-dasharray:none;stroke-dashoffset:0;stroke-opacity:1"
       id="rect4154-7"
       width="28"
       height="28"
       x="-30.045902"
       y="1022.3605"
       ry="2.8229036"
       transform="scale(-1,1)" />
    <path
       style="opacity:1;fill:#000000;fill-opacity:1;stroke:none;stroke-width:20.44091034;stroke-linecap:round;stroke-linejoin:round;stroke-miterlimit:4;stroke-dasharray:none;stroke-opacity:1"
       d="m 13.04881,1047.41 c -0.216204,-0.094 -0.375224,-0.4108 -0.319469,-0.6365 0.01996,-0.08 0.101824,-0.215 0.18227,-0.2995 0.13839,-0.1456 0.173239,-0.1539 0.649278,-0.1539 0.972493,0 1.485434,-0.274 1.799507,-0.9613 0.125309,-0.2742 0.165923,-0.4553 0.182546,-0.8139 l 0.02151,-0.4612 -0.271299,-4e-4 c -0.725442,-8e-4 -1.826314,-0.2579 -2.451776,-0.5726 -0.553863,-0.2785 -0.799931,-0.4732 -1.67728,-1.3269 -1.011371,-0.9839 -1.3059263,-1.2337 -1.9413546,-1.6462 -0.8623371,-0.56 -2.0665782,-1.054 -3.507154,-1.4389 -0.35217,-0.094 -0.6959435,-0.2075 -0.7639371,-0.252 -0.1466749,-0.096 -0.3009965,-0.3996 -0.3009965,-0.5918 0,-0.1991 0.2211484,-0.4962 0.4768833,-0.6411 l 0.2219778,-0.1257 10.9423041,-9e-4 10.942307,0 0.195903,0.1721 c 0.352698,0.3096 0.318546,0.829 -0.07142,1.0863 -0.112438,0.074 -0.665786,0.2865 -1.229641,0.4722 -2.104574,0.6926 -3.0879,1.2839 -4.873239,2.9306 -0.948181,0.8746 -1.678499,1.3285 -2.605505,1.6192 -0.426391,0.1339 -1.453002,0.3169 -1.776575,0.3169 -0.139675,0 -0.14658,0.015 -0.14658,0.2958 0,0.6469 0.288374,1.3216 0.688933,1.6118 0.319427,0.2315 0.704179,0.3288 1.298453,0.3288 0.430123,0 0.536705,0.019 0.656719,0.1126 0.213656,0.1679 0.288591,0.4451 0.186477,0.6895 -0.158832,0.3801 -0.0864,0.3722 -3.37292,0.3697 -2.431506,0 -2.984402,-0.015 -3.13579,-0.082 z m 4.182784,-4.7827 c 1.361411,-0.1687 1.983484,-0.5041 3.46491,-1.8676 0.718989,-0.6618 1.440963,-1.2191 2.063591,-1.5931 l 0.470175,-0.2822 -7.011567,0 -7.0115683,10e-5 0.4718129,0.2807 c 0.7525414,0.4476 1.2557294,0.8548 2.2173114,1.7944 0.495012,0.4837 1.0563,0.9804 1.247313,1.1038 0.411533,0.266 0.922705,0.4459 1.540417,0.5419 0.564333,0.088 1.923497,0.099 2.547605,0.021 z"
       id="path6607"
       inkscape:connector-curvature="0" />
    <path
       style="opacity:1;fill:#000000;fill-opacity:1;stroke:none;stroke-width:23.12624931;stroke-linecap:round;stroke-linejoin:round;stroke-miterlimit:4;stroke-dasharray:none;stroke-opacity:1"
       d="m 15.541249,1035.4038 c -0.01873,-1.3885 -0.02704,-1.4856 -0.152484,-1.8013 -0.290277,-0.7302 -0.941932,-1.1397 -1.715224,-1.0776 -0.888992,0.071 -1.482229,0.7109 -1.582567,1.7064 -0.05115,0.5074 -0.114435,0.6506 -0.338839,0.7666 -0.278977,0.1443 -0.540037,0.088 -0.740673,-0.1597 -0.125025,-0.1546 -0.132081,-0.7772 -0.01415,-1.2397 0.210368,-0.8239 0.810731,-1.6106 1.480389,-1.9397 0.926688,-0.4554 2.039284,-0.4157 2.859476,0.1021 l 0.229656,0.1451 -0.02732,-0.8299 c -0.02304,-0.6945 -0.05116,-0.9027 -0.173374,-1.2771 -0.371807,-1.139 -1.153065,-1.9178 -2.24839,-2.2412 -0.445481,-0.1313 -1.281539,-0.1313 -1.730268,3e-4 -1.5214036,0.4464 -2.4797059,1.8237 -2.4868544,3.5743 -9.517e-4,0.2331 -0.027942,0.2979 -0.1912058,0.4612 -0.2676141,0.2675 -0.5290212,0.2651 -0.802243,-0.01 l -0.1984224,-0.1984 0.03495,-0.5704 c 0.1178986,-1.9243 1.0835532,-3.4156 2.6865026,-4.1488 0.623415,-0.2854 1.090175,-0.383 1.823869,-0.382 0.748947,0 1.212445,0.098 1.82596,0.3811 0.791761,0.3658 1.412753,0.9016 1.8607,1.6053 l 0.202509,0.3181 0.148293,-0.2623 c 0.398299,-0.7042 1.099652,-1.3514 1.861432,-1.7179 1.176736,-0.5659 2.657085,-0.5657 3.850644,6e-4 1.520832,0.7218 2.53313,2.3606 2.567444,4.1566 l 0.01109,0.577 -0.182567,0.1637 c -0.30508,0.2737 -0.763904,0.1916 -0.897914,-0.1602 -0.03161,-0.083 -0.07368,-0.3594 -0.09349,-0.6139 -0.07946,-1.0212 -0.406309,-1.7868 -1.034022,-2.4219 -0.652975,-0.6607 -1.352661,-0.9457 -2.318413,-0.9444 -0.91861,0 -1.609565,0.2837 -2.243502,0.9171 -0.69515,0.6948 -0.994748,1.514 -1.051192,2.8746 l -0.03092,0.7452 0.18009,-0.1204 c 0.311473,-0.2079 0.649271,-0.3419 1.088798,-0.4315 1.492386,-0.3044 3.009462,0.7469 3.341922,2.3158 0.193538,0.9135 0.02548,1.3691 -0.504705,1.3691 -0.362373,0 -0.587046,-0.2555 -0.587046,-0.6676 0,-0.118 -0.03899,-0.3643 -0.08663,-0.5473 -0.218876,-0.8402 -0.834794,-1.3269 -1.682837,-1.3296 -0.692945,0 -1.209073,0.342 -1.51499,1.0102 -0.169834,0.371 -0.233064,1.008 -0.235828,2.3757 l -0.0021,0.9925 -0.582928,0 -0.582933,0 -0.01996,-1.4677 z"
       id="path6609"
       inkscape:connector-curvature="0" />
  </g>
</svg>
