<?xml version="1.0" encoding="UTF-8" standalone="no"?>
<!-- Created with Inkscape (http://www.inkscape.org/) -->

<svg
   xmlns:dc="http://purl.org/dc/elements/1.1/"
   xmlns:cc="http://creativecommons.org/ns#"
   xmlns:rdf="http://www.w3.org/1999/02/22-rdf-syntax-ns#"
   xmlns:svg="http://www.w3.org/2000/svg"
   xmlns="http://www.w3.org/2000/svg"
   xmlns:sodipodi="http://sodipodi.sourceforge.net/DTD/sodipodi-0.dtd"
   xmlns:inkscape="http://www.inkscape.org/namespaces/inkscape"
   width="32"
   height="32"
   viewBox="0 0 32 32.000001"
   id="svg4137"
   version="1.1"
   inkscape:version="0.91 r13725"
   sodipodi:docname="helipad.svg">
  <defs
     id="defs4139" />
  <sodipodi:namedview
     id="base"
     pagecolor="#ffffff"
     bordercolor="#666666"
     borderopacity="1.0"
     inkscape:pageopacity="0.0"
     inkscape:pageshadow="2"
     inkscape:zoom="15.839192"
     inkscape:cx="17.290349"
     inkscape:cy="17.620771"
     inkscape:document-units="px"
     inkscape:current-layer="layer1"
     showgrid="false"
     units="px"
     inkscape:window-width="1920"
     inkscape:window-height="1138"
     inkscape:window-x="-8"
     inkscape:window-y="-8"
     inkscape:window-maximized="1" />
  <metadata
     id="metadata4142">
    <rdf:RDF>
      <cc:Work
         rdf:about="">
        <dc:format>image/svg+xml</dc:format>
        <dc:type
           rdf:resource="http://purl.org/dc/dcmitype/StillImage" />
        <dc:title></dc:title>
      </cc:Work>
    </rdf:RDF>
  </metadata>
  <g
     inkscape:label="Ebene 1"
     inkscape:groupmode="layer"
     id="layer1"
     transform="translate(0,-1020.3622)">
    <path
       style="opacity:1;fill:#ffffff;fill-opacity:1;stroke:#000000;stroke-width:1.361413;stroke-linecap:round;stroke-linejoin:round;stroke-miterlimit:4;stroke-dasharray:none;stroke-dashoffset:0;stroke-opacity:1"
       id="path5991"
       sodipodi:type="arc"
       sodipodi:cx="16.00456"
       sodipodi:cy="1036.3577"
       sodipodi:rx="14.439962"
       sodipodi:ry="14.439962"
       sodipodi:start="0"
       sodipodi:end="6.2682802"
       sodipodi:open="true"
       d="m 30.444523,1036.3577 a 14.439962,14.439962 0 0 1 -14.386155,14.4398 14.439962,14.439962 0 0 1 -14.4933689,-14.3322 14.439962,14.439962 0 0 1 14.2781429,-14.5467 14.439962,14.439962 0 0 1 14.599777,14.2238" />
    <flowRoot
       xml:space="preserve"
       id="flowRoot7175"
       style="font-style:normal;font-variant:normal;font-weight:normal;font-stretch:condensed;font-size:27.66237831px;line-height:125%;font-family:Arial;-inkscape-font-specification:'Arial, Condensed';text-align:start;letter-spacing:0px;word-spacing:0px;writing-mode:lr-tb;text-anchor:start;fill:#000000;fill-opacity:1;stroke:none;stroke-width:1px;stroke-linecap:butt;stroke-linejoin:miter;stroke-opacity:1"
       transform="translate(0.88388399,1021.2369)"><flowRegion
         id="flowRegion7177"><rect
           id="rect7179"
           width="58.001759"
           height="56.235901"
           x="6.9386272"
           y="-2.8594587"
           style="font-style:normal;font-variant:normal;font-weight:normal;font-stretch:condensed;font-size:27.66237831px;line-height:125%;font-family:Arial;-inkscape-font-specification:'Arial, Condensed';text-align:start;writing-mode:lr-tb;text-anchor:start;fill:#000000;fill-opacity:1;stroke:none;stroke-opacity:1" /></flowRegion><flowPara
         id="flowPara7181">H</flowPara></flowRoot>    <path
       style="fill:#ffffff;fill-opacity:1;stroke:none;stroke-width:6.25;stroke-linecap:round;stroke-linejoin:miter;stroke-miterlimit:4;stroke-dasharray:none;stroke-opacity:1"
       d="m 13.683637,1049.8701 c -4.887602,-0.8557 -9.0974283,-4.4668 -10.6606229,-9.1443 -0.5253619,-1.5721 -0.6730845,-2.5366 -0.671662,-4.3854 0.00146,-1.8988 0.1665507,-2.9146 0.7362062,-4.5299 1.3665165,-3.8748 4.4965735,-7.0049 8.3713827,-8.3714 1.621077,-0.5717 2.63013,-0.735 4.529903,-0.7333 1.86622,0 2.601717,0.1103 4.198447,0.6202 4.874912,1.5569 8.507494,5.7809 9.343438,10.8647 0.256654,1.5608 0.164886,3.9182 -0.208777,5.3632 -1.337713,5.173 -5.074335,8.8816 -10.239516,10.1628 -1.244797,0.3087 -4.055342,0.3886 -5.398799,0.1534 z m -1.89324,-7.8949 0,-4.6404 4.143204,0 4.143204,0 0,4.6404 0,4.6404 1.160097,0 1.160098,0 0,-9.9437 0,-9.9437 -1.160098,0 -1.160097,0 0,4.0327 0,4.0327 -4.143204,0 -4.143204,0 0,-4.0327 0,-4.0327 -1.160096,0 -1.1600965,0 0,9.9437 0,9.9437 1.1600965,0 1.160096,0 0,-4.6404 z"
       id="path10725"
       inkscape:connector-curvature="0" />
  </g>
</svg>
