<?xml version="1.0" encoding="UTF-8" standalone="no"?>
<!-- Created with Inkscape (http://www.inkscape.org/) -->

<svg
   xmlns:dc="http://purl.org/dc/elements/1.1/"
   xmlns:cc="http://creativecommons.org/ns#"
   xmlns:rdf="http://www.w3.org/1999/02/22-rdf-syntax-ns#"
   xmlns:svg="http://www.w3.org/2000/svg"
   xmlns="http://www.w3.org/2000/svg"
   xmlns:sodipodi="http://sodipodi.sourceforge.net/DTD/sodipodi-0.dtd"
   xmlns:inkscape="http://www.inkscape.org/namespaces/inkscape"
   width="32"
   height="32"
   viewBox="0 0 32 32.000001"
   id="svg4137"
   version="1.1"
   inkscape:version="0.91 r13725"
   sodipodi:docname="hindu.svg">
  <defs
     id="defs4139">
    <pattern
       y="0"
       x="0"
       height="6"
       width="6"
       patternUnits="userSpaceOnUse"
       id="EMFhbasepattern" />
  </defs>
  <sodipodi:namedview
     id="base"
     pagecolor="#ffffff"
     bordercolor="#666666"
     borderopacity="1.0"
     inkscape:pageopacity="0.0"
     inkscape:pageshadow="2"
     inkscape:zoom="15.839192"
     inkscape:cx="3.4954534"
     inkscape:cy="17.620771"
     inkscape:document-units="px"
     inkscape:current-layer="layer1"
     showgrid="false"
     units="px"
     inkscape:window-width="1920"
     inkscape:window-height="1138"
     inkscape:window-x="-8"
     inkscape:window-y="-8"
     inkscape:window-maximized="1" />
  <metadata
     id="metadata4142">
    <rdf:RDF>
      <cc:Work
         rdf:about="">
        <dc:format>image/svg+xml</dc:format>
        <dc:type
           rdf:resource="http://purl.org/dc/dcmitype/StillImage" />
        <dc:title></dc:title>
      </cc:Work>
    </rdf:RDF>
  </metadata>
  <g
     inkscape:label="Ebene 1"
     inkscape:groupmode="layer"
     id="layer1"
     transform="translate(0,-1020.3622)">
    <path
       style="fill:#000000;fill-opacity:1;stroke:none;stroke-width:2.18499994;stroke-miterlimit:4;stroke-dasharray:none;stroke-opacity:1"
       d="m 11.280818,1047.8027 c -1.9278954,-0.3868 -4.4370717,-1.7105 -5.5291054,-2.917 -0.9820385,-1.0851 -1.7499147,-2.522 -2.0771025,-3.8868 -0.1965966,-0.8198 -0.2777299,-2.9321 -0.1164614,-3.0318 0.042449,-0.025 0.1973056,0.4647 0.3441222,1.0911 0.5488044,2.3412 1.8992097,4.3822 3.5330741,5.3398 0.5348808,0.3133 1.9314882,0.6875 3.094939,0.829 1.559687,0.1896 3.567785,-0.1751 4.747958,-0.862 0.640537,-0.3728 1.417829,-1.145 1.650106,-1.6392 0.272009,-0.5787 0.273767,-1.491 0.004,-2.0483 -0.480023,-0.9916 -2.15824,-2.0845 -3.331069,-2.1694 -0.412254,-0.03 -0.755763,0.019 -1.252317,0.1791 -0.376334,0.1208 -0.696961,0.203 -0.712505,0.1825 -0.100655,-0.1339 -1.7203833,-3.2261 -1.7194203,-3.2825 5.85e-4,-0.039 0.4165903,-0.2849 0.9242983,-0.5474 2.535723,-1.311 3.308975,-2.1325 3.313467,-3.5202 0.0035,-1.0666 -0.4605,-1.6778 -1.349571,-1.7781 -0.602797,-0.069 -1.174787,0.2216 -2.54414,1.2876 -1.0244109,0.7974 -1.2218067,0.9198 -1.2235036,0.7586 -3.9e-4,-0.04 -0.3481173,-0.4625 -0.7726542,-0.9386 l -0.7718819,-0.8657 0.2607873,-0.2179 c 1.3489621,-1.1279 3.4703844,-1.8886 4.9541024,-1.7763 1.52625,0.1153 2.539727,0.89 3.004851,2.2967 0.266147,0.805 0.179042,2.2183 -0.183196,2.9725 -0.327402,0.6815 -1.237319,1.6819 -1.936803,2.1294 -0.467987,0.2993 -0.487697,0.3265 -0.255518,0.3536 0.335861,0.038 4.924724,-0.6707 4.998375,-0.7732 0.01428,-0.02 0.240481,-0.3432 0.502668,-0.7185 0.616198,-0.8822 1.455386,-1.7647 1.948565,-2.0487 0.77345,-0.4457 2.663207,-0.612 3.408047,-0.3 2.107615,0.8831 3.855565,4.3269 3.855565,7.5962 0,2.3579 -0.984345,4.2452 -2.376516,4.5568 -1.319482,0.2952 -2.887095,-0.5987 -3.959705,-2.2583 -0.613801,-0.9497 -0.814369,-1.9214 -0.591614,-2.8662 l 0.06896,-0.2925 0.123396,0.4388 c 0.202446,0.7198 0.598352,1.3489 1.198777,1.9047 0.619385,0.5733 0.984548,0.7014 1.66732,0.5842 0.224507,-0.039 0.502719,-0.076 0.618254,-0.084 0.115531,-0.011 0.18752,-0.052 0.159971,-0.096 -0.02755,-0.045 0.05938,-0.1981 0.193176,-0.3412 0.366245,-0.3918 0.547727,-0.8156 0.645867,-1.5087 0.253392,-1.7892 -0.602465,-4.3148 -1.855198,-5.4747 -0.741343,-0.6864 -1.192029,-0.8374 -1.748943,-0.5862 -0.592929,0.2672 -1.187863,0.991 -1.546779,1.8814 -0.180714,0.4483 -0.439911,0.8942 -0.621527,1.0693 -0.378632,0.3651 -1.276289,0.8195 -2.066502,1.0462 -0.321744,0.092 -0.60332,0.1844 -0.625729,0.2047 -0.0224,0.019 0.267602,0.3549 0.644464,0.7436 1.101302,1.136 1.587103,2.3371 1.587103,3.9242 0,2.9997 -1.859423,4.8875 -5.375624,5.4578 -1.083114,0.1756 -2.042925,0.1767 -2.908837,0 l 0,0 z"
       id="path44341"
       inkscape:connector-curvature="0" />
    <path
       style="fill:#000000;fill-opacity:1;stroke:none;stroke-width:2.18499994;stroke-miterlimit:4;stroke-dasharray:none;stroke-opacity:1"
       d="m 21.120778,1029.9191 c -1.619748,-0.2276 -2.773009,-0.8344 -4.088709,-2.1511 -0.966803,-0.9677 -1.457547,-1.7469 -1.643721,-2.6101 -0.08963,-0.4154 0.01683,-0.5874 0.134383,-0.217 0.109018,0.3434 1.108184,1.3373 1.755277,1.7461 2.440826,1.5414 6.066224,1.7511 8.080707,0.4674 l 0.476906,-0.304 0.733798,0.7653 0.733799,0.7654 -0.234794,0.1903 c -0.554455,0.4489 -1.788623,0.9513 -2.937749,1.1959 -0.829236,0.1764 -2.304858,0.2509 -3.009897,0.1518 z"
       id="path44343"
       inkscape:connector-curvature="0" />
    <path
       style="fill:#000000;fill-opacity:1;stroke:none;stroke-width:2.18499994;stroke-miterlimit:4;stroke-dasharray:none;stroke-opacity:1"
       d="m 20.445645,1025.9077 c -0.294932,-0.4743 -0.536242,-0.8926 -0.536242,-0.9291 0,-0.037 0.40643,-0.3231 0.903178,-0.6361 l 0.903177,-0.5694 0.577526,0.8975 0.57753,0.8976 -0.846966,0.5429 c -0.465834,0.2987 -0.890842,0.5691 -0.944468,0.6009 -0.05362,0.031 -0.338805,-0.33 -0.633735,-0.8043 z"
       id="path44345"
       inkscape:connector-curvature="0" />
  </g>
</svg>
