<?xml version="1.0" encoding="UTF-8" standalone="no"?>
<!-- Created with Inkscape (http://www.inkscape.org/) -->

<svg
   xmlns:dc="http://purl.org/dc/elements/1.1/"
   xmlns:cc="http://creativecommons.org/ns#"
   xmlns:rdf="http://www.w3.org/1999/02/22-rdf-syntax-ns#"
   xmlns:svg="http://www.w3.org/2000/svg"
   xmlns="http://www.w3.org/2000/svg"
   xmlns:sodipodi="http://sodipodi.sourceforge.net/DTD/sodipodi-0.dtd"
   xmlns:inkscape="http://www.inkscape.org/namespaces/inkscape"
   width="32"
   height="32"
   viewBox="0 0 32 32.000001"
   id="svg4135"
   version="1.1"
   inkscape:version="0.91 r13725"
   sodipodi:docname="hostel_frame_color.svg">
  <defs
     id="defs4137" />
  <sodipodi:namedview
     id="base"
     pagecolor="#ffffff"
     bordercolor="#666666"
     borderopacity="1.0"
     inkscape:pageopacity="0.0"
     inkscape:pageshadow="2"
     inkscape:zoom="11.2"
     inkscape:cx="-39.245166"
     inkscape:cy="22.501276"
     inkscape:document-units="px"
     inkscape:current-layer="layer1"
     showgrid="false"
     units="px"
     inkscape:window-width="1920"
     inkscape:window-height="1138"
     inkscape:window-x="-8"
     inkscape:window-y="-8"
     inkscape:window-maximized="1" />
  <metadata
     id="metadata4140">
    <rdf:RDF>
      <cc:Work
         rdf:about="">
        <dc:format>image/svg+xml</dc:format>
        <dc:type
           rdf:resource="http://purl.org/dc/dcmitype/StillImage" />
        <dc:title></dc:title>
      </cc:Work>
    </rdf:RDF>
  </metadata>
  <g
     inkscape:label="Ebene 1"
     inkscape:groupmode="layer"
     id="layer1"
     transform="translate(0,-1020.3622)">
    <path
       inkscape:connector-curvature="0"
       id="path4140"
       d="m 3.2224824,1020.3622 25.5550136,0 c 1.723663,0 3.222504,1.424 3.222504,3.2226 l 0,25.5548 c 0,1.7239 -1.498841,3.2226 -3.222504,3.2226 l -25.5550136,0 C 1.4238863,1052.3622 0,1050.8635 0,1049.1396 l 0,-25.5548 c 0,-1.7986 1.4238863,-3.2226 3.2224824,-3.2226 z"
       style="fill:#2ca089;fill-opacity:1;fill-rule:nonzero;stroke:none" />
    <path
       inkscape:connector-curvature="0"
       id="path4142"
       d="m 27.203716,1022.3106 -22.33253,0 c -1.5737615,0 -2.8477645,1.2742 -2.8477645,2.848 l 0,22.3325 c 0,1.5738 1.274003,2.7726 2.8477645,2.7726 l 22.33253,0 c 1.57378,0 2.847792,-1.1988 2.847792,-2.7726 l 0,-22.3325 c 0,-1.5738 -1.274012,-2.848 -2.847792,-2.848 z"
       style="fill:#ffffff;fill-opacity:1;fill-rule:nonzero;stroke:none" />
    <path
       style="opacity:1;fill:#2ca089;fill-opacity:1;stroke:none;stroke-width:25;stroke-linecap:butt;stroke-linejoin:round;stroke-miterlimit:4;stroke-dasharray:none;stroke-dashoffset:0;stroke-opacity:1"
       d="m 5.7548316,1036.5784 0,-10.086 0.2168649,-0.1825 c 0.2983911,-0.2511 0.5835893,-0.3006 0.9206243,-0.1597 0.5382399,0.2249 0.5385102,0.2256 0.5386464,1.4518 6.72e-5,0.605 0.021763,2.1575 0.048211,3.4501 l 0.04809,2.35 8.5504668,0 8.550466,0 0.0027,-2.5322 c 0.0029,-2.6608 0.07646,-4.2756 0.205934,-4.5176 0.165886,-0.3099 0.963562,-0.4079 1.221472,-0.15 0.249512,0.2496 0.262814,0.7258 0.297227,10.6429 l 0.03407,9.8192 -0.880707,0 -0.880707,0 0,-1.4937 0,-1.4939 -8.562243,0 -8.5622424,0 0,1.4939 0,1.4937 -0.8744419,0 -0.8744417,0 0,-10.086 3.6e-6,0 z m 18.8733694,1.9975 0,-3.7892 -8.562243,0 -8.5622428,0 0,3.7892 0,3.7893 8.5622428,0 8.562243,0 0,-3.7893 z"
       id="path4738"
       inkscape:connector-curvature="0" />
    <path
       style="opacity:1;fill:#2ca089;fill-opacity:1;stroke:none;stroke-width:25;stroke-linecap:butt;stroke-linejoin:round;stroke-miterlimit:4;stroke-dasharray:none;stroke-dashoffset:0;stroke-opacity:1"
       d="m 10.108675,1040.5851 c -0.6111951,-0.218 -1.1546044,-0.8385 -1.3049614,-1.4898 -0.1109203,-0.4806 0.00791,-1.2139 0.2688565,-1.6591 0.216263,-0.3691 0.920848,-0.867 1.3397969,-0.9468 0.312887,-0.06 1.107827,0.083 1.458709,0.2623 0.707646,0.361 1.15414,1.2085 1.078144,2.0466 -0.04687,0.517 -0.205216,0.8574 -0.577057,1.2406 -0.570387,0.5877 -1.511113,0.8147 -2.263488,0.5462 z"
       id="path4740"
       inkscape:connector-curvature="0" />
    <path
       style="opacity:1;fill:#2ca089;fill-opacity:1;stroke:none;stroke-width:25;stroke-linecap:butt;stroke-linejoin:round;stroke-miterlimit:4;stroke-dasharray:none;stroke-dashoffset:0;stroke-opacity:1"
       d="m 13.916289,1039.2607 0,-1.4284 3.515984,0.026 3.515985,0.026 0.492495,0.2329 c 0.550754,0.2604 1.17975,0.8142 1.502934,1.3233 0.181914,0.2866 0.44572,0.9902 0.44572,1.1888 0,0.033 -2.131451,0.059 -4.736559,0.059 l -4.736559,0 0,-1.4284 z"
       id="path4742"
       inkscape:connector-curvature="0" />
    <path
       style="opacity:1;fill:#2ca089;fill-opacity:1;stroke:none;stroke-width:25;stroke-linecap:butt;stroke-linejoin:round;stroke-miterlimit:4;stroke-dasharray:none;stroke-dashoffset:0;stroke-opacity:1"
       d="m 13.916289,1030.378 0,-1.3481 3.652854,0 3.652855,0 0.409656,0.2324 c 0.569497,0.323 1.192842,0.9899 1.500858,1.6056 0.331893,0.6633 0.330062,0.7542 -0.01637,0.8115 -0.150295,0.024 -2.281747,0.046 -4.73656,0.046 l -4.463296,8e-4 0,-1.3481 z"
       id="path4744"
       inkscape:connector-curvature="0" />
    <path
       style="opacity:1;fill:#2ca089;fill-opacity:1;stroke:none;stroke-width:25;stroke-linecap:butt;stroke-linejoin:round;stroke-miterlimit:4;stroke-dasharray:none;stroke-dashoffset:0;stroke-opacity:1"
       d="m 10.141976,1031.6609 c -0.5287104,-0.1826 -0.8861411,-0.4914 -1.1401747,-0.9852 -0.1842617,-0.358 -0.2149588,-0.5006 -0.2186104,-1.0148 -0.00534,-0.7522 0.1880469,-1.1742 0.7465926,-1.6296 0.8859345,-0.7222 1.8737695,-0.6729 2.7526795,0.1372 0.731397,0.6742 0.903855,1.5536 0.475365,2.424 -0.489371,0.9941 -1.56237,1.4323 -2.615852,1.0684 z"
       id="path4746"
       inkscape:connector-curvature="0" />
  </g>
</svg>
