<?xml version="1.0" encoding="UTF-8" standalone="no"?>
<!-- Created with Inkscape (http://www.inkscape.org/) -->

<svg
   xmlns:dc="http://purl.org/dc/elements/1.1/"
   xmlns:cc="http://creativecommons.org/ns#"
   xmlns:rdf="http://www.w3.org/1999/02/22-rdf-syntax-ns#"
   xmlns:svg="http://www.w3.org/2000/svg"
   xmlns="http://www.w3.org/2000/svg"
   xmlns:sodipodi="http://sodipodi.sourceforge.net/DTD/sodipodi-0.dtd"
   xmlns:inkscape="http://www.inkscape.org/namespaces/inkscape"
   width="32"
   height="32"
   viewBox="0 0 32 32.000001"
   id="svg4135"
   version="1.1"
   inkscape:version="0.91 r13725"
   sodipodi:docname="hotel_frame.svg">
  <defs
     id="defs4137" />
  <sodipodi:namedview
     id="base"
     pagecolor="#ffffff"
     bordercolor="#666666"
     borderopacity="1.0"
     inkscape:pageopacity="0.0"
     inkscape:pageshadow="2"
     inkscape:zoom="11.2"
     inkscape:cx="-19.736237"
     inkscape:cy="22.545918"
     inkscape:document-units="px"
     inkscape:current-layer="layer1"
     showgrid="false"
     units="px"
     inkscape:window-width="1920"
     inkscape:window-height="1138"
     inkscape:window-x="-8"
     inkscape:window-y="-8"
     inkscape:window-maximized="1" />
  <metadata
     id="metadata4140">
    <rdf:RDF>
      <cc:Work
         rdf:about="">
        <dc:format>image/svg+xml</dc:format>
        <dc:type
           rdf:resource="http://purl.org/dc/dcmitype/StillImage" />
        <dc:title></dc:title>
      </cc:Work>
    </rdf:RDF>
  </metadata>
  <g
     inkscape:label="Ebene 1"
     inkscape:groupmode="layer"
     id="layer1"
     transform="translate(0,-1020.3622)">
    <path
       inkscape:connector-curvature="0"
       id="path4140"
       d="m 3.2224824,1020.3622 25.5550136,0 c 1.723663,0 3.222504,1.424 3.222504,3.2226 l 0,25.5548 c 0,1.7239 -1.498841,3.2226 -3.222504,3.2226 l -25.5550136,0 C 1.4238863,1052.3622 0,1050.8635 0,1049.1396 l 0,-25.5548 c 0,-1.7986 1.4238863,-3.2226 3.2224824,-3.2226 z"
       style="fill:#000000;fill-opacity:1;fill-rule:nonzero;stroke:none" />
    <path
       inkscape:connector-curvature="0"
       id="path4142"
       d="m 27.203716,1022.3106 -22.33253,0 c -1.5737615,0 -2.8477645,1.2742 -2.8477645,2.848 l 0,22.3325 c 0,1.5738 1.274003,2.7726 2.8477645,2.7726 l 22.33253,0 c 1.57378,0 2.847792,-1.1988 2.847792,-2.7726 l 0,-22.3325 c 0,-1.5738 -1.274012,-2.848 -2.847792,-2.848 z"
       style="fill:#ffffff;fill-opacity:1;fill-rule:nonzero;stroke:none" />
    <path
       style="opacity:1;fill:#000000;fill-opacity:1;stroke:none;stroke-width:25;stroke-linecap:butt;stroke-linejoin:round;stroke-miterlimit:4;stroke-dasharray:none;stroke-dashoffset:0;stroke-opacity:1"
       d="m 9.8051148,1036.695 c -0.7234564,-0.2584 -1.2247901,-0.71 -1.4474775,-1.3036 -0.1039753,-0.2772 -0.1044476,-1.2377 -7.92e-4,-1.611 0.1131157,-0.4072 0.5115325,-0.895 0.9514291,-1.1648 0.3107632,-0.1906 0.4821768,-0.2374 0.9740356,-0.2659 0.516124,-0.03 0.653232,-0.01 1.013129,0.156 0.887345,0.4062 1.410024,1.1565 1.410024,2.0239 0,1.4293 -1.605529,2.6279 -2.9003482,2.1654 z"
       id="path4780"
       inkscape:connector-curvature="0" />
    <path
       style="opacity:1;fill:#000000;fill-opacity:1;stroke:none;stroke-width:25;stroke-linecap:butt;stroke-linejoin:round;stroke-miterlimit:4;stroke-dasharray:none;stroke-dashoffset:0;stroke-opacity:1"
       d="m 13.669192,1035.2947 0,-1.5078 3.332043,0.046 c 4.044096,0.056 4.285067,0.073 4.78901,0.3276 0.783388,0.397 1.673999,1.5462 1.853432,2.3916 l 0.05315,0.2504 -5.013816,0 -5.013815,0 0,-1.5078 z"
       id="path4782"
       inkscape:connector-curvature="0" />
    <path
       style="opacity:1;fill:#000000;fill-opacity:1;stroke:none;stroke-width:25;stroke-linecap:butt;stroke-linejoin:round;stroke-miterlimit:4;stroke-dasharray:none;stroke-dashoffset:0;stroke-opacity:1"
       d="m 5.0460246,1037.8232 c 0.0061,-5.9014 0.034247,-6.5518 0.2956561,-6.8299 0.3259167,-0.347 0.9164568,-0.3004 1.2737427,0.1005 0.1915206,0.2149 0.2603744,1.4864 0.2684379,4.9575 l 0.00568,2.4459 9.0464047,0 9.046404,0 0.02725,-2.7541 c 0.02956,-2.9882 0.04294,-3.0847 0.458104,-3.2994 0.292936,-0.1514 0.783602,-0.1389 0.983596,0.025 0.111501,0.091 0.187879,0.281 0.237417,0.5889 0.04017,0.2497 0.097,2.6158 0.126283,5.258 l 0.05324,4.8041 -0.936983,0 -0.93698,0 0,-1.3868 0,-1.3867 -9.052371,0 -9.0523705,0 0,1.3867 0,1.3868 -0.9244975,0 -0.9244974,0 0.00548,-5.2966 z"
       id="path4784"
       inkscape:connector-curvature="0" />
  </g>
</svg>
