<?xml version="1.0" encoding="UTF-8" standalone="no"?>
<!-- Created with Inkscape (http://www.inkscape.org/) -->

<svg
   xmlns:dc="http://purl.org/dc/elements/1.1/"
   xmlns:cc="http://creativecommons.org/ns#"
   xmlns:rdf="http://www.w3.org/1999/02/22-rdf-syntax-ns#"
   xmlns:svg="http://www.w3.org/2000/svg"
   xmlns="http://www.w3.org/2000/svg"
   xmlns:sodipodi="http://sodipodi.sourceforge.net/DTD/sodipodi-0.dtd"
   xmlns:inkscape="http://www.inkscape.org/namespaces/inkscape"
   width="32"
   height="32"
   viewBox="0 0 32 32.000001"
   id="svg4135"
   version="1.1"
   inkscape:version="0.91 r13725"
   sodipodi:docname="hotal.svg">
  <defs
     id="defs4137" />
  <sodipodi:namedview
     id="base"
     pagecolor="#ffffff"
     bordercolor="#666666"
     borderopacity="1.0"
     inkscape:pageopacity="0.0"
     inkscape:pageshadow="2"
     inkscape:zoom="11.2"
     inkscape:cx="-0.22730821"
     inkscape:cy="22.545918"
     inkscape:document-units="px"
     inkscape:current-layer="layer1"
     showgrid="false"
     units="px"
     inkscape:window-width="1920"
     inkscape:window-height="1138"
     inkscape:window-x="-8"
     inkscape:window-y="-8"
     inkscape:window-maximized="1" />
  <metadata
     id="metadata4140">
    <rdf:RDF>
      <cc:Work
         rdf:about="">
        <dc:format>image/svg+xml</dc:format>
        <dc:type
           rdf:resource="http://purl.org/dc/dcmitype/StillImage" />
        <dc:title></dc:title>
      </cc:Work>
    </rdf:RDF>
  </metadata>
  <g
     inkscape:label="Ebene 1"
     inkscape:groupmode="layer"
     id="layer1"
     transform="translate(0,-1020.3622)">
    <path
       style="opacity:1;fill:#000000;fill-opacity:1;stroke:none;stroke-width:25;stroke-linecap:butt;stroke-linejoin:round;stroke-miterlimit:4;stroke-dasharray:none;stroke-dashoffset:0;stroke-opacity:1"
       d="m 9.0444939,1036.7454 c -0.8384361,-0.2995 -1.4194471,-0.8228 -1.6775264,-1.5108 -0.1205002,-0.3213 -0.1210475,-1.4344 -9.179e-4,-1.867 0.1310933,-0.472 0.5928308,-1.0373 1.1026406,-1.35 0.360153,-0.2209 0.5588096,-0.2751 1.1288397,-0.3081 0.5981521,-0.035 0.7570501,-0.01 1.1741471,0.1808 1.02837,0.4708 1.634119,1.3403 1.634119,2.3456 0,1.6564 -1.860697,3.0455 -3.3613021,2.5095 z"
       id="path4780"
       inkscape:connector-curvature="0" />
    <path
       style="opacity:1;fill:#000000;fill-opacity:1;stroke:none;stroke-width:25;stroke-linecap:butt;stroke-linejoin:round;stroke-miterlimit:4;stroke-dasharray:none;stroke-dashoffset:0;stroke-opacity:1"
       d="m 13.522692,1035.1225 0,-1.7474 3.861607,0.053 c 4.686827,0.065 4.966096,0.084 5.550131,0.3797 0.907893,0.4601 1.94005,1.7919 2.148,2.7716 l 0.06159,0.2902 -5.810666,0 -5.810665,0 0,-1.7474 z"
       id="path4782"
       inkscape:connector-curvature="0" />
    <path
       style="opacity:1;fill:#000000;fill-opacity:1;stroke:none;stroke-width:25;stroke-linecap:butt;stroke-linejoin:round;stroke-miterlimit:4;stroke-dasharray:none;stroke-dashoffset:0;stroke-opacity:1"
       d="m 3.5290374,1038.0529 c 0.00707,-6.8394 0.039691,-7.593 0.342645,-7.9154 0.3777149,-0.4021 1.06211,-0.3481 1.4761797,0.1165 0.2219591,0.2491 0.3017559,1.7227 0.311101,5.7453 l 0.00659,2.8348 10.4841569,0 10.484157,0 0.03158,-3.1919 c 0.03426,-3.4632 0.04976,-3.5749 0.530911,-3.8237 0.339492,-0.1755 0.90814,-0.1611 1.139919,0.029 0.129222,0.106 0.217738,0.3256 0.275151,0.6825 0.04655,0.2894 0.112412,3.0316 0.146352,6.0937 l 0.06171,5.5676 -1.085898,0 -1.085896,0 0,-1.6072 0,-1.6071 -10.491072,0 -10.4910709,0 0,1.6071 0,1.6072 -1.0714286,0 -1.0714286,0 0.00635,-6.1384 z"
       id="path4784"
       inkscape:connector-curvature="0" />
  </g>
</svg>
