<?xml version="1.0" encoding="UTF-8" standalone="no"?>
<!-- Created with Inkscape (http://www.inkscape.org/) -->

<svg
   xmlns:dc="http://purl.org/dc/elements/1.1/"
   xmlns:cc="http://creativecommons.org/ns#"
   xmlns:rdf="http://www.w3.org/1999/02/22-rdf-syntax-ns#"
   xmlns:svg="http://www.w3.org/2000/svg"
   xmlns="http://www.w3.org/2000/svg"
   xmlns:sodipodi="http://sodipodi.sourceforge.net/DTD/sodipodi-0.dtd"
   xmlns:inkscape="http://www.inkscape.org/namespaces/inkscape"
   width="32"
   height="32"
   viewBox="0 0 32 32.000001"
   id="svg4148"
   version="1.1"
   inkscape:version="0.91 r13725"
   sodipodi:docname="islamic_frame.svg">
  <defs
     id="defs4150">
    <pattern
       y="0"
       x="0"
       height="6"
       width="6"
       patternUnits="userSpaceOnUse"
       id="EMFhbasepattern" />
  </defs>
  <sodipodi:namedview
     id="base"
     pagecolor="#ffffff"
     bordercolor="#666666"
     borderopacity="1.0"
     inkscape:pageopacity="0.0"
     inkscape:pageshadow="2"
     inkscape:zoom="22.4"
     inkscape:cx="9.5358833"
     inkscape:cy="18.621784"
     inkscape:document-units="px"
     inkscape:current-layer="layer1"
     showgrid="false"
     units="px"
     inkscape:window-width="1920"
     inkscape:window-height="1138"
     inkscape:window-x="-8"
     inkscape:window-y="-8"
     inkscape:window-maximized="1" />
  <metadata
     id="metadata4153">
    <rdf:RDF>
      <cc:Work
         rdf:about="">
        <dc:format>image/svg+xml</dc:format>
        <dc:type
           rdf:resource="http://purl.org/dc/dcmitype/StillImage" />
        <dc:title></dc:title>
      </cc:Work>
    </rdf:RDF>
  </metadata>
  <g
     inkscape:label="Ebene 1"
     inkscape:groupmode="layer"
     id="layer1"
     transform="translate(0,-1020.3622)">
    <path
       inkscape:connector-curvature="0"
       id="path4746"
       d="m 3.2224826,1020.3622 25.5550134,0 c 1.723667,0 3.222504,1.424 3.222504,3.2226 l 0,25.5548 c 0,1.7239 -1.498837,3.2226 -3.222504,3.2226 l -25.5550134,0 C 1.4238871,1052.3622 0,1050.8635 0,1049.1396 l 0,-25.5548 c 0,-1.7986 1.4238871,-3.2226 3.2224826,-3.2226 z"
       style="fill:#000000;fill-opacity:1;fill-rule:nonzero;stroke:none" />
    <path
       inkscape:connector-curvature="0"
       id="path4748-2"
       d="m 27.203716,1022.3106 -22.3325312,0 c -1.5737591,0 -2.8477635,1.2742 -2.8477635,2.848 l 0,22.3325 c 0,1.5738 1.2740044,2.7726 2.8477635,2.7726 l 22.3325312,0 c 1.57378,0 2.847795,-1.1988 2.847795,-2.7726 l 0,-22.3325 c 0,-1.5738 -1.274015,-2.848 -2.847795,-2.848 z"
       style="fill:#ffffff;fill-opacity:1;fill-rule:nonzero;stroke:none" />
    <ellipse
       style="fill:#000000;fill-opacity:1;stroke:#000000;stroke-width:0.41003421;stroke-miterlimit:4;stroke-dasharray:none;stroke-opacity:1"
       id="path4729"
       cx="15.561355"
       cy="1036.2239"
       rx="10.56933"
       ry="10.400077" />
    <ellipse
       style="fill:#ffffff;fill-opacity:1;stroke:none;stroke-width:5.00327349;stroke-miterlimit:4;stroke-dasharray:none;stroke-opacity:1"
       id="path4729-2"
       cx="19.132523"
       cy="1036.1414"
       rx="9.512723"
       ry="8.6136961" />
    <path
       sodipodi:type="star"
       style="fill:#000000;fill-opacity:1;stroke:none;stroke-width:7;stroke-miterlimit:4;stroke-dasharray:none;stroke-opacity:1"
       id="path4748"
       sodipodi:sides="5"
       sodipodi:cx="246.07317"
       sodipodi:cy="154.73804"
       sodipodi:r1="56.035706"
       sodipodi:r2="19.869083"
       sodipodi:arg1="1.3932002"
       sodipodi:arg2="2.0215187"
       inkscape:flatsided="false"
       inkscape:rounded="0"
       inkscape:randomized="0"
       d="m 255.97266,209.89237 -18.55478,-37.26952 -40.74049,8.57379 29.71168,-29.16356 -20.74367,-36.09706 36.91761,19.24545 27.9202,-30.883 -6.89534,41.0579 37.99929,17.01032 -41.17916,6.12973 z"
       inkscape:transform-center-x="0.014412595"
       inkscape:transform-center-y="-0.31924921"
       transform="matrix(0.0695642,-0.03482119,0.03482119,0.0695642,0.47483896,1034.2174)" />
  </g>
</svg>
