<?xml version="1.0" encoding="UTF-8" standalone="no"?>
<!-- Created with Inkscape (http://www.inkscape.org/) -->

<svg
   xmlns:dc="http://purl.org/dc/elements/1.1/"
   xmlns:cc="http://creativecommons.org/ns#"
   xmlns:rdf="http://www.w3.org/1999/02/22-rdf-syntax-ns#"
   xmlns:svg="http://www.w3.org/2000/svg"
   xmlns="http://www.w3.org/2000/svg"
   xmlns:sodipodi="http://sodipodi.sourceforge.net/DTD/sodipodi-0.dtd"
   xmlns:inkscape="http://www.inkscape.org/namespaces/inkscape"
   width="32"
   height="32"
   viewBox="0 0 32 32.000001"
   id="svg4148"
   version="1.1"
   inkscape:version="0.91 r13725"
   sodipodi:docname="jewish_frame.svg">
  <defs
     id="defs4150">
    <pattern
       y="0"
       x="0"
       height="6"
       width="6"
       patternUnits="userSpaceOnUse"
       id="EMFhbasepattern" />
  </defs>
  <sodipodi:namedview
     id="base"
     pagecolor="#ffffff"
     bordercolor="#666666"
     borderopacity="1.0"
     inkscape:pageopacity="0.0"
     inkscape:pageshadow="2"
     inkscape:zoom="22.4"
     inkscape:cx="9.5358833"
     inkscape:cy="18.621784"
     inkscape:document-units="px"
     inkscape:current-layer="layer1"
     showgrid="false"
     units="px"
     inkscape:window-width="1920"
     inkscape:window-height="1138"
     inkscape:window-x="-8"
     inkscape:window-y="-8"
     inkscape:window-maximized="1" />
  <metadata
     id="metadata4153">
    <rdf:RDF>
      <cc:Work
         rdf:about="">
        <dc:format>image/svg+xml</dc:format>
        <dc:type
           rdf:resource="http://purl.org/dc/dcmitype/StillImage" />
        <dc:title></dc:title>
      </cc:Work>
    </rdf:RDF>
  </metadata>
  <g
     inkscape:label="Ebene 1"
     inkscape:groupmode="layer"
     id="layer1"
     transform="translate(0,-1020.3622)">
    <path
       inkscape:connector-curvature="0"
       id="path4746"
       d="m 3.2224826,1020.3622 25.5550134,0 c 1.723667,0 3.222504,1.424 3.222504,3.2226 l 0,25.5548 c 0,1.7239 -1.498837,3.2226 -3.222504,3.2226 l -25.5550134,0 C 1.4238871,1052.3622 0,1050.8635 0,1049.1396 l 0,-25.5548 c 0,-1.7986 1.4238871,-3.2226 3.2224826,-3.2226 z"
       style="fill:#000000;fill-opacity:1;fill-rule:nonzero;stroke:none" />
    <path
       inkscape:connector-curvature="0"
       id="path4748-2"
       d="m 27.203716,1022.3106 -22.3325312,0 c -1.5737591,0 -2.8477635,1.2742 -2.8477635,2.848 l 0,22.3325 c 0,1.5738 1.2740044,2.7726 2.8477635,2.7726 l 22.3325312,0 c 1.57378,0 2.847795,-1.1988 2.847795,-2.7726 l 0,-22.3325 c 0,-1.5738 -1.274015,-2.848 -2.847795,-2.848 z"
       style="fill:#ffffff;fill-opacity:1;fill-rule:nonzero;stroke:none" />
    <path
       style="fill:#000000;fill-opacity:1;stroke:none;stroke-width:2.18499994;stroke-miterlimit:4;stroke-dasharray:none;stroke-opacity:1"
       d="m 16.25228,1048.8983 c -0.03918,-0.023 -0.145432,-0.033 -0.236172,-0.023 -0.156451,0.017 -0.169866,0.011 -0.259298,-0.1239 -0.05185,-0.079 -0.179543,-0.209 -0.283725,-0.2903 -0.160723,-0.1253 -0.186495,-0.1629 -0.170136,-0.2483 0.03134,-0.1636 -0.173398,-0.5428 -2.042672,-3.7837 -0.507377,-0.8796 -0.936676,-1.6141 -0.953994,-1.632 -0.01748,-0.018 -1.289913,-0.02 -2.8581443,0 -2.6933733,0.027 -2.830027,0.032 -2.8981429,0.1 -0.069937,0.07 -0.074835,0.069 -0.2235573,-0.01 -0.1157209,-0.059 -0.2544094,-0.083 -0.5802193,-0.098 -0.6719983,-0.033 -0.59952,0.053 -0.59952,-0.7019 l 0,-0.6467 0.1999257,-10e-5 c 0.2687799,0 0.4291417,-0.089 0.6424655,-0.3546 0.1967063,-0.2455 0.8929171,-1.4011 1.8026179,-2.9925 0.6933626,-1.2128 0.8203636,-1.4561 0.8203636,-1.5712 0,-0.1185 -0.1510328,-0.399 -1.1078404,-2.0568 -1.6974698,-2.9412 -1.8643814,-3.1923 -2.1214644,-3.1923 l -0.1218248,0 -7.529e-4,-0.2762 c -5.349e-4,-0.1918 -0.028482,-0.3545 -0.091555,-0.5331 l -0.090755,-0.2582 0.091556,-0.072 c 0.050343,-0.039 0.091556,-0.091 0.091556,-0.114 0,-0.023 0.03663,-0.042 0.081469,-0.042 0.044839,0 0.2511987,-0.09 0.4586587,-0.1998 l 0.3771983,-0.1997 0.1220722,0.1452 0.1220805,0.1453 0.3998503,0.032 c 0.2199173,0.017 1.5839058,0.043 3.0310899,0.057 l 2.6312327,0.025 1.104983,-1.9351 c 1.259784,-2.2063 1.493228,-2.6356 1.628316,-2.9945 0.120521,-0.3202 0.121371,-0.4743 0.0038,-0.7063 l -0.09258,-0.1827 0.482918,-0.2803 c 0.265607,-0.1542 0.511517,-0.2974 0.546466,-0.3182 0.04958,-0.03 0.09569,-0.01 0.209451,0.093 0.08025,0.072 0.320798,0.2395 0.534559,0.3715 l 0.388668,0.2399 -0.08228,0.1693 c -0.07385,0.1522 -0.07766,0.1879 -0.03685,0.3499 0.07817,0.3106 0.614832,1.3324 1.704856,3.2459 0.578629,1.0158 1.074237,1.8701 1.101343,1.8983 0.04107,0.042 0.517726,0.045 2.862175,0.015 3.057368,-0.039 3.01329,-0.035 3.155659,-0.2522 l 0.06307,-0.096 0.352412,0.1882 c 0.19383,0.1037 0.380981,0.1883 0.415895,0.1883 0.03489,0 0.06346,0.016 0.06346,0.038 0,0.02 0.06767,0.082 0.150378,0.1371 l 0.150379,0.099 -0.136061,0.267 c -0.09895,0.1942 -0.141388,0.3334 -0.155591,0.5104 -0.01561,0.1944 -0.03233,0.2433 -0.08335,0.2433 -0.133595,0 -0.332563,0.2839 -1.094434,1.5613 -0.582509,0.9768 -1.741796,3.001 -1.885013,3.2913 l -0.11854,0.2404 0.182834,0.3381 c 0.373505,0.6908 2.326536,4.0706 2.622543,4.5385 0.05697,0.09 0.128515,0.1732 0.159035,0.1849 0.03052,0.013 0.05546,0.05 0.05546,0.086 0,0.036 0.06836,0.2058 0.151817,0.3786 l 0.151818,0.3138 -0.130944,0.131 c -0.07634,0.076 -0.141417,0.1867 -0.156058,0.2648 -0.01379,0.073 -0.04462,0.1351 -0.06849,0.1365 -0.02389,0 -0.180453,0.019 -0.348009,0.038 -0.167554,0.02 -0.338923,0.034 -0.380809,0.031 -0.0419,0 -1.409927,-0.01 -3.040074,-0.011 l -2.963915,0 -1.254177,2.1897 c -1.329196,2.3206 -1.764291,3.1323 -1.736312,3.2393 0.01095,0.041 -0.01666,0.084 -0.07611,0.1157 -0.08577,0.046 -0.415306,0.4469 -0.458375,0.5577 -0.02245,0.058 -0.08173,0.059 -0.176737,0 z m 0.473799,-3.1485 c 0.80056,-1.3636 1.634728,-2.8363 1.634728,-2.8861 0,-0.028 -0.03858,-0.061 -0.08568,-0.072 -0.04709,-0.011 -1.065999,-0.016 -2.26417,-0.01 l -2.178482,0.011 0.628508,1.0853 c 0.923665,1.595 1.426838,2.4253 1.574595,2.5983 l 0.130993,0.1535 0.08218,-0.103 c 0.04521,-0.057 0.259991,-0.4059 0.477317,-0.7761 z m -5.437846,-4.3808 0.181847,-0.024 -0.678344,-1.1804 c -0.8556991,-1.4892 -1.2174101,-2.0957 -1.2815245,-2.149 -0.038813,-0.032 -0.07235,-0.014 -0.1452832,0.083 -0.1964653,0.2576 -1.779732,2.9672 -1.8341696,3.139 -0.016198,0.051 -0.00752,0.094 0.022989,0.1134 0.092891,0.059 0.9650949,0.083 2.2578477,0.063 0.7121186,-0.011 1.3765886,-0.031 1.4766116,-0.044 z m 13.694703,0.037 c 0.06368,-0.041 0.0095,-0.1434 -0.901886,-1.7169 -0.785479,-1.3561 -1.029768,-1.7516 -1.097876,-1.7778 -0.02947,-0.011 -0.08218,0 -0.117119,0.032 -0.104002,0.085 -0.574719,0.8287 -1.153679,1.8227 -0.686461,1.1785 -0.891841,1.5584 -0.859858,1.5905 0.06489,0.064 4.031129,0.1131 4.130413,0.05 z m -6.317479,-0.037 0.590257,-0.023 0.30853,-0.5141 c 0.278193,-0.4636 2.211829,-3.8139 2.474241,-4.2871 l 0.107239,-0.1933 -1.014335,-1.7678 c -0.557877,-0.9723 -1.201856,-2.0934 -1.431065,-2.4913 l -0.416729,-0.7236 -0.508992,-0.023 c -0.279948,-0.013 -1.632385,-0.036 -3.005416,-0.051 -2.062436,-0.022 -2.503584,-0.018 -2.537609,0.023 -0.0935,0.1156 -2.62705,4.5727 -2.786236,4.9017 l -0.172827,0.3572 0.147379,0.2711 c 0.08106,0.1491 0.41245,0.7339 0.736422,1.2993 1.437034,2.5085 1.781193,3.065 1.944539,3.1444 0.06654,0.033 0.386495,0.057 0.956807,0.073 1.110952,0.032 3.851153,0.035 4.6078,0.01 z m -8.9922685,-6.5854 c 0.1211288,-0.1787 1.4189545,-2.3877 1.8650965,-3.1745 0.06737,-0.1188 0.106955,-0.2256 0.08795,-0.2373 -0.06797,-0.042 -4.2361483,-0.035 -4.2783422,0.01 -0.057654,0.058 0.4833622,1.0522 1.5231232,2.7998 0.416654,0.7004 0.5516212,0.8849 0.6172648,0.8444 0.020952,-0.013 0.1041654,-0.121 0.1848992,-0.2402 z m 13.9115015,-0.9093 c 0.653942,-1.1136 1.202051,-2.0971 1.274824,-2.2877 0.05267,-0.1379 0.05501,-0.1735 0.01328,-0.1993 -0.02796,-0.017 -0.240785,-0.043 -0.472932,-0.057 -0.562503,-0.034 -3.472961,-0.01 -3.512298,0.031 -0.04129,0.041 0.182367,0.4712 0.806415,1.5494 0.639473,1.1049 0.941742,1.5908 1.116807,1.7953 l 0.134972,0.1577 0.09797,-0.1173 c 0.0539,-0.064 0.297325,-0.4568 0.540988,-0.8718 z m -5.216234,-3.9579 c 0.04098,-0.025 -0.08887,-0.274 -0.673589,-1.29 -0.737884,-1.2823 -1.327122,-2.2222 -1.43466,-2.2886 -0.02766,-0.017 -0.08815,0.023 -0.154384,0.102 -0.135901,0.1623 -0.664961,1.037 -1.334155,2.2056 -0.551517,0.963 -0.675931,1.1939 -0.675931,1.2541 0,0.023 0.217285,0.044 0.561694,0.053 0.695858,0.018 3.670436,-0.011 3.711025,-0.036 z"
       id="path45480"
       inkscape:connector-curvature="0" />
  </g>
</svg>
