<?xml version="1.0" encoding="UTF-8" standalone="no"?>
<!-- Created with Inkscape (http://www.inkscape.org/) -->

<svg
   xmlns:dc="http://purl.org/dc/elements/1.1/"
   xmlns:cc="http://creativecommons.org/ns#"
   xmlns:rdf="http://www.w3.org/1999/02/22-rdf-syntax-ns#"
   xmlns:svg="http://www.w3.org/2000/svg"
   xmlns="http://www.w3.org/2000/svg"
   xmlns:sodipodi="http://sodipodi.sourceforge.net/DTD/sodipodi-0.dtd"
   xmlns:inkscape="http://www.inkscape.org/namespaces/inkscape"
   width="32"
   height="32"
   viewBox="0 0 32 32.000001"
   id="svg4148"
   version="1.1"
   inkscape:version="0.91 r13725"
   sodipodi:docname="jewish.svg">
  <defs
     id="defs4150">
    <pattern
       y="0"
       x="0"
       height="6"
       width="6"
       patternUnits="userSpaceOnUse"
       id="EMFhbasepattern" />
  </defs>
  <sodipodi:namedview
     id="base"
     pagecolor="#ffffff"
     bordercolor="#666666"
     borderopacity="1.0"
     inkscape:pageopacity="0.0"
     inkscape:pageshadow="2"
     inkscape:zoom="22.4"
     inkscape:cx="9.5358833"
     inkscape:cy="18.621784"
     inkscape:document-units="px"
     inkscape:current-layer="layer1"
     showgrid="false"
     units="px"
     inkscape:window-width="1920"
     inkscape:window-height="1138"
     inkscape:window-x="-8"
     inkscape:window-y="-8"
     inkscape:window-maximized="1" />
  <metadata
     id="metadata4153">
    <rdf:RDF>
      <cc:Work
         rdf:about="">
        <dc:format>image/svg+xml</dc:format>
        <dc:type
           rdf:resource="http://purl.org/dc/dcmitype/StillImage" />
        <dc:title></dc:title>
      </cc:Work>
    </rdf:RDF>
  </metadata>
  <g
     inkscape:label="Ebene 1"
     inkscape:groupmode="layer"
     id="layer1"
     transform="translate(0,-1020.3622)">
    <path
       style="fill:#000000;fill-opacity:1;stroke:none;stroke-width:2.18499994;stroke-miterlimit:4;stroke-dasharray:none;stroke-opacity:1"
       d="m 16.211406,1049.5656 c -0.04139,-0.024 -0.153615,-0.035 -0.249462,-0.024 -0.165254,0.018 -0.179424,0.011 -0.273888,-0.1309 -0.05477,-0.083 -0.189645,-0.2208 -0.29969,-0.3066 -0.169766,-0.1324 -0.196988,-0.1721 -0.179709,-0.2623 0.0331,-0.1728 -0.183154,-0.5733 -2.157611,-3.9966 -0.535926,-0.9291 -0.989381,-1.7049 -1.007673,-1.7238 -0.01847,-0.019 -1.362495,-0.021 -3.0189686,0 -2.8449258,0.029 -2.9892687,0.034 -3.0612174,0.1055 -0.073873,0.074 -0.079046,0.073 -0.2361367,-0.01 -0.1222323,-0.062 -0.2687246,-0.088 -0.6128674,-0.1035 -0.7098107,-0.035 -0.6332542,0.056 -0.6332542,-0.7415 l 0,-0.6831 0.2111753,-10e-5 c 0.2839038,0 0.4532889,-0.094 0.6786162,-0.3745 0.2077747,-0.2593 0.9431603,-1.4799 1.9040487,-3.1609 0.7323772,-1.281 0.8665244,-1.538 0.8665244,-1.6596 0,-0.1252 -0.1595312,-0.4215 -1.1701771,-2.1725 -1.7929842,-3.1067 -1.9692877,-3.3719 -2.2408364,-3.3719 l -0.1286797,0 -7.952e-4,-0.2918 c -5.651e-4,-0.2026 -0.030085,-0.3744 -0.096707,-0.5631 l -0.095862,-0.2727 0.096708,-0.076 c 0.053175,-0.041 0.096708,-0.096 0.096708,-0.1204 0,-0.024 0.038691,-0.045 0.086054,-0.045 0.047362,0 0.2653332,-0.095 0.4844668,-0.211 l 0.3984227,-0.2109 0.128941,0.1533 0.1289498,0.1535 0.4223494,0.034 c 0.2322917,0.018 1.6730301,0.046 3.2016459,0.06 l 2.7792885,0.026 1.167159,-2.044 c 1.33067,-2.3305 1.57725,-2.7839 1.719939,-3.163 0.127302,-0.3383 0.1282,-0.501 0.004,-0.746 l -0.09779,-0.1931 0.510091,-0.296 c 0.280552,-0.1629 0.540299,-0.3141 0.577214,-0.3361 0.05237,-0.031 0.101073,-0.01 0.221237,0.099 0.08477,0.076 0.338849,0.253 0.564639,0.3924 l 0.410537,0.2533 -0.08691,0.1789 c -0.07801,0.1608 -0.08202,0.1985 -0.03892,0.3695 0.08256,0.3281 0.649428,1.4075 1.800786,3.4286 0.611188,1.073 1.134682,1.9753 1.163314,2.0051 0.04338,0.045 0.546857,0.048 3.023226,0.016 3.229402,-0.042 3.182843,-0.037 3.333224,-0.2664 l 0.06662,-0.1017 0.372241,0.1988 c 0.204736,0.1096 0.402418,0.199 0.439297,0.199 0.03685,0 0.06704,0.017 0.06704,0.041 0,0.021 0.07148,0.086 0.158839,0.1448 l 0.158841,0.1046 -0.143717,0.282 c -0.104518,0.2052 -0.149343,0.3521 -0.164346,0.5392 -0.01648,0.2053 -0.03415,0.2569 -0.08804,0.2569 -0.141112,0 -0.351277,0.2999 -1.156017,1.6492 -0.615286,1.0318 -1.839804,3.1699 -1.99108,3.4765 l -0.12521,0.2539 0.193122,0.3571 c 0.394522,0.7297 2.457447,4.2997 2.77011,4.7939 0.06017,0.096 0.135746,0.183 0.167983,0.1953 0.03224,0.014 0.05858,0.053 0.05858,0.091 0,0.038 0.0722,0.2173 0.16036,0.3999 l 0.16036,0.3314 -0.138312,0.1384 c -0.08063,0.08 -0.149374,0.1972 -0.164839,0.2796 -0.01456,0.077 -0.04714,0.1428 -0.07235,0.1442 -0.02523,0 -0.190607,0.02 -0.367591,0.041 -0.176982,0.021 -0.357993,0.036 -0.402237,0.033 -0.04426,0 -1.489261,-0.01 -3.211134,-0.011 l -3.130691,0 -1.324748,2.3129 c -1.403988,2.4512 -1.863565,3.3085 -1.834012,3.4215 0.01156,0.044 -0.01759,0.089 -0.08039,0.1223 -0.0906,0.049 -0.438675,0.472 -0.484167,0.589 -0.02371,0.061 -0.08633,0.062 -0.186682,0 z m 0.500459,-3.3257 c 0.845606,-1.4404 1.726711,-2.9959 1.726711,-3.0484 0,-0.029 -0.04075,-0.064 -0.0905,-0.076 -0.04974,-0.012 -1.125982,-0.017 -2.391572,-0.01 l -2.301063,0.011 0.663874,1.1464 c 0.975638,1.6847 1.507124,2.5617 1.663195,2.7445 l 0.138364,0.1621 0.08681,-0.1087 c 0.04775,-0.06 0.274621,-0.4288 0.504175,-0.8199 z m -5.743826,-4.6273 0.192078,-0.025 -0.716512,-1.2469 c -0.9038489,-1.573 -1.2859129,-2.2135 -1.353635,-2.2699 -0.040998,-0.034 -0.076421,-0.014 -0.1534581,0.087 -0.2075201,0.2721 -1.8798751,3.1341 -1.9373758,3.3156 -0.01711,0.054 -0.00794,0.1 0.024282,0.1198 0.098117,0.062 1.0193996,0.087 2.3848938,0.066 0.7521891,-0.012 1.4540471,-0.033 1.5596991,-0.047 z m 14.465286,0.04 c 0.06726,-0.044 0.01007,-0.1515 -0.952635,-1.8135 -0.829676,-1.4324 -1.087712,-1.8501 -1.159652,-1.8778 -0.03113,-0.011 -0.0868,0 -0.123709,0.034 -0.109854,0.089 -0.607057,0.8753 -1.218595,1.9252 -0.725087,1.2448 -0.942024,1.6461 -0.908241,1.68 0.06854,0.067 4.257956,0.1195 4.362825,0.053 z m -6.672956,-0.04 0.62347,-0.024 0.325891,-0.5431 c 0.293846,-0.4896 2.336285,-4.0284 2.613463,-4.5282 l 0.113273,-0.2042 -1.07141,-1.8673 c -0.589269,-1.027 -1.269483,-2.2111 -1.511589,-2.6314 l -0.440178,-0.7644 -0.537633,-0.024 c -0.2957,-0.014 -1.724237,-0.038 -3.174526,-0.054 -2.178487,-0.023 -2.644458,-0.019 -2.680397,0.024 -0.09877,0.1222 -2.774871,4.83 -2.943014,5.1775 l -0.1825519,0.3773 0.1556719,0.2864 c 0.08563,0.1575 0.435658,0.7752 0.777859,1.3724 1.517894,2.6496 1.881419,3.2375 2.053956,3.3213 0.07028,0.035 0.408243,0.06 1.010645,0.077 1.173464,0.034 4.067853,0.037 4.867075,0.01 z m -9.4982515,-6.9559 c 0.1279446,-0.1888 1.4987975,-2.5221 1.9700435,-3.3531 0.07116,-0.1255 0.112972,-0.2384 0.0929,-0.2507 -0.07179,-0.045 -4.4745104,-0.037 -4.5190785,0.01 -0.060898,0.061 0.5105603,1.1114 1.6088273,2.9573 0.4400986,0.7398 0.5826602,0.9347 0.6519975,0.8918 0.022131,-0.014 0.1100266,-0.1277 0.1953032,-0.2536 z M 23.9564,1033.6962 c 0.690739,-1.1763 1.26969,-2.2151 1.346557,-2.4164 0.05564,-0.1457 0.05811,-0.1833 0.01402,-0.2105 -0.02953,-0.018 -0.254334,-0.046 -0.499544,-0.06 -0.594154,-0.036 -3.66838,-0.01 -3.709931,0.033 -0.04362,0.044 0.192629,0.4977 0.851792,1.6366 0.675455,1.1671 0.994732,1.6803 1.179648,1.8963 l 0.142567,0.1666 0.103482,-0.124 c 0.05693,-0.067 0.314055,-0.4824 0.571429,-0.9208 z m -5.509744,-4.1806 c 0.04329,-0.026 -0.09387,-0.2894 -0.711491,-1.3626 -0.779404,-1.3544 -1.401798,-2.3473 -1.515387,-2.4174 -0.02922,-0.018 -0.09311,0.024 -0.16307,0.1078 -0.143548,0.1714 -0.702378,1.0953 -1.409226,2.3297 -0.582551,1.0172 -0.713966,1.2611 -0.713966,1.3246 0,0.024 0.229512,0.047 0.593301,0.056 0.735013,0.019 3.876966,-0.011 3.919839,-0.038 z"
       id="path45480"
       inkscape:connector-curvature="0" />
  </g>
</svg>
