<?xml version="1.0" encoding="UTF-8" standalone="no"?>
<!-- Created with Inkscape (http://www.inkscape.org/) -->

<svg
   xmlns:dc="http://purl.org/dc/elements/1.1/"
   xmlns:cc="http://creativecommons.org/ns#"
   xmlns:rdf="http://www.w3.org/1999/02/22-rdf-syntax-ns#"
   xmlns:svg="http://www.w3.org/2000/svg"
   xmlns="http://www.w3.org/2000/svg"
   xmlns:sodipodi="http://sodipodi.sourceforge.net/DTD/sodipodi-0.dtd"
   xmlns:inkscape="http://www.inkscape.org/namespaces/inkscape"
   width="32"
   height="32"
   viewBox="0 0 32 32.000001"
   id="svg4135"
   version="1.1"
   inkscape:version="0.91 r13725"
   sodipodi:docname="kiosk.svg">
  <defs
     id="defs4137" />
  <sodipodi:namedview
     id="base"
     pagecolor="#ffffff"
     bordercolor="#666666"
     borderopacity="1.0"
     inkscape:pageopacity="0.0"
     inkscape:pageshadow="2"
     inkscape:zoom="11.2"
     inkscape:cx="-0.22730821"
     inkscape:cy="-2.9020413"
     inkscape:document-units="px"
     inkscape:current-layer="layer1"
     showgrid="false"
     units="px"
     inkscape:window-width="1920"
     inkscape:window-height="1138"
     inkscape:window-x="-8"
     inkscape:window-y="-8"
     inkscape:window-maximized="1" />
  <metadata
     id="metadata4140">
    <rdf:RDF>
      <cc:Work
         rdf:about="">
        <dc:format>image/svg+xml</dc:format>
        <dc:type
           rdf:resource="http://purl.org/dc/dcmitype/StillImage" />
        <dc:title></dc:title>
      </cc:Work>
    </rdf:RDF>
  </metadata>
  <g
     inkscape:label="Ebene 1"
     inkscape:groupmode="layer"
     id="layer1"
     transform="translate(0,-1020.3622)">
    <path
       style="opacity:1;fill:#000000;fill-opacity:1;stroke:none;stroke-width:25;stroke-linecap:butt;stroke-linejoin:round;stroke-miterlimit:4;stroke-dasharray:none;stroke-dashoffset:0;stroke-opacity:1"
       d="m 5.6209061,1033.2105 c -0.2455357,-0.097 -0.5970982,-0.3004 -0.78125,-0.4524 l -0.3348214,-0.2762 0,-1.5213 0,-1.5212 0.8706291,-0.9119 c 0.478846,-0.5015 1.6540692,-1.7627 2.6116071,-2.8025 l 1.7409781,-1.8907 0.999195,-10e-5 c 0.611899,0 1.022023,0.037 1.05809,0.095 0.06815,0.1103 -0.171271,0.5114 -1.8352752,3.0744 -1.8253571,2.8115 -1.6697254,2.4515 -1.7435207,4.0334 l -0.063203,1.3549 -0.2790716,0.27 c -0.6177321,0.5977 -1.5440889,0.8242 -2.2433572,0.5484 z"
       id="path4802"
       inkscape:connector-curvature="0" />
    <path
       style="opacity:1;fill:#000000;fill-opacity:1;stroke:none;stroke-width:25;stroke-linecap:butt;stroke-linejoin:round;stroke-miterlimit:4;stroke-dasharray:none;stroke-dashoffset:0;stroke-opacity:1"
       d="m 10.152821,1033.1502 c -0.2083402,-0.074 -0.5640063,-0.3017 -0.7903694,-0.5067 l -0.4115693,-0.3726 0.012367,-1.3389 c 0.0119,-1.2884 0.021032,-1.3507 0.2421272,-1.6514 0.6418506,-0.873 2.2033265,-3.3174 2.7548155,-4.3126 l 0.625,-1.1278 0.803571,0 c 0.441965,0 0.850726,0.028 0.908359,0.065 0.07711,0.049 0.03384,0.3258 -0.163829,1.0478 -0.785206,2.8678 -1.062316,4.2488 -1.155402,5.7578 -0.04998,0.8103 -0.129504,1.574 -0.176717,1.6972 -0.04721,0.1232 -0.255749,0.3303 -0.463413,0.4603 -0.698663,0.4374 -1.46837,0.5373 -2.18494,0.2836 z"
       id="path4804"
       inkscape:connector-curvature="0" />
    <path
       style="opacity:1;fill:#000000;fill-opacity:1;stroke:none;stroke-width:25;stroke-linecap:butt;stroke-linejoin:round;stroke-miterlimit:4;stroke-dasharray:none;stroke-dashoffset:0;stroke-opacity:1"
       d="m 14.941409,1033.2618 c -0.395952,-0.1523 -0.97818,-0.5142 -1.139068,-0.7081 -0.09246,-0.1114 -0.111468,-0.4729 -0.08397,-1.597 0.03515,-1.4366 0.04299,-1.4848 0.698164,-4.2907 l 0.662615,-2.8379 0.838319,0.025 0.838319,0.025 0.532941,2.5446 c 0.519425,2.4801 0.53416,2.589 0.581051,4.2916 l 0.04811,1.747 -0.289881,0.2439 c -0.534089,0.4494 -0.978398,0.6201 -1.694608,0.651 -0.42371,0.018 -0.78803,-0.017 -0.991997,-0.095 z"
       id="path4806"
       inkscape:connector-curvature="0" />
    <path
       style="opacity:1;fill:#000000;fill-opacity:1;stroke:none;stroke-width:25;stroke-linecap:butt;stroke-linejoin:round;stroke-miterlimit:4;stroke-dasharray:none;stroke-dashoffset:0;stroke-opacity:1"
       d="m 19.515367,1033.2003 c -0.812057,-0.4058 -0.84306,-0.4795 -0.794163,-1.8889 0.05214,-1.503 0.01082,-1.7909 -0.690261,-4.8084 -0.318824,-1.3722 -0.57968,-2.5341 -0.57968,-2.5819 0,-0.051 0.401777,-0.087 0.974484,-0.087 l 0.974484,0 0.712738,1.3616 c 0.392007,0.7489 1.118667,2.0819 1.614802,2.9622 l 0.902064,1.6005 0,1.3945 0,1.3945 -0.431788,0.3293 c -0.912859,0.6962 -1.737932,0.7957 -2.68268,0.3236 z"
       id="path4808"
       inkscape:connector-curvature="0" />
    <path
       style="opacity:1;fill:#000000;fill-opacity:1;stroke:none;stroke-width:25;stroke-linecap:butt;stroke-linejoin:round;stroke-miterlimit:4;stroke-dasharray:none;stroke-dashoffset:0;stroke-opacity:1"
       d="m 24.817335,1033.442 c -0.44729,-0.1408 -0.7241,-0.2881 -1.093748,-0.5823 l -0.290176,-0.2309 -2e-6,-1.5045 -3e-6,-1.5045 -0.506546,-0.9062 c -0.484268,-0.8664 -2.450944,-4.1837 -2.759469,-4.6545 l -0.147379,-0.225 1.193304,0 1.193304,0 0.597614,0.7781 c 0.328687,0.428 1.381413,1.7424 2.33939,2.921 l 1.741777,2.1428 0.0039,1.2054 c 0.005,1.5628 -0.05931,1.7899 -0.600329,2.12 -0.41239,0.2516 -1.119776,0.5645 -1.249298,0.5526 -0.03584,0 -0.225872,-0.057 -0.4223,-0.1183 z"
       id="path4810"
       inkscape:connector-curvature="0" />
    <path
       style="opacity:1;fill:#000000;fill-opacity:1;stroke:none;stroke-width:25;stroke-linecap:butt;stroke-linejoin:round;stroke-miterlimit:4;stroke-dasharray:none;stroke-dashoffset:0;stroke-opacity:1"
       d="m 7.853049,1048.8444 c -1.0242645,-0.063 -1.4122929,-0.2386 -1.7588923,-0.796 l -0.2053935,-0.3303 0,-6.1161 c 0,-3.3638 0.030447,-6.2248 0.06766,-6.3576 0.050379,-0.1798 0.1529983,-0.2652 0.4017857,-0.3343 0.2214988,-0.062 3.5416635,-0.093 9.8498121,-0.093 l 9.515686,-5e-4 0.216457,0.2304 0.216456,0.2303 0,6.2719 0,6.2718 -0.243624,0.3197 c -0.133993,0.1758 -0.395154,0.4139 -0.580357,0.529 l -0.336733,0.2094 -8.125,0.01 c -4.46875,0.01 -8.5267859,-0.014 -9.0178573,-0.045 z m 16.741071,-7.912 0,-4.509 -8.526785,0 -8.526786,0 0,4.509 0,4.5089 8.526786,0 8.526785,0 0,-4.5089 z"
       id="path4812"
       inkscape:connector-curvature="0" />
  </g>
</svg>
