<?xml version="1.0" encoding="UTF-8" standalone="no"?>
<!-- Created with Inkscape (http://www.inkscape.org/) -->

<svg
   xmlns:dc="http://purl.org/dc/elements/1.1/"
   xmlns:cc="http://creativecommons.org/ns#"
   xmlns:rdf="http://www.w3.org/1999/02/22-rdf-syntax-ns#"
   xmlns:svg="http://www.w3.org/2000/svg"
   xmlns="http://www.w3.org/2000/svg"
   xmlns:sodipodi="http://sodipodi.sourceforge.net/DTD/sodipodi-0.dtd"
   xmlns:inkscape="http://www.inkscape.org/namespaces/inkscape"
   width="32"
   height="32"
   viewBox="0 0 32 32.000001"
   id="svg4153"
   version="1.1"
   inkscape:version="0.91 r13725"
   sodipodi:docname="laundry.svg">
  <defs
     id="defs4155" />
  <sodipodi:namedview
     id="base"
     pagecolor="#ffffff"
     bordercolor="#666666"
     borderopacity="1.0"
     inkscape:pageopacity="0.0"
     inkscape:pageshadow="2"
     inkscape:zoom="15.839192"
     inkscape:cx="2.7913437"
     inkscape:cy="12.098736"
     inkscape:document-units="px"
     inkscape:current-layer="layer1"
     showgrid="false"
     units="px"
     inkscape:window-width="1920"
     inkscape:window-height="1138"
     inkscape:window-x="-8"
     inkscape:window-y="-8"
     inkscape:window-maximized="1" />
  <metadata
     id="metadata4158">
    <rdf:RDF>
      <cc:Work
         rdf:about="">
        <dc:format>image/svg+xml</dc:format>
        <dc:type
           rdf:resource="http://purl.org/dc/dcmitype/StillImage" />
        <dc:title></dc:title>
      </cc:Work>
    </rdf:RDF>
  </metadata>
  <g
     inkscape:label="Ebene 1"
     inkscape:groupmode="layer"
     id="layer1"
     transform="translate(0,-1020.3622)">
    <path
       style="opacity:1;fill:#000000;fill-opacity:1;stroke:none;stroke-width:0.62500006;stroke-linecap:round;stroke-linejoin:round;stroke-miterlimit:4;stroke-dasharray:none;stroke-opacity:1"
       d="m 15.451063,1045.627 c -0.87207,-0.1325 -1.49433,-0.3188 -2.141294,-0.6412 -2.480046,-1.236 -4.0147255,-3.9082 -3.8804145,-6.7566 0.08912,-1.8903 0.8880365,-3.6707 2.2127665,-4.9313 0.945788,-0.9001 1.998495,-1.4527 3.28501,-1.7245 0.62496,-0.132 1.727321,-0.1443 2.358084,-0.026 1.352679,0.253 2.49058,0.8621 3.497962,1.8723 0.990815,0.9936 1.622166,2.1306 1.924557,3.4657 0.123438,0.5451 0.212396,1.6595 0.174966,2.192 -0.224981,3.2006 -2.478243,5.8522 -5.49536,6.4668 -0.332458,0.068 -1.661824,0.1248 -1.936277,0.083 z m 6.173306,-3.7075 c 0.02681,-0.05 0.03851,-0.091 0.02599,-0.091 -0.01254,0 -0.04472,0.041 -0.07154,0.091 -0.02681,0.05 -0.03851,0.091 -0.02599,0.091 0.01254,0 0.04471,-0.041 0.07154,-0.091 z m 0.361248,-0.7518 c 0,-0.025 -0.0293,0.01 -0.06511,0.068 -0.03581,0.063 -0.06511,0.1344 -0.06511,0.1595 0,0.025 0.0293,-0.01 0.06511,-0.068 0.03581,-0.063 0.06511,-0.1344 0.06511,-0.1595 z m 0.09295,-0.2278 c 0,-0.025 -0.01988,-0.015 -0.04416,0.023 -0.02429,0.038 -0.04416,0.089 -0.04416,0.1139 0,0.025 0.01988,0.015 0.04416,-0.023 0.02429,-0.038 0.04416,-0.089 0.04416,-0.1139 z m -9.991755,-2.2302 c 0.386525,-0.1177 0.655677,-0.3331 0.817379,-0.6541 l 0.141133,-0.2802 0.05152,0.172 c 0.08059,0.269 0.339733,0.5347 0.682537,0.6998 0.263021,0.1268 0.365038,0.1495 0.742852,0.1656 0.834603,0.036 1.447776,-0.2933 1.661113,-0.8911 0.03355,-0.094 0.0619,-0.1342 0.063,-0.089 0.0034,0.1429 0.173238,0.4233 0.350322,0.5788 0.540912,0.4749 1.497372,0.5477 2.110642,0.1605 0.228485,-0.1442 0.490347,-0.4572 0.528734,-0.632 l 0.03122,-0.1422 0.100887,0.2286 c 0.221598,0.5022 0.776328,0.7954 1.504472,0.7954 0.714338,0 1.313046,-0.3119 1.501157,-0.782 0.219475,-0.5485 -0.276791,-2.1552 -1.003835,-3.25 -0.951304,-1.4324 -2.350505,-2.3734 -4.074825,-2.7404 -0.578928,-0.1233 -1.733854,-0.1127 -2.355867,0.022 -1.210889,0.2613 -2.204346,0.7933 -3.089578,1.6546 -0.967325,0.9411 -1.58582,2.0663 -1.8872655,3.4333 -0.115082,0.5219 -0.114691,0.6769 0.0023,0.9186 0.1523295,0.3147 0.5807325,0.5982 1.0565715,0.6992 0.256416,0.054 0.77458,0.022 1.065507,-0.067 z"
       id="path5956"
       inkscape:connector-curvature="0" />
    <path
       style="opacity:1;fill:#000000;fill-opacity:1;stroke:none;stroke-width:0.62500006;stroke-linecap:round;stroke-linejoin:round;stroke-miterlimit:4;stroke-dasharray:none;stroke-opacity:1"
       d="m 7.0453458,1036.4523 0,-11.7543 9.1802282,0 9.18023,0 0,11.7543 0,11.7544 -9.18023,0 -9.1802282,0 0,-11.7544 z m 17.8024672,2.0844 -0.0115,-9.1233 -8.622127,-0.011 -8.6221269,-0.011 0,9.1348 0,9.1348 8.6336279,0 8.633628,0 -0.0115,-9.1233 z m 0.01125,-11.5607 0,-1.7313 -8.633517,0 -8.6335163,0 0,1.7313 0,1.7312 8.6335163,0 8.633517,0 0,-1.7312 z"
       id="path5958"
       inkscape:connector-curvature="0" />
    <path
       style="opacity:1;fill:#000000;fill-opacity:1;stroke:none;stroke-width:0.62500006;stroke-linecap:round;stroke-linejoin:round;stroke-miterlimit:4;stroke-dasharray:none;stroke-opacity:1"
       d="m 11.892821,1028.1192 c -0.613176,-0.2785 -0.904616,-1.0856 -0.618409,-1.7127 0.442898,-0.9704 1.70962,-0.9948 2.17585,-0.042 0.164089,0.3354 0.172386,0.7557 0.02172,1.1001 -0.1149,0.2626 -0.421886,0.575 -0.664649,0.6765 -0.221155,0.093 -0.687298,0.081 -0.914508,-0.022 z m 0.807388,-0.1656 c 0.597258,-0.2108 0.856663,-0.9277 0.552612,-1.5273 -0.08206,-0.1618 -0.193445,-0.2943 -0.32284,-0.384 -0.178018,-0.1234 -0.232409,-0.137 -0.550041,-0.137 -0.308528,0 -0.376175,0.016 -0.5424,0.1257 -0.298664,0.1976 -0.435648,0.4427 -0.456802,0.817 -0.02214,0.3918 0.06398,0.6378 0.305922,0.8741 0.292211,0.2853 0.637427,0.3642 1.013549,0.2315 z"
       id="path5960"
       inkscape:connector-curvature="0" />
    <path
       style="opacity:1;fill:#000000;fill-opacity:1;stroke:none;stroke-width:0.62500006;stroke-linecap:round;stroke-linejoin:round;stroke-miterlimit:4;stroke-dasharray:none;stroke-opacity:1"
       d="m 8.8597699,1028.1878 c -0.2561101,-0.091 -0.5064486,-0.3139 -0.6549847,-0.5821 -0.1192038,-0.2151 -0.134352,-0.2861 -0.134352,-0.6297 0,-0.3445 0.015001,-0.4144 0.1357345,-0.6324 0.2490531,-0.4496 0.6694947,-0.6752 1.1741168,-0.6299 0.6238085,0.056 1.0787795,0.5904 1.0810195,1.2697 0.0028,0.8628 -0.8217345,1.4829 -1.6015341,1.2044 z m 0.6855876,-0.1892 c 0.4721725,-0.1403 0.7748035,-0.621 0.7207295,-1.1449 -0.115183,-1.116 -1.5960141,-1.2961 -1.9688308,-0.2394 -0.1972865,0.5591 0.1145637,1.2172 0.6558161,1.3839 0.2740952,0.084 0.3093552,0.084 0.5922852,4e-4 l 0,0 z"
       id="path5962"
       inkscape:connector-curvature="0" />
    <path
       style="opacity:1;fill:#000000;fill-opacity:1;stroke:none;stroke-width:0.62500006;stroke-linecap:round;stroke-linejoin:round;stroke-miterlimit:4;stroke-dasharray:none;stroke-opacity:1"
       d="m 22.69041,1028.1192 c -0.569255,-0.2585 -0.8711,-0.9583 -0.678067,-1.572 0.281382,-0.8946 1.336749,-1.1767 1.983289,-0.5302 0.507273,0.5073 0.494546,1.3864 -0.02704,1.8672 -0.108225,0.1 -0.272424,0.213 -0.364877,0.2516 -0.231775,0.097 -0.681492,0.089 -0.913308,-0.017 z m 0.773832,-0.1511 c 0.112687,-0.034 0.269843,-0.138 0.393802,-0.2619 0.472045,-0.4721 0.409425,-1.2826 -0.12829,-1.6605 -0.386586,-0.2717 -0.980982,-0.2003 -1.303377,0.1565 -0.715899,0.7925 0.03184,2.0647 1.037865,1.7659 z"
       id="path5964"
       inkscape:connector-curvature="0" />
  </g>
</svg>
