<?xml version="1.0" encoding="UTF-8" standalone="no"?>
<!-- Created with Inkscape (http://www.inkscape.org/) -->

<svg
   xmlns:dc="http://purl.org/dc/elements/1.1/"
   xmlns:cc="http://creativecommons.org/ns#"
   xmlns:rdf="http://www.w3.org/1999/02/22-rdf-syntax-ns#"
   xmlns:svg="http://www.w3.org/2000/svg"
   xmlns="http://www.w3.org/2000/svg"
   xmlns:sodipodi="http://sodipodi.sourceforge.net/DTD/sodipodi-0.dtd"
   xmlns:inkscape="http://www.inkscape.org/namespaces/inkscape"
   width="32"
   height="32"
   viewBox="0 0 32 32.000001"
   id="svg4135"
   version="1.1"
   inkscape:version="0.91 r13725"
   sodipodi:docname="museum_frame_color.svg">
  <defs
     id="defs4137" />
  <sodipodi:namedview
     id="base"
     pagecolor="#ffffff"
     bordercolor="#666666"
     borderopacity="1.0"
     inkscape:pageopacity="0.0"
     inkscape:pageshadow="2"
     inkscape:zoom="11.2"
     inkscape:cx="-39.245166"
     inkscape:cy="-2.9020413"
     inkscape:document-units="px"
     inkscape:current-layer="layer1"
     showgrid="false"
     units="px"
     inkscape:window-width="1920"
     inkscape:window-height="1138"
     inkscape:window-x="-8"
     inkscape:window-y="-8"
     inkscape:window-maximized="1" />
  <metadata
     id="metadata4140">
    <rdf:RDF>
      <cc:Work
         rdf:about="">
        <dc:format>image/svg+xml</dc:format>
        <dc:type
           rdf:resource="http://purl.org/dc/dcmitype/StillImage" />
        <dc:title></dc:title>
      </cc:Work>
    </rdf:RDF>
  </metadata>
  <g
     inkscape:label="Ebene 1"
     inkscape:groupmode="layer"
     id="layer1"
     transform="translate(0,-1020.3622)">
    <path
       inkscape:connector-curvature="0"
       id="path4140"
       d="m 3.2224824,1020.3622 25.5550136,0 c 1.723663,0 3.222504,1.424 3.222504,3.2226 l 0,25.5548 c 0,1.7239 -1.498841,3.2226 -3.222504,3.2226 l -25.5550136,0 C 1.4238863,1052.3622 0,1050.8635 0,1049.1396 l 0,-25.5548 c 0,-1.7986 1.4238863,-3.2226 3.2224824,-3.2226 z"
       style="fill:#c83771;fill-opacity:1;fill-rule:nonzero;stroke:none" />
    <path
       inkscape:connector-curvature="0"
       id="path4142"
       d="m 27.203716,1022.3106 -22.33253,0 c -1.5737615,0 -2.8477645,1.2742 -2.8477645,2.848 l 0,22.3325 c 0,1.5738 1.274003,2.7726 2.8477645,2.7726 l 22.33253,0 c 1.57378,0 2.847792,-1.1988 2.847792,-2.7726 l 0,-22.3325 c 0,-1.5738 -1.274012,-2.848 -2.847792,-2.848 z"
       style="fill:#ffffff;fill-opacity:1;fill-rule:nonzero;stroke:none" />
    <path
       style="opacity:1;fill:#c83771;fill-opacity:1;stroke:none;stroke-width:25;stroke-linecap:butt;stroke-linejoin:round;stroke-miterlimit:4;stroke-dasharray:none;stroke-dashoffset:0;stroke-opacity:1"
       d="m 5.7721785,1045.4791 c -0.5006106,-0.014 -0.910201,-0.043 -0.910201,-0.066 0,-0.022 0.3111594,-0.684 0.6914655,-1.4694 l 0.6914654,-1.4279 0.3816661,0 c 0.2099163,0 0.5962376,-0.022 0.8584919,-0.049 l 0.4768259,-0.049 -0.020045,-4.0751 -0.020046,-4.0751 -0.7940051,-0.021 -0.7940051,-0.022 0,-0.7332 0,-0.7332 9.6442569,0 9.644257,0 0,0.7359 0,0.7359 -0.813371,0 -0.813371,0 0,4.1444 0,4.1442 0.812984,0 0.812983,0 0.736295,1.4711 c 0.404961,0.809 0.736295,1.4888 0.736295,1.5105 0,0.042 -19.7380821,0.024 -21.3219422,-0.018 z m 8.6121845,-3.0868 c 0.0868,-0.087 0.100468,-5.5645 0.01561,-6.2578 -0.104832,-0.8562 -0.310861,-1.2334 -0.892719,-1.6341 -0.391315,-0.2696 -0.459344,-0.2904 -0.844703,-0.2584 -0.529566,0.044 -1.072181,0.3528 -1.345557,0.7659 -0.180922,0.2734 -0.210301,0.4163 -0.265748,1.2932 -0.03429,0.5422 -0.06398,2.1679 -0.06599,3.6126 l -0.0037,2.6266 1.67957,-0.052 c 0.923764,-0.029 1.699189,-0.072 1.723168,-0.096 z m 5.529266,0.072 0.991954,-0.05 -0.02366,-3.493 c -0.02588,-3.8236 -0.01002,-3.6907 -0.498999,-4.1796 -0.346996,-0.3471 -0.643699,-0.4687 -1.151396,-0.472 -0.550399,0 -1.063821,0.2535 -1.407928,0.7047 -0.204577,0.2682 -0.214529,0.325 -0.267355,1.5281 -0.03018,0.6873 -0.05774,2.3215 -0.06127,3.6317 l -0.0065,2.382 0.716541,-3e-4 c 0.394097,-2e-4 1.16292,-0.023 1.708493,-0.051 l 0,0 z"
       id="path4850"
       inkscape:connector-curvature="0" />
    <path
       style="opacity:1;fill:#c83771;fill-opacity:1;stroke:none;stroke-width:25;stroke-linecap:butt;stroke-linejoin:round;stroke-miterlimit:4;stroke-dasharray:none;stroke-dashoffset:0;stroke-opacity:1"
       d="m 6.3502509,1030.186 0.022273,-0.7102 4.8217831,-1.6073 4.821782,-1.6073 4.80311,1.6005 4.803107,1.6007 0,0.7169 0,0.717 -9.647164,0 -9.6471638,0 0.022273,-0.7103 z"
       id="path4852"
       inkscape:connector-curvature="0" />
  </g>
</svg>
