<?xml version="1.0" encoding="UTF-8" standalone="no"?>
<!-- Created with Inkscape (http://www.inkscape.org/) -->

<svg
   xmlns:dc="http://purl.org/dc/elements/1.1/"
   xmlns:cc="http://creativecommons.org/ns#"
   xmlns:rdf="http://www.w3.org/1999/02/22-rdf-syntax-ns#"
   xmlns:svg="http://www.w3.org/2000/svg"
   xmlns="http://www.w3.org/2000/svg"
   xmlns:sodipodi="http://sodipodi.sourceforge.net/DTD/sodipodi-0.dtd"
   xmlns:inkscape="http://www.inkscape.org/namespaces/inkscape"
   width="32"
   height="32"
   viewBox="0 0 32 32.000001"
   id="svg4135"
   version="1.1"
   inkscape:version="0.91 r13725"
   sodipodi:docname="observation_tower.svg">
  <defs
     id="defs4137" />
  <sodipodi:namedview
     id="base"
     pagecolor="#ffffff"
     bordercolor="#666666"
     borderopacity="1.0"
     inkscape:pageopacity="0.0"
     inkscape:pageshadow="2"
     inkscape:zoom="15.839192"
     inkscape:cx="9.9977156"
     inkscape:cy="7.4212154"
     inkscape:document-units="px"
     inkscape:current-layer="layer1"
     showgrid="false"
     units="px"
     inkscape:window-width="1920"
     inkscape:window-height="1138"
     inkscape:window-x="-8"
     inkscape:window-y="-8"
     inkscape:window-maximized="1" />
  <metadata
     id="metadata4140">
    <rdf:RDF>
      <cc:Work
         rdf:about="">
        <dc:format>image/svg+xml</dc:format>
        <dc:type
           rdf:resource="http://purl.org/dc/dcmitype/StillImage" />
        <dc:title></dc:title>
      </cc:Work>
    </rdf:RDF>
  </metadata>
  <g
     inkscape:label="Ebene 1"
     inkscape:groupmode="layer"
     id="layer1"
     transform="translate(0,-1020.3622)">
    <path
       style="opacity:1;fill:#000000;fill-opacity:1;stroke:none;stroke-width:25;stroke-linecap:butt;stroke-linejoin:round;stroke-miterlimit:4;stroke-dasharray:none;stroke-dashoffset:0;stroke-opacity:1"
       d="m 6.7976673,1048.2876 c -0.3874,-0.2362 -0.3671008,0.111 -0.3665186,-6.2692 l 5.366e-4,-5.8557 -0.1324157,0 c -0.130492,0 -0.133017,0.027 -0.1738037,1.8414 -0.045073,2.0054 -0.052877,2.0467 -0.4147803,2.1966 -0.2394928,0.099 -0.4749112,0.045 -0.6764997,-0.157 l -0.1544351,-0.1544 0.017817,-2.5954 0.017817,-2.5954 0.1894036,-0.1515 0.1894036,-0.1515 2.8558416,-3e-4 2.8558414,-3e-4 0.206183,0.1842 0.206184,0.1841 0.01862,2.4029 c 0.02094,2.7028 0.004,2.857 -0.330738,3.0166 -0.249774,0.1191 -0.463692,0.08 -0.705944,-0.128 l -0.171739,-0.1478 -0.02905,-1.8721 c -0.02755,-1.7753 -0.03515,-1.8721 -0.14693,-1.8721 -0.1140872,0 -0.1180961,0.1691 -0.1245709,5.2559 -0.00368,2.8908 -0.024988,5.5495 -0.047351,5.9084 -0.039618,0.6356 -0.045947,0.6571 -0.2468441,0.8365 -0.2340065,0.209 -0.538553,0.243 -0.8292963,0.093 -0.3954442,-0.2045 -0.3849614,-0.1115 -0.3859086,-3.4261 -4.735e-4,-1.6593 -0.018391,-3.0823 -0.039816,-3.1623 -0.031734,-0.1185 -0.075454,-0.1419 -0.2358925,-0.1263 l -0.1969386,0.019 -0.031567,3.1883 c -0.017362,1.7535 -0.055694,3.2374 -0.085183,3.2975 -0.079383,0.1617 -0.4402411,0.3643 -0.6483165,0.364 -0.1000734,-10e-5 -0.2724726,-0.055 -0.3831095,-0.1229 z"
       id="path4872"
       inkscape:connector-curvature="0" />
    <path
       style="opacity:1;fill:#000000;fill-opacity:1;stroke:none;stroke-width:25;stroke-linecap:butt;stroke-linejoin:round;stroke-miterlimit:4;stroke-dasharray:none;stroke-dashoffset:0;stroke-opacity:1"
       d="m 7.7968117,1033.8805 c -0.7620039,-0.2193 -1.268652,-0.9583 -1.1891382,-1.7346 0.061282,-0.5983 0.4978849,-1.1728 1.0300285,-1.3554 0.3711509,-0.1273 0.956063,-0.1026 1.2551592,0.053 0.3254329,0.1694 0.6933685,0.552 0.8176663,0.8504 0.1418363,0.3404 0.1266094,0.9601 -0.031626,1.287 -0.1867751,0.3858 -0.6149997,0.7551 -1.0124747,0.8731 -0.3719509,0.1105 -0.5581075,0.1162 -0.8696154,0.026 z"
       id="path4874"
       inkscape:connector-curvature="0" />
    <path
       style="opacity:1;fill:#000000;fill-opacity:1;stroke:none;stroke-width:25;stroke-linecap:butt;stroke-linejoin:round;stroke-miterlimit:4;stroke-dasharray:none;stroke-dashoffset:0;stroke-opacity:1"
       d="m 13.368317,1048.3003 c 0.05704,-0.1911 3.19539,-15.1837 3.19539,-15.2651 0,-0.016 -0.468774,-0.029 -1.04172,-0.029 l -1.041719,0 2.33e-4,-2.1623 c 1.26e-4,-1.1893 0.01855,-2.5627 0.04093,-3.0521 l 0.0407,-0.8897 1.363809,-0.7501 c 3.064701,-1.6858 4.215136,-2.3037 4.40855,-2.3678 0.188298,-0.062 0.252671,-0.04 0.852316,0.2997 0.356749,0.2019 0.733866,0.4087 0.838038,0.4594 0.104172,0.051 0.210277,0.1219 0.235788,0.1581 0.02551,0.036 0.04682,0.045 0.04735,0.019 5.05e-4,-0.026 0.150122,0.045 0.332423,0.1579 0.539995,0.3333 0.700788,0.4235 0.883884,0.4957 0.09549,0.038 0.173619,0.094 0.173619,0.1254 0,0.031 0.03551,0.058 0.07892,0.06 0.06083,0 1.854448,0.9949 2.383328,1.3192 0.08158,0.05 0.09762,0.4786 0.115756,3.093 l 0.02105,3.0349 -0.890356,0 -0.890357,0 0.03319,0.1421 c 0.03321,0.1421 1.317046,6.3122 2.498293,12.0066 0.345208,1.6641 0.627651,3.0776 0.627651,3.1409 0,0.1054 -0.067,0.1153 -0.779449,0.1153 l -0.77945,0 -0.144546,-0.6889 -0.144546,-0.6888 -1.070851,-1.3788 c -2.783946,-3.5846 -4.176098,-5.3275 -4.240111,-5.3083 -0.03847,0.012 -1.222016,1.4576 -2.630095,3.2135 l -2.560144,3.1927 -0.105776,0.4978 c -0.05818,0.2738 -0.137222,0.647 -0.175656,0.8293 l -0.06988,0.3315 -0.819772,0 c -0.751209,0 -0.817014,-0.01 -0.786792,-0.1105 z m 11.249355,-7.032 c -0.649552,-3.1446 -0.980858,-4.6827 -1.016242,-4.7181 -0.01804,-0.018 -0.07155,0.01 -0.118917,0.058 -0.203603,0.215 -1.820153,2.2353 -1.849246,2.3111 -0.02913,0.076 0.778521,1.1456 2.652155,3.5125 0.379356,0.4793 0.701467,0.8596 0.715801,0.8453 0.01433,-0.014 -0.158264,-0.9184 -0.383551,-2.009 z m -7.22093,0.3082 c 1.944585,-2.4301 2.028979,-2.5454 1.984082,-2.7115 -0.04273,-0.1582 -1.738514,-2.3323 -1.847448,-2.3686 -0.03882,-0.013 -0.12201,0.2493 -0.198932,0.627 -0.07272,0.3571 -0.375047,1.814 -0.671844,3.2377 -0.525498,2.5207 -0.567885,2.7464 -0.515931,2.7464 0.0137,0 0.57623,-0.689 1.250073,-1.531 z m 3.634435,-4.5457 c 0.23823,-0.2865 0.819651,-1.0042 1.292047,-1.595 l 0.858903,-1.0741 -0.141413,-0.6621 -0.141414,-0.6621 -2.362282,0 -2.362281,0 -0.115187,0.6182 -0.115187,0.6181 0.583875,0.7708 c 0.966508,1.276 1.955724,2.507 2.014509,2.507 0.03041,0 0.250201,-0.2344 0.48843,-0.5208 z m 3.298078,-7.6556 0,-1.421 -3.898558,0.016 -3.898557,0.016 -0.01699,1.4048 -0.01699,1.4047 3.915549,0 3.915549,0 0,-1.421 z"
       id="path4876"
       inkscape:connector-curvature="0" />
  </g>
</svg>
