<?xml version="1.0" encoding="UTF-8" standalone="no"?>
<!-- Created with Inkscape (http://www.inkscape.org/) -->

<svg
   xmlns:dc="http://purl.org/dc/elements/1.1/"
   xmlns:cc="http://creativecommons.org/ns#"
   xmlns:rdf="http://www.w3.org/1999/02/22-rdf-syntax-ns#"
   xmlns:svg="http://www.w3.org/2000/svg"
   xmlns="http://www.w3.org/2000/svg"
   xmlns:sodipodi="http://sodipodi.sourceforge.net/DTD/sodipodi-0.dtd"
   xmlns:inkscape="http://www.inkscape.org/namespaces/inkscape"
   width="32"
   height="32"
   viewBox="0 0 32 32.000001"
   id="svg4135"
   version="1.1"
   inkscape:version="0.91 r13725"
   sodipodi:docname="pharmacy_frame.svg">
  <defs
     id="defs4137" />
  <sodipodi:namedview
     id="base"
     pagecolor="#ffffff"
     bordercolor="#666666"
     borderopacity="1.0"
     inkscape:pageopacity="0.0"
     inkscape:pageshadow="2"
     inkscape:zoom="15.839192"
     inkscape:cx="-3.79718"
     inkscape:cy="5.3241165"
     inkscape:document-units="px"
     inkscape:current-layer="layer1"
     showgrid="false"
     units="px"
     inkscape:window-width="1920"
     inkscape:window-height="1138"
     inkscape:window-x="-8"
     inkscape:window-y="-8"
     inkscape:window-maximized="1" />
  <metadata
     id="metadata4140">
    <rdf:RDF>
      <cc:Work
         rdf:about="">
        <dc:format>image/svg+xml</dc:format>
        <dc:type
           rdf:resource="http://purl.org/dc/dcmitype/StillImage" />
        <dc:title></dc:title>
      </cc:Work>
    </rdf:RDF>
  </metadata>
  <g
     inkscape:label="Ebene 1"
     inkscape:groupmode="layer"
     id="layer1"
     transform="translate(0,-1020.3622)">
    <path
       inkscape:connector-curvature="0"
       id="path4140"
       d="m 3.2224824,1020.3622 25.5550136,0 c 1.723663,0 3.222504,1.424 3.222504,3.2226 l 0,25.5548 c 0,1.7239 -1.498841,3.2226 -3.222504,3.2226 l -25.5550136,0 C 1.4238863,1052.3622 0,1050.8635 0,1049.1396 l 0,-25.5548 c 0,-1.7986 1.4238863,-3.2226 3.2224824,-3.2226 z"
       style="fill:#000000;fill-opacity:1;fill-rule:nonzero;stroke:none" />
    <path
       inkscape:connector-curvature="0"
       id="path4142"
       d="m 27.203716,1022.3106 -22.33253,0 c -1.5737615,0 -2.8477645,1.2742 -2.8477645,2.848 l 0,22.3325 c 0,1.5738 1.274003,2.7726 2.8477645,2.7726 l 22.33253,0 c 1.57378,0 2.847792,-1.1988 2.847792,-2.7726 l 0,-22.3325 c 0,-1.5738 -1.274012,-2.848 -2.847792,-2.848 z"
       style="fill:#ffffff;fill-opacity:1;fill-rule:nonzero;stroke:none" />
    <path
       style="opacity:1;fill:#000000;fill-opacity:1;stroke:none;stroke-width:25;stroke-linecap:butt;stroke-linejoin:round;stroke-miterlimit:4;stroke-dasharray:none;stroke-dashoffset:0;stroke-opacity:1"
       d="m 8.5474842,1040.7511 0.00187,-6.0011 1.5017408,-1.5325 1.501743,-1.5324 4.471245,0 4.471246,0 1.503253,1.5041 1.503256,1.5038 0,6.0274 0,6.0274 -7.478105,0 -7.4781046,0 0.00187,-6.0011 z m 9.0463778,1.5916 0,-1.482 0.726953,-0.035 c 0.399822,-0.019 1.082432,-0.035 1.51691,-0.035 l 0.789959,0 0,-1.57 0,-1.5701 -0.518943,-2e-4 c -0.28542,-10e-5 -0.968029,-0.016 -1.516912,-0.036 l -0.997967,-0.035 0,-1.482 0,-1.4818 -1.570136,0 -1.570136,0 0,1.4818 0,1.482 -0.966581,0.036 c -0.531619,0.019 -1.211581,0.036 -1.511023,0.036 l -0.544441,0 -0.02294,1.5568 c -0.01261,0.8562 -0.01385,1.5748 -0.0028,1.5967 0.01111,0.022 0.701386,0.04 1.533958,0.04 l 1.513771,0 0,1.4548 c 0,0.8002 0.01597,1.4707 0.03548,1.4903 0.01952,0.019 0.726077,0.036 1.570135,0.036 l 1.534652,0 0,-1.4821 z"
       id="path4886"
       inkscape:connector-curvature="0" />
    <path
       style="opacity:1;fill:#000000;fill-opacity:1;stroke:none;stroke-width:25;stroke-linecap:butt;stroke-linejoin:round;stroke-miterlimit:4;stroke-dasharray:none;stroke-dashoffset:0;stroke-opacity:1"
       d="m 11.526218,1027.8573 0,-2.2354 4.497508,0 4.497508,0 0,2.2354 0,2.2355 -4.497508,0 -4.497508,0 0,-2.2355 z"
       id="path4890"
       inkscape:connector-curvature="0" />
  </g>
</svg>
