<?xml version="1.0" encoding="UTF-8" standalone="no"?>
<!-- Created with Inkscape (http://www.inkscape.org/) -->

<svg
   xmlns:dc="http://purl.org/dc/elements/1.1/"
   xmlns:cc="http://creativecommons.org/ns#"
   xmlns:rdf="http://www.w3.org/1999/02/22-rdf-syntax-ns#"
   xmlns:svg="http://www.w3.org/2000/svg"
   xmlns="http://www.w3.org/2000/svg"
   xmlns:sodipodi="http://sodipodi.sourceforge.net/DTD/sodipodi-0.dtd"
   xmlns:inkscape="http://www.inkscape.org/namespaces/inkscape"
   width="32"
   height="32"
   viewBox="0 0 32 32.000001"
   id="svg4135"
   version="1.1"
   inkscape:version="0.91 r13725"
   sodipodi:docname="post_office.svg">
  <defs
     id="defs4137" />
  <sodipodi:namedview
     id="base"
     pagecolor="#ffffff"
     bordercolor="#666666"
     borderopacity="1.0"
     inkscape:pageopacity="0.0"
     inkscape:pageshadow="2"
     inkscape:zoom="15.839192"
     inkscape:cx="9.9977156"
     inkscape:cy="5.3241165"
     inkscape:document-units="px"
     inkscape:current-layer="layer1"
     showgrid="false"
     units="px"
     inkscape:window-width="1920"
     inkscape:window-height="1138"
     inkscape:window-x="-8"
     inkscape:window-y="-8"
     inkscape:window-maximized="1" />
  <metadata
     id="metadata4140">
    <rdf:RDF>
      <cc:Work
         rdf:about="">
        <dc:format>image/svg+xml</dc:format>
        <dc:type
           rdf:resource="http://purl.org/dc/dcmitype/StillImage" />
        <dc:title></dc:title>
      </cc:Work>
    </rdf:RDF>
  </metadata>
  <g
     inkscape:label="Ebene 1"
     inkscape:groupmode="layer"
     id="layer1"
     transform="translate(0,-1020.3622)">
    <path
       style="opacity:1;fill:#000000;fill-opacity:1;stroke:none;stroke-width:25;stroke-linecap:butt;stroke-linejoin:round;stroke-miterlimit:4;stroke-dasharray:none;stroke-dashoffset:0;stroke-opacity:1"
       d="m 4.8680347,1044.1518 -0.17362,-0.026 0,-7.6666 0,-7.6667 11.3326493,0 11.332648,0 0,7.7024 0,7.7024 -11.159028,-0.01 c -6.137466,-0.01 -11.2371584,-0.021 -11.3326493,-0.036 z m 17.7246963,-3.9638 c -1.65787,-1.6841 -3.02554,-3.062 -3.039267,-3.062 -0.01373,0 -0.315599,0.2353 -0.670825,0.5229 -1.160355,0.9394 -1.812369,1.2448 -2.65753,1.2448 -0.836182,0 -1.500232,-0.2898 -2.70139,-1.1791 -0.324636,-0.2403 -0.627184,-0.4594 -0.672329,-0.4869 -0.05387,-0.033 -0.194912,0.054 -0.410374,0.2517 -0.638211,0.5865 -5.9788343,5.717 -5.9788343,5.7436 0,0.015 4.3075923,0.027 9.5724283,0.027 l 9.572428,0 -3.014307,-3.062 z m 3.783147,-9.875 c -0.05329,-0.053 -6.024099,5.9687 -6.024099,6.0753 0,0.1127 0.659823,0.8192 3.626025,3.8827 l 2.403323,2.4822 0.01609,-6.2015 c 0.0089,-3.4109 -7.51e-4,-6.2183 -0.02134,-6.2387 z m -19.9879897,11.6606 c 1.1338979,-1.074 4.9190597,-4.7256 5.2810577,-5.0948 l 0.376972,-0.3845 -0.439389,-0.4576 c -1.049364,-1.0928 -5.8742535,-5.9187 -5.9174733,-5.9187 -0.058501,0 -0.063618,9.4143 -0.00605,11.1331 0.022864,0.6827 0.067561,1.2413 0.099327,1.2413 0.031765,0 0.3042661,-0.2335 0.6055573,-0.5188 z m 10.6963587,-4.2033 c 0.147753,-0.066 0.510131,-0.3011 0.805285,-0.5229 0.588092,-0.4421 3.141613,-2.9392 5.853997,-5.7246 l 1.736757,-1.7836 -9.398208,0 -9.398208,0 2.0830809,2.0893 c 4.4845711,4.498 5.7959731,5.6658 6.7767661,6.0346 0.314099,0.1181 1.18425,0.066 1.54053,-0.093 z"
       id="path4898"
       inkscape:connector-curvature="0" />
  </g>
</svg>
