<?xml version="1.0" encoding="UTF-8" standalone="no"?>
<!-- Created with Inkscape (http://www.inkscape.org/) -->

<svg
   xmlns:dc="http://purl.org/dc/elements/1.1/"
   xmlns:cc="http://creativecommons.org/ns#"
   xmlns:rdf="http://www.w3.org/1999/02/22-rdf-syntax-ns#"
   xmlns:svg="http://www.w3.org/2000/svg"
   xmlns="http://www.w3.org/2000/svg"
   xmlns:sodipodi="http://sodipodi.sourceforge.net/DTD/sodipodi-0.dtd"
   xmlns:inkscape="http://www.inkscape.org/namespaces/inkscape"
   width="32"
   height="32"
   viewBox="0 0 32 32.000001"
   id="svg4146"
   version="1.1"
   inkscape:version="0.91 r13725"
   sodipodi:docname="prison.svg">
  <defs
     id="defs4148" />
  <sodipodi:namedview
     id="base"
     pagecolor="#ffffff"
     bordercolor="#666666"
     borderopacity="1.0"
     inkscape:pageopacity="0.0"
     inkscape:pageshadow="2"
     inkscape:zoom="15.839192"
     inkscape:cx="9.2912214"
     inkscape:cy="13.913726"
     inkscape:document-units="px"
     inkscape:current-layer="layer1"
     showgrid="false"
     units="px"
     inkscape:window-width="1920"
     inkscape:window-height="1138"
     inkscape:window-x="-8"
     inkscape:window-y="-8"
     inkscape:window-maximized="1" />
  <metadata
     id="metadata4151">
    <rdf:RDF>
      <cc:Work
         rdf:about="">
        <dc:format>image/svg+xml</dc:format>
        <dc:type
           rdf:resource="http://purl.org/dc/dcmitype/StillImage" />
        <dc:title></dc:title>
      </cc:Work>
    </rdf:RDF>
  </metadata>
  <g
     inkscape:label="Ebene 1"
     inkscape:groupmode="layer"
     id="layer1"
     transform="translate(0,-1020.3622)">
    <path
       style="opacity:0.97000002;fill:#000000;fill-opacity:1;stroke:none;stroke-width:3.5;stroke-linecap:round;stroke-linejoin:round;stroke-miterlimit:4;stroke-dasharray:none;stroke-opacity:1"
       d="m 4.9455238,1036.3261 0,-11.1538 11.1537832,0 11.153782,0 0,11.1538 0,11.1538 -11.153782,0 -11.1537832,0 0,-11.1538 z m 4.7850373,6.9034 0.03383,-2.7343 0.3248669,-0.5868 0.324868,-0.5868 0.02864,3.3211 0.02864,3.3211 0.431591,0 0.431592,0 0,-9.6377 0,-9.6378 -2.4365063,0 -2.4365057,0 0,9.6378 0,9.6377 1.6175797,0 1.6175794,0 0.03383,-2.7343 z m 3.9863839,-1.2724 0,-4.0067 2.328217,0 2.328217,0 0,4.0067 0,4.0067 0.487301,0 0.487302,0 0,-9.6377 0,-9.6378 -3.248675,0 -3.248674,0 0,9.6378 0,9.6377 0.433156,0 0.433156,0 0,-4.0067 z m 8.015806,0.731 c 0.0024,-3.2262 0.0054,-3.2718 0.205675,-3.0113 0.381743,0.4967 0.441652,0.995 0.441652,3.6736 l 0,2.6134 1.678481,0 1.678482,0 0,-9.6377 0,-9.6378 -2.436506,0 -2.436506,0 0,9.6378 0,9.6377 0.433158,0 0.433156,0 0.0024,-3.2757 5e-6,0 z"
       id="path16435"
       inkscape:connector-curvature="0" />
    <path
       style="opacity:0.97000002;fill:#000000;fill-opacity:1;stroke:none;stroke-width:3.5;stroke-linecap:round;stroke-linejoin:round;stroke-miterlimit:4;stroke-dasharray:none;stroke-opacity:1"
       d="m 15.287138,1036.1813 c -0.598189,-0.1965 -0.924091,-0.376 -1.272397,-0.7009 l -0.297796,-0.2777 0,-2.0936 0,-2.0937 0.494443,-0.3497 c 0.675222,-0.4775 1.063384,-0.6029 1.887919,-0.6098 0.788155,-0.01 1.479726,0.2454 1.976278,0.7199 l 0.297794,0.2846 0,2.14 0,2.1401 -0.357768,0.2728 c -0.774811,0.591 -1.927854,0.831 -2.728473,0.568 z"
       id="path16437"
       inkscape:connector-curvature="0" />
  </g>
</svg>
