<?xml version="1.0" encoding="UTF-8" standalone="no"?>
<!-- Created with Inkscape (http://www.inkscape.org/) -->

<svg
   xmlns:dc="http://purl.org/dc/elements/1.1/"
   xmlns:cc="http://creativecommons.org/ns#"
   xmlns:rdf="http://www.w3.org/1999/02/22-rdf-syntax-ns#"
   xmlns:svg="http://www.w3.org/2000/svg"
   xmlns="http://www.w3.org/2000/svg"
   xmlns:sodipodi="http://sodipodi.sourceforge.net/DTD/sodipodi-0.dtd"
   xmlns:inkscape="http://www.inkscape.org/namespaces/inkscape"
   width="32"
   height="32"
   viewBox="0 0 32 32.000001"
   id="svg4137"
   version="1.1"
   inkscape:version="0.91 r13725"
   sodipodi:docname="railway_halt_frame_color.svg">
  <defs
     id="defs4139" />
  <sodipodi:namedview
     id="base"
     pagecolor="#ffffff"
     bordercolor="#666666"
     borderopacity="1.0"
     inkscape:pageopacity="0.0"
     inkscape:pageshadow="2"
     inkscape:zoom="22.627417"
     inkscape:cx="-1.185441"
     inkscape:cy="13.674881"
     inkscape:document-units="px"
     inkscape:current-layer="layer1"
     showgrid="false"
     units="px"
     inkscape:window-width="1920"
     inkscape:window-height="1138"
     inkscape:window-x="-8"
     inkscape:window-y="-8"
     inkscape:window-maximized="1" />
  <metadata
     id="metadata4142">
    <rdf:RDF>
      <cc:Work
         rdf:about="">
        <dc:format>image/svg+xml</dc:format>
        <dc:type
           rdf:resource="http://purl.org/dc/dcmitype/StillImage" />
        <dc:title></dc:title>
      </cc:Work>
    </rdf:RDF>
  </metadata>
  <g
     inkscape:label="Ebene 1"
     inkscape:groupmode="layer"
     id="layer1"
     transform="translate(0,-1020.3622)">
    <path
       inkscape:connector-curvature="0"
       id="path4140"
       d="m 3.2224824,1020.3622 25.5550136,0 c 1.723663,0 3.222504,1.424 3.222504,3.2226 l 0,25.5548 c 0,1.7239 -1.498841,3.2226 -3.222504,3.2226 l -25.5550136,0 C 1.4238863,1052.3622 0,1050.8635 0,1049.1396 l 0,-25.5548 c 0,-1.7986 1.4238863,-3.2226 3.2224824,-3.2226 z"
       style="fill:#ff2600;fill-opacity:1;fill-rule:nonzero;stroke:none" />
    <path
       inkscape:connector-curvature="0"
       id="path4142"
       d="m 27.203716,1022.3106 -22.33253,0 c -1.5737615,0 -2.8477645,1.2742 -2.8477645,2.848 l 0,22.3325 c 0,1.5738 1.274003,2.7726 2.8477645,2.7726 l 22.33253,0 c 1.57378,0 2.847792,-1.1988 2.847792,-2.7726 l 0,-22.3325 c 0,-1.5738 -1.274012,-2.848 -2.847792,-2.848 z"
       style="fill:#ffffff;fill-opacity:1;fill-rule:nonzero;stroke:none" />
    <path
       style="opacity:1;fill:#000000;fill-opacity:1;stroke:none;stroke-width:1;stroke-linecap:butt;stroke-linejoin:round;stroke-miterlimit:4;stroke-dasharray:none;stroke-dashoffset:0;stroke-opacity:1"
       d=""
       id="path4711"
       inkscape:connector-curvature="0"
       transform="translate(0,1020.3622)" />
    <path
       style="opacity:1;fill:#000000;fill-opacity:1;stroke:none;stroke-width:1;stroke-linecap:butt;stroke-linejoin:round;stroke-miterlimit:4;stroke-dasharray:none;stroke-dashoffset:0;stroke-opacity:1"
       d=""
       id="path4713"
       inkscape:connector-curvature="0"
       transform="translate(0,1020.3622)" />
    <path
       style="opacity:1;fill:#000000;fill-opacity:1;stroke:none;stroke-width:1;stroke-linecap:butt;stroke-linejoin:round;stroke-miterlimit:4;stroke-dasharray:none;stroke-dashoffset:0;stroke-opacity:1"
       d=""
       id="path4715"
       inkscape:connector-curvature="0"
       transform="translate(0,1020.3622)" />
    <path
       style="fill:#ff2600;fill-opacity:1;stroke:none;stroke-width:55.24271774;stroke-linecap:round;stroke-linejoin:round;stroke-miterlimit:4;stroke-dasharray:none;stroke-opacity:1"
       d="m 9.0148064,1048.1416 c 0.079724,-0.1511 0.7027956,-1.2355 1.3845996,-2.4099 0.681805,-1.1743 1.237846,-2.1716 1.235643,-2.2162 -0.0022,-0.044 -0.283618,-0.2426 -0.625368,-0.4402 -0.421727,-0.2441 -0.737967,-0.5488 -0.98429,-0.949 l -0.3629247,-0.5894 -0.034975,-6.5382 c -0.025332,-4.7349 0.00384,-6.6791 0.1057503,-7.0486 0.1941234,-0.704 0.9397894,-1.517 1.6384794,-1.7867 0.507653,-0.1958 0.979463,-0.2186 4.51999,-0.2186 3.815841,0 3.969877,0.01 4.433917,0.2575 0.611023,0.3272 1.09077,0.807 1.418041,1.4181 0.254432,0.475 0.257493,0.5583 0.257493,7.0094 0,6.0114 -0.01716,6.5732 -0.216638,7.0901 -0.216406,0.5608 -0.916492,1.3089 -1.454106,1.5539 -0.278345,0.1268 -0.27167,0.1426 0.977129,2.3005 0.691563,1.195 1.334076,2.321 1.427805,2.5022 l 0.170408,0.3294 -0.89024,0 -0.89024,0 -0.880701,-1.5274 -0.880703,-1.5273 -3.467119,0 -3.467122,0 -0.859461,1.4975 -0.85946,1.4974 -0.920429,0.035 -0.9204283,0.035 0.1449529,-0.2748 z m 4.1682906,-7.2299 c 1.083952,-0.9121 0.146072,-2.6218 -1.214583,-2.2141 -0.542892,0.1626 -0.927308,0.7032 -0.92798,1.3049 -3.29e-4,0.297 0.105399,0.5071 0.40685,0.8086 0.526523,0.5265 1.184224,0.5646 1.735713,0.1006 z m 7.031106,-0.062 c 0.59508,-0.559 0.471882,-1.6068 -0.239983,-2.0409 -0.447238,-0.2726 -0.805233,-0.2851 -1.271294,-0.044 -0.387197,0.2001 -0.715084,0.7325 -0.714391,1.1599 6.19e-4,0.3763 0.421529,1.0375 0.749017,1.1766 0.412761,0.1754 1.157184,0.049 1.476651,-0.2515 z m -1.107381,-8.2489 c 0.162677,-0.062 0.408768,-0.2339 0.546868,-0.3821 0.224445,-0.2409 0.251088,-0.4143 0.251088,-1.6338 0,-1.348 -0.0041,-1.3683 -0.350163,-1.7144 l -0.350165,-0.3501 -3.129786,0 c -3.398622,0 -3.653824,0.043 -3.933118,0.6556 -0.171997,0.3774 -0.190562,2.3186 -0.02631,2.7507 0.06424,0.1688 0.293348,0.4147 0.509121,0.5463 0.363486,0.2217 0.605195,0.2393 3.289499,0.2397 1.593451,2e-4 3.030284,-0.049 3.192963,-0.1119 z m -1.837493,-4.6794 c 0.263348,-0.2634 0.322288,-0.9393 0.115578,-1.3256 -0.111815,-0.2089 -0.262576,-0.2317 -1.533351,-0.2317 -0.936433,0 -1.457582,0.048 -1.553097,0.1438 -0.233658,0.2336 -0.184171,1.378 0.06589,1.5237 0.115303,0.067 0.762186,0.1237 1.437519,0.1257 1.071049,0 1.258482,-0.027 1.467466,-0.2359 z"
       id="path7172"
       inkscape:connector-curvature="0" />
    <path
       style="fill:#ff2600;fill-opacity:1;stroke:none;stroke-width:31.25;stroke-linecap:round;stroke-linejoin:round;stroke-miterlimit:4;stroke-dasharray:none;stroke-opacity:1"
       d="m 16.424725,1025.2918 c -0.156479,-0.068 -0.390727,-0.3277 -0.427301,-0.4734 -0.01484,-0.059 -0.01796,-0.2008 -0.007,-0.3151 0.0571,-0.5942 0.758007,-0.8676 1.222457,-0.4768 0.168194,0.1414 0.250286,0.333 0.250286,0.5839 0,0.5268 -0.556077,0.8916 -1.038444,0.6814 z"
       id="path7174"
       inkscape:connector-curvature="0" />
    <path
       style="fill:#ff2600;fill-opacity:1;stroke:none;stroke-width:31.25;stroke-linecap:round;stroke-linejoin:round;stroke-miterlimit:4;stroke-dasharray:none;stroke-opacity:1"
       d="m 14.54079,1025.2611 c -0.135294,-0.054 -0.329311,-0.2376 -0.406136,-0.3846 -0.03287,-0.063 -0.05975,-0.2018 -0.05975,-0.3087 0,-0.4958 0.463687,-0.8677 0.926302,-0.7432 0.342353,0.092 0.55983,0.3698 0.562527,0.718 0.0042,0.5376 -0.531453,0.9139 -1.022944,0.7185 z"
       id="path7176"
       inkscape:connector-curvature="0" />
  </g>
</svg>
