<?xml version="1.0" encoding="UTF-8" standalone="no"?>
<!-- Created with Inkscape (http://www.inkscape.org/) -->

<svg
   xmlns:dc="http://purl.org/dc/elements/1.1/"
   xmlns:cc="http://creativecommons.org/ns#"
   xmlns:rdf="http://www.w3.org/1999/02/22-rdf-syntax-ns#"
   xmlns:svg="http://www.w3.org/2000/svg"
   xmlns="http://www.w3.org/2000/svg"
   xmlns:sodipodi="http://sodipodi.sourceforge.net/DTD/sodipodi-0.dtd"
   xmlns:inkscape="http://www.inkscape.org/namespaces/inkscape"
   width="32"
   height="32"
   viewBox="0 0 32 32.000001"
   id="svg4135"
   version="1.1"
   inkscape:version="0.91 r13725"
   sodipodi:docname="school_frame_color.svg">
  <defs
     id="defs4137" />
  <sodipodi:namedview
     id="base"
     pagecolor="#ffffff"
     bordercolor="#666666"
     borderopacity="1.0"
     inkscape:pageopacity="0.0"
     inkscape:pageshadow="2"
     inkscape:zoom="15.839192"
     inkscape:cx="-17.592076"
     inkscape:cy="5.3241165"
     inkscape:document-units="px"
     inkscape:current-layer="layer1"
     showgrid="false"
     units="px"
     inkscape:window-width="1920"
     inkscape:window-height="1138"
     inkscape:window-x="-8"
     inkscape:window-y="-8"
     inkscape:window-maximized="1" />
  <metadata
     id="metadata4140">
    <rdf:RDF>
      <cc:Work
         rdf:about="">
        <dc:format>image/svg+xml</dc:format>
        <dc:type
           rdf:resource="http://purl.org/dc/dcmitype/StillImage" />
        <dc:title></dc:title>
      </cc:Work>
    </rdf:RDF>
  </metadata>
  <g
     inkscape:label="Ebene 1"
     inkscape:groupmode="layer"
     id="layer1"
     transform="translate(0,-1020.3622)">
    <path
       inkscape:connector-curvature="0"
       id="path4140"
       d="m 3.2224824,1020.3622 25.5550136,0 c 1.723663,0 3.222504,1.424 3.222504,3.2226 l 0,25.5548 c 0,1.7239 -1.498841,3.2226 -3.222504,3.2226 l -25.5550136,0 C 1.4238863,1052.3622 0,1050.8635 0,1049.1396 l 0,-25.5548 c 0,-1.7986 1.4238863,-3.2226 3.2224824,-3.2226 z"
       style="fill:#ff7f2a;fill-opacity:1;fill-rule:nonzero;stroke:none" />
    <path
       inkscape:connector-curvature="0"
       id="path4142"
       d="m 27.203716,1022.3106 -22.33253,0 c -1.5737615,0 -2.8477645,1.2742 -2.8477645,2.848 l 0,22.3325 c 0,1.5738 1.274003,2.7726 2.8477645,2.7726 l 22.33253,0 c 1.57378,0 2.847792,-1.1988 2.847792,-2.7726 l 0,-22.3325 c 0,-1.5738 -1.274012,-2.848 -2.847792,-2.848 z"
       style="fill:#ffffff;fill-opacity:1;fill-rule:nonzero;stroke:none" />
    <path
       style="opacity:1;fill:#ff7f2a;fill-opacity:1;stroke:none;stroke-width:25;stroke-linecap:butt;stroke-linejoin:round;stroke-miterlimit:4;stroke-dasharray:none;stroke-dashoffset:0;stroke-opacity:1"
       d="m 15.181296,1046.4973 c -0.306208,-0.1994 -4.699687,-2.7652 -7.2305073,-4.2227 -1.1019989,-0.6347 -2.0470276,-1.1905 -2.1000636,-1.2352 -0.1178498,-0.099 -0.3214349,-0.8372 -0.3724507,-1.3502 -0.040353,-0.4057 0.080457,-1.2101 0.2474279,-1.6472 0.071541,-0.1874 0.7328935,-0.8839 3.0023437,-3.1622 l 2.910591,-2.9219 -0.256787,-0.231 c -0.141233,-0.1269 -0.929258,-0.8473 -1.751168,-1.6008 l -1.4943813,-1.3699 -0.5651877,-1.5171 c -0.3108532,-0.8345 -0.5777622,-1.5505 -0.593131,-1.5911 -0.031255,-0.083 0.3823975,0.06 2.143617,0.7377 l 1.141772,0.4396 1.664544,1.51 c 0.9155,0.8305 1.691156,1.5195 1.723682,1.5311 0.03253,0.012 0.6562,-0.5724 1.385944,-1.2977 l 1.326805,-1.3188 0.343657,0.1942 c 0.189011,0.1069 2.372664,1.3572 4.852562,2.7787 l 4.508905,2.5843 5.81e-4,1.5968 5.81e-4,1.5966 -1.365185,1.366 -1.365185,1.3661 1.328211,1.2067 1.328211,1.2065 -0.04583,0.2453 c -0.154414,0.8265 -0.594338,1.4146 -1.318918,1.7631 -0.430706,0.2072 -0.440589,0.209 -0.617481,0.1123 -0.09889,-0.054 -0.754744,-0.6302 -1.457468,-1.2803 l -1.27768,-1.1821 -2.932856,2.9222 -2.932856,2.9223 -0.232305,-0.1513 z m -0.145192,-2.0987 0,-1.0983 -3.150642,-1.8143 c -1.732853,-0.9979 -3.6862381,-2.1228 -4.340855,-2.4999 -0.6712744,-0.3867 -1.2121548,-0.6636 -1.2405384,-0.6353 -0.1809884,0.181 -0.259706,1.229 -0.1332211,1.7736 l 0.067352,0.2901 0.7836992,0.4581 c 0.4310345,0.2518 2.2602906,1.3137 4.0650133,2.3596 1.804723,1.0459 3.411986,1.9812 3.571696,2.0786 0.15971,0.097 0.309982,0.1791 0.333939,0.1816 0.02395,0 0.04356,-0.4897 0.04356,-1.0938 z m 3.755296,-2.0643 1.937607,-1.9721 -0.305611,-0.312 c -0.168085,-0.1717 -0.405956,-0.3924 -0.5286,-0.4907 l -0.222991,-0.1787 -1.99843,1.9978 -1.998431,1.9978 0,0.8812 c 0,0.4847 0.01586,0.9226 0.03523,0.9731 0.05071,0.1322 0.767654,-0.5417 3.08122,-2.8964 z m 5.726945,0.6166 c 0.646406,-0.2943 0.952074,-0.661 1.151902,-1.3816 0.122683,-0.4424 0.09562,-0.4569 -0.412282,-0.2205 -0.445536,0.2074 -0.669586,0.3921 -0.851081,0.7019 -0.234411,0.3999 -0.403558,1.065 -0.270876,1.065 0.01135,0 0.1834,-0.074 0.382337,-0.1648 z m -0.478483,-0.66 c 0.15565,-0.4278 0.534822,-0.8469 0.981741,-1.0851 0.193651,-0.1032 0.352093,-0.2107 0.352093,-0.2389 0,-0.029 -0.620691,-0.6224 -1.379314,-1.3204 -2.80545,-2.5813 -13.778474,-12.5598 -13.811549,-12.5598 -0.04672,0 -1.7087697,1.5879 -1.7090964,1.6329 -1.434e-4,0.019 1.8206954,1.7054 4.0463084,3.746 2.225613,2.0405 5.680329,5.2103 7.677148,7.044 3.092309,2.8397 3.637371,3.3175 3.676388,3.2232 0.0252,-0.061 0.100021,-0.2597 0.166281,-0.4419 z m 0.332017,-5.5327 1.117969,-1.1041 -0.004,-0.8718 c -0.0022,-0.4794 -0.02543,-0.9239 -0.05153,-0.9879 -0.04138,-0.1012 -0.230779,0.066 -1.481254,1.3068 -0.788595,0.7826 -1.591593,1.5995 -1.784442,1.8155 -0.406354,0.4551 -0.42312,0.3882 0.239141,0.9544 l 0.431453,0.3689 0.207386,-0.1888 c 0.114063,-0.1038 0.710473,-0.6856 1.325357,-1.293 z"
       id="path4938"
       inkscape:connector-curvature="0" />
  </g>
</svg>
