<?xml version="1.0" encoding="UTF-8" standalone="no"?>
<!-- Created with Inkscape (http://www.inkscape.org/) -->

<svg
   xmlns:dc="http://purl.org/dc/elements/1.1/"
   xmlns:cc="http://creativecommons.org/ns#"
   xmlns:rdf="http://www.w3.org/1999/02/22-rdf-syntax-ns#"
   xmlns:svg="http://www.w3.org/2000/svg"
   xmlns="http://www.w3.org/2000/svg"
   xmlns:sodipodi="http://sodipodi.sourceforge.net/DTD/sodipodi-0.dtd"
   xmlns:inkscape="http://www.inkscape.org/namespaces/inkscape"
   width="32"
   height="32"
   viewBox="0 0 32 32.000001"
   id="svg4135"
   version="1.1"
   inkscape:version="0.91 r13725"
   sodipodi:docname="school.svg">
  <defs
     id="defs4137" />
  <sodipodi:namedview
     id="base"
     pagecolor="#ffffff"
     bordercolor="#666666"
     borderopacity="1.0"
     inkscape:pageopacity="0.0"
     inkscape:pageshadow="2"
     inkscape:zoom="15.839192"
     inkscape:cx="9.9977156"
     inkscape:cy="5.3241165"
     inkscape:document-units="px"
     inkscape:current-layer="layer1"
     showgrid="false"
     units="px"
     inkscape:window-width="1920"
     inkscape:window-height="1138"
     inkscape:window-x="-8"
     inkscape:window-y="-8"
     inkscape:window-maximized="1" />
  <metadata
     id="metadata4140">
    <rdf:RDF>
      <cc:Work
         rdf:about="">
        <dc:format>image/svg+xml</dc:format>
        <dc:type
           rdf:resource="http://purl.org/dc/dcmitype/StillImage" />
        <dc:title></dc:title>
      </cc:Work>
    </rdf:RDF>
  </metadata>
  <g
     inkscape:label="Ebene 1"
     inkscape:groupmode="layer"
     id="layer1"
     transform="translate(0,-1020.3622)">
    <path
       style="opacity:1;fill:#000000;fill-opacity:1;stroke:none;stroke-width:25;stroke-linecap:butt;stroke-linejoin:round;stroke-miterlimit:4;stroke-dasharray:none;stroke-dashoffset:0;stroke-opacity:1"
       d="m 15.080046,1047.6837 c -0.332877,-0.2167 -5.1090069,-3.006 -7.8602499,-4.5905 -1.1979778,-0.6899 -2.225314,-1.2941 -2.2829692,-1.3427 -0.1281139,-0.1078 -0.3494304,-0.9101 -0.4048894,-1.4678 -0.043868,-0.4411 0.087464,-1.3155 0.2689777,-1.7907 0.077772,-0.2037 0.7967251,-0.9609 3.2638337,-3.4376 l 3.1640901,-3.1764 -0.279152,-0.2511 c -0.153534,-0.138 -1.0101926,-0.9211 -1.9036868,-1.7402 l -1.6245349,-1.4892 -0.6144128,-1.6493 c -0.3379271,-0.9072 -0.6280826,-1.6855 -0.6447899,-1.7297 -0.033977,-0.09 0.4157025,0.065 2.3303158,0.802 l 1.2412151,0.4779 1.8095175,1.6415 c 0.995236,0.9028 1.838448,1.6518 1.873807,1.6644 0.03536,0.013 0.713352,-0.6222 1.506653,-1.4107 l 1.442363,-1.4336 0.373588,0.2111 c 0.205473,0.1162 2.579312,1.4754 5.275198,3.0207 l 4.901609,2.8094 6.31e-4,1.7358 6.32e-4,1.7357 -1.484086,1.485 -1.484086,1.4851 1.443892,1.3117 1.443892,1.3116 -0.04982,0.2667 c -0.167863,0.8985 -0.646102,1.5378 -1.433789,1.9167 -0.468219,0.2252 -0.478963,0.2272 -0.671261,0.122 -0.107505,-0.059 -0.820479,-0.6851 -1.584407,-1.3918 l -1.388959,-1.285 -3.188294,3.1767 -3.188294,3.1768 -0.252538,-0.1645 z m -0.157837,-2.2815 0,-1.1939 -3.425048,-1.9723 c -1.8837769,-1.0848 -4.0072922,-2.3077 -4.7189231,-2.7177 -0.7297392,-0.4203 -1.3177277,-0.7214 -1.3485834,-0.6906 -0.1967517,0.1968 -0.2823252,1.336 -0.1448241,1.9281 l 0.073218,0.3153 0.8519557,0.498 c 0.4685756,0.2738 2.4571512,1.4282 4.4190569,2.5651 1.961906,1.137 3.709154,2.1538 3.882774,2.2597 0.17362,0.1059 0.33698,0.1947 0.363023,0.1974 0.02604,0 0.04735,-0.5324 0.04735,-1.1891 z m 4.082364,-2.2441 2.106364,-2.1438 -0.332228,-0.3392 c -0.182725,-0.1866 -0.441313,-0.4266 -0.574639,-0.5334 l -0.242412,-0.1943 -2.172484,2.1718 -2.172485,2.1718 0,0.958 c 0,0.5269 0.01724,1.0029 0.0383,1.0578 0.05513,0.1437 0.834513,-0.5889 3.34958,-3.1487 z m 6.225735,0.6704 c 0.702705,-0.32 1.034995,-0.7186 1.252227,-1.502 0.133369,-0.4809 0.103953,-0.4967 -0.448189,-0.2397 -0.48434,0.2255 -0.727904,0.4263 -0.925206,0.763 -0.254828,0.4348 -0.438706,1.1578 -0.294468,1.1578 0.01234,0 0.199373,-0.081 0.415636,-0.1791 z m -0.520156,-0.7175 c 0.169206,-0.4651 0.581402,-0.9207 1.067246,-1.1796 0.210517,-0.1122 0.382758,-0.2291 0.382758,-0.2598 0,-0.031 -0.67475,-0.6766 -1.499445,-1.4354 -3.049792,-2.8061 -14.9785142,-13.6537 -15.0144699,-13.6537 -0.050789,0 -1.8575956,1.7263 -1.8579508,1.7752 -1.559e-4,0.021 1.9792692,1.8539 4.3987227,4.0722 2.419453,2.2182 6.175059,5.6641 8.345791,7.6575 3.361635,3.087 3.954169,3.6065 3.996584,3.5039 0.02739,-0.066 0.108733,-0.2823 0.180764,-0.4803 z m 0.360934,-6.0146 1.215339,-1.2003 -0.0044,-0.9477 c -0.0024,-0.5212 -0.02765,-1.0044 -0.05602,-1.0739 -0.04498,-0.1101 -0.250879,0.072 -1.610264,1.4206 -0.857278,0.8507 -1.730214,1.7388 -1.939859,1.9736 -0.441745,0.4947 -0.459972,0.422 0.259969,1.0375 l 0.469031,0.401 0.225448,-0.2052 c 0.123997,-0.1128 0.772352,-0.7453 1.440789,-1.4056 z"
       id="path4938"
       inkscape:connector-curvature="0" />
  </g>
</svg>
