<?xml version="1.0" encoding="UTF-8" standalone="no"?>
<!-- Created with Inkscape (http://www.inkscape.org/) -->

<svg
   xmlns:dc="http://purl.org/dc/elements/1.1/"
   xmlns:cc="http://creativecommons.org/ns#"
   xmlns:rdf="http://www.w3.org/1999/02/22-rdf-syntax-ns#"
   xmlns:svg="http://www.w3.org/2000/svg"
   xmlns="http://www.w3.org/2000/svg"
   xmlns:sodipodi="http://sodipodi.sourceforge.net/DTD/sodipodi-0.dtd"
   xmlns:inkscape="http://www.inkscape.org/namespaces/inkscape"
   width="32"
   height="32"
   viewBox="0 0 32 32.000001"
   id="svg4145"
   version="1.1"
   inkscape:version="0.91 r13725"
   sodipodi:docname="sikh_frame_color.svg">
  <defs
     id="defs4147">
    <pattern
       y="0"
       x="0"
       height="6"
       width="6"
       patternUnits="userSpaceOnUse"
       id="EMFhbasepattern" />
  </defs>
  <sodipodi:namedview
     id="base"
     pagecolor="#ffffff"
     bordercolor="#666666"
     borderopacity="1.0"
     inkscape:pageopacity="0.0"
     inkscape:pageshadow="2"
     inkscape:zoom="15.839192"
     inkscape:cx="21.270321"
     inkscape:cy="12.614986"
     inkscape:document-units="px"
     inkscape:current-layer="layer1"
     showgrid="false"
     units="px"
     inkscape:window-width="1920"
     inkscape:window-height="1138"
     inkscape:window-x="-8"
     inkscape:window-y="-8"
     inkscape:window-maximized="1" />
  <metadata
     id="metadata4150">
    <rdf:RDF>
      <cc:Work
         rdf:about="">
        <dc:format>image/svg+xml</dc:format>
        <dc:type
           rdf:resource="http://purl.org/dc/dcmitype/StillImage" />
        <dc:title></dc:title>
      </cc:Work>
    </rdf:RDF>
  </metadata>
  <g
     inkscape:label="Ebene 1"
     inkscape:groupmode="layer"
     id="layer1"
     transform="translate(0,-1020.3622)">
    <path
       inkscape:connector-curvature="0"
       id="path4704"
       d="m 3.2224826,1020.3622 25.5550174,0 c 1.723663,0 3.2225,1.424 3.2225,3.2226 l 0,25.5548 c 0,1.7239 -1.498837,3.2226 -3.2225,3.2226 l -25.5550174,0 C 1.4238871,1052.3622 0,1050.8635 0,1049.1396 l 0,-25.5548 c 0,-1.7986 1.4238871,-3.2226 3.2224826,-3.2226 z"
       style="fill:#000000;fill-opacity:1;fill-rule:nonzero;stroke:none" />
    <path
       inkscape:connector-curvature="0"
       id="path4706"
       d="m 27.203719,1022.3106 -22.3325342,0 c -1.5737591,0 -2.8477635,1.2742 -2.8477635,2.848 l 0,22.3325 c 0,1.5738 1.2740044,2.7726 2.8477635,2.7726 l 22.3325342,0 c 1.573781,0 2.847792,-1.1988 2.847792,-2.7726 l 0,-22.3325 c 0,-1.5738 -1.274011,-2.848 -2.847792,-2.848 z"
       style="fill:#ffffff;fill-opacity:1;fill-rule:nonzero;stroke:none" />
    <path
       style="fill:#000000;fill-opacity:1;stroke:none;stroke-width:6.25;stroke-miterlimit:4;stroke-dasharray:none;stroke-opacity:1"
       d="m 15.798347,1048.4087 c -0.619276,-0.2213 -1.00079,-0.99 -0.793422,-1.5983 0.09788,-0.2871 0.335934,-0.5901 0.572897,-0.729 l 0.225068,-0.1318 -1.51e-4,-0.6878 c -1e-4,-0.3783 -0.01492,-1.077 -0.03294,-1.5525 -0.02971,-0.7831 -0.04101,-0.8628 -0.120118,-0.8477 -0.15489,0.03 -1.406891,0.8931 -1.373539,0.947 0.01976,0.031 -8.05e-4,0.039 -0.0536,0.019 -0.05301,-0.019 -0.09663,-0.01 -0.114285,0.042 -0.01569,0.041 -0.04903,0.062 -0.07402,0.047 -0.02501,-0.016 -0.05899,0.01 -0.07557,0.05 -0.01655,0.044 -0.05057,0.066 -0.07557,0.051 -0.02501,-0.016 -0.05899,0.01 -0.07557,0.051 -0.01656,0.044 -0.04926,0.067 -0.07267,0.052 -0.0234,-0.015 -0.06751,0.02 -0.09799,0.077 -0.03278,0.062 -0.08013,0.089 -0.115863,0.068 -0.03325,-0.02 0.01212,0.048 0.100799,0.1486 0.08868,0.1018 0.175922,0.2634 0.193883,0.3592 0.06863,0.3658 -0.191353,0.745 -0.55775,0.8137 -0.24556,0.047 -0.403312,-0.01 -0.618367,-0.2025 -0.175372,-0.1608 -0.186435,-0.189 -0.186435,-0.4738 0,-0.2676 0.01758,-0.3213 0.151116,-0.4615 0.162173,-0.1704 0.281124,-0.2477 0.423087,-0.2751 0.108931,-0.021 0.95559,-0.6013 1.069231,-0.733 0.04503,-0.052 0.09294,-0.084 0.106415,-0.07 0.0135,0.014 0.09484,-0.041 0.180789,-0.1214 0.08595,-0.08 0.165279,-0.1369 0.176303,-0.126 0.0111,0.012 0.09226,-0.049 0.180553,-0.1298 0.08829,-0.083 0.172074,-0.1491 0.186206,-0.1482 0.01414,9e-4 0.16602,-0.09 0.337528,-0.2036 0.17151,-0.1131 0.286144,-0.2058 0.254746,-0.2061 -0.03141,-2e-4 -0.06952,-0.048 -0.08476,-0.1061 -0.01522,-0.058 -0.04948,-0.092 -0.07617,-0.076 -0.02665,0.016 -0.06204,-0.01 -0.07859,-0.049 -0.01656,-0.044 -0.05057,-0.066 -0.07557,-0.051 -0.02501,0.015 -0.059,-0.01 -0.07555,-0.051 -0.01656,-0.044 -0.05294,-0.064 -0.08084,-0.048 -0.02792,0.017 -0.05075,0.01 -0.05075,-0.025 0,-0.03 -0.02284,-0.043 -0.05074,-0.025 -0.02792,0.018 -0.06428,0 -0.08084,-0.048 -0.01655,-0.043 -0.04803,-0.067 -0.06992,-0.054 -0.0219,0.014 -0.05337,-0.011 -0.06992,-0.054 -0.01656,-0.044 -0.05057,-0.067 -0.07557,-0.05 -0.02501,0.015 -0.059,-0.01 -0.07555,-0.051 -0.01656,-0.044 -0.05057,-0.066 -0.07557,-0.051 -0.02501,0.016 -0.059,-0.01 -0.07555,-0.051 -0.01656,-0.044 -0.05057,-0.066 -0.07557,-0.051 -0.02501,0.015 -0.059,-0.01 -0.07557,-0.051 -0.01656,-0.044 -0.05293,-0.064 -0.08084,-0.048 -0.02791,0.017 -0.05075,0.01 -0.05075,-0.017 0,-0.058 -1.409244,-0.9816 -1.49857,-0.9817 -0.03463,-10e-5 -0.06297,-0.017 -0.06297,-0.035 0,-0.05 -0.412434,-0.3173 -0.487974,-0.3173 -0.03398,0 -0.07393,-0.031 -0.08879,-0.07 -0.01484,-0.039 -0.04982,-0.056 -0.07772,-0.039 -0.02791,0.017 -0.05073,0.01 -0.05073,-0.025 0,-0.03 -0.02029,-0.044 -0.04509,-0.028 -0.0248,0.016 -0.05864,-0.01 -0.07519,-0.051 -0.01656,-0.044 -0.04869,-0.067 -0.07138,-0.053 -0.02271,0.014 -0.107866,-0.018 -0.189251,-0.072 -0.08139,-0.053 -0.18898,-0.098 -0.239099,-0.098 -0.05012,-2e-4 -0.07712,-0.022 -0.05999,-0.051 0.01849,-0.03 -0.04047,-0.051 -0.145169,-0.051 -0.09697,0 -0.191267,0.024 -0.209557,0.054 -0.01829,0.029 -0.06495,0.042 -0.103718,0.026 -0.03876,-0.015 -0.07047,-0.01 -0.07047,0.016 0,0.039 -0.281143,0.1789 -0.36303,0.1803 -0.01959,3e-4 -0.06987,0.047 -0.111734,0.1012 -0.04187,0.055 -0.07685,0.079 -0.07773,0.052 -8.87e-4,-0.026 -0.09133,0.04 -0.2010039,0.1468 -0.1096722,0.1071 -0.1886294,0.2121 -0.1754601,0.2334 0.01317,0.02 -0.021625,0.07 -0.077321,0.1096 -0.055695,0.039 -0.088133,0.085 -0.072081,0.1002 0.043296,0.044 -0.1610798,0.1405 -0.2069368,0.098 -0.021584,-0.021 -0.027345,0.013 -0.012799,0.071 0.014548,0.059 0.00509,0.1386 -0.021004,0.1763 -0.031165,0.046 -0.040912,-0.04 -0.028386,-0.2462 0.010559,-0.1743 -0.00185,-0.3148 -0.027805,-0.3148 -0.025775,0 -0.03501,-0.046 -0.02052,-0.1009 0.01449,-0.055 0.00581,-0.1008 -0.01931,-0.1008 -0.025114,0 -0.045657,-0.034 -0.045657,-0.076 0,-0.043 -0.081594,-0.2745 -0.1813186,-0.5164 -0.099725,-0.2419 -0.1839188,-0.4795 -0.1870968,-0.528 -0.00315,-0.05 -0.027362,-0.088 -0.053756,-0.088 -0.026387,0 -0.033939,-0.014 -0.01679,-0.03 0.01715,-0.017 -0.00307,-0.066 -0.044877,-0.1073 -0.041828,-0.042 -0.063679,-0.1084 -0.048551,-0.1478 0.015127,-0.039 0.00749,-0.06 -0.017007,-0.045 -0.05371,0.033 -0.1174409,-0.1134 -0.077452,-0.1779 0.01558,-0.025 0.00299,-0.047 -0.027998,-0.047 -0.030971,0 -0.042313,-0.023 -0.025186,-0.051 0.017126,-0.028 0.00581,-0.051 -0.025185,-0.051 -0.030972,0 -0.042312,-0.022 -0.025185,-0.051 0.017126,-0.027 0.0058,-0.051 -0.025186,-0.051 -0.030971,0 -0.043989,-0.02 -0.028917,-0.045 0.015071,-0.024 -0.2551836,-0.6254 -0.6005621,-1.3357 -0.7279583,-1.4966 -1.05607,-2.2335 -1.2112518,-2.7197 -0.062156,-0.1946 -0.1239301,-0.3162 -0.1408009,-0.2769 -0.016531,0.039 -0.017772,-0.02 -0.00275,-0.1316 0.021471,-0.1584 0.014917,-0.1854 -0.030602,-0.1259 -0.045562,0.059 -0.051412,0.036 -0.02741,-0.1096 0.017587,-0.1066 0.00852,-0.1985 -0.021416,-0.217 -0.1679625,-0.1037 0.078895,-2.595 0.2571453,-2.595 0.028393,0 0.035525,-0.048 0.016352,-0.1072 -0.024397,-0.077 -0.016731,-0.097 0.027193,-0.068 0.044424,0.027 0.051324,0.01 0.025184,-0.075 -0.021833,-0.068 -0.016836,-0.1015 0.012703,-0.084 0.055263,0.034 0.2257096,-0.3608 0.1844916,-0.4275 -0.014758,-0.023 -0.00153,-0.044 0.029482,-0.044 0.030973,0 0.042313,-0.023 0.025187,-0.051 -0.017126,-0.027 -0.0058,-0.051 0.025184,-0.051 0.030971,0 0.042312,-0.023 0.025186,-0.05 -0.017126,-0.028 -0.00581,-0.051 0.025185,-0.051 0.030972,0 0.042312,-0.023 0.025187,-0.051 -0.017119,-0.028 -0.0058,-0.051 0.025185,-0.051 0.030972,0 0.045319,-0.018 0.031883,-0.04 -0.058803,-0.095 0.6642043,-1.0556 1.2071601,-1.6037 0.3158943,-0.3188 0.5743534,-0.5643 0.5743534,-0.5457 0,0.019 0.044576,-0.02 0.099068,-0.086 0.054491,-0.065 0.099823,-0.103 0.1007435,-0.084 8.866e-4,0.019 0.06068,-0.019 0.1327995,-0.087 0.2822529,-0.2615 1.7290236,-0.9013 1.8238266,-0.8065 0.014,0.014 0.05562,4e-4 0.09243,-0.03 0.03683,-0.03 0.10125,-0.043 0.14316,-0.026 0.04191,0.016 0.0762,0.01 0.0762,-0.025 0,-0.032 0.04999,-0.042 0.125931,-0.023 0.07667,0.019 0.12593,0.01 0.12593,-0.024 0,-0.029 0.05099,-0.051 0.113338,-0.044 0.06233,0.01 0.152256,-0.01 0.199826,-0.026 0.04756,-0.021 0.115572,-0.027 0.151117,-0.015 0.03554,0.012 -0.05162,0.082 -0.193693,0.1535 -0.142073,0.072 -0.272413,0.1175 -0.289639,0.1003 -0.01723,-0.018 -0.03131,0 -0.03131,0.03 0,0.033 -0.02266,0.049 -0.05038,0.03 -0.0277,-0.017 -0.05038,-0.01 -0.05038,0.025 0,0.03 -0.02267,0.043 -0.05038,0.025 -0.02771,-0.017 -0.05038,0 -0.05038,0.03 0,0.033 -0.01421,0.048 -0.03158,0.029 -0.04273,-0.043 -0.321033,0.105 -0.321033,0.1702 0,0.028 -0.02184,0.039 -0.04853,0.022 -0.02669,-0.017 -0.0928,0.015 -0.14692,0.068 -0.05411,0.054 -0.109771,0.087 -0.123685,0.073 -0.01391,-0.014 -0.05164,0.023 -0.08384,0.085 -0.03219,0.06 -0.06872,0.099 -0.08117,0.087 -0.01246,-0.013 -0.128655,0.074 -0.258235,0.1937 -0.12958,0.1189 -0.249751,0.2076 -0.267046,0.1969 -0.017294,-0.012 -0.1420752,0.093 -0.2772909,0.2303 -0.1352141,0.1372 -0.2266388,0.2495 -0.2031654,0.2495 0.023474,0 -0.017266,0.047 -0.090525,0.1049 -0.073261,0.057 -0.1203158,0.1256 -0.1045638,0.1511 0.015749,0.025 0.00548,0.047 -0.022889,0.047 -0.068837,0 -0.3096008,0.358 -0.2766357,0.4113 0.014266,0.023 5.884e-4,0.042 -0.030384,0.042 -0.030972,0 -0.042313,0.022 -0.025186,0.051 0.017126,0.027 0.00775,0.051 -0.020923,0.051 -0.069644,0 -0.2179009,0.2922 -0.1796545,0.3542 0.01662,0.027 0.00693,0.05 -0.021552,0.05 -0.028475,0 -0.037282,0.038 -0.019601,0.084 0.023107,0.061 0.013726,0.072 -0.033304,0.044 -0.043886,-0.027 -0.057827,-0.018 -0.042288,0.028 0.012752,0.038 -0.00862,0.1014 -0.047479,0.1402 -0.04324,0.044 -0.058687,0.1185 -0.039806,0.1936 0.020439,0.082 0.012493,0.1116 -0.023556,0.089 -0.036775,-0.022 -0.043216,0.012 -0.019858,0.104 0.02596,0.1034 0.018851,0.1279 -0.028555,0.099 -0.047865,-0.03 -0.054756,-8e-4 -0.028532,0.1185 0.019014,0.087 0.014072,0.1573 -0.010989,0.1573 -0.025057,0 -0.04615,0.073 -0.046867,0.1638 -7.095e-4,0.089 -0.010423,0.5527 -0.021574,1.028 -0.011148,0.4755 -0.00153,0.8381 0.021269,0.806 0.02284,-0.031 0.027652,0.056 0.010684,0.1934 -0.023478,0.1916 -0.017407,0.2338 0.025364,0.1763 0.043223,-0.058 0.048786,-0.03 0.02405,0.1184 -0.024042,0.1448 -0.016778,0.1843 0.028765,0.1562 0.044536,-0.027 0.05192,0 0.027443,0.096 -0.020834,0.083 -0.012816,0.1334 0.021229,0.1334 0.031803,0 0.041339,0.043 0.022752,0.1007 -0.019151,0.061 -0.00905,0.101 0.025187,0.101 0.034238,0 0.044343,0.041 0.025186,0.1007 -0.019585,0.062 -0.00905,0.1009 0.027185,0.1009 0.032537,0 0.046109,0.034 0.03016,0.075 -0.015942,0.042 -0.00467,0.075 0.025186,0.075 0.029804,0 0.041135,0.034 0.025185,0.075 -0.015942,0.042 -0.00467,0.075 0.025184,0.075 0.029804,0 0.041135,0.033 0.025186,0.075 -0.015942,0.042 -0.00467,0.075 0.025185,0.075 0.029804,0 0.041136,0.033 0.025185,0.075 -0.015942,0.042 -0.00775,0.075 0.018213,0.075 0.025966,0 0.032739,0.038 0.015039,0.084 -0.02351,0.062 -0.01399,0.072 0.035325,0.042 0.049324,-0.03 0.058835,-0.02 0.035325,0.043 -0.017691,0.047 -0.00887,0.084 0.019601,0.084 0.028474,0 0.039024,0.021 0.023446,0.047 -0.043684,0.07 0.026154,0.2096 0.086588,0.1723 0.033641,-0.021 0.041659,0 0.021485,0.051 -0.017691,0.047 -0.00887,0.084 0.019602,0.084 0.028474,0 0.037759,0.022 0.020633,0.051 -0.017126,0.028 -0.00581,0.051 0.025186,0.051 0.030971,0 0.042313,0.023 0.025185,0.051 -0.017126,0.028 -0.00581,0.051 0.025185,0.051 0.030971,0 0.042313,0.023 0.025186,0.051 -0.017126,0.027 -0.0058,0.051 0.025186,0.051 0.030971,0 0.04378,0.019 0.02845,0.046 -0.01533,0.024 0.00837,0.059 0.052628,0.076 0.046544,0.019 0.068149,0.064 0.051227,0.1072 -0.016102,0.042 0.01366,0.1193 0.066135,0.1717 0.052468,0.052 0.082179,0.1088 0.066027,0.1247 -0.01616,0.017 -0.00163,0.03 0.032348,0.03 0.033961,0 0.047629,0.023 0.030381,0.051 -0.017238,0.028 0.00399,0.064 0.047121,0.081 0.043152,0.016 0.066435,0.05 0.051725,0.073 -0.0147,0.023 0.017538,0.087 0.071647,0.1416 0.054109,0.054 0.085695,0.1111 0.070178,0.1265 -0.015507,0.016 0.00897,0.043 0.054281,0.06 0.045371,0.017 0.069833,0.052 0.054389,0.077 -0.015454,0.025 0.00725,0.059 0.050374,0.075 0.043152,0.017 0.065819,0.051 0.050375,0.075 -0.01545,0.025 0.0073,0.059 0.05038,0.075 0.04315,0.016 0.06688,0.05 0.05272,0.071 -0.01416,0.023 0.02501,0.077 0.08706,0.1207 0.06205,0.044 0.09075,0.08 0.06381,0.081 -0.02694,8e-4 0.0046,0.047 0.06993,0.1006 0.0654,0.054 0.09941,0.1 0.07556,0.101 -0.02385,7e-4 0.0066,0.044 0.06783,0.094 0.06115,0.051 0.100522,0.1037 0.08747,0.1166 -0.01305,0.013 0.07465,0.1293 0.194885,0.2585 0.120234,0.1291 0.210249,0.243 0.200037,0.2532 -0.01021,0.01 0.04914,0.075 0.131883,0.1452 0.08276,0.069 0.139613,0.1374 0.126366,0.1506 -0.01324,0.014 0.0568,0.095 0.155662,0.1821 0.09886,0.086 0.16638,0.1577 0.15004,0.1577 -0.01634,0 0.375339,0.4022 0.870397,0.8941 0.83319,0.8276 1.674413,1.5789 1.674413,1.4953 0,-0.02 0.04792,0.025 0.106484,0.1 0.05856,0.074 0.118867,0.1231 0.134003,0.108 0.01514,-0.016 0.05944,0.018 0.09846,0.073 0.03902,0.055 0.09091,0.089 0.115333,0.074 0.02443,-0.016 0.07002,0.02 0.101386,0.079 0.03135,0.059 0.06863,0.095 0.08284,0.081 0.01424,-0.015 0.237561,0.1311 0.496298,0.3231 0.258738,0.1919 0.48327,0.3489 0.49896,0.3489 0.01569,0 0.02855,-0.4473 0.02855,-0.9943 l 0,-0.994 -0.700715,-0.7059 -0.700714,-0.7059 0.09297,-0.5792 c 0.05114,-0.3187 0.105743,-0.6625 0.121381,-0.7643 l 0.02842,-0.1848 -0.264405,-0.086 c -0.966018,-0.3165 -1.971381,-1.0697 -2.555213,-1.9143 -1.212387,-1.7538 -1.252516,-4.0055 -0.10249,-5.7513 0.62396,-0.947 1.612504,-1.7244 2.607382,-2.0502 0.145448,-0.049 0.264422,-0.09 0.264384,-0.096 -3.9e-5,-0.01 -0.03401,-0.2012 -0.07548,-0.4368 -0.04149,-0.2354 -0.07498,-0.4847 -0.07442,-0.5539 7.09e-4,-0.089 0.23067,-0.3894 0.801619,-1.0438 l 0.800628,-0.9178 0.722069,0.8157 c 0.397141,0.4487 0.77096,0.8737 0.83071,0.9448 l 0.108637,0.1288 -0.09598,0.5248 c -0.05278,0.2887 -0.07901,0.5391 -0.05827,0.5566 0.02075,0.017 0.151046,0.072 0.289568,0.1216 1.25754,0.4482 2.453991,1.6322 2.953863,2.9237 0.270784,0.6996 0.359547,1.2554 0.329816,2.0657 -0.03108,0.8469 -0.137685,1.2918 -0.482901,2.0149 -0.567492,1.1887 -1.584643,2.1397 -2.762453,2.5829 -0.4264,0.1604 -0.409023,0.097 -0.261678,0.9641 0.05724,0.3369 0.0969,0.6432 0.08816,0.6807 -0.0087,0.037 -0.270924,0.3445 -0.582602,0.6822 l -0.566685,0.614 0,0.9278 c 0,0.6237 0.01762,0.9278 0.05373,0.9278 0.02954,0 0.13546,-0.062 0.235346,-0.1385 0.09988,-0.076 0.190827,-0.1306 0.202087,-0.1209 0.02791,0.023 0.785441,-0.5797 1.11056,-0.8848 0.145048,-0.1364 0.27205,-0.2394 0.282228,-0.2292 0.01008,0.01 0.1717,-0.152 0.358943,-0.3604 0.18724,-0.2084 0.356582,-0.3689 0.376311,-0.3567 0.04605,0.028 0.262215,-0.1996 0.224724,-0.2371 -0.0155,-0.016 0.138122,-0.1777 0.341402,-0.3604 0.391919,-0.3521 1.18046,-1.2675 1.159261,-1.3457 -0.007,-0.025 0.0098,-0.047 0.03708,-0.047 0.05647,0 0.557637,-0.6532 0.560257,-0.7303 9.51e-4,-0.028 0.03458,-0.068 0.07474,-0.091 0.04019,-0.022 0.06137,-0.06 0.04708,-0.083 -0.01427,-0.023 0.0094,-0.055 0.05251,-0.072 0.04315,-0.016 0.06582,-0.051 0.05039,-0.076 -0.01544,-0.025 0.0072,-0.059 0.05039,-0.075 0.04315,-0.016 0.06582,-0.051 0.05038,-0.075 -0.01544,-0.025 0.009,-0.06 0.05438,-0.077 0.04537,-0.017 0.06824,-0.047 0.05087,-0.063 -0.0174,-0.017 7.75e-4,-0.056 0.04039,-0.088 0.0396,-0.03 0.07892,-0.087 0.08738,-0.1266 0.0086,-0.039 0.05585,-0.1139 0.105352,-0.1656 0.04948,-0.052 0.0765,-0.1161 0.06,-0.1429 -0.01649,-0.026 -0.0046,-0.049 0.02633,-0.049 0.03098,0 0.04232,-0.023 0.02519,-0.051 -0.01712,-0.028 -0.0058,-0.051 0.0252,-0.051 0.03096,0 0.04231,-0.022 0.02519,-0.051 -0.01712,-0.027 -0.0076,-0.051 0.02119,-0.051 0.06964,0 0.267942,-0.393 0.229603,-0.4549 -0.01654,-0.026 -0.0068,-0.05 0.02171,-0.05 0.02849,0 0.03729,-0.038 0.0196,-0.084 -0.02016,-0.052 -0.01215,-0.071 0.02149,-0.051 0.06044,0.037 0.130269,-0.1017 0.0866,-0.1723 -0.01559,-0.025 -0.0051,-0.047 0.02343,-0.047 0.02848,0 0.03729,-0.038 0.0196,-0.084 -0.02351,-0.061 -0.014,-0.072 0.03534,-0.043 0.04931,0.03 0.05884,0.02 0.03532,-0.042 -0.01769,-0.047 -0.01098,-0.084 0.01504,-0.084 0.02598,0 0.03417,-0.033 0.01822,-0.075 -0.01596,-0.042 -0.0046,-0.075 0.02519,-0.075 0.02981,0 0.04112,-0.033 0.02519,-0.075 -0.01596,-0.042 -0.0046,-0.075 0.02519,-0.075 0.02978,0 0.04112,-0.033 0.0252,-0.075 -0.01596,-0.042 -0.0023,-0.075 0.03016,-0.075 0.03623,0 0.04675,-0.039 0.02719,-0.101 -0.01759,-0.055 -0.0099,-0.1008 0.01708,-0.1008 0.02697,0 0.03628,-0.05 0.02065,-0.1086 -0.01994,-0.076 -0.01042,-0.098 0.03193,-0.071 0.04362,0.027 0.05129,0 0.02766,-0.093 -0.02065,-0.083 -0.01179,-0.1302 0.02414,-0.1302 0.03542,0 0.0449,-0.048 0.02519,-0.126 -0.02043,-0.082 -0.01045,-0.1258 0.0282,-0.1258 0.04027,0 0.04899,-0.049 0.02663,-0.1511 -0.02137,-0.098 -0.01322,-0.1512 0.02292,-0.1512 0.03803,0 0.04618,-0.086 0.02525,-0.2644 -0.02258,-0.1937 -0.01653,-0.2443 0.02268,-0.189 0.04515,0.064 0.05362,0.06 0.05417,-0.025 5.44e-4,-0.085 -0.06375,-0.9511 -0.121952,-1.644 -0.0084,-0.101 -0.03109,-0.2087 -0.05026,-0.2398 -0.01917,-0.03 -0.01963,-0.1043 -9.51e-4,-0.163 0.02477,-0.078 0.01692,-0.096 -0.02929,-0.067 -0.04742,0.029 -0.05452,0.01 -0.02857,-0.099 0.02445,-0.098 0.01767,-0.1273 -0.02324,-0.1019 -0.04041,0.025 -0.04697,0 -0.02181,-0.078 0.02613,-0.083 0.01922,-0.1029 -0.0252,-0.075 -0.04444,0.027 -0.05133,0.01 -0.02519,-0.075 0.02696,-0.086 0.01986,-0.1034 -0.02835,-0.073 -0.04574,0.028 -0.05503,0.015 -0.03215,-0.045 0.01769,-0.047 0.0087,-0.084 -0.0196,-0.084 -0.02849,0 -0.03902,-0.02 -0.02343,-0.047 0.03802,-0.062 -0.02249,-0.212 -0.07274,-0.1809 -0.05044,0.03 -0.110699,-0.1194 -0.07251,-0.1812 0.0157,-0.025 -0.0068,-0.06 -0.04992,-0.076 -0.04315,-0.016 -0.06591,-0.051 -0.05059,-0.075 0.01531,-0.024 0.0023,-0.046 -0.02846,-0.046 -0.03096,0 -0.04222,-0.023 -0.02497,-0.051 0.01724,-0.028 -0.004,-0.065 -0.04713,-0.081 -0.04315,-0.017 -0.06583,-0.051 -0.05039,-0.075 0.01544,-0.025 -0.0072,-0.059 -0.05038,-0.075 -0.04315,-0.016 -0.06744,-0.049 -0.054,-0.069 0.01347,-0.021 -0.03186,-0.076 -0.100716,-0.1215 -0.06885,-0.046 -0.120109,-0.098 -0.113915,-0.1189 0.01425,-0.047 -0.729396,-0.7874 -0.779124,-0.7762 -0.02025,0.01 -0.07374,-0.049 -0.118845,-0.1169 -0.04512,-0.068 -0.09984,-0.114 -0.121606,-0.1007 -0.02177,0.014 -0.05313,-0.012 -0.06969,-0.054 -0.01656,-0.044 -0.05057,-0.066 -0.07555,-0.051 -0.02499,0.015 -0.05968,-0.01 -0.07709,-0.054 -0.01741,-0.046 -0.04435,-0.069 -0.05986,-0.054 -0.0155,0.016 -0.07248,-0.016 -0.126583,-0.069 -0.05411,-0.054 -0.120227,-0.086 -0.146918,-0.067 -0.02668,0.017 -0.04853,0.01 -0.04853,-0.022 0,-0.071 -0.261214,-0.1976 -0.347021,-0.1672 -0.04686,0.016 -0.05676,0 -0.02999,-0.04 0.02643,-0.043 0.01996,-0.052 -0.0191,-0.028 -0.05691,0.035 -0.41733,-0.1507 -0.451923,-0.233 -0.0093,-0.021 -0.03762,-0.027 -0.06297,-0.012 -0.02534,0.016 -0.04608,0 -0.04608,-0.03 0,-0.064 0.09438,-0.054 0.768176,0.086 0.214712,0.045 0.390383,0.1021 0.390383,0.1273 0,0.025 0.02,0.033 0.04448,0.019 0.114347,-0.07 1.100461,0.3759 1.642914,0.7441 0.410868,0.2788 1.133348,0.9823 1.493869,1.4547 0.873603,1.1447 1.222328,2.0465 1.355421,3.505 0.05716,0.6264 -0.0013,1.6398 -0.100139,1.7388 -0.02546,0.025 -0.03517,0.075 -0.02162,0.1107 0.01356,0.035 0.0015,0.079 -0.02693,0.096 -0.02837,0.018 -0.03884,0.065 -0.02323,0.1058 0.01561,0.041 0.004,0.074 -0.02582,0.074 -0.02978,0 -0.04111,0.033 -0.02519,0.075 0.01596,0.042 0.0046,0.075 -0.02519,0.075 -0.02984,0 -0.03974,0.038 -0.02201,0.084 0.02351,0.062 0.01401,0.072 -0.03533,0.042 -0.04931,-0.03 -0.05883,-0.02 -0.03533,0.043 0.0177,0.047 0.01099,0.084 -0.01504,0.084 -0.02598,0 -0.03276,0.038 -0.01504,0.084 0.02016,0.052 0.01215,0.071 -0.02149,0.051 -0.069,-0.043 -0.120873,0.091 -0.0798,0.2054 0.01749,0.05 0.01206,0.07 -0.01216,0.049 -0.04851,-0.045 -1.143733,2.1694 -1.104626,2.2327 0.03348,0.054 -0.02803,0.2046 -0.07243,0.1773 -0.04949,-0.031 -0.365696,0.6222 -0.329635,0.6804 0.01606,0.026 0.004,0.048 -0.0271,0.048 -0.03096,0 -0.04232,0.023 -0.02519,0.051 0.01713,0.027 0.0058,0.051 -0.02518,0.051 -0.03097,0 -0.04232,0.023 -0.02519,0.051 0.01712,0.027 0.0058,0.051 -0.02519,0.051 -0.03096,0 -0.04232,0.023 -0.02519,0.051 0.01712,0.027 0.0078,0.051 -0.02063,0.051 -0.02849,0 -0.03983,0.03 -0.02525,0.068 0.01457,0.038 -0.0077,0.1032 -0.04957,0.1452 -0.04183,0.042 -0.06203,0.089 -0.04488,0.1072 0.01714,0.017 0.0086,0.03 -0.01919,0.03 -0.02772,0 -0.05055,0.028 -0.05077,0.063 -2.02e-4,0.034 -0.08257,0.2679 -0.183073,0.5185 -0.245621,0.6124 -0.353295,1.0529 -0.323008,1.3217 0.01372,0.1216 0.0086,0.2023 -0.01134,0.179 -0.01994,-0.023 -0.14125,-0.1785 -0.269602,-0.3452 -0.42441,-0.5513 -0.961786,-0.8776 -1.448532,-0.8796 -0.227326,-8e-4 -0.325818,0.028 -0.525374,0.1546 -0.135079,0.086 -0.292523,0.1648 -0.349876,0.1758 -0.05735,0.012 -0.132608,0.059 -0.16724,0.1057 -0.03462,0.048 -0.0637,0.064 -0.06456,0.039 -8.86e-4,-0.026 -0.03488,0 -0.07555,0.051 -0.04068,0.055 -0.07468,0.076 -0.07557,0.051 -8.87e-4,-0.026 -0.02931,-0.014 -0.06316,0.028 -0.03385,0.042 -0.09023,0.082 -0.125318,0.088 -0.103787,0.02 -0.918118,0.5775 -0.918118,0.6273 0,0.025 -0.02284,0.031 -0.05075,0.015 -0.02792,-0.017 -0.06428,0 -0.08084,0.048 -0.01656,0.044 -0.05057,0.067 -0.07556,0.051 -0.02501,-0.015 -0.05899,0.01 -0.07557,0.051 -0.01656,0.044 -0.05057,0.066 -0.07555,0.051 -0.02501,-0.016 -0.059,0.01 -0.07557,0.051 -0.01656,0.043 -0.05057,0.066 -0.07557,0.051 -0.02501,-0.016 -0.05899,0.01 -0.07555,0.051 -0.01656,0.043 -0.05057,0.066 -0.07557,0.051 -0.02501,-0.015 -0.05899,0.01 -0.07555,0.051 -0.01655,0.044 -0.05057,0.067 -0.07557,0.051 -0.02501,-0.016 -0.05899,0.01 -0.07556,0.051 -0.01656,0.044 -0.05041,0.067 -0.0752,0.051 -0.02481,-0.016 -0.0451,-0.01 -0.0451,0.019 0,0.059 -0.510414,0.3915 -0.57113,0.3717 -0.07165,-0.023 -0.184452,0.095 -0.184452,0.1939 0,0.085 0.692303,0.6388 1.366581,1.0948 0.128262,0.087 0.247108,0.1939 0.264098,0.2383 0.01699,0.045 0.05135,0.068 0.07635,0.052 0.02501,-0.016 0.05899,0.01 0.07557,0.051 0.01656,0.043 0.05057,0.066 0.07555,0.05 0.02501,-0.015 0.05899,0.01 0.07557,0.051 0.01656,0.044 0.05294,0.064 0.08084,0.048 0.02791,-0.017 0.05075,-0.01 0.05075,0.02 0,0.066 0.35653,0.3105 0.406112,0.2798 0.02017,-0.013 0.05023,0.013 0.06679,0.055 0.01656,0.044 0.04839,0.067 0.07071,0.053 0.06335,-0.039 0.418504,0.1807 0.525761,0.3255 0.228217,0.3078 0.132841,0.7617 -0.207889,0.9895 -0.604781,0.4039 -1.35244,-0.357 -0.941645,-0.9584 0.0718,-0.1051 0.130547,-0.1987 0.130547,-0.2082 0,-0.01 -0.439972,-0.3041 -0.977715,-0.6549 -0.537746,-0.3507 -0.990934,-0.6722 -1.007088,-0.7142 -0.01615,-0.042 -0.0522,-0.062 -0.08009,-0.046 -0.03209,0.019 -0.05074,0.548 -0.05074,1.4381 l 0,1.4069 0.188897,0.079 c 0.231788,0.097 0.543932,0.391 0.6669,0.6291 0.257121,0.4978 0.15261,1.0766 -0.26826,1.4858 -0.370885,0.3606 -0.87656,0.476 -1.347662,0.3077 z m -0.985908,-13.1661 c 0.321903,-2.6552 0.312606,-4.0005 -0.0461,-6.6698 l -0.08568,-0.6374 -0.185463,0.065 c -1.153185,0.4069 -2.099746,1.3971 -2.528819,2.6452 -0.1576,0.4586 -0.16457,0.5114 -0.166284,1.2594 -0.002,0.881 0.05641,1.1798 0.353539,1.8089 0.405477,0.8584 1.062218,1.5417 1.885434,1.9613 0.280142,0.1427 0.549861,0.2596 0.599374,0.2596 0.07801,0 0.101226,-0.092 0.173998,-0.6926 z m 3.018431,0.4733 c 1.240024,-0.6223 2.04633,-1.703 2.283489,-3.0606 0.295229,-1.6899 -0.51318,-3.455 -1.977867,-4.3186 -0.35859,-0.2114 -0.760723,-0.3885 -0.797801,-0.3515 -0.0337,0.033 -0.161311,0.9355 -0.273181,1.9305 -0.203818,1.8126 -0.191163,2.6302 0.07485,4.8356 0.13505,1.1197 0.146527,1.1839 0.212133,1.1839 0.02288,0 0.23815,-0.099 0.478375,-0.2193 z m -1.289411,-2.0601 c -0.01399,-0.034 -0.02542,-0.01 -0.02542,0.063 0,0.068 0.01141,0.098 0.02542,0.062 0.014,-0.034 0.014,-0.091 0,-0.1258 z m -0.04811,-0.5536 c -0.01203,-0.062 -0.02235,-0.023 -0.02291,0.088 -5.59e-4,0.111 0.0093,0.1621 0.02191,0.1139 0.01259,-0.049 0.01307,-0.1388 9.51e-4,-0.2015 l 0,0 z m -8.1597605,-1.6369 c -0.011583,-0.076 -0.021358,-0.026 -0.021743,0.1126 -3.78e-4,0.1386 0.00911,0.2012 0.021052,0.1392 0.011954,-0.062 0.012268,-0.1753 7.092e-4,-0.2518 z m 7.1511045,-1.0303 c -0.01608,-0.04 -0.02801,-0.028 -0.03044,0.03 -0.0022,0.053 0.0098,0.083 0.02644,0.066 0.01675,-0.017 0.01853,-0.061 0.004,-0.097 l 10e-7,0 z m 1.130256,-4.9647 c -0.02628,-0.049 -0.121845,-0.1562 -0.212336,-0.2393 -0.158445,-0.1455 -0.157452,-0.1423 0.02691,0.087 0.197531,0.2469 0.268897,0.305 0.185419,0.1511 z"
       id="path48899"
       inkscape:connector-curvature="0" />
  </g>
</svg>
