<?xml version="1.0" encoding="UTF-8" standalone="no"?>
<!-- Created with Inkscape (http://www.inkscape.org/) -->

<svg
   xmlns:dc="http://purl.org/dc/elements/1.1/"
   xmlns:cc="http://creativecommons.org/ns#"
   xmlns:rdf="http://www.w3.org/1999/02/22-rdf-syntax-ns#"
   xmlns:svg="http://www.w3.org/2000/svg"
   xmlns="http://www.w3.org/2000/svg"
   xmlns:sodipodi="http://sodipodi.sourceforge.net/DTD/sodipodi-0.dtd"
   xmlns:inkscape="http://www.inkscape.org/namespaces/inkscape"
   width="32"
   height="32"
   viewBox="0 0 32 32.000001"
   id="svg4135"
   version="1.1"
   inkscape:version="0.91 r13725"
   sodipodi:docname="stadium_frame.svg">
  <defs
     id="defs4137" />
  <sodipodi:namedview
     id="base"
     pagecolor="#ffffff"
     bordercolor="#666666"
     borderopacity="1.0"
     inkscape:pageopacity="0.0"
     inkscape:pageshadow="2"
     inkscape:zoom="15.839192"
     inkscape:cx="-3.79718"
     inkscape:cy="7.550014"
     inkscape:document-units="px"
     inkscape:current-layer="layer1"
     showgrid="false"
     units="px"
     inkscape:window-width="1920"
     inkscape:window-height="1138"
     inkscape:window-x="-8"
     inkscape:window-y="-8"
     inkscape:window-maximized="1" />
  <metadata
     id="metadata4140">
    <rdf:RDF>
      <cc:Work
         rdf:about="">
        <dc:format>image/svg+xml</dc:format>
        <dc:type
           rdf:resource="http://purl.org/dc/dcmitype/StillImage" />
        <dc:title></dc:title>
      </cc:Work>
    </rdf:RDF>
  </metadata>
  <g
     inkscape:label="Ebene 1"
     inkscape:groupmode="layer"
     id="layer1"
     transform="translate(0,-1020.3622)">
    <path
       inkscape:connector-curvature="0"
       id="path4140"
       d="m 3.2224824,1020.3622 25.5550126,0 c 1.723663,0 3.222505,1.424 3.222505,3.2226 l 0,25.5548 c 0,1.7239 -1.498841,3.2226 -3.222505,3.2226 l -25.5550126,0 C 1.4238863,1052.3622 0,1050.8635 0,1049.1396 l 0,-25.5548 c 0,-1.7986 1.4238863,-3.2226 3.2224824,-3.2226 z"
       style="fill:#000000;fill-opacity:1;fill-rule:nonzero;stroke:none" />
    <path
       inkscape:connector-curvature="0"
       id="path4142"
       d="m 27.203716,1022.3106 -22.33253,0 c -1.5737615,0 -2.8477645,1.2742 -2.8477645,2.848 l 0,22.3325 c 0,1.5738 1.274003,2.7726 2.8477645,2.7726 l 22.33253,0 c 1.573779,0 2.847792,-1.1988 2.847792,-2.7726 l 0,-22.3325 c 0,-1.5738 -1.274012,-2.848 -2.847792,-2.848 z"
       style="fill:#ffffff;fill-opacity:1;fill-rule:nonzero;stroke:none" />
    <path
       style="opacity:1;fill:#000000;fill-opacity:1;stroke:none;stroke-width:25;stroke-linecap:butt;stroke-linejoin:round;stroke-miterlimit:4;stroke-dasharray:none;stroke-dashoffset:0;stroke-opacity:1"
       d="m 10.70703,1043.7128 c -2.7277926,-0.7698 -4.195699,-1.6067 -5.3450382,-3.0478 l -0.3375531,-0.4232 0.2186741,-0.1324 c 0.2998676,-0.1815 0.3781521,-0.1684 0.5598992,0.094 0.2377795,0.3431 1.0327777,1.081 1.4949682,1.3876 0.8738421,0.5796 2.194803,1.1243 3.6253878,1.4951 0.405407,0.105 0.743348,0.1988 0.750981,0.2084 0.0077,0.01 -0.0016,0.1457 -0.02061,0.3024 -0.04375,0.3617 -0.06632,0.3644 -0.946707,0.116 z"
       id="path5000"
       inkscape:connector-curvature="0" />
    <path
       style="opacity:1;fill:#000000;fill-opacity:1;stroke:none;stroke-width:25;stroke-linecap:butt;stroke-linejoin:round;stroke-miterlimit:4;stroke-dasharray:none;stroke-dashoffset:0;stroke-opacity:1"
       d="m 10.996065,1042.1102 c -1.7695953,-0.5162 -2.9731794,-1.1744 -3.838095,-2.099 -0.5206197,-0.5566 -0.5271622,-0.5788 -0.2152679,-0.7303 l 0.2589381,-0.1258 0.4698909,0.4681 c 0.5702664,0.5681 0.8598062,0.7779 1.5960139,1.156 0.5288328,0.2717 1.690345,0.6884 2.35996,0.8468 l 0.293326,0.07 -0.02721,0.2381 c -0.03693,0.3232 -0.05903,0.3811 -0.144308,0.3779 -0.04018,0 -0.379145,-0.092 -0.753251,-0.2011 z"
       id="path5002"
       inkscape:connector-curvature="0" />
    <path
       style="opacity:1;fill:#000000;fill-opacity:1;stroke:none;stroke-width:25;stroke-linecap:butt;stroke-linejoin:round;stroke-miterlimit:4;stroke-dasharray:none;stroke-dashoffset:0;stroke-opacity:1"
       d="m 11.418646,1040.4328 c -1.354218,-0.3937 -2.0632639,-0.763 -2.7815389,-1.4487 l -0.3595178,-0.3431 0.2917897,-0.1288 0.2917897,-0.1288 0.3813024,0.3163 c 0.5597466,0.4643 1.5854139,0.9309 2.6760969,1.2175 0.210178,0.055 0.242204,0.084 0.241528,0.2182 -0.0011,0.2212 -0.05683,0.3993 -0.134173,0.4289 -0.03669,0.014 -0.309961,-0.045 -0.607277,-0.1315 z"
       id="path5004"
       inkscape:connector-curvature="0" />
    <path
       style="opacity:1;fill:#000000;fill-opacity:1;stroke:none;stroke-width:25;stroke-linecap:butt;stroke-linejoin:round;stroke-miterlimit:4;stroke-dasharray:none;stroke-dashoffset:0;stroke-opacity:1"
       d="m 7.7470802,1037.6531 c -0.2806314,-0.845 -0.2307409,-2.2265 0.1112783,-3.0812 l 0.092701,-0.2318 0.2650536,0.1136 c 0.1457795,0.062 0.2709567,0.1196 0.2781714,0.1268 0.00722,0.01 -0.040311,0.1787 -0.1056126,0.3812 -0.166104,0.5151 -0.2101829,1.7501 -0.081941,2.2959 0.050189,0.2137 0.091252,0.3992 0.091252,0.4122 0,0.034 -0.4397373,0.2542 -0.5062684,0.2542 -0.030087,0 -0.095172,-0.1219 -0.1446344,-0.2709 z"
       id="path5006"
       inkscape:connector-curvature="0" />
    <path
       style="opacity:1;fill:#000000;fill-opacity:1;stroke:none;stroke-width:25;stroke-linecap:butt;stroke-linejoin:round;stroke-miterlimit:4;stroke-dasharray:none;stroke-dashoffset:0;stroke-opacity:1"
       d="m 6.1315067,1038.2215 c -0.1942975,-0.6777 -0.2602516,-1.3183 -0.2271827,-2.2067 0.032706,-0.8785 0.1452895,-1.5153 0.3680884,-2.0818 0.080166,-0.2038 0.152575,-0.3787 0.1609088,-0.3888 0.023272,-0.028 0.470211,0.2091 0.507308,0.2692 0.018004,0.029 -0.050479,0.2667 -0.1521826,0.5282 l -0.1849167,0.4752 -4.091e-4,1.3968 c -3.363e-4,1.1575 0.016626,1.4568 0.099037,1.7471 0.054696,0.1927 0.099446,0.3881 0.099446,0.4341 0,0.066 -0.3895908,0.2704 -0.5156797,0.2704 -0.014989,0 -0.084477,-0.1997 -0.1544182,-0.4437 z"
       id="path5008"
       inkscape:connector-curvature="0" />
    <path
       style="opacity:1;fill:#000000;fill-opacity:1;stroke:none;stroke-width:25;stroke-linecap:butt;stroke-linejoin:round;stroke-miterlimit:4;stroke-dasharray:none;stroke-dashoffset:0;stroke-opacity:1"
       d="m 4.5410608,1039.2523 c -0.1710072,-0.4093 -0.3628896,-1.4233 -0.4264598,-2.2537 -0.1056579,-1.38 0.047063,-2.5261 0.497887,-3.736 0.1138117,-0.3054 0.2142178,-0.5635 0.2231247,-0.5734 0.021011,-0.024 0.5976676,0.2684 0.5976676,0.3025 0,0.014 -0.065851,0.1741 -0.1463367,0.3553 -0.4100668,0.9232 -0.5741874,1.9881 -0.5164757,3.3512 0.037653,0.8893 0.1203089,1.4433 0.3121381,2.0923 0.1228914,0.4157 0.1231829,0.4149 -0.2023763,0.5802 -0.2418544,0.1229 -0.2377593,0.1242 -0.3391689,-0.1184 z"
       id="path5014"
       inkscape:connector-curvature="0" />
    <path
       style="opacity:1;fill:#000000;fill-opacity:1;stroke:none;stroke-width:25;stroke-linecap:butt;stroke-linejoin:round;stroke-miterlimit:4;stroke-dasharray:none;stroke-dashoffset:0;stroke-opacity:1"
       d="m 5.6057764,1032.1518 c -0.1387753,-0.071 -0.2612928,-0.1582 -0.2722613,-0.1943 -0.010968,-0.036 0.2772259,-0.3737 0.6404316,-0.7504 0.9555112,-0.9911 1.9325949,-1.6233 3.3935316,-2.1958 0.6756417,-0.2647 1.9500587,-0.6484 2.2507937,-0.6776 0.160155,-0.015 0.174178,0 0.240631,0.2655 0.03881,0.1551 0.06206,0.2905 0.05165,0.3009 -0.0104,0.011 -0.336762,0.1063 -0.725245,0.213 -2.373141,0.652 -4.0041138,1.5779 -5.1014594,2.8961 l -0.2257574,0.2713 -0.2523188,-0.1287 z"
       id="path5016"
       inkscape:connector-curvature="0" />
    <path
       style="opacity:1;fill:#000000;fill-opacity:1;stroke:none;stroke-width:25;stroke-linecap:butt;stroke-linejoin:round;stroke-miterlimit:4;stroke-dasharray:none;stroke-dashoffset:0;stroke-opacity:1"
       d="m 7.1294323,1032.9513 c -0.1175904,-0.068 -0.2138007,-0.1478 -0.2138007,-0.1771 0,-0.109 1.0050651,-1.0752 1.408781,-1.3543 0.2303651,-0.1593 0.6967265,-0.4285 1.0363586,-0.5984 0.6206936,-0.3105 2.1096648,-0.8423 2.5538088,-0.9122 l 0.238319,-0.038 0.06481,0.2408 c 0.08386,0.3113 0.05337,0.377 -0.196793,0.4239 -0.410476,0.077 -1.667818,0.5074 -2.1770509,0.745 -0.7317398,0.3417 -1.2420789,0.6865 -1.8973878,1.2818 -0.3114521,0.283 -0.5745939,0.514 -0.5847596,0.5132 -0.010166,-7e-4 -0.1146934,-0.057 -0.2322838,-0.1251 z"
       id="path5018"
       inkscape:connector-curvature="0" />
    <path
       style="opacity:1;fill:#000000;fill-opacity:1;stroke:none;stroke-width:25;stroke-linecap:butt;stroke-linejoin:round;stroke-miterlimit:4;stroke-dasharray:none;stroke-dashoffset:0;stroke-opacity:1"
       d="m 8.6880439,1033.777 -0.2515674,-0.1515 0.3085809,-0.2772 c 0.8087583,-0.7264 1.7688976,-1.2113 3.1891696,-1.6107 0.278046,-0.079 0.530075,-0.1421 0.560064,-0.1421 0.06572,0 0.179705,0.3088 0.179705,0.487 0,0.1115 -0.05276,0.1406 -0.413347,0.2277 -1.202121,0.2904 -2.6169323,0.9786 -3.0875667,1.5021 -0.1373892,0.1528 -0.1778378,0.1498 -0.4850384,-0.035 z"
       id="path5020"
       inkscape:connector-curvature="0" />
    <path
       style="opacity:1;fill:#000000;fill-opacity:1;stroke:none;stroke-width:25;stroke-linecap:butt;stroke-linejoin:round;stroke-miterlimit:4;stroke-dasharray:none;stroke-dashoffset:0;stroke-opacity:1"
       d="m 21.111996,1029.2236 c -0.541297,-0.1733 -1.868765,-0.4462 -2.793662,-0.574 -0.982282,-0.1358 -3.505985,-0.1362 -4.700035,-7e-4 -0.670973,0.076 -0.860859,0.082 -0.895162,0.026 -0.05868,-0.095 -0.124929,-0.5005 -0.08781,-0.5376 0.06414,-0.064 1.243825,-0.1949 2.211573,-0.245 2.236285,-0.116 4.640493,0.1538 6.621437,0.7428 0.418171,0.1244 0.430341,0.1441 0.318803,0.5164 -0.07715,0.2574 -0.09168,0.259 -0.675138,0.072 z"
       id="path5022"
       inkscape:connector-curvature="0" />
    <path
       style="opacity:1;fill:#000000;fill-opacity:1;stroke:none;stroke-width:25;stroke-linecap:butt;stroke-linejoin:round;stroke-miterlimit:4;stroke-dasharray:none;stroke-dashoffset:0;stroke-opacity:1"
       d="m 20.702042,1030.7655 c -0.582258,-0.1753 -1.617687,-0.4055 -2.308892,-0.5132 -1.106403,-0.1726 -3.557387,-0.1673 -5.014623,0.011 l -0.293205,0.036 -0.03888,-0.1926 c -0.02138,-0.1058 -0.05086,-0.2353 -0.06551,-0.2877 -0.03172,-0.1133 0.0389,-0.1395 0.576775,-0.2143 1.786531,-0.2481 4.14347,-0.1688 5.986419,0.2014 0.494659,0.099 1.743025,0.4625 1.806657,0.5254 0.06136,0.061 -0.06898,0.5813 -0.14363,0.5736 -0.03665,0 -0.263957,-0.066 -0.50511,-0.139 z"
       id="path5024"
       inkscape:connector-curvature="0" />
    <path
       style="opacity:1;fill:#000000;fill-opacity:1;stroke:none;stroke-width:25;stroke-linecap:butt;stroke-linejoin:round;stroke-miterlimit:4;stroke-dasharray:none;stroke-dashoffset:0;stroke-opacity:1"
       d="m 20.171274,1032.4939 c -1.348323,-0.4391 -2.578183,-0.573 -5.014669,-0.546 l -1.650871,0.018 -0.07311,-0.2525 c -0.04021,-0.1389 -0.06663,-0.259 -0.05869,-0.2669 0.0079,-0.01 0.244949,-0.048 0.526702,-0.088 0.645187,-0.094 3.09134,-0.094 3.876075,2e-4 0.313575,0.038 0.81023,0.1085 1.103678,0.1579 0.560678,0.094 1.885577,0.4521 1.963748,0.5302 0.04709,0.047 -0.0602,0.563 -0.123989,0.5962 -0.01966,0.01 -0.266652,-0.057 -0.548868,-0.1484 z"
       id="path5026"
       inkscape:connector-curvature="0" />
    <path
       style="opacity:1;fill:#000000;fill-opacity:1;stroke:none;stroke-width:25;stroke-linecap:butt;stroke-linejoin:round;stroke-miterlimit:4;stroke-dasharray:none;stroke-dashoffset:0;stroke-opacity:1"
       d="m 22.583785,1033.7448 c -0.209634,-0.1947 -0.512666,-0.4307 -0.673407,-0.5246 l -0.292255,-0.1709 0.02396,-0.2742 c 0.01318,-0.1508 0.04835,-0.2985 0.07817,-0.3283 0.119528,-0.1196 1.786316,1.1546 1.786316,1.3655 0,0.059 -0.404482,0.2947 -0.496597,0.2891 -0.02477,0 -0.21655,-0.162 -0.426182,-0.3566 z"
       id="path5028"
       inkscape:connector-curvature="0" />
    <path
       style="opacity:1;fill:#000000;fill-opacity:1;stroke:none;stroke-width:25;stroke-linecap:butt;stroke-linejoin:round;stroke-miterlimit:4;stroke-dasharray:none;stroke-dashoffset:0;stroke-opacity:1"
       d="m 24.518766,1033.1518 c -0.587335,-0.7106 -1.180819,-1.2044 -1.938671,-1.613 -0.350853,-0.1892 -0.441855,-0.2649 -0.441855,-0.3674 0,-0.1563 0.110659,-0.4884 0.162364,-0.4873 0.09326,0 0.935777,0.497 1.338517,0.7863 0.797927,0.5734 1.626116,1.4682 1.487176,1.6068 -0.02853,0.029 -0.147977,0.092 -0.265451,0.1409 -0.210554,0.088 -0.215414,0.087 -0.34208,-0.066 z"
       id="path5032"
       inkscape:connector-curvature="0" />
    <path
       style="opacity:1;fill:#000000;fill-opacity:1;stroke:none;stroke-width:25;stroke-linecap:butt;stroke-linejoin:round;stroke-miterlimit:4;stroke-dasharray:none;stroke-dashoffset:0;stroke-opacity:1"
       d="m 25.935356,1032.1362 c -0.531901,-0.7245 -1.613673,-1.5688 -2.699459,-2.107 -0.352852,-0.175 -0.641549,-0.352 -0.641549,-0.3936 0,-0.1019 0.118687,-0.4511 0.174348,-0.5128 0.0568,-0.063 1.354104,0.6117 1.992166,1.0361 0.60246,0.4009 1.272786,1.036 1.720798,1.6306 l 0.342123,0.454 -0.247525,0.1295 c -0.136139,0.071 -0.274646,0.1307 -0.307795,0.1321 -0.03315,0 -0.183047,-0.1646 -0.333107,-0.3689 z"
       id="path5034"
       inkscape:connector-curvature="0" />
    <path
       style="opacity:1;fill:#000000;fill-opacity:1;stroke:none;stroke-width:25;stroke-linecap:butt;stroke-linejoin:round;stroke-miterlimit:4;stroke-dasharray:none;stroke-dashoffset:0;stroke-opacity:1"
       d="m 26.571041,1039.7728 c -0.148948,-0.078 -0.270815,-0.15 -0.270815,-0.1616 0,-0.012 0.07638,-0.1842 0.169735,-0.3838 0.620263,-1.3255 0.686927,-4.1 0.141061,-5.8706 -0.02064,-0.067 0.04805,-0.1234 0.255049,-0.2094 l 0.283301,-0.1178 0.08874,0.238 c 0.251796,0.6749 0.321384,1.136 0.354298,2.3474 0.04637,1.7067 -0.03022,2.4769 -0.336528,3.384 -0.132187,0.3914 -0.279422,0.7573 -0.327187,0.8131 -0.08275,0.096 -0.09961,0.095 -0.357659,-0.039 z"
       id="path5036"
       inkscape:connector-curvature="0" />
    <path
       style="opacity:1;fill:#000000;fill-opacity:1;stroke:none;stroke-width:25;stroke-linecap:butt;stroke-linejoin:round;stroke-miterlimit:4;stroke-dasharray:none;stroke-dashoffset:0;stroke-opacity:1"
       d="m 25.000007,1038.8547 c -0.181239,-0.1091 -0.23509,-0.1719 -0.205806,-0.24 0.19101,-0.4436 0.313706,-0.8732 0.370765,-1.2985 0.08394,-0.6254 0.03216,-2.2785 -0.08888,-2.8376 -0.04705,-0.2173 -0.07949,-0.4002 -0.0721,-0.4063 0.0074,-0.01 0.123372,-0.067 0.25774,-0.1344 l 0.244307,-0.1233 0.08395,0.201 c 0.176451,0.4223 0.203733,0.7665 0.186122,2.3484 l -0.01768,1.5885 -0.19946,0.5091 c -0.109702,0.2799 -0.225116,0.5161 -0.256473,0.525 -0.03135,0.01 -0.167475,-0.051 -0.302483,-0.1319 z"
       id="path5038"
       inkscape:connector-curvature="0" />
    <path
       style="opacity:1;fill:#000000;fill-opacity:1;stroke:none;stroke-width:25;stroke-linecap:butt;stroke-linejoin:round;stroke-miterlimit:4;stroke-dasharray:none;stroke-dashoffset:0;stroke-opacity:1"
       d="m 23.478058,1037.9713 c -0.12543,-0.065 -0.23575,-0.1253 -0.245156,-0.1333 -0.0094,-0.01 0.03783,-0.1778 0.104961,-0.377 0.111544,-0.3312 0.120514,-0.4603 0.104096,-1.4989 l -0.01796,-1.1365 0.22658,-0.1 c 0.124619,-0.055 0.244003,-0.1018 0.265298,-0.1042 0.130732,-0.014 0.252134,1.7065 0.168642,2.3904 -0.05068,0.415 -0.26153,1.0858 -0.339738,1.0807 -0.02127,0 -0.141287,-0.056 -0.266717,-0.1212 z"
       id="path5040"
       inkscape:connector-curvature="0" />
    <path
       style="opacity:1;fill:#000000;fill-opacity:1;stroke:none;stroke-width:25;stroke-linecap:butt;stroke-linejoin:round;stroke-miterlimit:4;stroke-dasharray:none;stroke-dashoffset:0;stroke-opacity:1"
       d="m 21.319182,1039.9931 c -0.01654,-0.056 -0.04555,-0.192 -0.06448,-0.3017 -0.03375,-0.1957 -0.02807,-0.2028 0.296282,-0.3701 0.181879,-0.094 0.487543,-0.289 0.679251,-0.4338 0.191709,-0.1446 0.378483,-0.2815 0.415054,-0.3041 0.03657,-0.023 0.183405,0.027 0.326301,0.1111 l 0.259808,0.1523 -0.133233,0.1442 c -0.186569,0.202 -0.632791,0.5254 -1.102463,0.799 -0.513152,0.2989 -0.637346,0.3362 -0.676525,0.2031 z"
       id="path5042"
       inkscape:connector-curvature="0" />
    <path
       style="opacity:1;fill:#000000;fill-opacity:1;stroke:none;stroke-width:25;stroke-linecap:butt;stroke-linejoin:round;stroke-miterlimit:4;stroke-dasharray:none;stroke-dashoffset:0;stroke-opacity:1"
       d="m 21.656459,1041.7366 c -0.01509,-0.043 -0.03472,-0.1746 -0.04364,-0.2924 l -0.01621,-0.2141 0.452946,-0.1981 c 0.683034,-0.2987 1.311778,-0.6984 1.772332,-1.1267 0.227584,-0.2117 0.448573,-0.3848 0.491087,-0.3847 0.04252,2e-4 0.179921,0.063 0.305351,0.1401 l 0.228054,0.1397 -0.409683,0.3961 c -0.547595,0.5294 -1.001428,0.8446 -1.770546,1.2294 -0.708359,0.3544 -0.966511,0.4338 -1.009693,0.3107 z"
       id="path5044"
       inkscape:connector-curvature="0" />
    <path
       style="opacity:1;fill:#000000;fill-opacity:1;stroke:none;stroke-width:25;stroke-linecap:butt;stroke-linejoin:round;stroke-miterlimit:4;stroke-dasharray:none;stroke-dashoffset:0;stroke-opacity:1"
       d="m 21.998629,1043.402 c -0.01777,-0.029 -0.04801,-0.1668 -0.0672,-0.3068 l -0.03489,-0.2545 0.477183,-0.1831 c 1.286921,-0.494 2.132427,-1.0078 2.93917,-1.7862 l 0.523528,-0.5051 0.259728,0.1522 c 0.312729,0.1832 0.312133,0.185 -0.244299,0.7499 -0.865373,0.8784 -1.618228,1.3463 -3.158878,1.963 -0.597826,0.2393 -0.644804,0.2508 -0.694347,0.1706 z"
       id="path5046"
       inkscape:connector-curvature="0" />
    <path
       style="opacity:1;fill:#000000;fill-opacity:1;stroke:none;stroke-width:25;stroke-linecap:butt;stroke-linejoin:round;stroke-miterlimit:4;stroke-dasharray:none;stroke-dashoffset:0;stroke-opacity:1"
       d="m 13.368639,1044.2085 -0.816216,-0.093 0.03808,-0.2879 c 0.02095,-0.1583 0.05472,-0.3055 0.07504,-0.327 0.02033,-0.022 0.242203,-0.01 0.493063,0.025 0.278756,0.04 1.353949,0.066 2.765155,0.068 2.480065,0 2.75522,-0.018 4.189297,-0.3137 0.438346,-0.09 0.814662,-0.1459 0.836259,-0.1232 0.0216,0.023 0.05683,0.161 0.07829,0.3076 l 0.03903,0.2664 -0.21963,0.062 c -0.392495,0.111 -1.687807,0.3371 -2.272118,0.3965 -0.313574,0.032 -1.429614,0.07 -2.480088,0.085 -1.530573,0.022 -2.07208,0.01 -2.726168,-0.066 z"
       id="path5048"
       inkscape:connector-curvature="0" />
    <path
       style="opacity:1;fill:#000000;fill-opacity:1;stroke:none;stroke-width:25;stroke-linecap:butt;stroke-linejoin:round;stroke-miterlimit:4;stroke-dasharray:none;stroke-dashoffset:0;stroke-opacity:1"
       d="m 14.639522,1042.7169 c -0.817844,-0.064 -1.707541,-0.1781 -1.790363,-0.2293 -0.052,-0.033 -0.05762,-0.1107 -0.02101,-0.294 0.05852,-0.2932 -0.157409,-0.2734 1.777484,-0.1631 2.069568,0.1178 3.88519,-0.01 5.550961,-0.3788 0.242782,-0.054 0.459283,-0.081 0.48111,-0.059 0.02183,0.022 0.04126,0.1589 0.04319,0.3045 l 0.0035,0.2651 -0.285067,0.076 c -0.448472,0.12 -1.822593,0.3511 -2.480089,0.4171 -0.822036,0.082 -2.587854,0.1156 -3.279717,0.061 l -2e-6,0 z"
       id="path5050"
       inkscape:connector-curvature="0" />
    <path
       style="opacity:1;fill:#000000;fill-opacity:1;stroke:none;stroke-width:25;stroke-linecap:butt;stroke-linejoin:round;stroke-miterlimit:4;stroke-dasharray:none;stroke-dashoffset:0;stroke-opacity:1"
       d="m 14.640963,1040.945 c -0.89459,-0.057 -1.422652,-0.1158 -1.50842,-0.1688 -0.05404,-0.034 -0.06322,-0.1197 -0.03369,-0.3167 l 0.0406,-0.2707 0.408673,0.036 c 1.489824,0.1326 2.275837,0.1567 3.254191,0.1 1.177138,-0.069 2.026618,-0.1774 2.874846,-0.3689 l 0.589148,-0.1329 0.04739,0.1246 c 0.02606,0.069 0.05599,0.2111 0.06651,0.3168 l 0.01912,0.1922 -0.912217,0.1848 c -0.501719,0.1018 -1.207261,0.2106 -1.567872,0.242 -0.90718,0.079 -2.526863,0.1092 -3.278276,0.061 z"
       id="path5052"
       inkscape:connector-curvature="0" />
  </g>
</svg>
