<?xml version="1.0" encoding="UTF-8" standalone="no"?>
<!-- Created with Inkscape (http://www.inkscape.org/) -->

<svg
   xmlns:dc="http://purl.org/dc/elements/1.1/"
   xmlns:cc="http://creativecommons.org/ns#"
   xmlns:rdf="http://www.w3.org/1999/02/22-rdf-syntax-ns#"
   xmlns:svg="http://www.w3.org/2000/svg"
   xmlns="http://www.w3.org/2000/svg"
   xmlns:sodipodi="http://sodipodi.sourceforge.net/DTD/sodipodi-0.dtd"
   xmlns:inkscape="http://www.inkscape.org/namespaces/inkscape"
   width="32"
   height="32"
   viewBox="0 0 32 32.000001"
   id="svg4135"
   version="1.1"
   inkscape:version="0.91 r13725"
   sodipodi:docname="stadium.svg">
  <defs
     id="defs4137" />
  <sodipodi:namedview
     id="base"
     pagecolor="#ffffff"
     bordercolor="#666666"
     borderopacity="1.0"
     inkscape:pageopacity="0.0"
     inkscape:pageshadow="2"
     inkscape:zoom="15.839192"
     inkscape:cx="9.9977156"
     inkscape:cy="7.550014"
     inkscape:document-units="px"
     inkscape:current-layer="layer1"
     showgrid="false"
     units="px"
     inkscape:window-width="1920"
     inkscape:window-height="1138"
     inkscape:window-x="-8"
     inkscape:window-y="-8"
     inkscape:window-maximized="1" />
  <metadata
     id="metadata4140">
    <rdf:RDF>
      <cc:Work
         rdf:about="">
        <dc:format>image/svg+xml</dc:format>
        <dc:type
           rdf:resource="http://purl.org/dc/dcmitype/StillImage" />
        <dc:title></dc:title>
      </cc:Work>
    </rdf:RDF>
  </metadata>
  <g
     inkscape:label="Ebene 1"
     inkscape:groupmode="layer"
     id="layer1"
     transform="translate(0,-1020.3622)">
    <path
       style="opacity:1;fill:#000000;fill-opacity:1;stroke:none;stroke-width:25;stroke-linecap:butt;stroke-linejoin:round;stroke-miterlimit:4;stroke-dasharray:none;stroke-dashoffset:0;stroke-opacity:1"
       d="m 10.155552,1044.7196 c -3.0206512,-0.8524 -4.6461533,-1.7792 -5.9188866,-3.375 l -0.3737931,-0.4686 0.2421512,-0.1466 c 0.3320617,-0.201 0.4187508,-0.1865 0.6200105,0.1039 0.2633077,0.38 1.1436576,1.1971 1.6554693,1.5366 0.9676585,0.6418 2.430439,1.245 4.0146127,1.6556 0.448931,0.1163 0.823154,0.2202 0.831607,0.2308 0.0085,0.011 -0.0018,0.1613 -0.02282,0.3349 -0.04845,0.4005 -0.07344,0.4035 -1.048346,0.1284 z"
       id="path5000"
       inkscape:connector-curvature="0" />
    <path
       style="opacity:1;fill:#000000;fill-opacity:1;stroke:none;stroke-width:25;stroke-linecap:butt;stroke-linejoin:round;stroke-miterlimit:4;stroke-dasharray:none;stroke-dashoffset:0;stroke-opacity:1"
       d="m 10.475618,1042.945 c -1.9595809,-0.5716 -3.2923828,-1.3005 -4.2501566,-2.3244 -0.5765138,-0.6163 -0.5837588,-0.6409 -0.2383792,-0.8087 l 0.2867379,-0.1393 0.5203388,0.5184 c 0.6314907,0.6291 0.9521158,0.8614 1.7673634,1.2801 0.5856087,0.3008 1.8718217,0.7623 2.6133267,0.9377 l 0.324818,0.077 -0.03013,0.2636 c -0.0409,0.3579 -0.06537,0.422 -0.159801,0.4185 -0.0445,0 -0.41985,-0.1018 -0.834121,-0.2227 z"
       id="path5002"
       inkscape:connector-curvature="0" />
    <path
       style="opacity:1;fill:#000000;fill-opacity:1;stroke:none;stroke-width:25;stroke-linecap:butt;stroke-linejoin:round;stroke-miterlimit:4;stroke-dasharray:none;stroke-dashoffset:0;stroke-opacity:1"
       d="m 10.943567,1041.0875 c -1.4996077,-0.436 -2.2847774,-0.8449 -3.080167,-1.6042 l -0.3981159,-0.38 0.3231165,-0.1426 0.3231165,-0.1426 0.4222393,0.3502 c 0.6198415,0.5142 1.7556256,1.0309 2.9634046,1.3482 0.232743,0.061 0.268207,0.093 0.267459,0.2417 -0.0012,0.2449 -0.06293,0.4421 -0.148578,0.4749 -0.04063,0.016 -0.343239,-0.05 -0.672475,-0.1456 z"
       id="path5004"
       inkscape:connector-curvature="0" />
    <path
       style="opacity:1;fill:#000000;fill-opacity:1;stroke:none;stroke-width:25;stroke-linecap:butt;stroke-linejoin:round;stroke-miterlimit:4;stroke-dasharray:none;stroke-dashoffset:0;stroke-opacity:1"
       d="m 6.877819,1038.0094 c -0.3107602,-0.9358 -0.2555134,-2.4656 0.1232253,-3.4121 l 0.1026532,-0.2566 0.29351,0.1258 c 0.1614305,0.069 0.3000468,0.1324 0.3080361,0.1404 0.00799,0.01 -0.044639,0.1979 -0.1169512,0.4221 -0.1839371,0.5704 -0.2327484,1.938 -0.090738,2.5424 0.055577,0.2366 0.1010489,0.442 0.1010489,0.4565 0,0.037 -0.4869478,0.2814 -0.5606218,0.2814 -0.033317,0 -0.1053898,-0.1349 -0.1601625,-0.2999 z"
       id="path5006"
       inkscape:connector-curvature="0" />
    <path
       style="opacity:1;fill:#000000;fill-opacity:1;stroke:none;stroke-width:25;stroke-linecap:butt;stroke-linejoin:round;stroke-miterlimit:4;stroke-dasharray:none;stroke-dashoffset:0;stroke-opacity:1"
       d="m 5.0887962,1038.6388 c -0.2151575,-0.7505 -0.2881925,-1.4599 -0.2515733,-2.4436 0.036217,-0.9729 0.1608879,-1.678 0.4076067,-2.3053 0.088773,-0.2257 0.1689556,-0.4194 0.1781841,-0.4306 0.025771,-0.031 0.5206933,0.2316 0.561773,0.2981 0.019937,0.032 -0.055898,0.2954 -0.168521,0.5849 l -0.2047695,0.5262 -4.53e-4,1.5468 c -3.725e-4,1.2818 0.018411,1.6132 0.10967,1.9347 0.060568,0.2134 0.1101231,0.4297 0.1101231,0.4807 0,0.073 -0.4314176,0.2994 -0.5710435,0.2994 -0.016598,0 -0.093547,-0.2211 -0.1709966,-0.4913 z"
       id="path5008"
       inkscape:connector-curvature="0" />
    <path
       style="opacity:1;fill:#000000;fill-opacity:1;stroke:none;stroke-width:25;stroke-linecap:butt;stroke-linejoin:round;stroke-miterlimit:4;stroke-dasharray:none;stroke-dashoffset:0;stroke-opacity:1"
       d="m 3.3275986,1039.7802 c -0.1893667,-0.4532 -0.4018498,-1.5761 -0.4722449,-2.4956 -0.1170015,-1.5282 0.052116,-2.7973 0.5513406,-4.1371 0.1260306,-0.3382 0.2372164,-0.624 0.2470795,-0.635 0.023267,-0.026 0.6618337,0.2972 0.6618337,0.335 0,0.016 -0.072921,0.1928 -0.1620475,0.3935 -0.4540919,1.0223 -0.6358326,2.2015 -0.571925,3.7109 0.041695,0.9848 0.1332254,1.5983 0.3456495,2.317 0.1360852,0.4603 0.136408,0.4594 -0.2241035,0.6425 -0.2678201,0.136 -0.2632854,0.1375 -0.3755824,-0.1312 z"
       id="path5014"
       inkscape:connector-curvature="0" />
    <path
       style="opacity:1;fill:#000000;fill-opacity:1;stroke:none;stroke-width:25;stroke-linecap:butt;stroke-linejoin:round;stroke-miterlimit:4;stroke-dasharray:none;stroke-dashoffset:0;stroke-opacity:1"
       d="m 4.506623,1031.9174 c -0.1536744,-0.078 -0.2893455,-0.1752 -0.3014915,-0.2151 -0.012146,-0.04 0.3069891,-0.4139 0.7091889,-0.831 1.0580957,-1.0975 2.14008,-1.7976 3.7578641,-2.4315 0.748179,-0.2932 2.1594185,-0.718 2.4924405,-0.7504 0.17735,-0.017 0.192878,0 0.266465,0.294 0.04298,0.1718 0.06872,0.3217 0.0572,0.3332 -0.01152,0.012 -0.372917,0.1177 -0.803108,0.2359 -2.6279231,0.722 -4.4339986,1.7473 -5.6491561,3.207 l -0.249995,0.3004 -0.2794079,-0.1425 z"
       id="path5016"
       inkscape:connector-curvature="0" />
    <path
       style="opacity:1;fill:#000000;fill-opacity:1;stroke:none;stroke-width:25;stroke-linecap:butt;stroke-linejoin:round;stroke-miterlimit:4;stroke-dasharray:none;stroke-dashoffset:0;stroke-opacity:1"
       d="m 6.1938599,1032.8028 c -0.130215,-0.075 -0.2367545,-0.1637 -0.2367545,-0.1961 0,-0.1207 1.1129698,-1.1907 1.5600289,-1.4997 0.2550974,-0.1764 0.7715277,-0.4746 1.147623,-0.6627 0.6873318,-0.3438 2.3361597,-0.9327 2.8279877,-1.0101 l 0.263905,-0.042 0.07177,0.2666 c 0.09286,0.3448 0.0591,0.4175 -0.217921,0.4695 -0.454545,0.085 -1.8468757,0.5618 -2.4107802,0.825 -0.8103,0.3783 -1.3754296,0.7601 -2.101093,1.4194 -0.3448899,0.3134 -0.6362828,0.5691 -0.6475399,0.5683 -0.011257,-8e-4 -0.127007,-0.063 -0.257222,-0.1386 z"
       id="path5018"
       inkscape:connector-curvature="0" />
    <path
       style="opacity:1;fill:#000000;fill-opacity:1;stroke:none;stroke-width:25;stroke-linecap:butt;stroke-linejoin:round;stroke-miterlimit:4;stroke-dasharray:none;stroke-dashoffset:0;stroke-opacity:1"
       d="m 7.9198054,1033.7171 -0.2785759,-0.1678 0.3417105,-0.3069 c 0.8955872,-0.8044 1.9588078,-1.3414 3.531561,-1.7836 0.307898,-0.087 0.586985,-0.1574 0.620193,-0.1574 0.07278,0 0.198999,0.342 0.198999,0.5393 0,0.1235 -0.05842,0.1557 -0.457725,0.2521 -1.331181,0.3216 -2.8978879,1.0837 -3.41905,1.6634 -0.1521395,0.1692 -0.1969306,0.1659 -0.5371126,-0.039 z"
       id="path5020"
       inkscape:connector-curvature="0" />
    <path
       style="opacity:1;fill:#000000;fill-opacity:1;stroke:none;stroke-width:25;stroke-linecap:butt;stroke-linejoin:round;stroke-miterlimit:4;stroke-dasharray:none;stroke-dashoffset:0;stroke-opacity:1"
       d="m 21.677604,1028.6749 c -0.599412,-0.192 -2.069398,-0.4941 -3.093592,-0.6357 -1.087741,-0.1504 -3.882391,-0.1508 -5.204635,-8e-4 -0.743009,0.084 -0.953282,0.091 -0.991268,0.029 -0.06498,-0.1051 -0.138341,-0.5543 -0.09724,-0.5954 0.07102,-0.071 1.377363,-0.2158 2.449009,-0.2713 2.476375,-0.1284 5.1387,0.1703 7.33232,0.8226 0.463067,0.1377 0.476543,0.1595 0.35303,0.5718 -0.08543,0.2851 -0.101517,0.2868 -0.747621,0.08 z"
       id="path5022"
       inkscape:connector-curvature="0" />
    <path
       style="opacity:1;fill:#000000;fill-opacity:1;stroke:none;stroke-width:25;stroke-linecap:butt;stroke-linejoin:round;stroke-miterlimit:4;stroke-dasharray:none;stroke-dashoffset:0;stroke-opacity:1"
       d="m 21.223637,1030.3823 c -0.64477,-0.1941 -1.791364,-0.449 -2.556777,-0.5683 -1.225187,-0.1911 -3.939311,-0.1853 -5.552997,0.012 l -0.324684,0.04 -0.04305,-0.2132 c -0.02368,-0.1172 -0.05632,-0.2606 -0.07254,-0.3186 -0.03512,-0.1255 0.04308,-0.1545 0.638698,-0.2373 1.978335,-0.2748 4.588317,-0.187 6.629126,0.223 0.547766,0.11 1.930158,0.5121 2.000622,0.5818 0.06795,0.067 -0.07639,0.6437 -0.15905,0.6352 -0.04059,0 -0.292296,-0.073 -0.55934,-0.1539 z"
       id="path5024"
       inkscape:connector-curvature="0" />
    <path
       style="opacity:1;fill:#000000;fill-opacity:1;stroke:none;stroke-width:25;stroke-linecap:butt;stroke-linejoin:round;stroke-miterlimit:4;stroke-dasharray:none;stroke-dashoffset:0;stroke-opacity:1"
       d="m 20.635885,1032.2963 c -1.49308,-0.4863 -2.854979,-0.6346 -5.553048,-0.6047 l -1.82811,0.02 -0.08096,-0.2796 c -0.04453,-0.1538 -0.07378,-0.2868 -0.06499,-0.2956 0.0088,-0.01 0.271246,-0.053 0.583249,-0.098 0.714454,-0.1038 3.423229,-0.1037 4.292214,2e-4 0.34724,0.042 0.897216,0.1202 1.222169,0.1749 0.620873,0.1046 2.088015,0.5006 2.174578,0.5871 0.05215,0.052 -0.06666,0.6234 -0.1373,0.6602 -0.02177,0.011 -0.29528,-0.063 -0.607796,-0.1643 z"
       id="path5026"
       inkscape:connector-curvature="0" />
    <path
       style="opacity:1;fill:#000000;fill-opacity:1;stroke:none;stroke-width:25;stroke-linecap:butt;stroke-linejoin:round;stroke-miterlimit:4;stroke-dasharray:none;stroke-dashoffset:0;stroke-opacity:1"
       d="m 23.307405,1033.6815 c -0.23214,-0.2156 -0.567706,-0.477 -0.745704,-0.581 l -0.323632,-0.1892 0.02653,-0.3036 c 0.01459,-0.167 0.05354,-0.3306 0.08656,-0.3636 0.132361,-0.1324 1.978097,1.2786 1.978097,1.5121 0,0.065 -0.447908,0.3263 -0.549912,0.3201 -0.02743,0 -0.239799,-0.1793 -0.471938,-0.3948 z"
       id="path5028"
       inkscape:connector-curvature="0" />
    <path
       style="opacity:1;fill:#000000;fill-opacity:1;stroke:none;stroke-width:25;stroke-linecap:butt;stroke-linejoin:round;stroke-miterlimit:4;stroke-dasharray:none;stroke-dashoffset:0;stroke-opacity:1"
       d="m 25.450127,1033.0248 c -0.650391,-0.7869 -1.307592,-1.3337 -2.146808,-1.7862 -0.388521,-0.2095 -0.489293,-0.2933 -0.489293,-0.4068 0,-0.1731 0.122539,-0.5409 0.179796,-0.5397 0.103271,0 1.036243,0.5504 1.482221,0.8708 0.883593,0.6349 1.800697,1.6258 1.64684,1.7793 -0.03159,0.032 -0.163863,0.1017 -0.293949,0.156 -0.23316,0.097 -0.238542,0.096 -0.378807,-0.073 z"
       id="path5032"
       inkscape:connector-curvature="0" />
    <path
       style="opacity:1;fill:#000000;fill-opacity:1;stroke:none;stroke-width:25;stroke-linecap:butt;stroke-linejoin:round;stroke-miterlimit:4;stroke-dasharray:none;stroke-dashoffset:0;stroke-opacity:1"
       d="m 27.018804,1031.9001 c -0.589007,-0.8022 -1.786918,-1.7372 -2.989276,-2.3332 -0.390734,-0.1937 -0.710426,-0.3898 -0.710426,-0.4358 0,-0.1129 0.13143,-0.4995 0.193066,-0.5679 0.0629,-0.07 1.499482,0.6774 2.206047,1.1474 0.667141,0.4439 1.409433,1.1472 1.905544,1.8056 l 0.378854,0.5028 -0.274099,0.1434 c -0.150755,0.079 -0.304133,0.1447 -0.340841,0.1463 -0.03671,0 -0.202699,-0.1823 -0.368869,-0.4086 z"
       id="path5034"
       inkscape:connector-curvature="0" />
    <path
       style="opacity:1;fill:#000000;fill-opacity:1;stroke:none;stroke-width:25;stroke-linecap:butt;stroke-linejoin:round;stroke-miterlimit:4;stroke-dasharray:none;stroke-dashoffset:0;stroke-opacity:1"
       d="m 27.722736,1040.3566 c -0.164939,-0.086 -0.299889,-0.1661 -0.299889,-0.1789 0,-0.013 0.08458,-0.204 0.187958,-0.425 0.686854,-1.4678 0.760676,-4.5402 0.156205,-6.5009 -0.02286,-0.074 0.05321,-0.1366 0.282431,-0.2319 l 0.313717,-0.1304 0.09827,0.2635 c 0.278829,0.7474 0.355888,1.258 0.392336,2.5994 0.05135,1.89 -0.03346,2.7429 -0.372658,3.7473 -0.146379,0.4335 -0.309421,0.8387 -0.362314,0.9004 -0.09164,0.1069 -0.110306,0.1049 -0.396058,-0.043 z"
       id="path5036"
       inkscape:connector-curvature="0" />
    <path
       style="opacity:1;fill:#000000;fill-opacity:1;stroke:none;stroke-width:25;stroke-linecap:butt;stroke-linejoin:round;stroke-miterlimit:4;stroke-dasharray:none;stroke-dashoffset:0;stroke-opacity:1"
       d="m 25.983035,1039.34 c -0.200697,-0.1209 -0.26033,-0.1904 -0.227902,-0.2658 0.211517,-0.4912 0.347386,-0.967 0.410571,-1.4379 0.09295,-0.6926 0.03561,-2.5231 -0.09842,-3.1423 -0.0521,-0.2406 -0.08803,-0.4431 -0.07984,-0.4499 0.0082,-0.01 0.136618,-0.074 0.285412,-0.1488 l 0.270536,-0.1365 0.09296,0.2225 c 0.195395,0.4677 0.225606,0.8488 0.206105,2.6005 l -0.01958,1.7591 -0.220874,0.5637 c -0.12148,0.31 -0.249284,0.5716 -0.284008,0.5814 -0.03472,0.01 -0.185455,-0.056 -0.334958,-0.146 z"
       id="path5038"
       inkscape:connector-curvature="0" />
    <path
       style="opacity:1;fill:#000000;fill-opacity:1;stroke:none;stroke-width:25;stroke-linecap:butt;stroke-linejoin:round;stroke-miterlimit:4;stroke-dasharray:none;stroke-dashoffset:0;stroke-opacity:1"
       d="m 24.297688,1038.3617 c -0.138896,-0.072 -0.26106,-0.1387 -0.271476,-0.1476 -0.01042,-0.01 0.04189,-0.1969 0.11623,-0.4175 0.123519,-0.3667 0.133452,-0.5097 0.115271,-1.6598 l -0.01989,-1.2585 0.250906,-0.1107 c 0.137998,-0.061 0.270199,-0.1128 0.29378,-0.1154 0.144768,-0.016 0.279204,1.8897 0.186748,2.647 -0.05612,0.4596 -0.289608,1.2024 -0.376212,1.1967 -0.02355,0 -0.156456,-0.062 -0.295352,-0.1342 z"
       id="path5040"
       inkscape:connector-curvature="0" />
    <path
       style="opacity:1;fill:#000000;fill-opacity:1;stroke:none;stroke-width:25;stroke-linecap:butt;stroke-linejoin:round;stroke-miterlimit:4;stroke-dasharray:none;stroke-dashoffset:0;stroke-opacity:1"
       d="m 21.907033,1040.6006 c -0.01831,-0.062 -0.05044,-0.2126 -0.0714,-0.3341 -0.03737,-0.2167 -0.03108,-0.2246 0.328091,-0.4099 0.201406,-0.1039 0.539886,-0.32 0.752176,-0.4803 0.212291,-0.1602 0.419117,-0.3117 0.459614,-0.3368 0.0405,-0.025 0.203096,0.03 0.361333,0.1231 l 0.287702,0.1686 -0.147537,0.1597 c -0.206599,0.2237 -0.700728,0.5818 -1.220825,0.8848 -0.568244,0.331 -0.705772,0.3723 -0.749157,0.2249 z"
       id="path5042"
       inkscape:connector-curvature="0" />
    <path
       style="opacity:1;fill:#000000;fill-opacity:1;stroke:none;stroke-width:25;stroke-linecap:butt;stroke-linejoin:round;stroke-miterlimit:4;stroke-dasharray:none;stroke-dashoffset:0;stroke-opacity:1"
       d="m 22.280521,1042.5313 c -0.01671,-0.048 -0.03845,-0.1934 -0.04832,-0.3238 l -0.01795,-0.2371 0.501574,-0.2194 c 0.756366,-0.3308 1.452612,-0.7734 1.962612,-1.2477 0.252017,-0.2344 0.496732,-0.4261 0.54381,-0.4259 0.04708,2e-4 0.199238,0.07 0.338134,0.1551 l 0.252538,0.1547 -0.453667,0.4386 c -0.606385,0.5863 -1.108942,0.9353 -1.960634,1.3614 -0.784408,0.3925 -1.070276,0.4804 -1.118094,0.3441 z"
       id="path5044"
       inkscape:connector-curvature="0" />
    <path
       style="opacity:1;fill:#000000;fill-opacity:1;stroke:none;stroke-width:25;stroke-linecap:butt;stroke-linejoin:round;stroke-miterlimit:4;stroke-dasharray:none;stroke-dashoffset:0;stroke-opacity:1"
       d="m 22.659426,1044.3755 c -0.01968,-0.032 -0.05317,-0.1847 -0.07441,-0.3398 l -0.03863,-0.2818 0.528414,-0.2028 c 1.425086,-0.547 2.361366,-1.116 3.254722,-1.9779 l 0.579734,-0.5594 0.287612,0.1686 c 0.346304,0.2029 0.345644,0.2049 -0.270527,0.8304 -0.95828,0.9727 -1.791962,1.4908 -3.498017,2.1737 -0.66201,0.265 -0.714031,0.2778 -0.768893,0.189 z"
       id="path5046"
       inkscape:connector-curvature="0" />
    <path
       style="opacity:1;fill:#000000;fill-opacity:1;stroke:none;stroke-width:25;stroke-linecap:butt;stroke-linejoin:round;stroke-miterlimit:4;stroke-dasharray:none;stroke-dashoffset:0;stroke-opacity:1"
       d="m 13.102913,1045.2685 -0.903846,-0.1029 0.04217,-0.3188 c 0.0232,-0.1753 0.06059,-0.3383 0.0831,-0.3622 0.02251,-0.024 0.268207,-0.011 0.545999,0.028 0.308684,0.044 1.49931,0.073 3.062025,0.075 2.746327,0 3.051023,-0.02 4.639063,-0.3474 0.485407,-0.1001 0.902125,-0.1615 0.926041,-0.1364 0.02392,0.025 0.06293,0.1783 0.0867,0.3406 l 0.04322,0.2951 -0.24321,0.069 c -0.434633,0.123 -1.869011,0.3733 -2.516054,0.4391 -0.34724,0.035 -1.583099,0.078 -2.746353,0.094 -1.694896,0.024 -2.29454,0.01 -3.018852,-0.073 z"
       id="path5048"
       inkscape:connector-curvature="0" />
    <path
       style="opacity:1;fill:#000000;fill-opacity:1;stroke:none;stroke-width:25;stroke-linecap:butt;stroke-linejoin:round;stroke-miterlimit:4;stroke-dasharray:none;stroke-dashoffset:0;stroke-opacity:1"
       d="m 14.510239,1043.6168 c -0.905648,-0.071 -1.890864,-0.1972 -1.982578,-0.2539 -0.05758,-0.036 -0.0638,-0.1226 -0.02327,-0.3256 0.0648,-0.3246 -0.174309,-0.3027 1.968316,-0.1806 2.291759,0.1305 4.302308,-0.01 6.146917,-0.4194 0.268848,-0.06 0.508592,-0.09 0.532763,-0.065 0.02417,0.024 0.04569,0.176 0.04783,0.3373 l 0.0039,0.2935 -0.315672,0.084 c -0.49662,0.1328 -2.018268,0.3887 -2.746353,0.4618 -0.910291,0.091 -2.865689,0.128 -3.631831,0.068 l -2e-6,0 z"
       id="path5050"
       inkscape:connector-curvature="0" />
    <path
       style="opacity:1;fill:#000000;fill-opacity:1;stroke:none;stroke-width:25;stroke-linecap:butt;stroke-linejoin:round;stroke-miterlimit:4;stroke-dasharray:none;stroke-dashoffset:0;stroke-opacity:1"
       d="m 14.511835,1041.6547 c -0.990634,-0.063 -1.575389,-0.1283 -1.670365,-0.187 -0.05984,-0.037 -0.07001,-0.1325 -0.03731,-0.3506 l 0.04496,-0.2998 0.452549,0.04 c 1.649773,0.1468 2.520173,0.1735 3.603564,0.1105 1.303516,-0.076 2.244197,-0.1965 3.183492,-0.4085 l 0.652399,-0.1472 0.05248,0.138 c 0.02886,0.076 0.062,0.2338 0.07365,0.3508 l 0.02117,0.2128 -1.010153,0.2047 c -0.555584,0.1127 -1.336874,0.2332 -1.7362,0.2679 -1.004576,0.087 -2.79815,0.121 -3.630235,0.068 z"
       id="path5052"
       inkscape:connector-curvature="0" />
  </g>
</svg>
