<?xml version="1.0" encoding="UTF-8" standalone="no"?>
<!-- Created with Inkscape (http://www.inkscape.org/) -->

<svg
   xmlns:dc="http://purl.org/dc/elements/1.1/"
   xmlns:cc="http://creativecommons.org/ns#"
   xmlns:rdf="http://www.w3.org/1999/02/22-rdf-syntax-ns#"
   xmlns:svg="http://www.w3.org/2000/svg"
   xmlns="http://www.w3.org/2000/svg"
   xmlns:sodipodi="http://sodipodi.sourceforge.net/DTD/sodipodi-0.dtd"
   xmlns:inkscape="http://www.inkscape.org/namespaces/inkscape"
   width="32"
   height="32"
   viewBox="0 0 32 32.000001"
   id="svg4135"
   version="1.1"
   inkscape:version="0.91 r13725"
   sodipodi:docname="supermarket_frame_color.svg">
  <defs
     id="defs4137" />
  <sodipodi:namedview
     id="base"
     pagecolor="#ffffff"
     bordercolor="#666666"
     borderopacity="1.0"
     inkscape:pageopacity="0.0"
     inkscape:pageshadow="2"
     inkscape:zoom="15.839192"
     inkscape:cx="-17.055432"
     inkscape:cy="7.0133705"
     inkscape:document-units="px"
     inkscape:current-layer="layer1"
     showgrid="false"
     units="px"
     inkscape:window-width="1920"
     inkscape:window-height="1138"
     inkscape:window-x="-8"
     inkscape:window-y="-8"
     inkscape:window-maximized="1" />
  <metadata
     id="metadata4140">
    <rdf:RDF>
      <cc:Work
         rdf:about="">
        <dc:format>image/svg+xml</dc:format>
        <dc:type
           rdf:resource="http://purl.org/dc/dcmitype/StillImage" />
        <dc:title></dc:title>
      </cc:Work>
    </rdf:RDF>
  </metadata>
  <g
     inkscape:label="Ebene 1"
     inkscape:groupmode="layer"
     id="layer1"
     transform="translate(0,-1020.3622)">
    <path
       inkscape:connector-curvature="0"
       id="path4140"
       d="m 3.222483,1020.3622 25.555013,0 c 1.723663,0 3.222504,1.424 3.222504,3.2226 l 0,25.5548 c 0,1.7239 -1.498841,3.2226 -3.222504,3.2226 l -25.555013,0 C 1.423887,1052.3622 0,1050.8635 0,1049.1396 l 0,-25.5548 c 0,-1.7986 1.423887,-3.2226 3.222483,-3.2226 z"
       style="fill:#ffd42a;fill-opacity:1;fill-rule:nonzero;stroke:none" />
    <path
       inkscape:connector-curvature="0"
       id="path4142"
       d="m 27.203716,1022.3106 -22.33253,0 c -1.573761,0 -2.847764,1.2742 -2.847764,2.848 l 0,22.3325 c 0,1.5738 1.274003,2.7726 2.847764,2.7726 l 22.33253,0 c 1.57378,0 2.847792,-1.1988 2.847792,-2.7726 l 0,-22.3325 c 0,-1.5738 -1.274012,-2.848 -2.847792,-2.848 z"
       style="fill:#ffffff;fill-opacity:1;fill-rule:nonzero;stroke:none" />
    <path
       style="opacity:1;fill:#ffd42a;fill-opacity:1;stroke:none;stroke-width:25;stroke-linecap:butt;stroke-linejoin:round;stroke-miterlimit:4;stroke-dasharray:none;stroke-dashoffset:0;stroke-opacity:1"
       d="m 10.085763,1045.7358 c -0.5784964,-0.2637 -0.8810701,-0.738 -0.8820166,-1.3828 l -5.56e-4,-0.3788 -1.0190112,-0.019 c -0.9063067,-0.018 -1.0322869,-0.031 -1.1390431,-0.1284 -0.3232174,-0.2927 -0.2460639,-0.9796 0.1254227,-1.1167 0.3113175,-0.1149 2.6900328,-0.1624 8.3117292,-0.1661 l 5.396526,0 -0.01569,-0.8968 -0.01569,-0.8969 -7.000881,-0.6994 c -3.8504814,-0.3847 -7.0101132,-0.7088 -7.0213998,-0.7201 -0.014512,-0.014 -1.5402451,-9.0575 -1.5497836,-9.1855 -5.832e-4,-0.011 4.020035,-0.014 8.9347054,-0.014 8.461321,0 8.937296,-0.011 8.964572,-0.1 0.01585,-0.055 0.08191,-0.3558 0.146813,-0.669 0.18618,-0.8983 0.250195,-1.0315 0.562485,-1.17 0.493673,-0.2189 2.103275,-0.7375 2.288966,-0.7375 0.141613,0 0.241785,0.057 0.432976,0.2488 0.230297,0.2302 0.248738,0.2708 0.248738,0.5466 0,0.2604 -0.02327,0.321 -0.185054,0.4816 -0.174733,0.1735 -0.323914,0.2416 -1.409269,0.6438 -0.363826,0.1348 -0.441487,0.1877 -0.52456,0.3571 -0.05363,0.1096 -0.263424,0.9677 -0.466208,1.9072 -0.202786,0.9395 -0.72902,3.3799 -1.16941,5.4231 l -0.80071,3.715 0,1.5947 0,1.5948 -0.390931,0 -0.39093,0 -0.02791,0.3899 c -0.04807,0.6719 -0.43139,1.2066 -1.005038,1.4021 -0.374626,0.1277 -0.782143,0.1098 -1.117614,-0.049 -0.531526,-0.2512 -0.745786,-0.6011 -0.806234,-1.3161 l -0.03611,-0.4271 -3.17206,0 -3.172059,0 -0.03548,0.3843 c -0.06445,0.6981 -0.489892,1.2796 -1.050052,1.4351 -0.321244,0.09 -0.755007,0.069 -1.009249,-0.047 z m 10.986373,-6.4769 c 0.05041,-0.019 0.116485,-0.082 0.14684,-0.1383 0.05681,-0.106 0.454107,-1.8753 0.454107,-2.022 0,-0.065 -0.09666,-0.082 -0.45552,-0.082 l -0.455522,0 0,1.1389 c 0,1.0846 0.0052,1.1388 0.109224,1.1388 0.06008,0 0.150464,-0.016 0.200871,-0.036 z m -1.027938,-0.1688 c 0.01902,-0.05 0.03456,-0.5404 0.03456,-1.0909 l 0,-1.0008 -1.205803,0.036 c -0.663193,0.02 -1.228843,0.06 -1.257001,0.088 -0.02816,0.028 -0.04285,0.427 -0.03263,0.8861 0.01417,0.6376 0.03733,0.8465 0.09801,0.8839 0.0437,0.027 0.428049,0.092 0.854102,0.144 0.426054,0.052 0.82589,0.1027 0.888524,0.1119 0.343301,0.051 0.587277,0.028 0.62025,-0.057 z m -3.154087,-1.1637 0,-0.9122 -1.209979,0.015 -1.209977,0.015 -0.01595,0.7641 c -0.0088,0.4203 0.0068,0.7869 0.03468,0.8147 0.05931,0.06 1.39074,0.1987 1.988419,0.2083 l 0.412815,0.011 0,-0.9122 z m -3.10933,0.5943 c 0.01902,-0.05 0.03456,-0.4083 0.03456,-0.7971 l 0,-0.7071 -1.224212,0 -1.224214,0 0.004,0.5551 c 0.0022,0.3053 0.02392,0.6064 0.04825,0.6691 0.03957,0.1017 0.158258,0.1267 1.120566,0.2355 0.591973,0.067 1.105602,0.1245 1.141397,0.1281 0.03579,0 0.08064,-0.035 0.09965,-0.084 l -10e-7,0 z m -3.040207,-0.8779 0,-0.6263 -1.4023684,0 -1.4023697,0 0.037947,0.2988 c 0.056959,0.4487 0.1439969,0.6706 0.2839811,0.7238 0.068901,0.026 0.4571414,0.076 0.862756,0.1108 0.4056146,0.035 0.8271616,0.071 0.936772,0.082 0.109609,0.011 0.30819,0.024 0.441287,0.028 l 0.241995,0.011 0,-0.6264 z m -0.9608654,-1.3097 0.9039254,0 0,-1.2241 0,-1.2243 -1.6227935,0 -1.6227948,0 0,0.1943 c 0,0.2808 0.283914,1.9152 0.3618816,2.0833 0.056371,0.1215 0.1160106,0.1476 0.4072466,0.1774 0.1876626,0.018 0.4148711,0.025 0.5049077,0.014 0.090037,-0.012 0.570469,-0.021 1.067627,-0.021 z m 4.0356344,-1.2241 0,-1.2812 -1.224213,0 -1.224213,0 0,1.2812 0,1.2811 1.224213,0 1.224213,0 0,-1.2811 z m 3.074768,0 0,-1.2824 -1.209979,0.015 -1.209977,0.015 -0.01544,1.1943 c -0.0084,0.6568 -0.0029,1.2269 0.01245,1.2669 0.02139,0.056 0.306974,0.072 1.225408,0.072 l 1.19753,0 0,-1.2823 0,0 z m 2.377251,1.2261 0.754456,-9e-4 0,-1.2252 0,-1.2254 -1.209976,0.015 -1.209979,0.015 -0.01538,1.1802 -0.01538,1.1801 0.129267,0.029 c 0.202693,0.045 0.57349,0.074 0.698668,0.052 0.06264,-0.011 0.453386,-0.019 0.868337,-0.019 z m 2.569506,-0.035 c 0.04165,-0.037 0.45804,-2.0475 0.460282,-2.2225 0.0021,-0.1616 -0.017,-0.1809 -0.211251,-0.213 -0.117438,-0.02 -0.46335,-0.036 -0.768692,-0.036 l -0.555166,-6e-4 0,1.2854 0,1.2853 0.526697,-0.04 c 0.289682,-0.022 0.536341,-0.049 0.54813,-0.058 z m -11.096294,-3.9239 0,-0.8257 -1.8790244,0 c -1.6992055,0 -1.879025,0.011 -1.879025,0.093 0,0.1645 0.1807187,1.2354 0.2306446,1.3667 0.063474,0.167 0.1144569,0.1717 1.975786,0.1826 l 1.5516188,0.011 0,-0.8256 z m 3.074769,0 0,-0.8257 -1.224213,0 -1.224213,0 0,0.8257 0,0.8256 1.224213,0 1.224213,0 0,-0.8256 z m 3.074768,0 0,-0.8257 -1.224213,0 -1.224214,0 0,0.7877 c 0,0.4331 0.01708,0.8047 0.03796,0.8256 0.02088,0.021 0.571773,0.038 1.224212,0.038 l 1.186254,0 0,-0.8255 z m 3.188648,0 0,-0.8267 -1.238448,0.015 -1.238448,0.015 0,0.7662 0,0.7662 0.14235,0.04 c 0.07829,0.022 0.635595,0.042 1.238448,0.045 l 1.096098,0.011 0,-0.8268 z m 2.432645,0.7476 c 0.0395,-0.04 0.295018,-1.2772 0.298109,-1.4441 l 0.0024,-0.1281 -1.024924,0 -1.024923,0 0,0.8343 0,0.8342 0.859512,-0.034 c 0.47273,-0.018 0.873164,-0.046 0.889853,-0.063 z"
       id="path5068"
       inkscape:connector-curvature="0" />
  </g>
</svg>
