<?xml version="1.0" encoding="UTF-8" standalone="no"?>
<!-- Created with Inkscape (http://www.inkscape.org/) -->

<svg
   xmlns:dc="http://purl.org/dc/elements/1.1/"
   xmlns:cc="http://creativecommons.org/ns#"
   xmlns:rdf="http://www.w3.org/1999/02/22-rdf-syntax-ns#"
   xmlns:svg="http://www.w3.org/2000/svg"
   xmlns="http://www.w3.org/2000/svg"
   xmlns:sodipodi="http://sodipodi.sourceforge.net/DTD/sodipodi-0.dtd"
   xmlns:inkscape="http://www.inkscape.org/namespaces/inkscape"
   width="32"
   height="32"
   viewBox="0 0 32 32.000001"
   id="svg4146"
   version="1.1"
   inkscape:version="0.91 r13725"
   sodipodi:docname="theatre_frame_color.svg">
  <defs
     id="defs4148">
    <pattern
       y="0"
       x="0"
       height="6"
       width="6"
       patternUnits="userSpaceOnUse"
       id="EMFhbasepattern" />
  </defs>
  <sodipodi:namedview
     id="base"
     pagecolor="#ffffff"
     bordercolor="#666666"
     borderopacity="1.0"
     inkscape:pageopacity="0.0"
     inkscape:pageshadow="2"
     inkscape:zoom="15.839192"
     inkscape:cx="9.2912214"
     inkscape:cy="13.913726"
     inkscape:document-units="px"
     inkscape:current-layer="layer1"
     showgrid="false"
     units="px"
     inkscape:window-width="1920"
     inkscape:window-height="1138"
     inkscape:window-x="-8"
     inkscape:window-y="-8"
     inkscape:window-maximized="1" />
  <metadata
     id="metadata4151">
    <rdf:RDF>
      <cc:Work
         rdf:about="">
        <dc:format>image/svg+xml</dc:format>
        <dc:type
           rdf:resource="http://purl.org/dc/dcmitype/StillImage" />
        <dc:title></dc:title>
      </cc:Work>
    </rdf:RDF>
  </metadata>
  <g
     inkscape:label="Ebene 1"
     inkscape:groupmode="layer"
     id="layer1"
     transform="translate(0,-1020.3622)">
    <rect
       style="opacity:1;fill:#c83771;fill-opacity:1;stroke:none;stroke-width:2.09500003;stroke-linecap:butt;stroke-linejoin:round;stroke-miterlimit:4;stroke-dasharray:none;stroke-dashoffset:0;stroke-opacity:1"
       id="rect4154"
       width="32"
       height="31.99999"
       x="0"
       y="1020.3622"
       ry="3.2261746" />
    <rect
       style="opacity:1;fill:#ffffff;fill-opacity:1;stroke:none;stroke-width:2.09500003;stroke-linecap:butt;stroke-linejoin:round;stroke-miterlimit:4;stroke-dasharray:none;stroke-dashoffset:0;stroke-opacity:1"
       id="rect4154-7"
       width="28"
       height="28"
       x="-30.045902"
       y="1022.3163"
       ry="2.8229036"
       transform="scale(-1,1)" />
    <path
       style="opacity:0.97000002;fill:#c83771;fill-opacity:1;stroke:none;stroke-width:3.5;stroke-linecap:round;stroke-linejoin:round;stroke-miterlimit:4;stroke-dasharray:none;stroke-opacity:1"
       d="m 9.4373487,1042.8457 c -2.670316,-0.5092 -4.4059099,-2.3267 -5.0087056,-5.2451 -0.1531908,-0.7416 -0.1821639,-1.85 -0.1821639,-6.9686 0,-5.7528 0.010993,-6.0822 0.2004142,-6.0024 0.7624943,0.3212 2.8830143,1.0287 3.6933503,1.2323 0.808119,0.203 1.304087,0.2439 2.9203233,0.2409 1.72233,0 2.072368,-0.037 3.034847,-0.2968 0.902425,-0.2432 2.45218,-0.7865 3.349784,-1.1742 0.187293,-0.081 0.200414,0.072 0.200414,2.343 l 0,2.4297 -0.314937,-0.075 c -0.173216,-0.041 -0.53396,-0.157 -0.801657,-0.257 l -0.486721,-0.1818 0,-0.9579 c 0,-0.5268 -0.02732,-0.9578 -0.06072,-0.9578 -0.0334,0 -0.362138,0.1268 -0.730548,0.2819 -1.464799,0.6165 -2.458944,0.8016 -4.304991,0.8015 -1.8305403,-10e-5 -2.6061583,-0.1456 -4.2671653,-0.8007 -0.394334,-0.1555 -0.742196,-0.2827 -0.773027,-0.2827 -0.03083,0 -0.05606,2.2309 -0.05606,4.9576 0,5.3575 0.02259,5.6013 0.639895,6.9061 0.865646,1.8299 3.035732,2.8369 5.3408753,2.4786 0.465164,-0.072 0.920258,-0.1601 1.01132,-0.195 0.133616,-0.051 0.169326,0.091 0.185054,0.7365 l 0.01948,0.8 -0.420317,0.1185 c -0.717205,0.2021 -2.309494,0.2364 -3.1887613,0.069 z"
       id="path18690"
       inkscape:connector-curvature="0" />
    <path
       style="opacity:0.97000002;fill:#c83771;fill-opacity:1;stroke:none;stroke-width:3.5;stroke-linecap:round;stroke-linejoin:round;stroke-miterlimit:4;stroke-dasharray:none;stroke-opacity:1"
       d="m 7.5559367,1032.5554 c -1.349596,-0.9016 -0.745441,-2.9459 0.870613,-2.9459 0.910782,0 1.5901013,0.6819 1.5901013,1.596 0,1.2861 -1.4035733,2.0561 -2.4607143,1.3499 z"
       id="path18692"
       inkscape:connector-curvature="0" />
    <path
       style="opacity:0.97000002;fill:#c83771;fill-opacity:1;stroke:none;stroke-width:3.5;stroke-linecap:round;stroke-linejoin:round;stroke-miterlimit:4;stroke-dasharray:none;stroke-opacity:1"
       d="m 7.6821537,1038.3901 c 0,-1.0495 0.743656,-2.1618 1.741486,-2.6048 0.8562393,-0.3801 2.3191423,-0.3829 3.0980623,-0.01 l 0.543009,0.2629 0,1.364 0,1.3641 -2.691279,0 -2.6912783,0 0,-0.3805 z"
       id="path18694"
       inkscape:connector-curvature="0" />
    <path
       style="opacity:0.97000002;fill:#c83771;fill-opacity:1;stroke:none;stroke-width:3.5;stroke-linecap:round;stroke-linejoin:round;stroke-miterlimit:4;stroke-dasharray:none;stroke-opacity:1"
       d="m 19.36345,1047.8681 c -1.829113,-0.3942 -3.359292,-1.6001 -4.170417,-3.2865 -0.743399,-1.5456 -0.75048,-1.6268 -0.752359,-8.6331 l -0.0016,-6.3149 1.164999,0.4518 c 0.640749,0.2485 1.684337,0.5898 2.319082,0.7584 1.056852,0.2808 1.332572,0.3064 3.272747,0.3031 1.943466,0 2.211172,-0.029 3.237327,-0.313 0.916709,-0.2535 1.900906,-0.6123 3.26889,-1.1915 0.12318,-0.052 0.142805,1.0778 0.109045,6.2787 -0.03957,6.0938 -0.05094,6.3773 -0.290166,7.2356 -0.879439,3.1553 -3.208759,4.9045 -6.49688,4.879 -0.503899,0 -1.251158,-0.079 -1.660577,-0.1676 z m 2.784735,-3.3248 c 1.067674,-0.3638 2.141978,-1.6519 2.323285,-2.7858 l 0.07476,-0.4675 -3.464947,0 -3.464948,0 0.07679,0.4802 c 0.172741,1.0802 1.264981,2.4086 2.274382,2.766 0.643907,0.228 1.523965,0.2309 2.180678,0.01 l 0,0 z m -2.658518,-6.8344 c 1.481397,-0.9897 0.691393,-3.2869 -1.07956,-3.1393 -0.934998,0.078 -1.566072,0.7788 -1.565547,1.7386 7.11e-4,1.3033 1.557159,2.1275 2.645107,1.4007 z m 4.999711,0.032 c 1.145806,-0.6986 1.094971,-2.4117 -0.08922,-3.0067 -1.480836,-0.744 -3.060617,0.8358 -2.316619,2.3167 0.431516,0.8588 1.585885,1.1899 2.405842,0.69 z"
       id="path18696"
       inkscape:connector-curvature="0" />
  </g>
</svg>
