<?xml version="1.0" encoding="UTF-8" standalone="no"?>
<!-- Created with Inkscape (http://www.inkscape.org/) -->

<svg
   xmlns:dc="http://purl.org/dc/elements/1.1/"
   xmlns:cc="http://creativecommons.org/ns#"
   xmlns:rdf="http://www.w3.org/1999/02/22-rdf-syntax-ns#"
   xmlns:svg="http://www.w3.org/2000/svg"
   xmlns="http://www.w3.org/2000/svg"
   xmlns:sodipodi="http://sodipodi.sourceforge.net/DTD/sodipodi-0.dtd"
   xmlns:inkscape="http://www.inkscape.org/namespaces/inkscape"
   width="32"
   height="32"
   viewBox="0 0 32 32.000001"
   id="svg4135"
   version="1.1"
   inkscape:version="0.91 r13725"
   sodipodi:docname="toilets.svg">
  <defs
     id="defs4137" />
  <sodipodi:namedview
     id="base"
     pagecolor="#ffffff"
     bordercolor="#666666"
     borderopacity="1.0"
     inkscape:pageopacity="0.0"
     inkscape:pageshadow="2"
     inkscape:zoom="15.839192"
     inkscape:cx="9.9977156"
     inkscape:cy="7.550014"
     inkscape:document-units="px"
     inkscape:current-layer="layer1"
     showgrid="false"
     units="px"
     inkscape:window-width="1920"
     inkscape:window-height="1138"
     inkscape:window-x="-8"
     inkscape:window-y="-8"
     inkscape:window-maximized="1" />
  <metadata
     id="metadata4140">
    <rdf:RDF>
      <cc:Work
         rdf:about="">
        <dc:format>image/svg+xml</dc:format>
        <dc:type
           rdf:resource="http://purl.org/dc/dcmitype/StillImage" />
        <dc:title></dc:title>
      </cc:Work>
    </rdf:RDF>
  </metadata>
  <g
     inkscape:label="Ebene 1"
     inkscape:groupmode="layer"
     id="layer1"
     transform="translate(0,-1020.3622)">
    <path
       style="opacity:1;fill:#000000;fill-opacity:1;stroke:none;stroke-width:25;stroke-linecap:butt;stroke-linejoin:round;stroke-miterlimit:4;stroke-dasharray:none;stroke-dashoffset:0;stroke-opacity:1"
       d="m 7.0303925,1045.5789 0,-2.5794 -1.4091214,-0.032 c -1.6898538,-0.039 -1.7177103,-0.047 -1.6566823,-0.5074 0.023335,-0.1759 0.1271624,-0.5844 0.2307275,-0.9077 0.2634885,-0.8225 0.6656851,-1.399 1.6458743,-2.3589 0.9339333,-0.9146 1.1260673,-1.1549 1.1260673,-1.4082 0,-0.2685 -0.316128,-0.819 -0.8990264,-1.5654 -0.7487887,-0.9589 -1.1722624,-1.6009 -1.2184763,-1.8473 -0.032686,-0.1742 0.00503,-0.3083 0.1915802,-0.6811 0.2749784,-0.5495 0.3659406,-0.6597 0.6753202,-0.8176 0.3070899,-0.1567 1.3283487,-0.2453 2.8289657,-0.2454 1.7913277,-10e-5 2.2531977,0.1165 2.6499497,0.669 0.604334,0.8415 0.526533,1.1904 -0.584459,2.621 -1.0077663,1.2977 -1.1927464,1.6447 -1.0916127,2.0476 0.024218,0.097 0.4059915,0.5278 0.9101867,1.0283 0.929918,0.923 1.347182,1.4547 1.650593,2.103 0.239595,0.512 0.470084,1.5259 0.38362,1.6874 -0.07543,0.141 -0.654426,0.1959 -2.071593,0.1964 l -0.9628012,4e-4 0,2.5885 0,2.5885 -1.1995562,0 -1.1995561,0 0,-2.5794 z"
       id="path5084"
       inkscape:connector-curvature="0" />
    <path
       style="opacity:1;fill:#000000;fill-opacity:1;stroke:none;stroke-width:25;stroke-linecap:butt;stroke-linejoin:round;stroke-miterlimit:4;stroke-dasharray:none;stroke-dashoffset:0;stroke-opacity:1"
       d="m 7.4720464,1030.5848 c -1.0838888,-0.2925 -1.9192179,-1.6539 -1.709821,-2.7867 0.2579719,-1.3954 1.5370692,-2.3022 2.9032109,-2.0581 0.8112345,0.145 1.4278987,0.6232 1.7981797,1.3945 0.182029,0.3792 0.197012,0.4608 0.197012,1.0733 0,0.5859 -0.01952,0.7045 -0.167963,1.0212 -0.201807,0.4305 -0.6069357,0.8853 -0.9870851,1.1081 -0.5265419,0.3085 -1.4094646,0.4161 -2.0335335,0.2477 z"
       id="path5086"
       inkscape:connector-curvature="0" />
    <path
       style="opacity:1;fill:#000000;fill-opacity:1;stroke:none;stroke-width:25;stroke-linecap:butt;stroke-linejoin:round;stroke-miterlimit:4;stroke-dasharray:none;stroke-dashoffset:0;stroke-opacity:1"
       d="m 14.79594,1036.0049 0,-12.1534 1.231124,0 1.231123,0 0,12.1534 0,12.1534 -1.231123,0 -1.231124,0 0,-12.1534 z"
       id="path5088"
       inkscape:connector-curvature="0" />
    <path
       style="opacity:1;fill:#000000;fill-opacity:1;stroke:none;stroke-width:25;stroke-linecap:butt;stroke-linejoin:round;stroke-miterlimit:4;stroke-dasharray:none;stroke-dashoffset:0;stroke-opacity:1"
       d="m 22.724982,1045.7531 c -0.02884,-1.5315 -0.07808,-2.6236 -0.135552,-3.0064 -0.116745,-0.7777 -0.438104,-1.725 -1.19474,-3.5219 -1.410004,-3.3485 -1.775994,-4.4275 -1.715862,-5.0585 0.0633,-0.6643 0.54331,-1.2717 1.122392,-1.4203 0.453082,-0.1163 5.586584,-0.1187 6.116684,0 0.423542,0.093 0.874356,0.452 1.067603,0.8512 0.351222,0.7255 0.08449,1.6649 -1.632238,5.7484 -0.82702,1.9672 -1.037255,2.5953 -1.138223,3.4006 -0.03577,0.2853 -0.06504,1.6204 -0.06504,2.9668 l 0,2.4481 -1.189864,0 -1.189864,0 -0.04529,-2.4051 z"
       id="path5090"
       inkscape:connector-curvature="0" />
    <path
       style="opacity:1;fill:#000000;fill-opacity:1;stroke:none;stroke-width:25;stroke-linecap:butt;stroke-linejoin:round;stroke-miterlimit:4;stroke-dasharray:none;stroke-dashoffset:0;stroke-opacity:1"
       d="m 23.161266,1030.5817 c -0.959501,-0.3034 -1.525804,-0.9552 -1.677074,-1.9301 -0.191033,-1.2313 0.275433,-2.1807 1.337711,-2.7228 0.337384,-0.1722 0.489313,-0.2097 0.939141,-0.232 0.655278,-0.032 1.103775,0.1125 1.600061,0.5169 0.873673,0.7119 1.237384,1.7244 0.95774,2.666 -0.134471,0.4528 -0.544758,1.0535 -0.89718,1.3135 -0.576122,0.4251 -1.5925,0.5998 -2.260399,0.3885 z"
       id="path5092"
       inkscape:connector-curvature="0" />
  </g>
</svg>
