<?xml version="1.0" encoding="UTF-8" standalone="no"?>
<!-- Created with Inkscape (http://www.inkscape.org/) -->

<svg
   xmlns:dc="http://purl.org/dc/elements/1.1/"
   xmlns:cc="http://creativecommons.org/ns#"
   xmlns:rdf="http://www.w3.org/1999/02/22-rdf-syntax-ns#"
   xmlns:svg="http://www.w3.org/2000/svg"
   xmlns="http://www.w3.org/2000/svg"
   xmlns:sodipodi="http://sodipodi.sourceforge.net/DTD/sodipodi-0.dtd"
   xmlns:inkscape="http://www.inkscape.org/namespaces/inkscape"
   width="32"
   height="32"
   viewBox="0 0 32 32.000001"
   id="svg4135"
   version="1.1"
   inkscape:version="0.91 r13725"
   sodipodi:docname="tower_frame.svg">
  <defs
     id="defs4137" />
  <sodipodi:namedview
     id="base"
     pagecolor="#ffffff"
     bordercolor="#666666"
     borderopacity="1.0"
     inkscape:pageopacity="0.0"
     inkscape:pageshadow="2"
     inkscape:zoom="15.839192"
     inkscape:cx="-4.3338235"
     inkscape:cy="8.0866575"
     inkscape:document-units="px"
     inkscape:current-layer="layer1"
     showgrid="false"
     units="px"
     inkscape:window-width="1920"
     inkscape:window-height="1138"
     inkscape:window-x="-8"
     inkscape:window-y="-8"
     inkscape:window-maximized="1"
     showguides="false" />
  <metadata
     id="metadata4140">
    <rdf:RDF>
      <cc:Work
         rdf:about="">
        <dc:format>image/svg+xml</dc:format>
        <dc:type
           rdf:resource="http://purl.org/dc/dcmitype/StillImage" />
        <dc:title></dc:title>
      </cc:Work>
    </rdf:RDF>
  </metadata>
  <g
     inkscape:label="Ebene 1"
     inkscape:groupmode="layer"
     id="layer1"
     transform="translate(0,-1020.3622)">
    <path
       inkscape:connector-curvature="0"
       id="path4140"
       d="m 3.2224824,1020.3622 25.5550136,0 c 1.723663,0 3.222504,1.424 3.222504,3.2226 l 0,25.5548 c 0,1.7239 -1.498841,3.2226 -3.222504,3.2226 l -25.5550136,0 C 1.4238863,1052.3622 0,1050.8635 0,1049.1396 l 0,-25.5548 c 0,-1.7986 1.4238863,-3.2226 3.2224824,-3.2226 z"
       style="fill:#000000;fill-opacity:1;fill-rule:nonzero;stroke:none" />
    <path
       inkscape:connector-curvature="0"
       id="path4142"
       d="m 27.203716,1022.3106 -22.33253,0 c -1.5737615,0 -2.8477645,1.2742 -2.8477645,2.848 l 0,22.3325 c 0,1.5738 1.274003,2.7726 2.8477645,2.7726 l 22.33253,0 c 1.57378,0 2.847792,-1.1988 2.847792,-2.7726 l 0,-22.3325 c 0,-1.5738 -1.274012,-2.848 -2.847792,-2.848 z"
       style="fill:#ffffff;fill-opacity:1;fill-rule:nonzero;stroke:none" />
    <path
       style="opacity:1;fill:#000000;fill-opacity:1;stroke:none;stroke-width:25;stroke-linecap:butt;stroke-linejoin:round;stroke-miterlimit:4;stroke-dasharray:none;stroke-dashoffset:0;stroke-opacity:1"
       d="m 9.1532032,1048.0199 c -0.014478,-0.023 0.4017094,-2.0825 0.9248618,-4.5755 2.074035,-9.8837 2.109269,-10.0595 2.02635,-10.112 -0.0421,-0.026 -0.478733,-0.049 -0.97029,-0.049 l -0.893742,-8e-4 0,-2.8805 0,-2.8805 0.200092,-0.1288 c 0.329293,-0.2117 4.592385,-2.541 5.070551,-2.7704 0.492137,-0.2362 0.418267,-0.2433 0.998883,0.098 0.17608,0.1035 0.396539,0.2232 0.48991,0.2659 0.09337,0.042 0.18507,0.1024 0.203779,0.1327 0.01871,0.03 0.05636,0.041 0.08369,0.024 0.02732,-0.018 0.04967,-0.01 0.04967,0.022 0,0.028 0.05401,0.07 0.120055,0.091 0.06604,0.021 0.132059,0.053 0.146733,0.073 0.01467,0.019 0.134728,0.088 0.266788,0.1522 0.132061,0.064 0.336154,0.1735 0.453542,0.243 0.117386,0.07 0.339487,0.2014 0.493557,0.2927 0.15407,0.091 0.280495,0.1488 0.280945,0.1275 4.27e-4,-0.021 0.01847,-0.012 0.04001,0.021 0.02156,0.032 0.219283,0.1564 0.439382,0.2741 0.220102,0.1177 0.726649,0.4 1.125661,0.6272 l 0.725475,0.4132 0.03472,0.9934 c 0.01909,0.5463 0.03479,1.8518 0.03486,2.901 l 1.5e-4,1.9074 -0.706988,0.01 c -0.388844,0 -0.769399,0.021 -0.845677,0.04 l -0.138686,0.033 1.484949,7.1232 c 0.816722,3.9178 1.49141,7.2193 1.499307,7.3368 l 0.01435,0.2134 -0.743857,0 -0.743857,0 -0.136544,-0.6517 -0.136546,-0.6516 -1.654088,-2.1228 c -3.505648,-4.4988 -3.390804,-4.3592 -3.495283,-4.2487 -0.06865,0.072 -4.60349,5.742 -4.859543,6.0753 -0.02304,0.029 -0.1076,0.3781 -0.187903,0.7736 -0.0803,0.3956 -0.168882,0.7492 -0.19684,0.7859 -0.05769,0.076 -1.4527042,0.098 -1.4984505,0.023 z m 10.6428068,-7.2448 c -0.768015,-3.6777 -0.844042,-4.028 -0.882391,-4.0663 -0.04053,-0.041 -0.11619,0.047 -1.163145,1.3437 -0.403515,0.4998 -0.733292,0.9337 -0.732834,0.964 4.82e-4,0.03 0.339087,0.4873 0.752503,1.0156 1.952277,2.4946 2.469642,3.1369 2.486237,3.0871 0.0099,-0.029 -0.197304,-1.0845 -0.46037,-2.3441 z m -6.790452,0.707 c 0.638773,-0.7975 1.337246,-1.684 1.55216,-1.97 l 0.390754,-0.5199 -0.09442,-0.147 c -0.07529,-0.1172 -1.228772,-1.6086 -1.636095,-2.1155 -0.05833,-0.072 -0.107434,-0.093 -0.138156,-0.059 -0.02621,0.029 -0.136966,0.4856 -0.246116,1.0137 -0.109152,0.5283 -0.389017,1.8849 -0.621924,3.0147 -0.232907,1.1299 -0.436555,2.1104 -0.452553,2.1788 -0.01883,0.08 -0.009,0.112 0.02794,0.09 0.03135,-0.019 0.579648,-0.6877 1.218423,-1.485 z m 3.731357,-4.6647 c 0.376927,-0.4622 0.930438,-1.1456 1.230023,-1.5188 l 0.544701,-0.678 -0.131896,-0.6227 c -0.07255,-0.3426 -0.138758,-0.6295 -0.147143,-0.6376 -0.0084,-0.01 -1.023276,-0.023 -2.255314,-0.033 l -2.240069,-0.019 -0.09233,0.4803 c -0.132344,0.6883 -0.126668,0.7368 0.126803,1.0828 0.822762,1.1228 2.154393,2.7856 2.230871,2.7856 0.02695,0 0.35742,-0.3781 0.734347,-0.8404 z m 2.894418,-6.9766 0,-1.3606 -3.735038,0 -3.735035,0 0,1.3606 0,1.3606 3.735035,0 3.735038,0 0,-1.3606 z"
       id="path5100"
       inkscape:connector-curvature="0" />
  </g>
</svg>
