<?xml version="1.0" encoding="UTF-8" standalone="no"?>
<!-- Created with Inkscape (http://www.inkscape.org/) -->

<svg
   xmlns:dc="http://purl.org/dc/elements/1.1/"
   xmlns:cc="http://creativecommons.org/ns#"
   xmlns:rdf="http://www.w3.org/1999/02/22-rdf-syntax-ns#"
   xmlns:svg="http://www.w3.org/2000/svg"
   xmlns="http://www.w3.org/2000/svg"
   xmlns:sodipodi="http://sodipodi.sourceforge.net/DTD/sodipodi-0.dtd"
   xmlns:inkscape="http://www.inkscape.org/namespaces/inkscape"
   width="32"
   height="32"
   viewBox="0 0 32 32.000001"
   id="svg4135"
   version="1.1"
   inkscape:version="0.91 r13725"
   sodipodi:docname="tower.svg">
  <defs
     id="defs4137" />
  <sodipodi:namedview
     id="base"
     pagecolor="#ffffff"
     bordercolor="#666666"
     borderopacity="1.0"
     inkscape:pageopacity="0.0"
     inkscape:pageshadow="2"
     inkscape:zoom="15.839192"
     inkscape:cx="9.9977156"
     inkscape:cy="7.550014"
     inkscape:document-units="px"
     inkscape:current-layer="layer1"
     showgrid="false"
     units="px"
     inkscape:window-width="1920"
     inkscape:window-height="1138"
     inkscape:window-x="-8"
     inkscape:window-y="-8"
     inkscape:window-maximized="1"
     showguides="false" />
  <metadata
     id="metadata4140">
    <rdf:RDF>
      <cc:Work
         rdf:about="">
        <dc:format>image/svg+xml</dc:format>
        <dc:type
           rdf:resource="http://purl.org/dc/dcmitype/StillImage" />
        <dc:title></dc:title>
      </cc:Work>
    </rdf:RDF>
  </metadata>
  <g
     inkscape:label="Ebene 1"
     inkscape:groupmode="layer"
     id="layer1"
     transform="translate(0,-1020.3622)">
    <path
       style="opacity:1;fill:#000000;fill-opacity:1;stroke:none;stroke-width:25;stroke-linecap:butt;stroke-linejoin:round;stroke-miterlimit:4;stroke-dasharray:none;stroke-dashoffset:0;stroke-opacity:1"
       d="m 8.1431178,1050.3808 c -0.017132,-0.028 0.4753156,-2.464 1.0943269,-5.4138 2.4540643,-11.6947 2.4957553,-11.9028 2.3976433,-11.9649 -0.04982,-0.031 -0.566453,-0.058 -1.14808,-0.058 l -1.0575032,-10e-4 0,-3.4084 0,-3.4083 0.2367545,-0.1523 c 0.3896297,-0.2505 5.4338597,-3.0066 5.9996417,-3.278 0.582312,-0.2795 0.494908,-0.288 1.181912,0.1159 0.208343,0.1225 0.469198,0.2641 0.579677,0.3146 0.110478,0.05 0.218981,0.1212 0.241117,0.157 0.02214,0.036 0.06669,0.049 0.09902,0.029 0.03232,-0.02 0.05877,-0.01 0.05877,0.026 0,0.034 0.06392,0.082 0.142053,0.1069 0.07813,0.024 0.156257,0.063 0.173619,0.087 0.01736,0.023 0.159415,0.1044 0.315673,0.1802 0.156258,0.076 0.397748,0.2052 0.536644,0.2876 0.138896,0.082 0.401693,0.2382 0.583994,0.3463 0.182301,0.1081 0.331891,0.176 0.332423,0.1508 5.05e-4,-0.025 0.02184,-0.014 0.04735,0.025 0.02551,0.039 0.259463,0.1852 0.519893,0.3244 0.26043,0.1393 0.859793,0.4732 1.331917,0.7421 l 0.858407,0.4889 0.04108,1.1754 c 0.02259,0.6465 0.04116,2.1912 0.04126,3.4325 l 1.78e-4,2.2571 -0.836532,0.01 c -0.460093,0 -0.910377,0.025 -1.000632,0.047 l -0.164099,0.04 1.757041,8.4285 c 0.966372,4.6356 1.764685,8.5421 1.774029,8.681 l 0.01699,0.2525 -0.880155,0 -0.880155,0 -0.161565,-0.771 -0.161565,-0.771 -1.957171,-2.5118 c -4.147997,-5.3232 -4.012111,-5.158 -4.135733,-5.0273 -0.08122,0.086 -5.447,6.7941 -5.749972,7.1885 -0.02726,0.035 -0.127315,0.4474 -0.222332,0.9154 -0.09502,0.468 -0.1998256,0.8865 -0.2329069,0.9299 -0.068251,0.09 -1.7188868,0.1161 -1.7730153,0.028 z m 12.5929162,-8.5723 c -0.908739,-4.3515 -0.998697,-4.766 -1.044074,-4.8114 -0.04796,-0.048 -0.137479,0.055 -1.37627,1.59 -0.477454,0.5914 -0.867656,1.1047 -0.867113,1.1406 5.69e-4,0.036 0.401217,0.5767 0.890386,1.2017 2.309997,2.9516 2.92216,3.7117 2.941796,3.6528 0.01167,-0.035 -0.233456,-1.2832 -0.544725,-2.7737 z m -8.034685,0.8365 c 0.755818,-0.9436 1.582273,-1.9925 1.836567,-2.3308 l 0.462352,-0.6153 -0.111723,-0.1739 c -0.08909,-0.1387 -1.453922,-1.9033 -1.935881,-2.503 -0.06902,-0.086 -0.127119,-0.1108 -0.16347,-0.07 -0.03102,0.035 -0.162062,0.5746 -0.291213,1.1996 -0.129151,0.625 -0.460297,2.2302 -0.735881,3.5671 -0.275583,1.3369 -0.516546,2.497 -0.535475,2.578 -0.02227,0.095 -0.0106,0.1326 0.03305,0.1057 0.0371,-0.023 0.685859,-0.8137 1.441677,-1.7573 z m 4.415064,-5.5194 c 0.445993,-0.5469 1.100925,-1.3555 1.455404,-1.7969 l 0.644508,-0.8024 -0.156064,-0.7368 c -0.08584,-0.4053 -0.164183,-0.7448 -0.174104,-0.7544 -0.0099,-0.01 -1.210774,-0.027 -2.668562,-0.039 l -2.650522,-0.022 -0.109241,0.5682 c -0.156593,0.8145 -0.149877,0.8718 0.150038,1.2812 0.973519,1.3286 2.549149,3.296 2.63964,3.296 0.0319,0 0.42291,-0.4474 0.868903,-0.9943 z m 3.42477,-8.2549 0,-1.6099 -4.419418,0 -4.419417,0 0,1.6099 0,1.6099 4.419417,0 4.419418,0 0,-1.6099 z"
       id="path5100"
       inkscape:connector-curvature="0" />
  </g>
</svg>
