<?xml version="1.0" encoding="UTF-8" standalone="no"?>
<!-- Created with Inkscape (http://www.inkscape.org/) -->

<svg
   xmlns:dc="http://purl.org/dc/elements/1.1/"
   xmlns:cc="http://creativecommons.org/ns#"
   xmlns:rdf="http://www.w3.org/1999/02/22-rdf-syntax-ns#"
   xmlns:svg="http://www.w3.org/2000/svg"
   xmlns="http://www.w3.org/2000/svg"
   xmlns:sodipodi="http://sodipodi.sourceforge.net/DTD/sodipodi-0.dtd"
   xmlns:inkscape="http://www.inkscape.org/namespaces/inkscape"
   width="32"
   height="32"
   viewBox="0 0 32 32.000001"
   id="svg4135"
   version="1.1"
   inkscape:version="0.91 r13725"
   sodipodi:docname="townhall.svg">
  <defs
     id="defs4137" />
  <sodipodi:namedview
     id="base"
     pagecolor="#ffffff"
     bordercolor="#666666"
     borderopacity="1.0"
     inkscape:pageopacity="0.0"
     inkscape:pageshadow="2"
     inkscape:zoom="15.839192"
     inkscape:cx="9.9977156"
     inkscape:cy="7.550014"
     inkscape:document-units="px"
     inkscape:current-layer="layer1"
     showgrid="false"
     units="px"
     inkscape:window-width="1920"
     inkscape:window-height="1138"
     inkscape:window-x="-8"
     inkscape:window-y="-8"
     inkscape:window-maximized="1"
     showguides="false" />
  <metadata
     id="metadata4140">
    <rdf:RDF>
      <cc:Work
         rdf:about="">
        <dc:format>image/svg+xml</dc:format>
        <dc:type
           rdf:resource="http://purl.org/dc/dcmitype/StillImage" />
        <dc:title></dc:title>
      </cc:Work>
    </rdf:RDF>
  </metadata>
  <g
     inkscape:label="Ebene 1"
     inkscape:groupmode="layer"
     id="layer1"
     transform="translate(0,-1020.3622)">
    <path
       style="opacity:1;fill:#000000;fill-opacity:1;stroke:none;stroke-width:25;stroke-linecap:butt;stroke-linejoin:round;stroke-miterlimit:4;stroke-dasharray:none;stroke-dashoffset:0;stroke-opacity:1"
       d="m 4.8838183,1048.3162 0,-0.8524 0.5839944,-5e-4 c 0.321197,-3e-4 0.7331498,-0.018 0.9154508,-0.04 l 0.3314563,-0.04 0,-3.7477 0,-3.7477 -0.4324161,0 c -0.237829,0 -0.6497818,-0.018 -0.9154508,-0.041 l -0.4830346,-0.041 0,-0.843 0,-0.8431 11.0801107,0 11.080111,0 0,0.8507 0,0.8506 -0.931235,0.017 -0.931234,0.017 -0.01628,3.8039 -0.01628,3.8038 0.947511,0 0.947511,0 0,0.8524 0,0.8523 -11.080111,0 -11.0801107,0 0,-0.8523 z m 14.8974977,-2.4781 c -0.0039,-2.8379 -0.08232,-3.2025 -0.84111,-3.9123 -0.489397,-0.4578 -0.824749,-0.658 -1.467983,-0.8763 -0.460467,-0.1562 -0.571083,-0.1684 -1.462607,-0.1608 -1.16059,0.01 -1.708642,0.112 -2.278206,0.4249 -0.593568,0.3261 -0.842979,0.54 -1.196852,1.0266 l -0.309904,0.4261 -0.04685,2.3487 -0.04685,2.3488 3.826304,0 3.826304,0 -0.0023,-1.6257 2e-6,0 z"
       id="path5112"
       inkscape:connector-curvature="0" />
    <path
       style="opacity:1;fill:#000000;fill-opacity:1;stroke:none;stroke-width:25;stroke-linecap:butt;stroke-linejoin:round;stroke-miterlimit:4;stroke-dasharray:none;stroke-dashoffset:0;stroke-opacity:1"
       d="m 17.889532,1025.9665 0,-2.7463 3.361914,0.01 c 1.849053,0 3.429357,0.025 3.511787,0.048 0.132037,0.037 0.0043,0.1517 -1.073287,0.9637 -1.65296,1.2457 -2.138611,1.6375 -2.138611,1.7257 0,0.092 0.473805,0.4746 2.171207,1.7543 l 1.31889,0.9944 -3.57595,0 -3.57595,0 0,-2.7464 z"
       id="path5114"
       inkscape:connector-curvature="0" />
    <path
       style="opacity:1;fill:#000000;fill-opacity:1;stroke:none;stroke-width:25;stroke-linecap:butt;stroke-linejoin:round;stroke-miterlimit:4;stroke-dasharray:none;stroke-dashoffset:0;stroke-opacity:1"
       d="m 6.7489315,1036.1035 -1.4494499,-0.035 3.7538604,-1.7939 c 2.064623,-0.9867 4.272353,-2.0429 4.906066,-2.3472 l 1.152205,-0.5534 0.0021,-3.4296 c 0.0023,-3.8 0.02955,-4.2385 0.27665,-4.4511 0.336768,-0.2897 1.057831,-0.2278 1.236537,0.1061 0.105501,0.1972 0.173663,1.7088 0.224219,4.9726 l 0.04426,2.8576 0.765414,0.3662 c 0.420977,0.2013 2.576831,1.2292 4.790785,2.2841 2.831946,1.3494 4.005562,1.9378 3.958555,1.9849 -0.07201,0.072 -16.942761,0.1056 -19.6611708,0.039 l 1.3e-6,0 z"
       id="path5116"
       inkscape:connector-curvature="0" />
  </g>
</svg>
