<?xml version="1.0" encoding="UTF-8" standalone="no"?>
<!-- Created with Inkscape (http://www.inkscape.org/) -->

<svg
   xmlns:dc="http://purl.org/dc/elements/1.1/"
   xmlns:cc="http://creativecommons.org/ns#"
   xmlns:rdf="http://www.w3.org/1999/02/22-rdf-syntax-ns#"
   xmlns:svg="http://www.w3.org/2000/svg"
   xmlns="http://www.w3.org/2000/svg"
   xmlns:sodipodi="http://sodipodi.sourceforge.net/DTD/sodipodi-0.dtd"
   xmlns:inkscape="http://www.inkscape.org/namespaces/inkscape"
   width="32"
   height="32"
   viewBox="0 0 32 32.000001"
   id="svg4137"
   version="1.1"
   inkscape:version="0.91 r13725"
   sodipodi:docname="tram_stop.svg">
  <defs
     id="defs4139" />
  <sodipodi:namedview
     id="base"
     pagecolor="#ffffff"
     bordercolor="#666666"
     borderopacity="1.0"
     inkscape:pageopacity="0.0"
     inkscape:pageshadow="2"
     inkscape:zoom="15.839192"
     inkscape:cx="17.290349"
     inkscape:cy="17.620771"
     inkscape:document-units="px"
     inkscape:current-layer="layer1"
     showgrid="false"
     units="px"
     inkscape:window-width="1920"
     inkscape:window-height="1138"
     inkscape:window-x="-8"
     inkscape:window-y="-8"
     inkscape:window-maximized="1" />
  <metadata
     id="metadata4142">
    <rdf:RDF>
      <cc:Work
         rdf:about="">
        <dc:format>image/svg+xml</dc:format>
        <dc:type
           rdf:resource="http://purl.org/dc/dcmitype/StillImage" />
        <dc:title></dc:title>
      </cc:Work>
    </rdf:RDF>
  </metadata>
  <g
     inkscape:label="Ebene 1"
     inkscape:groupmode="layer"
     id="layer1"
     transform="translate(0,-1020.3622)">
    <path
       style="fill:#000000;fill-opacity:1;stroke:none;stroke-width:17.5;stroke-linecap:round;stroke-linejoin:round;stroke-miterlimit:4;stroke-dasharray:none;stroke-opacity:1"
       d="m 4.0281234,1039.9487 0,-3.403 2.4110234,-0.016 2.4110245,-0.016 0.016355,-3.0729 0.016364,-3.0728 -2.4273828,0 -2.4273818,0 0,-0.5441 0,-0.5441 6.9336633,0.03 c 3.813515,0.016 6.933663,0.021 6.933663,0.01 0,-0.011 -0.85804,-0.8709 -1.906756,-1.9111 l -1.906758,-1.8913 -5.1844899,0 -5.1844885,0 0,-0.4413 0,-0.4412 12.1654284,0 12.165426,0 0,0.4412 0,0.4413 -6.129858,0 -6.129859,0 1.906125,1.9061 1.906124,1.9061 2.004475,-0.021 2.004473,-0.021 0.312503,0.6832 c 0.171876,0.3757 0.313879,0.6975 0.315561,0.7152 0.0018,0.018 0.09427,0.2094 0.205765,0.426 0.111488,0.2167 0.184643,0.394 0.162565,0.394 -0.02208,0 -0.0084,0.038 0.0306,0.085 0.03891,0.047 0.737324,1.5281 1.552034,3.2917 l 1.481292,3.2064 0,2.6335 0,2.6334 -11.818743,0 -11.8187455,0 0,-3.4031 z m 16.2625926,-5.7052 0,-3.8766 -0.315167,0 -0.315166,0 0,3.8766 0,3.8765 0.315166,0 0.315167,0 0,-3.8765 z m 5.397198,3.0098 c -0.217133,-0.4767 -1.001996,-2.2069 -1.744142,-3.845 l -1.349359,-2.9783 -0.448492,0 -0.448495,0 -0.04151,1.2393 c -0.02283,0.6816 -0.0415,2.4118 -0.0415,3.845 l 0,2.6057 2.234141,0 2.234143,0 -0.394785,-0.8667 z m -7.351231,-3.0413 0,-3.8451 -0.315166,0 -0.315166,0 0,3.8451 0,3.845 0.315166,0 0.315166,0 0,-3.845 z m -2.332231,-0.7564 0,-3.0887 -3.088633,0 -3.0886312,0 0,3.0887 0,3.0886 3.0886312,0 3.088633,0 0,-3.0886 z"
       id="path7850"
       inkscape:connector-curvature="0" />
    <path
       style="fill:#000000;fill-opacity:1;stroke:none;stroke-width:17.5;stroke-linecap:round;stroke-linejoin:round;stroke-miterlimit:4;stroke-dasharray:none;stroke-opacity:1"
       d="m 10.36297,1046.2489 c -0.7018662,-0.1439 -1.2486483,-0.4565 -1.742959,-0.9964 -0.3095193,-0.3381 -0.627343,-0.9068 -0.7187507,-1.2861 l -0.041775,-0.1734 3.0707827,0 3.070781,0 -0.04177,0.1734 c -0.1025,0.4253 -0.430197,0.9899 -0.795136,1.37 -0.729981,0.7602 -1.816901,1.1142 -2.801174,0.9125 z"
       id="path7856"
       inkscape:connector-curvature="0" />
    <path
       style="fill:#000000;fill-opacity:1;stroke:none;stroke-width:17.5;stroke-linecap:round;stroke-linejoin:round;stroke-miterlimit:4;stroke-dasharray:none;stroke-opacity:1"
       d="m 16.507262,1046.1709 c -0.532089,-0.1814 -0.999827,-0.4847 -1.352606,-0.8771 -0.298589,-0.3321 -0.635445,-0.954 -0.701949,-1.2959 l -0.03985,-0.2049 3.071827,0 3.071828,0 -0.0403,0.1734 c -0.02216,0.095 -0.141898,0.3823 -0.26607,0.6377 -0.386784,0.7956 -1.196934,1.4478 -2.039526,1.6418 -0.493753,0.1138 -1.247099,0.081 -1.703355,-0.075 z"
       id="path7858"
       inkscape:connector-curvature="0" />
    <path
       style="fill:#000000;fill-opacity:1;stroke:none;stroke-width:17.5;stroke-linecap:round;stroke-linejoin:round;stroke-miterlimit:4;stroke-dasharray:none;stroke-opacity:1"
       d="m 3.8390241,1047.1023 0,-0.4097 12.1339099,0 12.133912,0 0,0.4097 0,0.4097 -12.133912,0 -12.1339099,0 0,-0.4097 z"
       id="path7860"
       inkscape:connector-curvature="0" />
  </g>
</svg>
