<?xml version="1.0" encoding="UTF-8" standalone="no"?>
<!-- Created with Inkscape (http://www.inkscape.org/) -->

<svg
   xmlns:dc="http://purl.org/dc/elements/1.1/"
   xmlns:cc="http://creativecommons.org/ns#"
   xmlns:rdf="http://www.w3.org/1999/02/22-rdf-syntax-ns#"
   xmlns:svg="http://www.w3.org/2000/svg"
   xmlns="http://www.w3.org/2000/svg"
   xmlns:sodipodi="http://sodipodi.sourceforge.net/DTD/sodipodi-0.dtd"
   xmlns:inkscape="http://www.inkscape.org/namespaces/inkscape"
   width="32"
   height="32"
   viewBox="0 0 32 32.000001"
   id="svg4135"
   version="1.1"
   inkscape:version="0.91 r13725"
   sodipodi:docname="zoo.svg">
  <defs
     id="defs4137" />
  <sodipodi:namedview
     id="base"
     pagecolor="#ffffff"
     bordercolor="#666666"
     borderopacity="1.0"
     inkscape:pageopacity="0.0"
     inkscape:pageshadow="2"
     inkscape:zoom="15.839192"
     inkscape:cx="9.9977156"
     inkscape:cy="7.550014"
     inkscape:document-units="px"
     inkscape:current-layer="layer1"
     showgrid="false"
     units="px"
     inkscape:window-width="1920"
     inkscape:window-height="1138"
     inkscape:window-x="-8"
     inkscape:window-y="-8"
     inkscape:window-maximized="1"
     showguides="false" />
  <metadata
     id="metadata4140">
    <rdf:RDF>
      <cc:Work
         rdf:about="">
        <dc:format>image/svg+xml</dc:format>
        <dc:type
           rdf:resource="http://purl.org/dc/dcmitype/StillImage" />
        <dc:title></dc:title>
      </cc:Work>
    </rdf:RDF>
  </metadata>
  <g
     inkscape:label="Ebene 1"
     inkscape:groupmode="layer"
     id="layer1"
     transform="translate(0,-1020.3622)">
    <path
       style="opacity:1;fill:#000000;fill-opacity:1;stroke:none;stroke-width:25;stroke-linecap:butt;stroke-linejoin:round;stroke-miterlimit:4;stroke-dasharray:none;stroke-dashoffset:0;stroke-opacity:1"
       d="m 5.5182463,1045.775 c -0.041604,-0.3386 -0.2305874,-1.7374 -0.4199643,-3.1086 -0.8278901,-5.9941 -0.9352396,-7.0284 -0.9370818,-9.029 -0.00166,-1.8072 0.076443,-2.3593 0.4662915,-3.2957 0.6245568,-1.5003 1.7367677,-2.3527 3.8346602,-2.9391 0.6039379,-0.1689 0.661283,-0.1732 2.1984761,-0.1677 0.993615,0 1.952602,0.045 2.588516,0.1115 1.263544,0.1325 4.582223,0.5412 4.686263,0.5771 0.05461,0.019 0.02245,0.1429 -0.109082,0.4211 -0.437638,0.9254 -0.500923,2.2006 -0.156068,3.1449 0.727002,1.9906 2.746568,3.098 4.726483,2.5916 0.585584,-0.1498 1.257977,-0.4921 1.657515,-0.8437 0.309497,-0.2725 0.780076,-0.8344 0.780076,-0.9315 0,-0.032 -0.123478,-0.058 -0.274396,-0.058 -0.252027,0 -0.308549,0.033 -0.693335,0.4068 -2.054124,1.9943 -5.399132,0.9304 -5.888535,-1.873 -0.20226,-1.1585 0.219314,-2.3538 1.119576,-3.1742 0.682449,-0.6219 1.470198,-0.8842 2.51604,-0.8379 0.569124,0.025 0.732776,0.059 1.148438,0.2353 l 0.484736,0.2059 0.588551,-0.212 c 0.578015,-0.2082 0.606634,-0.2119 1.598703,-0.2081 1.162105,0 1.432445,0.076 2.198908,0.5808 0.741661,0.4884 1.171942,1.1663 1.459216,2.2987 0.227003,0.8949 0.287771,1.635 0.287909,3.5065 1.89e-4,2.3128 -0.177659,8.9132 -0.254789,9.4569 -0.07876,0.5551 -0.402518,1.2315 -0.767329,1.6031 -0.3917,0.3989 -0.796037,0.5665 -1.484384,0.6154 -0.693679,0.049 -1.237707,-0.091 -1.82096,-0.4696 -0.762802,-0.495 -1.520408,-1.5261 -1.643199,-2.2364 -0.03564,-0.2062 -0.01643,-0.2591 0.157034,-0.4326 0.1952,-0.1952 0.204336,-0.1974 0.738314,-0.1754 0.673347,0.028 0.746024,0.095 0.800357,0.7432 0.0443,0.5284 0.159665,0.749 0.5111,0.9775 0.56226,0.3656 1.370404,0.4508 1.732346,0.1827 0.579919,-0.4295 0.666111,-1.0772 0.483659,-3.6344 -0.203717,-2.8553 -0.445192,-4.002 -0.948826,-4.5056 -0.203164,-0.2032 -0.317448,-0.1885 -0.613227,0.079 -0.472286,0.4267 -0.702561,0.4893 -1.939934,0.5272 l -1.103806,0.034 -0.17849,1.4521 c -0.728045,5.923 -1.10841,8.882 -1.146665,8.9203 -0.02456,0.025 -0.663904,0.054 -1.420755,0.066 l -1.376095,0.021 -0.03513,-1.9782 c -0.01932,-1.088 -0.06676,-2.1344 -0.105423,-2.3254 -0.284927,-1.4074 -0.693338,-1.8006 -2.126652,-2.0475 -0.975636,-0.168 -2.31986,-0.2436 -3.546137,-0.1993 -1.894234,0.069 -3.298485,0.2798 -3.9247848,0.5908 -0.2959654,0.1469 -0.3726487,0.2236 -0.5193126,0.5196 -0.3442497,0.6947 -0.5539745,2.3207 -0.5539745,4.2949 0,1.0426 -0.00191,1.0573 -0.1420527,1.0949 -0.078129,0.021 -0.6854476,0.038 -1.349597,0.039 l -1.2075443,9e-4 -0.075643,-0.6156 z m 21.9046007,-15.4838 c 0.176198,-0.1762 0.15983,-0.4063 -0.04008,-0.5636 -0.09149,-0.072 -0.206426,-0.1308 -0.255407,-0.1308 -0.133743,0 -0.398991,0.2919 -0.398991,0.439 0,0.1775 0.219532,0.3817 0.410375,0.3817 0.08681,0 0.214657,-0.057 0.284105,-0.1263 z"
       id="path5154"
       inkscape:connector-curvature="0" />
    <path
       style="opacity:1;fill:#000000;fill-opacity:1;stroke:none;stroke-width:25;stroke-linecap:butt;stroke-linejoin:round;stroke-miterlimit:4;stroke-dasharray:none;stroke-dashoffset:0;stroke-opacity:1"
       d="m 2.450269,1038.4069 c -0.1549049,-0.1549 -0.1549662,-0.1555 -0.1538901,-1.4994 0.00126,-1.5761 0.098322,-4.0065 0.1923448,-4.8164 0.1414949,-1.2189 0.4532751,-1.8175 1.0838869,-2.0809 0.3094126,-0.1293 0.5708848,-0.1236 0.7436849,0.016 0.1149332,0.093 0.1327548,0.1514 0.096564,0.3162 -0.050246,0.2287 -0.1913295,0.3273 -0.468696,0.3273 -0.3858826,0 -0.6470639,0.5917 -0.7663191,1.7362 -0.036183,0.3472 -0.090419,1.7997 -0.1205244,3.2278 -0.034203,1.6225 -0.080163,2.644 -0.122518,2.7231 -0.058072,0.1085 -0.199139,0.2047 -0.3002934,0.2047 -0.0161,0 -0.099008,-0.07 -0.18424,-0.155 z"
       id="path5156"
       inkscape:connector-curvature="0" />
  </g>
</svg>
