<?xml version="1.0" encoding="UTF-8" standalone="no"?>
<!-- Created with Inkscape (http://www.inkscape.org/) -->

<svg
   xmlns:dc="http://purl.org/dc/elements/1.1/"
   xmlns:cc="http://creativecommons.org/ns#"
   xmlns:rdf="http://www.w3.org/1999/02/22-rdf-syntax-ns#"
   xmlns:svg="http://www.w3.org/2000/svg"
   xmlns="http://www.w3.org/2000/svg"
   xmlns:sodipodi="http://sodipodi.sourceforge.net/DTD/sodipodi-0.dtd"
   xmlns:inkscape="http://www.inkscape.org/namespaces/inkscape"
   width="32"
   height="32"
   viewBox="0 0 32 32.000001"
   id="svg4135"
   version="1.1"
   inkscape:version="0.91 r13725"
   sodipodi:docname="zoo_frame.svg">
  <defs
     id="defs4137" />
  <sodipodi:namedview
     id="base"
     pagecolor="#ffffff"
     bordercolor="#666666"
     borderopacity="1.0"
     inkscape:pageopacity="0.0"
     inkscape:pageshadow="2"
     inkscape:zoom="15.839192"
     inkscape:cx="-3.79718"
     inkscape:cy="7.550014"
     inkscape:document-units="px"
     inkscape:current-layer="layer1"
     showgrid="false"
     units="px"
     inkscape:window-width="1920"
     inkscape:window-height="1138"
     inkscape:window-x="-8"
     inkscape:window-y="-8"
     inkscape:window-maximized="1"
     showguides="false" />
  <metadata
     id="metadata4140">
    <rdf:RDF>
      <cc:Work
         rdf:about="">
        <dc:format>image/svg+xml</dc:format>
        <dc:type
           rdf:resource="http://purl.org/dc/dcmitype/StillImage" />
        <dc:title></dc:title>
      </cc:Work>
    </rdf:RDF>
  </metadata>
  <g
     inkscape:label="Ebene 1"
     inkscape:groupmode="layer"
     id="layer1"
     transform="translate(0,-1020.3622)">
    <path
       inkscape:connector-curvature="0"
       id="path4140"
       d="m 3.2224824,1020.3622 25.5550136,0 c 1.723663,0 3.222504,1.424 3.222504,3.2226 l 0,25.5548 c 0,1.7239 -1.498841,3.2226 -3.222504,3.2226 l -25.5550136,0 C 1.4238862,1052.3622 0,1050.8635 0,1049.1396 l 0,-25.5548 c 0,-1.7986 1.4238862,-3.2226 3.2224824,-3.2226 z"
       style="fill:#000000;fill-opacity:1;fill-rule:nonzero;stroke:none" />
    <path
       inkscape:connector-curvature="0"
       id="path4142"
       d="m 27.203716,1022.3106 -22.33253,0 c -1.5737615,0 -2.8477645,1.2742 -2.8477645,2.848 l 0,22.3325 c 0,1.5738 1.274003,2.7726 2.8477645,2.7726 l 22.33253,0 c 1.57378,0 2.847792,-1.1988 2.847792,-2.7726 l 0,-22.3325 c 0,-1.5738 -1.274012,-2.848 -2.847792,-2.848 z"
       style="fill:#ffffff;fill-opacity:1;fill-rule:nonzero;stroke:none" />
    <path
       style="opacity:1;fill:#000000;fill-opacity:1;stroke:none;stroke-width:25;stroke-linecap:butt;stroke-linejoin:round;stroke-miterlimit:4;stroke-dasharray:none;stroke-dashoffset:0;stroke-opacity:1"
       d="m 6.8405688,1044.7883 c -0.035852,-0.2918 -0.1987088,-1.4972 -0.3619043,-2.6789 -0.7134344,-5.1653 -0.8059429,-6.0567 -0.8075304,-7.7807 -0.00143,-1.5573 0.065874,-2.0331 0.4018267,-2.8401 0.538212,-1.2929 1.49666,-2.0274 3.3045193,-2.5327 0.5204435,-0.1456 0.5698607,-0.1493 1.8945369,-0.1446 0.856248,0 1.682656,0.039 2.230655,0.096 1.088859,0.1141 3.948731,0.4663 4.038388,0.4972 0.04706,0.017 0.01935,0.1232 -0.09401,0.3629 -0.377135,0.7975 -0.43167,1.8964 -0.134491,2.7102 0.626494,1.7154 2.366855,2.6697 4.073047,2.2333 0.504627,-0.1291 1.084062,-0.4241 1.428364,-0.7271 0.26671,-0.2348 0.672231,-0.7191 0.672231,-0.8027 0,-0.027 -0.106408,-0.05 -0.236461,-0.05 -0.217184,0 -0.265892,0.028 -0.597481,0.3506 -1.770142,1.7186 -4.652703,0.8017 -5.074447,-1.6141 -0.174297,-0.9983 0.188994,-2.0284 0.964795,-2.7354 0.5881,-0.5359 1.266944,-0.7619 2.168198,-0.722 0.490443,0.021 0.63147,0.051 0.989667,0.2028 l 0.417721,0.1774 0.507185,-0.1827 c 0.498104,-0.1794 0.522766,-0.1826 1.377682,-0.1793 1.001444,0 1.23441,0.065 1.894909,0.5005 0.639126,0.4209 1.009921,1.005 1.25748,1.9808 0.19562,0.7713 0.247987,1.409 0.248105,3.0218 1.63e-4,1.9931 -0.153097,7.681 -0.219564,8.1495 -0.06787,0.4784 -0.34687,1.0612 -0.661246,1.3815 -0.337548,0.3437 -0.685985,0.4881 -1.279168,0.5303 -0.597778,0.042 -1.066595,-0.078 -1.569213,-0.4047 -0.657344,-0.4266 -1.310212,-1.3151 -1.416027,-1.9272 -0.03071,-0.1777 -0.01415,-0.2233 0.135324,-0.3728 0.168214,-0.1682 0.176087,-0.1702 0.636242,-0.1512 0.580258,0.024 0.642887,0.082 0.689709,0.6405 0.03817,0.4554 0.137591,0.6454 0.440439,0.8423 0.484528,0.3151 1.180946,0.3885 1.492851,0.1575 0.499745,-0.3701 0.57402,-0.9283 0.416793,-3.132 -0.175553,-2.4605 -0.383644,-3.4487 -0.817651,-3.8827 -0.175077,-0.1751 -0.273562,-0.1623 -0.528449,0.068 -0.406993,0.3678 -0.605432,0.4216 -1.671738,0.4543 l -0.951206,0.029 -0.153814,1.2513 c -0.627393,5.1041 -0.955171,7.654 -0.988139,7.6871 -0.02117,0.022 -0.572119,0.047 -1.224335,0.057 l -1.18585,0.019 -0.03027,-1.7047 c -0.01665,-0.9376 -0.05753,-1.8393 -0.09085,-2.0039 -0.245536,-1.2128 -0.597484,-1.5517 -1.832642,-1.7645 -0.840755,-0.1448 -1.99914,-0.2099 -3.055885,-0.1717 -1.632357,0.06 -2.84247,0.2412 -3.382184,0.5092 -0.2550483,0.1265 -0.3211302,0.1926 -0.4475178,0.4477 -0.2966573,0.5986 -0.4773876,1.9999 -0.4773876,3.7011 0,0.8985 -0.00164,0.9112 -0.122414,0.9436 -0.067328,0.018 -0.5906846,0.033 -1.1630155,0.033 l -1.0406015,7e-4 -0.065186,-0.5304 z m 18.8762942,-13.3431 c 0.151839,-0.1519 0.137734,-0.3502 -0.03454,-0.4858 -0.07884,-0.062 -0.177888,-0.1126 -0.220097,-0.1126 -0.115253,0 -0.343831,0.2514 -0.343831,0.3782 0,0.153 0.189183,0.3289 0.353641,0.3289 0.07481,0 0.18498,-0.049 0.244828,-0.1087 z"
       id="path5154"
       inkscape:connector-curvature="0" />
    <path
       style="opacity:1;fill:#000000;fill-opacity:1;stroke:none;stroke-width:25;stroke-linecap:butt;stroke-linejoin:round;stroke-miterlimit:4;stroke-dasharray:none;stroke-dashoffset:0;stroke-opacity:1"
       d="m 4.1967387,1038.4388 c -0.1334893,-0.1335 -0.1335421,-0.134 -0.1326148,-1.2921 0.00109,-1.3582 0.084729,-3.4526 0.1657532,-4.1506 0.1219333,-1.0503 0.3906099,-1.5662 0.9340397,-1.7931 0.2666365,-0.1114 0.4919602,-0.1065 0.6408707,0.014 0.099044,0.08 0.1144014,0.1305 0.083214,0.2725 -0.0433,0.1971 -0.1648782,0.282 -0.4038988,0.282 -0.3325345,0 -0.5576075,0.5099 -0.6603757,1.4962 -0.031181,0.2992 -0.077919,1.5509 -0.103862,2.7815 -0.029474,1.3982 -0.069081,2.2785 -0.1055798,2.3467 -0.050044,0.094 -0.1716081,0.1763 -0.258778,0.1763 -0.013874,0 -0.08532,-0.061 -0.1587688,-0.1335 z"
       id="path5156"
       inkscape:connector-curvature="0" />
  </g>
</svg>
