<?xml version="1.0" encoding="utf-8"?>
<!-- Generator: Adobe Illustrator 16.0.3, SVG Export Plug-In . SVG Version: 6.00 Build 0)  -->
<!DOCTYPE svg PUBLIC "-//W3C//DTD SVG 1.1//EN" "http://www.w3.org/Graphics/SVG/1.1/DTD/svg11.dtd">
<svg version="1.1"
	 id="svg7122" xmlns:dc="http://purl.org/dc/elements/1.1/" xmlns:cc="http://creativecommons.org/ns#" xmlns:rdf="http://www.w3.org/1999/02/22-rdf-syntax-ns#" xmlns:svg="http://www.w3.org/2000/svg" xmlns:sodipodi="http://sodipodi.sourceforge.net/DTD/sodipodi-0.dtd" xmlns:inkscape="http://www.inkscape.org/namespaces/inkscape" inkscape:version="0.91 r13725" sodipodi:docname="buddhist.svg" inkscape:export-filename="C:\Users\Fabienne\Desktop\Symbole\svg_bunt\buddhist.png" inkscape:export-xdpi="90" inkscape:export-ydpi="90"
	 xmlns="http://www.w3.org/2000/svg" xmlns:xlink="http://www.w3.org/1999/xlink" x="0px" y="0px" width="32px" height="32px"
	 viewBox="0 0 32 32" enable-background="new 0 0 32 32" xml:space="preserve">
<sodipodi:namedview  units="px" pagecolor="#ffffff" bordercolor="#666666" borderopacity="1.0" inkscape:zoom="18.101934" inkscape:cx="-7.7305945" inkscape:cy="12.629709" id="namedview7126" showgrid="false" inkscape:pageopacity="0.0" inkscape:pageshadow="2" inkscape:current-layer="layer1" inkscape:window-maximized="1" inkscape:window-height="1003" inkscape:document-units="pt" inkscape:window-width="1920" inkscape:window-x="-9" inkscape:window-y="-9">
	</sodipodi:namedview>
<g id="layer1" transform="translate(0,-314.4)" inkscape:label="Layer 1" inkscape:groupmode="layer">
	
		<path id="path4153" inkscape:connector-curvature="0" inkscape:export-filename="C:\Users\Fabienne\Desktop\Symbole\png\buddhist.png" inkscape:export-xdpi="90" inkscape:export-ydpi="90" fill="none" d="
		M5.183,346.172c-2.588-0.338-4.654-2.443-4.951-5.053c-0.03-0.261-0.04-3.852-0.03-10.978l0.014-10.59l0.093-0.384
		c0.194-0.806,0.446-1.394,0.867-2.024c0.859-1.286,2.253-2.188,3.816-2.468c0.402-0.072,1.024-0.076,11.027-0.076
		c11.842,0,10.881-0.022,11.844,0.298c0.867,0.291,1.545,0.702,2.193,1.333c0.687,0.665,1.178,1.445,1.463,2.322
		c0.304,0.928,0.281,0.088,0.28,11.844c0,11.395,0.011,10.876-0.212,11.671c-0.23,0.834-0.773,1.763-1.4,2.399
		c-0.818,0.832-1.778,1.361-2.992,1.652c-0.303,0.07-0.901,0.074-11.027,0.084C10.278,346.205,5.335,346.193,5.183,346.172
		L5.183,346.172z M26.951,345.685c2.152-0.375,3.805-1.967,4.303-4.143l0.098-0.43l0.018-10.376
		c0.015-10.561,0.01-10.918-0.146-11.578c-0.229-1.001-0.768-1.931-1.529-2.652c-0.735-0.7-1.563-1.127-2.629-1.362
		c-0.346-0.076-0.793-0.079-11.043-0.079c-10.093,0-10.707,0.003-11.061,0.076c-1.915,0.39-3.437,1.729-4.038,3.546
		c-0.276,0.835-0.259,0.096-0.259,11.729c0,11.635-0.017,10.891,0.259,11.715c0.609,1.82,2.203,3.205,4.075,3.543
		C5.514,345.775,26.415,345.779,26.951,345.685L26.951,345.685z"/>
	
		<path id="path4745" inkscape:connector-curvature="0" inkscape:export-filename="C:\Users\Fabienne\Desktop\Symbole\png\buddhist.png" inkscape:export-xdpi="90" inkscape:export-ydpi="90" fill="none" d="
		M8.972,345.511c-3.917-0.027-3.982-0.029-4.314-0.123c-0.875-0.246-1.639-0.695-2.283-1.342c-0.636-0.642-0.992-1.217-1.279-2.074
		l-0.154-0.459l-0.041-1.539c-0.058-2.168-0.019-20.031,0.045-20.5c0.092-0.668,0.455-1.514,0.916-2.133
		c0.695-0.933,1.595-1.551,2.764-1.897l0.367-0.109l2.594-0.031c3.373-0.041,13.687-0.041,16.925,0l2.528,0.032l0.39,0.119
		c1.783,0.542,3.098,1.896,3.553,3.658c0.103,0.385,0.109,0.527,0.149,2.079c0.026,1.035,0.032,5.134,0.017,10.816l-0.026,9.152
		l-0.104,0.413c-0.465,1.867-1.811,3.279-3.608,3.787L27,345.476l-4.042,0.033C18.41,345.552,14.788,345.55,8.972,345.511
		L8.972,345.511L8.972,345.511z"/>
	<path id="path4140" inkscape:connector-curvature="0" fill="none" d="M3.223,314.4h25.554c1.725,0,3.224,1.424,3.224,3.223v25.555
		c0,1.727-1.499,3.225-3.224,3.225H3.223c-1.799,0-3.223-1.498-3.223-3.225v-25.555C0,315.824,1.424,314.4,3.223,314.4L3.223,314.4z
		"/>
	<path id="path4142" inkscape:connector-curvature="0" fill="none" d="M27.203,316.348H4.871c-1.574,0-2.848,1.274-2.848,2.848
		v22.333c0,1.574,1.274,2.771,2.848,2.771h22.332c1.574,0,2.848-1.197,2.848-2.771v-22.333
		C30.051,317.623,28.777,316.348,27.203,316.348L27.203,316.348z"/>
	<path id="path1972" fill="#0000FF" d="M25.824,319.521c1.531-1.166,3.295,1.141,1.721,2.343l-6.426,4.907l1.467,13.124
		l-2.373,1.813l-3.892-11.201l-4.803,3.668l-0.035,3.307l-1.877,1.439l-1.446-3.953l-3.432-2.436l1.877-1.436l3.186,0.814l4.8-3.667
		l-9.784-6.701l2.374-1.813l12.177,4.735L25.824,319.521z"/>
</g>
</svg>
