<?xml version="1.0" encoding="utf-8"?>
<!-- Generator: Adobe Illustrator 16.0.3, SVG Export Plug-In . SVG Version: 6.00 Build 0)  -->
<!DOCTYPE svg PUBLIC "-//W3C//DTD SVG 1.1//EN" "http://www.w3.org/Graphics/SVG/1.1/DTD/svg11.dtd">
<svg version="1.1"
	 id="svg4137" xmlns:dc="http://purl.org/dc/elements/1.1/" xmlns:cc="http://creativecommons.org/ns#" xmlns:rdf="http://www.w3.org/1999/02/22-rdf-syntax-ns#" xmlns:svg="http://www.w3.org/2000/svg" xmlns:sodipodi="http://sodipodi.sourceforge.net/DTD/sodipodi-0.dtd" xmlns:inkscape="http://www.inkscape.org/namespaces/inkscape" inkscape:version="0.91 r13725" sodipodi:docname="bus_stop_frame_color.svg"
	 xmlns="http://www.w3.org/2000/svg" xmlns:xlink="http://www.w3.org/1999/xlink" x="0px" y="0px" width="32px" height="32px"
	 viewBox="0 0 32 32" enable-background="new 0 0 32 32" xml:space="preserve">
<sodipodi:namedview  units="px" pagecolor="#ffffff" bordercolor="#666666" borderopacity="1.0" inkscape:zoom="22.627417" inkscape:cx="-1.185441" inkscape:cy="13.674881" id="base" showgrid="false" inkscape:pageopacity="0.0" inkscape:pageshadow="2" inkscape:current-layer="layer1" inkscape:window-maximized="1" inkscape:window-height="1138" inkscape:document-units="px" inkscape:window-width="1920" inkscape:window-x="-8" inkscape:window-y="-8">
	</sodipodi:namedview>
<g id="layer1" transform="translate(0,-1020.3622)" inkscape:label="Ebene 1" inkscape:groupmode="layer">
	<path id="path4140" inkscape:connector-curvature="0" fill="none" d="M3.223,1020.362h25.554c1.725,0,3.224,1.424,3.224,3.223
		v25.555c0,1.728-1.499,3.226-3.224,3.226H3.223c-1.799,0-3.223-1.498-3.223-3.226v-25.555
		C0,1021.786,1.424,1020.362,3.223,1020.362L3.223,1020.362z"/>
	<path id="path4142" inkscape:connector-curvature="0" fill="none" d="M27.203,1022.31H4.871c-1.574,0-2.848,1.274-2.848,2.848
		v22.333c0,1.574,1.274,2.771,2.848,2.771h22.332c1.574,0,2.848-1.197,2.848-2.771v-22.333
		C30.051,1023.585,28.777,1022.31,27.203,1022.31L27.203,1022.31z"/>
	<path id="path4747" inkscape:connector-curvature="0" fill="#0000FF" d="M21.195,1047.044c-0.189-0.055-0.504-0.287-0.668-0.494
		c-0.201-0.256-0.246-0.471-0.273-1.332l-0.025-0.777h-4.097h-4.096l-0.021,0.137c-0.011,0.07-0.028,0.436-0.037,0.798
		c-0.015,0.623-0.022,0.679-0.127,0.886c-0.234,0.457-0.634,0.723-1.132,0.748c-0.403,0.02-0.656-0.068-0.944-0.33
		c-0.382-0.352-0.415-0.457-0.431-1.414l-0.014-0.819H8.027H6.725v-4.985v-4.986l0.273-0.974c0.616-2.197,1.416-4.724,1.843-5.821
		c0.099-0.253,0.27-0.591,0.39-0.767c0.633-0.93,1.938-1.53,3.933-1.808c1.152-0.161,4.023-0.16,5.458,0
		c1.944,0.219,3.37,0.801,4.094,1.675c0.318,0.382,0.478,0.685,0.697,1.33c0.282,0.821,1.039,3.355,1.491,4.994l0.396,1.429v3.146
		c0,1.729-0.012,3.961-0.026,4.957l-0.025,1.81H24.1h-1.146l-0.024,0.834c-0.021,0.788-0.029,0.847-0.134,1.056
		c-0.146,0.299-0.502,0.619-0.774,0.701C21.775,1047.099,21.414,1047.106,21.195,1047.044L21.195,1047.044z M11.177,1041.259
		c0.208-0.104,0.492-0.396,0.592-0.613c0.263-0.562-0.003-1.271-0.582-1.551c-0.792-0.385-1.696,0.188-1.696,1.074
		c0,0.625,0.393,1.068,1.028,1.16C10.769,1041.366,11.016,1041.339,11.177,1041.259z M22.199,1041.233
		c0.863-0.506,0.801-1.744-0.11-2.146c-0.769-0.34-1.665,0.268-1.657,1.123c0.004,0.32,0.127,0.598,0.377,0.838
		c0.275,0.268,0.438,0.326,0.846,0.313C21.949,1041.349,22.041,1041.327,22.199,1041.233z M23.24,1034.2
		c0.082-0.091,0.16-0.208,0.174-0.261c0.034-0.137-1.045-4.411-1.25-4.951c-0.037-0.095-0.107-0.212-0.16-0.261l-0.094-0.088
		l-5.82,0.016c-3.201,0.01-5.873,0.031-5.937,0.049s-0.143,0.072-0.174,0.121c-0.124,0.189-1.304,4.539-1.334,4.921
		c-0.021,0.26-0.016,0.281,0.103,0.413c0.102,0.114,0.165,0.146,0.347,0.167c0.122,0.015,3.322,0.03,7.11,0.033l6.888,0.01
		l0.148-0.165L23.24,1034.2L23.24,1034.2z M20.331,1027.348c0.194-0.083,0.29-0.232,0.315-0.483
		c0.021-0.226-0.063-0.427-0.209-0.511c-0.074-0.042-0.98-0.055-4.33-0.065l-4.234-0.011l-0.127,0.145
		c-0.229,0.26-0.213,0.593,0.038,0.834c0.125,0.12,0.129,0.121,0.776,0.146c0.357,0.014,2.217,0.023,4.13,0.018
		C19.773,1027.411,20.197,1027.406,20.331,1027.348L20.331,1027.348z"/>
</g>
</svg>
