<?xml version="1.0" encoding="utf-8"?>
<!-- Generator: Adobe Illustrator 16.0.3, SVG Export Plug-In . SVG Version: 6.00 Build 0)  -->
<!DOCTYPE svg PUBLIC "-//W3C//DTD SVG 1.1//EN" "http://www.w3.org/Graphics/SVG/1.1/DTD/svg11.dtd">
<svg version="1.1" id="Ebene_1" xmlns="http://www.w3.org/2000/svg" xmlns:xlink="http://www.w3.org/1999/xlink" x="0px" y="0px"
	 width="595.28px" height="841.89px" viewBox="0 0 595.28 841.89" enable-background="new 0 0 595.28 841.89" xml:space="preserve">
<g>
	<path fill-rule="evenodd" clip-rule="evenodd" d="M296.986,411.697c0.176,0.102,0.348,0.211,0.389,0.432
		c0.064,0.346-0.187,0.65-0.546,0.654c-0.544,0.005-1.088,0.004-1.631-0.001c-0.116-0.001-0.18,0.028-0.236,0.137
		c-0.37,0.733-0.752,1.46-1.123,2.193c-0.031,0.061-0.035,0.172,0.001,0.223c1.337,1.903,2.682,3.802,4.027,5.699
		c0.011,0.018,0.032,0.029,0.071,0.061c0.487-1.711,0.972-3.407,1.468-5.148c-0.223,0.043-0.415,0.076-0.605,0.118
		c-0.361,0.081-0.699-0.109-0.799-0.452c-0.097-0.338,0.091-0.707,0.453-0.793c0.573-0.134,1.139-0.312,1.74-0.301
		c0.457,0.009,0.912-0.029,1.369-0.035c0.412-0.005,0.686,0.257,0.686,0.644c0.002,0.387-0.268,0.651-0.676,0.659
		c-0.266,0.004-0.535,0.018-0.803,0.009c-0.152-0.006-0.217,0.055-0.254,0.193c-0.421,1.495-0.846,2.989-1.271,4.482
		c-0.132,0.468-0.267,0.937-0.409,1.438c0.469,0,0.908,0.005,1.346-0.004c0.037-0.003,0.098-0.082,0.104-0.132
		c0.264-2.289,2.055-4.263,4.449-4.748c3.066-0.62,6.107,1.268,6.725,4.406c0.578,2.94-1.387,5.858-4.328,6.443
		c-2.154,0.429-4.008-0.163-5.502-1.778c-0.764-0.827-1.207-1.822-1.338-2.945c-0.016-0.139-0.077-0.161-0.196-0.161
		c-0.565,0.005-1.13-0.007-1.696,0.005c-0.334,0.009-0.566-0.111-0.762-0.393c-1.464-2.086-2.942-4.165-4.433-6.271
		c-0.256,0.495-0.503,0.971-0.73,1.412c0.398,0.367,0.805,0.693,1.157,1.071c0.776,0.839,1.222,1.841,1.357,2.98
		c0.172,1.459-0.176,2.784-1.058,3.954c-0.91,1.205-2.121,1.943-3.617,2.177c-1.985,0.309-3.69-0.265-5.087-1.699
		c-0.845-0.87-1.328-1.928-1.467-3.138c-0.007-0.057-0.027-0.111-0.041-0.166c0-0.306,0-0.609,0-0.915
		c0.014-0.055,0.034-0.108,0.04-0.163c0.2-1.641,0.983-2.94,2.322-3.89c1.291-0.916,2.736-1.22,4.293-0.95
		c0.373,0.064,0.736,0.174,1.118,0.266c0.017-0.032,0.041-0.076,0.063-0.12c0.85-1.643,1.703-3.285,2.546-4.931
		c0.116-0.227,0.265-0.407,0.492-0.52C295.391,411.697,296.188,411.697,296.986,411.697z M291.843,418.964
		c-0.494,0.956-0.981,1.896-1.461,2.839c-0.029,0.059-0.008,0.145-0.001,0.217c0.022,0.227,0.104,0.465,0.061,0.678
		c-0.103,0.525-0.593,0.904-1.214,0.834c-0.482-0.055-0.922-0.499-0.941-0.981c-0.025-0.609,0.33-1.071,0.904-1.155
		c0.148-0.021,0.223-0.091,0.288-0.217c0.435-0.853,0.878-1.704,1.316-2.554c0.025-0.05,0.043-0.102,0.066-0.154
		c-2.096-0.752-4.541,0.179-5.488,2.32c-0.897,2.028-0.025,4.402,1.993,5.434c2.077,1.063,4.645,0.317,5.808-1.686
		C294.273,422.642,293.695,420.187,291.843,418.964z M301.57,421.885c0.066,0.014,0.096,0.022,0.123,0.022
		c1.043,0.003,2.086,0.005,3.129-0.004c0.07,0,0.158-0.059,0.205-0.118c0.396-0.494,1.133-0.557,1.621-0.129
		c0.459,0.401,0.463,1.148,0.01,1.584c-0.453,0.437-1.199,0.4-1.598-0.089c-0.096-0.12-0.193-0.165-0.346-0.165
		c-0.963,0.007-1.928,0.004-2.893,0.004c-0.07,0-0.139,0.007-0.221,0.012c0,0.07-0.008,0.127,0.002,0.182
		c0.164,0.833,0.52,1.579,1.123,2.177c1.189,1.183,2.621,1.595,4.25,1.208c1.789-0.429,3.133-1.931,3.27-3.829
		c0.086-1.203-0.301-2.272-1.135-3.145c-1.045-1.092-2.34-1.551-3.834-1.329c-1.734,0.258-2.914,1.236-3.516,2.889
		C301.674,421.387,301.633,421.636,301.57,421.885z"/>
</g>
</svg>
