<?xml version="1.0" encoding="utf-8"?>
<!-- Generator: Adobe Illustrator 16.0.3, SVG Export Plug-In . SVG Version: 6.00 Build 0)  -->
<!DOCTYPE svg PUBLIC "-//W3C//DTD SVG 1.1//EN" "http://www.w3.org/Graphics/SVG/1.1/DTD/svg11.dtd">
<svg version="1.1"
	 id="svg4137" xmlns:dc="http://purl.org/dc/elements/1.1/" xmlns:cc="http://creativecommons.org/ns#" xmlns:rdf="http://www.w3.org/1999/02/22-rdf-syntax-ns#" xmlns:svg="http://www.w3.org/2000/svg" xmlns:sodipodi="http://sodipodi.sourceforge.net/DTD/sodipodi-0.dtd" xmlns:inkscape="http://www.inkscape.org/namespaces/inkscape" sodipodi:docname="bus_station_frame_color.svg" inkscape:version="0.91 r13725"
	 xmlns="http://www.w3.org/2000/svg" xmlns:xlink="http://www.w3.org/1999/xlink" x="0px" y="0px" width="32px" height="32px"
	 viewBox="0 0 32 32" enable-background="new 0 0 32 32" xml:space="preserve">
<sodipodi:namedview  units="px" inkscape:document-units="px" inkscape:pageshadow="2" inkscape:window-maximized="1" inkscape:window-height="1138" inkscape:current-layer="layer1" showgrid="false" inkscape:cy="13.763269" inkscape:cx="12.271685" inkscape:zoom="22.627417" borderopacity="1.0" bordercolor="#666666" pagecolor="#ffffff" id="base" inkscape:pageopacity="0.0" inkscape:window-y="-8" inkscape:window-x="-8" inkscape:window-width="1920">
	</sodipodi:namedview>
<g id="layer1" transform="translate(0,-1020.3622)" inkscape:label="Ebene 1" inkscape:groupmode="layer">
	<path id="path4140" inkscape:connector-curvature="0" fill="none" d="M3.223,1020.362h25.554c1.725,0,3.224,1.424,3.224,3.223
		v25.555c0,1.728-1.499,3.226-3.224,3.226H3.223c-1.799,0-3.223-1.498-3.223-3.226v-25.555
		C0,1021.786,1.424,1020.362,3.223,1020.362L3.223,1020.362z"/>
</g>
<g>
	<g>
		<path fill="none" stroke="#0000FF" stroke-width="2" stroke-linecap="round" stroke-miterlimit="10" d="M5.498,28.22
			c0,0,0.383-0.429,0.852-0.952c0.468-0.522,1.459-0.951,2.203-0.951c0.744,0,1.668,0.429,2.054,0.951
			c0.386,0.523,1.242,0.952,1.903,0.952c0.661,0,1.495-0.429,1.853-0.952c0.358-0.522,1.237-0.951,1.953-0.951
			s1.55,0.429,1.853,0.951c0.303,0.523,1.228,0.952,2.054,0.952s1.863-0.429,2.305-0.952c0.441-0.522,1.32-0.951,1.953-0.951
			s1.444,0.429,1.803,0.951c0.358,0.523,0.651,0.952,0.651,0.952"/>
	</g>
	<path fill="#0000FF" d="M24.529,13.796V6.484l-0.803-1.352h-2.504L20.021,3.78H13.11l-0.801,1.402H9.505L8.103,6.484l-0.201,7.613
		l-2.404,1.302l2.604,7.311h16.526l2.305-7.311L24.529,13.796z M22.023,12.594l-4.906-2.504h-1.343l-5.168,3.155v-5.66h11.417
		V12.594z"/>
</g>
</svg>
