<?xml version="1.0" encoding="utf-8"?>
<!-- Generator: Adobe Illustrator 16.0.3, SVG Export Plug-In . SVG Version: 6.00 Build 0)  -->
<!DOCTYPE svg PUBLIC "-//W3C//DTD SVG 1.1//EN" "http://www.w3.org/Graphics/SVG/1.1/DTD/svg11.dtd">
<svg version="1.1"
	 id="svg4137" xmlns:dc="http://purl.org/dc/elements/1.1/" xmlns:cc="http://creativecommons.org/ns#" xmlns:rdf="http://www.w3.org/1999/02/22-rdf-syntax-ns#" xmlns:svg="http://www.w3.org/2000/svg" xmlns:sodipodi="http://sodipodi.sourceforge.net/DTD/sodipodi-0.dtd" xmlns:inkscape="http://www.inkscape.org/namespaces/inkscape" sodipodi:docname="helipad_frame_color.svg" inkscape:version="0.91 r13725"
	 xmlns="http://www.w3.org/2000/svg" xmlns:xlink="http://www.w3.org/1999/xlink" x="0px" y="0px" width="32px" height="32px"
	 viewBox="0 0 32 32" enable-background="new 0 0 32 32" xml:space="preserve">
<sodipodi:namedview  units="px" showgrid="false" id="base" inkscape:cy="17.476678" inkscape:cx="8.0511413" inkscape:zoom="22.627417" borderopacity="1.0" bordercolor="#666666" pagecolor="#ffffff" inkscape:window-y="-8" inkscape:window-maximized="1" inkscape:current-layer="layer1" inkscape:window-x="-8" inkscape:pageshadow="2" inkscape:document-units="px" inkscape:window-width="1920" inkscape:window-height="1138" inkscape:pageopacity="0.0">
	</sodipodi:namedview>
<path id="path4154" inkscape:connector-curvature="0" fill="#3C3C3C" d="M10.447,7.174v17.211h1.837V16.29h7.416v8.116h1.854V7.161
	h-1.937v7.146h-7.262V7.161L10.447,7.174z"/>
<g>
	<path fill="#3C3C3B" d="M16,1.667C8.085,1.667,1.668,8.084,1.668,16c0,7.916,6.417,14.333,14.332,14.333
		c7.916,0,14.332-6.417,14.332-14.333C30.332,8.084,23.916,1.667,16,1.667z M15.999,28.606C9.037,28.606,3.393,22.962,3.393,16
		c0-6.962,5.645-12.606,12.606-12.606c6.963,0,12.607,5.645,12.607,12.606C28.606,22.962,22.962,28.606,15.999,28.606z"/>
</g>
</svg>
