<?xml version="1.0" encoding="utf-8"?>
<!-- Generator: Adobe Illustrator 16.0.3, SVG Export Plug-In . SVG Version: 6.00 Build 0)  -->
<!DOCTYPE svg PUBLIC "-//W3C//DTD SVG 1.1//EN" "http://www.w3.org/Graphics/SVG/1.1/DTD/svg11.dtd">
<svg version="1.1"
	 id="svg4137" xmlns:dc="http://purl.org/dc/elements/1.1/" xmlns:cc="http://creativecommons.org/ns#" xmlns:rdf="http://www.w3.org/1999/02/22-rdf-syntax-ns#" xmlns:svg="http://www.w3.org/2000/svg" xmlns:sodipodi="http://sodipodi.sourceforge.net/DTD/sodipodi-0.dtd" xmlns:inkscape="http://www.inkscape.org/namespaces/inkscape" inkscape:version="0.91 r13725" sodipodi:docname="railway_halt_frame_color.svg"
	 xmlns="http://www.w3.org/2000/svg" xmlns:xlink="http://www.w3.org/1999/xlink" x="0px" y="0px" width="32px" height="32px"
	 viewBox="0 0 32 32" enable-background="new 0 0 32 32" xml:space="preserve">
<sodipodi:namedview  units="px" pagecolor="#ffffff" bordercolor="#666666" borderopacity="1.0" inkscape:zoom="22.627417" inkscape:cx="-1.185441" inkscape:cy="13.674881" id="base" showgrid="false" inkscape:pageopacity="0.0" inkscape:pageshadow="2" inkscape:current-layer="layer1" inkscape:window-maximized="1" inkscape:window-height="1138" inkscape:document-units="px" inkscape:window-width="1920" inkscape:window-x="-8" inkscape:window-y="-8">
	</sodipodi:namedview>
<g id="layer1" transform="translate(0,-1020.3622)" inkscape:label="Ebene 1" inkscape:groupmode="layer">
	<path id="path4140" inkscape:connector-curvature="0" fill="none" d="M3.223,1020.362h25.554c1.725,0,3.224,1.424,3.224,3.223
		v25.555c0,1.727-1.499,3.225-3.224,3.225H3.223c-1.799,0-3.223-1.498-3.223-3.225v-25.555
		C0,1021.786,1.424,1020.362,3.223,1020.362L3.223,1020.362z"/>
	<path id="path4142" inkscape:connector-curvature="0" fill="none" d="M27.203,1022.31H4.871c-1.574,0-2.848,1.274-2.848,2.848
		v22.333c0,1.574,1.274,2.771,2.848,2.771h22.332c1.574,0,2.848-1.197,2.848-2.771v-22.333
		C30.051,1023.585,28.777,1022.31,27.203,1022.31L27.203,1022.31z"/>
	<path id="path7172" inkscape:connector-curvature="0" fill="#B40000" d="M9.015,1048.141c0.08-0.15,0.703-1.235,1.385-2.41
		c0.682-1.174,1.238-2.172,1.236-2.217c-0.002-0.043-0.284-0.242-0.625-0.439c-0.422-0.244-0.738-0.549-0.984-0.949l-0.363-0.589
		l-0.035-6.538c-0.025-4.735,0.004-6.679,0.106-7.049c0.194-0.704,0.939-1.517,1.638-1.787c0.508-0.196,0.979-0.219,4.52-0.219
		c3.815,0,3.97,0.01,4.435,0.258c0.609,0.327,1.09,0.807,1.418,1.418c0.254,0.475,0.257,0.558,0.257,7.009
		c0,6.012-0.017,6.573-0.216,7.09c-0.217,0.561-0.917,1.309-1.455,1.555c-0.277,0.127-0.271,0.143,0.979,2.301
		c0.69,1.193,1.334,2.32,1.428,2.502l0.172,0.328h-0.893h-0.891l-0.881-1.527l-0.881-1.525h-3.466H12.43l-0.859,1.498l-0.859,1.498
		l-0.92,0.033l-0.921,0.035L9.015,1048.141L9.015,1048.141z M13.183,1040.911c1.084-0.912,0.146-2.621-1.214-2.213
		c-0.543,0.162-0.928,0.703-0.928,1.305c0,0.297,0.105,0.508,0.407,0.809C11.974,1041.339,12.632,1041.376,13.183,1040.911z
		 M20.215,1040.85c0.594-0.562,0.471-1.607-0.24-2.041c-0.447-0.273-0.806-0.285-1.271-0.045c-0.388,0.201-0.716,0.73-0.716,1.16
		c0.002,0.377,0.423,1.035,0.75,1.176C19.15,1041.276,19.895,1041.149,20.215,1040.85L20.215,1040.85z M19.107,1032.601
		c0.162-0.062,0.408-0.234,0.547-0.382c0.224-0.241,0.25-0.414,0.25-1.634c0-1.348-0.004-1.368-0.35-1.714l-0.352-0.35h-3.13
		c-3.398,0-3.654,0.043-3.933,0.656c-0.172,0.377-0.19,2.318-0.026,2.751c0.064,0.168,0.293,0.415,0.509,0.546
		c0.363,0.222,0.605,0.239,3.29,0.24C17.508,1032.713,18.943,1032.664,19.107,1032.601L19.107,1032.601z M17.27,1027.921
		c0.266-0.263,0.322-0.939,0.115-1.325c-0.111-0.209-0.262-0.232-1.533-0.232c-0.937,0-1.458,0.048-1.553,0.144
		c-0.233,0.233-0.184,1.378,0.066,1.523c0.115,0.067,0.762,0.124,1.438,0.126C16.873,1028.158,17.061,1028.13,17.27,1027.921
		L17.27,1027.921z"/>
	<path id="path7174" inkscape:connector-curvature="0" fill="#B40000" d="M16.425,1025.292c-0.157-0.068-0.391-0.328-0.427-0.474
		c-0.015-0.059-0.018-0.201-0.007-0.313c0.057-0.594,0.758-0.868,1.223-0.479c0.168,0.141,0.25,0.333,0.25,0.583
		C17.463,1025.137,16.907,1025.502,16.425,1025.292z"/>
	<path id="path7176" inkscape:connector-curvature="0" fill="#B40000" d="M14.541,1025.261c-0.136-0.054-0.33-0.237-0.406-0.385
		c-0.033-0.063-0.06-0.202-0.06-0.309c0-0.496,0.464-0.868,0.926-0.743c0.343,0.092,0.56,0.37,0.563,0.718
		C15.568,1025.08,15.032,1025.456,14.541,1025.261L14.541,1025.261z"/>
</g>
</svg>
