<?xml version="1.0" encoding="utf-8"?>
<!-- Generator: Adobe Illustrator 16.0.3, SVG Export Plug-In . SVG Version: 6.00 Build 0)  -->
<!DOCTYPE svg PUBLIC "-//W3C//DTD SVG 1.1//EN" "http://www.w3.org/Graphics/SVG/1.1/DTD/svg11.dtd">
<svg version="1.1"
	 id="svg4137" xmlns:dc="http://purl.org/dc/elements/1.1/" xmlns:cc="http://creativecommons.org/ns#" xmlns:rdf="http://www.w3.org/1999/02/22-rdf-syntax-ns#" xmlns:svg="http://www.w3.org/2000/svg" xmlns:sodipodi="http://sodipodi.sourceforge.net/DTD/sodipodi-0.dtd" xmlns:inkscape="http://www.inkscape.org/namespaces/inkscape" inkscape:version="0.91 r13725" sodipodi:docname="railway_station_frame_color.svg"
	 xmlns="http://www.w3.org/2000/svg" xmlns:xlink="http://www.w3.org/1999/xlink" x="0px" y="0px" width="32px" height="32px"
	 viewBox="0 0 32 32" enable-background="new 0 0 32 32" xml:space="preserve">
<sodipodi:namedview  units="px" id="base" pagecolor="#ffffff" bordercolor="#666666" borderopacity="1.0" inkscape:zoom="22.627417" inkscape:cx="-10.841868" inkscape:cy="13.674881" showgrid="false" inkscape:window-height="1138" inkscape:current-layer="layer1" inkscape:window-width="1920" inkscape:window-x="-8" inkscape:window-y="-8" inkscape:document-units="px" inkscape:window-maximized="1" inkscape:pageshadow="2" inkscape:pageopacity="0.0">
	</sodipodi:namedview>
<g id="layer1" transform="translate(0,-1020.3622)" inkscape:label="Ebene 1" inkscape:groupmode="layer">
	<path id="path4140" inkscape:connector-curvature="0" fill="none" d="M3.223,1020.362h25.554c1.725,0,3.224,1.424,3.224,3.223
		v25.555c0,1.726-1.499,3.224-3.224,3.224H3.223c-1.799,0-3.223-1.498-3.223-3.224v-25.555
		C0,1021.786,1.424,1020.362,3.223,1020.362L3.223,1020.362z"/>
	<path id="path4142" inkscape:connector-curvature="0" fill="#B40000" d="M27.203,1022.31H4.871c-1.574,0-2.848,1.274-2.848,2.848
		v22.333c0,1.574,1.274,2.771,2.848,2.771h22.332c1.574,0,2.848-1.197,2.848-2.771v-22.333
		C30.051,1023.585,28.777,1022.31,27.203,1022.31L27.203,1022.31z"/>
	<path id="path7172" inkscape:connector-curvature="0" fill="#FFFFFF" d="M9.128,1048.214c0.08-0.15,0.702-1.232,1.382-2.406
		c0.681-1.172,1.236-2.168,1.233-2.211c-0.002-0.045-0.283-0.242-0.624-0.439c-0.421-0.243-0.737-0.549-0.983-0.947l-0.362-0.589
		l-0.035-6.526c-0.025-4.726,0.004-6.667,0.105-7.036c0.194-0.703,0.938-1.515,1.636-1.784c0.507-0.196,0.978-0.218,4.512-0.218
		c3.809,0,3.962,0.01,4.426,0.257c0.609,0.327,1.089,0.806,1.415,1.416c0.254,0.474,0.258,0.557,0.258,6.997
		c0,6-0.018,6.563-0.217,7.079c-0.216,0.559-0.914,1.307-1.451,1.551c-0.276,0.127-0.271,0.143,0.976,2.297
		c0.69,1.191,1.332,2.316,1.426,2.498l0.17,0.328h-0.889h-0.89l-0.879-1.524l-0.879-1.524h-3.461h-3.461l-0.858,1.494l-0.858,1.495
		l-0.919,0.034l-0.919,0.033L9.128,1048.214L9.128,1048.214L9.128,1048.214z M13.289,1040.997c1.082-0.91,0.146-2.617-1.212-2.211
		c-0.542,0.162-0.926,0.701-0.926,1.303c0,0.297,0.105,0.506,0.406,0.807C12.082,1041.423,12.739,1041.46,13.289,1040.997z
		 M20.309,1040.934c0.594-0.56,0.471-1.604-0.24-2.037c-0.446-0.272-0.805-0.285-1.27-0.045c-0.387,0.201-0.713,0.731-0.713,1.158
		c0,0.375,0.421,1.035,0.748,1.176C19.246,1041.36,19.988,1041.233,20.309,1040.934z M19.202,1032.7
		c0.163-0.062,0.407-0.233,0.546-0.381c0.225-0.24,0.251-0.414,0.251-1.631c0-1.346-0.005-1.366-0.351-1.711l-0.35-0.35h-3.124
		c-3.393,0-3.647,0.042-3.926,0.654c-0.172,0.377-0.19,2.314-0.026,2.746c0.064,0.169,0.293,0.415,0.508,0.546
		c0.363,0.221,0.604,0.239,3.284,0.239C17.605,1032.812,19.04,1032.763,19.202,1032.7z M17.368,1028.029
		c0.263-0.263,0.321-0.938,0.114-1.324c-0.11-0.208-0.262-0.231-1.53-0.231c-0.935,0-1.455,0.047-1.55,0.144
		c-0.233,0.233-0.184,1.375,0.066,1.521c0.115,0.067,0.761,0.124,1.435,0.125C16.973,1028.265,17.16,1028.237,17.368,1028.029
		L17.368,1028.029z"/>
	<path id="path7174" inkscape:connector-curvature="0" fill="#FFFFFF" d="M16.525,1025.404c-0.157-0.068-0.392-0.327-0.427-0.473
		c-0.015-0.059-0.018-0.201-0.007-0.314c0.057-0.593,0.757-0.866,1.22-0.476c0.168,0.142,0.25,0.333,0.25,0.583
		C17.563,1025.25,17.006,1025.614,16.525,1025.404L16.525,1025.404z"/>
	<path id="path7176" inkscape:connector-curvature="0" fill="#FFFFFF" d="M14.645,1025.373c-0.135-0.053-0.329-0.237-0.406-0.384
		c-0.033-0.062-0.06-0.202-0.06-0.309c0-0.494,0.463-0.866,0.925-0.741c0.342,0.093,0.559,0.369,0.562,0.716
		C15.669,1025.193,15.135,1025.569,14.645,1025.373L14.645,1025.373z"/>
</g>
</svg>
