<?xml version="1.0" encoding="utf-8"?>
<!-- Generator: Adobe Illustrator 16.0.3, SVG Export Plug-In . SVG Version: 6.00 Build 0)  -->
<!DOCTYPE svg PUBLIC "-//W3C//DTD SVG 1.1//EN" "http://www.w3.org/Graphics/SVG/1.1/DTD/svg11.dtd">
<svg version="1.1" id="Ebene_1" xmlns="http://www.w3.org/2000/svg" xmlns:xlink="http://www.w3.org/1999/xlink" x="0px" y="0px"
	 width="595.28px" height="841.89px" viewBox="0 0 595.28 841.89" enable-background="new 0 0 595.28 841.89" xml:space="preserve">
<g>
	<path fill-rule="evenodd" clip-rule="evenodd" fill="#6A2E00" d="M291.026,423.665c-0.566,0.8-1.129,1.525-1.048,2.65
		c0.1,1.389,0.027,2.794,0.021,4.192c-0.002,0.721-0.279,1.196-0.751,1.33c-0.676,0.194-1.303-0.289-1.313-1.096
		c-0.025-2.047-0.035-4.096,0.013-6.143c0.009-0.366,0.294-0.745,0.505-1.08c0.245-0.388,0.341-0.785,0.333-1.256
		c-0.023-1.215-0.007-2.431-0.009-3.646c0-0.157-0.015-0.314-0.029-0.609c-0.45,0.753-0.911,1.304-0.847,2.188
		c0.076,1.075,0.018,2.161,0.018,3.287c-0.541,0-1.059,0-1.634,0c0-0.429,0-0.856,0-1.283c0-0.882-0.003-1.765,0-2.646
		c0.006-1.694,0.947-2.745,2.493-2.759c1.382-0.013,2.764-0.003,4.146-0.003c0.163,0,0.327,0,0.545,0c0-0.713-0.001-1.374,0-2.035
		c0.001-0.649-0.017-1.299,0.015-1.947c0.045-0.895,0.723-1.551,1.553-1.547c0.828,0.004,1.487,0.671,1.539,1.566
		c0.014,0.229,0.002,0.461,0.002,0.719c0.751,0.214,1.468,0.415,2.183,0.624c0.546,0.16,0.816,0.551,0.718,1.02
		c-0.102,0.482-0.486,0.708-1.044,0.582c-0.59-0.134-1.176-0.292-1.811-0.45c0,0.504,0,0.955,0,1.462
		c0.75,0,1.489,0.016,2.227-0.014c0.133-0.006,0.272-0.189,0.385-0.316c1.912-2.164,3.821-4.332,5.731-6.498
		c0.091-0.102,0.19-0.195,0.331-0.337c-0.034,0.405-0.022,0.747-0.101,1.062c-0.135,0.549,0.007,0.872,0.466,1.167
		c0.847,0.548,1.666,1.158,2.461,1.795c0.273,0.219,0.554,0.563,0.637,0.907c0.189,0.782-0.393,1.442-1.137,1.394
		c-0.102-0.006-0.205-0.021-0.326-0.033c-0.343,1.13-0.988,1.921-2.056,2.191c-0.361,0.091-0.753,0.077-1.127,0.053
		c-0.236-0.015-0.349,0.052-0.451,0.284c-0.703,1.602-1.426,3.193-2.128,4.797c-0.086,0.199-0.104,0.448-0.105,0.675
		c-0.007,2.214,0,4.428-0.007,6.642c-0.002,0.847-0.402,1.335-1.053,1.319c-0.501-0.011-0.896-0.383-0.968-0.933
		c-0.027-0.214-0.03-0.432-0.03-0.646c-0.003-2.131-0.002-4.262-0.002-6.393c0-0.195,0-0.39,0-0.608
		c-0.193-0.011-0.328-0.023-0.461-0.024c-1.473-0.001-2.945,0.007-4.418-0.006c-0.273-0.003-0.413,0.106-0.584,0.344
		c-0.682,0.944-0.749,1.839-0.204,2.938c0.589,1.191,0.999,2.491,1.449,3.761c0.303,0.853-0.248,1.636-1.048,1.547
		c-0.398-0.044-0.676-0.291-0.83-0.684c-0.732-1.879-1.459-3.76-2.178-5.646c-0.062-0.16-0.065-0.354-0.069-0.533
		C291.02,424.547,291.026,424.105,291.026,423.665z M306.703,415.762c-0.508-0.105-0.98-0.211-1.456-0.294
		c-0.082-0.015-0.227,0.043-0.262,0.115c-0.303,0.625-0.587,1.259-0.883,1.905C305.287,417.783,306.334,417.088,306.703,415.762z"/>
	<path fill-rule="evenodd" clip-rule="evenodd" fill="#6A2E00" d="M297.149,408.652l-1.006-0.786l0,0
		c-0.274-0.295-0.647-0.479-1.068-0.483c-0.854-0.009-1.568,0.752-1.583,1.688c-0.015,0.932,0.686,1.71,1.545,1.718
		c0.882,0.006,1.563-0.722,1.57-1.678c0.001-0.16-0.023-0.312-0.058-0.458H297.149z"/>
</g>
</svg>
