<?xml version="1.0" encoding="utf-8"?>
<!-- Generator: Adobe Illustrator 16.0.3, SVG Export Plug-In . SVG Version: 6.00 Build 0)  -->
<!DOCTYPE svg PUBLIC "-//W3C//DTD SVG 1.1//EN" "http://www.w3.org/Graphics/SVG/1.1/DTD/svg11.dtd">
<svg version="1.1"
	 id="svg7122" xmlns:dc="http://purl.org/dc/elements/1.1/" xmlns:cc="http://creativecommons.org/ns#" xmlns:rdf="http://www.w3.org/1999/02/22-rdf-syntax-ns#" xmlns:svg="http://www.w3.org/2000/svg" xmlns:sodipodi="http://sodipodi.sourceforge.net/DTD/sodipodi-0.dtd" xmlns:inkscape="http://www.inkscape.org/namespaces/inkscape" inkscape:export-ydpi="90" inkscape:export-xdpi="90" inkscape:export-filename="C:\Users\Fabienne\Desktop\Symbole\svg_bunt\buddhist.png" sodipodi:docname="buddhist.svg" inkscape:version="0.91 r13725"
	 xmlns="http://www.w3.org/2000/svg" xmlns:xlink="http://www.w3.org/1999/xlink" x="0px" y="0px" width="32px" height="32px"
	 viewBox="0 0 32 32" enable-background="new 0 0 32 32" xml:space="preserve">
<sodipodi:namedview  units="px" showgrid="false" id="namedview7126" inkscape:cy="12.629709" inkscape:cx="-7.7305945" inkscape:zoom="18.101934" borderopacity="1.0" bordercolor="#666666" pagecolor="#ffffff" inkscape:window-y="-9" inkscape:window-x="-9" inkscape:window-width="1920" inkscape:document-units="pt" inkscape:pageopacity="0.0" inkscape:window-height="1003" inkscape:current-layer="layer1" inkscape:window-maximized="1" inkscape:pageshadow="2">
	</sodipodi:namedview>
<g id="layer1" transform="translate(0,-314.4)" inkscape:label="Layer 1" inkscape:groupmode="layer">
	
		<path id="path4153" inkscape:connector-curvature="0" inkscape:export-ydpi="90" inkscape:export-xdpi="90" inkscape:export-filename="C:\Users\Fabienne\Desktop\Symbole\png\buddhist.png" fill="none" d="
		M5.183,346.172c-2.588-0.338-4.654-2.441-4.951-5.053c-0.03-0.261-0.04-3.852-0.03-10.978l0.014-10.59l0.093-0.384
		c0.194-0.806,0.446-1.394,0.867-2.024c0.859-1.286,2.253-2.188,3.816-2.468c0.402-0.072,1.024-0.076,11.027-0.076
		c11.842,0,10.881-0.021,11.844,0.298c0.867,0.291,1.545,0.702,2.193,1.333c0.687,0.665,1.178,1.445,1.463,2.322
		c0.304,0.928,0.279,0.088,0.278,11.844c0,11.395,0.013,10.876-0.212,11.671c-0.229,0.834-0.771,1.763-1.398,2.399
		c-0.818,0.832-1.778,1.361-2.992,1.652c-0.303,0.068-0.901,0.072-11.027,0.084C10.278,346.205,5.335,346.193,5.183,346.172
		L5.183,346.172z M26.951,345.685c2.152-0.375,3.805-1.967,4.303-4.143l0.098-0.432l0.02-10.376
		c0.016-10.561,0.01-10.918-0.146-11.578c-0.229-1.001-0.769-1.931-1.529-2.652c-0.734-0.7-1.563-1.127-2.629-1.362
		c-0.346-0.076-0.793-0.079-11.042-0.079c-10.093,0-10.707,0.003-11.061,0.076c-1.915,0.39-3.437,1.729-4.038,3.546
		c-0.276,0.835-0.259,0.096-0.259,11.729s-0.017,10.889,0.259,11.713c0.609,1.82,2.203,3.205,4.075,3.543
		C5.514,345.775,26.415,345.779,26.951,345.685L26.951,345.685z"/>
	<path id="path4140" inkscape:connector-curvature="0" fill="none" d="M3.223,314.4h25.554c1.725,0,3.224,1.424,3.224,3.223v25.554
		c0,1.728-1.499,3.226-3.224,3.226H3.223c-1.799,0-3.223-1.498-3.223-3.226v-25.554C0,315.824,1.424,314.4,3.223,314.4L3.223,314.4z
		"/>
	<path id="path4142" inkscape:connector-curvature="0" fill="none" d="M27.203,316.348H4.871c-1.574,0-2.848,1.274-2.848,2.848
		v22.333c0,1.574,1.274,2.771,2.848,2.771h22.332c1.574,0,2.848-1.197,2.848-2.771v-22.333
		C30.051,317.623,28.777,316.348,27.203,316.348L27.203,316.348z"/>
</g>
<g>
	<path fill-rule="evenodd" clip-rule="evenodd" fill="#0000FF" d="M21.655,24.689c-3.771,0-7.464,0-11.233,0
		c0,0.257,0.006,0.466-0.002,0.674c-0.021,0.548,0.009,1.105-0.085,1.642c-0.159,0.921-0.829,1.427-1.77,1.435
		c-0.973,0.007-1.641-0.492-1.827-1.431c-0.08-0.403-0.066-0.826-0.081-1.241c-0.012-0.33-0.002-0.661-0.002-1.046
		c-1.244,0-2.451,0-3.701,0c-0.013-0.211-0.032-0.37-0.032-0.529c-0.002-2.316-0.001-4.633-0.001-6.948
		c0-0.99,0.176-1.921,0.853-2.699c0.515-0.593,1.158-0.963,1.931-1.035c0.411-0.039,0.55-0.224,0.66-0.585
		c0.666-2.183,1.363-4.355,2.028-6.539C8.5,6.037,8.654,5.923,9.016,5.932c1.049,0.025,2.098,0.009,3.253,0.009
		c0-0.499-0.02-0.977,0.007-1.452c0.021-0.362,0.039-0.745,0.166-1.077c0.295-0.769,0.879-1.196,1.724-1.201
		c1.232-0.007,2.466-0.015,3.699,0.001c1.15,0.015,1.857,0.705,1.914,1.866c0.029,0.596,0.005,1.195,0.005,1.846
		c1.271,0,2.495,0,3.745,0c0.376,1.497,0.74,2.949,1.104,4.401c0.219,0.873,0.461,1.74,0.642,2.621
		c0.085,0.409,0.277,0.525,0.667,0.55c0.852,0.055,1.621,0.334,2.244,0.955c0.627,0.624,0.933,1.4,0.943,2.25
		c0.035,2.599,0.019,5.198,0.021,7.798c0,0.048-0.021,0.095-0.045,0.194c-1.199,0-2.407,0-3.684,0c0,0.628,0.014,1.205-0.003,1.781
		c-0.036,1.24-0.76,1.975-1.914,1.965c-1.091-0.011-1.805-0.748-1.845-1.934C21.64,25.909,21.655,25.311,21.655,24.689z
		 M9.137,13.413c4.575,0,9.08,0,13.634,0c-0.354-1.491-0.693-2.948-1.061-4.397c-0.028-0.113-0.256-0.25-0.391-0.25
		c-3.529-0.014-7.059-0.014-10.588,0.001c-0.131,0-0.345,0.149-0.38,0.269C9.937,10.473,9.548,11.917,9.137,13.413z M8.5,20.936
		c1.042,0.016,1.895-0.802,1.915-1.835c0.021-1.019-0.832-1.882-1.862-1.888c-1.035-0.006-1.892,0.836-1.894,1.86
		C6.657,20.076,7.491,20.92,8.5,20.936z M23.501,20.936c1.042,0.015,1.896-0.804,1.914-1.836c0.02-1.02-0.833-1.882-1.864-1.887
		c-1.034-0.006-1.891,0.838-1.892,1.862C21.659,20.078,22.493,20.921,23.501,20.936z M14.19,4.109c0,0.619,0,1.206,0,1.793
		c1.254,0,2.473,0,3.703,0c0-0.612,0-1.186,0-1.793C16.647,4.109,15.431,4.109,14.19,4.109z"/>
</g>
</svg>
