<?xml version="1.0" encoding="utf-8"?>
<!-- Generator: Adobe Illustrator 16.0.3, SVG Export Plug-In . SVG Version: 6.00 Build 0)  -->
<!DOCTYPE svg PUBLIC "-//W3C//DTD SVG 1.1//EN" "http://www.w3.org/Graphics/SVG/1.1/DTD/svg11.dtd">
<svg version="1.1"
	 id="svg4137" xmlns:dc="http://purl.org/dc/elements/1.1/" xmlns:cc="http://creativecommons.org/ns#" xmlns:rdf="http://www.w3.org/1999/02/22-rdf-syntax-ns#" xmlns:svg="http://www.w3.org/2000/svg" xmlns:sodipodi="http://sodipodi.sourceforge.net/DTD/sodipodi-0.dtd" xmlns:inkscape="http://www.inkscape.org/namespaces/inkscape" sodipodi:docname="tram_stop_frame_color.svg" inkscape:version="0.91 r13725"
	 xmlns="http://www.w3.org/2000/svg" xmlns:xlink="http://www.w3.org/1999/xlink" x="0px" y="0px" width="32px" height="32px"
	 viewBox="0 0 32 32" enable-background="new 0 0 32 32" xml:space="preserve">
<sodipodi:namedview  units="px" showgrid="false" inkscape:cy="17.620771" inkscape:cx="17.290349" inkscape:zoom="15.839192" borderopacity="1.0" bordercolor="#666666" pagecolor="#ffffff" id="base" inkscape:window-maximized="1" inkscape:window-y="-8" inkscape:window-x="-8" inkscape:current-layer="layer1" inkscape:pageshadow="2" inkscape:document-units="px" inkscape:pageopacity="0.0" inkscape:window-width="1920" inkscape:window-height="1138">
	</sodipodi:namedview>
<g id="layer1" transform="translate(0,-1020.3622)" inkscape:label="Ebene 1" inkscape:groupmode="layer">
	<path id="path4786" inkscape:connector-curvature="0" fill="none" d="M3.223,1020.362h25.555c1.724,0,3.223,1.424,3.223,3.223
		v25.555c0,1.725-1.499,3.223-3.223,3.223H3.223c-1.799,0-3.223-1.498-3.223-3.223v-25.555
		C0,1021.786,1.424,1020.362,3.223,1020.362L3.223,1020.362z"/>
	<path id="path4788" inkscape:connector-curvature="0" fill="none" d="M27.203,1022.31H4.871c-1.574,0-2.848,1.274-2.848,2.848
		v22.333c0,1.574,1.274,2.772,2.848,2.772h22.332c1.574,0,2.848-1.198,2.848-2.772v-22.333
		C30.051,1023.585,28.777,1022.31,27.203,1022.31L27.203,1022.31z"/>
	<path id="path7850" inkscape:connector-curvature="0" fill="#B40000" d="M4.958,1040.03v-3.225l2.285-0.016l2.285-0.015
		l0.016-2.912l0.015-2.912h-2.3h-2.3v-0.516v-0.516l6.57,0.028c3.613,0.015,6.57,0.019,6.57,0.01c0-0.011-0.813-0.825-1.807-1.811
		l-1.807-1.792H9.573H4.66v-0.418v-0.418h11.527h11.527v0.418v0.418h-5.809h-5.808l1.806,1.806l1.807,1.806l1.898-0.019l1.9-0.02
		l0.295,0.647c0.164,0.356,0.299,0.661,0.3,0.678s0.089,0.198,0.194,0.404c0.106,0.205,0.176,0.373,0.154,0.373
		c-0.021,0-0.008,0.036,0.029,0.081s0.699,1.448,1.471,3.119l1.404,3.039v2.495v2.495h-11.2H4.958v-3.225V1040.03z M20.369,1034.623
		v-3.673H20.07h-0.299v3.673v3.673h0.299h0.299V1034.623z M25.482,1037.475c-0.205-0.451-0.949-2.091-1.652-3.644l-1.279-2.822
		h-0.424h-0.426l-0.039,1.174c-0.021,0.646-0.039,2.286-0.039,3.644v2.469h2.117h2.117L25.482,1037.475z M18.518,1034.594v-3.644
		h-0.299H17.92v3.644v3.644h0.299h0.299V1034.594z M16.307,1033.877v-2.927H13.38h-2.927v2.927v2.927h2.927h2.927V1033.877z"/>
	<path id="path7856" inkscape:connector-curvature="0" fill="#B40000" d="M10.961,1045.999c-0.665-0.136-1.183-0.432-1.652-0.943
		c-0.293-0.32-0.594-0.859-0.681-1.219l-0.04-0.164h2.91h2.91l-0.04,0.164c-0.097,0.402-0.408,0.938-0.753,1.298
		C12.924,1045.854,11.894,1046.19,10.961,1045.999z"/>
	<path id="path7858" inkscape:connector-curvature="0" fill="#B40000" d="M16.783,1045.926c-0.504-0.172-0.947-0.46-1.281-0.831
		c-0.283-0.314-0.603-0.904-0.666-1.229l-0.038-0.193h2.91h2.911l-0.038,0.164c-0.021,0.09-0.135,0.362-0.252,0.604
		c-0.367,0.754-1.135,1.373-1.933,1.557C17.93,1046.104,17.216,1046.073,16.783,1045.926z"/>
	<path id="path7860" inkscape:connector-curvature="0" fill="#B40000" d="M4.779,1046.807v-0.388h11.498h11.498v0.388v0.389H16.277
		H4.779V1046.807z"/>
</g>
</svg>
