<?xml version="1.0" encoding="utf-8"?>
<!-- Generator: Adobe Illustrator 16.0.3, SVG Export Plug-In . SVG Version: 6.00 Build 0)  -->
<!DOCTYPE svg PUBLIC "-//W3C//DTD SVG 1.1//EN" "http://www.w3.org/Graphics/SVG/1.1/DTD/svg11.dtd">
<svg version="1.1"
	 id="svg8607" xmlns:dc="http://purl.org/dc/elements/1.1/" xmlns:cc="http://creativecommons.org/ns#" xmlns:rdf="http://www.w3.org/1999/02/22-rdf-syntax-ns#" xmlns:svg="http://www.w3.org/2000/svg" xmlns:sodipodi="http://sodipodi.sourceforge.net/DTD/sodipodi-0.dtd" xmlns:inkscape="http://www.inkscape.org/namespaces/inkscape" inkscape:version="0.91 r13725" sodipodi:docname="clinic.svg" inkscape:export-filename="C:\Users\Fabienne\Desktop\Symbole\png\clinic.png" inkscape:export-xdpi="90" inkscape:export-ydpi="90"
	 xmlns="http://www.w3.org/2000/svg" xmlns:xlink="http://www.w3.org/1999/xlink" x="0px" y="0px" width="32px" height="32px"
	 viewBox="0 0 32 32" enable-background="new 0 0 32 32" xml:space="preserve">
<sodipodi:namedview  pagecolor="#ffffff" bordercolor="#666666" borderopacity="1" inkscape:zoom="10.429825" inkscape:cx="-9.2737228" inkscape:cy="14.981056" id="namedview8611" showgrid="false" inkscape:pageopacity="0" inkscape:pageshadow="2" inkscape:current-layer="svg8607" inkscape:window-maximized="1" inkscape:window-height="1003" inkscape:window-width="1920" inkscape:window-x="-9" inkscape:window-y="-9" guidetolerance="10" objecttolerance="10" gridtolerance="10">
	</sodipodi:namedview>
<path id="path4745" inkscape:connector-curvature="0" fill="none" d="M8.972,31.111c-3.917-0.027-3.982-0.029-4.314-0.123
	c-0.875-0.246-1.639-0.695-2.283-1.342c-0.636-0.646-0.992-1.217-1.279-2.074l-0.154-0.459l-0.041-1.539
	C0.844,23.406,0.883,5.543,0.947,5.077c0.092-0.668,0.455-1.514,0.916-2.133C2.558,2.01,3.458,1.392,4.627,1.046l0.367-0.109
	l2.594-0.031c3.373-0.041,13.688-0.041,16.926,0l2.527,0.032l0.391,0.118c1.782,0.542,3.098,1.896,3.553,3.658
	c0.104,0.385,0.108,0.527,0.148,2.079c0.026,1.035,0.032,5.134,0.016,10.818l-0.021,9.152l-0.104,0.414
	c-0.465,1.86-1.813,3.272-3.607,3.78L27,31.078l-4.042,0.031C18.41,31.152,14.788,31.15,8.972,31.111L8.972,31.111L8.972,31.111z"/>
<ellipse fill="none" cx="15.64" cy="15.848" rx="12.137" ry="11.766"/>
<path id="path4153" inkscape:connector-curvature="0" fill="none" d="M5.183,31.771c-2.588-0.338-4.654-2.445-4.951-5.053
	c-0.03-0.267-0.04-3.855-0.03-10.984L0.216,5.15l0.093-0.384C0.503,3.96,0.755,3.372,1.176,2.742
	c0.859-1.286,2.253-2.188,3.816-2.468c0.402-0.072,1.024-0.076,11.027-0.076c11.842,0,10.881-0.024,11.844,0.298
	c0.867,0.291,1.545,0.702,2.193,1.333c0.687,0.665,1.178,1.445,1.463,2.322c0.304,0.928,0.277,0.088,0.276,11.844
	c0,11.396,0.015,10.876-0.212,11.671c-0.229,0.834-0.771,1.764-1.396,2.398c-0.818,0.832-1.778,1.356-2.992,1.647
	c-0.303,0.072-0.901,0.076-11.027,0.084C10.278,31.807,5.335,31.793,5.183,31.771L5.183,31.771z M26.951,31.285
	c2.152-0.375,3.805-1.967,4.303-4.143l0.098-0.434l0.021-10.376c0.016-10.56,0.01-10.917-0.146-11.577
	c-0.229-1.001-0.77-1.931-1.528-2.652c-0.734-0.7-1.563-1.127-2.63-1.362c-0.35-0.073-0.797-0.076-11.047-0.076
	C5.928,0.666,5.314,0.67,4.96,0.742C3.042,1.134,1.521,2.471,0.92,4.29C0.644,5.125,0.661,4.386,0.661,16.019
	c0,11.637-0.017,10.893,0.259,11.717c0.609,1.82,2.203,3.205,4.075,3.543C5.514,31.375,26.415,31.379,26.951,31.285z"/>
<circle opacity="0.8" fill="#FFFFFF" enable-background="new    " cx="15.64" cy="15.732" r="11.977"/>
<path id="path9157" inkscape:connector-curvature="0" fill="#278EFF" d="M12.465,21.684v-2.521H9.944H7.423V15.84v-3.323h2.521
	h2.521V9.996V7.475h3.323h3.323v2.521v2.521h2.578h2.578v3.323v3.323h-2.578h-2.58v2.521v2.521h-3.322h-3.323L12.465,21.684
	L12.465,21.684z"/>
<path id="path9159" inkscape:connector-curvature="0" fill="#278EFF" d="M13.217,28.516c-4.756-1.018-8.58-4.713-9.816-9.486
	c-1.813-7,2.478-14.191,9.5-15.938c1.355-0.335,3.412-0.443,4.748-0.248c7.336,1.073,12.295,7.988,10.979,15.3
	c-0.813,4.521-4.207,8.48-8.521,9.957C18.061,28.801,15.319,28.965,13.217,28.516z M18.674,26.604
	c3.135-0.746,5.971-3.045,7.393-5.994c0.813-1.687,1.08-2.842,1.099-4.733c0.021-3.244-1.095-5.883-3.403-8.097
	c-2.232-2.14-4.773-3.152-7.912-3.152c-3.075,0-5.832,1.155-7.998,3.351c-4.38,4.44-4.287,11.529,0.207,15.801
	C10.923,26.51,14.765,27.531,18.674,26.604z"/>
</svg>
