<?xml version="1.0" encoding="utf-8"?>
<!-- Generator: Adobe Illustrator 16.0.3, SVG Export Plug-In . SVG Version: 6.00 Build 0)  -->
<!DOCTYPE svg PUBLIC "-//W3C//DTD SVG 1.1//EN" "http://www.w3.org/Graphics/SVG/1.1/DTD/svg11.dtd">
<svg version="1.1"
	 id="svg9722" xmlns:dc="http://purl.org/dc/elements/1.1/" xmlns:cc="http://creativecommons.org/ns#" xmlns:rdf="http://www.w3.org/1999/02/22-rdf-syntax-ns#" xmlns:svg="http://www.w3.org/2000/svg" xmlns:sodipodi="http://sodipodi.sourceforge.net/DTD/sodipodi-0.dtd" xmlns:inkscape="http://www.inkscape.org/namespaces/inkscape" inkscape:version="0.91 r13725" sodipodi:docname="dentist.svg" inkscape:export-filename="C:\Users\Fabienne\Desktop\Symbole\png\dentist.png" inkscape:export-xdpi="90" inkscape:export-ydpi="90"
	 xmlns="http://www.w3.org/2000/svg" xmlns:xlink="http://www.w3.org/1999/xlink" x="0px" y="0px" width="32px" height="32px"
	 viewBox="0 0 32 32" enable-background="new 0 0 32 32" xml:space="preserve">
<sodipodi:namedview  pagecolor="#ffffff" bordercolor="#666666" borderopacity="1" inkscape:zoom="10.429825" inkscape:cx="-5.7713205" inkscape:cy="11.541874" id="namedview9726" showgrid="false" inkscape:pageopacity="0" inkscape:pageshadow="2" inkscape:current-layer="svg9722" inkscape:window-maximized="1" inkscape:window-height="1003" inkscape:window-width="1920" inkscape:window-x="-9" inkscape:window-y="-9" guidetolerance="10" objecttolerance="10" gridtolerance="10">
	</sodipodi:namedview>
<path id="path4745" inkscape:connector-curvature="0" inkscape:export-filename="C:\Users\Fabienne\Desktop\Symbole\png\dentist.png" inkscape:export-xdpi="90" inkscape:export-ydpi="90" fill="none" d="
	M8.972,31.111c-3.917-0.027-3.982-0.029-4.314-0.123c-0.875-0.246-1.639-0.695-2.283-1.342c-0.636-0.643-0.992-1.217-1.279-2.074
	l-0.154-0.459l-0.041-1.539C0.844,23.406,0.883,5.543,0.947,5.077c0.092-0.668,0.455-1.514,0.916-2.133
	C2.558,2.01,3.458,1.392,4.627,1.046l0.367-0.109l2.594-0.031c3.373-0.041,13.688-0.041,16.926,0l2.527,0.032l0.391,0.118
	c1.782,0.542,3.098,1.896,3.553,3.658c0.103,0.385,0.108,0.527,0.148,2.079c0.026,1.035,0.032,5.134,0.016,10.818l-0.024,9.152
	l-0.104,0.414c-0.465,1.863-1.812,3.275-3.608,3.783L27,31.078l-4.042,0.031C18.41,31.152,14.788,31.15,8.972,31.111L8.972,31.111
	L8.972,31.111z"/>
<path id="path10272" inkscape:connector-curvature="0" fill="#278EFF" d="M11.334,29.254c-0.727-0.359-1.348-1.107-1.943-2.344
	c-0.835-1.732-0.921-2.439-0.904-7.401c0.018-5.012-0.025-5.383-1.027-8.916C6.507,7.235,6.488,5.608,7.384,4.278
	c0.483-0.717,1.04-1.019,1.734-0.938c1.134,0.13,1.875,0.349,3.079,0.907c1.495,0.694,2.435,0.924,3.787,0.927
	c1.413,0.002,2.155-0.175,3.735-0.89c1.625-0.736,1.627-0.736,2.811-0.887c0.896-0.114,0.979-0.103,1.422,0.186
	c0.709,0.466,1.258,1.676,1.339,2.95c0.051,0.849,0,1.223-0.336,2.467c-1.522,5.627-1.599,6.137-1.386,9.648
	c0.349,5.772-0.699,9.644-2.883,10.635c-0.681,0.308-1.16,0.304-1.479-0.014c-0.354-0.353-0.326-0.715,0.204-3.102
	c0.438-1.945,0.456-2.15,0.387-3.654c-0.091-1.998-0.325-2.845-0.974-3.455c-0.604-0.578-1.313-0.768-2.897-0.768
	c-1.529,0-2.285,0.232-2.887,0.9c-0.616,0.685-0.735,1.181-0.807,3.381c-0.059,1.814-0.042,1.996,0.332,3.553
	C13.306,29.195,12.964,30.063,11.334,29.254z"/>
<path id="path4153" inkscape:connector-curvature="0" fill="none" d="M5.183,31.771c-2.588-0.338-4.654-2.445-4.951-5.053
	c-0.03-0.264-0.04-3.854-0.03-10.981L0.216,5.15l0.093-0.384C0.503,3.96,0.755,3.372,1.176,2.742
	c0.859-1.286,2.253-2.188,3.816-2.468c0.402-0.072,1.024-0.076,11.027-0.076c11.842,0,10.881-0.024,11.844,0.298
	c0.867,0.291,1.545,0.702,2.193,1.333c0.687,0.665,1.178,1.445,1.463,2.322c0.304,0.928,0.28,0.088,0.279,11.844
	c0,11.396,0.012,10.876-0.212,11.671c-0.229,0.834-0.772,1.764-1.399,2.398c-0.818,0.832-1.778,1.359-2.992,1.65
	c-0.303,0.072-0.901,0.076-11.027,0.084C10.278,31.807,5.335,31.793,5.183,31.771L5.183,31.771z M26.951,31.285
	c2.152-0.375,3.805-1.967,4.303-4.143l0.098-0.431l0.019-10.376c0.014-10.56,0.01-10.917-0.146-11.577
	c-0.229-1.001-0.769-1.931-1.529-2.652c-0.735-0.7-1.563-1.127-2.629-1.362C26.719,0.67,26.271,0.667,16.02,0.667
	c-10.093,0-10.707,0.004-11.061,0.076C3.042,1.134,1.521,2.471,0.92,4.29C0.644,5.125,0.661,4.386,0.661,16.019
	c0,11.637-0.017,10.893,0.259,11.717c0.609,1.82,2.203,3.205,4.075,3.543C5.514,31.375,26.415,31.379,26.951,31.285z"/>
</svg>
