<?xml version="1.0" encoding="UTF-8"?>
<!DOCTYPE svg PUBLIC "-//W3C//DTD SVG 1.1//EN" "http://www.w3.org/Graphics/SVG/1.1/DTD/svg11.dtd">
<!-- Creator: CorelDRAW X6 -->
<svg xmlns="http://www.w3.org/2000/svg" xml:space="preserve" width="210mm" height="297mm" version="1.1" style="shape-rendering:geometricPrecision; text-rendering:geometricPrecision; image-rendering:optimizeQuality; fill-rule:evenodd; clip-rule:evenodd"
viewBox="0 0 21000 29700"
 xmlns:xlink="http://www.w3.org/1999/xlink">
 <defs>
  <style type="text/css">
   <![CDATA[
    .fil0 {fill:#FEFEFE;fill-rule:nonzero}
    .fil1 {fill:#278EFF;fill-rule:nonzero}
   ]]>
  </style>
 </defs>
 <g id="Ebene_x0020_1">
  <metadata id="CorelCorpID_0Corel-Layer"/>
  <polygon class="fil0" points="10247,15182 10762,15182 10762,14711 10247,14711 "/>
  <path class="fil1" d="M10562 15093l0 -62 63 -1 63 -1 0 -129 -63 -1 -63 -1 0 -124 -129 0 0 124 -63 1 -63 1 -1 66 -1 65 129 0 0 125 129 0 0 -62zm-378 -66l0 -252 63 -63 63 -63 374 0 63 63 63 63 0 505 -627 0 0 -252z"/>
  <polygon class="fil1" points="10308,14489 10308,14395 10686,14395 10686,14584 10308,14584 "/>
 </g>
</svg>
